<?xml version="1.0" encoding="utf-8"?>
<!-- Generator: Adobe Illustrator 21.0.1, SVG Export Plug-In . SVG Version: 6.00 Build 0)  -->
<svg version="1.1" id="Layer_1" xmlns="http://www.w3.org/2000/svg" xmlns:xlink="http://www.w3.org/1999/xlink" x="0px" y="0px"
	 viewBox="0 0 453 788.8" style="enable-background:new 0 0 453 788.8;" xml:space="preserve">
<style type="text/css">
	.st0{clip-path:url(#SVGID_2_);}
	.st1{fill:url(#_Rectangle__1_);}
	.st2{opacity:0.24;fill:#FFFFFF;enable-background:new    ;}
	.st3{opacity:8.000000e-02;fill:#FFFFFF;enable-background:new    ;}
	.st4{opacity:0.27;}
	.st5{fill:#FFE7E1;}
	.st6{fill:url(#_Path_5_1_);}
	.st7{fill:url(#_Path_6_1_);}
	.st8{fill:#FFFFFF;}
	.st9{opacity:0.81;}
	.st10{fill:url(#_Path_9_1_);}
	.st11{fill:url(#_Path_10_1_);}
	.st12{fill:url(#_Path_13_1_);}
	.st13{fill:url(#_Path_14_1_);}
	.st14{opacity:0.16;}
	.st15{fill:#AD5236;}
	.st16{opacity:0.12;}
	.st17{fill:url(#_Path_17_1_);}
	.st18{fill:url(#_Path_18_1_);}
	.st19{opacity:0.49;}
	.st20{fill:url(#_Path_21_1_);}
	.st21{fill:url(#_Path_22_1_);}
	.st22{opacity:0.76;fill:#AD5236;enable-background:new    ;}
	.st23{fill:#CE783F;}
	.st24{fill:#B4673E;}
	.st25{fill:#E49345;}
	.st26{fill:#9B5C3F;}
	.st27{fill:none;stroke:#2D2D2D;stroke-miterlimit:10;}
	.st28{fill:none;}
	.st29{fill:#82820F;}
	.st30{opacity:0.62;}
	.st31{opacity:0.39;}
	.st32{fill:url(#SVGID_3_);}
	.st33{opacity:0.21;fill:#AD5236;enable-background:new    ;}
	.st34{opacity:0.5;fill:#492E17;enable-background:new    ;}
	.st35{fill:url(#SVGID_4_);}
	.st36{fill:none;stroke:#F9F9F9;stroke-width:0.5;stroke-linecap:round;stroke-linejoin:round;}
	.st37{fill:#F9F9F9;stroke:#F9F9F9;stroke-width:0.25;stroke-miterlimit:10;}
</style>
<title>Asset 2</title>
<g>
	<g id="Layer_2">
		<g id="Layer_1-2">
			<g>
				<g>
					<defs>
						<rect id="SVGID_1_" x="0.8" width="452.3" height="793.8"/>
					</defs>
					<clipPath id="SVGID_2_">
						<use xlink:href="#SVGID_1_"  style="overflow:visible;"/>
					</clipPath>
					<g class="st0">
						
							<linearGradient id="_Rectangle__1_" gradientUnits="userSpaceOnUse" x1="226.95" y1="389.2797" x2="226.95" y2="1099.9586" gradientTransform="matrix(1 0 0 1 0 -442.4243)">
							<stop  offset="0" style="stop-color:#BC6E5C"/>
							<stop  offset="0.23" style="stop-color:#D19475"/>
							<stop  offset="0.45" style="stop-color:#E3B58A"/>
							<stop  offset="0.58" style="stop-color:#EAC192"/>
							<stop  offset="0.66" style="stop-color:#ECC38B"/>
							<stop  offset="0.79" style="stop-color:#F1C778"/>
							<stop  offset="0.93" style="stop-color:#FACE59"/>
							<stop  offset="1" style="stop-color:#FFD248"/>
						</linearGradient>
						<rect id="_Rectangle_" x="0.8" y="-3.2" class="st1" width="452.3" height="778.1"/>
						<path id="_Path_" class="st2" d="M434.9,174.4c0,0-106.1-37.9-147.2-23.2c0,0,67.2-5.1,142.6,28.5L434.9,174.4z"/>
						<path id="_Compound_Path_" class="st2" d="M341.8,48.4c-40.6,5.1-65.5,3.8-92.7-0.4c40.4,1.9,84.9-1.6,92.7-5.4
							c11-5.4,71.8,0,71.8,0l5.5-2.6c0,0-48.1-7.3-83.8,2.6s-132-2.6-132-2.6l0,0c-4.5-0.7-9.2-1.6-14.1-2.5
							C127.4,27.2-13.9,69.6-13.9,69.6l12.3,28.8c0,0,140.4-42.6,170.8-42.3S275,75.6,329,64.9s123.9,13,123.9,13l11.4-25.2
							C464.3,52.7,408.6,40,341.8,48.4z M96,53.5c-2.4,3.6-10.4,7.5-21.2,8c0,0-10.8-0.6-7.7-5.1C70.2,51.9,98.5,49.8,96,53.5z
							 M100.3,59.3c-7.1-5.7,8.8-15.8,42.6-13.5C176.7,48.3,115.7,71.4,100.3,59.3L100.3,59.3z M279.2,61.7
							c-35.8-0.6-110.7-11.9-88.2-10.5C235.7,53.9,318.3,62.5,279.2,61.7z M291.6,56.5c0,0,18.8-3.7,23.3,0
							C319.4,60.2,286.5,59.4,291.6,56.5L291.6,56.5z"/>
						<path id="_Compound_Path_2" class="st2" d="M441.6,221.2c-3.1,1.7-135.5-14.3-155.8-23.3c-20.3-9-58.8,6.9-101.4,13.3
							c-42.6,6.3-176.9,1.2-176.9,1.2l8.7,9.4c0,0,127.1,32.7,192,3.1s242.3,11.4,242.3,11.4S444.7,219.5,441.6,221.2z M90.3,223.9
							c-1.8-0.9-0.8-2.7,1.5-2.8c16.2-0.1,58.6-0.4,69.1,0C179.7,222.1,130.8,244.8,90.3,223.9z M295.6,207.3c0,0,21.9-0.2,24.2,5.3
							C322.2,218,280,210.1,295.6,207.3L295.6,207.3z"/>
						<path id="_Compound_Path_3" class="st3" d="M441.6,380c-3.1,1.7-135.5-14.3-155.8-23.3c-20.3-9-58.8,6.9-101.4,13.3
							c-42.6,6.3-176.9,1.2-176.9,1.2l8.7,9.4c0,0,127.1,32.7,192,3.1c64.9-29.6,242.3,11.4,242.3,11.4S444.7,378.3,441.6,380z
							 M90.3,382.7c-1.8-0.9-0.8-2.7,1.5-2.8c16.2-0.1,58.6-0.4,69.1,0C179.7,380.9,130.8,403.6,90.3,382.7z M295.6,366
							c0,0,21.9-0.2,24.2,5.3C322.2,376.8,280,368.9,295.6,366L295.6,366z"/>
						<path id="_Compound_Path_4" class="st2" d="M235.1,283.9c0,0,61.8-25.9,84.4-7.3c22.6,18.8,66.9-2.1,66.9-2.1l3-5.8
							c0,0-46.8,3.2-61.6-0.7c-14.8-4.1-28.3-14.2-35.3-8.4c-7.1,5.7-53.2,15.8-54.3,14.7C237.1,273.2,235.1,283.9,235.1,283.9z
							 M336,274.3c3.7-0.2,18.4-0.1,24,0c0.5,0,0.9,0.5,0.9,1.1c0,0.2-0.1,0.5-0.3,0.7C346.5,289.2,329.5,274.8,336,274.3L336,274.3
							z M280.7,268.8c0.8-3.6,8.5-3.3,8.5-3.3C294.6,267.2,279.9,272.2,280.7,268.8z"/>
						<g id="_Group_">
							<path id="_Compound_Path_5" class="st2" d="M361.2,118.5c27.3,2.1,71.1,2.1,71.1,2.1l-2.7-7c-16.6,9-63.4,2-85-2
								c-1.8-0.9-3.4-1.6-5-2.5c-30.4-16-74.2-3.5-93.8,7.3c-24.9,2-57.3-1-81.2-3.8l-12-3.5C92.1,92,20.8,146.7,19.4,146.7v10.9
								c-10.3-0.7-19-1.9-24.5-2.6c-4-0.5-6.4-0.9-6.5-0.9c-0.2,0,19.7,15.4,33.8,13.5c12.9,1.6,29.7,0.7,50.2-5.9
								c43.3-14.2,60.9-9.8,66.8-6.8c-5.6-3-20.7-8.5-49.6-0.7C74,158.3,54,159,36,158.4c26.2-16.5,77.2-44.3,104.2-29.6
								c37.4,20.2,86.9,15.7,130.2,0S457.3,167,457.3,167v-20.2C457.3,146.7,399.9,133.1,361.2,118.5z M74.4,128.8
								c-0.7-2.1,7.8-16,20.1-12.3C106.8,120.1,76.7,135.8,74.4,128.8z M116.3,118.3c-7.2,4.4-15.1,2.7-8.9-1.9
								C108.7,115.4,123.5,113.8,116.3,118.3L116.3,118.3z M149.7,120c0,0,29.2,4.2,30.8,8.9S134.7,123.1,149.7,120L149.7,120z
								 M241.2,119.3c-11,7.5-19.9,8-44,2.1c14.7,0.9,29.5,0.1,44.2-2.2L241.2,119.3z M270.3,120c-11,0.9,31.6-13.6,40.3-6.3
								C319.4,121.1,293.3,118.3,270.3,120L270.3,120z"/>
							<path id="_Path_2" class="st2" d="M139.3,154.7c0.9,0.5,1.7,1,2.5,1.6C141,155.7,140.2,155.1,139.3,154.7z"/>
						</g>
						<g id="_Group_2" class="st4">
							<path id="_Compound_Path_6" class="st2" d="M356.9,483.3c28.1,2.1,73.3,2.1,73.3,2.1l-2.8-7.3c-17.1,9.3-65.3,2.1-87.5-2
								c-1.8-0.9-3.5-1.7-5.1-2.6c-31.4-16.5-76.5-3.5-96.6,7.4c-25.6,2-59-1-83.7-4l-12.4-3.5C79.7,455.9,6.2,512.2,4.8,512.2v11.2
								c-10.6-0.9-19.5-1.9-25.3-2.6c-4.1-0.5-6.6-0.9-6.7-0.9S-7,535.8,7.6,533.8c13.3,1.7,30.6,0.7,51.7-6.2
								c44.6-14.6,62.8-10,68.8-7c-5.7-3.1-21.4-8.8-51.1-0.6c-16.1,4.4-36.7,5.1-55.4,4.4c27-17,79.5-45.6,107.4-30.6
								c38.5,20.9,89.5,16.2,134.1,0c44.6-16.2,192.5,39.3,192.5,39.3v-20.9C455.9,512.2,396.8,498.3,356.9,483.3z M61.5,493.8
								c-0.7-2.1,8-16.5,20.7-12.7c12.7,3.8-18.4,20-20.8,12.7H61.5z M104.7,483.1c-7.4,4.6-15.5,2.8-9.1-2
								C96.9,480.1,112.1,478.4,104.7,483.1L104.7,483.1z M139.2,484.8c0,0,30.1,4.3,31.8,9.1S123.6,487.9,139.2,484.8L139.2,484.8z
								 M233.4,484.1c-11.3,7.7-20.6,8.3-45.3,2.2c15.2,1,30.4,0.1,45.5-2.3L233.4,484.1z M263.4,484.8
								c-11.3,0.9,32.5-14.1,41.6-6.5s-18,4.8-41.7,6.5H263.4z"/>
							<path id="_Path_3" class="st2" d="M128.2,520.6c0.9,0.5,1.8,1,2.6,1.6C130,521.6,129.2,521,128.2,520.6z"/>
						</g>
						<path id="_Path_4" class="st5" d="M160.8,47.2c0,0,0.8-28.9-18.7-20.5c0,0,0.4-21-28.1-19.8C83.3,8.4,93.3,31.9,93.3,31.9
							s-14.2-6-19.8,0c-2.9,3.1-4.1,9.1-4.6,14.1c-16.2-11-28.8,6.8-24.5,8.1c4.3,1.4,24.1,0,24.1,0s12.2,2.2,18.9,0
							c16.3,3.1,33,3.5,49.5,1c7.8,2,16,2,23.8,0.4c0,0,16.6,0.6,22.4-1.4S173.6,37.8,160.8,47.2z"/>
						<g id="_Group_3">
							
								<linearGradient id="_Path_5_1_" gradientUnits="userSpaceOnUse" x1="96.7275" y1="535.2362" x2="123.2371" y2="452.7634" gradientTransform="matrix(1 0 0 1 0 -442.4243)">
								<stop  offset="0" style="stop-color:#A085A5"/>
								<stop  offset="0.24" style="stop-color:#AC6D84;stop-opacity:0.67"/>
								<stop  offset="0.58" style="stop-color:#BE4C55;stop-opacity:0.2"/>
								<stop  offset="0.62" style="stop-color:#C05057;stop-opacity:0.23"/>
								<stop  offset="0.68" style="stop-color:#C65B5C;stop-opacity:0.3"/>
								<stop  offset="0.75" style="stop-color:#CF6E64;stop-opacity:0.41"/>
								<stop  offset="0.83" style="stop-color:#DC8770;stop-opacity:0.57"/>
								<stop  offset="0.92" style="stop-color:#EDA87E;stop-opacity:0.78"/>
								<stop  offset="1" style="stop-color:#FFCB8E"/>
							</linearGradient>
							<path id="_Path_5" class="st6" d="M157.4,53.1c-8.4,4.8-26.6-7.9-26.6-7.9c-1.2,1.2-2.7,2.2-4.2,3c-4.7,1.9-9.8,1.1-13.9-2.1
								c-30.5-23.3-0.4-38.8-0.3-38.9C87.6,8.9,91.5,26,93,30.7c1.7,3.1,3.7,5.9,6.2,8.3C87.5,28.4,78,29.6,77.3,29.6
								c-1.4,0.4-2.6,1.1-3.7,2.1c-2.8,3.1-4.1,9-4.6,14c0.4,2.3,0.7,4,0.7,4c-1.8-2.6-3.9-4.8-6.3-6.7C50,38.6,40.6,52.7,44.5,53.8
								c4.4,1.2,24.1,0,24.1,0s12.2,2.2,18.9,0c16.3,3.1,33,3.5,49.5,1c7.8,2,16,2,23.8,0.4c0,0,7.6,0.2,14.3-0.1
								C169.2,54.9,163.3,54.3,157.4,53.1z"/>
							
								<linearGradient id="_Path_6_1_" gradientUnits="userSpaceOnUse" x1="179.7" y1="497.1138" x2="179.7" y2="497.1138" gradientTransform="matrix(1 0 0 1 0 -442.4243)">
								<stop  offset="0" style="stop-color:#A085A5"/>
								<stop  offset="0.24" style="stop-color:#AC6D84;stop-opacity:0.67"/>
								<stop  offset="0.58" style="stop-color:#BE4C55;stop-opacity:0.2"/>
								<stop  offset="0.62" style="stop-color:#C05057;stop-opacity:0.23"/>
								<stop  offset="0.68" style="stop-color:#C65B5C;stop-opacity:0.3"/>
								<stop  offset="0.75" style="stop-color:#CF6E64;stop-opacity:0.41"/>
								<stop  offset="0.83" style="stop-color:#DC8770;stop-opacity:0.57"/>
								<stop  offset="0.92" style="stop-color:#EDA87E;stop-opacity:0.78"/>
								<stop  offset="1" style="stop-color:#FFCB8E"/>
							</linearGradient>
							<path id="_Path_6" class="st7" d="M179.7,54.7L179.7,54.7L179.7,54.7z"/>
						</g>
						<path id="_Path_7" class="st8" d="M160.8,47.2c0,0,0.8-27.3-18.7-18.9c0,0-1.3-14.9-17.2-20c3.8,2.7,18.1,4.8,15.8,20
							c0,0,12.1-3.7,18.6,20.9c0,0,15.4-12,23.9,4.8C189,52,173.6,37.8,160.8,47.2z"/>
						<g id="_Group_4" class="st9">
							<path id="_Path_8" class="st5" d="M335.1,71c0,0-4.2-20.5-21.6-13.1c0,0,5.2-24.1-20.3-23c-27.5,1.2-18.5,22.2-18.5,22.2
								s-12.7-5.4-17.7,0c-2.6,2.8-3.7,8.1-4.1,12.6c-14.5-9.9-25.8,6.2-21.9,7.3c3.9,1.1,21.6,0,21.6,0s10.9,2,17,0
								c14.6,2.8,29.5,3.1,44.3,0.9c7,1.7,14.3,1.9,21.3,0.2c0,0,14.8,0.5,20-1.2C360.4,75.3,346.6,62.6,335.1,71z"/>
							<g id="_Group_5">
								
									<linearGradient id="_Path_9_1_" gradientUnits="userSpaceOnUse" x1="277.7988" y1="554.3037" x2="301.5361" y2="480.4659" gradientTransform="matrix(1 0 0 1 0 -442.4243)">
									<stop  offset="0" style="stop-color:#A085A5"/>
									<stop  offset="0.24" style="stop-color:#AC6D84;stop-opacity:0.67"/>
									<stop  offset="0.58" style="stop-color:#BE4C55;stop-opacity:0.2"/>
									<stop  offset="0.62" style="stop-color:#C05057;stop-opacity:0.23"/>
									<stop  offset="0.68" style="stop-color:#C65B5C;stop-opacity:0.3"/>
									<stop  offset="0.75" style="stop-color:#CF6E64;stop-opacity:0.41"/>
									<stop  offset="0.83" style="stop-color:#DC8770;stop-opacity:0.57"/>
									<stop  offset="0.92" style="stop-color:#EDA87E;stop-opacity:0.78"/>
									<stop  offset="1" style="stop-color:#FFCB8E"/>
								</linearGradient>
								<path id="_Path_9" class="st10" d="M332.1,76.3c-7.5,4.3-23.8-7-23.8-7c-1.1,1.1-2.4,2.1-3.8,2.6c-4.2,1.6-8.8,1-12.4-1.9
									c-27.3-21-0.4-34.8-0.2-34.8c-22.3,1.5-18.9,16.9-17.5,21.1c1.5,2.8,3.4,5.3,5.5,7.4c-10.5-9.4-19-8.5-19.6-8.4
									c-1.2,0.4-2.4,1-3.3,2c-2.6,2.8-3.7,8.1-4.1,12.6c0.3,2.1,0.7,3.6,0.7,3.6c-1.6-2.3-3.5-4.3-5.7-5.9
									c-12-3.8-20.4,8.8-17,9.8c3.9,1.1,21.6,0,21.6,0s10.9,2,17,0c14.6,2.8,29.5,3.1,44.3,0.9c7,1.7,14.3,1.9,21.3,0.2
									c0,0,6.8,0.2,12.8-0.1C342.6,78,337.3,77.4,332.1,76.3z"/>
								
									<linearGradient id="_Path_10_1_" gradientUnits="userSpaceOnUse" x1="352.1" y1="520.1995" x2="352.1" y2="520.1995" gradientTransform="matrix(1 0 0 1 0 -442.4243)">
									<stop  offset="0" style="stop-color:#A085A5"/>
									<stop  offset="0.24" style="stop-color:#AC6D84;stop-opacity:0.67"/>
									<stop  offset="0.58" style="stop-color:#BE4C55;stop-opacity:0.2"/>
									<stop  offset="0.62" style="stop-color:#C05057;stop-opacity:0.23"/>
									<stop  offset="0.68" style="stop-color:#C65B5C;stop-opacity:0.3"/>
									<stop  offset="0.75" style="stop-color:#CF6E64;stop-opacity:0.41"/>
									<stop  offset="0.83" style="stop-color:#DC8770;stop-opacity:0.57"/>
									<stop  offset="0.92" style="stop-color:#EDA87E;stop-opacity:0.78"/>
									<stop  offset="1" style="stop-color:#FFCB8E"/>
								</linearGradient>
								<path id="_Path_10" class="st11" d="M352.1,77.8L352.1,77.8L352.1,77.8z"/>
							</g>
							<path id="_Path_11" class="st8" d="M335.1,71c0,0-4.2-20.5-21.6-13.1c0,0,3.7-17.2-10.5-21.9c3.4,2.5,10.9,9.4,8.8,23.1
								c0,0,16.1-8.4,21.9,13.6c0,0,13.8-10.6,21.4,4.3C360.4,75.3,346.6,62.6,335.1,71z"/>
						</g>
						<g id="_Group_6">
							<path id="_Path_12" class="st5" d="M419.2,123.5c0,0-3.2-15.7-16.5-10c0,0,4-18.4-15.5-17.5c-21.1,0.9-14.2,17-14.2,17
								s-9.8-4.1-13.6,0c-2,2.1-2.8,6.3-3.2,9.6c-11.1-7.5-19.8,4.7-16.8,5.6c3,0.9,16.5,0,16.5,0s8.4,1.6,13,0
								c11.2,2.1,22.6,2.3,33.9,0.7c5.4,1.4,10.9,1.4,16.3,0.2c0,0,11.3,0.4,15.3-0.9C438.7,126.8,428,117,419.2,123.5z"/>
							<g id="_Group_7">
								
									<linearGradient id="_Path_13_1_" gradientUnits="userSpaceOnUse" x1="375.3629" y1="597.1873" x2="393.5433" y2="540.6433" gradientTransform="matrix(1 0 0 1 0 -442.4243)">
									<stop  offset="0" style="stop-color:#A085A5"/>
									<stop  offset="0.24" style="stop-color:#AC6D84;stop-opacity:0.67"/>
									<stop  offset="0.58" style="stop-color:#BE4C55;stop-opacity:0.2"/>
									<stop  offset="0.62" style="stop-color:#C05057;stop-opacity:0.23"/>
									<stop  offset="0.68" style="stop-color:#C65B5C;stop-opacity:0.3"/>
									<stop  offset="0.75" style="stop-color:#CF6E64;stop-opacity:0.41"/>
									<stop  offset="0.83" style="stop-color:#DC8770;stop-opacity:0.57"/>
									<stop  offset="0.92" style="stop-color:#EDA87E;stop-opacity:0.78"/>
									<stop  offset="1" style="stop-color:#FFCB8E"/>
								</linearGradient>
								<path id="_Path_13" class="st12" d="M416.9,127.5c-5.8,3.3-18.2-5.4-18.2-5.4c-0.8,0.9-1.8,1.6-2.9,2.1
									c-3.2,1.2-6.7,0.7-9.5-1.5c-20.9-16-0.3-26.7-0.2-26.7c-17,1.2-14.4,13-13.4,16.2c1.1,2.1,2.6,4.1,4.2,5.7
									c-8-7.3-14.6-6.5-15-6.4c-0.9,0.2-1.8,0.7-2.5,1.5c-2,2.1-2.8,6.3-3.2,9.6c0.2,1.6,0.5,2.7,0.5,2.7
									c-1.2-1.7-2.6-3.3-4.2-4.6c-9.2-3-15.5,6.7-13,7.4c3,0.9,16.5,0,16.5,0s8.4,1.6,13,0c11.2,2.1,22.6,2.3,33.9,0.7
									c5.4,1.4,10.9,1.4,16.3,0.2c0,0,5.2,0.2,9.8-0.1C425,128.8,421,128.3,416.9,127.5z"/>
								
									<linearGradient id="_Path_14_1_" gradientUnits="userSpaceOnUse" x1="432.2" y1="571.0619" x2="432.2" y2="571.0619" gradientTransform="matrix(1 0 0 1 0 -442.4243)">
									<stop  offset="0" style="stop-color:#A085A5"/>
									<stop  offset="0.24" style="stop-color:#AC6D84;stop-opacity:0.67"/>
									<stop  offset="0.58" style="stop-color:#BE4C55;stop-opacity:0.2"/>
									<stop  offset="0.62" style="stop-color:#C05057;stop-opacity:0.23"/>
									<stop  offset="0.68" style="stop-color:#C65B5C;stop-opacity:0.3"/>
									<stop  offset="0.75" style="stop-color:#CF6E64;stop-opacity:0.41"/>
									<stop  offset="0.83" style="stop-color:#DC8770;stop-opacity:0.57"/>
									<stop  offset="0.92" style="stop-color:#EDA87E;stop-opacity:0.78"/>
									<stop  offset="1" style="stop-color:#FFCB8E"/>
								</linearGradient>
								<path id="_Path_14" class="st13" d="M432.2,128.6L432.2,128.6L432.2,128.6z"/>
							</g>
							<path id="_Path_15" class="st8" d="M419.2,123.5c0,0-3.2-15.7-16.5-10c0,0,2.8-13.2-8.1-16.7c5.4,3.7,8.1,10.7,6.8,17.7
								c0,0,12.4-6.4,16.8,10.4c0,0,10.5-8.1,16.4,3.3C438.6,126.8,428,117,419.2,123.5z"/>
						</g>
						<g class="st14">
							<path class="st15" d="M194.7,539.1c1.6,3.1,3.6,5.9,5.9,8.4c2.5,2.2,5.3,3.8,8.4,4.7c1.8,0.6,3.6,1,5.4,1.4l0,0
								c0-16.7,0-33.3,0.6-50c0.3-8.4,0.7-16.8,1.6-25.2l0.2-1.9l-0.3-0.5l0.3-0.1l1.8-22.2l3.3-39.9l-17.7-24.1l18.2,18.3l0.3-4
								c0.6-8.3,1.2-16.5,1.7-24.8c0.2-4.1,0.5-8.3,0.6-12.3c0.1-4.1-0.3-8.3-0.7-12.3c-0.7-8.3-2.4-16.3-5-24.1
								c-1.3-3.8-2.9-7.7-4.8-11.2c-0.9-1.9-1.9-3.6-2.8-5.3c-1.1-1.7-1.9-3.6-2.6-5.6c0.7,2,1.6,3.8,2.7,5.4c1,1.7,2.1,3.5,3,5.3
								c2,3.6,3.7,7.3,5.1,11.1c2.8,7.8,4.8,15.9,5.7,24.2c0.6,4.2,0.8,8.3,1,12.6s-0.1,8.4-0.2,12.6c-0.3,8.3-0.6,16.7-1,24.9
								l-2.8,49.8l-1.1,19.4l20.9-10.5l-21.2,15.2v1c-0.6,8.1-0.8,16.4-0.8,24.7c-0.1,16.3,0.3,32.7,0.8,49l8.7-3.7l1.3,4.4
								l-9.9,3.1l1.4,46.8c0,2.8,0.2,5.6,0.2,8.3l8.2-4.7l-8.1,8.5c0,0.1,0,0.2,0,0.5c0,4.3,0,8.5-0.2,12.7
								c-0.3,8.4-0.8,16.8-1.4,25.2c-1.3,16.7-3,33.2-5.1,49.9l-11-2c2.5-16.3,4.6-32.7,6.4-49.1c0.9-8.1,1.6-16.4,2.1-24.6
								c0.2-4.1,0.5-8.1,0.5-12.2c0.1-4.1,0-8.3,0-12.5l-0.1-46.7c-2.1-0.5-4.2-1.2-6.2-2.1c-3.2-1.2-6.2-3.2-8.7-5.8
								c-2.2-2.8-4.1-5.9-5.5-9.3c-1.5-3.2-2.7-6.7-3.8-10.1C191.5,532.7,193,536,194.7,539.1z"/>
						</g>
						<g class="st14">
							<path class="st15" d="M280.9,507.9c1.6,3.6,3.6,6.9,5.9,9.9c2.4,2.5,5.2,4.3,8.4,5.4c1.8,0.6,3.6,1.2,5.4,1.6l0,0
								c0-19.5,0-39,0.6-58.6c0.3-9.8,0.7-19.6,1.6-29.4l0.2-2.2l-0.3-0.6l0.3-0.2l1.8-26l3.3-46.8l-17.7-28.1l18.2,21.4l0.3-4.7
								c0.6-9.8,1.2-19.4,1.7-29.1c0.2-4.8,0.5-9.8,0.6-14.6c0.1-4.8-0.3-9.6-0.7-14.4c-0.7-9.6-2.4-19.1-5-28.3
								c-1.3-4.6-2.9-8.9-4.8-13.2c-0.9-2.1-1.9-4.2-2.8-6.3c-1.1-2.1-1.9-4.2-2.6-6.4c0.7,2.2,1.6,4.3,2.7,6.3c1,2,2.1,4.1,3,6.2
								c2,4.2,3.7,8.5,5.1,13.1c2.9,9.1,4.8,18.6,5.7,28.3c0.6,4.8,0.8,9.8,1,14.7c0.2,4.9-0.1,9.8-0.2,14.7
								c-0.3,9.8-0.6,19.5-1,29.3l-2.8,58.6l-1.1,22.7l20.9-12.3l-21.2,17.8v1.1c-0.6,9.6-0.8,19.3-0.8,28.9
								c-0.1,19.1,0.3,38.3,0.8,57.4l8.7-4.3l1.3,5.2l-9.9,3.7l1.4,54.7c0,3.2,0.2,6.5,0.2,9.8l8.2-5.6l-8.1,9.9c0,0.1,0,0.4,0,0.5
								c0,4.9,0,9.9-0.2,14.8c-0.3,9.9-0.8,19.6-1.4,29.4c-1.3,19.6-3,39-5.1,58.4l-11-2.2c2.5-19,4.6-38.3,6.4-57.4
								c0.9-9.6,1.6-19.3,2.1-28.8c0.2-4.7,0.5-9.6,0.5-14.3c0.1-4.7,0-9.8,0-14.6l-0.1-54.6c-2.1-0.6-4.2-1.5-6.2-2.5
								c-3.3-1.5-6.3-3.8-8.7-6.9c-2.2-3.3-4.1-7-5.5-10.9c-1.5-3.8-2.8-7.8-3.8-11.9C277.7,500.4,279.2,504.2,280.9,507.9z"/>
						</g>
						<g class="st16">
							<path class="st15" d="M294.6,584.9c-1.7,2.2-3.7,4.3-5.9,5.9c-2.6,1.6-5.4,2.7-8.4,3.2c-1.8,0.4-3.6,0.7-5.4,1l0,0
								c0-11.7,0-23.3-0.6-35.1c-0.2-5.9-0.8-11.9-1.6-17.7l-0.2-1.4l0.3-0.4l-0.3-0.1l-1.8-15.6l-3.3-28l17.7-16.8l-18.2,12.8
								l-0.3-2.8c-0.6-5.8-1.2-11.6-1.7-17.4c-0.2-3-0.5-5.8-0.6-8.8c0.1-2.8,0.3-5.8,0.7-8.6c0.8-5.9,2.5-11.6,5-16.9
								c1.4-2.8,3-5.4,4.8-7.9c0.9-1.2,1.9-2.5,2.8-3.7c1-1.1,1.9-2.5,2.6-3.8c-0.7,1.4-1.6,2.7-2.7,3.8c-1,1.2-2.1,2.5-3,3.7
								c-1.9,2.5-3.6,5.1-5.1,7.9c-2.8,5.2-4.7,11-5.7,17c-0.5,3-0.9,5.8-1,8.8c0,3,0.1,5.8,0.2,8.8c0.3,5.8,0.6,11.7,1,17.5
								l2.7,35.1l1.1,13.6l-20.9-7.5l21.2,10.6v0.7c0.6,5.8,0.8,11.5,0.8,17.3c0.1,11.5-0.3,23-0.8,34.4l-8.7-2.6l-1.3,3.1l9.9,2.2
								l-1.4,32.8c0,2-0.2,3.8-0.2,5.8l-8.2-3.3l8.1,5.9c0,0.1,0,0.2,0,0.4c0,3,0,5.9,0.2,8.9c0.3,5.9,0.8,11.7,1.4,17.7
								c1.3,11.7,3,23.3,5.1,35.1l11-1.4c-2.5-11.4-4.6-23-6.4-34.4c-0.9-5.8-1.6-11.5-2.1-17.3c-0.2-2.8-0.5-5.7-0.5-8.6
								c-0.1-2.8,0-5.8,0-8.8l0.2-32.7c2.1-0.4,4.2-0.9,6.2-1.5c5.8-1.2,11-5.1,14.1-10.6c1.4-2.2,2.7-4.6,3.8-7
								C297.8,580.5,296.2,582.8,294.6,584.9z"/>
						</g>
						<g id="_Group_8">
							<path id="_Path_16" class="st5" d="M77,151.8c0,0-2.8-13.8-14.5-8.8c0,0,3.5-16.2-13.6-15.4c-18.5,0.9-12.5,14.9-12.5,14.9
								s-8.6-3.6-11.9,0c-1.8,1.9-2.5,5.4-2.8,8.4c-9.8-6.7-17.4,4.1-14.7,4.9c2.7,0.9,14.5,0,14.5,0s7.3,1.4,11.4,0
								c9.8,1.9,19.9,2.1,29.8,0.6c4.7,1.1,9.6,1.2,14.4,0.2c0,0,10,0.4,13.5-0.7C94.1,154.9,84.7,146.2,77,151.8z"/>
							<g id="_Group_9">
								
									<linearGradient id="_Path_17_1_" gradientUnits="userSpaceOnUse" x1="38.3974" y1="621.7762" x2="54.3642" y2="572.1002" gradientTransform="matrix(1 0 0 1 0 -442.4243)">
									<stop  offset="0" style="stop-color:#A085A5"/>
									<stop  offset="0.24" style="stop-color:#AC6D84;stop-opacity:0.67"/>
									<stop  offset="0.58" style="stop-color:#BE4C55;stop-opacity:0.2"/>
									<stop  offset="0.62" style="stop-color:#C05057;stop-opacity:0.23"/>
									<stop  offset="0.68" style="stop-color:#C65B5C;stop-opacity:0.3"/>
									<stop  offset="0.75" style="stop-color:#CF6E64;stop-opacity:0.41"/>
									<stop  offset="0.83" style="stop-color:#DC8770;stop-opacity:0.57"/>
									<stop  offset="0.92" style="stop-color:#EDA87E;stop-opacity:0.78"/>
									<stop  offset="1" style="stop-color:#FFCB8E"/>
								</linearGradient>
								<path id="_Path_17" class="st17" d="M74.9,155.4c-5.1,3-16-4.7-16-4.7c-0.7,0.7-1.6,1.4-2.6,1.7c-2.8,1.1-5.9,0.6-8.3-1.2
									c-18.4-14.2-0.3-23.3-0.2-23.5c-15,1.1-12.7,11.5-11.7,14.2c1,1.9,2.3,3.6,3.7,5.1c-7.1-6.4-12.7-5.7-13.2-5.7
									c-0.8,0.2-1.6,0.6-2.2,1.4c-1.7,1.9-2.5,5.4-2.8,8.4c0.2,1.5,0.5,2.3,0.5,2.3c-1-1.6-2.3-3-3.8-4.1
									c-8.1-2.6-13.7,5.8-11.4,6.5c2.6,0.7,14.5,0,14.5,0s7.3,1.4,11.4,0c9.8,1.9,19.9,2.1,29.8,0.6c4.7,1.1,9.6,1.2,14.4,0.2
									c0,0,4.6,0.1,8.6-0.1C82,156.5,78.4,156,74.9,155.4z"/>
								
									<linearGradient id="_Path_18_1_" gradientUnits="userSpaceOnUse" x1="88.4" y1="598.8387" x2="88.4" y2="598.8387" gradientTransform="matrix(1 0 0 1 0 -442.4243)">
									<stop  offset="0" style="stop-color:#A085A5"/>
									<stop  offset="0.24" style="stop-color:#AC6D84;stop-opacity:0.67"/>
									<stop  offset="0.58" style="stop-color:#BE4C55;stop-opacity:0.2"/>
									<stop  offset="0.62" style="stop-color:#C05057;stop-opacity:0.23"/>
									<stop  offset="0.68" style="stop-color:#C65B5C;stop-opacity:0.3"/>
									<stop  offset="0.75" style="stop-color:#CF6E64;stop-opacity:0.41"/>
									<stop  offset="0.83" style="stop-color:#DC8770;stop-opacity:0.57"/>
									<stop  offset="0.92" style="stop-color:#EDA87E;stop-opacity:0.78"/>
									<stop  offset="1" style="stop-color:#FFCB8E"/>
								</linearGradient>
								<path id="_Path_18" class="st18" d="M88.4,156.4L88.4,156.4L88.4,156.4z"/>
							</g>
							<path id="_Path_19" class="st8" d="M77,151.8c0,0-2.8-13.8-14.5-8.8c0,0,2.5-11.6-7.1-14.7c4.7,3.2,7.1,9.5,6,15.6
								c0,0,10.9-5.7,14.8,9.1c0,0,9.3-7.2,14.4,2.8C94,154.8,84.7,146.2,77,151.8z"/>
						</g>
						<g id="_Group_10" class="st19">
							<path id="_Path_20" class="st5" d="M316.9,179.4c0,0-5.1-25.2-26.5-15.9c0,0,6.3-29.5-24.8-28.1
								c-33.7,1.6-22.7,27.3-22.7,27.3s-15.6-6.5-21.7,0c-3.2,3.5-4.5,10-5.1,15.4c-17.8-12.1-31.6,7.5-26.9,8.9
								c4.7,1.4,26.5,0,26.5,0s13.4,2.5,20.7,0c17.9,3.5,36.2,3.8,54.2,1.1c8.6,2.1,17.5,2.2,26.1,0.4c0,0,18.2,0.6,24.5-1.5
								C347.5,184.8,330.9,169.1,316.9,179.4z"/>
							<g id="_Group_11">
								
									<linearGradient id="_Path_21_1_" gradientUnits="userSpaceOnUse" x1="246.5956" y1="671.8256" x2="275.6636" y2="581.3728" gradientTransform="matrix(1 0 0 1 0 -442.4243)">
									<stop  offset="0" style="stop-color:#A085A5"/>
									<stop  offset="0.24" style="stop-color:#AC6D84;stop-opacity:0.67"/>
									<stop  offset="0.58" style="stop-color:#BE4C55;stop-opacity:0.2"/>
									<stop  offset="0.62" style="stop-color:#C05057;stop-opacity:0.23"/>
									<stop  offset="0.68" style="stop-color:#C65B5C;stop-opacity:0.3"/>
									<stop  offset="0.75" style="stop-color:#CF6E64;stop-opacity:0.41"/>
									<stop  offset="0.83" style="stop-color:#DC8770;stop-opacity:0.57"/>
									<stop  offset="0.92" style="stop-color:#EDA87E;stop-opacity:0.78"/>
									<stop  offset="1" style="stop-color:#FFCB8E"/>
								</linearGradient>
								<path id="_Path_21" class="st20" d="M313.1,185.8c-9.2,5.3-29.1-8.6-29.1-8.6c-1.3,1.4-2.9,2.5-4.7,3.1
									c-5.1,2-10.8,1.1-15.2-2.3c-33.4-25.6-0.5-42.5-0.3-42.6c-27.2,2-23,20.7-21.4,25.9c1.8,3.5,4.1,6.5,6.8,9.1
									c-12.9-11.6-23.3-10.4-24-10.2c-1.5,0.4-2.9,1.2-4,2.3c-3.2,3.5-4.5,9.9-5.1,15.3c0.4,2.6,0.8,4.3,0.8,4.3
									c-1.9-2.8-4.2-5.3-6.9-7.3c-14.7-4.7-25,10.6-20.7,12c4.8,1.4,26.5,0,26.5,0s13.4,2.5,20.7,0c17.9,3.5,36.2,3.8,54.2,1.1
									c8.6,2.1,17.5,2.2,26.1,0.4c0,0,8.3,0.4,15.7-0.1C326,187.9,319.5,187.2,313.1,185.8z"/>
								
									<linearGradient id="_Path_22_1_" gradientUnits="userSpaceOnUse" x1="337.6" y1="629.9488" x2="337.6" y2="629.9488" gradientTransform="matrix(1 0 0 1 0 -442.4243)">
									<stop  offset="0" style="stop-color:#A085A5"/>
									<stop  offset="0.24" style="stop-color:#AC6D84;stop-opacity:0.67"/>
									<stop  offset="0.58" style="stop-color:#BE4C55;stop-opacity:0.2"/>
									<stop  offset="0.62" style="stop-color:#C05057;stop-opacity:0.23"/>
									<stop  offset="0.68" style="stop-color:#C65B5C;stop-opacity:0.3"/>
									<stop  offset="0.75" style="stop-color:#CF6E64;stop-opacity:0.41"/>
									<stop  offset="0.83" style="stop-color:#DC8770;stop-opacity:0.57"/>
									<stop  offset="0.92" style="stop-color:#EDA87E;stop-opacity:0.78"/>
									<stop  offset="1" style="stop-color:#FFCB8E"/>
								</linearGradient>
								<path id="_Path_22" class="st21" d="M337.6,187.5L337.6,187.5L337.6,187.5z"/>
							</g>
							<path id="_Path_23" class="st8" d="M316.9,179.4c0,0-5.1-25.2-26.5-15.9c0,0,4.5-21.1-12.9-26.7c4.2,3,13.4,11.5,10.8,28.3
								c0,0,19.8-10.2,26.9,16.5c0,0,16.8-13.1,26.2,5.3C347.8,184.7,330.9,169.1,316.9,179.4z"/>
						</g>
						<path class="st22" d="M-6.3,725.2c0,11,8,19.9,17.9,20h397.3c9.9,0,17.9-8.9,17.9-20c0-3.3-0.8-6.7-2.2-9.6
							c5.2-11.2,1.2-24.9-8.9-30.7s-22.4-1.4-27.6,9.9c-0.3,0.7-0.6,1.5-0.9,2.2c-3.9-4-9.3-5.4-14.3-4c-0.7-5.8-5.6-9.9-10.8-9.1
							c-1.2,0.1-2.3,0.6-3.3,1.2c1-7.4-3.6-14.3-10.2-15.4c-3.8-0.6-7.7,0.7-10.4,3.8c-5.1-8.5-15.5-10.7-23.1-5.1
							c-1.8,1.4-3.3,3-4.5,4.9c-4.1-3.3-9.7-3.2-13.7,0.2c-4-7.9-13-10.7-20-6.3c-3.4,2.1-5.9,5.6-6.9,9.8c-2.3-0.7-4.7-0.5-6.7,0.9
							c-2.1-5.7-6.9-9.5-12.4-9.8l0,0c0-9-6.6-16.4-14.7-16.4c-3.3,0-6.5,1.2-9.1,3.5c-3-2.8-7.2-3.6-10.9-2
							c-2.5-8.3-10.5-12.6-17.9-9.9c-4.8,1.9-8.3,6.3-9.3,11.9h-0.2c-6.9,0-12.7,5.6-13.9,13.1c-3.9-4-9.8-4.2-13.9-0.6l-0.5-0.1
							c0.8-6.7-3.3-12.7-9.3-13.7c-1.6-0.2-3.2-0.1-4.7,0.4c-0.1-9-6.7-16.3-14.9-16.2c-5.4,0-10.4,3.5-12.9,8.8
							c-6.6-1.5-13,3.2-14.3,10.5c-0.1,0.4-0.1,0.7-0.2,1.1c-4-3.3-9.6-2.3-12.5,2c-1.5,2.2-2.1,4.9-1.6,7.7c-1.8-0.5-3.8,0-5.3,1.4
							c-0.3-5.1-4.3-8.9-8.9-8.6c-1.3,0.1-2.5,0.5-3.6,1.2c-3.2-10.9-13.8-16.7-23.5-13.1c-5.9,2.2-10.4,7.5-12,14.3
							c-4.1-2.3-9.1-0.6-11.2,3.8c-0.4,0.9-0.7,2-0.9,3c-10.9-3.1-22.1,4.2-24.9,16.4c-1.7,7.2-0.1,14.8,4.3,20.5
							C-2.4,710.5-6.3,717.5-6.3,725.2z M95.8,676c-0.5,0.6-1,1.4-1.4,2c0.3-0.7,0.5-1.6,0.5-2.5C95.2,675.8,95.5,675.9,95.8,676z
							 M202,692.3h-0.4l0.1-0.4L202,692.3z M295.3,692.3h-0.1l0,0H295.3z"/>
						<polygon class="st23" points="458.7,731.3 458.7,719.4 395.3,719.4 297.2,719.4 233.7,719.4 198.4,719.4 38.8,719.4 33,719.4 
							-25.9,719.4 -45,719.4 -45,776.4 -45,807.8 -45,837.1 -30.9,837.1 -10,837.1 12,837.1 17.4,837.1 48.2,837.1 96,837.1 
							117.8,837.1 149.4,837.1 162.9,837.1 229.8,837.1 298,837.1 310.1,837.1 458.7,837.1 458.7,792.9 458.7,771.3 458.7,760.5 
							458.7,738.6 458.7,731.7 						"/>
						<path id="_Path_24" class="st24" d="M-60,762.9c0,0,22.9,30.6,58.9,20.5s56.3-50.6,100.8-51.2c0,0-37.4,8.9-53.8,36.5
							c-16.4,27.7-39.8,58.9-102.7,34.9L-60,762.9z"/>
						<path id="_Path_25" class="st24" d="M198.4,719.4c0,0-52,11.2-55,41.5c-2.1,21.6-1.1,37.8-39.9,45.1
							c-41.5,7.9-77.2,54.6-77.2,54.6l61.5-2.6c3.1-12.3,8.9-23.7,17-33c15.4-17.2,43.2-4.3,51-70.6c3.9-33.2,60.8-29.9,60.8-29.9
							L198.4,719.4z"/>
						<path id="_Path_26" class="st25" d="M31.6,715.4c0,0,3.2,3.2,1.3,20.6c-1.6,14.7-10.5,27.7-32.1,34.8c0,0,25.5,3,54.3-42.8
							L31.6,715.4z"/>
						<path id="_Path_27" class="st25" d="M135.6,899.7c0,0,21.6-119.4,139.9-122.2c118.3-2.8,119.7-58.1,119.7-58.1
							s5.9,53.8-104,70.6s-56.8,176.8-56.8,176.8L135.6,899.7z"/>
						<path id="_Path_28" class="st24" d="M233.7,719.4c0,0-28.8,23.3-31.4,45.8c-2.6,22.6-39.2,22.6-47.1,37.8
							c10.3-5.4,21.1-9.9,32.1-13.1c16.6-4.8,19-4.6,24-26c2-8.5-5.2-27.8,46.6-20.6c33.8,4.6,61.5-20.2,61.5-20.2l-22.2-3.6
							c0,0-14.3,23.5-31.7,19.6C248.2,735.2,233.7,719.4,233.7,719.4z"/>
						<path class="st24" d="M458.7,731.3c-1.6,0-3.2-0.1-4.9,0l0,0c-8.2,0.6-16.3,2.6-23.9,5.8c-17,7-38.5,21-65.3,46
							c-27.4,25.7-49.2,42.6-66.5,53.8c-46.8,30.4-60.3,17.9-60.7,17.5l7.5,15.9l59.5-27.7c0,0,2.1-2.2,5.8-5.8
							c15.1-15.1,57.4-55.3,96.3-76c17.7-9.4,36.1-7.3,52.3-0.6L458.7,731.3L458.7,731.3z"/>
						<path class="st25" d="M458.7,771.3v21.6c-14.2-6.3-30.7-8.4-46.4,1.4c-39.9,24.7-61.7,34.9-72.6,27.7c0,0,26.2,3.7,65.4-40.7
							C422.2,761.8,441.9,763.4,458.7,771.3z"/>
						<path id="_Path_29" class="st25" d="M-20.8,876.5c0,0,75.2-97.2,109.2-104.2s47.1-36.2,47.1-36.2s-11.6,35.6-46.4,46.5
							S-20.8,876.5-20.8,876.5z"/>
						<path id="_Path_30" class="st26" d="M-36.5,751.3c0,0,17-10.9,24.2,0c7.2,10.9-9.8,10.2-17.7,9.9
							C-37.8,760.8-36.5,751.3-36.5,751.3z"/>
						<path id="_Path_31" class="st26" d="M278.6,813.6c0,0,13.2-8.4,18.7,0c5.6,8.4-7.6,7.9-13.7,7.7
							C277.5,821,278.6,813.6,278.6,813.6z"/>
						<path id="_Path_32" class="st26" d="M-7,761.3c0,0,3.8,5.7,9.1,0S-10.8,755.7-7,761.3z"/>
						<path id="_Path_33" class="st26" d="M66.5,766.6c0,0,3.5-12.7,12.6-9.4c9.2,3.3,6.1,6.7,6.1,6.7S71.3,771.9,66.5,766.6z"/>
						<path id="_Path_34" class="st26" d="M249,755.9c0,0-5.3,8.4,0,8.6C254.2,764.8,255.3,753.3,249,755.9z"/>
						<path id="_Path_35" class="st26" d="M218.6,758.1c0,0,3.1,4.6,7.4,0C230.2,753.6,215.5,753.6,218.6,758.1z"/>
						<path id="_Path_36" class="st26" d="M228.7,762.2c0,0,2.8-10.2,10.2-7.7c7.4,2.6,5,5.4,5,5.4S232.5,766.5,228.7,762.2z"/>
						<path id="_Path_37" class="st26" d="M82.8,747.8L82.8,747.8c-1.4,2.1-0.9,5.1,1,6.5c0.1,0.1,0.2,0.1,0.3,0.2
							c3.2,2.2,7.9,4.4,11.6,2.6c2-1,2.7-3.5,2.3-6C96.7,743.1,87.1,741,82.8,747.8z"/>
						<path id="_Path_38" class="st26" d="M255.5,821.6L255.5,821.6c-1.1,1.6-0.7,4,0.8,5.2c0.1,0,0.1,0.1,0.2,0.1
							c2.5,1.7,6.1,3.5,8.9,2.1c1.5-0.9,2.3-2.8,1.8-4.7c-0.7-4-4.2-6.4-7.7-5.6C257.9,819,256.4,820,255.5,821.6z"/>
						<path id="_Path_39" class="st27" d="M293.7,802.2l-0.7,0.9c-0.7,0.9-0.6,2.2,0.2,3c0.3,0.2,0.7,0.5,1.2,0.5h1.1
							c0.7,0,1.2-0.6,1.2-1.4c0-0.1,0-0.1,0-0.2l0,0C296.3,803.3,295.1,802.2,293.7,802.2L293.7,802.2z"/>
						<path id="_Path_40" class="st26" d="M242.2,761.5l-0.7,1c-0.7,1-0.6,2.3,0.3,3.1c0.4,0.4,0.8,0.5,1.3,0.5h1.1
							c0.7,0,1.2-0.6,1.2-1.4v-0.1l0,0C245,762.7,243.7,761.5,242.2,761.5L242.2,761.5z"/>
						<path id="_Path_41" class="st26" d="M276.2,827.5l0.9-0.5c0.9-0.5,1.3-1.7,0.9-2.8c-0.2-0.5-0.5-0.7-0.9-1l-1-0.5
							c-0.6-0.4-1.3,0-1.6,0.6c0,0.1-0.1,0.1-0.1,0.2l0,0C274.1,825.2,274.8,826.8,276.2,827.5L276.2,827.5z"/>
						<path id="_Path_42" class="st26" d="M-33,841.3c0.7-0.5,5.5-16,15.7-11.9c10.2,4.1,6.7,11.9,6.7,11.9H-33z"/>
						<path id="_Path_43" class="st26" d="M263,810.3c0,0-1.7,4.6,1.4,6s4.9-3,4.9-3l-3.3-3L263,810.3z"/>
						<path id="_Path_44" class="st26" d="M114.4,843.1c1.7-1.2,9.6-21.9,17.4-21.7c7.8,0.1,16.1-2.8,19.6-0.4
							c3.5,2.5,3.1,4,3.7,7.9s-15,16.8-15,16.8L114.4,843.1z"/>
						<path id="_Path_45" class="st26" d="M397.5,815.5c0,0-6.1,9.1,0,9.4c6.1,0.2,15.3-8.4,15.3-8.4S410.1,802.9,397.5,815.5z"/>
						<rect id="_Rectangle_2" x="26.3" y="-0.2" class="st28" width="365.8" height="406.8"/>
						<path class="st29" d="M458.7,731.3v-28.9c-80.9-5.2-160.3,5.4-240.9,2.2c-15.5,0-30.4,0-45.9-3.5c-11-2.8-20.7-7.7-32.3-4.9
							c-31.7,7-61.5,7.7-92.5,8.4c-23.3,0.7-47.9,4.2-69.8-3.5H-23c-0.2,0-0.3,0-0.3-0.1s0.1-0.4,0.4-0.9l0.1-0.2
							c0.1-0.1,0.2-0.2,0.2-0.5c0.1-0.1,0.2-0.4,0.2-0.6v-0.1h-2.1c0.4,3.6-0.7,13-1.4,20.6c-0.4,4.9-0.7,9.1-0.3,10.5
							c0,0.1,0.1,0.2,0.2,0.2l0.1,0.1h0.1c18.6,6.5,39,5.1,59,4c3.7-0.2,7.3-0.4,10.9-0.5l7.6-0.1c28.3-0.6,55.8-1.7,84.9-8.1
							c11.6-2.8,21.3,2.1,32.3,4.8h0.3c1.8,0.4,3.5,0.7,5.3,1.1c13.5,2.3,26.7,2.3,40.3,2.3c1.4,0,2.8,0.1,4.2,0.1
							c11.4,0.4,22.7,0.5,34.1,0.5l0,0c10.4,0,20.7-0.2,31.1-0.5c6.9-0.2,13.7-0.4,20.6-0.7c29.2-1.1,58.4-2.5,87.6-2.8l0,0h1.6
							c19.8-0.2,39.7,0,59.7,1.2l0,0l4.9,0.4L458.7,731.3z"/>
						<g class="st14">
							<path class="st15" d="M139.4,565.4c-1.2,2.3-2.7,4.4-4.4,6.3c-1.8,1.6-3.9,2.8-6.2,3.5c-1.3,0.4-2.7,0.7-4,1l0,0
								c0-12.3,0-24.8-0.4-37.3c-0.2-6.3-0.6-12.5-1.2-18.6l-0.1-1.4l0.2-0.4l-0.2-0.1l-1.4-16.5l-2.5-29.8l13.2-17.9l-13.5,13.6
								l-0.2-3c-0.5-6.2-0.9-12.3-1.3-18.5c-0.2-3.1-0.4-6.2-0.4-9.3c-0.1-3.1,0.2-6.2,0.5-9.1c0.5-6.2,1.8-12.2,3.7-17.9
								c1-2.8,2.2-5.7,3.5-8.4c0.7-1.4,1.4-2.7,2.1-4c0.8-1.2,1.4-2.7,1.9-4.1c-0.5,1.5-1.2,2.8-2,4.1c-0.8,1.2-1.5,2.6-2.3,4
								c-1.5,2.6-2.7,5.4-3.8,8.3c-2.1,5.8-3.5,11.9-4.2,18c-0.4,3.1-0.6,6.2-0.8,9.4c-0.2,3.1,0.1,6.3,0.2,9.4
								c0.2,6.2,0.5,12.3,0.7,18.6l2,37.2l0.8,14.4l-15.5-7.9l15.7,11.2v0.7c0.4,6.2,0.6,12.2,0.6,18.4c0,12.1-0.2,24.3-0.6,36.5
								l-6.5-2.7l-1,3.3l7.4,2.5l-1,34.8c0,2.1-0.1,4.1-0.2,6.2l-6.1-3.5l6,6.3c0,0.1,0,0.2,0,0.4c0,3.1,0,6.3,0.2,9.4
								c0.2,6.3,0.6,12.6,1.1,18.8c1,12.5,2.2,24.8,3.8,37.2l8.2-1.5c-1.8-12.1-3.4-24.3-4.7-36.5c-0.6-6-1.2-12.2-1.6-18.3
								c-0.2-3.1-0.3-6-0.4-9.1c-0.1-3,0-6.2,0-9.3v-34.7c1.6-0.4,3.1-1,4.6-1.6c2.4-0.9,4.6-2.5,6.5-4.3c1.6-2.1,3-4.4,4.1-6.9
								s2-4.9,2.8-7.5C141.8,560.6,140.6,563.1,139.4,565.4z"/>
							<path class="st15" d="M107,508l0.4-0.9c1.6-4.1-0.1-8.9-3.7-10.6l-0.4,0.9C101.7,501.3,103.3,506.2,107,508z"/>
							<path class="st15" d="M95.3,517.9l0.9,0.2c3.9,0.9,7.8-1.9,8.6-6.3l0,0l-0.9-0.2C100,510.7,96.2,513.4,95.3,517.9z"/>
							<path class="st15" d="M137.5,563.7l0.9,0.2c1.1-4.3-1.2-8.8-5-10l-0.9-0.2C131.4,558,133.7,562.4,137.5,563.7z"/>
							<path class="st15" d="M142.8,567.9l-2.8,0.6l0,0c0.6,3.2,3.5,5.3,6.4,4.6l2.8-0.6C148.5,569.2,145.7,567.3,142.8,567.9z"/>
							<path class="st15" d="M111,615.2v-0.9c0-3.2-2.3-5.7-5.1-5.7v0.9C105.9,612.6,108.2,615.2,111,615.2z"/>
							<path class="st15" d="M105.2,623.6l0.8,0.1c2.8,0.4,5.3-1.9,5.7-5.1l-0.8-0.1C108.1,618.1,105.5,620.5,105.2,623.6z"/>
						</g>
						<g class="st30">
							<path class="st15" d="M444.6,519.7c-1.7,3.3-3.9,6.4-6.4,9.1c-2.7,2.3-5.7,4.1-9,4.9c-1.9,0.6-3.9,1.1-5.9,1.5l0,0
								c0-18,0-35.9-0.6-53.9c-0.3-9-0.8-18-1.7-27.2l-0.2-2l0.3-0.6l-0.3-0.1l-2-24.1l-3.6-43.1l19.1-25.9l-19.6,19.8l-0.4-4.3
								c-0.7-8.9-1.3-17.9-1.8-26.8c-0.3-4.4-0.5-9-0.6-13.3s0.3-8.9,0.7-13.3c0.8-8.9,2.6-17.7,5.4-26c1.4-4.2,3.1-8.3,5.1-12.1
								c1-2,2-3.8,3.1-5.8c1.2-1.9,2.1-3.8,2.8-5.9c-0.7,2.1-1.7,4.1-2.9,5.8c-1.1,1.9-2.2,3.7-3.3,5.7c-2.1,3.8-4,7.9-5.5,12
								c-3.1,8.4-5.2,17.2-6.2,26.2c-0.6,4.4-0.9,8.9-1.1,13.6c-0.2,4.6,0.1,9,0.3,13.6c0.3,9,0.7,17.9,1.1,26.9l2.9,53.8l1.1,20.9
								l-22.6-11.4l22.8,16.3v1.1c0.6,8.9,0.9,17.8,0.9,26.7c0.1,17.7-0.4,35.3-0.9,53l-9.3-4l-1.4,4.7l10.7,3.5l-1.5,50.5
								c-0.1,3-0.2,5.9-0.3,9l-8.8-5.1l8.7,9.1c0,0.1,0,0.4,0,0.5c0,4.6,0.1,9.1,0.2,13.7c0.3,9.1,0.9,18.1,1.6,27.2
								c1.4,18,3.3,35.9,5.5,53.8l11.9-2.1c-2.7-17.5-5-35.3-6.9-53c-0.9-8.9-1.8-17.7-2.3-26.5c-0.3-4.4-0.5-8.8-0.6-13.2
								c-0.1-4.4,0-8.9,0-13.5l0.1-50.2c2.3-0.6,4.5-1.4,6.7-2.2c3.5-1.4,6.7-3.5,9.4-6.3c2.4-3,4.4-6.4,5.9-10
								c1.6-3.6,3-7.2,4.1-10.9C448,512.8,446.4,516.4,444.6,519.7z"/>
							<path class="st15" d="M397.6,436.5l0.5-1.4c2.3-5.9-0.1-12.8-5.4-15.4l-0.5,1.4C389.8,426.9,392.2,433.8,397.6,436.5z"/>
							<path class="st15" d="M380.7,450.8l1.3,0.2c5.7,1.4,11.3-2.7,12.5-9l0,0l-1.3-0.2C387.5,440.5,381.9,444.6,380.7,450.8z"/>
							<path class="st15" d="M441.8,517.3l1.2,0.4c1.5-6.3-1.7-12.7-7.3-14.4l-1.2-0.4C433,509.1,436.2,515.5,441.8,517.3z"/>
							<path class="st15" d="M449.5,523.4l-4,1l0,0c0.9,4.7,5,7.7,9.2,6.7l4-1C457.8,525.4,453.6,522.5,449.5,523.4z"/>
							<path class="st15" d="M403.4,591.8v-1.4c0-4.6-3.3-8.3-7.5-8.3v1.4C396,588.1,399.3,591.8,403.4,591.8z"/>
							<path class="st15" d="M395,604.1l1.2,0.1c4.1,0.5,7.8-2.7,8.3-7.3l-1.2-0.1C399.2,596.3,395.5,599.5,395,604.1z"/>
						</g>
						<g class="st31">
							
								<linearGradient id="SVGID_3_" gradientUnits="userSpaceOnUse" x1="162.9" y1="1134.376" x2="162.9" y2="681.4227" gradientTransform="matrix(1 0 0 1 0 -442.4243)">
								<stop  offset="0" style="stop-color:#C48951"/>
								<stop  offset="1" style="stop-color:#6E2E3B"/>
							</linearGradient>
							<path class="st32" d="M163.4,692c-0.6-19-1-38.1-1.3-57.2c-0.1-9.5-0.2-19-0.2-28.6c0-4.7,0-9.5,0.1-14.3s0-9.4-0.1-14.2
								c-0.4-19-1-38-0.7-57.2c0.1-4.8,0.3-9.4,0.3-14.2c0-4.7,0-9.4-0.1-14.2c-0.3-9.4-0.8-18.9-1.6-28.3
								c-0.7-9.4-1.7-18.9-2.4-28.4s-1.2-19-1.8-28.5c-1.1-19-2.1-37.9-3-56.9c-0.4-9.4-0.8-19-1.2-28.5c-0.2-4.7-0.3-9.4-0.3-14.3
								c0-4.8,0.6-9.5,1.2-14.3c1.1-9.5,3.3-18.8,6.5-27.7c1.7-4.4,3.6-8.6,5.8-12.7c1.1-2.1,2.3-4.1,3.5-6c1.3-2,2.3-4.1,3.1-6.3
								c-0.7,2.2-1.7,4.3-2.9,6.3c-1.1,2-2.3,4.1-3.3,6c-2.1,4.1-4,8.4-5.5,12.8c-3,8.9-4.9,18.1-5.8,27.5
								c-0.5,4.7-0.7,9.4-0.8,14.2c-0.1,4.7,0.4,9.4,0.6,14.2c0.6,9.4,1.2,18.9,1.9,28.4c1.4,18.9,2.8,37.9,4.4,56.8
								c0.8,9.4,1.6,18.9,2.5,28.3c0.9,9.4,2.1,18.9,3.1,28.3c1,9.4,1.8,19,2.3,28.5c0.2,4.7,0.5,9.6,0.5,14.4
								c0,4.8,0.1,9.6,0.1,14.3c0.2,18.9,1.2,37.8,2,56.8c0.2,4.7,0.4,9.5,0.5,14.4c0.1,4.8,0.2,9.4,0.3,14.2
								c0.2,9.4,0.6,18.9,0.9,28.4c0.7,18.9,1.6,37.9,2.7,56.8L163.4,692z"/>
						</g>
						<path class="st33" d="M461.7,681.2c8.1-10.6,7-26.4-2.5-35.4c-5.6-5.3-13.2-7.3-20.3-5.2c-0.7-5.6-5.4-9.4-10.4-8.6
							c-1,0.1-2,0.5-2.9,1.1c-2.9-12.1-14.1-19.4-25-16.2c-6.7,2-12,7.5-14.2,14.8c-4.4-2.8-10-1.2-12.6,3.6
							c-0.7,1.4-1.1,2.8-1.2,4.4c-1.6-1.5-3.8-2-5.8-1.5c0.9-6-2.8-11.6-8.2-12.6c-2.6-0.5-5.2,0.2-7.4,2c-0.9-8.1-7.6-14-14.9-13
							c-0.3,0-0.6,0.1-0.9,0.1c-4.1-8.9-14-12.2-21.9-7.7c-5.3,3.1-8.7,9.1-8.7,15.8c-6.3-2.2-13,1.6-15,8.6c-0.6,2-0.7,4-0.4,5.9
							l-0.6,0.1c-4.6-4-11-3.7-15.3,0.6c-1.3-8.3-7.7-14.3-15.3-14.3h-0.3c-1.6-9.4-9.7-15.6-18.1-13.8c-5.6,1.1-10.1,5.6-11.9,11.6
							c-4-1.7-8.6-0.9-12,2.2c-7.1-6.2-17.3-4.8-22.8,3.1c-2.2,3.2-3.4,7-3.5,11.1l0,0c-6.1,0.2-11.4,4.6-13.7,10.9
							c-2.2-1.5-4.9-1.9-7.4-1c-2.5-9.6-11.5-15.1-20.1-12.3c-4.1,1.4-7.6,4.3-9.7,8.5c-4.4-3.8-10.6-4-15.2-0.2
							c-5.7-9.4-17.1-11.7-25.5-5.4c-1.9,1.5-3.6,3.3-4.9,5.6c-5.2-5.8-13.7-5.9-18.9-0.1c-3.1,3.3-4.5,8.1-3.8,13
							c-5.1-3.1-11.6-1-14.4,4.7c-0.6,1.2-1,2.6-1.2,4c-5.6-1.7-11.6,0-15.8,4.3c-4.4-13-17.5-19.5-29.1-14.7
							c-11.7,4.9-17.6,19.4-13.2,32.5c0.3,1,0.7,1.9,1.1,2.8c-1.7,3.3-2.5,6.9-2.5,10.7c0,12.1,8.9,22,19.8,22H453
							c10.9,0,19.8-9.9,19.7-22.1C472.7,692.6,468.4,684.9,461.7,681.2z M361.2,646.5c0.1,0.9,0.3,1.9,0.6,2.7
							c-0.5-0.7-1-1.5-1.6-2.2C360.5,646.8,360.8,646.6,361.2,646.5z M243.3,664.5l0.1,0.4H243L243.3,664.5z M140.3,664.8
							L140.3,664.8L140.3,664.8L140.3,664.8z"/>
						<g class="st30">
							<path class="st15" d="M33.3,526c-1.7,3.3-3.9,6.4-6.4,9.1c-2.7,2.3-5.7,4.1-9,4.9c-1.9,0.6-3.9,1.1-5.9,1.5l0,0
								c0-18,0-35.9-0.6-53.9c-0.3-9-0.8-18-1.7-27.2l-0.2-2l0.3-0.6l-0.3-0.1l-2-24.1L4,390.6l19.1-25.9L3.5,384.4L3,380.1
								c-0.7-8.9-1.3-17.9-1.8-26.8c-0.3-4.4-0.5-9-0.6-13.3c-0.1-4.4,0.3-8.9,0.7-13.3c0.8-8.9,2.6-17.7,5.4-26
								c1.4-4.2,3.1-8.3,5.1-12.1c1-2,2-3.8,3.1-5.8c1.2-1.9,2.1-3.8,2.8-5.9c-0.7,2.1-1.7,4.1-2.9,5.8c-1.1,1.9-2.2,3.7-3.3,5.7
								c-2.1,3.8-4,7.9-5.5,12c-3.1,8.4-5.2,17.2-6.2,26.2c-0.6,4.4-0.9,8.9-1.1,13.6c-0.2,4.6,0.1,9,0.3,13.6
								c0.3,9,0.7,17.9,1.1,26.9L3,434.1l1.1,20.9l-22.6-11.4l22.8,16.3v1.1c0.6,8.9,0.9,17.8,0.9,26.7c0.1,17.7-0.4,35.3-0.9,53
								l-9.3-4l-1.4,4.7l10.7,3.5l-1.4,50.5c-0.1,3-0.2,5.9-0.3,9l-8.8-5.1l8.7,9.1c0,0.1,0,0.4,0,0.5c0,4.6,0.1,9.1,0.2,13.7
								c0.3,9.1,0.9,18.1,1.6,27.2c1.4,18,3.3,35.9,5.5,53.8l11.9-2.1c-2.7-17.5-5-35.3-6.9-53c-0.9-8.9-1.8-17.7-2.3-26.5
								c-0.3-4.4-0.5-8.8-0.6-13.2c-0.1-4.4,0-8.9,0-13.5L12,545c2.3-0.6,4.5-1.4,6.7-2.2c3.5-1.4,6.7-3.5,9.4-6.3
								c2.4-3,4.4-6.4,5.9-10c1.6-3.6,2.9-7.2,4.1-10.9C36.7,519.1,35.1,522.7,33.3,526z"/>
							<path class="st15" d="M-13.7,442.8l0.5-1.4c2.3-5.9-0.1-12.8-5.4-15.4l-0.5,1.4C-21.5,433.2-19.1,440.1-13.7,442.8z"/>
							<path class="st15" d="M-30.6,457.1l1.3,0.2c5.7,1.4,11.3-2.7,12.5-9l0,0l-1.3-0.2C-23.8,446.8-29.4,450.8-30.6,457.1z"/>
							<path class="st15" d="M30.6,523.6l1.2,0.4c1.5-6.3-1.7-12.7-7.3-14.4l-1.2-0.4C21.7,515.4,25,521.8,30.6,523.6z"/>
							<path class="st15" d="M38.2,529.7l-4,1l0,0c0.9,4.7,5,7.7,9.2,6.7l4-1C46.5,531.7,42.4,528.7,38.2,529.7z"/>
							<path class="st15" d="M-7.8,598.1v-1.4c0-4.6-3.3-8.3-7.5-8.3v1.4C-15.3,594.4-12,598.1-7.8,598.1z"/>
							<path class="st15" d="M-16.3,610.3l1.2,0.1c4.1,0.5,7.8-2.7,8.3-7.3l-1.2-0.1C-12.1,602.6-15.8,605.8-16.3,610.3z"/>
						</g>
						<path class="st34" d="M458.7,731.7v6.9c-9.6-0.6-19.3-1.1-28.8-1.4c-12.8-0.4-25.6-0.4-38.4-0.1h-2.8
							c-33.9,0.5-67.7,2.5-101.5,3.5l0,0c-24,0.7-48.1,1-72.3,0h-1.2c-15.1,0-29.6-0.1-44.7-3.5c-0.9-0.2-1.9-0.5-2.8-0.7
							c-1.6-0.5-3.2-1-4.7-1.4c-8.1-2.5-15.9-4.8-24.9-2.7c-18.4,4-37,6.3-55.8,7.2l0,0c-4.1,0.2-8.2,0.5-12.3,0.6l0,0
							c-7.2,0.2-14.5,0.5-21.9,0.6l0,0H44c-4,0.1-8,0.4-12,0.5c-19.6,1-39.6,2.3-57.9-4.1c-0.7,0-0.6-3.1-0.3-7.3l0,0
							c0,0.1,0.1,0.2,0.2,0.4h0.1h0.1c18.6,6.5,39,5.1,59,4c3.7-0.2,7.3-0.4,10.9-0.5l7.6-0.1c28.3-0.6,55.8-1.7,84.9-8.1
							c11.6-2.8,21.3,2.1,32.3,4.8h0.3c1.8,0.4,3.5,0.7,5.3,1.1c13.5,2.3,26.7,2.3,40.3,2.3c1.4,0,2.8,0.1,4.2,0.1
							c11.4,0.4,22.7,0.5,34.1,0.5l0,0c10.4,0,20.7-0.2,31.1-0.5c6.9-0.2,13.7-0.4,20.6-0.7c29.2-1.1,58.4-2.5,87.6-2.8l0,0h1.6
							c19.8-0.2,39.7,0,59.7,1.2l0,0L458.7,731.7z"/>
						
							<linearGradient id="SVGID_4_" gradientUnits="userSpaceOnUse" x1="217.7" y1="1161.262" x2="217.7" y2="1101.5146" gradientTransform="matrix(1 0 0 1 0 -442.4243)">
							<stop  offset="0" style="stop-color:#BFA910"/>
							<stop  offset="1" style="stop-color:#CFA53D"/>
						</linearGradient>
						<path class="st35" d="M458.7,694.4v8.1c-80.9-5.2-160.3,5.4-240.9,2.2c-15.5,0-30.4,0-45.9-3.5c-11-2.8-20.7-7.7-32.3-4.9
							c-31.7,7-61.5,7.7-92.5,8.4c-23.3,0.7-47.9,4.2-69.8-3.5H-23c-0.2,0-0.3,0-0.3,0s0.1-0.4,0.4-0.9c0,0,0-0.1,0.1-0.2
							c0.1-0.1,0.2-0.2,0.2-0.5c0.1-0.1,0.2-0.4,0.2-0.6V699c0.4-1.5,0.5-3.1,0.3-4.6c10.4,0,21.4,1.6,32.3,2.8l-1.7-10.6l5.5,8.9
							l2-42.5l1.4,44.7h0.4l7.7-21l-6.2,21.1c8.2,0.7,16.4,0.5,24.5-1c12.7-2.3,25.4-3.7,38.3-4.7l9.5-0.7
							c10.9-0.7,21.8-1.2,32.8-1.7h1.9c7.6-0.4,15.2-0.7,22.9-1.1c1.9,0,3.7-0.1,5.7-0.1l7.2,0.2h0.4l1.5,0.1
							c11.1,1,22.2,2.7,33.1,5.2c14.2,3.5,28.8,4.8,43.3,4.2c16.7-1.2,33.5-2.3,50.3-3.5l-0.7-4.4l2.4,4.4c27.8-1.7,55.6-3,83.5-3.1
							l-1.6-10l5.5,8.9l2-26.7l1.3,27.8h1l7.2-16.7l-6,16.5c8.6,0,17.2,0.1,25.9,0.2l2.3-5.7l-1.1,5.7
							C427.8,692.3,443.2,693.2,458.7,694.4z"/>
						<ellipse class="st36" cx="50.7" cy="123.2" rx="1.9" ry="2.1"/>
						<ellipse class="st36" cx="207.6" cy="201.8" rx="1.9" ry="2.1"/>
						<ellipse class="st36" cx="307.1" cy="108.5" rx="1.1" ry="1.2"/>
						<ellipse class="st36" cx="164.4" cy="296.8" rx="1.1" ry="1.2"/>
						<path class="st37" d="M411.3,231.1l-1,0.2l-0.2-1.1c0-0.2-0.2-0.4-0.4-0.2c-0.2,0-0.3,0.2-0.3,0.5l0.2,1.1l-1,0.2
							c-0.2,0-0.3,0.2-0.3,0.5s0.2,0.4,0.4,0.2l1-0.2l0.2,1.1c0,0.2,0.2,0.4,0.4,0.2c0.2,0,0.3-0.2,0.3-0.5l0,0l-0.2-1.1l1-0.2
							c0.2,0,0.3-0.2,0.3-0.5C411.6,231.2,411.4,231.1,411.3,231.1z"/>
						<path class="st37" d="M224.7,43.7l-1.2-0.5l0.4-1.2c0-0.2-0.1-0.5-0.3-0.6c-0.2,0-0.4,0-0.5,0.2l-0.4,1.2l-1.2-0.5
							c-0.2-0.1-0.5,0-0.6,0.2s0,0.5,0.2,0.6h0.1l1.2,0.5l-0.4,1.2c0,0.2,0.1,0.5,0.3,0.6c0.2,0,0.4,0,0.5-0.2l0.4-1.2l1.2,0.5
							c0.2,0.1,0.5,0,0.6-0.2s0-0.5-0.2-0.6C224.8,43.7,224.7,43.7,224.7,43.7z"/>
						<path class="st37" d="M24.8,9.9l-0.7,0.4l-0.3-0.7c-0.1-0.1-0.2-0.2-0.4-0.1c-0.1,0.1-0.2,0.2-0.1,0.4l0.3,0.7L23,10.9
							c-0.1,0-0.2,0.2-0.2,0.4c0.1,0.1,0.3,0.1,0.4,0.1c0,0,0,0,0.1,0L24,11l0.3,0.7c0.1,0.1,0.2,0.1,0.4,0.1
							c0.1-0.1,0.1-0.2,0.1-0.4l-0.3-0.7l0.5-0.4c0.1-0.1,0.2-0.2,0.1-0.4C25.1,9.9,24.9,9.8,24.8,9.9z"/>
						<path class="st37" d="M95.5,74.3l-0.7,0.4l-0.3-0.7c-0.1-0.1-0.2-0.1-0.4-0.1C94,73.9,94,74.1,94,74.2l0.3,0.7l-0.7,0.4
							c-0.1,0-0.2,0.2-0.2,0.4s0.2,0.2,0.3,0.1c0,0,0,0,0.1,0l0.7-0.4l0.3,0.7c0.1,0.1,0.2,0.1,0.4,0.1c0.1-0.1,0.1-0.2,0.1-0.4
							L95,75.2l0.7-0.4c0.1,0,0.2-0.2,0.2-0.4C95.8,74.3,95.6,74.2,95.5,74.3L95.5,74.3z"/>
						<path class="st37" d="M95.5,170.2l-0.7,0.4l-0.3-0.7c-0.1-0.1-0.2-0.1-0.4-0.1c-0.1,0.1-0.1,0.2-0.1,0.4l0.3,0.7l-0.7,0.4
							c-0.1,0-0.2,0.2-0.2,0.4s0.2,0.2,0.3,0.1c0,0,0,0,0.1,0l0.7-0.4l0.3,0.7c0.1,0.1,0.2,0.1,0.4,0.1c0.1-0.1,0.1-0.2,0.1-0.4
							l-0.3-0.7l0.7-0.4c0.1,0,0.2-0.2,0.2-0.4C95.8,170.2,95.6,170.1,95.5,170.2C95.5,170.1,95.5,170.1,95.5,170.2z"/>
						<path class="st37" d="M153.4,201.6l-0.7,0.4l-0.3-0.7c-0.1-0.1-0.2-0.1-0.4-0.1c-0.1,0.1-0.1,0.2-0.1,0.4l0.3,0.7l-0.7,0.4
							c-0.1,0-0.2,0.2-0.2,0.4s0.2,0.2,0.3,0.1c0,0,0,0,0.1,0l0.7-0.4l0.3,0.7c0.1,0.1,0.2,0.1,0.4,0.1c0.1-0.1,0.1-0.2,0.1-0.4
							l-0.3-0.7l0.7-0.4c0.1,0,0.2-0.2,0.2-0.4C153.7,201.6,153.6,201.6,153.4,201.6L153.4,201.6z"/>
						<path class="st37" d="M181.7,121.5l-0.7,0.4l-0.3-0.7c-0.1-0.1-0.2-0.1-0.4-0.1c-0.1,0.1-0.1,0.2-0.1,0.4l0.3,0.7l-0.7,0.4
							c-0.1,0-0.2,0.2-0.2,0.4c0,0.1,0.2,0.2,0.3,0.1c0,0,0,0,0.1,0l0.7-0.4l0.3,0.7c0.1,0.1,0.2,0.1,0.4,0.1
							c0.1-0.1,0.1-0.2,0.1-0.4l-0.3-0.7l0.7-0.4c0.1,0,0.2-0.2,0.2-0.4C182,121.5,181.8,121.4,181.7,121.5L181.7,121.5z"/>
						<polygon class="st15" points="352.7,683.8 345.6,683.8 345.6,683.8 						"/>
					</g>
				</g>
			</g>
		</g>
	</g>
</g>
</svg>
