<svg xmlns="http://www.w3.org/2000/svg" xmlns:xlink="http://www.w3.org/1999/xlink" viewBox="0 0 532.7 885.16"><defs><style>.cls-1,.cls-14,.cls-22{fill:none;}.cls-2{clip-path:url(#clip-path);}.cls-3,.cls-4{fill:#fff;}.cls-3{opacity:0.24;}.cls-19,.cls-20,.cls-3,.cls-4,.cls-9{isolation:isolate;}.cls-4{opacity:0.08;}.cls-5{opacity:0.27;}.cls-6{opacity:0.16;}.cls-19,.cls-7,.cls-9{fill:#ad5236;}.cls-8{opacity:0.12;}.cls-9{opacity:0.76;}.cls-10{fill:#ce783f;}.cls-11{fill:#b4673e;}.cls-12{fill:#e49345;}.cls-13{fill:#9b5c3f;}.cls-14{stroke:#2d2d2d;}.cls-14,.cls-23{stroke-miterlimit:10;}.cls-15{fill:#82820f;}.cls-16{opacity:0.62;}.cls-17{opacity:0.39;}.cls-18{fill:url(#linear-gradient);}.cls-19{opacity:0.21;}.cls-20{fill:#492e17;opacity:0.5;}.cls-21{fill:url(#linear-gradient-2);}.cls-22,.cls-23{stroke:#f9f9f9;}.cls-22{stroke-linecap:round;stroke-linejoin:round;stroke-width:0.5px;}.cls-23{fill:#f9f9f9;stroke-width:0.25px;}</style><clipPath id="clip-path" transform="translate(0 -103.8)"><rect class="cls-1" x="60.8" width="452.3" height="812"/></clipPath><linearGradient id="linear-gradient" x1="222.9" y1="-316.29" x2="222.9" y2="147.05" gradientTransform="matrix(1, 0, 0, -1, 0, 391.58)" gradientUnits="userSpaceOnUse"><stop offset="0" stop-color="#c48951"/><stop offset="1" stop-color="#6e2e3b"/></linearGradient><linearGradient id="linear-gradient-2" x1="277.7" y1="-343.74" x2="277.7" y2="-282.63" gradientTransform="matrix(1, 0, 0, -1, 0, 391.58)" gradientUnits="userSpaceOnUse"><stop offset="0" stop-color="#bfa910"/><stop offset="1" stop-color="#cfa53d"/></linearGradient></defs><title>bgmobile</title><g id="Layer_2" data-name="Layer 2"><g id="Layer_1-2" data-name="Layer 1"><g id="Layer_2-2" data-name="Layer 2"><g id="Layer_1-2-2" data-name="Layer 1-2"><g class="cls-2"><path id="_Path_" data-name=" Path " class="cls-3" d="M494.9,178.4s-106.1-38.77-147.2-23.73c0,0,67.2-5.22,142.6,29.15Z" transform="translate(0 -103.8)"/><path id="_Compound_Path_2" data-name=" Compound Path 2" class="cls-3" d="M501.6,226.27c-3.1,1.74-135.5-14.63-155.8-23.83S287,209.5,244.4,216s-176.9,1.23-176.9,1.23l8.7,9.62s127.1,33.45,192,3.17,242.3,11.66,242.3,11.66S504.7,224.53,501.6,226.27ZM150.3,229c-1.8-.92-.8-2.76,1.5-2.86,16.2-.1,58.6-.41,69.1,0C239.7,227.19,190.8,250.41,150.3,229Zm205.3-17s21.9-.2,24.2,5.42-39.8-2.56-24.2-5.42Z" transform="translate(0 -103.8)"/><path id="_Compound_Path_3" data-name=" Compound Path 3" class="cls-4" d="M501.6,388.71c-3.1,1.74-135.5-14.63-155.8-23.83s-58.8,7.06-101.4,13.6-176.9,1.23-176.9,1.23l8.7,9.62s127.1,33.45,192,3.17,242.3,11.66,242.3,11.66S504.7,387,501.6,388.71Zm-351.3,2.76c-1.8-.92-.8-2.76,1.5-2.86,16.2-.1,58.6-.41,69.1,0C239.7,389.63,190.8,412.85,150.3,391.47Zm205.3-17.08s21.9-.2,24.2,5.42-39.8-2.46-24.2-5.42Z" transform="translate(0 -103.8)"/><path id="_Compound_Path_4" data-name=" Compound Path 4" class="cls-3" d="M295.1,290.41s61.8-26.49,84.4-7.47c22.6,19.23,66.9-2.15,66.9-2.15l3-5.93s-46.8,3.27-61.6-.72c-14.8-4.19-28.3-14.53-35.3-8.59s-53.2,16.16-54.3,15S295.1,290.41,295.1,290.41ZM396,280.59c3.7-.2,18.4-.1,24,0a1,1,0,0,1,.9,1.13,1.12,1.12,0,0,1-.3.72c-14.1,13.4-31.1-1.33-24.6-1.84ZM340.7,275c.8-3.68,8.5-3.38,8.5-3.38C354.6,273.33,339.9,278.44,340.7,275Z" transform="translate(0 -103.8)"/><g id="_Group_" data-name=" Group "><path id="_Compound_Path_5" data-name=" Compound Path 5" class="cls-3" d="M421.2,121.22c27.3,2.15,71.1,2.15,71.1,2.15l-2.7-7.16c-16.6,9.21-63.4,2-85-2-1.8-.92-3.4-1.64-5-2.56-30.4-16.37-74.2-3.58-93.8,7.47-24.9,2-57.3-1-81.2-3.89l-12-3.58C152.1,94.11,80.8,150.06,79.4,150.06v11.15c-10.3-.72-19-1.94-24.5-2.66-4-.51-6.4-.92-6.5-.92s19.7,15.75,33.8,13.81c12.9,1.64,29.7.72,50.2-6,43.3-14.53,60.9-10,66.8-7-5.6-3.07-20.7-8.69-49.6-.72C134,161.93,114,162.65,96,162c26.2-16.88,77.2-45.32,104.2-30.28,37.4,20.66,86.9,16.06,130.2,0s186.9,39.08,186.9,39.08V150.17C517.3,150.06,459.9,136.15,421.2,121.22ZM134.4,131.75c-.7-2.15,7.8-16.37,20.1-12.58S136.7,138.91,134.4,131.75ZM176.3,121c-7.2,4.5-15.1,2.76-8.9-1.94,1.3-1,16.1-2.66,8.9,1.94Zm33.4,1.74s29.2,4.3,30.8,9.1-45.8-5.93-30.8-9.1Zm91.5-.72c-11,7.67-19.9,8.18-44,2.15a200.33,200.33,0,0,0,44.2-2.25Zm29.1.72c-11,.92,31.6-13.91,40.3-6.44s-17.3,4.71-40.3,6.44Z" transform="translate(0 -103.8)"/><path id="_Path_2" data-name=" Path 2" class="cls-3" d="M199.3,158.25a21.23,21.23,0,0,1,2.5,1.64A13.21,13.21,0,0,0,199.3,158.25Z" transform="translate(0 -103.8)"/></g><g id="_Group_2" data-name=" Group 2" class="cls-5"><path id="_Compound_Path_6" data-name=" Compound Path 6" class="cls-3" d="M416.9,494.38c28.1,2.15,73.3,2.15,73.3,2.15l-2.8-7.47c-17.1,9.51-65.3,2.15-87.5-2-1.8-.92-3.5-1.74-5.1-2.66-31.4-16.88-76.5-3.58-96.6,7.57-25.6,2-59-1-83.7-4.09l-12.4-3.58c-62.4-17.9-135.9,39.69-137.3,39.69V535.4c-10.6-.92-19.5-1.94-25.3-2.66-4.1-.51-6.6-.92-6.7-.92S53,548.08,67.6,546c13.3,1.74,30.6.72,51.7-6.34,44.6-14.93,62.8-10.23,68.8-7.16-5.7-3.17-21.4-9-51.1-.61-16.1,4.5-36.7,5.22-55.4,4.5,27-17.39,79.5-46.65,107.4-31.3,38.5,21.38,89.5,16.57,134.1,0s192.5,40.2,192.5,40.2V523.94C515.9,523.94,456.8,509.72,416.9,494.38ZM121.5,505.12c-.7-2.15,8-16.88,20.7-13s-18.4,20.46-20.8,13Zm43.2-10.95c-7.4,4.71-15.5,2.86-9.1-2,1.3-1,16.5-2.76,9.1,2Zm34.5,1.74s30.1,4.4,31.8,9.31-47.4-6.14-31.8-9.31Zm94.2-.72c-11.3,7.88-20.6,8.49-45.3,2.25a199.57,199.57,0,0,0,45.5-2.35Zm30,.72c-11.3.92,32.5-14.42,41.6-6.65s-18,4.91-41.7,6.65Z" transform="translate(0 -103.8)"/><path id="_Path_3" data-name=" Path 3" class="cls-3" d="M188.2,532.54a22.53,22.53,0,0,1,2.6,1.64A11.3,11.3,0,0,0,188.2,532.54Z" transform="translate(0 -103.8)"/></g><g class="cls-6"><path class="cls-7" d="M254.7,551.46a39.34,39.34,0,0,0,5.9,8.59,21.77,21.77,0,0,0,8.4,4.81,52.66,52.66,0,0,0,5.4,1.43h0c0-17.08,0-34.06.6-51.15.3-8.59.7-17.19,1.6-25.78l.2-1.94-.3-.51.3-.1,1.8-22.71,3.3-40.81-17.7-24.65,18.2,18.72.3-4.09c.6-8.49,1.2-16.88,1.7-25.37.2-4.19.5-8.49.6-12.58a104.93,104.93,0,0,0-.7-12.58,107.77,107.77,0,0,0-5-24.65,76.66,76.66,0,0,0-4.8-11.46c-.9-1.94-1.9-3.68-2.8-5.42a27,27,0,0,1-2.6-5.73,23.46,23.46,0,0,0,2.7,5.52c1,1.74,2.1,3.58,3,5.42a81.94,81.94,0,0,1,5.1,11.35,109.76,109.76,0,0,1,5.7,24.75c.6,4.3.8,8.49,1,12.89s-.1,8.59-.2,12.89c-.3,8.49-.6,17.08-1,25.47l-2.8,50.94-1.1,19.84,20.9-10.74-21.2,15.55v1c-.6,8.29-.8,16.78-.8,25.27-.1,16.67.3,33.45.8,50.12l8.7-3.78,1.3,4.5-9.9,3.17,1.4,47.87c0,2.86.2,5.73.2,8.49l8.2-4.81-8.1,8.69v.51c0,4.4,0,8.69-.2,13-.3,8.59-.8,17.19-1.4,25.78-1.3,17.08-3,34-5.1,51l-11-2c2.5-16.67,4.6-33.45,6.4-50.23.9-8.29,1.6-16.78,2.1-25.16.2-4.19.5-8.29.5-12.48s0-8.49,0-12.79l-.1-47.77a34.3,34.3,0,0,1-6.2-2.15,23.72,23.72,0,0,1-8.7-5.93,40.44,40.44,0,0,1-5.5-9.51,90.65,90.65,0,0,1-3.8-10.33C251.5,544.91,253,548.29,254.7,551.46Z" transform="translate(0 -103.8)"/></g><g class="cls-6"><path class="cls-7" d="M340.9,519.54a50.27,50.27,0,0,0,5.9,10.13,20.9,20.9,0,0,0,8.4,5.52,54.24,54.24,0,0,0,5.4,1.64h0c0-19.95,0-39.89.6-59.94.3-10,.7-20,1.6-30.07l.2-2.25-.3-.61.3-.2,1.8-26.6,3.3-47.87-17.7-28.74,18.2,21.89.3-4.81c.6-10,1.2-19.84,1.7-29.77.2-4.91.5-10,.6-14.93a145.23,145.23,0,0,0-.7-14.73,148.5,148.5,0,0,0-5-28.95,102.58,102.58,0,0,0-4.8-13.5c-.9-2.15-1.9-4.3-2.8-6.44a40.47,40.47,0,0,1-2.6-6.55,36.41,36.41,0,0,0,2.7,6.44c1,2,2.1,4.19,3,6.34a97.15,97.15,0,0,1,5.1,13.4,139.84,139.84,0,0,1,5.7,28.95c.6,4.91.8,10,1,15s-.1,10-.2,15c-.3,10-.6,19.95-1,30l-2.8,59.94-1.1,23.22,20.9-12.58-21.2,18.21v1.13c-.6,9.82-.8,19.74-.8,29.56-.1,19.54.3,39.18.8,58.72l8.7-4.4,1.3,5.32-9.9,3.78,1.4,56c0,3.27.2,6.65.2,10l8.2-5.73-8.1,10.13v.51c0,5,0,10.13-.2,15.14-.3,10.13-.8,20-1.4,30.07-1.3,20-3,39.89-5.1,59.74l-11-2.25c2.5-19.44,4.6-39.18,6.4-58.72.9-9.82,1.6-19.74,2.1-29.46.2-4.81.5-9.82.5-14.63s0-10,0-14.93l-.1-55.85a36.08,36.08,0,0,1-6.2-2.56,23.1,23.1,0,0,1-8.7-7.06,52.27,52.27,0,0,1-5.5-11.15,95.41,95.41,0,0,1-3.8-12.17C337.7,511.87,339.2,515.76,340.9,519.54Z" transform="translate(0 -103.8)"/></g><g class="cls-8"><path class="cls-7" d="M354.6,598.31a30.33,30.33,0,0,1-5.9,6,22.92,22.92,0,0,1-8.4,3.27c-1.8.41-3.6.72-5.4,1h0c0-12,0-23.83-.6-35.9a181.64,181.64,0,0,0-1.6-18.11l-.2-1.43.3-.41-.3-.1-1.8-16-3.3-28.64,17.7-17.19L326.9,504l-.3-2.86c-.6-5.93-1.2-11.87-1.7-17.8-.2-3.07-.5-5.93-.6-9a86.86,86.86,0,0,1,.7-8.8,60.19,60.19,0,0,1,5-17.29,58.92,58.92,0,0,1,4.8-8.08c.9-1.23,1.9-2.56,2.8-3.78a20.15,20.15,0,0,0,2.6-3.89,14.92,14.92,0,0,1-2.7,3.89c-1,1.23-2.1,2.56-3,3.78a60.72,60.72,0,0,0-5.1,8.08,57.16,57.16,0,0,0-5.7,17.39,68.85,68.85,0,0,0-1,9c0,3.07.1,5.93.2,9,.3,5.93.6,12,1,17.9l2.7,35.9,1.1,13.91-20.9-7.67L328,554.53v.72a174.63,174.63,0,0,1,.8,17.7c.1,11.76-.3,23.53-.8,35.19l-8.7-2.66-1.3,3.17,9.9,2.25-1.4,33.55c0,2-.2,3.89-.2,5.93L318.1,647l8.1,6v.41c0,3.07,0,6,.2,9.1.3,6,.8,12,1.4,18.11,1.3,12,3,23.83,5.1,35.9l11-1.43c-2.5-11.66-4.6-23.53-6.4-35.19-.9-5.93-1.6-11.76-2.1-17.7-.2-2.86-.5-5.83-.5-8.8s0-5.93,0-9l.2-33.45a61.14,61.14,0,0,0,6.2-1.53,21.5,21.5,0,0,0,14.1-10.84,60.76,60.76,0,0,0,3.8-7.16A81.18,81.18,0,0,1,354.6,598.31Z" transform="translate(0 -103.8)"/></g><path class="cls-9" d="M53.7,741.83c0,11.25,8,20.36,17.9,20.46H468.9c9.9,0,17.9-9.1,17.9-20.46a23.46,23.46,0,0,0-2.2-9.82c5.2-11.46,1.2-25.47-8.9-31.4s-22.4-1.43-27.6,10.13c-.3.72-.6,1.53-.9,2.25a14.18,14.18,0,0,0-14.3-4.09c-.7-5.93-5.6-10.13-10.8-9.31a7.63,7.63,0,0,0-3.3,1.23c1-7.57-3.6-14.63-10.2-15.75a11.19,11.19,0,0,0-10.4,3.89c-5.1-8.69-15.5-10.95-23.1-5.22a19.34,19.34,0,0,0-4.5,5,10.41,10.41,0,0,0-13.7.2c-4-8.08-13-10.95-20-6.44a16,16,0,0,0-6.9,10,7.44,7.44,0,0,0-6.7.92c-2.1-5.83-6.9-9.72-12.4-10h0c0-9.21-6.6-16.78-14.7-16.78a13.49,13.49,0,0,0-9.1,3.58,9.86,9.86,0,0,0-10.9-2c-2.5-8.49-10.5-12.89-17.9-10.13a15.69,15.69,0,0,0-9.3,12.17h-.2c-6.9,0-12.7,5.73-13.9,13.4A9.76,9.76,0,0,0,221,683l-.5-.1c.8-6.85-3.3-13-9.3-14a10.41,10.41,0,0,0-4.7.41c-.1-9.21-6.7-16.67-14.9-16.57-5.4,0-10.4,3.58-12.9,9-6.6-1.53-13,3.27-14.3,10.74-.1.41-.1.72-.2,1.13-4-3.38-9.6-2.35-12.5,2a10.73,10.73,0,0,0-1.6,7.88,5.5,5.5,0,0,0-5.3,1.43c-.3-5.22-4.3-9.1-8.9-8.8a7.59,7.59,0,0,0-3.6,1.23c-3.2-11.15-13.8-17.08-23.5-13.4-5.9,2.25-10.4,7.67-12,14.63-4.1-2.35-9.1-.61-11.2,3.89a15.49,15.49,0,0,0-.9,3.07c-10.9-3.17-22.1,4.3-24.9,16.78a25.48,25.48,0,0,0,4.3,21C57.6,726.79,53.7,734,53.7,741.83ZM155.8,691.5c-.5.61-1,1.43-1.4,2a6.83,6.83,0,0,0,.5-2.56A2,2,0,0,0,155.8,691.5ZM262,708.17h-.4l.1-.41Zm93.3,0h0Z" transform="translate(0 -103.8)"/><polygon class="cls-10" points="518.7 644.26 518.7 632.09 455.3 632.09 357.2 632.09 293.7 632.09 258.4 632.09 98.8 632.09 93 632.09 34.1 632.09 15 632.09 15 690.4 15 722.52 15 752.49 29.1 752.49 50 752.49 72 752.49 77.4 752.49 108.2 752.49 156 752.49 177.8 752.49 209.4 752.49 222.9 752.49 289.8 752.49 358 752.49 370.1 752.49 518.7 752.49 518.7 707.28 518.7 685.18 518.7 674.13 518.7 651.73 518.7 644.67 518.7 644.26"/><path id="_Path_24" data-name=" Path 24" class="cls-11" d="M0,780.39s22.9,31.3,58.9,21S115.2,749.6,159.7,749c0,0-37.4,9.1-53.8,37.34S66.1,846.58,3.2,822Z" transform="translate(0 -103.8)"/><path id="_Path_25" data-name=" Path 25" class="cls-11" d="M258.4,735.89s-52,11.46-55,42.45c-2.1,22.1-1.1,38.67-39.9,46.13-41.5,8.08-77.2,55.85-77.2,55.85l61.5-2.66a82.54,82.54,0,0,1,17-33.76c15.4-17.59,43.2-4.4,51-72.22,3.9-34,60.8-30.59,60.8-30.59Z" transform="translate(0 -103.8)"/><path id="_Path_26" data-name=" Path 26" class="cls-12" d="M91.6,731.8s3.2,3.27,1.3,21.07c-1.6,15-10.5,28.34-32.1,35.6,0,0,25.5,3.07,54.3-43.78Z" transform="translate(0 -103.8)"/><path id="_Path_27" data-name=" Path 27" class="cls-12" d="M195.6,920.33s21.6-122.14,139.9-125,119.7-59.43,119.7-59.43,5.9,55-104,72.22S294.4,989,294.4,989Z" transform="translate(0 -103.8)"/><path id="_Path_28" data-name=" Path 28" class="cls-11" d="M293.7,735.89s-28.8,23.83-31.4,46.85-39.2,23.12-47.1,38.67A172.32,172.32,0,0,1,247.3,808c16.6-4.91,19-4.71,24-26.6,2-8.69-5.2-28.44,46.6-21.07,33.8,4.71,61.5-20.66,61.5-20.66L357.2,736s-14.3,24-31.7,20S293.7,735.89,293.7,735.89Z" transform="translate(0 -103.8)"/><path class="cls-11" d="M518.7,748.07c-1.6,0-3.2-.1-4.9,0h0A74.67,74.67,0,0,0,489.9,754c-17,7.16-38.5,21.48-65.3,47.05-27.4,26.29-49.2,43.58-66.5,55-46.8,31.1-60.3,18.31-60.7,17.9l7.5,16.26,59.5-28.34s2.1-2.25,5.8-5.93c15.1-15.45,57.4-56.57,96.3-77.74,17.7-9.62,36.1-7.47,52.3-.61l-.1-29.56Z" transform="translate(0 -103.8)"/><path class="cls-12" d="M518.7,789v22.1c-14.2-6.44-30.7-8.59-46.4,1.43-39.9,25.27-61.7,35.7-72.6,28.34,0,0,26.2,3.78,65.4-41.63C482.2,779.27,501.9,780.9,518.7,789Z" transform="translate(0 -103.8)"/><path id="_Path_29" data-name=" Path 29" class="cls-12" d="M39.2,896.6S114.4,797.17,148.4,790s47.1-37,47.1-37-11.6,36.42-46.4,47.57S39.2,896.6,39.2,896.6Z" transform="translate(0 -103.8)"/><path id="_Path_30" data-name=" Path 30" class="cls-13" d="M23.5,768.53s17-11.15,24.2,0S37.9,779,30,778.65,23.5,768.53,23.5,768.53Z" transform="translate(0 -103.8)"/><path id="_Path_31" data-name=" Path 31" class="cls-13" d="M338.6,832.25s13.2-8.59,18.7,0-7.6,8.08-13.7,7.88S338.6,832.25,338.6,832.25Z" transform="translate(0 -103.8)"/><path id="_Path_32" data-name=" Path 32" class="cls-13" d="M53,778.75s3.8,5.83,9.1,0S49.2,773,53,778.75Z" transform="translate(0 -103.8)"/><path id="_Path_33" data-name=" Path 33" class="cls-13" d="M126.5,784.18s3.5-13,12.6-9.62,6.1,6.85,6.1,6.85S131.3,789.6,126.5,784.18Z" transform="translate(0 -103.8)"/><path id="_Path_34" data-name=" Path 34" class="cls-13" d="M309,773.23s-5.3,8.59,0,8.8S315.3,770.57,309,773.23Z" transform="translate(0 -103.8)"/><path id="_Path_35" data-name=" Path 35" class="cls-13" d="M278.6,775.48s3.1,4.71,7.4,0S275.5,770.88,278.6,775.48Z" transform="translate(0 -103.8)"/><path id="_Path_36" data-name=" Path 36" class="cls-13" d="M288.7,779.68s2.8-10.43,10.2-7.88,5,5.52,5,5.52S292.5,784.07,288.7,779.68Z" transform="translate(0 -103.8)"/><path id="_Path_37" data-name=" Path 37" class="cls-13" d="M142.8,764.95h0a5.1,5.1,0,0,0,1,6.65c.1.1.2.1.3.2,3.2,2.25,7.9,4.5,11.6,2.66,2-1,2.7-3.58,2.3-6.14C156.7,760.14,147.1,758,142.8,764.95Z" transform="translate(0 -103.8)"/><path id="_Path_38" data-name=" Path 38" class="cls-13" d="M315.5,840.44h0a4.16,4.16,0,0,0,.8,5.32c.1,0,.1.1.2.1,2.5,1.74,6.1,3.58,8.9,2.15a4.35,4.35,0,0,0,1.8-4.81c-.7-4.09-4.2-6.55-7.7-5.73A5.84,5.84,0,0,0,315.5,840.44Z" transform="translate(0 -103.8)"/><path id="_Path_39" data-name=" Path 39" class="cls-14" d="M353.7,820.59l-.7.92a2.38,2.38,0,0,0,.2,3.07,2.17,2.17,0,0,0,1.2.51h1.1a1.29,1.29,0,0,0,1.2-1.43v-.2h0a3.29,3.29,0,0,0-3-2.86Z" transform="translate(0 -103.8)"/><path id="_Path_40" data-name=" Path 40" class="cls-13" d="M302.2,779l-.7,1a2.4,2.4,0,0,0,.3,3.17,1.64,1.64,0,0,0,1.3.51h1.1a1.29,1.29,0,0,0,1.2-1.43v-.1h0c-.4-1.94-1.7-3.17-3.2-3.17Z" transform="translate(0 -103.8)"/><path id="_Path_41" data-name=" Path 41" class="cls-13" d="M336.2,846.47l.9-.51a2.37,2.37,0,0,0,.9-2.86,2.22,2.22,0,0,0-.9-1l-1-.51a1.12,1.12,0,0,0-1.6.61c0,.1-.1.1-.1.2h0a3.75,3.75,0,0,0,1.8,4.09Z" transform="translate(0 -103.8)"/><path id="_Path_42" data-name=" Path 42" class="cls-13" d="M27,860.59c.7-.51,5.5-16.37,15.7-12.17s6.7,12.17,6.7,12.17Z" transform="translate(0 -103.8)"/><path id="_Path_43" data-name=" Path 43" class="cls-13" d="M323,828.88s-1.7,4.71,1.4,6.14,4.9-3.07,4.9-3.07l-3.3-3.07Z" transform="translate(0 -103.8)"/><path id="_Path_44" data-name=" Path 44" class="cls-13" d="M174.4,862.43c1.7-1.23,9.6-22.4,17.4-22.2s16.1-2.86,19.6-.41,3.1,4.09,3.7,8.08-15,17.19-15,17.19Z" transform="translate(0 -103.8)"/><path id="_Path_45" data-name=" Path 45" class="cls-13" d="M457.5,834.2s-6.1,9.31,0,9.62,15.3-8.59,15.3-8.59S470.1,821.31,457.5,834.2Z" transform="translate(0 -103.8)"/><path class="cls-15" d="M518.7,748.07V718.5c-80.9-5.32-160.3,5.52-240.9,2.25-15.5,0-30.4,0-45.9-3.58-11-2.86-20.7-7.88-32.3-5-31.7,7.16-61.5,7.88-92.5,8.59-23.3.72-47.9,4.3-69.8-3.58H37c-.2,0-.3,0-.3-.1a2.61,2.61,0,0,1,.4-.92l.1-.2a.61.61,0,0,0,.2-.51,1.11,1.11,0,0,0,.2-.61v-.1H35.5c.4,3.68-.7,13.3-1.4,21.07-.4,5-.7,9.31-.3,10.74a.22.22,0,0,0,.2.2l.1.1h.1c18.6,6.65,39,5.22,59,4.09,3.7-.2,7.3-.41,10.9-.51l7.6-.1c28.3-.61,55.8-1.74,84.9-8.29,11.6-2.86,21.3,2.15,32.3,4.91h.3c1.8.41,3.5.72,5.3,1.13,13.5,2.35,26.7,2.35,40.3,2.35,1.4,0,2.8.1,4.2.1,11.4.41,22.7.51,34.1.51h0c10.4,0,20.7-.2,31.1-.51,6.9-.2,13.7-.41,20.6-.72,29.2-1.13,58.4-2.56,87.6-2.86H454c19.8-.2,39.7,0,59.7,1.23h0l4.9.41Z" transform="translate(0 -103.8)"/><g class="cls-6"><path class="cls-7" d="M199.4,578.36a31.65,31.65,0,0,1-4.4,6.44,16.51,16.51,0,0,1-6.2,3.58c-1.3.41-2.7.72-4,1h0c0-12.58,0-25.37-.4-38.16q-.3-9.67-1.2-19l-.1-1.43.2-.41-.2-.1-1.4-16.88-2.5-30.48,13.2-18.31-13.5,13.91-.2-3.07c-.5-6.34-.9-12.58-1.3-18.92-.2-3.17-.4-6.34-.4-9.51a70.64,70.64,0,0,1,.5-9.31,79.21,79.21,0,0,1,3.7-18.31,90.74,90.74,0,0,1,3.5-8.59c.7-1.43,1.4-2.76,2.1-4.09a19.82,19.82,0,0,0,1.9-4.19,20.12,20.12,0,0,1-2,4.19c-.8,1.23-1.5,2.66-2.3,4.09a58.89,58.89,0,0,0-3.8,8.49,83.22,83.22,0,0,0-4.2,18.41c-.4,3.17-.6,6.34-.8,9.62s.1,6.44.2,9.62c.2,6.34.5,12.58.7,19l2,38.05.8,14.73-15.5-8.08,15.7,11.46v.72c.4,6.34.6,12.48.6,18.82,0,12.38-.2,24.86-.6,37.34l-6.5-2.76-1,3.38,7.4,2.56-1,35.6c0,2.15-.1,4.19-.2,6.34l-6.1-3.58,6,6.44v.41c0,3.17,0,6.44.2,9.62.2,6.44.6,12.89,1.1,19.23,1,12.79,2.2,25.37,3.8,38.05l8.2-1.53c-1.8-12.38-3.4-24.86-4.7-37.34-.6-6.14-1.2-12.48-1.6-18.72-.2-3.17-.3-6.14-.4-9.31s0-6.34,0-9.51v-35.5a35.17,35.17,0,0,0,4.6-1.64,19.89,19.89,0,0,0,6.5-4.4,34.93,34.93,0,0,0,4.1-7.06,70.22,70.22,0,0,0,2.8-7.67C201.8,573.45,200.6,576,199.4,578.36Z" transform="translate(0 -103.8)"/><path class="cls-7" d="M167,519.65l.4-.92c1.6-4.19-.1-9.1-3.7-10.84l-.4.92C161.7,512.79,163.3,517.81,167,519.65Z" transform="translate(0 -103.8)"/><path class="cls-7" d="M155.3,529.77l.9.2c3.9.92,7.8-1.94,8.6-6.44h0l-.9-.2C160,522.41,156.2,525.17,155.3,529.77Z" transform="translate(0 -103.8)"/><path class="cls-7" d="M197.5,576.62l.9.2c1.1-4.4-1.2-9-5-10.23l-.9-.2C191.4,570.79,193.7,575.29,197.5,576.62Z" transform="translate(0 -103.8)"/><path class="cls-7" d="M202.8,580.92l-2.8.61h0c.6,3.27,3.5,5.42,6.4,4.71l2.8-.61C208.5,582.25,205.7,580.31,202.8,580.92Z" transform="translate(0 -103.8)"/><path class="cls-7" d="M171,629.31v-.92c0-3.27-2.3-5.83-5.1-5.83v.92C165.9,626.65,168.2,629.31,171,629.31Z" transform="translate(0 -103.8)"/><path class="cls-7" d="M165.2,637.9l.8.1c2.8.41,5.3-1.94,5.7-5.22l-.8-.1C168.1,632.27,165.5,634.73,165.2,637.9Z" transform="translate(0 -103.8)"/></g><g class="cls-16"><path class="cls-7" d="M504.6,531.62a42.43,42.43,0,0,1-6.4,9.31,22,22,0,0,1-9,5,55.56,55.56,0,0,1-5.9,1.53h0c0-18.41,0-36.72-.6-55.14-.3-9.21-.8-18.41-1.7-27.82l-.2-2,.3-.61-.3-.1-2-24.65L475.2,393l19.1-26.49-19.6,20.25-.4-4.4c-.7-9.1-1.3-18.31-1.8-27.41-.3-4.5-.5-9.21-.6-13.6a125.28,125.28,0,0,1,.7-13.6,118.3,118.3,0,0,1,5.4-26.6,84.19,84.19,0,0,1,5.1-12.38c1-2,2-3.89,3.1-5.93a27.44,27.44,0,0,0,2.8-6,23.23,23.23,0,0,1-2.9,5.93c-1.1,1.94-2.2,3.78-3.3,5.83a89.73,89.73,0,0,0-5.5,12.28,115.89,115.89,0,0,0-6.2,26.8c-.6,4.5-.9,9.1-1.1,13.91s.1,9.21.3,13.91c.3,9.21.7,18.31,1.1,27.52l2.9,55,1.1,21.38-22.6-11.66,22.8,16.67v1.13q.9,13.66.9,27.31c.1,18.11-.4,36.11-.9,54.22L466.3,543l-1.4,4.81,10.7,3.58L474.1,603c-.1,3.07-.2,6-.3,9.21L465,607l8.7,9.31v.51c0,4.71.1,9.31.2,14,.3,9.31.9,18.51,1.6,27.82,1.4,18.41,3.3,36.72,5.5,55l11.9-2.15c-2.7-17.9-5-36.11-6.9-54.22-.9-9.1-1.8-18.11-2.3-27.11q-.45-6.75-.6-13.5c-.1-4.5,0-9.1,0-13.81l.1-51.35c2.3-.61,4.5-1.43,6.7-2.25a26.81,26.81,0,0,0,9.4-6.44,43,43,0,0,0,5.9-10.23,93.32,93.32,0,0,0,4.1-11.15C508,524.56,506.4,528.24,504.6,531.62Z" transform="translate(0 -103.8)"/><path class="cls-7" d="M457.6,446.51l.5-1.43c2.3-6-.1-13.09-5.4-15.75l-.5,1.43C449.8,436.69,452.2,443.75,457.6,446.51Z" transform="translate(0 -103.8)"/><path class="cls-7" d="M440.7,461.14l1.3.2c5.7,1.43,11.3-2.76,12.5-9.21h0l-1.3-.2C447.5,450.6,441.9,454.79,440.7,461.14Z" transform="translate(0 -103.8)"/><path class="cls-7" d="M501.8,529.16l1.2.41c1.5-6.44-1.7-13-7.3-14.73l-1.2-.41C493,520.77,496.2,527.32,501.8,529.16Z" transform="translate(0 -103.8)"/><path class="cls-7" d="M509.5,535.4l-4,1h0c.9,4.81,5,7.88,9.2,6.85l4-1C517.8,537.45,513.6,534.48,509.5,535.4Z" transform="translate(0 -103.8)"/><path class="cls-7" d="M463.4,605.37v-1.43c0-4.71-3.3-8.49-7.5-8.49v1.43C456,601.58,459.3,605.37,463.4,605.37Z" transform="translate(0 -103.8)"/><path class="cls-7" d="M455,618l1.2.1c4.1.51,7.8-2.76,8.3-7.47l-1.2-.1C459.2,610,455.5,613.25,455,618Z" transform="translate(0 -103.8)"/></g><g class="cls-17"><path class="cls-18" d="M223.4,707.87c-.6-19.44-1-39-1.3-58.51-.1-9.72-.2-19.44-.2-29.26,0-4.81,0-9.72.1-14.63s0-9.62-.1-14.53c-.4-19.44-1-38.87-.7-58.51.1-4.91.3-9.62.3-14.53s0-9.62-.1-14.53c-.3-9.62-.8-19.33-1.6-28.95s-1.7-19.33-2.4-29.05-1.2-19.44-1.8-29.15c-1.1-19.44-2.1-38.77-3-58.2-.4-9.62-.8-19.44-1.2-29.15-.2-4.81-.3-9.62-.3-14.63a120.19,120.19,0,0,1,1.2-14.63,129.39,129.39,0,0,1,6.5-28.34,116.1,116.1,0,0,1,5.8-13c1.1-2.15,2.3-4.19,3.5-6.14a31.71,31.71,0,0,0,3.1-6.44,30.93,30.93,0,0,1-2.9,6.44c-1.1,2-2.3,4.19-3.3,6.14a100.16,100.16,0,0,0-5.5,13.09,127.71,127.71,0,0,0-5.8,28.13c-.5,4.81-.7,9.62-.8,14.53s.4,9.62.6,14.53c.6,9.62,1.2,19.33,1.9,29.05,1.4,19.33,2.8,38.77,4.4,58.1.8,9.62,1.6,19.33,2.5,28.95s2.1,19.33,3.1,28.95,1.8,19.44,2.3,29.15c.2,4.81.5,9.82.5,14.73s.1,9.82.1,14.63c.2,19.33,1.2,38.67,2,58.1.2,4.81.4,9.72.5,14.73s.2,9.62.3,14.53c.2,9.62.6,19.33.9,29.05.7,19.33,1.6,38.77,2.7,58.1Z" transform="translate(0 -103.8)"/></g><path class="cls-19" d="M521.7,696.82c8.1-10.84,7-27-2.5-36.21-5.6-5.42-13.2-7.47-20.3-5.32-.7-5.73-5.4-9.62-10.4-8.8a6.38,6.38,0,0,0-2.9,1.13c-2.9-12.38-14.1-19.84-25-16.57-6.7,2-12,7.67-14.2,15.14-4.4-2.86-10-1.23-12.6,3.68a11.55,11.55,0,0,0-1.2,4.5,6.16,6.16,0,0,0-5.8-1.53c.9-6.14-2.8-11.87-8.2-12.89a8.72,8.72,0,0,0-7.4,2c-.9-8.29-7.6-14.32-14.9-13.3-.3,0-.6.1-.9.1-4.1-9.1-14-12.48-21.9-7.88a18.7,18.7,0,0,0-8.7,16.16c-6.3-2.25-13,1.64-15,8.8a13.84,13.84,0,0,0-.4,6l-.6.1a10.79,10.79,0,0,0-15.3.61c-1.3-8.49-7.7-14.63-15.3-14.63h-.3c-1.6-9.62-9.7-16-18.1-14.12-5.6,1.13-10.1,5.73-11.9,11.87a11,11,0,0,0-12,2.25c-7.1-6.34-17.3-4.91-22.8,3.17a21.08,21.08,0,0,0-3.5,11.35h0c-6.1.2-11.4,4.71-13.7,11.15a8,8,0,0,0-7.4-1c-2.5-9.82-11.5-15.45-20.1-12.58a17,17,0,0,0-9.7,8.69,11.36,11.36,0,0,0-15.2-.2c-5.7-9.62-17.1-12-25.5-5.52a19.35,19.35,0,0,0-4.9,5.73c-5.2-5.93-13.7-6-18.9-.1a16.3,16.3,0,0,0-3.8,13.3c-5.1-3.17-11.6-1-14.4,4.81a13.81,13.81,0,0,0-1.2,4.09,15.44,15.44,0,0,0-15.8,4.4c-4.4-13.3-17.5-19.95-29.1-15s-17.6,19.84-13.2,33.25a24.15,24.15,0,0,0,1.1,2.86,24.05,24.05,0,0,0-2.5,10.95c0,12.38,8.9,22.5,19.8,22.5H513c10.9,0,19.8-10.13,19.7-22.61C532.7,708.48,528.4,700.6,521.7,696.82Zm-100.5-35.5a12.3,12.3,0,0,0,.6,2.76c-.5-.72-1-1.53-1.6-2.25A3.1,3.1,0,0,1,421.2,661.32ZM303.3,679.74l.1.41H303Zm-103,.31Z" transform="translate(0 -103.8)"/><g class="cls-16"><path class="cls-7" d="M93.3,538.06a42.43,42.43,0,0,1-6.4,9.31,22,22,0,0,1-9,5,55.56,55.56,0,0,1-5.9,1.53h0c0-18.41,0-36.72-.6-55.14-.3-9.21-.8-18.41-1.7-27.82l-.2-2,.3-.61-.3-.1-2-24.65-3.5-44,19.1-26.49L63.5,393.21l-.5-4.4c-.7-9.1-1.3-18.31-1.8-27.41-.3-4.5-.5-9.21-.6-13.6a124,124,0,0,1,.7-13.6,118.3,118.3,0,0,1,5.4-26.6,84.19,84.19,0,0,1,5.1-12.38c1-2,2-3.89,3.1-5.93a27.44,27.44,0,0,0,2.8-6,23.23,23.23,0,0,1-2.9,5.93c-1.1,1.94-2.2,3.78-3.3,5.83A89.73,89.73,0,0,0,66,307.29a115.89,115.89,0,0,0-6.2,26.8c-.6,4.5-.9,9.1-1.1,13.91s.1,9.21.3,13.91c.3,9.21.7,18.31,1.1,27.52L63,444.05l1.1,21.38L41.5,453.77l22.8,16.67v1.13q.9,13.66.9,27.31c.1,18.11-.4,36.11-.9,54.22L55,549l-1.4,4.81,10.7,3.58-1.4,51.66c-.1,3.07-.2,6-.3,9.21L53.8,613l8.7,9.31v.51c0,4.71.1,9.31.2,14,.3,9.31.9,18.51,1.6,27.82,1.4,18.41,3.3,36.72,5.5,55l11.9-2.15c-2.7-17.9-5-36.11-6.9-54.22-.9-9.1-1.8-18.11-2.3-27.11q-.45-6.75-.6-13.5c-.1-4.5,0-9.1,0-13.81L72,557.5c2.3-.61,4.5-1.43,6.7-2.25a26.81,26.81,0,0,0,9.4-6.44A43,43,0,0,0,94,538.57a114.61,114.61,0,0,0,4.1-11.15A101.27,101.27,0,0,1,93.3,538.06Z" transform="translate(0 -103.8)"/><path class="cls-7" d="M46.3,453l.5-1.43c2.3-6-.1-13.09-5.4-15.75l-.5,1.43C38.5,443.13,40.9,450.19,46.3,453Z" transform="translate(0 -103.8)"/><path class="cls-7" d="M29.4,467.58l1.3.2c5.7,1.43,11.3-2.76,12.5-9.21h0l-1.3-.2C36.2,457,30.6,461.14,29.4,467.58Z" transform="translate(0 -103.8)"/><path class="cls-7" d="M90.6,535.6l1.2.41c1.5-6.44-1.7-13-7.3-14.73l-1.2-.41C81.7,527.22,85,533.76,90.6,535.6Z" transform="translate(0 -103.8)"/><path class="cls-7" d="M98.2,541.84l-4,1h0c.9,4.81,5,7.88,9.2,6.85l4-1C106.5,543.89,102.4,540.82,98.2,541.84Z" transform="translate(0 -103.8)"/><path class="cls-7" d="M52.2,611.81v-1.43c0-4.71-3.3-8.49-7.5-8.49v1.43C44.7,608,48,611.81,52.2,611.81Z" transform="translate(0 -103.8)"/><path class="cls-7" d="M43.7,624.29l1.2.1c4.1.51,7.8-2.76,8.3-7.47l-1.2-.1C47.9,616.42,44.2,619.69,43.7,624.29Z" transform="translate(0 -103.8)"/></g><path class="cls-20" d="M518.7,748.48v7.06c-9.6-.61-19.3-1.13-28.8-1.43-12.8-.41-25.6-.41-38.4-.1h-2.8c-33.9.51-67.7,2.56-101.5,3.58h0c-24,.72-48.1,1-72.3,0h-1.2c-15.1,0-29.6-.1-44.7-3.58-.9-.2-1.9-.51-2.8-.72-1.6-.51-3.2-1-4.7-1.43-8.1-2.56-15.9-4.91-24.9-2.76a331,331,0,0,1-55.8,7.37h0c-4.1.2-8.2.51-12.3.61h0c-7.2.2-14.5.51-21.9.61H104c-4,.1-8,.41-12,.51-19.6,1-39.6,2.35-57.9-4.19-.7,0-.6-3.17-.3-7.47h0c0,.1.1.2.2.41h.2c18.6,6.65,39,5.22,59,4.09,3.7-.2,7.3-.41,10.9-.51l7.6-.1c28.3-.61,55.8-1.74,84.9-8.29,11.6-2.86,21.3,2.15,32.3,4.91h.3c1.8.41,3.5.72,5.3,1.13,13.5,2.35,26.7,2.35,40.3,2.35,1.4,0,2.8.1,4.2.1,11.4.41,22.7.51,34.1.51h0c10.4,0,20.7-.2,31.1-.51,6.9-.2,13.7-.41,20.6-.72,29.2-1.13,58.4-2.56,87.6-2.86H454c19.8-.2,39.7,0,59.7,1.23h0Z" transform="translate(0 -103.8)"/><path class="cls-21" d="M518.7,710.32v8.29c-80.9-5.32-160.3,5.52-240.9,2.25-15.5,0-30.4,0-45.9-3.58-11-2.86-20.7-7.88-32.3-5-31.7,7.16-61.5,7.88-92.5,8.59-23.3.72-47.9,4.3-69.8-3.58h-.6a3.82,3.82,0,0,1,.4-.92.32.32,0,0,1,.1-.2.61.61,0,0,0,.2-.51,1.11,1.11,0,0,0,.2-.61h0a12.49,12.49,0,0,0,.3-4.71c10.4,0,21.4,1.64,32.3,2.86l-1.7-10.84,5.5,9.1L76,668l1.4,45.72h.4l7.7-21.48L79.3,713.8a89.4,89.4,0,0,0,24.5-1A369.7,369.7,0,0,1,142.1,708l9.5-.72c10.9-.72,21.8-1.23,32.8-1.74h1.9c7.6-.41,15.2-.72,22.9-1.13,1.9,0,3.7-.1,5.7-.1l7.2.2h.4l1.5.1a242.51,242.51,0,0,1,33.1,5.32,150.94,150.94,0,0,0,43.3,4.3c16.7-1.23,33.5-2.35,50.3-3.58l-.7-4.5,2.4,4.5c27.8-1.74,55.6-3.07,83.5-3.17l-1.6-10.23,5.5,9.1,2-27.31,1.3,28.44h1l7.2-17.08-6,16.88c8.6,0,17.2.1,25.9.2l2.3-5.83-1.1,5.83C487.8,708.17,503.2,709.09,518.7,710.32Z" transform="translate(0 -103.8)"/><ellipse class="cls-22" cx="110.7" cy="22.22" rx="1.9" ry="2.15"/><ellipse class="cls-22" cx="267.6" cy="102.62" rx="1.9" ry="2.15"/><ellipse class="cls-22" cx="367.1" cy="7.18" rx="1.1" ry="1.23"/><ellipse class="cls-22" cx="224.4" cy="199.8" rx="1.1" ry="1.23"/><path class="cls-23" d="M471.3,236.4l-1,.2-.2-1.13c0-.2-.2-.41-.4-.2-.2,0-.3.2-.3.51l.2,1.13-1,.2c-.2,0-.3.2-.3.51s.2.41.4.2l1-.2.2,1.13c0,.2.2.41.4.2.2,0,.3-.2.3-.51h0l-.2-1.13,1-.2c.2,0,.3-.2.3-.51A.75.75,0,0,0,471.3,236.4Z" transform="translate(0 -103.8)"/><path class="cls-23" d="M155.5,174.1l-.7.41-.3-.72c-.1-.1-.2-.1-.4-.1s-.1.2-.1.41l.3.72-.7.41c-.1,0-.2.2-.2.41s.2.2.3.1h.1l.7-.41.3.72c.1.1.2.1.4.1s.1-.2.1-.41L155,175l.7-.41c.1,0,.2-.2.2-.41s-.3-.2-.4-.1Z" transform="translate(0 -103.8)"/><path class="cls-23" d="M213.4,206.22l-.7.41-.3-.72c-.1-.1-.2-.1-.4-.1s-.1.2-.1.41l.3.72-.7.41c-.1,0-.2.2-.2.41s.2.2.3.1h.1l.7-.41.3.72c.1.1.2.1.4.1s.1-.2.1-.41l-.3-.72.7-.41c.1,0,.2-.2.2-.41s-.2-.1-.4-.1Z" transform="translate(0 -103.8)"/><path class="cls-23" d="M241.7,124.29l-.7.41-.3-.72c-.1-.1-.2-.1-.4-.1s-.1.2-.1.41l.3.72-.7.41c-.1,0-.2.2-.2.41a.19.19,0,0,0,.3.1h.1l.7-.41.3.72c.1.1.2.1.4.1s.1-.2.1-.41l-.3-.72.7-.41c.1,0,.2-.2.2-.41s-.3-.2-.4-.1Z" transform="translate(0 -103.8)"/><polygon class="cls-7" points="412.7 595.67 405.6 595.67 405.6 595.67 412.7 595.67"/></g></g></g></g></g></svg>