<svg xmlns="http://www.w3.org/2000/svg" viewBox="0 0 77.1 77.1"><defs><style>.a{fill:#099;}.b{fill:#00b7b2;}.c{fill:#d36318;}.d{fill:#f4731c;}.e{fill:#d8d8d8;}.f{fill:#ededed;}.aa,.g{fill:#2b2b2b;}.h{fill:#ff9292;}.i{fill:#f27d2f;}.j,.v{fill:#724720;}.k{fill:#bc5d1d;}.l{fill:#495750;}.m{fill:#ccc;}.n{fill:#e8e8e8;}.o{fill:#33493e;}.p{fill:#84572f;}.q{fill:#686b72;}.r{opacity:0.74;}.s{fill:#efefef;}.t{opacity:0.41;}.u,.z{fill:#1dcaf2;}.u{opacity:0.3;}.v{opacity:0.69;}.w{fill:#ef874d;}.x{opacity:0.34;}.y{fill:#512600;}.aa{opacity:0.56;}</style></defs><title>choosetiger</title><path class="a" d="M68.8,16.81A38.55,38.55,0,1,0,14.28,71.33,38.55,38.55,0,1,0,68.8,16.81ZM41.54,77.22A33.15,33.15,0,1,1,65,67.51,32.93,32.93,0,0,1,41.54,77.22Z" transform="translate(-2.99 -5.52)"/><path class="a" d="M68.54,17.07a38.18,38.18,0,1,0-54,54,38.18,38.18,0,1,0,54-54Zm-27,60.52a33.52,33.52,0,1,1,23.7-9.82A33.3,33.3,0,0,1,41.54,77.59Z" transform="translate(-2.99 -5.52)"/><path class="b" d="M67.93,16.82A37.32,37.32,0,1,0,15.15,69.6,37.32,37.32,0,1,0,67.93,16.82Zm-2.08,50.7A34.38,34.38,0,0,1,17.23,18.9,34.38,34.38,0,0,1,65.85,67.52Z" transform="translate(-2.99 -5.52)"/><path class="c" d="M75.9,30.34a7.2,7.2,0,0,1-1,1.3l-1.57,9.13-.5,2.93-.64,3.4-.79,4.23h0l-.66,3.51-.25,1.33-.2,1.08-.75,4-.21,1.13-.8,4.25,0,.15v.06h0l-.28,1.5h0v.06l-.39,2.08a1.08,1.08,0,0,1-1.08,1.06H15.93a1.09,1.09,0,0,1-.86-.42,1,1,0,0,1-.22-.65l-.41-2.15-.27-1.46-.84-4.48-.21-1.13-.75-4-.2-1.08-.25-1.33-.66-3.51h0l-.79-4.23-.64-3.4L7.74,31.64C3.14,27.1,5.1,16.38,20.62,21.23h.61a31.47,31.47,0,0,1,19.71-7h.9a31.46,31.46,0,0,1,19.54,7H62A24.14,24.14,0,0,1,68.9,20h0C77,20,78.43,26.32,75.9,30.34Z" transform="translate(-2.99 -5.52)"/><path class="d" d="M16,71l-.42-2.28-.27-1.48-.84-4.55-.21-1.15S11.08,48.33,11,43.81C11,40.65,12.9,31.3,12.9,31.3l-4.3-.37a6.18,6.18,0,0,1-1.44-6.46c.89-2.13,3.17-3.3,6.43-3.3a22.52,22.52,0,0,1,6.67,1.19l.18.06h1.23l.33-.27a30.17,30.17,0,0,1,19.06-6.81h.48a30.17,30.17,0,0,1,19.08,6.81l.33.27h1.23l.18-.06A22.52,22.52,0,0,1,69,21.16c3,0,5.16,1,6.19,2.81a5.88,5.88,0,0,1-.34,5.85,6.09,6.09,0,0,1-.87,1.1l-4-.23s1.66,9.81,1.55,13.11c-.15,4.51-3.29,17.76-3.29,17.76l-.21,1.15-.83,4.46L67,68.83,66.56,71Z" transform="translate(-2.99 -5.52)"/><path class="e" d="M49.29,71.52H32.57C34.23,69.43,37.35,68,40.93,68S47.64,69.43,49.29,71.52Z" transform="translate(-2.99 -5.52)"/><path class="f" d="M49.29,71.52H32.57c1.66-1.65,4.78-2.77,8.36-2.77S47.64,69.87,49.29,71.52Z" transform="translate(-2.99 -5.52)"/><path class="g" d="M45.63,66.1c0,2-2.1,3.61-4.69,3.61s-4.69-1.62-4.69-3.61a2.89,2.89,0,0,1,.36-1.39c0,1.82,2,3.28,4.33,3.28s4.29-1.46,4.33-3.28A2.89,2.89,0,0,1,45.63,66.1Z" transform="translate(-2.99 -5.52)"/><path class="h" d="M45.63,65.62c0,2-2.1,3.61-4.69,3.61s-4.69-1.62-4.69-3.61a2.89,2.89,0,0,1,.36-1.39c0,1.82,2,3.28,4.33,3.28s4.29-1.46,4.33-3.28A2.89,2.89,0,0,1,45.63,65.62Z" transform="translate(-2.99 -5.52)"/><ellipse class="i" cx="38.37" cy="32.73" rx="25.81" ry="20.03"/><path class="g" d="M48.22,26a6.41,6.41,0,0,0,6.93-3.4,7.34,7.34,0,0,1-6.51,1.9,7.14,7.14,0,0,1-5.8-4.93A6.35,6.35,0,0,0,48.22,26Z" transform="translate(-2.99 -5.52)"/><path class="j" d="M76.36,26.57a6.55,6.55,0,0,1-1,2.68,6.92,6.92,0,0,1-1.4,1.55,7.33,7.33,0,0,1-4.77,1.63,7.66,7.66,0,0,1-.8-.06,7.3,7.3,0,0,1-3.57-1.46,7,7,0,0,1-1.54-1.64l-.11-.17a6.63,6.63,0,0,1-.79-1.83,7.08,7.08,0,0,0,1.3,1.47,8.07,8.07,0,0,0,2.57,1.47,8.9,8.9,0,0,0,2.8.5,8.8,8.8,0,0,0,3.33-.58,7.88,7.88,0,0,0,2.49-1.53A6.78,6.78,0,0,0,76.36,26.57Z" transform="translate(-2.99 -5.52)"/><path class="j" d="M20.41,26.93a6.64,6.64,0,0,1-1.95,3.79,7.25,7.25,0,0,1-4.21,2,7.66,7.66,0,0,1-1,.05,7.3,7.3,0,0,1-5.06-2.12,6.76,6.76,0,0,1-1-1.3,6.59,6.59,0,0,1-.74-1.74,7,7,0,0,0,1,1.18A7.76,7.76,0,0,0,9,30a8.86,8.86,0,0,0,8.41,0,7.57,7.57,0,0,0,1.89-1.47A6.62,6.62,0,0,0,20.41,26.93Z" transform="translate(-2.99 -5.52)"/><path class="g" d="M47.76,31.61a6.41,6.41,0,0,0,6.93-3.4,7.34,7.34,0,0,1-6.51,1.9,7.14,7.14,0,0,1-5.8-4.93A6.35,6.35,0,0,0,47.76,31.61Z" transform="translate(-2.99 -5.52)"/><path class="g" d="M48.12,37.69A6.41,6.41,0,0,0,55,34.28a7.34,7.34,0,0,1-6.51,1.9,7.14,7.14,0,0,1-5.8-4.93A6.35,6.35,0,0,0,48.12,37.69Z" transform="translate(-2.99 -5.52)"/><path class="g" d="M33.55,25.62a6.41,6.41,0,0,1-6.93-3.4,7.34,7.34,0,0,0,6.51,1.9,7.14,7.14,0,0,0,5.8-4.93A6.35,6.35,0,0,1,33.55,25.62Z" transform="translate(-2.99 -5.52)"/><path class="g" d="M34,31.25a6.41,6.41,0,0,1-6.93-3.4,7.34,7.34,0,0,0,6.51,1.9,7.14,7.14,0,0,0,5.8-4.93A6.35,6.35,0,0,1,34,31.25Z" transform="translate(-2.99 -5.52)"/><path class="k" d="M34.12,63.46a1.06,1.06,0,0,0-.18-.73A8.78,8.78,0,1,0,19.13,53.3a1.63,1.63,0,0,1-.84-.25,1.51,1.51,0,0,1-.29-.91v-.29l-1.49-.32-.12.26a3.35,3.35,0,0,0,.34,3.27c.23.3.65.76,1.25,1.37a8.83,8.83,0,0,0-.11,1.36,8.7,8.7,0,0,0,2.71,6.34l.67.64.86-.35a10.22,10.22,0,0,1,2.73-.68,11,11,0,0,1,1.2-.07,10.35,10.35,0,0,1,4.62,1.06l.84.42.41-.34,1.73,1L34,66l1-1.25-.23-.23A2,2,0,0,1,34.12,63.46Z" transform="translate(-2.99 -5.52)"/><path class="k" d="M48.61,63.46a1.06,1.06,0,0,1,.18-.73A8.78,8.78,0,1,1,63.6,53.3a1.63,1.63,0,0,0,.84-.25,1.51,1.51,0,0,0,.29-.91v-.29l1.49-.32.12.26A3.35,3.35,0,0,1,66,55.07c-.23.3-.65.76-1.25,1.37a8.83,8.83,0,0,1,.11,1.36,8.7,8.7,0,0,1-2.71,6.34l-.67.64-.86-.35a10.22,10.22,0,0,0-2.73-.68,11,11,0,0,0-1.2-.07A10.35,10.35,0,0,0,52,64.75l-.84.42-.41-.34-1.73,1-.27.17-1-1.25.23-.23A2,2,0,0,0,48.61,63.46Z" transform="translate(-2.99 -5.52)"/><path class="g" d="M33.66,37.33a6.41,6.41,0,0,1-6.93-3.4,7.34,7.34,0,0,0,6.51,1.9A7.14,7.14,0,0,0,39,30.9,6.35,6.35,0,0,1,33.66,37.33Z" transform="translate(-2.99 -5.52)"/><path class="g" d="M48.51,65.38s1-.9.84-1.69S61.75,55,61.75,55s2.2.36,3.13-.34a2.06,2.06,0,0,0,.6-1.47,2.21,2.21,0,0,1-.24,2.25c-.47.57-1.8,1.8-1.8,1.8S49.48,64.82,48.51,65.38Z" transform="translate(-2.99 -5.52)"/><path class="g" d="M50.92,64.26A6.57,6.57,0,0,1,48,58.93a6.06,6.06,0,0,1,.16-1.39c.75-3.19,4-5.51,7.78-5.51,4.38,0,7.94,3.1,7.94,6.91a6.45,6.45,0,0,1-2.45,5l-.28.23L60.82,64a12.43,12.43,0,0,0-3-.64c-.43,0-.86-.06-1.3-.06a12.6,12.6,0,0,0-5,1l-.35.15Z" transform="translate(-2.99 -5.52)"/><path class="l" d="M56.09,52.87c-3.55,0-6.5,2.2-7.19,5.13a5.66,5.66,0,0,0-.15,1.3,6.14,6.14,0,0,0,2.67,5,13.16,13.16,0,0,1,5.27-1.06c.46,0,.92,0,1.36.07a13,13,0,0,1,3.11.68,6.06,6.06,0,0,0,2.26-4.64C63.43,55.75,60.15,52.87,56.09,52.87Z" transform="translate(-2.99 -5.52)"/><path class="m" d="M63.43,59.35A6,6,0,0,1,61.17,64a13.12,13.12,0,0,0-3.11-.67L48.9,58.06c.68-2.91,3.64-5.09,7.19-5.09C60.15,53,63.43,55.83,63.43,59.35Z" transform="translate(-2.99 -5.52)"/><path class="n" d="M60.91,63a14.34,14.34,0,0,0-2.52-.5L50,57.69a6.37,6.37,0,0,1,6.09-3.89c3.52,0,6.38,2.49,6.38,5.55A5.09,5.09,0,0,1,60.91,63Z" transform="translate(-2.99 -5.52)"/><path class="l" d="M59.23,58.25c-.84-.09-1.45-.37-1.45-.71s.32-.46.81-.59a5.62,5.62,0,0,0-4.66-2.4,5.56,5.56,0,0,0-5,3A6.46,6.46,0,0,0,48.75,59a6.7,6.7,0,0,0,2.67,5.3,12.43,12.43,0,0,1,5.27-1.13,13.19,13.19,0,0,1,1.36.07,5,5,0,0,0,1.41-3.45A4.88,4.88,0,0,0,59.23,58.25Z" transform="translate(-2.99 -5.52)"/><path class="o" d="M51.54,63.46A6,6,0,0,1,49.48,59a5.85,5.85,0,0,1,.12-1.17,4.87,4.87,0,0,1,4.33-2.55c1.38,0,4.46,6.47,3.82,7.25-.35,0-.7,0-1.05,0A13.36,13.36,0,0,0,51.54,63.46Z" transform="translate(-2.99 -5.52)"/><path class="p" d="M51.11,64.51,51,64.29A12.78,12.78,0,0,1,56.51,63a12.94,12.94,0,0,1,4.71.77l-.08.23a13,13,0,0,0-10,.55Z" transform="translate(-2.99 -5.52)"/><path class="q" d="M55.25,55.24c-.24.11.12.56.24.79a15.83,15.83,0,0,1,1.56,2.48c.12.56,1,2.37,1.08,2.82a.3.3,0,0,0,.48.23,5.35,5.35,0,0,0,.36-1.8,3.56,3.56,0,0,0-1-1.24c-.24-.23-.84-.79-.84-1.24a1.61,1.61,0,0,0-.72-1.47C55.85,55.46,55.49,55.12,55.25,55.24Z" transform="translate(-2.99 -5.52)"/><ellipse class="g" cx="50.82" cy="54" rx="3.73" ry="3.49"/><g class="r"><ellipse class="s" cx="54.07" cy="54.11" rx="1.2" ry="1.13"/></g><g class="t"><circle class="s" cx="52.14" cy="54.93" r="0.6"/></g><path class="g" d="M56.67,43.59h0a4.45,4.45,0,0,0-5.84,5.3Z" transform="translate(-2.99 -5.52)"/><path class="g" d="M57.39,49h0a3.59,3.59,0,0,0-6.23,1.32Z" transform="translate(-2.99 -5.52)"/><path class="g" d="M70.46,55.77l-.25,1.35a6.17,6.17,0,0,1-4.28-1A7,7,0,0,0,70.46,55.77Z" transform="translate(-2.99 -5.52)"/><path class="g" d="M69.26,62.25,69,63.41a6.38,6.38,0,0,1-1.37-.81,6,6,0,0,1-1.78-2.2,6.57,6.57,0,0,0,2.22,1.49A7.23,7.23,0,0,0,69.26,62.25Z" transform="translate(-2.99 -5.52)"/><path class="g" d="M71.91,47.9l-.79,4.3h0a4.61,4.61,0,0,1-3.5,1.88,5.41,5.41,0,0,0,3.2-3.84,5.26,5.26,0,0,0-1.62-5.37A4.52,4.52,0,0,1,71.91,47.9Z" transform="translate(-2.99 -5.52)"/><path class="g" d="M34.25,65.14s-1-.88-.84-1.65S21,55,21,55s-2.2.35-3.13-.33a2,2,0,0,1-.6-1.43,2.11,2.11,0,0,0,.24,2.2c.47.56,1.8,1.76,1.8,1.76S33.29,64.59,34.25,65.14Z" transform="translate(-2.99 -5.52)"/><path class="g" d="M31.85,64a6.51,6.51,0,0,0,2.89-5.29,6,6,0,0,0-.16-1.38c-.75-3.17-4-5.47-7.78-5.47-4.38,0-7.94,3.07-7.94,6.85a6.38,6.38,0,0,0,2.45,4.95l.28.23.36-.13a12.51,12.51,0,0,1,3-.63c.43,0,.86-.06,1.3-.06a12.68,12.68,0,0,1,5,1l.35.15Z" transform="translate(-2.99 -5.52)"/><path class="l" d="M26.67,52.75c3.55,0,6.5,2.18,7.19,5.09A5.58,5.58,0,0,1,34,59.13,6.08,6.08,0,0,1,31.34,64,13.25,13.25,0,0,0,26.07,63c-.46,0-.92,0-1.36.06a13.12,13.12,0,0,0-3.11.67,6,6,0,0,1-2.26-4.61C19.33,55.61,22.62,52.75,26.67,52.75Z" transform="translate(-2.99 -5.52)"/><path class="m" d="M19.33,59.18a5.93,5.93,0,0,0,2.26,4.57,13.2,13.2,0,0,1,3.11-.67l9.15-5.18c-.68-2.89-3.64-5.05-7.19-5.05C22.62,52.84,19.33,55.68,19.33,59.18Z" transform="translate(-2.99 -5.52)"/><path class="n" d="M21.85,62.78a14.43,14.43,0,0,1,2.52-.5l8.39-4.75a6.37,6.37,0,0,0-6.09-3.85c-3.52,0-6.38,2.47-6.38,5.5A5,5,0,0,0,21.85,62.78Z" transform="translate(-2.99 -5.52)"/><path class="l" d="M23.54,58.19c.84-.08,1.45-.36,1.45-.69s-.32-.45-.81-.58a5.67,5.67,0,0,1,4.66-2.34,5.58,5.58,0,0,1,5,2.93A6.14,6.14,0,0,1,34,58.88,6.48,6.48,0,0,1,31.34,64a12.7,12.7,0,0,0-5.27-1.1,13.53,13.53,0,0,0-1.36.07,4.79,4.79,0,0,1-1.41-3.36A4.64,4.64,0,0,1,23.54,58.19Z" transform="translate(-2.99 -5.52)"/><path class="o" d="M31.22,63.27a5.79,5.79,0,0,0,2.07-4.39,5.57,5.57,0,0,0-.12-1.15,4.89,4.89,0,0,0-4.33-2.48c-1.38,0-4.46,6.31-3.82,7.07.35,0,.7,0,1.05,0A13.66,13.66,0,0,1,31.22,63.27Z" transform="translate(-2.99 -5.52)"/><path class="p" d="M31.66,64.51a13,13,0,0,0-10-.55l-.08-.23A12.92,12.92,0,0,1,26.26,63a12.78,12.78,0,0,1,5.51,1.33Z" transform="translate(-2.99 -5.52)"/><path class="q" d="M27.51,55.25c.24.11-.12.55-.24.77a15.39,15.39,0,0,0-1.56,2.42c-.12.55-1,2.31-1.08,2.75a.31.31,0,0,1-.48.22,5.1,5.1,0,0,1-.36-1.76,3.48,3.48,0,0,1,1-1.21c.24-.22.84-.77.84-1.21a1.56,1.56,0,0,1,.72-1.43C26.91,55.47,27.27,55.14,27.51,55.25Z" transform="translate(-2.99 -5.52)"/><ellipse class="g" cx="25.97" cy="53.91" rx="3.73" ry="3.41"/><g class="r"><circle class="s" cx="22.72" cy="53.73" r="1.2"/></g><g class="t"><circle class="s" cx="24.65" cy="54.93" r="0.6"/></g><path class="g" d="M12.19,56.36l.25,1.23a6.63,6.63,0,0,0,4.28-.9A7.57,7.57,0,0,1,12.19,56.36Z" transform="translate(-2.99 -5.52)"/><path class="g" d="M13.39,62.25l.21,1.15A6.38,6.38,0,0,0,15,62.6a6,6,0,0,0,1.78-2.2,6.57,6.57,0,0,1-2.22,1.49A7.23,7.23,0,0,1,13.39,62.25Z" transform="translate(-2.99 -5.52)"/><path class="g" d="M10.74,47.9l.79,4.3h0A4.61,4.61,0,0,0,15,54.08a5.41,5.41,0,0,1-3.2-3.84,5.26,5.26,0,0,1,1.62-5.37A4.52,4.52,0,0,0,10.74,47.9Z" transform="translate(-2.99 -5.52)"/><path class="g" d="M27.34,43.65h0a4.45,4.45,0,0,1,5.46,5.69Z" transform="translate(-2.99 -5.52)"/><path class="g" d="M26.25,49h0a3.59,3.59,0,0,1,6.12,1.74Z" transform="translate(-2.99 -5.52)"/><circle class="u" cx="28.74" cy="56.19" r="1.14"/><circle class="u" cx="24.35" cy="56.01" r="1.2"/><circle class="u" cx="22.3" cy="56.37" r="1.2"/><circle class="u" cx="29.49" cy="62.4" r="1.2" transform="translate(-42.33 61.91) rotate(-68.88)"/><circle class="u" cx="28.8" cy="57.7" r="0.96"/><rect class="g" x="37.52" y="63.95" width="0.6" height="2.05"/><path class="v" d="M75.9,30.57a5.78,5.78,0,0,1-1,.83l-1.08,6.07-1.2-.63s-2.43-3.4-4.22-4.48l-.23-.13c-1.56-.78-4.18-2.51-4.88-3l-.17-.12.06-.05.51-.37a8.07,8.07,0,0,0,2.57,1.47,8.9,8.9,0,0,0,2.8.5,8.8,8.8,0,0,0,3.33-.58,7.88,7.88,0,0,0,2.49-1.53l0,0a3,3,0,0,1,.47.63A7,7,0,0,1,75.9,30.57Z" transform="translate(-2.99 -5.52)"/><ellipse class="w" cx="23.57" cy="60.35" rx="4.87" ry="1.8"/><ellipse class="w" cx="53.52" cy="60.35" rx="4.87" ry="1.8"/><path class="v" d="M19.6,28.78s-3.25,2.65-5.05,3.75l-.29.2c-1.79,1.35-4.16,5.37-4.16,5.37l-1.16.33L7.81,31.52a6.07,6.07,0,0,1-1-1,10.91,10.91,0,0,1,.37-1.16,5.91,5.91,0,0,1,.25-.56A7.76,7.76,0,0,0,9,30a8.86,8.86,0,0,0,8.41,0,7.57,7.57,0,0,0,1.89-1.47Z" transform="translate(-2.99 -5.52)"/><g class="x"><path class="y" d="M76.11,30.28l-.09.15a7.19,7.19,0,0,1-1,1.3l-1.55,9,0,.09-.5,2.93-.64,3.39-.18,1-.61,3.24h0l-.25,1.35-.41,2.15-.23,1.22,0,.1-.2,1.08,0,.11-.73,3.85-.21,1.13v0l-.21,1.11h0l-.61,3.25.11.06h0l-.28,1.49h0l-.13.06-.39,2.07a1.08,1.08,0,0,1-1.08,1.06H41.17V14.37h.9a31.5,31.5,0,0,1,19.42,7h.61a23.91,23.91,0,0,1,7-1.23h0C77.08,20.13,78.5,26.29,76.11,30.28Z" transform="translate(-2.99 -5.52)"/></g><circle class="g" cx="41.67" cy="64.68" r="0.36"/><circle class="g" cx="44.2" cy="64.68" r="0.36"/><circle class="g" cx="44.2" cy="62.75" r="0.36"/><circle class="g" cx="46.73" cy="64.68" r="0.36"/><circle class="g" cx="29.52" cy="64.68" r="0.36"/><circle class="g" cx="32.05" cy="64.68" r="0.36"/><circle class="g" cx="32.05" cy="62.75" r="0.36"/><circle class="g" cx="34.58" cy="64.68" r="0.36"/><rect class="z" x="15.93" y="56.62" width="8.3" height="3.13" rx="0.89" ry="0.89"/><rect class="z" x="54.31" y="56.74" width="8.66" height="3.13" rx="0.89" ry="0.89"/><circle class="u" cx="48.23" cy="56.31" r="1.14"/><circle class="u" cx="52.62" cy="56.13" r="1.2"/><circle class="u" cx="54.67" cy="56.5" r="1.2"/><circle class="u" cx="53.46" cy="62.52" r="1.2" transform="translate(-21.92 17.94) rotate(-21.12)"/><circle class="u" cx="48.17" cy="57.82" r="0.96"/><path class="aa" d="M68.49,66.53v.24l0,0h0v-.06Z" transform="translate(-2.99 -5.52)"/></svg>