<?xml version="1.0" encoding="utf-8"?>
<!-- Generator: Adobe Illustrator 21.0.1, SVG Export Plug-In . SVG Version: 6.00 Build 0)  -->
<svg version="1.1" id="Layer_1" xmlns="http://www.w3.org/2000/svg" xmlns:xlink="http://www.w3.org/1999/xlink" x="0px" y="0px"
	 width="1047" height="413" style="enable-background:new 0 0 1047 413;" xml:space="preserve">
<style type="text/css">
	.st0{clip-path:url(#SVGID_2_);}
	.st1{opacity:0.21;fill:#AD5236;enable-background:new    ;}
	.st2{opacity:0.76;fill:#AD5236;enable-background:new    ;}
	.st3{opacity:0.26;}
	.st4{fill:#AD5236;}
	.st5{opacity:9.000000e-02;}
	.st6{opacity:0.1;}
	.st7{opacity:0.19;}
	.st8{fill:#CE783F;}
	.st9{fill:#B4673E;}
	.st10{fill:#E49345;}
	.st11{fill:#9B5C3F;}
	.st12{fill:none;stroke:#2D2D2D;stroke-width:2.27;stroke-miterlimit:10;}
	.st13{fill:#82820F;}
	.st14{opacity:0.5;fill:#492E17;enable-background:new    ;}
	.st15{fill:url(#SVGID_3_);}
	.st16{fill:none;}
</style>
<title>g-bgbot-desktop</title>
<g id="Layer_2">
	<g id="Layer_5">
		<g>
			<defs>
				<rect id="SVGID_1_" x="-1.2" y="-179" width="1049" height="592"/>
			</defs>
			<clipPath id="SVGID_2_">
				<use xlink:href="#SVGID_1_"  style="overflow:visible;"/>
			</clipPath>
			<g class="st0">
				<path class="st1" d="M1034,306.6c2.8-3,4.4-7,4.5-11.1c0-9.4-8.2-17.1-18.3-17.1c-1.6,0-3.1,0.2-4.7,0.6c-0.7-3.5-3.8-6-7.3-5.9
					c-1.2,0-2.4,0.3-3.4,0.8c-1.9-6.6-8.3-11.5-16-11.5c-6.9-0.1-13.2,4.1-15.7,10.5c-1.1-0.6-2.4-0.9-3.7-0.9
					c-3.8-0.1-7,2.7-7.4,6.4c-1-0.7-2.2-1.1-3.5-1.1c-0.4,0-0.8,0-1.3,0.1c0.1-0.4,0.1-0.8,0.1-1.2c-0.1-4.3-3.7-7.6-8-7.5
					c-1.7,0-3.3,0.5-4.7,1.4c-0.9-5.2-5.5-9-10.8-8.9c-0.7,0-1.4,0.1-2.1,0.2c-2.4-4.1-6.8-6.7-11.6-6.6c-7.2,0-13,5.4-13.1,12.1
					c-0.9-0.3-1.9-0.4-2.9-0.4c-5.4,0-9.7,4.1-9.7,9.1c0,0.4,0,0.8,0.1,1.2l-0.5,0.1c-3.7-2.7-8.8-2.5-12.4,0.4
					c-1-5.5-6.2-9.8-12.4-9.8h-0.2c-1.3-5.7-6.5-9.8-12.3-9.6c-5.3-0.1-10.1,3.1-11.9,8.1c-1.1-0.4-2.3-0.6-3.5-0.6
					c-2.2,0-4.4,0.7-6.2,2.1c-2.4-1.7-5.2-2.6-8.1-2.6c-7.2,0-13.1,5.5-13.1,12.3l0,0c-4.8,0.2-9,3-11,7.4c-1.1-0.6-2.4-1-3.8-1
					c-0.8,0-1.5,0.1-2.2,0.3c-1.8-5.4-6.9-9-12.6-8.9c-4.6-0.1-9,2.3-11.4,6.3c-3.7-2.6-8.5-2.7-12.2-0.2
					c-5.2-6.8-14.9-8.1-21.6-2.9c-1.1,0.9-2.1,1.9-3,3c-2.1-1.9-4.8-3-7.7-3c-6,0-10.8,4.5-10.8,10.1c0,0.5,0.1,1,0.1,1.5
					c-1.3-0.7-2.7-1-4.1-1c-4.1-0.1-7.7,2.8-8.5,6.8c-1.2-0.3-2.3-0.4-3.5-0.4c-3.4,0-6.7,1.2-9.3,3.4c-3-6.7-9.7-11-17-10.9
					c-3.4,0-6.7,0.9-9.6,2.6c-2.4-0.8-5-1.2-7.5-1.2c-1.6,0-3.1,0.2-4.7,0.5c-0.5-2.6-3.6-4.7-7.3-4.7c-1.2,0-2.3,0.2-3.4,0.6
					c-1.9-5.2-8.3-9.1-16-9.1c-7.3,0-13.5,3.5-15.7,8.4c-1.2-0.5-2.4-0.8-3.7-0.8c-3.9,0-7.1,2.2-7.4,5.1c-1.1-0.6-2.2-0.9-3.5-0.9
					c-0.4,0-0.8,0-1.3,0.1c0.1-0.3,0.1-0.7,0.1-1c0-3.3-3.6-5.9-8-5.9c-1.6,0-3.2,0.4-4.7,1.1c-0.7-4-5.2-7-10.8-7
					c-0.7,0-1.4,0.1-2.1,0.1c-2.2-3.1-6.6-5.2-11.6-5.2c-7.2,0-13,4.3-13.1,9.6c-0.9-0.2-1.9-0.3-2.9-0.3c-5.4,0-9.7,3.2-9.7,7.2
					c0,0.3,0,0.7,0.1,1l-0.5,0.1c-1.8-1-3.8-1.5-5.9-1.5c-2.3,0-4.5,0.6-6.5,1.8c-1-4.4-6.2-7.8-12.4-7.8h-0.2
					c-1.1-4.3-6.2-7.6-12.3-7.6c-5.6,0-10.3,2.7-11.9,6.4c-1.1-0.3-2.3-0.5-3.5-0.5c-2.2,0-4.3,0.5-6.2,1.6
					c-2.5-1.4-5.3-2.1-8.1-2.1c-7.2,0-13.1,4.4-13.1,9.7l0,0c-5,0.2-9.3,2.5-11.1,5.8c-1.2-0.5-2.5-0.8-3.8-0.8
					c-0.8,0-1.5,0.1-2.2,0.3c-1.6-4-6.6-7-12.6-7c-4.9,0-9.2,2-11.4,5c-3.8-2.1-8.4-2.1-12.2-0.1c-2.7-2.9-7.2-4.8-12.3-4.8
					s-9.7,1.9-12.3,4.9c-2.2-1.6-4.9-2.4-7.6-2.3c-5,0-9.2,2.5-10.5,5.9c-3.9-3.4-8.9-5.2-14-5.1c-7.7,0-14.2,3.7-16.8,8.8
					c-2.7-1.8-5.9-2.8-9.2-2.8c-1.2,0-2.3,0.1-3.5,0.4c-0.6-3.1-4.1-5.6-8.4-5.6c-1.4,0-2.8,0.3-4.1,0.8c0.1-0.4,0.1-0.8,0.1-1.2
					c0-4.5-4.8-8.2-10.7-8.2c-2.7,0-5.4,0.8-7.6,2.4c-2.6-3-7.1-5-12.2-5c-4.6-0.1-9,1.7-12.2,4.9c-3.8-2-8.4-2-12.1,0.1
					c-2.2-3-6.5-5.1-11.3-5.1c-5.9,0-10.9,3-12.5,7.2c-0.7-0.2-1.5-0.3-2.2-0.3c-1.3,0-2.6,0.3-3.7,0.8c-1.8-3.4-6-5.8-11-6l0,0
					c0-5.5-5.8-10-13-10c-2.8,0-5.6,0.7-8,2.1c-1.8-1.1-4-1.7-6.1-1.7c-1.2,0-2.3,0.2-3.4,0.5c-1.6-3.8-6.3-6.6-11.8-6.6
					c-6.1,0-11.2,3.4-12.2,7.8h-0.2c-6.2,0-11.3,3.4-12.2,8c-1.9-1.3-4.1-1.9-6.4-1.9c-2.1,0-4.1,0.5-5.9,1.5l-0.5-0.1
					c0.1-0.3,0.1-0.7,0.1-1c0-4.1-4.3-7.4-9.6-7.4c-1,0-1.9,0.1-2.8,0.3c-0.1-5.5-5.9-9.9-13-9.9c-5,0-9.3,2.2-11.5,5.4
					c-0.7-0.1-1.3-0.1-2-0.1c-5.5,0-10,3.1-10.7,7.2c-1.4-0.8-3-1.2-4.6-1.1c-4.4,0-7.9,2.7-7.9,6.1c0,0.3,0,0.7,0.1,1
					c-0.4-0.1-0.8-0.1-1.2-0.1c-1.2,0-2.4,0.3-3.4,0.9c-0.3-2.9-3.4-5.2-7.3-5.2c-1.3,0-2.5,0.3-3.7,0.8c-2.2-5-8.3-8.6-15.5-8.6
					c-7.6,0-13.9,4-15.8,9.3c-1.1-0.4-2.2-0.6-3.4-0.6c-3.7,0-6.7,2.1-7.3,4.8c-1.5-0.3-3.1-0.5-4.6-0.5c-10,0-18.1,6.2-18.1,13.9
					c0.1,3.5,1.7,6.8,4.4,9c-5.3,2-8.9,6.1-8.9,10.9c0,6.7,15.8,11.9,15.8,11.9h303.2c2.9,3.6,8.1,6,14.1,6H665c0,0,1.6,0,2.4-0.1
					c1.8,0.5,3.7,0.9,5.6,1.1h354c0,0,16-6.8,16-15C1042.9,314.1,1039.4,308.9,1034,306.6z"/>
				<path class="st2" d="M-1.5,336.9c0,6.7,6.2,12.1,13.9,12.1h306.9c7.6,0,13.9-5.5,13.9-12.1c0-2.1-0.6-4.1-1.7-5.9
					c1.1-1.9,1.7-4.1,1.7-6.3c0-7.7-7.1-13.9-15.8-13.9c-6.7,0-12.4,3.7-14.7,8.8c-2.3-1.8-5.1-2.8-8-2.8c-1,0-2.1,0.1-3.1,0.4
					c-0.5-3.1-3.6-5.6-7.3-5.6c-1.2,0-2.5,0.3-3.6,0.8c0.1-0.4,0.1-0.8,0.1-1.2c0-4.5-4.2-8.2-9.4-8.2c-2.4,0-4.8,0.8-6.6,2.4
					c-4.9-5.9-13.7-6.7-19.6-1.8c-0.6,0.5-1.2,1.1-1.7,1.7c-3.3-2-7.4-2-10.6,0.1c-2.2-3.3-6-5.2-9.9-5.1c-5.2,0-9.6,3-10.9,7.2
					c-0.6-0.2-1.3-0.3-1.9-0.3c-1.1,0-2.3,0.3-3.3,0.8c-1.8-3.6-5.5-6-9.6-6l0,0c0-5.5-5.1-10-11.4-10c-2.5,0-4.9,0.7-7,2.1
					c-1.6-1.1-3.4-1.7-5.4-1.7c-1,0-2,0.2-3,0.5c-1.4-3.8-5.5-6.6-10.3-6.6c-5.3,0-9.8,3.4-10.7,7.8H149c-5.4,0-9.9,3.4-10.7,8
					c-3.1-2.4-7.4-2.5-10.7-0.3l-0.4-0.1c0.1-0.3,0.1-0.7,0.1-1c0-4.1-3.8-7.4-8.4-7.4c-0.8,0-1.7,0.1-2.5,0.3
					c-0.1-5.5-5.1-9.9-11.4-9.9c-4.1-0.1-7.9,1.9-10.1,5.4c-0.6-0.1-1.2-0.2-1.8-0.1c-4.8,0-8.8,3.1-9.3,7.2c-1.2-0.7-2.6-1.1-4-1.1
					c-3.8,0-6.9,2.7-6.9,6.1c0,0.3,0,0.7,0.1,1c-0.4-0.1-0.7-0.1-1.1-0.1c-1.1,0-2.1,0.3-3,0.9c-0.2-2.9-3-5.2-6.4-5.2
					c-1.1,0-2.2,0.3-3.2,0.8c-1.9-5-7.3-8.6-13.6-8.6c-6.6,0-12.2,4-13.8,9.3c-0.9-0.4-2-0.6-3-0.6c-3-0.1-5.7,1.9-6.4,4.8
					c-1.3-0.3-2.7-0.5-4-0.5c-8.8,0-15.8,6.2-15.8,13.9c0,3.4,1.4,6.6,3.9,9C1.7,327.9-1.5,332.1-1.5,336.9z M77.3,307
					c-0.4,0.4-0.8,0.8-1.1,1.2c0.2-0.5,0.4-1,0.4-1.5C76.8,306.8,77.1,306.9,77.3,307z M159.3,317H159l0.1-0.2L159.3,317z
					 M231.3,317h-0.1H231.3L231.3,317z"/>
				<path class="st2" d="M1047,341.9c-0.1,6.8-5.7,12.2-12.5,12.1h-277c-6.8,0.1-12.4-5.3-12.5-12.1c0-2.1,0.5-4.1,1.6-5.8
					c-1-1.9-1.6-4.1-1.6-6.3c0.1-7.8,6.5-14,14.3-13.9c5.8,0,11.1,3.4,13.3,8.8c2-1.8,4.6-2.8,7.2-2.8c0.9,0,1.9,0.1,2.8,0.4
					c0.5-3.2,3.3-5.6,6.6-5.6c1.1,0,2.2,0.3,3.2,0.8c-0.1-0.4-0.1-0.8-0.1-1.2c0.1-4.6,3.9-8.3,8.5-8.2c0,0,0,0,0,0
					c2.2,0,4.4,0.8,6,2.4c3.8-5.3,11.1-6.6,16.5-2.8c1.1,0.8,2,1.7,2.8,2.8c2.9-2,6.8-2,9.6,0.1c2.9-4.9,9.3-6.6,14.2-3.6
					c2.2,1.3,3.8,3.3,4.6,5.7c1.6-0.5,3.3-0.3,4.7,0.5c1.5-3.5,4.9-5.9,8.7-6l0,0c0.1-5.6,4.7-10.1,10.3-10c0,0,0,0,0,0
					c2.3,0,4.5,0.7,6.3,2.1c2.1-1.7,5-2.2,7.6-1.2c1.8-5.1,7.5-7.8,12.7-6c3.2,1.2,5.6,3.9,6.3,7.2h0.2c4.7,0,8.8,3.3,9.7,8
					c2.7-2.4,6.8-2.5,9.7-0.3l0.4-0.1c-0.1-0.3-0.1-0.7-0.1-1c0.1-4.1,3.5-7.4,7.6-7.4c0,0,0,0,0,0c0.8,0,1.5,0.1,2.2,0.3
					c0.1-5.6,4.7-10,10.3-9.9c3.8,0,7.3,2,9.1,5.4c0.5-0.1,1.1-0.2,1.6-0.1c4.2-0.1,7.8,3,8.4,7.2c1.1-0.7,2.3-1.1,3.7-1.1
					c3.4-0.1,6.2,2.7,6.2,6.1c0,0,0,0,0,0c0,0.3,0,0.7-0.1,1c0.3-0.1,0.7-0.1,1-0.1c1,0,1.9,0.3,2.7,0.9c0.3-3,2.8-5.3,5.8-5.2
					c1,0,2,0.3,2.9,0.8c2.5-6.8,10-10.2,16.8-7.8c3.9,1.4,6.8,4.6,8,8.5c0.8-0.4,1.8-0.6,2.7-0.6c2.8,0,5.3,2,5.7,4.8
					c1.2-0.3,2.4-0.5,3.6-0.5c7.8-0.1,14.2,6.1,14.3,13.9c0,3.3-1.3,6.5-3.5,9C1044.2,333,1047,337.2,1047,341.9z M975.8,312
					c0.4,0.4,0.7,0.8,1,1.2c-0.2-0.5-0.3-1-0.4-1.5C976.3,311.8,976.1,311.9,975.8,312z M901.8,322h0.3l-0.1-0.2L901.8,322z
					 M836.8,322L836.8,322L836.8,322L836.8,322z"/>
				<path class="st2" d="M664,347.9c-0.1,6.8-5.7,12.2-12.5,12.1h-277c-6.8,0.1-12.4-5.3-12.5-12.1c0-2.1,0.5-4.1,1.6-5.8
					c-1-1.9-1.6-4.1-1.6-6.3c0.1-7.8,6.5-14,14.3-13.9c5.8,0,11.1,3.4,13.3,8.8c2-1.8,4.6-2.8,7.2-2.8c0.9,0,1.9,0.1,2.8,0.4
					c0.5-3.2,3.3-5.6,6.6-5.6c1.1,0,2.2,0.3,3.2,0.8c-0.1-0.4-0.1-0.8-0.1-1.2c0.1-4.6,3.9-8.3,8.5-8.2c0,0,0,0,0,0
					c2.2,0,4.4,0.8,6,2.4c3.8-5.3,11.1-6.6,16.5-2.8c1.1,0.8,2,1.7,2.8,2.8c2.9-2,6.8-2,9.6,0.1c2.9-4.9,9.3-6.6,14.2-3.6
					c2.2,1.3,3.8,3.3,4.6,5.7c1.6-0.5,3.3-0.3,4.7,0.5c1.5-3.5,4.9-5.9,8.7-6l0,0c0.1-5.6,4.7-10.1,10.3-10c0,0,0,0,0,0
					c2.3,0,4.5,0.7,6.3,2.1c2.1-1.7,5-2.2,7.6-1.2c1.8-5.1,7.5-7.8,12.7-6c3.2,1.2,5.6,3.9,6.3,7.2h0.2c4.7,0,8.8,3.3,9.7,8
					c2.7-2.4,6.8-2.5,9.7-0.3l0.4-0.1c-0.1-0.3-0.1-0.7-0.1-1c0.1-4.1,3.5-7.4,7.6-7.4c0,0,0,0,0,0c0.8,0,1.5,0.1,2.2,0.3
					c0.1-5.6,4.7-10,10.3-9.9c3.8,0,7.3,2,9.1,5.4c0.5-0.1,1.1-0.2,1.6-0.1c4.2-0.1,7.8,3,8.4,7.2c1.1-0.7,2.3-1.1,3.7-1.1
					c3.4-0.1,6.2,2.7,6.2,6.1c0,0,0,0,0,0c0,0.3,0,0.7-0.1,1c0.3-0.1,0.7-0.1,1-0.1c1,0,1.9,0.3,2.7,0.9c0.3-3,2.8-5.3,5.8-5.2
					c1,0,2,0.3,2.9,0.8c2.5-6.8,10-10.2,16.8-7.8c3.9,1.4,6.8,4.6,8,8.5c0.8-0.4,1.8-0.6,2.7-0.6c2.8,0,5.3,2,5.7,4.8
					c1.2-0.3,2.4-0.5,3.6-0.5c7.8-0.1,14.2,6.1,14.3,13.9c0,3.3-1.3,6.5-3.5,9C661.2,339,664,343.2,664,347.9z M592.8,318
					c0.4,0.4,0.7,0.8,1,1.2c-0.2-0.5-0.3-1-0.4-1.5C593.3,317.8,593.1,317.9,592.8,318z M518.8,328h0.3l-0.1-0.2L518.8,328z
					 M453.8,328L453.8,328L453.8,328L453.8,328z"/>
				<g id="Tees">
					<g class="st3">
						<path class="st4" d="M267.9,225.4c2.1,2.2,4.4,4.2,7,5.8c3.1,1.6,6.4,2.6,9.9,3.2c2.1,0.4,4.2,0.7,5.8,0.9l0,0
							c0.6-11.4,0.7-22.7,1.3-34.1c0.3-5.7,0.9-11.5,1.8-17.1l0.2-1.3l-0.3-0.4l0.4-0.1l2.2-15.2l3.9-27.2l-20.9-16.4l21.5,12.4
							l0.4-2.7c0.8-5.6,1.4-11.3,2-17c0.3-2.8,0.6-5.7,0.7-8.5c-0.1-2.8-0.4-5.6-0.8-8.4c-0.9-5.8-2.9-11.3-5.9-16.4
							c-1.6-2.7-3.5-5.3-5.6-7.7c-1.1-1.2-2.2-2.4-3.4-3.6c-1.2-1.1-2.2-2.4-3-3.8c0.9,1.4,2,2.6,3.2,3.7c1.2,1.2,2.4,2.4,3.6,3.6
							c2.2,2.3,4.2,4.9,6,7.6c3.3,5,5.6,10.6,6.8,16.5c0.6,2.8,1,5.7,1.2,8.5c0,2.9-0.1,5.7-0.3,8.5c-0.3,5.7-0.7,11.3-1.2,17
							l-3.2,34l-1.2,13.2l24.6-7.2l-25,10.3l-0.1,0.7c-0.7,5.6-1,11.2-1,16.9c-0.1,11.1,0.4,22.3,1,33.4l10.2-2.5l1.6,3l-11.7,2.2
							l1.6,31.9c0.1,1.9,0.2,3.8,0.3,5.7l9.6-3.2l-9.5,5.8c0,0.1,0,0.2,0,0.3c0,2.9-0.1,5.8-0.2,8.7c-0.3,5.8-1,11.5-1.7,17.1
							c-1.5,11.4-3.5,22.7-6,34l-13-1.3c2.9-11.1,5.5-22.3,7.5-33.5c1-5.6,1.9-11.2,2.5-16.8c0.3-2.8,0.5-5.6,0.6-8.3s0-5.6,0.3-8.5
							v-31.7c-2.6-0.3-5.1-0.8-7.6-1.4c-3.6-0.8-7.1-2.1-10.2-4c-2.5-1.8-4.6-3.9-6.5-6.3c-1.7-2.2-3.2-4.5-4.5-6.9
							C264.2,221.2,266,223.4,267.9,225.4z"/>
					</g>
					<g class="st3">
						<path class="st4" d="M369.7,204.1c2,2.6,4.4,4.8,7,6.7c3,1.8,6.4,3.1,9.9,3.7c2.1,0.5,4.2,0.8,5.8,1.1l0,0
							c0.6-13.3,0.6-26.6,1.3-40c0.3-6.7,0.9-13.4,1.9-20l0.2-1.5l-0.3-0.4l0.4-0.1l2.2-17.8l3.9-31.9l-20.9-19.1l21.5,14.6l0.4-3.2
							c0.7-6.6,1.4-13.2,2-19.9c0.3-3.3,0.6-6.6,0.7-9.9c-0.1-3.3-0.4-6.6-0.8-9.9c-0.9-6.7-2.9-13.2-5.9-19.2
							c-1.6-3.2-3.5-6.2-5.6-9c-1.1-1.4-2.2-2.9-3.4-4.3c-1.2-1.3-2.2-2.8-3-4.4c0.8,1.6,1.9,3.1,3.2,4.3c1.2,1.4,2.4,2.8,3.6,4.2
							c2.3,2.8,4.3,5.8,6,8.9c3.3,6,5.6,12.6,6.8,19.3c0.6,3.3,1,6.6,1.2,10c0,3.4-0.1,6.7-0.3,10c-0.3,6.6-0.7,13.3-1.2,19.9
							l-3.2,39.8l-1.2,15.5l24.6-8.4l-25,12.1l-0.1,0.8c-0.7,6.5-1,13.1-1,19.7c-0.1,13,0.4,26.1,1,39.1l10.2-2.9l1.6,3.5l-11.7,2.5
							l1.6,37.3c0.1,2.2,0.2,4.4,0.3,6.6l9.6-3.8l-9.5,6.7c0,0.1,0,0.2,0,0.4c0,3.4-0.1,6.8-0.2,10.1c-0.3,6.7-1,13.4-1.7,20.1
							c-1.5,13.3-3.5,26.6-6,39.8l-13-1.5c2.9-13,5.5-26.1,7.5-39.2c1-6.5,1.9-13.1,2.5-19.6c0.3-3.3,0.5-6.5,0.6-9.8s0-6.6,0.3-9.9
							v-37.2c-2.6-0.4-5.2-1-7.7-1.7c-3.7-0.9-7.1-2.5-10.2-4.7c-2.5-2.1-4.7-4.6-6.5-7.4c-1.7-2.6-3.2-5.3-4.5-8.1
							C365.9,199.1,367.7,201.7,369.7,204.1z"/>
					</g>
					<g class="st5">
						<path class="st4" d="M385.8,256.7c-2.2,1.6-4.5,3-7,4c-3.2,1.1-6.5,1.9-9.8,2.3c-2.1,0.3-4.2,0.5-7,0.6l0,0c0.6-8,0.6-16,0-24
							c-0.3-4-0.9-8.1-1.9-12l-0.2-0.9l0.3-0.2l-0.4-0.1l-2.2-10.7l-3.9-19.1l20.9-11.5l-21.5,8.7l-0.4-1.9c-0.8-4-1.4-7.9-2-11.9
							c-0.3-2-0.6-4-0.7-5.9c0.1-2,0.4-4,0.8-5.9c1-4.3,3-8.2,5.9-11.5c1.7-2,3.6-3.8,5.6-5.4c1.1-0.9,2.2-1.7,3.4-2.6
							c1.1-0.7,2.1-1.6,3-2.6c-0.9,1-2,1.9-3.2,2.6c-1.2,0.8-2.4,1.7-3.6,2.5c-2.2,1.6-4.2,3.4-6,5.3c-3.1,3.3-5.4,7.3-6.8,11.6
							c-0.6,2-1,4-1.2,6c0,2,0.1,4,0.3,6c0.3,4,0.7,8,1.2,11.9l3.2,23.9l1.2,9.3l-24.6-5l25,7.2l0.1,0.5c0.7,3.9,1,7.9,1,11.8
							c0.1,7.8-0.4,15.6-1,23.5l-10.2-1.8l-1.6,2.1l11.7,1.5l-1.6,22.4c-0.1,1.3-0.2,2.6-0.3,4l-9.6-2.3l9.5,4c0,0.1,0,0.1,0,0.2
							c0,2,0.1,4.1,0.2,6.1c0.4,4,1,8,1.7,12c1.6,8.1,3.6,16,6,23.9l13-0.9c-2.9-7.7-5.4-15.6-7.6-23.6c-1-3.9-1.9-7.8-2.5-11.8
							c-0.3-2-0.5-3.9-0.6-5.9c-0.1-2,0-4,0.4-5.9v-22.3c2.1-0.3,4.5-0.6,7-1c3.5-0.5,7-1.5,10.2-2.8c2.4-1.2,4.5-2.7,6.5-4.4
							c1.6-1.5,3.2-3.1,4.5-4.8C389.5,253.8,387.7,255.3,385.8,256.7z"/>
					</g>
					<g class="st6">
						<path class="st4" d="M214.9,265.2c-1.3,1.2-2.8,2.2-4.4,3.1c-1.9,0.8-3.9,1.3-5.9,1.4c-1.2,0.1-2.5,0.2-3.8,0.3l0,0
							c0.8-6.6,1.5-13.2,1.9-19.9c0.2-3.3,0.2-6.7,0-10v-0.7l0.2-0.2l-0.2-0.1l-0.3-8.9l-0.5-16l13.2-8.7l-13.3,6.4v-1.6
							c-0.1-3.3-0.1-6.6-0.1-10c0-1.7,0-3.3,0.1-5c0.2-1.6,0.6-3.3,1-4.9c0.9-3.4,2.5-6.5,4.5-9.3c1.1-1.5,2.4-2.9,3.8-4.2
							c0.7-0.7,1.5-1.3,2.2-2c0.8-0.6,1.4-1.3,2-2.1c-0.6,0.8-1.3,1.4-2.1,2c-0.8,0.6-1.6,1.3-2.3,1.9c-1.5,1.3-2.8,2.7-4,4.2
							c-2.2,2.8-3.9,5.9-5,9.3c-0.5,1.6-1,3.3-1.3,4.9c-0.2,1.7-0.3,3.3-0.4,5c-0.2,3.3-0.3,6.6-0.4,10l-0.4,19.9l-0.1,7.7
							l-13.9-5.2l13.9,7v0.5c0,3.3-0.2,6.6-0.5,9.9c-0.7,6.5-1.7,13-2.8,19.4l-5.8-1.9l-1.1,1.7l6.7,1.8l-3,18.5
							c-0.2,1.1-0.4,2.2-0.5,3.3l-5.4-2.3l5.2,3.8c0,0.1,0,0.1,0,0.2c-0.2,1.7-0.3,3.4-0.4,5c-0.2,3.4-0.2,6.7-0.1,10.1
							c0.1,6.7,0.6,13.4,1.2,20.1l7.7-0.2c-1-6.6-1.7-13.2-2.2-19.8c-0.2-3.3-0.4-6.6-0.4-9.9c0-1.6,0.1-3.3,0.2-4.9
							s0.4-3.3,0.5-4.9l2.1-18.5c1.5-0.1,2.9-0.3,4.4-0.5c2.2-0.3,4.3-0.9,6.2-1.9c1.6-0.9,3-2.1,4.2-3.4c1.1-1.2,2.2-2.5,3.1-3.8
							C217.4,262.9,216.2,264.1,214.9,265.2z"/>
					</g>
					<g class="st3">
						<path class="st4" d="M202.7,246.7c-1.5,1.7-3.3,3.1-5.2,4.3c-2.3,1.2-4.8,1.9-7.3,2.4c-1.8,0.3-3.5,0.6-5.3,0.7l0,0
							c0.6-8.5,0.6-16.9,0.1-25.4c-0.2-4.3-0.7-8.5-1.4-12.8l-0.1-0.9l0.2-0.3l-0.3-0.1l-1.6-11.3l-2.9-20.3l15.6-12.2l-16,9.3
							l-0.3-2c-0.6-4.2-1-8.4-1.5-12.6c-0.2-2.1-0.4-4.2-0.5-6.3c0.1-2.1,0.3-4.2,0.6-6.3c0.7-4.3,2.2-8.5,4.4-12.2
							c1.2-2,2.6-3.9,4.2-5.7c0.8-0.9,1.7-1.8,2.5-2.7c0.9-0.8,1.7-1.8,2.2-2.8c-0.6,1-1.5,2-2.4,2.8c-0.9,0.9-1.8,1.8-2.7,2.7
							c-1.7,1.7-3.2,3.6-4.5,5.7c-2.4,3.7-4.1,7.9-5,12.3c-0.5,2.1-0.8,4.2-0.9,6.4c0,2.1,0.1,4.2,0.2,6.4c0.2,4.2,0.5,8.5,0.9,12.7
							l2.3,25.3l0.9,9.8l-18.3-5.3l18.6,7.7v0.5c0.5,4.2,0.8,8.3,0.8,12.5c0.1,8.3-0.3,16.6-0.7,24.9l-7.6-1.9l-1.2,2.3l8.7,1.6
							l-1.2,23.7c-0.1,1.4-0.1,2.8-0.2,4.2l-7.2-2.4l7.1,4.3c0,0.1,0,0.1,0,0.2c0,2.2,0.1,4.3,0.2,6.5c0.2,4.3,0.7,8.5,1.3,12.8
							c1.1,8.5,2.6,16.9,4.4,25.3l9.7-1c-2.2-8.2-4.1-16.6-5.6-24.9c-0.8-4.2-1.4-8.3-1.9-12.5c-0.2-2.1-0.4-4.1-0.5-6.2
							c-0.1-2.1,0-4.2,0.5-6.3v-23.6c1.4-0.3,3.2-0.6,5-1.1c2.7-0.6,5.3-1.6,7.6-3c1.8-1.3,3.5-2.9,4.8-4.7c1.3-1.6,2.4-3.3,3.4-5.1
							C205.5,243.5,204.2,245.2,202.7,246.7z"/>
						<path class="st4" d="M164.5,207.6l0.4-0.6c1.9-2.8-0.1-6-4.4-7.3l-0.4,0.6C158.1,203.1,160.1,206.3,164.5,207.6z"/>
						<path class="st4" d="M150.7,214.3l1,0.1c4.6,0.6,9.2-1.3,10.2-4.2l0,0l-1-0.1C156.3,209.5,151.7,211.4,150.7,214.3z"/>
						<path class="st4" d="M200.5,245.6l1,0.2c1.3-2.9-1.4-6-6-6.8l-1-0.2C193.3,241.7,196,244.8,200.5,245.6z"/>
						<path class="st4" d="M206.7,248.4l-3.2,0.5l0,0c0.7,2.2,4.1,3.6,7.5,3.1l3.2-0.5C213.5,249.4,210.1,248,206.7,248.4z"/>
						<path class="st4" d="M169.2,280.6V280c0-2.1-2.6-3.8-5.9-3.8v0.6C163.3,278.9,165.9,280.6,169.2,280.6z"/>
						<path class="st4" d="M162.4,286.4l1,0.1c3.3,0.2,6.4-1.3,6.8-3.4l-1-0.1C165.8,282.7,162.8,284.2,162.4,286.4z"/>
					</g>
					<g class="st7">
						<path class="st4" d="M562.8,212.2c-2.2,2.4-4.7,4.5-7.5,6.2c-3.3,1.7-6.9,2.8-10.6,3.4c-2.5,0.5-5,0.8-7.5,1l0,0
							c0.6-12.3,0.5-24.6-0.2-36.8c-0.3-6.2-1-12.4-2-18.5l-0.2-1.4l0.3-0.4l-0.4-0.1l-2.3-16.4l-4.2-29.4l22.5-17.7l-23.2,13.4
							l-0.4-2.9c-0.8-6.1-1.5-12.2-2.2-18.3c-0.3-3-0.6-6.1-0.7-9.1c0.1-3,0.4-6.1,0.9-9.1c1-6.3,3.2-12.3,6.4-17.7
							c1.7-2.9,3.8-5.7,6.1-8.3c1.2-1.3,2.4-2.6,3.7-3.9c1.3-1.2,2.4-2.6,3.3-4.1c-0.9,1.5-2.1,2.9-3.5,4c-1.3,1.3-2.6,2.6-3.9,3.9
							c-2.4,2.5-4.6,5.3-6.5,8.2c-3.5,5.4-6,11.4-7.4,17.8c-0.7,3-1.1,6.1-1.3,9.2c0,3.1,0.1,6.1,0.3,9.2c0.4,6.1,0.8,12.2,1.3,18.4
							l3.5,36.7l1.3,14.3l-26.6-7.8l26.9,11.1l0.1,0.7c0.7,6,1.1,12.1,1.1,18.2c0.1,12-0.4,24-1,36.1l-11.1-2.7l-1.7,3.2l12.6,2.4
							l-1.8,34.4c-0.1,2-0.2,4.1-0.3,6.1l-10.4-3.5l10.3,6.2c0,0.1,0,0.2,0,0.3c0,3.1,0.1,6.2,0.3,9.4c0.4,6.2,1.1,12.4,1.9,18.5
							c1.7,12.3,3.8,24.5,6.4,36.7l14.1-1.4c-3.1-12-5.9-24.1-8.1-36.1c-1.1-6-2.1-12.1-2.7-18.1c-0.3-3-0.6-6-0.7-9
							c0-3.1-0.1-6.1-0.5-9.1v-34.3c2.8-0.4,5.6-0.9,8.4-1.5c3.9-0.8,7.6-2.3,11.1-4.3c2.7-1.9,5-4.2,7-6.8c1.8-2.3,3.5-4.8,4.9-7.4
							C566.8,207.6,564.9,210,562.8,212.2z"/>
						<path class="st4" d="M507.3,155.5l0.6-0.9c2.8-4-0.1-8.8-6.4-10.5l-0.6,0.9C498.2,148.9,501.1,153.7,507.3,155.5z"/>
						<path class="st4" d="M487.4,165.3l1.5,0.2c6.7,0.9,13.4-1.8,14.8-6.1l0,0l-1.5-0.2C495.5,158.2,488.9,161,487.4,165.3z"/>
						<path class="st4" d="M559.6,210.5l1.5,0.3c1.8-4.2-2-8.7-8.6-9.9l-1.5-0.3C549.1,204.9,553,209.4,559.6,210.5z"/>
						<path class="st4" d="M568.6,214.7l-4.7,0.6l0,0c1.1,3.2,6,5.2,10.9,4.5l4.7-0.6C578.4,216.1,573.5,214,568.6,214.7z"/>
						<path class="st4" d="M514.7,261.4v-0.9c0-3.1-4-5.7-8.8-5.7v0.9C505.8,258.9,509.8,261.4,514.7,261.4z"/>
						<path class="st4" d="M504.3,269.7l1.4,0.1c4.8,0.4,9.2-1.9,9.8-5l-1.4-0.1C509.3,264.4,504.9,266.6,504.3,269.7z"/>
					</g>
					<path class="st4" d="M77.4,216.5c-2.2,2.4-4.7,4.5-7.5,6.2c-3.3,1.7-6.9,2.8-10.6,3.4c-2.5,0.5-5,0.8-7.6,1l0,0
						c0.6-12.3,0.6-24.6-0.1-36.8c-0.3-6.2-1-12.4-2-18.5l-0.2-1.4l0.3-0.4l-0.4-0.1L47,153.5l-4.2-29.4l22.6-17.7l-23.1,13.4
						l-0.4-2.9c-0.8-6.1-1.5-12.2-2.2-18.3c-0.3-3-0.6-6.1-0.7-9.1c0.1-3,0.4-6.1,0.9-9.1c1-6.3,3.2-12.3,6.4-17.7
						c1.7-2.9,3.8-5.7,6.1-8.3c1.2-1.3,2.4-2.6,3.7-3.9c1.3-1.2,2.4-2.6,3.3-4.1c-0.9,1.5-2.1,2.9-3.4,4c-1.3,1.3-2.6,2.6-3.9,3.9
						c-2.4,2.5-4.6,5.3-6.5,8.2C41.8,68,39.3,74,38,80.3c-0.7,3-1.1,6.1-1.3,9.2c0,3.1,0.1,6.1,0.3,9.2c0.4,6.1,0.8,12.2,1.3,18.4
						l3.5,36.7l1.3,14.3l-26.6-7.8l26.9,11.1l0.1,0.7c0.7,6,1.1,12.1,1.1,18.2c0.1,12-0.4,24-1,36.1l-11.1-2.7l-1.7,3.2l12.6,2.4
						l-1.8,34.4c-0.1,2-0.2,4.1-0.3,6.1l-10.4-3.5l10.3,6.2c0,0.1,0,0.2,0,0.3c0,3.1,0.1,6.2,0.3,9.4c0.4,6.2,1.1,12.4,1.9,18.5
						c1.7,12.3,3.8,24.5,6.4,36.7l14.1-1.4c-3.1-12-5.9-24.1-8.1-36.1c-1.1-6-2.1-12-2.7-18.1c-0.3-3-0.6-6-0.7-9
						c-0.1-3.1,0-6.1,0.4-9.1v-34.3c2.3-0.4,4.9-0.9,7.5-1.5c3.9-0.8,7.6-2.3,11.1-4.3c2.7-1.9,5-4.2,7-6.8c1.8-2.3,3.5-4.8,4.9-7.4
						C81.5,211.9,79.5,214.3,77.4,216.5z"/>
					<path class="st4" d="M22,159.7l0.6-0.9c2.8-4-0.1-8.8-6.4-10.5l-0.6,0.9C12.8,153.2,15.7,158,22,159.7z"/>
					<path class="st4" d="M2.1,169.6l1.5,0.2c6.7,0.9,13.4-1.8,14.8-6.1l0,0l-1.5-0.2C10.2,162.5,3.5,165.2,2.1,169.6z"/>
					<path class="st4" d="M74.3,214.8l1.5,0.3c1.8-4.2-2-8.7-8.6-9.9l-1.5-0.2C63.8,209.2,67.7,213.6,74.3,214.8z"/>
					<path class="st4" d="M83.2,219l-4.7,0.6l0,0c1.1,3.2,6,5.2,10.9,4.5l4.7-0.6C93.1,220.4,88.2,218.3,83.2,219z"/>
					<path class="st4" d="M29.2,265.7v-0.9c0-3.1-4-5.7-8.8-5.7v0.9C20.4,263.1,24.4,265.7,29.2,265.7z"/>
					<path class="st4" d="M19,274l1.4,0.1c4.8,0.4,9.2-1.9,9.8-5l-1.4-0.1C23.9,268.6,19.5,270.9,19,274z"/>
					<g class="st3">
						<path class="st4" d="M546.4,199.4c2,2.6,4.4,4.8,7,6.7c3,1.8,6.4,3.1,9.8,3.7c2.1,0.5,4.2,0.8,6.2,1.1l0,0
							c0.2-13.3,0.2-26.6,0.8-40c0.3-6.7,0.9-13.4,1.8-20l0.2-1.5l-0.3-0.4l0.4-0.1l2.2-17.8l3.9-31.9l-20.9-19.1L579,94.7l0.4-3.2
							c0.7-6.6,1.4-13.2,2-19.9c0.3-3.3,0.6-6.6,0.7-9.9c-0.1-3.3-0.4-6.6-0.8-9.9c-0.9-6.7-2.9-13.2-5.9-19.2
							c-1.6-3.2-3.5-6.2-5.6-9c-1.1-1.4-2.2-2.9-3.4-4.3c-1.2-1.3-2.2-2.8-3-4.4c0.8,1.6,1.9,3.1,3.2,4.3c1.2,1.4,2.4,2.8,3.6,4.2
							c2.3,2.8,4.3,5.8,6,8.9c3.3,6,5.6,12.6,6.8,19.3c0.6,3.3,1,6.6,1.2,10c0,3.4-0.1,6.7-0.3,10c-0.3,6.6-0.7,13.3-1.2,19.9
							l-3.2,39.8l-1.2,15.5l24.7-8.4L578,150.6l-0.1,0.8c-0.7,6.5-1,13.1-1,19.7c-0.1,13,0.4,26.1,1,39.1l10.2-2.9l1.6,3.5
							l-11.8,2.5l1.6,37.3c0.1,2.2,0.2,4.4,0.3,6.6l9.6-3.8l-9.5,6.8c0,0.1,0,0.2,0,0.4c0,3.4-0.1,6.8-0.2,10.1
							c-0.3,6.7-1,13.4-1.7,20.1c-1.5,13.3-3.5,26.6-6,39.8l-13-1.5c2.9-13,5.5-26.1,7.5-39.2c1-6.5,1.9-13.1,2.5-19.6
							c0.3-3.3,0.5-6.5,0.6-9.8c-0.1-3.3,0.2-6.6,0.8-9.9v-37.2c-2.7-0.4-5.5-0.9-8.1-1.7c-3.7-0.9-7.1-2.5-10.2-4.7
							c-2.5-2.1-4.7-4.6-6.5-7.4c-1.7-2.6-3.2-5.3-4.5-8.1C542.7,194.4,544.4,197,546.4,199.4z"/>
					</g>
					<g class="st3">
						<path class="st4" d="M741.7,198.5c2,2.6,4.4,4.8,7,6.7c3,1.8,6.4,3.1,9.8,3.7c2.1,0.5,4.2,0.8,5.7,1.1l0,0
							c0.7-13.3,0.7-26.6,1.4-40c0.3-6.7,0.9-13.4,1.8-20l0.2-1.5l-0.3-0.4l0.4-0.1l2.2-17.8l3.9-31.9l-20.9-19.1l21.5,14.6l0.4-3.2
							c0.7-6.6,1.4-13.2,2-19.9c0.3-3.3,0.6-6.6,0.7-9.9c-0.1-3.3-0.4-6.6-0.8-9.9c-0.9-6.7-2.9-13.2-5.9-19.2
							c-1.6-3.2-3.5-6.2-5.6-9c-1.1-1.4-2.2-2.9-3.4-4.3c-1.2-1.3-2.2-2.8-3-4.4c0.8,1.6,1.9,3.1,3.2,4.3c1.2,1.4,2.4,2.8,3.6,4.2
							c2.3,2.8,4.3,5.8,6,8.9c3.3,6,5.6,12.6,6.8,19.3c0.6,3.3,1,6.6,1.2,10c0,3.4-0.1,6.7-0.3,10c-0.3,6.6-0.7,13.3-1.2,19.9
							l-3.2,39.8l-1.3,15.4l24.7-8.4l-25,12.1l-0.1,0.8c-0.7,6.5-1,13.1-1,19.7c-0.1,13,0.4,26.1,1,39.1l10.2-2.9l1.6,3.5l-11.7,2.5
							l1.6,37.3c0.1,2.2,0.2,4.4,0.3,6.6l9.6-3.8l-9.5,6.8c0,0.1,0,0.2,0,0.4c0,3.4-0.1,6.8-0.2,10.1c-0.3,6.7-1,13.4-1.7,20.1
							c-1.5,13.3-3.5,26.6-6,39.8l-13-1.5c2.9-13,5.5-26.1,7.5-39.2c1-6.5,1.9-13.1,2.5-19.6c0.3-3.3,0.5-6.5,0.6-9.8s0-6.6,0.2-9.9
							v-37.2c-2.6-0.4-5.1-1-7.6-1.7c-3.7-0.9-7.1-2.5-10.2-4.7c-2.5-2.1-4.7-4.6-6.5-7.4c-1.7-2.6-3.2-5.3-4.5-8.1
							C737.9,193.5,739.7,196.1,741.7,198.5z"/>
					</g>
					<g class="st5">
						<path class="st4" d="M767.1,253.8c-2.2,1.6-4.5,3-7,4c-3.2,1.1-6.5,1.9-9.8,2.2c-2.1,0.3-4.2,0.5-6.6,0.6l0,0
							c0.3-8,0.2-16-0.4-24c-0.3-4-0.9-8.1-1.8-12l-0.2-0.9l0.3-0.2l-0.4-0.1l-2.1-10.6l-3.9-19.1l20.9-11.5l-21.5,8.7l-0.4-1.9
							c-0.8-4-1.4-7.9-2-11.9c-0.3-2-0.6-4-0.7-5.9c0.1-2,0.4-4,0.8-5.9c1-4.3,3-8.2,5.9-11.5c1.7-2,3.6-3.8,5.6-5.4
							c1.1-0.9,2.2-1.7,3.4-2.6c1.1-0.7,2.1-1.6,3-2.6c-0.9,1-2,1.9-3.2,2.6c-1.2,0.8-2.4,1.7-3.6,2.5c-2.2,1.6-4.2,3.4-6,5.3
							c-3.1,3.3-5.4,7.3-6.8,11.6c-0.6,2-1,4-1.2,6c0,2,0.1,4,0.3,6c0.3,4,0.7,8,1.2,11.9L734,213l1.2,9.3l-24.7-5l25,7.2l0.1,0.5
							c0.7,3.9,1,7.9,1,11.8c0.1,7.8-0.4,15.6-1,23.5l-10.2-1.8l-1.6,2.1l11.7,1.5l-1.6,22.4c-0.1,1.3-0.2,2.6-0.3,4l-9.6-2.3l9.5,4
							c0,0.1,0,0.1,0,0.2c0,2,0.1,4.1,0.2,6.1c0.4,4,1,8,1.7,12c1.6,8.1,3.6,16,6,23.9l13-0.9c-2.9-7.7-5.4-15.5-7.5-23.5
							c-1-3.9-1.9-7.8-2.5-11.8c-0.3-2-0.5-3.9-0.6-5.9c-0.2-2,0.1-4,0.8-5.9v-22.3c1.7-0.3,4.2-0.6,6.6-1c3.5-0.5,7-1.5,10.2-2.8
							c2.4-1.2,4.5-2.7,6.5-4.4c1.6-1.5,3.2-3.1,4.5-4.8C770.8,250.8,769,252.4,767.1,253.8z"/>
					</g>
					<g class="st5">
						<path class="st4" d="M950,246.1c-2.2,1.6-4.5,3-7,4c-3.2,1.1-6.5,1.9-9.8,2.2c-2.1,0.3-4.2,0.5-6.5,0.6l0,0c0.1-8,0-16-0.6-24
							c-0.3-4-0.9-8.1-1.8-12l-0.2-0.9l0.3-0.2l-0.4-0.1l-2.2-10.7l-3.9-19.1l20.9-11.5l-21.5,8.7l-0.4-1.9c-0.8-4-1.4-7.9-2-11.9
							c-0.3-2-0.6-4-0.7-5.9c0.1-2,0.4-4,0.8-5.9c1-4.3,3-8.2,5.9-11.5c1.7-2,3.6-3.8,5.6-5.4c1.1-0.9,2.2-1.7,3.4-2.6
							c1.1-0.7,2.1-1.6,3-2.6c-0.9,1-2,1.9-3.2,2.6c-1.2,0.8-2.4,1.7-3.6,2.5c-2.2,1.6-4.2,3.4-6,5.3c-3.1,3.3-5.4,7.3-6.8,11.6
							c-0.6,2-1,4-1.2,6c0,2,0.1,4,0.3,6c0.3,4,0.7,8,1.2,11.9l3.2,23.9l1.2,9.3l-24.7-5l25,7.2l0.1,0.5c0.7,3.9,1,7.9,1,11.8
							c0.1,7.8-0.4,15.6-1,23.5l-10.2-1.8l-1.5,2.1l11.7,1.5l-1.6,22.4c-0.1,1.3-0.2,2.6-0.3,4l-9.6-2.3l9.5,4c0,0.1,0,0.1,0,0.2
							c0,2,0.1,4.1,0.2,6.1c0.4,4,1,8,1.7,12c1.6,8.1,3.6,16,6,23.9l13-0.9c-2.9-7.7-5.4-15.5-7.5-23.5c-1-3.9-1.9-7.8-2.5-11.8
							c-0.3-2-0.5-3.9-0.6-5.9c-0.2-2,0.1-4.1,1-5.9v-22.3c1.6-0.3,4-0.6,6.4-1c3.5-0.5,7-1.5,10.2-2.8c2.4-1.2,4.5-2.7,6.5-4.4
							c1.6-1.5,3.2-3.1,4.5-4.8C953.7,243.2,951.9,244.8,950,246.1z"/>
					</g>
					<path class="st4" d="M1012.1,195c-2.5,2.7-5.3,5-8.4,6.9c-3.7,1.9-7.7,3.2-11.9,3.8c-2.8,0.5-5.6,0.9-8.4,1.1l0,0
						c0.7-13.7,0.6-27.4-0.2-41.1c-0.4-6.9-1.1-13.8-2.2-20.6l-0.2-1.5l0.4-0.4l-0.5-0.1l-2.6-18.3l-4.7-32.8l25.2-19.7l-25.9,15
						l-0.5-3.3c-0.9-6.8-1.7-13.6-2.4-20.4c-0.3-3.4-0.7-6.8-0.8-10.2c0.1-3.4,0.4-6.8,1-10.1c1.1-7,3.5-13.7,7.1-19.8
						c1.9-3.3,4.2-6.4,6.8-9.2c1.3-1.5,2.7-2.9,4.1-4.4s2.9-2.9,3.6-4.6c-1,1.7-2.3,3.2-3.8,4.5c-1.5,1.4-2.9,2.9-4.3,4.3
						c-2.7,2.8-5.1,5.9-7.3,9.2c-3.9,6.1-6.7,12.8-8.2,19.9c-0.7,3.4-1.2,6.8-1.5,10.3c0,3.5,0.2,6.9,0.3,10.3
						c0.4,6.8,0.9,13.7,1.4,20.5l3.9,41l1.5,15.9l-29.7-8.7l30.1,12.5l0.1,0.8c0.8,6.7,1.2,13.5,1.2,20.3
						c0.1,13.4-0.5,26.9-1.2,40.3l-12.4-3l-1.9,3.6l14,2.6l-2,38.4c-0.1,2.3-0.2,4.5-0.3,6.8l-11.6-3.9l11.5,7c0,0.1,0,0.2,0,0.4
						c0,3.5,0.1,7,0.3,10.5c0.4,6.9,1.2,13.8,2.1,20.7c1.8,13.7,4.3,27.4,7.2,41l15.7-1.6c-3.5-13.4-6.6-26.9-9.1-40.4
						c-1.2-6.7-2.3-13.5-3-20.2c-0.3-3.4-0.7-6.7-0.8-10.1c-0.1-3.4,0-6.8,0.4-10.2v-38.3c2.7-0.5,5.6-1,8.5-1.7
						c4.5-1.1,8.9-2.5,12.4-4.8c3-2.1,5.6-4.7,7.8-7.6c2-2.6,3.9-5.4,5.4-8.3C1016.6,189.8,1014.5,192.5,1012.1,195z"/>
					<path class="st4" d="M950.2,131.5l0.7-1c3.1-4.5-0.1-9.8-7.2-11.8l-0.7,1C940,124.3,943.2,129.6,950.2,131.5z"/>
					<path class="st4" d="M927.9,142.5l1.7,0.2c7.5,1,14.9-2,16.5-6.9l0,0l-1.7-0.2C937,134.6,929.5,137.7,927.9,142.5z"/>
					<path class="st4" d="M1008.6,193.1l1.6,0.3c2.1-4.7-2.3-9.7-9.7-11l-1.6-0.3C996.9,186.8,1001.2,191.8,1008.6,193.1z"/>
					<path class="st4" d="M1018.6,197.8l-5.3,0.7l0,0c1.2,3.5,6.7,5.8,12.2,5l5.3-0.7C1029.6,199.3,1024.1,197,1018.6,197.8z"/>
					<path class="st4" d="M958,249.9v-1c0-3.5-4.4-6.3-9.8-6.3v1C948.2,247.1,952.6,249.9,958,249.9z"/>
					<path class="st4" d="M946.8,259.2l1.6,0.1c5.4,0.4,10.3-2.1,10.9-5.5l-1.6-0.1C952.4,253.2,947.4,255.7,946.8,259.2z"/>
				</g>
				<path class="st8" d="M1,345c-1.6,4.5-4.1,8.7-7.3,12.4c3.9,5.7,6.1,11.9,6.1,17.9v63.2c3.1-0.2,6.3-0.4,9.4-0.4
					c52.3-0.1,104.3-4.4,156.7-4.5c12.4-0.1,24.8,1.8,36.6,5.6c27.6-2.4,55.2-4.5,83.1-5.6c63.3-2.5,126.9-1.5,190.3-1.5h194.9
					c13-0.1,25.9,2,38.2,6.2c115.5-5.6,231.5-6.2,347.3-6.2c1.2,0,2.4,0,3.6,0.1V345H1z"/>
				<path class="st9" d="M6.5,409.9c-2.2,0.3-4.5,0.5-6.7,0.7v27.3c58.7-4.8,90.2-24.6,114.6-42.7c37.5-27.9,123.3-36.9,123.3-36.9
					C135.5,358.9,88.9,399.6,6.5,409.9z"/>
				<path class="st9" d="M463.5,345.3c0,0-119.1,11.4-125.9,41.8c-4.9,21.8-2.5,38-91.4,45.5c-14.9,1.3-29.7,3.5-44.3,6.5l0.5,0.2
					c27.6-2.3,55.2-4.5,83.1-5.6c11.5-0.4,23-0.8,34.5-1c20.2-7.7,37.9-21.6,46.1-52.1c9-33.5,139.4-30.1,139.4-30.1L463.5,345.3z"
					/>
				<path id="_Path_" class="st10" d="M81.3,341.3c0,0,7.4,3.3,3,20.8c-3.8,14.8-24,27.9-73.4,35.1c0,0,58.5,3,124.4-43.2
					L81.3,341.3z"/>
				<path class="st10" d="M914.7,345.1c0,0-3,55.8-274.3,58.7c-81.7,0.9-143.2,12.4-189.4,28.1c8.3,0,16.5,0,24.8,0h112.7
					c22.4-7.7,51.2-13.2,87.9-15.7C928.2,399.5,914.7,345.1,914.7,345.1z"/>
				<path id="_Path_2" class="st9" d="M544.5,345.3c0,0-66,23.5-72,46.2s-89.9,22.8-107.9,38.2c24.2-5.6,48.8-10,73.4-13.2
					c38.2-4.9,43.5-4.7,55-26.3c4.5-8.5-12-28,106.9-20.8C677.3,374,740.9,349,740.9,349l-51-3.7c0,0-32.8,23.7-72.6,19.8
					S544.5,345.3,544.5,345.3z"/>
				<path class="st9" d="M790.2,434.7c43.3-16.6,97.8-35.5,149.7-47.7c40.6-9.5,82.7-7.3,119.8-0.7V357c-3.6-0.1-7.4-0.1-11.3,0
					h-0.1c-18.4,0.6-36.6,2.5-54.7,6c-39,7.1-88.2,21.2-149.6,46.5c-23.6,9.7-45.5,18.2-65.6,25.7L790.2,434.7z"/>
				<path class="st10" d="M908.5,432.8c13.8-3.5,28.7-7.5,45-11.9c35.9-9.8,73.7-7.6,106.3-1.3v-21.8c-38.5-8-83.6-9.6-122.8,9.9
					c-20.1,10.1-40.9,18.6-62.2,25.6C886,433.1,897.2,432.9,908.5,432.8z"/>
				<path class="st10" d="M211.7,398.7c-29.4,2.7-72.3,18.4-114.3,36.8c8.7-0.4,17.5-0.7,26.2-1c33.4-12.2,65.7-22,89.6-25.3
					c79.9-11.1,106.4-47,106.4-47S289.6,391.5,211.7,398.7z"/>
				<path class="st11" d="M-0.2,383.6v6.3c4.8,0.6,9.7-0.1,14-2.3C21.2,384.2,8.8,382.9-0.2,383.6z"/>
				<path id="_Path_3" class="st11" d="M161.2,393c0,0,8-12.8,29-9.6s14,6.8,14,6.8S172.2,398.4,161.2,393z"/>
				<path id="_Path_4" class="st11" d="M579.5,382.1c0,0-12.1,8.5,0,8.8S594,379.6,579.5,382.1z"/>
				<path id="_Path_5" class="st11" d="M509.8,384.4c0,0,7.1,4.6,16.9,0S502.8,379.8,509.8,384.4z"/>
				<path id="_Path_6" class="st11" d="M532.9,388.6c0,0,6.5-10.4,23.4-7.8s11.3,5.5,11.3,5.5S541.8,392.9,532.9,388.6z"/>
				<path id="_Path_7" class="st11" d="M198.8,373.9L198.8,373.9c-3.2,2.3-1.9,5.4,2.9,6.8c7.4,2.2,18.2,4.5,26.5,2.7
					c4.7-1,6.1-3.5,5.2-6.1C230.5,369.2,208.4,367.2,198.8,373.9z"/>
				<path class="st12" d="M680.4,432.5c2.2,0.2,4.4,0.4,6.5,0.7c1.3-0.2,2.1-0.8,1.9-1.5c-0.7-1.6-3.5-2.8-6.9-2.8l-1.5,0.9
					C678.9,430.6,679.1,431.8,680.4,432.5z"/>
				<path id="_Path_8" class="st11" d="M563.9,387.4l-1.6,0.9c-2.4,1.4-0.3,3.6,3.5,3.6h2.5c1.8,0,3.1-0.8,2.8-1.7l0,0
					C570.5,388.7,567.4,387.4,563.9,387.4L563.9,387.4z"/>
				<path class="st13" d="M507.9,331.2c-35.6,0-69.7,0-105.2-3.4c-25.2-2.7-47.5-7.5-74.1-4.8c-72.6,6.8-140.8,7.5-212,8.1
					c-38.1,0.5-77.6,2.3-115.5,0.7c0.4,1.7,0.7,3.4,0.9,5.1c0.5,6.7-2.9,13.9-8.6,20.4c0.6,0.9,1.2,1.8,1.8,2.7
					c29.3,1.2,59.6,0.4,89.4-0.2c8.4-0.2,16.7-0.3,25-0.5l17.4-0.2c64.9-0.7,127.8-1.7,194.5-8c26.7-2.7,48.9,2,74.1,4.7l0.7,0.1
					c4,0.4,8.1,0.7,12.1,1c31,2.3,61.1,2.3,92.4,2.3c3.2,0.1,6.5,0.1,9.8,0.1c26.1,0.4,52.1,0.5,78.1,0.4l0,0
					c23.7,0,47.4-0.2,71.1-0.5c15.7-0.2,31.5-0.4,47.2-0.7c66.9-1,133.8-2.5,200.9-2.8h0.3c0,0,2.4,0.2,3.7,0.2
					c45.5-0.2,91.1,0,136.9,0.8h0.1c3.8,0.5,11.1,0.8,11.1,0.8v-28.5C874.4,324.1,692.4,334.4,507.9,331.2z"/>
				<path class="st14" d="M1048.7,357h-0.1c-45.8-0.8-91.4-1.1-136.9-0.8c-1.2,0-3.7-0.2-3.7-0.2l0,0c-67.1,0.3-134,1.8-200.9,2.8
					c-15.7,0.3-31.4,0.5-47.2,0.7c-23.7,0.3-47.4,0.5-71.1,0.5l0,0c-26,0.1-52-0.1-78.1-0.4c-3.2,0-6.5-0.1-9.8-0.1
					c-31.2,0-61.4,0-92.4-2.3c-4-0.3-8.1-0.6-12.1-1l-0.7-0.1c-25.2-2.7-47.4-7.3-74.1-4.7c-66.7,6.1-129.6,7.2-194.5,7.8l-17.4,0.2
					c-8.3,0.1-16.6,0.3-25,0.5c-29.8,0.7-60.1,1.5-89.4,0.2c1.3,2.1,2.3,4.4,3.1,6.7c27.5,1,55.9,0.3,83.8-0.3
					c9.2-0.2,18.4-0.4,27.5-0.5l5.8-0.1h78.3c0,0,84.1-3.5,127.8-7.7c20.5-2.2,38.4,0.2,57,2.8c3.5,0.5,7.1,1,10.8,1.4
					c2.1,0.3,4.2,0.5,6.4,0.8c34.6,3.4,102.4,3.8,102.4,3.8h2.7c0,0,110.5,0.4,165.6,0l0,0c77.5-1.3,154.9-3.2,232.7-3.8
					c2.2,0,4.4,0,6.6,0c29.3-0.2,58.6-0.1,88,0.2c22,0.2,65.9,1.4,65.9,1.4v-7C1059.7,357.8,1052.5,357.5,1048.7,357z"/>
				
					<linearGradient id="SVGID_3_" gradientUnits="userSpaceOnUse" x1="528.295" y1="-96.39" x2="528.295" y2="-34.09" gradientTransform="matrix(1 0 0 -1 0 250)">
					<stop  offset="0" style="stop-color:#BFA910"/>
					<stop  offset="1" style="stop-color:#CFA53D"/>
				</linearGradient>
				<path class="st15" d="M953.8,318.3l2.5-6l-5.3,6c-19.8-0.2-39.5-0.3-59.2-0.3l13.5-17.4L888.7,318h-2.4l-3-29l-4.6,27.9
					l-12.7-9.3l3.7,10.4c-63.9,0.3-127.6,1.6-191.3,3.3l-5.4-4.7l1.9,4.8c-38.4,1.1-76.8,2.3-115.2,3.6c-33.2,0.7-66.3-0.7-99.3-4.4
					c-25.7-2.5-50.6-4.7-75.9-5.5l-3.5-0.1h-1l-16.5-0.3c-4.3,0-8.5,0-12.8,0.1c-17.5,0.5-35,0.8-52.5,1.2l-4.4,0.1
					c-25.2,0.5-50.2,1-75.2,1.8l-21.8,0.7c-29.3,1.1-58.5,2.6-87.7,5c-17.9,1.6-36.9,1.6-56.1,1l14.3-22.1l-17.7,21.9l-0.9-0.3
					l-3.2-46.4L40.9,322l-12.7-9.3l3.8,11c-11.8-0.6-23.5-1.3-35.2-1.9c1.9,3.3,3.4,6.8,4.3,10.5c37.9,1.8,77.4-0.2,115.5-0.7
					c71.2-0.7,139.3-1.5,212-8.7c26.6-2.9,48.9,2.2,74.1,5.1c35.6,3.6,69.7,3.6,105.2,3.6c184.5,3.4,366.6-7.7,551.9-2.3v-8.4
					C1024.4,319.6,989.1,318.7,953.8,318.3z"/>
				<rect x="-2.2" y="-192" class="st16" width="1050" height="604"/>
			</g>
		</g>
	</g>
</g>
</svg>
