<svg xmlns="http://www.w3.org/2000/svg" xmlns:xlink="http://www.w3.org/1999/xlink" viewBox="0 0 275.41 329"><defs><style>.cls-1{fill:#a8a8a8;}.cls-2{fill:#b5b5b5;}.cls-3{fill:#c6c6c6;}.cls-4{fill:#d3d3d3;}.cls-5{fill:#ddd;}.cls-6{fill:#cecece;}.cls-7{fill:#eae8e8;}.cls-8{fill:#efefef;}.cls-9{opacity:0.35;fill:url(#linear-gradient);}.cls-10{fill:#e5e5e5;}.cls-11{fill:#9b9a9a;}.cls-12{fill:#495750;}.cls-13{fill:#ccc;}.cls-14{fill:#e8e8e8;}.cls-15{fill:#249daa;}.cls-16{fill:#1b6d6b;}.cls-17{fill:#2bd0d8;}.cls-18{fill:#2b2b2b;}.cls-19{opacity:0.74;}.cls-20{opacity:0.41;}.cls-21{fill:#f9b9b9;}.cls-22{fill:#eaeaea;}.cls-23{fill:#a3a3a3;}.cls-24{fill:#c1bfbf;}.cls-25{fill:#939393;}.cls-26,.cls-27{fill:#1dcaf2;}.cls-27{opacity:0.3;}.cls-28{fill:#492812;}.cls-29{fill:#86502a;}.cls-30{fill:#784418;}.cls-31{fill:#b87f50;}.cls-32{fill:#5d3b20;}.cls-33{fill:#683f29;}.cls-34{fill:#5c2f0b;}.cls-35{fill:url(#radial-gradient);}.cls-36{fill:url(#radial-gradient-2);}.cls-37{fill:url(#radial-gradient-3);}.cls-38{opacity:0.76;}.cls-39{fill:url(#radial-gradient-4);}.cls-40{opacity:0.49;}.cls-41{fill:url(#radial-gradient-5);}.cls-42{opacity:0.7;}.cls-43{fill:url(#linear-gradient-2);}.cls-44{fill:#e2e0e0;}.cls-45{fill:#603813;}.cls-46{fill:none;}.cls-47{fill:url(#radial-gradient-6);}.cls-48{fill:url(#radial-gradient-7);}.cls-49{fill:url(#linear-gradient-3);}.cls-50{fill:#212121;opacity:0.43;}.cls-51{opacity:0.56;}.cls-52{fill:#1e0404;}.cls-53{fill:#f4f2f2;}</style><linearGradient id="linear-gradient" x1="145" y1="85.59" x2="145" y2="74.43" gradientUnits="userSpaceOnUse"><stop offset="0" stop-opacity="0"/><stop offset="1"/></linearGradient><radialGradient id="radial-gradient" cx="126.94" cy="76.73" r="84.57" gradientTransform="translate(-1.03 -89.83) scale(0.85 2.83)" gradientUnits="userSpaceOnUse"><stop offset="0" stop-color="#b87f50" stop-opacity="0.4"/><stop offset="0.11" stop-color="#c2946d" stop-opacity="0.31"/><stop offset="0.31" stop-color="#d0b49a" stop-opacity="0.17"/><stop offset="0.52" stop-color="#dbcbbb" stop-opacity="0.08"/><stop offset="0.74" stop-color="#e1d9ce" stop-opacity="0.02"/><stop offset="1" stop-color="#e3ddd4" stop-opacity="0"/></radialGradient><radialGradient id="radial-gradient-2" cx="84.77" cy="84.83" r="35.04" xlink:href="#radial-gradient"/><radialGradient id="radial-gradient-3" cx="145.77" cy="103.14" r="81.83" gradientTransform="translate(-1.03 -89.83) scale(0.85 2.83)" gradientUnits="userSpaceOnUse"><stop offset="0" stop-color="#b87f50" stop-opacity="0.3"/><stop offset="0.22" stop-color="#caa687" stop-opacity="0.17"/><stop offset="0.46" stop-color="#d8c5b2" stop-opacity="0.08"/><stop offset="0.71" stop-color="#e0d7cc" stop-opacity="0.02"/><stop offset="1" stop-color="#e3ddd4" stop-opacity="0"/></radialGradient><radialGradient id="radial-gradient-4" cx="279.82" cy="125.42" r="23.42" xlink:href="#radial-gradient-3"/><radialGradient id="radial-gradient-5" cx="233.21" cy="85.68" r="22.76" xlink:href="#radial-gradient-3"/><linearGradient id="linear-gradient-2" x1="-428.03" y1="90.31" x2="-411.71" y2="90.31" gradientTransform="matrix(-0.98, -0.18, -0.18, 0.98, -381.75, -10.66)" xlink:href="#radial-gradient-3"/><radialGradient id="radial-gradient-6" cx="166.59" cy="100.13" r="31.15" gradientTransform="matrix(1, 0, 0, 1, 0, 0)" xlink:href="#radial-gradient-3"/><radialGradient id="radial-gradient-7" cx="-2423.58" cy="127.8" r="31.15" gradientTransform="matrix(-1, 0, 0, 1, -2326.19, 0)" xlink:href="#radial-gradient-3"/><linearGradient id="linear-gradient-3" x1="203.57" y1="131.91" x2="231.18" y2="131.91" gradientTransform="matrix(1, 0, 0, 1, 0, 0)" xlink:href="#radial-gradient-3"/></defs><title>gameover-frame</title><g id="Layer_2" data-name="Layer 2"><g id="Layer_1-2" data-name="Layer 1"><g id="belugawhale"><path class="cls-1" d="M149.52,98.82l-9.33,24.68a3.16,3.16,0,0,1-4.06,1.83c-16.21-4-29.49-11.54-38.2-23.3A13.73,13.73,0,0,1,96.09,98l3.46-9.16A3.16,3.16,0,0,1,103.62,87c13.49,5.61,28.19,9.82,44.07,7.78A3.16,3.16,0,0,1,149.52,98.82Z"/><path class="cls-2" d="M173.5,86.74h7.36a2.53,2.53,0,0,1,2.53,2.53v0a10.26,10.26,0,0,1-10.26,10.26H165.3a1.21,1.21,0,0,1-1.21-1.21V96.15A9.41,9.41,0,0,1,173.5,86.74Z" transform="translate(176.91 290.24) rotate(-119.11)"/><path class="cls-3" d="M138.24,120.8a1.33,1.33,0,0,1-.33,0l-.33-.17-.66.17c-15.6-2.65-29-9.41-37-20.25a11.19,11.19,0,0,1-1.21-2.49l3.16-8.37a.67.67,0,0,1,.63-.43.63.63,0,0,1,.2,0c18.28,7.6,29.72,8.47,36.74,8.47a67.5,67.5,0,0,0,7.66-.44.67.67,0,0,1,.08.61l-8.29,22.53A.64.64,0,0,1,138.24,120.8Z"/><path class="cls-4" d="M169.86,95.58a7.61,7.61,0,0,0,10.34,2.94l1.37-.76L178,91.43a8.46,8.46,0,0,0-11.49-3.27.73.73,0,0,0-.28,1Z"/><path class="cls-2" d="M109.27,86.24h7.84A10.26,10.26,0,0,1,127.37,96.5v0A2.53,2.53,0,0,1,124.84,99h-7.36a9.41,9.41,0,0,1-9.41-9.41V87.45a1.21,1.21,0,0,1,1.21-1.21Z" transform="translate(-20.49 150.42) rotate(-60.89)"/><path class="cls-5" d="M121.61,95.08A7.61,7.61,0,0,1,111.27,98l-1.37-.76,3.52-6.33a8.46,8.46,0,0,1,11.49-3.27.73.73,0,0,1,.28,1Z"/><path class="cls-6" d="M120.82,112.86l.47-4,.87-7.37.32-2.73h0l.16-1.32.45-3.81,0-.41.14-1.16V92l.68-5.77.84-7.14.32-2.67.08-.72c0-.12,0-.24,0-.35s0-.18,0-.27V75a3.47,3.47,0,0,1,.11-.51,3.68,3.68,0,0,1,.49-1,3.73,3.73,0,0,1,1.22-1.14,3.67,3.67,0,0,1,1.85-.5H161a3.67,3.67,0,0,1,1.85.5,3.73,3.73,0,0,1,1.22,1.14,3.68,3.68,0,0,1,.49,1,3.27,3.27,0,0,1,.11.51v.09c0,.09,0,.18,0,.27s0,.24,0,.35l.08.72.32,2.67.72,6.11.07.62,0,.41,1.25,10.62h0l.13,1.11v.11l1.27,10.71.48,4.06C169.18,130.82,120.82,130.82,120.82,112.86Z"/><path class="cls-7" d="M123.48,115l4.39-37.15c0-.21,0-.39,0-.54a1.05,1.05,0,0,1,1-1H161a1.05,1.05,0,0,1,1,1c0,.14,0,.33,0,.54L166.52,115C166.52,123.41,123.48,123.41,123.48,115Z"/><path class="cls-8" d="M145.16,117.15A54.58,54.58,0,0,1,133.3,116l3-32.27H154L157,116A54.59,54.59,0,0,1,145.16,117.15Z"/><path class="cls-1" d="M76.48,90.3H87.26a14.1,14.1,0,0,1,14.1,14.1v0a3.48,3.48,0,0,1-3.48,3.48H87.76A12.94,12.94,0,0,1,74.82,94.95V92a1.66,1.66,0,0,1,1.66-1.66Z" transform="translate(-40.48 131.5) rotate(-62.51)"/><path class="cls-4" d="M93.53,102.3a10.47,10.47,0,0,1-14.1,4.45l-1.91-1,4.6-8.83A11.63,11.63,0,0,1,97.78,92a1,1,0,0,1,.42,1.34Z"/><path class="cls-1" d="M97,72.49h10.12A3.48,3.48,0,0,1,110.63,76v0a14.1,14.1,0,0,1-14.1,14.1H85.74a1.66,1.66,0,0,1-1.66-1.66v-3A12.94,12.94,0,0,1,97,72.49Z" transform="translate(214.4 32.44) rotate(117.49)"/><path class="cls-4" d="M103.11,83.9a10.47,10.47,0,0,0-4.45-14.1l-1.91-1-4.6,8.83A11.63,11.63,0,0,0,97.09,93.3a1,1,0,0,0,1.34-.42Z"/><path class="cls-9" d="M166.08,85.59H123.91l1.14-9.43a1.93,1.93,0,0,1,.06-.38,2.8,2.8,0,0,0,.11-.6c0-.25,0-.5,0-.75h39.48c0,.25,0,.5,0,.75a2.8,2.8,0,0,0,.11.6,1.93,1.93,0,0,1,.06.38Z"/><path class="cls-6" d="M182.38,71.27A3.84,3.84,0,0,1,178.46,75H113.28a3.84,3.84,0,0,1-3.92-3.73l-2.18-38.77a3.75,3.75,0,0,1,.16-1.1,26.36,26.36,0,0,1,.7-5.77h0a30,30,0,0,1,9.58-15.52,36.42,36.42,0,0,1,3-2.35A43.16,43.16,0,0,1,144.71,0h1.08a43.25,43.25,0,0,1,25.54,8,35,35,0,0,1,3,2.41,29.85,29.85,0,0,1,9.32,15.53,26.61,26.61,0,0,1,.63,5.74c0,.19,0,.38,0,.56s0,.17,0,.26Z"/><path class="cls-6" d="M115.42,69.69a10,10,0,1,1,10-10A10.05,10.05,0,0,1,115.42,69.69Z"/><path class="cls-6" d="M175.33,69.69a10,10,0,1,1,10-10A10.05,10.05,0,0,1,175.33,69.69Z"/><path class="cls-10" d="M180.9,67.84a5.76,5.76,0,0,1-5.1,4.84H115.2A5.73,5.73,0,0,1,111,67.76l.17-2.09-2.61-34.16v-.13a.72.72,0,0,1,0-.19l.14-.46v-.47c.08-7.84,3.92-15.23,10.8-20.8A41.82,41.82,0,0,1,145.87.61C166.37.61,183,14,183,30.51c0,.15,0,.3,0,.45v.35s0,0,0,.07v.15l-2.38,33.64h0Z"/><circle class="cls-10" cx="115.42" cy="59.65" r="8.71"/><circle class="cls-10" cx="175.33" cy="59.65" r="8.71"/><path class="cls-11" d="M120.24,63.68a7,7,0,1,0-9,2.26l.3.16.27-.21a9.73,9.73,0,0,1,2.31-1.34,10.39,10.39,0,0,1,1.08-.38,9.85,9.85,0,0,1,4.51-.26L120,64Z"/><path class="cls-12" d="M112.68,54a6.46,6.46,0,0,1,7.14,9.84,10.36,10.36,0,0,0-4.75.27,10.88,10.88,0,0,0-1.13.4,10.27,10.27,0,0,0-2.44,1.42A6.46,6.46,0,0,1,112.68,54Z"/><path class="cls-13" d="M108.28,62a6.43,6.43,0,0,0,3.22,3.92,10.27,10.27,0,0,1,2.44-1.42l6.26-7.33A6.46,6.46,0,0,0,108.28,62Z"/><path class="cls-14" d="M111.44,64.89a11.19,11.19,0,0,1,2-1.11l5.74-6.72a5.61,5.61,0,0,0-10.06,4.68A5.55,5.55,0,0,0,111.44,64.89Z"/><path class="cls-15" d="M111.65,60.31c.68-.28,1.13-.69,1-1s-.39-.33-.84-.33a4.87,4.87,0,0,1,8.35-1.83,6.47,6.47,0,0,1-.37,6.66,10.36,10.36,0,0,0-4.75.27,10.88,10.88,0,0,0-1.13.4,4.87,4.87,0,0,1-2.29-4.17Z"/><path class="cls-16" d="M119.51,63.12a5.83,5.83,0,0,0,.16-5.6,4.25,4.25,0,0,0-4.33-1.23c-1.17.34-2.07,6.93-1.32,7.48.29-.11.58-.21.88-.29A11.11,11.11,0,0,1,119.51,63.12Z"/><path class="cls-11" d="M120.17,64a11.41,11.41,0,0,0-8.61,2l-.13-.17A11.37,11.37,0,0,1,115.23,64a11.25,11.25,0,0,1,5-.23Z"/><path class="cls-17" d="M114.22,56.62c.23,0,0,.54,0,.77a15,15,0,0,0-.67,2.62c0,.54-.19,2.37-.18,2.81s-.35.32-.35.32a5.31,5.31,0,0,1-.78-1.54,3.32,3.32,0,0,1,.49-1.36c.14-.26.5-.92.39-1.33a1.55,1.55,0,0,1,.23-1.5C113.77,57,114,56.57,114.22,56.62Z"/><circle class="cls-18" cx="116.56" cy="60.13" r="3.28" transform="matrix(0.96, -0.28, 0.28, 0.96, -12.15, 34.94)"/><g class="cls-19"><circle class="cls-8" cx="113.85" cy="61.03" r="1.06" transform="translate(-12.51 34.22) rotate(-16.21)"/></g><g class="cls-20"><circle class="cls-8" cx="115.77" cy="61.57" r="0.53" transform="translate(-12.59 34.78) rotate(-16.21)"/></g><ellipse class="cls-21" cx="176.72" cy="68.97" rx="2.94" ry="2.26" transform="translate(-10.93 41.17) rotate(-12.89)"/><ellipse class="cls-21" cx="115.48" cy="68.97" rx="2.26" ry="2.94" transform="translate(22.49 166.15) rotate(-77.11)"/><path class="cls-11" d="M170.42,63.19A7,7,0,1,1,179.28,66l-.31.14-.26-.23a9.73,9.73,0,0,0-2.23-1.47,10.39,10.39,0,0,0-1.06-.44,9.85,9.85,0,0,0-4.49-.51l-.34,0Z"/><path class="cls-12" d="M178.51,53.93a6.46,6.46,0,0,0-7.68,9.42,10.36,10.36,0,0,1,4.73.54,10.88,10.88,0,0,1,1.11.46A10.27,10.27,0,0,1,179,65.91a6.46,6.46,0,0,0-.51-12Z"/><path class="cls-13" d="M182.46,62.17A6.43,6.43,0,0,1,179,65.91a10.27,10.27,0,0,0-2.36-1.55l-5.84-7.67a6.46,6.46,0,0,1,11.62,5.48Z"/><path class="cls-14" d="M179.14,64.9a11.19,11.19,0,0,0-1.92-1.22l-5.35-7a5.61,5.61,0,0,1,9.79,5.23A5.55,5.55,0,0,1,179.14,64.9Z"/><path class="cls-15" d="M179.19,60.32c-.67-.32-1.09-.75-1-1s.41-.31.86-.29a4.87,4.87,0,0,0-8.23-2.29,6.47,6.47,0,0,0,0,6.67,10.36,10.36,0,0,1,4.73.54,10.88,10.88,0,0,1,1.11.46,4.87,4.87,0,0,0,2.52-4Z"/><path class="cls-16" d="M171.18,62.68a5.83,5.83,0,0,1,.16-5.6,4.25,4.25,0,0,1,4.39-1c1.15.4,1.68,7,.9,7.54-.28-.12-.57-.24-.86-.34A11.11,11.11,0,0,0,171.18,62.68Z"/><path class="cls-11" d="M170.47,63.53A11.41,11.41,0,0,1,179,66l.13-.16a11.37,11.37,0,0,0-3.68-2,11.25,11.25,0,0,0-5-.51Z"/><path class="cls-17" d="M176.83,56.48c-.23,0-.08.53,0,.77a15,15,0,0,1,.52,2.65c-.08.53.06,2.38,0,2.81s.33.34.33.34a5.31,5.31,0,0,0,.86-1.49,3.32,3.32,0,0,0-.41-1.38,2.23,2.23,0,0,1-.31-1.35,1.55,1.55,0,0,0-.14-1.51C177.26,56.86,177.06,56.45,176.83,56.48Z"/><circle class="cls-18" cx="174.29" cy="59.85" r="3.28" transform="translate(59.88 204.32) rotate(-70.57)"/><g class="cls-19"><circle class="cls-8" cx="176.95" cy="60.9" r="1.06" transform="translate(60.66 207.53) rotate(-70.57)"/></g><g class="cls-20"><circle class="cls-8" cx="175" cy="61.34" r="0.53" transform="translate(58.95 205.98) rotate(-70.57)"/></g><ellipse class="cls-6" cx="145.86" cy="29.04" rx="34.94" ry="25.06"/><ellipse class="cls-5" cx="145.87" cy="27.69" rx="32.36" ry="22.75"/><ellipse class="cls-22" cx="146.16" cy="21.94" rx="24.54" ry="12.75"/><path class="cls-23" d="M117.75,66c4.73,1.05,9.43,2.19,14.15,3,1.18.19,2.36.35,3.53.43.29,0,.58,0,.86,0h.88c.59,0,1.18,0,1.77-.08s1.16-.12,1.76-.2,1.23-.16,1.85-.2,1.25,0,1.87,0,1.24,0,1.86.09,1.24.14,1.84.23,1.18.17,1.77.22,1.18.11,1.77.14a17.09,17.09,0,0,0,1.72,0c2.37-.17,4.77-.49,7.15-.8s4.77-.67,7.15-1.07q1.79-.28,3.56-.63c.59-.11,1.18-.24,1.77-.37a13.21,13.21,0,0,0,1.74-.5,19.37,19.37,0,0,1-3.41,1.28c-1.16.35-2.34.65-3.51.95-2.36.57-4.73,1.08-7.11,1.51-1.19.22-2.39.42-3.59.6s-2.41.34-3.63.46a16.39,16.39,0,0,1-1.9.08c-.62,0-1.23-.06-1.85-.12s-1.23-.14-1.83-.22-1.18-.16-1.76-.21-1.17-.08-1.76-.09-1.18,0-1.76,0-1.15.1-1.75.17-1.22.15-1.84.19-1.24.06-1.85.07h-.93c-.32,0-.63,0-.95-.06a33.81,33.81,0,0,1-3.65-.57c-2.39-.5-4.73-1.14-7.05-1.85S120,66.85,117.75,66Z"/><path class="cls-24" d="M119.24,45.22a35.53,35.53,0,0,0,12,7.84,38,38,0,0,0,6.86,2,38.73,38.73,0,0,0,7.1.71,39.22,39.22,0,0,0,7.12-.56l1.76-.33,1.74-.42,1.72-.5c.57-.19,1.14-.37,1.7-.57A37.79,37.79,0,0,0,171.51,46a32.83,32.83,0,0,1-12,8.18,36.9,36.9,0,0,1-7,2,39.09,39.09,0,0,1-7.32.64,38.54,38.54,0,0,1-7.31-.79,35.58,35.58,0,0,1-7-2.23A31.21,31.21,0,0,1,119.24,45.22Z"/><path class="cls-24" d="M118.54,44.24A32.65,32.65,0,0,0,131,51.49a42.53,42.53,0,0,0,7,1.65,46.22,46.22,0,0,0,7.2.51,48.19,48.19,0,0,0,7.2-.55,48.85,48.85,0,0,0,7.06-1.59,44.59,44.59,0,0,0,13-6.38,37.78,37.78,0,0,1-12.72,7.25c-.58.22-1.17.38-1.76.57s-1.19.33-1.78.49l-.9.22-.9.19-.91.19-.91.16a47.48,47.48,0,0,1-7.37.62,45.53,45.53,0,0,1-7.38-.59,39.41,39.41,0,0,1-7.16-1.88,32.81,32.81,0,0,1-6.61-3.29A26,26,0,0,1,118.54,44.24Z"/><path class="cls-1" d="M119.07,45.05a35.59,35.59,0,0,0,5.7,4.25,36.19,36.19,0,0,0,6.39,3A39.36,39.36,0,0,0,138,54.1a41.39,41.39,0,0,0,7,.58,43.45,43.45,0,0,0,7-.55,45.36,45.36,0,0,0,6.87-1.63A43.93,43.93,0,0,0,171.51,46a37,37,0,0,1-12.31,7.3l-1.71.58-1.74.5-1.76.43-1.78.35a43,43,0,0,1-7.21.63,41,41,0,0,1-7.21-.66,36.65,36.65,0,0,1-7-2,33,33,0,0,1-6.37-3.39A29.84,29.84,0,0,1,119.07,45.05Z"/><ellipse class="cls-6" cx="145.21" cy="58.82" rx="21.74" ry="1.74"/><path class="cls-10" d="M172,51.2c.76,2.91,5.69,4.13,11,2.74"/><path class="cls-25" d="M172.64,51a3.18,3.18,0,0,0,1.56,2,8.1,8.1,0,0,0,2.75,1,14,14,0,0,0,3,.23q.77,0,1.53-.11t1.53-.25a18,18,0,0,1-3,.69,14.48,14.48,0,0,1-3.15.09,8.91,8.91,0,0,1-3.14-.8,5.06,5.06,0,0,1-1.41-1,3.84,3.84,0,0,1-1-1.56Z"/><path class="cls-10" d="M119.15,51.2c-.76,2.91-5.69,4.13-11,2.74"/><path class="cls-25" d="M119.79,51.37a3.84,3.84,0,0,1-1,1.56,5.07,5.07,0,0,1-1.41,1,8.91,8.91,0,0,1-3.14.8,14.48,14.48,0,0,1-3.15-.09,18,18,0,0,1-3-.69q.76.15,1.53.25t1.53.11a14,14,0,0,0,3-.23,8.1,8.1,0,0,0,2.75-1,3.18,3.18,0,0,0,1.56-2Z"/><rect class="cls-26" x="175.17" y="63.99" width="6.3" height="2.27" rx="1.14" ry="1.14" transform="translate(26.41 -48.73) rotate(16.79)"/><circle class="cls-27" cx="171.49" cy="61.56" r="0.83" transform="translate(63.03 207.96) rotate(-73.21)"/><circle class="cls-27" cx="174.58" cy="62.35" r="0.87" transform="translate(64.47 211.49) rotate(-73.21)"/><circle class="cls-27" cx="179.21" cy="62.71" r="1.35" transform="translate(67.41 216.17) rotate(-73.21)"/><circle class="cls-27" cx="179.89" cy="63.85" r="0.87" transform="translate(66.81 217.63) rotate(-73.21)"/><circle class="cls-27" cx="175.93" cy="63.03" r="0.87" transform="translate(64.77 213.26) rotate(-73.21)"/><circle class="cls-27" cx="172.9" cy="62.5" r="0.87" transform="translate(-4.22 13.23) rotate(-4.33)"/><circle class="cls-27" cx="171.13" cy="62.59" r="0.7" transform="translate(61.78 208.35) rotate(-73.21)"/><rect class="cls-26" x="109.32" y="64.32" width="6.3" height="2.27" rx="1.14" ry="1.14" transform="translate(239.05 95.64) rotate(163.21)"/><circle class="cls-27" cx="119.3" cy="61.89" r="0.83" transform="translate(-12.79 37.09) rotate(-16.79)"/><circle class="cls-27" cx="116.2" cy="62.68" r="0.87" transform="translate(-13.15 36.23) rotate(-16.79)"/><circle class="cls-27" cx="114.85" cy="63.36" r="0.87" transform="translate(-13.41 35.87) rotate(-16.79)"/><circle class="cls-27" cx="110.37" cy="64.19" r="0.87" transform="matrix(0.96, -0.29, 0.29, 0.96, -13.84, 34.61)"/><circle class="cls-27" cx="112.19" cy="63.24" r="1.66" transform="matrix(0.96, -0.29, 0.29, 0.96, -13.48, 35.1)"/><circle class="cls-27" cx="117.88" cy="62.83" r="0.87" transform="translate(46.33 175.64) rotate(-85.67)"/><circle class="cls-27" cx="119.66" cy="62.92" r="0.7" transform="translate(-13.07 37.24) rotate(-16.79)"/></g><path class="cls-28" d="M272.88,310.11l-.31-56.44L272,235.6v-8.66s2-18.19,3.2-25.84l.24-1.52-.2-1.56c-.38-2.87-1.59-14.5-1.59-14.5l.81-20.49.87-20.11L271.14,112H218.77c-24.09,0-214.89,1.55-214.89,1.55L1.63,154.9,2.77,170,3.6,183.2l-.69,2.46L0,220.37l2,26.8a31.48,31.48,0,0,0,.85,3.74c.2,1.44,1.72,38.59,1.72,38.59S14,315.5,18.27,324l29.87,5c10.27-8,20.27-11.17,27.31-16.83l121.63-7.09Z"/><polygon class="cls-29" points="198.33 298.33 73.74 300.83 47.28 317.83 19.97 317.83 6.07 283.58 6.53 240.17 3.05 236.41 1.11 220.18 4.7 184.64 2.48 154.5 4.7 115.09 270.03 115.09 273.91 139.04 272.24 178.45 273.91 193.14 270.58 219.41 269.75 252.64 269.93 303.97 198.33 298.33"/><path class="cls-30" d="M267.42,298.73l-.17-49.45.55-21.17V219s2-19.38,3.1-26.16c-.28-2.17-.71-6.33-1-9.38-.22-2.15-.38-3.75-.38-3.75l.83-23.92.8-16.16-2.84-18.51s-31.57-3-54.8-3S6.5,121,6.5,121L5.35,132.72l-.11,19.46,0,2.14,1,11.4,1.11,17.76.13,2L10,208.67s-5.38,9.64-6.12,12.6a68.43,68.43,0,0,0,1,9l.45.29,3.45,5,.74,16.44s-.19,19.56-.14,20.81c1.9,7.74,8.9,36.44,13.16,39.28,0,0,11.85,3.59,23.89-11.33,6.7-8.3,16.36,10.82,25.45-3.64l.73-1.51,126.57,1Z"/><polygon class="cls-28" points="275.02 142.91 238.72 139.04 275.02 149.09 275.02 142.91"/><polygon class="cls-28" points="3.96 186.03 194.19 182.46 3.79 179.86 3.96 186.03"/><polygon class="cls-28" points="273.33 183.52 194.38 174.59 273.77 186.96 273.33 183.52"/><polygon class="cls-28" points="271.99 225.47 251.43 219.7 213.98 214.9 251.74 223.54 272.05 233.97 271.99 225.47"/><polygon class="cls-28" points="5.4 242.01 22.55 229.88 25.66 227.68 205.95 229.73 25.51 234.1 8.03 250.83 5.68 291.37 5.4 242.01"/><polygon class="cls-28" points="22.73 224.04 25.5 214.77 21.62 224.04 21.34 234.35 22.73 233.32 22.73 224.04"/><path class="cls-31" d="M267.68,142.14l6.1.64.14-3.73-3.88-24H225.1l-32.28.13-188.1-.13L2.49,154.5l1.89,25.11,29.48,1.67L5.54,176.14S3.6,156,3.6,154.5s1.11-37.09,1.66-37.86,263.39,1.55,263.39,1.55.55,0,.83.77,3.33,18.55,3.33,19.32S270.87,141.36,267.68,142.14Z"/><path class="cls-31" d="M270,147.74l3.53,1-1.25,29.75.55,5.22-19-2.51s17,1.93,17.32-.39,1.66-27,1.39-28.59S271.56,149.48,270,147.74Z"/><path class="cls-31" d="M257.08,184.44,273.22,187l.69,6.18-3.33,26.27-.14,5.8-15.24-4.44s14.27,3.28,14.55,2.51,0-4.64.28-5.41,3.6-24.73,3.33-25.5-.55-2.32-1.39-3.09S257.08,184.44,257.08,184.44Z"/><polyline class="cls-31" points="269.38 293.88 268.65 251.09 269.76 234.09 252.23 223.85 270.24 232.93 269.76 252.64 269.93 301.97"/><polygon class="cls-31" points="36.12 184.12 3.76 185.67 1.11 220.18 5.47 191.33 36.12 184.12"/><polygon class="cls-31" points="3.05 236.41 6.32 242.33 21.68 231 21.62 224.04 25.5 214.77 21.34 224.04 20.83 228.17 6.66 238.73 3.05 236.41"/><path class="cls-31" d="M26,235.05l-21,15.46,1.13,16.86S7.75,253.67,8,253.67,26,235.05,26,235.05Z"/><polygon class="cls-31" points="198.33 298.33 73.74 305.83 47.28 322.83 19.97 317.83 47.28 317.17 73.74 300.17 198.33 298.33"/><path class="cls-32" d="M46.43,306.25a3.29,3.29,0,0,0,2.42,2.8A1.62,1.62,0,0,0,51,307.31a3.29,3.29,0,0,0-2.42-2.8A1.62,1.62,0,0,0,46.43,306.25Z"/><g class="cls-20"><path class="cls-32" d="M258.37,291.34a5.16,5.16,0,0,0,3.42,4.68c2,.7,3.66-.27,3.75-2.15a5.16,5.16,0,0,0-3.42-4.68C260.14,288.49,258.46,289.45,258.37,291.34Z"/></g><path class="cls-32" d="M43.9,313.72a1.83,1.83,0,0,0,1.43,1.4c.73.16,1.27-.21,1.21-.82a1.83,1.83,0,0,0-1.43-1.4C44.38,312.74,43.84,313.11,43.9,313.72Z"/><path class="cls-33" d="M14.78,206.24c.08,2.77.94,4.86,1.93,4.67s1.73-2.58,1.66-5.35-.94-4.86-1.93-4.67S14.7,203.48,14.78,206.24Z"/><path class="cls-32" d="M11.62,214.71c0,1.12.48,1.93,1,1.82s.92-1.1.88-2.22-.48-1.93-1-1.82S11.59,213.59,11.62,214.71Z"/><path class="cls-32" d="M14.17,218.67c0,1.6.69,2.77,1.43,2.62s1.31-1.59,1.27-3.19-.69-2.77-1.43-2.62S14.12,217.07,14.17,218.67Z"/><path class="cls-34" d="M209.35,129.77c-7.2-.77-170.27-3.86-173.87-3.09s-30.21,6.18-30.21,6.18l29.11-1.55Z"/><path class="cls-35" d="M5.25,132.66c.16-.05,26.66-5.42,30.22-6.18,2.64-.57,156.78.91,165.86,2.09,3.27.43,6.09.79,8,1V130l-175,1.55L5.26,133.07ZM201.32,129c-8.6-1.12-164-7.46-166.64-6.9-2.87.62-23.73,9-27.8,10.44l27.49-1.41,172.44-1.42Z"/><path class="cls-34" d="M113.54,152.45s-73.82-10.06-76.9-8.8-7.56,13.83-7.56,13.83l74.59-7.54Z"/><path class="cls-36" d="M29.08,157.16c0-.13,4.52-12.6,7.56-13.85s76.82,8.7,76.9,8.81v.68l-9.86-2.52-74.59,7.55Zm83.77-5.22c-2-2.4-73.7-9-76.2-7.94s-6,9.8-7.17,12.81l74.21-7.21Z"/><path class="cls-34" d="M222.09,200.47s-180.24-4.21-184.68-2.1-12.75,11.58-12.75,11.58l11.08-5.26Z"/><path class="cls-37" d="M24.65,209.67c.08-.09,11.89-15.12,12.52-15.12,4.43,0,184.56,5.59,184.93,5.64v.57L35.76,205l-11.08,5.26Zm11.89-15.12c-1.24,0-8.68,12.18-11,14.67l10.16-4.82,183.55-3.94C210.54,199.54,40.24,194.55,36.54,194.55Z"/><g class="cls-38"><path class="cls-34" d="M210.46,247.23s37.41-3.09,41.84-1.55S265,289.52,265,289.52L254,250.32Z"/><path class="cls-39" d="M254,250.53l-43.51-3.09V247c.37,0,37.47-3.07,41.86-1.54s12.68,43.77,12.76,43.84l0,.41Zm-40.72-3.31L254,250.11,264.13,289c-2.27-1.83-9.19-46.31-12.71-47.54-.88-.31-2,0-5,0C237.08,241.45,219.91,246.7,213.24,247.22Z"/></g><g class="cls-40"><path class="cls-34" d="M170.68,152s37.41-4.57,41.84-2.28,12.75,12.56,12.75,12.56l-11.08-5.71Z"/><path class="cls-41" d="M214.19,156.87l-43.51-4.57v-.62c.37,0,37.47-4.54,41.86-2.28S225.21,161.87,225.3,162l0,.6ZM173.47,152l40.73,4.28,10.16,5.23c-2.27-2.7-9.19-16.21-12.71-18-.88-.45-2,0-5,0C197.31,143.46,180.14,151.22,173.47,152Z"/></g><g class="cls-42"><path class="cls-34" d="M14.8,170.08s5.8-2.27,6.52-6.48,1.66-21.07.83-23.9-10.5-1.76-11.88.88A39,39,0,0,0,7.2,151.5c-.12,2.25,1.89,10.45,1.89,10.45a44.61,44.61,0,0,1-.22-9.43c.49-4.35,1.45-8.41,2.71-8.81s8.3-3.06,8.89-.38c0,0,.93,9.87-.09,15.05s-5.93,9.16-6.52,6.48a18.58,18.58,0,0,1,0-9.28c1-4.06,5-1.58,5-1.58l-5.48-3.35s-1.57,6-1.45,8.41,0,9.28.63,10.84S14.8,170.08,14.8,170.08Z"/><path class="cls-43" d="M12.56,170.17c-.51-1.21-.56-5.37-.6-8.4,0-1.08,0-2-.06-2.62-.12-2.51,1.31-8.11,1.48-8.74l0-.1,5.51,3.37,0,.61s-4-2.41-5,1.49a19.52,19.52,0,0,0-.57,4.16,19.21,19.21,0,0,0,.56,4.68c.16.75.77,1,1.62.62,1.8-.76,4.16-3.78,4.81-7.05.95-4.78.15-13.91.08-14.66-.38-1.53-3.19-1.42-8.37.33l-.47.16c-1.28.41-2.21,4.71-2.64,8.61a43.69,43.69,0,0,0,.22,9.13l.27,2L9,162.19c-.21-.85-2-8.38-1.9-10.73a39.28,39.28,0,0,1,3.12-11.15c.74-1.42,3.63-2.29,6.17-2.52s5.31.09,5.77,1.66c.55,1.87.31,8.81.19,11.71-.23,5.3-.65,10.48-1,12.61-.74,4.26-6.29,6.5-6.57,6.61-.08.07-1,.87-1.74.44A1.32,1.32,0,0,1,12.56,170.17Zm-2.27-29.3a38.48,38.48,0,0,0-3,10.67c-.07,1.33.84,5.79,1.58,9a42.26,42.26,0,0,1,0-8.1c.46-4.07,1.42-8.58,2.77-9l.47-.16c3.4-1.15,8-2.42,8.47-.15v.08c0,.41.94,10.11-.11,15.39-.69,3.51-3.09,6.51-4.91,7.29-.53.22-1.45.42-1.71-.77a20.8,20.8,0,0,1-.59-5.12,21.57,21.57,0,0,1,.62-4.61c.49-2,1.7-2.5,2.82-2.42l-3.23-2c-.44,1.72-1.48,6.21-1.4,8,0,.66,0,1.61.06,2.71,0,2.9.09,6.88.54,8,.63,1.5,2.15.17,2.17.16h0a15.76,15.76,0,0,0,3-1.66c2.52-1.79,3.29-3.54,3.48-4.68.35-2,.76-7.2,1-12.32.25-5.81.2-10-.15-11.16a1.57,1.57,0,0,0-.75-.87C18.91,137.6,11.54,138.47,10.29,140.87Z"/></g><polygon class="cls-44" points="261.37 297 229.08 293.76 69.73 302.24 49.77 306.12 28.76 310 12.44 268.7 10.41 123 265.41 123 261.37 297"/><path class="cls-45" d="M261.34,298.38c-10.71-.74-21.68-1.58-32.45-2.71h.29L69.81,303.79l.21,0-20.49,3.91L29,311.41l-1.16.21-.43-1.09L11.18,269.2l-.09-.23v-.25L9.44,123v-1h1l255,.6h.38V123l-4.41,174Zm.06-2.7L265,123l.37.38-255,.6,1-1,2.41,145.7-.09-.48,16.4,41.27-1.59-.88L49,304.76l20.45-4,.1,0h.11L229,291.85h.29c10.3,1,20.38,2.24,30.78,3.65Z"/><g id="titles"><path class="cls-28" d="M250.25,110.85,247.41,128l-4-1s-.64,1.84-1,2a16.33,16.33,0,0,0,0,4l-1,4s-8,21-15,25l-12-10c-7-4-21-9-25.57-9.65H84.59c-2.37.74-24.6,5-24.6,5l-4-.5L43.87,135.47l-1.55-15.83v-5l0-.17c-.43-1.37-3.32-10.66-5.11-14.75l-.38-.87.32-.91c.61-1.66,2.31-6.94,2.31-6.94h.19L116,90.34l72.91-.63,17.85-.15,19.79-.17L235.41,91Z"/><polygon class="cls-29" points="39.19 95.13 44.54 110.3 45.88 129.48 56.59 139.3 84.25 134.84 189.56 134.84 215.41 146 227.41 155 239.09 134.84 239.74 122.29 245.41 125 246.41 111 235.41 92 224.82 90.22 39.19 95.13"/><path class="cls-30" d="M220.59,89.55l-.21,1.17,13.77,13.37s8.66,5.57,9.85,7.27a16,16,0,0,1-1.6,5.23l-.73.17-5.56,2.91-1.19,9.49a30.63,30.63,0,0,1,.22,3.55c-.75,7.29-6.75,20.29-20.21,11.05h0c-5.53-2.76-14.56-6.5-22.72-12.52l-1.18-.87H83.58l-.64.2c-4.19,1.29-23,4.65-23,4.65l-2.11-.2-8-7.48L49,115.33v-5.25S45.72,98.88,44,95c.45-1.25.9-2.2,1.4-4Z"/><line class="cls-46" x1="226.01" y1="91.02" x2="167.55" y2="88.96"/><line class="cls-46" x1="39.4" y1="91.55" x2="40.11" y2="89.57"/><polygon class="cls-28" points="42.27 113.8 75.37 110.46 135.68 107.69 74.88 112.68 42.17 118.7 42.27 113.8"/><polygon class="cls-28" points="241.59 122.5 213.88 117.47 208.86 116.56 148.96 109.02 209.18 118.81 241.3 127.4 241.59 122.5"/><polygon class="cls-28" points="213.65 112.97 209.19 107.62 215.43 112.97 215.88 118.92 213.65 118.33 213.65 112.97"/><path class="cls-31" d="M195.72,88.28"/><path class="cls-31" d="M66.41,91l-26.12.55-1.12,3.57,5.35,15.17.22,3.35,24.54-2.57s-23,1.9-23.43,1.45,0-2.68-.45-3.12-5.8-14.28-5.35-14.73a4.83,4.83,0,0,1,2.23-1.78C43.64,92.45,66.41,91,66.41,91Z"/><polygon class="cls-31" points="74.09 112.86 45.09 118.11 45.87 129.48 56.58 139.3 84.24 134.84 106.78 134.84 84.24 133.5 57.47 137.52 47.65 128.59 45.87 118.78 74.09 112.86"/><polygon class="cls-31" points="246.41 111 234.41 95 225.7 93.79 223.28 93.52 199.46 90.89 191.41 90 194.54 89.91 201.68 89.71 206.8 89.56 226.41 89 235.41 91 246.41 111"/><polygon class="cls-31" points="245.41 125 239.74 122.29 215.88 118.33 215.43 112.97 209.19 107.62 215.88 112.97 216.32 117.88 239.53 121.45 245.41 125"/><path class="cls-31" d="M199.26,117.21l9.93,1.56L240.41,124l-1.32,10.84s-.89-6.25-1.34-6.25-28.56-8.92-28.56-8.92Z"/><polygon class="cls-31" points="149.54 134.84 189.55 134.84 214.41 147 227.41 155 215.41 146 190 132.16 149.54 134.84"/><g class="cls-20"><ellipse class="cls-32" cx="75.65" cy="121.18" rx="12" ry="2.9" transform="translate(-15.96 11.57) rotate(-7.91)"/></g><ellipse class="cls-33" cx="225.79" cy="102.72" rx="2.9" ry="5.13" transform="translate(104.76 319.26) rotate(-85.26)"/><ellipse class="cls-32" cx="232.47" cy="107.72" rx="1.17" ry="2.07" transform="translate(105.91 330.49) rotate(-85.26)"/><ellipse class="cls-32" cx="226.05" cy="109.79" rx="1.68" ry="2.97" transform="translate(97.96 325.99) rotate(-85.26)"/><path class="cls-34" d="M122.62,98.69s60.24-1.78,67.38-.89,20.53,4.91,20.53,4.91l-17.85-2.23Z"/><path class="cls-47" d="M190,97.68c-6.26-.78-53.78.51-65,.83l-2.38.06v.25l2.8.07,67.24,1.71,17.85,2.23,0-.12,0-.12C210.43,102.55,197.08,98.57,190,97.68Zm2.66,2.68-65.57-1.67c14.12-.39,57-1.51,62.88-.77,5.67.71,15.4,3.43,19.06,4.48Z"/><g class="cls-38"><path class="cls-34" d="M141.36,126.36s-60.24-1.78-67.38-.89-20.53,4.91-20.53,4.91l17.85-2.23Z"/><path class="cls-48" d="M139.64,126.19c-9.91-.28-59.28-1.64-65.67-.84-7.07.88-20.41,4.87-20.55,4.91l0,.24,17.84-2.23,68.41-1.75,1.65,0v-.24Zm-84.7,3.88C58.59,129,68.33,126.3,74,125.59c1.41-.18,4.93-.25,9.67-.25,15.08,0,42.46.72,53.2,1L71.29,128Z"/></g><g class="cls-42"><path class="cls-34" d="M215.43,138.41s-10.26-2.23-11.16-4-.89-8.48.89-9.37,19.19,1.78,21.42,3.12,4.46,4,4.46,4.91-4.46,3.57-4.46,3.57,1.78-1.78,1.34-3.57a5.28,5.28,0,0,0-4-4c-2.23-.45-14.73-3.12-16.06-2.23,0,0-2.68,3.57-1.34,5.8s9.82,4.91,11.16,4,2.23-1.78.89-3.57-8.92-1.78-8.92-1.78H219.9s2.23,2.68,1.78,3.57-.89,3.57-2.23,4S215.43,138.41,215.43,138.41Z"/><path class="cls-49" d="M226.65,128c-1.19-.72-6.34-1.73-10.92-2.41s-9.62-1.21-10.61-.72c-1.18.59-1.45,3.31-1.52,4.46a12.48,12.48,0,0,0,.57,5.08c.91,1.8,10.73,4,11.23,4.08a12.29,12.29,0,0,0,3.12.57,3.25,3.25,0,0,0,1-.13c1-.35,1.56-1.93,1.94-3.08a8.8,8.8,0,0,1,.36-1c.47-.93-1.56-3.42-1.8-3.7l0,0H209.64v.24c.07,0,7.54,0,8.82,1.74a2.27,2.27,0,0,1,.62,1.73c-.11.63-.67,1.12-1.48,1.66-.37.25-1.49.2-3-.14-3.18-.71-7.15-2.43-8-3.83-1.24-2.06,1.12-5.38,1.31-5.65.84-.5,5.93.2,15.13,2.09l.83.17a5.16,5.16,0,0,1,3.92,3.92c.43,1.7-1.29,3.44-1.3,3.46l-.7.69.84-.5c.47-.28,4.53-2.74,4.53-3.68S228.9,129.39,226.65,128Zm.52,8.09A3.93,3.93,0,0,0,228,133a5.43,5.43,0,0,0-4.11-4.1l-.83-.17c-6-1.24-14.2-2.8-15.33-2l0,0c-.11.15-2.71,3.67-1.34,5.94.9,1.51,4.93,3.22,8.15,4,.93.21,2.58.5,3.17.1.87-.57,1.47-1.1,1.59-1.82a2.55,2.55,0,0,0-.66-1.92c-.68-.9-2.83-1.36-4.86-1.59h6c.63.76,2.07,2.73,1.74,3.39a8,8,0,0,0-.38,1c-.36,1.11-.86,2.62-1.79,2.93-1.28.43-3.91-.44-3.93-.45h0s-2.59-.57-5.23-1.34c-4.39-1.28-5.6-2.12-5.84-2.61a12.29,12.29,0,0,1-.55-5c.13-2.29.65-3.88,1.39-4.25a4,4,0,0,1,1.43-.16c4.59,0,17.84,2.06,19.87,3.28,2.27,1.36,4.4,4,4.4,4.8C230.93,133.58,228.83,135.08,227.17,136.13Z"/></g><path class="cls-50" d="M250.25,110.85,247.41,128l-4-1s-.64,1.84-1,2a16.33,16.33,0,0,0,0,4l-1,4s-8,21-15,25l-12-10c-7-4-21-9-25.57-9.65H143.4l-1.75-7.51-1-4.46-.89-3.86,0-.12,0-.09,0-.12L135.41,108l-.29-.26,0,0-9.68-8.83-.15-.13-.15-.14-.12-.11L119,93l-2.85-2.6-.08-.07,72.91-.63,17.85-.15L226.41,89l9,2Z"/><g class="cls-51"><path class="cls-52" d="M90.7,102.88l19.36-1.4-1.08,9.1-8.82.35-.38,2.73,7.35-.45.49,7.35-7.38.46-.35,9-8.92.21Z"/><path class="cls-52" d="M120.73,127.62h-.07a5,5,0,0,1-2.4,1.85,9.14,9.14,0,0,1-3.13.52,7.05,7.05,0,0,1-2.66-.51,6.54,6.54,0,0,1-2.21-1.45,7,7,0,0,1-1.5-2.27,7.6,7.6,0,0,1-.56-3,6.21,6.21,0,0,1,.56-2.64,6.63,6.63,0,0,1,1.52-2.1,7,7,0,0,1,2.28-1.4,7.85,7.85,0,0,1,2.85-.51,6.89,6.89,0,0,1,2.71.47,8.61,8.61,0,0,1,1.87,1.07v-1.05a2.15,2.15,0,0,0-1.05-2.13,6.11,6.11,0,0,0-2.73-.52,12.43,12.43,0,0,0-2.87.31q-1.33.31-2.7.73l1.37-5.56a20,20,0,0,1,3.5-.68,35.36,35.36,0,0,1,3.71-.19,14.11,14.11,0,0,1,3.36.4,8.09,8.09,0,0,1,2.89,1.31,6.57,6.57,0,0,1,2,2.35,7.41,7.41,0,0,1,.7,3.53l-.38,13.23-7,.6Zm-4.45-6.48a3.85,3.85,0,0,0-2,.82,1.59,1.59,0,0,0-.67,1.45,1.61,1.61,0,0,0,1,1.21,3.85,3.85,0,0,0,2.22.19,3.56,3.56,0,0,0,2-.87,1.57,1.57,0,0,0,.53-1.44,1.66,1.66,0,0,0-.89-1.14A3.33,3.33,0,0,0,116.28,121.15Z"/><path class="cls-52" d="M131,101.3l8-.35-.42,6.16-7.63.56Zm0,8.85,7.8-.63-.38,20.2-7.42.63Z"/><path class="cls-52" d="M141.52,102.17l7.91-.63-.31,28.18-7.35.63Z"/><path class="cls-52" d="M170.71,127.41a14.91,14.91,0,0,1-4.37,2.22,17.68,17.68,0,0,1-5.15.68,11.25,11.25,0,0,1-4.36-.82,10.71,10.71,0,0,1-3.41-2.22,10.07,10.07,0,0,1-2.24-3.27,10,10,0,0,1-.8-4,12.35,12.35,0,0,1,.84-4.69,10.44,10.44,0,0,1,2.28-3.5,9.72,9.72,0,0,1,3.34-2.19,11,11,0,0,1,4.08-.75,10.38,10.38,0,0,1,6.07,1.79,10.78,10.78,0,0,1,3.83,4.76l-10.46,7.88a2.77,2.77,0,0,0,1,.28,10.46,10.46,0,0,0,1.15.07,5.79,5.79,0,0,0,2.71-.58,10.1,10.1,0,0,0,2-1.38Zm-7.49-11.48a2.53,2.53,0,0,0-1.07-.81,3.82,3.82,0,0,0-1.31-.21,2.75,2.75,0,0,0-1.28.3,3.18,3.18,0,0,0-1,.81,3.84,3.84,0,0,0-.87,2.43,3.14,3.14,0,0,0,.09.89,4,4,0,0,0,.23.54Z"/><path class="cls-52" d="M191.85,129.75l-6.86.46v-2h-.07a4.73,4.73,0,0,1-2.29,1.63,8.81,8.81,0,0,1-2.92.51,8.62,8.62,0,0,1-3.45-.72,9,9,0,0,1-3-2.06,9.94,9.94,0,0,1-2.06-3.31,12.09,12.09,0,0,1-.77-4.44,13.5,13.5,0,0,1,.65-4.22,10.55,10.55,0,0,1,1.87-3.47,8.71,8.71,0,0,1,3-2.34,9.46,9.46,0,0,1,4.11-.86,8.44,8.44,0,0,1,2.24.3,4.76,4.76,0,0,1,1.89,1l-.31-8.33,8-.63Zm-9.7-6.93a3.9,3.9,0,0,0,1.29-.75,3.68,3.68,0,0,0,.82-1,3,3,0,0,0,.33-1.21,3.15,3.15,0,0,0-.17-1.23,3,3,0,0,0-.65-1,3.23,3.23,0,0,0-1-.72,3.67,3.67,0,0,0-1.31-.3,3.8,3.8,0,0,0-1.49.25,3.71,3.71,0,0,0-1.33.77,3.91,3.91,0,0,0-.82,1.07,3,3,0,0,0-.33,1.23,2.94,2.94,0,0,0,.18,1.21,2.71,2.71,0,0,0,.65,1,3.35,3.35,0,0,0,1,.7,3.42,3.42,0,0,0,1.31.28A4.3,4.3,0,0,0,182.16,122.83Z"/></g><path class="cls-53" d="M88.7,100.88l19.36-1.4-1.08,9.1-8.82.35-.38,2.73,7.35-.45.49,7.35-7.38.46-.35,9-8.92.21Z"/><path class="cls-53" d="M118.73,125.62h-.07a5,5,0,0,1-2.4,1.85,9.14,9.14,0,0,1-3.13.52,7.05,7.05,0,0,1-2.66-.51,6.54,6.54,0,0,1-2.21-1.45,7,7,0,0,1-1.5-2.27,7.6,7.6,0,0,1-.56-3,6.21,6.21,0,0,1,.56-2.64,6.63,6.63,0,0,1,1.52-2.1,7,7,0,0,1,2.28-1.4,7.85,7.85,0,0,1,2.85-.51,6.89,6.89,0,0,1,2.71.47,8.61,8.61,0,0,1,1.87,1.07v-1.05a2.15,2.15,0,0,0-1.05-2.13,6.11,6.11,0,0,0-2.73-.52,12.43,12.43,0,0,0-2.87.31q-1.33.31-2.7.73l1.37-5.56a20,20,0,0,1,3.5-.68,35.36,35.36,0,0,1,3.71-.19,14.11,14.11,0,0,1,3.36.4,8.09,8.09,0,0,1,2.89,1.31,6.57,6.57,0,0,1,2,2.35,7.41,7.41,0,0,1,.7,3.53l-.38,13.23-7,.6Zm-4.45-6.48a3.85,3.85,0,0,0-2,.82,1.59,1.59,0,0,0-.67,1.45,1.61,1.61,0,0,0,1,1.21,3.85,3.85,0,0,0,2.22.19,3.56,3.56,0,0,0,2-.87,1.57,1.57,0,0,0,.53-1.44,1.66,1.66,0,0,0-.89-1.14A3.33,3.33,0,0,0,114.28,119.15Z"/><path class="cls-53" d="M129,99.3l8-.35-.42,6.16-7.63.56Zm0,8.85,7.8-.63-.38,20.2-7.42.63Z"/><path class="cls-53" d="M139.52,100.17l7.91-.63-.31,28.18-7.35.63Z"/><path class="cls-53" d="M168.71,125.41a14.91,14.91,0,0,1-4.37,2.22,17.68,17.68,0,0,1-5.15.68,11.25,11.25,0,0,1-4.36-.82,10.71,10.71,0,0,1-3.41-2.22,10.07,10.07,0,0,1-2.24-3.27,10,10,0,0,1-.8-4,12.35,12.35,0,0,1,.84-4.69,10.44,10.44,0,0,1,2.28-3.5,9.72,9.72,0,0,1,3.34-2.19,11,11,0,0,1,4.08-.75,10.38,10.38,0,0,1,6.07,1.79,10.78,10.78,0,0,1,3.83,4.76l-10.46,7.88a2.77,2.77,0,0,0,1,.28,10.46,10.46,0,0,0,1.15.07,5.79,5.79,0,0,0,2.71-.58,10.1,10.1,0,0,0,2-1.38Zm-7.49-11.48a2.53,2.53,0,0,0-1.07-.81,3.82,3.82,0,0,0-1.31-.21,2.75,2.75,0,0,0-1.28.3,3.18,3.18,0,0,0-1,.81,3.84,3.84,0,0,0-.87,2.43,3.14,3.14,0,0,0,.09.89,4,4,0,0,0,.23.54Z"/><path class="cls-53" d="M189.85,127.75l-6.86.46v-2h-.07a4.73,4.73,0,0,1-2.29,1.63,8.81,8.81,0,0,1-2.92.51,8.62,8.62,0,0,1-3.45-.72,9,9,0,0,1-3-2.06,9.94,9.94,0,0,1-2.06-3.31,12.09,12.09,0,0,1-.77-4.44,13.5,13.5,0,0,1,.65-4.22,10.55,10.55,0,0,1,1.87-3.47,8.71,8.71,0,0,1,3-2.34,9.46,9.46,0,0,1,4.11-.86,8.44,8.44,0,0,1,2.24.3,4.76,4.76,0,0,1,1.89,1l-.31-8.33,8-.63Zm-9.7-6.93a3.9,3.9,0,0,0,1.29-.75,3.68,3.68,0,0,0,.82-1,3,3,0,0,0,.33-1.21,3.15,3.15,0,0,0-.17-1.23,3,3,0,0,0-.65-1,3.23,3.23,0,0,0-1-.72,3.67,3.67,0,0,0-1.31-.3,3.8,3.8,0,0,0-1.49.25,3.71,3.71,0,0,0-1.33.77,3.91,3.91,0,0,0-.82,1.07,3,3,0,0,0-.33,1.23,2.94,2.94,0,0,0,.18,1.21,2.71,2.71,0,0,0,.65,1,3.35,3.35,0,0,0,1,.7,3.42,3.42,0,0,0,1.31.28A4.3,4.3,0,0,0,180.16,120.83Z"/></g><path class="cls-28" d="M109,161v1.59h-3.33v8.91h-1.77v-8.91h-3.32V161Z"/><path class="cls-28" d="M112.24,161v10.5h-1.77V161Z"/><path class="cls-28" d="M117.1,161l3.46,7,3.45-7h2.08v10.5h-1.63l0-7.84-3.31,6.75H120l-3.31-6.75v7.84H115V161Z"/><path class="cls-28" d="M136.38,161v1.59h-5.73v2.85h5.13V167h-5.13v2.9h5.91v1.59h-7.68V161Z"/><path class="cls-28" d="M153.48,166.25a5.57,5.57,0,1,1-5.56-5.29A5.37,5.37,0,0,1,153.48,166.25Zm-9.33,0a3.76,3.76,0,0,0,3.78,3.73,3.72,3.72,0,1,0-3.78-3.73Z"/><path class="cls-28" d="M159.74,170a2.59,2.59,0,0,0,2.77-2.83V161h1.77v6.15c0,2.74-1.72,4.42-4.56,4.42s-4.58-1.68-4.58-4.42V161h1.77v6.15A2.62,2.62,0,0,0,159.74,170Z"/><path class="cls-28" d="M174,161v1.59h-3.33v8.91H168.9v-8.91h-3.32V161Z"/><path class="cls-28" d="M176.87,170.63a.95.95,0,1,1-1.89,0,.95.95,0,1,1,1.89,0Zm-.12-9.51v2.59l-.29,4.44h-1.08l-.29-4.44v-2.59Z"/></g></g></svg>