<svg xmlns="http://www.w3.org/2000/svg" viewBox="0 0 53.35 47.68"><defs><style>.cls-1{fill:#05527c;}.cls-2{fill:#097ece;}.cls-3{fill:#008bf8;}.cls-4{fill:#061b28;opacity:0.14;}.cls-5{fill:#fff;}</style></defs><title>home</title><g id="Layer_2" data-name="Layer 2"><g id="Layer_1-2" data-name="Layer 1"><polygon class="cls-1" points="53.35 43.63 52.74 44.49 50.45 47.68 25.61 46.08 22.38 45.87 18.03 45.59 0.36 44.45 0 11.27 0.37 10.19 3.27 1.56 25.61 5.91 28.45 6.46 49 10.47 51.96 15.08 52.63 16.13 53.35 43.63"/><polygon class="cls-2" points="52.64 40.65 49.8 44.55 25.61 43.02 19.51 42.63 0.71 41.43 0.37 10.19 0.36 9.38 3.56 0 25.61 4.23 28.45 4.78 48.37 8.6 51.93 14.07 51.96 15.08 52.64 40.65"/><polygon class="cls-3" points="2.1 38.39 1.79 10.39 4.22 3.27 47.87 11.64 50.55 15.76 51.17 38.98 49.41 41.4 2.1 38.39"/><polygon class="cls-4" points="53.35 43.63 52.74 44.49 22.38 45.87 17.79 46.08 18.03 45.59 19.51 42.63 21.03 39.59 28.45 24.76 28.45 4.78 48.37 8.6 51.93 14.07 51.96 15.08 52.63 16.13 53.35 43.63"/><polygon class="cls-5" points="37.71 21.78 26.9 14.24 16.09 21.78 15.97 21.78 15.97 36.34 22.98 36.34 22.98 26.63 30.87 26.63 30.87 36.34 37.87 36.34 37.87 21.78 37.71 21.78"/><polygon class="cls-5" points="40.41 22.64 26.92 13.2 13.63 22.5 11.96 20.84 26.92 10.37 42.08 20.98 40.41 22.64"/></g></g></svg>