<svg id="Layer_1" data-name="Layer 1" xmlns="http://www.w3.org/2000/svg" viewBox="0 0 118.39 48.15"><defs><style>.cls-1{fill:#0d7a08;}.cls-2{fill:#10b208;}.cls-3{fill:#17c10e;}.cls-4{fill:#076302;opacity:0.14;}.cls-5{fill:#eaeaea;}</style></defs><title>hsignup</title><polygon class="cls-1" points="118.39 44.06 117.03 44.93 111.95 48.15 56.83 46.53 49.66 46.32 40.01 46.03 0.81 44.88 0 11.38 0.81 10.28 7.25 1.58 56.83 5.97 63.14 6.53 108.73 10.57 115.3 15.22 116.78 16.28 118.39 44.06"/><polygon class="cls-2" points="116.82 41.04 110.5 44.99 56.83 43.44 43.3 43.04 1.58 41.83 0.81 10.28 0.79 9.47 7.89 0 56.83 4.27 63.14 4.82 107.34 8.68 115.24 14.21 115.3 15.22 116.82 41.04"/><polygon class="cls-3" points="4.66 38.76 3.97 10.49 9.37 3.3 106.23 11.75 112.17 15.92 113.55 39.36 109.64 41.81 4.66 38.76"/><polygon class="cls-4" points="118.39 44.06 117.03 44.93 49.66 46.32 39.47 46.53 40.01 46.03 43.3 43.04 46.66 39.98 63.14 25 63.14 4.82 107.34 8.68 115.24 14.21 115.3 15.22 116.78 16.28 118.39 44.06"/><path class="cls-5" d="M276.43,394.52q.66.3,1.35.68a5.82,5.82,0,0,1,1.26.94,4.53,4.53,0,0,1,1.35,3.17,5.58,5.58,0,0,1-.49,2.67,5.47,5.47,0,0,1-1.57,2,7.4,7.4,0,0,1-2.42,1.24,11.75,11.75,0,0,1-3,.5,10.41,10.41,0,0,1-1.54-.07,12.87,12.87,0,0,1-1.56-.29,14.51,14.51,0,0,1-1.49-.46q-.73-.27-1.36-.56l1.62-4.56.77.33a10,10,0,0,0,1,.37q.51.17,1.07.3a4,4,0,0,0,1.09.11,3.9,3.9,0,0,0,1.33-.28.77.77,0,0,0,.52-.79.65.65,0,0,0-.37-.55,7.46,7.46,0,0,0-.84-.38l-.84-.23a9.36,9.36,0,0,1-1.12-.41,10.2,10.2,0,0,1-1.2-.62,5.48,5.48,0,0,1-1.11-.87,4.56,4.56,0,0,1-.83-1.18,3.68,3.68,0,0,1-.35-1.54,5.71,5.71,0,0,1,.51-2.65,5.94,5.94,0,0,1,1.51-2,6.76,6.76,0,0,1,2.24-1.26,9.74,9.74,0,0,1,2.73-.5,13.34,13.34,0,0,1,2.66.14,10.89,10.89,0,0,1,2.47.67l-1.26,4.92q-.85-.36-1.56-.61a8.59,8.59,0,0,0-1.64-.37,5.16,5.16,0,0,0-.75,0,4.08,4.08,0,0,0-.88.1,2.21,2.21,0,0,0-.76.31.73.73,0,0,0-.34.6.3.3,0,0,0,.16.27,1.32,1.32,0,0,0,.38.15l.46.08.38.05,1.32.3A6.35,6.35,0,0,1,276.43,394.52Z" transform="translate(-247.61 -372.33)"/><path class="cls-5" d="M280.86,387.75l4.88-.21-.25,3.75-4.65.34Zm0,5.39,4.75-.38L285.4,405l-4.52.38Z" transform="translate(-247.61 -372.33)"/><path class="cls-5" d="M288.57,404.88a14.43,14.43,0,0,0,1.5.43,7.07,7.07,0,0,0,1.57.17,5.52,5.52,0,0,0,.68,0,1.92,1.92,0,0,0,.62-.18,1.19,1.19,0,0,0,.45-.38,1.12,1.12,0,0,0,.17-.65,1.08,1.08,0,0,0-.2-.67,1.42,1.42,0,0,0-.55-.43,2.71,2.71,0,0,0-.8-.21,7.81,7.81,0,0,0-.92-.05A4.22,4.22,0,0,0,290,403a5.44,5.44,0,0,0-1.07.42l.41-1.28a5.32,5.32,0,0,1-2.18-1.87,5.1,5.1,0,0,1-.78-2.87,5.34,5.34,0,0,1,.33-1.8,5,5,0,0,1,1-1.69,5.38,5.38,0,0,1,1.79-1.26,6.28,6.28,0,0,1,2.6-.49,7.42,7.42,0,0,1,1.34.11,8.18,8.18,0,0,1,1.09.28l.36-2.24,3.41,1.47L297.18,394a4.42,4.42,0,0,1,1,1.52,4.84,4.84,0,0,1,.35,1.84,4.54,4.54,0,0,1-.54,2.29,4.94,4.94,0,0,1-1.61,1.65,3.81,3.81,0,0,1,2.09,3.54,4.08,4.08,0,0,1-.49,2,4.21,4.21,0,0,1-1.4,1.48,6.91,6.91,0,0,1-2.17.91,12,12,0,0,1-2.82.31,12.71,12.71,0,0,1-3.11-.32q-1.23-.32-2-.58Zm4.11-6a1.82,1.82,0,0,0,1.09-.6,1.17,1.17,0,0,0,.25-1,1.15,1.15,0,0,0-.65-.81,1.85,1.85,0,0,0-1.23-.11,1.9,1.9,0,0,0-1.09.62,1.14,1.14,0,0,0-.26,1,1.12,1.12,0,0,0,.63.82A1.78,1.78,0,0,0,292.69,398.89Z" transform="translate(-247.61 -372.33)"/><path class="cls-5" d="M304.17,394.27h.08a3.94,3.94,0,0,1,1.44-1.3,3.79,3.79,0,0,1,1.61-.34,3.68,3.68,0,0,1,1.58.32,3.25,3.25,0,0,1,1.15.9,4,4,0,0,1,.71,1.34,5.44,5.44,0,0,1,.25,1.66v8.25l-4.6.38.06-7.76a.74.74,0,0,0-.29-.64,1.11,1.11,0,0,0-.73-.26,1.2,1.2,0,0,0-.74.25.79.79,0,0,0-.33.67l.09,7.69-4.54-.32L299.74,393l4.43-.36Z" transform="translate(-247.61 -372.33)"/><path class="cls-5" d="M331.3,388.38q.13,3.26.18,5.24t.07,3q0,1.07,0,1.41v.34a13,13,0,0,1-.19,2.49,6.57,6.57,0,0,1-.78,2.16,5.34,5.34,0,0,1-1.53,1.66,6.07,6.07,0,0,1-2.42,1,9.69,9.69,0,0,1-3.81.08,5.55,5.55,0,0,1-2.63-1.28,5.39,5.39,0,0,1-1.5-2.38,9.39,9.39,0,0,1-.43-3.17v-.21q0-.21,0-.9t0-1.92q0-1.23.09-3.3t.15-5l6.09,1.07-.55,10a2.66,2.66,0,0,0,0,1,2.46,2.46,0,0,0,.2.62l.13.21a.82.82,0,0,0,.49.28q.28,0,.62-.51a1.86,1.86,0,0,0,.13-.27,4.23,4.23,0,0,0,.21-.86,7.09,7.09,0,0,0,.06-1.51l-.45-8.18Z" transform="translate(-247.61 -372.33)"/><path class="cls-5" d="M337,392.48v1.45a4.69,4.69,0,0,1,1.42-1.1,4,4,0,0,1,1.76-.35,4.87,4.87,0,0,1,2.33.56,5.76,5.76,0,0,1,1.79,1.48,6.94,6.94,0,0,1,1.14,2.08,7.12,7.12,0,0,1,.41,2.35,7.21,7.21,0,0,1-.43,2.46,6.74,6.74,0,0,1-1.2,2.1A6,6,0,0,1,342.3,405a5.18,5.18,0,0,1-2.39.55,5.77,5.77,0,0,1-1.42-.19,3,3,0,0,1-1.35-.77l.13,4.24-4.5.38-.23-16.35Zm2.9,8.25a2.4,2.4,0,0,0,1.29-1.26A1.8,1.8,0,0,0,340,397a2.46,2.46,0,0,0-1.78.2,2.54,2.54,0,0,0-1.32,1.27,1.74,1.74,0,0,0,0,1.52,1.72,1.72,0,0,0,.47.61,1.84,1.84,0,0,0,.69.35,2.39,2.39,0,0,0,.85.06A2.78,2.78,0,0,0,339.85,400.72Z" transform="translate(-247.61 -372.33)"/></svg>