<svg xmlns="http://www.w3.org/2000/svg" viewBox="0 0 213.1 71"><defs><style>.cls-1{opacity:0.56;}.cls-2{fill:#1e0404;}.cls-3{fill:#f4f2f2;}.cls-4{fill:#00b7b2;}.cls-5{fill:#008477;}</style></defs><title>hurryup</title><g id="Layer_2" data-name="Layer 2"><g id="Layer_1-2" data-name="Layer 1"><g id="hurryup"><g class="cls-1"><path class="cls-2" d="M24.55,19.46l10.22-1L33.55,31.32l5.18-.38.42-12.21,10-.49-2.83,27-8.12,1,.46-7.7-3.68.53-.35,8-8.71.17Z"/><path class="cls-2" d="M62,43.92h-.07a4.8,4.8,0,0,1-2.19,2.73,7.21,7.21,0,0,1-3.48.81A5.89,5.89,0,0,1,52,45.9a6,6,0,0,1-1.63-4.53V26.67L58.19,26,58,39a1.48,1.48,0,0,0,.37,1.21,1.79,1.79,0,0,0,1.24.37,1.77,1.77,0,0,0,1.14-.35,1.36,1.36,0,0,0,.4-1.19l-.21-12.35L69,26l-.52,20.82L62,47.14Z"/><path class="cls-2" d="M78.07,26.07V30h.07q.91-3.88,5.25-3.89a14.45,14.45,0,0,1,1.79.1l-1.82,7.46a3.78,3.78,0,0,0-.53,0h-.7a3.66,3.66,0,0,0-2.54,1,3.88,3.88,0,0,0-1.07,3v9l-7.35.63L71,26.7Z"/><path class="cls-2" d="M92.7,26.07V30h.07q.91-3.88,5.25-3.89a14.45,14.45,0,0,1,1.79.1L98,33.63a3.78,3.78,0,0,0-.53,0h-.7a3.66,3.66,0,0,0-2.54,1,3.88,3.88,0,0,0-1.07,3v9l-7.35.63L85.59,26.7Z"/><path class="cls-2" d="M108.8,34.12l1.72-7.7,7.21.63-7.49,26.39-7.91-.63,3-8.23L98.75,27.37l7.63-.95,2.34,7.7Z"/><path class="cls-2" d="M140,43.92h-.07a4.8,4.8,0,0,1-2.19,2.73,7.21,7.21,0,0,1-3.48.81A5.89,5.89,0,0,1,130,45.9a6,6,0,0,1-1.63-4.53V26.67L136.2,26,136,39a1.48,1.48,0,0,0,.37,1.21,1.79,1.79,0,0,0,1.24.37,1.77,1.77,0,0,0,1.14-.35,1.36,1.36,0,0,0,.4-1.19l-.21-12.35,8-.63-.52,20.82-6.44.28Z"/><path class="cls-2" d="M156.4,26.07v2.38a7.71,7.71,0,0,1,2.33-1.8,6.64,6.64,0,0,1,2.89-.58,8,8,0,0,1,3.83.93,9.44,9.44,0,0,1,2.94,2.43,11.41,11.41,0,0,1,1.87,3.41,11.68,11.68,0,0,1,.67,3.87,11.85,11.85,0,0,1-.7,4,11.1,11.1,0,0,1-2,3.45,9.85,9.85,0,0,1-3.06,2.42,8.51,8.51,0,0,1-3.92.91,9.5,9.5,0,0,1-2.33-.31A4.9,4.9,0,0,1,156.71,46l.21,7-7.38.63-.38-26.84Zm4.76,13.55a4,4,0,0,0,2.12-2.07,3,3,0,0,0-1.92-4.08,4,4,0,0,0-2.92.33,4.17,4.17,0,0,0-2.17,2.08,2.85,2.85,0,0,0,0,2.5,2.82,2.82,0,0,0,.77,1,3,3,0,0,0,1.14.58,3.9,3.9,0,0,0,1.4.1A4.59,4.59,0,0,0,161.16,39.62Z"/><path class="cls-2" d="M185.1,48.08a7.82,7.82,0,0,1-1.94-1,6.16,6.16,0,0,1-1.4-1.35A4.23,4.23,0,0,1,181,44.2a2.56,2.56,0,0,1,.09-1.54A2.75,2.75,0,0,1,182,41.4a4,4,0,0,1,1.52-.77,6.15,6.15,0,0,1,1.94-.19,8.3,8.3,0,0,1,2.13.4,7.87,7.87,0,0,1,1.94,1,6.21,6.21,0,0,1,1.4,1.35,4,4,0,0,1,.72,1.54,2.87,2.87,0,0,1-.07,1.54,2.65,2.65,0,0,1-.87,1.24,4.35,4.35,0,0,1-1.52.77,6.13,6.13,0,0,1-1.94.23A7.08,7.08,0,0,1,185.1,48.08Zm6.72-8.19a8.49,8.49,0,0,0-2.08-1,10.69,10.69,0,0,0-5-.42,8.3,8.3,0,0,0-2.15.65l1.86-24.22,10.36-.42Z"/></g><path class="cls-3" d="M23.55,16.46l10.22-1L32.55,28.32l5.18-.38.42-12.21,10-.49-2.83,27-8.12,1,.46-7.7-3.68.53-.35,8-8.71.17Z"/><path class="cls-3" d="M61,40.92h-.07a4.8,4.8,0,0,1-2.19,2.73,7.21,7.21,0,0,1-3.48.81A5.89,5.89,0,0,1,51,42.9a6,6,0,0,1-1.63-4.53V23.67L57.19,23,57,36a1.48,1.48,0,0,0,.37,1.21,1.79,1.79,0,0,0,1.24.37,1.77,1.77,0,0,0,1.14-.35,1.36,1.36,0,0,0,.4-1.19l-.21-12.35L68,23l-.52,20.82L61,44.14Z"/><path class="cls-3" d="M77.07,23.07V27h.07q.91-3.88,5.25-3.89a14.45,14.45,0,0,1,1.79.1l-1.82,7.46a3.78,3.78,0,0,0-.53,0h-.7a3.66,3.66,0,0,0-2.54,1,3.88,3.88,0,0,0-1.07,3v9l-7.35.63L70,23.7Z"/><path class="cls-3" d="M91.7,23.07V27h.07q.91-3.88,5.25-3.89a14.45,14.45,0,0,1,1.79.1L97,30.63a3.78,3.78,0,0,0-.53,0h-.7a3.66,3.66,0,0,0-2.54,1,3.88,3.88,0,0,0-1.07,3v9l-7.35.63L84.59,23.7Z"/><path class="cls-3" d="M107.8,31.12l1.72-7.7,7.21.63-7.49,26.39-7.91-.63,3-8.23L97.75,24.37l7.63-.95,2.34,7.7Z"/><path class="cls-3" d="M139,40.92h-.07a4.8,4.8,0,0,1-2.19,2.73,7.21,7.21,0,0,1-3.48.81A5.89,5.89,0,0,1,129,42.9a6,6,0,0,1-1.63-4.53V23.67L135.2,23,135,36a1.48,1.48,0,0,0,.37,1.21,1.79,1.79,0,0,0,1.24.37,1.77,1.77,0,0,0,1.14-.35,1.36,1.36,0,0,0,.4-1.19l-.21-12.35,8-.63-.52,20.82-6.44.28Z"/><path class="cls-3" d="M155.4,23.07v2.38a7.71,7.71,0,0,1,2.33-1.8,6.64,6.64,0,0,1,2.89-.58,8,8,0,0,1,3.83.93,9.44,9.44,0,0,1,2.94,2.43,11.41,11.41,0,0,1,1.87,3.41,11.68,11.68,0,0,1,.67,3.87,11.85,11.85,0,0,1-.7,4,11.1,11.1,0,0,1-2,3.45,9.85,9.85,0,0,1-3.06,2.42,8.51,8.51,0,0,1-3.92.91,9.5,9.5,0,0,1-2.33-.31A4.9,4.9,0,0,1,155.71,43l.21,7-7.38.63-.38-26.84Zm4.76,13.55a4,4,0,0,0,2.12-2.07,3,3,0,0,0-1.92-4.08,4,4,0,0,0-2.92.33,4.17,4.17,0,0,0-2.17,2.08,2.85,2.85,0,0,0,0,2.5,2.82,2.82,0,0,0,.77,1,3,3,0,0,0,1.14.58,3.9,3.9,0,0,0,1.4.1A4.59,4.59,0,0,0,160.16,36.62Z"/><path class="cls-3" d="M184.1,45.08a7.82,7.82,0,0,1-1.94-1,6.16,6.16,0,0,1-1.4-1.35A4.23,4.23,0,0,1,180,41.2a2.56,2.56,0,0,1,.09-1.54A2.75,2.75,0,0,1,181,38.4a4,4,0,0,1,1.52-.77,6.15,6.15,0,0,1,1.94-.19,8.3,8.3,0,0,1,2.13.4,7.87,7.87,0,0,1,1.94,1,6.21,6.21,0,0,1,1.4,1.35,4,4,0,0,1,.72,1.54,2.87,2.87,0,0,1-.07,1.54,2.65,2.65,0,0,1-.87,1.24,4.35,4.35,0,0,1-1.52.77,6.13,6.13,0,0,1-1.94.23A7.08,7.08,0,0,1,184.1,45.08Zm6.72-8.19a8.49,8.49,0,0,0-2.08-1,10.69,10.69,0,0,0-5-.42,8.3,8.3,0,0,0-2.15.65l1.86-24.22,10.36-.42Z"/><polygon class="cls-4" points="25.67 18.03 19.31 16.52 14.46 20.91 13.93 14.39 8.26 11.13 14.29 8.61 15.64 2.21 19.9 7.17 26.4 6.47 23 12.06 25.67 18.03"/><path class="cls-5" d="M25.67,18c-1-.2-2-.36-3.11-.53s-2.22-.35-3.36-.57l.38-.1c-1.53,1.56-3.1,3.07-4.66,4.6l-1,1L13.75,21l-.36-3.25c-.12-1.08-.25-2.17-.35-3.25l.45.71-2.86-1.58c-1-.53-1.91-1-2.86-1.59L6,11l1.87-.79,6-2.56-.62.75L14.65,2l.43-2L16.4,1.55c1.41,1.66,2.79,3.35,4.18,5l-.78-.31c2.17-.19,4.35-.34,6.52-.52l1.5-.12L27,6.85c-1.21,1.81-2.41,3.64-3.65,5.43l0-.4c.42,1.08.82,2.16,1.18,3.19S25.3,17.09,25.67,18Zm0,0C25.16,17,24.62,16,24.1,15s-1-1.86-1.49-2.78l-.09-.18.12-.22c1-1.93,2.1-3.83,3.15-5.74l.69,1.09c-2.16.29-4.32.61-6.48.88l-.46.06-.33-.37c-1.45-1.63-2.91-3.25-4.34-4.89l1.75-.45L15.32,8.83l-.11.54-.51.21L8.65,12.06l.11-1.8c.94.54,1.87,1.11,2.81,1.67l2.81,1.68.42.25,0,.46c.07,1.09.12,2.18.18,3.27l.17,3.27L14,20.38c1.68-1.39,3.34-2.8,5-4.17l.19-.15.19.06c1,.29,2,.61,3,.94S24.55,17.73,25.67,18Z"/><polygon class="cls-4" points="181.91 66.08 174.82 64.39 169.42 69.28 168.83 62.02 162.51 58.39 169.23 55.59 170.73 48.46 175.48 53.99 182.72 53.21 178.93 59.43 181.91 66.08"/><path class="cls-5" d="M181.91,66.07c-1.11-.22-2.25-.4-3.46-.59s-2.47-.39-3.74-.63l.43-.11c-1.71,1.73-3.45,3.42-5.18,5.12L168.81,71l-.18-1.66-.4-3.62c-.13-1.21-.28-2.41-.39-3.62l.5.79-3.19-1.76C164.08,60.54,163,60,162,59.36l-2-1.12,2.08-.88,6.7-2.85-.69.83,1.54-7.12.48-2.23,1.47,1.73c1.57,1.85,3.1,3.74,4.66,5.6l-.87-.34c2.42-.21,4.84-.38,7.26-.57l1.67-.13-.9,1.34c-1.35,2-2.68,4.05-4.06,6.05l0-.44c.47,1.2.91,2.4,1.32,3.55S181.49,65,181.91,66.07Zm0,0c-.57-1.17-1.17-2.3-1.75-3.36s-1.14-2.07-1.66-3.09l-.1-.2.13-.24c1.14-2.15,2.34-4.26,3.51-6.39L182.8,54c-2.41.32-4.81.68-7.22,1l-.51.06-.36-.41c-1.61-1.82-3.24-3.62-4.83-5.45l1.95-.5-1.46,7.13-.12.6-.57.23-6.74,2.76.13-2c1.05.6,2.09,1.24,3.13,1.86l3.12,1.87.46.28,0,.51c.08,1.21.13,2.42.2,3.64l.19,3.64-1.33-.53c1.87-1.55,3.72-3.12,5.62-4.64l.21-.17.21.06c1.1.32,2.2.67,3.35,1.05S180.65,65.74,181.91,66.07Z"/><polygon class="cls-4" points="211.91 22.55 208.38 21.71 205.69 24.14 205.4 20.53 202.25 18.72 205.6 17.33 206.34 13.78 208.71 16.53 212.31 16.14 210.42 19.24 211.91 22.55"/><path class="cls-5" d="M211.91,22.55c-.55-.11-1.12-.2-1.72-.29s-1.23-.19-1.86-.31l.21-.05c-.85.86-1.72,1.7-2.58,2.55l-.57.56-.09-.82-.2-1.8c-.07-.6-.14-1.2-.19-1.8l.25.39-1.59-.87c-.53-.29-1.06-.58-1.59-.88l-1-.56,1-.44,3.34-1.42-.34.42.77-3.54.24-1.11.73.86c.78.92,1.54,1.86,2.32,2.79l-.43-.17c1.2-.11,2.41-.19,3.62-.29l.83-.07-.45.67c-.67,1-1.34,2-2,3v-.22c.23.6.45,1.2.66,1.77S211.7,22,211.91,22.55Zm0,0c-.29-.58-.58-1.14-.87-1.67s-.57-1-.83-1.54l-.05-.1.06-.12c.57-1.07,1.16-2.12,1.75-3.18l.38.6c-1.2.16-2.39.34-3.59.49l-.25,0-.18-.2c-.8-.9-1.61-1.8-2.41-2.71l1-.25-.73,3.55-.06.3-.28.12-3.35,1.38.06-1c.52.3,1,.62,1.56.93l1.56.93.23.14,0,.25c0,.6.07,1.21.1,1.81l.09,1.81-.66-.26c.93-.77,1.85-1.55,2.8-2.31l.11-.09.11,0c.55.16,1.09.34,1.67.52S211.28,22.38,211.91,22.55Z"/><polygon class="cls-4" points="10.91 48.55 7.38 47.71 4.69 50.14 4.39 46.53 1.25 44.72 4.6 43.33 5.34 39.78 7.71 42.53 11.31 42.14 9.42 45.24 10.91 48.55"/><path class="cls-5" d="M10.91,48.55c-.55-.11-1.12-.2-1.72-.29S8,48.06,7.32,47.94l.21-.05c-.85.86-1.72,1.7-2.58,2.55L4.39,51l-.09-.82-.2-1.8c-.07-.6-.14-1.2-.19-1.8l.25.39-1.59-.87C2,45.79,1.5,45.51,1,45.21l-1-.56,1-.44,3.34-1.42L4,43.21l.77-3.54L5,38.55l.73.86c.78.92,1.54,1.86,2.32,2.79L7.65,42c1.2-.11,2.41-.19,3.62-.29l.83-.07-.45.67c-.67,1-1.34,2-2,3v-.22c.23.6.45,1.2.66,1.77S10.7,48,10.91,48.55Zm0,0c-.29-.58-.58-1.14-.87-1.67s-.57-1-.83-1.54l-.05-.1.06-.12C9.79,44,10.39,43,11,41.94l.38.6c-1.2.16-2.39.34-3.59.49l-.25,0-.18-.2c-.8-.9-1.61-1.8-2.41-2.71l1-.25-.73,3.55-.06.3-.28.12L1.47,45.24l.06-1c.52.3,1,.62,1.56.93l1.56.93.23.14,0,.25c0,.6.07,1.21.1,1.81l.09,1.81-.66-.26c.93-.77,1.85-1.55,2.8-2.31l.11-.09.11,0c.55.16,1.09.34,1.67.52S10.28,48.38,10.91,48.55Z"/></g></g></g></svg>