<svg id="Layer_1" data-name="Layer 1" xmlns="http://www.w3.org/2000/svg" xmlns:xlink="http://www.w3.org/1999/xlink" viewBox="0 0 320.21 206.03"><defs><style>.cls-1{fill:#232323;}.cls-2{fill:#b2b2b2;}.cls-3{fill:#353535;}.cls-4{fill:#0f0f0f;}.cls-5{fill:#e5e5e5;}.cls-6{fill:url(#linear-gradient);}.cls-7{fill:#2b2b2b;}.cls-8{fill:#495750;}.cls-9{fill:#ccc;}.cls-10{fill:#e8e8e8;}.cls-11{fill:#ad6123;}.cls-12{fill:#874616;}.cls-13{fill:#262e26;}.cls-14{fill:#e57929;}.cls-15{opacity:0.74;}.cls-16{fill:#efefef;}.cls-17{opacity:0.41;}.cls-18{fill:#ea8888;}.cls-19{fill:#fff;}.cls-20{fill:#7c7c7c;}.cls-21,.cls-35{fill:#212121;}.cls-21{opacity:0.34;}.cls-22{fill:#492812;}.cls-23{fill:#86502a;}.cls-24{fill:#784418;}.cls-25{fill:none;}.cls-26{fill:#b87f50;}.cls-27{fill:#5d3b20;}.cls-28{fill:#683f29;}.cls-29{fill:#5c2f0b;}.cls-30{fill:url(#radial-gradient);}.cls-31{opacity:0.76;}.cls-32{fill:url(#radial-gradient-2);}.cls-33{opacity:0.7;}.cls-34{fill:url(#linear-gradient-2);}.cls-35{opacity:0.43;}.cls-36{opacity:0.46;}.cls-37{fill:#0c0c0c;}.cls-38{fill:#f4f2f2;}</style><linearGradient id="linear-gradient" x1="276.95" y1="336.58" x2="276.95" y2="324.72" gradientTransform="translate(-31.44 122.31) rotate(-11.52)" gradientUnits="userSpaceOnUse"><stop offset="0" stop-opacity="0"/><stop offset="1"/></linearGradient><radialGradient id="radial-gradient" cx="341.11" cy="407.97" r="46.72" gradientUnits="userSpaceOnUse"><stop offset="0" stop-color="#b87f50" stop-opacity="0.3"/><stop offset="0.22" stop-color="#caa687" stop-opacity="0.17"/><stop offset="0.46" stop-color="#d8c5b2" stop-opacity="0.08"/><stop offset="0.71" stop-color="#e0d7cc" stop-opacity="0.02"/><stop offset="1" stop-color="#e3ddd4" stop-opacity="0"/></radialGradient><radialGradient id="radial-gradient-2" cx="1173.68" cy="449.48" r="46.73" gradientTransform="matrix(-1, 0, 0, 1, 1411, 0)" xlink:href="#radial-gradient"/><linearGradient id="linear-gradient-2" x1="396.58" y1="455.64" x2="437.99" y2="455.64" xlink:href="#radial-gradient"/></defs><title>hwelcome</title><g id="panda"><path class="cls-1" d="M341.75,321.2l-6.27,6.54-.15.15a1.36,1.36,0,0,1-1.92.07l-.16-.19L318,310.5l-.09-.1a1.17,1.17,0,0,1-.13-1.56l.07-.08,2.73-7.39c4.32-9.37,15.61-7.55,21.4-2.19l.06.06C347.93,304.67,352.62,315.39,341.75,321.2Z" transform="translate(-146.39 -294.74)"/><path d="M320.81,312.3l2.23-6.05a6.62,6.62,0,0,1,5.35-4,12.47,12.47,0,0,1,9.52,3.27l.06.06c3.81,3.53,5.19,7.65,4.87,10.16-.27,2.1-1.69,3.8-4.34,5.22l-.57.31-4.83,5Z" transform="translate(-146.39 -294.74)"/><path class="cls-1" d="M258.25,343.29l7.37-22.23a1.17,1.17,0,0,0-.59-1.54l-5.4-5.73c-7.64-6.93-17.32-.84-20.55,6.36l0,.08c-3.28,7.3-3.4,19,8.89,20.09l8.52,3.65A1.36,1.36,0,0,0,258.25,343.29Z" transform="translate(-146.39 -294.74)"/><path d="M263.71,323.94l-4.42-4.7a6.62,6.62,0,0,0-6.51-1.62,12.47,12.47,0,0,0-7.48,6.73l0,.08c-2.13,4.74-1.79,9.07-.5,11.26,1.07,1.82,3,2.84,6,3.11l.65.06,6.42,2.75Z" transform="translate(-146.39 -294.74)"/><path d="M337.86,421a2.9,2.9,0,0,1-.1.29,3.5,3.5,0,0,1-.27.55,4,4,0,0,1-2.6,1.86l-42.74,8.71a4,4,0,0,1-3.11-.68h0a3.61,3.61,0,0,1-.48-.43h0a4,4,0,0,1-1.1-2.48l-.35-4.22-.66-7.87-.24-2.92h0l-.12-1.41-.34-4.07,0-.44-.1-1.24v-.07l-.52-6.16-.64-7.62-.24-2.85-.07-.77c0-.13,0-.25,0-.37s0-.19,0-.28,0-.06,0-.09a3.69,3.69,0,0,1,0-.55,3.91,3.91,0,0,1,.29-1.19,4,4,0,0,1,1-1.44,3.9,3.9,0,0,1,1.82-.92l33.44-6.81a3.9,3.9,0,0,1,2,.13,4,4,0,0,1,1.52.92,3.91,3.91,0,0,1,.73,1,3.48,3.48,0,0,1,.22.51l0,.09c0,.09.06.18.08.28s.06.24.1.36l.24.74.9,2.72,2,6.21.21.63.14.42,3.56,10.8h0l.37,1.13,0,.12,3.59,10.88,1.36,4.12A4.08,4.08,0,0,1,337.86,421Z" transform="translate(-146.39 -294.74)"/><path class="cls-1" d="M292,431.45a1.1,1.1,0,0,1-.87-.2,1.16,1.16,0,0,1-.43-.84l-3.32-39.63c0-.22,0-.42-.07-.57a1.12,1.12,0,0,1,.87-1.25l33.44-6.81a1.12,1.12,0,0,1,1.29.81c0,.14.09.34.16.55l12.46,37.77a1.16,1.16,0,0,1-.06.94,1.1,1.1,0,0,1-.73.52Z" transform="translate(-146.39 -294.74)"/><path class="cls-2" d="M348.26,371.27A4.08,4.08,0,0,1,345,376l-79,16.09a4.08,4.08,0,0,1-4.87-3.05l-5-41a4,4,0,0,1-.07-1.18,28.06,28.06,0,0,1-.5-6.16,31.93,31.93,0,0,1,6.69-18.2,38.72,38.72,0,0,1,2.58-3.08,45.91,45.91,0,0,1,23.66-13.23l1-.2a46,46,0,0,1,28.3,2.91,37.21,37.21,0,0,1,3.59,1.89,31.73,31.73,0,0,1,13,14.2,28.28,28.28,0,0,1,1.88,5.85c0,.2.07.39.11.59s0,.17.06.27Z" transform="translate(-146.39 -294.74)"/><path d="M317,427.31l-7.52,1.53-.1-.72,0-.22-.35-2.55h0l-.1-.74-.31-2.29-.1-.7-.21-1.53-.17-1.27-1.81-13.29a2.22,2.22,0,0,1,1.46-2.47L308,403l.24,0h.4a2.22,2.22,0,0,1,2,1.69L314.38,418l.38,1.36.52,1.85.1.36,1.31,4.67,0,.14Z" transform="translate(-146.39 -294.74)"/><path class="cls-2" d="M315.33,427.65l-4.21.86-.1-.7,0-.23h0l-.61-4.37,0-.21h0l-.42-3-2.06-14.68a.64.64,0,0,1,.22-.62.62.62,0,0,1,.27-.13.6.6,0,0,1,.24,0l.09,0,.15.07a.62.62,0,0,1,.27.4l4.41,16,1.34,4.88.23.83Z" transform="translate(-146.39 -294.74)"/><path class="cls-3" d="M337.47,419.08l.39,1.91a1.84,1.84,0,0,1,0,.76,4,4,0,0,1-3.31,2.64l-15.25,3.11a5.32,5.32,0,0,1-2.12,0,3.93,3.93,0,0,1-.48-.13,3.41,3.41,0,0,1-.62-.27,2.69,2.69,0,0,1-.43-.3l-.17-.15h0a2,2,0,0,1-.55-1l-.39-1.91a1.8,1.8,0,0,1,0-.24,2.2,2.2,0,0,1,.44-1.42h0a3.44,3.44,0,0,1,.44-.51l.12-.11a5.11,5.11,0,0,1,2.34-1.11l15.25-3.11.1,0a5.48,5.48,0,0,1,.93-.09,4.22,4.22,0,0,1,2.4.62,2.46,2.46,0,0,1,.58.53A1.88,1.88,0,0,1,337.47,419.08Z" transform="translate(-146.39 -294.74)"/><path class="cls-4" d="M323.17,425.73c-.34-.13-.59-.28-.89-.42l-.76-.45a12.13,12.13,0,0,1-1.33-.93,13,13,0,0,1-1.09-1c-.08-.08-.18-.17-.25-.25s-.08-.12-.11-.09l-.08,0a.78.78,0,0,0-.25.25c-.24.39-.14,1.07.64,1.5a2,2,0,0,0,.66.22,1.62,1.62,0,0,0,.38,0h.26l-.07,0a10.51,10.51,0,0,1-2.31.48h-.07l.07,0,.18-.07a1.73,1.73,0,0,0,.34-.18,2,2,0,0,0,.53-.46c.55-.7.38-1.37,0-1.64a.77.77,0,0,0-.33-.14h-.09s0,.09-.06.13-.08.22-.13.33a13.21,13.21,0,0,1-.62,1.33,12.28,12.28,0,0,1-.87,1.38l-.53.71c-.22.25-.4.48-.66.74-.34-.13-.6-.28-.9-.42l-.77-.45a12.28,12.28,0,0,1-1.34-.93,13.16,13.16,0,0,1-1.09-1c-.08-.08-.17-.17-.25-.25s-.07-.05-.12-.16l-.14-.3a5.49,5.49,0,0,1-.39-1.32,6.45,6.45,0,0,1,2-5.77,6.84,6.84,0,0,1,1.53-1.08,7,7,0,0,1,.89-.38l.46-.14.21-.06.07,0a10.52,10.52,0,0,1,2.31-.46h.07l.22,0,.48,0a6.7,6.7,0,0,1,2.79.41,6.44,6.44,0,0,1,4.08,4.52,5.56,5.56,0,0,1,.15,1.36v.33a.54.54,0,0,1,0,.19c0,.11-.09.22-.13.33a13.07,13.07,0,0,1-.62,1.33,12.15,12.15,0,0,1-.86,1.38l-.53.71C323.6,425.24,323.42,425.48,323.17,425.73Z" transform="translate(-146.39 -294.74)"/><path class="cls-4" d="M330.61,424.22c-.34-.13-.59-.28-.89-.42l-.76-.45a12.18,12.18,0,0,1-1.33-.93,13.07,13.07,0,0,1-1.09-1c-.08-.08-.18-.17-.25-.25s-.08-.12-.11-.09l-.08,0a.78.78,0,0,0-.25.25c-.24.39-.14,1.07.64,1.5a2,2,0,0,0,.66.22,1.62,1.62,0,0,0,.38,0h.26l-.07,0a10.52,10.52,0,0,1-2.31.48h-.07l.07,0,.18-.07a1.73,1.73,0,0,0,.34-.18,2.05,2.05,0,0,0,.53-.46c.55-.7.38-1.37,0-1.64a.77.77,0,0,0-.33-.14H326s0,.09-.06.13-.08.22-.13.33a13.2,13.2,0,0,1-.62,1.33,12.29,12.29,0,0,1-.87,1.38l-.53.71c-.22.25-.4.48-.66.74-.34-.13-.6-.28-.9-.42l-.77-.45a12.29,12.29,0,0,1-1.34-.93,13.2,13.2,0,0,1-1.09-1c-.08-.08-.17-.17-.25-.25s-.07-.05-.12-.16l-.14-.3a5.49,5.49,0,0,1-.39-1.32,6.45,6.45,0,0,1,2-5.77,6.84,6.84,0,0,1,1.53-1.08,7,7,0,0,1,.89-.38l.46-.14.21-.06.07,0a10.52,10.52,0,0,1,2.32-.46h.07l.22,0,.48,0a6.7,6.7,0,0,1,2.79.41,6.44,6.44,0,0,1,4.08,4.52,5.55,5.55,0,0,1,.15,1.36v.33a.54.54,0,0,1,0,.19c0,.11-.09.22-.13.33a13,13,0,0,1-.62,1.33,12.15,12.15,0,0,1-.86,1.38l-.53.71C331,423.73,330.86,424,330.61,424.22Z" transform="translate(-146.39 -294.74)"/><path class="cls-4" d="M338,422.7c-.34-.13-.59-.28-.89-.42l-.76-.45a12.15,12.15,0,0,1-1.33-.93,13,13,0,0,1-1.09-1c-.08-.08-.18-.17-.25-.25s-.08-.12-.11-.09l-.08,0a.78.78,0,0,0-.25.25c-.24.39-.14,1.07.64,1.5a2,2,0,0,0,.66.22,1.62,1.62,0,0,0,.38,0h.26l-.07,0a10.51,10.51,0,0,1-2.31.48h-.07l.07,0L333,422a1.72,1.72,0,0,0,.34-.18,2,2,0,0,0,.53-.46c.55-.7.38-1.37,0-1.64a.77.77,0,0,0-.33-.14h-.09s0,.09-.06.13-.08.22-.13.33a13.15,13.15,0,0,1-.62,1.33,12.28,12.28,0,0,1-.87,1.38l-.53.71c-.22.25-.4.48-.66.74-.34-.13-.6-.28-.9-.42l-.77-.45a12.3,12.3,0,0,1-1.34-.93,13.2,13.2,0,0,1-1.09-1c-.08-.08-.17-.17-.25-.25s-.07-.05-.12-.16l-.14-.3a5.49,5.49,0,0,1-.39-1.32,6.45,6.45,0,0,1,2-5.77,6.84,6.84,0,0,1,1.53-1.08,7,7,0,0,1,.89-.38l.46-.14.21-.06.07,0a10.52,10.52,0,0,1,2.31-.46h.07l.22,0,.48,0a6.7,6.7,0,0,1,2.79.41,6.44,6.44,0,0,1,4.08,4.52,5.56,5.56,0,0,1,.15,1.36V418a.54.54,0,0,1,0,.19c0,.11-.09.22-.13.33a13.08,13.08,0,0,1-.62,1.33,12.18,12.18,0,0,1-.86,1.38l-.53.71C338.48,422.21,338.3,422.45,338,422.7Z" transform="translate(-146.39 -294.74)"/><path class="cls-3" d="M310.9,424.17l.39,1.91c.29,1.44-1.2,3-3.32,3.4l-15.25,3.11a5.29,5.29,0,0,1-2.12,0,3.78,3.78,0,0,1-1.11-.4,2.7,2.7,0,0,1-.6-.44,2,2,0,0,1-.55-1l-.39-1.91a1.79,1.79,0,0,1,0-.24,2.56,2.56,0,0,1,1-2,5.12,5.12,0,0,1,2.34-1.11l15.25-3.11.1,0a4.6,4.6,0,0,1,3.33.53A2.1,2.1,0,0,1,310.9,424.17Z" transform="translate(-146.39 -294.74)"/><path class="cls-5" d="M345,367.88a6,6,0,0,1-3.29,5.68,5.94,5.94,0,0,1-.89.36l-72.69,14.81a6,6,0,0,1-5.33-4.19l-.26-2.19-4.33-35.73,0-.14a.76.76,0,0,1,0-.21l0-.5-.09-.49c-1.56-8.08.79-16.48,6.63-23.65a43.16,43.16,0,0,1,25-14.57c20.87-4.25,40.66,6.09,44.12,23.07,0,.15.06.31.09.46l0,.22,0,.14,0,.07,0,.15,10.13,34h0Z" transform="translate(-146.39 -294.74)"/><path class="cls-4" d="M304,429.31c-.34-.13-.59-.28-.89-.42l-.76-.45a12.15,12.15,0,0,1-1.33-.93,13.07,13.07,0,0,1-1.09-1c-.08-.08-.18-.17-.25-.25s-.08-.12-.11-.09l-.08,0a.78.78,0,0,0-.25.25c-.24.39-.14,1.07.64,1.5a2,2,0,0,0,.66.22,1.62,1.62,0,0,0,.38,0h.26l-.07,0a10.51,10.51,0,0,1-2.31.48h-.07l.07,0,.18-.07a1.73,1.73,0,0,0,.34-.18,2.05,2.05,0,0,0,.53-.46c.55-.7.38-1.37,0-1.64a.77.77,0,0,0-.33-.14h-.09s0,.09-.06.13-.08.22-.13.33a13.2,13.2,0,0,1-.62,1.33,12.29,12.29,0,0,1-.87,1.38l-.53.71c-.22.25-.4.48-.66.74-.34-.13-.6-.28-.9-.42l-.77-.45a12.28,12.28,0,0,1-1.34-.93,13.2,13.2,0,0,1-1.09-1c-.08-.08-.17-.17-.25-.25s-.07-.05-.12-.16l-.14-.3a5.5,5.5,0,0,1-.39-1.32,6.45,6.45,0,0,1,2-5.77,6.84,6.84,0,0,1,1.53-1.08,7,7,0,0,1,.89-.38l.46-.14.21-.06.07,0a10.52,10.52,0,0,1,2.32-.46h.07l.22,0,.48,0a6.7,6.7,0,0,1,2.79.41,6.44,6.44,0,0,1,4.08,4.52,5.56,5.56,0,0,1,.15,1.36v.33a.53.53,0,0,1,0,.19c0,.11-.09.22-.13.33a13,13,0,0,1-.62,1.33,12.14,12.14,0,0,1-.86,1.38l-.53.71C304.47,428.82,304.29,429.06,304,429.31Z" transform="translate(-146.39 -294.74)"/><path class="cls-4" d="M296.6,430.82c-.34-.13-.59-.28-.89-.42L295,430a12.12,12.12,0,0,1-1.33-.93,13,13,0,0,1-1.09-1c-.08-.08-.18-.17-.25-.25s-.08-.12-.11-.09l-.08,0a.78.78,0,0,0-.25.25c-.24.39-.14,1.07.64,1.5a2,2,0,0,0,.66.22,1.62,1.62,0,0,0,.38,0h.26l-.07,0a10.52,10.52,0,0,1-2.31.48h-.07l.07,0,.18-.07a1.73,1.73,0,0,0,.34-.18,2,2,0,0,0,.53-.46c.55-.7.38-1.37,0-1.64a.77.77,0,0,0-.33-.14H292s0,.09-.06.13-.08.22-.13.33a13.21,13.21,0,0,1-.62,1.33,12.25,12.25,0,0,1-.87,1.38l-.53.71c-.22.25-.4.48-.66.74-.34-.13-.6-.28-.9-.42l-.77-.45a12.27,12.27,0,0,1-1.34-.93,13.16,13.16,0,0,1-1.09-1c-.08-.08-.17-.17-.25-.25s-.07-.05-.12-.16l-.14-.3a5.49,5.49,0,0,1-.39-1.32,6.45,6.45,0,0,1,2-5.77,6.84,6.84,0,0,1,1.53-1.08,7,7,0,0,1,.89-.38l.46-.14.21-.06.07,0a10.52,10.52,0,0,1,2.32-.46h.07l.22,0,.48,0a6.7,6.7,0,0,1,2.79.41,6.44,6.44,0,0,1,4.08,4.52,5.56,5.56,0,0,1,.15,1.36v.33a.54.54,0,0,1,0,.19c0,.11-.09.22-.13.33a13,13,0,0,1-.62,1.33,12.15,12.15,0,0,1-.86,1.38l-.53.71C297,430.33,296.86,430.57,296.6,430.82Z" transform="translate(-146.39 -294.74)"/><path class="cls-4" d="M311.48,427.79c-.34-.13-.59-.28-.89-.42l-.76-.45a12.14,12.14,0,0,1-1.33-.93,13,13,0,0,1-1.09-1c-.08-.08-.18-.17-.25-.25s-.08-.12-.11-.09l-.08,0a.78.78,0,0,0-.25.25c-.24.39-.14,1.07.64,1.5a2,2,0,0,0,.66.22,1.62,1.62,0,0,0,.38,0h.26l-.07,0a10.51,10.51,0,0,1-2.31.48h-.07l.07,0,.18-.07a1.73,1.73,0,0,0,.34-.18,2,2,0,0,0,.53-.46c.55-.7.38-1.37,0-1.64a.77.77,0,0,0-.33-.14h-.09s0,.09-.06.13-.08.22-.13.33a13.15,13.15,0,0,1-.62,1.33,12.28,12.28,0,0,1-.87,1.38l-.53.71c-.22.25-.4.48-.66.74-.34-.13-.6-.28-.9-.42l-.77-.45a12.28,12.28,0,0,1-1.34-.93,13.2,13.2,0,0,1-1.09-1c-.08-.08-.17-.17-.25-.25s-.07-.05-.12-.16l-.14-.3a5.48,5.48,0,0,1-.39-1.32,6.45,6.45,0,0,1,2-5.77,6.84,6.84,0,0,1,1.53-1.08,7,7,0,0,1,.89-.38l.46-.14.21-.06.07,0a10.52,10.52,0,0,1,2.31-.46h.07l.22,0,.48,0a6.7,6.7,0,0,1,2.79.41,6.44,6.44,0,0,1,4.08,4.52,5.55,5.55,0,0,1,.15,1.36v.33a.54.54,0,0,1,0,.19c0,.11-.09.22-.13.33a13.08,13.08,0,0,1-.62,1.33,12.15,12.15,0,0,1-.86,1.38l-.53.71C311.91,427.3,311.73,427.54,311.48,427.79Z" transform="translate(-146.39 -294.74)"/><path class="cls-6" d="M329.11,392.32l-43.93,9-.81-10.07a2,2,0,0,1,0-.41,3,3,0,0,0,0-.65c-.05-.26-.09-.52-.13-.78L325.35,381c.06.26.13.51.18.77a3,3,0,0,0,.24.6,2,2,0,0,1,.15.38Z" transform="translate(-146.39 -294.74)"/><path class="cls-1" d="M288.31,374.51a19.21,19.21,0,0,0-8.26,2l-.36.18a19.84,19.84,0,0,0-4.11,2.82c-.31.31-.61.63-.87.93l-1,1.16-1.47-.43a14.29,14.29,0,0,1-8.75-7.2,14.43,14.43,0,1,1,26.18-1.22l0,1.69Z" transform="translate(-146.39 -294.74)"/><path class="cls-1" d="M270.29,355.8a13.06,13.06,0,0,0-5.57,17.59,12.92,12.92,0,0,0,7.91,6.51l.61.18.42-.49c.31-.36.63-.7,1-1a21.27,21.27,0,0,1,4.8-3.23,20.61,20.61,0,0,1,8.86-2.19v-.4h-.09l.1-.25a13,13,0,0,0-18-16.69Z" transform="translate(-146.39 -294.74)"/><path class="cls-7" d="M287.67,373.34a10.58,10.58,0,1,0-12.71,6l.5.15.34-.39a14.73,14.73,0,0,1,3-2.68,15.73,15.73,0,0,1,1.49-.88,14.91,14.91,0,0,1,6.62-1.71h.52Z" transform="translate(-146.39 -294.74)"/><path class="cls-8" d="M273.59,361.16a9.78,9.78,0,0,1,13.5,12.5,15.68,15.68,0,0,0-7,1.8,16.47,16.47,0,0,0-1.56.92,15.54,15.54,0,0,0-3.2,2.82,9.77,9.77,0,0,1-1.75-18.06Z" transform="translate(-146.39 -294.74)"/><path class="cls-9" d="M269.42,374.34a9.74,9.74,0,0,0,5.93,4.88,15.54,15.54,0,0,1,3.2-2.82l7.13-12.72a9.78,9.78,0,0,0-16.27,10.66Z" transform="translate(-146.39 -294.74)"/><path class="cls-10" d="M275,377.73a16.93,16.93,0,0,1,2.62-2.23l6.54-11.66a8.49,8.49,0,0,0-13.56,9.9A8.4,8.4,0,0,0,275,377.73Z" transform="translate(-146.39 -294.74)"/><path class="cls-11" d="M273.93,370.88c.93-.62,1.47-1.36,1.25-1.78s-.68-.38-1.35-.25a7.37,7.37,0,0,1,11.85-5.17,9.78,9.78,0,0,1,1.4,10,15.68,15.68,0,0,0-7,1.8,16.47,16.47,0,0,0-1.56.92,7.38,7.38,0,0,1-4.62-5.52Z" transform="translate(-146.39 -294.74)"/><path class="cls-12" d="M286.42,372.73a8.83,8.83,0,0,0-1.41-8.36,6.43,6.43,0,0,0-6.79-.55c-1.63.85-1,10.9.24,11.5.39-.25.8-.48,1.22-.69A16.82,16.82,0,0,1,286.42,372.73Z" transform="translate(-146.39 -294.74)"/><path class="cls-13" d="M287.66,373.86a17.27,17.27,0,0,0-12.19,5.5l-.24-.22a17.21,17.21,0,0,1,5.1-3.79,17,17,0,0,1,7.32-1.81Z" transform="translate(-146.39 -294.74)"/><path class="cls-14" d="M276.65,364.63c.36,0,.23.79.23,1.14a22.77,22.77,0,0,0-.23,4.09c.23.79.41,3.58.56,4.22s-.42.58-.42.58a8,8,0,0,1-1.61-2.05,5,5,0,0,1,.33-2.16,3.37,3.37,0,0,0,.18-2.08,2.35,2.35,0,0,1-.11-2.29C276.09,365.28,276.3,364.63,276.65,364.63Z" transform="translate(-146.39 -294.74)"/><circle class="cls-7" cx="281.16" cy="369.15" r="4.97" transform="translate(-284.82 -123.77) rotate(-27.42)"/><g class="cls-15"><circle class="cls-16" cx="277.4" cy="371.28" r="1.6" transform="translate(-286.22 -125.26) rotate(-27.42)"/></g><g class="cls-17"><circle class="cls-16" cx="280.41" cy="371.53" r="0.8" transform="translate(-285.99 -123.85) rotate(-27.42)"/></g><ellipse class="cls-18" cx="282.94" cy="379.49" rx="6.49" ry="2.4" transform="translate(-261.27 -171.79) rotate(-20.48)"/><path class="cls-1" d="M317.71,368.72a19.21,19.21,0,0,1,8.38-1.49l.4,0a19.84,19.84,0,0,1,4.9.9c.41.16.81.33,1.17.5l1.38.66,1.17-1a14.29,14.29,0,0,0,5.07-10.14,14.43,14.43,0,1,0-24.41,9.54l.67,1.55Z" transform="translate(-146.39 -294.74)"/><path class="cls-1" d="M326.54,344.29a13.06,13.06,0,0,1,12.25,13.8,12.92,12.92,0,0,1-4.58,9.17l-.49.41-.58-.27c-.43-.2-.86-.39-1.31-.55a21.27,21.27,0,0,0-5.7-1,20.61,20.61,0,0,0-9,1.61l-.16-.36.08,0-.2-.18a13,13,0,0,1,9.66-22.58Z" transform="translate(-146.39 -294.74)"/><path class="cls-7" d="M317.81,367.39a10.58,10.58,0,1,1,14.05.32l-.39.33-.47-.22a14.73,14.73,0,0,0-3.87-1.21,15.73,15.73,0,0,0-1.72-.2,14.91,14.91,0,0,0-6.74,1.13l-.48.21Z" transform="translate(-146.39 -294.74)"/><path class="cls-8" d="M325.71,350.53a9.78,9.78,0,0,0-7.24,16.92,15.68,15.68,0,0,1,7.11-1.19,16.47,16.47,0,0,1,1.8.21,15.54,15.54,0,0,1,4.08,1.27,9.77,9.77,0,0,0-5.75-17.21Z" transform="translate(-146.39 -294.74)"/><path class="cls-9" d="M334.89,360.87a9.74,9.74,0,0,1-3.43,6.87,15.54,15.54,0,0,0-4.08-1.27l-11.69-8.71a9.78,9.78,0,0,1,19.2,3.12Z" transform="translate(-146.39 -294.74)"/><path class="cls-10" d="M331.21,366.23a16.93,16.93,0,0,0-3.3-1l-10.72-8a8.49,8.49,0,0,1,16.42,3.52A8.4,8.4,0,0,1,331.21,366.23Z" transform="translate(-146.39 -294.74)"/><path class="cls-11" d="M329.36,359.54c-1.1-.19-1.9-.64-1.87-1.12s.47-.63,1.13-.78a7.37,7.37,0,0,0-12.93.1,9.78,9.78,0,0,0,2.78,9.7,15.68,15.68,0,0,1,7.11-1.19,16.47,16.47,0,0,1,1.8.21,7.38,7.38,0,0,0,2-6.92Z" transform="translate(-146.39 -294.74)"/><path class="cls-12" d="M318.7,366.32a8.83,8.83,0,0,1-2.11-8.21,6.43,6.43,0,0,1,6-3.27c1.84.11,5.39,9.53,4.46,10.6-.46-.06-.93-.11-1.39-.14A16.82,16.82,0,0,0,318.7,366.32Z" transform="translate(-146.39 -294.74)"/><path class="cls-13" d="M318,367.86a17.27,17.27,0,0,1,13.37.06l.13-.29a17.21,17.21,0,0,0-6.2-1.39,17,17,0,0,0-7.43,1.33Z" transform="translate(-146.39 -294.74)"/><path class="cls-14" d="M324.33,354.95c-.33.14.11.81.25,1.14a22.77,22.77,0,0,1,1.87,3.64c.11.81,1.08,3.44,1.2,4.08s.62.36.62.36a8,8,0,0,0,.63-2.53,5,5,0,0,0-1.18-1.84c-.3-.34-1.05-1.19-1-1.83a2.35,2.35,0,0,0-.84-2.14C325.11,355.31,324.66,354.81,324.33,354.95Z" transform="translate(-146.39 -294.74)"/><circle class="cls-7" cx="322.05" cy="360.91" r="4.97" transform="translate(-203.75 366.21) rotate(-86.59)"/><g class="cls-15"><circle class="cls-16" cx="326.36" cy="361.33" r="1.6" transform="translate(-200.12 370.9) rotate(-86.59)"/></g><g class="cls-17"><circle class="cls-16" cx="323.7" cy="362.78" r="0.8" transform="translate(-204.06 369.61) rotate(-86.59)"/></g><ellipse class="cls-18" cx="325.4" cy="370.83" rx="2.4" ry="6.49" transform="translate(-212.5 376.3) rotate(-86.22)"/><ellipse class="cls-16" cx="294.38" cy="328.6" rx="26.64" ry="17.55" transform="translate(-206.09 -229.34) rotate(-11.52)"/><ellipse class="cls-19" cx="293.18" cy="322.27" rx="21.43" ry="10.23" transform="translate(-204.85 -229.71) rotate(-11.52)"/><path class="cls-1" d="M307.18,379.39a5.14,5.14,0,0,1-6,1.41l-3.65-1a2.46,2.46,0,0,1,1.35-4l4.2.22,3.78-1.85a2.46,2.46,0,0,1,2.83,3.2Z" transform="translate(-146.39 -294.74)"/><path class="cls-20" d="M303.64,378.21a3.87,3.87,0,0,1-2.14-.27l-.07,0-3-.85a.72.72,0,0,1,0-.35.68.68,0,0,1,.37-.42l4.37.23,3.93-1.92a.68.68,0,0,1,.5.24.71.71,0,0,1,.17.33l-2,1.71-.06.06A4,4,0,0,1,303.64,378.21Z" transform="translate(-146.39 -294.74)"/><path class="cls-21" d="M341.75,321.2l-6.27,6.54a27.68,27.68,0,0,1,.79,3c0,.2.07.39.11.59s0,.17.06.27l11.82,39.65A4.08,4.08,0,0,1,345,376l-19.84,4,0,.09c0,.09.06.18.08.28s.06.24.1.36l.24.74.9,2.72,2,6.21.21.63.14.42,3.56,10.8h0l.37,1.13,0,.12,3.59,10.88,1.36,4.12a4.08,4.08,0,0,1,0,2.45v0a1.84,1.84,0,0,1,0,.76,4,4,0,0,1-3.31,2.64l-15.25,3.11a5.32,5.32,0,0,1-2.12,0,3.93,3.93,0,0,1-.48-.13l-3.3.67L288.54,306.13l1-.2a46,46,0,0,1,28.3,2.91l.07-.08,2.73-7.39c4.32-9.37,15.61-7.55,21.4-2.19l.06.06C347.93,304.67,352.62,315.39,341.75,321.2Z" transform="translate(-146.39 -294.74)"/></g><g id="titles"><path class="cls-22" d="M466.6,424.05l-4.26,25.73-6-1.5s-1,2.76-1.5,3c-.48,1.24,0,6,0,6l-1.5,6s-12,31.5-22.5,37.5l-18-15c-10.5-6-31.5-13.5-38.36-14.48H218.11c-3.55,1.11-36.9,7.56-36.9,7.56l-6.06-.75L157,461l-2.33-23.74v-7.5s0-.09-.07-.26c-.64-2.05-5-16-7.66-22.12l-.57-1.3.48-1.36c.91-2.49,3.46-10.41,3.46-10.41h.29l114.66-1,109.36-.95,26.78-.22,29.68-.25,13.23,2.41Z" transform="translate(-146.39 -294.74)"/><polygon class="cls-23" points="3.62 105.72 11.65 128.48 13.65 157.26 29.72 171.98 71.22 165.29 229.18 165.29 267.94 182.03 285.94 195.53 303.48 165.29 304.44 146.46 312.94 150.53 314.44 129.53 297.94 101.03 282.06 98.36 3.62 105.72"/><path class="cls-24" d="M422.11,392.1l-.31,1.76,20.66,20.06s13,8.35,14.78,10.91a24,24,0,0,1-2.4,7.84l-1.09.25-8.33,4.37-1.79,14.24a45.94,45.94,0,0,1,.33,5.32c-1.12,10.93-10.12,30.43-30.31,16.58h0c-8.29-4.14-21.85-9.75-34.08-18.77l-1.77-1.31H216.6l-1,.3c-6.29,1.93-34.44,7-34.44,7l-3.17-.3-12-11.22-1.34-18.33,0-7.88s-4.92-16.79-7.49-22.66c.68-1.88,1.35-3.3,2.11-5.95Z" transform="translate(-146.39 -294.74)"/><line class="cls-25" x1="283.86" y1="99.56" x2="196.17" y2="96.47"/><line class="cls-25" x1="3.93" y1="100.36" x2="5" y2="97.39"/><polygon class="cls-22" points="8.25 133.72 57.89 128.72 148.36 124.57 57.16 132.06 8.1 141.09 8.25 133.72"/><polygon class="cls-22" points="307.22 146.78 265.65 139.23 258.13 137.87 168.27 126.56 258.6 141.25 306.79 154.13 307.22 146.78"/><polygon class="cls-22" points="265.31 132.49 258.61 124.46 267.99 132.49 268.65 141.42 265.31 140.52 265.31 132.49"/><path class="cls-26" d="M384.82,390.2" transform="translate(-146.39 -294.74)"/><path class="cls-26" d="M190.84,394.28l-39.17.83L150,400.46l8,22.76.33,5,36.81-3.85s-34.47,2.84-35.14,2.18,0-4-.67-4.69-8.7-21.42-8-22.09a7.24,7.24,0,0,1,3.35-2.68C156.68,396.45,190.84,394.28,190.84,394.28Z" transform="translate(-146.39 -294.74)"/><polygon class="cls-26" points="55.97 132.32 12.47 140.19 13.64 157.26 29.7 171.98 71.2 165.29 105 165.29 71.2 163.28 31.04 169.31 16.31 155.92 13.64 141.19 55.97 132.32"/><polygon class="cls-26" points="314.44 129.53 296.44 105.53 283.38 103.72 279.75 103.31 244.02 99.37 231.94 98.03 236.64 97.9 247.35 97.6 255.03 97.37 284.44 96.53 297.94 99.53 314.44 129.53"/><polygon class="cls-26" points="312.94 150.53 304.44 146.46 268.65 140.52 267.99 132.49 258.61 124.46 268.65 132.49 269.32 139.85 304.13 145.21 312.94 150.53"/><path class="cls-26" d="M390.12,433.59,405,435.94l46.83,7.84-2,16.26s-1.34-9.37-2-9.37S405,437.28,405,437.28Z" transform="translate(-146.39 -294.74)"/><polygon class="cls-26" points="169.15 165.29 229.16 165.29 266.44 183.53 285.94 195.53 267.94 182.03 229.83 161.27 169.15 165.29"/><g class="cls-17"><ellipse class="cls-27" cx="204.71" cy="439.54" rx="18.01" ry="4.35" transform="translate(-204.95 -262.38) rotate(-7.91)"/></g><ellipse class="cls-28" cx="429.92" cy="411.86" rx="4.35" ry="7.7" transform="translate(-162.45 511.53) rotate(-85.26)"/><ellipse class="cls-27" cx="439.94" cy="419.35" rx="1.76" ry="3.11" transform="translate(-160.73 528.39) rotate(-85.26)"/><ellipse class="cls-27" cx="430.3" cy="422.46" rx="2.52" ry="4.46" transform="translate(-172.66 521.63) rotate(-85.26)"/><path class="cls-29" d="M275.16,405.82s90.36-2.68,101.07-1.34S407,411.84,407,411.84l-26.77-3.35Z" transform="translate(-146.39 -294.74)"/><path class="cls-30" d="M376.25,404.3c-9.39-1.17-80.67.77-97.53,1.25-2.19,0-3.46.09-3.57.09V406l4.2.11,100.86,2.56L407,412l0-.18,0-.18C406.87,411.6,386.84,405.63,376.25,404.3Zm4,4-98.36-2.5c21.18-.59,85.45-2.27,94.32-1.16,8.5,1.07,23.1,5.14,28.59,6.72Z" transform="translate(-146.39 -294.74)"/><g class="cls-31"><path class="cls-29" d="M303.27,447.32S212.91,444.64,202.2,446s-30.79,7.36-30.79,7.36L198.18,450Z" transform="translate(-146.39 -294.74)"/><path class="cls-32" d="M300.68,447.06c-14.86-.42-88.92-2.46-98.5-1.26-10.61,1.32-30.61,7.3-30.82,7.37l.07.36,26.76-3.35,102.61-2.62,2.48-.06v-.36Zm-127,5.82c5.47-1.59,20.08-5.66,28.59-6.72,2.11-.27,7.39-.37,14.5-.37,22.62,0,63.69,1.08,79.8,1.52l-98.37,2.52Z" transform="translate(-146.39 -294.74)"/></g><g class="cls-33"><path class="cls-29" d="M414.38,465.39s-15.39-3.35-16.73-6-1.34-12.72,1.34-14.06S427.77,448,431.11,450s6.69,6,6.69,7.36-6.69,5.35-6.69,5.35,2.68-2.68,2-5.35a7.91,7.91,0,0,0-6-6c-3.35-.67-22.09-4.69-24.1-3.35,0,0-4,5.35-2,8.7s14.73,7.36,16.73,6,3.35-2.68,1.34-5.35-13.39-2.68-13.39-2.68h15.39s3.35,4,2.68,5.35-1.34,5.35-3.35,6S414.38,465.39,414.38,465.39Z" transform="translate(-146.39 -294.74)"/><path class="cls-34" d="M431.2,449.84c-1.79-1.08-9.51-2.59-16.38-3.61-6.72-1-14.43-1.82-15.91-1.08-1.77.89-2.18,5-2.28,6.69-.16,3.12.18,6.25.86,7.62,1.36,2.7,16.09,6,16.84,6.12a18.44,18.44,0,0,0,4.68.86,4.88,4.88,0,0,0,1.46-.2c1.56-.52,2.34-2.89,2.91-4.62a13.2,13.2,0,0,1,.54-1.5c.7-1.4-2.34-5.13-2.7-5.55l0-.06H405.68v.36c.11,0,11.31,0,13.23,2.61a3.4,3.4,0,0,1,.93,2.59c-.16.95-1,1.68-2.22,2.49-.55.38-2.23.3-4.48-.21-4.77-1.07-10.73-3.64-12-5.75-1.86-3.09,1.68-8.07,2-8.48,1.26-.75,8.89.3,22.7,3.14l1.24.25a7.75,7.75,0,0,1,5.88,5.88c.64,2.55-1.94,5.16-2,5.19l-1,1,1.26-.75c.71-.42,6.8-4.11,6.8-5.52S434.57,451.86,431.2,449.84ZM432,462a5.89,5.89,0,0,0,1.32-4.67,8.14,8.14,0,0,0-6.16-6.15l-1.25-.25c-9.06-1.86-21.3-4.2-23-3.06l0,0c-.17.23-4.07,5.5-2,8.91,1.35,2.27,7.39,4.83,12.23,5.93,1.39.31,3.87.75,4.75.15,1.3-.86,2.2-1.65,2.38-2.73a3.82,3.82,0,0,0-1-2.88c-1-1.35-4.25-2-7.29-2.38H421c.95,1.14,3.11,4.09,2.61,5.08a12.05,12.05,0,0,0-.57,1.55c-.54,1.66-1.29,3.93-2.68,4.39-1.92.64-5.86-.66-5.89-.68h0s-3.88-.86-7.84-2c-6.59-1.92-8.4-3.18-8.76-3.92-.64-1.29-1-4.41-.82-7.44.2-3.44,1-5.82,2.09-6.37a6,6,0,0,1,2.14-.24c6.89,0,26.76,3.09,29.8,4.92,3.41,2,6.6,6,6.6,7.2C437.62,458.15,434.47,460.4,432,462Z" transform="translate(-146.39 -294.74)"/></g><path class="cls-35" d="M466.6,424.05l-4.26,25.73-6-1.5s-1,2.76-1.5,3c-.48,1.24,0,6,0,6l-1.5,6s-12,31.5-22.5,37.5l-18-15c-10.5-6-31.5-13.5-38.36-14.48H306.32L303.7,460l-1.56-6.69-1.34-5.79,0-.18,0-.13,0-.18-6.34-27.29-.43-.39,0,0-14.52-13.24-.23-.2-.22-.21-.18-.16-9-8.25-4.27-3.9-.12-.11,109.36-.95,26.78-.22,29.41-.84,13.5,3Z" transform="translate(-146.39 -294.74)"/><g class="cls-36"><path class="cls-37" d="M191.63,411.5l14.28-6.19,5.56,17.17,9.5-14.59,7.93,13.76,6.3-18.8,12.07,8.66-13,38.59L221.19,436.7l-13.49,17Z" transform="translate(-146.39 -294.74)"/><path class="cls-37" d="M275.48,445.89a22.36,22.36,0,0,1-6.56,3.33,26.51,26.51,0,0,1-7.72,1,16.87,16.87,0,0,1-6.54-1.23,16.07,16.07,0,0,1-5.12-3.33,15.11,15.11,0,0,1-3.36-4.91,14.94,14.94,0,0,1-1.21-6,18.52,18.52,0,0,1,1.26-7,15.66,15.66,0,0,1,3.41-5.25,14.58,14.58,0,0,1,5-3.28,16.52,16.52,0,0,1,6.12-1.13,15.58,15.58,0,0,1,9.11,2.68,16.17,16.17,0,0,1,5.75,7.14l-15.7,11.81a4.16,4.16,0,0,0,1.52.42,15.69,15.69,0,0,0,1.73.1,8.69,8.69,0,0,0,4.07-.87,15.15,15.15,0,0,0,3-2.07Zm-11.24-17.22a3.79,3.79,0,0,0-1.6-1.21,5.73,5.73,0,0,0-2-.31,4.13,4.13,0,0,0-1.92.45,4.78,4.78,0,0,0-1.5,1.21,5.75,5.75,0,0,0-1.31,3.65,4.71,4.71,0,0,0,.13,1.34,5.94,5.94,0,0,0,.34.81Z" transform="translate(-146.39 -294.74)"/><path class="cls-37" d="M277.42,408l11.87-.94-.47,42.26-11,.94Z" transform="translate(-146.39 -294.74)"/><path class="cls-37" d="M316.92,448a18.51,18.51,0,0,1-3.07,1.23,18.26,18.26,0,0,1-3.2.66,28.32,28.32,0,0,1-3.15.18,17.56,17.56,0,0,1-6.59-1.21,16.27,16.27,0,0,1-5.25-3.33,15.37,15.37,0,0,1-3.49-5,15.14,15.14,0,0,1-1.26-6.17,17.42,17.42,0,0,1,1.31-6.9,14.77,14.77,0,0,1,3.65-5.2,16,16,0,0,1,5.54-3.25,20.71,20.71,0,0,1,6.93-1.13,16.06,16.06,0,0,1,6.48,1.21,30.48,30.48,0,0,1,4.65,2.47l-6.93,9.08a6.43,6.43,0,0,0-1.71-.94,9.93,9.93,0,0,0-2-.53,9,9,0,0,0-1.92-.11,3.55,3.55,0,0,0-1.5.37,7,7,0,0,0-1.71,1.23,5.49,5.49,0,0,0-1.1,1.55,4,4,0,0,0-.37,1.81,5.2,5.2,0,0,0,3.54,4.54,6,6,0,0,0,4.09-.58l2.68-1.37,7.14,9.45A13.5,13.5,0,0,1,316.92,448Z" transform="translate(-146.39 -294.74)"/><path class="cls-37" d="M351.71,431.72a16.27,16.27,0,0,1-.34,6.75,15.17,15.17,0,0,1-2.78,5.51,15.5,15.5,0,0,1-4.78,3.94,18.43,18.43,0,0,1-6.38,2,19.56,19.56,0,0,1-6.72-.21,15.51,15.51,0,0,1-5.72-2.44,14.82,14.82,0,0,1-4.2-4.51,16.1,16.1,0,0,1-2.15-6.38,16.32,16.32,0,0,1,.34-6.75,15.14,15.14,0,0,1,7.56-9.5,18.44,18.44,0,0,1,6.38-2,19.38,19.38,0,0,1,6.69.21,15.54,15.54,0,0,1,5.7,2.44,14.76,14.76,0,0,1,4.2,4.54A17,17,0,0,1,351.71,431.72Zm-22,4.46a4.56,4.56,0,0,0,2.83,2.68,6.21,6.21,0,0,0,4.41-.42,6.38,6.38,0,0,0,3.33-2.86,4.44,4.44,0,0,0,.08-3.86,4.66,4.66,0,0,0-2.83-2.65,6,6,0,0,0-4.36.39,6.34,6.34,0,0,0-3.39,2.89A4.39,4.39,0,0,0,329.66,436.18Z" transform="translate(-146.39 -294.74)"/><path class="cls-37" d="M385.72,431.09a2,2,0,0,0-.73-1.63,2.88,2.88,0,0,0-1.94-.63,2.59,2.59,0,0,0-2,.79,2.38,2.38,0,0,0-.74,1.63l.31,18-11.39.94.21-19a2,2,0,0,0-.74-1.71,3.29,3.29,0,0,0-3.91,0,2,2,0,0,0-.81,1.78l.52,19-11-.94-.63-29.87,10.71-.94v4.83h.11a13.44,13.44,0,0,1,3.81-3.54,9.71,9.71,0,0,1,5.12-1.29,9.87,9.87,0,0,1,4.12.76,8.76,8.76,0,0,1,3,2.39,11.27,11.27,0,0,1,3.1-2.28,8.45,8.45,0,0,1,3.83-.87,10.1,10.1,0,0,1,4.17.81,8.43,8.43,0,0,1,3,2.28,10.41,10.41,0,0,1,1.89,3.44,14.44,14.44,0,0,1,.71,4.23l.31,20-11.39.94Z" transform="translate(-146.39 -294.74)"/><path class="cls-37" d="M428.09,445.89a22.36,22.36,0,0,1-6.56,3.33,26.51,26.51,0,0,1-7.72,1,16.87,16.87,0,0,1-6.54-1.23,16.07,16.07,0,0,1-5.12-3.33,15.11,15.11,0,0,1-3.36-4.91,14.94,14.94,0,0,1-1.21-6,18.52,18.52,0,0,1,1.26-7,15.66,15.66,0,0,1,3.41-5.25,14.58,14.58,0,0,1,5-3.28,16.52,16.52,0,0,1,6.12-1.13,15.58,15.58,0,0,1,9.11,2.68,16.17,16.17,0,0,1,5.75,7.14l-15.7,11.81a4.16,4.16,0,0,0,1.52.42,15.69,15.69,0,0,0,1.73.1,8.69,8.69,0,0,0,4.07-.87,15.15,15.15,0,0,0,3-2.07Zm-11.24-17.22a3.79,3.79,0,0,0-1.6-1.21,5.73,5.73,0,0,0-2-.31,4.13,4.13,0,0,0-1.92.45,4.78,4.78,0,0,0-1.5,1.21,5.75,5.75,0,0,0-1.31,3.65,4.71,4.71,0,0,0,.13,1.34,5.94,5.94,0,0,0,.34.81Z" transform="translate(-146.39 -294.74)"/></g><path class="cls-38" d="M188.63,408.5l14.28-6.19,5.56,17.17,9.5-14.59,7.93,13.76,6.3-18.8,12.07,8.66-13,38.59L218.19,433.7l-13.49,17Z" transform="translate(-146.39 -294.74)"/><path class="cls-38" d="M272.48,442.89a22.36,22.36,0,0,1-6.56,3.33,26.51,26.51,0,0,1-7.72,1,16.87,16.87,0,0,1-6.54-1.23,16.07,16.07,0,0,1-5.12-3.33,15.11,15.11,0,0,1-3.36-4.91,14.94,14.94,0,0,1-1.21-6,18.52,18.52,0,0,1,1.26-7,15.66,15.66,0,0,1,3.41-5.25,14.58,14.58,0,0,1,5-3.28,16.52,16.52,0,0,1,6.12-1.13,15.58,15.58,0,0,1,9.11,2.68,16.17,16.17,0,0,1,5.75,7.14l-15.7,11.81a4.16,4.16,0,0,0,1.52.42,15.69,15.69,0,0,0,1.73.1,8.69,8.69,0,0,0,4.07-.87,15.15,15.15,0,0,0,3-2.07Zm-11.24-17.22a3.79,3.79,0,0,0-1.6-1.21,5.73,5.73,0,0,0-2-.31,4.13,4.13,0,0,0-1.92.45,4.78,4.78,0,0,0-1.5,1.21,5.75,5.75,0,0,0-1.31,3.65,4.71,4.71,0,0,0,.13,1.34,5.94,5.94,0,0,0,.34.81Z" transform="translate(-146.39 -294.74)"/><path class="cls-38" d="M274.42,405l11.87-.94-.47,42.26-11,.94Z" transform="translate(-146.39 -294.74)"/><path class="cls-38" d="M313.92,445a18.51,18.51,0,0,1-3.07,1.23,18.26,18.26,0,0,1-3.2.66,28.32,28.32,0,0,1-3.15.18,17.56,17.56,0,0,1-6.59-1.21,16.27,16.27,0,0,1-5.25-3.33,15.37,15.37,0,0,1-3.49-5,15.14,15.14,0,0,1-1.26-6.17,17.42,17.42,0,0,1,1.31-6.9,14.77,14.77,0,0,1,3.65-5.2,16,16,0,0,1,5.54-3.25,20.71,20.71,0,0,1,6.93-1.13,16.06,16.06,0,0,1,6.48,1.21,30.48,30.48,0,0,1,4.65,2.47l-6.93,9.08a6.43,6.43,0,0,0-1.71-.94,9.93,9.93,0,0,0-2-.53,9,9,0,0,0-1.92-.11,3.55,3.55,0,0,0-1.5.37,7,7,0,0,0-1.71,1.23,5.49,5.49,0,0,0-1.1,1.55,4,4,0,0,0-.37,1.81,5.2,5.2,0,0,0,3.54,4.54,6,6,0,0,0,4.09-.58l2.68-1.37,7.14,9.45A13.5,13.5,0,0,1,313.92,445Z" transform="translate(-146.39 -294.74)"/><path class="cls-38" d="M348.71,428.72a16.27,16.27,0,0,1-.34,6.75,15.17,15.17,0,0,1-2.78,5.51,15.5,15.5,0,0,1-4.78,3.94,18.43,18.43,0,0,1-6.38,2,19.56,19.56,0,0,1-6.72-.21,15.51,15.51,0,0,1-5.72-2.44,14.82,14.82,0,0,1-4.2-4.51,16.1,16.1,0,0,1-2.15-6.38,16.32,16.32,0,0,1,.34-6.75,15.14,15.14,0,0,1,7.56-9.5,18.44,18.44,0,0,1,6.38-2,19.38,19.38,0,0,1,6.69.21,15.54,15.54,0,0,1,5.7,2.44,14.76,14.76,0,0,1,4.2,4.54A17,17,0,0,1,348.71,428.72Zm-22,4.46a4.56,4.56,0,0,0,2.83,2.68,6.21,6.21,0,0,0,4.41-.42,6.38,6.38,0,0,0,3.33-2.86,4.44,4.44,0,0,0,.08-3.86,4.66,4.66,0,0,0-2.83-2.65,6,6,0,0,0-4.36.39,6.34,6.34,0,0,0-3.39,2.89A4.39,4.39,0,0,0,326.66,433.18Z" transform="translate(-146.39 -294.74)"/><path class="cls-38" d="M382.72,428.09a2,2,0,0,0-.73-1.63,2.88,2.88,0,0,0-1.94-.63,2.59,2.59,0,0,0-2,.79,2.38,2.38,0,0,0-.74,1.63l.31,18-11.39.94.21-19a2,2,0,0,0-.74-1.71,3.29,3.29,0,0,0-3.91,0,2,2,0,0,0-.81,1.78l.52,19-11-.94-.63-29.87,10.71-.94v4.83h.11a13.44,13.44,0,0,1,3.81-3.54,9.71,9.71,0,0,1,5.12-1.29,9.87,9.87,0,0,1,4.12.76,8.76,8.76,0,0,1,3,2.39,11.27,11.27,0,0,1,3.1-2.28,8.45,8.45,0,0,1,3.83-.87,10.1,10.1,0,0,1,4.17.81,8.43,8.43,0,0,1,3,2.28,10.41,10.41,0,0,1,1.89,3.44,14.44,14.44,0,0,1,.71,4.23l.31,20-11.39.94Z" transform="translate(-146.39 -294.74)"/><path class="cls-38" d="M425.09,442.89a22.36,22.36,0,0,1-6.56,3.33,26.51,26.51,0,0,1-7.72,1,16.87,16.87,0,0,1-6.54-1.23,16.07,16.07,0,0,1-5.12-3.33,15.11,15.11,0,0,1-3.36-4.91,14.94,14.94,0,0,1-1.21-6,18.52,18.52,0,0,1,1.26-7,15.66,15.66,0,0,1,3.41-5.25,14.58,14.58,0,0,1,5-3.28,16.52,16.52,0,0,1,6.12-1.13,15.58,15.58,0,0,1,9.11,2.68,16.17,16.17,0,0,1,5.75,7.14l-15.7,11.81a4.16,4.16,0,0,0,1.52.42,15.69,15.69,0,0,0,1.73.1,8.69,8.69,0,0,0,4.07-.87,15.15,15.15,0,0,0,3-2.07Zm-11.24-17.22a3.79,3.79,0,0,0-1.6-1.21,5.73,5.73,0,0,0-2-.31,4.13,4.13,0,0,0-1.92.45,4.78,4.78,0,0,0-1.5,1.21,5.75,5.75,0,0,0-1.31,3.65,4.71,4.71,0,0,0,.13,1.34,5.94,5.94,0,0,0,.34.81Z" transform="translate(-146.39 -294.74)"/></g></svg>