<svg id="Layer_1" data-name="Layer 1" xmlns="http://www.w3.org/2000/svg" viewBox="0 0 47.56 42.5"><defs><style>.cls-1{fill:#7a0000;}.cls-2{fill:#d66;}.cls-3{fill:#d60505;}.cls-4{fill:#061b28;opacity:0.14;}.cls-5{fill:#eaeaea;}</style></defs><title>hx</title><polygon class="cls-1" points="47.56 38.89 47.01 39.66 44.97 42.5 22.83 41.07 19.95 40.88 16.07 40.63 0.32 39.62 0 10.05 0.33 9.08 2.91 1.39 22.83 5.27 25.36 5.76 43.67 9.33 46.31 13.44 46.91 14.37 47.56 38.89"/><polygon class="cls-2" points="46.92 36.23 44.38 39.71 22.83 38.34 17.39 37.99 0.63 36.93 0.33 9.08 0.32 8.36 3.17 0 22.83 3.77 25.36 4.26 43.12 7.66 46.29 12.54 46.31 13.44 46.92 36.23"/><polygon class="cls-3" points="1.87 34.22 1.59 9.26 3.76 2.91 42.67 10.38 45.06 14.05 45.61 34.74 44.04 36.9 1.87 34.22"/><polygon class="cls-4" points="47.56 38.89 47.01 39.66 19.95 40.88 15.85 41.07 16.07 40.63 17.39 37.99 18.74 35.29 25.36 22.07 25.36 4.26 43.12 7.66 46.29 12.54 46.31 13.44 46.91 14.37 47.56 38.89"/><rect class="cls-5" x="276.86" y="116.89" width="7.31" height="27.53" transform="translate(-267.23 127.22) rotate(-45)"/><rect class="cls-5" x="277.03" y="116.89" width="7.31" height="27.53" transform="translate(-82.41 -269.61) rotate(45)"/></svg>