<svg id="Layer_1" data-name="Layer 1" xmlns="http://www.w3.org/2000/svg" viewBox="0 0 628.11 126.4"><defs><style>.cls-1{fill:#0d7a08;}.cls-2{fill:#10b208;}.cls-3{fill:#e0e0e0;}.cls-4{fill:#076302;opacity:0.1;}</style></defs><title>input</title><polygon class="cls-1" points="628.11 115.67 624.35 117.95 610.37 126.4 156.53 122.16 136.79 121.6 110.2 120.85 2.22 117.83 0 29.88 2.24 27 19.96 4.14 156.53 15.67 173.92 17.14 601.5 27.75 619.59 39.97 623.68 42.75 628.11 115.67"/><polygon class="cls-2" points="623.76 107.75 606.37 118.11 156.53 114.03 119.26 113 4.35 109.83 2.24 27 2.17 24.87 21.74 0 156.53 11.21 173.92 12.66 597.68 22.79 619.42 37.3 619.59 39.97 623.76 107.75"/><polygon class="cls-3" points="12.84 101.77 10.94 27.54 25.8 8.66 171.17 19.59 594.6 30.86 610.98 41.79 614.78 103.33 604 109.76 12.84 101.77"/><polygon class="cls-4" points="628.11 115.67 624.35 117.95 301.52 121.6 273.44 122.16 274.94 120.85 284 113 293.26 104.96 338.65 65.63 338.65 17.89 597.68 22.79 619.42 37.3 619.59 39.97 623.68 42.75 628.11 115.67"/></svg>