<svg xmlns="http://www.w3.org/2000/svg" xmlns:xlink="http://www.w3.org/1999/xlink" viewBox="0 0 309.83 336.85"><defs><style>.cls-1{fill:#492812;}.cls-2{fill:#86502a;}.cls-3{fill:#784418;}.cls-4{fill:#b87f50;}.cls-5{fill:#5d3b20;}.cls-6{opacity:0.41;}.cls-7{fill:#683f29;}.cls-8{fill:#5c2f0b;}.cls-9{fill:url(#radial-gradient);}.cls-10{fill:url(#radial-gradient-2);}.cls-11{fill:url(#radial-gradient-3);}.cls-12{opacity:0.76;}.cls-13{fill:url(#radial-gradient-4);}.cls-14{opacity:0.49;}.cls-15{fill:url(#radial-gradient-5);}.cls-16{opacity:0.7;}.cls-17{fill:url(#linear-gradient);}.cls-18{fill:#302014;}.cls-19,.cls-40{fill:#4a3320;}.cls-20{fill:#ffb600;}.cls-21{fill:#e08205;}.cls-22{fill:#edc600;}.cls-23{fill:#020101;}.cls-24{fill:url(#linear-gradient-2);}.cls-25{opacity:0.73;fill:url(#linear-gradient-3);}.cls-26{fill:#fc0;}.cls-27{fill:#ffdb43;}.cls-28{opacity:0.5;fill:url(#linear-gradient-4);}.cls-29{fill:#ffa071;}.cls-30{fill:#fcd32b;}.cls-31,.cls-33{fill:#2b2b2b;}.cls-31,.cls-51{opacity:0.56;}.cls-32{fill:#efefef;}.cls-34{fill:#495750;}.cls-35{fill:#ccc;}.cls-36{fill:#33493e;}.cls-37{fill:#686b72;}.cls-38{opacity:0.74;}.cls-39{opacity:0.22;}.cls-40{opacity:0.34;}.cls-41,.cls-44{fill:none;}.cls-41{stroke:#4a3320;stroke-linecap:round;stroke-miterlimit:10;stroke-width:16px;opacity:0.35;}.cls-42{fill:#e2e0e0;}.cls-43{fill:#603813;}.cls-45{fill:url(#radial-gradient-6);}.cls-46{fill:url(#radial-gradient-7);}.cls-47{fill:url(#linear-gradient-5);}.cls-48{fill:#212121;opacity:0.43;}.cls-49{fill:#00b7b2;}.cls-50{fill:#008477;}.cls-52{fill:#1e0404;}.cls-53{fill:#f4f2f2;}</style><radialGradient id="radial-gradient" cx="223.47" cy="87.17" r="84.57" gradientTransform="translate(-53.71 -111.57) scale(0.85 2.83)" gradientUnits="userSpaceOnUse"><stop offset="0" stop-color="#b87f50" stop-opacity="0.4"/><stop offset="0.11" stop-color="#c2946d" stop-opacity="0.31"/><stop offset="0.31" stop-color="#d0b49a" stop-opacity="0.17"/><stop offset="0.52" stop-color="#dbcbbb" stop-opacity="0.08"/><stop offset="0.74" stop-color="#e1d9ce" stop-opacity="0.02"/><stop offset="1" stop-color="#e3ddd4" stop-opacity="0"/></radialGradient><radialGradient id="radial-gradient-2" cx="181.3" cy="95.27" r="35.04" xlink:href="#radial-gradient"/><radialGradient id="radial-gradient-3" cx="242.31" cy="113.58" r="81.83" gradientTransform="translate(-53.71 -111.57) scale(0.85 2.83)" gradientUnits="userSpaceOnUse"><stop offset="0" stop-color="#b87f50" stop-opacity="0.3"/><stop offset="0.22" stop-color="#caa687" stop-opacity="0.17"/><stop offset="0.46" stop-color="#d8c5b2" stop-opacity="0.08"/><stop offset="0.71" stop-color="#e0d7cc" stop-opacity="0.02"/><stop offset="1" stop-color="#e3ddd4" stop-opacity="0"/></radialGradient><radialGradient id="radial-gradient-4" cx="376.35" cy="135.86" r="23.42" xlink:href="#radial-gradient-3"/><radialGradient id="radial-gradient-5" cx="329.74" cy="96.12" r="22.76" xlink:href="#radial-gradient-3"/><linearGradient id="linear-gradient" x1="-1169.2" y1="27.88" x2="-1152.87" y2="27.88" gradientTransform="matrix(-0.98, -0.18, -0.18, 0.98, -1092.3, -75.45)" xlink:href="#radial-gradient-3"/><linearGradient id="linear-gradient-2" x1="187.02" y1="81.29" x2="227.88" y2="81.29" gradientUnits="userSpaceOnUse"><stop offset="0" stop-color="#330"/><stop offset="0.27" stop-color="#212100" stop-opacity="0.65"/><stop offset="0.72" stop-color="#090900" stop-opacity="0.18"/><stop offset="1" stop-opacity="0"/></linearGradient><linearGradient id="linear-gradient-3" x1="625.39" y1="81.5" x2="666.25" y2="81.5" gradientTransform="matrix(-1, 0, 0, 1, 781.2, 0)" xlink:href="#linear-gradient-2"/><linearGradient id="linear-gradient-4" x1="312.32" y1="103.82" x2="312.42" y2="103.82" gradientUnits="userSpaceOnUse"><stop offset="0" stop-opacity="0"/><stop offset="0.22" stop-color="#050400" stop-opacity="0.06"/><stop offset="0.47" stop-color="#120e00" stop-opacity="0.25"/><stop offset="0.73" stop-color="#281f00" stop-opacity="0.56"/><stop offset="1" stop-color="#483700" stop-opacity="0.99"/><stop offset="1" stop-color="#483700"/></linearGradient><radialGradient id="radial-gradient-6" cx="196.28" cy="107.99" r="31.15" gradientTransform="matrix(1, 0, 0, 1, 0, 0)" xlink:href="#radial-gradient-3"/><radialGradient id="radial-gradient-7" cx="-3171.89" cy="135.65" r="31.15" gradientTransform="matrix(-1, 0, 0, 1, -3044.8, 0)" xlink:href="#radial-gradient-3"/><linearGradient id="linear-gradient-5" x1="233.26" y1="139.76" x2="260.87" y2="139.76" gradientTransform="matrix(1, 0, 0, 1, 0, 0)" xlink:href="#radial-gradient-3"/></defs><title>levelup</title><g id="Layer_2" data-name="Layer 2"><g id="Layer_1-2" data-name="Layer 1"><path class="cls-1" d="M302.58,318l-.31-56.44-.61-18.07v-8.66s2-18.19,3.2-25.84l.24-1.52-.2-1.56c-.38-2.87-1.59-14.5-1.59-14.5l.81-20.49.87-20.11-4.14-30.93H248.46c-24.09,0-214.89,1.55-214.89,1.55l-2.24,41.36,1.14,15.05.83,13.25-.69,2.46-2.91,34.71,2,26.8a31.48,31.48,0,0,0,.85,3.74c.2,1.44,1.72,38.59,1.72,38.59s9.39,26,13.65,34.5l29.87,5c10.27-8,20.27-11.17,27.31-16.83l121.63-7.09Z"/><polygon class="cls-2" points="228.02 306.19 103.43 308.69 76.97 325.69 49.67 325.69 35.77 291.43 36.22 248.03 32.74 244.26 30.8 228.03 34.39 192.49 32.17 162.35 34.39 122.94 299.72 122.94 303.6 146.9 301.94 186.31 303.6 200.99 300.27 227.26 299.44 260.49 299.62 311.82 228.02 306.19"/><path class="cls-3" d="M297.12,306.59l-.17-49.45L297.5,236v-9.09s2-19.38,3.1-26.16c-.28-2.17-.71-6.33-1-9.38-.22-2.15-.38-3.75-.38-3.75l.83-23.92.8-16.16L298,129s-31.57-3-54.8-3-207,2.78-207,2.78L35,140.58,34.93,160l0,2.14,1,11.4L37,191.33l.13,2,2.54,23.16s-5.38,9.64-6.12,12.6a68.43,68.43,0,0,0,1,9l.45.29,3.45,5,.74,16.44s-.19,19.56-.14,20.81C41,288.49,48,317.19,52.23,320c0,0,11.85,3.59,23.89-11.33,6.7-8.3,16.36,10.82,25.45-3.64l.73-1.51,126.57,1Z"/><polygon class="cls-1" points="304.71 150.76 268.41 146.9 304.71 156.94 304.71 150.76"/><polygon class="cls-1" points="33.65 193.88 223.88 190.31 33.48 187.72 33.65 193.88"/><polygon class="cls-1" points="303.03 191.38 224.07 182.44 303.47 194.81 303.03 191.38"/><polygon class="cls-1" points="301.68 233.32 281.13 227.55 243.67 222.75 281.43 231.4 301.74 241.82 301.68 233.32"/><polygon class="cls-1" points="35.09 249.86 52.25 237.73 55.35 235.54 235.64 237.59 55.2 241.95 37.72 258.69 35.37 299.23 35.09 249.86"/><polygon class="cls-1" points="52.42 231.9 55.19 222.63 51.31 231.9 51.04 242.2 52.42 241.17 52.42 231.9"/><path class="cls-4" d="M297.37,150l6.1.64.14-3.73-3.88-24H254.79l-32.28.13-188.1-.13-2.22,39.41,1.89,25.11,29.48,1.67L35.23,184s-1.94-20.09-1.94-21.64S34.4,125.26,35,124.49,298.34,126,298.34,126s.55,0,.83.77,3.33,18.55,3.33,19.32S300.56,149.22,297.37,150Z"/><path class="cls-4" d="M299.66,155.59l3.53,1-1.25,29.75.55,5.22-19-2.51s17,1.93,17.32-.39,1.66-27,1.39-28.59S301.25,157.33,299.66,155.59Z"/><path class="cls-4" d="M286.77,192.3l16.14,2.51.69,6.18-3.33,26.27-.14,5.8-15.24-4.44s14.27,3.28,14.55,2.51,0-4.64.28-5.41,3.6-24.73,3.33-25.5-.55-2.32-1.39-3.09S286.77,192.3,286.77,192.3Z"/><polyline class="cls-4" points="299.07 301.73 298.34 258.94 299.45 241.94 281.92 231.71 299.94 240.79 299.45 260.49 299.63 309.82"/><polygon class="cls-4" points="65.81 191.97 33.45 193.52 30.81 228.04 35.16 199.19 65.81 191.97"/><polygon class="cls-4" points="32.75 244.26 36.01 250.19 51.37 238.85 51.31 231.9 55.19 222.63 51.04 231.9 50.52 236.02 36.35 246.58 32.75 244.26"/><path class="cls-4" d="M55.68,242.91l-21,15.46,1.13,16.86s1.67-13.71,1.95-13.71S55.68,242.91,55.68,242.91Z"/><polygon class="cls-4" points="228.02 306.19 103.43 313.69 76.97 330.69 49.67 325.69 76.97 325.02 103.43 308.02 228.02 306.19"/><path class="cls-5" d="M76.12,314.1a3.29,3.29,0,0,0,2.42,2.8,1.62,1.62,0,0,0,2.14-1.74,3.29,3.29,0,0,0-2.42-2.8A1.62,1.62,0,0,0,76.12,314.1Z"/><g class="cls-6"><path class="cls-5" d="M288.07,299.19a5.16,5.16,0,0,0,3.42,4.68c2,.7,3.66-.27,3.75-2.15a5.16,5.16,0,0,0-3.42-4.68C289.83,296.34,288.15,297.3,288.07,299.19Z"/></g><path class="cls-5" d="M73.59,321.58A1.83,1.83,0,0,0,75,323c.73.16,1.27-.21,1.21-.82a1.83,1.83,0,0,0-1.43-1.4C74.07,320.59,73.53,321,73.59,321.58Z"/><path class="cls-7" d="M44.47,214.1c.08,2.77.94,4.86,1.93,4.67s1.73-2.58,1.66-5.35-.94-4.86-1.93-4.67S44.4,211.33,44.47,214.1Z"/><path class="cls-5" d="M41.31,222.56c0,1.12.48,1.93,1,1.82s.92-1.1.88-2.22-.48-1.93-1-1.82S41.28,221.44,41.31,222.56Z"/><path class="cls-5" d="M43.86,226.53c0,1.6.69,2.77,1.43,2.62s1.31-1.59,1.27-3.19-.69-2.77-1.43-2.62S43.82,224.92,43.86,226.53Z"/><path class="cls-8" d="M239,137.63c-7.2-.77-170.27-3.86-173.87-3.09S35,140.72,35,140.72l29.11-1.55Z"/><path class="cls-9" d="M34.94,140.51c.16-.05,26.66-5.42,30.22-6.18,2.64-.57,156.78.91,165.86,2.09,3.27.43,6.09.79,8,1v.42l-175,1.55L35,140.93ZM231,136.83c-8.6-1.12-164-7.46-166.64-6.9-2.87.62-23.73,9-27.8,10.44L64.06,139l172.44-1.42Z"/><path class="cls-8" d="M143.24,160.31s-73.82-10.06-76.9-8.8-7.56,13.83-7.56,13.83l74.59-7.54Z"/><path class="cls-10" d="M58.77,165c0-.13,4.52-12.6,7.56-13.85s76.82,8.7,76.9,8.81v.68l-9.86-2.52-74.59,7.55Zm83.77-5.22c-2-2.4-73.7-9-76.2-7.94s-6,9.8-7.17,12.81l74.21-7.21Z"/><path class="cls-8" d="M251.79,208.33s-180.24-4.21-184.68-2.1S54.36,217.8,54.36,217.8l11.08-5.26Z"/><path class="cls-11" d="M54.34,217.53c.08-.09,11.89-15.12,12.52-15.12,4.43,0,184.56,5.59,184.93,5.64v.57L65.46,212.82l-11.08,5.26Zm11.89-15.12c-1.24,0-8.68,12.18-11,14.67l10.16-4.82L249,208.31C240.23,207.39,69.94,202.41,66.23,202.41Z"/><g class="cls-12"><path class="cls-8" d="M240.15,255.08S277.56,252,282,253.54s12.75,43.83,12.75,43.83l-11.08-39.2Z"/><path class="cls-13" d="M283.65,258.38l-43.51-3.09v-.42c.37,0,37.47-3.07,41.86-1.54s12.68,43.77,12.76,43.84l0,.41Zm-40.72-3.31L283.66,258l10.16,38.87c-2.27-1.83-9.19-46.31-12.71-47.54-.88-.31-2,0-5,0C266.77,249.3,249.61,254.55,242.94,255.07Z"/></g><g class="cls-14"><path class="cls-8" d="M200.38,159.85s37.41-4.57,41.84-2.28S255,170.13,255,170.13l-11.08-5.71Z"/><path class="cls-15" d="M243.88,164.73l-43.51-4.57v-.62c.37,0,37.47-4.54,41.86-2.28s12.68,12.47,12.76,12.57l0,.6Zm-40.72-4.89,40.73,4.28L254,169.34c-2.27-2.7-9.19-16.21-12.71-18-.88-.45-2,0-5,0C227,151.31,209.83,159.07,203.17,159.84Z"/></g><g class="cls-16"><path class="cls-8" d="M44.49,177.94s5.8-2.27,6.52-6.48,1.66-21.07.83-23.9-10.5-1.76-11.88.88a39,39,0,0,0-3.07,10.91c-.12,2.25,1.89,10.45,1.89,10.45a44.61,44.61,0,0,1-.22-9.43c.49-4.35,1.45-8.41,2.71-8.81s8.3-3.06,8.89-.38c0,0,.93,9.87-.09,15.05s-5.93,9.16-6.52,6.48a18.58,18.58,0,0,1,0-9.28c1-4.06,5-1.58,5-1.58L43.1,158.5s-1.57,6-1.45,8.41,0,9.28.63,10.84S44.49,177.94,44.49,177.94Z"/><path class="cls-17" d="M42.25,178c-.51-1.21-.56-5.37-.6-8.4,0-1.08,0-2-.06-2.62-.12-2.51,1.31-8.11,1.48-8.74l0-.1,5.51,3.37,0,.61s-4-2.41-5,1.49A19.52,19.52,0,0,0,43,167.8a19.21,19.21,0,0,0,.56,4.68c.16.75.77,1,1.62.62,1.8-.76,4.16-3.78,4.81-7.05.95-4.78.15-13.91.08-14.66-.38-1.53-3.19-1.42-8.37.33l-.47.16c-1.28.41-2.21,4.71-2.64,8.61a43.69,43.69,0,0,0,.22,9.13l.27,2L38.73,170c-.21-.85-2-8.38-1.9-10.73a39.28,39.28,0,0,1,3.12-11.15c.74-1.42,3.63-2.29,6.17-2.52s5.31.09,5.77,1.66c.55,1.87.31,8.81.19,11.71-.23,5.3-.65,10.48-1,12.61-.74,4.26-6.29,6.5-6.57,6.61-.08.07-1,.87-1.74.44A1.32,1.32,0,0,1,42.25,178ZM40,148.73a38.48,38.48,0,0,0-3,10.67c-.07,1.33.84,5.79,1.58,9a42.26,42.26,0,0,1,0-8.1c.46-4.07,1.42-8.58,2.77-9l.47-.16c3.4-1.15,8-2.42,8.47-.15V151c0,.41.94,10.11-.11,15.39-.69,3.51-3.09,6.51-4.91,7.29-.53.22-1.45.42-1.71-.77a20.8,20.8,0,0,1-.59-5.12,21.57,21.57,0,0,1,.62-4.61c.49-2,1.7-2.5,2.82-2.42l-3.23-2c-.44,1.72-1.48,6.21-1.4,8,0,.66,0,1.61.06,2.71,0,2.9.09,6.88.54,8,.63,1.5,2.15.17,2.17.16h0a15.76,15.76,0,0,0,3-1.66c2.52-1.79,3.29-3.54,3.48-4.68.35-2,.76-7.2,1-12.32.25-5.81.2-10-.15-11.16a1.57,1.57,0,0,0-.75-.87C48.6,145.45,41.23,146.32,40,148.73Z"/></g><path class="cls-18" d="M172.32,116.23l-3.1,3-37.41,36.39c-9.83,5.23-23,7.28-28.18-2.55l-6.07-14.42a40.39,40.39,0,0,1-3.26-8c-1.83-6.51-1.71-13.41,2.06-19.64a27.41,27.41,0,0,1,7.27-7.76l7-7.09h-7.77A64,64,0,0,1,39.1,32.39V17.21A17.26,17.26,0,0,1,56.31,0H75a91.61,91.61,0,0,1,91.35,91.35,4.82,4.82,0,0,1-4.3,4.78l4.12,4.57,8.12,9A4.82,4.82,0,0,1,172.32,116.23Z"/><path class="cls-19" d="M169.22,119.25l-37.41,36.39c-9.83,5.23-23,7.28-28.18-2.55l-6.07-14.42a40.39,40.39,0,0,1-3.26-8,25.06,25.06,0,0,1,9.34-12.22l7-7.09h-7.77a63.74,63.74,0,0,1-6.52-.33,27.41,27.41,0,0,1,7.27-7.76l7-7.09h-7.77A64,64,0,0,1,39.1,32.39,17.26,17.26,0,0,1,56.31,15.18H75a91.69,91.69,0,0,1,90.49,78.89q.45,3.28.67,6.63.19,2.89.19,5.83a4.82,4.82,0,0,1-4.3,4.78Z"/><path class="cls-20" d="M44.92,24.47,46.44,19s7.84.71,9.87,1.18,2.53,2.84-.51,3.79S44.92,24.47,44.92,24.47Z"/><path class="cls-20" d="M56.56,47.43c-3-.47-2.28-3.55-3-4.5s-2.67-2.93-1-4c4.3-2.84,10.88,1.89,10.12,3.55S59.59,47.91,56.56,47.43Z"/><path class="cls-20" d="M65.67,61.4c-5.31.47-3-3.55-4.55-5.45a42.43,42.43,0,0,1-3.29-5.21c1.27-1.42,7.84.71,9.11,1.66a5.91,5.91,0,0,1,2.53,4.26C69.46,58.33,71,60.93,65.67,61.4Z"/><path class="cls-20" d="M73.76,15.24l-25.05-2.6s1.77-2.84,4-3.79S71.49,14.06,73.76,15.24Z"/><path class="cls-20" d="M73.76,74.42c-4,.95-5.82-6.39-6.83-7.81a10.38,10.38,0,0,1,2.53-2.84C71.23,62.35,74,65.9,75.28,68S77.81,73.47,73.76,74.42Z"/><path class="cls-20" d="M50.23,36.07c-2.28-.47-.51-2.13-.51-3.55s-2.53-3.08-3-4.5,3-1.18,12.9-1.18,25.05,5.45,25.05,5.45C74.78,30.63,52.51,36.55,50.23,36.07Z"/><polygon class="cls-20" points="66.93 45.78 74.52 41.52 69.46 37.49 85.15 41.75 82.11 42.47 81.61 45.07 66.93 45.78"/><path class="cls-20" d="M82.37,82c-3.54,1.42-5.31-.47-6.33-2.6s3.29-7.41,3.29-5c0,.24,5.06-.24,5.82.71S85.91,80.58,82.37,82Z"/><path class="cls-20" d="M75.54,55.72c.76-2.13-4.81-5.68-4-7.1a77.78,77.78,0,0,1,9.36.95c3.54.71,5.82,2.13,5.82,3.55S80.6,60,78.32,60A3,3,0,0,1,75.54,55.72Z"/><path class="cls-20" d="M78.32,64.24s6.07-4,8.35-4.73,4.81,1.18,6.07,1.42,0,2.6-1.52,3.55-8.35,5-9.62,4S81.36,65.66,78.32,64.24Z"/><path class="cls-20" d="M84.65,32.29c.51,0,1,.47,4.55,1.42a14.08,14.08,0,0,0,5.06.71c-1.52,2.13-6.58,4-9.62,3.55S84.14,32.29,84.65,32.29Z"/><path class="cls-20" d="M96.54,86.5c-1.52,2.13-3.8,1.18-9.11.47s-3-1.42-2.78-2.84,3.8-2.84,6.83-2.84a24.84,24.84,0,0,0,3.54.95A2.59,2.59,0,0,1,96.54,86.5Z"/><path class="cls-20" d="M88.95,71.58s0-.71,2.53-2.37,9.11-.71,11.13-.47,2.53,2.13,1,4.26-9.87,5.45-9.87,3.55S90.47,72.29,88.95,71.58Z"/><path class="cls-20" d="M102.61,40.1c3-.71,5.33,2.37,3.8,2.37-.25,0-2.78,3.31-5.06,4.26s2.28,3.55,3.8,4.73,9.11,5.21,8.1,7.34-5.06,2.13-13.66-2.37-6.83-9-5.82-9.7a2.65,2.65,0,0,0,.51-3.55C93.5,41.75,99.57,40.81,102.61,40.1Z"/><path class="cls-20" d="M124.88,75.13C134,75.13,143.6,82,143.6,82s-13.41.24-18.72.24-11.64,2.6-14.68,2.13-1.52-2.37-4.55-4.5S100.33,78,100.33,78s0-.24,4-2.13S115.77,75.13,124.88,75.13Z"/><path class="cls-21" d="M170.42,112.65l-.51.27L166,116.7l-36.62,35.63A30.34,30.34,0,0,1,116.25,156c-4.32,0-7.25-1.52-9-4.63l-6.07-14.41-.09-.16A35.43,35.43,0,0,1,97.8,128a23.15,23.15,0,0,1-.53-7.08c.5-5.63,3.45-10.49,8.77-14.42l.25-.18,13.54-13.68,2.78-.78,31.9,1.91,16.32,18.13A.77.77,0,0,1,170.42,112.65Z"/><path class="cls-20" d="M166,119.23l-36.62,35.63a30.34,30.34,0,0,1-13.15,3.64c-4.32,0-7.25-1.52-9-4.63l-6.07-14.41-.09-.16a35.43,35.43,0,0,1-3.33-8.77,23.15,23.15,0,0,1-.53-7.08c.5-5.63,3.45-10.49,8.77-14.42l.25-.18,13.54-13.68,2.78-.78,31.9,1.91,16.43,15.55C171,112.14,166,119.23,166,119.23Z"/><path class="cls-22" d="M166,116.7l-36.62,35.63A30.34,30.34,0,0,1,116.25,156c-4.32,0-7.25-1.52-9-4.63l-6.07-14.41-.09-.16A35.43,35.43,0,0,1,97.8,128c1.14-4.35,3.9-8.17,8.24-11.38l.25-.18,13.54-13.68,2.78-.78,31.9,1.91Z"/><path class="cls-22" d="M73.76,15.24l-25.05-2.6s1.77-2.84,4-3.79S71.49,14.06,73.76,15.24Z"/><path class="cls-22" d="M55.8,24c-3,.95-10.88.47-10.88.47L46.44,19s7.84.71,9.87,1.18S58.84,23.05,55.8,24Z"/><path class="cls-22" d="M84.65,32.29c-9.87-1.66-32.14,4.26-34.41,3.79s-.51-2.13-.51-3.55-2.53-3.08-3-4.5,3-1.18,12.9-1.18S84.65,32.29,84.65,32.29Z"/><path class="cls-22" d="M62.63,42.47c-.76,1.66-3,5.45-6.07,5s-2.28-3.55-3-4.5-2.67-2.93-1-4C56.81,36.07,63.39,40.81,62.63,42.47Z"/><polygon class="cls-22" points="85.15 41.75 82.11 42.47 81.61 45.07 66.93 45.78 74.52 41.52 69.46 37.49 85.15 41.75"/><path class="cls-22" d="M113.24,58.8c-1,2.13-5.06,2.13-13.66-2.37s-6.83-9-5.82-9.7a2.65,2.65,0,0,0,.51-3.55c-.76-1.42,5.31-2.37,8.35-3.08s5.33,2.37,3.8,2.37c-.25,0-2.78,3.31-5.06,4.26s2.28,3.55,3.8,4.73S114.25,56.67,113.24,58.8Z"/><path class="cls-22" d="M94.26,34.42c-1.52,2.13-6.58,4-9.62,3.55s-.51-5.68,0-5.68,1,.47,4.55,1.42A14.08,14.08,0,0,0,94.26,34.42Z"/><path class="cls-22" d="M86.67,53.12c0,1.42-6.07,6.86-8.35,6.86a3,3,0,0,1-2.78-4.26c.76-2.13-4.81-5.68-4-7.1a77.78,77.78,0,0,1,9.36.95C84.39,50.28,86.67,51.7,86.67,53.12Z"/><path class="cls-22" d="M65.67,61.4c-5.31.47-3-3.55-4.55-5.45a42.43,42.43,0,0,1-3.29-5.21c1.27-1.42,7.84.71,9.11,1.66a5.91,5.91,0,0,1,2.53,4.26C69.46,58.33,71,60.93,65.67,61.4Z"/><path class="cls-22" d="M73.76,74.42c-4,.95-5.82-6.39-6.83-7.81a10.38,10.38,0,0,1,2.53-2.84C71.23,62.35,74,65.9,75.28,68S77.81,73.47,73.76,74.42Z"/><path class="cls-22" d="M91.22,64.48c-1.52.95-8.35,5-9.62,4s-.25-2.84-3.29-4.26c0,0,6.07-4,8.35-4.73s4.81,1.18,6.07,1.42S92.74,63.53,91.22,64.48Z"/><path class="cls-22" d="M82.37,82c-3.54,1.42-5.31-.47-6.33-2.6s3.29-7.41,3.29-5c0,.24,5.06-.24,5.82.71S85.91,80.58,82.37,82Z"/><path class="cls-22" d="M103.62,73c-1.52,2.13-9.87,5.45-9.87,3.55s-3.29-4.26-4.81-5c0,0,0-.71,2.53-2.37s9.11-.71,11.13-.47S105.14,70.87,103.62,73Z"/><path class="cls-22" d="M96.54,86.5c-1.52,2.13-3.8,1.18-9.11.47s-3-1.42-2.78-2.84,3.8-2.84,6.83-2.84a24.84,24.84,0,0,0,3.54.95A2.59,2.59,0,0,1,96.54,86.5Z"/><path class="cls-22" d="M143.6,82s-13.41.24-18.72.24-11.64,2.6-14.68,2.13-1.52-2.37-4.55-4.5S100.33,78,100.33,78s0-.24,4-2.13,11.39-.71,20.5-.71S143.6,82,143.6,82Z"/><path class="cls-19" d="M157.8,97c-2.59,1.22-5.21,2.32-7.84,3.42l-2,.82-2,.8-2,.79-2,.76c-2.66,1-5.37,1.9-8,3.05a36.93,36.93,0,0,1-4,1.5q-2,.64-4.12,1.2c-1.38.37-2.76.74-4.16,1.06s-2.79.62-4.18.91c-2.79.59-5.57,1.17-8.31,1.84-.68.17-1.36.35-2,.55a15.84,15.84,0,0,0-1.93.69c-.31.13-.62.31-.92.46s-.61.34-.91.51c-.6.35-1.2.72-1.78,1.12a57.84,57.84,0,0,0-6.62,5.32l-.09-.08a36.35,36.35,0,0,1,2.89-3.19l.78-.75c.27-.24.53-.49.8-.72.54-.48,1.09-.94,1.67-1.38a23.64,23.64,0,0,1,3.67-2.38,14.69,14.69,0,0,1,2.06-.83c.69-.23,1.39-.43,2.09-.61,1.4-.36,2.8-.66,4.2-.93s2.81-.52,4.21-.77l4.21-.74c1.4-.24,2.81-.47,4.2-.74s2.79-.56,4.15-.94a23.47,23.47,0,0,0,4-1.46c2.58-1.22,5.14-2.5,7.75-3.65,1.31-.57,2.63-1.12,4-1.62l2-.76,2-.73c2.69-1,5.39-1.86,8.15-2.63Z"/><path class="cls-19" d="M126,109.31a14.37,14.37,0,0,1,0,2.46c0,.41-.06.82-.12,1.23s-.13.82-.22,1.23a10.5,10.5,0,0,1-.83,2.4,5.21,5.21,0,0,1-.32.57,5,5,0,0,1-.37.53,11.38,11.38,0,0,1-.81,1c-1.14,1.2-2.43,2.2-3.64,3.28s-2.4,2.18-3.62,3.27a20.19,20.19,0,0,1-1.93,1.55c-.18.12-.35.24-.54.35s-.4.21-.6.3c-.4.17-.79.3-1.18.43-.78.26-1.56.49-2.34.71s-1.56.43-2.35.63-1.57.38-2.36.55l-2.36.53-2.35.54c-.39.1-.78.19-1.16.31-.19.06-.38.12-.56.19a1.07,1.07,0,0,0-.46.28l-.12,0a.67.67,0,0,1,.2-.29,2.14,2.14,0,0,1,.25-.2,5.84,5.84,0,0,1,.54-.33c.37-.2.74-.37,1.12-.53s.76-.32,1.14-.46.76-.29,1.15-.42l1.16-.39,1.16-.36c.78-.24,1.56-.46,2.34-.67,1.56-.43,3.14-.77,4.69-1.18.38-.1.77-.21,1.12-.33l.5-.21.51-.26c.68-.38,1.37-.79,2-1.24a25.62,25.62,0,0,0,3.76-3,34.42,34.42,0,0,0,3.12-3.67c.23-.32.48-.63.7-.94.11-.16.23-.31.32-.47a5.29,5.29,0,0,0,.29-.48,13.14,13.14,0,0,0,.88-2.14,41.54,41.54,0,0,0,1.13-4.66Z"/><path class="cls-19" d="M113.79,127.07a37.67,37.67,0,0,0-.57,4.23,13.77,13.77,0,0,0,0,2.05,3.77,3.77,0,0,0,.16.86,1.13,1.13,0,0,0,.09.19l.12.1a.66.66,0,0,0,.15.1l.17.1.2.09a4,4,0,0,0,.44.17,7.38,7.38,0,0,0,1,.24,11.64,11.64,0,0,0,2,.17,13.26,13.26,0,0,0,2.06-.19,11.45,11.45,0,0,0,2-.55,7.52,7.52,0,0,0,.92-.44l.45-.25.45-.29c.6-.37,1.19-.8,1.79-1.21q1.77-1.27,3.5-2.6c2.31-1.78,4.59-3.6,6.85-5.45s4.49-3.74,6.67-5.67c1.08-1,2.18-1.95,3.19-3s2.1-2.06,3.17-3c4.33-3.94,8.79-7.72,13.28-11.48-4.39,3.87-8.75,7.77-13,11.82-1,1-2.08,2-3.07,3.11s-2.08,2.08-3.14,3.09c-2.14,2-4.33,3.95-6.54,5.87s-4.45,3.81-6.73,5.66q-1.71,1.39-3.47,2.73c-.6.44-1.18.88-1.81,1.3l-.46.32-.51.3a8.9,8.9,0,0,1-1,.53,12.87,12.87,0,0,1-2.23.68,14.74,14.74,0,0,1-2.3.27,13.18,13.18,0,0,1-2.33-.13,9,9,0,0,1-1.18-.26,5.59,5.59,0,0,1-.59-.21l-.3-.13-.3-.17a1.85,1.85,0,0,1-.3-.2c-.1-.08-.2-.16-.3-.26a2.31,2.31,0,0,1-.46-.75,5.29,5.29,0,0,1-.29-1.28,15.37,15.37,0,0,1-.05-2.33,39.38,39.38,0,0,1,.48-4.47Z"/><path class="cls-19" d="M113.2,135.3c-.88.89-1.76,1.82-2.61,2.75s-1.69,1.88-2.5,2.85-1.6,2-2.32,3a17.51,17.51,0,0,0-1,1.6,4.76,4.76,0,0,0-.63,1.77,4.83,4.83,0,0,1,.48-1.84,17.74,17.74,0,0,1,.88-1.7c.64-1.11,1.35-2.17,2.09-3.21s1.5-2.07,2.28-3.08,1.58-2,2.41-3Z"/><path class="cls-19" d="M123,134.85c0,1.87,0,3.74,0,5.61s-.05,3.74-.11,5.6-.14,3.73-.28,5.6c-.07.93-.15,1.86-.28,2.79-.06.46-.13.93-.23,1.38a6.79,6.79,0,0,1-.18.68,1.91,1.91,0,0,1-.3.63,1.9,1.9,0,0,0,.27-.64,6.74,6.74,0,0,0,.14-.68c.07-.46.12-.92.15-1.39.07-.93.1-1.86.12-2.79,0-1.86,0-3.72,0-5.59s-.12-3.72-.2-5.58-.18-3.72-.3-5.58Z"/><path class="cls-19" d="M134.85,125.84q1.15,4.75,2.19,9.52c.34,1.59.67,3.19,1,4.79.15.8.29,1.6.4,2.41.06.4.11.81.15,1.21,0,.2,0,.41,0,.61a2.42,2.42,0,0,1,0,.61,2.4,2.4,0,0,0,0-.61c0-.2,0-.4-.07-.6-.06-.4-.14-.8-.22-1.2-.17-.79-.36-1.58-.56-2.37-.4-1.57-.83-3.14-1.27-4.7q-1.33-4.68-2.79-9.33Z"/><path class="cls-19" d="M120.58,99.7s-6.33-.51-6.07,1.52,1,5.57,2,5.57,0,1.77,4.55-.25,5.31-3.29,4-5.06S120.58,99.7,120.58,99.7Z"/><path class="cls-19" d="M110.93,116.76s-7.88-.63-7.56,1.89,1.26,6.93,2.52,6.93,0,2.21,5.67-.32,6.62-4.1,5-6.3S110.93,116.76,110.93,116.76Z"/><path class="cls-19" d="M112.08,142.58s-4,5-2.18,5.92,5.21,2.31,5.79,1.47,1.48,1,2.37-3.94.27-6.29-1.92-6.24S112.08,142.58,112.08,142.58Z"/><path class="cls-19" d="M127.07,140.81s.13,6.11,2,5.67,5.23-1.51,5.13-2.48,1.7-.17-.68-4.34-3.66-4.77-5.24-3.39S127.07,140.81,127.07,140.81Z"/><path class="cls-19" d="M106.14,132.78s-3.15-.25-3,.74.5,2.72,1,2.72,0,.87,2.27-.12,2.65-1.61,2-2.47S106.14,132.78,106.14,132.78Z"/><path class="cls-23" d="M163.34,92.61c-1.92-6.28-4-12.51-6.25-18.66-1.13-3.08-2.3-6.14-3.54-9.17s-2.53-6-3.93-9-2.9-5.86-4.56-8.66c-.84-1.4-1.72-2.76-2.68-4.07a28.9,28.9,0,0,0-3.12-3.67,23.51,23.51,0,0,0-1.82-1.56c-.63-.51-1.28-1-1.93-1.51-1.3-1-2.61-2-3.95-2.91-2.66-1.91-5.37-3.75-8.1-5.55q-8.19-5.42-16.69-10.36A179.8,179.8,0,0,0,89.38,8.43a46.72,46.72,0,0,0-4.55-1.74l-.58-.18-.58-.16c-.38-.11-.79-.19-1.18-.27L81.3,5.83c-.4-.09-.8-.15-1.2-.22-3.21-.57-6.47-1-9.73-1.29C63.85,3.65,57.3,3.3,50.74,3q2.46,0,4.92,0c1.64,0,3.28.07,4.92.13,3.28.11,6.56.27,9.84.51S77,4.29,80.23,4.8c.41.07.82.12,1.22.2l1.22.24c.41.08.81.15,1.22.26l.61.15.6.18a47.62,47.62,0,0,1,4.67,1.71c3,1.27,6,2.72,8.93,4.23s5.8,3.1,8.66,4.73q8.56,4.91,16.79,10.34c2.74,1.82,5.45,3.67,8.12,5.6,1.34,1,2.66,1.94,4,2.94.65.51,1.31,1,1.94,1.53a23.12,23.12,0,0,1,1.9,1.65,30,30,0,0,1,3.22,3.85c1,1.35,1.86,2.75,2.7,4.18a96.55,96.55,0,0,1,4.51,8.81c2.73,6,5,12.15,7.16,18.37q1.57,4.67,3,9.39.71,2.36,1.39,4.72C162.5,89.44,162.93,91,163.34,92.61Z"/><path class="cls-23" d="M160,90.75a.67.67,0,0,1-.73-.09.65.65,0,0,1-.12-.13v0l0-.06-.09-.13-.19-.26-.39-.51-.79-1q-.8-1-1.63-2c-1.11-1.32-2.26-2.6-3.45-3.84s-2.42-2.44-3.72-3.57A38,38,0,0,0,144.75,76c-.36-.23-.71-.47-1.08-.68l-.55-.32-.56-.3c-.18-.1-.38-.19-.57-.28l-.57-.27c-.39-.15-.77-.33-1.17-.45-.2-.06-.39-.14-.6-.2l-.62-.18L137.79,73q-1.25-.31-2.52-.58c-3.38-.71-6.8-1.25-10.23-1.78s-6.87-1-10.29-1.7a37,37,0,0,1-5.11-1.3,10.84,10.84,0,0,1-1.25-.53l-1.15-.6-2.32-1.18a71.91,71.91,0,0,1-9-5.31,25,25,0,0,1-4-3.47,12,12,0,0,1-1.58-2.16,7,7,0,0,1-.87-2.58l0,.12a17,17,0,0,1-1.14-3.31A12.11,12.11,0,0,1,88,45.1a6.7,6.7,0,0,1,1.09-3.38,5.87,5.87,0,0,1,1.23-1.32c.46-.35.92-.7,1.39-1a31.27,31.27,0,0,1,6-3.4A20.91,20.91,0,0,1,101,34.89c.28-.07.57-.12.85-.18l.86-.13c.29,0,.58-.06.87-.07s.58,0,.87,0a28,28,0,0,1,3.45.25l.85.12.85.14.85.15.84.18a43.14,43.14,0,0,1,12.76,5l1.45.92.36.23.35.25.7.5.7.5.67.56c.23.18.43.38.64.58l.62.6A60.12,60.12,0,0,1,134,49.72c1.39,1.81,2.73,3.67,4,5.54s2.58,3.77,3.84,5.68,2.49,3.83,3.71,5.76q3.66,5.79,7.16,11.68t6.89,11.84Zm-.63-1.08q-3.26-5.66-6.64-11.25-3.55-5.86-7.23-11.63-1.84-2.88-3.74-5.73c-1.27-1.9-2.55-3.78-3.87-5.64s-2.67-3.7-4.07-5.5a59.82,59.82,0,0,0-4.46-5.17,18.08,18.08,0,0,0-2.59-2.18l-.7-.49-.35-.25-.36-.23-1.44-.9a42.69,42.69,0,0,0-12.66-4.87l-.83-.17-.84-.15-.84-.14-.84-.11A27.46,27.46,0,0,0,104.5,35c-.28,0-.56,0-.84,0s-.56.05-.84.07l-.83.13c-.27.06-.55.1-.82.18A20.35,20.35,0,0,0,98,36.51a30.68,30.68,0,0,0-5.87,3.37c-.46.33-.91.67-1.36,1a5.22,5.22,0,0,0-1.09,1.18,6,6,0,0,0-1,3.06A11.44,11.44,0,0,0,89,48.44a16.35,16.35,0,0,0,1.11,3.15l0,.06v.06A6.29,6.29,0,0,0,91,54a11.25,11.25,0,0,0,1.5,2,24.26,24.26,0,0,0,3.88,3.33,71.15,71.15,0,0,0,8.95,5.19l2.33,1.17,1.16.59a10,10,0,0,0,1.15.48,36.23,36.23,0,0,0,5,1.23c3.39.64,6.83,1.11,10.26,1.62s6.87,1,10.3,1.72q1.28.26,2.56.57l1.27.33.63.18c.21.06.43.14.64.2.43.13.84.31,1.26.48l.61.28c.2.09.41.19.6.29l.59.31.58.33c.39.22.76.46,1.13.7a39.12,39.12,0,0,1,4.2,3.2c1.33,1.15,2.59,2.36,3.81,3.61s2.39,2.55,3.53,3.88q.85,1,1.67,2l.81,1,.4.52.2.26.1.13,0,.07v0s0,0-.09-.1a.59.59,0,0,0-.39-.13A.57.57,0,0,0,159.35,89.67Z"/><path class="cls-18" d="M303.1,17.21V32.39a64,64,0,0,1-63.77,63.77h-7.77l7,7.08a27.46,27.46,0,0,1,7.27,7.76c3.77,6.23,3.89,13.13,2.06,19.64a40.19,40.19,0,0,1-3.26,8l-6.07,14.42-.19.35-.06.1-.2.33-.21.32-.05.08-.23.34h0l-.25.34-.13.17-.13.17-.27.32-.28.31h0l-.29.3,0,0-.25.24h0l-.25.23-.34.28-.34.27-.32.24-.17.11-.17.11-.14.09-.2.12-.35.2-.1.06-.14.08-.11.06-.18.09-.18.09-.15.07-.29.13-.29.12-.26.1-.43.16-.45.15-.19.06-.19.06-.44.12-.23.05H230l-.2,0h-.07l-.39.08-.5.08-.19,0h0l-.31,0-.16,0-.24,0h0l-.24,0-.35,0-.36,0h0l-.48,0h-1.31l-.5,0-.26,0h-.17l-.24,0-.34,0-.34,0-.34,0-.91-.13-.3,0-.15,0-.21,0-.81-.16-1-.23-.64-.16-.54-.15-.59-.17-.42-.13-.29-.09-.49-.16-1.13-.4-.52-.2-.12,0-.51-.2-.42-.17-.22-.09-1.07-.48-.56-.26-.54-.26h0l-.49-.25-.59-.31-20.76-20.2L187,132.91l-.33-.32-7.34-7.14-6.38-6.2-1.46-1.42-.42-.41-1.23-1.19a4.76,4.76,0,0,1-1.18-.88,4.65,4.65,0,0,1-.56-.7,4.83,4.83,0,0,1-.25-4.93l.37-.41.12-.13,2.73-3,.42-.47,4.49-5L179.36,97l.77-.85a4.7,4.7,0,0,1-.77-.14,4.82,4.82,0,0,1-2.46-1.61c-.08-.09-.15-.19-.22-.3a4.77,4.77,0,0,1-.55-1c0-.1-.07-.21-.1-.31a4.78,4.78,0,0,1-.2-1.37q0-.79,0-1.57a90.5,90.5,0,0,1,3-21.51Q179.36,66.1,180,64a90.83,90.83,0,0,1,7-16.31q1.14-2.09,2.39-4.1.66-1.07,1.36-2.12A92,92,0,0,1,199,30.72q.63-.71,1.27-1.4l.32-.35q1-1.09,2.07-2.14l.52-.52.78-.76.72-.69.65-.6.36-.33.66-.6.65-.57.6-.52.46-.4,1.22-1,1.07-.87.4-.31.5-.4.21-.17.56-.43,1.07-.8.88-.64.82-.58.48-.34c.64-.45,1.29-.89,1.94-1.31l.54-.35.6-.38,1.43-.89,1.38-.83.75-.44L222,12l.66-.37.26-.14.53-.3q2.18-1.2,4.43-2.28,1.6-.77,3.24-1.48l.72-.31.3-.13.85-.35.15-.06.94-.37.64-.25.18-.07.36-.14,1-.38.78-.28.12,0,.86-.3.35-.12.78-.26.26-.09.91-.28,1.06-.32,1-.3h0l1.07-.3,1.08-.28.25-.06.82-.2h0l1-.23.08,0,1.1-.25H248l1-.22,1.1-.22,1.28-.23.94-.16q1.15-.19,2.3-.35l1.06-.14,1.09-.13h0Q258,.46,259.1.36l1.07-.09h.2l.93-.06h.17l.94-.05.32,0,.75,0,.42,0,1,0,2.23,0h18.73A17.26,17.26,0,0,1,303.1,17.21Z"/><path class="cls-19" d="M239.33,96.16h-7.77l7,7.08a27.46,27.46,0,0,1,7.27,7.76q-2.33.24-4.7.31l-1.81,0h-7.77l1,1,4.75,4.8,1.29,1.3.26.19a28.1,28.1,0,0,1,6.09,6.15l.09.13h0a22.24,22.24,0,0,1,2.9,5.74,40.19,40.19,0,0,1-3.26,8l-6.07,14.42-.19.35-.06.1-.2.33-.21.32-.05.08-.23.34h0l-.25.34-.13.17-.13.17-.27.32-.28.31h0l-.29.3,0,0-.25.24h0l-.25.23-.34.28-.34.27-.32.24-.17.11-.17.11-.14.09-.2.12-.35.2-.1.06-.14.08-.11.06-.18.09-.18.09-.15.07-.29.13-.29.12-.26.1-.43.16-.45.15-.19.06-.19.06-.44.12-.23.05H230l-.2,0h-.07l-.39.08-.5.08-.19,0h0l-.31,0-.16,0-.24,0h0l-.24,0-.35,0-.36,0h0l-.48,0h-1.31l-.5,0-.26,0h-.17l-.24,0-.34,0-.34,0-.34,0-.91-.13-.3,0-.15,0-.21,0-.81-.16-1-.23-.64-.16-.54-.15-.59-.17-.42-.13-.29-.09-.49-.16-1.13-.4-.52-.2-.12,0-.51-.2-.42-.17-.22-.09-1.07-.48-.56-.26-.54-.26h0l-.49-.25-.59-.31-20.76-20.2L187,132.91l-.33-.32-7.34-7.14-6.38-6.2,1.81-2,.9-1,2.67-3,1-1.1.77-.85a4.45,4.45,0,0,1-.77-.15,4.83,4.83,0,0,1-3.45-3.71,4.47,4.47,0,0,1-.07-.51q0-.2,0-.41,0-2.93.19-5.83.2-3.2.62-6.33l0-.3c0-.35.1-.7.15-1,0-.1,0-.21,0-.31q.22-1.48.5-2.94a89.73,89.73,0,0,1,2.55-10.27q.32-1,.66-2,.56-1.66,1.19-3.29h0l0-.12h0q.32-.83.65-1.65l.45-1.08h0c.22-.52.44-1,.67-1.56h0q.59-1.33,1.22-2.63h0l.24-.5h0l.05-.1h0q.91-1.87,1.92-3.69l.21-.38c.3-.53.6-1.06.91-1.59h0l.16-.26a91.68,91.68,0,0,1,5.29-8h0a92.14,92.14,0,0,1,7.83-9.29L202.65,42q.84-.84,1.7-1.66,1.87-1.78,3.83-3.44,1.33-1.13,2.7-2.21a91.77,91.77,0,0,1,17-10.59,90.47,90.47,0,0,1,39.29-8.94h18.73A17.26,17.26,0,0,1,303.1,32.39,64,64,0,0,1,239.33,96.16Z"/><path class="cls-20" d="M297.28,24.47,295.76,19s-7.84.71-9.87,1.18-2.53,2.84.51,3.79S297.28,24.47,297.28,24.47Z"/><path class="cls-20" d="M285.64,47.43c3-.47,2.28-3.55,3-4.5s2.67-2.93,1-4c-4.3-2.84-10.88,1.89-10.12,3.55S282.6,47.91,285.64,47.43Z"/><path class="cls-20" d="M276.53,61.4c5.31.47,3-3.55,4.55-5.45a42.43,42.43,0,0,0,3.29-5.21c-1.27-1.42-7.84.71-9.11,1.66a5.91,5.91,0,0,0-2.53,4.26C272.73,58.33,271.22,60.93,276.53,61.4Z"/><path class="cls-20" d="M268.43,15.24l25.05-2.6s-1.77-2.84-4-3.79S270.71,14.06,268.43,15.24Z"/><path class="cls-20" d="M268.43,74.42c4,.95,5.82-6.39,6.83-7.81a10.38,10.38,0,0,0-2.53-2.84c-1.77-1.42-4.55,2.13-5.82,4.26S264.38,73.47,268.43,74.42Z"/><path class="cls-20" d="M292,36.07c2.28-.47.51-2.13.51-3.55s2.53-3.08,3-4.5-3-1.18-12.9-1.18-25.05,5.45-25.05,5.45C267.42,30.63,289.69,36.55,292,36.07Z"/><polygon class="cls-20" points="275.26 45.78 267.67 41.52 272.73 37.49 257.05 41.75 260.08 42.47 260.59 45.07 275.26 45.78"/><path class="cls-20" d="M259.83,82c3.54,1.42,5.31-.47,6.33-2.6s-3.29-7.41-3.29-5c0,.24-5.06-.24-5.82.71S256.29,80.58,259.83,82Z"/><path class="cls-20" d="M266.66,55.72c-.76-2.13,4.81-5.68,4-7.1a77.78,77.78,0,0,0-9.36.95c-3.54.71-5.82,2.13-5.82,3.55S261.6,60,263.88,60A3,3,0,0,0,266.66,55.72Z"/><path class="cls-20" d="M263.88,64.24s-6.07-4-8.35-4.73-4.81,1.18-6.07,1.42,0,2.6,1.52,3.55,8.35,5,9.62,4S260.84,65.66,263.88,64.24Z"/><path class="cls-20" d="M257.55,32.29c-.51,0-1,.47-4.55,1.42a14.08,14.08,0,0,1-5.06.71c1.52,2.13,6.58,4,9.62,3.55S258.06,32.29,257.55,32.29Z"/><path class="cls-20" d="M245.66,86.5c1.52,2.13,3.8,1.18,9.11.47s3-1.42,2.78-2.84-3.8-2.84-6.83-2.84a24.84,24.84,0,0,1-3.54.95A2.59,2.59,0,0,0,245.66,86.5Z"/><path class="cls-20" d="M253.25,71.58s0-.71-2.53-2.37-9.11-.71-11.13-.47-2.53,2.13-1,4.26,9.87,5.45,9.87,3.55S251.73,72.29,253.25,71.58Z"/><path class="cls-20" d="M239.59,40.1c-3-.71-5.33,2.37-3.8,2.37.25,0,2.78,3.31,5.06,4.26s-2.28,3.55-3.8,4.73-9.11,5.21-8.1,7.34,5.06,2.13,13.66-2.37,6.83-9,5.82-9.7a2.65,2.65,0,0,1-.51-3.55C248.7,41.75,242.62,40.81,239.59,40.1Z"/><path class="cls-20" d="M217.32,75.13c-9.11,0-18.72,6.86-18.72,6.86s13.41.24,18.72.24S229,84.84,232,84.37s1.52-2.37,4.55-4.5S241.86,78,241.86,78s0-.24-4-2.13S226.43,75.13,217.32,75.13Z"/><path class="cls-21" d="M171.78,112.65l.51.27,3.88,3.78,36.62,35.63A30.34,30.34,0,0,0,225.94,156c4.32,0,7.25-1.52,9-4.63L241,136.92l.09-.16A35.43,35.43,0,0,0,244.4,128a23.15,23.15,0,0,0,.53-7.08c-.5-5.63-3.45-10.49-8.77-14.42l-.25-.18L222.37,92.63l-2.78-.78-31.9,1.91L171.38,111.9A.77.77,0,0,0,171.78,112.65Z"/><path class="cls-20" d="M176.17,119.23l36.62,35.63a30.34,30.34,0,0,0,13.15,3.64c4.32,0,7.25-1.52,9-4.63L241,139.45l.09-.16a35.43,35.43,0,0,0,3.33-8.77,23.15,23.15,0,0,0,.53-7.08c-.5-5.63-3.45-10.49-8.77-14.42l-.25-.18L222.37,95.16l-2.78-.78L187.7,96.3l-16.43,15.55C171.23,112.14,176.17,119.23,176.17,119.23Z"/><path class="cls-22" d="M176.17,116.7l36.62,35.63A30.34,30.34,0,0,0,225.94,156c4.32,0,7.25-1.52,9-4.63L241,136.92l.09-.16A35.43,35.43,0,0,0,244.4,128c-1.14-4.35-3.9-8.17-8.24-11.38l-.25-.18-13.54-13.68L219.6,102l-31.9,1.91Z"/><path class="cls-22" d="M268.43,15.24l25.05-2.6s-1.77-2.84-4-3.79S270.71,14.06,268.43,15.24Z"/><path class="cls-22" d="M286.4,24c3,.95,10.88.47,10.88.47L295.76,19s-7.84.71-9.87,1.18S283.36,23.05,286.4,24Z"/><path class="cls-22" d="M257.55,32.29c9.87-1.66,32.14,4.26,34.41,3.79s.51-2.13.51-3.55,2.53-3.08,3-4.5-3-1.18-12.9-1.18S257.55,32.29,257.55,32.29Z"/><path class="cls-22" d="M279.57,42.47c.76,1.66,3,5.45,6.07,5s2.28-3.55,3-4.5,2.67-2.93,1-4C285.39,36.07,278.81,40.81,279.57,42.47Z"/><polygon class="cls-22" points="257.05 41.75 260.08 42.47 260.59 45.07 275.26 45.78 267.67 41.52 272.73 37.49 257.05 41.75"/><path class="cls-22" d="M229,58.8c1,2.13,5.06,2.13,13.66-2.37s6.83-9,5.82-9.7a2.65,2.65,0,0,1-.51-3.55c.76-1.42-5.31-2.37-8.35-3.08s-5.33,2.37-3.8,2.37c.25,0,2.78,3.31,5.06,4.26s-2.28,3.55-3.8,4.73S227.95,56.67,229,58.8Z"/><path class="cls-22" d="M247.94,34.42c1.52,2.13,6.58,4,9.62,3.55s.51-5.68,0-5.68-1,.47-4.55,1.42A14.08,14.08,0,0,1,247.94,34.42Z"/><path class="cls-22" d="M255.53,53.12c0,1.42,6.07,6.86,8.35,6.86a3,3,0,0,0,2.78-4.26c-.76-2.13,4.81-5.68,4-7.1a77.78,77.78,0,0,0-9.36.95C257.8,50.28,255.53,51.7,255.53,53.12Z"/><path class="cls-22" d="M276.53,61.4c5.31.47,3-3.55,4.55-5.45a42.43,42.43,0,0,0,3.29-5.21c-1.27-1.42-7.84.71-9.11,1.66a5.91,5.91,0,0,0-2.53,4.26C272.73,58.33,271.22,60.93,276.53,61.4Z"/><path class="cls-22" d="M268.43,74.42c4,.95,5.82-6.39,6.83-7.81a10.38,10.38,0,0,0-2.53-2.84c-1.77-1.42-4.55,2.13-5.82,4.26S264.38,73.47,268.43,74.42Z"/><path class="cls-22" d="M251,64.48c1.52.95,8.35,5,9.62,4s.25-2.84,3.29-4.26c0,0-6.07-4-8.35-4.73s-4.81,1.18-6.07,1.42S249.45,63.53,251,64.48Z"/><path class="cls-22" d="M259.83,82c3.54,1.42,5.31-.47,6.33-2.6s-3.29-7.41-3.29-5c0,.24-5.06-.24-5.82.71S256.29,80.58,259.83,82Z"/><path class="cls-22" d="M238.57,73c1.52,2.13,9.87,5.45,9.87,3.55s3.29-4.26,4.81-5c0,0,0-.71-2.53-2.37s-9.11-.71-11.13-.47S237.06,70.87,238.57,73Z"/><path class="cls-22" d="M245.66,86.5c1.52,2.13,3.8,1.18,9.11.47s3-1.42,2.78-2.84-3.8-2.84-6.83-2.84a24.84,24.84,0,0,1-3.54.95A2.59,2.59,0,0,0,245.66,86.5Z"/><path class="cls-22" d="M198.59,82s13.41.24,18.72.24S229,84.84,232,84.37s1.52-2.37,4.55-4.5S241.86,78,241.86,78s0-.24-4-2.13-11.39-.71-20.5-.71S198.59,82,198.59,82Z"/><path class="cls-19" d="M184.45,96.86c2.76.77,5.46,1.68,8.15,2.63l2,.73,2,.76c1.34.5,2.65,1,4,1.62,2.61,1.15,5.17,2.43,7.75,3.65a23.47,23.47,0,0,0,4,1.46c1.37.39,2.76.68,4.15.94s2.8.49,4.2.74l4.21.74c1.4.25,2.81.5,4.21.77s2.81.57,4.2.93c.7.18,1.39.38,2.09.61a14.69,14.69,0,0,1,2.06.83,23.64,23.64,0,0,1,3.67,2.38c.57.44,1.13.91,1.67,1.38.27.24.53.48.8.72l.78.75a36.35,36.35,0,0,1,2.89,3.19l-.09.08a57.84,57.84,0,0,0-6.62-5.32c-.58-.39-1.18-.77-1.78-1.12-.3-.17-.6-.35-.91-.51s-.62-.32-.92-.46a15.84,15.84,0,0,0-1.93-.69c-.67-.2-1.34-.38-2-.55-2.74-.67-5.52-1.24-8.31-1.84-1.39-.29-2.79-.59-4.18-.91s-2.78-.68-4.16-1.06-2.75-.78-4.12-1.2a36.93,36.93,0,0,1-4-1.5c-2.6-1.15-5.31-2.05-8-3.05l-2-.76-2-.79-2-.8-2-.82c-2.63-1.1-5.25-2.2-7.84-3.42Z"/><path class="cls-19" d="M216.37,109.31a41.54,41.54,0,0,0,1.13,4.66,13.14,13.14,0,0,0,.88,2.14,5.29,5.29,0,0,0,.29.48c.09.16.21.31.32.47.22.32.47.62.7.94a34.42,34.42,0,0,0,3.12,3.67,25.62,25.62,0,0,0,3.76,3c.66.45,1.36.86,2,1.24l.51.26.5.21c.35.12.74.23,1.12.33,1.54.4,3.13.75,4.69,1.18.78.21,1.56.43,2.34.67l1.16.36,1.16.39c.39.13.77.27,1.15.42s.76.3,1.14.46.75.34,1.12.53a5.84,5.84,0,0,1,.54.33,2.14,2.14,0,0,1,.25.2.67.67,0,0,1,.2.29l-.12,0a1.07,1.07,0,0,0-.46-.28c-.18-.07-.37-.13-.56-.19-.38-.12-.77-.21-1.16-.31l-2.35-.54-2.36-.53c-.79-.17-1.57-.36-2.36-.55s-1.57-.4-2.35-.63-1.56-.45-2.34-.71c-.39-.13-.78-.26-1.18-.43-.2-.09-.4-.2-.6-.3s-.36-.23-.54-.35a20.19,20.19,0,0,1-1.93-1.55c-1.22-1.09-2.4-2.2-3.62-3.27s-2.51-2.08-3.64-3.28a11.38,11.38,0,0,1-.81-1,5,5,0,0,1-.37-.53,5.21,5.21,0,0,1-.32-.57,10.5,10.5,0,0,1-.83-2.4c-.09-.41-.16-.82-.22-1.23s-.1-.82-.12-1.23a14.37,14.37,0,0,1,0-2.46Z"/><path class="cls-19" d="M230.26,126.73a39.38,39.38,0,0,1,.48,4.47,15.37,15.37,0,0,1-.05,2.33,5.29,5.29,0,0,1-.29,1.28,2.31,2.31,0,0,1-.46.75c-.1.1-.2.17-.3.26a1.85,1.85,0,0,1-.3.2l-.3.17-.3.13a5.59,5.59,0,0,1-.59.21,9,9,0,0,1-1.18.26,13.18,13.18,0,0,1-2.33.13,14.74,14.74,0,0,1-2.3-.27,12.87,12.87,0,0,1-2.23-.68,8.9,8.9,0,0,1-1-.53l-.51-.3-.46-.32c-.63-.42-1.21-.86-1.81-1.3q-1.76-1.34-3.47-2.73-3.42-2.77-6.73-5.66c-2.21-1.92-4.4-3.87-6.54-5.87-1.06-1-2.13-2-3.14-3.09s-2-2.1-3.07-3.11c-4.21-4-8.57-7.95-13-11.82,4.49,3.75,9,7.53,13.28,11.48,1.08,1,2.14,2,3.17,3s2.11,2,3.19,3c2.18,1.93,4.42,3.82,6.67,5.67s4.54,3.68,6.85,5.45q1.73,1.33,3.5,2.6c.59.41,1.18.84,1.79,1.21l.45.29.45.25a7.52,7.52,0,0,0,.92.44,11.45,11.45,0,0,0,2,.55,13.26,13.26,0,0,0,2.06.19,11.64,11.64,0,0,0,2-.17,7.38,7.38,0,0,0,1-.24,4,4,0,0,0,.44-.17l.2-.09.17-.1a.66.66,0,0,0,.15-.1l.12-.1a1.13,1.13,0,0,0,.09-.19,3.77,3.77,0,0,0,.16-.86,13.77,13.77,0,0,0,0-2.05,37.67,37.67,0,0,0-.57-4.23Z"/><path class="cls-19" d="M229.93,134.44c.83,1,1.62,2,2.41,3s1.55,2,2.28,3.08,1.45,2.11,2.09,3.21a17.74,17.74,0,0,1,.88,1.7,4.83,4.83,0,0,1,.48,1.84,4.76,4.76,0,0,0-.63-1.77,17.51,17.51,0,0,0-1-1.6c-.72-1-1.51-2-2.32-3s-1.65-1.92-2.5-2.85-1.73-1.85-2.61-2.75Z"/><path class="cls-19" d="M220.48,134.89c-.12,1.85-.22,3.72-.3,5.58s-.15,3.72-.2,5.58-.07,3.72,0,5.59c0,.93,0,1.86.12,2.79,0,.46.08.93.15,1.39a6.74,6.74,0,0,0,.14.68,1.9,1.9,0,0,0,.27.64,1.91,1.91,0,0,1-.3-.63,6.79,6.79,0,0,1-.18-.68c-.1-.46-.17-.92-.23-1.38-.12-.93-.2-1.86-.28-2.79-.14-1.86-.22-3.73-.28-5.6s-.09-3.74-.11-5.6,0-3.73,0-5.61Z"/><path class="cls-19" d="M208.56,126.18q-1.45,4.65-2.79,9.33c-.44,1.56-.87,3.13-1.27,4.7-.2.79-.39,1.58-.56,2.37-.08.4-.16.8-.22,1.2,0,.2-.06.4-.07.6a2.4,2.4,0,0,0,0,.61,2.42,2.42,0,0,1,0-.61c0-.2,0-.41,0-.61,0-.41.09-.81.15-1.21.12-.81.26-1.61.4-2.41.3-1.6.63-3.2,1-4.79q1-4.77,2.19-9.52Z"/><path class="cls-19" d="M221.62,99.7s6.33-.51,6.07,1.52-1,5.57-2,5.57,0,1.77-4.55-.25-5.31-3.29-4-5.06S221.62,99.7,221.62,99.7Z"/><path class="cls-19" d="M231.26,116.76s7.88-.63,7.56,1.89-1.26,6.93-2.52,6.93,0,2.21-5.67-.32-6.62-4.1-5-6.3S231.26,116.76,231.26,116.76Z"/><path class="cls-19" d="M230.12,142.58s4,5,2.18,5.92-5.21,2.31-5.79,1.47-1.48,1-2.37-3.94-.27-6.29,1.92-6.24S230.12,142.58,230.12,142.58Z"/><path class="cls-19" d="M215.13,140.81s-.13,6.11-2,5.67S207.86,145,208,144s-1.7-.17.68-4.34,3.66-4.77,5.24-3.39S215.13,140.81,215.13,140.81Z"/><path class="cls-19" d="M236.06,132.78s3.15-.25,3,.74-.5,2.72-1,2.72,0,.87-2.27-.12-2.65-1.61-2-2.47S236.06,132.78,236.06,132.78Z"/><path class="cls-23" d="M178.86,92.61c.41-1.59.84-3.17,1.29-4.75s.91-3.15,1.39-4.72q1.43-4.71,3-9.39c2.12-6.22,4.43-12.38,7.16-18.37a96.55,96.55,0,0,1,4.51-8.81c.84-1.43,1.73-2.83,2.7-4.18a30,30,0,0,1,3.22-3.85A23.12,23.12,0,0,1,204,36.9c.64-.52,1.3-1,1.94-1.53,1.31-1,2.63-2,4-2.94,2.67-1.93,5.38-3.78,8.12-5.6q8.24-5.42,16.79-10.34c2.86-1.63,5.74-3.21,8.66-4.73s5.88-3,8.93-4.23a47.62,47.62,0,0,1,4.67-1.71l.6-.18.61-.15c.41-.11.81-.18,1.22-.26L260.74,5c.41-.08.81-.13,1.22-.2,3.26-.51,6.53-.84,9.81-1.09s6.56-.4,9.84-.51c1.64-.05,3.28-.1,4.92-.13s3.28,0,4.92,0c-6.56.26-13.11.61-19.63,1.28-3.26.33-6.51.72-9.73,1.29-.4.07-.81.13-1.2.22l-1.19.25c-.4.09-.8.16-1.18.27l-.58.16-.58.18a46.72,46.72,0,0,0-4.55,1.74,179.8,179.8,0,0,0-17.38,9.08q-8.49,4.93-16.69,10.36c-2.73,1.8-5.44,3.64-8.1,5.55-1.33.95-2.64,1.92-3.95,2.91-.64.5-1.3,1-1.93,1.51a23.51,23.51,0,0,0-1.82,1.56,28.9,28.9,0,0,0-3.12,3.67c-1,1.31-1.84,2.67-2.68,4.07-1.67,2.8-3.16,5.7-4.56,8.66s-2.69,6-3.93,9-2.41,6.09-3.54,9.17C182.83,80.1,180.77,86.34,178.86,92.61Z"/><path class="cls-23" d="M182.84,89.67a.57.57,0,0,0-.3-.1.59.59,0,0,0-.39.13c-.1.09-.11.13-.09.1v0l0-.07.1-.13.2-.26.4-.52.81-1q.82-1,1.67-2c1.14-1.33,2.31-2.63,3.53-3.88s2.48-2.47,3.81-3.61a39.12,39.12,0,0,1,4.2-3.2c.37-.24.74-.48,1.13-.7l.58-.33.59-.31c.19-.11.4-.2.6-.29l.61-.28c.42-.16.83-.35,1.26-.48.21-.07.43-.15.64-.2l.63-.18,1.27-.33q1.28-.31,2.56-.57c3.42-.7,6.86-1.21,10.3-1.72s6.87-1,10.26-1.62a36.23,36.23,0,0,0,5-1.23,10,10,0,0,0,1.15-.48l1.16-.59,2.33-1.17a71.15,71.15,0,0,0,8.95-5.19A24.26,24.26,0,0,0,249.71,56a11.25,11.25,0,0,0,1.5-2,6.29,6.29,0,0,0,.8-2.31v-.06l0-.06a16.35,16.35,0,0,0,1.11-3.15,11.44,11.44,0,0,0,.34-3.29,6,6,0,0,0-1-3.06,5.22,5.22,0,0,0-1.09-1.18c-.44-.34-.89-.69-1.36-1a30.68,30.68,0,0,0-5.87-3.37,20.35,20.35,0,0,0-3.2-1.07c-.27-.07-.55-.12-.82-.18l-.83-.13c-.28,0-.56-.06-.84-.07s-.56,0-.84,0a27.46,27.46,0,0,0-3.38.22l-.84.11-.84.14-.84.15-.83.17a42.69,42.69,0,0,0-12.66,4.87l-1.44.9-.36.23-.35.25-.7.49a18.08,18.08,0,0,0-2.59,2.18,59.82,59.82,0,0,0-4.46,5.17c-1.4,1.8-2.75,3.64-4.07,5.5s-2.6,3.75-3.87,5.64-2.51,3.81-3.74,5.73q-3.69,5.77-7.23,11.63Q186.11,84,182.84,89.67Zm-.63,1.08.31-.54q3.37-6,6.89-11.84t7.16-11.68q1.83-2.9,3.71-5.76c1.26-1.9,2.53-3.8,3.84-5.68s2.65-3.72,4-5.54a60.12,60.12,0,0,1,4.45-5.23l.62-.6c.21-.2.41-.4.64-.58l.67-.56.7-.5.7-.5.35-.25.36-.23,1.45-.92a43.14,43.14,0,0,1,12.76-5l.84-.18.85-.15.85-.14.85-.12a28,28,0,0,1,3.45-.25c.29,0,.58,0,.87,0s.58,0,.87.07l.86.13c.28.06.57.1.85.18A20.91,20.91,0,0,1,244.45,36a31.27,31.27,0,0,1,6,3.4c.47.33.93.68,1.39,1a5.87,5.87,0,0,1,1.23,1.32,6.7,6.7,0,0,1,1.09,3.38,12.11,12.11,0,0,1-.34,3.5,17,17,0,0,1-1.14,3.31l0-.12a7,7,0,0,1-.87,2.58,12,12,0,0,1-1.58,2.16,25,25,0,0,1-4,3.47,71.91,71.91,0,0,1-9,5.31l-2.32,1.18-1.15.6a10.84,10.84,0,0,1-1.25.53,37,37,0,0,1-5.11,1.3c-3.42.67-6.86,1.16-10.29,1.7s-6.85,1.07-10.23,1.78q-1.27.27-2.52.58l-1.24.33-.62.18c-.21.06-.4.13-.6.2-.4.12-.78.3-1.17.45l-.57.27c-.19.09-.38.18-.57.28l-.56.3-.55.32c-.37.21-.72.45-1.08.68a38,38,0,0,0-4.05,3.13c-1.29,1.13-2.53,2.33-3.72,3.57s-2.34,2.53-3.45,3.84q-.83,1-1.63,2l-.79,1-.39.51-.19.26-.09.13,0,.06v0a.65.65,0,0,1-.12.13.67.67,0,0,1-.73.09Z"/><path class="cls-24" d="M197.31,22A49.26,49.26,0,0,1,202,25.32c.4.32.79.65,1.18,1l.78-.76.72-.69.65-.6.36-.33.66-.6.65-.57.6-.52.46-.4,1.22-1,1.07-.87.4-.31.5-.4.21-.17.56-.43,1.07-.8.88-.64.82-.58.48-.34c.64-.45,1.29-.89,1.94-1.31l.54-.35.6-.38,1.43-.89,1.38-.83.75-.44L222,12l.66-.37.26-.14.53-.3q2.18-1.2,4.43-2.28v151l-.24,0-.35,0-.36,0h0l-.48,0h-1.31l-.5,0-.26,0h-.17l-.24,0-.34,0-.34,0-.34,0-.91-.13-.3,0-.15,0-.21,0-.81-.16-1-.23-.64-.16-.54-.15-.59-.17-.42-.13-.29-.09-.49-.16-1.13-.4-.52-.2-.12,0-.51-.2-.42-.17-.22-.09-1.07-.48-.56-.26-.54-.26h0l-.49-.25-.59-.31-20.76-20.2v4.42c0,.1,0,.21,0,.31s0,.21,0,.31,0,.21,0,.31,0,.2,0,.31,0,.2,0,.3,0,.19,0,.28v0c0,.1,0,.2-.05.3s0,.18-.05.26l-.05.24c0,.13-.06.25-.09.38l-.08.29h0l-.09.28-.09.28-.08.22-.08.2-.08.21-.08.21-.11.25-.22.45-.11.22-.13.24-.11.19-.26.42-.1.16-.25.36-.14.19-.23.3V17A48.65,48.65,0,0,1,194,20,40.22,40.22,0,0,1,199.32,14a43.52,43.52,0,0,1,28.56-11.4V6.42a39.66,39.66,0,0,0-25.95,10.37A36.34,36.34,0,0,0,197.31,22Z"/><path class="cls-25" d="M145.52,22.16a49.26,49.26,0,0,0-4.68,3.36c-.4.32-.79.65-1.18,1l-.78-.76-.72-.69-.65-.6-.36-.33-.66-.6-.65-.57-.6-.52-.46-.4-1.22-1-1.07-.87-.4-.31-.5-.4-.21-.17-.56-.43-1.07-.8-.88-.64-.82-.58-.48-.34c-.64-.45-1.29-.89-1.94-1.31l-.54-.35-.6-.38-1.43-.89-1.38-.83-.75-.44-.09-.05-.66-.37-.26-.14-.53-.3q-2.18-1.2-4.43-2.28v151l.24,0,.35,0,.36,0h0l.48,0h1.31l.5,0,.26,0h.17l.24,0,.34,0,.34,0,.34,0,.91-.13.3,0,.15,0,.21,0,.81-.16,1-.23.64-.16.54-.15.59-.17.42-.13.29-.09.49-.16,1.13-.4.52-.2.12,0,.51-.2.42-.17.22-.09,1.07-.48.56-.26.54-.26h0l.49-.25.59-.31,20.76-20.2v4.42c0,.1,0,.21,0,.31s0,.21,0,.31,0,.21,0,.31,0,.2,0,.31,0,.2,0,.3,0,.19,0,.28v0c0,.1,0,.2.05.3s0,.18.05.26l.05.24c0,.13.06.25.09.38l.08.29h0l.09.28.09.28.08.22.08.2.08.21.08.21.11.25.22.45.11.22.13.24.11.19.26.42.1.16.25.36.14.19.23.3V17.23a48.65,48.65,0,0,0-6.93,3,40.22,40.22,0,0,0-5.36-6.05,43.52,43.52,0,0,0-28.56-11.4V6.63A39.66,39.66,0,0,1,140.89,17,36.34,36.34,0,0,1,145.52,22.16Z"/><g id="body"><path class="cls-20" d="M189.63,93.27v46.6c0,.1,0,.21,0,.31s0,.21,0,.31,0,.21,0,.31,0,.2,0,.31,0,.2,0,.3,0,.19,0,.28v0c0,.1,0,.2-.05.3s0,.18-.05.26l-.05.24c0,.13-.06.25-.09.38l-.08.29h0l-.09.28-.09.28-.08.22-.08.2-.08.21-.08.21-.11.25-.22.45-.11.22-.13.24-.11.19-.26.42-.1.16-.25.36-.14.19-.23.3-.36.44-.16.18,0,0-.15.16-.36.37-.28.26h0l-.3.26-.06,0-.33.27-.2.16c-.31.23-.64.46-1,.66l-.25.15-.3.17-.22.12-.23.12-.15.07-.45.2-.22.09-.15.06-.23.08-.52.17-.23.07h0l-.28.08-.29.07-.38.08-.26,0-.21,0-.34,0-.36,0-.22,0H163.21a12.14,12.14,0,0,1-12.11-12.11V93.27a2.29,2.29,0,0,1,0-.24,3.49,3.49,0,0,1,3.47-3.25h31.55A3.49,3.49,0,0,1,189.62,93C189.63,93.11,189.63,93.19,189.63,93.27Z"/><path class="cls-26" d="M163.21,149a9.18,9.18,0,0,1-9.17-9.17V93.27a.56.56,0,0,1,.55-.55h31.55a.56.56,0,0,1,.55.55v46.6a9.18,9.18,0,0,1-9.17,9.17Z"/><path class="cls-27" d="M166,144.82c-2.87,0-5.2-3.81-5.2-8.49V93.23c0-.28.14-.51.31-.51H179c.17,0,.31.23.31.51v43.11c0,4.68-2.33,8.49-5.2,8.49Z"/><rect class="cls-28" x="151.1" y="94.37" width="38.53" height="18.9"/></g><g id="butterhead"><path class="cls-20" d="M216.2,45.68a12.7,12.7,0,0,0-.82-3.32,29.74,29.74,0,0,0-2.66-4.94q-.87-1.39-1.83-2.71-.53-.73-1.09-1.44a49.26,49.26,0,0,0-6.63-6.95c-.39-.34-.78-.67-1.18-1A49.26,49.26,0,0,0,197.31,22q-1.63-1-3.35-1.94a49,49,0,0,0-22.44-5.64h-.45a48.93,48.93,0,0,0-22.16,5.27q-1.74.88-3.39,1.89l-.38.23c-.58.43-1.15.87-1.7,1.33h-.32q-1.43,1-2.79,2.08c-.45.36-.89.73-1.33,1.11a49.33,49.33,0,0,0-6.63,7q-.56.71-1.09,1.44-1.15,1.59-2.18,3.27a20.94,20.94,0,0,0-2.21,4.45,10.8,10.8,0,0,0-.45,2.07c-.31,2.64,1.1,10.48,1.1,10.48l.89,4.82,1.11,6h0l.92,5,0,.25.3,1.63.28,1.53.37,2,.67,3.63.3,1.6.14.79,1,5.57L134,89.8l.51,2.76.05.29a1.49,1.49,0,0,0,.31.92,1.51,1.51,0,0,0,1.2.59h70.75a1.51,1.51,0,0,0,1.51-1.51l.06-.33.48-2.61v-.08h0l.39-2.12h0l0-.09,0-.21,1-5.24.15-.79.29-1.6.71-3.82.34-1.82.28-1.53.32-1.74,0-.14.92-5h0l1.11-6L215.3,55l.7-4.16A46.64,46.64,0,0,0,216.2,45.68Z"/><path class="cls-26" d="M137,93l-.44-2.37-.38-2.06L135,82.24l-.29-1.6L130.16,55.8c-.55-3.08-1.25-8.14-1.07-9.68a13.64,13.64,0,0,1,2.29-5.43A46.57,46.57,0,0,1,142,28.61c.64-.51,1.3-1,2-1.49h.43l.74-.61c.52-.43,1-.82,1.51-1.18a46.48,46.48,0,0,1,63.8,14.86c1.6,2.55,2.84,4.69,3.09,7.11a40.89,40.89,0,0,1-.19,4.5l-.68,4L209.12,75l-1,5.63-.3,1.61-1.15,6.23-.06.32h0l-.37,2L205.79,93Z"/><ellipse class="cls-29" cx="147.92" cy="88.32" rx="6.79" ry="2.52"/><ellipse class="cls-29" cx="194.64" cy="88.32" rx="6.79" ry="2.52"/><ellipse class="cls-30" cx="171.15" cy="42.29" rx="33.29" ry="26.69"/><ellipse class="cls-27" cx="171.15" cy="40.62" rx="30.44" ry="24.4"/><path class="cls-31" d="M209.31,87.41v.33l-.06,0h0l0-.09Z"/><path class="cls-20" d="M137.3,87.2A16,16,0,0,1,146.58,59c.33,0,.67,0,1,0a16,16,0,0,1,11.06,27.52L158,87.94l-1-.43a22.24,22.24,0,0,0-8.71-1.73l-1.07,0a23.22,23.22,0,0,0-6.17,1.1c-.49.19-1,.39-1.39.6l-1.3.62Z"/><path class="cls-32" d="M161.95,71.06a14.88,14.88,0,0,0-29.21,4.87A14.74,14.74,0,0,0,138,86.36l.56.47.66-.32c.49-.23,1-.45,1.5-.64a24.26,24.26,0,0,1,6.49-1.17,23.5,23.5,0,0,1,10.26,1.79l.18-.41-.09,0,.22-.21a14.89,14.89,0,0,0,4.18-14.78Z"/><path class="cls-20" d="M203.08,87.55c-.43-.21-.89-.41-1.38-.6a23.22,23.22,0,0,0-6.16-1.14c-.4,0-.81,0-1.21,0a22.22,22.22,0,0,0-8.58,1.68l-1,.43-.6-1.42A16,16,0,0,1,195.25,59c.36,0,.74,0,1.1,0a16,16,0,0,1,14.84,17,15.83,15.83,0,0,1-5.72,11.17l-1.11.92Z"/><path class="cls-32" d="M196.28,60.14A14.88,14.88,0,0,0,185,85.78l.22.21-.09,0,.18.42a23.5,23.5,0,0,1,10.27-1.73,24.26,24.26,0,0,1,6.48,1.2c.51.2,1,.41,1.49.65l.65.32.56-.47A14.74,14.74,0,0,0,210.1,76,14.9,14.9,0,0,0,196.28,60.14Z"/><path class="cls-33" d="M157.77,85.84a14.88,14.88,0,1,0-19.77.52l.56.47.66-.32a20.72,20.72,0,0,1,5.43-1.72,22.13,22.13,0,0,1,2.42-.29,21,21,0,0,1,9.49,1.55l.68.29Z"/><path class="cls-34" d="M146.55,62.17a13.75,13.75,0,0,1,10.28,23.76,22.07,22.07,0,0,0-10-1.64,23.18,23.18,0,0,0-2.54.3,21.87,21.87,0,0,0-5.73,1.82,13.75,13.75,0,0,1,8-24.24Z"/><path class="cls-35" d="M133.7,76.77a13.7,13.7,0,0,0,4.86,9.64,21.87,21.87,0,0,1,5.73-1.82l16.4-12.32a13.75,13.75,0,0,0-27,4.5Z"/><path class="cls-34" d="M133.62,73.61c2.06-.55,3.78-1.52,3.65-2.36-.1-.61-1-1-2.28-1.16,1.88-4,5.84-7.56,10.73-7.91,15.82-1.11,19.84,17.12,10.21,23.37a28.56,28.56,0,0,0-13-.56c-1.16.19-3.56,1.13-4.65,1.43-2.57-2-4.09-5.41-4.62-8.74A13.89,13.89,0,0,1,133.62,73.61Z"/><path class="cls-36" d="M157.43,84.31C160,80.6,161.3,75.91,160,71.54c-1.67-5.56-8.4-8.33-12.89-7.39-3.36.71-7.32,19.12-5.32,20.83.83-.25,1.68-.46,2.54-.64A31.45,31.45,0,0,1,157.43,84.31Z"/><path class="cls-33" d="M157.46,86.5a24.3,24.3,0,0,0-18.81.17l-.18-.41a24.22,24.22,0,0,1,8.71-2,24,24,0,0,1,10.46,1.83Z"/><path class="cls-37" d="M142.11,67c.46.2-.15,1.14-.35,1.6s-2.46,4-2.61,5.14-1.5,4.84-1.67,5.75-.87.51-.87.51-1.07-2.64-.9-3.56a7.07,7.07,0,0,1,1.64-2.59c.42-.48,1.48-1.68,1.42-2.58a3.31,3.31,0,0,1,1.16-3C141,67.49,141.65,66.78,142.11,67Z"/><g class="cls-38"><circle class="cls-32" cx="141.39" cy="67.92" r="2.25" transform="translate(-4.02 9.1) rotate(-3.63)"/></g><g class="cls-39"><circle class="cls-32" cx="140.11" cy="79.75" r="4.73" transform="translate(-4.77 9.04) rotate(-3.63)"/></g><g class="cls-6"><circle class="cls-32" cx="149.45" cy="79.38" r="1.13" transform="translate(-4.73 9.63) rotate(-3.63)"/></g><path class="cls-33" d="M185,85.78a14.88,14.88,0,1,1,19.76.64l-.56.47-.65-.32a20.72,20.72,0,0,0-5.42-1.75,22.13,22.13,0,0,0-2.42-.3,21,21,0,0,0-9.5,1.49l-.68.28Z"/><path class="cls-34" d="M196.36,62.18a13.75,13.75,0,0,0-10.41,23.7,22.07,22.07,0,0,1,10-1.58,23.18,23.18,0,0,1,2.54.32,21.87,21.87,0,0,1,5.72,1.85,13.75,13.75,0,0,0-7.85-24.29Z"/><path class="cls-35" d="M209.13,76.85a13.7,13.7,0,0,1-4.92,9.62,21.87,21.87,0,0,0-5.72-1.85L182.16,72.2a13.75,13.75,0,0,1,27,4.65Z"/><path class="cls-34" d="M209.23,73.69c-2.06-.56-3.78-1.54-3.63-2.38.1-.61,1-1,2.29-1.15-1.86-4-5.8-7.59-10.69-8-15.82-1.2-19.94,17-10.34,23.31a28.56,28.56,0,0,1,13-.49c1.16.19,3.55,1.15,4.65,1.45,2.58-1.94,4.12-5.39,4.67-8.72A13.89,13.89,0,0,0,209.23,73.69Z"/><path class="cls-36" d="M185.36,84.26c-2.55-3.73-3.83-8.43-2.49-12.79,1.7-5.55,8.45-8.29,12.93-7.31,3.36.73,7.21,19.16,5.2,20.86-.83-.25-1.68-.47-2.54-.66A31.45,31.45,0,0,0,185.36,84.26Z"/><path class="cls-33" d="M185.32,86.44a24.3,24.3,0,0,1,18.81.27l.18-.41a24.22,24.22,0,0,0-8.7-2A24,24,0,0,0,185.14,86Z"/><path class="cls-37" d="M200.77,67c-.47.19.15,1.14.34,1.61s2.43,4,2.58,5.15,1.47,4.85,1.64,5.76.87.51.87.51,1.09-2.64.92-3.55a7.07,7.07,0,0,0-1.63-2.6c-.42-.48-1.47-1.68-1.4-2.58a3.31,3.31,0,0,0-1.15-3C201.87,67.53,201.24,66.81,200.77,67Z"/><g class="cls-38"><circle class="cls-32" cx="201.49" cy="67.96" r="2.25" transform="translate(119.79 264.27) rotate(-86.04)"/></g><g class="cls-39"><circle class="cls-32" cx="202.71" cy="79.79" r="4.73" transform="translate(109.11 276.51) rotate(-86.04)"/></g><g class="cls-6"><circle class="cls-32" cx="193.36" cy="79.37" r="1.13" transform="translate(100.83 266.8) rotate(-86.04)"/></g><path class="cls-33" d="M231,4.47A1.93,1.93,0,0,1,229.1,6.4l-1.22,0a39.66,39.66,0,0,0-25.95,10.37A36.34,36.34,0,0,0,197.31,22q-.84,1.14-1.58,2.34-.26.43-.51.86h0l-.19.32a33,33,0,0,0-4.26,15.94c0,.09,0,.19,0,.28a1.93,1.93,0,0,1-1.35,1.84A1.93,1.93,0,0,1,187,42.33a1.94,1.94,0,0,1-.1-.63q0-1.4.1-2.78a36.78,36.78,0,0,1,4.82-15.63l.23-.4c.19-.32.39-.65.59-1q.61-1,1.29-1.91A40.22,40.22,0,0,1,199.32,14a43.52,43.52,0,0,1,28.56-11.4l1.22,0A1.93,1.93,0,0,1,231,4.47Z"/><path class="cls-33" d="M154.3,43.63a1.93,1.93,0,0,1-1.93-1.93A33.74,33.74,0,0,0,141.2,16.79,39.78,39.78,0,0,0,114,6.4a1.93,1.93,0,1,1,0-3.85A43.62,43.62,0,0,1,143.82,14a37.55,37.55,0,0,1,12.4,27.75A1.93,1.93,0,0,1,154.3,43.63Z"/></g><path class="cls-40" d="M303.1,17.21V32.39a64,64,0,0,1-63.77,63.77h-7.77l7,7.08a27.46,27.46,0,0,1,7.27,7.76c3.77,6.23,3.89,13.13,2.06,19.64a40.19,40.19,0,0,1-3.26,8l-6.07,14.42-.19.35-.06.1-.2.33-.21.32-.05.08q-.24.36-.49.69l-.13.17-.13.17c-.18.22-.36.43-.55.63h0l-.29.3,0,0-.25.24h0l-.25.23-.34.28-.34.27-.32.24-.17.11-.17.11-.14.09-.2.12-.35.2-.1.06-.14.08-.11.06-.18.09-.18.09-.15.07-.29.13-.29.12-.26.1-.43.16-.45.15-.19.06-.19.06-.44.12-.23.05H230l-.2,0h-.07l-.39.08-.5.08-.19,0h0l-.31,0-.16,0-.24,0h0l-.24,0-.35,0-.36,0h0l-.48,0h-1.31l-.5,0-.26,0h-.17l-.24,0-.34,0-.34,0-.34,0-.91-.13-.3,0-.15,0-.21,0-.81-.16-1-.23-.64-.16-.54-.15-.59-.17-.42-.13-.29-.09-.49-.16-1.13-.4-.52-.2-.12,0-.51-.2-.42-.17-.22-.09-1.07-.48-.56-.26-.54-.26h0l-.49-.25-.59-.31-20.76-20.2v4.42c0,.1,0,.21,0,.31s0,.21,0,.31,0,.21,0,.31,0,.2,0,.31,0,.2,0,.3,0,.19,0,.28v0c0,.1,0,.2-.05.3s0,.18-.05.26l-.05.24c0,.13-.06.25-.09.38l-.08.29h0l-.09.28-.09.28-.08.22-.08.2-.08.21-.08.21-.11.25-.22.45-.11.22-.13.24-.11.19-.26.42-.1.16-.25.36-.14.19-.23.3-.36.44-.16.18,0,0-.15.16-.36.37-.28.26h0l-.3.26-.06,0-.33.27-.2.16c-.31.23-.64.46-1,.66l-.25.15-.3.17-.22.12-.23.12-.15.07-.45.2-.22.09-.15.06-.23.08-.52.17-.23.07h0l-.28.08-.29.07-.38.08-.26,0-.21,0-.34,0-.36,0-.22,0h-7V14.37A49,49,0,0,1,194,20,40.22,40.22,0,0,1,199.32,14a43.52,43.52,0,0,1,28.56-11.4l1.22,0a1.93,1.93,0,0,1,0,3.85l-1.22,0a39.66,39.66,0,0,0-25.95,10.37A36.34,36.34,0,0,0,197.31,22,49.26,49.26,0,0,1,202,25.32c.4.32.79.65,1.18,1l.78-.76.72-.69.65-.6.36-.33.66-.6.65-.57.6-.52.46-.4,1.22-1,1.07-.87.4-.31.5-.4.21-.17.56-.43,1.07-.8.88-.64.82-.58.48-.34c.64-.45,1.29-.89,1.94-1.31l.54-.35.6-.38,1.43-.89,1.38-.83.75-.44L222,12l.66-.37.26-.14.53-.3q2.18-1.2,4.43-2.28,1.6-.77,3.24-1.48l.72-.31.3-.13.85-.35.15-.06.94-.37.64-.25.18-.07.36-.14,1-.38.78-.28.12,0,.86-.3.35-.12.78-.26.26-.09.91-.28,1.06-.32,1-.3h0l1.07-.3,1.08-.28.25-.06.82-.2h0l1-.23.08,0,1.1-.25H248l1-.22,1.1-.22,1.28-.23.94-.16q1.15-.19,2.3-.35l1.06-.14,1.09-.13h0Q258,.46,259.1.36l1.07-.09h.2l.93-.06h.17l.94-.05.32,0,.75,0,.42,0,1,0,2.23,0h18.73A17.26,17.26,0,0,1,303.1,17.21Z"/><path class="cls-19" d="M162.93,111.86c-6.41,0-11.43-3.73-11.43-8.5a2,2,0,0,1,4,0c0,2.44,3.4,4.5,7.43,4.5a2,2,0,0,1,0,4Z"/><path class="cls-19" d="M162.93,124.14c-6.13,0-10.93-3.51-10.93-8a1.5,1.5,0,0,1,3,0c0,2.71,3.63,5,7.93,5a1.5,1.5,0,0,1,0,3Z"/><path class="cls-19" d="M177.59,111.86a2,2,0,0,1,0-4c4,0,7.43-2.06,7.43-4.5a2,2,0,0,1,4,0C189,108.13,184,111.86,177.59,111.86Z"/><path class="cls-41" d="M187.65,117.19c0,3.59-4.35,6.5-9.72,6.5"/><path class="cls-19" d="M177.59,124.32a1.68,1.68,0,0,1,0-3.35c4.2,0,7.75-2.21,7.75-4.82a1.68,1.68,0,1,1,3.35,0C188.7,120.73,183.82,124.32,177.59,124.32Z"/><path class="cls-19" d="M146.51,154.59a1.68,1.68,0,0,1-1.63-2.08,19.72,19.72,0,0,1,4.25-8.48c2.16-2.37,4.63-3.36,6.93-2.8a1.68,1.68,0,1,1-.8,3.26c-1-.26-2.38.4-3.66,1.8a16.58,16.58,0,0,0-3.47,7A1.68,1.68,0,0,1,146.51,154.59Z"/><path class="cls-19" d="M194,154.59a1.68,1.68,0,0,1-1.63-1.28,16.58,16.58,0,0,0-3.47-7c-1.28-1.4-2.61-2.06-3.66-1.8a1.68,1.68,0,1,1-.8-3.26c2.31-.57,4.77.42,6.93,2.8a19.72,19.72,0,0,1,4.25,8.48,1.68,1.68,0,0,1-1.63,2.08Z"/><polygon class="cls-42" points="291.07 304.85 258.77 301.62 99.42 310.1 79.47 313.97 58.45 317.85 42.13 276.56 40.1 130.85 295.1 130.85 291.07 304.85"/><path class="cls-43" d="M291,306.24c-10.71-.74-21.68-1.58-32.45-2.71h.29L99.51,311.64l.21,0-20.49,3.91-20.52,3.74-1.16.21-.43-1.09L40.87,277.05l-.09-.23v-.25L39.13,130.87v-1h1l255,.6h.38v.38l-4.41,174Zm.06-2.7,3.63-172.69.37.38-255,.6,1-1,2.41,145.7-.09-.48,16.4,41.27-1.59-.88,20.49-3.83,20.45-4,.1,0h.11l159.33-8.85H259c10.3,1,20.38,2.24,30.78,3.65Z"/><g id="titles"><path class="cls-1" d="M279.94,118.7l-2.84,17.15-4-1s-.64,1.84-1,2a16.33,16.33,0,0,0,0,4l-1,4s-8,21-15,25l-12-10c-7-4-21-9-25.57-9.65H114.28c-2.37.74-24.6,5-24.6,5l-4-.5L73.56,143.32,72,127.49v-5l0-.17c-.43-1.37-3.32-10.66-5.11-14.75l-.38-.87.32-.91c.61-1.66,2.31-6.94,2.31-6.94h.19l76.44-.66,72.91-.63,17.85-.15,19.79-.17,8.82,1.61Z"/><polygon class="cls-2" points="68.88 102.98 74.23 118.15 75.57 137.34 86.28 147.16 113.95 142.69 219.26 142.69 245.1 153.85 257.1 162.85 268.79 142.69 269.43 130.14 275.1 132.85 276.1 118.85 265.1 99.85 254.51 98.07 68.88 102.98"/><path class="cls-3" d="M250.28,97.4l-.21,1.17,13.77,13.37s8.66,5.57,9.85,7.27a16,16,0,0,1-1.6,5.23l-.73.17-5.56,2.91L264.63,137a30.63,30.63,0,0,1,.22,3.55c-.75,7.29-6.75,20.29-20.21,11.05h0c-5.53-2.76-14.56-6.5-22.72-12.52l-1.18-.87H113.27l-.64.2c-4.19,1.29-23,4.65-23,4.65l-2.11-.2-8-7.48-.89-12.22v-5.25s-3.28-11.19-5-15.11c.45-1.25.9-2.2,1.4-4Z"/><line class="cls-44" x1="255.71" y1="98.87" x2="197.25" y2="96.81"/><line class="cls-44" x1="69.09" y1="99.41" x2="69.8" y2="97.43"/><polygon class="cls-1" points="71.97 121.65 105.06 118.32 165.38 115.54 104.57 120.54 71.87 126.56 71.97 121.65"/><polygon class="cls-1" points="271.28 130.35 243.57 125.32 238.55 124.41 178.65 116.87 238.87 126.66 270.99 135.25 271.28 130.35"/><polygon class="cls-1" points="243.34 120.83 238.88 115.47 245.13 120.83 245.57 126.78 243.34 126.18 243.34 120.83"/><path class="cls-4" d="M225.42,96.14"/><path class="cls-4" d="M96.1,98.85,70,99.41,68.87,103l5.35,15.17.22,3.35L99,118.93s-23,1.9-23.43,1.45,0-2.68-.45-3.12-5.8-14.28-5.35-14.73A4.83,4.83,0,0,1,72,100.75C73.33,100.3,96.1,98.85,96.1,98.85Z"/><polygon class="cls-4" points="103.78 120.72 74.78 125.96 75.56 137.34 86.27 147.16 113.94 142.69 136.47 142.69 113.94 141.35 87.16 145.37 77.34 136.44 75.56 126.63 103.78 120.72"/><polygon class="cls-4" points="276.1 118.85 264.1 102.85 255.39 101.64 252.97 101.37 229.15 98.74 221.1 97.85 224.23 97.76 231.37 97.56 236.49 97.41 256.1 96.85 265.1 98.85 276.1 118.85"/><polygon class="cls-4" points="275.1 132.85 269.43 130.14 245.57 126.18 245.13 120.83 238.88 115.47 245.57 120.83 246.02 125.74 269.22 129.31 275.1 132.85"/><path class="cls-4" d="M228.95,125.07l9.93,1.56,31.22,5.23-1.32,10.84s-.89-6.25-1.34-6.25-28.56-8.92-28.56-8.92Z"/><polygon class="cls-4" points="179.23 142.69 219.24 142.69 244.1 154.85 257.1 162.85 245.1 153.85 219.69 140.01 179.23 142.69"/><g class="cls-6"><ellipse class="cls-5" cx="105.35" cy="129.03" rx="12" ry="2.9" transform="translate(-16.76 15.73) rotate(-7.91)"/></g><ellipse class="cls-7" cx="255.48" cy="110.58" rx="2.9" ry="5.13" transform="translate(124.17 356.05) rotate(-85.26)"/><ellipse class="cls-5" cx="262.16" cy="115.57" rx="1.17" ry="2.07" transform="translate(125.33 367.29) rotate(-85.26)"/><ellipse class="cls-5" cx="255.74" cy="117.64" rx="1.68" ry="2.97" transform="translate(117.37 362.78) rotate(-85.26)"/><path class="cls-8" d="M152.31,106.55s60.24-1.78,67.38-.89,20.53,4.91,20.53,4.91l-17.85-2.23Z"/><path class="cls-45" d="M219.71,105.53c-6.26-.78-53.78.51-65,.83l-2.38.06v.25l2.8.07,67.24,1.71,17.85,2.23,0-.12,0-.12C240.12,110.4,226.77,106.42,219.71,105.53Zm2.66,2.68-65.57-1.67c14.12-.39,57-1.51,62.88-.77,5.67.71,15.4,3.43,19.06,4.48Z"/><g class="cls-12"><path class="cls-8" d="M171.05,134.21s-60.24-1.78-67.38-.89-20.53,4.91-20.53,4.91L101,136Z"/><path class="cls-46" d="M169.33,134c-9.91-.28-59.28-1.64-65.67-.84-7.07.88-20.41,4.87-20.55,4.91l0,.24L101,136.12l68.41-1.75,1.65,0v-.24Zm-84.7,3.88c3.65-1.06,13.39-3.77,19.06-4.48,1.41-.18,4.93-.25,9.67-.25,15.08,0,42.46.72,53.2,1L101,135.88Z"/></g><g class="cls-16"><path class="cls-8" d="M245.13,146.26s-10.26-2.23-11.16-4-.89-8.48.89-9.37S254,134.66,256.28,136s4.46,4,4.46,4.91-4.46,3.57-4.46,3.57,1.78-1.78,1.34-3.57a5.28,5.28,0,0,0-4-4c-2.23-.45-14.73-3.12-16.06-2.23,0,0-2.68,3.57-1.34,5.8s9.82,4.91,11.16,4,2.23-1.78.89-3.57-8.92-1.78-8.92-1.78h10.26s2.23,2.68,1.78,3.57-.89,3.57-2.23,4S245.13,146.26,245.13,146.26Z"/><path class="cls-47" d="M256.34,135.89c-1.19-.72-6.34-1.73-10.92-2.41s-9.62-1.21-10.61-.72c-1.18.59-1.45,3.31-1.52,4.46a12.48,12.48,0,0,0,.57,5.08c.91,1.8,10.73,4,11.23,4.08a12.29,12.29,0,0,0,3.12.57,3.25,3.25,0,0,0,1-.13c1-.35,1.56-1.93,1.94-3.08a8.8,8.8,0,0,1,.36-1c.47-.93-1.56-3.42-1.8-3.7l0,0H239.33v.24c.07,0,7.54,0,8.82,1.74a2.27,2.27,0,0,1,.62,1.73c-.11.63-.67,1.12-1.48,1.66-.37.25-1.49.2-3-.14-3.18-.71-7.15-2.43-8-3.83-1.24-2.06,1.12-5.38,1.31-5.65.84-.5,5.93.2,15.13,2.09l.83.17a5.16,5.16,0,0,1,3.92,3.92c.43,1.7-1.29,3.44-1.3,3.46l-.7.69.84-.5c.47-.28,4.53-2.74,4.53-3.68S258.59,137.24,256.34,135.89Zm.52,8.09a3.93,3.93,0,0,0,.88-3.11,5.43,5.43,0,0,0-4.11-4.1l-.83-.17c-6-1.24-14.2-2.8-15.33-2l0,0c-.11.15-2.71,3.67-1.34,5.94.9,1.51,4.93,3.22,8.15,4,.93.21,2.58.5,3.17.1.87-.57,1.47-1.1,1.59-1.82a2.55,2.55,0,0,0-.66-1.92c-.68-.9-2.83-1.36-4.86-1.59h6c.63.76,2.07,2.73,1.74,3.39a8,8,0,0,0-.38,1c-.36,1.11-.86,2.62-1.79,2.93-1.28.43-3.91-.44-3.93-.45h0s-2.59-.57-5.23-1.34c-4.39-1.28-5.6-2.12-5.84-2.61a12.29,12.29,0,0,1-.55-5c.13-2.29.65-3.88,1.39-4.25a4,4,0,0,1,1.43-.16c4.59,0,17.84,2.06,19.87,3.28,2.27,1.36,4.4,4,4.4,4.8C260.62,141.43,258.52,142.93,256.86,144Z"/></g><path class="cls-48" d="M279.94,118.7l-2.84,17.15-4-1s-.64,1.84-1,2a16.33,16.33,0,0,0,0,4l-1,4s-8,21-15,25l-12-10c-7-4-21-9-25.57-9.65H173.09l-1.75-7.51-1-4.46-.89-3.86,0-.12,0-.09,0-.12-4.23-18.19-.29-.26,0,0-9.68-8.83-.15-.13-.15-.14-.12-.11-6-5.5-2.85-2.6-.08-.07,72.91-.63,17.85-.15,19.61-.56,9,2Z"/></g><polygon class="cls-49" points="37.6 105.85 25.44 102.97 16.17 111.35 15.15 98.89 4.31 92.67 15.85 87.85 18.42 75.62 26.57 85.1 38.99 83.77 32.49 94.45 37.6 105.85"/><path class="cls-50" d="M37.6,105.85c-1.9-.38-3.85-.68-5.94-1s-4.24-.67-6.41-1.08l.73-.19c-2.93,3-5.93,5.87-8.9,8.8l-2,1.94-.32-2.84-.69-6.21c-.23-2.07-.48-4.14-.67-6.22l.86,1.35-5.47-3c-1.82-1-3.66-2-5.46-3L0,92.41l3.57-1.52L15.08,86l-1.19,1.43,2.64-12.22.83-3.83,2.52,3c2.69,3.18,5.32,6.41,8,9.61l-1.49-.59c4.15-.37,8.31-.65,12.46-1l2.87-.23-1.55,2.31c-2.32,3.46-4.6,7-7,10.38l0-.76c.81,2.05,1.56,4.12,2.26,6.1S36.88,104.07,37.6,105.85Zm0,0c-1-2-2-3.94-3-5.76s-2-3.56-2.85-5.31l-.17-.34.22-.42c2-3.68,4-7.31,6-11l1.32,2.08c-4.13.56-8.26,1.16-12.39,1.68l-.87.11-.62-.7C22.49,83.11,19.7,80,17,76.88L20.31,76,17.8,88.27l-.21,1-1,.4L5.06,94.44,5.27,91c1.81,1,3.58,2.13,5.37,3.19L16,97.4l.8.48.06.87c.14,2.08.23,4.16.34,6.24l.32,6.24-2.28-.9c3.21-2.66,6.39-5.36,9.64-8l.37-.29.37.11c1.89.55,3.77,1.16,5.75,1.8S35.45,105.28,37.6,105.85Z"/><polygon class="cls-49" points="307.67 98.88 301.31 97.37 296.46 101.76 295.93 95.24 290.26 91.98 296.29 89.47 297.64 83.06 301.9 88.03 308.4 87.33 305 92.91 307.67 98.88"/><path class="cls-50" d="M307.67,98.88c-1-.2-2-.36-3.11-.53s-2.22-.35-3.36-.57l.38-.1c-1.53,1.56-3.1,3.07-4.66,4.6l-1,1-.17-1.49-.36-3.25c-.12-1.08-.25-2.17-.35-3.25l.45.71-2.86-1.58c-1-.53-1.91-1-2.86-1.59l-1.76-1,1.87-.79,6-2.56-.62.75,1.38-6.39.43-2,1.32,1.55c1.41,1.66,2.79,3.35,4.18,5l-.78-.31c2.17-.19,4.35-.34,6.52-.52l1.5-.12L309,87.7c-1.21,1.81-2.41,3.64-3.65,5.43l0-.4c.42,1.08.82,2.16,1.18,3.19S307.3,97.95,307.67,98.88Zm0,0c-.51-1.05-1.05-2.06-1.57-3s-1-1.86-1.49-2.78l-.09-.18.12-.22c1-1.93,2.1-3.83,3.15-5.74l.69,1.09c-2.16.29-4.32.61-6.48.88l-.46.06-.33-.37c-1.45-1.63-2.91-3.25-4.34-4.89l1.75-.45-1.31,6.41-.11.54-.51.21-6.05,2.48.11-1.8c.94.54,1.87,1.11,2.81,1.67l2.81,1.68.42.25,0,.46c.07,1.09.12,2.18.18,3.27l.17,3.27-1.19-.47c1.68-1.39,3.34-2.8,5-4.17l.19-.15.19.06c1,.29,2,.61,3,.94S306.55,98.58,307.67,98.88Z"/><polygon class="cls-49" points="242.54 104.56 239.97 101.73 236.17 102.25 238.07 98.92 236.4 95.47 240.15 96.25 242.91 93.6 243.33 97.4 246.71 99.21 243.22 100.79 242.54 104.56"/><path class="cls-50" d="M242.54,104.56c-.41-.43-.86-.84-1.33-1.28s-1-.9-1.44-1.38l.22.08c-1.25.25-2.51.46-3.77.69l-.83.15.41-.77.9-1.69c.3-.56.59-1.13.9-1.69l0,.49-.86-1.71c-.29-.57-.58-1.14-.86-1.71l-.52-1.07,1.17.23,3.75.75-.55.16,2.78-2.63.87-.83.12,1.19c.13,1.27.24,2.54.36,3.81l-.28-.41c1.11.62,2.22,1.27,3.32,1.9l.76.44-.79.32c-1.19.48-2.36,1-3.56,1.42l.14-.18c-.15.66-.32,1.31-.48,1.93S242.67,104,242.54,104.56Zm0,0c.1-.68.17-1.34.24-2s.12-1.24.2-1.84v-.12l.13-.07c1.13-.59,2.28-1.16,3.42-1.73l0,.75c-1.14-.57-2.29-1.13-3.43-1.71l-.24-.12,0-.28c-.16-1.27-.34-2.53-.49-3.8l1,.36-2.75,2.67-.23.22-.32-.07-3.74-.8.65-.83c.28.57.54,1.16.81,1.74l.8,1.74.12.26-.14.23c-.32.55-.66,1.09-1,1.64l-1,1.64-.42-.62c1.27-.12,2.54-.25,3.82-.35h.14l.07.09c.38.47.75.94,1.14,1.45S242.1,104,242.54,104.56Z"/><polygon class="cls-49" points="75.7 114.51 72.17 110.64 66.99 111.36 69.58 106.81 67.3 102.1 72.42 103.15 76.2 99.53 76.78 104.73 81.39 107.2 76.62 109.36 75.7 114.51"/><path class="cls-50" d="M75.7,114.51c-.57-.58-1.17-1.14-1.81-1.75s-1.31-1.23-2-1.89l.3.11c-1.71.34-3.43.63-5.15.94l-1.14.21.56-1.06,1.23-2.31c.41-.77.81-1.54,1.23-2.31l0,.67-1.18-2.33c-.39-.78-.79-1.55-1.17-2.34L65.87,101l1.59.32,5.13,1-.75.22,3.8-3.6,1.19-1.13L77,99.44c.18,1.73.33,3.47.5,5.21l-.38-.56c1.52.85,3,1.73,4.54,2.6l1,.6-1.08.43c-1.62.65-3.23,1.32-4.86,1.95l.2-.25c-.21.9-.43,1.79-.66,2.64S75.87,113.72,75.7,114.51Zm0,0c.14-.93.23-1.84.32-2.7s.16-1.69.27-2.51l0-.16.18-.09c1.55-.81,3.11-1.58,4.67-2.37l0,1c-1.56-.78-3.13-1.55-4.68-2.34l-.33-.17,0-.39c-.22-1.73-.46-3.46-.66-5.19l1.36.49L73,103.76l-.32.31-.43-.09-5.12-1.09.89-1.14c.38.79.74,1.58,1.1,2.37l1.1,2.38.16.35-.19.32c-.44.75-.9,1.49-1.35,2.24l-1.36,2.24-.58-.85c1.74-.16,3.47-.34,5.22-.48l.2,0,.1.12c.52.64,1,1.29,1.56,2S75.09,113.8,75.7,114.51Z"/><g class="cls-51"><path class="cls-52" d="M96.75,112.89l5.31,8.34,5.76-8.34,7.35,5L106,129.75l-.09,8.64-8.07-1.08v-8.82L90.3,117.93Z"/><path class="cls-52" d="M132.3,135.39a10.71,10.71,0,0,1-2.62,1.89,14.15,14.15,0,0,1-3.31,1.23,14.72,14.72,0,0,1-3.65.39,11.18,11.18,0,0,1-3.6-.65,9.73,9.73,0,0,1-3.17-1.87,9.32,9.32,0,0,1-2.34-3.27,13.73,13.73,0,0,1-1.22-4.47,13.51,13.51,0,0,1,.29-4.27,13.76,13.76,0,0,1,1.56-3.89,15.79,15.79,0,0,1,2.61-3.31,17,17,0,0,1,7.5-4.21,10.88,10.88,0,0,1,3.83-.31,10.42,10.42,0,0,1,3.22.85,9,9,0,0,1,2.45,1.6,7.51,7.51,0,0,1,1.52,1.9,15.75,15.75,0,0,1,1.39,4.06,15.3,15.3,0,0,1,.21,4.7,16.05,16.05,0,0,1-1.37,4.9A16.48,16.48,0,0,1,132.3,135.39Zm-4-12.78a2.83,2.83,0,0,0-1.27-1.38,3.4,3.4,0,0,0-1.79-.36,5.06,5.06,0,0,0-2,.56,6.18,6.18,0,0,0-1.8,1.38,7.28,7.28,0,0,0-1.33,2.15,7.18,7.18,0,0,0-.53,2.79,5.15,5.15,0,0,0,.41,2.34,3.17,3.17,0,0,0,1.11,1.33,3.09,3.09,0,0,0,1.54.48,4.46,4.46,0,0,0,1.72-.25,5.77,5.77,0,0,0,2.87-2.25,10.33,10.33,0,0,0,1.09-2.17,7.92,7.92,0,0,0,.42-1.85,5.06,5.06,0,0,0-.08-1.53A5.19,5.19,0,0,0,128.31,122.61Z"/><path class="cls-52" d="M154.59,114.15q.18,4.59.25,7.38t.11,4.29q0,1.5,0,2v.48a18.33,18.33,0,0,1-.27,3.51,9.23,9.23,0,0,1-1.09,3,7.51,7.51,0,0,1-2.16,2.34,8.56,8.56,0,0,1-3.41,1.36,13.65,13.65,0,0,1-5.37.12,7.82,7.82,0,0,1-3.71-1.8,7.6,7.6,0,0,1-2.12-3.34,13.26,13.26,0,0,1-.6-4.46v-.3q0-.3,0-1.26t.06-2.7q0-1.74.12-4.65t.21-7.08l8.58,1.5-.78,14.1a3.73,3.73,0,0,0,0,1.38,3.46,3.46,0,0,0,.29.87,2.43,2.43,0,0,0,.18.3,1.15,1.15,0,0,0,.69.39q.39.06.87-.72a2.64,2.64,0,0,0,.18-.37,6,6,0,0,0,.3-1.21,10,10,0,0,0,.09-2.13l-.63-11.52Z"/><path class="cls-52" d="M163.11,116l8.16-3.54,3.18,9.81,5.43-8.34,4.53,7.86L188,111l6.9,4.95L187.47,138,180,130.38l-7.71,9.72Z"/><path class="cls-52" d="M204.18,113.19l-1.23,24.27-7.89.9.3-24.12Z"/><path class="cls-52" d="M206.58,113.4,218,122.91l.27-9.93,8.94.6-1.38,22.89-11.49-5.73.42,7.08-8.61.54Z"/><path class="cls-52" d="M240.51,138.78a6.74,6.74,0,0,1-1.67-.85,5.29,5.29,0,0,1-1.2-1.16,3.62,3.62,0,0,1-.63-1.32,2.19,2.19,0,0,1,.07-1.32,2.36,2.36,0,0,1,.75-1.08,3.42,3.42,0,0,1,1.31-.66,5.28,5.28,0,0,1,1.67-.17,7.12,7.12,0,0,1,1.83.35,6.72,6.72,0,0,1,1.66.85,5.29,5.29,0,0,1,1.2,1.15,3.45,3.45,0,0,1,.62,1.32,2.46,2.46,0,0,1-.06,1.32,2.28,2.28,0,0,1-.75,1.06,3.75,3.75,0,0,1-1.31.66,5.27,5.27,0,0,1-1.67.19A6.07,6.07,0,0,1,240.51,138.78Zm5.76-7a7.27,7.27,0,0,0-1.79-.89,9.16,9.16,0,0,0-4.26-.36,7.1,7.1,0,0,0-1.85.56L240,110.31l8.88-.36Z"/></g><path class="cls-53" d="M96.75,109.89l5.31,8.34,5.76-8.34,7.35,5L106,126.75l-.09,8.64-8.07-1.08v-8.82L90.3,114.93Z"/><path class="cls-53" d="M132.3,132.39a10.71,10.71,0,0,1-2.62,1.89,14.15,14.15,0,0,1-3.31,1.23,14.72,14.72,0,0,1-3.65.39,11.18,11.18,0,0,1-3.6-.65,9.73,9.73,0,0,1-3.17-1.87,9.32,9.32,0,0,1-2.34-3.27,13.73,13.73,0,0,1-1.22-4.47,13.51,13.51,0,0,1,.29-4.27,13.76,13.76,0,0,1,1.56-3.89,15.79,15.79,0,0,1,2.61-3.31,17,17,0,0,1,7.5-4.21,10.88,10.88,0,0,1,3.83-.31,10.42,10.42,0,0,1,3.22.85,9,9,0,0,1,2.45,1.6,7.51,7.51,0,0,1,1.52,1.9,15.75,15.75,0,0,1,1.39,4.06,15.3,15.3,0,0,1,.21,4.7,16.05,16.05,0,0,1-1.37,4.9A16.48,16.48,0,0,1,132.3,132.39Zm-4-12.78a2.83,2.83,0,0,0-1.27-1.38,3.4,3.4,0,0,0-1.79-.36,5.06,5.06,0,0,0-2,.56,6.18,6.18,0,0,0-1.8,1.38,7.28,7.28,0,0,0-1.33,2.15,7.18,7.18,0,0,0-.53,2.79,5.15,5.15,0,0,0,.41,2.34,3.17,3.17,0,0,0,1.11,1.33,3.09,3.09,0,0,0,1.54.48,4.46,4.46,0,0,0,1.72-.25,5.77,5.77,0,0,0,2.87-2.25,10.33,10.33,0,0,0,1.09-2.17,7.92,7.92,0,0,0,.42-1.85,5.06,5.06,0,0,0-.08-1.53A5.19,5.19,0,0,0,128.31,119.61Z"/><path class="cls-53" d="M154.59,111.15q.18,4.59.25,7.38t.11,4.29q0,1.5,0,2v.48a18.33,18.33,0,0,1-.27,3.51,9.23,9.23,0,0,1-1.09,3,7.51,7.51,0,0,1-2.16,2.34,8.56,8.56,0,0,1-3.41,1.36,13.65,13.65,0,0,1-5.37.12,7.82,7.82,0,0,1-3.71-1.8,7.6,7.6,0,0,1-2.12-3.34,13.26,13.26,0,0,1-.6-4.46v-.3q0-.3,0-1.26t.06-2.7q0-1.74.12-4.65t.21-7.08l8.58,1.5-.78,14.1a3.73,3.73,0,0,0,0,1.38,3.46,3.46,0,0,0,.29.87,2.43,2.43,0,0,0,.18.3,1.15,1.15,0,0,0,.69.39q.39.06.87-.72a2.64,2.64,0,0,0,.18-.37,6,6,0,0,0,.3-1.21,10,10,0,0,0,.09-2.13l-.63-11.52Z"/><path class="cls-53" d="M163.11,113l8.16-3.54,3.18,9.81,5.43-8.34,4.53,7.86L188,108l6.9,4.95L187.47,135,180,127.38l-7.71,9.72Z"/><path class="cls-53" d="M204.18,110.19l-1.23,24.27-7.89.9.3-24.12Z"/><path class="cls-53" d="M206.58,110.4,218,119.91l.27-9.93,8.94.6-1.38,22.89-11.49-5.73.42,7.08-8.61.54Z"/><path class="cls-53" d="M240.51,135.78a6.74,6.74,0,0,1-1.67-.85,5.29,5.29,0,0,1-1.2-1.16,3.62,3.62,0,0,1-.63-1.32,2.19,2.19,0,0,1,.07-1.32,2.36,2.36,0,0,1,.75-1.08,3.42,3.42,0,0,1,1.31-.66,5.28,5.28,0,0,1,1.67-.17,7.12,7.12,0,0,1,1.83.35,6.72,6.72,0,0,1,1.66.85,5.29,5.29,0,0,1,1.2,1.15,3.45,3.45,0,0,1,.62,1.32,2.46,2.46,0,0,1-.06,1.32,2.28,2.28,0,0,1-.75,1.06,3.75,3.75,0,0,1-1.31.66,5.27,5.27,0,0,1-1.67.19A6.07,6.07,0,0,1,240.51,135.78Zm5.76-7a7.27,7.27,0,0,0-1.79-.89,9.16,9.16,0,0,0-4.26-.36,7.1,7.1,0,0,0-1.85.56L240,107.31l8.88-.36Z"/><path class="cls-1" d="M95.25,169.85v8.89h4.54v1.6H93.48v-10.5Z"/><path class="cls-1" d="M109,169.85v1.59h-5.73v2.85h5.13v1.57h-5.13v2.9h5.91v1.59h-7.68v-10.5Z"/><path class="cls-1" d="M111.9,169.85l3.24,8.53,3.27-8.53h1.84L116,180.35h-1.83L110,169.85Z"/><path class="cls-1" d="M129.18,169.85v1.59h-5.73v2.85h5.13v1.57h-5.13v2.9h5.91v1.59h-7.68v-10.5Z"/><path class="cls-1" d="M133.29,169.85v8.89h4.54v1.6h-6.31v-10.5Z"/><path class="cls-1" d="M148.71,171.38a3.7,3.7,0,1,0,0,7.4,4.34,4.34,0,0,0,2.92-1.25l1,1.17a6,6,0,0,1-4.06,1.73,5.31,5.31,0,1,1,.06-10.62,5.79,5.79,0,0,1,4,1.62l-1,1.29A4.1,4.1,0,0,0,148.71,171.38Z"/><path class="cls-1" d="M164.52,175.1a5.57,5.57,0,1,1-5.56-5.29A5.37,5.37,0,0,1,164.52,175.1Zm-9.33,0a3.76,3.76,0,0,0,3.78,3.73,3.72,3.72,0,1,0-3.78-3.73Z"/><path class="cls-1" d="M168.51,169.85l3.46,7,3.45-7h2.08v10.5h-1.63l0-7.84-3.31,6.75h-1.16l-3.31-6.75v7.84h-1.67v-10.5Z"/><path class="cls-1" d="M188.62,173.44c0,2.37-1.51,3.75-4.16,3.75h-2.42v3.17h-1.77v-10.5h4.18C187.11,169.85,188.62,171.16,188.62,173.44Zm-1.7,0c0-1.38-.92-2-2.53-2h-2.34v4.15h2.34C186,175.6,186.93,174.91,186.93,173.48Z"/><path class="cls-1" d="M192.15,169.85v8.89h4.54v1.6h-6.31v-10.5Z"/><path class="cls-1" d="M205.89,169.85v1.59h-5.73v2.85h5.13v1.57h-5.13v2.9h5.91v1.59h-7.68v-10.5Z"/><path class="cls-1" d="M215.4,169.85v1.59h-3.33v8.91H210.3v-8.91H207v-1.59Z"/><path class="cls-1" d="M224.41,169.85v1.59h-5.73v2.85h5.13v1.57h-5.13v2.9h5.91v1.59h-7.68v-10.5Z"/><path class="cls-1" d="M236.49,175.1a5.19,5.19,0,0,1-5.47,5.25h-4.26v-10.5h4.3A5.16,5.16,0,0,1,236.49,175.1Zm-1.78,0a3.58,3.58,0,0,0-3.68-3.67h-2.5v7.32h2.58A3.52,3.52,0,0,0,234.7,175.12Z"/><path class="cls-1" d="M239.74,179.48a.95.95,0,1,1-1.89,0,.95.95,0,1,1,1.89,0Zm-.12-9.51v2.59l-.29,4.44h-1.08l-.29-4.44V170Z"/></g></g></svg>