<svg xmlns="http://www.w3.org/2000/svg" viewBox="0 0 98.49 40.05"><defs><style>.cls-1{fill:#0d7a08;}.cls-2{fill:#10b208;}.cls-3{fill:#17c10e;}.cls-4{fill:#076302;opacity:0.14;}.cls-5{fill:#eaeaea;}</style></defs><title>login-btn</title><g id="Layer_2" data-name="Layer 2"><g id="Layer_1-2" data-name="Layer 1"><polygon class="cls-1" points="98.49 36.65 97.35 37.37 93.13 40.05 47.27 38.71 41.31 38.53 33.28 38.29 0.67 37.33 0 9.47 0.68 8.55 6.03 1.31 47.27 4.96 52.53 5.43 90.45 8.79 95.92 12.67 97.15 13.55 98.49 36.65"/><polygon class="cls-2" points="97.18 34.14 91.92 37.43 47.27 36.13 36.02 35.8 1.31 34.8 0.68 8.55 0.66 7.88 6.57 0 47.27 3.55 52.53 4.01 89.3 7.22 95.86 11.82 95.92 12.67 97.18 34.14"/><polygon class="cls-3" points="3.88 32.25 3.3 8.73 7.79 2.74 88.37 9.78 93.31 13.24 94.46 32.74 91.2 34.78 3.88 32.25"/><polygon class="cls-4" points="98.49 36.65 97.35 37.37 41.31 38.53 32.83 38.71 33.28 38.29 36.02 35.8 38.82 33.26 52.53 20.79 52.53 4.01 89.3 7.22 95.86 11.82 95.92 12.67 97.15 13.55 98.49 36.65"/><path class="cls-5" d="M26,13.5l5.34-.75-.46,10,4.34-.9.21,5-9.31.94Z"/><path class="cls-5" d="M46.23,21.26a5.51,5.51,0,0,1-.12,2.28,5.1,5.1,0,0,1-.94,1.86,5.21,5.21,0,0,1-1.61,1.33,6.25,6.25,0,0,1-2.15.68,6.6,6.6,0,0,1-2.27-.07,5.24,5.24,0,0,1-1.93-.82A5,5,0,0,1,35.79,25a5.42,5.42,0,0,1-.73-2.15,5.5,5.5,0,0,1,.11-2.28,5.11,5.11,0,0,1,2.55-3.21,6.24,6.24,0,0,1,2.15-.68,6.55,6.55,0,0,1,2.26.07,5.25,5.25,0,0,1,1.92.82,5,5,0,0,1,1.42,1.53A5.74,5.74,0,0,1,46.23,21.26Zm-7.45,1.51a1.54,1.54,0,0,0,1,.9,2.1,2.1,0,0,0,1.49-.14,2.16,2.16,0,0,0,1.13-1,1.5,1.5,0,0,0,0-1.3,1.57,1.57,0,0,0-1-.89A2,2,0,0,0,40,20.5a2.14,2.14,0,0,0-1.14,1A1.48,1.48,0,0,0,38.79,22.77Z"/><path class="cls-5" d="M47.83,27.07a12,12,0,0,0,1.25.35,5.94,5.94,0,0,0,1.3.14,4.62,4.62,0,0,0,.57,0,1.57,1.57,0,0,0,.51-.15,1,1,0,0,0,.37-.32.93.93,0,0,0,.14-.54.9.9,0,0,0-.17-.56,1.17,1.17,0,0,0-.46-.35,2.21,2.21,0,0,0-.66-.18,6.35,6.35,0,0,0-.76,0,3.51,3.51,0,0,0-.94.13,4.58,4.58,0,0,0-.89.35l.34-1.06a4.43,4.43,0,0,1-1.82-1.55A4.24,4.24,0,0,1,46,20.87a4.45,4.45,0,0,1,.27-1.5A4.12,4.12,0,0,1,47.1,18a4.51,4.51,0,0,1,1.49-1,5.23,5.23,0,0,1,2.16-.41,6.19,6.19,0,0,1,1.12.09,6.82,6.82,0,0,1,.9.23l.3-1.86,2.84,1.22L55,18a3.69,3.69,0,0,1,.86,1.27,4,4,0,0,1,.29,1.53,3.77,3.77,0,0,1-.45,1.91,4.12,4.12,0,0,1-1.34,1.37A3.17,3.17,0,0,1,56.09,27a3.41,3.41,0,0,1-.41,1.68,3.5,3.5,0,0,1-1.16,1.23,5.74,5.74,0,0,1-1.81.75,10,10,0,0,1-2.35.26,10.55,10.55,0,0,1-2.59-.27q-1-.27-1.67-.48Zm3.42-5a1.5,1.5,0,0,0,.9-.5,1,1,0,0,0,.21-.83,1,1,0,0,0-.54-.67,1.54,1.54,0,0,0-1-.09,1.58,1.58,0,0,0-.9.51,1,1,0,0,0-.21.82.93.93,0,0,0,.52.68A1.48,1.48,0,0,0,51.25,22.09Z"/><path class="cls-5" d="M57.31,12.82l4.06-.18-.21,3.12L57.3,16Zm0,4.48,4-.32-.2,10.23-3.76.32Z"/><path class="cls-5" d="M66.21,18.25h.07a3.28,3.28,0,0,1,1.2-1.08,3.15,3.15,0,0,1,1.34-.28,3.06,3.06,0,0,1,1.31.27,2.7,2.7,0,0,1,1,.75A3.38,3.38,0,0,1,71.68,19a4.52,4.52,0,0,1,.2,1.38v6.86l-3.83.32.05-6.45a.62.62,0,0,0-.24-.53.93.93,0,0,0-.61-.21,1,1,0,0,0-.61.2.66.66,0,0,0-.28.56l.07,6.4-3.78-.27-.14-10.09,3.69-.3Z"/></g></g></svg>