<?xml version="1.0" encoding="utf-8"?>
<!-- Generator: Adobe Illustrator 21.0.1, SVG Export Plug-In . SVG Version: 6.00 Build 0)  -->
<svg version="1.1" id="Layer_1" xmlns="http://www.w3.org/2000/svg" xmlns:xlink="http://www.w3.org/1999/xlink" x="0px" y="0px" width="645" height="46.5" style="enable-background:new 0 0 645 46.5;" xml:space="preserve">
<style type="text/css">
	.st0{clip-path:url(#SVGID_2_);}
	.st1{fill:#492812;}
	.st2{fill:#86502A;}
	.st3{fill:#784418;}
	.st4{fill:#B87F50;}
	.st5{fill:#5D3B20;}
	.st6{opacity:0.41;}
	.st7{fill:#683F29;}
	.st8{fill:#5C2F0B;}
	.st9{fill:url(#SVGID_3_);}
	.st10{fill:url(#SVGID_4_);}
	.st11{fill:url(#SVGID_5_);}
	.st12{opacity:0.76;}
	.st13{fill:url(#SVGID_6_);}
	.st14{opacity:0.49;}
	.st15{fill:url(#SVGID_7_);}
	.st16{opacity:0.7;}
	.st17{fill:url(#SVGID_8_);}
	.st18{opacity:0.57;}
	.st19{fill:#5B280C;}
	.st20{fill:#5E260B;}
</style>
<title>middle-topwood</title>
<g id="Layer_2">
	<g id="Layer_1-2">
		<g>
			<g>
				<defs>
					<rect id="SVGID_1_" y="-21" width="645" height="105"/>
				</defs>
				<clipPath id="SVGID_2_">
					<use xlink:href="#SVGID_1_"  style="overflow:visible;"/>
				</clipPath>
				<g class="st0">
					<path class="st1" d="M-218.5,61.4C-161.2,57-88.4,49-52,46.1l741.3-1.8c1.1,0.1,2.5,33.9,2.5,33.9l98.9,21.9
						c130.7,1.2,253.6-1.7,312-7.3l57.3-16l-8.5-20.9l-1.9-19.2l-3.7-4.7v-2.3c0,0,12.2-4.7,19.5-6.6l1.5-0.4l-1.2-0.4
						c-2.3-0.7-9.8-3.7-9.8-3.7l4.9-5.2l5.3-5.2l-25.2-8H821.6C674.8,0.1-488.2,0.5-488.2,0.5l-13.7,10.6l6.9,3.9l5.1,3.4l-4.3,0.7
						l-17.7,8.9l12.4,6.9c1.7,0.4,3.4,0.7,5.2,0.9c1.2,0.4,10.5,14.6,10.5,14.6s57.3,8.8,83.2,10.9H-218.5z"/>
					<path class="st2" d="M1132.2,36.3l1,16l5.7,24.4l-57.3,13.9c-71.5,5.3-193.9,6.9-280.9,5.8l-104-21.9V41l-759.4,2.2
						l-161.2,14.6h-166.5l-84.7-8.8l2.8-15.8l-21.3-0.9l-11.9-4.2l22-9.1l-13.5-7.7L-483.5,1h1617.2l23.7,6.2l-10.2,10.1l10.2,3.8
						l-20.2,6.8L1132.2,36.3z"/>
					<path class="st3" d="M-488.2,28.3c0.3,0.6,3.4,1.8,6,2.3l2.8,0.1l21.1,1.3l4.5,4.2c0,0-1.1,11.4-0.8,11.8
						c11.5,1.9,54.1,7.5,80.2,8.2c0,0,72.2,0.9,145.6-2.9c40.9-2.1,99.7-7.4,155.2-11.2l4.5-0.4l771.3-2.3l5.2,29.2
						c0,0.7,98.9,26.2,98.9,26.2l249.7-6.6l57.3-12.4l5.1-26.2l-1-14.3l3.4-5.5v-2.3c0,0,12.4-5,18.9-6.7c-1.7-0.6-4.4-1.6-6.2-2.4
						c-1.3-0.6-2.3-0.9-2.3-0.9l5.1-6.1l4.9-4.2l-17.5-4.8c0,0-192.4-0.7-334-0.7c-141,0-1261.7,0.7-1261.7,0.7l-7.1,3.1l-0.7,5
						l0.1,0.6l5.8,2.9l6.7,4.5l0.7,0.5l15.6,6C-450.9,25-483.7,27.5-488.2,28.3z"/>
					<polygon class="st1" points="1164.4,8.1 943.1,7.1 1164.4,9.7 					"/>
					<polygon class="st1" points="-487.7,19.2 671.8,18.3 -488.7,17.6 					"/>
					<polygon class="st1" points="1154.1,18.5 672.9,16.3 1156.8,19.5 					"/>
					<polygon class="st1" points="1145.9,29.3 1020.6,27.9 792.4,26.6 1022.5,28.9 1146.3,31.5 					"/>
					<polygon class="st1" points="-478.9,33.6 -374.4,30.5 -355.5,29.9 743.4,30.4 -356.4,31.6 -463,35.9 -477.3,44.5 					"/>
					<polygon class="st1" points="-373.3,28.9 -356.4,26.6 -380.1,28.9 -381.7,31.6 -373.3,31.4 					"/>
					<path class="st4" d="M1119.7,7.9l37.1,0.1l0.8-0.9L1134,0.9H860.1H663.4H-483.2L-496.7,11l11.6,6.5l179.7,0.4L-478,16.6
						c0,0-11.9-5.2-11.9-5.5c0-0.4,6.7-9.6,10.2-9.8c3.3-0.1,1605.2,0.4,1605.2,0.4c1.7,0,3.4,0.1,5.1,0.2c1.7,0.2,20.2,4.7,20.2,5
						S1139.1,7.7,1119.7,7.9z"/>
					<path class="st4" d="M1133.6,9.3l21.6,0.2l-7.6,7.7l3.4,1.3l-115.8-0.7c0,0,103.8,0.5,105.5-0.1s10.2-6.9,8.4-7.4
						C1147.4,10,1143.3,9.8,1133.6,9.3z"/>
					<path class="st4" d="M1055,18.8l98.3,0.7l4.3,1.6l-20.2,6.8l-0.8,1.5l-92.9-1.2c0,0,87,0.9,88.7,0.7s0-1.2,1.7-1.4
						s22-6.3,20.2-6.6c-2.7-0.4-5.6-0.7-8.4-0.8C1140.7,19.8,1055,18.8,1055,18.8z"/>
					<path class="st4" d="M1025.5,28.9l109.7,2.3l-3,5.1l1,16l5.7,24.4l-57.3,13.9c-70.5,5.3-193,6.9-280.9,5.8
						c114.4,1.5,217-2.9,270.4-7.3l57.3-13.1l1.3-24.4l-4.5-15.6l6.7-4.4L1025.5,28.9z"/>
					<polygon class="st4" points="-291.7,18.7 -488.9,19.1 -505.1,28 -478.5,20.6 					"/>
					<polygon class="st4" points="-493.2,32.2 -473.3,33.7 -379.7,30.8 -380.1,28.9 -356.4,26.6 -381.7,28.9 -384.8,30 -471.3,32.7 
											"/>
					<path class="st4" d="M-353.4,31.8l-128.2,4l6.8,10.8c0,0,10.2-10,11.8-10S-353.4,31.8-353.4,31.8z"/>
					<polygon class="st4" points="697,41 -62.4,43.2 -223.6,57.8 -390.1,57.8 -223.6,56.3 -62.4,41.7 					"/>
					<path class="st5" d="M1079.4,12.7c-0.8,0.7,4.7,1.4,12.2,1.5c7.6,0.1,14.3-0.4,15.1-1.1c0.8-0.7-4.7-1.4-12.2-1.5
						C1087,11.5,1080.3,12,1079.4,12.7z"/>
					<g class="st6">
						<path class="st5" d="M1007.1,32.5c-0.8,0.7,12.9,1.5,30.6,1.8c17.6,0.3,32.7-0.1,33.4-0.8s-12.9-1.5-30.6-1.8
							C1022.9,31.4,1007.9,31.9,1007.1,32.5z"/>
					</g>
					<path class="st5" d="M1064.8,14.4c-0.4,0.4,2.7,0.8,7.1,0.9c4.4,0.1,8.3-0.2,8.7-0.7s-2.7-0.8-7.1-0.9
						C1069.2,13.6,1065.2,14,1064.8,14.4z"/>
					<path class="st7" d="M-421.8,24.4c0.4,0.7,5.7,1.2,11.7,1.2s10.6-0.7,10.1-1.4c-0.4-0.7-5.7-1.2-11.7-1.2
						S-422.2,23.7-421.8,24.4z"/>
					<path class="st5" d="M-441,26.5c0.2,0.3,3,0.5,6.1,0.4c3.1,0,5.6-0.3,5.4-0.6c-0.2-0.3-3-0.5-6.1-0.4
						C-438.7,26-441.2,26.3-441,26.5z"/>
					<path class="st5" d="M-425.5,27.6c0.3,0.4,4.1,0.7,8.7,0.7c4.6-0.1,8-0.4,7.7-0.8c-0.3-0.4-4.1-0.7-8.7-0.7
						C-422.4,26.9-425.7,27.2-425.5,27.6z"/>
					<path class="st8" d="M764.1,4.7c-43.9-0.2-1037.7-1-1059.7-0.8c-22,0.2-184.1,1.6-184.1,1.6l177.5-0.4L764.1,4.7z"/>
					
						<radialGradient id="SVGID_3_" cx="137" cy="15.8099" r="423.9834" gradientTransform="matrix(1.0373 0 0 0.7292 0 -7.38)" gradientUnits="userSpaceOnUse">
						<stop  offset="0" style="stop-color:#B87F50;stop-opacity:0.4"/>
						<stop  offset="0.11" style="stop-color:#C2946D;stop-opacity:0.31"/>
						<stop  offset="0.31" style="stop-color:#D0B49A;stop-opacity:0.17"/>
						<stop  offset="0.52" style="stop-color:#DBCBBB;stop-opacity:8.000000e-02"/>
						<stop  offset="0.74" style="stop-color:#E1D9CE;stop-opacity:2.000000e-02"/>
						<stop  offset="1" style="stop-color:#E3DDD4;stop-opacity:0"/>
					</radialGradient>
					<path class="st9" d="M-479.9,5.5c0.9,0,162.4-1.4,184.2-1.6c16.1-0.1,955.6,0.2,1010.9,0.5c19.9,0.1,37.1,0.2,48.9,0.2v0.1
						L-302.3,5.2l-177.4,0.4L-479.9,5.5z M715.2,4.5C662.8,4.2-284.4,2.6-300.5,2.8c-17.4,0.1-144.6,2.3-169.4,2.6L-302.3,5
						l1051-0.4L715.2,4.5z"/>
					<path class="st8" d="M180.2,10.6c0,0-450-2.6-468.7-2.3c-18.8,0.3-46.1,3.6-46.1,3.6l454.7-2L180.2,10.6z"/>
					
						<radialGradient id="SVGID_4_" cx="281.0167" cy="23.7984" r="50.1825" gradientTransform="matrix(1.0373 0 0 0.7292 0 -7.38)" gradientUnits="userSpaceOnUse">
						<stop  offset="0" style="stop-color:#B87F50;stop-opacity:0.4"/>
						<stop  offset="0.11" style="stop-color:#C2946D;stop-opacity:0.31"/>
						<stop  offset="0.31" style="stop-color:#D0B49A;stop-opacity:0.17"/>
						<stop  offset="0.52" style="stop-color:#DBCBBB;stop-opacity:8.000000e-02"/>
						<stop  offset="0.74" style="stop-color:#E1D9CE;stop-opacity:2.000000e-02"/>
						<stop  offset="1" style="stop-color:#E3DDD4;stop-opacity:0"/>
					</radialGradient>
					<path class="st10" d="M-334.5,11.7c0.3,0,27.6-3.3,46.1-3.6c18.6-0.3,468.2,2.3,468.7,2.3v0.1l-60.1-0.7l-454.7,2V11.7z
						 M175.9,10.4c-12-0.6-449.2-2.3-464.4-2c-15.2,0.3-36.7,2.6-43.7,3.3l452.3-1.8L175.9,10.4z"/>
					<path class="st8" d="M841.8,22.9c0,0-1098.6-1.1-1125.6-0.5c-27,0.6-77.7,3-77.7,3L-294,24L841.8,22.9z"/>
					
						<radialGradient id="SVGID_5_" cx="231.45" cy="42.3212" r="410.1621" gradientTransform="matrix(1.0373 0 0 0.7292 0 -7.38)" gradientUnits="userSpaceOnUse">
						<stop  offset="0" style="stop-color:#B87F50;stop-opacity:0.3"/>
						<stop  offset="0.22" style="stop-color:#CAA687;stop-opacity:0.17"/>
						<stop  offset="0.46" style="stop-color:#D8C5B2;stop-opacity:8.000000e-02"/>
						<stop  offset="0.71" style="stop-color:#E0D7CC;stop-opacity:2.000000e-02"/>
						<stop  offset="1" style="stop-color:#E3DDD4;stop-opacity:0"/>
					</radialGradient>
					<path class="st11" d="M-361.6,25.3c0.5,0,72.5-3.9,76.2-3.9c27,0,1125,1.5,1127.1,1.5V23l-1135.6,1.1l-67.5,1.4L-361.6,25.3z
						 M-289.1,21.4c-7.6,0-52.9,3.1-66.8,3.8l61.9-1.2l1118.7-1C771.3,22.7-266.6,21.4-289.1,21.4L-289.1,21.4z"/>
					<g class="st12">
						<path class="st8" d="M770.9,34.9c0,0,228-0.8,255.1-0.4c27.1,0.4,77.7,9.5,77.7,9.5l-67.5-8.3L770.9,34.9z"/>
						
							<radialGradient id="SVGID_6_" cx="560.4453" cy="63.2311" r="33.247" gradientTransform="matrix(1.0373 0 0 0.7292 0 -7.38)" gradientUnits="userSpaceOnUse">
							<stop  offset="0" style="stop-color:#B87F50;stop-opacity:0.3"/>
							<stop  offset="0.22" style="stop-color:#CAA687;stop-opacity:0.17"/>
							<stop  offset="0.46" style="stop-color:#D8C5B2;stop-opacity:8.000000e-02"/>
							<stop  offset="0.71" style="stop-color:#E0D7CC;stop-opacity:2.000000e-02"/>
							<stop  offset="1" style="stop-color:#E3DDD4;stop-opacity:0"/>
						</radialGradient>
						<path class="st13" d="M1036.1,35.8L770.9,35v-0.1c2.3,0,228.3-0.8,255.1-0.4c26.8,0.4,77.3,9.5,77.8,9.5l-0.2,0.1L1036.1,35.8
							z M787.8,34.9l248.1,0.7l61.9,8.2c-13.9-0.5-56-10.1-77.5-10.4c-5.4-0.1-12.3,0-30.3,0C933.2,33.5,828.6,34.8,787.8,34.9
							L787.8,34.9z"/>
					</g>
					<g class="st14">
						<path class="st8" d="M528.4,10.4c0,0,228-1.2,255.1-0.6c27.1,0.6,77.7,3.2,77.7,3.2l-67.5-1.5L528.4,10.4z"/>
						
							<radialGradient id="SVGID_7_" cx="493.6717" cy="24.5929" r="32.6041" gradientTransform="matrix(1.0373 0 0 0.7292 0 -7.38)" gradientUnits="userSpaceOnUse">
							<stop  offset="0" style="stop-color:#B87F50;stop-opacity:0.3"/>
							<stop  offset="0.22" style="stop-color:#CAA687;stop-opacity:0.17"/>
							<stop  offset="0.46" style="stop-color:#D8C5B2;stop-opacity:8.000000e-02"/>
							<stop  offset="0.71" style="stop-color:#E0D7CC;stop-opacity:2.000000e-02"/>
							<stop  offset="1" style="stop-color:#E3DDD4;stop-opacity:0"/>
						</radialGradient>
						<path class="st15" d="M793.6,11.7l-265.2-1.2v-0.1c2.3,0,228.3-1.2,255.1-0.6c26.8,0.6,77.3,3.2,77.8,3.2l-0.2,0.1L793.6,11.7
							z M545.4,10.4l248.1,1.1l61.9,1.3c-13.9-0.7-56-4.2-77.5-4.7c-5.4-0.1-12.3,0-30.3,0C690.7,8.2,586.1,10.2,545.4,10.4
							L545.4,10.4z"/>
					</g>
					<g class="st16">
						<path class="st8" d="M-421.7,15.1c0,0,35.4-0.6,39.7-1.7c4.5-1.1,10.2-5.4,5.1-6.1c-5.1-0.7-64-0.4-72.4,0.2
							s-17.9,2.3-18.7,2.8c-0.7,0.6,11.5,2.7,11.5,2.7s-4.3-1.3-1.3-2.4c3-1.1,8.9-2.2,16.5-2.3s50.6-0.8,54.3-0.1
							c0,0,5.7,2.6-0.6,3.9c-6.2,1.3-36.2,2.3-39.8,1.7c-3.6-0.7-5.7-1.3,0.1-2.4c5.9-1,30.6-0.4,30.6-0.4l-33.4-0.9
							c0,0-9.5,1.5-8.9,2.2c0.6,0.7-0.1,2.4,3.8,2.8C-431.2,15.5-421.7,15.1-421.7,15.1z"/>
						
							<linearGradient id="SVGID_8_" gradientUnits="userSpaceOnUse" x1="-2746.458" y1="749.5927" x2="-2654.3757" y2="749.5927" gradientTransform="matrix(-0.98 -0.18 -0.18 0.98 -2936.05 -1212.14)">
							<stop  offset="0" style="stop-color:#B87F50;stop-opacity:0.3"/>
							<stop  offset="0.22" style="stop-color:#CAA687;stop-opacity:0.17"/>
							<stop  offset="0.46" style="stop-color:#D8C5B2;stop-opacity:8.000000e-02"/>
							<stop  offset="0.71" style="stop-color:#E0D7CC;stop-opacity:2.000000e-02"/>
							<stop  offset="1" style="stop-color:#E3DDD4;stop-opacity:0"/>
						</linearGradient>
						<path class="st17" d="M-435.3,15.1c-3.1-0.3-3.4-1.4-3.7-2.2c0-0.2-0.2-0.4-0.3-0.7c-0.7-0.7,8-2.1,9-2.3h0.1l33.6,0.9
							l-0.2,0.1c-0.2,0-24.6-0.6-30.2,0.4c-2.2,0.4-3.3,0.7-3.5,1.1c-0.1,0.4,1.2,0.8,3.3,1.2c1,0.2,4.7,0.2,9.9,0.1
							c11-0.2,25.3-0.9,29.4-1.8c5.8-1.2,0.9-3.6,0.5-3.8c-2.3-0.4-19.5-0.4-51,0.1h-2.9c-7.8,0.1-13.5,1.2-16.1,2.2
							c-2.7,0.9,1.2,2.3,1.3,2.3l1.7,0.5l-2.3-0.4c-1.2-0.2-12.3-2.2-11.6-2.8c0.8-0.6,10.6-2.2,19-2.8c4.5-0.4,22.2-0.6,37.7-0.7
							c15.1-0.1,32.4,0,35.2,0.4c3.3,0.5,1.9,2.3,1.1,3c-1.3,1.4-3.5,2.5-6.2,3.3c-4.5,1.1-38.3,1.7-40,1.7
							c-3.5,0.1-7.1,0.1-10.6,0.1C-433.3,15.2-434.3,15.2-435.3,15.1z M-449.2,7.6c-8.6,0.7-17.7,2.2-18.5,2.8
							c-0.4,0.4,5.1,1.5,9.6,2.3c-1-0.5-2.3-1.3-0.2-2.1c2.8-1,8.7-2.2,16.9-2.3l2.9-0.1c20.7-0.3,48.6-0.6,51.7,0l0,0
							c0.2,0.1,5.7,2.6-0.6,3.9c-4.3,0.9-18.8,1.7-29.9,1.9c-3.2,0.1-8.9,0.1-10.4-0.2c-2.3-0.4-3.8-0.9-3.6-1.3
							c0.2-0.4,1.5-0.7,3.8-1.2c3-0.5,10.4-0.7,17.2-0.7l-19.7-0.5c-2.7,0.4-9,1.6-8.5,2c0.2,0.2,0.3,0.5,0.3,0.7
							c0.2,0.7,0.5,1.8,3.3,2c3.8,0.4,13.1,0.1,13.2,0.1l0,0c0.1,0,8.9-0.1,18.2-0.4c15.4-0.4,20-0.9,21.3-1.2
							c2.6-0.7,4.7-1.8,5.9-3.1c1.5-1.5,1.2-2.6-0.9-2.8c-1.5-0.1-3-0.2-4.6-0.2C-396.6,6.7-441.5,6.9-449.2,7.6z"/>
					</g>
					<polyline class="st4" points="695.2,65.9 697,74.5 748.9,85.7 707.3,73.8 					"/>
					<g class="st18">
						<path class="st19" d="M733.4,49.7c14.2-0.3,28.4-0.4,42.5-0.5c14.1-0.1,28.4-0.1,42.5-0.1c3.5,0,7.3,0.1,10.5,0.1
							c3.3,0,6.7,0,10.3-0.1c7-0.1,14-0.2,21-0.4c13.9-0.4,27.5-0.9,41.2-1.5c6.8-0.3,13.7-0.6,20.8-0.8c7.1-0.2,14.2-0.4,22.5-0.3
							l3.2,0.1l2.4,0.1c1.5,0.1,3.2,0.1,5,0.1c3.4,0.1,6.8,0.1,10.4,0.1l21.1,0.1c28.2,0.2,56.4,0.4,84.9,0.9v0.1
							c-28.4,0.4-56.8,0.6-85.4,0.5c-7.2-0.1-14.3-0.1-21.5-0.2c-3.6-0.1-7.2-0.1-10.8-0.2c-1.8,0-3.6-0.1-5.6-0.1l-2.9-0.1
							l-2.1-0.1c-5.8-0.1-13,0-19.8,0.1c-6.8,0.1-13.9,0.2-21,0.4c-14,0.3-27.9,0.7-41.6,1.2c-6.8,0.2-13.7,0.5-20.8,0.8
							c-7.1,0.2-14.8,0.4-21.7,0.4c-14.2,0.1-28.4,0.1-42.5-0.1C761.8,50.1,747.5,50,733.4,49.7L733.4,49.7z"/>
					</g>
					<g class="st18">
						<path class="st20" d="M801,78.2c19.5,1.9,38.9,3.7,58.3,5.6l-1.1-0.1c23.3-0.3,46.8-0.7,70.1-0.9l70.1-0.9l-2.7,0.2
							c23.8-3.9,48.1-7.8,72.2-11.7v0.9l-26.1-4.4l3.5,0.2l-48.1-0.4c-16.1-0.1-32.1-0.2-48.1-0.4l-96.2-0.8l4.4-0.4l-21,5.8
							l-2.4-0.9l93.2,5.2h-2.3l39.2-2.1l39.3-2l0.3,0.4c-19-0.5-38-1.1-56.9-1.7c19.2,0.4,38.4,0.8,57.5,1.2l5.1,0.1l-4.8,0.3
							l-38.6,2.3L927,76.3l-1,0.1l-1.1-0.1l-94.1-5l-4.5-0.2l2.2-0.6l20.6-5.8l1.3-0.4h3l96.3,0.7c16.1,0.1,32.1,0.2,48.1,0.4
							l48.1,0.4h2.2l1.3,0.2l25.8,4.4l2.6,0.4l-2.7,0.4c-24.5,3.9-48.6,7.7-73.3,11.6l-1.1,0.1h-1.6l-70.3,0.6
							c-23.4,0.2-46.9,0.4-70.3,0.6h-0.7l-0.5-0.1C838.4,82.2,819.6,80.2,801,78.2z"/>
					</g>
				</g>
			</g>
		</g>
	</g>
</g>
</svg>
