<svg id="Layer_1" data-name="Layer 1" xmlns="http://www.w3.org/2000/svg" viewBox="0 0 127.95 52.92"><defs><style>.cls-1{fill:#0d7a08;}.cls-2{fill:#10b208;}.cls-3{fill:#17c10e;}.cls-4{fill:#076302;opacity:0.14;}.cls-5{font-size:20.82px;fill:#fff;font-family:GROBOLD, GROBOLD;}</style></defs><title>ok</title><polygon class="cls-1" points="127.95 48.43 126.48 49.38 120.99 52.92 61.42 51.14 53.67 50.91 43.24 50.59 0.87 49.33 0 12.51 0.88 11.3 7.83 1.74 61.42 6.56 68.24 7.17 117.51 11.62 124.61 16.73 126.21 17.9 127.95 48.43"/><polygon class="cls-2" points="126.25 45.11 119.42 49.45 61.42 47.74 46.8 47.31 1.71 45.98 0.88 11.3 0.85 10.41 8.53 0 61.42 4.69 68.24 5.3 116.01 9.54 124.54 15.62 124.61 16.73 126.25 45.11"/><polygon class="cls-3" points="5.04 42.61 4.29 11.53 10.12 3.63 114.8 12.92 121.23 17.5 122.72 43.26 118.49 45.95 5.04 42.61"/><polygon class="cls-4" points="127.95 48.43 126.48 49.38 53.67 50.91 42.65 51.14 43.24 50.59 46.8 47.31 50.43 43.94 68.24 27.48 68.24 5.3 116.01 9.54 124.54 15.62 124.61 16.73 126.21 17.9 127.95 48.43"/><text class="cls-5" transform="translate(48.59 36.69) scale(0.98 1)">Ok</text></svg>