<svg xmlns="http://www.w3.org/2000/svg" viewBox="0 0 140.69 57.21"><defs><style>.cls-1{fill:#0d7a08;}.cls-2{fill:#10b208;}.cls-3{fill:#17c10e;}.cls-4{fill:#076302;opacity:0.14;}.cls-5{fill:#eaeaea;}</style></defs><title>play-btn</title><g id="Layer_2" data-name="Layer 2"><g id="Layer_1-2" data-name="Layer 1"><polygon class="cls-1" points="140.69 52.36 139.07 53.39 133.04 57.21 67.53 55.29 59.02 55.04 47.54 54.7 0.96 53.33 0 13.53 0.97 12.22 8.61 1.88 67.53 7.09 75.03 7.76 129.21 12.56 137.01 18.09 138.78 19.35 140.69 52.36"/><polygon class="cls-2" points="138.81 48.77 131.31 53.46 67.53 51.62 51.45 51.15 1.88 49.71 0.97 12.22 0.94 11.26 9.38 0 67.53 5.07 75.03 5.73 127.56 10.32 136.94 16.88 137.01 18.09 138.81 48.77"/><polygon class="cls-3" points="5.54 46.06 4.72 12.46 11.13 3.92 126.23 13.97 133.3 18.91 134.94 46.77 130.29 49.68 5.54 46.06"/><polygon class="cls-4" points="140.69 52.36 139.07 53.39 59.02 55.04 46.9 55.29 47.54 54.7 51.45 51.15 55.45 47.51 75.03 29.7 75.03 5.73 127.56 10.32 136.94 16.88 137.01 18.09 138.78 19.35 140.69 52.36"/><path class="cls-5" d="M57.52,18.58a5.14,5.14,0,0,1,3.53,4,7.78,7.78,0,0,1,0,2.94,11.25,11.25,0,0,1-1,3.09,11.66,11.66,0,0,1-2,2.89,12.65,12.65,0,0,1-3,2.3,12.32,12.32,0,0,1-3.84,1.38l-.1,4.56-6.13-.63-.41-19.78q4.81-.56,9.27-1A8.27,8.27,0,0,1,57.52,18.58Zm-3.2,7.58s0-.11,0-.28a1.67,1.67,0,0,0-.08-.61,1.1,1.1,0,0,0-.43-.59,1.75,1.75,0,0,0-1.05-.23,6,6,0,0,0-1.94.49L50.6,29a5.68,5.68,0,0,0,2.71-1.39,4.57,4.57,0,0,0,.71-.82A2.14,2.14,0,0,0,54.32,26.17Z"/><path class="cls-5" d="M60.73,18.95l5.72-.46-.23,20.39-5.32.46Z"/><path class="cls-5" d="M76.25,37.36H76.2a3.6,3.6,0,0,1-1.73,1.34,6.62,6.62,0,0,1-2.27.38,5.12,5.12,0,0,1-1.92-.37,4.73,4.73,0,0,1-1.6-1.05A5.1,5.1,0,0,1,67.59,36a5.51,5.51,0,0,1-.4-2.15,4.5,4.5,0,0,1,.4-1.91,4.81,4.81,0,0,1,1.1-1.52,5.09,5.09,0,0,1,1.65-1,5.68,5.68,0,0,1,2.06-.37,5,5,0,0,1,2,.34,6.24,6.24,0,0,1,1.36.77v-.76A1.56,1.56,0,0,0,75,27.86a4.43,4.43,0,0,0-2-.38,9,9,0,0,0-2.08.23q-1,.23-2,.53l1-4a14.36,14.36,0,0,1,2.53-.49,25.6,25.6,0,0,1,2.68-.14,10.18,10.18,0,0,1,2.43.29,5.87,5.87,0,0,1,2.09.95,4.76,4.76,0,0,1,1.43,1.7,5.35,5.35,0,0,1,.51,2.56l-.28,9.57-5.09.43ZM73,32.67a2.79,2.79,0,0,0-1.42.6,1.15,1.15,0,0,0-.48,1.05,1.17,1.17,0,0,0,.72.87,2.78,2.78,0,0,0,1.61.14,2.59,2.59,0,0,0,1.47-.63,1.14,1.14,0,0,0,.38-1,1.2,1.2,0,0,0-.65-.82A2.41,2.41,0,0,0,73,32.67Z"/><path class="cls-5" d="M89.57,29.76l1.24-5.57,5.22.46L90.61,43.74l-5.72-.46,2.18-6L82.3,24.87l5.52-.68,1.7,5.57Z"/></g></g></svg>