<svg xmlns="http://www.w3.org/2000/svg" viewBox="0 0 53.35 47.68"><defs><style>.cls-1{fill:#05527c;}.cls-2{fill:#097ece;}.cls-3{fill:#008bf8;}.cls-4{fill:#061b28;opacity:0.14;}.cls-5{fill:#fff;}</style></defs><title>replay</title><g id="Layer_2" data-name="Layer 2"><g id="Layer_1-2" data-name="Layer 1"><polygon class="cls-1" points="0 43.63 0.61 44.49 2.9 47.68 27.74 46.08 30.97 45.87 35.32 45.59 52.99 44.45 53.35 11.27 52.99 10.19 50.09 1.56 27.74 5.91 24.9 6.46 4.35 10.47 1.39 15.08 0.73 16.13 0 43.63"/><polygon class="cls-2" points="0.71 40.65 3.56 44.55 27.74 43.02 33.84 42.63 52.64 41.43 52.99 10.19 53 9.38 49.8 0 27.74 4.23 24.9 4.78 4.98 8.6 1.42 14.07 1.39 15.08 0.71 40.65"/><polygon class="cls-3" points="51.25 38.39 51.56 10.39 49.13 3.27 5.48 11.64 2.8 15.76 2.18 38.98 3.95 41.4 51.25 38.39"/><polygon class="cls-4" points="0 43.63 0.61 44.49 30.97 45.87 35.57 46.08 35.32 45.59 33.84 42.63 32.33 39.59 24.9 24.76 24.9 4.78 4.98 8.6 1.42 14.07 1.39 15.08 0.73 16.13 0 43.63"/><path class="cls-5" d="M27.63,36.91A12.59,12.59,0,1,1,38.07,17.28l-2.23,1.51A9.9,9.9,0,1,0,34,31.87l1.74,2.05A12.6,12.6,0,0,1,27.63,36.91Z"/><polygon class="cls-5" points="31.02 21.25 39.57 21.34 39.76 12.68 31.02 21.25"/></g></g></svg>