<?xml version="1.0" encoding="utf-8"?>
<!-- Generator: Adobe Illustrator 21.0.1, SVG Export Plug-In . SVG Version: 6.00 Build 0)  -->
<svg version="1.1" id="Layer_1" xmlns="http://www.w3.org/2000/svg" xmlns:xlink="http://www.w3.org/1999/xlink" x="0px" y="0px" width="92.7" height="137.4"
	  style="enable-background:new 0 0 92.7 137.4;" xml:space="preserve">
<style type="text/css">
	.st0{clip-path:url(#SVGID_2_);}
	.st1{fill:#492812;}
	.st2{fill:#86502A;}
	.st3{fill:#784418;}
	.st4{fill:#B87F50;}
	.st5{fill:#5D3B20;}
	.st6{opacity:0.41;}
	.st7{fill:#683F29;}
	.st8{fill:#5C2F0B;}
	.st9{fill:url(#SVGID_3_);}
	.st10{fill:url(#SVGID_4_);}
	.st11{fill:url(#SVGID_5_);}
	.st12{opacity:0.76;}
	.st13{fill:url(#SVGID_6_);}
	.st14{opacity:0.49;}
	.st15{fill:url(#SVGID_7_);}
	.st16{opacity:0.7;}
	.st17{fill:url(#SVGID_8_);}
	.st18{opacity:0.57;}
	.st19{fill:#5B280C;}
	.st20{fill:#5E260B;}
</style>
<title>right-top-wood</title>
<g id="Layer_2">
	<g id="Layer_1-2">
		<g>
			<defs>
				<rect id="SVGID_1_" x="-10.6" y="-3" width="106" height="144"/>
			</defs>
			<clipPath id="SVGID_2_">
				<use xlink:href="#SVGID_1_"  style="overflow:visible;"/>
			</clipPath>
			<g class="st0">
				<path class="st1" d="M-173.6,84c11-6,25-17,32-21L0.9,60.5C1.2,60.6,1.4,107,1.4,107l19,30c25.1,1.7,48.8-2.3,60-10l11-22
					l-1.6-28.7L89.4,50l-0.7-6.4v-3c0,0,2.4-6.4,3.8-9.1l0.3-0.5l-0.2-0.5c-0.4-1-1.9-5.1-1.9-5.1l1-7.2l1-7.1L87.7,0H26.4
					C-1.9,0-225.5,0.5-225.5,0.5l-2.6,14.6l1.3,5.3l1,4.7l-0.8,0.9l-3.4,12.2l2.4,9.5c0,0,0.7,1.2,1,1.3c0.2,0.5,2,20,2,20
					s11,12,16,15L-173.6,84z"/>
				<path class="st2" d="M86.1,49.6l0.2,22l1.1,33.4l-11,19c-13.7,7.3-37.3,9.4-54,8l-20-30V56l-146,3l-31,20h-32l-16.3-12.1
					l0.5-21.7l-4.1-1.3l-2.3-5.7l4.2-12.5l-2.6-10.6l2.6-13.9H86.4L91,9.6l-2,13.9l2,5.2l-3.9,9.3L86.1,49.6z"/>
				<path class="st3" d="M-225.5,38.6c0.2,1.1,0.6,2.2,1.2,3.2l0.5,0.1l4,1.8l0.9,5.8c0,0-0.2,15.7-0.1,16.2
					c2.2,2.7,10.4,10.4,15.4,11.4c9.5,0.6,19-0.8,28-4c7.8-2.9,19.2-10.2,29.8-15.3l0.9-0.5L3.4,54l1,40c0,1,19,36,19,36l48-9l11-17
					l1-36l-0.2-19.6l0.6-7.5v-3.2c0,0,2.4-6.8,3.6-9.2c-0.3-0.8-0.8-2.2-1.2-3.3c-0.3-0.8-0.4-1.3-0.4-1.3l1-8.4l0.9-5.7l-3.4-6.6
					c0,0-37-1-64.2-1s-242.6,1-242.6,1l-1.3,4.1l-0.1,6.9v0.8l1.1,4l1.3,6.3l0.1,0.7l3,8.2C-218.3,34.1-224.6,37.5-225.5,38.6z"/>
				<polygon class="st1" points="92.3,10.9 49.7,9.5 92.3,13.1 				"/>
				<polygon class="st1" points="-225.4,26.1 -2.4,24.9 -225.6,24 				"/>
				<polygon class="st1" points="90.3,25.2 -2.2,22.1 90.8,26.5 				"/>
				<polygon class="st1" points="88.7,40 64.6,38 20.8,36.3 65,39.4 88.8,43 				"/>
				<polygon class="st1" points="-223.7,45.9 -203.6,41.6 -199.9,40.8 11.3,41.5 -200.1,43.1 -220.6,49 -223.4,60.8 				"/>
				<polygon class="st1" points="-203.4,39.5 -200.1,36.3 -204.7,39.5 -205,43.2 -203.4,42.8 				"/>
				<path class="st4" d="M83.7,10.6l7.1,0.2L91,9.6l-4.5-8.4H33.8H-4.1l-220.4,0l-2.6,13.9l2.2,8.9l34.5,0.6l-33.2-1.8
					c0,0-2.3-7.1-2.3-7.6s1.3-13.1,1.9-13.4c0.7-0.3,308.6,0.6,308.6,0.6c0.4,0,0.7,0.1,1,0.3c1.4,2.2,2.7,4.5,3.9,6.8
					C89.7,9.6,87.4,10.4,83.7,10.6z"/>
				<path class="st4" d="M86.4,12.6l4.1,0.3L89,23.5l0.6,1.8l-22.2-0.9c0,0,20,0.7,20.3-0.1s2-9.5,1.6-10.1S88.2,13.2,86.4,12.6z"/>
				<path class="st4" d="M71.2,25.6l18.9,0.9l0.8,2.2l-3.9,9.3l-0.2,2l-17.9-1.6c0,0,16.7,1.2,17,0.9s0-1.6,0.3-1.9s4.2-8.7,3.9-9
					c-0.4-0.5-1-0.9-1.6-1.1C87.7,27,71.2,25.6,71.2,25.6z"/>
				<path class="st4" d="M65.6,39.5l21.1,3.2l-0.6,7l0.2,22l1.1,33.3l-11,19c-13.6,7.3-37.1,9.4-54,8c22,2,41.7-4,52-10l11-18
					l0.3-33.4l-0.9-21.5l1.3-6L65.6,39.5z"/>
				<polygon class="st4" points="-187.7,25.5 -225.6,26 -228.7,38.2 -223.6,28 				"/>
				<polygon class="st4" points="-226.4,43.9 -222.6,46 -204.6,42 -204.7,39.5 -200.1,36.3 -205,39.5 -205.6,41 -222.2,44.7 				"/>
				<path class="st4" d="M-199.6,43.4l-24.6,5.5l1.3,14.8c0,0,2-13.7,2.3-13.7S-199.6,43.4-199.6,43.4z"/>
				<polygon class="st4" points="2.4,56 -143.6,59 -174.6,79 -206.6,79 -174.6,77 -143.6,57 				"/>
				<path class="st5" d="M75.9,17.2c-0.1,1,0.9,1.9,2.4,2s2.8-0.5,2.9-1.5s-0.9-1.9-2.4-2S76.1,16.2,75.9,17.2z"/>
				<g class="st6">
					<path class="st5" d="M62,44.5c-0.1,1,2.5,2,5.9,2.4s6.3-0.1,6.4-1.1s-2.5-2-5.9-2.4S62.2,43.5,62,44.5z"/>
				</g>
				<path class="st5" d="M73.1,19.5c-0.1,0.6,0.5,1.1,1.4,1.2s1.6-0.3,1.7-0.9s-0.5-1.1-1.4-1.2S73.2,19,73.1,19.5z"/>
				<path class="st7" d="M-212.7,33.3c0.2,1.1,1.2,1.8,2.3,1.7c1,0,1.9-0.8,1.9-1.8c0,0,0-0.1,0-0.1c-0.2-1.1-1.2-1.8-2.3-1.7
					C-211.8,31.3-212.6,32.1-212.7,33.3C-212.7,33.2-212.7,33.2-212.7,33.3z"/>
				<path class="st5" d="M-216.4,36.2c0,0.4,0.6,0.7,1.2,0.6s1.1-0.4,1-0.8c-0.1-0.4-0.6-0.7-1.2-0.6S-216.4,35.9-216.4,36.2z"/>
				<path class="st5" d="M-213.4,37.7c0,0.6,0.8,1,1.7,0.9s1.5-0.6,1.5-1.1s-0.8-1-1.7-0.9S-213.4,37.1-213.4,37.7z"/>
				<path class="st8" d="M15.3,6.3C6.9,6-184.2,4.9-188.4,5.2s-35.4,2.2-35.4,2.2l34.1-0.6L15.3,6.3z"/>
				
					<radialGradient id="SVGID_3_" cx="-3465.5862" cy="-29.1967" r="90.24" gradientTransform="matrix(-0.94 0 0 -0.79 -3357.5 -17.45)" gradientUnits="userSpaceOnUse">
					<stop  offset="0" style="stop-color:#B87F50;stop-opacity:0.4"/>
					<stop  offset="0.11" style="stop-color:#C2946D;stop-opacity:0.31"/>
					<stop  offset="0.31" style="stop-color:#D0B49A;stop-opacity:0.17"/>
					<stop  offset="0.52" style="stop-color:#DBCBBB;stop-opacity:8.000000e-02"/>
					<stop  offset="0.74" style="stop-color:#E1D9CE;stop-opacity:2.000000e-02"/>
					<stop  offset="1" style="stop-color:#E3DDD4;stop-opacity:0"/>
				</radialGradient>
				<path class="st9" d="M-223.9,7.3c0.2,0,31.2-1.9,35.4-2.2C-185.3,4.9-4.7,5.4,5.9,5.8c3.8,0.1,7.1,0.3,9.4,0.4v0.1l-205,0.6
					l-34.1,0.6L-223.9,7.3z M5.9,6C-4.2,5.6-186.3,3.4-189.4,3.6c-3.4,0.2-27.8,3.2-32.6,3.7l32.2-0.5L12.3,6.2L5.9,6z"/>
				<path class="st8" d="M-96.9,14.3c0,0-86.5-3.6-90.1-3.1s-8.9,4.9-8.9,4.9l87.4-2.7L-96.9,14.3z"/>
				
					<radialGradient id="SVGID_4_" cx="-6074.3638" cy="254.7725" r="80.81" gradientTransform="matrix(-0.43 0 0 -1.28 -2768.3999 339.72)" gradientUnits="userSpaceOnUse">
					<stop  offset="0" style="stop-color:#B87F50;stop-opacity:0.4"/>
					<stop  offset="0.11" style="stop-color:#C2946D;stop-opacity:0.31"/>
					<stop  offset="0.31" style="stop-color:#D0B49A;stop-opacity:0.17"/>
					<stop  offset="0.52" style="stop-color:#DBCBBB;stop-opacity:8.000000e-02"/>
					<stop  offset="0.74" style="stop-color:#E1D9CE;stop-opacity:2.000000e-02"/>
					<stop  offset="1" style="stop-color:#E3DDD4;stop-opacity:0"/>
				</radialGradient>
				<path class="st10" d="M-195.9,15.9c0.1,0,5.3-4.4,8.9-4.9s90,3.1,90.1,3.1v0.2l-11.6-0.9l-87.4,2.7L-195.9,15.9z M-97.8,14.1
					c-2.3-0.9-86.4-3.2-89.3-2.8c-2.9,0.4-7.1,3.5-8.4,4.5l87-2.5L-97.8,14.1z"/>
				<path class="st8" d="M30.3,31.2c0,0-211.3-1.5-216.4-0.8s-14.9,4.1-14.9,4.1l13-1.9L30.3,31.2z"/>
				
					<radialGradient id="SVGID_5_" cx="-3485.6763" cy="139.3777" r="87.3" gradientTransform="matrix(-0.94 0 0 -1.07 -3357.5 180.98)" gradientUnits="userSpaceOnUse">
					<stop  offset="0" style="stop-color:#B87F50;stop-opacity:0.3"/>
					<stop  offset="0.22" style="stop-color:#CAA687;stop-opacity:0.17"/>
					<stop  offset="0.46" style="stop-color:#D8C5B2;stop-opacity:8.000000e-02"/>
					<stop  offset="0.71" style="stop-color:#E0D7CC;stop-opacity:2.000000e-02"/>
					<stop  offset="1" style="stop-color:#E3DDD4;stop-opacity:0"/>
				</radialGradient>
				<path class="st11" d="M-201.1,34.5c0.1,0,13.9-5.3,14.7-5.3c5.2,0,216.3,2,216.7,2v0.2l-218.4,1.5l-13,1.9L-201.1,34.5z
					 M-187.2,29.1c-1.5,0-10.2,4.3-12.8,5.2l11.9-1.7L27,31.2C16.7,30.9-182.8,29.1-187.2,29.1L-187.2,29.1z"/>
				<g class="st12">
					<path class="st8" d="M16.6,47.7c0,0,43.8-1.1,49-0.5s14.9,13,14.9,13l-13-11.4L16.6,47.7z"/>
					
						<radialGradient id="SVGID_6_" cx="-3628.7063" cy="-89.4867" r="25.02" gradientTransform="matrix(-0.94 0 0 -0.79 -3357.5 -17.45)" gradientUnits="userSpaceOnUse">
						<stop  offset="0" style="stop-color:#B87F50;stop-opacity:0.3"/>
						<stop  offset="0.22" style="stop-color:#CAA687;stop-opacity:0.17"/>
						<stop  offset="0.46" style="stop-color:#D8C5B2;stop-opacity:8.000000e-02"/>
						<stop  offset="0.71" style="stop-color:#E0D7CC;stop-opacity:2.000000e-02"/>
						<stop  offset="1" style="stop-color:#E3DDD4;stop-opacity:0"/>
					</radialGradient>
					<path class="st13" d="M67.6,48.9l-51-1.1v-0.2c0.4,0,43.9-1.1,49-0.5s14.9,13,15,13v0.1L67.6,48.9z M19.9,47.7l47.7,1L79.5,60
						c-2.7-0.7-10.8-13.9-14.9-14.3c-1-0.1-2.4,0-5.8,0C47.8,45.7,27.7,47.5,19.9,47.7L19.9,47.7z"/>
				</g>
				<g class="st14">
					<path class="st8" d="M-30,14.1c0,0,43.8-1.6,49-0.8c5.2,0.8,15,4.4,15,4.4l-13-2L-30,14.1z"/>
					
						<radialGradient id="SVGID_7_" cx="-3578.9763" cy="208.3676" r="24.23" gradientTransform="matrix(-0.94 0 0 -1.16 -3357.5 256.16)" gradientUnits="userSpaceOnUse">
						<stop  offset="0" style="stop-color:#B87F50;stop-opacity:0.3"/>
						<stop  offset="0.22" style="stop-color:#CAA687;stop-opacity:0.17"/>
						<stop  offset="0.46" style="stop-color:#D8C5B2;stop-opacity:8.000000e-02"/>
						<stop  offset="0.71" style="stop-color:#E0D7CC;stop-opacity:2.000000e-02"/>
						<stop  offset="1" style="stop-color:#E3DDD4;stop-opacity:0"/>
					</radialGradient>
					<path class="st15" d="M21,15.8l-51-1.6V14c0.4,0,43.9-1.6,49-0.8s14.9,4.4,15,4.4v0.2L21,15.8z M-26.7,14.1L21,15.6l11.9,1.9
						c-2.7-1-10.8-5.7-14.9-6.4c-1-0.2-2.4,0-5.8,0C1.2,11.1-18.9,13.8-26.7,14.1L-26.7,14.1z"/>
				</g>
				<g class="st16">
					<path class="st8" d="M-212.7,20.5c0,0,6.8-0.8,7.6-2.3c0.9-1.5,1.9-7.4,1-8.4s-12.3-0.6-13.9,0.3s-3.4,3.1-3.6,3.8
						c-0.1,0.8,2.2,3.7,2.2,3.7c-0.5-1-0.6-2.2-0.2-3.3c0.6-1.5,1.7-3,3.2-3.1s9.7-1.1,10.4-0.1c0,0,1.1,3.5-0.1,5.3
						s-6.9,3.2-7.6,2.3c-0.9-0.9-0.9-2.3,0-3.2c0,0,0,0,0,0c1.1-1.4,5.9-0.6,5.9-0.6l-6.4-1.2c0,0-1.8,2.1-1.7,3s0,3.3,0.7,3.8
						C-214.5,21-212.7,20.5-212.7,20.5z"/>
					
						<linearGradient id="SVGID_8_" gradientUnits="userSpaceOnUse" x1="-3351.8149" y1="430.6644" x2="-3334.2351" y2="430.6644" gradientTransform="matrix(-0.98 -0.18 0.18 -0.98 -3571.6301 -166.16)">
						<stop  offset="0" style="stop-color:#B87F50;stop-opacity:0.3"/>
						<stop  offset="0.22" style="stop-color:#CAA687;stop-opacity:0.17"/>
						<stop  offset="0.46" style="stop-color:#D8C5B2;stop-opacity:8.000000e-02"/>
						<stop  offset="0.71" style="stop-color:#E0D7CC;stop-opacity:2.000000e-02"/>
						<stop  offset="1" style="stop-color:#E3DDD4;stop-opacity:0"/>
					</linearGradient>
					<path class="st17" d="M-215.3,20.5c-0.6-0.4-0.7-1.9-0.7-3c0-0.4,0-0.7-0.1-0.9c-0.1-0.9,1.5-2.9,1.7-3.1l0,0l6.5,1.2v0.2
						c0,0-4.7-0.9-5.8,0.5c-0.4,0.4-0.6,0.9-0.7,1.5c0,0.6,0.2,1.2,0.7,1.6c0.2,0.3,0.9,0.4,1.9,0.2c2.1-0.3,4.9-1.3,5.6-2.5
						c1.1-1.7,0.2-4.9,0.1-5.2c-0.4-0.5-3.7-0.5-9.8,0.1l-0.6,0.1c-1.5,0.1-2.6,1.7-3.1,3c-0.3,1.1-0.2,2.2,0.2,3.2l0.3,0.7
						l-0.4-0.5c-0.2-0.3-2.4-3-2.2-3.8s2-3,3.6-3.9c0.9-0.5,4.3-0.8,7.2-0.9s6.2,0,6.8,0.6c0.5,0.6,0.4,3.1,0.2,4.1
						c-0.2,1.5-0.6,3-1.2,4.5c-0.9,1.5-7.4,2.3-7.7,2.3c-0.7,0.2-1.3,0.2-2,0.1C-214.9,20.7-215.1,20.6-215.3,20.5z M-217.9,10.2
						c-1.6,0.9-3.4,3-3.5,3.8c-0.1,0.5,1,2,1.9,3.2c-0.3-0.9-0.3-1.9,0-2.9c0.5-1.4,1.7-3,3.2-3.2l0.6-0.1c4-0.4,9.4-0.9,9.9-0.1
						l0,0c0,0.1,1.1,3.6-0.1,5.4c-0.8,1.2-3.6,2.3-5.8,2.6c-0.6,0.1-1.7,0.1-2-0.3c-0.4-0.5-0.7-1.1-0.7-1.8
						c0.1-0.6,0.3-1.2,0.7-1.6c0.6-0.7,2-0.9,3.3-0.9l-3.8-0.7c-0.5,0.6-1.7,2.2-1.6,2.8c0,0.2,0.1,0.6,0.1,1c0,1,0.1,2.4,0.6,2.8
						c0.7,0.5,2.5,0.1,2.5,0.1l0,0c0,0,1.7-0.2,3.5-0.6c3-0.6,3.9-1.2,4.1-1.6c0.6-1.4,1-2.9,1.1-4.4c0.3-2.1,0.2-3.5-0.2-3.9
						c-0.3-0.2-0.6-0.3-0.9-0.3C-207.8,9-216.5,9.3-217.9,10.2z"/>
				</g>
				<polyline class="st4" points="2.1,90.2 2.4,102 12.4,117.3 4.4,101 				"/>
				<g class="st18">
					<path class="st19" d="M9.4,67.9c2.7-0.4,5.5-0.6,8.2-0.7s5.5-0.2,8.2-0.1c0.7,0,1.4,0.1,2,0.1c0.7,0,1.3,0,2-0.1
						c1.3-0.1,2.7-0.3,4-0.6c2.7-0.5,5.3-1.3,7.9-2.1c1.3-0.4,2.6-0.8,4-1.1c1.4-0.3,2.9-0.5,4.3-0.4l0.6,0.1l0.5,0.1
						c0.3,0.1,0.6,0.1,1,0.1c0.6,0.1,1.3,0.1,2,0.2l4,0.2c5.4,0.3,10.9,0.6,16.3,1.3v0.2C69,65.7,63.5,65.9,58,65.8
						c-1.4-0.1-2.7-0.1-4.1-0.3c-0.7-0.1-1.4-0.1-2.1-0.3c-0.4,0-0.7-0.1-1.1-0.2l-0.5-0.1l-0.4-0.1c-1.3-0.1-2.5-0.1-3.8,0.1
						c-1.3,0.2-2.7,0.3-4,0.6c-2.7,0.4-5.3,1-8,1.7c-1.3,0.3-2.6,0.7-4,1.1c-1.4,0.3-2.8,0.5-4.2,0.5c-2.7,0.1-5.5,0.1-8.2-0.1
						s-5.5-0.3-8.2-0.7L9.4,67.9z"/>
				</g>
				<g class="st18">
					<path class="st20" d="M22.4,107c3.8,2.6,7.5,5.1,11.2,7.7l-0.2-0.1c4.5-0.4,9-0.9,13.5-1.2l13.5-1.2l-0.5,0.3
						c4.6-5.4,9.3-10.7,13.9-16.1v1.2l-5-6l0.7,0.3l-9.2-0.5c-3.1-0.1-6.2-0.3-9.2-0.5l-18.5-1.1l0.8-0.5l-4,8l-0.5-1.2l17.9,7.2
						h-0.4l7.5-2.9l7.6-2.8l0.1,0.6c-3.7-0.7-7.3-1.5-11-2.3c3.7,0.5,7.4,1.1,11,1.7l1,0.2l-0.9,0.4l-7.4,3.2l-7.5,3.1l-0.2,0.1
						l-0.2-0.1l-18.1-6.8l-0.9-0.3l0.4-0.8l4-8l0.3-0.5h0.6L51,89c3.1,0.2,6.2,0.3,9.2,0.5l9.2,0.5h0.4l0.3,0.3l5,6l0.5,0.6
						l-0.5,0.6c-4.7,5.3-9.4,10.7-14.1,15.9l-0.2,0.2h-0.3L47,114.5c-4.5,0.3-9,0.5-13.5,0.8h-0.1l-0.1-0.1
						C29.6,112.5,26,109.8,22.4,107z"/>
				</g>
			</g>
		</g>
	</g>
</g>
</svg>
