<svg xmlns="http://www.w3.org/2000/svg" viewBox="0 0 73 73"><defs><style>.cls-1{fill:#5c2f0b;}.cls-2{fill:#86502a;}.cls-3{fill:#d68c56;}</style></defs><title>scorebg</title><g id="Layer_2" data-name="Layer 2"><g id="Layer_1-2" data-name="Layer 1"><path class="cls-1" d="M64.34,36.5A27.84,27.84,0,1,1,36.5,8.66,27.87,27.87,0,0,1,64.34,36.5Z"/><path class="cls-1" d="M36.5,0A36.5,36.5,0,1,0,73,36.5,36.5,36.5,0,0,0,36.5,0Zm0,69.29A32.79,32.79,0,1,1,69.29,36.5,32.83,32.83,0,0,1,36.5,69.29Z"/><path class="cls-2" d="M64.34,36.5A27.84,27.84,0,1,1,36.5,8.66,27.87,27.87,0,0,1,64.34,36.5Z"/><path class="cls-2" d="M36.5,1.24A35.26,35.26,0,1,0,71.76,36.5,35.3,35.3,0,0,0,36.5,1.24Zm0,68A32.79,32.79,0,1,1,69.29,36.5,32.83,32.83,0,0,1,36.5,69.29Z"/><path class="cls-1" d="M64.34,36.5A27.84,27.84,0,1,1,36.5,8.66,27.87,27.87,0,0,1,64.34,36.5Z"/><path class="cls-2" d="M64.34,36.5A27.84,27.84,0,1,1,36.5,8.66,27.87,27.87,0,0,1,64.34,36.5Z"/><path class="cls-3" d="M36.5,61.86A25.36,25.36,0,1,1,61.86,36.5,25.39,25.39,0,0,1,36.5,61.86Z"/></g></g></svg>