<svg xmlns="http://www.w3.org/2000/svg" viewBox="0 0 47.56 42.5"><defs><style>.cls-1,.cls-4{fill:#492812;}.cls-2{fill:#683a17;}.cls-3{fill:#784418;}.cls-4{opacity:0.47;}.cls-5{fill:#fff;}</style></defs><title>settings-icon</title><g id="Layer_2" data-name="Layer 2"><g id="Layer_1-2" data-name="Layer 1"><polygon class="cls-1" points="47.56 38.89 47.01 39.66 44.97 42.5 22.83 41.07 19.95 40.88 16.07 40.63 0.32 39.62 0 10.05 0.33 9.08 2.91 1.39 22.83 5.27 25.36 5.76 43.67 9.33 46.31 13.44 46.91 14.37 47.56 38.89"/><polygon class="cls-2" points="46.92 36.23 44.38 39.71 22.83 38.34 17.39 37.99 0.63 36.93 0.33 9.08 0.32 8.36 3.17 0 22.83 3.77 25.36 4.26 43.12 7.66 46.29 12.54 46.31 13.44 46.92 36.23"/><polygon class="cls-3" points="1.87 34.22 1.59 9.26 3.76 2.91 42.67 10.38 45.06 14.05 45.61 34.74 44.04 36.9 1.87 34.22"/><polygon class="cls-4" points="47.56 38.89 47.01 39.66 19.95 40.88 15.85 41.07 16.07 40.63 17.39 37.99 18.74 35.29 25.36 22.07 25.36 4.26 43.12 7.66 46.29 12.54 46.31 13.44 46.91 14.37 47.56 38.89"/><path class="cls-5" d="M35.91,18.73H29.34l4.52-4.52L30,10.4l-4.36,4.36V8.6H20.3v6.26l-4.43-4.43L12,14.3l4.43,4.43H10.16v5.48h6.26L12,28.64l3.87,3.87,4.43-4.43v6.26h5.48V28.08l4.43,4.43,3.87-3.87-4.43-4.43h6.26Zm-9.68,5.94a4.52,4.52,0,1,1,0-6.39A4.52,4.52,0,0,1,26.23,24.67Z"/></g></g></svg>