<svg xmlns="http://www.w3.org/2000/svg" viewBox="0 0 47.56 42.5"><defs><style>.cls-1,.cls-4{fill:#492812;}.cls-2{fill:#683a17;}.cls-3{fill:#784418;}.cls-4{opacity:0.47;}.cls-5{fill:#fff;}</style></defs><title>support-icon</title><g id="Layer_2" data-name="Layer 2"><g id="Layer_1-2" data-name="Layer 1"><polygon class="cls-1" points="0 38.89 0.55 39.66 2.59 42.5 24.73 41.07 27.61 40.88 31.48 40.63 47.23 39.62 47.56 10.05 47.23 9.08 44.65 1.39 24.73 5.27 22.19 5.76 3.88 9.33 1.24 13.44 0.65 14.37 0 38.89"/><polygon class="cls-2" points="0.63 36.23 3.17 39.71 24.73 38.34 30.16 37.99 46.92 36.93 47.23 9.08 47.24 8.36 44.38 0 24.73 3.77 22.19 4.26 4.44 7.66 1.27 12.54 1.24 13.44 0.63 36.23"/><polygon class="cls-3" points="45.68 34.22 45.96 9.26 43.79 2.91 4.89 10.38 2.5 14.05 1.94 34.74 3.52 36.9 45.68 34.22"/><polygon class="cls-4" points="0 38.89 0.55 39.66 27.61 40.88 31.7 41.07 31.48 40.63 30.16 37.99 28.81 35.29 22.19 22.07 22.19 4.26 4.44 7.66 1.27 12.54 1.24 13.44 0.65 14.37 0 38.89"/><path class="cls-5" d="M14.16,13.63l3.77,3.5s4.31-5.79,7.67-2.15c.54.94,1.21,2.83-.54,4s-4.44,2.83-4.44,4.31a22.85,22.85,0,0,1-.13,2.56l5.79-.13a4.17,4.17,0,0,1,1.35-2.69c1.21-.94,6.19-3,5-8.75S23,8.65,19.28,9.46A7.45,7.45,0,0,0,14.16,13.63Z"/><rect class="cls-5" x="19.68" y="27.23" width="6.73" height="6.87"/></g></g></svg>