<?xml version="1.0" encoding="utf-8"?>
<!-- Generator: Adobe Illustrator 21.0.1, SVG Export Plug-In . SVG Version: 6.00 Build 0)  -->
<svg version="1.1" id="Layer_1" xmlns="http://www.w3.org/2000/svg" xmlns:xlink="http://www.w3.org/1999/xlink" x="0px" y="0px"
	 viewBox="0 0 255.8 45.5" style="enable-background:new 0 0 255.8 45.5;" xml:space="preserve">
<style type="text/css">
	.st0{clip-path:url(#SVGID_2_);}
	.st1{fill:#492812;}
	.st2{fill:#86502A;}
	.st3{fill:#784418;}
	.st4{fill:#B87F50;}
	.st5{fill:#5D3B20;}
	.st6{opacity:0.41;}
	.st7{fill:#683F29;}
	.st8{fill:#5C2F0B;}
	.st9{fill:url(#SVGID_3_);}
	.st10{fill:url(#SVGID_4_);}
	.st11{fill:url(#SVGID_5_);}
	.st12{opacity:0.76;}
	.st13{fill:url(#SVGID_6_);}
	.st14{opacity:0.49;}
	.st15{fill:url(#SVGID_7_);}
	.st16{opacity:0.7;}
	.st17{fill:url(#SVGID_8_);}
	.st18{opacity:0.57;}
	.st19{fill:#5B280C;}
	.st20{fill:#5E260B;}
</style>
<title>woodmiddlemobile</title>
<g id="Layer_2">
	<g id="Layer_1-2">
		<g id="Layer_2-2">
			<g id="Layer_1-2-2">
				<g>
					<defs>
						<rect id="SVGID_1_" y="-21.2" width="255.5" height="105"/>
					</defs>
					<clipPath id="SVGID_2_">
						<use xlink:href="#SVGID_1_"  style="overflow:visible;"/>
					</clipPath>
					<g class="st0">
						<path class="st1" d="M-86.6,61.2c22.7-4.4,51.6-12.4,66-15.3l293.7-1.8c0.4,0.1,1,33.9,1,33.9l39.2,21.9
							c51.7,1.2,100.5-1.7,123.6-7.3l22.7-16l-3.4-20.9l-0.8-19.2l-1.5-4.7v-2.3c2.5-2.4,5-4.6,7.7-6.6l0.6-0.4l-0.5-0.4
							c-0.9-0.7-3.9-3.7-3.9-3.7l1.9-5.2l2.1-5.2l-10-8H325.5c-58.2-0.1-518.9,0.3-518.9,0.3l-5.4,10.6l2.7,3.9l2,3.4l-1.7,0.7
							l-7,8.9l4.9,6.9c0.7,0.4,1.3,0.7,2.1,0.9c0.5,0.4,4.2,14.6,4.2,14.6s22.7,8.8,33,10.9L-86.6,61.2L-86.6,61.2z"/>
						<path class="st2" d="M448.5,36.1l0.4,16l2.3,24.4l-22.7,13.9c-28.3,5.3-76.8,6.9-111.3,5.8L276,74.3V40.8L-24.8,43l-63.9,14.6
							h-66l-33.6-8.8l1.1-15.8l-8.4-0.9l-4.7-4.2l8.7-9.1l-5.3-7.7l5.3-10.3h640.7l9.4,6.2l-4,10.1l4,3.8l-8,6.8L448.5,36.1z"/>
						<path class="st3" d="M-193.4,28.1c0.1,0.6,1.3,1.8,2.4,2.3l1.1,0.1l8.4,1.3l1.8,4.2c0,0-0.4,11.4-0.3,11.8
							c4.6,1.9,21.4,7.5,31.8,8.2c19.3,0.4,38.5-0.6,57.7-2.9c16.2-2.1,39.5-7.4,61.5-11.2l1.8-0.4l305.5-2.3l2.1,29.2
							c0,0.7,39.2,26.2,39.2,26.2l98.9-6.6L441,75.6l2-26.2l-0.4-14.3l1.3-5.5v-2.3c0,0,4.9-5,7.5-6.7c-0.7-0.6-1.7-1.6-2.5-2.4
							c-0.3-0.3-0.6-0.6-0.9-0.9l2-6.1l1.9-4.2l-6.9-4.8c0,0-76.2-0.7-132.3-0.7C257,1.5-187,2.2-187,2.2l-2.8,3.1l-0.3,5v0.6
							l2.3,2.9l2.7,4.5l0.3,0.5l6.2,6C-178.6,24.8-191.6,27.3-193.4,28.1z"/>
						<polygon class="st1" points="461.3,7.9 373.6,6.9 461.3,9.5 						"/>
						<polygon class="st1" points="-193.2,19 266.1,18.1 -193.6,17.4 						"/>
						<polygon class="st1" points="457.2,18.3 266.6,16.1 458.3,19.3 						"/>
						<polygon class="st1" points="453.9,29.1 404.3,27.7 313.9,26.4 405.1,28.7 454.1,31.3 						"/>
						<polygon class="st1" points="-189.7,33.4 -148.3,30.3 -140.8,29.7 294.5,30.2 -141.2,31.4 -183.4,35.7 -189.1,44.3 						"/>
						<polygon class="st1" points="-147.9,28.7 -141.2,26.4 -150.6,28.7 -151.2,31.4 -147.9,31.2 						"/>
						<path class="st4" d="M443.6,7.7l14.7,0.1l0.3-0.9l-9.4-6.2h-640.6l-5.3,10.1l4.6,6.5l71.2,0.4l-68.4-1.3c0,0-4.7-5.2-4.7-5.5
							s2.7-9.6,4-9.8c1.4-0.2,635.9,0.4,635.9,0.4c0.7,0,1.4,0.1,2,0.2c0.7,0.2,8,4.7,8,5S451.2,7.5,443.6,7.7z"/>
						<path class="st4" d="M449.1,9.1l8.6,0.2l-3,7.7l1.3,1.3l-45.8-0.7c0,0,41.1,0.5,41.8-0.1s4-6.9,3.3-7.4
							C454.5,9.8,452.9,9.6,449.1,9.1z"/>
						<path class="st4" d="M417.9,18.6l38.9,0.7l1.7,1.6l-8,6.8l-0.3,1.5L413.5,28c0,0,34.5,0.9,35.1,0.7c0.7-0.2,0-1.2,0.7-1.4
							s8.7-6.3,8-6.6c-1.1-0.4-2.2-0.7-3.3-0.8C451.9,19.6,417.9,18.6,417.9,18.6z"/>
						<path class="st4" d="M406.2,28.7l43.5,2.3l-1.2,5.1l0.4,16l2.3,24.4l-22.7,13.9c-27.9,5.3-76.5,6.9-111.3,5.8
							c45.3,1.5,86-2.9,107.1-7.3L447,75.8l0.5-24.4l-1.8-15.6l2.7-4.4L406.2,28.7z"/>
						<polygon class="st4" points="-115.6,18.5 -193.7,18.9 -200.1,27.8 -189.6,20.4 						"/>
						<polygon class="st4" points="-195.4,32 -187.5,33.5 -150.4,30.6 -150.6,28.7 -141.2,26.4 -151.2,28.7 -152.4,29.8 
							-186.7,32.5 						"/>
						<path class="st4" d="M-140,31.6l-50.8,4l2.7,10.8c0,0,4-10,4.7-10S-140,31.6-140,31.6z"/>
						<polygon class="st4" points="276.1,40.8 -24.7,43 -88.6,57.6 -154.5,57.6 -88.6,56.1 -24.7,41.5 						"/>
						<path class="st5" d="M427.6,12.5c-0.3,0.7,1.9,1.4,4.8,1.5s5.7-0.4,6-1.1s-1.9-1.4-4.8-1.5S428,11.8,427.6,12.5z"/>
						<g class="st6">
							<path class="st5" d="M399,32.3c-0.3,0.7,5.1,1.5,12.1,1.8c7,0.3,13-0.1,13.2-0.8c0.3-0.7-5.1-1.5-12.1-1.8
								S399.3,31.7,399,32.3z"/>
						</g>
						<path class="st5" d="M421.8,14.2c-0.2,0.4,1.1,0.8,2.8,0.9s3.3-0.2,3.4-0.7s-1.1-0.8-2.8-0.9S422,13.8,421.8,14.2z"/>
						<path class="st7" d="M-167.1,24.2c0.2,0.7,2.3,1.2,4.6,1.2s4.2-0.7,4-1.4s-2.2-1.2-4.6-1.2S-167.3,23.5-167.1,24.2z"/>
						<path class="st5" d="M-174.7,26.3c0.1,0.3,1.2,0.5,2.4,0.4c1.2-0.1,2.2-0.3,2.1-0.6c-0.1-0.3-1.2-0.5-2.4-0.4
							C-173.8,25.8-174.8,26.1-174.7,26.3z"/>
						<path class="st5" d="M-168.6,27.4c0.1,0.4,1.6,0.7,3.4,0.7c1.9,0,3.2-0.4,3-0.8s-1.6-0.7-3.4-0.7
							C-167.4,26.6-168.6,27-168.6,27.4z"/>
						<path class="st8" d="M302.7,4.5c-17.4-0.2-411.1-1-419.8-0.8L-190,5.3l70.3-0.4L302.7,4.5z"/>
						
							<radialGradient id="SVGID_3_" cx="6.15" cy="3.9728" r="219.9118" gradientTransform="matrix(0.796 0 0 1 52.1288 0)" gradientUnits="userSpaceOnUse">
							<stop  offset="0" style="stop-color:#B87F50;stop-opacity:0.4"/>
							<stop  offset="0.11" style="stop-color:#C2946D;stop-opacity:0.31"/>
							<stop  offset="0.31" style="stop-color:#D0B49A;stop-opacity:0.17"/>
							<stop  offset="0.52" style="stop-color:#DBCBBB;stop-opacity:8.000000e-02"/>
							<stop  offset="0.74" style="stop-color:#E1D9CE;stop-opacity:2.000000e-02"/>
							<stop  offset="1" style="stop-color:#E3DDD4;stop-opacity:0"/>
						</radialGradient>
						<path class="st9" d="M-190.1,5.3c0.4,0,64.3-1.4,73-1.6c6.4-0.1,378.6,0.2,400.5,0.5c7.9,0.1,14.7,0.2,19.4,0.2v0.1L-119.7,5
							L-190,5.4L-190.1,5.3z M283.3,4.3C262.6,4-112.7,2.4-119,2.6c-6.9,0.1-57.3,2.3-67.1,2.6l66.4-0.4l416.3-0.4L283.3,4.3z"/>
						<path class="st8" d="M71.4,10.4c0,0-178.3-2.6-185.7-2.3c-7.4,0.3-18.3,3.6-18.3,3.6l180.1-2L71.4,10.4z"/>
						
							<radialGradient id="SVGID_4_" cx="226.01" cy="9.7959" r="52.05" gradientTransform="matrix(0.796 0 0 1 52.1288 0)" gradientUnits="userSpaceOnUse">
							<stop  offset="0" style="stop-color:#B87F50;stop-opacity:0.4"/>
							<stop  offset="0.11" style="stop-color:#C2946D;stop-opacity:0.31"/>
							<stop  offset="0.31" style="stop-color:#D0B49A;stop-opacity:0.17"/>
							<stop  offset="0.52" style="stop-color:#DBCBBB;stop-opacity:8.000000e-02"/>
							<stop  offset="0.74" style="stop-color:#E1D9CE;stop-opacity:2.000000e-02"/>
							<stop  offset="1" style="stop-color:#E3DDD4;stop-opacity:0"/>
						</radialGradient>
						<path class="st10" d="M-132.5,11.5c0.1,0,10.9-3.3,18.3-3.6c7.3-0.3,185.5,2.3,185.7,2.3v0.1L47.6,9.6L-132.5,11.5
							L-132.5,11.5z M69.7,10.2c-4.8-0.6-177.9-2.3-184-2s-14.5,2.6-17.3,3.3L47.6,9.7L69.7,10.2z"/>
						<path class="st8" d="M333.5,22.7c0,0-435.2-1.1-445.9-0.5s-30.8,3-30.8,3l26.7-1.4L333.5,22.7z"/>
						
							<radialGradient id="SVGID_5_" cx="55.125" cy="23.3" r="212.7187" gradientTransform="matrix(0.796 0 0 1 52.1288 0)" gradientUnits="userSpaceOnUse">
							<stop  offset="0" style="stop-color:#B87F50;stop-opacity:0.3"/>
							<stop  offset="0.22" style="stop-color:#CAA687;stop-opacity:0.17"/>
							<stop  offset="0.46" style="stop-color:#D8C5B2;stop-opacity:8.000000e-02"/>
							<stop  offset="0.71" style="stop-color:#E0D7CC;stop-opacity:2.000000e-02"/>
							<stop  offset="1" style="stop-color:#E3DDD4;stop-opacity:0"/>
						</radialGradient>
						<path class="st11" d="M-143.2,25.1c0.2,0,28.7-3.9,30.2-3.9c10.7,0,445.7,1.5,446.5,1.5v0.1l-449.9,1.1l-26.7,1.4L-143.2,25.1
							z M-114.5,21.2c-3,0-21,3.1-26.5,3.8l24.5-1.2l443.2-1C305.5,22.5-105.6,21.2-114.5,21.2z"/>
						<g class="st12">
							<path class="st8" d="M305.4,34.7c0,0,90.3-0.8,101.1-0.4s30.7,9.5,30.7,9.5l-26.7-8.3L305.4,34.7z"/>
							
								<radialGradient id="SVGID_6_" cx="515.86" cy="38.5478" r="34.4896" gradientTransform="matrix(0.796 0 0 1 52.1288 0)" gradientUnits="userSpaceOnUse">
								<stop  offset="0" style="stop-color:#B87F50;stop-opacity:0.3"/>
								<stop  offset="0.22" style="stop-color:#CAA687;stop-opacity:0.17"/>
								<stop  offset="0.46" style="stop-color:#D8C5B2;stop-opacity:8.000000e-02"/>
								<stop  offset="0.71" style="stop-color:#E0D7CC;stop-opacity:2.000000e-02"/>
								<stop  offset="1" style="stop-color:#E3DDD4;stop-opacity:0"/>
							</radialGradient>
							<path class="st13" d="M410.4,35.6l-105.1-0.8v-0.1c0.9,0,90.4-0.8,101.1-0.4c10.7,0.4,30.6,9.5,30.8,9.5l-0.1,0.1L410.4,35.6
								z M312.1,34.7l98.3,0.7l24.5,8.2c-5.5-0.5-22.2-10.1-30.7-10.4c-2.1-0.1-4.9,0-12,0C369.7,33.3,328.2,34.6,312.1,34.7z"/>
						</g>
						<g class="st14">
							<path class="st8" d="M209.3,10.2c0,0,90.3-1.2,101.1-0.6s30.7,3.2,30.7,3.2l-26.7-1.5L209.3,10.2z"/>
							
								<radialGradient id="SVGID_7_" cx="446.6" cy="10.3756" r="33.82" gradientTransform="matrix(0.796 0 0 1 52.1288 0)" gradientUnits="userSpaceOnUse">
								<stop  offset="0" style="stop-color:#B87F50;stop-opacity:0.3"/>
								<stop  offset="0.22" style="stop-color:#CAA687;stop-opacity:0.17"/>
								<stop  offset="0.46" style="stop-color:#D8C5B2;stop-opacity:8.000000e-02"/>
								<stop  offset="0.71" style="stop-color:#E0D7CC;stop-opacity:2.000000e-02"/>
								<stop  offset="1" style="stop-color:#E3DDD4;stop-opacity:0"/>
							</radialGradient>
							<path class="st15" d="M314.4,11.5l-105.1-1.2v-0.1c0.9,0,90.4-1.2,101.1-0.6c10.7,0.6,30.6,3.2,30.8,3.2l-0.1,0.1L314.4,11.5
								z M216.1,10.2l98.3,1.1l24.5,1.3c-5.5-0.7-22.2-4.2-30.7-4.7c-2.1-0.1-4.9,0-12,0C273.6,8,232.2,10,216.1,10.2z"/>
						</g>
						<g class="st16">
							<path class="st8" d="M-167.1,14.9c0,0,14-0.6,15.7-1.7s4-5.4,2-6.1c-2-0.7-25.4-0.4-28.7,0.2s-7.1,2.3-7.4,2.8
								s4.5,2.7,4.5,2.7s-1.7-1.3-0.5-2.4c2-1.5,4.2-2.3,6.5-2.3c3-0.1,20-0.8,21.5-0.1c0,0,2.3,2.6-0.2,3.9
								c-2.5,1.3-14.3,2.3-15.8,1.7s-2.3-1.3,0-2.4s12.2-0.4,12.2-0.4l-13.2-0.9c0,0-3.7,1.5-3.5,2.2s0,2.4,1.5,2.8
								C-170.6,15.1-168.8,15.1-167.1,14.9z"/>
							
								<linearGradient id="SVGID_8_" gradientUnits="userSpaceOnUse" x1="-5619.3237" y1="1473.3912" x2="-5583.002" y2="1473.3912" gradientTransform="matrix(-0.9835 -0.1807 -0.1807 0.9835 -5399.7256 -2449.7122)">
								<stop  offset="0" style="stop-color:#B87F50;stop-opacity:0.3"/>
								<stop  offset="0.22" style="stop-color:#CAA687;stop-opacity:0.17"/>
								<stop  offset="0.46" style="stop-color:#D8C5B2;stop-opacity:8.000000e-02"/>
								<stop  offset="0.71" style="stop-color:#E0D7CC;stop-opacity:2.000000e-02"/>
								<stop  offset="1" style="stop-color:#E3DDD4;stop-opacity:0"/>
							</linearGradient>
							<path class="st17" d="M-172.4,14.9c-1.2-0.3-1.3-1.4-1.5-2.2c0-0.2-0.1-0.5-0.1-0.7c-0.3-0.7,3.2-2.1,3.6-2.3l0,0l13.3,0.9
								l-0.1,0.1c-0.1,0-9.7-0.6-11.9,0.4c-0.9,0.4-1.3,0.7-1.4,1.1c-0.1,0.4,0.5,0.8,1.3,1.2c1.3,0.2,2.6,0.3,3.9,0.1
								c4.4-0.2,10-0.9,11.6-1.8c2.3-1.2,0.4-3.6,0.2-3.8c-0.9-0.4-7.7-0.4-20.2,0.1h-1.1c-3.1,0.1-5.3,1.2-6.4,2.2
								c-1,1,0.5,2.3,0.5,2.3l0.7,0.5l-0.9-0.4c-0.5-0.2-4.9-2.2-4.6-2.8s4.2-2.2,7.5-2.8c1.8-0.4,8.8-0.6,14.9-0.7
								c6-0.1,12.8,0,13.9,0.4c1.3,0.5,0.8,2.3,0.4,3c-0.5,1.4-1.4,2.5-2.5,3.3c-1.8,1.1-15.2,1.7-15.9,1.7
								c-1.4,0.1-2.8,0.1-4.2,0.1C-171.6,15-172,15-172.4,14.9z M-177.9,7.4c-3.4,0.7-7,2.2-7.3,2.8c-0.2,0.4,2,1.5,3.8,2.3
								c-0.4-0.5-0.9-1.3-0.1-2.1c2-1.5,4.3-2.3,6.7-2.3l1.1-0.1c8.2-0.3,19.3-0.6,20.5,0l0,0c0.1,0.1,2.3,2.6-0.2,3.9
								c-1.7,0.9-7.5,1.7-11.8,1.9c-1.4,0.2-2.8,0.1-4.1-0.2c-0.9-0.4-1.5-0.9-1.4-1.3c0.1-0.4,0.6-0.7,1.5-1.2
								c1.2-0.5,4.1-0.7,6.8-0.7l-7.8-0.5c-1.1,0.4-3.6,1.6-3.4,2c0.1,0.2,0.1,0.5,0.1,0.7c0.1,0.7,0.2,1.8,1.3,2
								c1.7,0.2,3.5,0.3,5.2,0.1l0,0c0,0,3.5-0.1,7.2-0.4c6.1-0.4,8-0.9,8.4-1.2c1-0.7,1.8-1.8,2.3-3.1c0.6-1.5,0.5-2.6-0.4-2.8
								c-0.6-0.1-1.2-0.2-1.8-0.2C-157.1,6.5-174.9,6.7-177.9,7.4z"/>
						</g>
						<polyline class="st4" points="275.4,65.7 276.1,74.3 296.7,85.5 280.2,73.6 						"/>
						<g class="st18">
							<path class="st19" d="M290.5,49.5c5.6-0.3,11.2-0.4,16.8-0.5c5.6-0.1,11.2-0.1,16.8-0.1c1.4,0,2.9,0.1,4.2,0.1
								c1.3,0,2.7,0,4.1-0.1c2.8-0.1,5.6-0.2,8.3-0.4c5.5-0.4,10.9-0.9,16.3-1.5c2.7-0.3,5.4-0.6,8.2-0.8s5.6-0.4,8.9-0.3l1.3,0.1
								l0.9,0.1c0.7,0.1,1.3,0.1,2,0.1c1.3,0.1,2.7,0.1,4.1,0.1l8.4,0.1c11.1,0.2,22.3,0.4,33.6,0.9v0.1
								c-11.2,0.4-22.5,0.6-33.8,0.5c-2.8-0.1-5.7-0.1-8.5-0.2c-1.4-0.1-2.8-0.1-4.3-0.2c-0.7,0-1.4-0.1-2.2-0.1l-1.1-0.1l-0.8-0.1
								c-2.3-0.1-5.1,0-7.8,0.1c-2.7,0.1-5.5,0.2-8.3,0.4c-5.6,0.3-11.1,0.7-16.5,1.2c-2.7,0.2-5.4,0.5-8.2,0.8s-5.9,0.4-8.6,0.4
								c-5.6,0.1-11.2,0.1-16.8-0.1S296.2,49.8,290.5,49.5L290.5,49.5z"/>
						</g>
						<g class="st18">
							<path class="st20" d="M317.3,78c7.7,1.9,15.4,3.7,23.1,5.6l-0.4-0.1c9.2-0.3,18.5-0.7,27.8-0.9l27.8-0.9l-1.1,0.2
								c9.4-3.9,19.1-7.8,28.6-11.7v0.9l-10.3-4.4l1.4,0.2L395,66.5c-6.4-0.1-12.7-0.2-19.1-0.4l-38.1-0.8l1.7-0.4l-8.3,5.8
								l-0.9-0.9l36.9,5.2h-0.9l15.5-2.1l15.6-2l0.1,0.4c-7.5-0.5-15.1-1.1-22.5-1.7l22.8,1.2l2,0.1l-1.9,0.3l-15.3,2.3l-15.4,2.6
								l-0.4,0.1l-0.4-0.1l-37.3-5l-1.8-0.2l0.9-0.6l8.2-5.8l0.5-0.4h1.2l38.2,0.7c6.4,0.1,12.7,0.2,19.1,0.4l19.1,0.4h0.9l0.5,0.2
								l10.2,4.4l1,0.4l-1.1,0.4c-9.7,3.9-19.3,7.7-29,11.6l-0.4,0.1h-0.6l-27.9,0.6l-27.9,0.6h-0.3l-0.2-0.1
								C332.1,82,324.7,80,317.3,78z"/>
						</g>
					</g>
				</g>
			</g>
		</g>
	</g>
</g>
</svg>
