<svg xmlns="http://www.w3.org/2000/svg" viewBox="0 0 45 45"><defs><style>.cls-1{fill:#183008;}.cls-2{fill:#9e0404;}.cls-3{fill:#244924;}.cls-4{fill:#2a562c;}.cls-5{fill:#ba3842;}.cls-6{fill:#b23040;}.cls-7,.cls-8{fill:none;stroke:#fff;}.cls-7,.cls-8,.cls-9{stroke-miterlimit:10;}.cls-7{opacity:0.56;}.cls-9{fill:#f9f9f9;stroke:#f9f9f9;stroke-width:0.25px;}</style></defs><title>apple</title><g id="Layer_2" data-name="Layer 2"><g id="Layer_1-2" data-name="Layer 1"><path class="cls-1" d="M21.59,12.23l1-.75s-.23,4.81,1.09,6.2c.83.89-.51,1.45-1.59,1.75"/><path class="cls-1" d="M22.1,19.42a11.28,11.28,0,0,1-1.16.25s.21-4.49-1-6.22l1.64-1.21"/><path class="cls-2" d="M33.5,24.27c0,4.37-4.42,8.89-10.39,8.89-6.38,0-12.7-3.54-12.7-8.89,0-4.76,1.74-7.79,5.24-8,1.59-.43,6.3.82,6.3.82.17,0,4-1.32,6.36-.64S33.54,19.64,33.5,24.27Z"/><path class="cls-2" d="M22,17.12c.17,0,4-1.32,6.36-.64s5.22,3.17,5.18,7.79c0,4.37-4.42,8.89-10.39,8.89"/><path class="cls-3" d="M21.27,12.55l1-.75s-.23,4.81,1.09,6.2c.83.89-.51,1.45-1.59,1.75"/><path class="cls-4" d="M21.78,19.74a11.28,11.28,0,0,1-1.16.25s.21-4.49-1-6.22l1.64-1.21"/><path class="cls-5" d="M33.18,24.59c0,4.37-4.42,8.89-10.39,8.89-6.38,0-12.7-3.54-12.7-8.89,0-4.76,1.74-7.79,5.24-8,1.59-.43,6.3.82,6.3.82.17,0,4-1.32,6.36-.64S33.22,20,33.18,24.59Z"/><path class="cls-6" d="M21.63,17.44c.17,0,4-1.32,6.36-.64s5.22,3.17,5.18,7.79c0,4.37-4.42,8.89-10.39,8.89"/><path class="cls-7" d="M22.5,44.5a22,22,0,1,1,22-22A22,22,0,0,1,22.5,44.5Z"/><circle class="cls-8" cx="22.5" cy="22.5" r="19"/><path class="cls-9" d="M33.52,12.78l-.46.23-.23-.46a.18.18,0,0,0-.32.16l.23.46-.46.23a.18.18,0,1,0,.16.32l.46-.23.23.46a.18.18,0,0,0,.32-.16l-.23-.46.46-.23a.18.18,0,1,0-.16-.32Z"/><path class="cls-9" d="M24.48,38.26l-.79.1-.1-.79a.27.27,0,0,0-.54.07l.1.79-.79.1a.27.27,0,1,0,.07.54l.79-.1.1.79a.27.27,0,0,0,.54-.07l-.1-.79.79-.1a.27.27,0,1,0-.07-.54Z"/><path class="cls-9" d="M13.48,9.26l-.79.1-.1-.79a.27.27,0,0,0-.54.07l.1.79-.79.1a.27.27,0,1,0,.07.54l.79-.1.1.79a.27.27,0,0,0,.54-.07l-.1-.79.79-.1a.27.27,0,1,0-.07-.54Z"/><path class="cls-9" d="M37.56,30.44a3.37,3.37,0,0,0-2.5-2.5,2.94,2.94,0,0,0,2.5-2.5,3.14,3.14,0,0,0,2.5,2.5C38.5,28.31,37.56,29.07,37.56,30.44Z"/><path class="cls-9" d="M10.56,32.44c-.46-2.1-1.9-3.6-4.44-4.44,2.36-.28,3.75-1.88,4.44-4.44A5.58,5.58,0,0,0,15,28C12.23,28.65,10.56,30,10.56,32.44Z"/></g></g></svg>