<svg id="Layer_1" data-name="Layer 1" xmlns="http://www.w3.org/2000/svg" viewBox="0 0 151.45 53.63"><defs><style>.cls-1,.cls-4{fill:#492812;}.cls-2{fill:#683a17;}.cls-3{fill:#784418;}.cls-4{opacity:0.47;}.cls-5{font-size:25px;font-family:GROBOLD, GROBOLD;}.cls-5,.cls-6{fill:#eaeaea;}</style></defs><title>back</title><polygon class="cls-1" points="0 45.11 1.67 46.4 7.86 51.21 77.65 52.41 86.72 52.57 98.94 52.78 148.58 53.63 151.45 16.36 150.5 14.78 142.97 2.24 79.99 5.25 71.97 5.63 14.06 8.4 5.44 14.48 3.49 15.86 0 45.11"/><polygon class="cls-2" points="2.2 41 9.91 46.9 77.86 48.1 94.99 48.4 147.81 49.34 150.5 14.78 150.58 13.65 142.26 0 80.11 2.88 72.09 3.25 15.95 5.86 5.59 13.06 5.44 14.48 2.2 41"/><polygon class="cls-3" points="144.12 44.87 146.49 14.87 140.17 4.5 17.15 10.21 9.34 15.64 6.44 38.86 11.22 42.52 144.12 44.87"/><polygon class="cls-4" points="0 45.11 1.58 46.4 82.26 52.35 94.47 53.25 93.86 52.52 90.12 48.16 86.3 43.69 67.26 28.07 68.5 3.08 15.23 5.82 5.39 13.05 5.24 14.47 3.39 15.85 0 45.11"/><text class="cls-5" transform="translate(67.4 36.91)">Back</text><polygon class="cls-6" points="18.08 25.64 39.73 13.14 39.73 38.14 18.08 25.64"/><polygon class="cls-6" points="31.1 29.8 55.58 34.49 55.58 17.82 31.1 22.51 31.1 29.8"/></svg>