<svg xmlns="http://www.w3.org/2000/svg" xmlns:xlink="http://www.w3.org/1999/xlink" viewBox="0 0 2076.35 1392.65"><defs><style>.cls-1,.cls-15,.cls-30,.cls-35{fill:none;}.cls-2{isolation:isolate;}.cls-3{clip-path:url(#clip-path);}.cls-4{fill:url(#linear-gradient);}.cls-5{opacity:0.26;}.cls-6{fill:#688c7f;}.cls-7{opacity:0.09;}.cls-8{fill:#ad5236;}.cls-9{opacity:0.1;}.cls-10,.cls-17{opacity:0.5;}.cls-11{fill:#ce783f;}.cls-12{fill:#b4673e;}.cls-13{fill:#e49345;}.cls-14{fill:#9b5c3f;}.cls-15{stroke:#2d2d2d;stroke-width:4.08px;}.cls-15,.cls-34,.cls-36{stroke-miterlimit:10;}.cls-16{fill:#82820f;}.cls-17{fill:#492e17;}.cls-18{fill:url(#linear-gradient-2);}.cls-19{opacity:0.81;}.cls-20{fill:#ffe7e1;}.cls-21{fill:url(#linear-gradient-3);}.cls-22{fill:url(#linear-gradient-4);}.cls-23,.cls-31,.cls-33{fill:#fff;}.cls-24{fill:url(#linear-gradient-5);}.cls-25{fill:url(#linear-gradient-6);}.cls-26{fill:url(#linear-gradient-7);}.cls-27{fill:url(#linear-gradient-8);}.cls-28{fill:url(#linear-gradient-9);}.cls-29{fill:url(#linear-gradient-10);}.cls-30,.cls-34,.cls-35,.cls-36{stroke:#f9f9f9;}.cls-30,.cls-35{stroke-linecap:round;stroke-linejoin:round;}.cls-30{stroke-width:1.58px;}.cls-31,.cls-33{opacity:0.24;}.cls-31,.cls-32{mix-blend-mode:soft-light;}.cls-34,.cls-36{fill:#f9f9f9;}.cls-34{stroke-width:0.79px;}.cls-35{stroke-width:1.59px;}.cls-36{stroke-width:0.8px;}.cls-37{fill:url(#linear-gradient-11);}.cls-38{fill:url(#linear-gradient-12);}.cls-39{fill:url(#linear-gradient-13);}.cls-40{fill:url(#linear-gradient-14);}.cls-41{fill:url(#linear-gradient-15);}.cls-42{fill:url(#linear-gradient-16);}.cls-43{fill:url(#linear-gradient-17);}.cls-44{fill:url(#linear-gradient-18);}</style><clipPath id="clip-path" transform="translate(160.75 241.03)"><rect class="cls-1" x="0.4" y="-6" width="1834.2" height="1134"/></clipPath><linearGradient id="linear-gradient" x1="920.44" y1="-108.18" x2="920.44" y2="936.99" gradientUnits="userSpaceOnUse"><stop offset="0" stop-color="#186b91"/><stop offset="0.2" stop-color="#5f9cb6"/><stop offset="0.38" stop-color="#93c1d2"/><stop offset="0.51" stop-color="#b4d7e3"/><stop offset="0.58" stop-color="#c0e0e9"/><stop offset="0.63" stop-color="#c2dfe2"/><stop offset="0.72" stop-color="#c9dccf"/><stop offset="0.81" stop-color="#d3d7af"/><stop offset="0.92" stop-color="#e1d184"/><stop offset="1" stop-color="#edcb60"/></linearGradient><linearGradient id="linear-gradient-2" x1="922.88" y1="981.54" x2="922.88" y2="873.06" gradientUnits="userSpaceOnUse"><stop offset="0" stop-color="#bfa910"/><stop offset="1" stop-color="#cfa53d"/></linearGradient><linearGradient id="linear-gradient-3" x1="1412.71" y1="195.19" x2="1460.88" y2="45.32" gradientUnits="userSpaceOnUse"><stop offset="0" stop-color="#edcb60"/><stop offset="0.08" stop-color="#e1d184"/><stop offset="0.19" stop-color="#d3d7af"/><stop offset="0.28" stop-color="#c9dccf"/><stop offset="0.37" stop-color="#c2dfe2"/><stop offset="0.42" stop-color="#c0e0e9"/><stop offset="0.49" stop-color="#b4d7e3"/><stop offset="0.62" stop-color="#93c1d2"/><stop offset="0.8" stop-color="#5f9cb6"/><stop offset="1" stop-color="#186b91"/></linearGradient><linearGradient id="linear-gradient-4" x1="1755.38" y1="359.11" x2="1755.47" y2="358.84" xlink:href="#linear-gradient-3"/><linearGradient id="linear-gradient-5" x1="1568.07" y1="409.01" x2="1604.95" y2="294.24" xlink:href="#linear-gradient"/><linearGradient id="linear-gradient-6" x1="1868.14" y1="590.95" x2="1868.18" y2="590.82" gradientUnits="userSpaceOnUse"><stop offset="0" stop-color="#a085a5"/><stop offset="0.24" stop-color="#ac6d84" stop-opacity="0.67"/><stop offset="0.58" stop-color="#be4c55" stop-opacity="0.2"/><stop offset="0.62" stop-color="#c05057" stop-opacity="0.23"/><stop offset="0.68" stop-color="#c65b5c" stop-opacity="0.3"/><stop offset="0.75" stop-color="#cf6e64" stop-opacity="0.41"/><stop offset="0.83" stop-color="#dc8770" stop-opacity="0.57"/><stop offset="0.92" stop-color="#eda87e" stop-opacity="0.78"/><stop offset="1" stop-color="#ffcb8e"/></linearGradient><linearGradient id="linear-gradient-7" x1="416.84" y1="269.72" x2="449.25" y2="168.91" xlink:href="#linear-gradient"/><linearGradient id="linear-gradient-8" x1="699.95" y1="458.93" x2="700.04" y2="458.65" xlink:href="#linear-gradient"/><linearGradient id="linear-gradient-9" x1="957.69" y1="376.09" x2="1016.69" y2="192.53" xlink:href="#linear-gradient-6"/><linearGradient id="linear-gradient-10" x1="1341.27" y1="522.63" x2="1341.35" y2="522.38" xlink:href="#linear-gradient-6"/><linearGradient id="linear-gradient-11" x1="659.74" y1="175.89" x2="713.55" y2="8.49" xlink:href="#linear-gradient"/><linearGradient id="linear-gradient-12" x1="1023.7" y1="330.77" x2="1023.78" y2="330.51" xlink:href="#linear-gradient"/><linearGradient id="linear-gradient-13" x1="808.53" y1="170.85" x2="845.42" y2="56.08" xlink:href="#linear-gradient"/><linearGradient id="linear-gradient-14" x1="1108.6" y1="352.79" x2="1108.64" y2="352.66" xlink:href="#linear-gradient-6"/><linearGradient id="linear-gradient-15" x1="-25.57" y1="163.31" x2="28.24" y2="-4.09" xlink:href="#linear-gradient"/><linearGradient id="linear-gradient-16" x1="338.39" y1="318.19" x2="338.47" y2="317.93" xlink:href="#linear-gradient"/><linearGradient id="linear-gradient-17" x1="145.07" y1="427.21" x2="177.47" y2="326.4" xlink:href="#linear-gradient"/><linearGradient id="linear-gradient-18" x1="428.18" y1="616.42" x2="428.27" y2="616.14" xlink:href="#linear-gradient"/></defs><title>bbg</title><g class="cls-2"><g id="Layer_1" data-name="Layer 1"><g class="cls-3"><path class="cls-4" d="M1597.68-10.15c-284.82,0-568.9-7.4-853.53-11.32-122-1.68-244.18-.59-366-4.77l-16.95-.59q-11.68-.38-23.37-.83c-42.12-1.5-84.45-2.94-126.76-3.54-8.42,2.06-17.15,3.85-26,5.49C162-21.43,136.61-20.44,112.38-19c-14.3.83-28.63,1.19-43,1.22-23.25.05-46.46-.64-69.69-.94-3.14.57-6.33,1.06-9.58,1.43v1127H1850.8V-10.15Z" transform="translate(160.75 241.03)"/><g id="Tees"><g class="cls-5"><path class="cls-6" d="M406.63,775.87a60.2,60.2,0,0,0,12.82,9.88c5,2.64,11.53,4.25,18.11,5.43,3.84.68,7.82,1.2,11.8,1.6v0c0-19.51,0-39,1.23-58.61a244.39,244.39,0,0,1,3.4-29.41l.33-2.17-.56-.61.68-.19,4-26.1,7.15-46.77-38.42-28.1,39.45,21.37.71-4.66c1.38-9.7,2.59-19.42,3.69-29.12.52-4.85,1.08-9.72,1.27-14.53a99.36,99.36,0,0,0-1.5-14.45,76.71,76.71,0,0,0-10.86-28.23A83.17,83.17,0,0,0,449.6,518c-2-2.11-4.13-4.19-6.27-6.26s-4.43-4.13-5.56-6.48c1.25,2.33,3.69,4.32,5.88,6.36s4.47,4.07,6.6,6.15a88,88,0,0,1,11.08,13.05,80.37,80.37,0,0,1,12.46,28.34,101.35,101.35,0,0,1,2.28,14.67c.06,4.94-.25,9.79-.52,14.68-.61,9.75-1.31,19.49-2.19,29.22l-5.88,58.4-2.29,22.69,45.34-12.36L464.66,704.2l-.12,1.15a238.22,238.22,0,0,0-1.83,28.94c-.17,19.1.72,38.25,1.75,57.41l18.85-4.28,2.88,5.18-21.48,3.73,3,54.75c.14,3.25.35,6.49.5,9.74l17.72-5.52-17.55,9.92c0,.18,0,.35,0,.53.07,5-.15,9.94-.44,14.88-.62,9.87-1.83,19.67-3.21,29.45-2.83,19.57-6.53,39-11,58.46l-24-2.26c5.34-19,10-38.29,13.81-57.48,1.86-9.6,3.55-19.22,4.64-28.81.53-4.79,1-9.58,1.17-14.33s0-9.7.07-14.55l-.16-54.59c-4.57-.66-9-1.45-13.45-2.46-6.78-1.59-13.54-3.61-18.86-6.87a54.83,54.83,0,0,1-11.92-10.84,83.92,83.92,0,0,1-8.29-11.82A94.41,94.41,0,0,0,406.63,775.87Z" transform="translate(160.75 241.03)"/></g><g class="cls-5"><path class="cls-6" d="M593.74,739.25a62.49,62.49,0,0,0,12.82,11.57c5,3.09,11.53,5,18.11,6.36,3.84.79,7.82,1.4,11.8,1.87v0c0-22.85,0-45.71,1.23-68.63A333.19,333.19,0,0,1,641.1,656l.33-2.54-.56-.72.68-.22,4-30.56,7.15-54.76-38.42-32.91,39.45,25,.71-5.46c1.38-11.36,2.59-22.73,3.69-34.1.52-5.68,1.08-11.39,1.27-17a135.59,135.59,0,0,0-1.5-16.92A99.54,99.54,0,0,0,647,452.73a96.86,96.86,0,0,0-10.32-15.41c-2-2.47-4.13-4.9-6.27-7.32s-4.43-4.83-5.56-7.59c1.25,2.73,3.69,5.06,5.88,7.45s4.47,4.77,6.6,7.2a100.7,100.7,0,0,1,11.08,15.29,102.86,102.86,0,0,1,12.46,33.19,137.58,137.58,0,0,1,2.28,17.18c.06,5.78-.25,11.47-.52,17.18-.61,11.41-1.31,22.82-2.19,34.22l-5.88,68.39L652.31,649l45.34-14.47-45.88,20.77-.12,1.35a326,326,0,0,0-1.83,33.89c-.17,22.36.72,44.79,1.75,67.22l18.85-5,2.88,6.06-21.48,4.37,3,64.11c.14,3.81.35,7.6.5,11.4l17.72-6.46L655.5,843.89c0,.21,0,.41,0,.62.07,5.84-.15,11.64-.44,17.42-.62,11.56-1.83,23-3.21,34.48-2.83,22.92-6.53,45.63-11,68.45l-24-2.65c5.34-22.28,10-44.83,13.81-67.31,1.86-11.25,3.55-22.51,4.64-33.73.53-5.61,1-11.21,1.17-16.78s0-11.36.07-17l-.16-63.92c-4.57-.77-9-1.7-13.45-2.88-6.78-1.86-13.54-4.23-18.86-8a59.16,59.16,0,0,1-11.92-12.69A100,100,0,0,1,584,726,107.66,107.66,0,0,0,593.74,739.25Z" transform="translate(160.75 241.03)"/></g><g class="cls-7"><path class="cls-8" d="M623.46,829.62a62.46,62.46,0,0,1-12.82,6.94c-5,1.85-11.53,3-18.11,3.81-3.84.47-7.82.84-11.8,1.12v0c0-13.7,0-27.4-1.23-41.14a123,123,0,0,0-3.4-20.64l-.33-1.52.56-.43-.68-.13-4-18.32-7.15-32.83,38.42-19.73-39.45,15-.71-3.27c-1.38-6.81-2.59-13.63-3.69-20.44-.52-3.4-1.08-6.83-1.27-10.2a49.83,49.83,0,0,1,1.5-10.14,45.73,45.73,0,0,1,10.86-19.82,67.25,67.25,0,0,1,10.32-9.24c2-1.48,4.13-2.94,6.27-4.39s4.43-2.9,5.56-4.55c-1.25,1.64-3.69,3-5.88,4.47s-4.47,2.86-6.6,4.31a74.11,74.11,0,0,0-11.08,9.16,50,50,0,0,0-12.46,19.89A51.83,51.83,0,0,0,554,687.8c-.06,3.47.25,6.87.52,10.3.61,6.84,1.31,13.68,2.19,20.51l5.88,41,2.29,15.92-45.34-8.68,45.88,12.45.12.81a118.21,118.21,0,0,1,1.83,20.32c.17,13.41-.72,26.85-1.75,40.3l-18.85-3-2.88,3.64L565.37,844l-3,38.43c-.14,2.28-.35,4.55-.5,6.84l-17.72-3.87,17.55,7c0,.13,0,.25,0,.37a101.32,101.32,0,0,0,.44,10.44,191.37,191.37,0,0,0,3.21,20.67,383.35,383.35,0,0,0,11,41l24-1.59a399,399,0,0,1-13.81-40.35,194.14,194.14,0,0,1-4.64-20.22,99.39,99.39,0,0,1-1.17-10.06c-.2-3.35,0-6.81-.07-10.21l.16-38.32c4.57-.46,9-1,13.45-1.73,6.78-1.11,13.54-2.53,18.86-4.82A52.63,52.63,0,0,0,624.94,830a64.07,64.07,0,0,0,8.29-8.3A80.31,80.31,0,0,1,623.46,829.62Z" transform="translate(160.75 241.03)"/></g><g class="cls-9"><path class="cls-8" d="M309.12,844.21a38,38,0,0,1-8.16,5.26A39.5,39.5,0,0,1,290,851.94c-2.29.25-4.64.4-7,.48v0c1.4-11.36,2.72-22.74,3.4-34.18a141.63,141.63,0,0,0,.09-17.26l0-1.28.37-.34-.38-.13L286,783.86l-.87-27.51,24.35-14.89L285,752.38l-.09-2.74c-.12-5.7-.14-11.41-.1-17.1,0-2.84.05-5.71.28-8.51a59.64,59.64,0,0,1,1.89-8.36,47.64,47.64,0,0,1,8.31-16,52.72,52.72,0,0,1,6.94-7.27c1.32-1.15,2.7-2.28,4.09-3.4a17.13,17.13,0,0,0,3.69-3.56,17.94,17.94,0,0,1-3.87,3.48c-1.45,1.09-2.89,2.2-4.28,3.33a55.79,55.79,0,0,0-7.37,7.18,50.15,50.15,0,0,0-9.25,16,61.3,61.3,0,0,0-2.36,8.46c-.39,2.87-.55,5.71-.73,8.57-.33,5.7-.61,11.4-.78,17.1l-.68,34.24-.26,13.3-25.53-8.94,25.47,12.1v.67a139.22,139.22,0,0,1-1,16.93c-1.25,11.13-3.11,22.25-5.06,33.37L263.64,848l-2,2.91,12.24,3-5.6,31.77c-.31,1.89-.66,3.77-1,5.65l-9.93-3.9,9.53,6.45c0,.1,0,.2,0,.31-.39,2.9-.61,5.79-.79,8.68-.33,5.77-.32,11.53-.2,17.28.27,11.51,1.07,22.94,2.28,34.47l14.11-.4c-1.77-11.29-3.16-22.68-4-34-.41-5.67-.71-11.33-.68-17,0-2.81.1-5.62.33-8.39s.66-5.65,1-8.48l3.93-31.79c2.71-.21,5.36-.5,8-.92a39.86,39.86,0,0,0,11.46-3.28,34.73,34.73,0,0,0,7.7-5.86,53.11,53.11,0,0,0,5.66-6.56A59.9,59.9,0,0,1,309.12,844.21Z" transform="translate(160.75 241.03)"/></g><g class="cls-5"><path class="cls-6" d="M286.64,812.46a44.83,44.83,0,0,1-9.54,7.36c-3.76,2-8.59,3.17-13.49,4-2.86.5-5.82.89-8.79,1.19v0c0-14.53,0-29.07-.92-43.64a182,182,0,0,0-2.53-21.9l-.25-1.61.42-.46-.51-.14-3-19.43L242.74,703l28.61-20.93L242,698l-.53-3.47c-1-7.23-1.93-14.46-2.75-21.69-.39-3.61-.81-7.24-.94-10.82a74,74,0,0,1,1.12-10.76,57.12,57.12,0,0,1,8.09-21,61.93,61.93,0,0,1,7.69-9.8c1.5-1.57,3.07-3.12,4.67-4.66s3.3-3.07,4.14-4.83c-.93,1.74-2.75,3.22-4.38,4.74s-3.33,3-4.92,4.58a65.5,65.5,0,0,0-8.25,9.72,59.85,59.85,0,0,0-9.28,21.11,75.47,75.47,0,0,0-1.7,10.93c0,3.68.18,7.29.38,10.93.45,7.26,1,14.51,1.63,21.76l4.38,43.49,1.7,16.89-33.76-9.2,34.16,13.21.09.86a177.39,177.39,0,0,1,1.37,21.55c.12,14.22-.53,28.48-1.31,42.75l-14-3.19-2.14,3.86,16,2.78-2.24,40.77c-.11,2.42-.26,4.83-.37,7.25l-13.2-4.11L240.65,879c0,.13,0,.26,0,.4-.05,3.72.11,7.4.33,11.08.46,7.35,1.36,14.65,2.39,21.93,2.1,14.57,4.87,29,8.17,43.53l17.84-1.69c-4-14.17-7.48-28.51-10.29-42.8-1.38-7.15-2.64-14.31-3.46-21.45-.4-3.57-.74-7.13-.87-10.67s0-7.23,0-10.83l.12-40.65c3.4-.49,6.73-1.08,10-1.83,5.05-1.18,10.08-2.69,14-5.12a40.83,40.83,0,0,0,8.88-8.07,62.49,62.49,0,0,0,6.18-8.8A70.3,70.3,0,0,1,286.64,812.46Z" transform="translate(160.75 241.03)"/><path class="cls-6" d="M216.33,745.2l.78-1.06c3.49-4.78-.16-10.4-8.12-12.5l-.78,1.06C204.72,737.47,208.37,743.1,216.33,745.2Z" transform="translate(160.75 241.03)"/><path class="cls-6" d="M191,756.83l1.89.24c8.5,1.1,16.94-2.17,18.77-7.27h0l-1.89-.24C201.32,748.46,192.87,751.73,191,756.83Z" transform="translate(160.75 241.03)"/><path class="cls-6" d="M282.62,810.49l1.86.31c2.34-5-2.59-10.28-11-11.69l-1.86-.31C269.32,803.83,274.25,809.09,282.62,810.49Z" transform="translate(160.75 241.03)"/><path class="cls-6" d="M294,815.42l-6,.77h0c1.35,3.75,7.56,6.16,13.81,5.35l6-.77C306.5,817,300.28,814.61,294,815.42Z" transform="translate(160.75 241.03)"/><path class="cls-6" d="M225.14,870.75v-1.08c0-3.69-5-6.71-11.17-6.71V864C214,867.74,219,870.75,225.14,870.75Z" transform="translate(160.75 241.03)"/><path class="cls-6" d="M212.46,880.57l1.78.13c6.1.44,11.69-2.2,12.42-5.87l-1.78-.13C218.77,874.27,213.19,876.91,212.46,880.57Z" transform="translate(160.75 241.03)"/></g><g class="cls-10"><path class="cls-6" d="M948.86,753.19A65,65,0,0,1,935,763.85c-5.44,2.85-12.45,4.59-19.55,5.86-4.15.73-8.44,1.29-12.74,1.72v0c.05-21.06-.05-42.14-1.33-63.27a263.82,263.82,0,0,0-3.67-31.75l-.36-2.34.6-.66-.73-.2L892.94,645l-7.72-50.49,41.47-30.34-42.58,23.07-.77-5c-1.49-10.47-2.79-21-4-31.44-.56-5.23-1.17-10.5-1.37-15.68a107.26,107.26,0,0,1,1.62-15.6A82.81,82.81,0,0,1,891.33,489a89.78,89.78,0,0,1,11.14-14.21c2.18-2.27,4.45-4.52,6.77-6.75s4.78-4.46,6-7c-1.35,2.52-4,4.67-6.34,6.87s-4.82,4.39-7.13,6.64a95,95,0,0,0-12,14.09,86.76,86.76,0,0,0-13.45,30.6,109.41,109.41,0,0,0-2.46,15.84c-.07,5.33.27,10.57.56,15.84.65,10.52,1.42,21,2.36,31.54l6.35,63L885.63,670l-48.94-13.34,49.53,19.15.13,1.24a257.16,257.16,0,0,1,2,31.25c.18,20.62-.78,41.29-1.89,62l-20.35-4.62-3.1,5.59,23.18,4-3.24,59.1c-.16,3.51-.37,7-.54,10.51l-19.13-6,19,10.71c0,.19,0,.38,0,.57-.07,5.39.16,10.73.48,16.06.67,10.66,2,21.23,3.46,31.79,3.05,21.13,7.05,42.06,11.84,63.11l25.86-2.44C918,938.21,913,917.42,908.9,896.7c-2-10.37-3.83-20.75-5-31.1-.57-5.17-1.07-10.34-1.26-15.47s0-10.47-.07-15.7l.18-58.93c4.93-.71,9.75-1.57,14.52-2.66,7.32-1.71,14.62-3.9,20.35-7.42a59.19,59.19,0,0,0,12.87-11.7,90.59,90.59,0,0,0,9-12.76A101.92,101.92,0,0,1,948.86,753.19Z" transform="translate(160.75 241.03)"/><path class="cls-6" d="M846.94,655.67l1.13-1.54c5.06-6.92-.23-15.08-11.77-18.12l-1.13,1.54C830.11,644.48,835.4,652.63,846.94,655.67Z" transform="translate(160.75 241.03)"/><path class="cls-6" d="M810.28,672.54l2.74.35c12.32,1.59,24.56-3.15,27.22-10.54h0L837.5,662C825.18,660.4,812.93,665.15,810.28,672.54Z" transform="translate(160.75 241.03)"/><path class="cls-6" d="M943,750.33l2.7.45c3.4-7.28-3.75-14.91-15.88-16.95l-2.7-.45C923.76,740.67,930.91,748.29,943,750.33Z" transform="translate(160.75 241.03)"/><path class="cls-6" d="M959.58,757.48l-8.66,1.12h0c2,5.44,11,8.93,20,7.76l8.66-1.12C977.65,759.79,968.64,756.3,959.58,757.48Z" transform="translate(160.75 241.03)"/><path class="cls-6" d="M859.72,837.69v-1.56c0-5.35-7.29-9.72-16.2-9.72V828C843.52,833.31,850.81,837.69,859.72,837.69Z" transform="translate(160.75 241.03)"/><path class="cls-6" d="M841.33,851.92l2.58.18c8.85.63,16.95-3.19,18-8.5l-2.58-.18C850.48,842.78,842.38,846.61,841.33,851.92Z" transform="translate(160.75 241.03)"/></g><path class="cls-6" d="M56.25,760.55a65,65,0,0,1-13.84,10.67C37,774.07,30,775.81,22.86,777.08c-4.15.73-8.44,1.29-12.74,1.72v0c.05-21.06-.05-42.14-1.33-63.27a263.82,263.82,0,0,0-3.67-31.75l-.36-2.34.6-.66-.73-.2L.33,652.38l-7.72-50.49,41.47-30.34L-8.5,594.62l-.77-5c-1.49-10.47-2.79-21-4-31.44-.56-5.23-1.17-10.5-1.37-15.68A107.26,107.26,0,0,1-13,526.87,82.81,82.81,0,0,1-1.28,496.39,89.78,89.78,0,0,1,9.87,482.18c2.18-2.27,4.45-4.52,6.77-6.75s4.78-4.46,6-7c-1.35,2.52-4,4.67-6.34,6.87s-4.82,4.39-7.13,6.64A95,95,0,0,0-2.8,496a86.76,86.76,0,0,0-13.45,30.6,109.41,109.41,0,0,0-2.46,15.84c-.07,5.33.27,10.57.56,15.84.65,10.52,1.42,21,2.36,31.54l6.35,63L-7,677.38-55.92,664l49.53,19.15.13,1.24a257.16,257.16,0,0,1,2,31.25c.18,20.62-.78,41.29-1.89,62L-26.53,773l-3.1,5.59,23.18,4-3.24,59.1c-.16,3.51-.37,7-.54,10.51l-19.13-6,19,10.71c0,.19,0,.38,0,.57-.07,5.39.16,10.73.48,16.06.67,10.66,2,21.23,3.46,31.79,3.05,21.13,7.05,42.06,11.84,63.11l25.86-2.44c-5.77-20.54-10.84-41.33-14.91-62.05-2-10.37-3.83-20.75-5-31.1-.57-5.17-1.07-10.34-1.26-15.47s0-10.47-.07-15.7l.18-58.93c4.93-.71,9.75-1.57,14.52-2.66,7.32-1.71,14.62-3.9,20.35-7.42a59.19,59.19,0,0,0,12.87-11.7,90.59,90.59,0,0,0,9-12.76A101.92,101.92,0,0,1,56.25,760.55Z" transform="translate(160.75 241.03)"/><path class="cls-6" d="M-45.67,663l1.13-1.54c5.06-6.92-.23-15.08-11.77-18.12l-1.13,1.54C-62.5,651.84-57.21,660-45.67,663Z" transform="translate(160.75 241.03)"/><path class="cls-6" d="M-82.33,679.91l2.74.35c12.32,1.59,24.56-3.15,27.22-10.54h0l-2.74-.35C-67.43,667.77-79.68,672.51-82.33,679.91Z" transform="translate(160.75 241.03)"/><path class="cls-6" d="M50.43,757.7l2.7.45c3.4-7.28-3.75-14.91-15.88-16.95l-2.7-.45C31.15,748,38.3,755.66,50.43,757.7Z" transform="translate(160.75 241.03)"/><path class="cls-6" d="M67,764.84,58.31,766h0c2,5.44,11,8.93,20,7.76L87,772.6C85,767.16,76,763.67,67,764.84Z" transform="translate(160.75 241.03)"/><path class="cls-6" d="M-32.89,845.05v-1.56c0-5.35-7.29-9.72-16.2-9.72v1.56C-49.09,840.68-41.8,845.05-32.89,845.05Z" transform="translate(160.75 241.03)"/><path class="cls-6" d="M-51.28,859.28l2.58.18c8.85.63,16.95-3.19,18-8.5l-2.58-.18C-42.13,850.15-50.23,854-51.28,859.28Z" transform="translate(160.75 241.03)"/><g class="cls-5"><path class="cls-6" d="M918.76,731.24a62.49,62.49,0,0,0,12.82,11.57c5,3.09,11.53,5,18.11,6.36,3.84.79,7.82,1.4,11.8,1.87v0c0-22.85,0-45.71,1.23-68.63a333.19,333.19,0,0,1,3.4-34.44l.33-2.54-.56-.72.68-.22,4-30.56,7.15-54.76L939.3,526.24l39.45,25,.71-5.46c1.38-11.36,2.59-22.73,3.69-34.1.52-5.68,1.08-11.39,1.27-17a135.59,135.59,0,0,0-1.5-16.92,99.54,99.54,0,0,0-10.86-33.06,96.86,96.86,0,0,0-10.32-15.41c-2-2.47-4.13-4.9-6.27-7.32s-4.43-4.83-5.56-7.59c1.25,2.73,3.69,5.06,5.88,7.45s4.47,4.77,6.6,7.2a100.7,100.7,0,0,1,11.08,15.29,102.86,102.86,0,0,1,12.46,33.19,137.58,137.58,0,0,1,2.28,17.18c.06,5.78-.25,11.47-.52,17.18-.61,11.41-1.31,22.82-2.19,34.22l-5.88,68.39L977.34,641l45.34-14.47L976.8,647.33l-.12,1.35a326,326,0,0,0-1.83,33.89c-.17,22.36.72,44.79,1.75,67.22l18.85-5,2.88,6.06-21.48,4.37,3,64.11c.14,3.81.35,7.6.5,11.4l17.72-6.46-17.55,11.62c0,.21,0,.41,0,.62.07,5.84-.15,11.64-.44,17.42-.62,11.56-1.83,23-3.21,34.48-2.83,22.92-6.53,45.63-11,68.45l-24-2.65c5.34-22.28,10-44.83,13.81-67.31,1.86-11.25,3.55-22.51,4.64-33.73.53-5.61,1-11.21,1.17-16.78s0-11.36.07-17l-.16-63.92c-4.57-.77-9-1.7-13.45-2.88-6.78-1.86-13.54-4.23-18.86-8a59.16,59.16,0,0,1-11.92-12.69A100,100,0,0,1,909,718,107.66,107.66,0,0,0,918.76,731.24Z" transform="translate(160.75 241.03)"/></g><g class="cls-5"><path class="cls-6" d="M1277.91,729.63a62.49,62.49,0,0,0,12.82,11.57c5,3.09,11.53,5,18.11,6.36,3.84.79,7.82,1.4,11.8,1.87v0c0-22.85,0-45.71,1.23-68.63a333.19,333.19,0,0,1,3.4-34.44l.33-2.54-.56-.72.68-.22,4-30.56,7.15-54.76-38.42-32.91,39.45,25,.71-5.46c1.38-11.36,2.59-22.73,3.69-34.1.52-5.68,1.08-11.39,1.27-17a135.59,135.59,0,0,0-1.5-16.92,99.54,99.54,0,0,0-10.86-33.06,96.86,96.86,0,0,0-10.32-15.41c-2-2.47-4.13-4.9-6.27-7.32s-4.43-4.83-5.56-7.59c1.25,2.73,3.69,5.06,5.88,7.45s4.47,4.77,6.6,7.2a100.7,100.7,0,0,1,11.08,15.29,102.86,102.86,0,0,1,12.46,33.19,137.58,137.58,0,0,1,2.28,17.18c.06,5.78-.25,11.47-.52,17.18-.61,11.41-1.31,22.82-2.19,34.22l-5.88,68.39-2.29,26.56,45.34-14.47-45.88,20.77-.12,1.35A326,326,0,0,0,1334,681c-.17,22.36.72,44.79,1.75,67.22l18.85-5,2.88,6.06L1336,753.6l3,64.11c.14,3.81.35,7.6.5,11.4l17.72-6.46-17.55,11.62c0,.21,0,.41,0,.62.07,5.84-.15,11.64-.44,17.42-.62,11.56-1.83,23-3.21,34.48-2.83,22.92-6.53,45.63-11,68.45l-24-2.65c5.34-22.28,10-44.83,13.81-67.31,1.86-11.25,3.55-22.51,4.64-33.73.53-5.61,1-11.21,1.17-16.78s0-11.36.07-17l-.16-63.92c-4.57-.77-9-1.7-13.45-2.88-6.78-1.86-13.54-4.23-18.86-8a59.16,59.16,0,0,1-11.92-12.69,100,100,0,0,1-8.29-13.84A107.66,107.66,0,0,0,1277.91,729.63Z" transform="translate(160.75 241.03)"/></g><g class="cls-7"><path class="cls-8" d="M1324.73,824.55a62.46,62.46,0,0,1-12.82,6.94c-5,1.85-11.53,3-18.11,3.81-3.84.47-7.82.84-11.8,1.12v0c0-13.7,0-27.4-1.23-41.14a123,123,0,0,0-3.4-20.64l-.33-1.52.56-.43-.68-.13-4-18.32-7.15-32.83,38.42-19.73-39.45,15-.71-3.27c-1.38-6.81-2.59-13.63-3.69-20.44-.52-3.4-1.08-6.83-1.27-10.2a49.83,49.83,0,0,1,1.5-10.14,45.73,45.73,0,0,1,10.86-19.82,67.25,67.25,0,0,1,10.32-9.24c2-1.48,4.13-2.94,6.27-4.39s4.43-2.9,5.56-4.55c-1.25,1.64-3.69,3-5.88,4.47s-4.47,2.86-6.6,4.31a74.11,74.11,0,0,0-11.08,9.16,50,50,0,0,0-12.46,19.89,51.83,51.83,0,0,0-2.28,10.3c-.06,3.47.25,6.87.52,10.3.61,6.84,1.31,13.68,2.19,20.51l5.88,41,2.29,15.92-45.34-8.68,45.88,12.45.12.81a118.21,118.21,0,0,1,1.83,20.32c.17,13.41-.72,26.85-1.75,40.3l-18.85-3-2.88,3.64,21.48,2.62-3,38.43c-.14,2.28-.35,4.55-.5,6.84l-17.72-3.87,17.55,7c0,.13,0,.25,0,.37a101.32,101.32,0,0,0,.44,10.44,191.37,191.37,0,0,0,3.21,20.67,383.35,383.35,0,0,0,11,41l24-1.59a399,399,0,0,1-13.81-40.35,194.14,194.14,0,0,1-4.64-20.22,99.39,99.39,0,0,1-1.17-10.06c-.2-3.35,0-6.81-.07-10.21l.16-38.32c4.57-.46,9-1,13.45-1.73,6.78-1.11,13.54-2.53,18.86-4.82a52.63,52.63,0,0,0,11.92-7.61,64.07,64.07,0,0,0,8.29-8.3A80.31,80.31,0,0,1,1324.73,824.55Z" transform="translate(160.75 241.03)"/></g><g class="cls-7"><path class="cls-8" d="M1661,811.48a62.46,62.46,0,0,1-12.82,6.94c-5,1.85-11.53,3-18.11,3.81-3.84.47-7.82.84-11.8,1.12v0c0-13.7,0-27.4-1.23-41.14a123,123,0,0,0-3.4-20.64l-.33-1.52.56-.43-.68-.13-4-18.32-7.15-32.83,38.42-19.73-39.45,15-.71-3.27c-1.38-6.81-2.59-13.63-3.69-20.44-.52-3.4-1.08-6.83-1.27-10.2a49.83,49.83,0,0,1,1.5-10.14,45.73,45.73,0,0,1,10.86-19.82,67.25,67.25,0,0,1,10.32-9.24c2-1.48,4.13-2.94,6.27-4.39s4.43-2.9,5.56-4.55c-1.25,1.64-3.69,3-5.88,4.47s-4.47,2.86-6.6,4.31a74.11,74.11,0,0,0-11.08,9.16,50,50,0,0,0-12.46,19.89,51.83,51.83,0,0,0-2.28,10.3c-.06,3.47.25,6.87.52,10.3.61,6.84,1.31,13.68,2.19,20.51l5.88,41,2.29,15.92-45.34-8.68L1603,761.18l.12.81a118.21,118.21,0,0,1,1.83,20.32c.17,13.41-.72,26.85-1.75,40.3l-18.85-3-2.88,3.64,21.48,2.62-3,38.43c-.14,2.28-.35,4.55-.5,6.84l-17.72-3.87,17.55,7c0,.13,0,.25,0,.37a101.32,101.32,0,0,0,.44,10.44,191.37,191.37,0,0,0,3.21,20.67,383.35,383.35,0,0,0,11,41l24-1.59A399,399,0,0,1,1624,904.8a194.14,194.14,0,0,1-4.64-20.22,99.39,99.39,0,0,1-1.17-10.06c-.2-3.35,0-6.81-.07-10.21l.16-38.32c4.57-.46,9-1,13.45-1.73,6.78-1.11,13.54-2.53,18.86-4.82a52.63,52.63,0,0,0,11.92-7.61,64.07,64.07,0,0,0,8.29-8.3A80.31,80.31,0,0,1,1661,811.48Z" transform="translate(160.75 241.03)"/></g><path class="cls-6" d="M1775.3,723.57a72.61,72.61,0,0,1-15.46,11.92c-6.08,3.19-13.91,5.13-21.85,6.55-4.63.81-9.43,1.44-14.23,1.93v0c.06-23.53-.06-47.08-1.49-70.69a294.75,294.75,0,0,0-4.1-35.47l-.4-2.61.67-.74-.82-.22-4.81-31.48-8.62-56.41,46.33-33.89L1703,538.18l-.86-5.62c-1.66-11.7-3.12-23.42-4.46-35.12-.63-5.85-1.31-11.73-1.53-17.52a119.84,119.84,0,0,1,1.81-17.43,92.52,92.52,0,0,1,13.1-34,100.31,100.31,0,0,1,12.45-15.87c2.44-2.54,5-5,7.56-7.54s5.34-5,6.7-7.82c-1.51,2.81-4.45,5.21-7.09,7.67s-5.39,4.91-8,7.41A106.08,106.08,0,0,0,1709.33,428a96.93,96.93,0,0,0-15,34.18,122.24,122.24,0,0,0-2.75,17.7c-.08,6,.3,11.81.62,17.7.73,11.76,1.58,23.5,2.64,35.24l7.09,70.44,2.76,27.36L1650,615.74l55.33,21.4.14,1.39a287.3,287.3,0,0,1,2.21,34.91c.2,23-.87,46.13-2.12,69.24l-22.73-5.16-3.47,6.25,25.9,4.5-3.62,66c-.17,3.93-.42,7.83-.61,11.75l-21.37-6.66,21.17,12c0,.22,0,.43,0,.64-.08,6,.18,12,.53,17.94.75,11.91,2.2,23.72,3.87,35.52,3.41,23.6,7.88,47,13.23,70.51l28.89-2.73c-6.44-22.95-12.11-46.17-16.66-69.33-2.24-11.58-4.28-23.18-5.6-34.74-.64-5.78-1.19-11.55-1.41-17.28s0-11.7-.08-17.55l.2-65.84c5.51-.79,10.89-1.75,16.22-3,8.18-1.91,16.33-4.36,22.74-8.29a66.13,66.13,0,0,0,14.38-13.08,101.21,101.21,0,0,0,10-14.25A113.87,113.87,0,0,1,1775.3,723.57Z" transform="translate(160.75 241.03)"/><path class="cls-6" d="M1661.43,614.62l1.26-1.72c5.66-7.74-.26-16.84-13.15-20.24l-1.26,1.72C1642.62,602.11,1648.54,611.22,1661.43,614.62Z" transform="translate(160.75 241.03)"/><path class="cls-6" d="M1620.47,633.47l3.06.4c13.76,1.78,27.44-3.52,30.41-11.78h0l-3.06-.4C1637.12,619.91,1623.44,625.21,1620.47,633.47Z" transform="translate(160.75 241.03)"/><path class="cls-6" d="M1768.79,720.38l3,.51c3.79-8.14-4.19-16.66-17.74-18.93l-3-.51C1747.25,709.58,1755.24,718.1,1768.79,720.38Z" transform="translate(160.75 241.03)"/><path class="cls-6" d="M1787.27,728.36l-9.68,1.25h0c2.18,6.08,12.25,10,22.37,8.67l9.68-1.25C1807.46,730.95,1797.39,727,1787.27,728.36Z" transform="translate(160.75 241.03)"/><path class="cls-6" d="M1675.7,818v-1.74c0-6-8.14-10.86-18.1-10.86v1.74C1657.61,813.09,1665.75,818,1675.7,818Z" transform="translate(160.75 241.03)"/><path class="cls-6" d="M1655.16,833.87l2.88.21c9.88.71,18.93-3.57,20.11-9.5l-2.88-.21C1665.38,823.67,1656.33,827.94,1655.16,833.87Z" transform="translate(160.75 241.03)"/></g><path class="cls-11" d="M-26.82,982.43A69.43,69.43,0,0,1-40,1004.66c7,10.27,10.94,21.33,10.94,32.12v113.53c5.65-.45,11.31-.71,16.94-.72,94.23-.17,187.88-7.93,282.1-8.1,24.25,0,46.54,3.66,65.88,10.13,49.69-4.24,99.39-8.17,149.62-10.12,113.91-4.43,228.44-2.7,342.51-2.7h351c25.44,0,48.72,4.09,68.7,11.16,207.88-10.14,416.88-11.15,625.37-11.16,2.2,0,4.37,0,6.53.1V982.43Z" transform="translate(160.75 241.03)"/><path class="cls-12" d="M-17,1098.7c-4,.5-8,.94-12,1.34v49.16c105.72-8.72,162.32-44.21,206.27-76.92,67.46-50.2,221.89-66.4,221.89-66.4C215.29,1006.86,131.36,1080.21-17,1098.7Z" transform="translate(160.75 241.03)"/><path class="cls-12" d="M805.91,982.44s-214.35,20.45-226.65,75.3c-8.79,39.21-4.5,68.43-164.59,81.91A682.24,682.24,0,0,0,335,1151.33l.9.29c49.69-4.24,99.38-8.17,149.61-10.13q31-1.21,62-1.84c36.35-13.93,68.26-38.94,83-93.79,16.24-60.31,250.93-54.17,250.93-54.17Z" transform="translate(160.75 241.03)"/><path id="_Path_" data-name="&lt;Path&gt;" class="cls-13" d="M117.87,975.33s13.36,5.95,5.4,37.5C116.52,1039.57,80.05,1063-8.95,1076c0,0,105.23,5.48,224-77.75Z" transform="translate(160.75 241.03)"/><path class="cls-13" d="M1618.08,982.44s-5.4,100.4-493.77,105.69c-147,1.59-257.82,22.36-340.9,50.59q22.31.06,44.61.07h202.88c40.28-13.79,92.07-23.77,158.18-28.2C1642.36,1080.21,1618.08,982.44,1618.08,982.44Z" transform="translate(160.75 241.03)"/><path id="_Path_2" data-name="&lt;Path&gt;" class="cls-12" d="M951.62,982.44s-118.72,42.28-129.51,83.23-161.89,41-194.27,68.7A1328.55,1328.55,0,0,1,760,1110.59c68.7-8.74,78.25-8.36,98.93-47.34,8.17-15.4-21.59-50.42,192.47-37.52,139.23,8.39,253.63-36.67,253.63-36.67l-91.74-6.61s-59.1,42.57-130.75,35.67S951.62,982.44,951.62,982.44Z" transform="translate(160.75 241.03)"/><path class="cls-12" d="M1394.42,1144.21c78-29.91,176.12-63.85,269.54-85.79,73.1-17.15,148.89-13.19,215.64-1.23v-52.92c-6.47-.14-13.29-.17-20.35,0H1859c-28,.66-60.51,3.82-98.4,10.7-70.25,12.73-158.68,38.16-269.33,83.72-42.55,17.52-81.84,32.82-118.11,46.18Z" transform="translate(160.75 241.03)"/><path class="cls-13" d="M1607.21,1140c24.75-6.29,51.67-13.44,81-21.44,64.65-17.64,132.62-13.7,191.39-2.37V1077c-69.26-14.44-150.52-17.35-221.06,17.75a812.31,812.31,0,0,1-112,46.05Q1576.89,1140.3,1607.21,1140Z" transform="translate(160.75 241.03)"/><path class="cls-13" d="M352.61,1078.56c-53,4.87-130.19,33-205.78,66.23q23.56-1,47.14-1.8c60.14-21.9,118.19-39.63,161.34-45.61,143.81-19.92,191.57-84.55,191.57-84.55S492.92,1065.67,352.61,1078.56Z" transform="translate(160.75 241.03)"/><path class="cls-14" d="M-29,1051.4v11.42c6.51,1,15.24.58,25.25-4.11C9.42,1052.53-12.87,1050.09-29,1051.4Z" transform="translate(160.75 241.03)"/><path id="_Path_3" data-name="&lt;Path&gt;" class="cls-14" d="M261.77,1068.32s14.39-23.08,52.17-17.26,25.18,12.2,25.18,12.2S281.56,1078,261.77,1068.32Z" transform="translate(160.75 241.03)"/><path id="_Path_4" data-name="&lt;Path&gt;" class="cls-14" d="M1014.55,1048.76s-21.82,15.28,0,15.78S1040.74,1044.23,1014.55,1048.76Z" transform="translate(160.75 241.03)"/><path id="_Path_5" data-name="&lt;Path&gt;" class="cls-14" d="M889.24,1052.9s12.71,8.26,30.36,0S876.53,1044.64,889.24,1052.9Z" transform="translate(160.75 241.03)"/><path id="_Path_6" data-name="&lt;Path&gt;" class="cls-14" d="M930.81,1060.37s11.64-18.67,42.19-14,20.37,9.86,20.37,9.86S946.82,1068.21,930.81,1060.37Z" transform="translate(160.75 241.03)"/><path id="_Path_7" data-name="&lt;Path&gt;" class="cls-14" d="M329.39,1034h0c-5.81,4.07-3.48,9.73,5.2,12.31,13.29,3.94,32.73,8.13,47.71,4.78,8.39-1.88,11-6.23,9.36-10.9C386.41,1025.54,346.73,1021.8,329.39,1034Z" transform="translate(160.75 241.03)"/><path class="cls-15" d="M1196.33,1139.46c4,.3,7.86.68,11.68,1.17,2.31-.35,3.85-1.5,3.35-2.74-1.17-2.9-6.37-5-12.42-5l-2.76,1.62C1193.54,1136.08,1194,1138.14,1196.33,1139.46Z" transform="translate(160.75 241.03)"/><path id="_Path_8" data-name="&lt;Path&gt;" class="cls-14" d="M986.61,1058.93l-2.88,1.7c-4.4,2.59-.63,6.52,6.25,6.52h4.59c3.22,0,5.64-1.44,5-3h0c-1.22-3-6.66-5.22-13-5.22Z" transform="translate(160.75 241.03)"/><path class="cls-16" d="M886.11,955.77c-64,0-125.4,0-189.41-6.34-45.35-5.08-85.4-13.93-133.38-8.88-130.76,12.67-253.47,13.93-381.55,15.21-68.52.9-139.75,4.35-207.91,1.21a58,58,0,0,1,1.57,9.6c.93,12.51-5.19,26.06-15.41,38.08,1.15,1.67,2.18,3.38,3.16,5.09,52.7,2.33,107.2.79,160.88-.46,15.1-.34,30.14-.66,45-.86l31.36-.31c116.83-1.23,230.1-3.23,350.13-14.87,48-5.08,88,3.8,133.38,8.85.47.06.87.09,1.34.11,7.29.74,14.57,1.37,21.8,1.91,55.79,4.31,110,4.31,166.26,4.31,5.83.11,11.72.2,17.55.26q70.48,1.11,140.55.83h.06q64.1-.09,128-1,42.5-.51,84.88-1.26c120.44-1.94,240.76-4.6,361.61-5.25h.06c2.16,0,4.37-.06,6.59-.06,81.85-.43,163.93.06,246.36,2.28h.23c6.76.2,13.52.4,20.35.63V951.84C1545.91,942.39,1218.28,961.65,886.11,955.77Z" transform="translate(160.75 241.03)"/><path class="cls-17" d="M1859.25,1004.27H1859c-82.43-2.23-164.51-2.71-246.36-2.28-2.22,0-4.43,0-6.59.06H1606c-120.85.66-241.17,3.31-361.61,5.25q-42.41.73-84.88,1.26-63.92.81-128,1h-.06q-70.13.21-140.55-.83c-5.83-.06-11.72-.14-17.55-.26-56.26,0-110.47,0-166.26-4.31-7.23-.54-14.52-1.17-21.8-1.91-.47,0-.87-.06-1.34-.11-45.35-5.05-85.35-13.93-133.38-8.85-120,11.65-233.3,13.64-350.13,14.87l-31.36.31c-14.87.2-29.91.51-45,.86-53.67,1.25-108.17,2.79-160.88.46a61.89,61.89,0,0,1,5.56,12.8c49.53,1.93,100.56.6,150.89-.56,16.61-.4,33.11-.77,49.44-1l10.43-.11h.06c30.26-.31,60.34-.63,90.18-1.11h.06q25.36-.43,50.66-1.06h.06c75.73-1.83,151.4-5.31,230-12.93,36.9-3.88,69.08.46,102.6,5,6.35.86,12.83,1.71,19.35,2.54,3.79.49,7.58.94,11.43,1.37,62.32,6.17,122.19,6.34,184.39,6.34h5c99.69,1.77,198.91,1.26,298.07,0h.06c139.56-1.86,278.89-5.31,418.8-6.28,4,0,7.93-.06,11.89-.06q79.05-.56,158.45.31,59.37.69,119,2.48V1004.9C1872.78,1004.67,1866,1004.47,1859.25,1004.27Z" transform="translate(160.75 241.03)"/><path class="cls-18" d="M1688.85,932.71l4.43-10.42-9.56,10.36q-53.34-.56-106.62-.54l24.31-30.23-29.79,30.23h-4.26l-5.3-50.52-8.22,48.52L1531,913.93l6.59,18.27c-115,.46-229.69,2.71-344.3,5.79l-9.79-8.11,3.38,8.28q-103.71,2.78-207.3,6.19a1403,1403,0,0,1-178.74-7.59c-46.23-4.4-91.18-8.16-136.59-9.65l-6.24-.2-1.75,0-29.73-.46q-11.54,0-23.09.2c-31.6.83-63.08,1.46-94.44,2.08l-8,.14c-45.3.88-90.36,1.77-135.36,3.05l-39.29,1.26c-52.7,1.88-105.23,4.51-157.81,8.68-32.24,2.85-66.34,2.83-101,1.71L93.1,905.11,61.21,943.33c-.52,0-1.11,0-1.63-.06L53.75,862l-8.22,77.07L22.68,922.89,29.56,942c-21.17-1-42.4-2.24-63.39-3.23A65.19,65.19,0,0,1-26.13,957c68.15,3.14,139.39-.32,207.91-1.21,128.08-1.28,250.79-2.54,381.55-15.21,48-5.05,88,3.8,133.38,8.88,64,6.34,125.4,6.34,189.41,6.34,332.17,5.88,659.8-13.39,993.49-3.94v-14.7Q1784,933.71,1688.85,932.71Z" transform="translate(160.75 241.03)"/><g id="_Group_" data-name="&lt;Group&gt;" class="cls-19"><path id="_Path_9" data-name="&lt;Path&gt;" class="cls-20" d="M1552.53,105.7S1542.17,68.38,1498.81,82c0,0,12.89-43.69-50.37-41.64-68.39,2.22-46.07,40.39-46.07,40.39s-31.72-9.78-44-.06c-6.46,5.1-9.17,14.77-10.28,22.81-36.17-17.92-64.15,11.09-54.44,13.2s53.72,0,53.72,0,27.19,3.68,42.07,0c0,0,53.08,8.53,110,1.64,0,0,26.54,5.32,53.08.53,0,0,36.89,1,49.84-2.16S1581.08,90.56,1552.53,105.7Z" transform="translate(160.75 241.03)"/><g id="_Group_2" data-name="&lt;Group&gt;"><path id="_Path_10" data-name="&lt;Path&gt;" class="cls-21" d="M1545,115.34c-18.68,7.88-59.12-12.8-59.12-12.8a28.44,28.44,0,0,1-9.52,4.74,40.58,40.58,0,0,1-30.85-3.43c-67.87-38-.95-63.11-.58-63.29-55.34,2.95-46.79,30.84-43.44,38.36a61.08,61.08,0,0,0,13.77,13.54c-26.11-17.23-47.26-15.38-48.7-15.23a19.51,19.51,0,0,0-8.17,3.5c-6.45,5.1-9.16,14.74-10.28,22.76a58.77,58.77,0,0,0,1.68,6.43,56.17,56.17,0,0,0-14-10.86c-29.89-7-50.71,15.81-42.14,17.67,9.71,2.1,53.72,0,53.72,0s27.19,3.68,42.07,0c0,0,53.08,8.53,110,1.64,0,0,26.54,5.32,53.08.53,0,0,16.94.45,31.89-.23C1567.93,118.73,1545,115.34,1545,115.34Z" transform="translate(160.75 241.03)"/><polygon id="_Path_11" data-name="&lt;Path&gt;" class="cls-22" points="1755.43 358.97 1755.43 358.97 1755.43 358.97 1755.43 358.97"/></g><path id="_Path_12" data-name="&lt;Path&gt;" class="cls-23" d="M1552.53,105.7S1542.17,68.38,1498.81,82c0,0,9.21-31.22-26.17-39.64,8.55,4.4,27.18,17,22,41.92,0,0,40.12-15.26,54.56,24.61,0,0,34.21-19.36,53.18,7.79C1615.32,113.58,1581.08,90.56,1552.53,105.7Z" transform="translate(160.75 241.03)"/></g><g id="_Group_3" data-name="&lt;Group&gt;"><path id="_Path_13" data-name="&lt;Path&gt;" class="cls-20" d="M1675.14,340.48s-7.93-28.58-41.14-18.11c0,0,9.87-33.46-38.57-31.89-52.37,1.7-35.28,30.93-35.28,30.93s-24.29-7.49-33.7,0c-4.94,3.91-7,11.31-7.87,17.46-27.7-13.73-49.12,8.5-41.69,10.11s41.14,0,41.14,0,20.82,2.82,32.22,0c0,0,40.64,6.53,84.26,1.25,0,0,20.32,4.07,40.64.4,0,0,28.25.76,38.16-1.66S1697,328.89,1675.14,340.48Z" transform="translate(160.75 241.03)"/><g id="_Group_4" data-name="&lt;Group&gt;"><path id="_Path_14" data-name="&lt;Path&gt;" class="cls-24" d="M1669.33,347.87c-14.31,6-45.27-9.8-45.27-9.8a21.78,21.78,0,0,1-7.29,3.63,31.07,31.07,0,0,1-23.62-2.63c-52-29.11-.72-48.33-.45-48.46-42.38,2.26-35.83,23.61-33.27,29.38A46.77,46.77,0,0,0,1570,330.34c-20-13.19-36.19-11.78-37.29-11.66a14.94,14.94,0,0,0-6.25,2.68c-4.94,3.9-7,11.29-7.87,17.43a45,45,0,0,0,1.29,4.92,43,43,0,0,0-10.71-8.32c-22.89-5.38-38.83,12.11-32.27,13.53,7.43,1.61,41.14,0,41.14,0s20.82,2.82,32.22,0c0,0,40.64,6.53,84.26,1.25,0,0,20.32,4.07,40.64.4,0,0,13,.35,24.42-.18C1686.93,350.46,1669.33,347.87,1669.33,347.87Z" transform="translate(160.75 241.03)"/><polygon id="_Path_15" data-name="&lt;Path&gt;" class="cls-25" points="1868.16 590.89 1868.16 590.89 1868.16 590.89 1868.16 590.89"/></g><path id="_Path_16" data-name="&lt;Path&gt;" class="cls-23" d="M1675.14,340.48s-7.93-28.58-41.14-18.11c0,0,7.05-23.91-20-30.35,6.55,3.37,20.81,13.05,16.84,32.1,0,0,30.72-11.69,41.78,18.85,0,0,26.2-14.83,40.72,6C1723.21,346.52,1697,328.89,1675.14,340.48Z" transform="translate(160.75 241.03)"/></g><g id="_Group_5" data-name="&lt;Group&gt;"><path id="_Path_17" data-name="&lt;Path&gt;" class="cls-20" d="M510.9,209.52s-7-25.1-36.14-15.91c0,0,8.67-29.39-33.89-28-46,1.49-31,27.17-31,27.17s-21.34-6.58-29.61,0c-4.34,3.43-6.17,9.94-6.92,15.34C349,196,330.2,215.53,336.74,216.95s36.14,0,36.14,0,18.29,2.48,28.3,0c0,0,35.7,5.74,74,1.1,0,0,17.85,3.58,35.7.35,0,0,24.82.67,33.53-1.45S530.11,199.34,510.9,209.52Z" transform="translate(160.75 241.03)"/><g id="_Group_6" data-name="&lt;Group&gt;"><path id="_Path_18" data-name="&lt;Path&gt;" class="cls-26" d="M505.8,216c-12.57,5.3-39.77-8.61-39.77-8.61a19.13,19.13,0,0,1-6.4,3.19,27.3,27.3,0,0,1-20.75-2.31c-45.66-25.58-.64-42.45-.39-42.57-37.23,2-31.48,20.74-29.22,25.81a41.08,41.08,0,0,0,9.27,9.11C401,189,386.73,190.27,385.77,190.37a13.13,13.13,0,0,0-5.49,2.36c-4.34,3.43-6.16,9.91-6.91,15.31a39.55,39.55,0,0,0,1.13,4.33,37.78,37.78,0,0,0-9.41-7.31C345,200.34,331,215.7,336.74,216.95c6.53,1.41,36.14,0,36.14,0s18.29,2.48,28.3,0c0,0,35.7,5.74,74,1.1,0,0,17.85,3.58,35.7.35,0,0,11.4.31,21.45-.16C521.26,218.29,505.8,216,505.8,216Z" transform="translate(160.75 241.03)"/><polygon id="_Path_19" data-name="&lt;Path&gt;" class="cls-27" points="700 458.79 700 458.79 700 458.79 700 458.79"/></g><path id="_Path_20" data-name="&lt;Path&gt;" class="cls-23" d="M510.9,209.52s-7-25.1-36.14-15.91c0,0,6.2-21-17.6-26.67,5.75,3,18.28,11.47,14.79,28.2,0,0,27-10.27,36.7,16.56,0,0,23-13,35.77,5.24C553.13,214.83,530.11,199.34,510.9,209.52Z" transform="translate(160.75 241.03)"/></g><g id="_Group_7" data-name="&lt;Group&gt;"><path id="_Path_21" data-name="&lt;Path&gt;" class="cls-20" d="M1128.94,266.48s-12.68-45.71-65.8-29c0,0,15.79-53.51-61.7-51C917.69,189.23,945,236,945,236s-38.84-12-53.91-.07c-7.91,6.25-11.23,18.09-12.6,27.93-44.3-22-78.57,13.59-66.68,16.16s65.8,0,65.8,0,33.3,4.51,51.53,0c0,0,65,10.44,134.77,2,0,0,32.5,6.51,65,.65,0,0,45.19,1.21,61-2.65S1163.92,247.94,1128.94,266.48Z" transform="translate(160.75 241.03)"/><g id="_Group_8" data-name="&lt;Group&gt;"><path id="_Path_22" data-name="&lt;Path&gt;" class="cls-28" d="M1119.66,278.29c-22.88,9.65-72.4-15.68-72.4-15.68a34.83,34.83,0,0,1-11.66,5.8,49.7,49.7,0,0,1-37.78-4.21c-83.13-46.57-1.16-77.29-.72-77.51-67.78,3.61-57.31,37.77-53.21,47a74.8,74.8,0,0,0,16.87,16.58c-32-21.1-57.89-18.84-59.64-18.65a23.9,23.9,0,0,0-10,4.29c-7.89,6.24-11.21,18-12.59,27.88a72,72,0,0,0,2.06,7.88,68.79,68.79,0,0,0-17.13-13.3c-36.61-8.61-62.11,19.37-51.61,21.64,11.89,2.58,65.8,0,65.8,0s33.3,4.51,51.53,0c0,0,65,10.44,134.77,2,0,0,32.5,6.51,65,.65,0,0,20.75.56,39.06-.29C1147.81,282.45,1119.66,278.29,1119.66,278.29Z" transform="translate(160.75 241.03)"/><polygon id="_Path_23" data-name="&lt;Path&gt;" class="cls-29" points="1341.31 522.51 1341.31 522.51 1341.31 522.51 1341.31 522.51"/></g><path id="_Path_24" data-name="&lt;Path&gt;" class="cls-23" d="M1128.94,266.48s-12.68-45.71-65.8-29c0,0,11.28-38.24-32-48.55,10.47,5.39,33.29,20.88,26.94,51.35,0,0,49.14-18.69,66.82,30.15,0,0,41.91-23.71,65.13,9.55C1205.84,276.14,1163.92,247.94,1128.94,266.48Z" transform="translate(160.75 241.03)"/></g><ellipse class="cls-30" cx="1239.81" cy="29.58" rx="2.64" ry="2.14"/><path id="_Path_25" data-name="&lt;Path&gt;" class="cls-31" d="M1791.12,283.24s-448.34-82.77-622.27-50.61c0,0,284.08-11.09,602.94,62.12Z" transform="translate(160.75 241.03)"/><path id="_Compound_Path_" data-name="&lt;Compound Path&gt;" class="cls-31" d="M1397.69,26.07c-171.76,11.13-276.92,8.24-391.77-.79,170.77,4.13,358.91-3.56,391.77-11.88,46.38-11.75,303.53-.14,303.53-.14l23.06-5.59S1521.37-8.26,1370,13.26,812.14,7.67,812.14,7.67h0c-19.07-1.75-39-3.53-59.91-5.34-260.89-22.5-858,70.06-858,70.06l52.18,62.79S539.66,42.34,668.13,42.79s447.41,42.59,675.53,19.39,523.63,28.28,523.63,28.28l48.31-54.87S1679.83,7.79,1397.69,26.07Zm-1038.77,11C348.64,45,314.86,53.43,269.08,54.59c0,0-45.83-1.32-32.7-11.07S369.21,29.12,358.92,37.05Zm18,12.63C346.9,37.41,414,15.13,557,20.42S441.88,76.29,376.88,49.68Zm755.93,5.62c-151.28-1.39-467.71-25.75-373-22.83C949.22,38.3,1298.36,56.82,1132.81,55.3Zm52.3-11.49s79.46-8,98.67,0S1163.86,50,1185.11,43.81Z" transform="translate(160.75 241.03)"/><path id="_Compound_Path_2" data-name="&lt;Compound Path&gt;" class="cls-31" d="M1819.69,385.19C1806.81,389,1247,354,1161.27,334.4s-248.58,15.13-428.63,29-747.55,2.71-747.55,2.71l36.72,20.37s537.24,71.31,811.65,7,1024.23,24.83,1024.23,24.83S1832.56,381.37,1819.69,385.19Zm-1485,6c-7.55-2-3.25-6,6.44-6.07,68.59-.29,247.63-.92,292.19.12C712.4,387,505.89,436.52,334.74,391.14Zm867.67-36.51s92.69-.64,102.47,11.46S1136.54,361,1202.41,354.63Z" transform="translate(160.75 241.03)"/><path id="_Compound_Path_3" data-name="&lt;Compound Path&gt;" class="cls-31" d="M946.86,521.9s261.12-56.64,356.68-15.78,282.66-4.45,282.66-4.45L1599,488.73s-197.63,7.08-260.33-1.72-119.41-30.86-149.27-18.41-224.81,34.7-229.29,32.27S946.86,521.9,946.86,521.9Zm426.37-21c15.52-.66,77.87-.26,101.75-.08,3.38,0,4.87,2.59,2.24,3.86C1417.62,533.48,1345.71,502,1373.23,500.86Zm-233.85-12.14c3.4-7.69,35.68-7.28,35.68-7.28C1198,485.49,1136,496.41,1139.38,488.73Z" transform="translate(160.75 241.03)"/><g id="_Group_9" data-name="&lt;Group&gt;" class="cls-32"><path id="_Compound_Path_4" data-name="&lt;Compound Path&gt;" class="cls-33" d="M1479.49,161.13c115.26,4.47,300.66,4.47,300.66,4.47l-11.37-15.37c-70.33,19.52-268,4.35-359.14-4.09-7.44-1.8-14.46-3.6-21-5.39-128.67-35.07-313.83-7.41-396.29,15.82-105.16,4.17-242.15-2.05-343.28-8.42l-50.54-7.4C342.45,103.28,41,222.46,35.19,222.46v23.6c-43.4-1.74-80.21-4-103.74-5.57-16.9-1.12-26.94-1.87-27.67-1.78,0,0,83.1,33.65,143,29.27,54.73,3.57,125.36,1.71,212.29-13,183.15-31,257.57-21.18,282.42-14.88-23.46-6.58-87.66-18.55-209.45-1.4-66.2,9.32-150.7,10.82-227.13,9.41,110.81-36.06,326.25-96.58,440.47-64.72,158.11,44.1,367.18,34.32,550.26,0s789.94,83.29,789.94,83.29V222.46S1643.25,192.94,1479.49,161.13ZM267.35,183.41c-2.87-4.47,33-35,85-26.83S277.27,198.85,267.35,183.41Zm177.08-22.78c-30.47,9.7-63.89,5.89-37.52-4C412.52,154.47,474.9,150.92,444.43,160.63Zm141.52,3.72s123.32,9,130.26,19.36S522.18,171,585.95,164.34Zm386.5-1.59c-46.59,16.31-84.6,17.55-185.88,4.71a1604,1604,0,0,0,186.62-5Zm123.17,1.62c-46.66,1.8,133.62-29.69,170.45-13.84S1192.76,160.63,1095.62,164.37Z" transform="translate(160.75 241.03)"/><path id="_Path_26" data-name="&lt;Path&gt;" class="cls-33" d="M541.47,240.1a84.15,84.15,0,0,1,10.58,3.54S549.09,242,541.47,240.1Z" transform="translate(160.75 241.03)"/></g><path class="cls-34" d="M382,118.91l-2.41.44-.54-2a.87.87,0,0,0-1-.52.7.7,0,0,0-.65.83l.54,2-2.41.44a.7.7,0,0,0-.65.83.87.87,0,0,0,1,.52l2.41-.44.54,2a.87.87,0,0,0,1,.52.89.89,0,0,0,.49-.25.59.59,0,0,0,.16-.57l-.54-2,2.41-.44a.89.89,0,0,0,.49-.25.59.59,0,0,0,.16-.57A.87.87,0,0,0,382,118.91Z" transform="translate(160.75 241.03)"/><path class="cls-34" d="M257.5-8.93l-1.61.65-.8-1.31a.69.69,0,0,0-.83-.23.46.46,0,0,0-.28.67l.8,1.31-1.61.65a.46.46,0,0,0-.28.67.69.69,0,0,0,.83.23l1.61-.65.8,1.31a.69.69,0,0,0,.83.23.56.56,0,0,0,.29-.25.42.42,0,0,0,0-.43l-.8-1.31L258.05-8a.56.56,0,0,0,.29-.25.42.42,0,0,0,0-.43A.69.69,0,0,0,257.5-8.93Z" transform="translate(160.75 241.03)"/><ellipse class="cls-30" cx="159.35" cy="429.43" rx="4.79" ry="3.89"/><ellipse class="cls-30" cx="549.5" cy="572.15" rx="4.79" ry="3.89"/><ellipse class="cls-30" cx="796.91" cy="402.64" rx="2.64" ry="2.14"/><ellipse class="cls-30" cx="441.9" cy="744.52" rx="2.64" ry="2.14"/><path class="cls-34" d="M895.16,384.36l-2.41.44-.54-2a.87.87,0,0,0-1-.52.7.7,0,0,0-.65.83l.54,2-2.41.44a.7.7,0,0,0-.65.83.87.87,0,0,0,1,.52l2.41-.44.54,2a.87.87,0,0,0,1,.52.89.89,0,0,0,.49-.25.59.59,0,0,0,.16-.57l-.54-2,2.41-.44a.89.89,0,0,0,.49-.25.59.59,0,0,0,.16-.57A.87.87,0,0,0,895.16,384.36Z" transform="translate(160.75 241.03)"/><path class="cls-34" d="M431.25,43.94l-2.88-.84,1-2.33a.82.82,0,0,0-.63-1.09,1.13,1.13,0,0,0-1.35.51l-1,2.33-2.87-.84a1.13,1.13,0,0,0-1.35.51.82.82,0,0,0,.63,1.09l2.88.84-1,2.33a.82.82,0,0,0,.63,1.09,1.28,1.28,0,0,0,.72,0,1,1,0,0,0,.63-.51l1-2.33,2.87.84a1.28,1.28,0,0,0,.72,0,1,1,0,0,0,.63-.51A.82.82,0,0,0,431.25,43.94Z" transform="translate(160.75 241.03)"/><path class="cls-34" d="M109.88,273.64l-1.61.65-.8-1.31a.69.69,0,0,0-.83-.23.46.46,0,0,0-.28.67l.8,1.31-1.61.65a.46.46,0,0,0-.28.67.69.69,0,0,0,.83.23l1.61-.65.8,1.31a.69.69,0,0,0,.83.23.56.56,0,0,0,.29-.25.42.42,0,0,0,0-.43l-.8-1.31,1.61-.65a.56.56,0,0,0,.29-.25.42.42,0,0,0,0-.43A.69.69,0,0,0,109.88,273.64Z" transform="translate(160.75 241.03)"/><path class="cls-34" d="M254,330.73l-1.61.65-.8-1.31a.69.69,0,0,0-.83-.23.46.46,0,0,0-.28.67l.8,1.31-1.61.65a.46.46,0,0,0-.28.67.69.69,0,0,0,.83.23l1.61-.65.8,1.31a.69.69,0,0,0,.83.23.56.56,0,0,0,.29-.25.42.42,0,0,0,0-.43l-.8-1.31,1.61-.65a.56.56,0,0,0,.29-.25.42.42,0,0,0,0-.43A.69.69,0,0,0,254,330.73Z" transform="translate(160.75 241.03)"/><path class="cls-34" d="M324.29,185.16l-1.61.65-.8-1.31a.69.69,0,0,0-.83-.23.46.46,0,0,0-.28.67l.8,1.31-1.61.65a.46.46,0,0,0-.28.67.69.69,0,0,0,.83.23l1.61-.65.8,1.31a.69.69,0,0,0,.83.23.56.56,0,0,0,.29-.25.42.42,0,0,0,0-.43l-.8-1.31,1.61-.65a.56.56,0,0,0,.29-.25.42.42,0,0,0,0-.43A.69.69,0,0,0,324.29,185.16Z" transform="translate(160.75 241.03)"/><path class="cls-34" d="M1436.94,153.9l2-1.4,1.3,1.56a.87.87,0,0,0,1.14.06.7.7,0,0,0,.25-1l-1.3-1.56,2-1.4a.7.7,0,0,0,.25-1,.87.87,0,0,0-1.14-.06l-2,1.4-1.3-1.56a.87.87,0,0,0-1.14-.06.89.89,0,0,0-.34.43.59.59,0,0,0,.09.59l1.3,1.56-2,1.4a.89.89,0,0,0-.34.43.59.59,0,0,0,.09.59A.87.87,0,0,0,1436.94,153.9Z" transform="translate(160.75 241.03)"/><path class="cls-34" d="M1603.08,219l1.2-1.25,1.26.86a.69.69,0,0,0,.85-.13.46.46,0,0,0,0-.73l-1.26-.86,1.2-1.25a.46.46,0,0,0,0-.73.69.69,0,0,0-.85.13l-1.2,1.25-1.26-.86a.69.69,0,0,0-.85.13.56.56,0,0,0-.16.34.42.42,0,0,0,.19.38l1.26.86-1.2,1.25a.56.56,0,0,0-.16.34.42.42,0,0,0,.19.38A.69.69,0,0,0,1603.08,219Z" transform="translate(160.75 241.03)"/><ellipse class="cls-30" cx="1757.48" cy="-67.61" rx="4.79" ry="3.89" transform="translate(345.27 960.26) rotate(-24.37)"/><ellipse class="cls-30" cx="1343.2" cy="-36.6" rx="4.79" ry="3.89" transform="translate(295.55 792.07) rotate(-24.37)"/><ellipse class="cls-30" cx="1187.79" cy="219.9" rx="2.64" ry="2.14" transform="translate(175.85 750.79) rotate(-24.37)"/><ellipse class="cls-30" cx="1370.08" cy="-238.01" rx="2.64" ry="2.14" transform="translate(381.06 785.21) rotate(-24.37)"/><path class="cls-34" d="M860,123.87l2-1.4,1.3,1.56a.87.87,0,0,0,1.14.06.7.7,0,0,0,.25-1l-1.3-1.56,2-1.4a.7.7,0,0,0,.25-1,.87.87,0,0,0-1.14-.06l-2,1.4-1.3-1.56a.87.87,0,0,0-1.14-.06.89.89,0,0,0-.34.43.59.59,0,0,0,.09.59l1.3,1.56-2,1.4a.89.89,0,0,0-.34.43.59.59,0,0,0,.09.59A.87.87,0,0,0,860,123.87Z" transform="translate(160.75 241.03)"/><path class="cls-34" d="M1423,242.52l3-.42,0,2.55a.82.82,0,0,0,1,.73,1.13,1.13,0,0,0,1-1l0-2.55,3-.42a1.13,1.13,0,0,0,1-1,.82.82,0,0,0-1-.73l-3,.42,0-2.55a.82.82,0,0,0-1-.73,1.28,1.28,0,0,0-.65.3,1,1,0,0,0-.36.73l0,2.55-3,.42a1.28,1.28,0,0,0-.65.3,1,1,0,0,0-.36.73A.82.82,0,0,0,1423,242.52Z" transform="translate(160.75 241.03)"/><path class="cls-34" d="M1175.81,280.94l1.2-1.25,1.26.86a.69.69,0,0,0,.85-.13.46.46,0,0,0,0-.73l-1.26-.86,1.2-1.25a.46.46,0,0,0,0-.73.69.69,0,0,0-.85.13l-1.2,1.25-1.26-.86a.69.69,0,0,0-.85.13.56.56,0,0,0-.16.34.42.42,0,0,0,.19.38l1.26.86-1.2,1.25a.56.56,0,0,0-.16.34.42.42,0,0,0,.19.38A.69.69,0,0,0,1175.81,280.94Z" transform="translate(160.75 241.03)"/><path class="cls-34" d="M1620.94-99.33l1.2-1.25,1.26.86a.69.69,0,0,0,.85-.13.46.46,0,0,0,0-.73l-1.26-.86,1.2-1.25a.46.46,0,0,0,0-.73.69.69,0,0,0-.85.13l-1.2,1.25-1.26-.86a.69.69,0,0,0-.85.13.56.56,0,0,0-.16.34.42.42,0,0,0,.19.38l1.26.86-1.2,1.25a.56.56,0,0,0-.16.34.42.42,0,0,0,.19.38A.69.69,0,0,0,1620.94-99.33Z" transform="translate(160.75 241.03)"/><path class="cls-34" d="M1466.12-91.86l1.2-1.25,1.26.86a.69.69,0,0,0,.85-.13.46.46,0,0,0,0-.73l-1.26-.86,1.2-1.25a.46.46,0,0,0,0-.73.69.69,0,0,0-.85.13l-1.2,1.25-1.26-.86a.69.69,0,0,0-.85.13.56.56,0,0,0-.16.34.42.42,0,0,0,.19.38l1.26.86-1.2,1.25a.56.56,0,0,0-.16.34.42.42,0,0,0,.19.38A.69.69,0,0,0,1466.12-91.86Z" transform="translate(160.75 241.03)"/><path class="cls-34" d="M1462.16,69.74l1.2-1.25,1.26.86a.69.69,0,0,0,.85-.13.46.46,0,0,0,0-.73l-1.26-.86,1.2-1.25a.46.46,0,0,0,0-.73.69.69,0,0,0-.85.13l-1.2,1.25-1.26-.86a.69.69,0,0,0-.85.13.56.56,0,0,0-.16.34.42.42,0,0,0,.19.38l1.26.86-1.2,1.25a.56.56,0,0,0-.16.34.42.42,0,0,0,.19.38A.69.69,0,0,0,1462.16,69.74Z" transform="translate(160.75 241.03)"/><path class="cls-35" d="M1814,50.51c-.9-2,.35-4.42,2.8-5.51s5.15-.39,6,1.56-.35,4.42-2.8,5.51S1814.95,52.47,1814,50.51Z" transform="translate(160.75 241.03)"/><path class="cls-36" d="M1680.06,16.85l1.22-1.25,1.28.86a.71.71,0,0,0,.86-.13.46.46,0,0,0,0-.73l-1.28-.86,1.22-1.25a.46.46,0,0,0,0-.73.71.71,0,0,0-.86.13l-1.22,1.25-1.28-.86a.71.71,0,0,0-.86.13.56.56,0,0,0-.17.34.41.41,0,0,0,.19.38l1.28.86-1.22,1.25a.56.56,0,0,0-.17.34.41.41,0,0,0,.19.38A.71.71,0,0,0,1680.06,16.85Z" transform="translate(160.75 241.03)"/><path class="cls-36" d="M1523.12,24.31l1.22-1.25,1.28.86a.71.71,0,0,0,.86-.13.46.46,0,0,0,0-.73l-1.28-.86,1.22-1.25a.46.46,0,0,0,0-.73.71.71,0,0,0-.86.13l-1.22,1.25-1.28-.86a.71.71,0,0,0-.86.13.56.56,0,0,0-.17.34.41.41,0,0,0,.19.38l1.28.86-1.22,1.25a.56.56,0,0,0-.17.34.41.41,0,0,0,.19.38A.71.71,0,0,0,1523.12,24.31Z" transform="translate(160.75 241.03)"/><path id="_Path_27" data-name="&lt;Path&gt;" class="cls-20" d="M815.91,75.93s1.93-52.39-46.51-37.13c0,0,.9-38.09-69.76-35.8-76.38,2.48-51.46,45.11-51.46,45.11S612.77,37.19,599,48c-7.21,5.7-10.24,16.5-11.49,25.47-40.4-20-71.65,12.39-60.81,14.74s60,0,60,0,30.36,4.11,47,0c0,0,59.28,9.52,122.9,1.83,0,0,29.64,5.94,59.28.59,0,0,41.21,1.11,55.67-2.42S847.81,59,815.91,75.93Z" transform="translate(160.75 241.03)"/><g id="_Group_10" data-name="&lt;Group&gt;"><path id="_Path_28" data-name="&lt;Path&gt;" class="cls-37" d="M807.45,86.7c-20.87,8.8-66-14.3-66-14.3a31.77,31.77,0,0,1-10.63,5.29,45.32,45.32,0,0,1-34.46-3.84c-75.81-42.47-1.06-70.49-.65-70.69C633.87,6.47,643.42,37.62,647.16,46a68.22,68.22,0,0,0,15.38,15.12c-29.16-19.24-52.79-17.18-54.39-17A21.8,21.8,0,0,0,599,48c-7.2,5.69-10.23,16.46-11.48,25.42a65.69,65.69,0,0,0,1.87,7.18A62.73,62.73,0,0,0,573.8,68.52c-33.39-7.85-56.64,17.66-47.07,19.74,10.84,2.35,60,0,60,0s30.36,4.11,47,0c0,0,59.28,9.52,122.9,1.83,0,0,29.64,5.94,59.28.59,0,0,18.92.51,35.62-.26C833.12,90.49,807.45,86.7,807.45,86.7Z" transform="translate(160.75 241.03)"/><polygon id="_Path_29" data-name="&lt;Path&gt;" class="cls-38" points="1023.74 330.64 1023.74 330.64 1023.74 330.64 1023.74 330.64"/></g><path id="_Path_30" data-name="&lt;Path&gt;" class="cls-23" d="M815.91,75.93s1.93-49.54-46.51-34.27c0,0-3.21-27-42.72-36.42,9.55,4.91,45,8.64,39.21,36.42,0,0,30.17-6.64,46.29,37.9,0,0,38.22-21.63,59.39,8.71C886,84.74,847.81,59,815.91,75.93Z" transform="translate(160.75 241.03)"/><g id="_Group_11" data-name="&lt;Group&gt;"><path id="_Path_31" data-name="&lt;Path&gt;" class="cls-20" d="M915.6,102.32s-7.93-28.58-41.14-18.11c0,0,9.87-33.46-38.57-31.89-52.37,1.7-35.28,30.93-35.28,30.93s-24.29-7.49-33.7,0c-4.94,3.91-7,11.31-7.87,17.46-27.7-13.73-49.12,8.5-41.69,10.11s41.14,0,41.14,0,20.82,2.82,32.22,0c0,0,40.64,6.53,84.26,1.25,0,0,20.32,4.07,40.64.4,0,0,28.25.76,38.16-1.66S937.47,90.73,915.6,102.32Z" transform="translate(160.75 241.03)"/><g id="_Group_12" data-name="&lt;Group&gt;"><path id="_Path_32" data-name="&lt;Path&gt;" class="cls-39" d="M909.8,109.7c-14.31,6-45.27-9.8-45.27-9.8a21.78,21.78,0,0,1-7.29,3.63,31.07,31.07,0,0,1-23.62-2.63c-52-29.11-.72-48.33-.45-48.46C790.79,54.69,797.34,76,799.9,81.81a46.77,46.77,0,0,0,10.55,10.37c-20-13.19-36.19-11.78-37.29-11.66a14.94,14.94,0,0,0-6.25,2.68c-4.94,3.9-7,11.29-7.87,17.43a45,45,0,0,0,1.29,4.92,43,43,0,0,0-10.71-8.32c-22.89-5.38-38.83,12.11-32.27,13.53,7.43,1.61,41.14,0,41.14,0s20.82,2.82,32.22,0c0,0,40.64,6.53,84.26,1.25,0,0,20.32,4.07,40.64.4,0,0,13,.35,24.42-.18C927.4,112.3,909.8,109.7,909.8,109.7Z" transform="translate(160.75 241.03)"/><polygon id="_Path_33" data-name="&lt;Path&gt;" class="cls-40" points="1108.62 352.73 1108.62 352.73 1108.62 352.73 1108.62 352.73"/></g><path id="_Path_34" data-name="&lt;Path&gt;" class="cls-23" d="M915.6,102.32s-7.93-28.58-41.14-18.11c0,0,7.05-23.91-20-30.35C861,57.22,875.24,66.9,871.27,86c0,0,30.72-11.69,41.78,18.85,0,0,26.2-14.83,40.72,6C963.68,108.35,937.47,90.73,915.6,102.32Z" transform="translate(160.75 241.03)"/></g><path id="_Path_35" data-name="&lt;Path&gt;" class="cls-20" d="M130.6,63.35S132.54,11,84.1,26.23c0,0,.9-38.09-69.76-35.8C-62-7.1-37.12,35.53-37.12,35.53s-35.42-10.92-49.16-.06c-7.21,5.7-10.24,16.5-11.49,25.47-40.4-20-71.65,12.39-60.81,14.74s60,0,60,0,30.36,4.11,47,0c0,0,59.28,9.52,122.9,1.83,0,0,29.64,5.94,59.28.59,0,0,41.21,1.11,55.67-2.42S162.5,46.45,130.6,63.35Z" transform="translate(160.75 241.03)"/><g id="_Group_13" data-name="&lt;Group&gt;"><path id="_Path_36" data-name="&lt;Path&gt;" class="cls-41" d="M122.14,74.12c-20.87,8.8-66-14.3-66-14.3a31.77,31.77,0,0,1-10.63,5.29A45.32,45.32,0,0,1,11,61.29C-64.78,18.82,10-9.2,10.37-9.4-51.44-6.11-41.89,25-38.15,33.45A68.22,68.22,0,0,0-22.77,48.57c-29.16-19.24-52.79-17.18-54.39-17a21.8,21.8,0,0,0-9.12,3.91c-7.2,5.69-10.23,16.46-11.48,25.42a65.69,65.69,0,0,0,1.87,7.18,62.73,62.73,0,0,0-15.62-12.13c-33.39-7.85-56.64,17.66-47.07,19.74,10.84,2.35,60,0,60,0s30.36,4.11,47,0c0,0,59.28,9.52,122.9,1.83,0,0,29.64,5.94,59.28.59,0,0,18.92.51,35.62-.26C147.81,77.91,122.14,74.12,122.14,74.12Z" transform="translate(160.75 241.03)"/><polygon id="_Path_37" data-name="&lt;Path&gt;" class="cls-42" points="338.43 318.06 338.43 318.06 338.43 318.06 338.43 318.06"/></g><path id="_Path_38" data-name="&lt;Path&gt;" class="cls-23" d="M130.6,63.35s1.93-49.54-46.51-34.27c0,0-3.21-27-42.72-36.42,9.55,4.91,45,8.64,39.21,36.42,0,0,30.17-6.64,46.29,37.9,0,0,38.22-21.63,59.39,8.71C200.73,72.16,162.5,46.45,130.6,63.35Z" transform="translate(160.75 241.03)"/><g id="_Group_14" data-name="&lt;Group&gt;"><path id="_Path_39" data-name="&lt;Path&gt;" class="cls-20" d="M239.13,367s-7-25.1-36.14-15.91c0,0,8.67-29.39-33.89-28-46,1.49-31,27.17-31,27.17s-21.34-6.58-29.61,0c-4.34,3.43-6.17,9.94-6.92,15.34C77.25,353.51,58.43,373,65,374.44s36.14,0,36.14,0,18.29,2.48,28.3,0c0,0,35.7,5.74,74,1.1,0,0,17.85,3.58,35.7.35,0,0,24.82.67,33.53-1.45S258.33,356.83,239.13,367Z" transform="translate(160.75 241.03)"/><g id="_Group_15" data-name="&lt;Group&gt;"><path id="_Path_40" data-name="&lt;Path&gt;" class="cls-43" d="M234,373.5c-12.57,5.3-39.77-8.61-39.77-8.61a19.13,19.13,0,0,1-6.4,3.19,27.3,27.3,0,0,1-20.75-2.31c-45.66-25.58-.64-42.45-.39-42.57-37.23,2-31.48,20.74-29.22,25.81a41.08,41.08,0,0,0,9.27,9.11C129.19,346.52,115,347.77,114,347.87a13.13,13.13,0,0,0-5.49,2.36c-4.34,3.43-6.16,9.91-6.91,15.31a39.55,39.55,0,0,0,1.13,4.33,37.78,37.78,0,0,0-9.41-7.31C73.2,357.83,59.19,373.19,65,374.44c6.53,1.41,36.14,0,36.14,0s18.29,2.48,28.3,0c0,0,35.7,5.74,74,1.1,0,0,17.85,3.58,35.7.35,0,0,11.4.31,21.45-.16C249.49,375.78,234,373.5,234,373.5Z" transform="translate(160.75 241.03)"/><polygon id="_Path_41" data-name="&lt;Path&gt;" class="cls-44" points="428.23 616.28 428.23 616.28 428.23 616.28 428.23 616.28"/></g><path id="_Path_42" data-name="&lt;Path&gt;" class="cls-23" d="M239.13,367s-7-25.1-36.14-15.91c0,0,6.2-21-17.6-26.67,5.75,3,18.28,11.47,14.79,28.2,0,0,27-10.27,36.7,16.56,0,0,23-13,35.77,5.24C281.36,372.32,258.33,356.83,239.13,367Z" transform="translate(160.75 241.03)"/></g></g></g></g></svg>