<?xml version="1.0" encoding="utf-8"?>
<!-- Generator: Adobe Illustrator 21.0.1, SVG Export Plug-In . SVG Version: 6.00 Build 0)  -->
<svg version="1.1" id="Layer_1" xmlns="http://www.w3.org/2000/svg" xmlns:xlink="http://www.w3.org/1999/xlink" x="0px" y="0px"
	 viewBox="0 0 1049 620" style="enable-background:new 0 0 1049 620;" xml:space="preserve">
<style type="text/css">
	.st0{clip-path:url(#SVGID_2_);}
	.st1{fill:url(#_Rectangle__1_);}
	.st2{opacity:0.21;fill:#AD5236;enable-background:new    ;}
	.st3{opacity:0.76;fill:#AD5236;enable-background:new    ;}
	.st4{opacity:0.26;}
	.st5{fill:#AD5236;}
	.st6{opacity:9.000000e-02;}
	.st7{opacity:0.1;}
	.st8{opacity:0.19;}
	.st9{fill:#CE783F;}
	.st10{fill:#B4673E;}
	.st11{fill:#E49345;}
	.st12{fill:#9B5C3F;}
	.st13{fill:none;stroke:#2D2D2D;stroke-width:2.27;stroke-miterlimit:10;}
	.st14{fill:#82820F;}
	.st15{opacity:0.5;fill:#492E17;enable-background:new    ;}
	.st16{fill:url(#SVGID_3_);}
	.st17{opacity:0.8;}
	.st18{fill:#FFE7E1;}
	.st19{fill:url(#_Path_10_1_);}
	.st20{fill:url(#_Path_11_1_);}
	.st21{fill:#FFFFFF;}
	.st22{fill:url(#_Path_14_1_);}
	.st23{fill:url(#_Path_15_1_);}
	.st24{fill:url(#_Path_18_1_);}
	.st25{fill:url(#_Path_19_1_);}
	.st26{fill:url(#_Path_22_1_);}
	.st27{fill:url(#_Path_23_1_);}
	.st28{opacity:0.24;fill:#FFFFFF;enable-background:new    ;}
	.st29{fill:#F9F9F9;stroke:#F9F9F9;stroke-width:0.44;stroke-miterlimit:10;}
	.st30{fill:none;stroke:#F9F9F9;stroke-width:0.88;stroke-linecap:round;stroke-linejoin:round;}
	.st31{fill:none;stroke:#F9F9F9;stroke-width:0.89;stroke-linecap:round;stroke-linejoin:round;}
	.st32{fill:url(#_Path_28_1_);}
	.st33{fill:url(#_Path_29_1_);}
	.st34{fill:url(#_Path_32_1_);}
	.st35{fill:url(#_Path_33_1_);}
	.st36{fill:url(#_Path_36_1_);}
	.st37{fill:url(#_Path_37_1_);}
	.st38{fill:url(#_Path_40_1_);}
	.st39{fill:url(#_Path_41_1_);}
</style>
<title>Asset 1</title>
<g>
	<g id="Layer_2">
		<g id="Layer_5">
			<g>
				<defs>
					<rect id="SVGID_1_" x="0.5" y="-0.3" width="1048.4" height="621"/>
				</defs>
				<clipPath id="SVGID_2_">
					<use xlink:href="#SVGID_1_"  style="overflow:visible;"/>
				</clipPath>
				<g class="st0">
					
						<linearGradient id="_Rectangle__1_" gradientUnits="userSpaceOnUse" x1="524.52" y1="606" x2="524.52" y2="63.47" gradientTransform="matrix(1 0 0 -1 0 568)">
						<stop  offset="0" style="stop-color:#BC6E5C"/>
						<stop  offset="0.23" style="stop-color:#D19475"/>
						<stop  offset="0.45" style="stop-color:#E3B58A"/>
						<stop  offset="0.58" style="stop-color:#EAC192"/>
						<stop  offset="0.66" style="stop-color:#ECC38B"/>
						<stop  offset="0.79" style="stop-color:#F1C778"/>
						<stop  offset="0.93" style="stop-color:#FACE59"/>
						<stop  offset="1" style="stop-color:#FFD248"/>
					</linearGradient>
					<rect id="_Rectangle_" x="-0.5" y="0.2" class="st1" width="1050" height="594"/>
					<path class="st2" d="M1036.5,498.8c2.8-3,4.4-7,4.5-11.1c0-9.4-8.2-17.1-18.3-17.1c-1.6,0-3.1,0.2-4.7,0.6
						c-0.7-3.5-3.8-6-7.3-5.9c-1.2,0-2.4,0.3-3.4,0.8c-1.9-6.6-8.3-11.5-16-11.5c-6.9-0.1-13.2,4.1-15.7,10.5
						c-1.1-0.6-2.4-0.9-3.7-0.9c-3.8-0.1-7,2.7-7.4,6.4c-1-0.7-2.2-1.1-3.5-1.1c-0.4,0-0.8,0-1.3,0.1c0.1-0.4,0.1-0.8,0.1-1.2
						c-0.1-4.3-3.7-7.6-8-7.5c-1.7,0-3.3,0.5-4.7,1.4c-0.9-5.2-5.5-9-10.8-8.9c-0.7,0-1.4,0.1-2.1,0.2c-2.4-4.1-6.8-6.7-11.6-6.6
						c-7.2,0-13,5.4-13.1,12.1c-0.9-0.3-1.9-0.4-2.9-0.4c-5.4,0-9.7,4.1-9.7,9.1c0,0.4,0,0.8,0.1,1.2l-0.5,0.1
						c-3.7-2.7-8.8-2.5-12.4,0.4c-1-5.5-6.2-9.8-12.4-9.8h-0.2c-1.3-5.7-6.5-9.8-12.3-9.6c-5.3-0.1-10.1,3.1-11.9,8.1
						c-1.1-0.4-2.3-0.6-3.5-0.6c-2.2,0-4.4,0.7-6.2,2.1c-2.4-1.7-5.2-2.6-8.1-2.6c-7.2,0-13.1,5.5-13.1,12.3l0,0
						c-4.8,0.1-9.1,3-11.1,7.3c-1.1-0.6-2.4-1-3.8-1c-0.8,0-1.5,0.1-2.2,0.3c-1.8-5.4-6.9-9-12.6-8.8c-4.6-0.1-9,2.3-11.4,6.3
						c-3.7-2.6-8.5-2.7-12.2-0.2c-5.2-6.8-14.9-8.1-21.6-2.9c-1.1,0.9-2.1,1.9-3,3c-2.1-1.9-4.8-3-7.7-3c-6,0-10.8,4.5-10.8,10.1
						c0,0.5,0.1,1,0.1,1.5c-1.3-0.7-2.7-1-4.1-1c-4.1-0.1-7.7,2.8-8.5,6.8c-1.2-0.3-2.3-0.4-3.5-0.4c-3.4,0-6.7,1.2-9.3,3.4
						c-3-6.7-9.7-11-17-10.8c-3.4,0-6.7,0.9-9.6,2.6c-2.4-0.8-5-1.2-7.5-1.2c-1.6,0-3.1,0.2-4.6,0.5c-0.5-2.7-3.6-4.7-7.3-4.7
						c-1.2,0-2.3,0.2-3.4,0.6c-1.9-5.2-8.3-9.1-16-9.1c-7.3,0-13.5,3.5-15.7,8.3c-1.2-0.5-2.4-0.8-3.7-0.8c-3.9,0-7.1,2.2-7.4,5.1
						c-1.1-0.6-2.2-0.9-3.5-0.9c-0.4,0-0.8,0-1.3,0.1c0.1-0.3,0.1-0.7,0.1-1c0-3.3-3.6-5.9-8-5.9c-1.6,0-3.2,0.4-4.7,1.1
						c-0.7-4-5.2-7-10.8-7c-0.7,0-1.4,0.1-2.1,0.2c-2.2-3.1-6.6-5.2-11.6-5.2c-7.2,0-13,4.3-13.1,9.6c-0.9-0.2-1.9-0.3-2.9-0.3
						c-5.4,0-9.7,3.2-9.7,7.2c0,0.3,0,0.7,0.1,1l-0.5,0.1c-1.8-1-3.8-1.5-5.9-1.5c-2.3,0-4.5,0.6-6.5,1.8c-1-4.4-6.2-7.8-12.4-7.8
						h-0.2c-1.1-4.3-6.2-7.6-12.3-7.6c-5.6,0-10.3,2.7-11.9,6.4c-1.1-0.3-2.3-0.5-3.5-0.5c-2.2,0-4.3,0.5-6.2,1.7
						c-2.5-1.4-5.3-2.1-8.1-2.1c-7.2,0-13.1,4.3-13.1,9.7l0,0c-5,0.2-9.3,2.5-11.1,5.8c-1.2-0.5-2.5-0.8-3.8-0.8
						c-0.8,0-1.5,0.1-2.2,0.3c-1.6-4-6.6-7-12.6-7c-4.9,0-9.2,2-11.4,5c-3.8-2.1-8.4-2.1-12.2-0.2c-2.7-2.9-7.2-4.8-12.3-4.8
						s-9.7,1.9-12.3,4.9c-2.2-1.6-4.9-2.4-7.6-2.3c-5,0-9.2,2.5-10.5,5.9c-3.9-3.4-8.9-5.2-14-5.1c-7.7,0-14.2,3.7-16.8,8.8
						c-2.7-1.8-5.9-2.8-9.2-2.8c-1.2,0-2.3,0.1-3.5,0.4c-0.6-3.1-4.1-5.6-8.4-5.6c-1.4,0-2.8,0.3-4.1,0.8c0.1-0.4,0.1-0.8,0.1-1.2
						c0-4.5-4.8-8.2-10.7-8.2c-2.7,0-5.4,0.8-7.6,2.4c-2.6-3-7.1-5-12.2-5c-4.6-0.1-9,1.7-12.2,4.9c-3.8-2-8.4-2-12.1,0.2
						c-2.2-3-6.5-5.1-11.3-5.1c-5.9,0-10.9,3-12.5,7.2c-0.7-0.2-1.5-0.3-2.2-0.3c-1.3,0-2.6,0.3-3.7,0.8c-1.8-3.4-6-5.8-11-6l0,0
						c0-5.5-5.8-10-13-10c-2.8,0-5.6,0.7-8,2.1c-1.8-1.1-4-1.7-6.1-1.7c-1.2,0-2.3,0.2-3.4,0.5c-1.6-3.8-6.3-6.6-11.8-6.6
						c-6.1,0-11.2,3.4-12.2,7.8h-0.2c-6.2,0-11.3,3.4-12.2,8c-1.9-1.3-4.1-1.9-6.4-1.9c-2.1,0-4.1,0.5-5.9,1.5l-0.5-0.1
						c0.1-0.3,0.1-0.7,0.1-1c0-4.1-4.3-7.4-9.6-7.4c-1,0-1.9,0.1-2.8,0.3c-0.1-5.5-5.9-9.9-13-9.9c-5,0-9.3,2.2-11.5,5.3
						c-0.7-0.1-1.3-0.1-2-0.2c-5.5,0-10,3.2-10.6,7.2c-1.4-0.8-3-1.2-4.6-1.1c-4.4,0-7.9,2.7-7.9,6.1c0,0.3,0,0.7,0.1,1
						c-0.4-0.1-0.8-0.1-1.2-0.1c-1.2,0-2.4,0.3-3.4,0.9c-0.3-2.9-3.4-5.2-7.3-5.2c-1.3,0-2.5,0.3-3.7,0.8c-2.2-5-8.3-8.6-15.5-8.6
						c-7.6,0-13.9,4-15.8,9.3c-1.1-0.4-2.2-0.6-3.4-0.6c-3.7,0-6.7,2.1-7.3,4.8c-1.5-0.3-3.1-0.5-4.6-0.5c-10,0-18.1,6.2-18.1,13.9
						c0.1,3.5,1.7,6.8,4.4,9c-5.3,2-8.9,6.1-8.9,10.9c0,6.7,7.1,12.1,15.8,12.1h303.5c2.8,3.5,7.9,5.8,13.8,5.8h354
						c0.8,0,1.6-0.1,2.4-0.2c1.8,0.7,3.7,1,5.6,1h354c8.8,0,16-6.7,16-14.9C1045.4,506.4,1041.9,501.1,1036.5,498.8z"/>
					<path class="st3" d="M-9.2,511.6c0,6.7,6.2,12.1,13.9,12.1h306.9c7.6,0,13.9-5.5,13.9-12.1c0-2.1-0.6-4.1-1.7-5.8
						c1.1-1.9,1.7-4.1,1.7-6.3c0-7.7-7.1-13.9-15.8-13.9c-6.7,0-12.4,3.7-14.7,8.8c-2.3-1.8-5.1-2.8-8-2.8c-1,0-2.1,0.1-3.1,0.4
						c-0.5-3.1-3.6-5.6-7.3-5.6c-1.2,0-2.5,0.3-3.6,0.8c0.1-0.4,0.1-0.8,0.1-1.2c0-4.5-4.2-8.2-9.4-8.2c-2.4,0-4.8,0.8-6.6,2.4
						c-4.9-5.9-13.7-6.7-19.6-1.8c-0.6,0.5-1.2,1.1-1.7,1.7c-3.3-2-7.4-2-10.6,0.2c-2.2-3.3-6-5.2-9.9-5.1c-5.2,0-9.6,3-10.9,7.2
						c-0.6-0.2-1.3-0.3-1.9-0.3c-1.1,0-2.3,0.3-3.3,0.8c-1.8-3.6-5.5-6-9.6-6l0,0c0-5.5-5.1-10-11.4-10c-2.5,0-4.9,0.7-7,2.1
						c-1.6-1.1-3.4-1.7-5.4-1.7c-1,0-2,0.2-3,0.5c-1.4-3.8-5.5-6.6-10.3-6.6c-5.3,0-9.8,3.4-10.7,7.8h-0.2c-5.4,0-9.9,3.4-10.7,8
						c-3.1-2.4-7.4-2.5-10.7-0.3l-0.4-0.1c0.1-0.3,0.1-0.7,0.1-1c0-4.1-3.8-7.4-8.4-7.4c-0.8,0-1.7,0.1-2.5,0.3
						c-0.1-5.5-5.1-9.9-11.4-9.9c-4.1-0.1-7.9,1.9-10.1,5.3c-0.6-0.1-1.2-0.2-1.8-0.2c-4.8,0-8.8,3.2-9.3,7.2
						c-1.2-0.7-2.6-1.1-4-1.1c-3.8,0-6.9,2.7-6.9,6.1c0,0.3,0,0.7,0.1,1c-0.4-0.1-0.7-0.1-1.1-0.1c-1.1,0-2.1,0.3-3,0.9
						c-0.2-2.9-3-5.2-6.4-5.2c-1.1,0-2.2,0.3-3.2,0.8c-1.9-5-7.3-8.6-13.6-8.6c-6.6,0-12.2,4-13.8,9.3c-0.9-0.4-2-0.6-3-0.6
						c-3-0.1-5.7,1.9-6.4,4.8c-1.3-0.3-2.7-0.5-4-0.5c-8.8,0-15.8,6.2-15.8,13.9c0,3.4,1.4,6.6,3.9,9C-6,502.6-9.2,506.8-9.2,511.6z
						 M69.6,481.7c-0.4,0.4-0.8,0.8-1.1,1.2c0.2-0.5,0.4-1,0.4-1.5C69.1,481.6,69.4,481.7,69.6,481.7L69.6,481.7z M151.6,491.6h-0.3
						l0.1-0.2L151.6,491.6z M223.6,491.6h-0.1H223.6L223.6,491.6z"/>
					<path class="st3" d="M1073.3,516.6c-0.1,6.8-5.7,12.2-12.5,12.1h-277c-6.8,0.1-12.4-5.3-12.5-12.1c0-2.1,0.5-4.1,1.6-5.8
						c-1-1.9-1.6-4.1-1.6-6.3c0.1-7.8,6.5-14,14.3-13.9c5.8,0,11.1,3.4,13.3,8.8c2-1.8,4.6-2.8,7.2-2.8c0.9,0,1.9,0.1,2.8,0.4
						c0.5-3.2,3.3-5.6,6.6-5.6c1.1,0,2.2,0.3,3.2,0.8c-0.1-0.4-0.1-0.8-0.1-1.2c0.1-4.6,3.9-8.3,8.5-8.2c0,0,0,0,0,0
						c2.2,0,4.4,0.8,6,2.4c3.8-5.3,11.1-6.6,16.5-2.8c1.1,0.8,2,1.7,2.8,2.8c2.9-2,6.8-2,9.6,0.2c2.9-4.9,9.3-6.6,14.2-3.6
						c2.2,1.3,3.8,3.3,4.6,5.7c1.6-0.5,3.3-0.3,4.7,0.5c1.5-3.5,4.9-5.9,8.7-6l0,0c0.1-5.6,4.7-10.1,10.3-10c0,0,0,0,0,0
						c2.3,0,4.5,0.7,6.3,2.1c2.1-1.7,5-2.2,7.6-1.2c1.8-5.1,7.5-7.8,12.7-6c3.2,1.2,5.6,3.9,6.3,7.2h0.2c4.7,0,8.8,3.3,9.7,8
						c2.7-2.4,6.8-2.5,9.7-0.3l0.4-0.1c-0.1-0.3-0.1-0.7-0.1-1c0.1-4.1,3.5-7.4,7.6-7.4c0,0,0,0,0,0c0.8,0,1.5,0.1,2.2,0.3
						c0.1-5.5,4.7-9.9,10.3-9.9c3.8,0,7.3,2,9.1,5.4c0.5-0.1,1.1-0.2,1.6-0.2c4.2-0.1,7.8,3,8.4,7.2c1.1-0.7,2.3-1.1,3.7-1.1
						c3.4-0.1,6.2,2.7,6.2,6.1c0,0,0,0,0,0c0,0.3,0,0.7-0.1,1c0.3-0.1,0.7-0.1,1-0.1c1,0,1.9,0.3,2.7,0.9c0.3-3,2.8-5.3,5.8-5.2
						c1,0,2,0.3,2.9,0.8c2.5-6.8,10-10.2,16.8-7.8c3.9,1.4,6.8,4.6,8,8.5c0.8-0.4,1.8-0.6,2.7-0.6c2.8,0,5.3,2,5.7,4.8
						c1.2-0.3,2.4-0.5,3.6-0.5c7.8-0.1,14.2,6.1,14.3,13.9c0,3.3-1.3,6.5-3.5,9C1070.5,507.7,1073.3,511.9,1073.3,516.6z
						 M1002.1,486.7c0.4,0.4,0.7,0.8,1,1.2c-0.2-0.5-0.3-1-0.4-1.5C1002.6,486.6,1002.4,486.7,1002.1,486.7L1002.1,486.7z
						 M928.1,496.6h0.3l-0.1-0.2L928.1,496.6z M863.1,496.6L863.1,496.6L863.1,496.6L863.1,496.6z"/>
					<path class="st3" d="M690.3,522.6c-0.1,6.8-5.7,12.2-12.5,12.1h-277c-6.8,0.1-12.4-5.3-12.5-12.1c0-2.1,0.5-4.1,1.6-5.8
						c-1-1.9-1.6-4.1-1.6-6.3c0.1-7.8,6.5-14,14.3-13.9c5.8,0,11.1,3.4,13.3,8.8c2-1.8,4.6-2.8,7.2-2.8c0.9,0,1.9,0.1,2.8,0.4
						c0.5-3.2,3.3-5.6,6.6-5.6c1.1,0,2.2,0.3,3.2,0.8c-0.1-0.4-0.1-0.8-0.1-1.2c0.1-4.6,3.9-8.3,8.5-8.2c0,0,0,0,0,0
						c2.2,0,4.4,0.8,6,2.4c3.8-5.3,11.1-6.6,16.5-2.8c1.1,0.8,2,1.7,2.8,2.8c2.9-2,6.8-2,9.6,0.2c2.9-4.9,9.3-6.6,14.2-3.6
						c2.2,1.3,3.8,3.3,4.6,5.7c1.6-0.5,3.3-0.3,4.7,0.5c1.5-3.5,4.9-5.9,8.7-6l0,0c0.1-5.6,4.7-10.1,10.3-10c0,0,0,0,0,0
						c2.3,0,4.5,0.7,6.3,2.1c2.1-1.7,5-2.2,7.6-1.2c1.8-5.1,7.5-7.8,12.7-6c3.2,1.2,5.6,3.9,6.3,7.2h0.2c4.7,0,8.8,3.3,9.7,8
						c2.7-2.4,6.8-2.5,9.7-0.3l0.4-0.1c-0.1-0.3-0.1-0.7-0.1-1c0.1-4.1,3.5-7.4,7.6-7.4c0,0,0,0,0,0c0.8,0,1.5,0.1,2.2,0.3
						c0.1-5.5,4.7-9.9,10.3-9.9c3.8,0,7.3,2,9.1,5.4c0.5-0.1,1.1-0.2,1.6-0.2c4.2-0.1,7.8,3,8.4,7.2c1.1-0.7,2.3-1.1,3.7-1.1
						c3.4-0.1,6.2,2.7,6.2,6.1c0,0,0,0,0,0c0,0.3,0,0.7-0.1,1c0.3-0.1,0.7-0.1,1-0.1c1,0,1.9,0.3,2.7,0.9c0.3-3,2.8-5.3,5.8-5.2
						c1,0,2,0.3,2.9,0.8c2.5-6.8,10-10.2,16.8-7.8c3.9,1.4,6.8,4.6,8,8.5c0.8-0.4,1.8-0.6,2.7-0.6c2.8,0,5.3,2,5.7,4.8
						c1.2-0.3,2.4-0.5,3.6-0.5c7.8-0.1,14.2,6.1,14.3,13.9c0,3.3-1.3,6.5-3.5,9C687.5,513.7,690.3,517.9,690.3,522.6z M619.2,492.7
						c0.4,0.4,0.7,0.8,1,1.2c-0.2-0.5-0.3-1-0.4-1.5C619.6,492.6,619.4,492.7,619.2,492.7z M545.1,502.6h0.3l-0.1-0.2L545.1,502.6z
						 M480.1,502.6L480.1,502.6L480.1,502.6L480.1,502.6z"/>
					<g id="Tees">
						<g class="st4">
							<path class="st5" d="M251.8,422.8c2.1,2.1,4.4,4,7,5.5c3.2,1.5,6.5,2.5,10,3c2.1,0.4,4.3,0.7,6.5,0.9l0,0
								c0-10.8,0-21.7,0.7-32.6c0.3-5.5,0.9-10.9,1.9-16.3l0.2-1.2l-0.3-0.3l0.4-0.1l2.2-14.5l3.9-26L263,325.5l21.7,11.9l0.4-2.6
								c0.8-5.4,1.4-10.8,2-16.2c0.3-2.7,0.6-5.4,0.7-8.1c-0.1-2.7-0.4-5.4-0.8-8c-0.9-5.6-3-10.9-6-15.7c-1.6-2.6-3.5-5.1-5.7-7.3
								c-1.1-1.2-2.3-2.3-3.5-3.5c-1.2-1-2.2-2.2-3-3.6c0.9,1.3,2,2.5,3.2,3.5c1.2,1.1,2.5,2.3,3.6,3.4c2.3,2.2,4.3,4.6,6.1,7.2
								c3.3,4.8,5.6,10.1,6.9,15.8c0.6,2.7,1,5.4,1.2,8.1c0,2.7-0.1,5.4-0.3,8.1c-0.3,5.4-0.7,10.8-1.2,16.2l-3.2,32.5L284,380
								l24.9-6.9l-25.2,9.9l-0.1,0.6c-0.7,5.3-1,10.7-1,16.1c-0.1,10.6,0.4,21.2,1,31.9l10.4-2.4l1.6,2.9l-11.8,2.1l1.6,30.4
								c0.1,1.8,0.2,3.6,0.3,5.4l9.7-3.1l-9.6,5.5c0,0.1,0,0.2,0,0.3c0,2.8-0.1,5.5-0.2,8.3c-0.3,5.5-1,10.9-1.8,16.4
								c-1.5,10.9-3.6,21.7-6,32.5l-13.2-1.3c2.9-10.6,5.5-21.3,7.6-31.9c1-5.3,2-10.7,2.5-16c0.3-2.7,0.5-5.3,0.6-8s0-5.4,0-8.1
								l-0.1-30.3c-2.5-0.4-5-0.8-7.4-1.4c-3.6-0.7-7.1-2-10.4-3.8c-2.5-1.7-4.7-3.7-6.5-6c-1.7-2.1-3.2-4.3-4.6-6.6
								C248,418.7,249.8,420.8,251.8,422.8z"/>
						</g>
						<g class="st4">
							<path class="st5" d="M354.6,402.4c2,2.5,4.4,4.6,7,6.4c3.1,1.7,6.5,2.9,10,3.5c2.1,0.4,4.3,0.8,6.5,1l0,0
								c0-12.7,0-25.4,0.7-38.1c0.3-6.4,0.9-12.8,1.9-19.1l0.2-1.4l-0.3-0.4l0.4-0.1l2.2-17l4-30.4l-21.1-18.3l21.7,13.9l0.4-3
								c0.8-6.3,1.4-12.6,2-18.9c0.3-3.1,0.6-6.3,0.7-9.5c-0.1-3.1-0.4-6.3-0.8-9.4c-0.9-6.4-2.9-12.6-6-18.4
								c-1.6-3-3.5-5.9-5.7-8.6c-1.1-1.4-2.3-2.7-3.5-4.1c-1.2-1.2-2.3-2.7-3-4.2c0.9,1.5,2,2.9,3.2,4.1c1.2,1.3,2.5,2.6,3.6,4
								c2.3,2.6,4.3,5.5,6.1,8.5c3.3,5.7,5.6,11.9,6.9,18.4c0.6,3.2,1,6.3,1.2,9.5c0,3.2-0.1,6.4-0.3,9.5c-0.3,6.3-0.7,12.7-1.2,19
								l-3.2,38l-1.3,14.8l24.9-8l-25.2,11.5l-0.1,0.8c-0.7,6.3-1,12.5-1,18.8c-0.1,12.4,0.4,24.9,1,37.3l10.3-2.8l1.6,3.4
								l-11.8,2.4l1.6,35.6c0.1,2.1,0.2,4.2,0.3,6.3l9.7-3.6l-9.6,6.5c0,0.1,0,0.2,0,0.3c0,3.2-0.1,6.5-0.2,9.7
								c-0.3,6.4-1,12.8-1.8,19.2c-1.5,12.7-3.6,25.3-6,38l-13.2-1.5c2.9-12.4,5.5-24.9,7.6-37.4c1-6.2,2-12.5,2.5-18.7
								c0.3-3.1,0.5-6.2,0.6-9.3s0-6.3,0-9.5l-0.1-35.5c-2.5-0.4-5-1-7.4-1.6c-3.7-0.9-7.2-2.4-10.4-4.5c-2.5-2-4.7-4.4-6.5-7
								c-1.7-2.4-3.2-5-4.6-7.7C350.8,397.7,352.6,400.1,354.6,402.4z"/>
						</g>
						<g class="st6">
							<path class="st5" d="M370.9,452.6c-2.2,1.6-4.5,2.8-7,3.8c-3.2,1.1-6.6,1.8-10,2.1c-2.1,0.3-4.3,0.5-6.5,0.6l0,0
								c0-7.6,0-15.2-0.7-22.9c-0.3-3.9-0.9-7.7-1.9-11.5l-0.2-0.9l0.3-0.2l-0.4-0.1l-2.2-10.2l-3.9-18.2l21.1-11l-21.6,8.4
								l-0.4-1.8c-0.8-3.8-1.4-7.6-2-11.4c-0.3-1.9-0.6-3.8-0.7-5.7c0.1-1.9,0.4-3.8,0.8-5.6c1.1-4.1,3.1-7.9,6-11
								c1.7-1.9,3.6-3.6,5.7-5.1c1.1-0.8,2.3-1.6,3.5-2.4c1.1-0.7,2.2-1.5,3-2.5c-0.9,1-2,1.8-3.2,2.5c-1.2,0.8-2.5,1.6-3.6,2.4
								c-2.2,1.5-4.2,3.2-6.1,5.1c-3.2,3.1-5.5,6.9-6.9,11.1c-0.6,1.9-1,3.8-1.2,5.7c0,1.9,0.1,3.8,0.3,5.7
								c0.3,3.8,0.7,7.6,1.2,11.4l3.2,22.8l1.3,8.9l-24.9-4.8l25.2,6.9l0.1,0.5c0.7,3.7,1,7.5,1,11.3c0.1,7.5-0.4,14.9-1,22.4
								l-10.4-1.7l-1.6,2l11.8,1.5l-1.6,21.4c-0.1,1.3-0.2,2.5-0.3,3.8l-9.7-2.2l9.6,3.9c0,0.1,0,0.1,0,0.2c0,1.9,0.1,3.9,0.2,5.8
								c0.4,3.9,1,7.7,1.8,11.5c1.6,7.7,3.6,15.3,6,22.8l13.2-0.9c-2.9-7.3-5.5-14.8-7.6-22.4c-1.1-3.7-1.9-7.5-2.6-11.3
								c-0.3-1.9-0.5-3.7-0.6-5.6c-0.1-1.9,0-3.8,0-5.7l0.1-21.3c2.5-0.3,5-0.6,7.4-1c3.5-0.5,7-1.4,10.4-2.7
								c2.4-1.1,4.6-2.5,6.5-4.2c1.7-1.4,3.2-2.9,4.6-4.6C374.6,449.8,372.8,451.3,370.9,452.6z"/>
						</g>
						<g class="st7">
							<path class="st5" d="M198.2,460.7c-1.4,1.2-2.9,2.1-4.5,2.9c-1.9,0.7-3.9,1.2-6,1.4c-1.3,0.1-2.6,0.2-3.8,0.3l0,0
								c0.8-6.3,1.5-12.6,1.9-19c0.2-3.2,0.2-6.4,0-9.6V436l0.2-0.2l-0.2-0.1l-0.3-8.5l-0.5-15.3l13.4-8.3l-13.4,6.1v-1.5
								c-0.1-3.2-0.1-6.3-0.1-9.5c0-1.6,0-3.2,0.2-4.7c0.2-1.6,0.6-3.1,1-4.6c0.9-3.2,2.5-6.2,4.6-8.9c1.1-1.5,2.4-2.8,3.8-4
								c0.7-0.6,1.5-1.3,2.3-1.9c0.8-0.6,1.4-1.2,2-2c-0.6,0.7-1.3,1.4-2.1,1.9c-0.8,0.6-1.6,1.2-2.4,1.9c-1.5,1.2-2.8,2.5-4,4
								c-2.2,2.6-3.9,5.6-5.1,8.9c-0.5,1.5-1,3.1-1.3,4.7c-0.2,1.6-0.3,3.2-0.4,4.8c-0.2,3.2-0.3,6.3-0.4,9.5l-0.4,19l-0.1,7.4
								l-14-5l14,6.7v0.4c0,3.1-0.2,6.3-0.5,9.4c-0.7,6.2-1.7,12.4-2.8,18.5l-5.9-1.8l-1.1,1.6l6.7,1.7l-3.1,17.7
								c-0.2,1-0.4,2.1-0.5,3.1l-5.5-2.2l5.2,3.6c0,0.1,0,0.1,0,0.2c-0.2,1.6-0.3,3.2-0.4,4.8c-0.2,3.2-0.2,6.4-0.1,9.6
								c0.1,6.4,0.6,12.8,1.2,19.2l7.8-0.2c-1-6.3-1.7-12.6-2.2-18.9c-0.2-3.2-0.4-6.3-0.4-9.4c0-1.6,0.1-3.1,0.2-4.7
								s0.4-3.1,0.5-4.7l2.2-17.7c1.5-0.1,2.9-0.3,4.4-0.5c2.2-0.3,4.3-0.9,6.3-1.8c1.6-0.9,3-2,4.2-3.2c1.1-1.1,2.2-2.4,3.1-3.7
								C200.7,458.5,199.5,459.7,198.2,460.7z"/>
						</g>
						<g class="st4">
							<path class="st5" d="M185.8,443.1c-1.6,1.6-3.3,3-5.2,4.1c-2.3,1.1-4.8,1.9-7.4,2.2c-1.6,0.3-3.2,0.5-4.8,0.7l0,0
								c0-8.1,0-16.1-0.5-24.2c-0.2-4.1-0.7-8.1-1.4-12.2l-0.1-0.9l0.2-0.2l-0.3-0.1l-1.6-10.8l-2.9-19.4l15.7-11.6l-16.1,8.8
								l-0.3-1.9c-0.6-4-1.1-8-1.5-12c-0.2-2-0.4-4-0.5-6c0.1-2,0.3-4,0.6-6c0.7-4.2,2.2-8.1,4.4-11.7c1.2-2,2.6-3.8,4.2-5.4
								c0.8-0.9,1.7-1.7,2.6-2.6c0.9-0.8,1.7-1.7,2.3-2.7c-0.7,1-1.5,1.9-2.4,2.6c-0.9,0.8-1.8,1.7-2.7,2.5
								c-1.7,1.6-3.2,3.5-4.5,5.4c-2.4,3.5-4.2,7.5-5.1,11.7c-0.5,2-0.8,4-0.9,6.1c0,2,0.1,4,0.2,6.1c0.2,4,0.5,8.1,0.9,12.1
								l2.4,24.2l0.9,9.4l-18.6-5.1l18.8,7.3v0.5c0.5,4,0.7,8,0.8,12c0.1,7.9-0.3,15.8-0.7,23.8l-7.7-1.8l-1.1,2.1l8.8,1.5
								l-1.2,22.7c-0.1,1.3-0.1,2.7-0.2,4l-7.2-2.2l7.2,4.1c0,0.1,0,0.2,0,0.2c0,2.1,0.1,4.1,0.2,6.2c0.2,4.1,0.8,8.1,1.3,12.2
								c1.2,8.1,2.7,16.1,4.5,24.2l9.8-0.9c-2.2-7.9-4.1-15.8-5.6-23.8c-0.8-4-1.4-8-1.9-11.9c-0.2-2-0.4-4-0.5-5.9s0-4,0-6
								l0.1-22.6c1.9-0.3,3.7-0.6,5.5-1c2.7-0.5,5.3-1.5,7.7-2.8c1.8-1.2,3.5-2.8,4.9-4.5c1.3-1.5,2.4-3.2,3.4-4.9
								C188.7,440.1,187.3,441.7,185.8,443.1z"/>
							<path class="st5" d="M147.2,405.7l0.4-0.6c1.9-2.6-0.1-5.8-4.5-6.9l-0.4,0.6C140.8,401.4,142.8,404.6,147.2,405.7z"/>
							<path class="st5" d="M133.3,412.2l1,0.1c4.7,0.6,9.3-1.2,10.3-4l0,0l-1-0.1C139,407.5,134.3,409.4,133.3,412.2z"/>
							<path class="st5" d="M183.6,442l1,0.2c1.3-2.8-1.4-5.7-6-6.5l-1-0.2C176.3,438.3,179,441.2,183.6,442z"/>
							<path class="st5" d="M189.9,444.8l-3.3,0.4l0,0c0.7,2.1,4.2,3.4,7.6,3l3.3-0.4C196.8,445.6,193.3,444.3,189.9,444.8z"/>
							<path class="st5" d="M152,475.5v-0.6c0-2-2.8-3.7-6.1-3.7v0.6C145.9,473.8,148.7,475.5,152,475.5z"/>
							<path class="st5" d="M145.1,480.9l1,0.1c3.4,0.2,6.4-1.2,6.8-3.3l-1-0.1C148.5,477.4,145.5,478.9,145.1,480.9z"/>
						</g>
						<g class="st8">
							<path class="st5" d="M549.7,410.2c-2.3,2.3-4.8,4.3-7.6,5.9c-3.4,1.6-7,2.7-10.7,3.3c-2.3,0.4-4.6,0.7-7,1l0,0
								c0-11.7,0-23.4-0.7-35.1c-0.3-5.9-1-11.8-2-17.6l-0.2-1.3l0.3-0.4l-0.4-0.1l-2.4-15.7l-4.2-28l22.8-16.9L514.2,318l-0.4-2.8
								c-0.8-5.8-1.5-11.6-2.2-17.5c-0.3-2.9-0.6-5.8-0.8-8.7c0.1-2.9,0.4-5.8,0.9-8.7c1-6,3.2-11.8,6.4-16.9
								c1.8-2.8,3.8-5.5,6.1-7.9c1.2-1.3,2.5-2.5,3.7-3.8c1.3-1.1,2.4-2.4,3.3-3.9c-1,1.4-2.1,2.7-3.5,3.8c-1.3,1.2-2.7,2.4-3.9,3.7
								c-2.4,2.4-4.6,5-6.6,7.8c-3.5,5.1-6,10.9-7.4,17c-0.7,2.9-1.1,5.8-1.3,8.8c0,3,0.2,5.9,0.3,8.8c0.4,5.9,0.8,11.7,1.3,17.5
								l3.5,35L515,364l-26.9-7.4l27.2,10.6l0.1,0.7c0.7,5.8,1.1,11.6,1.1,17.4c0.1,11.5-0.4,22.9-1,34.4l-11.2-2.6l-1.7,3.1
								l12.7,2.2l-1.8,32.8c-0.1,2-0.2,3.9-0.3,5.8l-10.5-3.3l10.4,6c0,0.1,0,0.2,0,0.3c0,3,0.1,6,0.3,8.9
								c0.4,5.9,1.1,11.8,1.9,17.7c1.7,11.7,3.9,23.4,6.5,35.1l14.2-1.5c-3.2-11.4-6-23-8.2-34.5c-1.1-5.8-2.1-11.5-2.8-17.3
								c-0.3-2.9-0.6-5.7-0.7-8.6s0-5.8,0-8.7l0.1-32.7c2.7-0.4,5.4-0.9,8-1.5c3.9-0.8,7.6-2.2,11.1-4.1c2.7-1.8,5-4,7.1-6.5
								c1.8-2.2,3.5-4.6,4.9-7.1C553.8,405.8,551.8,408.1,549.7,410.2z"/>
							<path class="st5" d="M493.7,356l0.6-0.9c2.8-3.9-0.1-8.4-6.5-10.1l-0.6,0.9C484.5,349.8,487.4,354.3,493.7,356z"/>
							<path class="st5" d="M473.6,365.4l1.5,0.2c6.8,0.9,13.5-1.8,15-5.9l0,0l-1.5-0.2C481.8,358.6,475,361.3,473.6,365.4z"/>
							<path class="st5" d="M546.5,408.6l1.5,0.2c1.9-4-2.1-8.3-8.7-9.4l-1.5-0.2C535.9,403.2,539.9,407.5,546.5,408.6z"/>
							<path class="st5" d="M555.6,412.5l-4.8,0.6l0,0c1.1,3,6,5,11,4.3l4.8-0.6C565.5,413.8,560.6,411.9,555.6,412.5z"/>
							<path class="st5" d="M500.7,457.1v-0.9c0-3-4-5.4-8.9-5.4v0.9C491.8,454.7,495.8,457.1,500.7,457.1z"/>
							<path class="st5" d="M490.6,465l1.4,0.1c4.9,0.3,9.3-1.8,9.9-4.7l-1.4-0.1C495.7,459.9,491.2,462.1,490.6,465z"/>
						</g>
						<path class="st5" d="M59.2,414.3c-2.3,2.3-4.8,4.3-7.6,5.9c-3.4,1.6-7,2.7-10.7,3.3c-2.3,0.4-4.6,0.7-7,1l0,0
							c0-11.7,0-23.4-0.7-35.1c-0.3-5.9-1-11.8-2-17.6l-0.2-1.3l0.3-0.4l-0.4-0.1l-2.4-15.6l-4.2-28l22.8-16.9l-23.4,12.8l-0.4-2.8
							c-0.8-5.8-1.5-11.6-2.2-17.5c-0.3-2.9-0.6-5.8-0.8-8.7c0.1-2.9,0.4-5.8,0.9-8.7c1-6,3.2-11.8,6.4-16.9
							c1.8-2.8,3.8-5.5,6.1-7.9c1.2-1.3,2.4-2.5,3.7-3.8c1.3-1.1,2.4-2.4,3.3-3.9c-1,1.4-2.1,2.7-3.5,3.8c-1.3,1.2-2.7,2.4-3.9,3.7
							c-2.4,2.4-4.6,5-6.6,7.8c-3.5,5.1-6,10.9-7.4,17c-0.7,2.9-1.2,5.7-1.4,8.7c0,3,0.2,5.9,0.3,8.8c0.4,5.9,0.8,11.7,1.3,17.5
							l3.5,35l1.4,13.6l-26.9-7.4l27.2,10.6l0.1,0.7c0.7,5.8,1.1,11.6,1.1,17.4c0.1,11.5-0.4,22.9-1,34.4l-11.2-2.6l-1.8,3.1
							l12.7,2.2L23,459.4c-0.1,2-0.2,3.9-0.3,5.8l-10.5-3.3l10.4,6c0,0.1,0,0.2,0,0.3c0,3,0.1,6,0.3,8.9c0.4,5.9,1.1,11.8,1.9,17.7
							c1.7,11.7,3.9,23.4,6.5,35.1l14.2-1.4c-3.2-11.4-6-23-8.2-34.5c-1.1-5.8-2.1-11.5-2.8-17.3c-0.3-2.9-0.6-5.7-0.7-8.6
							s0-5.8,0-8.7l0.1-32.7c2.7-0.4,5.4-0.9,8-1.5c3.9-0.8,7.7-2.2,11.2-4.1c2.7-1.8,5-4,7.1-6.5c1.8-2.2,3.5-4.6,4.9-7.1
							C63.3,409.9,61.4,412.2,59.2,414.3z"/>
						<path class="st5" d="M3.2,360.1l0.6-0.9c2.8-3.9-0.1-8.4-6.5-10.1l-0.6,0.9C-6,353.9-3.1,358.4,3.2,360.1z"/>
						<path class="st5" d="M-16.9,369.5l1.5,0.2c6.8,0.9,13.5-1.8,15-5.9l0,0l-1.6-0.2C-8.7,362.7-15.5,365.4-16.9,369.5z"/>
						<path class="st5" d="M56,412.7l1.5,0.2c1.9-4-2.1-8.3-8.7-9.4l-1.5-0.2C45.4,407.3,49.4,411.5,56,412.7z"/>
						<path class="st5" d="M65.1,416.6l-4.8,0.6l0,0c1.1,3,6,5,11,4.3l4.8-0.6C75.1,417.9,70.1,416,65.1,416.6z"/>
						<path class="st5" d="M10.2,461.2v-0.9c0-3-4-5.4-8.9-5.4v0.9C1.3,458.8,5.4,461.2,10.2,461.2z"/>
						<path class="st5" d="M0.2,469.1l1.4,0.1c4.9,0.3,9.3-1.8,9.9-4.7l-1.4-0.1C5.2,464,0.7,466.2,0.2,469.1z"/>
						<g class="st4">
							<path class="st5" d="M533.2,398c2,2.5,4.4,4.6,7,6.4c3.1,1.7,6.5,2.9,10,3.5c2.1,0.4,4.3,0.8,6.5,1l0,0
								c0-12.7,0-25.4,0.7-38.1c0.3-6.4,0.9-12.8,1.9-19.1l0.2-1.4l-0.3-0.4l0.4-0.1l2.2-17l3.9-30.4l-21.1-18.3l21.7,13.9l0.4-3
								c0.8-6.3,1.4-12.6,2-18.9c0.3-3.1,0.6-6.3,0.7-9.5c-0.1-3.1-0.4-6.3-0.8-9.4c-0.9-6.4-2.9-12.6-6-18.4
								c-1.6-3-3.5-5.9-5.7-8.6c-1.1-1.4-2.3-2.7-3.5-4.1c-1.2-1.2-2.3-2.7-3-4.2c0.9,1.5,2,2.9,3.2,4.1c1.2,1.3,2.5,2.6,3.6,4
								c2.3,2.6,4.3,5.5,6.1,8.5c3.3,5.7,5.7,11.9,6.9,18.4c0.6,3.2,1,6.3,1.2,9.5c0,3.2-0.1,6.4-0.3,9.5c-0.3,6.3-0.7,12.7-1.2,19
								l-3.2,38l-1.3,14.8l24.9-8l-25.2,11.5l-0.1,0.8c-0.7,6.3-1,12.5-1,18.8c-0.1,12.4,0.4,24.9,1,37.3l10.4-2.8l1.6,3.4
								l-11.8,2.4l1.7,35.6c0.1,2.1,0.2,4.2,0.3,6.3l9.7-3.6l-9.7,6.5c0,0.1,0,0.2,0,0.3c0,3.2-0.1,6.5-0.2,9.7
								c-0.3,6.4-1,12.8-1.8,19.2c-1.5,12.7-3.6,25.3-6,38l-13.2-1.5c2.9-12.4,5.5-24.9,7.6-37.4c1-6.2,2-12.5,2.5-18.7
								c0.3-3.1,0.5-6.2,0.6-9.3s0-6.3,0-9.5l-0.1-35.5c-2.5-0.4-5-1-7.4-1.6c-3.7-0.9-7.2-2.4-10.4-4.5c-2.5-2-4.7-4.4-6.5-7
								c-1.7-2.4-3.2-5-4.6-7.7C529.4,393.2,531.2,395.7,533.2,398z"/>
						</g>
						<g class="st4">
							<path class="st5" d="M730.5,397.1c2,2.5,4.4,4.6,7,6.4c3.1,1.7,6.5,2.9,10,3.5c2.1,0.4,4.3,0.8,6.5,1l0,0
								c0-12.7,0-25.4,0.7-38.1c0.3-6.4,0.9-12.8,1.9-19.1l0.2-1.4l-0.3-0.4l0.4-0.1l2.2-17l3.9-30.4l-21.1-18.3l21.7,13.9l0.4-3
								c0.8-6.3,1.4-12.6,2-18.9c0.3-3.1,0.6-6.3,0.7-9.5c-0.1-3.1-0.4-6.3-0.8-9.4c-0.9-6.4-2.9-12.6-6-18.4
								c-1.6-3-3.5-5.9-5.7-8.6c-1.1-1.4-2.3-2.7-3.5-4.1c-1.2-1.2-2.3-2.7-3-4.2c0.9,1.5,2,2.9,3.2,4.1c1.2,1.3,2.5,2.6,3.6,4
								c2.3,2.6,4.3,5.5,6.1,8.5c3.3,5.7,5.6,11.9,6.8,18.4c0.6,3.2,1,6.3,1.2,9.5c0,3.2-0.1,6.4-0.3,9.5c-0.3,6.3-0.7,12.7-1.2,19
								l-3.2,38l-1.2,14.8l24.9-8l-25.2,11.5l-0.1,0.8c-0.7,6.3-1,12.5-1,18.8c-0.1,12.4,0.4,24.9,1,37.3l10.4-2.8l1.6,3.4
								l-11.8,2.4l1.6,35.5c0.1,2.1,0.2,4.2,0.3,6.3l9.7-3.6l-9.7,6.5c0,0.1,0,0.2,0,0.3c0,3.2-0.1,6.5-0.2,9.7
								c-0.3,6.4-1,12.8-1.8,19.2c-1.5,12.7-3.6,25.3-6,38l-13.2-1.4c2.9-12.4,5.5-24.9,7.6-37.4c1-6.2,2-12.5,2.5-18.7
								c0.3-3.1,0.5-6.2,0.6-9.3s0-6.3,0-9.5l-0.1-35.6c-2.5-0.4-5-1-7.4-1.6c-3.7-0.9-7.2-2.4-10.4-4.5c-2.5-2-4.7-4.4-6.5-7
								c-1.7-2.4-3.2-5-4.6-7.7C726.7,392.3,728.6,394.8,730.5,397.1z"/>
						</g>
						<g class="st6">
							<path class="st5" d="M756.3,449.8c-2.2,1.6-4.5,2.8-7,3.8c-3.2,1.1-6.6,1.8-10,2.1c-2.1,0.3-4.3,0.5-6.5,0.6l0,0
								c0-7.6,0-15.2-0.7-22.9c-0.3-3.9-0.9-7.7-1.9-11.5l-0.2-0.9l0.3-0.2l-0.4-0.1l-2.2-10.2l-3.9-18.2l21.1-11l-21.7,8.3
								l-0.4-1.8c-0.8-3.8-1.4-7.6-2-11.4c-0.3-1.9-0.6-3.8-0.7-5.7c0.1-1.9,0.4-3.8,0.8-5.6c1.1-4.1,3.1-7.9,6-11
								c1.7-1.9,3.6-3.6,5.7-5.1c1.1-0.8,2.3-1.6,3.5-2.4c1.1-0.7,2.2-1.5,3-2.5c-0.9,1-2,1.8-3.2,2.5c-1.2,0.8-2.5,1.6-3.6,2.4
								c-2.2,1.5-4.2,3.2-6.1,5.1c-3.1,3.1-5.5,6.9-6.8,11c-0.6,1.9-1.1,3.8-1.3,5.7c0,1.9,0.1,3.8,0.3,5.7
								c0.3,3.8,0.7,7.6,1.2,11.4l3.2,22.8l1.3,8.9l-24.9-4.8l25.2,6.9l0.1,0.5c0.7,3.7,1,7.5,1,11.3c0.1,7.5-0.4,14.9-1,22.4
								l-10.4-1.7l-1.6,2l11.8,1.5l-1.7,21.3c-0.1,1.3-0.2,2.5-0.3,3.8l-9.7-2.2l9.7,3.9c0,0.1,0,0.1,0,0.2c0,1.9,0.1,3.9,0.2,5.8
								c0.4,3.9,1,7.7,1.8,11.5c1.6,7.7,3.6,15.3,6,22.8l13.2-0.9c-2.9-7.3-5.5-14.8-7.6-22.4c-1-3.7-1.9-7.4-2.5-11.2
								c-0.3-1.9-0.5-3.7-0.6-5.6c-0.1-1.9,0-3.8,0-5.7l0.1-21.3c2.5-0.3,5-0.6,7.4-1c3.5-0.5,7-1.4,10.4-2.7
								c2.4-1.1,4.6-2.5,6.5-4.2c1.7-1.4,3.2-2.9,4.6-4.6C759.9,447,758.2,448.5,756.3,449.8z"/>
						</g>
						<g class="st6">
							<path class="st5" d="M941,442.6c-2.2,1.6-4.5,2.8-7,3.8c-3.2,1.1-6.6,1.8-10,2.1c-2.1,0.3-4.3,0.5-6.5,0.6l0,0
								c0-7.6,0-15.2-0.7-22.9c-0.3-3.9-0.9-7.7-1.9-11.5l-0.2-0.9l0.3-0.2l-0.4-0.1l-2.2-10.2l-3.9-18.2l21.1-11l-21.7,8.3
								l-0.4-1.8c-0.8-3.8-1.4-7.6-2-11.4c-0.3-1.9-0.6-3.8-0.7-5.7c0.1-1.9,0.4-3.8,0.8-5.6c1.1-4.1,3.1-7.9,6-11
								c1.7-1.9,3.6-3.6,5.7-5.1c1.1-0.8,2.3-1.6,3.5-2.4c1.1-0.7,2.2-1.5,3-2.5c-0.9,1-2,1.8-3.2,2.5c-1.2,0.8-2.5,1.6-3.6,2.4
								c-2.2,1.5-4.2,3.2-6.1,5.2c-3.1,3.1-5.5,6.8-6.8,11c-0.6,1.9-1,3.8-1.2,5.7c0,1.9,0.1,3.8,0.3,5.7c0.3,3.8,0.7,7.6,1.2,11.4
								l3.2,22.8l1.3,8.9l-24.9-4.8l25.2,6.9l0.1,0.5c0.7,3.7,1,7.5,1,11.3c0.1,7.5-0.4,14.9-1,22.4l-10.4-1.7l-1.6,2l11.8,1.5
								l-1.7,21.3c-0.1,1.3-0.2,2.5-0.3,3.8l-9.7-2.2l9.7,3.9c0,0.1,0,0.1,0,0.2c0,1.9,0.1,3.9,0.2,5.8c0.4,3.9,1,7.7,1.8,11.5
								c1.6,7.7,3.6,15.3,6,22.8l13.2-0.9c-2.9-7.3-5.5-14.8-7.6-22.4c-1-3.7-1.9-7.4-2.5-11.2c-0.3-1.9-0.5-3.7-0.6-5.6
								c-0.1-1.9,0-3.8,0-5.7l0.1-21.3c2.5-0.3,5-0.6,7.4-1c3.5-0.5,7-1.3,10.4-2.6c2.4-1.1,4.6-2.5,6.5-4.2
								c1.7-1.4,3.2-2.9,4.6-4.6C944.8,439.8,943,441.2,941,442.6z"/>
						</g>
						<path class="st5" d="M1003.8,393.7c-2.5,2.6-5.4,4.8-8.5,6.6c-3.8,1.8-7.8,3-12,3.6c-2.6,0.5-5.2,0.8-7.8,1.1l0,0
							c0-13.1,0-26.2-0.8-39.3c-0.4-6.6-1.1-13.2-2.2-19.7l-0.2-1.5l0.4-0.4l-0.4-0.1l-2.6-17.5l-4.7-31.3l25.5-18.8l-26.1,14.3
							l-0.5-3.1c-0.9-6.5-1.7-13-2.5-19.5c-0.3-3.2-0.7-6.5-0.8-9.7c0.1-3.2,0.4-6.5,1-9.7c1.1-6.7,3.6-13.1,7.2-18.9
							c2-3.2,4.3-6.1,6.8-8.8c1.3-1.4,2.7-2.8,4.2-4.2s2.9-2.8,3.7-4.3c-0.8,1.6-2.4,2.9-3.9,4.3s-3,2.7-4.4,4.1
							c-2.7,2.7-5.2,5.6-7.3,8.8c-4,5.7-6.8,12.2-8.3,19c-0.7,3.2-1.2,6.5-1.5,9.8c0,3.3,0.2,6.6,0.3,9.8c0.4,6.5,0.9,13.1,1.5,19.6
							l3.9,39.1l1.5,15.2l-30-8.3l30.4,11.9l0.1,0.8c0.8,6.4,1.2,12.9,1.2,19.4c0.1,12.8-0.5,25.6-1.2,38.5l-12.6-2.9l-1.9,3.5
							l14.2,2.5l-2,36.7c-0.1,2.2-0.2,4.3-0.3,6.5l-11.8-3.7l11.6,6.7c0,0.1,0,0.2,0,0.4c0,3.3,0.1,6.7,0.3,10
							c0.4,6.6,1.2,13.2,2.1,19.7c1.9,13.1,4.3,26.1,7.3,39.2l15.9-1.5c-3.5-12.8-6.7-25.7-9.2-38.5c-1.2-6.4-2.3-12.9-3.1-19.3
							c-0.3-3.2-0.7-6.4-0.8-9.6s0-6.5,0-9.8l0.1-36.6c3-0.4,6-1,8.9-1.6c4.5-1.1,9-2.4,12.5-4.6c3-2,5.6-4.5,7.9-7.3
							c2.1-2.5,3.9-5.1,5.5-7.9C1008.4,388.8,1006.2,391.4,1003.8,393.7z"/>
						<path class="st5" d="M941.3,333.2l0.7-1c3.1-4.3-0.1-9.4-7.2-11.2l-0.7,1C930.9,326.2,934.2,331.3,941.3,333.2z"/>
						<path class="st5" d="M918.8,343.7l1.7,0.2c7.6,1,15.1-2,16.7-6.5l0,0l-1.7-0.2C927.9,336.1,920.4,339.1,918.8,343.7z"/>
						<path class="st5" d="M1000.3,391.9l1.7,0.3c2.1-4.5-2.3-9.2-9.8-10.5l-1.7-0.3C988.4,385.9,992.8,390.7,1000.3,391.9z"/>
						<path class="st5" d="M1010.4,396.4l-5.3,0.7l0,0c1.2,3.4,6.7,5.5,12.3,4.8l5.3-0.7C1021.5,397.8,1016,395.6,1010.4,396.4z"/>
						<path class="st5" d="M949.1,446.2v-1c0-3.3-4.5-6-9.9-6v1C939.2,443.5,943.7,446.2,949.1,446.2z"/>
						<path class="st5" d="M937.8,455l1.6,0.1c5.4,0.4,10.4-2,11-5.3l-1.6-0.1C943.5,449.3,938.5,451.7,937.8,455z"/>
					</g>
					<path class="st9" d="M-13.1,537.5c-1.7,4.5-4.2,8.7-7.4,12.3c4,5.7,6.2,11.8,6.2,17.8v63.1c3.2-0.2,6.4-0.4,9.5-0.4
						c53.1-0.1,105.9-4.4,159-4.5c12.6-0.1,25.1,1.8,37.1,5.6c28-2.3,56-4.5,84.3-5.6c64.2-2.5,128.7-1.5,193-1.5h197.8
						c13.2-0.1,26.2,2,38.7,6.2c117.1-5.6,234.9-6.2,352.4-6.2c1.2,0,2.5,0,3.7,0.1v-86.9H-13.1z"/>
					<path class="st10" d="M-7.6,602.1c-2.3,0.3-4.5,0.5-6.8,0.7v27.3c59.6-4.8,91.5-24.6,116.2-42.7c38-27.9,125-36.9,125-36.9
						C123.3,551.1,76,591.8-7.6,602.1z"/>
					<path class="st10" d="M456.2,537.5c0,0-120.8,11.4-127.7,41.8c-5,21.8-2.5,38-92.8,45.5c-15.1,1.3-30.1,3.5-44.9,6.5l0.5,0.2
						c28-2.3,56-4.5,84.3-5.6c11.6-0.4,23.3-0.8,34.9-1c20.5-7.7,38.5-21.6,46.8-52.1c9.1-33.5,141.4-30.1,141.4-30.1L456.2,537.5z"
						/>
					<path id="_Path_" class="st11" d="M68.4,533.6c0,0,7.5,3.3,3,20.8c-3.8,14.8-24.3,27.9-74.5,35.1c0,0,59.3,3,126.2-43.2
						L68.4,533.6z"/>
					<path class="st11" d="M913.8,537.5c0,0-3,55.8-278.2,58.7c-82.9,0.9-145.3,12.4-192.1,28.1c8.4,0,16.8,0,25.1,0h114.3
						c22.7-7.7,51.9-13.2,89.1-15.7C927.5,591.8,913.8,537.5,913.8,537.5z"/>
					<path id="_Path_2" class="st10" d="M538.2,537.5c0,0-66.9,23.5-73,46.2s-91.2,22.8-109.5,38.2c0,0,33.5-8.1,74.5-13.2
						c38.7-4.9,44.1-4.7,55.8-26.3c4.6-8.5-12.2-28,108.5-20.8c78.5,4.7,142.9-20.4,142.9-20.4l-51.7-3.7c0,0-33.3,23.7-73.7,19.8
						S538.2,537.5,538.2,537.5z"/>
					<path class="st10" d="M787.8,627.4c44-16.6,99.2-35.5,151.9-47.7c41.2-9.5,83.9-7.3,121.5-0.7v-29.4c-3.7-0.1-7.5-0.1-11.5,0
						h-0.1c-18.6,0.6-37.1,2.5-55.4,6c-39.6,7.1-89.4,21.2-151.8,46.5c-24,9.7-46.1,18.2-66.5,25.7L787.8,627.4z"/>
					<path class="st11" d="M907.7,625c14-3.5,29.1-7.5,45.7-11.9c36.4-9.8,74.7-7.6,107.8-1.3V590c-39-8-84.8-9.6-124.6,9.9
						c-20.4,10.1-41.5,18.6-63.1,25.6C884.9,625.3,896.3,625.2,907.7,625z"/>
					<path class="st11" d="M200.7,590.9c-29.9,2.7-73.4,18.4-116,36.8c8.9-0.4,17.7-0.7,26.6-1c33.9-12.2,66.6-22,90.9-25.3
						c81-11.1,108-47,108-47S279.8,583.8,200.7,590.9z"/>
					<path class="st12" d="M-14.3,575.8v6.3c4.9,0.7,9.8-0.1,14.2-2.3C7.3,576.5-5.2,575.1-14.3,575.8z"/>
					<path id="_Path_3" class="st12" d="M149.5,585.2c0,0,8.1-12.8,29.4-9.6s14.2,6.8,14.2,6.8S160.7,590.6,149.5,585.2z"/>
					<path id="_Path_4" class="st12" d="M573.7,574.4c0,0-12.3,8.5,0,8.8S588.5,571.9,573.7,574.4z"/>
					<path id="_Path_5" class="st12" d="M503.1,576.7c0,0,7.2,4.6,17.1,0S495.9,572.1,503.1,576.7z"/>
					<path id="_Path_6" class="st12" d="M526.5,580.8c0,0,6.6-10.4,23.8-7.8s11.5,5.5,11.5,5.5S535.5,585.2,526.5,580.8z"/>
					<path id="_Path_7" class="st12" d="M187.6,566.2L187.6,566.2c-3.3,2.3-2,5.4,2.9,6.8c7.5,2.2,18.4,4.5,26.9,2.7
						c4.7-1,6.2-3.5,5.3-6.1C219.8,561.5,197.4,559.4,187.6,566.2z"/>
					<path class="st13" d="M676.1,624.8c2.2,0.2,4.4,0.4,6.6,0.7c1.3-0.2,2.2-0.8,1.9-1.5c-0.7-1.6-3.6-2.8-7-2.8l-1.5,0.9
						C674.6,622.9,674.8,624,676.1,624.8z"/>
					<path id="_Path_8" class="st12" d="M558,580l-1.6,0.9c-2.5,1.4-0.4,3.6,3.5,3.6h2.6c1.8,0,3.2-0.8,2.8-1.7l0,0
						C564.6,581.2,561.6,580,558,580L558,580z"/>
					<path class="st14" d="M503.7,522.7c-35.9,0-70.4,0-106.3-3.5c-25.5-2.8-47.9-7.7-74.9-4.9c-73.4,7-142.2,7.7-214.1,8.5
						C70,523.2,30,525.1-8.2,523.4c0.4,1.7,0.7,3.5,0.9,5.3c0.5,7-2.9,14.5-8.6,21.2c0.6,0.9,1.2,1.9,1.8,2.8
						c29.6,1.3,60.2,0.4,90.3-0.2c8.5-0.2,16.9-0.4,25.2-0.5l17.6-0.2c65.6-0.7,129.1-1.8,196.5-8.3c27-2.8,49.4,2.1,74.9,4.9
						l0.8,0.1c4.1,0.4,8.2,0.8,12.2,1.1c31.3,2.4,61.8,2.4,93.3,2.4c3.3,0.1,6.6,0.1,9.8,0.1c26.4,0.4,52.7,0.6,78.9,0.5l0,0
						c24,0,47.9-0.2,71.8-0.5c15.9-0.2,31.8-0.4,47.6-0.7c67.6-1.1,135.1-2.5,202.9-2.9l0,0c1.2,0,2.5,0,3.7,0
						c45.9-0.2,92,0,138.2,1.3h0.1l11.4,0.3v-29.5C873.9,515.3,690.1,526,503.7,522.7z"/>
					<path class="st15" d="M1049.8,549.7h-0.1c-46.3-1.2-92.3-1.5-138.2-1.3c-1.2,0-2.5,0-3.7,0l0,0c-67.8,0.4-135.3,1.8-202.9,2.9
						c-15.9,0.3-31.7,0.5-47.6,0.7c-23.9,0.3-47.9,0.5-71.8,0.5l0,0c-26.2,0.1-52.5-0.1-78.9-0.5c-3.3,0-6.6-0.1-9.8-0.1
						c-31.6,0-62,0-93.3-2.4c-4.1-0.3-8.1-0.7-12.2-1.1l-0.8-0.1c-25.5-2.8-47.9-7.7-74.9-4.9c-67.4,6.5-131,7.6-196.5,8.3
						l-17.6,0.2c-8.3,0.1-16.8,0.3-25.2,0.5c-30.1,0.7-60.7,1.5-90.3,0.2c1.3,2.2,2.4,4.6,3.1,7.1c27.8,1.1,56.4,0.3,84.7-0.3
						c9.3-0.2,18.6-0.4,27.7-0.5l5.9-0.1l0,0c17-0.2,33.9-0.3,50.6-0.6l0,0c9.5-0.2,19-0.4,28.4-0.6l0,0c42.5-1,85-3,129.1-7.2
						c20.7-2.2,38.8,0.2,57.6,2.8c3.6,0.5,7.2,1,10.9,1.4c2.1,0.3,4.2,0.5,6.4,0.8c35,3.4,68.6,3.5,103.5,3.5h2.8
						c55.9,1,111.6,0.7,167.3,0l0,0c78.3-1,156.5-3,235-3.5c2.2,0,4.5,0,6.7,0c29.6-0.2,59.2-0.1,88.9,0.2
						c22.2,0.3,44.5,0.7,66.8,1.4v-7L1049.8,549.7z"/>
					
						<linearGradient id="SVGID_3_" gradientUnits="userSpaceOnUse" x1="524.29" y1="30.97" x2="524.29" y2="91.23" gradientTransform="matrix(1 0 0 -1 0 568)">
						<stop  offset="0" style="stop-color:#BFA910"/>
						<stop  offset="1" style="stop-color:#CFA53D"/>
					</linearGradient>
					<path class="st16" d="M954.1,509.9l2.5-5.8l-5.4,5.8c-20-0.2-39.9-0.3-59.8-0.3l13.6-16.8l-16.7,16.8H886l-3-28.1l-4.6,27
						l-12.8-9l3.7,10.2c-64.5,0.2-128.9,1.5-193.2,3.2l-5.5-4.5l1.9,4.6c-38.8,1-77.6,2.2-116.3,3.4c-33.5,0.7-67-0.7-100.3-4.2
						c-25.9-2.4-51.2-4.5-76.6-5.4l-3.5-0.1h-1l-16.7-0.3c-4.3,0-8.7,0-13,0.1c-17.7,0.5-35.4,0.8-53,1.2l-4.5,0.1
						c-25.4,0.5-50.7,1-76,1.7l-22,0.7c-29.6,1-59,2.5-88.6,4.8c-18.1,1.6-37.2,1.6-56.7,1l14.4-21.4l-17.9,21.2h-0.9l-3.3-45.2
						L32,513.4l-12.8-9L23,515c-11.9-0.6-23.8-1.2-35.6-1.8c2,3.1,3.4,6.6,4.3,10.1c38.2,1.7,78.2-0.2,116.7-0.7
						c71.9-0.7,140.7-1.4,214.1-8.5c26.9-2.8,49.4,2.1,74.9,4.9c35.9,3.5,70.4,3.5,106.3,3.5c186.4,3.3,370.2-7.4,557.5-2.2v-8.2
						C1025.4,511.1,989.7,510.3,954.1,509.9z"/>
					<g id="_Group_" class="st17">
						<path id="_Path_9" class="st18" d="M881.4,50.4c0,0-5.7-20.7-29.5-13.1c0,0,7.1-24.3-27.7-23.1c-37.6,1.2-25.3,22.4-25.3,22.4
							s-17.4-5.4-24.2,0c-3.5,2.8-5,8.2-5.7,12.7c-19.9-10-35.2,6.2-29.9,7.3s29.5,0,29.5,0s14.9,2,23.1,0c0,0,29.2,4.7,60.5,0.9
							c0,0,14.6,3,29.2,0.3c0,0,20.3,0.6,27.4-1.2S897.1,42,881.4,50.4z"/>
						<g id="_Group_2">
							
								<linearGradient id="_Path_10_1_" gradientUnits="userSpaceOnUse" x1="804.5673" y1="468.1676" x2="831.2173" y2="551.0776" gradientTransform="matrix(1 0 0 -1 0 568)">
								<stop  offset="0" style="stop-color:#A085A5"/>
								<stop  offset="0.24" style="stop-color:#AC6D84;stop-opacity:0.67"/>
								<stop  offset="0.58" style="stop-color:#BE4C55;stop-opacity:0.2"/>
								<stop  offset="0.62" style="stop-color:#C05057;stop-opacity:0.23"/>
								<stop  offset="0.68" style="stop-color:#C65B5C;stop-opacity:0.3"/>
								<stop  offset="0.75" style="stop-color:#CF6E64;stop-opacity:0.41"/>
								<stop  offset="0.83" style="stop-color:#DC8770;stop-opacity:0.57"/>
								<stop  offset="0.92" style="stop-color:#EDA87E;stop-opacity:0.78"/>
								<stop  offset="1" style="stop-color:#FFCB8E"/>
							</linearGradient>
							<path id="_Path_10" class="st19" d="M877.3,55.8c-10.3,4.4-32.5-7.1-32.5-7.1c-1.6,1.2-3.3,2.1-5.2,2.6
								c-5.7,1.7-11.8,1-17-1.9c-37.3-21.1-0.5-35.1-0.3-35.2c-30.4,1.6-25.7,17.1-23.9,21.3c2.1,2.9,4.7,5.4,7.6,7.5
								c-14.3-9.6-26-8.5-26.8-8.5c-1.6,0.3-3.2,1-4.5,1.9c-3.5,2.8-5,8.2-5.7,12.7c0.2,1.2,0.5,2.4,0.9,3.6c-2.2-2.4-4.8-4.4-7.7-6
								c-16.4-3.9-27.9,8.8-23.2,9.8c5.3,1.2,29.5,0,29.5,0s14.9,2,23.1,0c0,0,29.2,4.7,60.5,0.9c0,0,14.6,3,29.2,0.3
								c0,0,9.3,0.2,17.5-0.1C891.7,57.5,884.5,56.9,877.3,55.8z"/>
							
								<linearGradient id="_Path_11_1_" gradientUnits="userSpaceOnUse" x1="904.6" y1="510.75" x2="904.6" y2="510.75" gradientTransform="matrix(1 0 0 -1 0 568)">
								<stop  offset="0" style="stop-color:#A085A5"/>
								<stop  offset="0.24" style="stop-color:#AC6D84;stop-opacity:0.67"/>
								<stop  offset="0.58" style="stop-color:#BE4C55;stop-opacity:0.2"/>
								<stop  offset="0.62" style="stop-color:#C05057;stop-opacity:0.23"/>
								<stop  offset="0.68" style="stop-color:#C65B5C;stop-opacity:0.3"/>
								<stop  offset="0.75" style="stop-color:#CF6E64;stop-opacity:0.41"/>
								<stop  offset="0.83" style="stop-color:#DC8770;stop-opacity:0.57"/>
								<stop  offset="0.92" style="stop-color:#EDA87E;stop-opacity:0.78"/>
								<stop  offset="1" style="stop-color:#FFCB8E"/>
							</linearGradient>
							<polygon id="_Path_11" class="st20" points="904.6,57.2 904.6,57.2 904.6,57.2 							"/>
						</g>
						<path id="_Path_12" class="st21" d="M881.4,50.4c0,0-5.7-20.7-29.5-13.1c0,0,5.1-17.3-14.4-22c4.7,2.4,14.9,9.5,12.1,23.3
							c0,0,22-8.5,30,13.7c0,0,18.8-10.8,29.2,4.3C915.9,54.8,897.1,42,881.4,50.4z"/>
					</g>
					<g id="_Group_3" class="st17">
						<path id="_Path_13" class="st18" d="M948.8,180.9c0,0-4.4-15.9-22.6-10.1c0,0,5.4-18.6-21.2-17.7
							c-28.8,0.9-19.4,17.2-19.4,17.2s-13.3-4.2-18.5,0c-2.7,2.2-3.9,6.3-4.3,9.7c-15.2-7.6-27,4.7-22.9,5.6s22.6,0,22.6,0
							s11.4,1.6,17.7,0c15.3,2.2,30.9,2.4,46.3,0.7c7.4,1.3,14.9,1.4,22.3,0.2c0,0,15.5,0.4,21-0.9S960.8,174.4,948.8,180.9z"/>
						<g id="_Group_4">
							
								<linearGradient id="_Path_14_1_" gradientUnits="userSpaceOnUse" x1="889.9294" y1="349.3034" x2="910.3394" y2="412.7934" gradientTransform="matrix(1 0 0 -1 0 568)">
								<stop  offset="0" style="stop-color:#A085A5"/>
								<stop  offset="0.24" style="stop-color:#AC6D84;stop-opacity:0.67"/>
								<stop  offset="0.58" style="stop-color:#BE4C55;stop-opacity:0.2"/>
								<stop  offset="0.62" style="stop-color:#C05057;stop-opacity:0.23"/>
								<stop  offset="0.68" style="stop-color:#C65B5C;stop-opacity:0.3"/>
								<stop  offset="0.75" style="stop-color:#CF6E64;stop-opacity:0.41"/>
								<stop  offset="0.83" style="stop-color:#DC8770;stop-opacity:0.57"/>
								<stop  offset="0.92" style="stop-color:#EDA87E;stop-opacity:0.78"/>
								<stop  offset="1" style="stop-color:#FFCB8E"/>
							</linearGradient>
							<path id="_Path_14" class="st22" d="M945.6,185c-7.9,3.4-24.9-5.4-24.9-5.4c-1.2,0.9-2.6,1.6-4,2c-4.4,1.3-9,0.8-13-1.5
								c-28.6-16.2-0.4-26.9-0.2-26.9c-23.3,1.2-19.7,13.1-18.3,16.3c1.6,2.2,3.6,4.2,5.8,5.8c-11-7.3-19.9-6.5-20.5-6.5
								c-1.2,0.2-2.4,0.7-3.4,1.5c-2.7,2.2-3.8,6.3-4.3,9.7c0.2,0.9,0.4,1.8,0.7,2.7c-1.7-1.8-3.7-3.4-5.9-4.6
								c-12.6-3-21.3,6.7-17.7,7.5c4.1,0.9,22.6,0,22.6,0s11.4,1.6,17.7,0c15.3,2.2,30.9,2.4,46.3,0.7c7.4,1.3,14.9,1.4,22.3,0.2
								c0,0,7.1,0.2,13.4-0.1C956.7,186.3,951.1,185.8,945.6,185z"/>
							
								<linearGradient id="_Path_15_1_" gradientUnits="userSpaceOnUse" x1="966.55" y1="381.9" x2="966.55" y2="381.9" gradientTransform="matrix(1 0 0 -1 0 568)">
								<stop  offset="0" style="stop-color:#A085A5"/>
								<stop  offset="0.24" style="stop-color:#AC6D84;stop-opacity:0.67"/>
								<stop  offset="0.58" style="stop-color:#BE4C55;stop-opacity:0.2"/>
								<stop  offset="0.62" style="stop-color:#C05057;stop-opacity:0.23"/>
								<stop  offset="0.68" style="stop-color:#C65B5C;stop-opacity:0.3"/>
								<stop  offset="0.75" style="stop-color:#CF6E64;stop-opacity:0.41"/>
								<stop  offset="0.83" style="stop-color:#DC8770;stop-opacity:0.57"/>
								<stop  offset="0.92" style="stop-color:#EDA87E;stop-opacity:0.78"/>
								<stop  offset="1" style="stop-color:#FFCB8E"/>
							</linearGradient>
							<polygon id="_Path_15" class="st23" points="966.6,186.1 966.6,186.1 966.6,186.1 							"/>
						</g>
						<path id="_Path_16" class="st21" d="M948.8,180.9c0,0-4.4-15.9-22.6-10.1c0,0,3.9-13.3-11-16.9c3.6,1.9,11.4,7.2,9.2,17.8
							c0,0,16.9-6.5,23,10.5c0,0,14.4-8.2,22.4,3.3C975.2,184.2,960.8,174.4,948.8,180.9z"/>
					</g>
					<g id="_Group_5" class="st17">
						<path id="_Path_17" class="st18" d="M309.1,108.1c0,0-3.8-13.9-19.9-8.8c0,0,4.8-16.3-18.6-15.6c-25.3,0.8-17,15.1-17,15.1
							s-11.7-3.6-16.3,0c-2.4,1.9-3.4,5.5-3.8,8.5c-13.4-6.7-23.7,4.1-20.1,4.9s19.9,0,19.9,0s10,1.4,15.5,0
							c13.5,1.9,27.1,2.1,40.7,0.6c6.5,1.2,13.1,1.2,19.6,0.2c0,0,13.6,0.4,18.4-0.8S319.6,102.5,309.1,108.1z"/>
						<g id="_Group_6">
							
								<linearGradient id="_Path_18_1_" gradientUnits="userSpaceOnUse" x1="257.3578" y1="426.6475" x2="275.2878" y2="482.4175" gradientTransform="matrix(1 0 0 -1 0 568)">
								<stop  offset="0" style="stop-color:#A085A5"/>
								<stop  offset="0.24" style="stop-color:#AC6D84;stop-opacity:0.67"/>
								<stop  offset="0.58" style="stop-color:#BE4C55;stop-opacity:0.2"/>
								<stop  offset="0.62" style="stop-color:#C05057;stop-opacity:0.23"/>
								<stop  offset="0.68" style="stop-color:#C65B5C;stop-opacity:0.3"/>
								<stop  offset="0.75" style="stop-color:#CF6E64;stop-opacity:0.41"/>
								<stop  offset="0.83" style="stop-color:#DC8770;stop-opacity:0.57"/>
								<stop  offset="0.92" style="stop-color:#EDA87E;stop-opacity:0.78"/>
								<stop  offset="1" style="stop-color:#FFCB8E"/>
							</linearGradient>
							<path id="_Path_18" class="st24" d="M306.3,111.7c-6.9,2.9-21.9-4.8-21.9-4.8c-1.1,0.8-2.2,1.4-3.5,1.8
								c-3.8,1.1-7.9,0.7-11.4-1.3c-25.1-14.2-0.4-23.6-0.2-23.6c-20.5,1.1-17.3,11.5-16.1,14.3c1.4,1.9,3.1,3.7,5.1,5.1
								c-9.6-6.4-17.5-5.8-18-5.7c-1.1,0.2-2.1,0.6-3,1.3c-2.4,1.9-3.4,5.5-3.8,8.5c0.2,0.8,0.4,1.6,0.6,2.4c-1.5-1.6-3.2-3-5.2-4.1
								c-11-2.6-18.8,5.9-15.6,6.6c3.6,0.8,19.9,0,19.9,0s10,1.4,15.5,0c13.5,1.9,27.1,2.1,40.7,0.6c6.5,1.2,13.1,1.2,19.6,0.2
								c0,0,6.3,0.2,11.8-0.1C316,112.9,311.1,112.5,306.3,111.7z"/>
							
								<linearGradient id="_Path_19_1_" gradientUnits="userSpaceOnUse" x1="324.65" y1="455.29" x2="324.65" y2="455.29" gradientTransform="matrix(1 0 0 -1 0 568)">
								<stop  offset="0" style="stop-color:#A085A5"/>
								<stop  offset="0.24" style="stop-color:#AC6D84;stop-opacity:0.67"/>
								<stop  offset="0.58" style="stop-color:#BE4C55;stop-opacity:0.2"/>
								<stop  offset="0.62" style="stop-color:#C05057;stop-opacity:0.23"/>
								<stop  offset="0.68" style="stop-color:#C65B5C;stop-opacity:0.3"/>
								<stop  offset="0.75" style="stop-color:#CF6E64;stop-opacity:0.41"/>
								<stop  offset="0.83" style="stop-color:#DC8770;stop-opacity:0.57"/>
								<stop  offset="0.92" style="stop-color:#EDA87E;stop-opacity:0.78"/>
								<stop  offset="1" style="stop-color:#FFCB8E"/>
							</linearGradient>
							<polygon id="_Path_19" class="st25" points="324.6,112.7 324.6,112.7 324.6,112.7 							"/>
						</g>
						<path id="_Path_20" class="st21" d="M309.1,108.1c0,0-3.8-13.9-19.9-8.8c0,0,3.4-11.7-9.7-14.8c3.2,1.6,10,6.4,8.1,15.7
							c0,0,14.8-5.7,20.2,9.2c0,0,12.6-7.2,19.7,2.9C332.3,111.1,319.6,102.5,309.1,108.1z"/>
					</g>
					<g id="_Group_7" class="st17">
						<path id="_Path_21" class="st18" d="M648.7,139.8c0,0-7-25.4-36.2-16.1c0,0,8.7-29.7-33.9-28.3c-46,1.5-31,27.5-31,27.5
							s-21.3-6.6-29.6,0c-4.3,3.5-6.2,10.1-6.9,15.5c-24.3-12.2-43.2,7.6-36.6,9s36.2,0,36.2,0s18.3,2.5,28.3,0c0,0,35.7,5.8,74,1.1
							c0,0,17.9,3.6,35.7,0.4c0,0,24.8,0.7,33.5-1.5S667.9,129.5,648.7,139.8z"/>
						<g id="_Group_8">
							
								<linearGradient id="_Path_22_1_" gradientUnits="userSpaceOnUse" x1="554.5076" y1="367.754" x2="587.1475" y2="469.294" gradientTransform="matrix(1 0 0 -1 0 568)">
								<stop  offset="0" style="stop-color:#A085A5"/>
								<stop  offset="0.24" style="stop-color:#AC6D84;stop-opacity:0.67"/>
								<stop  offset="0.58" style="stop-color:#BE4C55;stop-opacity:0.2"/>
								<stop  offset="0.62" style="stop-color:#C05057;stop-opacity:0.23"/>
								<stop  offset="0.68" style="stop-color:#C65B5C;stop-opacity:0.3"/>
								<stop  offset="0.75" style="stop-color:#CF6E64;stop-opacity:0.41"/>
								<stop  offset="0.83" style="stop-color:#DC8770;stop-opacity:0.57"/>
								<stop  offset="0.92" style="stop-color:#EDA87E;stop-opacity:0.78"/>
								<stop  offset="1" style="stop-color:#FFCB8E"/>
							</linearGradient>
							<path id="_Path_22" class="st26" d="M643.6,146.3c-12.6,5.4-39.8-8.7-39.8-8.7c-1.9,1.5-4.1,2.6-6.4,3.2
								c-7,2-14.4,1.2-20.8-2.3c-45.7-25.9-0.6-42.9-0.4-43.1c-37.2,2-31.5,21-29.2,26.1c2.6,3.5,5.7,6.7,9.3,9.2
								c-17.6-11.7-31.8-10.5-32.8-10.4c-2,0.4-3.9,1.2-5.5,2.4c-4.3,3.5-6.2,10-6.9,15.5c0.3,1.5,0.7,2.9,1.1,4.4
								c-2.7-2.9-5.9-5.4-9.4-7.4c-20.1-4.8-34.1,10.8-28.4,12c6.5,1.4,36.2,0,36.2,0s18.3,2.5,28.3,0c0,0,35.7,5.8,74,1.1
								c0,0,17.9,3.6,35.7,0.4c0,0,11.4,0.3,21.5-0.2C659,148.6,643.6,146.3,643.6,146.3z"/>
							
								<linearGradient id="_Path_23_1_" gradientUnits="userSpaceOnUse" x1="677.05" y1="419.89" x2="677.05" y2="419.89" gradientTransform="matrix(1 0 0 -1 0 568)">
								<stop  offset="0" style="stop-color:#A085A5"/>
								<stop  offset="0.24" style="stop-color:#AC6D84;stop-opacity:0.67"/>
								<stop  offset="0.58" style="stop-color:#BE4C55;stop-opacity:0.2"/>
								<stop  offset="0.62" style="stop-color:#C05057;stop-opacity:0.23"/>
								<stop  offset="0.68" style="stop-color:#C65B5C;stop-opacity:0.3"/>
								<stop  offset="0.75" style="stop-color:#CF6E64;stop-opacity:0.41"/>
								<stop  offset="0.83" style="stop-color:#DC8770;stop-opacity:0.57"/>
								<stop  offset="0.92" style="stop-color:#EDA87E;stop-opacity:0.78"/>
								<stop  offset="1" style="stop-color:#FFCB8E"/>
							</linearGradient>
							<polygon id="_Path_23" class="st27" points="677,148.1 677,148.1 677,148.1 							"/>
						</g>
						<path id="_Path_24" class="st21" d="M648.7,139.8c0,0-7-25.4-36.2-16.1c0,0,6.2-21.2-17.6-27c5.8,3,18.3,11.6,14.8,28.5
							c0,0,27-10.4,36.7,16.8c0,0,23-13.2,35.8,5.3C690.9,145.1,667.9,129.5,648.7,139.8z"/>
					</g>
					<path id="_Path_25" class="st28" d="M1012.5,149.1c0,0-246.4-46-341.9-28.1c0,0,156.1-6.2,331.3,34.5L1012.5,149.1z"/>
					<path id="_Compound_Path_" class="st28" d="M796.3,6.2c-94.3,6.2-152.2,4.6-215.3-0.4c93.8,2.3,197.2-2,215.3-6.6
						c25.5-6.5,166.8-0.1,166.8-0.1L975.8-4c0,0-111.5-8.8-194.7,3.1S474.6-4,474.6-4l0,0c-10.5-1-21.4-2-32.9-3
						C298.3-19.5-29.8,31.9-29.8,31.9l28.7,34.9c0,0,326-51.6,396.6-51.3s245.9,23.7,371.2,10.8S1054.4,42,1054.4,42l26.6-30.5
						C1081,11.5,951.4-3.9,796.3,6.2z M225.5,12.3c-5.6,4.4-24.2,9.1-49.4,9.7c0,0-25.2-0.7-18-6.2S231.2,7.9,225.5,12.3L225.5,12.3
						z M235.4,19.3c-16.5-6.8,20.4-19.2,99-16.2S271.1,34.1,235.4,19.3L235.4,19.3z M650.8,22.5c-83.1-0.8-257-14.3-205-12.7
						C549.9,13,741.8,23.3,650.8,22.5z M679.5,16.1c0,0,43.7-4.4,54.2,0S667.9,19.5,679.5,16.1L679.5,16.1z"/>
					<path id="_Compound_Path_2" class="st28" d="M1028.2,205.7c-7.1,2.1-314.7-17.3-361.8-28.2s-136.6,8.4-235.5,16.1
						s-410.8,1.5-410.8,1.5l20.2,11.3c0,0,295.2,39.6,446,3.9s562.8,13.8,562.8,13.8S1035.3,203.6,1028.2,205.7z M212.2,209
						c-4.1-1.1-1.8-3.4,3.5-3.4c37.7-0.2,136.1-0.5,160.6,0.1C419.8,206.8,306.3,234.2,212.2,209L212.2,209z M689,188.8
						c0,0,50.9-0.4,56.3,6.4S652.8,192.3,689,188.8z"/>
					<path id="_Compound_Path_3" class="st28" d="M548.6,281.7c0,0,143.5-31.5,196-8.8s155.3-2.5,155.3-2.5l7-7.2
						c0,0-108.6,3.9-143-1s-65.6-17.1-82-10.2s-123.5,19.3-126,18S548.6,281.7,548.6,281.7z M782.9,270c8.5-0.4,42.8-0.1,55.9,0
						c1.9,0,2.7,1.4,1.2,2.1C807.3,288.1,767.8,270.6,782.9,270z M654.4,263.3c1.9-4.3,19.6-4,19.6-4
						C686.6,261.5,652.5,267.5,654.4,263.3L654.4,263.3z"/>
					<g id="_Group_9">
						<path id="_Compound_Path_4" class="st28" d="M841.3,81.2c63.3,2.5,165.2,2.5,165.2,2.5l-6.2-8.5C961.6,86,853,77.6,802.9,72.9
							c-4.1-1-8-2-11.5-3c-70.7-19.5-172.5-4.1-217.8,8.8C515.8,81,440.5,77.6,385,74l-27.8-4.1C216.5,49.1,50.9,115.3,47.7,115.3
							v13.1c-23.8-1-44.1-2.2-57-3.1c-9.3-0.6-14.8-1-15.2-1c0,0,45.7,18.7,78.6,16.3c30.1,2,68.9,0.9,116.7-7.2
							c100.6-17.2,141.5-11.8,155.2-8.3c-12.9-3.6-48.2-10.3-115.1-0.8c-36.4,5.2-82.8,6-124.8,5.2c60.9-20,179.3-53.7,242-36
							c86.9,24.5,201.8,19.1,302.4,0s434.1,46.3,434.1,46.3v-24.5C1064.4,115.3,931.3,98.9,841.3,81.2z M175.2,93.6
							c-1.6-2.5,18.1-19.4,46.7-14.9S180.7,102.2,175.2,93.6z M272.5,81c-16.7,5.4-35.1,3.3-20.6-2.2C255,77.6,289.3,75.6,272.5,81z
							 M350.3,83c0,0,67.8,5,71.6,10.8S315.3,86.7,350.3,83z M562.7,82.1c-25.6,9.1-46.5,9.8-102.1,2.6c34.2,1.1,68.4,0.2,102.5-2.7
							L562.7,82.1z M630.4,83c-25.6,1,73.4-16.5,93.7-7.7S683.7,81,630.4,83L630.4,83z"/>
						<path id="_Path_26" class="st28" d="M325.9,125.1c2,0.5,3.9,1.2,5.8,2C329.8,126.2,327.9,125.6,325.9,125.1z"/>
					</g>
					<path class="st29" d="M238.2,57.8l-1.3,0.2l-0.3-1.1c-0.1-0.2-0.3-0.3-0.6-0.3c-0.2,0-0.4,0.2-0.4,0.4c0,0,0,0,0,0l0.3,1.1
						l-1.3,0.2c-0.2,0-0.4,0.2-0.4,0.4c0,0,0,0,0,0c0.1,0.2,0.3,0.3,0.6,0.3l1.3-0.2l0.3,1.1c0.1,0.2,0.3,0.3,0.6,0.3
						c0.1,0,0.2-0.1,0.3-0.1c0.1-0.1,0.1-0.2,0.1-0.3l-0.3-1.1l1.3-0.2c0.1,0,0.2-0.1,0.3-0.1c0.1-0.1,0.1-0.2,0.1-0.3
						C238.7,57.8,238.5,57.7,238.2,57.8z"/>
					<path class="st29" d="M169.8-13.2l-0.9,0.4l-0.4-0.7c-0.1-0.1-0.3-0.2-0.4-0.1c-0.1,0-0.2,0.2-0.2,0.3c0,0,0,0,0,0l0.4,0.7
						l-0.9,0.4c-0.1,0-0.2,0.2-0.2,0.3c0,0,0,0,0,0c0.1,0.1,0.3,0.2,0.4,0.1l0.9-0.4l0.4,0.7c0.1,0.1,0.3,0.2,0.4,0.1
						c0.1,0,0.1-0.1,0.2-0.1c0-0.1,0-0.2,0-0.2l-0.4-0.7l0.9-0.4c0.1,0,0.1-0.1,0.2-0.1c0-0.1,0-0.2,0-0.2
						C170.2-13.3,170-13.3,169.8-13.2z"/>
					<ellipse class="st30" cx="27.6" cy="96.4" rx="2.6" ry="2.2"/>
					<ellipse class="st30" cx="242" cy="175.7" rx="2.6" ry="2.2"/>
					<ellipse class="st30" cx="377.9" cy="81.5" rx="1.5" ry="1.2"/>
					<ellipse class="st30" cx="182.8" cy="271.5" rx="1.4" ry="1.2"/>
					<path class="st29" d="M520.2,205.3l-1.3,0.2l-0.3-1.1c-0.1-0.2-0.3-0.3-0.6-0.3c-0.2,0-0.4,0.2-0.4,0.4c0,0,0,0,0,0l0.3,1.1
						l-1.3,0.2c-0.2,0-0.4,0.2-0.4,0.4c0,0,0,0,0,0c0.1,0.2,0.3,0.3,0.6,0.3l1.3-0.2l0.3,1.1c0.1,0.2,0.3,0.3,0.6,0.3
						c0.1,0,0.2-0.1,0.3-0.1c0.1-0.1,0.1-0.2,0.1-0.3l-0.3-1.1l1.3-0.2c0.1,0,0.2-0.1,0.3-0.1c0.1-0.1,0.1-0.2,0.1-0.3
						C520.7,205.3,520.5,205.2,520.2,205.3z"/>
					<path class="st29" d="M265.3,16.2l-1.6-0.5l0.6-1.3c0.1-0.2,0-0.5-0.3-0.6c0,0,0,0-0.1,0c-0.3-0.1-0.6,0-0.7,0.3l-0.6,1.3
						l-1.6-0.5c-0.3-0.1-0.6,0-0.7,0.3c-0.1,0.2,0,0.5,0.3,0.6c0,0,0,0,0.1,0l1.6,0.5l-0.6,1.3c-0.1,0.2,0,0.5,0.3,0.6
						c0,0,0,0,0.1,0c0.1,0,0.3,0,0.4,0c0.2,0,0.3-0.1,0.4-0.3l0.6-1.3l1.6,0.5c0.1,0,0.3,0,0.4,0c0.2,0,0.3-0.1,0.4-0.3
						C265.7,16.5,265.6,16.3,265.3,16.2C265.4,16.2,265.3,16.2,265.3,16.2z"/>
					<path class="st29" d="M88.7,143.8l-0.9,0.4l-0.4-0.7c-0.1-0.1-0.3-0.2-0.4-0.1c-0.1,0-0.2,0.2-0.2,0.3c0,0,0,0,0,0l0.4,0.7
						l-0.9,0.4c-0.1,0-0.2,0.2-0.2,0.3c0,0,0,0,0,0c0.1,0.1,0.3,0.2,0.4,0.1l0.9-0.4l0.4,0.7c0.1,0.1,0.3,0.2,0.4,0.1
						c0.1,0,0.1-0.1,0.2-0.1c0-0.1,0-0.2,0-0.2l-0.4-0.7l0.9-0.4c0.1,0,0.1-0.1,0.2-0.1c0-0.1,0-0.2,0-0.2
						C89.1,143.7,88.9,143.7,88.7,143.8z"/>
					<path class="st29" d="M167.9,175.5l-0.9,0.4l-0.4-0.7c-0.1-0.1-0.3-0.2-0.4-0.1c-0.1,0-0.2,0.2-0.2,0.3c0,0,0,0,0,0l0.4,0.7
						l-0.9,0.4c-0.1,0-0.2,0.2-0.2,0.3c0,0,0,0,0,0c0.1,0.1,0.3,0.2,0.4,0.1l0.9-0.4l0.4,0.7c0.1,0.1,0.3,0.2,0.4,0.1
						c0.1,0,0.1-0.1,0.2-0.1c0-0.1,0-0.2,0-0.2l-0.4-0.7l0.9-0.4c0.1,0,0.1-0.1,0.2-0.1c0-0.1,0-0.2,0-0.2
						C168.2,175.4,168.1,175.4,167.9,175.5z"/>
					<path class="st29" d="M206.5,94.6l-0.9,0.4l-0.4-0.7c-0.1-0.1-0.3-0.2-0.5-0.1c-0.1,0-0.2,0.2-0.2,0.3c0,0,0,0,0,0l0.4,0.7
						l-0.9,0.4c-0.1,0-0.2,0.2-0.2,0.3c0,0,0,0,0,0c0.1,0.1,0.3,0.2,0.5,0.1l0.9-0.4l0.4,0.7c0.1,0.1,0.3,0.2,0.5,0.1
						c0.1,0,0.1-0.1,0.2-0.1c0-0.1,0-0.2,0-0.2l-0.4-0.7l0.9-0.4c0.1,0,0.1,0,0.2-0.1c0-0.1,0-0.2,0-0.2
						C206.9,94.6,206.7,94.5,206.5,94.6z"/>
					<path class="st29" d="M817.9,77.2l1.1-0.8l0.7,0.9c0.2,0.2,0.5,0.2,0.6,0c0.2-0.1,0.3-0.3,0.2-0.5c0,0,0,0,0,0l-0.7-0.9
						l1.1-0.8c0.2-0.1,0.3-0.3,0.2-0.5c0,0,0,0,0,0c-0.2-0.2-0.5-0.2-0.6,0l-1.1,0.8l-0.7-0.9c-0.2-0.2-0.5-0.2-0.6,0
						c-0.1,0.1-0.2,0.1-0.2,0.2c0,0.1,0,0.2,0,0.3l0.7,0.9l-1.1,0.8c-0.1,0.1-0.2,0.1-0.2,0.2c0,0.1,0,0.2,0,0.3
						C817.5,77.4,817.7,77.4,817.9,77.2z"/>
					<path class="st29" d="M909.2,113.4l0.7-0.7l0.7,0.5c0.2,0.1,0.3,0.1,0.5-0.1c0.1-0.1,0.1-0.3,0-0.4c0,0,0,0,0,0l-0.7-0.5
						l0.7-0.7c0.1-0.1,0.1-0.3,0-0.4c0,0,0,0,0,0c-0.2-0.1-0.3-0.1-0.5,0.1l-0.7,0.7l-0.7-0.5c-0.2-0.1-0.3-0.1-0.5,0.1
						c-0.1,0.1-0.1,0.1-0.1,0.2c0,0.1,0,0.2,0.1,0.2l0.7,0.5l-0.7,0.7c-0.1,0.1-0.1,0.1-0.1,0.2c0,0.1,0,0.2,0.1,0.2
						C908.9,113.5,909.1,113.5,909.2,113.4z"/>
					<path class="st30" d="M991.7-44.7c-0.4-1.3,0.3-2.6,1.5-3.1c1.1-0.7,2.6-0.3,3.3,0.9c0.4,1.3-0.3,2.6-1.5,3.1
						C993.8-43.2,992.3-43.6,991.7-44.7z"/>
					<path class="st30" d="M764-27.5c-0.4-1.3,0.3-2.6,1.5-3.1c1.1-0.7,2.6-0.3,3.3,0.9c0.4,1.3-0.3,2.6-1.5,3.1
						C766.1-26,764.7-26.4,764-27.5z"/>
					<path class="st30" d="M679.7,114.5c-0.2-0.7,0.1-1.4,0.8-1.7c0.6-0.4,1.4-0.1,1.8,0.5c0.2,0.7-0.1,1.4-0.8,1.7
						C680.9,115.3,680.1,115.1,679.7,114.5z"/>
					<path class="st29" d="M500.9,60.6l1.1-0.8l0.7,0.9c0.2,0.2,0.5,0.2,0.6,0c0.2-0.1,0.3-0.3,0.2-0.5c0,0,0,0,0,0l-0.7-0.9
						l1.1-0.8c0.2-0.1,0.3-0.3,0.2-0.5c0,0,0,0,0,0c-0.2-0.2-0.5-0.2-0.6,0l-1.1,0.8l-0.7-0.9c-0.2-0.2-0.5-0.2-0.6,0
						c-0.1,0.1-0.2,0.1-0.2,0.2c0,0.1,0,0.2,0,0.3l0.7,0.9l-1.1,0.8c-0.1,0.1-0.2,0.1-0.2,0.2c0,0.1,0,0.2,0,0.3
						C500.4,60.7,500.7,60.7,500.9,60.6z"/>
					<path class="st29" d="M810.3,126.5l1.6-0.2v1.4c0,0.2,0.2,0.4,0.5,0.4c0,0,0.1,0,0.1,0c0.3,0,0.5-0.3,0.6-0.6v-1.4l1.6-0.2
						c0.3,0,0.5-0.3,0.6-0.6c0-0.2-0.2-0.4-0.5-0.4c0,0-0.1,0-0.1,0l-1.6,0.2v-1.4c0-0.2-0.2-0.4-0.5-0.4c0,0-0.1,0-0.1,0
						c-0.1,0-0.3,0.1-0.4,0.2c-0.1,0.1-0.2,0.2-0.2,0.4v1.4l-1.6,0.2c-0.1,0-0.3,0.1-0.4,0.2c-0.1,0.1-0.2,0.2-0.2,0.4
						c0,0.2,0.2,0.4,0.5,0.4C810.2,126.5,810.2,126.5,810.3,126.5z"/>
					<path class="st29" d="M674.4,147.8l0.7-0.7l0.7,0.5c0.2,0.1,0.3,0.1,0.5-0.1c0.1-0.1,0.1-0.3,0-0.4c0,0,0,0,0,0l-0.7-0.5
						l0.7-0.7c0.1-0.1,0.1-0.3,0-0.4c0,0,0,0,0,0c-0.2-0.1-0.3-0.1-0.5,0.1l-0.7,0.7l-0.7-0.5c-0.2-0.1-0.3-0.1-0.5,0.1
						c-0.1,0.1-0.1,0.1-0.1,0.2c0,0.1,0,0.2,0.1,0.2l0.7,0.5l-0.7,0.7c-0.1,0.1-0.1,0.1-0.1,0.2c0,0.1,0,0.2,0.1,0.2
						C674.1,148,674.3,147.9,674.4,147.8z"/>
					<path class="st29" d="M919-63.5l0.7-0.7l0.7,0.5c0.2,0.1,0.3,0.1,0.5-0.1c0.1-0.1,0.1-0.3,0-0.4c0,0,0,0,0,0l-0.7-0.5l0.7-0.7
						c0.1-0.1,0.1-0.3,0-0.4c0,0,0,0,0,0c-0.2-0.1-0.3-0.1-0.5,0.1l-0.7,0.7l-0.7-0.5c-0.2-0.1-0.3-0.1-0.5,0.1
						c-0.1,0.1-0.1,0.1-0.1,0.2c0,0.1,0,0.2,0.1,0.2l0.7,0.5l-0.7,0.7c-0.1,0.1-0.1,0.1-0.1,0.2c0,0.1,0,0.2,0.1,0.2
						C918.7-63.3,918.9-63.3,919-63.5z"/>
					<path class="st29" d="M834-59.3l0.7-0.7l0.7,0.5c0.2,0.1,0.3,0.1,0.5-0.1c0.1-0.1,0.1-0.3,0-0.4c0,0,0,0,0,0l-0.7-0.5l0.7-0.7
						c0.1-0.1,0.1-0.3,0-0.4c0,0,0,0,0,0c-0.2-0.1-0.3-0.1-0.5,0.1l-0.7,0.7l-0.7-0.5c-0.2-0.1-0.3-0.1-0.5,0.1
						c-0.1,0.1-0.1,0.1-0.1,0.2c0,0.1,0,0.2,0.1,0.2l0.7,0.5l-0.7,0.7c-0.1,0.1-0.1,0.1-0.1,0.2c0,0.1,0,0.2,0.1,0.2
						C833.7-59.2,833.9-59.2,834-59.3z"/>
					<path class="st29" d="M831.8,30.5l0.7-0.7l0.7,0.5c0.2,0.1,0.3,0.1,0.5-0.1c0.1-0.1,0.1-0.3,0-0.4c0,0,0,0,0,0l-0.7-0.5
						l0.7-0.7c0.1-0.1,0.1-0.3,0-0.4c0,0,0,0,0,0c-0.2-0.1-0.3-0.1-0.5,0.1l-0.7,0.7l-0.7-0.5c-0.2-0.1-0.3-0.1-0.5,0.1
						c-0.1,0.1-0.1,0.1-0.1,0.2c0,0.1,0,0.2,0.1,0.2l0.7,0.5l-0.7,0.7c-0.1,0.1-0.1,0.1-0.1,0.2c0,0.1,0,0.2,0.1,0.2
						C831.5,30.6,831.7,30.6,831.8,30.5z"/>
					<path class="st31" d="M1025.1,19.8c-0.9-1.2-0.6-2.9,0.6-3.8c1.2-0.9,2.9-0.6,3.8,0.6c0.9,1.2,0.6,2.9-0.6,3.8
						c-0.2,0.1-0.3,0.2-0.5,0.3C1027.3,21.3,1025.8,21,1025.1,19.8z"/>
					<path class="st29" d="M951.5,1.1l0.7-0.7l0.7,0.5c0.2,0.1,0.3,0.1,0.5-0.1c0.1-0.1,0.1-0.3,0-0.4c0,0,0,0,0,0l-0.7-0.5l0.7-0.7
						c0.1-0.1,0.1-0.3,0-0.4c0,0,0,0,0,0c-0.2-0.1-0.3-0.1-0.5,0.1l-0.7,0.7l-0.7-0.5c-0.2-0.1-0.3-0.1-0.5,0.1
						c-0.1,0.1-0.1,0.1-0.1,0.2c0,0.1,0,0.2,0.1,0.2l0.7,0.5l-0.7,0.7C951,0.8,951,0.9,951,0.9c0,0.1,0,0.2,0.1,0.2
						C951.2,1.2,951.4,1.2,951.5,1.1z"/>
					<path class="st29" d="M865.3,5.2l0.7-0.7l0.7,0.5c0.2,0.1,0.3,0.1,0.5-0.1c0.1-0.1,0.1-0.3,0-0.4c0,0,0,0,0,0l-0.7-0.5l0.7-0.7
						c0.1-0.1,0.1-0.3,0-0.4c0,0,0,0,0,0c-0.2-0.1-0.3-0.1-0.5,0.1L866,3.7l-0.7-0.5c-0.2-0.1-0.3-0.1-0.5,0.1
						c-0.1,0.1-0.1,0.1-0.1,0.2c0,0.1,0,0.2,0.1,0.2l0.7,0.5l-0.7,0.7c-0.1,0.1-0.1,0.1-0.1,0.2c0,0.1,0,0.2,0.1,0.2
						C865,5.4,865.2,5.4,865.3,5.2z"/>
					<g class="st17">
						<path id="_Path_27" class="st18" d="M476.7,33.9c0,0,1.1-29.1-25.6-20.6c0,0,0.5-21.2-38.3-19.9c-42,1.4-28.3,25.1-28.3,25.1
							s-19.5-6.1-27,0c-4,3.2-5.6,9.2-6.3,14.2c-22.2-11.1-39.4,6.9-33.4,8.2s33,0,33,0s16.7,2.3,25.8,0c0,0,32.6,5.3,67.5,1
							c0,0,16.3,3.3,32.6,0.3c0,0,22.6,0.6,30.6-1.3S494.2,24.5,476.7,33.9z"/>
						<g id="_Group_10">
							
								<linearGradient id="_Path_28_1_" gradientUnits="userSpaceOnUse" x1="390.8356" y1="478.9218" x2="420.5956" y2="571.5317" gradientTransform="matrix(1 0 0 -1 0 568)">
								<stop  offset="0" style="stop-color:#A085A5"/>
								<stop  offset="0.24" style="stop-color:#AC6D84;stop-opacity:0.67"/>
								<stop  offset="0.58" style="stop-color:#BE4C55;stop-opacity:0.2"/>
								<stop  offset="0.62" style="stop-color:#C05057;stop-opacity:0.23"/>
								<stop  offset="0.68" style="stop-color:#C65B5C;stop-opacity:0.3"/>
								<stop  offset="0.75" style="stop-color:#CF6E64;stop-opacity:0.41"/>
								<stop  offset="0.83" style="stop-color:#DC8770;stop-opacity:0.57"/>
								<stop  offset="0.92" style="stop-color:#EDA87E;stop-opacity:0.78"/>
								<stop  offset="1" style="stop-color:#FFCB8E"/>
							</linearGradient>
							<path id="_Path_28" class="st32" d="M472,39.9c-11.5,4.9-36.3-7.9-36.3-7.9c-1.7,1.3-3.7,2.3-5.8,2.9
								c-6.3,1.8-13.1,1.1-18.9-2.2c-41.7-23.6-0.6-39.2-0.4-39.3c-34,1.8-28.7,19.1-26.7,23.8c2.4,3.2,5.2,6.1,8.5,8.4
								c-16-10.7-29-9.5-29.9-9.4c-1.8,0.3-3.5,1.1-5,2.2c-4,3.2-5.6,9.1-6.3,14.1c0.3,1.4,0.6,2.7,1,4c-2.5-2.7-5.4-5-8.6-6.7
								c-18.4-4.4-31.1,9.8-25.9,11c6,1.3,33,0,33,0s16.7,2.3,25.8,0c0,0,32.6,5.3,67.5,1c0,0,16.3,3.3,32.6,0.3
								c0,0,10.4,0.3,19.6-0.1C486.1,42,472,39.9,472,39.9z"/>
							
								<linearGradient id="_Path_29_1_" gradientUnits="userSpaceOnUse" x1="502.54" y1="526.49" x2="502.54" y2="526.49" gradientTransform="matrix(1 0 0 -1 0 568)">
								<stop  offset="0" style="stop-color:#A085A5"/>
								<stop  offset="0.24" style="stop-color:#AC6D84;stop-opacity:0.67"/>
								<stop  offset="0.58" style="stop-color:#BE4C55;stop-opacity:0.2"/>
								<stop  offset="0.62" style="stop-color:#C05057;stop-opacity:0.23"/>
								<stop  offset="0.68" style="stop-color:#C65B5C;stop-opacity:0.3"/>
								<stop  offset="0.75" style="stop-color:#CF6E64;stop-opacity:0.41"/>
								<stop  offset="0.83" style="stop-color:#DC8770;stop-opacity:0.57"/>
								<stop  offset="0.92" style="stop-color:#EDA87E;stop-opacity:0.78"/>
								<stop  offset="1" style="stop-color:#FFCB8E"/>
							</linearGradient>
							<polygon id="_Path_29" class="st33" points="502.5,41.5 502.5,41.5 502.5,41.5 							"/>
						</g>
						<path id="_Path_30" class="st21" d="M476.7,33.9c0,0,1.1-27.5-25.6-19c0,0-1.8-15-23.5-20.2c5.2,2.7,24.7,4.8,21.5,20.2
							c0,0,16.6-3.7,25.4,21.1c0,0,21-12,32.6,4.8C515.2,38.8,494.2,24.5,476.7,33.9z"/>
					</g>
					<g id="_Group_11" class="st17">
						<path id="_Path_31" class="st18" d="M531.5,48.6c0,0-4.4-15.9-22.6-10.1c0,0,5.4-18.6-21.2-17.7C458.9,21.8,468.2,38,468.2,38
							s-13.3-4.2-18.5,0c-2.7,2.2-3.9,6.3-4.3,9.7c-15.2-7.6-27,4.7-22.9,5.6s22.6,0,22.6,0s11.4,1.6,17.7,0
							c15.3,2.2,30.9,2.4,46.3,0.7c7.4,1.3,14.9,1.4,22.3,0.2c0,0,15.5,0.4,21-0.9S543.5,42.1,531.5,48.6z"/>
						<g id="_Group_12">
							
								<linearGradient id="_Path_32_1_" gradientUnits="userSpaceOnUse" x1="472.5679" y1="481.6239" x2="492.9778" y2="545.1039" gradientTransform="matrix(1 0 0 -1 0 568)">
								<stop  offset="0" style="stop-color:#A085A5"/>
								<stop  offset="0.24" style="stop-color:#AC6D84;stop-opacity:0.67"/>
								<stop  offset="0.58" style="stop-color:#BE4C55;stop-opacity:0.2"/>
								<stop  offset="0.62" style="stop-color:#C05057;stop-opacity:0.23"/>
								<stop  offset="0.68" style="stop-color:#C65B5C;stop-opacity:0.3"/>
								<stop  offset="0.75" style="stop-color:#CF6E64;stop-opacity:0.41"/>
								<stop  offset="0.83" style="stop-color:#DC8770;stop-opacity:0.57"/>
								<stop  offset="0.92" style="stop-color:#EDA87E;stop-opacity:0.78"/>
								<stop  offset="1" style="stop-color:#FFCB8E"/>
							</linearGradient>
							<path id="_Path_32" class="st34" d="M528.3,52.7c-7.9,3.3-24.9-5.4-24.9-5.4c-1.2,0.9-2.6,1.6-4,2c-4.4,1.3-9,0.8-13-1.5
								c-28.6-16.2-0.4-26.8-0.2-26.9c-23.3,1.2-19.7,13.1-18.3,16.3c1.6,2.2,3.6,4.2,5.8,5.8c-11-7.3-19.9-6.5-20.5-6.5
								c-1.2,0.2-2.4,0.7-3.4,1.5c-2.7,2.2-3.9,6.3-4.3,9.7c0.2,0.9,0.4,1.8,0.7,2.7c-1.7-1.8-3.7-3.4-5.9-4.6
								c-12.6-3-21.3,6.7-17.7,7.5c4.1,0.9,22.6,0,22.6,0s11.4,1.6,17.7,0c15.3,2.2,30.9,2.4,46.3,0.7c7.4,1.3,14.9,1.4,22.3,0.2
								c0,0,7.1,0.2,13.4-0.1C539.3,54,533.8,53.5,528.3,52.7z"/>
							
								<linearGradient id="_Path_33_1_" gradientUnits="userSpaceOnUse" x1="549.18" y1="514.22" x2="549.18" y2="514.22" gradientTransform="matrix(1 0 0 -1 0 568)">
								<stop  offset="0" style="stop-color:#A085A5"/>
								<stop  offset="0.24" style="stop-color:#AC6D84;stop-opacity:0.67"/>
								<stop  offset="0.58" style="stop-color:#BE4C55;stop-opacity:0.2"/>
								<stop  offset="0.62" style="stop-color:#C05057;stop-opacity:0.23"/>
								<stop  offset="0.68" style="stop-color:#C65B5C;stop-opacity:0.3"/>
								<stop  offset="0.75" style="stop-color:#CF6E64;stop-opacity:0.41"/>
								<stop  offset="0.83" style="stop-color:#DC8770;stop-opacity:0.57"/>
								<stop  offset="0.92" style="stop-color:#EDA87E;stop-opacity:0.78"/>
								<stop  offset="1" style="stop-color:#FFCB8E"/>
							</linearGradient>
							<polygon id="_Path_33" class="st35" points="549.2,53.8 549.2,53.8 549.2,53.8 							"/>
						</g>
						<path id="_Path_34" class="st21" d="M531.5,48.6c0,0-4.4-15.9-22.6-10.1c0,0,3.9-13.3-11-16.9c3.6,1.9,11.4,7.2,9.2,17.8
							c0,0,16.9-6.5,23,10.5c0,0,14.4-8.2,22.4,3.3C557.9,51.9,543.5,42.1,531.5,48.6z"/>
					</g>
					<g class="st17">
						<path id="_Path_35" class="st18" d="M100.1,26.9c0,0,1.1-29.1-25.6-20.6c0,0,0.5-21.2-38.3-19.9c-42,1.4-28.3,25.1-28.3,25.1
							s-19.5-6.1-27,0c-4,3.2-5.6,9.2-6.3,14.2c-22.2-11.2-39.4,6.8-33.4,8.2c6,1.3,33,0,33,0s16.7,2.3,25.8,0c0,0,32.6,5.3,67.5,1
							c0,0,16.3,3.3,32.6,0.3c0,0,22.6,0.6,30.6-1.3S117.6,17.5,100.1,26.9z"/>
						<g id="_Group_13">
							
								<linearGradient id="_Path_36_1_" gradientUnits="userSpaceOnUse" x1="14.1949" y1="485.9313" x2="43.9649" y2="578.5313" gradientTransform="matrix(1 0 0 -1 0 568)">
								<stop  offset="0" style="stop-color:#A085A5"/>
								<stop  offset="0.24" style="stop-color:#AC6D84;stop-opacity:0.67"/>
								<stop  offset="0.58" style="stop-color:#BE4C55;stop-opacity:0.2"/>
								<stop  offset="0.62" style="stop-color:#C05057;stop-opacity:0.23"/>
								<stop  offset="0.68" style="stop-color:#C65B5C;stop-opacity:0.3"/>
								<stop  offset="0.75" style="stop-color:#CF6E64;stop-opacity:0.41"/>
								<stop  offset="0.83" style="stop-color:#DC8770;stop-opacity:0.57"/>
								<stop  offset="0.92" style="stop-color:#EDA87E;stop-opacity:0.78"/>
								<stop  offset="1" style="stop-color:#FFCB8E"/>
							</linearGradient>
							<path id="_Path_36" class="st36" d="M95.4,32.9C84,37.8,59.2,25,59.2,25c-1.7,1.3-3.7,2.3-5.8,2.9C47,29.8,40.2,29,34.4,25.8
								C-7.3,2.2,33.8-13.4,34-13.5C0-11.7,5.3,5.6,7.3,10.3c2.4,3.2,5.2,6.1,8.4,8.4c-16-10.7-29-9.5-29.9-9.4
								c-1.8,0.3-3.5,1.1-5,2.2c-4,3.2-5.6,9.1-6.3,14.1c0.3,1.4,0.6,2.7,1,4c-2.5-2.7-5.4-5-8.6-6.7c-18.3-4.4-31.1,9.8-25.9,11
								c6,1.3,33,0,33,0s16.7,2.3,25.8,0c0,0,32.6,5.3,67.5,1c0,0,16.3,3.3,32.6,0.3c0,0,10.4,0.3,19.6-0.1
								C109.6,35,95.4,32.9,95.4,32.9z"/>
							
								<linearGradient id="_Path_37_1_" gradientUnits="userSpaceOnUse" x1="125.97" y1="533.47" x2="125.97" y2="533.47" gradientTransform="matrix(1 0 0 -1 0 568)">
								<stop  offset="0" style="stop-color:#A085A5"/>
								<stop  offset="0.24" style="stop-color:#AC6D84;stop-opacity:0.67"/>
								<stop  offset="0.58" style="stop-color:#BE4C55;stop-opacity:0.2"/>
								<stop  offset="0.62" style="stop-color:#C05057;stop-opacity:0.23"/>
								<stop  offset="0.68" style="stop-color:#C65B5C;stop-opacity:0.3"/>
								<stop  offset="0.75" style="stop-color:#CF6E64;stop-opacity:0.41"/>
								<stop  offset="0.83" style="stop-color:#DC8770;stop-opacity:0.57"/>
								<stop  offset="0.92" style="stop-color:#EDA87E;stop-opacity:0.78"/>
								<stop  offset="1" style="stop-color:#FFCB8E"/>
							</linearGradient>
							<polygon id="_Path_37" class="st37" points="126,34.5 126,34.5 126,34.5 							"/>
						</g>
						<path id="_Path_38" class="st21" d="M100.1,26.9c0,0,1.1-27.5-25.6-19c0,0-1.8-15-23.5-20.2c5.2,2.7,24.7,4.8,21.5,20.2
							c0,0,16.6-3.7,25.4,21c0,0,21-12,32.6,4.8C138.6,31.8,117.6,17.5,100.1,26.9z"/>
					</g>
					<g id="_Group_14" class="st17">
						<path id="_Path_39" class="st18" d="M159.7,195.6c0,0-3.8-13.9-19.9-8.8c0,0,4.8-16.3-18.6-15.6c-25.3,0.8-17,15.1-17,15.1
							s-11.7-3.6-16.3,0c-2.4,1.9-3.4,5.5-3.8,8.5c-13.4-6.7-23.7,4.1-20.1,4.9s19.9,0,19.9,0s10,1.4,15.6,0
							c13.5,1.9,27.1,2.1,40.7,0.6c6.5,1.2,13.1,1.2,19.6,0.2c0,0,13.6,0.4,18.4-0.8S170.3,190,159.7,195.6z"/>
						<g id="_Group_15">
							
								<linearGradient id="_Path_40_1_" gradientUnits="userSpaceOnUse" x1="108.0268" y1="339.1546" x2="125.9568" y2="394.9246" gradientTransform="matrix(1 0 0 -1 0 568)">
								<stop  offset="0" style="stop-color:#A085A5"/>
								<stop  offset="0.24" style="stop-color:#AC6D84;stop-opacity:0.67"/>
								<stop  offset="0.58" style="stop-color:#BE4C55;stop-opacity:0.2"/>
								<stop  offset="0.62" style="stop-color:#C05057;stop-opacity:0.23"/>
								<stop  offset="0.68" style="stop-color:#C65B5C;stop-opacity:0.3"/>
								<stop  offset="0.75" style="stop-color:#CF6E64;stop-opacity:0.41"/>
								<stop  offset="0.83" style="stop-color:#DC8770;stop-opacity:0.57"/>
								<stop  offset="0.92" style="stop-color:#EDA87E;stop-opacity:0.78"/>
								<stop  offset="1" style="stop-color:#FFCB8E"/>
							</linearGradient>
							<path id="_Path_40" class="st38" d="M156.9,199.2c-6.9,2.9-21.9-4.8-21.9-4.8c-1.1,0.8-2.2,1.4-3.5,1.8
								c-3.8,1.1-7.9,0.7-11.4-1.3c-25.1-14.2-0.4-23.6-0.2-23.6c-20.5,1.1-17.3,11.5-16.1,14.3c1.4,1.9,3.1,3.7,5.1,5.1
								c-9.6-6.4-17.5-5.8-18-5.7c-1.1,0.2-2.1,0.6-3,1.3c-2.4,1.9-3.4,5.5-3.8,8.5c0.2,0.8,0.4,1.6,0.6,2.4c-1.5-1.6-3.2-3-5.2-4.1
								c-11.1-2.6-18.8,5.9-15.6,6.6c3.6,0.8,19.9,0,19.9,0s10,1.4,15.6,0c13.5,1.9,27.1,2.1,40.7,0.6c6.5,1.2,13.1,1.2,19.6,0.2
								c0,0,6.3,0.2,11.8-0.1C166.6,200.4,161.8,199.9,156.9,199.2z"/>
							
								<linearGradient id="_Path_41_1_" gradientUnits="userSpaceOnUse" x1="175.31" y1="367.8" x2="175.31" y2="367.8" gradientTransform="matrix(1 0 0 -1 0 568)">
								<stop  offset="0" style="stop-color:#A085A5"/>
								<stop  offset="0.24" style="stop-color:#AC6D84;stop-opacity:0.67"/>
								<stop  offset="0.58" style="stop-color:#BE4C55;stop-opacity:0.2"/>
								<stop  offset="0.62" style="stop-color:#C05057;stop-opacity:0.23"/>
								<stop  offset="0.68" style="stop-color:#C65B5C;stop-opacity:0.3"/>
								<stop  offset="0.75" style="stop-color:#CF6E64;stop-opacity:0.41"/>
								<stop  offset="0.83" style="stop-color:#DC8770;stop-opacity:0.57"/>
								<stop  offset="0.92" style="stop-color:#EDA87E;stop-opacity:0.78"/>
								<stop  offset="1" style="stop-color:#FFCB8E"/>
							</linearGradient>
							<polygon id="_Path_41" class="st39" points="175.3,200.2 175.3,200.2 175.3,200.2 							"/>
						</g>
						<path id="_Path_42" class="st21" d="M159.7,195.6c0,0-3.8-13.9-19.9-8.8c0,0,3.4-11.7-9.7-14.8c3.2,1.6,10,6.4,8.1,15.7
							c0,0,14.8-5.7,20.2,9.2c0,0,12.6-7.2,19.7,2.9C182.9,198.6,170.3,190,159.7,195.6z"/>
					</g>
				</g>
			</g>
		</g>
	</g>
</g>
</svg>
