<svg xmlns="http://www.w3.org/2000/svg" xmlns:xlink="http://www.w3.org/1999/xlink" width="3619.46" height="2678.08"><defs><style>.a,.ae,.aj,.bn,.bo,.p{fill:none;}.b{isolation:isolate;}.c{clip-path:url(#a);}.d{fill:url(#b);}.e,.f,.h{fill:#ad5236;}.e{opacity:0.21;}.be,.f{opacity:0.76;}.g{opacity:0.26;}.i{opacity:0.09;}.j{opacity:0.1;}.k,.r{opacity:0.5;}.l{fill:#ce783f;}.m{fill:#b4673e;}.n{fill:#e49345;}.o{fill:#9b5c3f;}.p{stroke:#2d2d2d;stroke-width:7.47px;}.ai,.ak,.bn,.bo,.bp,.p{stroke-miterlimit:10;}.q{fill:#82820f;}.r{fill:#492e17;}.s{fill:url(#c);}.t{opacity:0.8;}.u{fill:#ffe7e1;}.v{fill:url(#d);}.w{fill:url(#e);}.af,.ah,.x{fill:#fff;}.y{fill:url(#f);}.z{fill:url(#g);}.aa{fill:url(#h);}.ab{fill:url(#i);}.ac{fill:url(#j);}.ad{fill:url(#k);}.ae,.ai,.aj,.ak,.bp{stroke:#f9f9f9;}.ae,.aj{stroke-linecap:round;stroke-linejoin:round;}.ae{stroke-width:2.9px;}.af,.ah{opacity:0.24;}.af,.ag{mix-blend-mode:soft-light;}.ai,.ak,.bp{fill:#f9f9f9;}.ai{stroke-width:1.45px;}.aj{stroke-width:2.92px;}.ak{stroke-width:1.46px;}.al{fill:url(#l);}.am{fill:url(#m);}.an{fill:url(#n);}.ao{fill:url(#o);}.ap{fill:url(#p);}.aq{fill:url(#q);}.ar{fill:url(#r);}.as{fill:url(#s);}.at{fill:#492812;}.au{fill:#86502a;}.av{fill:#784418;}.aw{fill:#b87f50;}.ax{fill:#5d3b20;}.ay{opacity:0.41;}.az{fill:#683f29;}.ba{fill:#5c2f0b;}.bb{fill:url(#t);}.bc{fill:url(#u);}.bd{fill:url(#v);}.bf{fill:url(#w);}.bg{opacity:0.49;}.bh{fill:url(#x);}.bi{opacity:0.7;}.bj{fill:url(#y);}.bk{opacity:0.57;}.bl{fill:#5b280c;}.bm{fill:#5e260b;}.bn,.bo{stroke:#fff;stroke-width:5.48px;}.bn{opacity:0.56;}.bp{stroke-width:1.37px;}</style><clipPath id="a" transform="translate(253.8 533.84)"><rect class="a" x="6.1" y="2" width="3232" height="1984"/></clipPath><linearGradient id="b" x1="1868.59" y1="360.53" x2="1868.59" y2="2238.51" gradientUnits="userSpaceOnUse"><stop offset="0" stop-color="#bc6e5c"/><stop offset="0.23" stop-color="#d19475"/><stop offset="0.45" stop-color="#e3b58a"/><stop offset="0.58" stop-color="#eac192"/><stop offset="0.66" stop-color="#ecc38b"/><stop offset="0.79" stop-color="#f1c778"/><stop offset="0.93" stop-color="#face59"/><stop offset="1" stop-color="#ffd248"/></linearGradient><linearGradient id="c" x1="1635.17" y1="1817.18" x2="1635.17" y2="1608.56" gradientUnits="userSpaceOnUse"><stop offset="0" stop-color="#bfa910"/><stop offset="1" stop-color="#cfa53d"/></linearGradient><linearGradient id="d" x1="2487.7" y1="294.82" x2="2576.96" y2="17.13" gradientUnits="userSpaceOnUse"><stop offset="0" stop-color="#edcb60"/><stop offset="0.08" stop-color="#e1d184"/><stop offset="0.19" stop-color="#d3d7af"/><stop offset="0.28" stop-color="#c9dccf"/><stop offset="0.37" stop-color="#c2dfe2"/><stop offset="0.42" stop-color="#c0e0e9"/><stop offset="0.49" stop-color="#b4d7e3"/><stop offset="0.62" stop-color="#93c1d2"/><stop offset="0.8" stop-color="#5f9cb6"/><stop offset="1" stop-color="#186b91"/></linearGradient><linearGradient id="e" x1="3059.96" y1="690.49" x2="3060.11" y2="690.02" xlink:href="#d"/><linearGradient id="f" x1="2758.83" y1="708.39" x2="2827.18" y2="495.75" gradientUnits="userSpaceOnUse"><stop offset="0" stop-color="#186b91"/><stop offset="0.2" stop-color="#5f9cb6"/><stop offset="0.38" stop-color="#93c1d2"/><stop offset="0.51" stop-color="#b4d7e3"/><stop offset="0.58" stop-color="#c0e0e9"/><stop offset="0.63" stop-color="#c2dfe2"/><stop offset="0.72" stop-color="#c9dccf"/><stop offset="0.81" stop-color="#d3d7af"/><stop offset="0.92" stop-color="#e1d184"/><stop offset="1" stop-color="#edcb60"/></linearGradient><linearGradient id="g" x1="3256.51" y1="1136.36" x2="3256.58" y2="1136.13" gradientUnits="userSpaceOnUse"><stop offset="0" stop-color="#a085a5"/><stop offset="0.24" stop-color="#ac6d84" stop-opacity="0.67"/><stop offset="0.58" stop-color="#be4c55" stop-opacity="0.2"/><stop offset="0.62" stop-color="#c05057" stop-opacity="0.23"/><stop offset="0.68" stop-color="#c65b5c" stop-opacity="0.3"/><stop offset="0.75" stop-color="#cf6e64" stop-opacity="0.41"/><stop offset="0.83" stop-color="#dc8770" stop-opacity="0.57"/><stop offset="0.92" stop-color="#eda87e" stop-opacity="0.78"/><stop offset="1" stop-color="#ffcb8e"/></linearGradient><linearGradient id="h" x1="752.16" y1="441.48" x2="812.2" y2="254.68" xlink:href="#f"/><linearGradient id="i" x1="1220.15" y1="882.45" x2="1220.31" y2="881.97" xlink:href="#f"/><linearGradient id="j" x1="1694.23" y1="640.42" x2="1803.55" y2="300.31" xlink:href="#g"/><linearGradient id="k" x1="2338.09" y1="1004.96" x2="2338.23" y2="1004.52" xlink:href="#g"/><linearGradient id="l" x1="1174.99" y1="256.51" x2="1274.69" y2="-53.64" xlink:href="#f"/><linearGradient id="m" x1="1784.49" y1="636" x2="1784.64" y2="635.54" xlink:href="#f"/><linearGradient id="n" x1="1434.82" y1="250.38" x2="1503.17" y2="37.74" xlink:href="#f"/><linearGradient id="o" x1="1932.5" y1="678.35" x2="1932.57" y2="678.13" xlink:href="#g"/><linearGradient id="p" x1="-19.63" y1="232.33" x2="80.06" y2="-77.83" xlink:href="#f"/><linearGradient id="q" x1="589.87" y1="611.81" x2="590.02" y2="611.35" xlink:href="#f"/><linearGradient id="r" x1="278.4" y1="744.34" x2="338.45" y2="557.54" xlink:href="#f"/><linearGradient id="s" x1="746.4" y1="1185.32" x2="746.55" y2="1184.84" xlink:href="#f"/><radialGradient id="t" cx="1792.99" cy="852.83" r="390.69" gradientTransform="translate(-2971.62 -2264.4) scale(2.46 2.71)" gradientUnits="userSpaceOnUse"><stop offset="0" stop-color="#b87f50" stop-opacity="0.4"/><stop offset="0.11" stop-color="#c2946d" stop-opacity="0.31"/><stop offset="0.31" stop-color="#d0b49a" stop-opacity="0.17"/><stop offset="0.52" stop-color="#dbcbbb" stop-opacity="0.08"/><stop offset="0.74" stop-color="#e1d9ce" stop-opacity="0.02"/><stop offset="1" stop-color="#e3ddd4" stop-opacity="0"/></radialGradient><radialGradient id="u" cx="1668.03" cy="868.84" r="260.43" xlink:href="#t"/><radialGradient id="v" cx="1832.97" cy="905.04" r="384.86" gradientTransform="translate(-2971.62 -2264.4) scale(2.46 2.71)" gradientUnits="userSpaceOnUse"><stop offset="0" stop-color="#b87f50" stop-opacity="0.3"/><stop offset="0.22" stop-color="#caa687" stop-opacity="0.17"/><stop offset="0.46" stop-color="#d8c5b2" stop-opacity="0.08"/><stop offset="0.71" stop-color="#e0d7cc" stop-opacity="0.02"/><stop offset="1" stop-color="#e3ddd4" stop-opacity="0"/></radialGradient><radialGradient id="w" cx="2416.18" cy="947.05" r="49.11" xlink:href="#v"/><radialGradient id="x" cx="2281.81" cy="870.93" r="73.25" xlink:href="#v"/><linearGradient id="y" x1="5877.74" y1="599.34" x2="5969.42" y2="599.34" gradientTransform="matrix(-0.98, -0.18, -0.18, 0.98, 6068.06, 577.44)" xlink:href="#v"/></defs><title>bigskyred</title><g class="b"><g class="c"><rect class="d" x="221.28" y="492.6" width="3294.62" height="2056.14"/><path class="e" d="M3221.14,1684.83a59.72,59.72,0,0,0,14-38.48c0-32.62-25.67-59.07-57.33-59.07a55.66,55.66,0,0,0-14.61,2c-1.66-11.58-11.31-20.47-23-20.47a22.62,22.62,0,0,0-10.78,2.74c-5.94-22.83-26.1-39.66-50.13-39.66-22.91,0-42.31,15.29-49.22,36.49a22.62,22.62,0,0,0-11.69-3.27c-12.31,0-22.36,9.84-23.21,22.3a17,17,0,0,0-14.77-3.37,26.72,26.72,0,0,0,.36-4.17c0-14.27-11.23-25.84-25.08-25.84a24.44,24.44,0,0,0-14.62,4.88c-2.09-17.31-16.38-30.72-33.75-30.72a33.23,33.23,0,0,0-6.49.65,41,41,0,0,0-36.51-22.81c-22.61,0-40.94,18.76-41.18,42a29.6,29.6,0,0,0-9-1.39c-16.82,0-30.46,14-30.46,31.38a32.13,32.13,0,0,0,.32,4.32c-.49.14-1,.25-1.48.39a29.6,29.6,0,0,0-38.85,1.47c-3.12-19.21-19.29-33.87-38.83-33.87-.23,0-.45,0-.68,0-3.36-18.91-19.41-33.26-38.74-33.26-17.48,0-32.28,11.73-37.44,28a29.59,29.59,0,0,0-30.35,5.09,40.23,40.23,0,0,0-25.37-9.05c-22.76,0-41.2,19-41.2,42.46,0,0,0,.06,0,.09a39.47,39.47,0,0,0-34.78,25.4,22.59,22.59,0,0,0-18.83-2.22c-5-17.7-20.78-30.65-39.56-30.65a41,41,0,0,0-35.91,21.67,31.34,31.34,0,0,0-38.42-.64,45.82,45.82,0,0,0-77.23.25,33.43,33.43,0,0,0-24-10.21c-18.8,0-34,15.7-34,35.07a36.21,36.21,0,0,0,.43,5.29,26.12,26.12,0,0,0-13-3.44c-13.52,0-24.67,10.3-26.56,23.69a41.57,41.57,0,0,0-40.12,10.18c-8.35-22-29.06-37.56-53.35-37.56a55.74,55.74,0,0,0-30.1,8.87,68.08,68.08,0,0,0-23.67-4.21,69.41,69.41,0,0,0-14.61,1.59c-1.66-9.16-11.31-16.21-23-16.21a27.45,27.45,0,0,0-10.78,2.17c-5.94-18.07-26.1-31.39-50.13-31.39-22.9,0-42.31,12.11-49.22,28.89a27.25,27.25,0,0,0-11.69-2.59c-12.31,0-22.36,7.79-23.21,17.66a20.44,20.44,0,0,0-10.83-3,21.76,21.76,0,0,0-3.94.38,16.81,16.81,0,0,0,.36-3.3c0-11.3-11.23-20.46-25.08-20.46a28.9,28.9,0,0,0-14.62,3.86c-2.09-13.7-16.38-24.32-33.75-24.32a41.7,41.7,0,0,0-6.49.52c-6.88-10.73-20.64-18.05-36.51-18.05-22.61,0-40.94,14.86-41.18,33.25a36.81,36.81,0,0,0-9-1.1c-16.82,0-30.46,11.12-30.46,24.84a20.18,20.18,0,0,0,.33,3.42c-.49.11-1,.19-1.48.31a34.81,34.81,0,0,0-18.56-5.19,34.43,34.43,0,0,0-20.29,6.35c-3.12-15.21-19.29-26.81-38.83-26.81l-.68,0c-3.36-15-19.41-26.33-38.74-26.33-17.48,0-32.28,9.29-37.44,22.14a36.44,36.44,0,0,0-10.93-1.68,34.72,34.72,0,0,0-19.41,5.7,47.15,47.15,0,0,0-25.37-7.16c-22.76,0-41.2,15-41.2,33.61,0,0,0,0,0,.07-15.8.58-29.16,8.71-34.77,20.11a27.22,27.22,0,0,0-11.81-2.64,28.15,28.15,0,0,0-7,.88c-5-14-20.78-24.26-39.56-24.26-15.42,0-28.85,6.92-35.91,17.16a38,38,0,0,0-38.42-.51c-8.38-10-22.51-16.65-38.53-16.65s-30.34,6.69-38.7,16.85a38.15,38.15,0,0,0-24-8.08c-15.66,0-28.81,8.64-32.78,20.38-10.41-10.77-26.22-17.65-43.95-17.65-24,0-44.54,12.66-52.81,30.52a46.85,46.85,0,0,0-28.76-9.52,49.82,49.82,0,0,0-10.95,1.25c-1.87-10.88-12.91-19.24-26.29-19.24a30.33,30.33,0,0,0-12.84,2.8,24.24,24.24,0,0,0,.42-4.3c0-15.74-15.08-28.5-33.69-28.5a36.9,36.9,0,0,0-23.76,8.3c-8.27-10.43-22.34-17.3-38.3-17.3s-29.84,6.78-38.14,17.09a36.49,36.49,0,0,0-38,.52c-7-10.5-20.28-17.61-35.54-17.61-18.58,0-34.24,10.52-39.15,24.9a26.93,26.93,0,0,0-7-.91,26.15,26.15,0,0,0-11.69,2.71c-5.55-11.69-18.78-20-34.42-20.64,0,0,0,0,0-.07,0-19.05-18.26-34.5-40.78-34.5a45.45,45.45,0,0,0-25.11,7.35,33.51,33.51,0,0,0-19.22-5.85,34.88,34.88,0,0,0-10.82,1.72c-5.11-13.19-19.76-22.72-37.06-22.72-19.13,0-35,11.66-38.34,27l-.67,0c-19.33,0-35.34,11.91-38.43,27.52a34.25,34.25,0,0,0-38.45-1.19c-.48-.12-1-.21-1.46-.32a21.57,21.57,0,0,0,.32-3.51c0-14.08-13.5-25.5-30.14-25.5a35.23,35.23,0,0,0-8.89,1.13c-.24-18.88-18.39-34.12-40.76-34.12-15.71,0-29.32,7.52-36.13,18.53a39.8,39.8,0,0,0-6.42-.53c-17.19,0-31.34,10.89-33.41,25a27.82,27.82,0,0,0-14.47-4c-13.71,0-24.83,9.4-24.83,21a17.87,17.87,0,0,0,.35,3.39,20.78,20.78,0,0,0-3.9-.39,19.71,19.71,0,0,0-10.72,3.12c-.84-10.12-10.79-18.12-23-18.12a26.17,26.17,0,0,0-11.57,2.65c-6.84-17.22-26-29.65-48.72-29.65-23.78,0-43.74,13.67-49.62,32.22a26.34,26.34,0,0,0-10.67-2.23c-11.58,0-21.13,7.23-22.78,16.63a66.38,66.38,0,0,0-14.46-1.63c-31.34,0-56.74,21.49-56.74,48,0,12,5.27,22.86,13.85,31.27-16.54,6.83-28,21.18-28,37.72,0,23.1,22.34,42,49.65,42H909.55c8.76,12,24.82,20.19,43.14,20.19H2063.44a60.79,60.79,0,0,0,7.45-.51,48.32,48.32,0,0,0,17.66,3.39H3199.3c27.59,0,50.16-23.26,50.16-51.69A51.94,51.94,0,0,0,3221.14,1684.83Z" transform="translate(253.8 533.84)"/><path class="f" d="M-134.75,1789.5c0,23.11,19.57,42,43.48,42H871.59c23.92,0,43.48-18.91,43.48-42a40.53,40.53,0,0,0-5.44-20.25,46.45,46.45,0,0,0,5.44-21.76c0-26.52-22.25-48-49.7-48-21.05,0-39,12.67-46.25,30.53a37.81,37.81,0,0,0-25.19-9.52,38.44,38.44,0,0,0-9.59,1.25c-1.64-10.88-11.31-19.25-23-19.25a23.82,23.82,0,0,0-11.24,2.8,27.61,27.61,0,0,0,.37-4.3c0-15.74-13.21-28.51-29.51-28.51a29.94,29.94,0,0,0-20.81,8.3,41.17,41.17,0,0,0-66.95-.21,28.6,28.6,0,0,0-33.31.52,35.91,35.91,0,0,0-31.13-17.62c-16.28,0-30,10.53-34.29,24.91a20.82,20.82,0,0,0-6.09-.91,20.6,20.6,0,0,0-10.24,2.72A34.09,34.09,0,0,0,488,1669.53s0-.05,0-.08c0-19.06-16-34.51-35.72-34.51a36.32,36.32,0,0,0-22,7.36,27.05,27.05,0,0,0-26.31-4.13,34.07,34.07,0,0,0-32.45-22.73c-16.76,0-30.67,11.66-33.58,27l-.59,0c-16.93,0-31,11.91-33.66,27.53a27,27,0,0,0-33.68-1.19c-.42-.12-.85-.21-1.28-.32A24.51,24.51,0,0,0,269,1665c0-14.09-11.82-25.51-26.4-25.51a27.24,27.24,0,0,0-7.78,1.13c-.21-18.89-16.1-34.14-35.7-34.14A35.86,35.86,0,0,0,167.5,1625a30.62,30.62,0,0,0-5.63-.53c-15.05,0-27.45,10.9-29.26,25a22.13,22.13,0,0,0-12.67-4c-12,0-21.74,9.4-21.74,21a20.33,20.33,0,0,0,.31,3.39,16,16,0,0,0-3.41-.39,15.73,15.73,0,0,0-9.39,3.13c-.73-10.13-9.45-18.13-20.12-18.13a20.6,20.6,0,0,0-10.13,2.65c-6-17.23-22.81-29.66-42.67-29.66-20.83,0-38.31,13.68-43.45,32.24a20.65,20.65,0,0,0-9.35-2.23A20,20,0,0,0-60,1674.09a51.25,51.25,0,0,0-12.67-1.63c-27.45,0-49.7,21.5-49.7,48a46.77,46.77,0,0,0,12.13,31.28C-124.68,1758.59-134.75,1772.94-134.75,1789.5Zm247.43-103.26q-1.83,2-3.46,4.25a14.59,14.59,0,0,0,1.31-5.11A22.65,22.65,0,0,0,112.68,1686.24Zm257.43,34.23h-1c.1-.25.22-.49.31-.74C369.65,1720,369.9,1720.22,370.12,1720.47Zm226,0h-.33l.16-.16Z" transform="translate(253.8 533.84)"/><path class="f" d="M3262.1,1806.8c0,23.11-17.66,42-39.25,42h-869.1c-21.59,0-39.25-18.91-39.25-42a43.94,43.94,0,0,1,4.91-20.25,50.49,50.49,0,0,1-4.91-21.76c0-26.52,20.08-48,44.86-48,19,0,35.21,12.67,41.74,30.53a32.31,32.31,0,0,1,22.74-9.52,31.52,31.52,0,0,1,8.65,1.25c1.48-10.88,10.2-19.25,20.78-19.25a19.86,19.86,0,0,1,10.15,2.8,30.52,30.52,0,0,1-.33-4.3c0-15.74,11.92-28.51,26.63-28.51a25.7,25.7,0,0,1,18.78,8.3c6.54-10.43,17.66-17.3,30.28-17.3s23.59,6.78,30.15,17.1a23.8,23.8,0,0,1,30.06.52c5.53-10.51,16-17.62,28.1-17.62,14.69,0,27.06,10.53,31,24.91a17.09,17.09,0,0,1,14.74,1.81c4.39-11.7,14.85-20.05,27.21-20.65,0,0,0-.05,0-.08,0-19.06,14.43-34.51,32.24-34.51a30.76,30.76,0,0,1,19.85,7.36,22.81,22.81,0,0,1,15.19-5.86,22.36,22.36,0,0,1,8.55,1.72c4-13.19,15.62-22.73,29.29-22.73,15.12,0,27.68,11.66,30.31,27l.53,0c15.28,0,27.94,11.91,30.38,27.53a22.51,22.51,0,0,1,30.4-1.19c.38-.12.77-.21,1.16-.32a27.1,27.1,0,0,1-.25-3.51c0-14.09,10.67-25.51,23.83-25.51a22.38,22.38,0,0,1,7,1.13c.19-18.89,14.53-34.14,32.22-34.14,12.42,0,23.18,7.52,28.56,18.54a25,25,0,0,1,5.08-.53c13.59,0,24.78,10.9,26.41,25a18.66,18.66,0,0,1,11.44-4c10.84,0,19.62,9.4,19.62,21a22.47,22.47,0,0,1-.28,3.39,13.11,13.11,0,0,1,3.08-.39,13.32,13.32,0,0,1,8.48,3.13c.66-10.13,8.53-18.13,18.16-18.13a17.21,17.21,0,0,1,9.15,2.65c5.41-17.23,20.59-29.66,38.51-29.66,18.8,0,34.58,13.68,39.22,32.24a17.18,17.18,0,0,1,8.44-2.23c9.15,0,16.71,7.23,18,16.64a42,42,0,0,1,11.43-1.63c24.77,0,44.86,21.5,44.86,48a49.69,49.69,0,0,1-10.95,31.28C3253,1775.9,3262.1,1790.25,3262.1,1806.8Zm-223.34-103.26q1.65,2,3.12,4.25a15.87,15.87,0,0,1-1.18-5.11A19.34,19.34,0,0,1,3038.77,1703.55Zm-232.36,34.23h.89c-.09-.25-.2-.49-.28-.74C2806.82,1737.3,2806.6,1737.53,2806.4,1737.78Zm-204,0h.3l-.15-.16Z" transform="translate(253.8 533.84)"/><path class="f" d="M2060.35,1827.57c0,23.11-17.66,42-39.25,42H1152c-21.59,0-39.25-18.91-39.25-42a43.94,43.94,0,0,1,4.91-20.25,50.49,50.49,0,0,1-4.91-21.76c0-26.52,20.08-48,44.86-48,19,0,35.21,12.67,41.74,30.53a32.31,32.31,0,0,1,22.74-9.52,31.52,31.52,0,0,1,8.65,1.25c1.48-10.88,10.2-19.25,20.78-19.25a19.86,19.86,0,0,1,10.15,2.8,30.52,30.52,0,0,1-.33-4.3c0-15.74,11.92-28.51,26.63-28.51a25.7,25.7,0,0,1,18.78,8.3c6.54-10.43,17.66-17.3,30.28-17.3s23.59,6.78,30.15,17.1a23.8,23.8,0,0,1,30.06.52c5.53-10.51,16-17.62,28.1-17.62,14.69,0,27.06,10.53,31,24.91a17.09,17.09,0,0,1,14.74,1.81c4.39-11.7,14.85-20.05,27.21-20.65,0,0,0-.05,0-.08,0-19.06,14.43-34.51,32.24-34.51a30.76,30.76,0,0,1,19.85,7.36,22.81,22.81,0,0,1,15.19-5.86,22.36,22.36,0,0,1,8.55,1.72c4-13.19,15.62-22.73,29.29-22.73,15.12,0,27.68,11.66,30.31,27l.53,0c15.28,0,27.94,11.91,30.38,27.53a22.51,22.51,0,0,1,30.4-1.19c.38-.12.77-.21,1.16-.32a27.1,27.1,0,0,1-.25-3.51c0-14.09,10.67-25.51,23.83-25.51a22.38,22.38,0,0,1,7,1.13c.19-18.89,14.53-34.14,32.22-34.14,12.42,0,23.18,7.52,28.56,18.54a25,25,0,0,1,5.08-.53c13.59,0,24.78,10.9,26.41,25a18.66,18.66,0,0,1,11.44-4c10.84,0,19.62,9.4,19.62,21a22.47,22.47,0,0,1-.28,3.39,13.11,13.11,0,0,1,3.08-.39,13.32,13.32,0,0,1,8.48,3.13c.66-10.13,8.53-18.13,18.16-18.13a17.21,17.21,0,0,1,9.15,2.65c5.41-17.23,20.59-29.66,38.51-29.66,18.8,0,34.58,13.68,39.22,32.24a17.18,17.18,0,0,1,8.44-2.23c9.15,0,16.71,7.23,18,16.64a42,42,0,0,1,11.43-1.63c24.77,0,44.86,21.5,44.86,48a49.69,49.69,0,0,1-10.95,31.28C2051.27,1796.67,2060.35,1811,2060.35,1827.57ZM1837,1724.32q1.65,2,3.12,4.25a15.87,15.87,0,0,1-1.18-5.11A19.34,19.34,0,0,1,1837,1724.32Zm-232.36,34.23h.89c-.09-.25-.2-.49-.28-.74C1605.07,1758.07,1604.85,1758.3,1604.65,1758.55Zm-204,0h.3l-.15-.16Z" transform="translate(253.8 533.84)"/><g class="g"><path class="h" d="M735.24,1421.65c6.43,6.92,13.6,13.65,22.34,19,8.79,5.08,20.11,8.18,31.58,10.44,6.7,1.3,13.63,2.3,20.57,3.07v-.06c-.08-37.52.08-75.07,2.15-112.71a516.58,516.58,0,0,1,5.92-56.56l.58-4.17-1-1.18,1.19-.36,7-50.19L838,1139l-67-54,68.76,41.1,1.24-9c2.4-18.66,4.51-37.34,6.44-56,.91-9.32,1.89-18.7,2.21-27.94a210.15,210.15,0,0,0-2.62-27.79c-3.08-18.48-8.74-36.89-18.93-54.29a158.78,158.78,0,0,0-18-25.31c-3.52-4.05-7.19-8.05-10.93-12s-7.72-7.94-9.69-12.47c2.18,4.48,6.43,8.31,10.24,12.23s7.79,7.83,11.51,11.82a166.11,166.11,0,0,1,19.31,25.11c11.12,17.35,17.73,35.86,21.72,54.5a213.62,213.62,0,0,1,4,28.22c.11,9.5-.43,18.83-.9,28.22-1.06,18.75-2.29,37.48-3.81,56.2l-10.25,112.32-4,43.63,79-23.77-80,34.12-.2,2.21a504.76,504.76,0,0,0-3.2,55.66c-.29,36.73,1.25,73.56,3.06,110.4l32.86-8.23,5,10L836.5,1461l5.23,105.29c.25,6.26.6,12.48.88,18.73l30.89-10.61-30.6,19.08c0,.34,0,.68,0,1,.12,9.6-.26,19.11-.77,28.61-1.08,19-3.19,37.83-5.59,56.64-4.93,37.64-11.39,74.93-19.12,112.42l-41.76-4.35c9.31-36.59,17.5-73.63,24.08-110.54,3.24-18.47,6.18-37,8.1-55.4.92-9.21,1.73-18.42,2-27.55s.06-18.66.12-28l-.28-105c-8-1.26-15.75-2.8-23.45-4.73-11.82-3-23.6-6.94-32.87-13.22-8.74-6.3-15.1-13.51-20.78-20.85a162.55,162.55,0,0,1-14.46-22.73A177.86,177.86,0,0,0,735.24,1421.65Z" transform="translate(253.8 533.84)"/></g><g class="g"><path class="h" d="M1061.41,1351.24c6.43,8.1,13.6,16,22.34,22.25,8.79,5.95,20.11,9.58,31.58,12.23,6.7,1.52,13.63,2.69,20.57,3.6v-.07c-.08-43.93.08-87.9,2.15-132,1-22,2.78-44.18,5.92-66.22l.58-4.88-1-1.38,1.19-.42,7-58.77,12.46-105.31-67-63.28,68.76,48.12,1.24-10.49q3.6-32.77,6.44-65.58c.91-10.92,1.89-21.9,2.21-32.71a287,287,0,0,0-2.62-32.54c-3.08-21.64-8.74-43.19-18.93-63.57a188.69,188.69,0,0,0-18-29.64c-3.52-4.75-7.19-9.43-10.93-14.09s-7.72-9.29-9.69-14.6c2.18,5.25,6.43,9.73,10.24,14.32s7.79,9.16,11.51,13.84a194.25,194.25,0,0,1,19.31,29.4c11.12,20.32,17.73,42,21.72,63.82a290.46,290.46,0,0,1,4,33c.11,11.12-.43,22.05-.9,33-1.06,22-2.29,43.88-3.81,65.8l-10.25,131.51-4,51.08,79-27.83-80,40-.2,2.59c-2.21,21.64-3,43.32-3.2,65.17-.29,43,1.25,86.13,3.06,129.27l32.86-9.64,5,11.66-37.44,8.41,5.23,123.28c.25,7.33.6,14.61.88,21.93l30.89-12.43-30.6,22.34c0,.4,0,.79,0,1.2.12,11.24-.26,22.38-.77,33.5-1.08,22.23-3.19,44.29-5.59,66.31-4.93,44.07-11.39,87.74-19.12,131.64l-41.76-5.1c9.31-42.85,17.5-86.21,24.08-129.43,3.24-21.63,6.18-43.28,8.1-64.86.92-10.78,1.73-21.56,2-32.26s.06-21.85.12-32.76l-.28-122.92a234,234,0,0,1-23.45-5.54c-11.82-3.57-23.6-8.13-32.87-15.47-8.74-7.37-15.1-15.82-20.78-24.41a197.3,197.3,0,0,1-14.46-26.61A207.22,207.22,0,0,0,1061.41,1351.24Z" transform="translate(253.8 533.84)"/></g><g class="i"><path class="h" d="M1113.21,1525a106.15,106.15,0,0,1-22.34,13.34c-8.79,3.57-20.11,5.74-31.58,7.33-6.7.91-13.63,1.61-20.57,2.16v0c.08-26.34-.08-52.7-2.15-79.12a259,259,0,0,0-5.92-39.7l-.58-2.93,1-.83-1.19-.25-7-35.23-12.46-63.13,67-37.94-68.76,28.85-1.24-6.29c-2.4-13.1-4.51-26.21-6.44-39.31-.91-6.54-1.89-13.13-2.21-19.61a105.06,105.06,0,0,1,2.62-19.51,91,91,0,0,1,18.93-38.11,122.05,122.05,0,0,1,18-17.77c3.52-2.84,7.19-5.65,10.93-8.44s7.72-5.57,9.69-8.75c-2.18,3.15-6.43,5.83-10.24,8.59s-7.79,5.49-11.51,8.3a133,133,0,0,0-19.31,17.62,98.19,98.19,0,0,0-21.72,38.26,108.55,108.55,0,0,0-4,19.81c-.11,6.67.43,13.22.9,19.81,1.06,13.16,2.29,26.31,3.81,39.45l10.25,78.84,4,30.62-79-16.69,80,23.95.2,1.55a250.16,250.16,0,0,1,3.2,39.07c.29,25.78-1.25,51.64-3.06,77.5l-32.86-5.78-5,7,37.44,5-5.23,73.91c-.25,4.39-.6,8.76-.88,13.15l-30.89-7.45,30.6,13.39c0,.24,0,.48,0,.72-.12,6.74.26,13.42.77,20.09,1.08,13.33,3.19,26.55,5.59,39.75a798.72,798.72,0,0,0,19.12,78.91l41.76-3.06c-9.31-25.69-17.5-51.68-24.08-77.59-3.24-13-6.18-25.95-8.1-38.88-.92-6.46-1.73-12.93-2-19.34s-.06-13.1-.12-19.64l.28-73.69c8-.89,15.75-2,23.45-3.32,11.82-2.14,23.6-4.87,32.87-9.28a91.22,91.22,0,0,0,20.78-14.64,118.2,118.2,0,0,0,14.46-16A143.73,143.73,0,0,1,1113.21,1525Z" transform="translate(253.8 533.84)"/></g><g class="j"><path class="h" d="M565.26,1553.08A65.93,65.93,0,0,1,551,1563.2c-5.44,2.59-12.23,3.91-19.06,4.74-4,.47-8.08.76-12.17.92v0c2.44-21.85,4.74-43.73,5.93-65.73a300.41,300.41,0,0,0,.16-33.19l-.07-2.45.64-.65-.67-.26L525,1437l-1.52-52.91,42.45-28.64-42.67,21-.15-5.27c-.21-11-.25-21.94-.18-32.89.07-5.47.09-11,.49-16.37a124.85,124.85,0,0,1,3.29-16.08,95.33,95.33,0,0,1,14.49-30.82,97.9,97.9,0,0,1,12.09-14c2.31-2.21,4.7-4.38,7.13-6.54s5-4.3,6.44-6.85c-1.55,2.52-4.28,4.57-6.75,6.69s-5,4.23-7.46,6.4a102.5,102.5,0,0,0-12.85,13.8,99.31,99.31,0,0,0-16.13,30.82,127.51,127.51,0,0,0-4.11,16.26c-.67,5.53-1,11-1.28,16.47-.58,11-1.06,21.92-1.36,32.89l-1.19,65.85-.46,25.58-44.51-17.2,44.4,23.26,0,1.3a295.05,295.05,0,0,1-1.69,32.55c-2.17,21.4-5.42,42.79-8.82,64.17L486,1560.36l-3.55,5.59,21.34,5.77-9.76,61.1c-.55,3.63-1.15,7.24-1.7,10.87L475,1636.19l16.61,12.41c0,.2-.06.39-.09.59-.68,5.59-1.07,11.14-1.38,16.7-.58,11.1-.56,22.16-.35,33.22.47,22.13,1.86,44.12,4,66.29l24.6-.76c-3.09-21.71-5.5-43.62-7-65.4-.71-10.89-1.24-21.79-1.18-32.61,0-5.4.17-10.8.57-16.13s1.16-10.87,1.72-16.3l6.86-61.13c4.72-.4,9.35-1,14-1.76,7.08-1.27,14.19-3,20-6.3a61.59,61.59,0,0,0,13.43-11.26,100.07,100.07,0,0,0,9.87-12.62A109.78,109.78,0,0,1,565.26,1553.08Z" transform="translate(253.8 533.84)"/></g><g class="g"><path class="h" d="M526.08,1492a79.64,79.64,0,0,1-16.64,14.15c-6.55,3.78-15,6.09-23.51,7.77-5,1-10.15,1.71-15.32,2.29v0c.06-27.94-.06-55.9-1.6-83.93a384.66,384.66,0,0,0-4.41-42.12l-.43-3.1.72-.88-.88-.27-5.18-37.37-9.28-67,49.87-40.24-51.21,30.6-.92-6.67c-1.79-13.89-3.36-27.8-4.8-41.7-.68-6.94-1.4-13.93-1.65-20.81a156.49,156.49,0,0,1,1.95-20.7c2.29-13.76,6.51-27.47,14.1-40.43a118.24,118.24,0,0,1,13.4-18.85c2.62-3,5.36-6,8.14-9s5.75-5.91,7.21-9.28c-1.62,3.34-4.79,6.19-7.63,9.11s-5.8,5.83-8.57,8.8a123.69,123.69,0,0,0-14.38,18.69c-8.28,12.92-13.2,26.7-16.18,40.59a159.07,159.07,0,0,0-3,21c-.08,7.07.32,14,.67,21,.79,14,1.7,27.91,2.84,41.85l7.64,83.63,3,32.49L391.19,1364l59.55,25.41.15,1.65a375.87,375.87,0,0,1,2.38,41.45c.22,27.35-.93,54.78-2.28,82.21l-24.47-6.13L422.8,1516l27.88,5.35-3.9,78.4c-.19,4.66-.45,9.29-.65,13.95l-23-7.9L445.91,1620c0,.26,0,.51,0,.76-.09,7.15.2,14.23.57,21.31.8,14.14,2.37,28.17,4.16,42.17,3.67,28,8.48,55.8,14.24,83.72l31.09-3.24c-6.93-27.25-13-54.83-17.93-82.31-2.41-13.75-4.6-27.52-6-41.25-.69-6.86-1.29-13.71-1.52-20.52s0-13.89-.09-20.83l.21-78.17c5.93-.94,11.73-2.08,17.46-3.52,8.8-2.27,17.58-5.17,24.48-9.84A74.3,74.3,0,0,0,528,1492.74a121,121,0,0,0,10.76-16.93A132.44,132.44,0,0,1,526.08,1492Z" transform="translate(253.8 533.84)"/><path class="h" d="M403.52,1362.67l1.36-2c6.09-9.19-.28-20-14.15-24l-1.36,2C383.28,1347.82,389.65,1358.63,403.52,1362.67Z" transform="translate(253.8 533.84)"/><path class="h" d="M359.43,1385l3.3.47c14.81,2.11,29.54-4.18,32.73-14h0l-3.3-.47C377.35,1368.95,362.63,1375.24,359.43,1385Z" transform="translate(253.8 533.84)"/><path class="h" d="M519.07,1488.24l3.25.6c4.08-9.66-4.51-19.78-19.1-22.48l-3.25-.6C495.89,1475.42,504.48,1485.54,519.07,1488.24Z" transform="translate(253.8 533.84)"/><path class="h" d="M539,1497.72l-10.42,1.49h0c2.35,7.21,13.18,11.84,24.08,10.29L563,1508C560.69,1500.79,549.86,1496.16,539,1497.72Z" transform="translate(253.8 533.84)"/><path class="h" d="M418.88,1604.12v-2.07c0-7.09-8.76-12.9-19.48-12.9v2.07C399.4,1598.32,408.17,1604.12,418.88,1604.12Z" transform="translate(253.8 533.84)"/><path class="h" d="M396.77,1623l3.1.25c10.64.84,20.38-4.24,21.65-11.28l-3.1-.25C407.78,1610.88,398,1616,396.77,1623Z" transform="translate(253.8 533.84)"/></g><g class="k"><path class="h" d="M1680.46,1378c-6.94,7.47-14.68,14.73-24.12,20.52-9.49,5.48-21.71,8.83-34.09,11.27-7.23,1.4-14.71,2.48-22.2,3.31v-.06c.09-40.5-.09-81-2.32-121.67a557.64,557.64,0,0,0-6.39-61.05l-.62-4.5,1.05-1.27-1.28-.39L1583,1170l-13.45-97.09,72.29-58.34-74.23,44.37-1.34-9.68c-2.59-20.14-4.87-40.3-7-60.46-1-10.06-2-20.19-2.39-30.16a226.86,226.86,0,0,1,2.82-30c3.32-20,9.43-39.82,20.44-58.61a171.4,171.4,0,0,1,19.43-27.32c3.8-4.37,7.76-8.69,11.8-13s8.34-8.57,10.46-13.46c-2.35,4.84-6.94,9-11.06,13.21s-8.41,8.45-12.43,12.76a179.31,179.31,0,0,0-20.85,27.1c-12,18.73-19.14,38.71-23.45,58.84a230.59,230.59,0,0,0-4.29,30.46c-.12,10.25.46,20.33,1,30.46,1.14,20.24,2.47,40.45,4.11,60.66L1565.93,1171l4.3,47.1-85.31-25.66,86.33,36.83.22,2.39a544.89,544.89,0,0,1,3.45,60.09c.31,39.65-1.35,79.41-3.3,119.18l-35.47-8.89-5.41,10.75,40.41,7.75-5.65,113.66c-.27,6.76-.65,13.47-.95,20.22L1531.2,1543l33,20.6c0,.37,0,.73,0,1.1-.13,10.36.28,20.63.83,30.89,1.16,20.5,3.44,40.83,6,61.14,5.32,40.63,12.3,80.89,20.64,121.36l45.08-4.7c-10-39.5-18.89-79.48-26-119.33-3.5-19.94-6.67-39.9-8.74-59.8-1-9.94-1.86-19.88-2.2-29.74s-.06-20.14-.12-30.2l.31-113.33c8.6-1.36,17-3,25.31-5.11,12.76-3.29,25.48-7.5,35.48-14.27,9.44-6.8,16.3-14.58,22.43-22.51a175.47,175.47,0,0,0,15.6-24.54A192,192,0,0,1,1680.46,1378Z" transform="translate(253.8 533.84)"/><path class="h" d="M1502.78,1190.5l2-3c8.83-13.32-.4-29-20.51-34.84l-2,3C1473.45,1169,1482.68,1184.65,1502.78,1190.5Z" transform="translate(253.8 533.84)"/><path class="h" d="M1438.88,1222.95l4.78.68c21.47,3.06,42.82-6.06,47.44-20.28h0l-4.78-.68C1464.86,1199.61,1443.51,1208.73,1438.88,1222.95Z" transform="translate(253.8 533.84)"/><path class="h" d="M1670.3,1372.54l4.71.87c5.92-14-6.54-28.67-27.69-32.59l-4.71-.87C1636.69,1354,1649.15,1368.62,1670.3,1372.54Z" transform="translate(253.8 533.84)"/><path class="h" d="M1699.13,1386.28l-15.1,2.15h0c3.4,10.46,19.11,17.17,34.9,14.92l15.1-2.15C1730.63,1390.74,1714.93,1384,1699.13,1386.28Z" transform="translate(253.8 533.84)"/><path class="h" d="M1525.06,1540.53v-3c0-10.28-12.71-18.7-28.23-18.7v3C1496.82,1532.12,1509.53,1540.53,1525.06,1540.53Z" transform="translate(253.8 533.84)"/><path class="h" d="M1493,1567.9l4.5.36c15.42,1.22,29.54-6.14,31.38-16.35l-4.5-.36C1509,1550.33,1494.84,1557.69,1493,1567.9Z" transform="translate(253.8 533.84)"/></g><path class="h" d="M124.47,1392.2c-6.94,7.47-14.68,14.73-24.12,20.52-9.49,5.48-21.71,8.83-34.09,11.27-7.23,1.4-14.71,2.48-22.2,3.31v-.06c.09-40.5-.09-81-2.32-121.67a557.64,557.64,0,0,0-6.39-61.05l-.62-4.5,1.05-1.27-1.28-.39L27,1184.17l-13.45-97.09,72.29-58.34L11.6,1073.1l-1.34-9.68c-2.59-20.14-4.87-40.3-7-60.46-1-10.06-2-20.19-2.39-30.16a226.85,226.85,0,0,1,2.82-30c3.32-20,9.43-39.82,20.44-58.61a171.4,171.4,0,0,1,19.43-27.32c3.8-4.37,7.76-8.69,11.8-13s8.34-8.57,10.46-13.46c-2.35,4.84-6.94,9-11.06,13.21s-8.41,8.45-12.43,12.76a179.31,179.31,0,0,0-20.85,27.1c-12,18.73-19.14,38.71-23.45,58.84a230.59,230.59,0,0,0-4.29,30.46c-.12,10.25.46,20.33,1,30.46,1.14,20.24,2.47,40.45,4.11,60.66L9.95,1185.16l4.3,47.1-85.31-25.66,86.33,36.83.22,2.39a544.89,544.89,0,0,1,3.45,60.09c.31,39.65-1.35,79.41-3.3,119.18l-35.47-8.89-5.41,10.75,40.41,7.75L9.51,1548.35c-.27,6.76-.65,13.47-.95,20.22l-33.35-11.46,33,20.6c0,.37,0,.73,0,1.1-.13,10.36.28,20.63.83,30.89,1.16,20.5,3.44,40.83,6,61.14,5.32,40.63,12.3,80.89,20.64,121.36l45.08-4.7c-10-39.5-18.89-79.48-26-119.33-3.5-19.94-6.67-39.9-8.74-59.8-1-9.94-1.86-19.88-2.2-29.74s-.06-20.14-.12-30.2L44,1435.11c8.6-1.36,17-3,25.31-5.11,12.76-3.29,25.48-7.5,35.48-14.27,9.44-6.8,16.3-14.58,22.43-22.51a175.47,175.47,0,0,0,15.6-24.54A192,192,0,0,1,124.47,1392.2Z" transform="translate(253.8 533.84)"/><path class="h" d="M-53.2,1204.66l2-3c8.83-13.32-.4-29-20.51-34.84l-2,3C-82.54,1183.14-73.31,1198.82-53.2,1204.66Z" transform="translate(253.8 533.84)"/><path class="h" d="M-117.1,1237.11l4.78.68c21.47,3.06,42.82-6.06,47.44-20.28h0l-4.78-.68C-91.13,1213.77-112.48,1222.89-117.1,1237.11Z" transform="translate(253.8 533.84)"/><path class="h" d="M114.32,1386.71l4.71.87c5.92-14-6.54-28.67-27.69-32.59l-4.71-.87C80.71,1368.12,93.17,1382.78,114.32,1386.71Z" transform="translate(253.8 533.84)"/><path class="h" d="M143.15,1400.44l-15.1,2.15h0c3.4,10.46,19.11,17.17,34.9,14.92l15.1-2.15C174.65,1404.9,158.94,1398.19,143.15,1400.44Z" transform="translate(253.8 533.84)"/><path class="h" d="M-30.93,1554.7v-3c0-10.28-12.71-18.7-28.23-18.7v3C-59.16,1546.28-46.46,1554.7-30.93,1554.7Z" transform="translate(253.8 533.84)"/><path class="h" d="M-63,1582.06l4.5.36c15.42,1.22,29.54-6.14,31.38-16.35l-4.5-.36C-47,1564.49-61.15,1571.85-63,1582.06Z" transform="translate(253.8 533.84)"/><g class="g"><path class="h" d="M1628,1335.84c6.43,8.1,13.6,16,22.34,22.25,8.79,5.95,20.11,9.58,31.58,12.23,6.7,1.52,13.63,2.69,20.57,3.6v-.07c-.08-43.93.08-87.9,2.15-132,1-22,2.78-44.18,5.92-66.22l.58-4.88-1-1.38,1.19-.42,7-58.77,12.46-105.31-67-63.28,68.76,48.12,1.24-10.49q3.6-32.77,6.44-65.58c.91-10.92,1.89-21.9,2.21-32.71a287,287,0,0,0-2.62-32.54c-3.08-21.64-8.74-43.19-18.93-63.57a188.69,188.69,0,0,0-18-29.64c-3.52-4.75-7.19-9.43-10.93-14.09s-7.72-9.29-9.69-14.6c2.18,5.25,6.43,9.73,10.24,14.32s7.79,9.16,11.51,13.84a194.25,194.25,0,0,1,19.31,29.4c11.12,20.32,17.73,42,21.72,63.82a290.47,290.47,0,0,1,4,33c.11,11.12-.43,22.05-.9,33-1.06,22-2.29,43.88-3.81,65.8l-10.25,131.51-4,51.08,79-27.83-80,40-.2,2.59c-2.21,21.64-3,43.32-3.2,65.17-.29,43,1.25,86.13,3.06,129.27l32.86-9.64,5,11.66-37.44,8.41,5.23,123.28c.25,7.33.6,14.61.88,21.93l30.89-12.43-30.6,22.34c0,.4,0,.79,0,1.2.12,11.24-.26,22.38-.77,33.5-1.08,22.23-3.19,44.29-5.59,66.31-4.93,44.07-11.39,87.74-19.12,131.64l-41.76-5.1c9.31-42.85,17.5-86.21,24.08-129.43,3.24-21.63,6.18-43.28,8.1-64.86.92-10.78,1.73-21.56,2-32.26s.06-21.85.12-32.76l-.28-122.92a234,234,0,0,1-23.45-5.54c-11.82-3.57-23.6-8.13-32.87-15.47-8.74-7.37-15.1-15.82-20.78-24.41a197.3,197.3,0,0,1-14.46-26.61A207.22,207.22,0,0,0,1628,1335.84Z" transform="translate(253.8 533.84)"/></g><g class="g"><path class="h" d="M2254,1332.73c6.43,8.1,13.6,16,22.34,22.25,8.79,5.95,20.11,9.58,31.58,12.23,6.7,1.52,13.63,2.69,20.57,3.6v-.07c-.08-43.93.08-87.9,2.15-132,1-22,2.78-44.18,5.92-66.22l.58-4.88-1-1.38,1.19-.42,7-58.77,12.46-105.31-67-63.28,68.76,48.12,1.24-10.49q3.6-32.77,6.44-65.58c.91-10.92,1.89-21.9,2.21-32.71a287,287,0,0,0-2.62-32.54c-3.08-21.64-8.74-43.19-18.93-63.57a188.69,188.69,0,0,0-18-29.64c-3.52-4.75-7.19-9.43-10.93-14.09s-7.72-9.29-9.69-14.6c2.18,5.25,6.43,9.73,10.24,14.32s7.79,9.16,11.51,13.84A194.25,194.25,0,0,1,2349.4,781c11.12,20.32,17.73,42,21.72,63.82a290.46,290.46,0,0,1,4,33c.11,11.12-.43,22.05-.9,33-1.06,22-2.29,43.88-3.81,65.8l-10.25,131.51-4,51.08,79-27.83-80,40-.2,2.59c-2.21,21.64-3,43.32-3.2,65.17-.29,43,1.25,86.13,3.06,129.27l32.86-9.64,5,11.66-37.44,8.41,5.23,123.28c.25,7.33.6,14.61.88,21.93l30.89-12.43-30.6,22.34c0,.4,0,.79,0,1.2.12,11.24-.26,22.38-.77,33.5-1.08,22.23-3.19,44.29-5.59,66.31-4.93,44.07-11.39,87.74-19.12,131.64l-41.76-5.1c9.31-42.85,17.5-86.21,24.08-129.43,3.24-21.63,6.18-43.28,8.1-64.86.92-10.78,1.73-21.56,2-32.26s.06-21.85.12-32.76l-.28-122.92a234,234,0,0,1-23.45-5.54c-11.82-3.57-23.6-8.13-32.87-15.47-8.74-7.37-15.1-15.82-20.78-24.41a197.3,197.3,0,0,1-14.46-26.61A207.22,207.22,0,0,0,2254,1332.73Z" transform="translate(253.8 533.84)"/></g><g class="i"><path class="h" d="M2335.66,1515.27a106.15,106.15,0,0,1-22.34,13.34c-8.79,3.57-20.11,5.74-31.58,7.33-6.7.91-13.63,1.61-20.57,2.16v0c.08-26.34-.08-52.7-2.15-79.12a259,259,0,0,0-5.92-39.7l-.58-2.93,1-.83-1.19-.25-7-35.23-12.46-63.13,67-37.94-68.76,28.85-1.24-6.29c-2.4-13.1-4.51-26.21-6.44-39.31-.91-6.54-1.89-13.13-2.21-19.61a105.06,105.06,0,0,1,2.62-19.51,91,91,0,0,1,18.93-38.11,122.05,122.05,0,0,1,18-17.77c3.52-2.84,7.19-5.65,10.93-8.44s7.72-5.57,9.69-8.75c-2.18,3.15-6.43,5.83-10.24,8.59s-7.79,5.49-11.51,8.3a133,133,0,0,0-19.31,17.62,98.19,98.19,0,0,0-21.72,38.26,108.55,108.55,0,0,0-4,19.81c-.11,6.67.43,13.22.9,19.81,1.06,13.16,2.29,26.31,3.81,39.45l10.25,78.84,4,30.62-79-16.69,80,23.95.2,1.55a250.16,250.16,0,0,1,3.2,39.07c.29,25.78-1.25,51.64-3.06,77.5l-32.86-5.78-5,7,37.44,5-5.23,73.91c-.25,4.39-.6,8.76-.88,13.15l-30.89-7.45,30.6,13.39c0,.24,0,.48,0,.72-.12,6.74.26,13.42.77,20.09,1.08,13.33,3.19,26.55,5.59,39.75a798.72,798.72,0,0,0,19.12,78.91l41.76-3.06c-9.31-25.69-17.5-51.68-24.08-77.59-3.24-13-6.18-25.95-8.1-38.88-.92-6.46-1.73-12.93-2-19.34s-.06-13.1-.12-19.64l.28-73.69c8-.89,15.75-2,23.45-3.32,11.82-2.14,23.6-4.87,32.87-9.28a91.22,91.22,0,0,0,20.78-14.64,118.2,118.2,0,0,0,14.46-16A143.73,143.73,0,0,1,2335.66,1515.27Z" transform="translate(253.8 533.84)"/></g><g class="i"><path class="h" d="M2921.88,1490.14a106.15,106.15,0,0,1-22.34,13.34c-8.79,3.57-20.11,5.74-31.58,7.33-6.7.91-13.63,1.61-20.57,2.16v0c.08-26.34-.08-52.7-2.15-79.12a259,259,0,0,0-5.92-39.7l-.58-2.93,1-.83-1.19-.25-7-35.23-12.46-63.13,67-37.94-68.76,28.85-1.24-6.29c-2.4-13.1-4.51-26.21-6.44-39.31-.91-6.54-1.89-13.13-2.21-19.61a105.06,105.06,0,0,1,2.62-19.51,91,91,0,0,1,18.93-38.11,122.05,122.05,0,0,1,18-17.77c3.52-2.84,7.19-5.65,10.93-8.44s7.72-5.57,9.69-8.75c-2.18,3.15-6.43,5.83-10.24,8.59s-7.79,5.49-11.51,8.3a133,133,0,0,0-19.31,17.62,98.19,98.19,0,0,0-21.72,38.26,108.55,108.55,0,0,0-4,19.81c-.11,6.67.43,13.22.9,19.81,1.06,13.16,2.29,26.31,3.81,39.45l10.25,78.84,4,30.62-79-16.69,80,23.95.2,1.55a250.16,250.16,0,0,1,3.2,39.07c.29,25.78-1.25,51.64-3.06,77.5l-32.86-5.78-5,7,37.44,5-5.23,73.91c-.25,4.39-.6,8.76-.88,13.15l-30.89-7.45,30.6,13.39c0,.24,0,.48,0,.72-.12,6.74.26,13.42.77,20.09,1.08,13.33,3.19,26.55,5.59,39.75a798.72,798.72,0,0,0,19.12,78.91l41.76-3.06c-9.31-25.69-17.5-51.68-24.08-77.59-3.24-13-6.18-25.95-8.1-38.88-.92-6.46-1.73-12.93-2-19.34s-.06-13.1-.12-19.64l.28-73.69c8-.89,15.75-2,23.45-3.32,11.82-2.14,23.6-4.87,32.87-9.28a91.22,91.22,0,0,0,20.78-14.64,118.2,118.2,0,0,0,14.46-16A143.73,143.73,0,0,1,2921.88,1490.14Z" transform="translate(253.8 533.84)"/></g><path class="h" d="M3121.09,1321.07c-7.75,8.35-16.4,16.46-26.95,22.92-10.6,6.13-24.25,9.86-38.08,12.59-8.08,1.57-16.44,2.77-24.81,3.7v-.07c.1-45.25-.1-90.54-2.59-135.93a623,623,0,0,0-7.14-68.21l-.7-5,1.17-1.42-1.43-.43-8.39-60.53-15-108.47L3077.92,915,2995,964.57l-1.5-10.81c-2.89-22.5-5.44-45-7.77-67.55-1.09-11.24-2.28-22.55-2.66-33.7a253.45,253.45,0,0,1,3.15-33.52c3.71-22.29,10.54-44.49,22.84-65.48a191.5,191.5,0,0,1,21.7-30.53c4.25-4.89,8.67-9.71,13.18-14.51s9.31-9.57,11.68-15c-2.62,5.41-7.76,10-12.36,14.75s-9.39,9.44-13.88,14.26a200.34,200.34,0,0,0-23.29,30.28c-13.41,20.93-21.38,43.25-26.2,65.73a257.63,257.63,0,0,0-4.8,34c-.14,11.45.52,22.71,1.08,34,1.27,22.61,2.76,45.2,4.59,67.77l12.37,135.46,4.81,52.62-95.31-28.67,96.45,41.15.24,2.67a608.76,608.76,0,0,1,3.85,67.13c.35,44.29-1.51,88.72-3.69,133.15l-39.63-9.93-6,12,45.15,8.66-6.31,127c-.3,7.55-.73,15-1.06,22.59l-37.26-12.8,36.91,23c0,.41,0,.82,0,1.23-.14,11.58.32,23.05.93,34.51,1.3,22.9,3.84,45.62,6.74,68.3,5.94,45.39,13.74,90.37,23.06,135.59l50.36-5.25c-11.23-44.13-21.11-88.8-29-133.32-3.91-22.28-7.46-44.58-9.76-66.81-1.12-11.11-2.08-22.21-2.46-33.23s-.07-22.5-.14-33.74l.34-126.61c9.61-1.52,19-3.37,28.28-5.71,14.26-3.68,28.47-8.38,39.64-15.94,10.54-7.6,18.21-16.29,25.06-25.15a196,196,0,0,0,17.43-27.41A214.51,214.51,0,0,1,3121.09,1321.07Z" transform="translate(253.8 533.84)"/><path class="h" d="M2922.59,1111.55l2.2-3.31c9.86-14.88-.45-32.39-22.92-38.92l-2.2,3.31C2889.81,1087.51,2900.12,1105,2922.59,1111.55Z" transform="translate(253.8 533.84)"/><path class="h" d="M2851.19,1147.8l5.34.76c24,3.42,47.84-6.77,53-22.65h0l-5.34-.76C2880.21,1121.73,2856.36,1131.92,2851.19,1147.8Z" transform="translate(253.8 533.84)"/><path class="h" d="M3109.74,1314.94l5.26,1c6.61-15.65-7.3-32-30.93-36.41l-5.26-1C3072.2,1294.17,3086.12,1310.56,3109.74,1314.94Z" transform="translate(253.8 533.84)"/><path class="h" d="M3142,1330.29l-16.87,2.41h0c3.8,11.68,21.35,19.18,39,16.66L3181,1347C3177.15,1335.27,3159.6,1327.77,3142,1330.29Z" transform="translate(253.8 533.84)"/><path class="h" d="M2947.47,1502.62v-3.35c0-11.49-14.2-20.89-31.54-20.89v3.35C2915.93,1493.22,2930.12,1502.62,2947.47,1502.62Z" transform="translate(253.8 533.84)"/><path class="h" d="M2911.65,1533.2l5,.4c17.23,1.36,33-6.86,35.06-18.27l-5-.4C2929.49,1513.57,2913.71,1521.79,2911.65,1533.2Z" transform="translate(253.8 533.84)"/><path class="l" d="M-20.34,1818.89c-4.48,14.61-12.49,29.18-22.94,42.74,12.28,19.76,19.06,41,19.06,61.78v218.32c9.85-.87,19.72-1.37,29.52-1.39,164.25-.32,327.51-15.26,491.76-15.58,42.27-.08,81.13,7,114.84,19.47,86.62-8.15,173.25-15.71,260.81-19.47,198.56-8.52,398.21-5.19,597.06-5.19h611.85c44.35,0,84.92,7.87,119.75,21.46,362.37-19.5,726.7-21.44,1090.13-21.46,3.83,0,7.62.08,11.39.19V1818.89Z" transform="translate(253.8 533.84)"/><path class="m" d="M-3.3,2042.48c-7.05,1-14,1.81-20.92,2.57v94.54c184.3-16.77,283-85,359.57-147.92C452.94,1895.13,722.15,1864,722.15,1864,401.7,1865.87,255.39,2006.91-3.3,2042.48Z" transform="translate(253.8 533.84)"/><path class="m" d="M1431.27,1818.91s-373.66,39.32-395.09,144.81c-15.32,75.4-7.85,131.59-286.91,157.52a1085.63,1085.63,0,0,0-138.91,22.45l1.57.55c86.62-8.15,173.24-15.72,260.79-19.48q54-2.32,108.08-3.55c63.37-26.79,119-74.87,144.74-180.36,28.31-116,437.42-104.16,437.42-104.16Z" transform="translate(253.8 533.84)"/><path class="n" d="M231.88,1805.23s23.28,11.43,9.41,72.12c-11.76,51.42-75.33,96.48-230.47,121.57,0,0,183.44,10.54,390.39-149.51Z" transform="translate(253.8 533.84)"/><path class="n" d="M2847,1818.91s-9.41,193.08-860.74,203.25c-256.33,3.06-449.42,43-594.26,97.28q38.89.12,77.76.14h353.65c70.22-26.53,160.5-45.71,275.74-54.23C2889.35,2006.91,2847,1818.91,2847,1818.91Z" transform="translate(253.8 533.84)"/><path class="m" d="M1685.25,1818.91s-207,81.3-225.77,160.06-282.21,78.76-338.65,132.11c0,0,103.48-27.9,230.47-45.73,119.75-16.81,136.4-16.09,172.46-91,14.24-29.61-37.63-97,335.52-72.16,242.7,16.13,442.13-70.53,442.13-70.53l-159.92-12.7s-103,81.87-227.92,68.6S1685.25,1818.91,1685.25,1818.91Z" transform="translate(253.8 533.84)"/><path class="m" d="M2457.15,2130c136-57.53,307-122.79,469.86-165,127.43-33,259.54-25.36,375.9-2.36V1860.88c-11.28-.27-23.17-.33-35.47,0H3267c-48.78,1.26-105.48,7.36-171.54,20.58-122.45,24.48-276.61,73.39-469.49,161-74.18,33.7-142.66,63.12-205.89,88.81Q2438.63,2130.6,2457.15,2130Z" transform="translate(253.8 533.84)"/><path class="n" d="M2828.07,2121.84c43.14-12.1,90.07-25.84,141.21-41.23,112.7-33.92,231.19-26.35,333.62-4.56v-75.36c-120.73-27.77-262.39-33.37-385.35,34.14-71.63,39.35-137.19,67.88-195.16,88.56Q2775.23,2122.48,2828.07,2121.84Z" transform="translate(253.8 533.84)"/><path class="n" d="M641.08,2003.74c-92.36,9.36-226.94,63.55-358.71,127.36q41.08-1.88,82.17-3.46c104.83-42.11,206-76.22,281.24-87.71,250.68-38.32,333.95-162.6,333.95-162.6S885.66,1979,641.08,2003.74Z" transform="translate(253.8 533.84)"/><path class="o" d="M-24.22,1951.52v22c11.35,1.84,26.56,1.11,44-7.91C42.84,1953.68,4,1949-24.22,1951.52Z" transform="translate(253.8 533.84)"/><path class="o" d="M482.73,1984s25.09-44.38,90.93-33.2,43.9,23.45,43.9,23.45S517.22,2002.68,482.73,1984Z" transform="translate(253.8 533.84)"/><path class="o" d="M1795,1946.44s-38,29.39,0,30.35S1840.62,1937.72,1795,1946.44Z" transform="translate(253.8 533.84)"/><path class="o" d="M1576.52,1954.4s22.15,15.88,52.92,0S1554.37,1938.52,1576.52,1954.4Z" transform="translate(253.8 533.84)"/><path class="o" d="M1649,1968.78s20.29-35.9,73.55-26.85,35.51,19,35.51,19S1676.89,1983.85,1649,1968.78Z" transform="translate(253.8 533.84)"/><path class="o" d="M600.59,1918h0c-10.12,7.83-6.06,18.72,9.06,23.67,23.17,7.58,57,15.64,83.16,9.19,14.63-3.61,19.25-12,16.32-21C700,1901.78,630.83,1894.59,600.59,1918Z" transform="translate(253.8 533.84)"/><path class="p" d="M2111.83,2120.86c6.9.57,13.7,1.3,20.36,2.25,4-.68,6.71-2.89,5.85-5.27-2-5.59-11.11-9.61-21.65-9.61l-4.8,3.12C2107,2114.35,2107.76,2118.33,2111.83,2120.86Z" transform="translate(253.8 533.84)"/><path class="o" d="M1746.26,1966l-5,3.26c-7.67,5-1.1,12.54,10.9,12.53h8c5.61,0,9.83-2.77,8.74-5.75h0c-2.13-5.84-11.61-10-22.62-10Z" transform="translate(253.8 533.84)"/><path class="q" d="M1571.07,1767.62c-111.58,0-218.59,0-330.17-12.19-79.06-9.77-148.88-26.79-232.51-17.07-227.94,24.37-441.85,26.79-665.11,29.26C223.84,1769.35,99.66,1776-19.14,1770a122.19,122.19,0,0,1,2.73,18.46c1.62,24.05-9.06,50.12-26.86,73.23,2,3.22,3.8,6.49,5.51,9.78,91.87,4.49,186.88,1.52,280.44-.88,26.32-.66,52.54-1.26,78.45-1.65,18.29-.22,36.48-.38,54.67-.6,203.65-2.36,401.1-6.2,610.34-28.6,83.74-9.77,153.45,7.3,232.51,17,.81.11,1.52.16,2.34.22,12.7,1.43,25.41,2.63,38,3.68,97.25,8.29,191.76,8.29,289.82,8.29,10.16.22,20.43.38,30.59.49q122.86,2.14,245,1.59h.1q111.73-.16,223.16-1.87,74.08-1,148-2.42c210-3.73,419.7-8.84,630.36-10.1h.1c3.76-.05,7.62-.11,11.48-.11,142.68-.82,285.76.11,429.45,4.39h.41c11.79.38,23.58.77,35.47,1.21V1760C2721.22,1741.88,2150.11,1778.93,1571.07,1767.62Z" transform="translate(253.8 533.84)"/><path class="r" d="M3267.44,1860.88H3267c-143.69-4.28-286.78-5.21-429.45-4.39-3.86,0-7.72.05-11.48.11h-.1c-210.66,1.26-420.41,6.37-630.36,10.1q-73.93,1.4-148,2.42-111.43,1.56-223.16,1.87h-.1q-122.25.41-245-1.59c-10.16-.11-20.43-.27-30.59-.49-98.07,0-192.57,0-289.83-8.29-12.6-1-25.3-2.25-38-3.68-.81-.05-1.52-.11-2.34-.22-79.06-9.72-148.77-26.79-232.51-17-209.24,22.4-406.69,26.24-610.34,28.6-18.19.22-36.38.38-54.67.6-25.91.38-52.13,1-78.45,1.65-93.56,2.4-188.57,5.37-280.44.88A125.72,125.72,0,0,1-28.08,1896c86.34,3.72,175.3,1.15,263-1.07,29-.77,57.72-1.48,86.18-1.87,6.1-.05,12.09-.16,18.19-.22h.1c52.74-.6,105.18-1.21,157.21-2.14h.1q44.21-.82,88.31-2h.1c132-3.51,263.91-10.21,401-24.87,64.33-7.47,120.42.88,178.85,9.55,11.08,1.65,22.36,3.29,33.74,4.89,6.61.93,13.21,1.81,19.92,2.63,108.63,11.86,213,12.19,321.43,12.19h8.74c173.77,3.4,346.73,2.42,519.59-.05h.1c243.28-3.57,486.16-10.21,730.05-12.08,6.91-.05,13.82-.11,20.73-.11q137.8-1.07,276.21.6,103.5,1.32,207.41,4.78v-24.15C3291,1861.65,3279.23,1861.27,3267.44,1860.88Z" transform="translate(253.8 533.84)"/><path class="s" d="M2970.4,1723.27l7.72-20-16.67,19.93q-93-1.07-185.87-1L2818,1664,2766,1722.12h-7.42l-9.25-97.16L2735,1718.28l-39.84-31.12,11.48,35.13c-200.4.88-400.39,5.21-600.18,11.14l-17.07-15.59,5.89,15.92q-180.78,5.35-361.37,11.91c-106.91,2.47-204.56-2.42-311.57-14.6-80.59-8.45-158.94-15.7-238.1-18.55l-10.87-.38c-1,0-2-.05-3-.05l-51.83-.88q-20.12,0-40.24.38c-55.08,1.59-110,2.8-164.63,4l-13.92.27c-79,1.7-157.51,3.4-236,5.87l-68.49,2.42c-91.87,3.62-183.43,8.67-275.09,16.69-56.2,5.49-115.65,5.43-176.11,3.29l44.61-73.94-55.59,73.5c-.92-.05-1.93-.05-2.85-.11l-10.16-156.27-14.33,148.2-39.84-31.12,12,36.67c-36.91-2-73.91-4.31-110.5-6.22A132.67,132.67,0,0,1-19.14,1770c118.8,6,243-.61,362.42-2.33,223.26-2.47,437.18-4.89,665.11-29.26,83.63-9.72,153.45,7.3,232.51,17.07,111.58,12.19,218.59,12.19,330.17,12.19,579,11.31,1150.15-25.74,1731.84-7.58v-28.27Q3136.29,1725.19,2970.4,1723.27Z" transform="translate(253.8 533.84)"/><g class="t"><path class="u" d="M2732.76,132.87s-18.05-71.77-93.65-45.49c0,0,22.48-84-87.81-80.08C2432.09,11.57,2471,85,2471,85s-55.29-18.81-76.72-.11c-11.26,9.82-16,28.41-17.93,43.86-63.05-34.47-111.83,21.33-94.9,25.38s93.65,0,93.65,0,47.39,7.08,73.34,0c0,0,92.52,16.4,191.81,3.14,0,0,46.26,10.23,92.52,1,0,0,64.31,1.91,86.88-4.16S2782.54,103.76,2732.76,132.87Z" transform="translate(253.8 533.84)"/><path class="v" d="M2719.55,151.41c-32.56,15.15-103-24.61-103-24.61a47.93,47.93,0,0,1-16.59,9.11,64.89,64.89,0,0,1-53.77-6.6c-118.31-73.12-1.65-121.36-1-121.7-96.47,5.67-81.57,59.3-75.73,73.77a112,112,0,0,0,24,26c-45.51-33.13-82.39-29.57-84.89-29.29a32.48,32.48,0,0,0-14.23,6.73c-11.24,9.8-16,28.34-17.91,43.77a122.4,122.4,0,0,0,2.93,12.37c-8.25-9.44-16.41-16.22-24.38-20.88-52.11-13.51-88.4,30.41-73.46,34,16.92,4,93.65,0,93.65,0s47.39,7.08,73.34,0c0,0,92.52,16.4,191.81,3.14,0,0,46.26,10.23,92.52,1,0,0,29.53.87,55.59-.45C2759.61,157.94,2719.55,151.41,2719.55,151.41Z" transform="translate(253.8 533.84)"/><polygon class="w" points="3060.03 690.25 3060.03 690.25 3060.03 690.25 3060.03 690.25"/><path class="x" d="M2732.76,132.87s-18.05-71.77-93.65-45.49c0,0,16.06-60-45.61-76.23,14.91,8.46,47.37,32.78,38.34,80.62,0,0,69.94-29.35,95.11,47.33,0,0,59.64-37.24,92.7,15C2842.21,148,2782.54,103.76,2732.76,132.87Z" transform="translate(253.8 533.84)"/></g><g class="t"><path class="u" d="M2946.48,584.38s-13.82-55-71.71-34.83c0,0,17.21-64.34-67.24-61.32-91.29,3.27-61.5,59.47-61.5,59.47s-42.34-14.4-58.75-.09c-8.62,7.52-12.24,21.75-13.73,33.59-48.28-26.4-85.63,16.34-72.67,19.43s71.71,0,71.71,0,36.29,5.42,56.16,0c0,0,70.85,12.56,146.88,2.41,0,0,35.42,7.83,70.85.78,0,0,49.25,1.46,66.53-3.18S2984.6,562.09,2946.48,584.38Z" transform="translate(253.8 533.84)"/><path class="y" d="M2936.36,598.58c-24.94,11.6-78.91-18.85-78.91-18.85a36.7,36.7,0,0,1-12.7,7,49.69,49.69,0,0,1-41.18-5.06c-90.6-56-1.26-92.93-.78-93.2-73.87,4.34-62.46,45.41-58,56.49a85.78,85.78,0,0,0,18.39,19.94c-34.85-25.37-63.09-22.65-65-22.43a24.87,24.87,0,0,0-10.9,5.16c-8.6,7.5-12.22,21.7-13.72,33.52a93.76,93.76,0,0,0,2.24,9.47,76.38,76.38,0,0,0-18.67-16c-39.9-10.35-67.69,23.29-56.25,26,13,3.1,71.71,0,71.71,0s36.29,5.42,56.16,0c0,0,70.85,12.56,146.88,2.41,0,0,35.42,7.83,70.85.78,0,0,22.61.67,42.57-.34C2967,603.57,2936.36,598.58,2936.36,598.58Z" transform="translate(253.8 533.84)"/><polygon class="z" points="3256.55 1136.24 3256.55 1136.24 3256.55 1136.24 3256.55 1136.24"/><path class="x" d="M2946.48,584.38s-13.82-55-71.71-34.83c0,0,12.3-46-34.93-58.37,11.41,6.48,36.28,25.11,29.36,61.74,0,0,53.55-22.47,72.83,36.25,0,0,45.67-28.51,71,11.48C3030.29,596,2984.6,562.09,2946.48,584.38Z" transform="translate(253.8 533.84)"/></g><g class="t"><path class="u" d="M917,332.53s-12.14-48.28-63-30.6c0,0,15.12-56.52-59.07-53.87-80.19,2.87-54,52.24-54,52.24s-37.19-12.65-51.61-.08c-7.57,6.6-10.75,19.11-12.06,29.5-42.42-23.19-75.23,14.35-63.84,17.07s63,0,63,0,31.88,4.76,49.34,0c0,0,62.24,11,129,2.12,0,0,31.12,6.88,62.24.68,0,0,43.26,1.28,58.44-2.8S950.49,313,917,332.53Z" transform="translate(253.8 533.84)"/><path class="aa" d="M908.12,345c-21.91,10.19-69.32-16.56-69.32-16.56a32.24,32.24,0,0,1-11.16,6.13,43.65,43.65,0,0,1-36.17-4.44c-79.59-49.18-1.11-81.64-.69-81.87-64.89,3.81-54.87,39.89-50.94,49.63A75.35,75.35,0,0,0,756,315.41c-30.61-22.29-55.42-19.89-57.1-19.7a21.85,21.85,0,0,0-9.58,4.53c-7.56,6.59-10.74,19.06-12.05,29.45a82.38,82.38,0,0,0,2,8.32,67.1,67.1,0,0,0-16.4-14c-35.06-9.09-59.47,20.46-49.41,22.86,11.39,2.72,63,0,63,0s31.88,4.76,49.34,0c0,0,62.24,11,129,2.12,0,0,31.12,6.88,62.24.68,0,0,19.87.59,37.4-.3C935.07,349.4,908.12,345,908.12,345Z" transform="translate(253.8 533.84)"/><polygon class="ab" points="1220.23 882.21 1220.23 882.21 1220.23 882.21 1220.23 882.21"/><path class="x" d="M917,332.53s-12.14-48.28-63-30.6c0,0,10.8-40.39-30.68-51.28,10,5.69,31.87,22.05,25.79,54.23,0,0,47-19.74,64,31.84,0,0,40.12-25,62.36,10.08C990.63,342.73,950.49,313,917,332.53Z" transform="translate(253.8 533.84)"/></g><g class="t"><path class="u" d="M1994.37,442.06s-22.11-87.9-114.7-55.71c0,0,27.53-102.91-107.55-98.08-146,5.23-98.36,95.12-98.36,95.12s-67.71-23-94-.14c-13.79,12-19.57,34.8-22,53.72-77.23-42.22-137,26.13-116.24,31.08s114.7,0,114.7,0,58,8.67,89.82,0c0,0,113.32,20.08,234.93,3.85,0,0,56.66,12.53,113.32,1.24,0,0,78.77,2.33,106.41-5.09S2055.33,406.41,1994.37,442.06Z" transform="translate(253.8 533.84)"/><path class="ac" d="M1978.19,464.78C1938.3,483.33,1852,434.63,1852,434.63a58.69,58.69,0,0,1-20.32,11.16c-22,7.25-46.58,3.83-65.86-8.09-144.91-89.55-2-148.64-1.25-149.06-118.15,6.94-99.9,72.63-92.75,90.36a137.19,137.19,0,0,0,29.41,31.89c-55.74-40.57-100.91-36.22-104-35.87-6.72,1.55-12.74,4.16-17.43,8.25-13.76,12-19.55,34.71-21.94,53.61a150,150,0,0,0,3.58,15.15c-10.11-11.56-20.1-19.87-29.87-25.58-63.83-16.55-108.27,37.24-90,41.62,20.73,5,114.7,0,114.7,0s58,8.67,89.82,0c0,0,113.32,20.08,234.93,3.85,0,0,56.66,12.53,113.32,1.24,0,0,36.17,1.07,68.09-.55C2027.26,472.77,1978.19,464.78,1978.19,464.78Z" transform="translate(253.8 533.84)"/><polygon class="ad" points="2338.16 1004.74 2338.16 1004.74 2338.16 1004.74 2338.16 1004.74"/><path class="x" d="M1994.37,442.06s-22.11-87.9-114.7-55.71c0,0,19.67-73.54-55.86-93.37,18.26,10.36,58,40.15,47,98.74,0,0,85.66-35.94,116.48,58,0,0,73-45.61,113.53,18.36C2128.42,460.63,2055.33,406.41,1994.37,442.06Z" transform="translate(253.8 533.84)"/></g><ellipse class="ae" cx="2161.22" cy="56.82" rx="4.6" ry="4.12"/><path class="af" d="M3148.66,474.29S2367.12,315.11,2063.93,377c0,0,495.2-21.33,1051,119.45Z" transform="translate(253.8 533.84)"/><path class="af" d="M2462.84-20.26c-299.41,21.4-482.72,15.86-682.92-1.52,297.69,7.93,625.65-6.84,682.92-22.85,80.85-22.6,529.12-.27,529.12-.27l40.2-10.75S2678.44-86.28,2414.61-44.9s-972.49-10.75-972.49-10.75h0c-33.24-3.36-67.94-6.8-104.43-10.27C882.92-109.18-158,68.81-158,68.81l91,120.75S967.13,11,1191.08,11.89,1971,93.79,2368.66,49.18s912.78,54.39,912.78,54.39L3365.66-1.94S2954.67-55.41,2462.84-20.26ZM652.08.86c-17.93,15.25-76.8,31.5-156.61,33.72,0,0-79.89-2.54-57-21.28S670-14.39,652.08.86Zm31.3,24.29C631.12,1.55,748.17-41.3,997.45-31.12S796.68,76.32,683.38,25.15ZM2001.11,36C1737.4,33.28,1185.81-13.56,1350.95-8,1681.08,3.26,2289.7,38.88,2001.11,36Zm91.18-22.1s138.51-15.31,172,0S2055.23,25.77,2092.28,13.85Z" transform="translate(253.8 533.84)"/><path class="af" d="M3198.47,670.35c-22.44,7.35-998.28-60-1147.75-97.66s-433.31,29.09-747.18,55.72S.42,633.62.42,633.62l64,39.18s936.5,137.13,1414.86,13.47S3264.7,734,3264.7,734,3220.91,663,3198.47,670.35ZM609.92,681.79c-13.17-3.85-5.67-11.6,11.23-11.67,119.56-.55,431.67-1.76,509.34.23C1268.25,673.88,908.27,769.06,609.92,681.79Zm1512.51-70.21s161.58-1.22,178.62,22S2007.6,623.83,2122.43,611.58Z" transform="translate(253.8 533.84)"/><path class="af" d="M1677,933.26s455.18-108.93,621.77-30.34,492.72-8.56,492.72-8.56l22.29-24.9s-344.5,13.61-453.81-3.31-208.15-59.34-260.2-35.41S1707.85,897.47,1700,892.8,1677,933.26,1677,933.26Zm743.24-40.46c27-1.27,135.74-.5,177.38-.15,5.88,0,8.49,5,3.91,7.42C2497.6,955.53,2372.23,895,2420.21,892.8Zm-407.65-23.34c5.94-14.78,62.21-14,62.21-14C2114.75,863.24,2006.63,884.24,2012.56,869.46Z" transform="translate(253.8 533.84)"/><g class="ag"><path class="ah" d="M2605.43,239.47c200.92,8.6,524.1,8.6,524.1,8.6l-19.82-29.56c-122.6,37.54-467.21,8.36-626.05-7.87-13-3.47-25.21-6.92-36.63-10.36C2222.73,132.84,1900,186,1756.23,230.7c-183.31,8-422.12-3.95-598.4-16.19l-88.1-14.23c-446.35-72.07-971.87,157.13-982,157.13V402.8c-75.65-3.35-139.82-7.71-180.83-10.71-29.45-2.15-47-3.59-48.24-3.43,0,0,144.85,64.7,249.26,56.29,95.4,6.87,218.53,3.28,370.05-25,319.26-59.55,449-40.73,492.31-28.62-40.9-12.65-152.82-35.67-365.1-2.68-115.4,17.93-262.7,20.8-395.93,18.1C402.42,337.43,778,221,977.09,282.31c275.62,84.82,640.06,66,959.2,0s1377,160.17,1377,160.17V357.41S2890.91,300.64,2605.43,239.47Zm-2113,42.84c-5-8.6,57.45-67.23,148.2-51.59S509.74,312,492.45,282.31Zm308.69-43.8c-53.12,18.66-111.37,11.33-65.4-7.79C745.51,226.65,854.25,219.84,801.13,238.51Zm246.7,7.15s215,17.39,227.07,37.24S936.66,258.44,1047.83,245.65Zm673.74-3c-81.21,31.37-147.48,33.74-324,9.06a2535.68,2535.68,0,0,0,325.31-9.54Zm214.71,3.11c-81.34,3.46,232.93-57.09,297.13-26.62S2105.61,238.51,1936.29,245.71Z" transform="translate(253.8 533.84)"/><path class="ah" d="M970.3,391.34c12.58,3.89,18.44,6.8,18.44,6.8S983.58,395.06,970.3,391.34Z" transform="translate(253.8 533.84)"/></g><path class="ai" d="M692.28,158.28l-4.21.84-.94-3.77a1.5,1.5,0,0,0-1.77-1,1.34,1.34,0,0,0-1.13,1.59l.94,3.77-4.21.84a1.34,1.34,0,0,0-1.13,1.59,1.5,1.5,0,0,0,1.77,1l4.21-.84.94,3.77a1.56,1.56,0,0,0,2.62.52,1.22,1.22,0,0,0,.27-1.1l-.94-3.77,4.21-.84a1.51,1.51,0,0,0,.85-.49,1.22,1.22,0,0,0,.27-1.1A1.5,1.5,0,0,0,692.28,158.28Z" transform="translate(253.8 533.84)"/><path class="ai" d="M475.29-87.57l-2.81,1.24-1.39-2.51a1.14,1.14,0,0,0-1.44-.44.92.92,0,0,0-.49,1.29l1.39,2.51-2.81,1.24a.92.92,0,0,0-.49,1.29,1.14,1.14,0,0,0,1.44.44l2.81-1.24,1.39,2.51a1.14,1.14,0,0,0,1.44.44,1,1,0,0,0,.51-.47.87.87,0,0,0,0-.82l-1.39-2.51,2.81-1.24a1,1,0,0,0,.51-.47.87.87,0,0,0,0-.82A1.14,1.14,0,0,0,475.29-87.57Z" transform="translate(253.8 533.84)"/><ellipse class="ae" cx="277.77" cy="825.75" rx="8.35" ry="7.48"/><ellipse class="ae" cx="957.88" cy="1100.21" rx="8.35" ry="7.48"/><ellipse class="ae" cx="1389.16" cy="774.23" rx="4.6" ry="4.12"/><ellipse class="ae" cx="770.32" cy="1431.68" rx="4.6" ry="4.12"/><path class="ai" d="M1586.84,668.76l-4.21.84-.94-3.77a1.5,1.5,0,0,0-1.77-1,1.34,1.34,0,0,0-1.13,1.59l.94,3.77-4.21.84a1.34,1.34,0,0,0-1.13,1.59,1.5,1.5,0,0,0,1.77,1l4.21-.84.94,3.77a1.56,1.56,0,0,0,2.62.52,1.22,1.22,0,0,0,.27-1.1l-.94-3.77,4.21-.84a1.51,1.51,0,0,0,.85-.49,1.22,1.22,0,0,0,.27-1.1A1.5,1.5,0,0,0,1586.84,668.76Z" transform="translate(253.8 533.84)"/><path class="ai" d="M778.16,14.11l-5-1.61L774.95,8a1.6,1.6,0,0,0-1.1-2.1,1.9,1.9,0,0,0-2.35,1l-1.8,4.49-5-1.61a1.9,1.9,0,0,0-2.35,1,1.6,1.6,0,0,0,1.1,2.1l5,1.61L766.65,19a1.6,1.6,0,0,0,1.1,2.1,2,2,0,0,0,1.25,0,1.75,1.75,0,0,0,1.1-1l1.8-4.49,5,1.61a2,2,0,0,0,1.25,0,1.75,1.75,0,0,0,1.1-1A1.6,1.6,0,0,0,778.16,14.11Z" transform="translate(253.8 533.84)"/><path class="ai" d="M217.95,455.84l-2.81,1.24-1.39-2.51a1.14,1.14,0,0,0-1.44-.44.92.92,0,0,0-.49,1.29l1.39,2.51-2.81,1.24a.92.92,0,0,0-.49,1.29,1.14,1.14,0,0,0,1.44.44l2.81-1.24,1.39,2.51a1.14,1.14,0,0,0,1.44.44,1,1,0,0,0,.51-.47.87.87,0,0,0,0-.82l-1.39-2.51,2.81-1.24a1,1,0,0,0,.51-.47.87.87,0,0,0,0-.82A1.14,1.14,0,0,0,217.95,455.84Z" transform="translate(253.8 533.84)"/><path class="ai" d="M469.16,565.63l-2.81,1.24L465,564.35a1.14,1.14,0,0,0-1.44-.44.92.92,0,0,0-.49,1.29l1.39,2.51L461.61,569a.92.92,0,0,0-.49,1.29,1.14,1.14,0,0,0,1.44.44l2.81-1.24,1.39,2.51a1.14,1.14,0,0,0,1.44.44,1,1,0,0,0,.51-.47.87.87,0,0,0,0-.82l-1.39-2.51,2.81-1.24a1,1,0,0,0,.51-.47.87.87,0,0,0,0-.82A1.14,1.14,0,0,0,469.16,565.63Z" transform="translate(253.8 533.84)"/><path class="ai" d="M591.7,285.68l-2.81,1.24-1.39-2.51a1.14,1.14,0,0,0-1.44-.44.92.92,0,0,0-.49,1.29l1.39,2.51L584.16,289a.92.92,0,0,0-.49,1.29,1.14,1.14,0,0,0,1.44.44l2.81-1.24L589.3,292a1.14,1.14,0,0,0,1.44.44,1,1,0,0,0,.51-.47.87.87,0,0,0,0-.82l-1.39-2.51,2.81-1.24a1,1,0,0,0,.51-.47.87.87,0,0,0,0-.82A1.14,1.14,0,0,0,591.7,285.68Z" transform="translate(253.8 533.84)"/><path class="ai" d="M2531.27,225.56l3.52-2.69,2.27,3a1.41,1.41,0,0,0,2,.11,1.43,1.43,0,0,0,.43-2l-2.27-3,3.52-2.68a1.43,1.43,0,0,0,.43-2,1.41,1.41,0,0,0-2-.11l-3.52,2.69-2.27-3a1.41,1.41,0,0,0-2-.11,1.7,1.7,0,0,0-.59.83,1.24,1.24,0,0,0,.16,1.13l2.27,3-3.52,2.68a1.7,1.7,0,0,0-.59.83,1.24,1.24,0,0,0,.16,1.13A1.41,1.41,0,0,0,2531.27,225.56Z" transform="translate(253.8 533.84)"/><path class="ai" d="M2820.88,350.73l2.09-2.41,2.2,1.66a1.12,1.12,0,0,0,1.48-.26,1,1,0,0,0,0-1.4l-2.2-1.66,2.09-2.41a1,1,0,0,0,0-1.4,1.12,1.12,0,0,0-1.48.26l-2.09,2.41-2.2-1.66a1.12,1.12,0,0,0-1.48.26,1.14,1.14,0,0,0-.29.66.83.83,0,0,0,.32.74l2.2,1.66-2.09,2.41a1.14,1.14,0,0,0-.29.66.83.83,0,0,0,.32.74A1.12,1.12,0,0,0,2820.88,350.73Z" transform="translate(253.8 533.84)"/><path class="ae" d="M3082.42-196.6c-1.55-3.76.61-8.51,4.81-10.61s8.86-.75,10.4,3-.61,8.51-4.81,10.61S3084-192.84,3082.42-196.6Z" transform="translate(253.8 533.84)"/><path class="ae" d="M2360.25-137c-1.55-3.76.61-8.51,4.81-10.61s8.86-.75,10.4,3-.61,8.51-4.81,10.61S2361.8-133.21,2360.25-137Z" transform="translate(253.8 533.84)"/><path class="ae" d="M2092.77,354.58c-.85-2.07.33-4.69,2.65-5.84s4.88-.41,5.73,1.66-.33,4.69-2.65,5.84S2093.62,356.65,2092.77,354.58Z" transform="translate(253.8 533.84)"/><path class="ae" d="M2410.53-526c-.85-2.07.33-4.69,2.65-5.84s4.88-.41,5.73,1.66-.33,4.69-2.65,5.84S2411.38-523.93,2410.53-526Z" transform="translate(253.8 533.84)"/><path class="ai" d="M1525.47,167.82l3.52-2.69,2.27,3a1.41,1.41,0,0,0,2,.11,1.43,1.43,0,0,0,.43-2l-2.27-3,3.52-2.68a1.43,1.43,0,0,0,.43-2,1.41,1.41,0,0,0-2-.11l-3.52,2.69-2.27-3a1.41,1.41,0,0,0-2-.11,1.7,1.7,0,0,0-.59.83,1.24,1.24,0,0,0,.16,1.13l2.27,3-3.52,2.68a1.7,1.7,0,0,0-.59.83,1.24,1.24,0,0,0,.16,1.13A1.41,1.41,0,0,0,1525.47,167.82Z" transform="translate(253.8 533.84)"/><path class="ai" d="M2507,396l5.17-.81,0,4.91a1.46,1.46,0,0,0,1.79,1.41,2.09,2.09,0,0,0,1.77-2l0-4.91,5.17-.81a2.09,2.09,0,0,0,1.77-2,1.46,1.46,0,0,0-1.79-1.41l-5.17.81,0-4.91a1.46,1.46,0,0,0-1.79-1.41,2.14,2.14,0,0,0-1.14.57,2,2,0,0,0-.63,1.4l0,4.91-5.17.81a2.14,2.14,0,0,0-1.14.57,2,2,0,0,0-.63,1.4A1.46,1.46,0,0,0,2507,396Z" transform="translate(253.8 533.84)"/><path class="ai" d="M2076.07,469.88l2.09-2.41,2.2,1.66a1.12,1.12,0,0,0,1.48-.26,1,1,0,0,0,0-1.4l-2.2-1.66,2.09-2.41a1,1,0,0,0,0-1.4,1.12,1.12,0,0,0-1.48.26l-2.09,2.41-2.2-1.66a1.12,1.12,0,0,0-1.48.26,1.14,1.14,0,0,0-.29.66.83.83,0,0,0,.32.74l2.2,1.66-2.09,2.41a1.14,1.14,0,0,0-.29.66.83.83,0,0,0,.32.74A1.12,1.12,0,0,0,2076.07,469.88Z" transform="translate(253.8 533.84)"/><path class="ai" d="M2852-261.42l2.09-2.41,2.2,1.66a1.12,1.12,0,0,0,1.48-.26,1,1,0,0,0,0-1.4l-2.2-1.66,2.09-2.41a1,1,0,0,0,0-1.4,1.12,1.12,0,0,0-1.48.26l-2.09,2.41-2.2-1.66a1.12,1.12,0,0,0-1.48.26,1.14,1.14,0,0,0-.29.66.83.83,0,0,0,.32.74l2.2,1.66-2.09,2.41a1.14,1.14,0,0,0-.29.66.83.83,0,0,0,.32.74A1.12,1.12,0,0,0,2852-261.42Z" transform="translate(253.8 533.84)"/><path class="ai" d="M2582.12-247.05l2.09-2.41,2.2,1.66a1.12,1.12,0,0,0,1.48-.26,1,1,0,0,0,0-1.4l-2.2-1.66,2.09-2.41a1,1,0,0,0,0-1.4,1.12,1.12,0,0,0-1.48.26l-2.09,2.41-2.2-1.66a1.12,1.12,0,0,0-1.48.26,1.14,1.14,0,0,0-.29.66.83.83,0,0,0,.32.74l2.2,1.66-2.09,2.41a1.14,1.14,0,0,0-.29.66.83.83,0,0,0,.32.74A1.12,1.12,0,0,0,2582.12-247.05Z" transform="translate(253.8 533.84)"/><path class="ai" d="M2575.22,63.73l2.09-2.41,2.2,1.66a1.12,1.12,0,0,0,1.48-.26,1,1,0,0,0,0-1.4l-2.2-1.66,2.09-2.41a1,1,0,0,0,0-1.4,1.12,1.12,0,0,0-1.48.26l-2.09,2.41-2.2-1.66a1.12,1.12,0,0,0-1.48.26,1.14,1.14,0,0,0-.29.66.83.83,0,0,0,.32.74l2.2,1.66-2.09,2.41a1.14,1.14,0,0,0-.29.66.83.83,0,0,0,.32.74A1.12,1.12,0,0,0,2575.22,63.73Z" transform="translate(253.8 533.84)"/><path class="aj" d="M3188.64,26.75c-1.57-3.76.62-8.5,4.87-10.6s9-.75,10.55,3-.62,8.5-4.87,10.6S3190.2,30.5,3188.64,26.75Z" transform="translate(253.8 533.84)"/><path class="ak" d="M2955.08-38l2.12-2.41,2.23,1.66a1.15,1.15,0,0,0,1.5-.26.94.94,0,0,0,0-1.4L2958.66-42l2.12-2.41a.94.94,0,0,0,0-1.4,1.15,1.15,0,0,0-1.5.26l-2.12,2.41-2.23-1.66a1.15,1.15,0,0,0-1.5.26,1.13,1.13,0,0,0-.29.66.83.83,0,0,0,.33.74l2.23,1.66-2.12,2.41a1.13,1.13,0,0,0-.29.66.83.83,0,0,0,.33.74A1.15,1.15,0,0,0,2955.08-38Z" transform="translate(253.8 533.84)"/><path class="ak" d="M2681.49-23.64l2.12-2.41,2.23,1.66a1.15,1.15,0,0,0,1.5-.26.94.94,0,0,0,0-1.4l-2.23-1.66,2.12-2.41a.94.94,0,0,0,0-1.4,1.15,1.15,0,0,0-1.5.26l-2.12,2.41-2.23-1.66a1.15,1.15,0,0,0-1.5.26,1.13,1.13,0,0,0-.29.66.83.83,0,0,0,.33.74l2.23,1.66-2.12,2.41a1.13,1.13,0,0,0-.29.66.83.83,0,0,0,.33.74A1.15,1.15,0,0,0,2681.49-23.64Z" transform="translate(253.8 533.84)"/><g class="t"><path class="u" d="M1448.7,75.63s3.37-100.75-81.07-71.4c0,0,1.58-73.25-121.61-68.85-133.15,4.77-89.7,86.75-89.7,86.75s-61.75-21-85.7-.12c-12.57,11-17.85,31.73-20,49-70.43-38.5-124.9,23.83-106,28.34s104.6,0,104.6,0,52.93,7.9,81.92,0c0,0,103.34,18.31,214.24,3.51,0,0,51.67,11.42,103.34,1.13,0,0,71.83,2.13,97-4.64S1504.3,43.12,1448.7,75.63Z" transform="translate(253.8 533.84)"/><path class="al" d="M1433.94,96.34c-36.37,16.92-115.1-27.49-115.1-27.49A53.53,53.53,0,0,1,1300.31,79c-20,6.61-42.48,3.49-60.06-7.38C1108.1-10,1238.41-63.9,1239.11-64.28,1131.36-58,1148,2,1154.53,18.12a125.11,125.11,0,0,0,26.82,29.08c-50.83-37-92-33-94.81-32.71-6.12,1.42-11.62,3.79-15.9,7.52-12.55,10.94-17.83,31.65-20,48.89a136.82,136.82,0,0,0,3.27,13.81c-9.22-10.54-18.33-18.12-27.24-23.33-58.21-15.09-98.74,34-82,38,18.9,4.52,104.6,0,104.6,0s52.93,7.9,81.92,0c0,0,103.34,18.31,214.24,3.51,0,0,51.67,11.42,103.34,1.13,0,0,33,1,62.09-.5C1478.69,103.63,1433.94,96.34,1433.94,96.34Z" transform="translate(253.8 533.84)"/><polygon class="am" points="1784.57 635.77 1784.57 635.77 1784.57 635.77 1784.57 635.77"/><path class="x" d="M1448.7,75.63s3.37-95.26-81.07-65.91c0,0-5.59-52-74.47-70,16.65,9.45,78.44,16.61,68.35,70,0,0,52.59-12.77,80.7,72.88,0,0,66.62-41.59,103.54,16.74C1570.94,92.56,1504.3,43.12,1448.7,75.63Z" transform="translate(253.8 533.84)"/></g><g class="t"><path class="u" d="M1622.47,126.37s-13.82-55-71.71-34.83c0,0,17.21-64.34-67.24-61.32-91.29,3.27-61.5,59.47-61.5,59.47s-42.34-14.4-58.75-.09c-8.62,7.52-12.24,21.75-13.73,33.59-48.28-26.4-85.63,16.34-72.67,19.43s71.71,0,71.71,0,36.29,5.42,56.16,0c0,0,70.85,12.56,146.88,2.41,0,0,35.42,7.83,70.85.78,0,0,49.25,1.46,66.53-3.18S1660.59,104.08,1622.47,126.37Z" transform="translate(253.8 533.84)"/><path class="an" d="M1612.35,140.57c-24.94,11.6-78.91-18.85-78.91-18.85a36.7,36.7,0,0,1-12.7,7,49.69,49.69,0,0,1-41.18-5.06c-90.6-56-1.26-92.93-.78-93.2-73.87,4.34-62.46,45.41-58,56.49a85.78,85.78,0,0,0,18.39,19.94c-34.85-25.37-63.09-22.65-65-22.43a24.87,24.87,0,0,0-10.9,5.16c-8.6,7.5-12.22,21.7-13.72,33.52a93.76,93.76,0,0,0,2.24,9.47,76.38,76.38,0,0,0-18.67-16c-39.9-10.35-67.69,23.29-56.25,26,13,3.1,71.71,0,71.71,0s36.29,5.42,56.16,0c0,0,70.85,12.56,146.88,2.41,0,0,35.42,7.83,70.85.78,0,0,22.61.67,42.57-.34C1643,145.57,1612.35,140.57,1612.35,140.57Z" transform="translate(253.8 533.84)"/><polygon class="ao" points="1932.54 678.24 1932.54 678.24 1932.54 678.24 1932.54 678.24"/><path class="x" d="M1622.47,126.37s-13.82-55-71.71-34.83c0,0,12.3-46-34.93-58.37,11.41,6.48,36.28,25.11,29.36,61.74,0,0,53.55-22.47,72.83,36.25,0,0,45.67-28.51,71,11.48C1706.28,138,1660.59,104.08,1622.47,126.37Z" transform="translate(253.8 533.84)"/></g><g class="t"><path class="u" d="M254.08,51.44S257.45-49.31,173-20c0,0,1.58-73.25-121.61-68.85C-81.75-84-38.29-2.06-38.29-2.06s-61.75-21-85.7-.12c-12.57,11-17.85,31.73-20,49-70.43-38.5-124.9,23.83-106,28.34s104.6,0,104.6,0,52.93,7.9,81.92,0c0,0,103.34,18.31,214.24,3.51,0,0,51.67,11.42,103.34,1.13,0,0,71.83,2.13,97-4.64S309.68,18.93,254.08,51.44Z" transform="translate(253.8 533.84)"/><path class="ap" d="M239.32,72.15c-36.37,16.92-115.1-27.49-115.1-27.49a53.53,53.53,0,0,1-18.53,10.18c-20,6.61-42.48,3.49-60.06-7.38C-86.52-34.2,43.79-88.09,44.49-88.47-63.26-82.14-46.61-22.24-40.1-6.07A125.11,125.11,0,0,0-13.28,23c-50.83-37-92-33-94.81-32.71-6.12,1.42-11.62,3.79-15.9,7.52-12.55,10.94-17.83,31.65-20,48.89a136.82,136.82,0,0,0,3.27,13.81C-149.95,50-159.06,42.41-168,37.2c-58.21-15.09-98.74,34-82,38,18.9,4.52,104.6,0,104.6,0s52.93,7.9,81.92,0c0,0,103.34,18.31,214.24,3.51,0,0,51.67,11.42,103.34,1.13,0,0,33,1,62.09-.5C284.07,79.44,239.32,72.15,239.32,72.15Z" transform="translate(253.8 533.84)"/><polygon class="aq" points="589.94 611.58 589.94 611.58 589.94 611.58 589.94 611.58"/><path class="x" d="M254.08,51.44S257.45-43.82,173-14.47c0,0-5.59-52-74.47-70,16.65,9.45,78.44,16.61,68.35,70,0,0,52.59-12.77,80.7,72.88,0,0,66.62-41.59,103.54,16.74C376.32,68.38,309.68,18.93,254.08,51.44Z" transform="translate(253.8 533.84)"/></g><g class="t"><path class="u" d="M443.25,635.4s-12.14-48.28-63-30.6c0,0,15.12-56.52-59.07-53.87-80.19,2.87-54,52.24-54,52.24s-37.19-12.65-51.61-.08c-7.57,6.6-10.75,19.11-12.06,29.5-42.42-23.19-75.23,14.35-63.84,17.07s63,0,63,0,31.88,4.76,49.34,0c0,0,62.24,11,129,2.12,0,0,31.12,6.88,62.24.68,0,0,43.26,1.28,58.44-2.8S476.73,615.82,443.25,635.4Z" transform="translate(253.8 533.84)"/><path class="ar" d="M434.36,647.88C412.46,658.06,365,631.32,365,631.32a32.24,32.24,0,0,1-11.16,6.13A43.65,43.65,0,0,1,317.71,633c-79.59-49.18-1.11-81.64-.69-81.87-64.89,3.81-54.87,39.89-50.94,49.63a75.35,75.35,0,0,0,16.15,17.51c-30.61-22.29-55.42-19.89-57.1-19.7a21.85,21.85,0,0,0-9.58,4.53c-7.56,6.59-10.74,19.06-12.05,29.45a82.38,82.38,0,0,0,2,8.32,67.1,67.1,0,0,0-16.4-14c-35.06-9.09-59.47,20.46-49.41,22.86,11.39,2.72,63,0,63,0s31.88,4.76,49.34,0c0,0,62.24,11,129,2.12,0,0,31.12,6.88,62.24.68,0,0,19.87.59,37.4-.3C461.31,652.26,434.36,647.88,434.36,647.88Z" transform="translate(253.8 533.84)"/><polygon class="as" points="746.48 1185.08 746.48 1185.08 746.48 1185.08 746.48 1185.08"/><path class="x" d="M443.25,635.4s-12.14-48.28-63-30.6c0,0,10.8-40.39-30.68-51.28,10,5.69,31.87,22.05,25.79,54.23,0,0,47-19.74,64,31.84,0,0,40.12-25,62.36,10.08C516.87,645.6,476.73,615.82,443.25,635.4Z" transform="translate(253.8 533.84)"/></g><path class="at" d="M338.32,467.86C395.7,435.71,688.4,381,724.91,359.53L2716.19,343c1.13.31,2.35,224.3,2.47,247.26a6.67,6.67,0,0,0,1,3.47l96.56,156.61a5.61,5.61,0,0,0,4.37,2.74c129.05,8.52,250.21-12.66,308.88-52.88a6.06,6.06,0,0,0,2-2.37L3187.33,583a6.79,6.79,0,0,0,.66-3.34l-8.42-152.15-1.91-140.77-3.72-34.17,0-16.37s12.25-34.4,19.58-48.86l1.46-2.87-1.25-3c-2.3-5.44-9.73-27.41-9.73-27.41l4.94-38.74,5.31-38L3168.93,18.9H2848.81c-147.24,0-2781,1.81-2781,1.81L54.09,98.92,61,127.39l5.09,25.05-4.24,4.66L44.11,222.73,56.6,273.41s3.82,6.55,5.17,7.07c1.23,2.73,10.54,107,10.54,107s57.37,64.29,83.45,80.37Z" transform="translate(253.8 533.84)"/><path class="au" d="M3160.42,284.85l1.08,117.87,5.68,176.86a6.75,6.75,0,0,1-.85,3.52l-55.59,98.63a5.94,5.94,0,0,1-2.35,2.35c-71.16,38.18-191.11,49.29-277.55,42.29a5.55,5.55,0,0,1-4.18-2.61L2724.94,567a6.7,6.7,0,0,1-1.06-3.64V318.94L714.48,338.1l-381.37,103H166.2l-85-64.78L84,260.17l-21.27-7.11L50.88,222.37l22-67.22-13.55-57L72.84,23.64l3089.27,1.11L3185.82,70l-10.16,74.52,10.16,27.76L3165.5,222Z" transform="translate(253.8 533.84)"/><path class="av" d="M67.81,224.41c.36,4.56,3.42,13.11,6.06,17.11.9.19,2.76.54,2.76.54l21.09,9.54,4.52,31.08s-1.19,84.26-.85,86.63C113,384,155.76,425,181.84,430.35c0,0,72.41,6.8,146-21.43,40.94-15.69,100-54.55,155.58-81.9l4.47-2.85,2241.15-15.94,5.22,214.32c0,4.91,83.14,162.65,97.12,189.13a5.49,5.49,0,0,0,5.87,3l244.15-47a5.64,5.64,0,0,0,3.68-2.59l55.07-87.42a6.69,6.69,0,0,0,1-3.38l5-190.9-1-104.86,3.39-40,.05-17.2s12.45-36.65,19-49.48c-1.71-4.11-4.37-12-6.28-17.74-1.34-4.06-2.3-7.09-2.3-7.09l5.1-45.24,4.88-30.55-17.36-35s-193-5.58-334.94-5.58c-141.36,0-2732.79,4.15-2732.79,4.15L76.8,57,76.1,93.78l.12,4,5.88,21.55L88.89,153l.78,3.84,15.54,43.79S72.33,218.83,67.81,224.41Z" transform="translate(253.8 533.84)"/><polygon class="at" points="3446.44 611.19 3224.56 603.89 3446.44 622.88 3446.44 611.19"/><polygon class="at" points="322.09 691.62 2952.38 685.98 321.09 679.97 322.09 691.62"/><polygon class="at" points="3436.12 688 2953.56 671.1 3438.82 694.48 3436.12 688"/><polygon class="at" points="3427.9 767.32 3302.27 756.4 3073.35 747.32 3304.14 763.67 3428.28 783.39 3427.9 767.32"/><polygon class="at" points="330.93 797.49 435.77 774.55 454.74 770.4 3024.27 775.38 453.81 782.53 346.97 814.17 332.6 877.6 330.93 797.49"/><polygon class="at" points="436.83 763.51 453.77 745.98 430.06 763.51 428.36 783 436.83 781.05 436.83 763.51"/><path class="aw" d="M3147.76,75.89,3185,77.11l.85-7.06-23.71-45.3H2887.49L2690.16,25,72.88,23.64,59.33,98.16l11.57,47.49,180.16,3.17L78,139.08s-11.86-38-11.86-40.91S72.88,28,76.27,26.56s3077.42,4,3077.42,4,3.39,0,5.08,1.46,20.33,35.07,20.33,36.53S3167.24,74.43,3147.76,75.89Z" transform="translate(253.8 533.84)"/><path class="aw" d="M3161.73,86.48l21.6,1.83-7.62,56.26,3.39,9.86-116-4.75s104.17,3.65,105.86-.73,10.16-51.14,8.47-54.07S3171.47,89.77,3161.73,86.48Z" transform="translate(253.8 533.84)"/><path class="aw" d="M3083,155.89l98.66,4.75,4.23,11.69L3165.54,222l-.85,11-93.16-8.4s87.23,6.21,88.92,4.75,0-8.77,1.69-10.23,22-46.76,20.33-48.22-3.39-4.38-8.47-5.84S3083,155.89,3083,155.89Z" transform="translate(253.8 533.84)"/><path class="aw" d="M3053.33,230.42l110.09,17.17-3,37.26,1.08,117.87,5.63,176.86a6.75,6.75,0,0,1-.85,3.52l-55.59,98.64a5.94,5.94,0,0,1-2.34,2.34c-71,38.28-192.71,49.49-280.19,42.07,113.86,10.63,215.93-20.9,270-52.83a5.9,5.9,0,0,0,2.06-2.09l55.66-93.56a6.72,6.72,0,0,0,.93-3.38l1.34-177.41-4.46-115,6.78-32.15Z" transform="translate(253.8 533.84)"/><polygon class="aw" points="518.7 688.02 320.89 690.94 304.72 756.21 331.32 701.65 518.7 688.02"/><polygon class="aw" points="316.58 786.89 336.54 798.1 430.43 776.67 430.06 763.51 453.77 745.98 428.36 763.51 425.21 771.31 338.6 791.28 316.58 786.89"/><path class="aw" d="M202.93,250.49,74.37,279.73l6.91,79.15s10.2-73.2,11.9-73.2S202.93,250.49,202.93,250.49Z" transform="translate(253.8 533.84)"/><polygon class="aw" points="2977.68 852.79 968.28 871.94 586.9 974.91 419.99 974.91 586.9 964.19 968.28 861.22 2977.68 852.79"/><path class="ax" d="M3107.44,111c-.79,5.2,4.71,10.09,12.28,10.91s14.36-2.73,15.15-7.93-4.71-10.09-12.28-10.91S3108.24,105.82,3107.44,111Z" transform="translate(253.8 533.84)"/><g class="ay"><path class="ax" d="M3034.87,257c-.79,5.2,12.93,11,30.65,12.91s32.72-.73,33.52-5.93-12.93-11-30.65-12.91S3035.66,251.84,3034.87,257Z" transform="translate(253.8 533.84)"/></g><path class="ax" d="M3092.71,123.54c-.46,3,2.73,5.85,7.12,6.32s8.32-1.58,8.78-4.6-2.73-5.85-7.12-6.32S3093.17,120.53,3092.71,123.54Z" transform="translate(253.8 533.84)"/><path class="az" d="M134.45,196c.46,5.23,5.74,9.18,11.79,8.83s10.58-4.88,10.12-10.12-5.74-9.18-11.79-8.83S134,190.78,134.45,196Z" transform="translate(253.8 533.84)"/><path class="ax" d="M115.14,212c.19,2.11,2.92,3.65,6.1,3.45s5.59-2.09,5.4-4.2-2.92-3.65-6.1-3.45S115,209.9,115.14,212Z" transform="translate(253.8 533.84)"/><path class="ax" d="M130.71,219.52c.28,3,4.2,5.25,8.76,4.95s8-3,7.76-6-4.2-5.25-8.76-4.95S130.43,216.48,130.71,219.52Z" transform="translate(253.8 533.84)"/><path class="ba" d="M2791.23,52.51c-44-1.46-2508.26-8.42-2530.28-7S76.27,57.25,76.27,57.25l177.9-2.92Z" transform="translate(253.8 533.84)"/><path class="bb" d="M76.21,56.85c.95-.1,162.92-10.25,184.7-11.69C277.06,44.09,2686.71,48,2742.2,50.22c20,.81,37.25,1.5,49,1.89v.79l-2537,1.81L76.29,57.64ZM2742.16,51c-52.54-2.12-2470-15.23-2486.09-14.16C238.53,38,111,53.94,86.15,56.59l168-2.66,2521.54-1.58C2766,52,2754.62,51.52,2742.16,51Z" transform="translate(253.8 533.84)"/><path class="ba" d="M2031.53,90.21S286.89,75.27,268.11,77.65s-46.18,26.16-46.18,26.16L1971.25,85.46Z" transform="translate(253.8 533.84)"/><path class="bc" d="M221.86,103.19c.27-.24,27.64-23.83,46.23-26.18s1763,12.38,1763.46,12.57l0,1.28-60.25-4.76L221.94,104.45Zm1805.41-14c-12.1-4.54-1743.88-12.87-1759.16-10.94s-36.87,18.54-43.85,24.23l1747-17.71Z" transform="translate(253.8 533.84)"/><path class="ba" d="M2869.14,186.21S299.9,177.14,272.8,181.12,194.89,203,194.89,203l67.75-10Z" transform="translate(253.8 533.84)"/><path class="bd" d="M194.76,202.49c.51-.18,72.7-28.59,76.5-28.59,27.08,0,2595.61,11.69,2597.9,11.77v1.08L262.7,193.59l-67.75,10Zm72.7-28.59c-7.59,0-53.07,23-67,27.74l62.13-9.12,2589.45-6.34C2798.51,184.44,290.08,173.9,267.46,173.9Z" transform="translate(253.8 533.84)"/><g class="be"><path class="ba" d="M2798,274.62s228.66-5.84,255.76-2.92,77.91,69.65,77.91,69.65l-67.75-60.89Z" transform="translate(253.8 533.84)"/><path class="bf" d="M3063.91,280.86,2798,275v-.79c2.29-.06,229-5.81,255.83-2.92s77.48,69.53,78,69.67l-.19.77Zm-248.86-6.26L3064,280.07l62.08,60.27c-13.88-3.46-56.19-74.33-77.71-76.65-5.36-.58-12.37,0-30.37,0C2960.74,263.69,2855.81,273.62,2815.05,274.6Z" transform="translate(253.8 533.84)"/></g><g class="bg"><path class="ba" d="M2380.77,89.35s402.79-3.44,429.89.87S2888.58,114,2888.58,114l-67.75-10.79Z" transform="translate(253.8 533.84)"/><path class="bh" d="M2820.82,103.76,2380.76,89.93V88.76c2.29-.09,403.14-3.39,430,.88s77.48,23.57,78,23.77l-.19,1.14Zm-423-14.44,423.06,13.28,62.08,9.89c-13.88-5.11-56.19-30.66-77.71-34.09-5.36-.85-12.37,0-30.37,0C2717.64,78.39,2438.59,87.88,2397.83,89.32Z" transform="translate(253.8 533.84)"/></g><g class="bi"><path class="ba" d="M134.57,127.63s35.42-4.3,39.86-12.25,10.15-39.84,5.08-45.19-64.19-3.33-72.62,1.67-18,16.38-18.76,20.63,11.53,19.76,11.53,19.76-4.31-9.6-1.33-17.83,8.87-15.9,16.54-16.65S165.63,72,169.24,77c0,0,5.7,18.66-.58,28.46s-36.25,17.33-39.86,12.25-5.76-9.88.13-17.56,30.67-3,30.67-3l-33.52-6.33s-9.57,11.38-8.87,15.9-.13,17.56,3.86,20.51S134.57,127.63,134.57,127.63Z" transform="translate(253.8 533.84)"/><path class="bj" d="M120.85,127.8c-3.11-2.3-3.45-10.15-3.7-15.89-.09-2-.16-3.8-.34-5-.73-4.75,8-15.33,9-16.52l.16-.18,33.7,6.37-.21,1.15c-.25,0-24.64-4.56-30.31,2.83-2.21,2.88-3.35,5.45-3.5,7.87-.19,3.09,1.23,5.77,3.42,8.85,1,1.41,4.7,1.85,9.89,1.17,11-1.44,25.42-7.15,29.38-13.34,5.79-9,.92-26.31.51-27.72-2.3-2.9-19.52-2.69-51.18.63l-2.86.29c-7.84.77-13.49,8.92-16.16,16.29-2.83,7.82,1.28,17.17,1.32,17.26l1.67,3.73-2.31-2.92c-1.27-1.61-12.43-15.84-11.63-20.29s10.57-16.06,19-21.09c4.53-2.69,22.21-4.33,37.73-4.76,15.21-.42,32.46.18,35.27,3.15,3.35,3.53,1.92,16.66,1.16,22.14-1.4,10-3.95,19.83-6.2,23.85-4.49,8.05-38.42,12.29-40.16,12.5-.5.14-6.28,1.65-10.65.82A7.48,7.48,0,0,1,120.85,127.8ZM107,72.39c-8.58,5.09-17.79,16.3-18.48,20.17-.45,2.52,5.14,11,9.68,17C97.13,106,95.94,99.83,98,94.2c2.79-7.7,8.7-16.22,16.92-17l2.85-.29c20.77-2.17,48.75-4.57,51.79-.28l.07.15c.24.78,5.73,19.11-.67,29.11-4.25,6.64-18.87,12.32-30,13.78-3.22.42-8.87.8-10.47-1.45-2.33-3.27-3.83-6.17-3.62-9.68.17-2.75,1.41-5.61,3.8-8.72,3-3.87,10.39-4.73,17.23-4.58l-19.74-3.73c-2.7,3.24-9.07,11.75-8.56,15.1.19,1.24.27,3,.36,5.12.24,5.49.56,13,3.33,15.06,3.83,2.83,13.15.33,13.25.3h0c.09,0,9-1.1,18.24-3.14,15.4-3.39,20.08-6.69,21.29-8.86,2.13-3.81,4.66-13.61,6-23.29,1.54-11,1.2-18.88-.9-21.1-.63-.66-2.23-1.21-4.55-1.65C159.7,66.19,114.66,67.85,107,72.39Z" transform="translate(253.8 533.84)"/></g><path class="aw" d="M2722.14,502l1.69,61.54a6.69,6.69,0,0,0,1,3.39h0c4.07,6.4,12.95.43,9.65-6.49l-.19-.4" transform="translate(253.8 533.84)"/><g class="bk"><path class="bl" d="M2760.39,382.7c14.23-2,28.46-2.95,42.69-3.62s28.46-.93,42.69-.31c3.49.12,7.26.6,10.53.6a88,88,0,0,0,10.28-.4,179.59,179.59,0,0,0,21-3.13c13.93-2.89,27.54-7.23,41.26-11.41,6.85-2.11,13.78-4.15,20.85-5.79,7.19-1.44,14.26-2.9,22.57-2.22l3.19.42,2.38.39c1.54.3,3.24.47,5,.63,3.38.39,6.91.55,10.39.79l21.13,1.13c28.28,1.66,56.69,3.37,85.12,6.85v1.07a604.56,604.56,0,0,1-85.6,3.5c-7.15-.33-14.31-.66-21.49-1.41-3.61-.43-7.18-.77-10.85-1.38-1.81-.26-3.64-.54-5.58-1l-2.86-.63-2.09-.34c-5.87-.82-13,0-19.87.71-6.93.94-14,1.8-21,3q-21,3.5-41.77,9.07c-6.92,1.81-13.78,3.89-20.83,5.64a109,109,0,0,1-21.73,2.83c-14.23.62-28.46.29-42.69-.31s-28.46-1.57-42.69-3.62Z" transform="translate(253.8 533.84)"/></g><g class="bk"><path class="bm" d="M2828.2,592.2c19.58,13.65,39,27.53,58.42,41.39l-1.17-.34q35.14-3.55,70.32-6.67l70.34-6.33-2.71,1.39c23.84-29,48.3-57.49,72.45-86.24l-.07,6.35-26.22-32,3.53,1.82-48.26-2.46c-16.09-.75-32.16-1.86-48.24-2.78l-96.47-5.8,4.38-2.62-21.05,42.77-2.35-6.25,93.4,38.79h-2.26l39.36-15.47,39.47-15.18.29,2.95q-28.58-6-57.11-12.23,28.86,4.4,57.64,9.2l5.1.84-4.81,2.11-38.77,17-38.88,16.68-1.08.46-1.18-.45-94.37-36.22-4.52-1.74,2.17-4.52,20.68-43,1.34-2.77,3.05.16,96.52,4.91c16.08.86,32.18,1.53,48.25,2.57l48.24,2.9,2.17.13,1.36,1.69,25.94,32.27,2.61,3.25-2.68,3.11c-24.54,28.4-48.76,57.08-73.6,85.21l-1.14,1.29-1.57.1-70.48,4.38q-35.23,2.3-70.51,4.05l-.69,0-.48-.38C2865.71,621.82,2846.87,607.13,2828.2,592.2Z" transform="translate(253.8 533.84)"/></g><path class="bn" d="M548,772.89c-36.67,0-66.5-32.91-66.5-73.37s29.83-73.37,66.5-73.37,66.5,32.91,66.5,73.37S584.68,772.89,548,772.89Z" transform="translate(253.8 533.84)"/><ellipse class="bo" cx="801.81" cy="1233.37" rx="57.43" ry="63.36"/><path class="bp" d="M581.33,667.1l-1.38.75-.68-1.53a.51.51,0,0,0-.71-.27.62.62,0,0,0-.24.79l.68,1.53-1.38.75a.62.62,0,0,0-.24.79.51.51,0,0,0,.71.27l1.38-.75.68,1.53a.51.51,0,0,0,.71.27.56.56,0,0,0,.25-.29.64.64,0,0,0,0-.5l-.68-1.53,1.38-.75a.56.56,0,0,0,.25-.29.64.64,0,0,0,0-.5A.51.51,0,0,0,581.33,667.1Z" transform="translate(253.8 533.84)"/><path class="bp" d="M554,752.08l-2.39.35-.32-2.63a.85.85,0,0,0-.93-.79.9.9,0,0,0-.71,1l.31,2.63-2.38.35a.9.9,0,0,0-.71,1,.85.85,0,0,0,.93.79l2.39-.35.32,2.63a.85.85,0,0,0,.93.79.8.8,0,0,0,.5-.29,1,1,0,0,0,.21-.74l-.31-2.63,2.38-.35a.8.8,0,0,0,.5-.29,1,1,0,0,0,.21-.74A.85.85,0,0,0,554,752.08Z" transform="translate(253.8 533.84)"/><path class="bp" d="M520.74,655.37l-2.39.35-.32-2.63a.85.85,0,0,0-.93-.79.9.9,0,0,0-.71,1l.31,2.63-2.38.35a.9.9,0,0,0-.71,1,.85.85,0,0,0,.93.79l2.39-.35.32,2.63a.85.85,0,0,0,.93.79.8.8,0,0,0,.5-.29,1,1,0,0,0,.21-.74l-.31-2.63,2.38-.35a.8.8,0,0,0,.5-.29,1,1,0,0,0,.21-.74A.85.85,0,0,0,520.74,655.37Z" transform="translate(253.8 533.84)"/><path class="bp" d="M593.55,726c-.78-3.95-3.24-6.77-7.56-8.34,4-.53,6.39-3.53,7.56-8.34,1,4.6,3.58,7.26,7.56,8.34C596.38,718.89,593.54,721.44,593.55,726Z" transform="translate(253.8 533.84)"/><path class="bp" d="M511.93,732.67c-1.39-7-5.76-12-13.41-14.8,7.12-.94,11.34-6.27,13.41-14.8,1.71,8.16,6.36,12.88,13.41,14.8C517,720,511.91,724.58,511.93,732.67Z" transform="translate(253.8 533.84)"/><path class="bn" d="M2147.89,1121.94c-36.67,0-66.5-32.91-66.5-73.37s29.83-73.37,66.5-73.37,66.5,32.91,66.5,73.37S2184.56,1121.94,2147.89,1121.94Z" transform="translate(253.8 533.84)"/><ellipse class="bo" cx="2401.69" cy="1582.41" rx="57.43" ry="63.36"/><path class="bp" d="M2181.21,1016.14l-1.38.75-.68-1.53a.51.51,0,0,0-.71-.27.62.62,0,0,0-.24.79l.68,1.53-1.38.75a.62.62,0,0,0-.24.79.51.51,0,0,0,.71.27l1.38-.75.68,1.53a.51.51,0,0,0,.71.27.56.56,0,0,0,.25-.29.64.64,0,0,0,0-.5l-.68-1.53,1.38-.75a.56.56,0,0,0,.25-.29.64.64,0,0,0,0-.5A.51.51,0,0,0,2181.21,1016.14Z" transform="translate(253.8 533.84)"/><path class="bp" d="M2153.87,1101.12l-2.39.35-.32-2.63a.85.85,0,0,0-.93-.79.9.9,0,0,0-.71,1l.31,2.63-2.38.35a.9.9,0,0,0-.71,1,.85.85,0,0,0,.93.79l2.39-.35.32,2.63a.85.85,0,0,0,.93.79.8.8,0,0,0,.5-.29,1,1,0,0,0,.21-.74l-.31-2.63,2.38-.35a.8.8,0,0,0,.5-.29,1,1,0,0,0,.21-.74A.85.85,0,0,0,2153.87,1101.12Z" transform="translate(253.8 533.84)"/><path class="bp" d="M2120.62,1004.41l-2.39.35-.32-2.63a.85.85,0,0,0-.93-.79.9.9,0,0,0-.71,1l.31,2.63-2.38.35a.9.9,0,0,0-.71,1,.85.85,0,0,0,.93.79l2.39-.35.32,2.63a.85.85,0,0,0,.93.79.8.8,0,0,0,.5-.29,1,1,0,0,0,.21-.74l-.31-2.63,2.38-.35a.8.8,0,0,0,.5-.29,1,1,0,0,0,.21-.74A.85.85,0,0,0,2120.62,1004.41Z" transform="translate(253.8 533.84)"/><path class="bp" d="M2193.42,1075c-.78-3.95-3.24-6.77-7.56-8.34,4-.53,6.39-3.53,7.56-8.34,1,4.6,3.58,7.26,7.56,8.34C2196.26,1067.93,2193.41,1070.49,2193.42,1075Z" transform="translate(253.8 533.84)"/><path class="bp" d="M2111.81,1081.71c-1.39-7-5.76-12-13.41-14.8,7.12-.94,11.34-6.27,13.41-14.8,1.71,8.16,6.36,12.88,13.41,14.8C2116.83,1069.1,2111.79,1073.62,2111.81,1081.71Z" transform="translate(253.8 533.84)"/><path class="bn" d="M2508.74,1701.73c-36.67,0-66.5-32.91-66.5-73.37s29.83-73.37,66.5-73.37,66.5,32.91,66.5,73.37S2545.41,1701.73,2508.74,1701.73Z" transform="translate(253.8 533.84)"/><ellipse class="bo" cx="2762.53" cy="2162.21" rx="57.43" ry="63.36"/><path class="bp" d="M2542.05,1595.94l-1.38.75-.68-1.53a.51.51,0,0,0-.71-.27.62.62,0,0,0-.24.79l.68,1.53-1.38.75a.62.62,0,0,0-.24.79.51.51,0,0,0,.71.27l1.38-.75.68,1.53a.51.51,0,0,0,.71.27.56.56,0,0,0,.25-.29.64.64,0,0,0,0-.5l-.68-1.53,1.38-.75a.56.56,0,0,0,.25-.29.64.64,0,0,0,0-.5A.51.51,0,0,0,2542.05,1595.94Z" transform="translate(253.8 533.84)"/><path class="bp" d="M2514.72,1680.92l-2.39.35-.32-2.63a.85.85,0,0,0-.93-.79.9.9,0,0,0-.71,1l.31,2.63-2.38.35a.9.9,0,0,0-.71,1,.85.85,0,0,0,.93.79l2.39-.35.32,2.63a.85.85,0,0,0,.93.79.8.8,0,0,0,.5-.29,1,1,0,0,0,.21-.74l-.31-2.63,2.38-.35a.8.8,0,0,0,.5-.29,1,1,0,0,0,.21-.74A.85.85,0,0,0,2514.72,1680.92Z" transform="translate(253.8 533.84)"/><path class="bp" d="M2481.47,1584.21l-2.39.35-.32-2.63a.85.85,0,0,0-.93-.79.9.9,0,0,0-.71,1l.31,2.63-2.38.35a.9.9,0,0,0-.71,1,.85.85,0,0,0,.93.79l2.39-.35.32,2.63a.85.85,0,0,0,.93.79.8.8,0,0,0,.5-.29,1,1,0,0,0,.21-.74l-.31-2.63,2.38-.35a.8.8,0,0,0,.5-.29,1,1,0,0,0,.21-.74A.85.85,0,0,0,2481.47,1584.21Z" transform="translate(253.8 533.84)"/><path class="bp" d="M2554.27,1654.84c-.78-3.95-3.24-6.77-7.56-8.34,4-.53,6.39-3.53,7.56-8.34,1,4.6,3.58,7.26,7.56,8.34C2557.1,1647.73,2554.26,1650.28,2554.27,1654.84Z" transform="translate(253.8 533.84)"/><path class="bp" d="M2472.65,1661.51c-1.39-7-5.76-12-13.41-14.8,7.12-.94,11.34-6.27,13.41-14.8,1.71,8.16,6.36,12.88,13.41,14.8C2477.68,1648.89,2472.63,1653.42,2472.65,1661.51Z" transform="translate(253.8 533.84)"/></g></g></svg>