<?xml version="1.0" encoding="utf-8"?>
<!-- Generator: Adobe Illustrator 21.0.2, SVG Export Plug-In . SVG Version: 6.00 Build 0)  -->
<svg version="1.1" id="Layer_1" xmlns="http://www.w3.org/2000/svg" xmlns:xlink="http://www.w3.org/1999/xlink" x="0px" y="0px"
	 viewBox="0 0 1296 774" style="enable-background:new 0 0 1296 774;" xml:space="preserve">
<style type="text/css">
	.st0{clip-path:url(#SVGID_2_);}
	.st1{fill:url(#SVGID_3_);}
	.st2{opacity:0.26;}
	.st3{fill:#688C7F;}
	.st4{opacity:9.000000e-02;}
	.st5{fill:#AD5236;}
	.st6{opacity:0.1;}
	.st7{opacity:0.5;}
	.st8{opacity:0.81;}
	.st9{fill:#FFE7E1;}
	.st10{fill:url(#XMLID_2_);}
	.st11{fill:url(#XMLID_3_);}
	.st12{fill:#FFFFFF;}
	.st13{fill:url(#XMLID_4_);}
	.st14{fill:url(#XMLID_5_);}
	.st15{fill:url(#XMLID_6_);}
	.st16{fill:url(#XMLID_7_);}
	.st17{fill:url(#XMLID_8_);}
	.st18{fill:url(#XMLID_9_);}
	.st19{fill:none;stroke:#F9F9F9;stroke-width:1.1897;stroke-linecap:round;stroke-linejoin:round;stroke-miterlimit:10;}
	.st20{opacity:0.24;fill:#FFFFFF;enable-background:new    ;}
	.st21{fill:#F9F9F9;stroke:#F9F9F9;stroke-width:0.5948;stroke-miterlimit:10;}
	.st22{fill:none;stroke:#F9F9F9;stroke-width:1.197;stroke-linecap:round;stroke-linejoin:round;stroke-miterlimit:10;}
	.st23{fill:#F9F9F9;stroke:#F9F9F9;stroke-width:0.5985;stroke-miterlimit:10;}
	.st24{fill:url(#XMLID_10_);}
	.st25{fill:url(#XMLID_11_);}
	.st26{fill:url(#XMLID_12_);}
	.st27{fill:url(#XMLID_13_);}
	.st28{fill:url(#XMLID_14_);}
	.st29{fill:url(#XMLID_15_);}
	.st30{fill:url(#XMLID_16_);}
	.st31{fill:url(#XMLID_17_);}
</style>
<g>
	<g>
		<g>
			<defs>
				<rect id="SVGID_1_" x="-1" y="-1" width="1298" height="775"/>
			</defs>
			<clipPath id="SVGID_2_">
				<use xlink:href="#SVGID_1_"  style="overflow:visible;"/>
			</clipPath>
			<g class="st0">
				
					<linearGradient id="SVGID_3_" gradientUnits="userSpaceOnUse" x1="655.7501" y1="-252.0725" x2="655.7501" y2="522.9701" gradientTransform="matrix(1 0 0 1 0 162)">
					<stop  offset="0" style="stop-color:#186B91"/>
					<stop  offset="0.2041" style="stop-color:#5F9CB6"/>
					<stop  offset="0.3773" style="stop-color:#93C1D2"/>
					<stop  offset="0.5068" style="stop-color:#B4D7E3"/>
					<stop  offset="0.578" style="stop-color:#C0E0E9"/>
					<stop  offset="0.6344" style="stop-color:#C2DFE2"/>
					<stop  offset="0.7159" style="stop-color:#C9DCCF"/>
					<stop  offset="0.8127" style="stop-color:#D3D7AF"/>
					<stop  offset="0.9204" style="stop-color:#E1D184"/>
					<stop  offset="0.9984" style="stop-color:#EDCB60"/>
				</linearGradient>
				<path class="st1" d="M1171.1-17.4c-216.7,0-432.9-5.5-649.5-8.4c-92.9-1.2-185.8-0.4-278.5-3.5c-4.3-0.1-8.6-0.3-12.9-0.4
					c-5.9-0.2-11.9-0.4-17.8-0.6c-32-1.1-64.3-2.2-96.5-2.6c-6.4,1.5-13.1,2.9-19.8,4.1c-17.6,3.2-36.8,3.9-55.3,5
					C30-23.3,19.1-23.1,8.1-23.1c-17.7,0-35.4-0.5-53-0.7c-2.4,0.4-4.8,0.8-7.3,1.1V813h1415.9V-17.4H1171.1z"/>
				<g>
					<g id="Tees">
						<g>
							<g>
								<g class="st2">
									<path class="st3" d="M264.7,565.5c2.8,2.7,5.9,5.3,9.8,7.3c3.8,2,8.8,3.2,13.8,4c2.9,0.5,5.9,0.9,9,1.2l0,0
										c0-14.5,0-28.9,0.9-43.5c0.5-7.2,1.2-14.6,2.6-21.8l0.3-1.6l-0.4-0.5l0.5-0.1l3-19.4l5.4-34.7l-29.2-20.8l30,15.8l0.5-3.5
										c1-7.2,2-14.4,2.8-21.6c0.4-3.6,0.8-7.2,1-10.8c-0.2-3.5-0.4-7.2-1.1-10.7c-1.3-7.1-3.8-14.2-8.3-20.9
										c-2.2-3.4-4.8-6.6-7.9-9.8c-1.5-1.6-3.1-3.1-4.8-4.6c-1.6-1.5-3.4-3.1-4.2-4.8c0.9,1.7,2.8,3.2,4.5,4.7s3.4,3,5,4.6
										c3.2,3.1,6.1,6.3,8.4,9.7c4.9,6.7,7.7,13.8,9.5,21c0.9,3.6,1.4,7.2,1.7,10.9c0,3.7-0.2,7.3-0.4,10.9
										c-0.5,7.2-1,14.5-1.7,21.7l-4.5,43.3l-1.7,16.8l34.5-9.2l-34.9,13.2l-0.1,0.9c-1,7.1-1.3,14.3-1.4,21.5
										c-0.1,14.2,0.5,28.4,1.3,42.6l14.3-3.2l2.2,3.8l-16.3,2.8l2.3,40.6c0.1,2.4,0.3,4.8,0.4,7.2l13.5-4.1l-13.4,7.4
										c0,0.1,0,0.3,0,0.4c0.1,3.7-0.1,7.4-0.3,11c-0.5,7.3-1.4,14.6-2.4,21.8c-2.2,14.5-5,28.9-8.3,43.4l-18.2-1.7
										c4.1-14.1,7.6-28.4,10.5-42.6c1.4-7.1,2.7-14.3,3.5-21.4c0.4-3.6,0.8-7.1,0.9-10.6c0.2-3.5,0-7.2,0.1-10.8l-0.1-40.5
										c-3.5-0.5-6.9-1.1-10.2-1.8c-5.2-1.2-10.3-2.7-14.3-5.1c-3.8-2.4-6.6-5.2-9.1-8c-2.4-2.8-4.5-5.8-6.3-8.8
										C259.5,560,262,562.8,264.7,565.5z"/>
								</g>
								<g class="st2">
									<path class="st3" d="M407.1,538.3c2.8,3.1,5.9,6.2,9.8,8.6c3.8,2.3,8.8,3.7,13.8,4.7c2.9,0.6,5.9,1,9,1.4l0,0
										c0-16.9,0-33.9,0.9-50.9c0.5-8.5,1.2-17,2.6-25.5l0.3-1.9l-0.4-0.5l0.5-0.2l3-22.7l5.4-40.6l-29.2-24.4l30,18.6l0.5-4
										c1-8.4,2-16.9,2.8-25.3c0.4-4.2,0.8-8.4,1-12.6c-0.2-4.1-0.4-8.4-1.1-12.5c-1.3-8.3-3.8-16.7-8.3-24.5
										c-2.2-3.9-4.8-7.8-7.9-11.4c-1.5-1.8-3.1-3.6-4.8-5.4c-1.6-1.8-3.4-3.6-4.2-5.6c0.9,2,2.8,3.8,4.5,5.5
										c1.7,1.8,3.4,3.5,5,5.3c3.2,3.6,6.1,7.4,8.4,11.3c4.9,7.8,7.7,16.2,9.5,24.6c0.9,4.2,1.4,8.4,1.7,12.7
										c0,4.3-0.2,8.5-0.4,12.7c-0.5,8.5-1,16.9-1.7,25.4l-4.5,50.7l-1.7,19.7l34.5-10.7l-34.9,15.4l-0.1,1
										c-1,8.3-1.3,16.7-1.4,25.1c-0.1,16.6,0.5,33.2,1.3,49.8l14.3-3.7l2.2,4.5l-16.3,3.2l2.3,47.5c0.1,2.8,0.3,5.6,0.4,8.5
										l13.5-4.8l-13.4,8.6c0,0.2,0,0.3,0,0.5c0.1,4.3-0.1,8.6-0.3,12.9c-0.5,8.6-1.4,17.1-2.4,25.6c-2.2,17-5,33.8-8.3,50.8
										l-18.2-2c4.1-16.5,7.6-33.2,10.5-49.9c1.4-8.3,2.7-16.7,3.5-25c0.4-4.2,0.8-8.3,0.9-12.4c0.2-4.1,0-8.4,0.1-12.6l-0.1-47.4
										c-3.5-0.6-6.9-1.3-10.2-2.1c-5.2-1.4-10.3-3.1-14.3-6c-3.8-2.8-6.6-6.1-9.1-9.4c-2.4-3.3-4.5-6.8-6.3-10.3
										C401.9,531.9,404.3,535.2,407.1,538.3z"/>
								</g>
								<g class="st4">
									<path class="st5" d="M429.7,605.3c-2.8,1.9-5.9,3.7-9.8,5.1c-3.8,1.4-8.8,2.2-13.8,2.8c-2.9,0.4-5.9,0.6-9,0.8l0,0
										c0-10.2,0-20.3-0.9-30.5c-0.5-5.1-1.2-10.2-2.6-15.3l-0.3-1.1l0.4-0.3l-0.5-0.1l-3-13.6l-5.4-24.3l29.2-14.6l-30,11.1
										l-0.5-2.4c-1-5.1-2-10.1-2.8-15.2c-0.4-2.5-0.8-5.1-1-7.6c0.2-2.5,0.4-5,1.1-7.5c1.3-5,3.8-10,8.3-14.7
										c2.2-2.4,4.8-4.7,7.9-6.9c1.5-1.1,3.1-2.2,4.8-3.3c1.6-1.1,3.4-2.1,4.2-3.4c-0.9,1.2-2.8,2.2-4.5,3.3
										c-1.7,1.1-3.4,2.1-5,3.2c-3.2,2.2-6.1,4.4-8.4,6.8c-4.9,4.7-7.7,9.7-9.5,14.8c-0.9,2.5-1.4,5.1-1.7,7.6
										c0,2.6,0.2,5.1,0.4,7.6c0.5,5.1,1,10.1,1.7,15.2l4.5,30.4l1.7,11.8l-34.5-6.4l34.9,9.2l0.1,0.6c1,5,1.3,10,1.4,15.1
										c0.1,9.9-0.5,19.9-1.3,29.9l-14.3-2.2l-2.2,2.7l16.3,1.9l-2.3,28.5c-0.1,1.7-0.3,3.4-0.4,5.1l-13.5-2.9l13.4,5.2
										c0,0.1,0,0.2,0,0.3c-0.1,2.6,0.1,5.2,0.3,7.7c0.5,5.1,1.4,10.2,2.4,15.3c2.2,10.2,5,20.3,8.3,30.4l18.2-1.2
										c-4.1-9.9-7.6-19.9-10.5-29.9c-1.4-5-2.7-10-3.5-15c-0.4-2.5-0.8-5-0.9-7.5c-0.2-2.5,0-5.1-0.1-7.6l0.1-28.4
										c3.5-0.3,6.9-0.8,10.2-1.3c5.2-0.8,10.3-1.9,14.3-3.6c3.8-1.7,6.6-3.7,9.1-5.6c2.4-2,4.5-4.1,6.3-6.2
										C435,601.5,432.5,603.5,429.7,605.3z"/>
								</g>
								<g class="st6">
									<path class="st5" d="M190.5,616.2c-1.8,1.4-3.8,2.8-6.2,3.9c-2.4,1-5.3,1.5-8.3,1.8c-1.7,0.2-3.5,0.3-5.3,0.4l0,0
										c1.1-8.4,2.1-16.9,2.6-25.3c0.3-4.2,0.3-8.5,0.1-12.8v-0.9l0.3-0.2l-0.3-0.1l-0.4-11.4l-0.7-20.4l18.5-11l-18.6,8.1l-0.1-2
										c-0.1-4.2-0.1-8.5-0.1-12.7c0-2.1,0-4.2,0.2-6.3c0.3-2.1,0.8-4.2,1.4-6.2c1.3-4.1,3.2-8.1,6.3-11.9
										c1.5-1.9,3.3-3.7,5.3-5.4c1-0.9,2.1-1.7,3.1-2.5s2.2-1.7,2.8-2.6c-0.7,1-1.9,1.8-2.9,2.6c-1.1,0.8-2.2,1.6-3.3,2.5
										c-2.1,1.7-4,3.5-5.6,5.3c-3.3,3.7-5.5,7.8-7,11.9c-0.8,2.1-1.3,4.1-1.8,6.3c-0.3,2.1-0.4,4.2-0.6,6.4
										c-0.3,4.2-0.5,8.5-0.6,12.7l-0.5,25.4l-0.2,9.9l-19.4-6.6l19.4,9v0.5c0,4.2-0.3,8.4-0.7,12.6c-0.9,8.3-2.4,16.5-3.8,24.7
										l-8.1-2.4l-1.6,2.2l9.3,2.2l-4.3,23.6c-0.2,1.4-0.5,2.8-0.7,4.2l-7.6-2.9l7.2,4.8c0,0.1,0,0.2,0,0.2
										c-0.3,2.2-0.5,4.3-0.6,6.4c-0.3,4.3-0.2,8.5-0.2,12.8c0.2,8.5,0.8,17,1.7,25.6l10.7-0.3c-1.3-8.4-2.4-16.8-3-25.2
										c-0.3-4.2-0.5-8.4-0.5-12.6c0-2.1,0.1-4.2,0.2-6.2c0.2-2.1,0.5-4.2,0.7-6.3l3-23.6c2.1-0.2,4.1-0.4,6.1-0.7
										c3.1-0.5,6.2-1.2,8.7-2.4c2.4-1.3,4.2-2.8,5.9-4.3c1.6-1.6,3.1-3.2,4.3-4.9C194,613.2,192.4,614.7,190.5,616.2z"/>
								</g>
								<g class="st2">
									<path class="st3" d="M173.4,592.6c-2.1,2-4.4,3.9-7.3,5.5c-2.9,1.5-6.5,2.3-10.3,3c-2.2,0.4-4.4,0.7-6.7,0.9l0,0
										c0-10.8,0-21.6-0.7-32.4c-0.3-5.4-0.9-10.8-1.9-16.2l-0.2-1.2l0.3-0.3l-0.4-0.1l-2.3-14.4l-4.1-25.8l21.8-15.5l-22.4,11.8
										l-0.4-2.6c-0.8-5.4-1.5-10.7-2.1-16.1c-0.3-2.7-0.6-5.4-0.7-8c0.1-2.6,0.3-5.3,0.9-8c1-5.3,2.8-10.6,6.2-15.6
										c1.6-2.5,3.6-4.9,5.8-7.3c1.1-1.2,2.3-2.3,3.6-3.5c1.2-1.1,2.5-2.3,3.1-3.6c-0.7,1.3-2.1,2.4-3.3,3.5
										c-1.3,1.1-2.5,2.2-3.7,3.4c-2.4,2.3-4.5,4.7-6.3,7.2c-3.6,5-5.8,10.3-7.1,15.7c-0.7,2.7-1,5.4-1.3,8.1
										c0,2.7,0.1,5.4,0.3,8.1c0.3,5.4,0.7,10.8,1.2,16.1l3.3,32.3l1.3,12.5l-25.7-6.8l26,9.8l0.1,0.6c0.7,5.3,1,10.6,1,16
										c0.1,10.5-0.4,21.1-1,31.7L130,599l-1.6,2.9l12.2,2.1l-1.7,30.2c-0.1,1.8-0.2,3.6-0.3,5.4l-10-3l9.9,5.5c0,0.1,0,0.2,0,0.3
										c0,2.8,0.1,5.5,0.3,8.2c0.4,5.5,1,10.9,1.8,16.3c1.6,10.8,3.7,21.5,6.2,32.3l13.6-1.2c-3-10.5-5.7-21.1-7.8-31.7
										c-1.1-5.3-2-10.6-2.6-15.9c-0.3-2.6-0.6-5.3-0.7-7.9c-0.1-2.6,0-5.4,0-8l0.1-30.1c2.6-0.4,5.1-0.8,7.6-1.4
										c3.8-0.9,7.7-2,10.7-3.8c2.8-1.8,4.9-3.9,6.8-6c1.8-2.1,3.4-4.3,4.7-6.5C177.4,588.5,175.5,590.6,173.4,592.6z"/>
									<path class="st3" d="M119.9,542.7l0.6-0.8c2.7-3.5-0.1-7.7-6.2-9.3l-0.6,0.8C111.1,537,113.9,541.2,119.9,542.7z"/>
									<path class="st3" d="M100.7,551.4l1.4,0.2c6.5,0.8,12.9-1.6,14.3-5.4l0,0L115,546C108.5,545.2,102.1,547.6,100.7,551.4z"/>
									<path class="st3" d="M170.4,591.2l1.4,0.2c1.8-3.7-2-7.6-8.3-8.7l-1.4-0.2C160.3,586.2,164,590.1,170.4,591.2z"/>
									<path class="st3" d="M179.1,594.8l-4.5,0.6l0,0c1,2.8,5.8,4.6,10.5,4l4.5-0.6C188.5,596,183.8,594.2,179.1,594.8z"/>
									<path class="st3" d="M126.6,635.9v-0.8c0-2.7-3.8-5-8.5-5v0.8C118.1,633.6,122,635.9,126.6,635.9z"/>
									<path class="st3" d="M117,643.1l1.4,0.1c4.6,0.3,8.9-1.6,9.4-4.3l-1.4-0.1C121.8,638.5,117.5,640.4,117,643.1z"/>
								</g>
								<g class="st7">
									<path class="st3" d="M677.4,548.7c-3,2.9-6.4,5.7-10.5,7.9c-4.1,2.1-9.5,3.4-14.9,4.3c-3.2,0.5-6.4,1-9.7,1.3l0,0
										c0-15.6,0-31.2-1-46.9c-0.5-7.8-1.3-15.7-2.8-23.5l-0.3-1.7l0.5-0.5l-0.6-0.1l-3.3-20.9l-5.9-37.4l31.6-22.5l-32.4,17.1
										l-0.6-3.7c-1.1-7.8-2.1-15.5-3-23.3c-0.4-3.9-0.9-7.8-1-11.6c0.2-3.8,0.5-7.7,1.2-11.6c1.5-7.7,4.1-15.4,8.9-22.6
										c2.3-3.6,5.2-7.2,8.5-10.5c1.7-1.7,3.4-3.4,5.2-5c1.7-1.7,3.6-3.3,4.6-5.2c-1,1.9-3,3.5-4.8,5.1s-3.7,3.3-5.4,4.9
										c-3.5,3.3-6.5,6.8-9.1,10.5c-5.2,7.2-8.4,14.9-10.2,22.7c-1,3.9-1.5,7.8-1.9,11.7c-0.1,4,0.2,7.8,0.4,11.7
										c0.5,7.8,1.1,15.6,1.8,23.4l4.8,46.8l1.9,18.2l-37.2-9.9l37.7,14.2l0.1,0.9c1,7.7,1.4,15.4,1.5,23.2
										c0.1,15.3-0.6,30.6-1.4,46l-15.5-3.4l-2.4,4.1l17.6,3l-2.5,43.8c-0.1,2.6-0.3,5.2-0.4,7.8l-14.6-4.4l14.4,7.9
										c0,0.1,0,0.3,0,0.4c-0.1,4,0.1,8,0.4,11.9c0.5,7.9,1.5,15.7,2.6,23.6c2.3,15.7,5.4,31.2,9,46.8l19.7-1.8
										c-4.4-15.2-8.2-30.6-11.3-46c-1.5-7.7-2.9-15.4-3.8-23.1c-0.4-3.8-0.8-7.7-1-11.5s0-7.8-0.1-11.6l0.1-43.7
										c3.8-0.5,7.4-1.2,11-2c5.6-1.3,11.1-2.9,15.5-5.5c4.1-2.6,7.1-5.6,9.8-8.7c2.6-3.1,4.9-6.2,6.8-9.5
										C683.1,542.7,680.4,545.8,677.4,548.7z"/>
									<path class="st3" d="M599.8,476.4l0.9-1.1c3.9-5.1-0.2-11.2-9-13.4l-0.9,1.1C587,468.1,591,474.1,599.8,476.4z"/>
									<path class="st3" d="M571.9,488.9l2.1,0.3c9.4,1.2,18.7-2.3,20.7-7.8l0,0l-2.1-0.3C583.2,479.9,573.9,483.4,571.9,488.9z"
										/>
									<path class="st3" d="M672.9,546.6l2.1,0.3c2.6-5.4-2.9-11.1-12.1-12.6l-2.1-0.3C658.3,539.4,663.7,545,672.9,546.6z"/>
									<path class="st3" d="M685.5,551.9l-6.6,0.8l0,0c1.5,4,8.3,6.6,15.2,5.8l6.6-0.8C699.3,553.6,692.4,551,685.5,551.9z"/>
									<path class="st3" d="M609.5,611.3v-1.2c0-4-5.5-7.2-12.3-7.2v1.2C597.2,608.1,602.7,611.3,609.5,611.3z"/>
									<path class="st3" d="M595.5,621.9l2,0.1c6.7,0.5,12.9-2.4,13.7-6.3l-2-0.1C602.5,615.1,596.3,617.9,595.5,621.9z"/>
								</g>
								<g>
									<path class="st3" d="M-1.9,554.1c-3,2.9-6.4,5.7-10.5,7.9c-4.1,2.1-9.5,3.4-14.9,4.3c-3.2,0.5-6.4,1-9.7,1.3l0,0
										c0-15.6,0-31.2-1-46.9c-0.5-7.8-1.3-15.7-2.8-23.5l-0.3-1.7l0.5-0.5l-0.6-0.1l-3.3-20.9l-5.9-37.4l31.6-22.5l-32.4,17.1
										l-0.6-3.7c-1.1-7.8-2.1-15.5-3-23.3c-0.4-3.9-0.9-7.8-1-11.6c0.2-3.8,0.5-7.7,1.2-11.6c1.5-7.7,4.1-15.4,8.9-22.6
										c2.3-3.6,5.2-7.2,8.5-10.5c1.7-1.7,3.4-3.4,5.2-5c1.7-1.7,3.6-3.3,4.6-5.2c-1,1.9-3,3.5-4.8,5.1c-1.8,1.6-3.7,3.3-5.4,4.9
										c-3.5,3.3-6.5,6.8-9.1,10.5c-5.2,7.2-8.4,14.9-10.2,22.7c-1,3.9-1.5,7.8-1.9,11.7c-0.1,4,0.2,7.8,0.4,11.7
										c0.5,7.8,1.1,15.6,1.8,23.4l4.8,46.8l1.9,18.2l-37.2-9.9l37.7,14.2l0.1,0.9c1,7.7,1.4,15.4,1.5,23.2
										c0.1,15.3-0.6,30.6-1.4,46l-15.5-3.4l-2.4,4.1l17.6,3l-2.5,43.8c-0.1,2.6-0.3,5.2-0.4,7.8L-67,618l14.4,7.9
										c0,0.1,0,0.3,0,0.4c-0.1,4,0.1,8,0.4,11.9c0.5,7.9,1.5,15.7,2.6,23.6c2.3,15.7,5.4,31.2,9,46.8l19.7-1.8
										c-4.4-15.2-8.2-30.6-11.3-46c-1.5-7.7-2.9-15.4-3.8-23.1c-0.4-3.8-0.8-7.7-1-11.5s0-7.8-0.1-11.6l0.1-43.7
										c3.8-0.5,7.4-1.2,11-2c5.6-1.3,11.1-2.9,15.5-5.5c4.1-2.6,7.1-5.6,9.8-8.7c2.6-3.1,4.9-6.2,6.8-9.5
										C3.8,548.2,1.1,551.2-1.9,554.1z"/>
									<path class="st3" d="M-79.4,481.8l0.9-1.1c3.9-5.1-0.2-11.2-9-13.4l-0.9,1.1C-92.2,473.5-88.2,479.6-79.4,481.8z"/>
									<path class="st3" d="M-107.3,494.3l2.1,0.3c9.4,1.2,18.7-2.3,20.7-7.8l0,0l-2.1-0.3C-96,485.3-105.3,488.8-107.3,494.3z"/>
									<path class="st3" d="M-6.3,552l2.1,0.3c2.6-5.4-2.9-11.1-12.1-12.6l-2.1-0.3C-21,544.8-15.5,550.5-6.3,552z"/>
									<path class="st3" d="M6.3,557.3l-6.6,0.8l0,0c1.5,4,8.3,6.6,15.2,5.8l6.6-0.8C20,559,13.2,556.4,6.3,557.3z"/>
									<path class="st3" d="M-69.7,616.8v-1.2c0-4-5.5-7.2-12.3-7.2v1.2C-82,613.5-76.5,616.8-69.7,616.8z"/>
									<path class="st3" d="M-83.7,627.3l2,0.1c6.7,0.5,12.9-2.4,13.7-6.3l-2-0.1C-76.7,620.6-82.9,623.4-83.7,627.3z"/>
								</g>
								<g class="st2">
									<path class="st3" d="M654.5,532.4c2.8,3.1,5.9,6.2,9.8,8.6c3.8,2.3,8.8,3.7,13.8,4.7c2.9,0.6,5.9,1,9,1.4l0,0
										c0-16.9,0-33.9,0.9-50.9c0.5-8.5,1.2-17,2.6-25.5l0.3-1.9l-0.4-0.5l0.5-0.2l3-22.7l5.4-40.6l-29.2-24.4l30,18.6l0.5-4
										c1-8.4,2-16.9,2.8-25.3c0.4-4.2,0.8-8.4,1-12.6c-0.2-4.1-0.4-8.4-1.1-12.5c-1.3-8.3-3.8-16.7-8.3-24.5
										c-2.2-3.9-4.8-7.8-7.9-11.4c-1.5-1.8-3.1-3.6-4.8-5.4c-1.6-1.8-3.4-3.6-4.2-5.6c0.9,2,2.8,3.8,4.5,5.5
										c1.7,1.8,3.4,3.5,5,5.3c3.2,3.6,6.1,7.4,8.4,11.3c4.9,7.8,7.7,16.2,9.5,24.6c0.9,4.2,1.4,8.4,1.7,12.7
										c0,4.3-0.2,8.5-0.4,12.7c-0.5,8.5-1,16.9-1.7,25.4l-4.5,50.7l-1.7,19.7l34.5-10.7l-34.9,15.4l-0.1,1
										c-1,8.3-1.3,16.7-1.4,25.1c-0.1,16.6,0.5,33.2,1.3,49.8l14.3-3.7l2.2,4.5l-16.3,3.2l2.3,47.5c0.1,2.8,0.3,5.6,0.4,8.5
										l13.5-4.8l-13.4,8.6c0,0.2,0,0.3,0,0.5c0.1,4.3-0.1,8.6-0.3,12.9c-0.5,8.6-1.4,17.1-2.4,25.6c-2.2,17-5,33.8-8.3,50.8
										l-18.2-2c4.1-16.5,7.6-33.2,10.5-49.9c1.4-8.3,2.7-16.7,3.5-25c0.4-4.2,0.8-8.3,0.9-12.4c0.2-4.1,0-8.4,0.1-12.6l-0.1-47.4
										c-3.5-0.6-6.9-1.3-10.2-2.1c-5.2-1.4-10.3-3.1-14.3-6c-3.8-2.8-6.6-6.1-9.1-9.4c-2.4-3.3-4.5-6.8-6.3-10.3
										C649.2,526,651.7,529.2,654.5,532.4z"/>
								</g>
							</g>
							<g class="st2">
								<path class="st3" d="M927.7,531.2c2.8,3.1,5.9,6.2,9.8,8.6c3.8,2.3,8.8,3.7,13.8,4.7c2.9,0.6,5.9,1,9,1.4l0,0
									c0-16.9,0-33.9,0.9-50.9c0.5-8.5,1.2-17,2.6-25.5l0.3-1.9l-0.4-0.5l0.5-0.2l3-22.7l5.4-40.6l-29.2-24.4l30,18.6l0.5-4
									c1-8.4,2-16.9,2.8-25.3c0.4-4.2,0.8-8.4,1-12.6c-0.2-4.1-0.4-8.4-1.1-12.5c-1.3-8.3-3.8-16.7-8.3-24.5
									c-2.2-3.9-4.8-7.8-7.9-11.4c-1.5-1.8-3.1-3.6-4.8-5.4c-1.6-1.8-3.4-3.6-4.2-5.6c0.9,2,2.8,3.8,4.5,5.5
									c1.7,1.8,3.4,3.5,5,5.3c3.2,3.6,6.1,7.4,8.4,11.3c4.9,7.8,7.7,16.2,9.5,24.6c0.9,4.2,1.4,8.4,1.7,12.7
									c0,4.3-0.2,8.5-0.4,12.7c-0.5,8.5-1,16.9-1.7,25.4l-4.5,50.7l-1.7,19.7l34.5-10.7L971.9,469l-0.1,1
									c-1,8.3-1.3,16.7-1.4,25.1c-0.1,16.6,0.5,33.2,1.3,49.8l14.3-3.7l2.2,4.5L972,549l2.3,47.5c0.1,2.8,0.3,5.6,0.4,8.5
									l13.5-4.8l-13.4,8.6c0,0.2,0,0.3,0,0.5c0.1,4.3-0.1,8.6-0.3,12.9c-0.5,8.6-1.4,17.1-2.4,25.6c-2.2,17-5,33.8-8.3,50.8
									l-18.2-2c4.1-16.5,7.6-33.2,10.5-49.9c1.4-8.3,2.7-16.7,3.5-25c0.4-4.2,0.8-8.3,0.9-12.4c0.2-4.1,0-8.4,0.1-12.6l-0.1-47.4
									c-3.5-0.6-6.9-1.3-10.2-2.1c-5.2-1.4-10.3-3.1-14.3-6c-3.8-2.8-6.6-6.1-9.1-9.4c-2.4-3.3-4.5-6.8-6.3-10.3
									C922.5,524.8,925,528.1,927.7,531.2z"/>
							</g>
							<g class="st4">
								<path class="st5" d="M963.4,601.6c-2.8,1.9-5.9,3.7-9.8,5.1c-3.8,1.4-8.8,2.2-13.8,2.8c-2.9,0.4-5.9,0.6-9,0.8l0,0
									c0-10.2,0-20.3-0.9-30.5c-0.5-5.1-1.2-10.2-2.6-15.3l-0.3-1.1l0.4-0.3L927,563l-3-13.6l-5.4-24.3l29.2-14.6l-30,11.1
									l-0.5-2.4c-1-5.1-2-10.1-2.8-15.2c-0.4-2.5-0.8-5.1-1-7.6c0.2-2.5,0.4-5,1.1-7.5c1.3-5,3.8-10,8.3-14.7
									c2.2-2.4,4.8-4.7,7.9-6.9c1.5-1.1,3.1-2.2,4.8-3.3c1.6-1.1,3.4-2.1,4.2-3.4c-0.9,1.2-2.8,2.2-4.5,3.3
									c-1.7,1.1-3.4,2.1-5,3.2c-3.2,2.2-6.1,4.4-8.4,6.8c-4.9,4.7-7.7,9.7-9.5,14.8c-0.9,2.5-1.4,5.1-1.7,7.6
									c0,2.6,0.2,5.1,0.4,7.6c0.5,5.1,1,10.1,1.7,15.2l4.5,30.4l1.7,11.8l-34.5-6.4l34.9,9.2l0.1,0.6c1,5,1.3,10,1.4,15.1
									c0.1,9.9-0.5,19.9-1.3,29.9l-14.3-2.2l-2.2,2.7l16.3,1.9l-2.3,28.5c-0.1,1.7-0.3,3.4-0.4,5.1l-13.5-2.9l13.4,5.2
									c0,0.1,0,0.2,0,0.3c-0.1,2.6,0.1,5.2,0.3,7.7c0.5,5.1,1.4,10.2,2.4,15.3c2.2,10.2,5,20.3,8.3,30.4l18.2-1.2
									c-4.1-9.9-7.6-19.9-10.5-29.9c-1.4-5-2.7-10-3.5-15c-0.4-2.5-0.8-5-0.9-7.5c-0.2-2.5,0-5.1-0.1-7.6l0.1-28.4
									c3.5-0.3,6.9-0.8,10.2-1.3c5.2-0.8,10.3-1.9,14.3-3.6c3.8-1.7,6.6-3.7,9.1-5.6c2.4-2,4.5-4.1,6.3-6.2
									C968.6,597.7,966.2,599.7,963.4,601.6z"/>
							</g>
							<g class="st4">
								<path class="st5" d="M1219.3,591.9c-2.8,1.9-5.9,3.7-9.8,5.1c-3.8,1.4-8.8,2.2-13.8,2.8c-2.9,0.4-5.9,0.6-9,0.8l0,0
									c0-10.2,0-20.3-0.9-30.5c-0.5-5.1-1.2-10.2-2.6-15.3l-0.3-1.1l0.4-0.3l-0.5-0.1l-3-13.6l-5.4-24.3l29.2-14.6l-30,11.1
									l-0.5-2.4c-1-5.1-2-10.1-2.8-15.2c-0.4-2.5-0.8-5.1-1-7.6c0.2-2.5,0.4-5,1.1-7.5c1.3-5,3.8-10,8.3-14.7
									c2.2-2.4,4.8-4.7,7.9-6.9c1.5-1.1,3.1-2.2,4.8-3.3c1.6-1.1,3.4-2.1,4.2-3.4c-0.9,1.2-2.8,2.2-4.5,3.3
									c-1.7,1.1-3.4,2.1-5,3.2c-3.2,2.2-6.1,4.4-8.4,6.8c-4.9,4.7-7.7,9.7-9.5,14.8c-0.9,2.5-1.4,5.1-1.7,7.6
									c0,2.6,0.2,5.1,0.4,7.6c0.5,5.1,1,10.1,1.7,15.2l4.5,30.4l1.7,11.8l-34.5-6.4l34.9,9.2l0.1,0.6c1,5,1.3,10,1.4,15.1
									c0.1,9.9-0.5,19.9-1.3,29.9l-14.3-2.2l-2.2,2.7l16.3,1.9l-2.3,28.5c-0.1,1.7-0.3,3.4-0.4,5.1l-13.5-2.9l13.4,5.2
									c0,0.1,0,0.2,0,0.3c-0.1,2.6,0.1,5.2,0.3,7.7c0.5,5.1,1.4,10.2,2.4,15.3c2.2,10.2,5,20.3,8.3,30.4l18.2-1.2
									c-4.1-9.9-7.6-19.9-10.5-29.9c-1.4-5-2.7-10-3.5-15c-0.4-2.5-0.8-5-0.9-7.5c-0.2-2.5,0-5.1-0.1-7.6l0.1-28.4
									c3.5-0.3,6.9-0.8,10.2-1.3c5.2-0.8,10.3-1.9,14.3-3.6c3.8-1.7,6.6-3.7,9.1-5.6c2.4-2,4.5-4.1,6.3-6.2
									C1224.6,588,1222.1,590,1219.3,591.9z"/>
							</g>
						</g>
						<g>
							<path class="st3" d="M1306.2,526.7c-3.4,3.2-7.2,6.3-11.8,8.8c-4.6,2.4-10.6,3.8-16.6,4.9c-3.5,0.6-7.2,1.1-10.8,1.4l0,0
								c0-17.4,0-34.9-1.1-52.4c-0.5-8.7-1.5-17.5-3.1-26.3l-0.3-1.9l0.5-0.5l-0.6-0.2l-3.7-23.3l-6.6-41.8l35.3-25.1l-36.2,19.1
								l-0.7-4.2c-1.3-8.7-2.4-17.4-3.4-26c-0.5-4.3-1-8.7-1.2-13c0.2-4.3,0.5-8.6,1.4-12.9c1.6-8.6,4.6-17.2,10-25.2
								c2.6-4.1,5.8-8,9.5-11.8c1.9-1.9,3.8-3.7,5.8-5.6c1.9-1.9,4.1-3.7,5.1-5.8c-1.1,2.1-3.4,3.9-5.4,5.7
								c-2.1,1.8-4.1,3.6-6.1,5.5c-3.9,3.7-7.3,7.6-10.2,11.7c-5.9,8.1-9.3,16.7-11.4,25.3c-1.1,4.4-1.7,8.7-2.1,13.1
								c-0.1,4.4,0.2,8.8,0.5,13.1c0.6,8.7,1.2,17.4,2,26.1l5.4,52.2l2.1,20.3l-41.6-11.1l42.1,15.9l0.1,1
								c1.2,8.6,1.6,17.2,1.7,25.9c0.2,17.1-0.7,34.2-1.6,51.3l-17.3-3.8l-2.6,4.6l19.7,3.3l-2.8,49c-0.1,2.9-0.3,5.8-0.5,8.7
								l-16.3-4.9l16.1,8.9c0,0.2,0,0.3,0,0.5c-0.1,4.5,0.1,8.9,0.4,13.3c0.6,8.8,1.7,17.6,2.9,26.3c2.6,17.5,6,34.8,10.1,52.3l22-2
								c-4.9-17-9.2-34.2-12.7-51.4c-1.7-8.6-3.3-17.2-4.3-25.8c-0.5-4.3-0.9-8.6-1.1-12.8c-0.2-4.3,0-8.7-0.1-13l0.1-48.8
								c4.2-0.6,8.3-1.3,12.3-2.2c6.2-1.4,12.4-3.2,17.3-6.1c4.6-2.9,7.9-6.3,10.9-9.7c2.9-3.4,5.5-7,7.6-10.6
								C1312.6,520.1,1309.6,523.5,1306.2,526.7z"/>
							<path class="st3" d="M1219.6,445.9l1-1.3c4.3-5.7-0.2-12.5-10-15l-1,1.3C1205.3,436.6,1209.8,443.4,1219.6,445.9z"/>
							<path class="st3" d="M1188.4,459.9l2.3,0.3c10.5,1.3,20.9-2.6,23.1-8.7l0,0l-2.3-0.3C1201.1,449.8,1190.7,453.8,1188.4,459.9
								z"/>
							<path class="st3" d="M1301.3,524.3l2.3,0.4c2.9-6-3.2-12.4-13.5-14l-2.3-0.4C1284.9,516.3,1291,522.7,1301.3,524.3z"/>
							<path class="st3" d="M1315.3,530.3l-7.4,0.9l0,0c1.7,4.5,9.3,7.4,17,6.4l7.4-0.9C1330.7,532.2,1323.1,529.3,1315.3,530.3z"/>
							<path class="st3" d="M1230.4,596.7v-1.3c0-4.4-6.2-8.1-13.8-8.1v1.3C1216.7,593.1,1222.9,596.7,1230.4,596.7z"/>
							<path class="st3" d="M1214.8,608.5l2.2,0.2c7.5,0.5,14.4-2.6,15.3-7l-2.2-0.2C1222.6,600.9,1215.7,604.1,1214.8,608.5z"/>
						</g>
					</g>
					<g id="XMLID_101_" class="st8">
						<path id="XMLID_106_" class="st9" d="M1136.7,68.5c0,0-7.9-27.7-40.9-17.5c0,0,9.8-32.4-38.3-30.9
							c-52,1.6-35.1,29.9-35.1,29.9s-24.1-7.3-33.5,0c-4.9,3.8-7,11-7.8,16.9c-27.5-13.3-48.8,8.2-41.4,9.8c7.4,1.6,40.9,0,40.9,0
							s20.7,2.7,32,0c0,0,40.4,6.3,83.7,1.2c0,0,20.2,3.9,40.4,0.4c0,0,28.1,0.7,37.9-1.6C1184.5,74.4,1158.4,57.3,1136.7,68.5z"/>
						<g id="XMLID_103_">
							
								<linearGradient id="XMLID_2_" gradientUnits="userSpaceOnUse" x1="1030.5555" y1="-25.9857" x2="1066.6428" y2="-138.2574" gradientTransform="matrix(1 0 0 1 0 162)">
								<stop  offset="1.642628e-03" style="stop-color:#EDCB60"/>
								<stop  offset="7.963607e-02" style="stop-color:#E1D184"/>
								<stop  offset="0.1873" style="stop-color:#D3D7AF"/>
								<stop  offset="0.2841" style="stop-color:#C9DCCF"/>
								<stop  offset="0.3656" style="stop-color:#C2DFE2"/>
								<stop  offset="0.422" style="stop-color:#C0E0E9"/>
								<stop  offset="0.4932" style="stop-color:#B4D7E3"/>
								<stop  offset="0.6227" style="stop-color:#93C1D2"/>
								<stop  offset="0.7959" style="stop-color:#5F9CB6"/>
								<stop  offset="1" style="stop-color:#186B91"/>
							</linearGradient>
							<path id="XMLID_105_" class="st10" d="M1131,75.7c-14.2,5.8-45-9.5-45-9.5c-2.1,1.6-4.7,2.8-7.2,3.5
								c-7.8,2.3-16.6,1.2-23.5-2.5c-51.6-28.2-0.7-46.8-0.4-46.9c-42.1,2.2-35.6,22.9-33.1,28.4c3.8,5.1,8.3,8.5,10.5,10
								c-19.9-12.8-36-11.4-37.1-11.3c-2.4,0.5-4.5,1.3-6.2,2.6c-4.9,3.8-7,10.9-7.8,16.9c0.6,2.9,1.3,4.8,1.3,4.8
								c-3.6-3.6-7.2-6.3-10.6-8.1c-22.7-5.2-38.6,11.7-32.1,13.1c7.4,1.6,40.9,0,40.9,0s20.7,2.7,32,0c0,0,40.4,6.3,83.7,1.2
								c0,0,20.2,3.9,40.4,0.4c0,0,12.9,0.3,24.3-0.2C1148.4,78.2,1131,75.7,1131,75.7z"/>
							
								<linearGradient id="XMLID_3_" gradientUnits="userSpaceOnUse" x1="1168.8" y1="-84.4" x2="1168.8" y2="-84.4" gradientTransform="matrix(1 0 0 1 0 162)">
								<stop  offset="1.642628e-03" style="stop-color:#EDCB60"/>
								<stop  offset="7.963607e-02" style="stop-color:#E1D184"/>
								<stop  offset="0.1873" style="stop-color:#D3D7AF"/>
								<stop  offset="0.2841" style="stop-color:#C9DCCF"/>
								<stop  offset="0.3656" style="stop-color:#C2DFE2"/>
								<stop  offset="0.422" style="stop-color:#C0E0E9"/>
								<stop  offset="0.4932" style="stop-color:#B4D7E3"/>
								<stop  offset="0.6227" style="stop-color:#93C1D2"/>
								<stop  offset="0.7959" style="stop-color:#5F9CB6"/>
								<stop  offset="1" style="stop-color:#186B91"/>
							</linearGradient>
							<path id="XMLID_104_" class="st11" d="M1168.8,77.6L1168.8,77.6L1168.8,77.6z"/>
						</g>
						<path id="XMLID_102_" class="st12" d="M1136.7,68.5c0,0-7.9-27.7-40.9-17.5c0,0,7-23.2-19.9-29.4c6.5,3.3,20.7,12.6,16.7,31.1
							c0,0,30.5-11.3,41.5,18.3c0,0,26-14.4,40.5,5.8C1184.5,74.4,1158.4,57.3,1136.7,68.5z"/>
					</g>
					<g id="XMLID_95_">
						<path id="XMLID_100_" class="st9" d="M1230,242.6c0,0-6-21.2-31.3-13.4c0,0,7.5-24.8-29.4-23.6c-39.8,1.3-26.8,22.9-26.8,22.9
							s-18.5-5.6-25.6,0c-3.8,2.9-5.3,8.4-6,13c-21.1-10.2-37.4,6.3-31.7,7.5c5.7,1.2,31.3,0,31.3,0s15.8,2.1,24.5,0
							c0,0,30.9,4.8,64.1,0.9c0,0,15.5,3,30.9,0.3c0,0,21.5,0.6,29-1.2C1266.6,247.1,1246.7,234,1230,242.6z"/>
						<g id="XMLID_97_">
							
								<linearGradient id="XMLID_4_" gradientUnits="userSpaceOnUse" x1="1148.6169" y1="132.2756" x2="1176.2511" y2="46.3027" gradientTransform="matrix(1 0 0 1 0 162)">
								<stop  offset="0" style="stop-color:#186B91"/>
								<stop  offset="0.2041" style="stop-color:#5F9CB6"/>
								<stop  offset="0.3773" style="stop-color:#93C1D2"/>
								<stop  offset="0.5068" style="stop-color:#B4D7E3"/>
								<stop  offset="0.578" style="stop-color:#C0E0E9"/>
								<stop  offset="0.6344" style="stop-color:#C2DFE2"/>
								<stop  offset="0.7159" style="stop-color:#C9DCCF"/>
								<stop  offset="0.8127" style="stop-color:#D3D7AF"/>
								<stop  offset="0.9204" style="stop-color:#E1D184"/>
								<stop  offset="0.9984" style="stop-color:#EDCB60"/>
							</linearGradient>
							<path id="XMLID_99_" class="st13" d="M1225.6,248.1c-10.9,4.5-34.4-7.3-34.4-7.3c-1.6,1.3-3.6,2.1-5.5,2.7
								c-6,1.7-12.7,0.9-18-1.9c-39.5-21.6-0.6-35.8-0.3-35.9c-32.2,1.7-27.3,17.5-25.3,21.8c2.9,3.9,6.3,6.5,8,7.7
								c-15.2-9.8-27.5-8.7-28.4-8.6c-1.8,0.4-3.5,1-4.8,2c-3.8,2.9-5.3,8.4-6,12.9c0.5,2.2,1,3.7,1,3.7c-2.8-2.8-5.5-4.8-8.2-6.2
								c-17.4-4-29.6,9-24.6,10c5.7,1.2,31.3,0,31.3,0s15.8,2.1,24.5,0c0,0,30.9,4.8,64.1,0.9c0,0,15.5,3,30.9,0.3
								c0,0,9.9,0.3,18.6-0.1C1239,250,1225.6,248.1,1225.6,248.1z"/>
							
								<linearGradient id="XMLID_5_" gradientUnits="userSpaceOnUse" x1="1254.6" y1="87.6" x2="1254.6" y2="87.6" gradientTransform="matrix(1 0 0 1 0 162)">
								<stop  offset="1.602564e-03" style="stop-color:#A085A5"/>
								<stop  offset="0.578" style="stop-color:#BE4C55;stop-opacity:0.2"/>
								<stop  offset="0.6373" style="stop-color:#C25358;stop-opacity:0.3129"/>
								<stop  offset="0.7231" style="stop-color:#CB6661;stop-opacity:0.4762"/>
								<stop  offset="0.825" style="stop-color:#DB866F;stop-opacity:0.67"/>
								<stop  offset="0.9382" style="stop-color:#F2B182;stop-opacity:0.8856"/>
								<stop  offset="0.9984" style="stop-color:#FFCB8E"/>
							</linearGradient>
							<path id="XMLID_98_" class="st14" d="M1254.6,249.6L1254.6,249.6L1254.6,249.6z"/>
						</g>
						<path id="XMLID_96_" class="st12" d="M1230,242.6c0,0-6-21.2-31.3-13.4c0,0,5.4-17.7-15.2-22.5c5,2.5,15.8,9.7,12.8,23.8
							c0,0,23.4-8.7,31.8,14c0,0,19.9-11,31,4.4C1266.6,247.1,1246.7,234,1230,242.6z"/>
					</g>
					<g id="XMLID_89_">
						<path id="XMLID_94_" class="st9" d="M344.1,145.5c0,0-5.3-18.6-27.5-11.8c0,0,6.6-21.8-25.8-20.8c-35,1.1-23.6,20.1-23.6,20.1
							s-16.2-4.9-22.5,0c-3.3,2.5-4.7,7.4-5.3,11.4c-18.5-8.9-32.8,5.5-27.9,6.6c5,1,27.5,0,27.5,0s13.9,1.8,21.5,0
							c0,0,27.2,4.3,56.3,0.8c0,0,13.6,2.7,27.2,0.3c0,0,18.9,0.5,25.5-1.1C376.2,149.5,358.7,138,344.1,145.5z"/>
						<g id="XMLID_91_">
							
								<linearGradient id="XMLID_6_" gradientUnits="userSpaceOnUse" x1="272.532" y1="28.8714" x2="296.8078" y2="-46.6531" gradientTransform="matrix(1 0 0 1 0 162)">
								<stop  offset="0" style="stop-color:#186B91"/>
								<stop  offset="0.2041" style="stop-color:#5F9CB6"/>
								<stop  offset="0.3773" style="stop-color:#93C1D2"/>
								<stop  offset="0.5068" style="stop-color:#B4D7E3"/>
								<stop  offset="0.578" style="stop-color:#C0E0E9"/>
								<stop  offset="0.6344" style="stop-color:#C2DFE2"/>
								<stop  offset="0.7159" style="stop-color:#C9DCCF"/>
								<stop  offset="0.8127" style="stop-color:#D3D7AF"/>
								<stop  offset="0.9204" style="stop-color:#E1D184"/>
								<stop  offset="0.9984" style="stop-color:#EDCB60"/>
							</linearGradient>
							<path id="XMLID_93_" class="st15" d="M340.2,150.3c-9.6,3.9-30.3-6.4-30.3-6.4c-1.4,1.1-3.1,1.9-4.9,2.4
								c-5.3,1.5-11.2,0.8-15.8-1.7c-34.7-19-0.5-31.5-0.3-31.6c-28.3,1.5-24,15.4-22.2,19.1c2.5,3.4,5.6,5.7,7.1,6.8
								c-13.4-8.6-24.2-7.7-24.9-7.6c-1.6,0.3-3.1,0.9-4.2,1.7c-3.3,2.5-4.7,7.4-5.3,11.4c0.4,1.9,0.9,3.2,0.9,3.2
								c-2.4-2.4-4.8-4.2-7.2-5.4c-15.3-3.5-26,7.9-21.6,8.8c5,1,27.5,0,27.5,0s13.9,1.8,21.5,0c0,0,27.2,4.3,56.3,0.8
								c0,0,13.6,2.7,27.2,0.3c0,0,8.7,0.2,16.3-0.1C352,152,340.2,150.3,340.2,150.3z"/>
							
								<linearGradient id="XMLID_7_" gradientUnits="userSpaceOnUse" x1="365.7" y1="-10.4" x2="365.7" y2="-10.4" gradientTransform="matrix(1 0 0 1 0 162)">
								<stop  offset="0" style="stop-color:#186B91"/>
								<stop  offset="0.2041" style="stop-color:#5F9CB6"/>
								<stop  offset="0.3773" style="stop-color:#93C1D2"/>
								<stop  offset="0.5068" style="stop-color:#B4D7E3"/>
								<stop  offset="0.578" style="stop-color:#C0E0E9"/>
								<stop  offset="0.6344" style="stop-color:#C2DFE2"/>
								<stop  offset="0.7159" style="stop-color:#C9DCCF"/>
								<stop  offset="0.8127" style="stop-color:#D3D7AF"/>
								<stop  offset="0.9204" style="stop-color:#E1D184"/>
								<stop  offset="0.9984" style="stop-color:#EDCB60"/>
							</linearGradient>
							<path id="XMLID_92_" class="st16" d="M365.7,151.6L365.7,151.6L365.7,151.6z"/>
						</g>
						<path id="XMLID_90_" class="st12" d="M344.1,145.5c0,0-5.3-18.6-27.5-11.8c0,0,4.7-15.6-13.4-19.8c4.4,2.2,13.9,8.5,11.3,20.9
							c0,0,20.5-7.6,27.9,12.3c0,0,17.5-9.7,27.2,3.9C376.2,149.5,358.7,138,344.1,145.5z"/>
					</g>
					<g id="XMLID_83_">
						<path id="XMLID_88_" class="st9" d="M814.4,187.8c0,0-9.7-33.9-50.1-21.5c0,0,12-39.7-46.9-37.8c-63.7,2-42.9,36.7-42.9,36.7
							s-29.6-8.9-41-0.1c-6,4.6-8.5,13.4-9.6,20.7c-33.7-16.3-59.8,10.1-50.7,12c9,1.9,50.1,0,50.1,0s25.3,3.3,39.2,0
							c0,0,49.5,7.7,102.6,1.5c0,0,24.7,4.8,49.5,0.5c0,0,34.4,0.9,46.5-2C872.9,194.9,841,174,814.4,187.8z"/>
						<g id="XMLID_85_">
							
								<linearGradient id="XMLID_8_" gradientUnits="userSpaceOnUse" x1="684.189" y1="108.3543" x2="728.3879" y2="-29.1536" gradientTransform="matrix(1 0 0 1 0 162)">
								<stop  offset="1.602564e-03" style="stop-color:#A085A5"/>
								<stop  offset="0.578" style="stop-color:#BE4C55;stop-opacity:0.2"/>
								<stop  offset="0.6373" style="stop-color:#C25358;stop-opacity:0.3129"/>
								<stop  offset="0.7231" style="stop-color:#CB6661;stop-opacity:0.4762"/>
								<stop  offset="0.825" style="stop-color:#DB866F;stop-opacity:0.67"/>
								<stop  offset="0.9382" style="stop-color:#F2B182;stop-opacity:0.8856"/>
								<stop  offset="0.9984" style="stop-color:#FFCB8E"/>
							</linearGradient>
							<path id="XMLID_87_" class="st17" d="M807.3,196.5c-17.4,7.2-55.1-11.6-55.1-11.6c-2.6,2-5.7,3.4-8.9,4.3
								c-9.6,2.8-20.3,1.5-28.8-3.1c-63.3-34.5-0.9-57.3-0.5-57.5c-51.6,2.7-43.6,28-40.5,34.8c4.6,6.2,10.1,10.4,12.8,12.3
								c-24.3-15.6-44-14-45.4-13.8c-2.9,0.6-5.6,1.6-7.6,3.2c-6,4.6-8.5,13.4-9.6,20.7c0.7,3.5,1.6,5.8,1.6,5.8
								c-4.4-4.5-8.8-7.7-13-9.9c-27.9-6.4-47.3,14.4-39.3,16c9,1.9,50.1,0,50.1,0s25.3,3.3,39.2,0c0,0,49.5,7.7,102.6,1.5
								c0,0,24.7,4.8,49.5,0.5c0,0,15.8,0.4,29.7-0.2C828.7,199.6,807.3,196.5,807.3,196.5z"/>
							
								<linearGradient id="XMLID_9_" gradientUnits="userSpaceOnUse" x1="853.7" y1="36.9" x2="853.7" y2="36.9" gradientTransform="matrix(1 0 0 1 0 162)">
								<stop  offset="1.602564e-03" style="stop-color:#A085A5"/>
								<stop  offset="0.578" style="stop-color:#BE4C55;stop-opacity:0.2"/>
								<stop  offset="0.6373" style="stop-color:#C25358;stop-opacity:0.3129"/>
								<stop  offset="0.7231" style="stop-color:#CB6661;stop-opacity:0.4762"/>
								<stop  offset="0.825" style="stop-color:#DB866F;stop-opacity:0.67"/>
								<stop  offset="0.9382" style="stop-color:#F2B182;stop-opacity:0.8856"/>
								<stop  offset="0.9984" style="stop-color:#FFCB8E"/>
							</linearGradient>
							<path id="XMLID_86_" class="st18" d="M853.7,198.9L853.7,198.9L853.7,198.9z"/>
						</g>
						<path id="XMLID_84_" class="st12" d="M814.4,187.8c0,0-9.7-33.9-50.1-21.5c0,0,8.6-28.4-24.4-36c8,4,25.3,15.5,20.5,38.1
							c0,0,37.4-13.9,50.8,22.4c0,0,31.9-17.6,49.6,7.1C872.9,194.9,841,174,814.4,187.8z"/>
					</g>
					<ellipse class="st19" cx="776.4" cy="-166.6" rx="2" ry="1.6"/>
					<path id="XMLID_159_" class="st20" d="M1318.3,200.2c0,0-341.2-61.4-473.5-37.5c0,0,216.2-8.2,458.8,46.1L1318.3,200.2z"/>
					<path id="XMLID_153_" class="st20" d="M1018.9,9.5c-130.7,8.3-210.7,6.1-298.1-0.6c130,3.1,273.1-2.6,298.1-8.8
						c35.3-8.7,231-0.1,231-0.1l17.5-4.1c0,0-154.4-11.8-269.6,4.1C882.6,16,573.3-4.1,573.3-4.1l0,0c-14.5-1.3-29.7-2.6-45.6-4
						c-198.5-16.7-652.9,52-652.9,52l39.7,46.6c0,0,451.5-68.8,549.2-68.5c97.8,0.3,340.5,31.6,514,14.4s398.5,21,398.5,21
						l36.8-40.7C1413,16.5,1233.6-4.1,1018.9,9.5z M228.4,17.6c-7.8,5.9-33.5,12.1-68.4,13c0,0-34.9-1-24.9-8.2
						C145.2,15.2,236.3,11.7,228.4,17.6z M242.1,27c-22.8-9.1,28.3-25.6,137.1-21.7S291.6,46.7,242.1,27z M817.3,31.2
						c-115.1-1-355.9-19.1-283.8-16.9C677.6,18.5,943.3,32.3,817.3,31.2z M857.1,22.6c0,0,60.5-5.9,75.1,0
						C946.8,28.5,841,27.2,857.1,22.6z"/>
					<path id="XMLID_149_" class="st20" d="M1340,275.8c-9.8,2.8-435.8-23.1-501-37.7c-65.3-14.5-189.2,11.2-326.2,21.5
						s-568.8,2-568.8,2l27.9,15.1c0,0,408.8,52.9,617.6,5.2s779.4,18.4,779.4,18.4S1349.8,272.9,1340,275.8z M210,280.2
						c-5.7-1.5-2.5-4.5,4.9-4.5c52.2-0.2,188.4-0.7,222.3,0.1C497.4,277.1,340.3,313.8,210,280.2z M870.3,253.1c0,0,70.5-0.5,78,8.5
						C955.7,270.6,820.2,257.8,870.3,253.1z"/>
					<path id="XMLID_145_" class="st20" d="M675.8,377.2c0,0,198.7-42,271.4-11.7s215.1-3.3,215.1-3.3l9.7-9.6
						c0,0-150.4,5.2-198.1-1.3c-47.7-6.5-90.9-22.9-113.6-13.7c-22.7,9.2-171.1,25.7-174.5,23.9
						C682.5,359.8,675.8,377.2,675.8,377.2z M1000.3,361.6c11.8-0.5,59.3-0.2,77.4-0.1c2.6,0,3.7,1.9,1.7,2.9
						C1034.1,385.8,979.3,362.4,1000.3,361.6z M822.3,352.6c2.6-5.7,27.2-5.4,27.2-5.4C866.9,350.2,819.7,358.3,822.3,352.6z"/>
					<g id="XMLID_136_">
						<path id="XMLID_138_" class="st20" d="M1081.1,109.6c87.7,3.3,228.8,3.3,228.8,3.3l-8.7-11.4c-53.5,14.5-204,3.2-273.3-3
							c-5.7-1.3-11-2.7-16-4c-97.9-26-238.8-5.5-301.6,11.7c-80,3.1-184.3-1.5-261.2-6.2c-12.1-1.7-24.9-3.6-38.5-5.5
							C215.9,66.7-13.5,155.1-17.9,155.1v17.5c-33-1.3-61-3-78.9-4.1c-12.9-0.8-20.5-1.4-21.1-1.3c0,0,63.2,24.9,108.8,21.7
							c41.6,2.6,95.4,1.3,161.5-9.6c139.4-23,196-15.7,214.9-11c-17.9-4.9-66.7-13.8-159.4-1c-50.4,6.9-114.7,8-172.8,7
							c84.3-26.7,248.3-71.6,335.2-48c120.3,32.7,279.4,25.4,418.7,0s601.1,61.8,601.1,61.8v-32.8
							C1390.1,155.1,1205.8,133.2,1081.1,109.6z M158.8,126.2c-2.2-3.3,25.1-25.9,64.7-19.9C263.1,112.3,166.3,137.6,158.8,126.2z
							 M293.5,109.3c-23.2,7.2-48.6,4.4-28.5-3C269.2,104.7,316.7,102.1,293.5,109.3z M401.2,112c0,0,93.8,6.7,99.1,14.4
							C505.6,134,352.7,116.9,401.2,112z M695.3,110.8c-35.4,12.1-64.4,13-141.4,3.5c55.4,1.7,104.5-0.6,142-3.7
							C695.7,110.7,695.5,110.8,695.3,110.8z M789,112c-35.5,1.3,101.7-22,129.7-10.3C946.8,113.5,863,109.3,789,112z"/>
						<path id="XMLID_137_" class="st20" d="M367.4,168.2c5.5,1.5,8.1,2.6,8.1,2.6S373.2,169.6,367.4,168.2z"/>
					</g>
					<g>
						<path class="st21" d="M246,78.3l-1.8,0.3l-0.4-1.5c-0.1-0.3-0.4-0.5-0.8-0.4c-0.4,0.1-0.6,0.3-0.5,0.6l0.4,1.5l-1.8,0.3
							c-0.4,0.1-0.6,0.3-0.5,0.6c0.1,0.3,0.4,0.5,0.8,0.4l1.8-0.3l0.4,1.5c0.1,0.3,0.4,0.5,0.8,0.4c0.2,0,0.3-0.1,0.4-0.2
							c0.1-0.1,0.2-0.3,0.1-0.4l-0.4-1.5l1.8-0.3c0.2,0,0.3-0.1,0.4-0.2c0.1-0.1,0.2-0.3,0.1-0.4C246.7,78.4,246.3,78.3,246,78.3z"
							/>
						<path class="st21" d="M151.3-16.5L150-16l-0.6-1c-0.1-0.2-0.4-0.3-0.6-0.2c-0.2,0.1-0.3,0.3-0.2,0.5l0.6,1l-1.2,0.5
							c-0.2,0.1-0.3,0.3-0.2,0.5s0.4,0.3,0.6,0.2l1.2-0.5l0.6,1c0.1,0.2,0.4,0.3,0.6,0.2c0.1,0,0.2-0.1,0.2-0.2
							c0.1-0.1,0.1-0.2,0-0.3l-0.6-1l1.2-0.5c0.1,0,0.2-0.1,0.2-0.2c0.1-0.1,0.1-0.2,0-0.3C151.8-16.5,151.5-16.6,151.3-16.5z"/>
						<ellipse class="st19" cx="-45.7" cy="129.9" rx="3.6" ry="2.9"/>
						<ellipse class="st19" cx="251.1" cy="235.7" rx="3.6" ry="2.9"/>
						<ellipse class="st19" cx="439.4" cy="110" rx="2" ry="1.6"/>
						<ellipse class="st19" cx="169.3" cy="363.5" rx="2" ry="1.6"/>
						<path class="st21" d="M636.5,275.2l-1.8,0.3l-0.4-1.5c-0.1-0.3-0.4-0.5-0.8-0.4c-0.4,0.1-0.6,0.3-0.5,0.6l0.4,1.5l-1.8,0.3
							c-0.4,0.1-0.6,0.3-0.5,0.6c0.1,0.3,0.4,0.5,0.8,0.4l1.8-0.3l0.4,1.5c0.1,0.3,0.4,0.5,0.8,0.4c0.2,0,0.3-0.1,0.4-0.2
							c0.1-0.1,0.2-0.3,0.1-0.4l-0.4-1.5l1.8-0.3c0.2,0,0.3-0.1,0.4-0.2c0.1-0.1,0.2-0.3,0.1-0.4
							C637.2,275.3,636.8,275.1,636.5,275.2z"/>
						<path class="st21" d="M283.5,22.7l-2.2-0.6l0.8-1.7c0.1-0.3-0.1-0.7-0.5-0.8c-0.4-0.1-0.9,0.1-1,0.4l-0.8,1.7l-2.2-0.6
							c-0.4-0.1-0.9,0.1-1,0.4s0.1,0.7,0.5,0.8l2.2,0.6l-0.8,1.7c-0.1,0.3,0.1,0.7,0.5,0.8c0.2,0.1,0.4,0,0.5,0
							c0.2-0.1,0.4-0.2,0.5-0.4l0.8-1.7l2.2,0.6c0.2,0.1,0.4,0,0.5,0c0.2-0.1,0.4-0.2,0.5-0.4C284.1,23.2,283.9,22.9,283.5,22.7z"/>
						<path class="st21" d="M38.9,193.1l-1.2,0.5l-0.6-1c-0.1-0.2-0.4-0.3-0.6-0.2c-0.2,0.1-0.3,0.3-0.2,0.5l0.6,1l-1.2,0.5
							c-0.2,0.1-0.3,0.3-0.2,0.5s0.4,0.3,0.6,0.2l1.2-0.5l0.6,1c0.1,0.2,0.4,0.3,0.6,0.2c0.1,0,0.2-0.1,0.2-0.2
							c0.1-0.1,0.1-0.2,0-0.3l-0.6-1l1.2-0.5c0.1,0,0.2-0.1,0.2-0.2c0.1-0.1,0.1-0.2,0-0.3C39.4,193.1,39.2,193,38.9,193.1z"/>
						<path class="st21" d="M148.6,235.4l-1.2,0.5l-0.6-1c-0.1-0.2-0.4-0.3-0.6-0.2c-0.2,0.1-0.3,0.3-0.2,0.5l0.6,1l-1.2,0.5
							c-0.2,0.1-0.3,0.3-0.2,0.5s0.4,0.3,0.6,0.2l1.2-0.5l0.6,1c0.1,0.2,0.4,0.3,0.6,0.2c0.1,0,0.2-0.1,0.2-0.2
							c0.1-0.1,0.1-0.2,0-0.3l-0.6-1l1.2-0.5c0.1,0,0.2-0.1,0.2-0.2c0.1-0.1,0.1-0.2,0-0.3C149.1,235.4,148.8,235.3,148.6,235.4z"/>
						<path class="st21" d="M202.1,127.5l-1.2,0.5l-0.6-1c-0.1-0.2-0.4-0.3-0.6-0.2c-0.2,0.1-0.3,0.3-0.2,0.5l0.6,1l-1.2,0.5
							c-0.2,0.1-0.3,0.3-0.2,0.5s0.4,0.3,0.6,0.2l1.2-0.5l0.6,1c0.1,0.2,0.4,0.3,0.6,0.2c0.1,0,0.2-0.1,0.2-0.2
							c0.1-0.1,0.1-0.2,0-0.3l-0.6-1l1.2-0.5c0.1,0,0.2-0.1,0.2-0.2c0.1-0.1,0.1-0.2,0-0.3C202.6,127.4,202.3,127.4,202.1,127.5z"/>
					</g>
					<g>
						<path class="st21" d="M1048.8,104.3l1.5-1l1,1.2c0.2,0.2,0.6,0.2,0.9,0s0.4-0.5,0.2-0.8l-1-1.2l1.5-1c0.3-0.2,0.4-0.5,0.2-0.8
							c-0.2-0.2-0.6-0.2-0.9,0l-1.5,1l-1-1.2c-0.2-0.2-0.6-0.2-0.9,0c-0.1,0.1-0.2,0.2-0.3,0.3c-0.1,0.2,0,0.3,0.1,0.4l1,1.2l-1.5,1
							c-0.1,0.1-0.2,0.2-0.3,0.3c-0.1,0.2,0,0.3,0.1,0.4C1048.1,104.4,1048.5,104.5,1048.8,104.3z"/>
						<path class="st21" d="M1175.2,152.5l0.9-0.9l1,0.6c0.2,0.1,0.5,0.1,0.6-0.1c0.2-0.2,0.2-0.4,0-0.5l-1-0.6l0.9-0.9
							c0.2-0.2,0.2-0.4,0-0.5s-0.5-0.1-0.6,0.1l-0.9,0.9l-1-0.6c-0.2-0.1-0.5-0.1-0.6,0.1c-0.1,0.1-0.1,0.2-0.1,0.3s0,0.2,0.1,0.3
							l1,0.6l-0.9,0.9c-0.1,0.1-0.1,0.2-0.1,0.3s0,0.2,0.1,0.3C1174.7,152.8,1175,152.7,1175.2,152.5z"/>
						<path class="st19" d="M1289.4-58.5c-0.7-1.5,0.3-3.3,2.1-4.1s3.9-0.3,4.5,1.2c0.7,1.5-0.3,3.3-2.1,4.1
							C1292.1-56.5,1290-57.1,1289.4-58.5z"/>
						<path class="st19" d="M974.1-35.5c-0.7-1.5,0.3-3.3,2.1-4.1s3.9-0.3,4.5,1.2c0.7,1.5-0.3,3.3-2.1,4.1S974.8-34.1,974.1-35.5z"
							/>
						<path class="st19" d="M857.3,154c-0.4-0.8,0.1-1.8,1.2-2.3s2.1-0.2,2.5,0.6s-0.1,1.8-1.2,2.3S857.7,154.8,857.3,154z"/>
						<path class="st19" d="M996.1-185.5c-0.4-0.8,0.1-1.8,1.2-2.3s2.1-0.2,2.5,0.6s-0.1,1.8-1.2,2.3S996.4-184.7,996.1-185.5z"/>
						<path class="st21" d="M609.7,82l1.5-1l1,1.2c0.2,0.2,0.6,0.2,0.9,0c0.3-0.2,0.4-0.5,0.2-0.8l-1-1.2l1.5-1
							c0.3-0.2,0.4-0.5,0.2-0.8c-0.2-0.2-0.6-0.2-0.9,0l-1.5,1l-1-1.2c-0.2-0.2-0.6-0.2-0.9,0c-0.1,0.1-0.2,0.2-0.3,0.3
							c-0.1,0.2,0,0.3,0.1,0.4l1,1.2l-1.5,1c-0.1,0.1-0.2,0.2-0.3,0.3c-0.1,0.2,0,0.3,0.1,0.4C609,82.2,609.4,82.2,609.7,82z"/>
						<path class="st21" d="M1038.2,170l2.3-0.3v1.9c0,0.4,0.4,0.6,0.8,0.5s0.8-0.4,0.8-0.8v-1.9l2.3-0.3c0.4-0.1,0.8-0.4,0.8-0.8
							c0-0.4-0.4-0.6-0.8-0.5l-2.3,0.3v-1.9c0-0.4-0.4-0.6-0.8-0.5c-0.2,0-0.4,0.1-0.5,0.2c-0.2,0.1-0.3,0.3-0.3,0.5v1.9l-2.3,0.3
							c-0.2,0-0.4,0.1-0.5,0.2c-0.2,0.1-0.3,0.3-0.3,0.5C1037.4,169.8,1037.7,170,1038.2,170z"/>
						<path class="st21" d="M850.1,198.5l0.9-0.9l1,0.6c0.2,0.1,0.5,0.1,0.6-0.1c0.2-0.2,0.2-0.4,0-0.5l-1-0.6l0.9-0.9
							c0.2-0.2,0.2-0.4,0-0.5s-0.5-0.1-0.6,0.1l-0.9,0.9l-1-0.6c-0.2-0.1-0.5-0.1-0.6,0.1c-0.1,0.1-0.1,0.2-0.1,0.3s0,0.2,0.1,0.3
							l1,0.6l-0.9,0.9c-0.1,0.1-0.1,0.2-0.1,0.3s0,0.2,0.1,0.3C849.6,198.7,849.9,198.7,850.1,198.5z"/>
						<path class="st21" d="M1188.8-83.5l0.9-0.9l1,0.6c0.2,0.1,0.5,0.1,0.6-0.1c0.2-0.2,0.2-0.4,0-0.5l-1-0.6l0.9-0.9
							c0.2-0.2,0.2-0.4,0-0.5s-0.5-0.1-0.6,0.1l-0.9,0.9l-1-0.6c-0.2-0.1-0.5-0.1-0.6,0.1c-0.1,0.1-0.1,0.2-0.1,0.3
							c0,0.1,0,0.2,0.1,0.3l1,0.6l-0.9,0.9c-0.1,0.1-0.1,0.2-0.1,0.3c0,0.1,0,0.2,0.1,0.3C1188.3-83.3,1188.6-83.3,1188.8-83.5z"/>
						<path class="st21" d="M1071-78l0.9-0.9l1,0.6c0.2,0.1,0.5,0.1,0.6-0.1c0.2-0.2,0.2-0.4,0-0.5l-1-0.6l0.9-0.9
							c0.2-0.2,0.2-0.4,0-0.5s-0.5-0.1-0.6,0.1l-0.9,0.9l-1-0.6c-0.2-0.1-0.5-0.1-0.6,0.1c-0.1,0.1-0.1,0.2-0.1,0.3
							c0,0.1,0,0.2,0.1,0.3l1,0.6l-0.9,0.9c-0.1,0.1-0.1,0.2-0.1,0.3c0,0.1,0,0.2,0.1,0.3C1070.5-77.7,1070.8-77.8,1071-78z"/>
						<path class="st21" d="M1068,41.9l0.9-0.9l1,0.6c0.2,0.1,0.5,0.1,0.6-0.1c0.2-0.2,0.2-0.4,0-0.5l-1-0.6l0.9-0.9
							c0.2-0.2,0.2-0.4,0-0.5s-0.5-0.1-0.6,0.1l-0.9,0.9l-1-0.6c-0.2-0.1-0.5-0.1-0.6,0.1c-0.1,0.1-0.1,0.2-0.1,0.3s0,0.2,0.1,0.3
							l1,0.6l-0.9,0.9c-0.1,0.1-0.1,0.2-0.1,0.3s0,0.2,0.1,0.3C1067.5,42.1,1067.8,42,1068,41.9z"/>
					</g>
					<g>
						<path class="st22" d="M1335.7,27.6c-0.7-1.4,0.3-3.3,2.1-4.1c1.9-0.8,3.9-0.3,4.6,1.2c0.7,1.4-0.3,3.3-2.1,4.1
							C1338.5,29.6,1336.4,29.1,1335.7,27.6z"/>
						<path class="st23" d="M1233.8,2.6l0.9-0.9l1,0.6c0.2,0.1,0.5,0.1,0.7-0.1c0.2-0.2,0.2-0.4,0-0.5l-1-0.6l0.9-0.9
							c0.2-0.2,0.2-0.4,0-0.5s-0.5-0.1-0.7,0.1l-0.9,0.9l-1-0.6c-0.2-0.1-0.5-0.1-0.7,0.1c-0.1,0.1-0.1,0.2-0.1,0.3s0,0.2,0.1,0.3
							l1,0.6l-0.9,0.9c-0.1,0.1-0.1,0.2-0.1,0.3s0,0.2,0.1,0.3C1233.3,2.9,1233.6,2.8,1233.8,2.6z"/>
						<path class="st23" d="M1114.3,8.2l0.9-0.9l1,0.6c0.2,0.1,0.5,0.1,0.7-0.1s0.2-0.4,0-0.5l-1-0.6l0.9-0.9c0.2-0.2,0.2-0.4,0-0.5
							s-0.5-0.1-0.7,0.1l-0.9,0.9l-1-0.6c-0.2-0.1-0.5-0.1-0.7,0.1c-0.1,0.1-0.1,0.2-0.1,0.3c0,0.1,0,0.2,0.1,0.3l1,0.6l-0.9,0.9
							c-0.1,0.1-0.1,0.2-0.1,0.3c0,0.1,0,0.2,0.1,0.3C1113.9,8.4,1114.2,8.4,1114.3,8.2z"/>
					</g>
					<g>
						<path id="XMLID_164_" class="st9" d="M576.2,46.5c0,0,1.5-38.9-35.4-27.5c0,0,0.7-28.2-53.1-26.5
							c-58.1,1.8-39.2,33.4-39.2,33.4s-27-8.1-37.4,0c-5.5,4.2-7.8,12.2-8.7,18.9C371.7,30,347.9,54,356.1,55.7
							c8.3,1.7,45.7,0,45.7,0s23.1,3,35.8,0c0,0,45.1,7.1,93.5,1.4c0,0,22.6,4.4,45.1,0.4c0,0,31.4,0.8,42.4-1.8
							C629.6,53,600.5,33.9,576.2,46.5z"/>
						<g id="XMLID_161_">
							
								<linearGradient id="XMLID_10_" gradientUnits="userSpaceOnUse" x1="457.585" y1="-40.1761" x2="497.8921" y2="-165.5758" gradientTransform="matrix(1 0 0 1 0 162)">
								<stop  offset="0" style="stop-color:#186B91"/>
								<stop  offset="0.2041" style="stop-color:#5F9CB6"/>
								<stop  offset="0.3773" style="stop-color:#93C1D2"/>
								<stop  offset="0.5068" style="stop-color:#B4D7E3"/>
								<stop  offset="0.578" style="stop-color:#C0E0E9"/>
								<stop  offset="0.6344" style="stop-color:#C2DFE2"/>
								<stop  offset="0.7159" style="stop-color:#C9DCCF"/>
								<stop  offset="0.8127" style="stop-color:#D3D7AF"/>
								<stop  offset="0.9204" style="stop-color:#E1D184"/>
								<stop  offset="0.9984" style="stop-color:#EDCB60"/>
							</linearGradient>
							<path id="XMLID_163_" class="st24" d="M569.7,54.4c-15.9,6.5-50.2-10.6-50.2-10.6c-2.4,1.8-5.2,3.1-8.1,3.9
								c-8.7,2.5-18.5,1.3-26.2-2.8c-57.7-31.5-0.8-52.3-0.5-52.4c-47,2.4-39.8,25.5-36.9,31.8c4.2,5.7,9.2,9.5,11.7,11.2
								c-22.2-14.3-40.2-12.7-41.4-12.6c-2.7,0.5-5.1,1.5-6.9,2.9c-5.5,4.2-7.8,12.2-8.7,18.9c0.7,3.2,1.4,5.3,1.4,5.3
								c-4-4.1-8-7-11.9-9c-25.4-5.8-43.1,13.1-35.8,14.6c8.3,1.7,45.7,0,45.7,0s23.1,3,35.8,0c0,0,45.1,7.1,93.5,1.4
								c0,0,22.6,4.4,45.1,0.4c0,0,14.4,0.4,27.1-0.2C589.3,57.3,569.7,54.4,569.7,54.4z"/>
							
								<linearGradient id="XMLID_11_" gradientUnits="userSpaceOnUse" x1="612" y1="-105.4" x2="612" y2="-105.4" gradientTransform="matrix(1 0 0 1 0 162)">
								<stop  offset="0" style="stop-color:#186B91"/>
								<stop  offset="0.2041" style="stop-color:#5F9CB6"/>
								<stop  offset="0.3773" style="stop-color:#93C1D2"/>
								<stop  offset="0.5068" style="stop-color:#B4D7E3"/>
								<stop  offset="0.578" style="stop-color:#C0E0E9"/>
								<stop  offset="0.6344" style="stop-color:#C2DFE2"/>
								<stop  offset="0.7159" style="stop-color:#C9DCCF"/>
								<stop  offset="0.8127" style="stop-color:#D3D7AF"/>
								<stop  offset="0.9204" style="stop-color:#E1D184"/>
								<stop  offset="0.9984" style="stop-color:#EDCB60"/>
							</linearGradient>
							<path id="XMLID_162_" class="st25" d="M612,56.6L612,56.6L612,56.6z"/>
						</g>
						<path id="XMLID_160_" class="st12" d="M576.2,46.5c0,0,1.5-36.7-35.4-25.4c0,0-2.4-20-32.5-27c7.3,3.6,34.2,6.4,29.8,27
							c0,0,23-4.9,35.2,28.1c0,0,29.1-16,45.2,6.5C629.6,53,600.5,33.9,576.2,46.5z"/>
					</g>
					<g id="XMLID_165_">
						<path id="XMLID_170_" class="st9" d="M652,66c0,0-6-21.2-31.3-13.4c0,0,7.5-24.8-29.4-23.6c-39.8,1.3-26.8,22.9-26.8,22.9
							s-18.5-5.6-25.6,0c-3.8,2.9-5.3,8.4-6,13c-21.1-10.2-37.4,6.3-31.7,7.5c5.7,1.2,31.3,0,31.3,0s15.8,2.1,24.5,0
							c0,0,30.9,4.8,64.1,0.9c0,0,15.5,3,30.9,0.3c0,0,21.5,0.6,29-1.2C688.6,70.5,668.7,57.4,652,66z"/>
						<g id="XMLID_167_">
							
								<linearGradient id="XMLID_12_" gradientUnits="userSpaceOnUse" x1="570.6227" y1="-44.3417" x2="598.2568" y2="-130.3148" gradientTransform="matrix(1 0 0 1 0 162)">
								<stop  offset="0" style="stop-color:#186B91"/>
								<stop  offset="0.2041" style="stop-color:#5F9CB6"/>
								<stop  offset="0.3773" style="stop-color:#93C1D2"/>
								<stop  offset="0.5068" style="stop-color:#B4D7E3"/>
								<stop  offset="0.578" style="stop-color:#C0E0E9"/>
								<stop  offset="0.6344" style="stop-color:#C2DFE2"/>
								<stop  offset="0.7159" style="stop-color:#C9DCCF"/>
								<stop  offset="0.8127" style="stop-color:#D3D7AF"/>
								<stop  offset="0.9204" style="stop-color:#E1D184"/>
								<stop  offset="0.9984" style="stop-color:#EDCB60"/>
							</linearGradient>
							<path id="XMLID_169_" class="st26" d="M647.6,71.5c-10.9,4.5-34.4-7.3-34.4-7.3c-1.6,1.3-3.6,2.1-5.5,2.7
								c-6,1.7-12.7,0.9-18-1.9c-39.5-21.6-0.6-35.8-0.3-35.9c-32.2,1.7-27.3,17.5-25.3,21.8c2.9,3.9,6.3,6.5,8,7.7
								c-15.2-9.8-27.5-8.7-28.4-8.6c-1.8,0.4-3.5,1-4.8,2c-3.8,2.9-5.3,8.4-6,12.9c0.5,2.2,1,3.7,1,3.7c-2.8-2.8-5.5-4.8-8.2-6.2
								c-17.4-4-29.6,9-24.6,10c5.7,1.2,31.3,0,31.3,0s15.8,2.1,24.5,0c0,0,30.9,4.8,64.1,0.9c0,0,15.5,3,30.9,0.3
								c0,0,9.9,0.3,18.6-0.1C661,73.4,647.6,71.5,647.6,71.5z"/>
							
								<linearGradient id="XMLID_13_" gradientUnits="userSpaceOnUse" x1="676.6" y1="-89" x2="676.6" y2="-89" gradientTransform="matrix(1 0 0 1 0 162)">
								<stop  offset="1.602564e-03" style="stop-color:#A085A5"/>
								<stop  offset="0.578" style="stop-color:#BE4C55;stop-opacity:0.2"/>
								<stop  offset="0.6373" style="stop-color:#C25358;stop-opacity:0.3129"/>
								<stop  offset="0.7231" style="stop-color:#CB6661;stop-opacity:0.4762"/>
								<stop  offset="0.825" style="stop-color:#DB866F;stop-opacity:0.67"/>
								<stop  offset="0.9382" style="stop-color:#F2B182;stop-opacity:0.8856"/>
								<stop  offset="0.9984" style="stop-color:#FFCB8E"/>
							</linearGradient>
							<path id="XMLID_168_" class="st27" d="M676.6,73L676.6,73L676.6,73z"/>
						</g>
						<path id="XMLID_166_" class="st12" d="M652,66c0,0-6-21.2-31.3-13.4c0,0,5.4-17.7-15.2-22.5c5,2.5,15.8,9.7,12.8,23.8
							c0,0,23.4-8.7,31.8,14c0,0,19.9-11,31,4.4C688.6,70.5,668.7,57.4,652,66z"/>
					</g>
					<g>
						<path id="XMLID_177_" class="st9" d="M54.7,37.1c0,0,1.5-38.9-35.4-27.5c0,0,0.7-28.2-53.1-26.5C-91.9-15.1-73,16.5-73,16.5
							s-27-8.1-37.4,0c-5.5,4.2-7.8,12.2-8.7,18.9c-30.7-14.8-54.5,9.2-46.3,10.9c8.3,1.7,45.7,0,45.7,0s23.1,3,35.8,0
							c0,0,45.1,7.1,93.5,1.4c0,0,22.6,4.4,45.1,0.4c0,0,31.4,0.8,42.4-1.8C108.1,43.7,79,24.6,54.7,37.1z"/>
						<g id="XMLID_174_">
							
								<linearGradient id="XMLID_14_" gradientUnits="userSpaceOnUse" x1="-63.9061" y1="-49.5037" x2="-23.599" y2="-174.9034" gradientTransform="matrix(1 0 0 1 0 162)">
								<stop  offset="0" style="stop-color:#186B91"/>
								<stop  offset="0.2041" style="stop-color:#5F9CB6"/>
								<stop  offset="0.3773" style="stop-color:#93C1D2"/>
								<stop  offset="0.5068" style="stop-color:#B4D7E3"/>
								<stop  offset="0.578" style="stop-color:#C0E0E9"/>
								<stop  offset="0.6344" style="stop-color:#C2DFE2"/>
								<stop  offset="0.7159" style="stop-color:#C9DCCF"/>
								<stop  offset="0.8127" style="stop-color:#D3D7AF"/>
								<stop  offset="0.9204" style="stop-color:#E1D184"/>
								<stop  offset="0.9984" style="stop-color:#EDCB60"/>
							</linearGradient>
							<path id="XMLID_176_" class="st28" d="M48.3,45.1C32.4,51.6-2,34.5-2,34.5c-2.4,1.8-5.2,3.1-8.1,3.9
								c-8.7,2.5-18.5,1.3-26.2-2.8C-94,4.1-37.1-16.7-36.8-16.8c-47,2.4-39.8,25.5-36.9,31.8c4.2,5.7,9.2,9.5,11.7,11.2
								c-22.2-14.3-40.2-12.7-41.4-12.6c-2.7,0.5-5.1,1.5-6.9,2.9c-5.5,4.2-7.8,12.2-8.7,18.9c0.7,3.2,1.4,5.3,1.4,5.3
								c-4-4.1-8-7-11.9-9c-25.4-5.8-43.1,13.1-35.8,14.6c8.3,1.7,45.7,0,45.7,0s23.1,3,35.8,0c0,0,45.1,7.1,93.5,1.4
								c0,0,22.6,4.4,45.1,0.4c0,0,14.4,0.4,27.1-0.2C67.8,47.9,48.3,45.1,48.3,45.1z"/>
							
								<linearGradient id="XMLID_15_" gradientUnits="userSpaceOnUse" x1="90.5" y1="-114.7" x2="90.5" y2="-114.7" gradientTransform="matrix(1 0 0 1 0 162)">
								<stop  offset="0" style="stop-color:#186B91"/>
								<stop  offset="0.2041" style="stop-color:#5F9CB6"/>
								<stop  offset="0.3773" style="stop-color:#93C1D2"/>
								<stop  offset="0.5068" style="stop-color:#B4D7E3"/>
								<stop  offset="0.578" style="stop-color:#C0E0E9"/>
								<stop  offset="0.6344" style="stop-color:#C2DFE2"/>
								<stop  offset="0.7159" style="stop-color:#C9DCCF"/>
								<stop  offset="0.8127" style="stop-color:#D3D7AF"/>
								<stop  offset="0.9204" style="stop-color:#E1D184"/>
								<stop  offset="0.9984" style="stop-color:#EDCB60"/>
							</linearGradient>
							<path id="XMLID_175_" class="st29" d="M90.5,47.3L90.5,47.3L90.5,47.3z"/>
						</g>
						<path id="XMLID_171_" class="st12" d="M54.7,37.1c0,0,1.5-36.7-35.4-25.4c0,0-2.4-20-32.5-27c7.3,3.6,34.2,6.4,29.8,27
							c0,0,23-4.9,35.2,28.1c0,0,29.1-16,45.2,6.5C108.1,43.7,79,24.6,54.7,37.1z"/>
					</g>
					<g id="XMLID_178_">
						<path id="XMLID_636_" class="st9" d="M137.3,262.3c0,0-5.3-18.6-27.5-11.8c0,0,6.6-21.8-25.8-20.8
							c-35,1.1-23.6,20.1-23.6,20.1s-16.2-4.9-22.5,0c-3.3,2.5-4.7,7.4-5.3,11.4c-18.5-8.9-32.8,5.5-27.9,6.6c5,1,27.5,0,27.5,0
							s13.9,1.8,21.5,0c0,0,27.2,4.3,56.3,0.8c0,0,13.6,2.7,27.2,0.3c0,0,18.9,0.5,25.5-1.1C169.4,266.2,151.9,254.8,137.3,262.3z"
							/>
						<g id="XMLID_186_">
							
								<linearGradient id="XMLID_16_" gradientUnits="userSpaceOnUse" x1="65.7349" y1="145.6622" x2="90.0107" y2="70.1376" gradientTransform="matrix(1 0 0 1 0 162)">
								<stop  offset="0" style="stop-color:#186B91"/>
								<stop  offset="0.2041" style="stop-color:#5F9CB6"/>
								<stop  offset="0.3773" style="stop-color:#93C1D2"/>
								<stop  offset="0.5068" style="stop-color:#B4D7E3"/>
								<stop  offset="0.578" style="stop-color:#C0E0E9"/>
								<stop  offset="0.6344" style="stop-color:#C2DFE2"/>
								<stop  offset="0.7159" style="stop-color:#C9DCCF"/>
								<stop  offset="0.8127" style="stop-color:#D3D7AF"/>
								<stop  offset="0.9204" style="stop-color:#E1D184"/>
								<stop  offset="0.9984" style="stop-color:#EDCB60"/>
							</linearGradient>
							<path id="XMLID_191_" class="st30" d="M133.4,267.1c-9.6,3.9-30.3-6.4-30.3-6.4c-1.4,1.1-3.1,1.9-4.9,2.4
								c-5.3,1.5-11.2,0.8-15.8-1.7c-34.7-19-0.5-31.5-0.3-31.6c-28.3,1.5-24,15.4-22.2,19.1c2.5,3.4,5.6,5.7,7.1,6.8
								c-13.4-8.6-24.2-7.7-24.9-7.6c-1.6,0.3-3.1,0.9-4.2,1.7c-3.3,2.5-4.7,7.4-5.3,11.4c0.4,1.9,0.9,3.2,0.9,3.2
								c-2.4-2.4-4.8-4.2-7.2-5.4c-15.3-3.5-26,7.9-21.6,8.8c5,1,27.5,0,27.5,0s13.9,1.8,21.5,0c0,0,27.2,4.3,56.3,0.8
								c0,0,13.6,2.7,27.2,0.3c0,0,8.7,0.2,16.3-0.1C145.2,268.8,133.4,267.1,133.4,267.1z"/>
							
								<linearGradient id="XMLID_17_" gradientUnits="userSpaceOnUse" x1="158.9" y1="106.4" x2="158.9" y2="106.4" gradientTransform="matrix(1 0 0 1 0 162)">
								<stop  offset="0" style="stop-color:#186B91"/>
								<stop  offset="0.2041" style="stop-color:#5F9CB6"/>
								<stop  offset="0.3773" style="stop-color:#93C1D2"/>
								<stop  offset="0.5068" style="stop-color:#B4D7E3"/>
								<stop  offset="0.578" style="stop-color:#C0E0E9"/>
								<stop  offset="0.6344" style="stop-color:#C2DFE2"/>
								<stop  offset="0.7159" style="stop-color:#C9DCCF"/>
								<stop  offset="0.8127" style="stop-color:#D3D7AF"/>
								<stop  offset="0.9204" style="stop-color:#E1D184"/>
								<stop  offset="0.9984" style="stop-color:#EDCB60"/>
							</linearGradient>
							<path id="XMLID_190_" class="st31" d="M158.9,268.4L158.9,268.4L158.9,268.4z"/>
						</g>
						<path id="XMLID_183_" class="st12" d="M137.3,262.3c0,0-5.3-18.6-27.5-11.8c0,0,4.7-15.6-13.4-19.8
							c4.4,2.2,13.9,8.5,11.3,20.9c0,0,20.5-7.6,27.9,12.3c0,0,17.5-9.7,27.2,3.9C169.4,266.2,151.9,254.8,137.3,262.3z"/>
					</g>
				</g>
			</g>
		</g>
	</g>
</g>
</svg>
