<svg id="Layer_1" data-name="Layer 1" xmlns="http://www.w3.org/2000/svg" xmlns:xlink="http://www.w3.org/1999/xlink" viewBox="0 0 85.75 74.1"><defs><style>.cls-1{fill:#384948;}.cls-2{fill:#465b5a;}.cls-3{fill:#262e26;}.cls-20,.cls-4{fill:#2b2b2b;}.cls-5{fill:#526664;}.cls-6{fill:#5a6d6b;}.cls-7{fill:#b5b5b5;}.cls-8{fill:#e8e8e8;}.cls-9{fill:#fff;}.cls-10{fill:#495750;}.cls-11{fill:#ccc;}.cls-12{fill:#ad6123;}.cls-13{fill:#874616;}.cls-14{fill:#e57929;}.cls-15{opacity:0.74;}.cls-16{fill:#efefef;}.cls-17{opacity:0.41;}.cls-18{fill:#997373;}.cls-19,.cls-20{opacity:0.56;}.cls-19{fill:url(#linear-gradient);}.cls-21{fill:#1dcaf2;}.cls-22{opacity:0.36;}.cls-23,.cls-24{fill:#253332;}.cls-24{opacity:0.34;}</style><linearGradient id="linear-gradient" x1="48.45" y1="58.74" x2="48.45" y2="51.52" gradientUnits="userSpaceOnUse"><stop offset="0" stop-opacity="0"/><stop offset="1"/></linearGradient></defs><title>brhino1</title><g id="rhino"><g id="balck-Rhino"><g id="rhinotail"><path class="cls-1" d="M26.8,67a16.85,16.85,0,0,1-8.46-2.07,16.49,16.49,0,0,1-6.11-6.35A32.86,32.86,0,0,1,8.72,48l2.28-.4a30.59,30.59,0,0,0,3.23,9.81,14.22,14.22,0,0,0,5.25,5.48,15,15,0,0,0,8.09,1.75A34.77,34.77,0,0,0,38.33,62.2l.82,2.16A37,37,0,0,1,27.66,67Z" transform="translate(-5.01 -4.95)"/><path class="cls-1" d="M12.62,41.52c2,4.33-.58,7.22-3.08,7.22S5,46.43,5,43.58s6.16-11.31,6.16-11.31A15.15,15.15,0,0,0,12.62,41.52Z" transform="translate(-5.01 -4.95)"/><path class="cls-2" d="M12.18,41.63c1.52,3.6-.07,6.13-1.71,6.22S7.39,46,7.27,43.64s3.56-9.79,3.56-9.79A16.25,16.25,0,0,0,12.18,41.63Z" transform="translate(-5.01 -4.95)"/></g><path class="cls-1" d="M63.81,77.42l-.1.16a2.13,2.13,0,0,1-.23.3,2.4,2.4,0,0,1-1.78.79H35.18a2.4,2.4,0,0,1-1.78-.79h0a2.2,2.2,0,0,1-.24-.31h0A2.46,2.46,0,0,1,32.81,76l.3-2.56.56-4.77.21-1.77h0L34,66l.29-2.47,0-.27.09-.75v0l.44-3.73.55-4.62.2-1.73.05-.47c0-.08,0-.15,0-.23s0-.12,0-.17a2.29,2.29,0,0,1,.08-.39,2.38,2.38,0,0,1,.32-.67,2.41,2.41,0,0,1,2-1.06H58.83a2.41,2.41,0,0,1,2,1.06,2.38,2.38,0,0,1,.32.67,2.19,2.19,0,0,1,.08.39c0,.06,0,.12,0,.17s0,.15,0,.23l.05.47.2,1.73.47,4,0,.4,0,.27.81,6.87h0l.08.72v.07l.82,6.92L64.08,76A2.48,2.48,0,0,1,63.81,77.42Z" transform="translate(-5.01 -4.95)"/><path class="cls-2" d="M35.18,78.08a.67.67,0,0,1-.5-.22.7.7,0,0,1-.15-.55l2.84-24c0-.14,0-.25,0-.35a.68.68,0,0,1,.67-.64H58.83a.68.68,0,0,1,.67.64c0,.09,0,.21,0,.35l2.84,24a.71.71,0,0,1-.15.55.67.67,0,0,1-.5.22Z" transform="translate(-5.01 -4.95)"/><path class="cls-1" d="M90.76,20.86l-14.07,1.5h0a8.27,8.27,0,0,1-4.25-.77h0l-.32-.14a18.58,18.58,0,0,1-3.37-1.94c-.36-.26-.71-.53-1-.81l-.58-.5c-2-1.78-3.14-3.65-3.36-5.28a3.81,3.81,0,0,1,0-1,3.06,3.06,0,0,1,.06-.33v0L64,9.92V9.77l17.38,2a9.88,9.88,0,0,1,4.38,1.93,15.6,15.6,0,0,1,1.68,1.41,10.05,10.05,0,0,1,2.78,3.95Z" transform="translate(-5.01 -4.95)"/><path class="cls-2" d="M69.16,18.9a18,18,0,0,1-1.56-1.26c-2.15-2-3.32-4.06-3.14-5.62,0-.09,0-.17,0-.26V11.7l.13-1.09,16.63,2a9.14,9.14,0,0,1,4,1.8,14.92,14.92,0,0,1,1.6,1.34,9.39,9.39,0,0,1,2.58,3.63l.28.88-13.18,1.4h0a8,8,0,0,1-4.15-.85A17.84,17.84,0,0,1,69.16,18.9Z" transform="translate(-5.01 -4.95)"/><path class="cls-3" d="M65.25,13.44a1.33,1.33,0,0,1,0-.15l0-.08,0-.32,15.88,1.87a11.33,11.33,0,0,1,5.24,2.56,8.18,8.18,0,0,1,2.44,2.84L76.66,21H76.6a8.81,8.81,0,0,1-3.74-.74,18.89,18.89,0,0,1-4.63-2.6C66.26,16.16,65.12,14.53,65.25,13.44Z" transform="translate(-5.01 -4.95)"/><path class="cls-1" d="M29.18,19.51A18.73,18.73,0,0,0,30.8,18.2c2.36-2.15,3.59-4.43,3.38-6.26a3.36,3.36,0,0,0-.06-.33v0l-.21-1.8-17.37,2a9.89,9.89,0,0,0-4.38,1.93,15.68,15.68,0,0,0-1.68,1.41A10,10,0,0,0,7.7,19.11l-.55,1.75,14.07,1.5h0a8.64,8.64,0,0,0,4.57-.91A18.61,18.61,0,0,0,29.18,19.51Z" transform="translate(-5.01 -4.95)"/><path class="cls-2" d="M28.74,18.9a18,18,0,0,0,1.56-1.26c2.15-2,3.32-4.06,3.14-5.62,0-.09,0-.17,0-.26V11.7l-.13-1.09-16.63,2a9.14,9.14,0,0,0-4,1.8A14.92,14.92,0,0,0,11,15.7a9.39,9.39,0,0,0-2.58,3.63l-.28.88,13.18,1.4h0a8,8,0,0,0,4.15-.85A17.84,17.84,0,0,0,28.74,18.9Z" transform="translate(-5.01 -4.95)"/><path class="cls-3" d="M32.66,13.44a1.33,1.33,0,0,0,0-.15l0-.08,0-.32L16.69,14.75a11.33,11.33,0,0,0-5.24,2.56A8.18,8.18,0,0,0,9,20.15L21.24,21h.06A8.81,8.81,0,0,0,25,20.28a18.89,18.89,0,0,0,4.63-2.6C31.64,16.16,32.79,14.53,32.66,13.44Z" transform="translate(-5.01 -4.95)"/><path class="cls-1" d="M72.67,18.23h0l-.14,1.92,0,.65-.06.79v0l-2,27.28-.32,1.74a.87.87,0,0,1-.87.87H28.6a.87.87,0,0,1-.69-.34.85.85,0,0,1-.18-.53l-.33-1.75-1.71-27,0-.38-.05-.8,0-.65-.08-1.2h0a.51.51,0,0,1,.11-.25,67.4,67.4,0,0,1,4.83-5.47l1.77-1.85h0l.59-.61,0,0h0q.52-.43,1.07-.83A24.88,24.88,0,0,1,48,5h1.29A24.9,24.9,0,0,1,64,9.86l.62.47.36.29h.2l.05,0,.42.41,2.14,2.09c2,2,4.51,4.45,4.85,5C72.66,18.18,72.67,18.21,72.67,18.23Z" transform="translate(-5.01 -4.95)"/><path class="cls-2" d="M72.73,18.42c0,.5-.09,1.09-.16,1.75l-.07.65-.08.78v0c-1,9.28-3.71,28.07-3.71,28.07l-.14.76H29.32l-.15-.77L25.7,21.89l0-.37-.1-.78-.08-.64-.08-.62a1.68,1.68,0,0,1,.11-.63c0-.08.06-.17.11-.26.68-1.54,2.87-3.82,4.55-5.43,1-1,1.83-1.69,2-1.89h0l.06,0s.25-.23.73-.59c.25-.19.56-.42.93-.67A26.43,26.43,0,0,1,48.31,5.33h.16A28.51,28.51,0,0,1,64,9.92l.63.42.41.29,0,0,.58.43c.71.54,1.08.89,1.08.89s.59.5,1.4,1.23c1.56,1.41,3.94,3.68,4.51,4.93l0,.09A1.34,1.34,0,0,1,72.73,18.42Z" transform="translate(-5.01 -4.95)"/><path class="cls-4" d="M52.36,47.19c0,1.59-1.68,2.89-3.75,2.89s-3.75-1.29-3.75-2.89a2.31,2.31,0,0,1,.29-1.11c0,1.45,1.57,2.62,3.46,2.62s3.43-1.17,3.46-2.62A2.31,2.31,0,0,1,52.36,47.19Z" transform="translate(-5.01 -4.95)"/><ellipse class="cls-5" cx="44" cy="17.71" rx="19.34" ry="15.01"/><ellipse class="cls-6" cx="44.14" cy="10.68" rx="14.18" ry="6.95"/><path class="cls-7" d="M48.61,49.89c-2.18,0-3.95-1.38-3.95-3.08A2.5,2.5,0,0,1,45,45.6l.07-.13c.06-.3.08-.85.14-1.47.73-7,1.69-20.49,3.42-20.49S51.3,36.9,52,44c.06.62.09,1.17.14,1.47l.07.13a2.5,2.5,0,0,1,.31,1.21C52.55,48.51,50.78,49.89,48.61,49.89Z" transform="translate(-5.01 -4.95)"/><path class="cls-8" d="M52.36,46.81c0,1.59-1.68,2.6-3.75,2.6s-3.75-1-3.75-2.6a2.31,2.31,0,0,1,.29-1.11c0,1.45,1.57-22.08,3.46-22.08S52,47.15,52.07,45.69A2.31,2.31,0,0,1,52.36,46.81Z" transform="translate(-5.01 -4.95)"/><path class="cls-9" d="M48.61,47.1c-1.41,0-2.6-.79-2.6-1.73a1.1,1.1,0,0,1,0-.28,1.59,1.59,0,0,0,.28-.6c0-.1,0-.23.08-.41s.12-.75.21-1.3c.25-1.6.63-4,.84-6.16.19-2,.93-12,1.15-12.57.23.61,1,10.55,1.15,12.47.22,2.2.59,4.66.84,6.26.09.55.15,1,.21,1.3s.06.31.08.41a1.59,1.59,0,0,0,.28.6,1.1,1.1,0,0,1,0,.28C51.21,46.3,50,47.1,48.61,47.1Z" transform="translate(-5.01 -4.95)"/><path class="cls-1" d="M56.08,46.09a7,7,0,1,1,9.42-.27l-.54.52-.69-.28-.58-.21a9.64,9.64,0,0,0-2.4-.3h-.2a9.35,9.35,0,0,0-4,1l-.6.3Z" transform="translate(-5.01 -4.95)"/><path class="cls-1" d="M60.64,34.39a6.35,6.35,0,0,0-4,11.25l.1.08,0,0,.09.17a10,10,0,0,1,4.32-1,10.34,10.34,0,0,1,2.8.32c.22.07.44.15.65.23l.29.12.22-.21a6.29,6.29,0,0,0,2-4.59A6.36,6.36,0,0,0,60.64,34.39Z" transform="translate(-5.01 -4.95)"/><path class="cls-1" d="M40.88,46.52a9.35,9.35,0,0,0-4-1h-.19a9.66,9.66,0,0,0-2.41.3l-.58.21-.69.28-.54-.52a7,7,0,0,1-2.17-5.07,7,7,0,1,1,11.59,5.34l-.37.73Z" transform="translate(-5.01 -4.95)"/><path class="cls-1" d="M37.3,34.39a6.36,6.36,0,0,0-6.35,6.35,6.29,6.29,0,0,0,2,4.59l.22.21.29-.12c.21-.09.43-.16.65-.23a10.35,10.35,0,0,1,2.8-.32,10,10,0,0,1,4.32,1l.09-.17,0,0,.1-.08a6.35,6.35,0,0,0-4-11.25Z" transform="translate(-5.01 -4.95)"/><path class="cls-4" d="M56.6,45.64A6.35,6.35,0,1,1,65,45.33l-.22.21-.29-.12a8.84,8.84,0,0,0-2.36-.59,9.44,9.44,0,0,0-1-.06,9,9,0,0,0-4,.92l-.28.14Z" transform="translate(-5.01 -4.95)"/><path class="cls-10" d="M60.73,35.26A5.87,5.87,0,0,0,57,45.66a9.42,9.42,0,0,1,4.22-1,9.89,9.89,0,0,1,1.09.06,9.33,9.33,0,0,1,2.49.62,5.87,5.87,0,0,0-4.06-10.11Z" transform="translate(-5.01 -4.95)"/><path class="cls-11" d="M66.6,41.13a5.85,5.85,0,0,1-1.81,4.24,9.33,9.33,0,0,0-2.49-.62L55,39.94A5.87,5.87,0,0,1,66.6,41.13Z" transform="translate(-5.01 -4.95)"/><path class="cls-8" d="M64.59,44.47a10.17,10.17,0,0,0-2-.46l-6.71-4.4a5.1,5.1,0,0,1,10,1.53A5,5,0,0,1,64.59,44.47Z" transform="translate(-5.01 -4.95)"/><path class="cls-12" d="M63.24,40.53c-.67-.07-1.16-.32-1.16-.6s.26-.39.65-.51a4.43,4.43,0,0,0-7.75.52,5.88,5.88,0,0,0,2,5.71,9.42,9.42,0,0,1,4.22-1,9.89,9.89,0,0,1,1.09.06,4.43,4.43,0,0,0,.94-4.22Z" transform="translate(-5.01 -4.95)"/><path class="cls-13" d="M57.09,45a5.3,5.3,0,0,1-1.56-4.85A3.86,3.86,0,0,1,59,38c1.1,0,3.57,5.52,3.05,6.19-.28,0-.56,0-.84,0A10.1,10.1,0,0,0,57.09,45Z" transform="translate(-5.01 -4.95)"/><path class="cls-3" d="M56.75,45.92l-.09-.17a10.22,10.22,0,0,1,4.41-1.06,10.35,10.35,0,0,1,3.77.61l-.07.18a10.37,10.37,0,0,0-8,.44Z" transform="translate(-5.01 -4.95)"/><path class="cls-14" d="M60.06,38c-.19.1.1.48.19.67a13.67,13.67,0,0,1,1.25,2.12c.1.48.77,2,.87,2.41s.38.19.38.19A4.83,4.83,0,0,0,63,41.8a3,3,0,0,0-.77-1.06c-.19-.19-.67-.67-.67-1.06A1.41,1.41,0,0,0,61,38.44C60.54,38.15,60.25,37.86,60.06,38Z" transform="translate(-5.01 -4.95)"/><circle class="cls-4" cx="53.89" cy="36.67" r="2.98"/><g class="cls-15"><circle class="cls-16" cx="56.49" cy="36.76" r="0.96"/></g><g class="cls-17"><circle class="cls-16" cx="54.95" cy="37.72" r="0.48"/></g><path class="cls-4" d="M41.34,45.64a6.35,6.35,0,1,0-8.43-.31l.22.21.29-.12a8.84,8.84,0,0,1,2.36-.59,9.44,9.44,0,0,1,1-.06,9,9,0,0,1,4,.92l.28.14Z" transform="translate(-5.01 -4.95)"/><path class="cls-10" d="M37.2,35.26a5.87,5.87,0,0,1,3.74,10.4,9.42,9.42,0,0,0-4.22-1,9.89,9.89,0,0,0-1.09.06,9.33,9.33,0,0,0-2.49.62A5.87,5.87,0,0,1,37.2,35.26Z" transform="translate(-5.01 -4.95)"/><path class="cls-11" d="M31.33,41.13a5.85,5.85,0,0,0,1.81,4.24,9.33,9.33,0,0,1,2.49-.62L43,39.94a5.87,5.87,0,0,0-11.62,1.19Z" transform="translate(-5.01 -4.95)"/><path class="cls-8" d="M33.35,44.47a10.17,10.17,0,0,1,2-.46l6.71-4.4a5.1,5.1,0,0,0-10,1.53A5,5,0,0,0,33.35,44.47Z" transform="translate(-5.01 -4.95)"/><path class="cls-12" d="M34.69,40.53c.67-.07,1.16-.32,1.16-.6s-.26-.39-.65-.51a4.43,4.43,0,0,1,7.75.52,5.88,5.88,0,0,1-2,5.71,9.42,9.42,0,0,0-4.22-1,9.89,9.89,0,0,0-1.09.06,4.43,4.43,0,0,1-.94-4.22Z" transform="translate(-5.01 -4.95)"/><path class="cls-13" d="M40.84,45a5.3,5.3,0,0,0,1.56-4.85A3.86,3.86,0,0,0,38.93,38c-1.1,0-3.57,5.52-3.05,6.19.28,0,.56,0,.84,0A10.1,10.1,0,0,1,40.84,45Z" transform="translate(-5.01 -4.95)"/><path class="cls-3" d="M41.19,45.92a10.37,10.37,0,0,0-8-.44l-.07-.18a10.34,10.34,0,0,1,3.77-.61,10.22,10.22,0,0,1,4.41,1.06Z" transform="translate(-5.01 -4.95)"/><path class="cls-14" d="M37.87,38c.19.1-.1.48-.19.67a13.67,13.67,0,0,0-1.25,2.12c-.1.48-.77,2-.87,2.41s-.38.19-.38.19a4.83,4.83,0,0,1-.29-1.54,3,3,0,0,1,.77-1.06c.19-.19.67-.67.67-1.06a1.41,1.41,0,0,1,.58-1.25C37.39,38.15,37.68,37.86,37.87,38Z" transform="translate(-5.01 -4.95)"/><circle class="cls-4" cx="34.02" cy="36.67" r="2.98"/><g class="cls-15"><circle class="cls-16" cx="31.42" cy="36.76" r="0.96"/></g><g class="cls-17"><circle class="cls-16" cx="32.96" cy="37.72" r="0.48"/></g><ellipse class="cls-18" cx="32.09" cy="42.06" rx="3.9" ry="1.44"/><ellipse class="cls-18" cx="56.06" cy="42.06" rx="3.9" ry="1.44"/><path class="cls-2" d="M75.52,27" transform="translate(-5.01 -4.95)"/><path class="cls-1" d="M50.61,78.66H45.93l0-.44v-.14l.1-1.56h0l0-.45.09-1.4,0-.43.06-.94.05-.78.54-8.14A1.35,1.35,0,0,1,48,63.08h.43l.13,0a1.35,1.35,0,0,1,1,1.25l.61,8.42.06.86.08,1.17,0,.23L50.56,78v.09Z" transform="translate(-5.01 -4.95)"/><path class="cls-3" d="M49.57,78.66H47l0-.43v-.14h0l.17-2.68v-.13h0l.11-1.85.56-9a.39.39,0,0,1,.21-.34.38.38,0,0,1,.18,0,.37.37,0,0,1,.19.05l.06,0,0,0a.38.38,0,0,1,.11.27l.68,10.07.21,3.07,0,.52Z" transform="translate(-5.01 -4.95)"/><g id="paw"><path class="cls-1" d="M63.81,76.24v1.18a1.12,1.12,0,0,1-.1.45A2.45,2.45,0,0,1,61.42,79H52a3.23,3.23,0,0,1-1.27-.25l-.27-.14a2.08,2.08,0,0,1-.34-.24,1.64,1.64,0,0,1-.22-.23l-.08-.11h0a1.19,1.19,0,0,1-.21-.66V76.24a1.1,1.1,0,0,1,0-.14A1.34,1.34,0,0,1,50,75.3h0a2.09,2.09,0,0,1,.33-.25l.09-.05A3.11,3.11,0,0,1,52,74.62h9.53a3.33,3.33,0,0,1,.57.06,2.57,2.57,0,0,1,1.36.66,1.5,1.5,0,0,1,.28.38A1.15,1.15,0,0,1,63.81,76.24Z" transform="translate(-5.01 -4.95)"/><path class="cls-6" d="M54.48,78.47c-.08-.48-.12-1-.18-1.44a9.58,9.58,0,0,0-.16-1.36,1.43,1.43,0,0,0-.72-.87,1.09,1.09,0,0,0-.53-.11H51.45a1.08,1.08,0,0,0-.53.11,1.42,1.42,0,0,0-.72.87A9.5,9.5,0,0,0,50,77c-.06.48-.1,1-.18,1.44-.09-.48-.12-1-.18-1.44a6.33,6.33,0,0,1,0-1.5,2,2,0,0,1,1-1.36,1.73,1.73,0,0,1,.86-.21h1.44a1.71,1.71,0,0,1,.86.21,2,2,0,0,1,1,1.35,6.33,6.33,0,0,1,0,1.5C54.6,77.51,54.56,78,54.48,78.47Z" transform="translate(-5.01 -4.95)"/><path class="cls-6" d="M59.1,78.47C59,78,59,77.51,58.91,77a9.58,9.58,0,0,0-.16-1.36,1.43,1.43,0,0,0-.72-.87,1.09,1.09,0,0,0-.53-.11H56.07a1.08,1.08,0,0,0-.53.11,1.42,1.42,0,0,0-.72.87A9.64,9.64,0,0,0,54.66,77c-.06.48-.1,1-.18,1.44-.08-.48-.12-1-.18-1.44a6.3,6.3,0,0,1,0-1.5,2,2,0,0,1,1-1.36,1.72,1.72,0,0,1,.86-.21h1.44a1.71,1.71,0,0,1,.86.21,2,2,0,0,1,1,1.35,6.3,6.3,0,0,1,0,1.5C59.22,77.51,59.18,78,59.1,78.47Z" transform="translate(-5.01 -4.95)"/><path class="cls-6" d="M63.72,78.47c-.08-.48-.12-1-.18-1.44a9.58,9.58,0,0,0-.16-1.36,1.43,1.43,0,0,0-.72-.87,1.09,1.09,0,0,0-.53-.11H60.69a1.08,1.08,0,0,0-.53.11,1.42,1.42,0,0,0-.72.87A9.57,9.57,0,0,0,59.28,77c-.06.48-.1,1-.18,1.44C59,78,59,77.51,58.91,77a6.33,6.33,0,0,1,0-1.5,2,2,0,0,1,1-1.36,1.73,1.73,0,0,1,.86-.21h1.44a1.71,1.71,0,0,1,.86.21,2,2,0,0,1,1,1.35,6.3,6.3,0,0,1,0,1.5C63.84,77.51,63.8,78,63.72,78.47Z" transform="translate(-5.01 -4.95)"/></g><g id="paw-2" data-name="paw"><path class="cls-1" d="M47.36,76v1.18c0,.89-1.08,1.62-2.39,1.62H35.5a3.22,3.22,0,0,1-1.27-.25,2.3,2.3,0,0,1-.61-.37,1.64,1.64,0,0,1-.3-.34,1.18,1.18,0,0,1-.21-.66V76a1.09,1.09,0,0,1,0-.15,1.56,1.56,0,0,1,.85-1.1,3.11,3.11,0,0,1,1.53-.38H45a2.8,2.8,0,0,1,1.92.72A1.28,1.28,0,0,1,47.36,76Z" transform="translate(-5.01 -4.95)"/><path class="cls-6" d="M38,78.28c-.08-.48-.12-1-.18-1.44a9.65,9.65,0,0,0-.16-1.36,1.43,1.43,0,0,0-.72-.87,1.09,1.09,0,0,0-.53-.11H35a1.08,1.08,0,0,0-.53.11,1.42,1.42,0,0,0-.72.87,9.57,9.57,0,0,0-.16,1.36c-.06.48-.1,1-.18,1.44-.08-.48-.12-1-.18-1.44a6.3,6.3,0,0,1,0-1.5,2,2,0,0,1,1-1.36,1.72,1.72,0,0,1,.86-.21h1.44a1.71,1.71,0,0,1,.86.21,2,2,0,0,1,1,1.35,6.33,6.33,0,0,1,0,1.5C38.14,77.32,38.11,77.8,38,78.28Z" transform="translate(-5.01 -4.95)"/><path class="cls-6" d="M42.64,78.28c-.08-.48-.12-1-.18-1.44a9.51,9.51,0,0,0-.16-1.36,1.42,1.42,0,0,0-.72-.87,1.09,1.09,0,0,0-.53-.11H39.61a1.08,1.08,0,0,0-.53.11,1.42,1.42,0,0,0-.72.87,9.57,9.57,0,0,0-.16,1.36c-.06.48-.1,1-.18,1.44-.09-.48-.12-1-.18-1.44a6.35,6.35,0,0,1,0-1.5,2,2,0,0,1,1-1.36,1.73,1.73,0,0,1,.86-.21h1.44a1.71,1.71,0,0,1,.86.21,2,2,0,0,1,1,1.35,6.3,6.3,0,0,1,0,1.5C42.76,77.32,42.73,77.8,42.64,78.28Z" transform="translate(-5.01 -4.95)"/><path class="cls-6" d="M47.26,78.28c-.08-.48-.12-1-.18-1.44a9.65,9.65,0,0,0-.16-1.36,1.43,1.43,0,0,0-.72-.87,1.09,1.09,0,0,0-.53-.11H44.23a1.08,1.08,0,0,0-.53.11,1.42,1.42,0,0,0-.72.87,9.57,9.57,0,0,0-.16,1.36c-.06.48-.1,1-.18,1.44-.08-.48-.12-1-.18-1.44a6.3,6.3,0,0,1,0-1.5,2,2,0,0,1,1-1.36,1.73,1.73,0,0,1,.86-.21h1.44a1.71,1.71,0,0,1,.86.21,2,2,0,0,1,1,1.35,6.33,6.33,0,0,1,0,1.5C47.38,77.32,47.35,77.8,47.26,78.28Z" transform="translate(-5.01 -4.95)"/></g><path class="cls-19" d="M62.08,58.74H34.81l.74-6.1a1.25,1.25,0,0,1,0-.25,1.81,1.81,0,0,0,.07-.39c0-.16,0-.32,0-.48H61.21c0,.16,0,.32,0,.48a1.81,1.81,0,0,0,.07.39,1.25,1.25,0,0,1,0,.25Z" transform="translate(-5.01 -4.95)"/><path class="cls-20" d="M70.65,47.53v.19l0,0h0v-.05Z" transform="translate(-5.01 -4.95)"/><rect class="cls-21" x="25.11" y="39.87" width="7.4" height="2.79" rx="0.95" ry="0.95"/><rect class="cls-21" x="54.84" y="39.98" width="7.73" height="2.79" rx="0.95" ry="0.95"/><g class="cls-22"><circle class="cls-21" cx="35.74" cy="39.87" r="0.86"/><circle class="cls-21" cx="33.16" cy="39.23" r="0.86"/><circle class="cls-21" cx="36.86" cy="38.31" r="0.8"/><circle class="cls-21" cx="31.44" cy="38.8" r="0.97"/><circle class="cls-21" cx="29.19" cy="39.01" r="0.64"/><circle class="cls-21" cx="34.55" cy="38.69" r="0.64"/></g><g class="cls-22"><circle class="cls-21" cx="52.15" cy="39.87" r="0.86"/><circle class="cls-21" cx="54.73" cy="39.23" r="0.86"/><circle class="cls-21" cx="51.03" cy="38.31" r="0.8"/><circle class="cls-21" cx="56.45" cy="38.8" r="0.97"/><circle class="cls-21" cx="58.7" cy="39.01" r="0.64"/><circle class="cls-21" cx="53.33" cy="38.69" r="0.64"/></g></g><path class="cls-23" d="M70.62,47.65l0-.12v.19l0,0h0Z" transform="translate(-5.01 -4.95)"/><path class="cls-24" d="M90.76,20.86l-14.07,1.5h0a8.27,8.27,0,0,1-4.25-.77v0l-2,27.28-.32,1.74a.87.87,0,0,1-.87.87h-8c0,.06,0,.12,0,.17s0,.15,0,.23l.05.47a1.25,1.25,0,0,1,0,.25l.74,6.1h0l.81,6.87h0l.08.72v.07l.82,6.92L64.08,76a2.48,2.48,0,0,1-.27,1.47h0a1.12,1.12,0,0,1-.1.45A2.45,2.45,0,0,1,61.42,79H52a3.23,3.23,0,0,1-1.27-.25l-.27-.14H48.47V4.95h.86A24.9,24.9,0,0,1,64,9.86V9.77l17.38,2a9.88,9.88,0,0,1,4.38,1.93,15.6,15.6,0,0,1,1.68,1.41,10.05,10.05,0,0,1,2.78,3.95Z" transform="translate(-5.01 -4.95)"/></g></svg>