<svg xmlns="http://www.w3.org/2000/svg" viewBox="0 0 86.9 77.1"><defs><style>.a{fill:#099;}.b{fill:#00b7b2;}.c{fill:#ffb600;}.d{fill:#fc0;}.e{fill:#ffa071;}.f{fill:#fcd32b;}.g{fill:#ffdb43;}.h,.j,.s{fill:#2b2b2b;}.h{opacity:0.56;}.i{fill:#efefef;}.k{fill:#495750;}.l{fill:#ccc;}.m{fill:#33493e;}.n{fill:#686b72;}.o{opacity:0.74;}.p{opacity:0.22;}.q{opacity:0.41;}.r,.t{fill:#1dcaf2;}.r{opacity:0.3;}.s{stroke:#ad6b3e;stroke-miterlimit:10;stroke-width:0.29px;}</style></defs><title>choosebutter</title><path class="a" d="M74.47,16.81A38.55,38.55,0,1,0,19.95,71.33,38.55,38.55,0,1,0,74.47,16.81ZM47.21,77.22a33.15,33.15,0,1,1,23.44-9.71A32.93,32.93,0,0,1,47.21,77.22Z" transform="translate(-3.24 -5.52)"/><path class="a" d="M74.21,17.07a38.18,38.18,0,1,0-54,54,38.18,38.18,0,1,0,54-54Zm-27,60.52a33.52,33.52,0,1,1,23.7-9.82A33.3,33.3,0,0,1,47.21,77.59Z" transform="translate(-3.24 -5.52)"/><path class="b" d="M73.6,16.82A37.32,37.32,0,1,0,20.82,69.6,37.32,37.32,0,1,0,73.6,16.82Zm-2.08,50.7A34.38,34.38,0,0,1,22.9,18.9,34.38,34.38,0,0,1,71.52,67.52Z" transform="translate(-3.24 -5.52)"/><path class="c" d="M78,36.45s0,0,0-.07a8.71,8.71,0,0,0-.57-2.28,20.41,20.41,0,0,0-1.83-3.39l0,0h0q-.58-.93-1.23-1.81c-.24-.34-.49-.66-.74-1l-.26-.33A33.77,33.77,0,0,0,69,23.09l-.81-.68A33.81,33.81,0,0,0,65,20.1q-1.12-.71-2.3-1.33A33.66,33.66,0,0,0,47.45,14.9H47a33.57,33.57,0,0,0-15.21,3.61l-.23.12q-1.07.55-2.09,1.18l-.22.14,0,0c-.4.29-.79.6-1.17.91h-.22q-1,.68-1.92,1.43l-.76.63-.15.13a33.7,33.7,0,0,0-4.41,4.6l-.14.17q-.38.49-.75,1-.71,1-1.34,2l-.16.25a14.37,14.37,0,0,0-1.52,3.06c0,.13-.08.26-.11.39a7.18,7.18,0,0,0-.2,1,11.66,11.66,0,0,0,0,2.09c.2,2.25.71,5.1.71,5.1L17.72,46l.76,4.11h0l.63,3.41,0,.17.21,1.12.2,1.05.25,1.37.46,2.49.2,1.1.1.54.71,3.82.26,1.42.35,1.9,0,.2a1,1,0,0,0,.21.63,1,1,0,0,0,.82.41H71.51a1,1,0,0,0,1-1l0-.23.33-1.79v-.05h0l.27-1.46h0v-.06l0-.14.67-3.59.1-.54.2-1.1.48-2.62.23-1.25.19-1.05.22-1.19,0-.09L76,50.16h0L76.74,46l.61-3.31.48-2.85s0-.12,0-.31A29.16,29.16,0,0,0,78,36.45Z" transform="translate(-3.24 -5.52)"/><path class="d" d="M23.64,68.87l-.3-1.63-.26-1.42-.81-4.36-.2-1.1-3.15-17a38.45,38.45,0,0,1-.74-6.65A9.36,9.36,0,0,1,19.76,33,32,32,0,0,1,27,24.67c.44-.35.89-.7,1.35-1h.29l.51-.42c.36-.29.7-.56,1-.81A31.9,31.9,0,0,1,74,32.61a11.66,11.66,0,0,1,2.12,4.88A28.06,28.06,0,0,1,76,40.58l-.47,2.76L73.11,56.5l-.71,3.86-.2,1.1-.79,4.28,0,.22h0l-.25,1.36-.28,1.53Z" transform="translate(-3.24 -5.52)"/><ellipse class="e" cx="27.87" cy="60.13" rx="4.66" ry="1.73"/><ellipse class="e" cx="59.93" cy="60.13" rx="4.66" ry="1.73"/><ellipse class="f" cx="43.81" cy="28.54" rx="22.85" ry="18.31"/><ellipse class="g" cx="43.81" cy="27.39" rx="20.89" ry="16.75"/><path class="h" d="M73.23,65v.23l0,0h0v-.06Z" transform="translate(-3.24 -5.52)"/><path class="c" d="M23.82,64.88a11,11,0,0,1,6.37-19.33l.69,0a11,11,0,0,1,7.59,18.89l-.42,1-.69-.3a15.26,15.26,0,0,0-6-1.18l-.73,0a15.93,15.93,0,0,0-4.23.76c-.34.13-.66.27-1,.41l-.89.43Z" transform="translate(-3.24 -5.52)"/><path class="i" d="M40.74,53.8a10.21,10.21,0,0,0-20,3.34A10.11,10.11,0,0,0,24.3,64.3l.38.32.45-.22c.33-.16.68-.31,1-.44a16.65,16.65,0,0,1,4.45-.8,16.13,16.13,0,0,1,7,1.23l.12-.28-.06,0,.15-.14A10.22,10.22,0,0,0,40.74,53.8Z" transform="translate(-3.24 -5.52)"/><path class="c" d="M69,65.12c-.29-.14-.61-.28-.95-.41a15.93,15.93,0,0,0-4.23-.78l-.83,0a15.25,15.25,0,0,0-5.89,1.15l-.7.29-.41-1a11,11,0,0,1,7.63-18.84l.75,0a11,11,0,0,1,10.18,11.7,10.86,10.86,0,0,1-3.92,7.67l-.76.63Z" transform="translate(-3.24 -5.52)"/><path class="i" d="M64.29,46.3a10.21,10.21,0,0,0-7.73,17.6l.15.14-.06,0,.12.28a16.13,16.13,0,0,1,7-1.19,16.65,16.65,0,0,1,4.45.82c.35.14.69.28,1,.45l.45.22.38-.32a10.11,10.11,0,0,0,3.65-7.14A10.22,10.22,0,0,0,64.29,46.3Z" transform="translate(-3.24 -5.52)"/><path class="j" d="M37.87,63.94a10.21,10.21,0,1,0-13.56.36l.38.32.45-.22a14.22,14.22,0,0,1,3.73-1.18,15.18,15.18,0,0,1,1.66-.2A14.4,14.4,0,0,1,37,64.09l.46.2Z" transform="translate(-3.24 -5.52)"/><path class="k" d="M30.17,47.7A9.44,9.44,0,0,1,37.22,64a15.14,15.14,0,0,0-6.87-1.12,15.9,15.9,0,0,0-1.74.21,15,15,0,0,0-3.93,1.25A9.44,9.44,0,0,1,30.17,47.7Z" transform="translate(-3.24 -5.52)"/><path class="l" d="M21.35,57.72a9.4,9.4,0,0,0,3.34,6.62,15,15,0,0,1,3.93-1.25l11.26-8.46a9.44,9.44,0,0,0-18.53,3.09Z" transform="translate(-3.24 -5.52)"/><path class="k" d="M21.29,55.55c1.42-.38,2.6-1,2.5-1.62-.07-.42-.68-.7-1.57-.79a9.17,9.17,0,0,1,7.37-5.43c10.86-.76,13.61,11.75,7,16a19.6,19.6,0,0,0-8.92-.38c-.8.13-2.44.77-3.19,1a10.16,10.16,0,0,1-3.19-8.79Z" transform="translate(-3.24 -5.52)"/><path class="m" d="M37.63,62.9a10.37,10.37,0,0,0,1.76-8.76c-1.14-3.81-5.77-5.72-8.85-5.07-2.31.49-5,13.12-3.65,14.3.57-.17,1.16-.32,1.74-.44A21.58,21.58,0,0,1,37.63,62.9Z" transform="translate(-3.24 -5.52)"/><path class="j" d="M37.66,64.39a16.67,16.67,0,0,0-12.91.11l-.12-.28a16.62,16.62,0,0,1,6-1.37,16.44,16.44,0,0,1,7.18,1.25Z" transform="translate(-3.24 -5.52)"/><path class="n" d="M27.12,51c.32.13-.11.78-.24,1.1a22,22,0,0,0-1.79,3.52c-.11.78-1,3.32-1.14,3.95s-.6.35-.6.35a7.76,7.76,0,0,1-.62-2.44,4.85,4.85,0,0,1,1.13-1.78c.29-.33,1-1.15,1-1.77a2.27,2.27,0,0,1,.8-2.07C26.37,51.35,26.8,50.86,27.12,51Z" transform="translate(-3.24 -5.52)"/><g class="o"><circle class="i" cx="26.63" cy="51.65" r="1.55" transform="translate(-6.46 -3.73) rotate(-3.63)"/></g><g class="p"><circle class="i" cx="25.75" cy="59.76" r="3.25" transform="translate(-6.98 -3.77) rotate(-3.63)"/></g><g class="q"><circle class="i" cx="32.16" cy="59.51" r="0.77" transform="translate(-6.95 -3.36) rotate(-3.63)"/></g><path class="j" d="M56.56,63.9a10.21,10.21,0,1,1,13.56.44l-.38.32-.45-.22a14.22,14.22,0,0,0-3.72-1.2A15.18,15.18,0,0,0,63.91,63a14.4,14.4,0,0,0-6.52,1l-.47.19Z" transform="translate(-3.24 -5.52)"/><path class="k" d="M64.35,47.7A9.44,9.44,0,0,0,57.21,64a15.14,15.14,0,0,1,6.87-1.08,15.9,15.9,0,0,1,1.74.22,15,15,0,0,1,3.92,1.27A9.44,9.44,0,0,0,64.35,47.7Z" transform="translate(-3.24 -5.52)"/><path class="l" d="M73.12,57.77a9.4,9.4,0,0,1-3.38,6.6,15,15,0,0,0-3.92-1.27L54.61,54.58a9.44,9.44,0,0,1,18.51,3.19Z" transform="translate(-3.24 -5.52)"/><path class="k" d="M73.18,55.6c-1.41-.39-2.59-1.06-2.49-1.63.07-.42.68-.7,1.57-.79a9.17,9.17,0,0,0-7.34-5.47c-10.85-.82-13.68,11.67-7.1,16a19.6,19.6,0,0,1,8.92-.33c.79.13,2.44.79,3.19,1a10.16,10.16,0,0,0,3.24-8.77Z" transform="translate(-3.24 -5.52)"/><path class="m" d="M56.8,62.86a10.37,10.37,0,0,1-1.71-8.77c1.17-3.81,5.8-5.69,8.88-5,2.31.5,4.95,13.15,3.57,14.32-.57-.17-1.15-.32-1.74-.45A21.58,21.58,0,0,0,56.8,62.86Z" transform="translate(-3.24 -5.52)"/><path class="j" d="M56.77,64.35a16.67,16.67,0,0,1,12.91.19l.13-.28a16.62,16.62,0,0,0-6-1.4,16.44,16.44,0,0,0-7.18,1.21Z" transform="translate(-3.24 -5.52)"/><path class="n" d="M67.38,51c-.32.13.1.78.23,1.1a22,22,0,0,1,1.77,3.53c.1.78,1,3.33,1.12,4s.6.35.6.35a7.76,7.76,0,0,0,.63-2.44,4.85,4.85,0,0,0-1.12-1.78c-.29-.33-1-1.16-1-1.77a2.27,2.27,0,0,0-.79-2.07C68.13,51.38,67.7,50.88,67.38,51Z" transform="translate(-3.24 -5.52)"/><g class="o"><circle class="i" cx="67.87" cy="51.67" r="1.55" transform="translate(8.4 110.29) rotate(-86.04)"/></g><g class="p"><circle class="i" cx="68.7" cy="59.79" r="3.25" transform="translate(1.07 118.69) rotate(-86.04)"/></g><g class="q"><circle class="i" cx="62.29" cy="59.5" r="0.77" transform="matrix(0.07, -1, 1, 0.07, -4.61, 112.02)"/></g><circle class="r" cx="68.33" cy="60.37" r="1.44" transform="translate(-15.84 96.84) rotate(-68.88)"/><circle class="r" cx="54.2" cy="55.42" r="1.37"/><circle class="r" cx="59.45" cy="55.21" r="1.44"/><circle class="r" cx="61.89" cy="55.64" r="1.44"/><circle class="r" cx="60.11" cy="61.76" r="1.44" transform="translate(-21.45 20.29) rotate(-21.12)"/><circle class="r" cx="54.13" cy="57.22" r="1.15"/><path class="s" d="M89.12,53.4a1.32,1.32,0,0,1-1.69-.8q-.14-.39-.29-.78a27.22,27.22,0,0,0-12.7-14.37A24.94,24.94,0,0,0,70,35.66c-.62-.19-1.25-.35-1.88-.48L67.48,35h0l-.25,0a22.62,22.62,0,0,0-11.28.93l-.18.06a1.32,1.32,0,0,1-1.5-.45,1.33,1.33,0,0,1,.23-1.83,1.33,1.33,0,0,1,.38-.21q.91-.32,1.82-.58a25.24,25.24,0,0,1,11.22-.5l.31.06.76.16q.77.17,1.53.39a27.6,27.6,0,0,1,5.15,2.07,29.86,29.86,0,0,1,14,15.82c.1.26.2.52.29.78A1.32,1.32,0,0,1,89.12,53.4Z" transform="translate(-3.24 -5.52)"/><path class="s" d="M41,35.65a1.32,1.32,0,0,1-1.77.61,23.15,23.15,0,0,0-18.73-.62A27.3,27.3,0,0,0,5.9,49.26,1.32,1.32,0,1,1,3.52,48.1a29.93,29.93,0,0,1,16-14.93,25.77,25.77,0,0,1,20.84.71A1.32,1.32,0,0,1,41,35.65Z" transform="translate(-3.24 -5.52)"/><circle class="r" cx="33.64" cy="55.14" r="1.37"/><circle class="r" cx="28.39" cy="54.92" r="1.44"/><circle class="r" cx="25.94" cy="55.35" r="1.44"/><circle class="r" cx="34.2" cy="61.47" r="1.44" transform="translate(-38.7 65.71) rotate(-68.88)"/><circle class="r" cx="33.71" cy="56.93" r="1.15"/><rect class="t" x="18.18" y="56.36" width="9.92" height="3.74" rx="0.89" ry="0.89"/><rect class="t" x="59.88" y="56.5" width="10.35" height="3.74" rx="0.89" ry="0.89"/></svg>