<svg xmlns="http://www.w3.org/2000/svg" viewBox="0 0 77.1 81.45"><defs><style>.a{fill:#099;}.b{fill:#00b7b2;}.c{fill:#384948;}.d{fill:#465b5a;}.e{fill:#262e26;}.f{fill:#2b2b2b;}.g{fill:#526664;}.h{fill:#5a6d6b;}.i{fill:#b5b5b5;}.j{fill:#e8e8e8;}.k{fill:#fff;}.l{fill:#495750;}.m{fill:#ccc;}.n{fill:#ad6123;}.o{fill:#874616;}.p{fill:#e57929;}.q{opacity:0.74;}.r{fill:#efefef;}.s{opacity:0.41;}.t{fill:#997373;}.u{fill:#253332;opacity:0.34;}</style></defs><title>chooserhino</title><path class="a" d="M67.05,16.81A38.55,38.55,0,1,0,12.53,71.33,38.55,38.55,0,1,0,67.05,16.81ZM39.79,77.22a33.15,33.15,0,1,1,23.44-9.71A32.93,32.93,0,0,1,39.79,77.22Z" transform="translate(-1.24 -1.17)"/><path class="a" d="M66.79,17.07a38.18,38.18,0,1,0-54,54,38.18,38.18,0,1,0,54-54Zm-27,60.52a33.52,33.52,0,1,1,23.7-9.82A33.3,33.3,0,0,1,39.79,77.59Z" transform="translate(-1.24 -1.17)"/><path class="b" d="M66.18,16.82A37.32,37.32,0,1,0,13.4,69.6,37.32,37.32,0,1,0,66.18,16.82ZM64.1,67.52A34.38,34.38,0,0,1,15.48,18.9,34.38,34.38,0,0,1,64.1,67.52Z" transform="translate(-1.24 -1.17)"/><path class="c" d="M69.83,31.73c0,.33-.11.68-.19,1L66.85,70.21l-.39,2.12a1.06,1.06,0,0,1-1.06,1.06H15.87A1.06,1.06,0,0,1,15,73a1,1,0,0,1-.22-.64l-.4-2.14L11.74,33.47c-.1-.69-.26-1.41-.45-2.14C7.6,27.36,5,20.95,6.12,17.26L9.41,3.41a2.25,2.25,0,0,1,1.41-2.07l.05,0a2.22,2.22,0,0,1,.77-.14C14.81,1.18,21,8.08,21,13.5v10h0a30.39,30.39,0,0,1,18.55-6.92h1.57a30.39,30.39,0,0,1,19.07,6.93h.24v-10c0-2.71,1.56-5.8,3.51-8.2s4.3-4.13,5.89-4.13A2.24,2.24,0,0,1,72.1,3.41l3.29,13.86C76.51,21.08,73.73,27.81,69.83,31.73Z" transform="translate(-1.24 -1.17)"/><path class="d" d="M16.74,72.1l-.18-.94L13.84,34.47l0-.1c-.11-.69-.27-1.45-.51-2.38l-.17-.65-.46-.49a19.71,19.71,0,0,1-3.93-6.28A9.2,9.2,0,0,1,8,19.28l0-.07L10.83,1.29c.75.31,4.15,1.87,5.68,3.76,1.77,2.19,3.31,5,3.31,6.81l.24,13.74A27.51,27.51,0,0,1,39.92,17a30.57,30.57,0,0,1,21.41,8.69L62,12.57c0-1.78,1.19-4.51,3-6.69a21.26,21.26,0,0,1,5.56-4.34l3,17.69,0,.07c.37,1.23.06,3.29-.84,5.52a19.38,19.38,0,0,1-4.17,6.39L68,31.8l-.13.85c0,.28-.09.56-.16.84l0,.19L64.8,71.17l-.17.92Z" transform="translate(-1.24 -1.17)"/><path class="e" d="M63.88,31.82l-.23,0-.12,0-.47,0,.62-19.5c.06-1.86,1.22-4.39,3-6.62a11,11,0,0,1,3.79-3.24l2.87,14.8,0,.07a9.09,9.09,0,0,1-.58,4.62,21.2,21.2,0,0,1-3.16,5.89C67.68,30.32,65.48,31.87,63.88,31.82Z" transform="translate(-1.24 -1.17)"/><path class="e" d="M17.63,31.82l.23,0,.12,0,.47,0-.62-19.5c-.06-1.86-1.22-4.39-3-6.62A11,11,0,0,0,11,2.41L8.15,17.2l0,.07a9.09,9.09,0,0,0,.58,4.62,21.2,21.2,0,0,0,3.16,5.89C13.83,30.32,16,31.87,17.63,31.82Z" transform="translate(-1.24 -1.17)"/><path class="f" d="M44.86,68.11c0,1.95-2.05,3.52-4.58,3.52s-4.58-1.58-4.58-3.52a2.82,2.82,0,0,1,.35-1.36c0,1.77,1.91,3.2,4.23,3.2s4.19-1.43,4.23-3.2A2.82,2.82,0,0,1,44.86,68.11Z" transform="translate(-1.24 -1.17)"/><ellipse class="g" cx="39.53" cy="36.99" rx="23.6" ry="18.32"/><ellipse class="h" cx="39.7" cy="28.42" rx="17.31" ry="8.48"/><path class="i" d="M40.28,71.39c-2.65,0-4.81-1.69-4.81-3.76a3,3,0,0,1,.38-1.47l.08-.15c.07-.37.1-1,.17-1.79.89-8.56,2.06-25,4.17-25s3.29,16.32,4.17,25c.08.75.11,1.42.17,1.8l.08.15a3,3,0,0,1,.38,1.47C45.09,69.71,42.93,71.39,40.28,71.39Z" transform="translate(-1.24 -1.17)"/><path class="j" d="M44.86,67.64c0,1.95-2.05,3.17-4.58,3.17s-4.58-1.22-4.58-3.17a2.82,2.82,0,0,1,.35-1.36c0,1.77,1.91-26.94,4.23-26.94S44.47,68,44.5,66.28A2.82,2.82,0,0,1,44.86,67.64Z" transform="translate(-1.24 -1.17)"/><path class="k" d="M40.28,68c-1.72,0-3.17-1-3.17-2.11a1.35,1.35,0,0,1,0-.34,1.94,1.94,0,0,0,.34-.74c0-.12.06-.28.09-.5.07-.39.15-.91.25-1.58.3-1.95.77-4.84,1-7.52C39.1,52.72,40,40.6,40.28,39.86c.28.74,1.17,12.87,1.41,15.21.27,2.68.72,5.69,1,7.64.1.67.19,1.2.25,1.59,0,.22.07.38.09.5a1.94,1.94,0,0,0,.34.74,1.35,1.35,0,0,1,0,.34C43.45,67,42,68,40.28,68Z" transform="translate(-1.24 -1.17)"/><path class="c" d="M49.39,66.76a8.57,8.57,0,1,1,11.49-.33l-.66.63-.84-.34c-.22-.09-.46-.17-.71-.25a11.77,11.77,0,0,0-2.93-.36h-.24a11.41,11.41,0,0,0-4.92,1.18l-.73.37Z" transform="translate(-1.24 -1.17)"/><path class="c" d="M55,52.49A7.75,7.75,0,0,0,50,66.22l.12.1,0,0,.11.21a12.24,12.24,0,0,1,5.27-1.27,12.61,12.61,0,0,1,3.41.39c.27.08.54.18.79.28l.35.14.27-.26a7.67,7.67,0,0,0,2.39-5.6A7.76,7.76,0,0,0,55,52.49Z" transform="translate(-1.24 -1.17)"/><path class="c" d="M30.85,67.28a11.41,11.41,0,0,0-4.92-1.18H25.7a11.78,11.78,0,0,0-2.94.36c-.25.08-.49.16-.71.25l-.84.34-.66-.63a8.49,8.49,0,0,1-2.65-6.19A8.57,8.57,0,1,1,32,66.76l-.45.9Z" transform="translate(-1.24 -1.17)"/><path class="c" d="M26.48,52.49a7.76,7.76,0,0,0-7.75,7.75,7.67,7.67,0,0,0,2.39,5.6l.27.26.35-.14c.26-.1.52-.2.79-.28A12.63,12.63,0,0,1,26,65.28a12.24,12.24,0,0,1,5.27,1.27l.11-.21,0,0,.12-.1a7.75,7.75,0,0,0-4.93-13.73Z" transform="translate(-1.24 -1.17)"/><path class="f" d="M50,66.22a7.75,7.75,0,1,1,10.29-.38L60,66.1,59.69,66a10.79,10.79,0,0,0-2.88-.72,11.52,11.52,0,0,0-1.27-.07,10.93,10.93,0,0,0-4.88,1.12l-.34.17Z" transform="translate(-1.24 -1.17)"/><path class="l" d="M55.07,53.55a7.16,7.16,0,0,0-4.56,12.69,11.49,11.49,0,0,1,5.15-1.18,12.07,12.07,0,0,1,1.33.07,11.39,11.39,0,0,1,3,.76,7.16,7.16,0,0,0-5-12.34Z" transform="translate(-1.24 -1.17)"/><path class="m" d="M62.23,60.71A7.13,7.13,0,0,1,60,65.88a11.39,11.39,0,0,0-3-.76l-8.93-5.86a7.16,7.16,0,0,1,14.18,1.45Z" transform="translate(-1.24 -1.17)"/><path class="j" d="M59.77,64.78a12.4,12.4,0,0,0-2.46-.57l-8.19-5.37A6.22,6.22,0,0,1,61.3,60.71,6.15,6.15,0,0,1,59.77,64.78Z" transform="translate(-1.24 -1.17)"/><path class="n" d="M58.13,60c-.82-.09-1.42-.39-1.42-.74s.31-.48.79-.62a5.4,5.4,0,0,0-9.45.64,7.17,7.17,0,0,0,2.46,7,11.49,11.49,0,0,1,5.15-1.18,12.07,12.07,0,0,1,1.33.07A5.4,5.4,0,0,0,58.13,60Z" transform="translate(-1.24 -1.17)"/><path class="o" d="M50.63,65.4a6.47,6.47,0,0,1-1.9-5.91A4.71,4.71,0,0,1,53,56.83c1.35,0,4.35,6.74,3.73,7.56-.34,0-.68,0-1,0A12.32,12.32,0,0,0,50.63,65.4Z" transform="translate(-1.24 -1.17)"/><path class="e" d="M50.21,66.55l-.11-.21A12.47,12.47,0,0,1,55.47,65a12.62,12.62,0,0,1,4.59.75L60,66a12.65,12.65,0,0,0-9.78.53Z" transform="translate(-1.24 -1.17)"/><path class="p" d="M54.25,56.83c-.23.12.12.59.23.82A16.68,16.68,0,0,1,56,60.24c.12.59.94,2.47,1.06,2.94s.47.23.47.23a5.89,5.89,0,0,0,.35-1.88A3.68,3.68,0,0,0,57,60.24c-.23-.23-.82-.82-.82-1.29a1.72,1.72,0,0,0-.7-1.53C54.84,57.07,54.48,56.72,54.25,56.83Z" transform="translate(-1.24 -1.17)"/><circle class="f" cx="51.6" cy="60.12" r="3.64"/><g class="q"><circle class="r" cx="54.77" cy="60.24" r="1.17"/></g><g class="s"><circle class="r" cx="52.89" cy="61.41" r="0.59"/></g><path class="f" d="M31.41,66.22a7.75,7.75,0,1,0-10.29-.38l.27.26.35-.14a10.79,10.79,0,0,1,2.88-.72,11.52,11.52,0,0,1,1.27-.07,10.93,10.93,0,0,1,4.88,1.12l.34.17Z" transform="translate(-1.24 -1.17)"/><path class="l" d="M26.36,53.55a7.16,7.16,0,0,1,4.56,12.69,11.49,11.49,0,0,0-5.15-1.18,12.07,12.07,0,0,0-1.33.07,11.39,11.39,0,0,0-3,.76,7.16,7.16,0,0,1,5-12.34Z" transform="translate(-1.24 -1.17)"/><path class="m" d="M19.2,60.71a7.13,7.13,0,0,0,2.21,5.17,11.39,11.39,0,0,1,3-.76l8.93-5.86A7.16,7.16,0,0,0,19.2,60.71Z" transform="translate(-1.24 -1.17)"/><path class="j" d="M21.66,64.78a12.4,12.4,0,0,1,2.46-.57l8.19-5.37a6.22,6.22,0,0,0-12.16,1.86A6.15,6.15,0,0,0,21.66,64.78Z" transform="translate(-1.24 -1.17)"/><path class="n" d="M23.3,60c.82-.09,1.42-.39,1.42-.74s-.31-.48-.79-.62a5.4,5.4,0,0,1,9.45.64,7.17,7.17,0,0,1-2.46,7,11.49,11.49,0,0,0-5.15-1.18,12.07,12.07,0,0,0-1.33.07A5.4,5.4,0,0,1,23.3,60Z" transform="translate(-1.24 -1.17)"/><path class="o" d="M30.8,65.4a6.47,6.47,0,0,0,1.9-5.91,4.71,4.71,0,0,0-4.23-2.65c-1.35,0-4.35,6.74-3.73,7.56.34,0,.68,0,1,0A12.32,12.32,0,0,1,30.8,65.4Z" transform="translate(-1.24 -1.17)"/><path class="e" d="M31.22,66.55A12.65,12.65,0,0,0,21.44,66l-.08-.22A12.61,12.61,0,0,1,26,65a12.47,12.47,0,0,1,5.37,1.29Z" transform="translate(-1.24 -1.17)"/><path class="p" d="M27.18,56.83c.23.12-.12.59-.23.82a16.68,16.68,0,0,0-1.53,2.58c-.12.59-.94,2.47-1.06,2.94s-.47.23-.47.23a5.89,5.89,0,0,1-.35-1.88,3.68,3.68,0,0,1,.94-1.29c.23-.23.82-.82.82-1.29a1.72,1.72,0,0,1,.7-1.53C26.59,57.07,26.94,56.72,27.18,56.83Z" transform="translate(-1.24 -1.17)"/><circle class="f" cx="27.35" cy="60.12" r="3.64"/><g class="q"><circle class="r" cx="24.18" cy="60.24" r="1.17"/></g><g class="s"><circle class="r" cx="26.06" cy="61.41" r="0.59"/></g><ellipse class="t" cx="25.01" cy="66.7" rx="4.76" ry="1.76"/><ellipse class="t" cx="54.24" cy="66.7" rx="4.76" ry="1.76"/><path class="u" d="M69.83,31.73c0,.33-.12.68-.2,1L66.86,70.21l-.4,2.12a1.05,1.05,0,0,1-1.05,1.06H55.66a1.88,1.88,0,0,1,0,.22c0,.09,0,.17,0,.26H39.59V16.57h1.57a30.42,30.42,0,0,1,19.07,6.93h.25v-10c0-2.71,1.56-5.79,3.51-8.2s4.3-4.13,5.88-4.13A2.24,2.24,0,0,1,72.1,3.41l3.29,13.85C76.51,21.08,73.73,27.81,69.83,31.73Z" transform="translate(-1.24 -1.17)"/></svg>