<svg xmlns="http://www.w3.org/2000/svg" viewBox="0 0 77.1 77.1"><defs><style>.a{fill:#099;}.b{fill:#00b7b2;}.c{fill:#cecece;}.d{fill:#e5e5e5;}.e{fill:#9b9a9a;}.f{fill:#495750;}.g{fill:#ccc;}.h{fill:#e8e8e8;}.i{fill:#249daa;}.j{fill:#1b6d6b;}.k{fill:#2bd0d8;}.l{fill:#2b2b2b;}.m{opacity:0.74;}.n{fill:#efefef;}.o{opacity:0.41;}.p{fill:#f9b9b9;}.q{fill:#ddd;}.r{fill:#eaeaea;}.s{fill:#a3a3a3;}.t{fill:#c1bfbf;}.u{fill:#a8a8a8;}.v{fill:#939393;}.w,.x{fill:#1dcaf2;}.x{opacity:0.3;}</style></defs><title>choosewhale</title><path class="a" d="M68.8,16.81A38.55,38.55,0,1,0,14.28,71.33,38.55,38.55,0,1,0,68.8,16.81ZM41.54,77.22A33.15,33.15,0,1,1,65,67.51,32.93,32.93,0,0,1,41.54,77.22Z" transform="translate(-2.99 -5.52)"/><path class="a" d="M68.54,17.07a38.18,38.18,0,1,0-54,54,38.18,38.18,0,1,0,54-54Zm-27,60.52a33.52,33.52,0,1,1,23.7-9.82A33.3,33.3,0,0,1,41.54,77.59Z" transform="translate(-2.99 -5.52)"/><path class="b" d="M67.93,16.82A37.32,37.32,0,1,0,15.15,69.6,37.32,37.32,0,1,0,67.93,16.82Zm-2.08,50.7A34.38,34.38,0,0,1,17.23,18.9,34.38,34.38,0,0,1,65.85,67.52Z" transform="translate(-2.99 -5.52)"/><path class="c" d="M71,69a3.1,3.1,0,0,1-3.16,3H15.28a3.1,3.1,0,0,1-3.16-3L10.36,37.73a3,3,0,0,1,.13-.89,21.27,21.27,0,0,1,.57-4.66h0a24.24,24.24,0,0,1,7.73-12.52,29.39,29.39,0,0,1,2.38-1.9,34.83,34.83,0,0,1,19.47-6.26h.87A34.9,34.9,0,0,1,62.13,18a28.24,28.24,0,0,1,2.39,1.95A24.09,24.09,0,0,1,72,32.44a21.47,21.47,0,0,1,.51,4.63c0,.15,0,.3,0,.46s0,.14,0,.21Z" transform="translate(-2.99 -5.52)"/><circle class="c" cx="14.02" cy="54.12" r="8.1"/><circle class="c" cx="62.36" cy="54.12" r="8.1"/><path class="d" d="M69.85,66.25a4.65,4.65,0,0,1-4.11,3.91H16.83a4.62,4.62,0,0,1-3.41-4l.14-1.69L11.45,36.93v-.11a.58.58,0,0,1,0-.16l.11-.37v-.38c.07-6.33,3.16-12.29,8.71-16.79A33.75,33.75,0,0,1,41.58,12c16.54,0,30,10.83,30,24.13,0,.12,0,.24,0,.36v.28s0,0,0,.06v.12L69.66,64.09h0Z" transform="translate(-2.99 -5.52)"/><circle class="d" cx="14.02" cy="54.12" r="7.03"/><circle class="d" cx="62.36" cy="54.12" r="7.03"/><path class="e" d="M20.9,62.89a5.64,5.64,0,1,0-7.27,1.83l.24.13.22-.17A7.85,7.85,0,0,1,16,63.59a8.39,8.39,0,0,1,.87-.31,8,8,0,0,1,3.64-.21l.27.05Z" transform="translate(-2.99 -5.52)"/><path class="f" d="M14.79,55.06A5.21,5.21,0,0,1,20.56,63a8.36,8.36,0,0,0-3.84.22,8.78,8.78,0,0,0-.91.32,8.29,8.29,0,0,0-2,1.14,5.21,5.21,0,0,1,1-9.63Z" transform="translate(-2.99 -5.52)"/><path class="g" d="M11.24,61.52a5.19,5.19,0,0,0,2.6,3.17,8.29,8.29,0,0,1,2-1.14l5.05-5.91a5.21,5.21,0,0,0-9.61,3.89Z" transform="translate(-2.99 -5.52)"/><path class="h" d="M13.79,63.87a9,9,0,0,1,1.6-.89L20,57.56a4.53,4.53,0,0,0-8.12,3.77A4.48,4.48,0,0,0,13.79,63.87Z" transform="translate(-2.99 -5.52)"/><path class="i" d="M14,60.18c.55-.23.91-.56.84-.8s-.32-.27-.68-.27a3.93,3.93,0,0,1,6.74-1.48,5.22,5.22,0,0,1-.3,5.37,8.36,8.36,0,0,0-3.84.22,8.78,8.78,0,0,0-.91.32A3.93,3.93,0,0,1,14,60.18Z" transform="translate(-2.99 -5.52)"/><path class="j" d="M20.3,62.44a4.71,4.71,0,0,0,.13-4.52,3.43,3.43,0,0,0-3.49-1c-.94.27-1.67,5.59-1.07,6,.23-.09.47-.17.71-.24A9,9,0,0,1,20.3,62.44Z" transform="translate(-2.99 -5.52)"/><path class="e" d="M20.84,63.16a9.21,9.21,0,0,0-6.95,1.61l-.1-.14a9.18,9.18,0,0,1,3.06-1.46,9.08,9.08,0,0,1,4-.19Z" transform="translate(-2.99 -5.52)"/><path class="k" d="M16,57.19c.19,0,0,.43,0,.62a12.14,12.14,0,0,0-.54,2.12c0,.43-.16,1.91-.14,2.27s-.28.26-.28.26a4.29,4.29,0,0,1-.63-1.24,2.68,2.68,0,0,1,.39-1.09c.12-.21.41-.74.31-1.07a1.25,1.25,0,0,1,.18-1.21C15.67,57.47,15.85,57.16,16,57.19Z" transform="translate(-2.99 -5.52)"/><circle class="l" cx="17.93" cy="60.02" r="2.65" transform="matrix(0.96, -0.28, 0.28, 0.96, -19.04, 1.88)"/><g class="m"><circle class="n" cx="15.74" cy="60.75" r="0.85" transform="translate(-19.33 1.29) rotate(-16.21)"/></g><g class="o"><circle class="n" cx="17.29" cy="61.19" r="0.43" transform="translate(-19.39 1.74) rotate(-16.21)"/></g><ellipse class="p" cx="66.47" cy="67.16" rx="2.37" ry="1.82" transform="translate(-16.3 11.01) rotate(-12.89)"/><ellipse class="p" cx="17.06" cy="67.16" rx="1.82" ry="2.37" transform="translate(-55.2 63.28) rotate(-77.11)"/><path class="e" d="M61.39,62.5a5.64,5.64,0,1,1,7.16,2.23l-.25.11-.21-.18a7.85,7.85,0,0,0-1.8-1.19,8.39,8.39,0,0,0-.85-.35,8,8,0,0,0-3.62-.41l-.28,0Z" transform="translate(-2.99 -5.52)"/><path class="f" d="M67.92,55a5.21,5.21,0,0,0-6.2,7.6,8.36,8.36,0,0,1,3.82.44,8.78,8.78,0,0,1,.89.37,8.29,8.29,0,0,1,1.9,1.25A5.21,5.21,0,0,0,67.92,55Z" transform="translate(-2.99 -5.52)"/><path class="g" d="M71.1,61.67a5.19,5.19,0,0,1-2.77,3,8.29,8.29,0,0,0-1.9-1.25l-4.71-6.19a5.21,5.21,0,0,1,9.38,4.42Z" transform="translate(-2.99 -5.52)"/><path class="h" d="M68.43,63.88a9,9,0,0,0-1.55-1l-4.32-5.67a4.53,4.53,0,0,1,7.9,4.22A4.48,4.48,0,0,1,68.43,63.88Z" transform="translate(-2.99 -5.52)"/><path class="i" d="M68.46,60.18c-.54-.26-.88-.61-.79-.85s.33-.25.69-.23a3.93,3.93,0,0,0-6.64-1.85,5.22,5.22,0,0,0,0,5.38,8.36,8.36,0,0,1,3.82.44,8.78,8.78,0,0,1,.89.37,3.93,3.93,0,0,0,2-3.26Z" transform="translate(-2.99 -5.52)"/><path class="j" d="M62,62.08a4.71,4.71,0,0,1,.13-4.52,3.43,3.43,0,0,1,3.54-.8c.92.33,1.36,5.68.73,6.09-.23-.1-.46-.19-.69-.28A9,9,0,0,0,62,62.08Z" transform="translate(-2.99 -5.52)"/><path class="e" d="M61.43,62.77a9.21,9.21,0,0,1,6.84,2l.11-.13a9.18,9.18,0,0,0-3-1.63,9.08,9.08,0,0,0-4-.41Z" transform="translate(-2.99 -5.52)"/><path class="k" d="M66.56,57.08c-.19,0-.06.43,0,.62a12.14,12.14,0,0,1,.42,2.14c-.06.43,0,1.92,0,2.27s.27.27.27.27a4.29,4.29,0,0,0,.7-1.2,2.68,2.68,0,0,0-.33-1.11A1.8,1.8,0,0,1,67.34,59a1.25,1.25,0,0,0-.11-1.22C66.91,57.39,66.75,57.06,66.56,57.08Z" transform="translate(-2.99 -5.52)"/><circle class="l" cx="64.51" cy="59.8" r="2.65" transform="matrix(0.33, -0.94, 0.94, 0.33, -16.33, 95.24)"/><g class="m"><circle class="n" cx="66.66" cy="60.65" r="0.85" transform="translate(-15.7 97.83) rotate(-70.57)"/></g><g class="o"><circle class="n" cx="65.09" cy="61" r="0.43" transform="translate(-17.08 96.58) rotate(-70.57)"/></g><ellipse class="c" cx="38.58" cy="29.42" rx="28.2" ry="20.22"/><ellipse class="q" cx="38.59" cy="28.33" rx="26.11" ry="18.36"/><ellipse class="r" cx="38.82" cy="23.69" rx="19.81" ry="10.29"/><path class="s" d="M18.88,64.73c3.81.85,7.61,1.77,11.42,2.4,1,.16,1.91.28,2.85.35l.7,0h.71c.48,0,1,0,1.43-.07s.94-.09,1.42-.16,1-.13,1.49-.16,1,0,1.51,0,1,0,1.5.07,1,.11,1.48.18,1,.13,1.43.18,1,.09,1.43.11a13.79,13.79,0,0,0,1.39,0c1.91-.14,3.85-.39,5.77-.65s3.85-.54,5.77-.86q1.44-.23,2.87-.51c.48-.09,1-.19,1.43-.3a10.66,10.66,0,0,0,1.4-.4,15.63,15.63,0,0,1-2.75,1c-.94.28-1.89.52-2.84.76-1.9.46-3.82.87-5.74,1.22-1,.18-1.93.34-2.9.48s-1.94.27-2.93.37a13.23,13.23,0,0,1-1.53.07c-.5,0-1-.05-1.49-.1s-1-.11-1.48-.18-1-.13-1.42-.17-.94-.06-1.42-.07-.95,0-1.42,0-.93.08-1.41.14-1,.12-1.49.15-1,0-1.5.06h-.75c-.26,0-.51,0-.76,0a27.29,27.29,0,0,1-2.95-.46c-1.93-.4-3.82-.92-5.69-1.49S20.7,65.45,18.88,64.73Z" transform="translate(-2.99 -5.52)"/><path class="t" d="M20.09,48a28.68,28.68,0,0,0,9.66,6.33,30.63,30.63,0,0,0,5.54,1.61A31.25,31.25,0,0,0,41,56.5,31.65,31.65,0,0,0,46.76,56l1.42-.27,1.4-.34L51,55l1.37-.46a30.5,30.5,0,0,0,9.93-5.92,26.5,26.5,0,0,1-9.67,6.6,29.78,29.78,0,0,1-5.69,1.65,31.55,31.55,0,0,1-5.91.51,31.11,31.11,0,0,1-5.9-.64A28.71,28.71,0,0,1,29.46,55,25.19,25.19,0,0,1,20.09,48Z" transform="translate(-2.99 -5.52)"/><path class="t" d="M19.52,47.2a26.35,26.35,0,0,0,10,5.85,34.32,34.32,0,0,0,5.67,1.33A37.3,37.3,0,0,0,41,54.8a38.89,38.89,0,0,0,5.81-.44,39.43,39.43,0,0,0,5.69-1.28A36,36,0,0,0,63,47.93a30.49,30.49,0,0,1-10.27,5.85c-.47.17-.94.31-1.42.46s-1,.27-1.44.39l-.72.18-.73.15-.73.15-.74.13a38.32,38.32,0,0,1-5.95.5,36.74,36.74,0,0,1-6-.48,31.8,31.8,0,0,1-5.77-1.52A26.48,26.48,0,0,1,24,51.09,21,21,0,0,1,19.52,47.2Z" transform="translate(-2.99 -5.52)"/><path class="u" d="M20,47.86a28.72,28.72,0,0,0,4.6,3.43,29.21,29.21,0,0,0,5.15,2.44,31.76,31.76,0,0,0,5.51,1.43,33.41,33.41,0,0,0,5.67.47,35.06,35.06,0,0,0,5.67-.44,36.61,36.61,0,0,0,5.54-1.32,35.45,35.45,0,0,0,10.17-5.2,29.89,29.89,0,0,1-9.94,5.89L51,55l-1.4.4-1.42.34-1.43.29a34.71,34.71,0,0,1-5.82.5A33.08,33.08,0,0,1,35.06,56a29.58,29.58,0,0,1-5.61-1.62,26.65,26.65,0,0,1-5.14-2.73A24.08,24.08,0,0,1,20,47.86Z" transform="translate(-2.99 -5.52)"/><ellipse class="c" cx="38.06" cy="53.45" rx="17.54" ry="1.41"/><path class="d" d="M62.66,52.82c.61,2.35,4.59,3.34,8.91,2.21" transform="translate(-2.99 -5.52)"/><path class="v" d="M63.18,52.69a2.6,2.6,0,0,0,1.26,1.62,6.62,6.62,0,0,0,2.21.82A12.84,12.84,0,0,0,71.57,55a13.1,13.1,0,0,1-5,.62A7.28,7.28,0,0,1,64.05,55,3.54,3.54,0,0,1,62.15,53Z" transform="translate(-2.99 -5.52)"/><path class="d" d="M20,52.82c-.61,2.35-4.59,3.34-8.91,2.21" transform="translate(-2.99 -5.52)"/><path class="v" d="M20.53,53A3.54,3.54,0,0,1,18.62,55a7.28,7.28,0,0,1-2.53.65,13.1,13.1,0,0,1-5-.62,12.84,12.84,0,0,0,4.91.09,6.62,6.62,0,0,0,2.21-.82,2.6,2.6,0,0,0,1.26-1.62Z" transform="translate(-2.99 -5.52)"/><rect class="w" x="65.22" y="63.14" width="5.08" height="1.84" rx="0.55" ry="0.55" transform="translate(18.4 -22.36) rotate(16.79)"/><circle class="x" cx="62.25" cy="61.18" r="0.67" transform="translate(-17.29 97.59) rotate(-73.21)"/><circle class="x" cx="64.75" cy="61.82" r="0.71" transform="translate(-16.12 100.44) rotate(-73.21)"/><circle class="x" cx="68.48" cy="62.11" r="1.09" transform="translate(-13.75 104.21) rotate(-73.21)"/><circle class="x" cx="69.04" cy="63.03" r="0.71" transform="translate(-14.23 105.4) rotate(-73.21)"/><circle class="x" cx="65.84" cy="62.37" r="0.71" transform="translate(-15.88 101.87) rotate(-73.21)"/><circle class="x" cx="63.4" cy="61.94" r="0.71" transform="translate(-7.48 -0.56) rotate(-4.33)"/><circle class="x" cx="61.96" cy="62.01" r="0.56" transform="matrix(0.29, -0.96, 0.96, 0.29, -18.29, 97.91)"/><rect class="w" x="12.08" y="63.41" width="5.08" height="1.84" rx="0.55" ry="0.55" transform="translate(44.21 116.17) rotate(163.21)"/><circle class="x" cx="20.13" cy="61.44" r="0.67" transform="translate(-19.88 2.91) rotate(-16.79)"/><circle class="x" cx="17.64" cy="62.09" r="0.71" transform="translate(-20.17 2.22) rotate(-16.79)"/><circle class="x" cx="16.55" cy="62.64" r="0.71" transform="translate(-20.37 1.93) rotate(-16.79)"/><circle class="x" cx="12.93" cy="63.31" r="0.71" transform="translate(-20.72 0.91) rotate(-16.79)"/><circle class="x" cx="14.4" cy="62.54" r="1.34" transform="translate(-20.44 1.3) rotate(-16.79)"/><circle class="x" cx="18.99" cy="62.21" r="0.71" transform="matrix(0.08, -1, 1, 0.08, -47.46, 70.93)"/><circle class="x" cx="20.42" cy="62.28" r="0.56" transform="translate(-20.11 3.03) rotate(-16.79)"/></svg>