<svg xmlns="http://www.w3.org/2000/svg" viewBox="0 0 34 34"><defs><style>.cls-1,.cls-2{fill:none;stroke:#fff;}.cls-1,.cls-2,.cls-3{stroke-miterlimit:10;}.cls-1{opacity:0.56;}.cls-3{fill:#f9f9f9;stroke:#f9f9f9;stroke-width:0.25px;}</style></defs><title>fblank</title><g id="Layer_2" data-name="Layer 2"><g id="Layer_1-2" data-name="Layer 1"><path class="cls-1" d="M17,33.5A16.5,16.5,0,1,1,33.5,17,16.52,16.52,0,0,1,17,33.5Z"/><circle class="cls-2" cx="17" cy="17" r="14.25"/><path class="cls-3" d="M25.27,9.71l-.34.17-.17-.34a.13.13,0,0,0-.24.12l.17.34-.34.17a.13.13,0,1,0,.12.24l.34-.17.17.34a.13.13,0,0,0,.24-.12L25,10.11l.34-.17a.13.13,0,1,0-.12-.24Z"/><path class="cls-3" d="M18.48,28.82l-.59.08-.08-.59a.21.21,0,0,0-.41.05l.08.59-.59.08a.21.21,0,1,0,.05.41l.59-.08.08.59A.21.21,0,0,0,18,29.9l-.08-.59.59-.08a.21.21,0,1,0-.05-.41Z"/><path class="cls-3" d="M10.23,7.07l-.59.08-.08-.59a.21.21,0,0,0-.41.05l.08.59-.59.08a.21.21,0,1,0,.05.41l.59-.08.08.59a.21.21,0,0,0,.41-.05L9.7,7.55l.59-.08a.21.21,0,1,0-.05-.41Z"/><path class="cls-3" d="M28.3,23a2.53,2.53,0,0,0-1.87-1.87A2.21,2.21,0,0,0,28.3,19.2a2.36,2.36,0,0,0,1.87,1.87C29,21.35,28.29,21.93,28.3,23Z"/><path class="cls-3" d="M8,24.45a4.49,4.49,0,0,0-3.33-3.33C6.49,20.91,7.53,19.72,8,17.8a4.19,4.19,0,0,0,3.33,3.33C9.29,21.62,8,22.63,8,24.45Z"/></g></g></svg>