<svg xmlns="http://www.w3.org/2000/svg" xmlns:xlink="http://www.w3.org/1999/xlink" viewBox="0 0 1123 660.24"><defs><style>.cls-1{isolation:isolate;}.cls-2{fill:url(#linear-gradient);}.cls-3{opacity:0.8;}.cls-4{fill:#ffe7e1;}.cls-5{fill:url(#linear-gradient-2);}.cls-6{fill:url(#linear-gradient-3);}.cls-12,.cls-14,.cls-7{fill:#fff;}.cls-8{fill:url(#linear-gradient-4);}.cls-9{fill:url(#linear-gradient-5);}.cls-10{fill:url(#linear-gradient-6);}.cls-11{fill:url(#linear-gradient-7);}.cls-12,.cls-14{opacity:0.24;}.cls-12,.cls-13{mix-blend-mode:soft-light;}.cls-15,.cls-18{fill:#f9f9f9;stroke-miterlimit:10;}.cls-15,.cls-16,.cls-17,.cls-18{stroke:#f9f9f9;}.cls-15{stroke-width:0.44px;}.cls-16,.cls-17{fill:none;stroke-linecap:round;stroke-linejoin:round;}.cls-16{stroke-width:0.88px;}.cls-17{stroke-width:0.89px;}.cls-18{stroke-width:0.44px;}.cls-19{fill:url(#linear-gradient-8);}.cls-20{fill:url(#linear-gradient-9);}.cls-21{fill:url(#linear-gradient-10);}.cls-22{fill:url(#linear-gradient-11);}.cls-23{fill:url(#linear-gradient-12);}.cls-24{fill:url(#linear-gradient-13);}.cls-25{fill:url(#linear-gradient-14);}.cls-26{fill:url(#linear-gradient-15);}</style><linearGradient id="linear-gradient" x1="564.77" y1="28.09" x2="564.77" y2="570.62" gradientUnits="userSpaceOnUse"><stop offset="0" stop-color="#bc6e5c"/><stop offset="0.23" stop-color="#d19475"/><stop offset="0.45" stop-color="#e3b58a"/><stop offset="0.58" stop-color="#eac192"/><stop offset="0.66" stop-color="#ecc38b"/><stop offset="0.79" stop-color="#f1c778"/><stop offset="0.93" stop-color="#face59"/><stop offset="1" stop-color="#ffd248"/></linearGradient><linearGradient id="linear-gradient-2" x1="929.93" y1="284.96" x2="950.42" y2="221.2" gradientUnits="userSpaceOnUse"><stop offset="0" stop-color="#a085a5"/><stop offset="0.24" stop-color="#ac6d84" stop-opacity="0.67"/><stop offset="0.58" stop-color="#be4c55" stop-opacity="0.2"/><stop offset="0.62" stop-color="#c05057" stop-opacity="0.23"/><stop offset="0.68" stop-color="#c65b5c" stop-opacity="0.3"/><stop offset="0.75" stop-color="#cf6e64" stop-opacity="0.41"/><stop offset="0.83" stop-color="#dc8770" stop-opacity="0.57"/><stop offset="0.92" stop-color="#eda87e" stop-opacity="0.78"/><stop offset="1" stop-color="#ffcb8e"/></linearGradient><linearGradient id="linear-gradient-3" x1="1007.33" y1="252.13" x2="1007.35" y2="252.06" xlink:href="#linear-gradient-2"/><linearGradient id="linear-gradient-4" x1="290.36" y1="207.58" x2="308.36" y2="151.57" xlink:href="#linear-gradient-2"/><linearGradient id="linear-gradient-5" x1="358.34" y1="178.79" x2="358.39" y2="178.63" xlink:href="#linear-gradient-2"/><linearGradient id="linear-gradient-6" x1="590.83" y1="266.67" x2="623.61" y2="164.69" xlink:href="#linear-gradient-2"/><linearGradient id="linear-gradient-7" x1="714.63" y1="214.18" x2="714.67" y2="214.04" xlink:href="#linear-gradient-2"/><linearGradient id="linear-gradient-8" x1="425.3" y1="165.45" x2="455.19" y2="72.45" xlink:href="#linear-gradient-2"/><linearGradient id="linear-gradient-9" x1="538.19" y1="117.59" x2="538.24" y2="117.44" xlink:href="#linear-gradient-2"/><linearGradient id="linear-gradient-10" x1="885.96" y1="166.65" x2="906.46" y2="102.89" xlink:href="#linear-gradient-2"/><linearGradient id="linear-gradient-11" x1="963.36" y1="133.82" x2="963.39" y2="133.75" xlink:href="#linear-gradient-2"/><linearGradient id="linear-gradient-12" x1="120.57" y1="175.46" x2="150.47" y2="82.46" xlink:href="#linear-gradient-2"/><linearGradient id="linear-gradient-13" x1="233.47" y1="127.6" x2="233.51" y2="127.45" xlink:href="#linear-gradient-2"/><linearGradient id="linear-gradient-14" x1="139.37" y1="295.07" x2="157.37" y2="239.06" xlink:href="#linear-gradient-2"/><linearGradient id="linear-gradient-15" x1="207.35" y1="266.28" x2="207.4" y2="266.13" xlink:href="#linear-gradient-2"/></defs><title>g-bg-desktop</title><g class="cls-1"><g id="Layer_2" data-name="Layer 2"><g id="Layer_5" data-name="Layer 5"><rect id="_Rectangle_" data-name="&lt;Rectangle&gt;" class="cls-2" x="39.77" y="66.24" width="1050" height="594"/><g id="_Group_" data-name="&lt;Group&gt;" class="cls-3"><path id="_Path_" data-name="&lt;Path&gt;" class="cls-4" d="M989.41,246.89S985,231,966.55,236.83c0,0,5.49-18.59-21.43-17.71-29.09.94-19.6,17.18-19.6,17.18s-13.49-4.16-18.72,0c-2.75,2.17-3.9,6.28-4.37,9.7-15.39-7.63-27.29,4.72-23.16,5.61s22.85,0,22.85,0,11.57,1.57,17.9,0a189.48,189.48,0,0,0,46.81.7,68.51,68.51,0,0,0,22.58.22s15.7.42,21.2-.92S1001.56,240.45,989.41,246.89Z"/><g id="_Group_2" data-name="&lt;Group&gt;"><path id="_Path_2" data-name="&lt;Path&gt;" class="cls-5" d="M986.18,251c-7.95,3.35-25.15-5.45-25.15-5.45a12.1,12.1,0,0,1-4,2,17.26,17.26,0,0,1-13.12-1.46c-28.87-16.17-.4-26.85-.25-26.92-23.54,1.25-19.91,13.12-18.48,16.32a26,26,0,0,0,5.86,5.76c-11.11-7.33-20.11-6.54-20.72-6.48a8.3,8.3,0,0,0-3.47,1.49c-2.74,2.17-3.9,6.27-4.37,9.68a25,25,0,0,0,.71,2.74,23.89,23.89,0,0,0-6-4.62c-12.72-3-21.57,6.73-17.93,7.52,4.13.89,22.85,0,22.85,0s11.57,1.57,17.9,0a189.47,189.47,0,0,0,46.81.7,68.51,68.51,0,0,0,22.58.22s7.21.19,13.57-.1A138.56,138.56,0,0,1,986.18,251Z"/><polygon id="_Path_3" data-name="&lt;Path&gt;" class="cls-6" points="1007.34 252.1 1007.34 252.1 1007.34 252.1 1007.34 252.1"/></g><path id="_Path_4" data-name="&lt;Path&gt;" class="cls-7" d="M989.41,246.89S985,231,966.55,236.83c0,0,3.92-13.28-11.13-16.86,3.64,1.87,11.56,7.25,9.36,17.83,0,0,17.07-6.49,23.21,10.47,0,0,14.56-8.24,22.62,3.32C1016.12,250.24,1001.56,240.45,989.41,246.89Z"/></g><g id="_Group_3" data-name="&lt;Group&gt;" class="cls-3"><path id="_Path_5" data-name="&lt;Path&gt;" class="cls-4" d="M342.61,174.13s-3.87-13.95-20.08-8.84c0,0,4.82-16.33-18.83-15.56-25.56.83-17.22,15.09-17.22,15.09s-11.85-3.65-16.45,0c-2.41,1.91-3.43,5.52-3.84,8.52-13.52-6.7-24,4.15-20.35,4.93s20.08,0,20.08,0,10.16,1.38,15.72,0a166.45,166.45,0,0,0,41.12.61,60.18,60.18,0,0,0,19.84.2s13.79.37,18.63-.81S353.28,168.48,342.61,174.13Z"/><g id="_Group_4" data-name="&lt;Group&gt;"><path id="_Path_6" data-name="&lt;Path&gt;" class="cls-8" d="M339.78,177.74c-7,2.94-22.09-4.78-22.09-4.78a10.63,10.63,0,0,1-3.56,1.77,15.17,15.17,0,0,1-11.53-1.28c-25.36-14.21-.35-23.58-.22-23.65-20.68,1.1-17.49,11.52-16.24,14.34a22.82,22.82,0,0,0,5.15,5.06c-9.76-6.44-17.66-5.75-18.2-5.69A7.29,7.29,0,0,0,270,164.8c-2.41,1.9-3.42,5.51-3.84,8.51a22,22,0,0,0,.63,2.4,21,21,0,0,0-5.23-4.06c-11.17-2.63-19,5.91-15.75,6.6,3.63.79,20.08,0,20.08,0s10.16,1.38,15.72,0a166.45,166.45,0,0,0,41.12.61,60.18,60.18,0,0,0,19.84.2s6.33.17,11.92-.09A121.72,121.72,0,0,1,339.78,177.74Z"/><polygon id="_Path_7" data-name="&lt;Path&gt;" class="cls-9" points="358.36 178.71 358.36 178.71 358.36 178.71 358.36 178.71"/></g><path id="_Path_8" data-name="&lt;Path&gt;" class="cls-7" d="M342.61,174.13s-3.87-13.95-20.08-8.84c0,0,3.44-11.67-9.78-14.81,3.2,1.64,10.16,6.37,8.22,15.67,0,0,15-5.7,20.39,9.2,0,0,12.79-7.24,19.87,2.91C366.07,177.08,353.28,168.48,342.61,174.13Z"/></g><g id="_Group_5" data-name="&lt;Group&gt;" class="cls-3"><path id="_Path_9" data-name="&lt;Path&gt;" class="cls-4" d="M686,205.78s-7-25.39-36.55-16.09c0,0,8.77-29.73-34.28-28.33-46.53,1.51-31.35,27.48-31.35,27.48s-21.58-6.65-29.95,0c-4.39,3.47-6.24,10.05-7,15.52-24.61-12.2-43.65,7.55-37,9s36.55,0,36.55,0,18.5,2.5,28.63,0c0,0,36.11,5.8,74.87,1.11,0,0,18.06,3.62,36.11.36,0,0,25.1.67,33.91-1.47S705.4,195.48,686,205.78Z"/><g id="_Group_6" data-name="&lt;Group&gt;"><path id="_Path_10" data-name="&lt;Path&gt;" class="cls-10" d="M680.81,212.34c-12.71,5.36-40.22-8.71-40.22-8.71a19.35,19.35,0,0,1-6.48,3.22,27.61,27.61,0,0,1-21-2.34c-46.18-25.87-.64-42.94-.4-43.06-37.66,2-31.84,21-29.56,26.1a41.56,41.56,0,0,0,9.37,9.21c-17.76-11.72-32.16-10.46-33.13-10.36a13.28,13.28,0,0,0-5.56,2.38c-4.39,3.47-6.23,10-7,15.49a40,40,0,0,0,1.14,4.38,38.21,38.21,0,0,0-9.52-7.39c-20.34-4.78-34.51,10.76-28.67,12,6.61,1.43,36.55,0,36.55,0s18.5,2.5,28.63,0c0,0,36.11,5.8,74.87,1.11,0,0,18.06,3.62,36.11.36,0,0,11.53.31,21.7-.16C696.45,214.65,680.81,212.34,680.81,212.34Z"/><polygon id="_Path_11" data-name="&lt;Path&gt;" class="cls-11" points="714.65 214.11 714.65 214.11 714.65 214.11 714.65 214.11"/></g><path id="_Path_12" data-name="&lt;Path&gt;" class="cls-7" d="M686,205.78s-7-25.39-36.55-16.09c0,0,6.27-21.25-17.8-27,5.82,3,18.49,11.6,15,28.53,0,0,27.3-10.38,37.12,16.75,0,0,23.28-13.17,36.18,5.3C728.69,211.14,705.4,195.48,686,205.78Z"/></g><path id="_Path_13" data-name="&lt;Path&gt;" class="cls-12" d="M1053.84,215.09s-249.08-46-345.7-28.12c0,0,157.82-6.16,335,34.51Z"/><path id="_Compound_Path_" data-name="&lt;Compound Path&gt;" class="cls-12" d="M835.27,72.22c-95.42,6.18-153.84,4.58-217.65-.44,94.87,2.29,199.4-2,217.65-6.6,25.77-6.53,168.63-.08,168.63-.08L1016.71,62S904,53.14,819.9,65.1,510,62,510,62h0c-10.59-1-21.65-2-33.28-3C331.75,46.53,0,97.95,0,97.95l29,34.88S358.59,81.25,430,81.5s248.56,23.66,375.3,10.77S1096.16,108,1096.16,108L1123,77.51S992,62.06,835.27,72.22Zm-577.09,6.1c-5.71,4.4-24.48,9.1-49.91,9.74,0,0-25.46-.73-18.16-6.15S263.89,73.91,258.18,78.32Zm10,7c-16.65-6.82,20.65-19.19,100.1-16.25S304.26,100.12,268.15,85.33Zm420,3.12c-84-.77-259.84-14.3-207.21-12.68C586.12,79,780.09,89.3,688.12,88.46Zm29.06-6.38s44.14-4.42,54.82,0S705.36,85.51,717.17,82.07Z"/><path id="_Compound_Path_2" data-name="&lt;Compound Path&gt;" class="cls-12" d="M1069.72,271.73c-7.15,2.12-318.15-17.33-365.79-28.21s-138.1,8.4-238.13,16.1-415.3,1.5-415.3,1.5l20.4,11.32S369.36,312,521.81,276.32s569,13.79,569,13.79S1076.87,269.6,1069.72,271.73Zm-825,3.31c-4.2-1.11-1.81-3.35,3.58-3.37,38.1-.16,137.57-.51,162.33.07C454.55,272.75,339.83,300.24,244.74,275Zm482-20.28s51.5-.35,56.93,6.37S690.19,258.29,726.78,254.75Z"/><path id="_Compound_Path_3" data-name="&lt;Compound Path&gt;" class="cls-12" d="M584.81,347.68S729.88,316.21,783,338.91s157-2.47,157-2.47l7.1-7.19s-109.79,3.93-144.63-1-66.34-17.14-82.93-10.23S594.66,337.34,592.16,336,584.81,347.68,584.81,347.68ZM821.68,336c8.62-.37,43.26-.14,56.53,0,1.88,0,2.71,1.44,1.25,2.14C846.35,354.11,806.39,336.64,821.68,336Zm-129.92-6.74c1.89-4.27,19.82-4,19.82-4C724.33,327.45,689.87,333.52,691.77,329.25Z"/><g id="_Group_7" data-name="&lt;Group&gt;" class="cls-13"><path id="_Compound_Path_4" data-name="&lt;Compound Path&gt;" class="cls-14" d="M881.17,147.25c64,2.48,167,2.48,167,2.48l-6.32-8.54c-39.07,10.85-148.9,2.42-199.53-2.27-4.13-1-8-2-11.67-3-71.49-19.48-174.35-4.12-220.16,8.79C552.1,147,476,143.58,419.81,140l-28.08-4.11C249.47,115.11,82,181.32,78.77,181.32v13.11c-24.11-1-44.56-2.23-57.63-3.09-9.39-.62-15-1-15.38-1,0,0,46.17,18.69,79.44,16.26,30.41,2,69.65.95,117.94-7.22,101.75-17.2,143.1-11.77,156.9-8.27-13-3.65-48.7-10.3-116.36-.78-36.78,5.18-83.72,6-126.19,5.23,61.56-20,181.25-53.66,244.71-36,87.84,24.5,204,19.07,305.7,0s438.86,46.27,438.86,46.27V181.32S972.15,164.92,881.17,147.25ZM207.3,159.62c-1.6-2.49,18.31-19.42,47.23-14.9S212.82,168.2,207.3,159.62ZM305.68,147c-16.93,5.39-35.49,3.27-20.84-2.25C288,143.55,322.61,141.58,305.68,147ZM384.31,149s68.51,5,72.37,10.76S348.88,152.73,384.31,149ZM599,148.15c-25.88,9.06-47,9.75-103.27,2.62A891.12,891.12,0,0,0,599.44,148Zm68.43.9c-25.92,1,74.23-16.49,94.7-7.69S721.42,147,667.46,149.05Z"/><path id="_Path_14" data-name="&lt;Path&gt;" class="cls-14" d="M359.6,191.12a46.75,46.75,0,0,1,5.88,2A28.62,28.62,0,0,0,359.6,191.12Z"/></g><path class="cls-15" d="M271,123.79l-1.34.24-.3-1.09a.48.48,0,0,0-.56-.29.39.39,0,0,0-.36.46l.3,1.09-1.34.24a.39.39,0,0,0-.36.46.48.48,0,0,0,.56.29l1.34-.24.3,1.09a.48.48,0,0,0,.56.29.49.49,0,0,0,.27-.14.33.33,0,0,0,.09-.32l-.3-1.09,1.34-.24a.49.49,0,0,0,.27-.14.33.33,0,0,0,.09-.32A.48.48,0,0,0,271,123.79Z"/><path class="cls-15" d="M201.84,52.77l-.89.36-.44-.73a.38.38,0,0,0-.46-.13.26.26,0,0,0-.16.37l.44.73-.89.36a.26.26,0,0,0-.16.37.38.38,0,0,0,.46.13l.89-.36.44.73a.38.38,0,0,0,.46.13.31.31,0,0,0,.16-.14.23.23,0,0,0,0-.24l-.44-.73.89-.36a.31.31,0,0,0,.16-.14.23.23,0,0,0,0-.24A.38.38,0,0,0,201.84,52.77Z"/><ellipse class="cls-16" cx="57.77" cy="162.74" rx="2.5" ry="2"/><ellipse class="cls-16" cx="274.77" cy="241.74" rx="2.5" ry="2"/><ellipse class="cls-16" cx="411.77" cy="147.74" rx="1.5" ry="1"/><ellipse class="cls-16" cx="214.77" cy="337.74" rx="1.5" ry="1"/><path class="cls-15" d="M556.09,271.27l-1.34.24-.3-1.09a.48.48,0,0,0-.56-.29.39.39,0,0,0-.36.46l.3,1.09-1.34.24a.39.39,0,0,0-.36.46.48.48,0,0,0,.56.29l1.34-.24.3,1.09a.48.48,0,0,0,.56.29.49.49,0,0,0,.27-.14.33.33,0,0,0,.09-.32l-.3-1.09,1.34-.24a.49.49,0,0,0,.27-.14.33.33,0,0,0,.09-.32A.48.48,0,0,0,556.09,271.27Z"/><path class="cls-15" d="M298.36,82.15l-1.6-.47.57-1.3a.46.46,0,0,0-.35-.61.63.63,0,0,0-.75.29l-.57,1.3-1.6-.47a.63.63,0,0,0-.75.29.46.46,0,0,0,.35.61l1.6.47-.57,1.3a.46.46,0,0,0,.35.61.71.71,0,0,0,.4,0,.54.54,0,0,0,.35-.29l.57-1.3L298,83a.71.71,0,0,0,.4,0,.54.54,0,0,0,.35-.29A.46.46,0,0,0,298.36,82.15Z"/><path class="cls-15" d="M119.82,209.76l-.89.36-.44-.73a.38.38,0,0,0-.46-.13.26.26,0,0,0-.16.37l.44.73-.89.36a.26.26,0,0,0-.16.37.38.38,0,0,0,.46.13l.89-.36.44.73a.38.38,0,0,0,.46.13.31.31,0,0,0,.16-.14.23.23,0,0,0,0-.24l-.44-.73.89-.36a.31.31,0,0,0,.16-.14.23.23,0,0,0,0-.24A.38.38,0,0,0,119.82,209.76Z"/><path class="cls-15" d="M199.88,241.47l-.89.36-.44-.73a.38.38,0,0,0-.46-.13.26.26,0,0,0-.16.37l.44.73-.89.36a.26.26,0,0,0-.16.37.38.38,0,0,0,.46.13l.89-.36.44.73a.38.38,0,0,0,.46.13.31.31,0,0,0,.16-.14.23.23,0,0,0,0-.24l-.44-.73.89-.36a.31.31,0,0,0,.16-.14.23.23,0,0,0,0-.24A.38.38,0,0,0,199.88,241.47Z"/><path class="cls-15" d="M238.94,160.6,238,161l-.44-.73a.38.38,0,0,0-.46-.13.26.26,0,0,0-.16.37l.44.73-.89.36a.26.26,0,0,0-.16.37.38.38,0,0,0,.46.13l.89-.36.44.73a.38.38,0,0,0,.46.13.31.31,0,0,0,.16-.14.23.23,0,0,0,0-.24l-.44-.73.89-.36a.31.31,0,0,0,.16-.14.23.23,0,0,0,0-.24A.38.38,0,0,0,238.94,160.6Z"/><path class="cls-15" d="M857.08,143.23l1.12-.78.72.87a.48.48,0,0,0,.63,0,.39.39,0,0,0,.14-.57l-.72-.87,1.12-.78a.39.39,0,0,0,.14-.57.48.48,0,0,0-.63,0l-1.12.78-.72-.87a.48.48,0,0,0-.63,0,.49.49,0,0,0-.19.24.33.33,0,0,0,.05.33l.72.87-1.12.78a.49.49,0,0,0-.19.24.33.33,0,0,0,.05.33A.48.48,0,0,0,857.08,143.23Z"/><path class="cls-15" d="M949.38,179.39l.67-.7.7.48a.38.38,0,0,0,.47-.07.26.26,0,0,0,0-.4l-.7-.48.67-.7a.26.26,0,0,0,0-.4.38.38,0,0,0-.47.07l-.67.7-.7-.48a.38.38,0,0,0-.47.07.31.31,0,0,0-.09.19.23.23,0,0,0,.1.21l.7.48-.67.7a.31.31,0,0,0-.09.19.23.23,0,0,0,.1.21A.38.38,0,0,0,949.38,179.39Z"/><path class="cls-16" d="M1032.42,21.46a2.84,2.84,0,0,1,1.48-3.4,2.22,2.22,0,0,1,3.21,1,2.84,2.84,0,0,1-1.48,3.4A2.22,2.22,0,0,1,1032.42,21.46Z"/><path class="cls-16" d="M802.42,38.46a2.84,2.84,0,0,1,1.48-3.4,2.22,2.22,0,0,1,3.21,1,2.84,2.84,0,0,1-1.48,3.4A2.22,2.22,0,0,1,802.42,38.46Z"/><path class="cls-16" d="M717.36,180.23c-.29-.48.11-1.09.89-1.36a1.68,1.68,0,0,1,1.93.39c.29.48-.11,1.09-.89,1.36A1.68,1.68,0,0,1,717.36,180.23Z"/><path class="cls-15" d="M536.53,126.55l1.12-.78.72.87a.48.48,0,0,0,.63,0,.39.39,0,0,0,.14-.57l-.72-.87,1.12-.78a.39.39,0,0,0,.14-.57.48.48,0,0,0-.63,0l-1.12.78-.72-.87a.48.48,0,0,0-.63,0,.49.49,0,0,0-.19.24.33.33,0,0,0,.05.33l.72.87L536,126a.49.49,0,0,0-.19.24.33.33,0,0,0,.05.33A.48.48,0,0,0,536.53,126.55Z"/><path class="cls-15" d="M849.33,192.46l2.43-.23v1.42s-.51.45-.2.41.2-.57.2-.57v-1.42l2-.23a.63.63,0,0,0,.56-.57.46.46,0,0,0-.57-.41l-1,.23v-1.42a4,4,0,0,0-1.24-.41.71.71,0,0,0-.36.16c-.12.11-.4.4-.4.4v1.42l-1.44.23a.71.71,0,0,0-.36.16.54.54,0,0,0-.2.4A.46.46,0,0,0,849.33,192.46Z"/><path class="cls-15" d="M712,213.81l.67-.7.7.48a.38.38,0,0,0,.47-.07.26.26,0,0,0,0-.4l-.7-.48.67-.7a.26.26,0,0,0,0-.4.38.38,0,0,0-.47.07l-.67.7-.7-.48a.38.38,0,0,0-.47.07.31.31,0,0,0-.09.19.23.23,0,0,0,.1.21l.7.48-.67.7a.31.31,0,0,0-.09.19.23.23,0,0,0,.1.21A.38.38,0,0,0,712,213.81Z"/><path class="cls-15" d="M959.3,2.55l.67-.7.7.48a.38.38,0,0,0,.47-.07.26.26,0,0,0,0-.4l-.7-.48.67-.7a.26.26,0,0,0,0-.4.38.38,0,0,0-.47.07l-.67.7-.7-.48a.38.38,0,0,0-.47.07.31.31,0,0,0-.09.19.23.23,0,0,0,.1.21l.7.48-.67.7a.31.31,0,0,0-.09.19.23.23,0,0,0,.1.21A.38.38,0,0,0,959.3,2.55Z"/><path class="cls-15" d="M873.29,6.7,874,6l.7.48a.38.38,0,0,0,.47-.07.26.26,0,0,0,0-.4l-.7-.48.67-.7a.26.26,0,0,0,0-.4.38.38,0,0,0-.47.07l-.67.7-.7-.48a.38.38,0,0,0-.47.07.31.31,0,0,0-.09.19.23.23,0,0,0,.1.21l.7.48-.67.7a.31.31,0,0,0-.09.19.23.23,0,0,0,.1.21A.38.38,0,0,0,873.29,6.7Z"/><path class="cls-15" d="M871.09,96.48l.67-.7.7.48a.38.38,0,0,0,.47-.07.26.26,0,0,0,0-.4l-.7-.48.67-.7a.26.26,0,0,0,0-.4.38.38,0,0,0-.47.07l-.67.7-.7-.48a.38.38,0,0,0-.47.07.31.31,0,0,0-.09.19.23.23,0,0,0,.1.21l.7.48-.67.7a.31.31,0,0,0-.09.19.23.23,0,0,0,.1.21A.38.38,0,0,0,871.09,96.48Z"/><path class="cls-17" d="M1066.58,85.8a2.44,2.44,0,0,1,1.55-3.06,2.5,2.5,0,0,1,3.36.87,2.44,2.44,0,0,1-1.55,3.06A2.5,2.5,0,0,1,1066.58,85.8Z"/><path class="cls-18" d="M992.15,67.09l.68-.7.71.48a.39.39,0,0,0,.48-.07.25.25,0,0,0,0-.4l-.71-.48.68-.69a.26.26,0,0,0,0-.4.39.39,0,0,0-.48.07l-.68.7-.71-.48a.39.39,0,0,0-.48.07.31.31,0,0,0-.09.19.23.23,0,0,0,.1.21l.71.48-.68.69a.31.31,0,0,0-.09.19.23.23,0,0,0,.1.21A.39.39,0,0,0,992.15,67.09Z"/><path class="cls-18" d="M905,71.24l.68-.7.71.48a.39.39,0,0,0,.48-.07.25.25,0,0,0,0-.4l-.71-.48.68-.69a.26.26,0,0,0,0-.4.39.39,0,0,0-.48.07l-.68.7-.71-.48a.39.39,0,0,0-.48.07.31.31,0,0,0-.09.19.23.23,0,0,0,.1.21l.71.48-.68.69a.31.31,0,0,0-.09.19.23.23,0,0,0,.1.21A.39.39,0,0,0,905,71.24Z"/><g class="cls-3"><path id="_Path_15" data-name="&lt;Path&gt;" class="cls-4" d="M512.06,109.92s1.07-29.11-25.84-20.63c0,0,.5-21.16-38.76-19.89C405,70.78,418.88,94.46,418.88,94.46s-19.68-6.07-27.31,0c-4,3.17-5.69,9.17-6.38,14.15-22.45-11.12-39.81,6.88-33.78,8.19s33.34,0,33.34,0,16.87,2.28,26.11,0c0,0,32.93,5.29,68.28,1,0,0,16.47,3.3,32.93.33,0,0,22.89.62,30.93-1.34S529.78,100.52,512.06,109.92Z"/><g id="_Group_8" data-name="&lt;Group&gt;"><path id="_Path_16" data-name="&lt;Path&gt;" class="cls-19" d="M507.36,115.9c-11.59,4.89-36.68-7.94-36.68-7.94a17.65,17.65,0,0,1-5.91,2.94,25.18,25.18,0,0,1-19.14-2.13c-42.12-23.59-.59-39.16-.36-39.27-34.34,1.83-29,19.13-27,23.8a37.9,37.9,0,0,0,8.55,8.4c-16.2-10.69-29.33-9.54-30.22-9.45a12.11,12.11,0,0,0-5.07,2.17c-4,3.16-5.68,9.14-6.38,14.12a36.5,36.5,0,0,0,1,4,34.85,34.85,0,0,0-8.68-6.74c-18.55-4.36-31.47,9.81-26.15,11,6,1.3,33.34,0,33.34,0s16.87,2.28,26.11,0c0,0,32.93,5.29,68.28,1,0,0,16.47,3.3,32.93.33,0,0,10.51.28,19.79-.14C521.62,118,507.36,115.9,507.36,115.9Z"/><polygon id="_Path_17" data-name="&lt;Path&gt;" class="cls-20" points="538.22 117.51 538.22 117.51 538.22 117.51 538.22 117.51"/></g><path id="_Path_18" data-name="&lt;Path&gt;" class="cls-7" d="M512.06,109.92s1.07-27.52-25.84-19c0,0-1.78-15-23.74-20.23,5.31,2.73,25,4.8,21.78,20.23,0,0,16.76-3.69,25.72,21.05,0,0,21.23-12,33,4.84C551,114.81,529.78,100.52,512.06,109.92Z"/></g><g id="_Group_9" data-name="&lt;Group&gt;" class="cls-3"><path id="_Path_19" data-name="&lt;Path&gt;" class="cls-4" d="M945.44,128.58S941,112.7,922.59,118.51c0,0,5.49-18.59-21.43-17.71-29.09.94-19.6,17.18-19.6,17.18s-13.49-4.16-18.72,0c-2.75,2.17-3.9,6.28-4.37,9.7-15.39-7.63-27.29,4.72-23.16,5.61s22.85,0,22.85,0,11.57,1.57,17.9,0a189.48,189.48,0,0,0,46.81.7,68.51,68.51,0,0,0,22.58.22s15.7.42,21.2-.92S957.59,122.14,945.44,128.58Z"/><g id="_Group_10" data-name="&lt;Group&gt;"><path id="_Path_20" data-name="&lt;Path&gt;" class="cls-21" d="M942.22,132.68c-7.95,3.35-25.15-5.45-25.15-5.45a12.1,12.1,0,0,1-4,2,17.26,17.26,0,0,1-13.12-1.46c-28.87-16.17-.4-26.85-.25-26.92-23.54,1.25-19.91,13.12-18.48,16.32a26,26,0,0,0,5.86,5.76c-11.11-7.33-20.11-6.54-20.72-6.48a8.3,8.3,0,0,0-3.47,1.49c-2.74,2.17-3.9,6.27-4.37,9.68a25,25,0,0,0,.71,2.74,23.89,23.89,0,0,0-6-4.62c-12.72-3-21.57,6.73-17.93,7.52,4.13.89,22.85,0,22.85,0s11.57,1.57,17.9,0a189.47,189.47,0,0,0,46.81.7,68.51,68.51,0,0,0,22.58.22s7.21.19,13.57-.1A138.56,138.56,0,0,1,942.22,132.68Z"/><polygon id="_Path_21" data-name="&lt;Path&gt;" class="cls-22" points="963.38 133.78 963.38 133.78 963.38 133.78 963.38 133.78"/></g><path id="_Path_22" data-name="&lt;Path&gt;" class="cls-7" d="M945.44,128.58S941,112.7,922.59,118.51c0,0,3.92-13.28-11.13-16.86,3.64,1.87,11.56,7.25,9.36,17.83,0,0,17.07-6.49,23.21,10.47,0,0,14.56-8.24,22.62,3.32C972.15,131.93,957.59,122.14,945.44,128.58Z"/></g><g class="cls-3"><path id="_Path_23" data-name="&lt;Path&gt;" class="cls-4" d="M207.34,119.93s1.07-29.11-25.84-20.63c0,0,.5-21.16-38.76-19.89-42.44,1.38-28.59,25.06-28.59,25.06s-19.68-6.07-27.31,0c-4,3.17-5.69,9.17-6.38,14.15-22.45-11.12-39.81,6.88-33.78,8.19s33.34,0,33.34,0,16.87,2.28,26.11,0c0,0,32.93,5.29,68.28,1,0,0,16.47,3.3,32.93.33,0,0,22.89.62,30.93-1.34S225.05,110.54,207.34,119.93Z"/><g id="_Group_11" data-name="&lt;Group&gt;"><path id="_Path_24" data-name="&lt;Path&gt;" class="cls-23" d="M202.63,125.91C191,130.8,165.95,118,165.95,118a17.65,17.65,0,0,1-5.91,2.94,25.18,25.18,0,0,1-19.14-2.13c-42.12-23.59-.59-39.16-.36-39.27-34.34,1.83-29,19.13-27,23.8a37.9,37.9,0,0,0,8.55,8.4c-16.2-10.69-29.33-9.54-30.22-9.45a12.11,12.11,0,0,0-5.07,2.17c-4,3.16-5.68,9.14-6.38,14.12a36.5,36.5,0,0,0,1,4,34.85,34.85,0,0,0-8.68-6.74c-18.55-4.36-31.47,9.81-26.15,11,6,1.3,33.34,0,33.34,0s16.87,2.28,26.11,0c0,0,32.93,5.29,68.28,1,0,0,16.47,3.3,32.93.33,0,0,10.51.28,19.79-.14C216.89,128,202.63,125.91,202.63,125.91Z"/><polygon id="_Path_25" data-name="&lt;Path&gt;" class="cls-24" points="233.49 127.53 233.49 127.53 233.49 127.53 233.49 127.53"/></g><path id="_Path_26" data-name="&lt;Path&gt;" class="cls-7" d="M207.34,119.93s1.07-27.52-25.84-19c0,0-1.78-15-23.74-20.23,5.31,2.73,25,4.8,21.78,20.23,0,0,16.76-3.69,25.72,21.05,0,0,21.23-12,33,4.84C246.29,124.82,225.05,110.54,207.34,119.93Z"/></g><g id="_Group_12" data-name="&lt;Group&gt;" class="cls-3"><path id="_Path_27" data-name="&lt;Path&gt;" class="cls-4" d="M191.63,261.63s-3.87-13.95-20.08-8.84c0,0,4.82-16.33-18.83-15.56-25.56.83-17.22,15.09-17.22,15.09s-11.85-3.65-16.45,0c-2.41,1.91-3.43,5.52-3.84,8.52-13.52-6.7-24,4.15-20.35,4.93s20.08,0,20.08,0,10.16,1.38,15.72,0a166.45,166.45,0,0,0,41.12.61,60.18,60.18,0,0,0,19.84.2s13.79.37,18.63-.81S202.3,256,191.63,261.63Z"/><g id="_Group_13" data-name="&lt;Group&gt;"><path id="_Path_28" data-name="&lt;Path&gt;" class="cls-25" d="M188.79,265.23c-7,2.94-22.09-4.78-22.09-4.78a10.63,10.63,0,0,1-3.56,1.77,15.17,15.17,0,0,1-11.53-1.28c-25.36-14.21-.35-23.58-.22-23.65-20.68,1.1-17.49,11.52-16.24,14.34a22.82,22.82,0,0,0,5.15,5.06c-9.76-6.44-17.66-5.75-18.2-5.69a7.29,7.29,0,0,0-3.05,1.31c-2.41,1.9-3.42,5.51-3.84,8.51a22,22,0,0,0,.63,2.4,21,21,0,0,0-5.23-4.06c-11.17-2.63-19,5.91-15.75,6.6,3.63.79,20.08,0,20.08,0s10.16,1.38,15.72,0a166.45,166.45,0,0,0,41.12.61,60.18,60.18,0,0,0,19.84.2s6.33.17,11.92-.09A121.72,121.72,0,0,1,188.79,265.23Z"/><polygon id="_Path_29" data-name="&lt;Path&gt;" class="cls-26" points="207.38 266.2 207.38 266.2 207.38 266.2 207.38 266.2"/></g><path id="_Path_30" data-name="&lt;Path&gt;" class="cls-7" d="M191.63,261.63s-3.87-13.95-20.08-8.84c0,0,3.44-11.67-9.78-14.81,3.2,1.64,10.16,6.37,8.22,15.67,0,0,15-5.7,20.39,9.2,0,0,12.79-7.24,19.87,2.91C215.09,264.58,202.3,256,191.63,261.63Z"/></g></g></g></g></svg>