<svg xmlns="http://www.w3.org/2000/svg" width="46.09" height="39.56" viewBox="0 0 46.09 39.56"><defs><style>.cls-1{fill:#026661;}.cls-2{fill:#04a098;}.cls-3{fill:#00b7b2;}.cls-4{fill:#061b28;opacity:0.14;}.cls-5{fill:#fff;}</style></defs><title>gameplaysettings</title><g id="Layer_2" data-name="Layer 2"><g id="Layer_1-2" data-name="Layer 1"><polygon class="cls-1" points="46.09 36.05 45.59 36.79 43.71 39.56 22.54 38.73 19.79 38.62 16.08 38.48 1.02 37.88 0 9.67 0.29 8.73 2.57 1.34 21.67 4.55 24.11 4.96 41.67 7.92 44.29 11.79 44.88 12.66 46.09 36.05"/><polygon class="cls-2" points="45.42 33.52 43.09 36.91 22.48 36.12 17.28 35.92 1.26 35.31 0.29 8.73 0.26 8.05 2.78 0 21.64 3.12 24.07 3.53 41.1 6.35 44.24 10.93 44.29 11.79 45.42 33.52"/><polygon class="cls-3" points="2.37 32.69 1.5 8.88 3.42 2.77 40.74 8.95 43.11 12.4 44.14 32.14 42.69 34.24 2.37 32.69"/><polygon class="cls-4" points="46.09 36.05 45.59 36.79 19.79 38.62 15.88 38.9 16.08 38.48 17.28 35.92 18.5 33.31 24.5 20.52 24.07 3.53 41.1 6.35 44.24 10.93 44.29 11.79 44.88 12.66 46.09 36.05"/><path class="cls-5" d="M33.09,18H27.48l3.86-3.86-3.26-3.26L24.36,14.6V9.34H19.75v5.35L16,10.9l-3.31,3.31L16.44,18H11.09v4.68h5.35l-3.78,3.78L16,29.77,19.75,26v5.35h4.68V26l3.78,3.78,3.31-3.31-3.78-3.78h5.35Zm-8.27,5.07a3.86,3.86,0,1,1,0-5.46A3.86,3.86,0,0,1,24.82,23.07Z"/></g></g></svg>