<svg id="Layer_1" data-name="Layer 1" xmlns="http://www.w3.org/2000/svg" viewBox="0 0 118.39 48.15"><defs><style>.cls-1{fill:#0d7a08;}.cls-2{fill:#10b208;}.cls-3{fill:#17c10e;}.cls-4{fill:#076302;opacity:0.14;}.cls-5{fill:#eaeaea;}</style></defs><title>hguest</title><polygon class="cls-1" points="118.39 44.06 117.03 44.93 111.95 48.15 56.83 46.53 49.66 46.32 40.01 46.03 0.81 44.88 0 11.38 0.81 10.28 7.25 1.58 56.83 5.97 63.14 6.53 108.73 10.57 115.3 15.22 116.78 16.28 118.39 44.06"/><polygon class="cls-2" points="116.82 41.04 110.5 44.99 56.83 43.44 43.3 43.04 1.58 41.83 0.81 10.28 0.79 9.47 7.89 0 56.83 4.27 63.14 4.82 107.34 8.68 115.24 14.21 115.3 15.22 116.82 41.04"/><polygon class="cls-3" points="4.66 38.76 3.97 10.49 9.37 3.3 106.23 11.75 112.17 15.92 113.55 39.36 109.64 41.81 4.66 38.76"/><polygon class="cls-4" points="118.39 44.06 117.03 44.93 49.66 46.32 39.47 46.53 40.01 46.03 43.3 43.04 46.66 39.98 63.14 25 63.14 4.82 107.34 8.68 115.24 14.21 115.3 15.22 116.78 16.28 118.39 44.06"/><path class="cls-5" d="M289.94,394.65a2,2,0,0,0-.95-1.05,3.17,3.17,0,0,0-1.46-.33,4.4,4.4,0,0,0-1.64.34,5.36,5.36,0,0,0-1.56,1,5.06,5.06,0,0,0-1.16,1.51,4.38,4.38,0,0,0-.46,2,3.28,3.28,0,0,0,.33,1.67,2.15,2.15,0,0,0,.9.91,2.35,2.35,0,0,0,1.2.25,3.57,3.57,0,0,0,1.3-.32,4.34,4.34,0,0,0,1.16-.77,3.07,3.07,0,0,0,.78-1.1l-3,.58.34-3.43,9.29-1.17a7.1,7.1,0,0,1-.12,2.65,11,11,0,0,1-.85,2.4,16.08,16.08,0,0,1-1.14,2,14.8,14.8,0,0,1-1,1.31l-.44.49a7.61,7.61,0,0,1-1.86,1.34,10.05,10.05,0,0,1-2.36.87,10.23,10.23,0,0,1-2.6.27,8.09,8.09,0,0,1-2.56-.47,7.07,7.07,0,0,1-2.25-1.33,6.56,6.56,0,0,1-1.67-2.32,9.17,9.17,0,0,1-.83-3.19,9.91,9.91,0,0,1,1.42-5.87,11.26,11.26,0,0,1,1.92-2.38,11.78,11.78,0,0,1,2.5-1.8,10.75,10.75,0,0,1,2.92-1.07l.46-.05a7.22,7.22,0,0,1,1.2,0,8.57,8.57,0,0,1,1.77.31,10,10,0,0,1,2.13.9,10.49,10.49,0,0,1,2.28,1.74Z" transform="translate(-247.61 -372.33)"/><path class="cls-5" d="M302.52,403.35h0a2.93,2.93,0,0,1-1.33,1.66,4.39,4.39,0,0,1-2.12.49,3.59,3.59,0,0,1-2.59-.95,3.65,3.65,0,0,1-1-2.76v-9l4.75-.38-.13,7.89a.9.9,0,0,0,.22.74,1.1,1.1,0,0,0,.76.22,1.07,1.07,0,0,0,.69-.21.83.83,0,0,0,.25-.72l-.13-7.52,4.9-.38-.32,12.68-3.92.17Z" transform="translate(-247.61 -372.33)"/><path class="cls-5" d="M319.54,403.64a9.1,9.1,0,0,1-2.66,1.35,10.75,10.75,0,0,1-3.13.42,6.86,6.86,0,0,1-2.65-.5,6.52,6.52,0,0,1-2.08-1.35,6.13,6.13,0,0,1-1.36-2,6,6,0,0,1-.49-2.42,7.53,7.53,0,0,1,.51-2.86,6.36,6.36,0,0,1,1.38-2.13,5.93,5.93,0,0,1,2-1.33,6.72,6.72,0,0,1,2.48-.46,6.33,6.33,0,0,1,3.7,1.09,6.56,6.56,0,0,1,2.33,2.9l-6.37,4.79a1.67,1.67,0,0,0,.62.17,6.2,6.2,0,0,0,.7,0,3.53,3.53,0,0,0,1.65-.35,6.12,6.12,0,0,0,1.22-.84Zm-4.56-7a1.55,1.55,0,0,0-.65-.49,2.34,2.34,0,0,0-.8-.13,1.68,1.68,0,0,0-.78.18,1.94,1.94,0,0,0-.61.49,2.34,2.34,0,0,0-.53,1.48,1.94,1.94,0,0,0,.05.54,2.63,2.63,0,0,0,.14.33Z" transform="translate(-247.61 -372.33)"/><path class="cls-5" d="M321,401.28a7.06,7.06,0,0,0,1.27.11h.63a3.68,3.68,0,0,0,.6-.06,1.17,1.17,0,0,0,.45-.18.44.44,0,0,0,.18-.38.51.51,0,0,0-.33-.48A6,6,0,0,0,323,400l-1.05-.35a3.45,3.45,0,0,1-1.05-.6,3.18,3.18,0,0,1-.81-1.05,3.86,3.86,0,0,1-.33-1.73,3.66,3.66,0,0,1,.28-1.39,3.36,3.36,0,0,1,.9-1.24,4.65,4.65,0,0,1,1.6-.9,7.26,7.26,0,0,1,2.37-.34q.53,0,1.07,0c.35,0,.69.07,1,.12l.88.15.68.14v3.75q-.53-.13-1-.21a6.78,6.78,0,0,0-1.11-.08H326a3.82,3.82,0,0,0-.55.06,1.5,1.5,0,0,0-.49.18.39.39,0,0,0-.21.34.55.55,0,0,0,.34.51,5.22,5.22,0,0,0,.84.32q.5.15,1.1.36a3.86,3.86,0,0,1,1.1.61,3.16,3.16,0,0,1,.84,1.05,3.78,3.78,0,0,1,.34,1.73,3.44,3.44,0,0,1-.5,1.92,3.71,3.71,0,0,1-1.32,1.23,6,6,0,0,1-1.89.65,12.49,12.49,0,0,1-2.22.19,14.28,14.28,0,0,1-1.76-.11,12.73,12.73,0,0,1-1.74-.34v-4A10.9,10.9,0,0,0,321,401.28Z" transform="translate(-247.61 -372.33)"/><path class="cls-5" d="M335.45,405.42h-.67a4.92,4.92,0,0,1-3.19-.93,3.67,3.67,0,0,1-1.14-3v-5.05l-1.17,0,.13-3.69h1v-1.41l4.62-2.09v3.5l1.73-.26-.23,3.92h-1.45v3.73a1.39,1.39,0,0,0,.18.85,1.1,1.1,0,0,0,.82.21l.45,0,.32-.06-.75,4.22Z" transform="translate(-247.61 -372.33)"/></svg>