<?xml version="1.0" encoding="utf-8"?>
<!-- Generator: Adobe Illustrator 21.0.1, SVG Export Plug-In . SVG Version: 6.00 Build 0)  -->
<svg version="1.1" id="Layer_1" xmlns="http://www.w3.org/2000/svg" xmlns:xlink="http://www.w3.org/1999/xlink" x="0px" y="0px" width="102.7" height="84.7" style="enable-background:new 0 0 102.7 84.7;" xml:space="preserve">
<style type="text/css">
	.st0{clip-path:url(#SVGID_2_);}
	.st1{fill:#492812;}
	.st2{fill:#86502A;}
	.st3{fill:#784418;}
	.st4{fill:#B87F50;}
	.st5{fill:#5D3B20;}
	.st6{opacity:0.41;}
	.st7{fill:#683F29;}
	.st8{fill:#5C2F0B;}
	.st9{fill:url(#SVGID_3_);}
	.st10{fill:url(#SVGID_4_);}
	.st11{fill:url(#SVGID_5_);}
	.st12{opacity:0.76;}
	.st13{fill:url(#SVGID_6_);}
	.st14{opacity:0.49;}
	.st15{fill:url(#SVGID_7_);}
	.st16{opacity:0.7;}
	.st17{fill:url(#SVGID_8_);}
	.st18{opacity:0.57;}
	.st19{fill:#5B280C;}
	.st20{fill:#5E260B;}
</style>
<title>lefttopwood</title>
<g id="Layer_2">
	<g id="Layer_1-2">
		<g>
			<defs>
				<rect id="SVGID_1_" x="-3.6" y="-9" width="106" height="99"/>
			</defs>
			<clipPath id="SVGID_2_">
				<use xlink:href="#SVGID_1_"  style="overflow:visible;"/>
			</clipPath>
			<g class="st0">
				<path class="st1" d="M56.4,84c11-6,25-17,32-21l142.5-2.5c0.2,0.1,0.5,46.5,0.5,46.5l19,30c25.1,1.7,48.8-2.3,60-10l11-22
					l-1.6-28.7L319.4,50l-0.7-6.4v-3c0,0,2.4-6.4,3.8-9.1l0.3-0.5l-0.2-0.5c-0.4-1-1.9-5.1-1.9-5.1l1-7.2l1-7.1L317.7,0h-61.3
					C228.1,0,4.6,0.6,4.6,0.6L1.9,15.1l1.3,5.3l1,4.7L3.4,26L0,38.2l2.4,9.5c0,0,0.7,1.2,1,1.3c0.2,0.5,2,20,2,20s11,12,16,15H56.4z
					"/>
				<path class="st2" d="M316.1,49.6l0.2,22l1.1,33.4l-11,19c-13.7,7.3-37.3,9.4-54,8l-20-30V56l-146,3l-31,20h-32L7.1,66.9
					l0.5-21.7l-4.1-1.3l-2.3-5.7l4.2-12.5L2.9,15L5.5,1.1h310.9l4.5,8.5l-2,13.9l2,5.2l-3.9,9.3L316.1,49.6z"/>
				<path class="st3" d="M4.6,38.6c0.2,1.1,0.6,2.2,1.2,3.2l0.5,0.1l4,1.8l0.9,5.8c0,0-0.2,15.7-0.2,16.2C13.2,68.3,21.4,76,26.4,77
					c9.5,0.6,19-0.8,28-4c7.8-2.9,19.2-10.2,29.8-15.3l0.9-0.5L233.4,54l1,40c0,1,19,36,19,36l48-9l11-17l1-36l-0.2-19.6l0.6-7.5
					v-3.2c0,0,2.4-6.8,3.6-9.2c-0.3-0.8-0.8-2.2-1.2-3.3c-0.3-0.8-0.4-1.3-0.4-1.3l1-8.4l0.9-5.7l-3.4-6.6c0,0-37-1-64.2-1
					S7.6,3.2,7.6,3.2L6.3,7.3l-0.1,6.9v0.8l1.1,4l1.3,6.3l0.1,0.7l3,8.2C11.7,34.1,5.4,37.5,4.6,38.6z"/>
				<polygon class="st1" points="322.3,10.9 279.7,9.5 322.3,13.1 				"/>
				<polygon class="st1" points="4.6,26.1 227.6,24.9 4.4,24 				"/>
				<polygon class="st1" points="320.3,25.2 227.8,22.1 320.8,26.5 				"/>
				<polygon class="st1" points="318.7,40 294.6,38 250.8,36.3 295,39.4 318.8,43 				"/>
				<polygon class="st1" points="6.3,45.9 26.4,41.6 30.1,40.8 241.3,41.5 29.9,43.1 9.4,49 6.7,60.8 				"/>
				<polygon class="st1" points="26.6,39.5 29.9,36.3 25.3,39.5 25,43.2 26.6,42.8 				"/>
				<path class="st4" d="M313.7,10.6l7.1,0.2l0.2-1.3l-4.6-8.5h-52.6h-37.8H5.5L2.9,15l2.2,8.9l34.5,0.6L6.5,22.6
					c0,0-2.3-7.1-2.3-7.6S5.5,1.9,6.2,1.6s308.6,0.6,308.6,0.6c0.4,0,0.7,0.1,1,0.3c1.4,2.2,2.7,4.5,3.9,6.8
					C319.7,9.5,317.4,10.4,313.7,10.6z"/>
				<path class="st4" d="M316.4,12.6l4.1,0.3L319,23.5l0.6,1.8l-22.3-0.9c0,0,20,0.7,20.3-0.1s2-9.5,1.6-10.1S318.2,13.2,316.4,12.6
					z"/>
				<path class="st4" d="M301.3,25.6l18.9,0.9l0.8,2.2l-3.9,9.3l-0.2,2l-17.9-1.6c0,0,16.7,1.2,17,0.9s0-1.6,0.3-1.9s4.2-8.7,3.9-9
					c-0.4-0.5-1-0.9-1.6-1.1C317.7,27,301.3,25.6,301.3,25.6z"/>
				<path class="st4" d="M295.6,39.5l21.1,3.2l-0.6,7l0.2,22l1.1,33.3l-11,19c-13.6,7.3-37.1,9.4-54,8c22,2,41.7-4,52-10l11-18
					l0.3-33.4l-0.9-21.5l1.3-6L295.6,39.5z"/>
				<polygon class="st4" points="42.3,25.5 4.4,26 1.3,38.2 6.4,28 				"/>
				<polygon class="st4" points="3.6,43.9 7.4,46 25.4,42 25.3,39.5 29.9,36.3 25,39.5 24.4,41 7.8,44.7 				"/>
				<path class="st4" d="M30.4,43.4L5.8,48.9l1.3,14.8c0,0,2-13.7,2.3-13.7S30.4,43.4,30.4,43.4z"/>
				<polygon class="st4" points="232.4,56 86.4,59 55.4,79 23.4,79 55.4,77 86.4,57 				"/>
				<path class="st5" d="M306,17.2c-0.1,1,0.9,1.9,2.4,2s2.8-0.5,2.9-1.5s-0.9-1.9-2.4-2S306.1,16.2,306,17.2z"/>
				<g class="st6">
					<path class="st5" d="M292,44.5c-0.1,1,2.5,2,5.9,2.4s6.3-0.1,6.4-1.1s-2.5-2-5.9-2.4S292.2,43.5,292,44.5z"/>
				</g>
				<path class="st5" d="M303.1,19.5c-0.1,0.6,0.5,1.1,1.4,1.2s1.6-0.3,1.7-0.9s-0.5-1.1-1.4-1.2S303.2,19,303.1,19.5z"/>
				<path class="st7" d="M17.3,33.3c0.2,1.1,1.2,1.8,2.3,1.7c1,0,1.9-0.8,1.9-1.8c0,0,0-0.1,0-0.1c-0.2-1.1-1.2-1.8-2.3-1.7
					C18.2,31.3,17.4,32.1,17.3,33.3C17.3,33.2,17.3,33.2,17.3,33.3z"/>
				<path class="st5" d="M13.6,36.2c0,0.4,0.6,0.7,1.2,0.6s1.1-0.4,1-0.8s-0.6-0.7-1.2-0.6S13.6,35.9,13.6,36.2z"/>
				<path class="st5" d="M16.6,37.7c0,0.6,0.8,1,1.7,0.9s1.5-0.6,1.5-1.1s-0.8-1-1.7-0.9S16.5,37.1,16.6,37.7z"/>
				<path class="st8" d="M245.3,6.3C236.9,6,45.8,4.9,41.6,5.2S6.2,7.4,6.2,7.4l34.1-0.6L245.3,6.3z"/>
				
					<radialGradient id="SVGID_3_" cx="-3209.2561" cy="16.4533" r="90.24" gradientTransform="matrix(-0.94 0 0 -0.79 -2886.6101 18.48)" gradientUnits="userSpaceOnUse">
					<stop  offset="0" style="stop-color:#B87F50;stop-opacity:0.4"/>
					<stop  offset="0.11" style="stop-color:#C2946D;stop-opacity:0.31"/>
					<stop  offset="0.31" style="stop-color:#D0B49A;stop-opacity:0.17"/>
					<stop  offset="0.52" style="stop-color:#DBCBBB;stop-opacity:8.000000e-02"/>
					<stop  offset="0.74" style="stop-color:#E1D9CE;stop-opacity:2.000000e-02"/>
					<stop  offset="1" style="stop-color:#E3DDD4;stop-opacity:0"/>
				</radialGradient>
				<path class="st9" d="M6.2,7.3c0.2,0,31.2-1.9,35.4-2.2c3.1-0.2,183.7,0.3,194.4,0.7c3.8,0.1,7.1,0.3,9.4,0.4v0.1l-205,0.6
					L6.2,7.5L6.2,7.3z M235.9,6C225.8,5.6,43.7,3.4,40.6,3.6C37.3,3.8,12.8,6.8,8.1,7.2l32.2-0.5l202.1-0.5L235.9,6z"/>
				<path class="st8" d="M133.1,14.3c0,0-86.5-3.5-90.1-3.1S34.1,16,34.1,16l87.4-2.7L133.1,14.3z"/>
				
					<radialGradient id="SVGID_4_" cx="-5804.374" cy="206.8825" r="80.81" gradientTransform="matrix(-0.43 0 0 -1.28 -2422.1699 278.37)" gradientUnits="userSpaceOnUse">
					<stop  offset="0" style="stop-color:#B87F50;stop-opacity:0.4"/>
					<stop  offset="0.11" style="stop-color:#C2946D;stop-opacity:0.31"/>
					<stop  offset="0.31" style="stop-color:#D0B49A;stop-opacity:0.17"/>
					<stop  offset="0.52" style="stop-color:#DBCBBB;stop-opacity:8.000000e-02"/>
					<stop  offset="0.74" style="stop-color:#E1D9CE;stop-opacity:2.000000e-02"/>
					<stop  offset="1" style="stop-color:#E3DDD4;stop-opacity:0"/>
				</radialGradient>
				<path class="st10" d="M34.1,15.9c0,0,5.3-4.4,8.9-4.9s90,3.1,90.1,3.1v0.2l-11.6-0.9l-87.4,2.7L34.1,15.9z M132.2,14.1
					c-2.3-0.9-86.4-3.2-89.3-2.8s-7.1,3.5-8.4,4.5l87-2.5L132.2,14.1z"/>
				<path class="st8" d="M260.3,31.2c0,0-211.2-1.5-216.4-0.8s-14.9,4.1-14.9,4.1l13-1.9L260.3,31.2z"/>
				
					<radialGradient id="SVGID_5_" cx="-3229.3462" cy="120.5577" r="87.3" gradientTransform="matrix(-0.94 0 0 -1.07 -2886.6101 160.8)" gradientUnits="userSpaceOnUse">
					<stop  offset="0" style="stop-color:#B87F50;stop-opacity:0.3"/>
					<stop  offset="0.22" style="stop-color:#CAA687;stop-opacity:0.17"/>
					<stop  offset="0.46" style="stop-color:#D8C5B2;stop-opacity:8.000000e-02"/>
					<stop  offset="0.71" style="stop-color:#E0D7CC;stop-opacity:2.000000e-02"/>
					<stop  offset="1" style="stop-color:#E3DDD4;stop-opacity:0"/>
				</radialGradient>
				<path class="st11" d="M28.9,34.5c0.1,0,13.9-5.3,14.7-5.3c5.2,0,216.3,2,216.7,2v0.2L41.9,32.8l-13,1.9L28.9,34.5z M42.8,29.1
					c-1.5,0-10.2,4.3-12.8,5.2l11.9-1.7L257,31.2C246.7,30.9,47.2,29.1,42.8,29.1L42.8,29.1z"/>
				<g class="st12">
					<path class="st8" d="M246.6,47.7c0,0,43.8-1.1,49-0.5s14.9,13,14.9,13l-13-11.4L246.6,47.7z"/>
					
						<radialGradient id="SVGID_6_" cx="-3372.3762" cy="-43.8367" r="25.02" gradientTransform="matrix(-0.94 0 0 -0.79 -2886.6101 18.48)" gradientUnits="userSpaceOnUse">
						<stop  offset="0" style="stop-color:#B87F50;stop-opacity:0.3"/>
						<stop  offset="0.22" style="stop-color:#CAA687;stop-opacity:0.17"/>
						<stop  offset="0.46" style="stop-color:#D8C5B2;stop-opacity:8.000000e-02"/>
						<stop  offset="0.71" style="stop-color:#E0D7CC;stop-opacity:2.000000e-02"/>
						<stop  offset="1" style="stop-color:#E3DDD4;stop-opacity:0"/>
					</radialGradient>
					<path class="st13" d="M297.6,48.9l-51-1.1v-0.2c0.4,0,43.9-1.1,49-0.5s14.9,13,15,13v0.1L297.6,48.9z M249.9,47.7l47.7,1
						L309.5,60c-2.7-0.7-10.8-13.9-14.9-14.3c-1-0.1-2.4,0-5.8,0C277.8,45.7,257.7,47.5,249.9,47.7L249.9,47.7z"/>
				</g>
				<g class="st14">
					<path class="st8" d="M200,14.1c0,0,43.8-1.6,49-0.8c5.2,0.8,14.9,4.4,14.9,4.4l-13-2L200,14.1z"/>
					
						<radialGradient id="SVGID_7_" cx="-3322.6462" cy="175.6276" r="24.23" gradientTransform="matrix(-0.94 0 0 -1.16 -2886.6101 218.08)" gradientUnits="userSpaceOnUse">
						<stop  offset="0" style="stop-color:#B87F50;stop-opacity:0.3"/>
						<stop  offset="0.22" style="stop-color:#CAA687;stop-opacity:0.17"/>
						<stop  offset="0.46" style="stop-color:#D8C5B2;stop-opacity:8.000000e-02"/>
						<stop  offset="0.71" style="stop-color:#E0D7CC;stop-opacity:2.000000e-02"/>
						<stop  offset="1" style="stop-color:#E3DDD4;stop-opacity:0"/>
					</radialGradient>
					<path class="st15" d="M251,15.8l-51-1.6V14c0.4,0,43.9-1.6,49-0.8s14.9,4.4,15,4.4v0.2L251,15.8z M203.3,14.1l47.7,1.5
						l11.9,1.9c-2.7-1-10.8-5.7-14.9-6.4c-1-0.2-2.4,0-5.8,0C231.2,11.1,211.1,13.8,203.3,14.1L203.3,14.1z"/>
				</g>
				<g class="st16">
					<path class="st8" d="M17.4,20.5c0,0,6.8-0.8,7.6-2.3s2-7.4,1-8.4s-12.3-0.6-13.9,0.3s-3.4,3.1-3.6,3.9s2.2,3.7,2.2,3.7
						c-0.5-1-0.6-2.2-0.3-3.3c0.6-1.5,1.7-3,3.2-3.1s9.7-1.1,10.4-0.1c0,0,1.1,3.5-0.1,5.3s-7,3.2-7.6,2.3c-0.9-0.9-0.9-2.3,0-3.2
						c0,0,0,0,0,0c1.1-1.4,5.9-0.6,5.9-0.6l-6.4-1.2c0,0-1.8,2.1-1.7,3s0,3.3,0.7,3.8S17.4,20.5,17.4,20.5z"/>
					
						<linearGradient id="SVGID_8_" gradientUnits="userSpaceOnUse" x1="-3061.855" y1="419.5119" x2="-3044.2849" y2="419.5119" gradientTransform="matrix(-0.98 -0.18 0.18 -0.98 -3055.25 -124.87)">
						<stop  offset="0" style="stop-color:#B87F50;stop-opacity:0.3"/>
						<stop  offset="0.22" style="stop-color:#CAA687;stop-opacity:0.17"/>
						<stop  offset="0.46" style="stop-color:#D8C5B2;stop-opacity:8.000000e-02"/>
						<stop  offset="0.71" style="stop-color:#E0D7CC;stop-opacity:2.000000e-02"/>
						<stop  offset="1" style="stop-color:#E3DDD4;stop-opacity:0"/>
					</linearGradient>
					<path class="st17" d="M14.7,20.5c-0.6-0.4-0.7-1.9-0.7-3c0-0.4,0-0.7-0.1-0.9c-0.1-0.9,1.5-2.9,1.7-3.1l0,0l6.5,1.2v0.2
						c0,0-4.7-0.9-5.8,0.5c-0.4,0.4-0.6,0.9-0.7,1.5c0,0.6,0.2,1.2,0.7,1.6c0.2,0.3,0.9,0.4,1.9,0.2c2.1-0.3,4.9-1.3,5.6-2.5
						c1.1-1.7,0.2-4.9,0.1-5.2c-0.4-0.5-3.7-0.5-9.8,0.1l-0.5,0c-1.5,0.1-2.6,1.7-3.1,3c-0.3,1.1-0.2,2.2,0.2,3.2l0.3,0.7l-0.4-0.5
						c-0.2-0.3-2.4-3-2.2-3.8s2-3,3.6-3.9c0.9-0.5,4.3-0.8,7.2-0.9s6.2,0,6.8,0.6s0.4,3.1,0.2,4.1c-0.2,1.5-0.6,3-1.2,4.5
						c-0.9,1.5-7.4,2.3-7.7,2.3c-0.7,0.2-1.3,0.2-2,0.1C15.1,20.7,14.9,20.6,14.7,20.5z M12.1,10.2c-1.6,1-3.4,3-3.5,3.8
						c-0.1,0.5,1,2,1.9,3.2c-0.3-0.9-0.3-1.9,0-2.9c0.5-1.4,1.7-3,3.2-3.2l0.5,0c4-0.4,9.4-0.9,9.9,0l0,0c0,0.1,1.1,3.6-0.1,5.4
						c-0.8,1.2-3.6,2.3-5.8,2.6c-0.6,0.1-1.7,0.1-2-0.3c-0.4-0.5-0.7-1.1-0.7-1.8c0.1-0.6,0.3-1.2,0.7-1.6c0.6-0.7,2-0.9,3.3-0.9
						l-3.8-0.7c-0.5,0.6-1.7,2.2-1.6,2.8c0,0.2,0,0.6,0.1,1c0,1,0.1,2.4,0.6,2.8c0.7,0.5,2.5,0.1,2.5,0.1l0,0c0,0,1.7-0.2,3.5-0.6
						c3-0.6,3.9-1.2,4.1-1.6c0.6-1.4,1-2.9,1.1-4.4c0.3-2,0.2-3.5-0.2-3.9c-0.3-0.2-0.6-0.3-0.9-0.3C22.2,9,13.5,9.3,12.1,10.2z"/>
				</g>
				<polyline class="st4" points="232.1,90.2 232.4,102 242.4,117.3 234.4,101 				"/>
				<g class="st18">
					<path class="st19" d="M239.4,67.9c2.7-0.4,5.5-0.6,8.2-0.7s5.5-0.2,8.2-0.1c0.7,0,1.4,0.1,2,0.1c0.7,0,1.3,0,2-0.1
						c1.3-0.1,2.7-0.3,4-0.6c2.7-0.5,5.3-1.3,7.9-2.1c1.3-0.4,2.6-0.8,4-1.1c1.4-0.3,2.9-0.5,4.3-0.4l0.6,0.1l0.5,0.1
						c0.3,0.1,0.6,0.1,1,0.1c0.6,0.1,1.3,0.1,2,0.2l4,0.2c5.4,0.3,10.9,0.6,16.3,1.3v0.2c-5.4,0.6-10.9,0.8-16.4,0.7
						c-1.4-0.1-2.7-0.1-4.1-0.3c-0.7-0.1-1.4-0.1-2.1-0.3c-0.4,0-0.7-0.1-1.1-0.2l-0.5-0.1l-0.4-0.1c-1.3-0.1-2.5-0.1-3.8,0.1
						c-1.3,0.2-2.7,0.3-4,0.6c-2.7,0.4-5.3,1-8,1.7c-1.3,0.3-2.6,0.7-4,1.1c-1.4,0.3-2.8,0.5-4.2,0.5c-2.7,0.1-5.5,0.1-8.2-0.1
						s-5.5-0.3-8.2-0.7L239.4,67.9z"/>
				</g>
				<g class="st18">
					<path class="st20" d="M252.4,107c3.8,2.6,7.5,5.1,11.2,7.7l-0.2-0.1c4.5-0.4,9-0.9,13.5-1.2l13.5-1.2l-0.5,0.3
						c4.6-5.4,9.3-10.7,13.9-16.1v1.2l-5-6l0.7,0.3l-9.2-0.5c-3.1-0.1-6.2-0.3-9.2-0.5l-18.5-1.1l0.8-0.5l-4,8l-0.5-1.2l17.9,7.2
						h-0.4l7.5-2.9l7.6-2.8l0.1,0.6c-3.7-0.8-7.4-1.5-11-2.3c3.7,0.5,7.4,1.1,11,1.7l1,0.2l-0.9,0.4l-7.4,3.2l-7.5,3.1l-0.2,0.1
						l-0.2-0.1l-18.1-6.8l-0.9-0.3l0.4-0.8l4-8l0.3-0.5h0.6L281,89c3.1,0.2,6.2,0.3,9.2,0.5l9.2,0.5h0.4l0.3,0.3l5,6l0.5,0.6
						l-0.5,0.6c-4.7,5.3-9.4,10.7-14.1,15.9l-0.2,0.2h-0.3l-13.5,0.8c-4.5,0.3-9,0.5-13.5,0.8h-0.1l-0.1-0.1
						C259.6,112.5,256,109.8,252.4,107z"/>
				</g>
			</g>
		</g>
	</g>
</g>
</svg>
