<svg id="Layer_1" data-name="Layer 1" xmlns="http://www.w3.org/2000/svg" width="125.55" height="51.69"><defs><style>.cls-1{fill:#7a0000;}.cls-2{fill:#ad0b0b;}.cls-3{fill:#d60505;}.cls-4{fill:#076302;opacity:0.14;}.cls-4,.cls-5{isolation:isolate;}.cls-5{font-size:20.82px;fill:#fff;font-family:GROBOLD, GROBOLD;}</style></defs><title>newuser</title><polygon class="cls-1" points="125.55 47.3 124.1 48.23 118.72 51.69 60.26 49.95 52.66 49.72 42.43 49.42 0.85 48.18 0 12.22 0.86 11.04 7.68 1.7 60.26 6.41 66.96 7.01 115.3 11.35 122.27 16.34 123.84 17.48 125.55 47.3"/><polygon class="cls-2" points="123.87 44.06 117.18 48.3 60.26 46.63 45.92 46.2 1.67 44.91 0.86 11.04 0.84 10.17 8.37 0 60.26 4.58 66.96 5.18 113.83 9.32 122.2 15.25 122.27 16.34 123.87 44.06"/><polygon class="cls-3" points="4.94 41.61 4.21 11.26 9.93 3.54 112.64 12.62 118.95 17.09 120.41 42.25 116.26 44.88 4.94 41.61"/><polygon class="cls-4" points="125.55 47.3 124.1 48.23 52.66 49.72 41.85 49.95 42.43 49.42 45.92 46.2 49.48 42.92 66.96 26.84 66.96 5.18 113.83 9.32 122.2 15.25 122.27 16.34 123.84 17.48 125.55 47.3"/><text class="cls-5" transform="translate(15.83 35.69) scale(0.98 1)">New User</text></svg>