<svg xmlns="http://www.w3.org/2000/svg" viewBox="0 0 98.49 40.05"><defs><style>.cls-1{fill:#0d7a08;}.cls-2{fill:#10b208;}.cls-3{fill:#17c10e;}.cls-4{fill:#076302;opacity:0.14;}.cls-5{fill:#eaeaea;}</style></defs><title>ranking-btn</title><g id="Layer_2" data-name="Layer 2"><g id="Layer_1-2" data-name="Layer 1"><polygon class="cls-1" points="98.49 36.65 97.35 37.37 93.13 40.05 47.27 38.71 41.31 38.53 33.28 38.29 0.67 37.33 0 9.47 0.68 8.55 6.03 1.31 47.27 4.96 52.53 5.43 90.45 8.79 95.92 12.67 97.15 13.55 98.49 36.65"/><polygon class="cls-2" points="97.18 34.14 91.92 37.43 47.27 36.13 36.02 35.8 1.31 34.8 0.68 8.55 0.66 7.88 6.57 0 47.27 3.55 52.53 4.01 89.3 7.22 95.86 11.82 95.92 12.67 97.18 34.14"/><polygon class="cls-3" points="3.88 32.25 3.3 8.73 7.79 2.74 88.37 9.78 93.31 13.24 94.46 32.74 91.2 34.78 3.88 32.25"/><polygon class="cls-4" points="98.49 36.65 97.35 37.37 41.31 38.53 32.83 38.71 33.28 38.29 36.02 35.8 38.82 33.26 52.53 20.79 52.53 4.01 89.3 7.22 95.86 11.82 95.92 12.67 97.15 13.55 98.49 36.65"/><path class="cls-5" d="M22.27,24.82l-2.75,3.1-4.31-3.17-.05,3-4.29-.44L10.59,13.5q3.37-.39,6.49-.69a6,6,0,0,1,2.77.25,3.58,3.58,0,0,1,1.68,1.23,3.63,3.63,0,0,1,.66,1.88,5.43,5.43,0,0,1-.31,2.2,7.49,7.49,0,0,1-1.23,2.19,8.18,8.18,0,0,1-2.08,1.84ZM15,17.47l-.18,2.84a4,4,0,0,0,1.11-.41,4.07,4.07,0,0,0,.79-.57,2.92,2.92,0,0,0,.49-.58,1.59,1.59,0,0,0,.2-.43s0-.08,0-.2a1.28,1.28,0,0,0,0-.43.72.72,0,0,0-.3-.42,1.25,1.25,0,0,0-.74-.16A4.17,4.17,0,0,0,15,17.47Z"/><path class="cls-5" d="M28.07,26.15h0a2.52,2.52,0,0,1-1.21.94,4.63,4.63,0,0,1-1.59.27,3.58,3.58,0,0,1-1.35-.26,3.32,3.32,0,0,1-1.12-.74A3.56,3.56,0,0,1,22,25.21a3.85,3.85,0,0,1-.28-1.51A3.15,3.15,0,0,1,22,22.37a3.37,3.37,0,0,1,.77-1.06,3.57,3.57,0,0,1,1.15-.71,4,4,0,0,1,1.44-.26,3.49,3.49,0,0,1,1.37.24,4.35,4.35,0,0,1,.95.54v-.53a1.09,1.09,0,0,0-.53-1.08,3.1,3.1,0,0,0-1.38-.27,6.27,6.27,0,0,0-1.45.16q-.67.16-1.36.37L23.66,17a10.05,10.05,0,0,1,1.77-.35,17.91,17.91,0,0,1,1.88-.1,7.13,7.13,0,0,1,1.7.2,4.1,4.1,0,0,1,1.46.66,3.33,3.33,0,0,1,1,1.19,3.76,3.76,0,0,1,.35,1.79l-.2,6.7-3.56.3Zm-2.25-3.28a2,2,0,0,0-1,.42.8.8,0,0,0-.34.74.82.82,0,0,0,.51.61,2,2,0,0,0,1.13.1,1.81,1.81,0,0,0,1-.44.8.8,0,0,0,.27-.73A.84.84,0,0,0,27,23,1.69,1.69,0,0,0,25.82,22.87Z"/><path class="cls-5" d="M36.76,18.25h.07A3.28,3.28,0,0,1,38,17.16a3.15,3.15,0,0,1,1.34-.28,3.06,3.06,0,0,1,1.31.27,2.69,2.69,0,0,1,1,.75A3.38,3.38,0,0,1,42.23,19a4.53,4.53,0,0,1,.2,1.38v6.86l-3.83.32.05-6.45a.62.62,0,0,0-.24-.53.93.93,0,0,0-.61-.21,1,1,0,0,0-.61.2.66.66,0,0,0-.27.56l.07,6.4-3.78-.27-.14-10.09,3.69-.3Z"/><path class="cls-5" d="M43.57,13.26l4-.32-.35,7.48h0L49,16.83l3.92.32-2.3,4.47,2.66,4.1-3.69,1.83-2.3-4.45h0l.14,4.13-3.69.32Z"/><path class="cls-5" d="M54,12.82,58,12.64l-.21,3.12L54,16Zm0,4.48L58,17l-.2,10.23L54,27.54Z"/><path class="cls-5" d="M62.89,18.25H63a3.28,3.28,0,0,1,1.2-1.08,3.15,3.15,0,0,1,1.34-.28,3.06,3.06,0,0,1,1.31.27,2.7,2.7,0,0,1,1,.75A3.38,3.38,0,0,1,68.36,19a4.52,4.52,0,0,1,.2,1.38v6.86l-3.83.32.05-6.45a.62.62,0,0,0-.24-.53.93.93,0,0,0-.61-.21,1,1,0,0,0-.61.2.66.66,0,0,0-.28.56l.07,6.4-3.78-.27L59.2,17.18l3.69-.3Z"/><path class="cls-5" d="M70.88,27.07a12,12,0,0,0,1.25.35,5.94,5.94,0,0,0,1.3.14,4.62,4.62,0,0,0,.57,0,1.57,1.57,0,0,0,.51-.15,1,1,0,0,0,.37-.32.93.93,0,0,0,.14-.54.9.9,0,0,0-.17-.56,1.17,1.17,0,0,0-.46-.35,2.21,2.21,0,0,0-.66-.18,6.35,6.35,0,0,0-.76,0,3.51,3.51,0,0,0-.94.13,4.58,4.58,0,0,0-.89.35l.34-1.06a4.43,4.43,0,0,1-1.82-1.55A4.24,4.24,0,0,1,69,20.87a4.45,4.45,0,0,1,.27-1.5A4.12,4.12,0,0,1,70.16,18a4.51,4.51,0,0,1,1.49-1,5.23,5.23,0,0,1,2.16-.41,6.19,6.19,0,0,1,1.12.09,6.82,6.82,0,0,1,.9.23l.3-1.86L79,16.19,78,18a3.69,3.69,0,0,1,.86,1.27,4,4,0,0,1,.29,1.53,3.77,3.77,0,0,1-.45,1.91,4.12,4.12,0,0,1-1.34,1.37A3.17,3.17,0,0,1,79.14,27a3.41,3.41,0,0,1-.41,1.68,3.5,3.5,0,0,1-1.16,1.23,5.74,5.74,0,0,1-1.81.75,10,10,0,0,1-2.35.26,10.55,10.55,0,0,1-2.59-.27q-1-.27-1.67-.48Zm3.42-5a1.5,1.5,0,0,0,.9-.5,1,1,0,0,0,.21-.83,1,1,0,0,0-.54-.67,1.54,1.54,0,0,0-1-.09,1.58,1.58,0,0,0-.9.51,1,1,0,0,0-.21.82.93.93,0,0,0,.52.68A1.48,1.48,0,0,0,74.31,22.09Z"/><path class="cls-5" d="M80.89,24.08a5.89,5.89,0,0,0,1.05.09h.52a3.16,3.16,0,0,0,.5-.05,1,1,0,0,0,.37-.15.37.37,0,0,0,.15-.32.43.43,0,0,0-.28-.4,5,5,0,0,0-.67-.26l-.88-.29a2.89,2.89,0,0,1-.88-.5,2.65,2.65,0,0,1-.67-.88,3.22,3.22,0,0,1-.27-1.44,3,3,0,0,1,.23-1.15,2.79,2.79,0,0,1,.74-1A3.86,3.86,0,0,1,82.14,17a6,6,0,0,1,2-.28q.44,0,.89,0c.29,0,.58.06.84.1l.74.12.57.11v3.12c-.3-.07-.58-.13-.87-.18a5.66,5.66,0,0,0-.92-.07H85a3.2,3.2,0,0,0-.46.05,1.25,1.25,0,0,0-.41.15.32.32,0,0,0-.18.28.45.45,0,0,0,.28.43,4.34,4.34,0,0,0,.7.27l.91.3a3.22,3.22,0,0,1,.91.51,2.64,2.64,0,0,1,.7.88,3.13,3.13,0,0,1,.28,1.44,2.86,2.86,0,0,1-.42,1.6,3.08,3.08,0,0,1-1.1,1,5,5,0,0,1-1.57.54,10.41,10.41,0,0,1-1.84.16,11.92,11.92,0,0,1-1.46-.09,10.54,10.54,0,0,1-1.45-.28V23.85A9.16,9.16,0,0,0,80.89,24.08Z"/></g></g></svg>