<svg xmlns="http://www.w3.org/2000/svg" viewBox="0 0 45 45"><defs><style>.cls-1,.cls-7{fill:#42210b;}.cls-2,.cls-4{fill:#603813;}.cls-3{fill:#754c24;}.cls-13,.cls-14,.cls-15,.cls-16,.cls-4,.cls-5,.cls-6,.cls-7{opacity:0.5;}.cls-5{fill:#a67c52;}.cls-6{fill:#8c6239;}.cls-17,.cls-18,.cls-8{fill:none;}.cls-9{opacity:0.4;}.cls-10{fill:#301709;}.cls-11{fill:#512d10;}.cls-12{fill:#56351a;}.cls-13{fill:#936c4a;}.cls-14{fill:#775132;}.cls-15{fill:#472910;}.cls-16{fill:#2b1407;}.cls-17,.cls-18{stroke:#fff;}.cls-17,.cls-18,.cls-19{stroke-miterlimit:10;}.cls-17{opacity:0.56;}.cls-19{fill:#f9f9f9;stroke:#f9f9f9;stroke-width:0.25px;}</style></defs><title>rhino-food</title><g id="Layer_2" data-name="Layer 2"><g id="Layer_1-2" data-name="Layer 1"><path class="cls-1" d="M12.94,12.36s-1,0-1,1.54,1.71,10,.6,10.71-2.14,2.14-.69,3.26.34,3.43.51,4.54-1.24,1.76.47,2.74,17.4-.81,18-.47,1.11-3.86,1-4a2.21,2.21,0,0,1,.77-2c.73-.47-.6-5.48-.6-6.21s-.26-6.34-.56-6.73-.94-.86-.64-.94.3-2.57,0-2.83a15.85,15.85,0,0,1-1.07-3.13c0-.34-1.16.3-1.33.3s-.69-.43-1.07,0-1.33.86-1.59.64-.13-.34-.39-.64a4.74,4.74,0,0,0-2.36-.43,12.55,12.55,0,0,0-2.27.51c-.34.21-.64,1.07-.81.69s.43-.6-.81-.81-2-.64-1.46.21-.69-.09-.81.13-.77.6-.73,1.07-.64-.09-1.07-.09-.94.43-.94.73-.43.26-.69.43S13.79,12.36,12.94,12.36Z"/><path class="cls-2" d="M13.07,12.64s-1,0-1,1.54,1.71,10,.6,10.71S10.55,27,12,28.14s.34,3.43.51,4.54-1.24,1.76.47,2.74,17.4-.81,18-.47,1.11-3.86,1-4a2.21,2.21,0,0,1,.77-2c.73-.47-.6-5.48-.6-6.21s-.26-6.34-.56-6.73-.94-.86-.64-.94.3-2.57,0-2.83A15.85,15.85,0,0,1,30,9.12c0-.34-1.16.3-1.33.3s-.69-.43-1.07,0-1.33.86-1.59.64-.13-.34-.39-.64A4.74,4.74,0,0,0,23.23,9,12.55,12.55,0,0,0,21,9.46c-.34.21-.64,1.07-.81.69s.43-.6-.81-.81-2-.64-1.46.21-.69-.09-.81.13-.77.6-.73,1.07-.64-.09-1.07-.09-.94.43-.94.73-.43.26-.69.43S13.93,12.64,13.07,12.64Z"/><path class="cls-3" d="M12.94,12.91s-1,0-1,1.54,1.71,10,.6,10.71-2.14,2.14-.69,3.26.34,3.43.51,4.54-1.24,1.76.47,2.74,17.4-.81,18-.47,1.11-3.86,1-4a2.21,2.21,0,0,1,.77-2c.73-.47-.6-5.48-.6-6.21s-.26-6.34-.56-6.73-.94-.86-.64-.94.3-2.57,0-2.83a15.85,15.85,0,0,1-1.07-3.13c0-.34-1.16.3-1.33.3s-.69-.43-1.07,0-1.33.86-1.59.64-.13-.34-.39-.64a4.74,4.74,0,0,0-2.36-.43,12.55,12.55,0,0,0-2.27.51c-.34.21-.64,1.07-.81.69s.43-.6-.81-.81-2-.64-1.46.21-.69-.09-.81.13-.77.6-.73,1.07-.64-.09-1.07-.09-.94.43-.94.73-.43.26-.69.43S13.79,12.91,12.94,12.91Z"/><path class="cls-4" d="M17,21s-1,.77-.09,2.57-.6,4.33-.43,5.31.51,2.44.51,2.44,1.89,2.19,1.67,1.07-.64-2.27-.13-3.34a6.07,6.07,0,0,0,.86-4.46C18.93,22.42,18.76,21,17,21Z"/><path class="cls-5" d="M20,13a19.47,19.47,0,0,1,.86,4.28,13.39,13.39,0,0,1-.73,2.49s2.61-2.06,2-3.6S21.29,13.12,20,13Z"/><path class="cls-6" d="M26.73,14.79s.51,3,.9,4.46,0,1.37.26,2.44S29,21.95,29,20.41s1.07-.51,1.16-1.71.51-1.84-.21-2-.86,0-1.16-1-.09-1.07-.64-1.37-.77-.73-.94-.3S27.08,15.18,26.73,14.79Z"/><path class="cls-4" d="M22.88,25.63s1.46.47,1.2,1.29-.34.86-.34,1.29-.13,1.67.26,1.2.73-.51.86-1.29.43-1.11.56-1,.17,1.24.3,1.54-.6,1.54-.6,1.67-.6,1.29-.43,1.41a.79.79,0,0,0,1-.69,7,7,0,0,1,.21-2.27c.21-.34.47.09.51-1.11s.86-1.37.77-1.89-.94-2.1-1-2.44.21-1.07-.3-1.63-.13-.39-1.2-1.24-1.16-2.78-1.29-.94,1.07,4.28,1.07,4.46A15,15,0,0,1,22.88,25.63Z"/><path class="cls-6" d="M16.68,22.13s-1.47.26-1.21,1.56-1.65,2.95-1.65,3.21.17,3,.17,3-.35.52.26-1a11.45,11.45,0,0,1,1.65-2.69c.17-.26-.17-1.47.52-2.51S16.68,22.13,16.68,22.13Z"/><path class="cls-7" d="M12.85,19.93s.51.56,1.07.34.81.6.81.86S14,22.21,14,22.21l-.9,0A14,14,0,0,1,12.85,19.93Z"/><path class="cls-6" d="M15.85,11.41s-.56-.21-.34,1.46a7.82,7.82,0,0,1-.13,3.3,6.16,6.16,0,0,0-.64,1.76c0,.51.73,2.31.77,1s.09-1.54.13-2.14a7.93,7.93,0,0,1,.6-2.06C16.49,14.06,17,10.12,15.85,11.41Z"/><path class="cls-4" d="M25.15,10.25A13.34,13.34,0,0,0,25.62,12,3.38,3.38,0,0,1,26,13.59c0,.77.51.6.64.17s.73-1,.21-1.11-.64,0-.64-.51.21-.94-.09-1.07-.51-.09-.51-.3S25.58,9.48,25.15,10.25Z"/><path class="cls-8" d="M27.55,25.2A1.37,1.37,0,0,0,27,26.66c.3.86-.51,2.06.3,1.29s.6-.6.43-1.54S27.72,25.2,27.55,25.2Z"/><path class="cls-7" d="M30.55,29.75a2.42,2.42,0,0,1,.26.86c0,.21-.26,1.54.21,1.11a1.13,1.13,0,0,0,.47-1.16c0-.6-.9-1.41-1-1Z"/><path class="cls-6" d="M19.79,33.69c1-.13,1.63-.3,1.76-.17s1,.6.3.6-.94.47-1.59.56-2.23.47-1.84,0A5.65,5.65,0,0,1,19.79,33.69Z"/><g class="cls-9"><path class="cls-10" d="M32,22.47c0-.73-.26-6.34-.56-6.73s-.94-.86-.64-.94.3-2.57,0-2.83A15.85,15.85,0,0,1,29.8,8.84c0-.34-1.16.3-1.33.3s-.69-.43-1.07,0-1.33.86-1.59.64-.13-.34-.39-.64a4.74,4.74,0,0,0-2.36-.43c-.29.06-1.09.18-1.67.32a181.32,181.32,0,0,0,.51,26.19c4.33-.29,8.63-.68,9-.5.64.34,1.11-3.86,1-4a2.21,2.21,0,0,1,.77-2C33.36,28.21,32,23.2,32,22.47Z"/><path class="cls-11" d="M32.16,22.74c0-.73-.26-6.34-.56-6.73s-.94-.86-.64-.94.3-2.57,0-2.83a15.85,15.85,0,0,1-1.07-3.13c0-.34-1.16.3-1.33.3s-.69-.43-1.07,0-1.33.86-1.59.64-.13-.34-.39-.64a4.74,4.74,0,0,0-2.36-.43c-.32.06-1.24.2-1.83.35a180.13,180.13,0,0,0,.55,26.16c4.37-.29,8.74-.68,9.07-.51.64.34,1.11-3.86,1-4a2.21,2.21,0,0,1,.77-2C33.49,28.48,32.16,23.47,32.16,22.74Z"/><path class="cls-12" d="M32,23c0-.73-.26-6.34-.56-6.73s-.94-.86-.64-.94.3-2.57,0-2.83A15.85,15.85,0,0,1,29.8,9.39c0-.34-1.16.3-1.33.3s-.69-.43-1.07,0-1.33.86-1.59.64-.13-.34-.39-.64a4.74,4.74,0,0,0-2.36-.43c-.3.06-1.11.18-1.7.32A179.13,179.13,0,0,0,22,35.72c4.32-.29,8.58-.67,8.91-.5.64.34,1.11-3.86,1-4a2.21,2.21,0,0,1,.77-2C33.36,28.75,32,23.74,32,23Z"/><path class="cls-13" d="M22.09,16.2a21.46,21.46,0,0,0-.87-2.26q-.06,2.4-.06,4.81C21.79,18,22.41,17,22.09,16.2Z"/><path class="cls-14" d="M26.72,14.79s.51,3,.9,4.46,0,1.37.26,2.44S29,21.94,29,20.4s1.07-.51,1.16-1.71.51-1.84-.21-2-.86,0-1.16-1-.09-1.07-.64-1.37-.77-.73-.94-.3S27.06,15.17,26.72,14.79Z"/><path class="cls-15" d="M22.86,25.63s1.46.47,1.2,1.29-.34.86-.34,1.29-.13,1.67.26,1.2.73-.51.86-1.29.43-1.11.56-1,.17,1.24.3,1.54-.6,1.54-.6,1.67-.6,1.29-.43,1.41a.79.79,0,0,0,1-.69,7,7,0,0,1,.21-2.27c.21-.34.47.09.51-1.11s.86-1.37.77-1.89-.94-2.1-1-2.44.21-1.07-.3-1.63-.13-.39-1.2-1.24-1.16-2.78-1.29-.94,1.07,4.28,1.07,4.46A15,15,0,0,1,22.86,25.63Z"/><path class="cls-15" d="M25.13,10.25A13.34,13.34,0,0,0,25.6,12,3.38,3.38,0,0,1,26,13.59c0,.77.51.6.64.17s.73-1,.21-1.11-.64,0-.64-.51.21-.94-.09-1.07-.51-.09-.51-.3S25.56,9.47,25.13,10.25Z"/><path class="cls-8" d="M27.53,25.2A1.37,1.37,0,0,0,27,26.66c.3.86-.51,2.06.3,1.29s.6-.6.43-1.54S27.7,25.2,27.53,25.2Z"/><path class="cls-16" d="M30.53,29.74a2.42,2.42,0,0,1,.26.86c0,.21-.26,1.54.21,1.11a1.13,1.13,0,0,0,.47-1.16c0-.6-.9-1.41-1-1Z"/><path class="cls-6" d="M21.77,33.69l0,.43h0C22.32,34.11,22,33.87,21.77,33.69Z"/></g><path class="cls-17" d="M22.5,44.5a22,22,0,1,1,22-22A22,22,0,0,1,22.5,44.5Z"/><circle class="cls-18" cx="22.5" cy="22.5" r="19"/><path class="cls-19" d="M33.52,12.78l-.46.23-.23-.46a.18.18,0,0,0-.32.16l.23.46-.46.23a.18.18,0,1,0,.16.32l.46-.23.23.46a.18.18,0,0,0,.32-.16l-.23-.46.46-.23a.18.18,0,1,0-.16-.32Z"/><path class="cls-19" d="M24.48,38.26l-.79.1-.1-.79a.27.27,0,0,0-.54.07l.1.79-.79.1a.27.27,0,1,0,.07.54l.79-.1.1.79a.27.27,0,0,0,.54-.07l-.1-.79.79-.1a.27.27,0,1,0-.07-.54Z"/><path class="cls-19" d="M13.48,9.26l-.79.1-.1-.79a.27.27,0,0,0-.54.07l.1.79-.79.1a.27.27,0,1,0,.07.54l.79-.1.1.79a.27.27,0,0,0,.54-.07l-.1-.79.79-.1a.27.27,0,1,0-.07-.54Z"/><path class="cls-19" d="M37.56,30.44a3.37,3.37,0,0,0-2.5-2.5,2.94,2.94,0,0,0,2.5-2.5,3.14,3.14,0,0,0,2.5,2.5C38.5,28.31,37.56,29.07,37.56,30.44Z"/><path class="cls-19" d="M10.56,32.44c-.46-2.1-1.9-3.6-4.44-4.44,2.36-.28,3.75-1.88,4.44-4.44A5.58,5.58,0,0,0,15,28C12.23,28.65,10.56,30,10.56,32.44Z"/></g></g></svg>