<?xml version="1.0" encoding="utf-8"?>
<!-- Generator: Adobe Illustrator 21.1.0, SVG Export Plug-In . SVG Version: 6.00 Build 0)  -->
<svg version="1.1" id="Layer_1" xmlns="http://www.w3.org/2000/svg" xmlns:xlink="http://www.w3.org/1999/xlink" x="0px" y="0px"
	 viewBox="0 0 453.2 788.8" style="enable-background:new 0 0 453.2 788.8;" xml:space="preserve">
<style type="text/css">
	.st0{clip-path:url(#SVGID_2_);}
	.st1{fill:#F9F9F9;stroke:#F9F9F9;stroke-width:0.25;stroke-miterlimit:10;}
	.st2{fill:url(#_Rectangle__1_);}
	.st3{opacity:0.24;fill:#FFFFFF;enable-background:new    ;}
	.st4{opacity:8.000000e-02;fill:#FFFFFF;enable-background:new    ;}
	.st5{opacity:0.27;}
	.st6{fill:#FFE7E1;}
	.st7{fill:url(#_Path_5_1_);}
	.st8{fill:url(#_Path_6_1_);}
	.st9{fill:#FFFFFF;}
	.st10{opacity:0.81;}
	.st11{fill:url(#_Path_9_1_);}
	.st12{fill:url(#_Path_10_1_);}
	.st13{fill:url(#_Path_13_1_);}
	.st14{fill:url(#_Path_14_1_);}
	.st15{opacity:0.26;}
	.st16{fill:#688C7F;}
	.st17{opacity:9.000000e-02;}
	.st18{fill:#AD5236;}
	.st19{fill:url(#_Path_17_1_);}
	.st20{fill:url(#_Path_18_1_);}
	.st21{opacity:0.64;}
	.st22{fill:url(#_Path_21_1_);}
	.st23{fill:url(#_Path_22_1_);}
	.st24{fill:none;}
	.st25{opacity:0.5;}
	.st26{fill:none;stroke:#F9F9F9;stroke-width:0.5;stroke-linecap:round;stroke-linejoin:round;}
</style>
<title>skybg</title>
<g id="Layer_1-2">
	<g>
		<defs>
			<rect id="SVGID_1_" x="0.1" width="453" height="788.8"/>
		</defs>
		<clipPath id="SVGID_2_">
			<use xlink:href="#SVGID_1_"  style="overflow:visible;"/>
		</clipPath>
		<g class="st0">
			<path class="st1" d="M205.5,69.1l-1,0.2l-0.2-1.1c0-0.2-0.2-0.3-0.4-0.3l0,0c-0.2,0.1-0.3,0.3-0.3,0.5l0.2,1.1l-1,0.2
				c-0.2,0.1-0.3,0.3-0.3,0.5c0,0.2,0.2,0.3,0.4,0.3l0,0l1-0.2l0.2,1.1c0,0.2,0.2,0.3,0.4,0.3c0.1,0,0.2-0.1,0.3-0.2
				c0.1-0.1,0.1-0.2,0.1-0.3l-0.2-1.1l1-0.2c0.1,0,0.2-0.1,0.2-0.1c0.1-0.1,0.1-0.2,0.1-0.3C205.9,69.2,205.7,69.1,205.5,69.1
				L205.5,69.1z"/>
			<path class="st1" d="M153-4.2l-0.7,0.4l-0.3-0.8c-0.1-0.1-0.2-0.2-0.3-0.1l0,0c-0.1,0.1-0.2,0.2-0.1,0.4l0.3,0.8l-0.7,0.4
				C151-3.1,151-3,151-2.8c0.1,0.1,0.2,0.2,0.3,0.1l0,0L152-3l0.3,0.8c0.1,0.1,0.2,0.2,0.3,0.1l0,0c0.1,0,0.1-0.1,0.1-0.1
				c0-0.1,0-0.2,0-0.2l-0.3-0.8l0.7-0.4c0.1,0,0.1-0.1,0.1-0.1c0-0.1,0-0.2,0-0.2C153.2-4.2,153.1-4.2,153-4.2L153-4.2z"/>
			
				<linearGradient id="_Rectangle__1_" gradientUnits="userSpaceOnUse" x1="186.76" y1="-268.03" x2="186.76" y2="471.79" gradientTransform="matrix(1 0 0 1 41.81 195)">
				<stop  offset="0" style="stop-color:#186B91"/>
				<stop  offset="0.2" style="stop-color:#5F9CB6"/>
				<stop  offset="0.38" style="stop-color:#93C1D2"/>
				<stop  offset="0.51" style="stop-color:#B4D7E3"/>
				<stop  offset="0.58" style="stop-color:#C0E0E9"/>
				<stop  offset="0.63" style="stop-color:#C2DFE2"/>
				<stop  offset="0.72" style="stop-color:#C9DCCF"/>
				<stop  offset="0.81" style="stop-color:#D3D7AF"/>
				<stop  offset="0.92" style="stop-color:#E1D184"/>
				<stop  offset="1" style="stop-color:#EDCB60"/>
			</linearGradient>
			<rect id="_Rectangle_" x="-8.8" y="-21" class="st2" width="474.7" height="810"/>
			<path id="_Path_" class="st3" d="M446.9,162.3c0,0-111.3-39.5-154.5-24.1c0,0,70.5-5.3,149.7,29.6L446.9,162.3z"/>
			<path id="_Compound_Path_" class="st3" d="M349.2,31c-42.6,5.3-68.8,3.9-97.3-0.4c42.4,2,89.1-1.7,97.3-5.7
				c11.5-5.6,75.4-0.1,75.4-0.1l5.7-2.7c0,0-50.4-7.6-88,2.7s-138.5-2.7-138.5-2.7l0,0c-4.7-0.8-9.7-1.7-14.9-2.5
				C124.1,8.9-24.2,53.1-24.2,53.1l13,30c0,0,147.3-44.3,179.2-44.1s111.1,20.3,167.8,9.2s130,13.5,130,13.5l12-26.2
				C477.8,35.5,419.2,22.3,349.2,31z M91.2,36.2c-2.5,3.8-10.9,7.8-22.3,8.4c0,0-11.4-0.6-8.1-5.3C64.1,34.7,93.8,32.4,91.2,36.2
				L91.2,36.2z M95.7,42.2c-7.4-5.9,9.2-16.5,44.7-14S111.8,55,95.7,42.2L95.7,42.2z M283.4,44.9c-37.6-0.7-116.1-12.3-92.6-10.9
				C237.8,36.8,324.5,45.7,283.4,44.9L283.4,44.9z M296.4,39.4c0,0,19.7-3.8,24.5,0S291.1,42.4,296.4,39.4L296.4,39.4z"/>
			<path id="_Compound_Path_2" class="st3" d="M454,211c-3.2,1.8-142.2-14.9-163.5-24.2S228.8,194,184,200.6s-185.6,1.3-185.6,1.3
				l9.1,9.7c0,0,133.4,34,201.6,3.3s254.3,11.9,254.3,11.9S457.2,209.1,454,211z M85.2,213.8c-1.9-1-0.8-2.9,1.6-2.9
				c17-0.1,61.5-0.4,72.6,0.1C179,211.9,127.7,235.5,85.2,213.8z M300.7,196.4c0,0,23-0.3,25.5,5.5S284.3,199.4,300.7,196.4
				L300.7,196.4z"/>
			<path id="_Compound_Path_3" class="st4" d="M454,376.2c-3.2,1.8-142.2-14.9-163.5-24.2s-61.7,7.2-106.4,13.8
				s-185.6,1.3-185.6,1.3l9.1,9.7c0,0,133.4,34,201.6,3.3S463.4,392,463.4,392S457.2,374.4,454,376.2z M85.2,379.1
				c-1.9-1-0.8-2.9,1.6-2.9c17-0.1,61.5-0.4,72.6,0.1C179,377.1,127.7,400.7,85.2,379.1z M300.7,361.7c0,0,23-0.3,25.5,5.5
				S284.3,364.7,300.7,361.7L300.7,361.7z"/>
			<path id="_Compound_Path_4" class="st3" d="M237.2,276.2c0,0,64.8-27,88.6-7.5s70.2-2.1,70.2-2.1l3.2-6.2c0,0-49.1,3.4-64.6-0.8
				s-29.6-14.7-37.1-8.8c-7.4,5.9-55.8,16.6-56.9,15.4S237.2,276.2,237.2,276.2z M343.1,266.2c3.9-0.3,19.3-0.1,25.3,0
				c0.6,0.1,1,0.6,0.9,1.2c0,0.2-0.2,0.5-0.3,0.6C354.1,281.7,336.3,266.7,343.1,266.2L343.1,266.2z M285,260.4
				c0.9-3.7,8.9-3.5,8.9-3.5C299.6,258.8,284.2,264,285,260.4L285,260.4z"/>
			<g id="_Group_">
				<path id="_Compound_Path_5" class="st3" d="M369.5,104c28.6,2.1,74.7,2.1,74.7,2.1l-2.8-7.3c-17.5,9.3-66.6,2.1-89.2-2
					c-1.9-0.9-3.6-1.7-5.2-2.6c-32-16.7-77.9-3.5-98.4,7.6c-26.1,2-60.1-1-85.2-4l-12.6-3.5c-63.6-17.9-138.4,39-139.9,39v11.3
					c-10.7-0.8-19.9-1.8-25.7-2.6c-4.2-0.5-6.7-0.9-6.9-0.9c0,0,20.6,16.1,35.5,14c13.6,1.7,31.1,0.8,52.7-6.2
					c45.5-14.8,64-10.1,70.1-7.1c-5.8-3.1-21.8-8.9-52-0.7c-16.5,4.4-37.5,5.1-56.5,4.5c27.5-17.2,81-46.1,109.4-30.9
					c39.3,21,91.2,16.4,136.6,0s196.2,39.8,196.2,39.8v-21.1C470.3,133.3,410.2,119.2,369.5,104z M68.5,114.6
					c-0.7-2.1,8.2-16.7,21.1-12.8S71,122,68.5,114.6L68.5,114.6z M112.5,103.8c-7.6,4.6-15.9,2.8-9.3-1.9
					C104.5,100.8,120,99.2,112.5,103.8L112.5,103.8z M147.6,105.5c0,0,30.6,4.3,32.3,9.2S131.8,108.8,147.6,105.5L147.6,105.5z
					 M243.6,104.8c-11.6,7.8-21,8.4-46.2,2.2c15.5,0.9,31,0.1,46.3-2.4L243.6,104.8z M274.2,105.5c-11.6,0.9,33.2-14.2,42.3-6.6
					S298.3,103.8,274.2,105.5L274.2,105.5z"/>
				<path id="_Path_2" class="st3" d="M136.6,141.7c0.9,0.5,1.8,1,2.6,1.7C138.4,142.7,137.5,142.2,136.6,141.7z"/>
			</g>
			<g id="_Group_2" class="st5">
				<path id="_Compound_Path_6" class="st3" d="M365,483.8c29.5,2.2,76.9,2.2,76.9,2.2l-2.9-7.6c-18,9.6-68.6,2.1-91.9-2
					c-1.9-0.9-3.7-1.8-5.4-2.6c-32.9-17.2-80.3-3.6-101.4,7.8c-26.9,2-62-1-87.8-4.1l-12.9-3.6C74.1,455.3-3,513.9-4.5,513.9v11.6
					c-11.1-0.9-20.5-2-26.5-2.7c-4.3-0.5-6.9-0.9-7.1-0.9c0,0,21.3,16.5,36.6,14.4c14,1.8,32.1,0.8,54.3-6.4
					c46.9-15.2,65.9-10.4,72.2-7.3c-6-3.2-22.4-9.1-53.6-0.7c-16.9,4.6-38.6,5.3-58.1,4.6C41.7,508.8,96.8,479,126,494.7
					c40.4,21.7,93.9,16.9,140.8,0s202.1,41,202.1,41v-21.8C468.9,513.9,406.9,499.4,365,483.8z M54.9,494.7
					c-0.7-2.2,8.4-17.2,21.8-13.2S57.4,502.3,54.9,494.7z M100.2,483.5c-7.8,4.8-16.3,2.9-9.6-2C92,480.5,108,478.7,100.2,483.5
					L100.2,483.5z M136.4,485.3c0,0,31.6,4.5,33.3,9.5S120.1,488.6,136.4,485.3z M235.3,484.5c-11.9,8-21.6,8.6-47.6,2.3
					c16,1,32,0.1,47.7-2.4L235.3,484.5z M266.8,485.3c-11.9,0.9,34.2-14.6,43.6-6.8S291.7,483.5,266.8,485.3L266.8,485.3z"/>
				<path id="_Path_3" class="st3" d="M125,522.6c1,0.5,1.9,1.1,2.7,1.7C126.9,523.6,126,523,125,522.6z"/>
			</g>
			<path id="_Path_4" class="st6" d="M160.7,57.6c0,0,0.8-30-19.6-21.3c0,0,0.4-21.8-29.4-20.5c-32.2,1.4-21.7,25.9-21.7,25.9
				s-15-6.3-20.8,0c-3,3.3-4.3,9.5-4.8,14.6c-17.1-11.5-30.2,7.1-25.7,8.4s25.3,0,25.3,0s12.8,2.4,19.8,0c0,0,25,5.5,51.9,1
				c0,0,12.5,3.4,25,0.3c0,0,17.4,0.6,23.5-1.4S174.1,47.9,160.7,57.6z"/>
			<g id="_Group_3">
				
					<linearGradient id="_Path_5_1_" gradientUnits="userSpaceOnUse" x1="9.8762" y1="-110.6712" x2="37.5462" y2="-196.7612" gradientTransform="matrix(1 0 0 1 83.62 216)">
					<stop  offset="0" style="stop-color:#186B91"/>
					<stop  offset="0.2" style="stop-color:#5F9CB6"/>
					<stop  offset="0.38" style="stop-color:#93C1D2"/>
					<stop  offset="0.51" style="stop-color:#B4D7E3"/>
					<stop  offset="0.58" style="stop-color:#C0E0E9"/>
					<stop  offset="0.63" style="stop-color:#C2DFE2"/>
					<stop  offset="0.72" style="stop-color:#C9DCCF"/>
					<stop  offset="0.81" style="stop-color:#D3D7AF"/>
					<stop  offset="0.92" style="stop-color:#E1D184"/>
					<stop  offset="1" style="stop-color:#EDCB60"/>
				</linearGradient>
				<path id="_Path_5" class="st7" d="M157.1,63.7c-8.8,5-27.9-8.2-27.9-8.2c-1.3,1.3-2.8,2.3-4.5,3c-4.9,1.9-10.4,1.1-14.5-2.2
					c-32-24.4-0.4-40.4-0.3-40.5c-26.1,1.9-22,19.8-20.5,24.6c1.7,3.2,3.9,6.1,6.5,8.7c-12.3-11-22.3-9.8-23-9.8
					c-1.5,0.4-2.8,1.2-3.9,2.2c-3,3.3-4.3,9.4-4.8,14.6c0.4,2.5,0.8,4.1,0.8,4.1c-1.8-2.7-4-5-6.6-7c-14.1-4.5-23.9,10.2-19.9,11.4
					c4.6,1.3,25.3,0,25.3,0s12.8,2.4,19.8,0c0,0,25,5.5,51.9,1c0,0,12.5,3.4,25,0.3c0,0,8,0.3,15-0.2
					C167.9,65.9,157.1,63.7,157.1,63.7z"/>
				
					<linearGradient id="_Path_6_1_" gradientUnits="userSpaceOnUse" x1="138.74" y1="-129.6" x2="138.74" y2="-129.6" gradientTransform="matrix(1 0 0 1 41.81 195)">
					<stop  offset="0" style="stop-color:#186B91"/>
					<stop  offset="0.2" style="stop-color:#5F9CB6"/>
					<stop  offset="0.38" style="stop-color:#93C1D2"/>
					<stop  offset="0.51" style="stop-color:#B4D7E3"/>
					<stop  offset="0.58" style="stop-color:#C0E0E9"/>
					<stop  offset="0.63" style="stop-color:#C2DFE2"/>
					<stop  offset="0.72" style="stop-color:#C9DCCF"/>
					<stop  offset="0.81" style="stop-color:#D3D7AF"/>
					<stop  offset="0.92" style="stop-color:#E1D184"/>
					<stop  offset="1" style="stop-color:#EDCB60"/>
				</linearGradient>
				<polygon id="_Path_6" class="st8" points="180.6,65.4 180.6,65.4 180.6,65.4 				"/>
			</g>
			<path id="_Path_7" class="st9" d="M160.7,57.6c0,0,0.8-28.4-19.6-19.6c-1.4-9.9-8.4-18-18-20.9c4,2.8,19,5,16.6,20.9
				c0,0,12.7-3.8,19.5,21.7c0,0,16.1-12.4,25.1,5C190.3,62.6,174.1,47.9,160.7,57.6z"/>
			<g id="_Group_4" class="st10">
				<path id="_Path_8" class="st6" d="M354.1,33.3c0,0-4.4-21.4-22.7-13.6c0,0,5.4-25-21.3-23.9C281.3-2.9,290.7,19,290.7,19
					s-13.4-5.6-18.6,0c-2.7,2.9-3.9,8.5-4.3,13.1c-15.3-10.3-27.1,6.4-23,7.6s22.7,0,22.7,0s11.5,2.1,17.8,0c0,0,22.4,4.9,46.4,0.9
					c0,0,11.2,3,22.4,0.3c0,0,15.6,0.6,21-1.2S366.1,24.6,354.1,33.3z"/>
				<g id="_Group_5">
					
						<linearGradient id="_Path_9_1_" gradientUnits="userSpaceOnUse" x1="210.3097" y1="-139.9601" x2="235.0897" y2="-217.0301" gradientTransform="matrix(1 0 0 1 83.62 216)">
						<stop  offset="0" style="stop-color:#EDCB60"/>
						<stop  offset="8.000000e-02" style="stop-color:#E1D184"/>
						<stop  offset="0.19" style="stop-color:#D3D7AF"/>
						<stop  offset="0.28" style="stop-color:#C9DCCF"/>
						<stop  offset="0.37" style="stop-color:#C2DFE2"/>
						<stop  offset="0.42" style="stop-color:#C0E0E9"/>
						<stop  offset="0.49" style="stop-color:#B4D7E3"/>
						<stop  offset="0.62" style="stop-color:#93C1D2"/>
						<stop  offset="0.8" style="stop-color:#5F9CB6"/>
						<stop  offset="1" style="stop-color:#186B91"/>
					</linearGradient>
					<path id="_Path_9" class="st11" d="M350.9,38.8c-7.9,4.5-25-7.3-25-7.3c-1.1,1.2-2.5,2.1-4,2.7c-4.4,1.7-9.3,0.9-13-2
						c-28.6-21.8-0.4-36.2-0.2-36.3c-23.4,1.7-19.8,17.7-18.3,22c1.5,2.9,3.5,5.5,5.8,7.8c-11-9.9-20-8.8-20.5-8.7
						c-1.3,0.4-2.5,1.1-3.5,2c-2.7,2.9-3.9,8.5-4.3,13c0.3,2.2,0.7,3.7,0.7,3.7c-1.6-2.4-3.6-4.5-5.9-6.2
						c-12.6-4-21.4,9.1-17.8,10.1c4.1,1.2,22.7,0,22.7,0s11.5,2.1,17.8,0c0,0,22.4,4.9,46.4,0.9c0,0,11.2,3,22.4,0.3
						c0,0,7.1,0.3,13.5-0.1C360.6,40.7,350.9,38.8,350.9,38.8z"/>
					
						<linearGradient id="_Path_10_1_" gradientUnits="userSpaceOnUse" x1="330.03" y1="-154.71" x2="330.03" y2="-154.71" gradientTransform="matrix(1 0 0 1 41.81 195)">
						<stop  offset="0" style="stop-color:#EDCB60"/>
						<stop  offset="8.000000e-02" style="stop-color:#E1D184"/>
						<stop  offset="0.19" style="stop-color:#D3D7AF"/>
						<stop  offset="0.28" style="stop-color:#C9DCCF"/>
						<stop  offset="0.37" style="stop-color:#C2DFE2"/>
						<stop  offset="0.42" style="stop-color:#C0E0E9"/>
						<stop  offset="0.49" style="stop-color:#B4D7E3"/>
						<stop  offset="0.62" style="stop-color:#93C1D2"/>
						<stop  offset="0.8" style="stop-color:#5F9CB6"/>
						<stop  offset="1" style="stop-color:#186B91"/>
					</linearGradient>
					<polygon id="_Path_10" class="st12" points="371.8,40.3 371.8,40.3 371.8,40.3 					"/>
				</g>
				<path id="_Path_11" class="st9" d="M354.1,33.3c0,0-4.4-21.4-22.7-13.6c0,0,3.9-17.9-11-22.7c3.6,2.5,11.5,9.8,9.3,24
					c0,0,16.9-8.8,23,14.1c0,0,14.4-11.1,22.4,4.5C380.6,37.8,366.1,24.6,354.1,33.3z"/>
			</g>
			<g id="_Group_6">
				<path id="_Path_12" class="st6" d="M430.5,109.2c0,0-3.4-16.4-17.4-10.4c0,0,4.2-19.2-16.3-18.3c-22.1,1-14.9,17.7-14.9,17.7
					s-10.2-4.3-14.2,0c-2.1,2.2-3,6.5-3.3,10c-11.7-7.9-20.7,4.9-17.6,5.8s17.3,0,17.3,0s8.8,1.6,13.6,0c11.7,2.2,23.8,2.5,35.6,0.7
					c5.6,1.4,11.5,1.4,17.1,0.2c0,0,11.9,0.4,16.1-0.9S439.7,102.5,430.5,109.2z"/>
				<g id="_Group_7">
					
						<linearGradient id="_Path_13_1_" gradientUnits="userSpaceOnUse" x1="300.7904" y1="-74.0899" x2="319.7604" y2="-133.1199" gradientTransform="matrix(1 0 0 1 83.62 216)">
						<stop  offset="0" style="stop-color:#186B91"/>
						<stop  offset="0.2" style="stop-color:#5F9CB6"/>
						<stop  offset="0.38" style="stop-color:#93C1D2"/>
						<stop  offset="0.51" style="stop-color:#B4D7E3"/>
						<stop  offset="0.58" style="stop-color:#C0E0E9"/>
						<stop  offset="0.63" style="stop-color:#C2DFE2"/>
						<stop  offset="0.72" style="stop-color:#C9DCCF"/>
						<stop  offset="0.81" style="stop-color:#D3D7AF"/>
						<stop  offset="0.92" style="stop-color:#E1D184"/>
						<stop  offset="1" style="stop-color:#EDCB60"/>
					</linearGradient>
					<path id="_Path_13" class="st13" d="M428,113.4c-6,3.5-19.1-5.6-19.1-5.6c-0.9,0.9-1.9,1.6-3.1,2.1c-3.4,1.3-7.2,0.7-10-1.5
						c-21.9-16.7-0.3-27.7-0.2-27.8c-17.9,1.3-15.1,13.5-14,16.8c1.2,2.2,2.7,4.2,4.5,5.9c-8.4-7.6-15.3-6.8-15.7-6.7
						c-1,0.3-1.9,0.8-2.6,1.5c-2.1,2.2-3,6.5-3.3,10c0.3,1.7,0.5,2.8,0.5,2.8c-1.2-1.8-2.8-3.4-4.5-4.8c-9.7-3.1-16.4,6.9-13.6,7.8
						c3.1,0.9,17.4,0,17.4,0s8.8,1.6,13.6,0c11.7,2.2,23.8,2.5,35.6,0.7c5.6,1.4,11.5,1.4,17.1,0.2c0,0,5.5,0.2,10.3-0.1
						C436.5,114.7,432.2,114.2,428,113.4z"/>
					
						<linearGradient id="_Path_14_1_" gradientUnits="userSpaceOnUse" x1="402.27" y1="-80.48" x2="402.27" y2="-80.48" gradientTransform="matrix(1 0 0 1 41.81 195)">
						<stop  offset="0" style="stop-color:#A085A5"/>
						<stop  offset="0.24" style="stop-color:#AC6D84;stop-opacity:0.67"/>
						<stop  offset="0.58" style="stop-color:#BE4C55;stop-opacity:0.2"/>
						<stop  offset="0.62" style="stop-color:#C05057;stop-opacity:0.23"/>
						<stop  offset="0.68" style="stop-color:#C65B5C;stop-opacity:0.3"/>
						<stop  offset="0.75" style="stop-color:#CF6E64;stop-opacity:0.41"/>
						<stop  offset="0.83" style="stop-color:#DC8770;stop-opacity:0.57"/>
						<stop  offset="0.92" style="stop-color:#EDA87E;stop-opacity:0.78"/>
						<stop  offset="1" style="stop-color:#FFCB8E"/>
					</linearGradient>
					<polygon id="_Path_14" class="st14" points="444.1,114.5 444.1,114.5 444.1,114.5 					"/>
				</g>
				<path id="_Path_15" class="st9" d="M430.5,109.2c0,0-3.4-16.4-17.4-10.4c0,0,3-13.7-8.5-17.4c2.8,1.9,8.8,7.5,7.1,18.4
					c0,0,13-6.7,17.6,10.8c0,0,11.1-8.5,17.2,3.4C450.8,112.6,439.7,102.5,430.5,109.2z"/>
			</g>
			<g class="st15">
				<path class="st16" d="M194.8,541.9c1.7,3.2,3.8,6.1,6.2,8.8c2.5,2.2,5.5,3.9,8.8,4.8c1.9,0.6,3.8,1.1,5.7,1.4l0,0
					c0-17.3,0-34.7,0.6-52.1c0.3-8.7,0.8-17.4,1.6-26.1l0.2-1.9l-0.3-0.5l0.3-0.2l1.9-23.2l3.5-41.6l-18.6-25l19.1,19l0.3-4.1
					c0.7-8.6,1.3-17.2,1.8-25.9c0.2-4.3,0.5-8.6,0.6-12.9c-0.1-4.2-0.3-8.6-0.7-12.8c-0.7-8.5-2.5-17-5.2-25.1c-1.4-4-3-7.9-5-11.7
					c-1-1.9-2-3.7-3-5.6c-1.1-1.8-2-3.7-2.7-5.8c0.7,2,1.7,3.9,2.8,5.6c1.1,1.8,2.2,3.6,3.2,5.5c2.1,3.7,3.9,7.6,5.4,11.6
					c3,8.1,5,16.6,6,25.2c0.6,4.3,0.9,8.6,1.1,13c0,4.4-0.1,8.7-0.2,13c-0.3,8.7-0.6,17.3-1.1,26l-2.8,51.9l-1.1,20.2l21.9-11
					l-22.2,15.8l-0.1,1c-0.6,8.5-0.8,17.1-0.9,25.7c-0.1,17,0.4,34,0.9,51l9.1-3.8l1.4,4.6l-10.4,3.3l1.4,48.7
					c0.1,2.9,0.2,5.8,0.2,8.7l8.6-4.9l-8.5,8.8v0.5c0,4.4-0.1,8.8-0.2,13.2c-0.3,8.8-0.9,17.5-1.6,26.2c-1.4,17.4-3.2,34.6-5.3,52
					l-11.6-2c2.6-16.9,4.9-34,6.7-51.1c0.9-8.5,1.7-17.1,2.2-25.6c0.3-4.3,0.5-8.5,0.6-12.7s0-8.6,0-12.9l-0.1-48.5
					c-2.2-0.6-4.4-1.3-6.5-2.2c-3.5-1.3-6.6-3.4-9.1-6.1c-2.3-2.9-4.3-6.2-5.8-9.6c-1.5-3.4-2.9-6.9-4-10.5
					C191.4,535.2,193,538.6,194.8,541.9z"/>
			</g>
			<g class="st15">
				<path class="st16" d="M285.2,509.3c1.6,3.7,3.7,7.1,6.2,10.3c2.4,2.6,5.4,4.5,8.8,5.7c1.9,0.7,3.8,1.2,5.7,1.7l0,0
					c0-20.3,0-40.6,0.6-61c0.3-10.2,0.8-20.4,1.6-30.6l0.2-2.3l-0.3-0.6l0.3-0.2l1.9-27.2l3.5-48.7l-18.6-29.2l19.1,22.2l0.3-4.9
					c0.7-10.1,1.3-20.2,1.8-30.3c0.2-5,0.5-10.1,0.6-15.1c-0.1-5-0.3-10-0.7-15c-0.7-9.9-2.5-19.8-5.2-29.4c-1.4-4.7-3-9.2-5-13.7
					c-1-2.2-2-4.4-3-6.5c-1.1-2.1-2-4.4-2.7-6.8c0.7,2.3,1.6,4.5,2.8,6.6c1.1,2.1,2.2,4.2,3.2,6.4c2.1,4.4,3.9,8.9,5.4,13.6
					c3,9.6,5,19.5,6,29.5c0.6,5.1,0.9,10.1,1.1,15.3c0,5.1-0.1,10.2-0.2,15.3c-0.3,10.1-0.6,20.3-1.1,30.4l-2.8,60.8l-1.1,23.6
					l21.9-12.9l-22.2,18.5l-0.1,1.2c-0.6,10-0.8,20-0.9,30.1c-0.1,19.9,0.4,39.8,0.9,59.7l9.1-4.5l1.4,5.4l-10.4,3.9l1.5,57
					c0.1,3.4,0.2,6.8,0.2,10.1l8.6-5.7l-8.5,10.3v0.5c0,5.2-0.1,10.3-0.2,15.5c-0.3,10.3-0.9,20.5-1.5,30.7
					c-1.4,20.4-3.2,40.5-5.3,60.8l-11.6-2.4c2.6-19.8,4.9-39.8,6.7-59.8c0.9-10,1.7-20,2.2-30c0.3-5,0.5-10,0.6-14.9s0-10.1,0-15.1
					l-0.1-56.8c-2.2-0.7-4.4-1.5-6.5-2.6c-3.6-1.6-6.7-4.1-9.1-7.2c-2.4-3.5-4.3-7.3-5.8-11.3c-1.6-4-2.9-8.1-4-12.3
					C281.8,501.5,283.4,505.5,285.2,509.3z"/>
			</g>
			<g class="st17">
				<path class="st18" d="M299.6,589.6c-1.8,2.3-3.9,4.4-6.2,6.2c-2.7,1.6-5.7,2.8-8.8,3.4c-1.9,0.4-3.8,0.8-5.7,1l0,0
					c0-12.2,0-24.3-0.6-36.6c-0.3-6.1-0.8-12.2-1.6-18.3l-0.2-1.3l0.3-0.4l-0.3-0.1l-1.9-16.3l-3.5-29.2l18.6-17.5l-19.1,13.3
					l-0.3-2.9c-0.7-6.1-1.3-12.1-1.8-18.2c-0.2-3-0.5-6.1-0.6-9.1c0.1-3,0.3-6,0.7-9c0.8-6.1,2.6-12.1,5.3-17.6
					c1.4-2.9,3.1-5.6,5-8.2l3-3.9c1.1-1.2,2-2.5,2.7-4c-0.7,1.5-1.7,2.8-2.8,4c-1.1,1.3-2.2,2.5-3.2,3.8c-2,2.5-3.8,5.3-5.4,8.1
					c-2.9,5.5-5,11.5-6,17.7c-0.5,3-0.9,6.1-1.1,9.1c0,3.1,0.1,6.1,0.2,9.1c0.3,6.1,0.6,12.2,1.1,18.2l2.8,36.4l1.1,14.2l-21.9-7.7
					l22.2,11.1l0.1,0.7c0.6,6,0.8,12,0.9,18.1c0.1,11.9-0.4,23.9-0.9,35.8l-9.1-2.7l-1.5,3.2l10.4,2.3l-1.4,34.2
					c-0.1,2-0.2,4-0.2,6.1l-8.6-3.4l8.5,6.2v0.3c0,3.1,0.1,6.2,0.2,9.3c0.3,6.2,0.9,12.3,1.5,18.4c1.4,12.2,3.2,24.3,5.3,36.5
					l11.6-1.4c-2.6-11.9-4.9-23.9-6.7-35.9c-0.9-6-1.7-12-2.2-18c-0.3-3-0.5-6-0.6-8.9s0-6,0-9.1l0.1-34c2.2-0.4,4.4-0.9,6.5-1.5
					c3.3-0.9,6.4-2.3,9.1-4.3c2.2-2,4.2-4.2,5.8-6.8c1.5-2.4,2.9-4.8,4-7.4C303,585.1,301.4,587.4,299.6,589.6z"/>
			</g>
			<g id="_Group_8">
				<path id="_Path_16" class="st6" d="M71.2,138.7c0,0-2.9-14.4-15.2-9.1c0,0,3.7-16.8-14.3-16.1c-19.4,0.9-13.1,15.6-13.1,15.6
					s-9-3.8-12.5,0c-1.8,2-2.6,5.7-2.9,8.8C2.9,131-5,142.2-2.3,143s15.2,0,15.2,0s7.7,1.4,11.9,0c10.3,2,20.9,2.2,31.2,0.6
					c4.9,1.2,10.1,1.3,15.1,0.2c0,0,10.5,0.4,14.2-0.8S79.3,132.9,71.2,138.7z"/>
				<g id="_Group_9">
					
						<linearGradient id="_Path_17_1_" gradientUnits="userSpaceOnUse" x1="-52.897" y1="-48.509" x2="-36.227" y2="-100.359" gradientTransform="matrix(1 0 0 1 83.62 216)">
						<stop  offset="0" style="stop-color:#186B91"/>
						<stop  offset="0.2" style="stop-color:#5F9CB6"/>
						<stop  offset="0.38" style="stop-color:#93C1D2"/>
						<stop  offset="0.51" style="stop-color:#B4D7E3"/>
						<stop  offset="0.58" style="stop-color:#C0E0E9"/>
						<stop  offset="0.63" style="stop-color:#C2DFE2"/>
						<stop  offset="0.72" style="stop-color:#C9DCCF"/>
						<stop  offset="0.81" style="stop-color:#D3D7AF"/>
						<stop  offset="0.92" style="stop-color:#E1D184"/>
						<stop  offset="1" style="stop-color:#EDCB60"/>
					</linearGradient>
					<path id="_Path_17" class="st19" d="M69.1,142.4c-5.3,3-16.8-4.9-16.8-4.9c-0.8,0.8-1.7,1.4-2.7,1.8c-3,1.2-6.3,0.7-8.8-1.3
						c-19.3-14.7-0.3-24.3-0.2-24.4c-15.7,1.1-13.3,11.9-12.3,14.8c1,1.9,2.3,3.7,3.9,5.2c-7.4-6.6-13.4-5.9-13.8-5.9
						c-0.9,0.2-1.7,0.7-2.3,1.4c-1.8,2-2.6,5.7-2.9,8.8c0.2,1.5,0.5,2.5,0.5,2.5c-1.1-1.6-2.4-3-4-4.2c-8.5-2.7-14.4,6.1-12,6.8
						c2.8,0.8,15.2,0,15.2,0s7.7,1.4,11.9,0c10.3,2,20.9,2.2,31.2,0.6c4.9,1.2,10.1,1.3,15.1,0.2c0,0,4.8,0.2,9.1-0.1
						C76.5,143.6,72.8,143.2,69.1,142.4z"/>
					
						<linearGradient id="_Path_18_1_" gradientUnits="userSpaceOnUse" x1="41.37" y1="-51.56" x2="41.37" y2="-51.56" gradientTransform="matrix(1 0 0 1 41.81 195)">
						<stop  offset="0" style="stop-color:#186B91"/>
						<stop  offset="0.2" style="stop-color:#5F9CB6"/>
						<stop  offset="0.38" style="stop-color:#93C1D2"/>
						<stop  offset="0.51" style="stop-color:#B4D7E3"/>
						<stop  offset="0.58" style="stop-color:#C0E0E9"/>
						<stop  offset="0.63" style="stop-color:#C2DFE2"/>
						<stop  offset="0.72" style="stop-color:#C9DCCF"/>
						<stop  offset="0.81" style="stop-color:#D3D7AF"/>
						<stop  offset="0.92" style="stop-color:#E1D184"/>
						<stop  offset="1" style="stop-color:#EDCB60"/>
					</linearGradient>
					<polygon id="_Path_18" class="st20" points="83.2,143.4 83.2,143.4 83.2,143.4 					"/>
				</g>
				<path id="_Path_19" class="st9" d="M71.2,138.7c0,0-2.9-14.4-15.2-9.1c0,0,2.6-12-7.4-15.3c2.4,1.7,7.7,6.6,6.2,16.2
					c0,0,11.4-5.9,15.5,9.5c0,0,9.7-7.5,15.1,3C89,141.8,79.3,132.9,71.2,138.7z"/>
			</g>
			<g id="_Group_10" class="st21">
				<path id="_Path_20" class="st6" d="M323,167.3c0,0-5.4-26.2-27.8-16.6c0,0,6.7-30.7-26-29.2c-35.4,1.6-23.8,28.4-23.8,28.4
					s-16.4-6.9-22.8,0c-3.3,3.6-4.7,10.4-5.3,16c-18.7-12.6-33.2,7.8-28.1,9.3s27.8,0,27.8,0s14.1,2.6,21.8,0c0,0,27.4,6,56.9,1.1
					c0,0,13.7,3.7,27.4,0.4c0,0,19.1,0.7,25.8-1.5S337.8,156.7,323,167.3z"/>
				<g id="_Group_11">
					
						<linearGradient id="_Path_21_1_" gradientUnits="userSpaceOnUse" x1="165.7195" y1="3.717" x2="196.0595" y2="-90.683" gradientTransform="matrix(1 0 0 1 83.62 216)">
						<stop  offset="0" style="stop-color:#186B91"/>
						<stop  offset="0.2" style="stop-color:#5F9CB6"/>
						<stop  offset="0.38" style="stop-color:#93C1D2"/>
						<stop  offset="0.51" style="stop-color:#B4D7E3"/>
						<stop  offset="0.58" style="stop-color:#C0E0E9"/>
						<stop  offset="0.63" style="stop-color:#C2DFE2"/>
						<stop  offset="0.72" style="stop-color:#C9DCCF"/>
						<stop  offset="0.81" style="stop-color:#D3D7AF"/>
						<stop  offset="0.92" style="stop-color:#E1D184"/>
						<stop  offset="1" style="stop-color:#EDCB60"/>
					</linearGradient>
					<path id="_Path_21" class="st22" d="M319.1,174.1c-9.7,5.5-30.6-9-30.6-9c-1.4,1.5-3.1,2.6-4.9,3.3c-5.4,2.1-11.5,1.2-16-2.4
						c-35.1-26.7-0.5-44.3-0.3-44.4c-28.6,2.1-24.2,21.6-22.5,26.9c1.9,3.5,4.3,6.7,7.1,9.5c-13.5-12.1-24.4-10.8-25.2-10.7
						c-1.6,0.4-3.1,1.3-4.2,2.5c-3.3,3.6-4.7,10.4-5.3,16c0.4,2.7,0.9,4.5,0.9,4.5c-2-2.9-4.4-5.5-7.2-7.6
						c-15.4-4.9-26.2,11.1-21.8,12.4c5,1.5,27.8,0,27.8,0s14.1,2.6,21.8,0c0,0,27.4,6,56.9,1.1c0,0,13.7,3.7,27.4,0.4
						c0,0,8.8,0.3,16.5-0.2C331,176.5,319.1,174.1,319.1,174.1z"/>
					
						<linearGradient id="_Path_22_1_" gradientUnits="userSpaceOnUse" x1="302.98" y1="-19.07" x2="302.98" y2="-19.07" gradientTransform="matrix(1 0 0 1 41.81 195)">
						<stop  offset="0" style="stop-color:#186B91"/>
						<stop  offset="0.2" style="stop-color:#5F9CB6"/>
						<stop  offset="0.38" style="stop-color:#93C1D2"/>
						<stop  offset="0.51" style="stop-color:#B4D7E3"/>
						<stop  offset="0.58" style="stop-color:#C0E0E9"/>
						<stop  offset="0.63" style="stop-color:#C2DFE2"/>
						<stop  offset="0.72" style="stop-color:#C9DCCF"/>
						<stop  offset="0.81" style="stop-color:#D3D7AF"/>
						<stop  offset="0.92" style="stop-color:#E1D184"/>
						<stop  offset="1" style="stop-color:#EDCB60"/>
					</linearGradient>
					<polygon id="_Path_22" class="st23" points="344.8,175.9 344.8,175.9 344.8,175.9 					"/>
				</g>
				<path id="_Path_23" class="st9" d="M323,167.3c0,0-5.4-26.2-27.8-16.6c0,0,4.8-21.9-13.5-27.8c4.4,3.1,14,12,11.4,29.4
					c0,0,20.7-10.7,28.2,17.3c0,0,17.7-13.6,27.5,5.5C355.5,172.9,337.8,156.7,323,167.3z"/>
			</g>
			<rect id="_Rectangle_2" x="18" y="-19.6" class="st24" width="383.9" height="423.5"/>
			<g class="st15">
				<path class="st16" d="M136.7,569.2c-1.2,2.4-2.8,4.6-4.6,6.5c-1.9,1.7-4.1,2.9-6.5,3.6c-1.4,0.4-2.8,0.8-4.2,1.1l0,0
					c0-12.9,0-25.8-0.4-38.8c-0.2-6.5-0.6-13-1.2-19.5l-0.1-1.4l0.2-0.4l-0.2-0.1l-1.4-17.3l-2.6-31l13.8-18.6l-14.3,14.2l-0.3-3.1
					c-0.5-6.4-0.9-12.8-1.3-19.3c-0.2-3.2-0.4-6.4-0.5-9.6c0-3.2,0.2-6.4,0.5-9.6c0.6-6.4,1.9-12.6,3.9-18.7c1-3,2.3-5.9,3.7-8.7
					c0.7-1.4,1.5-2.8,2.3-4.1c0.8-1.3,1.5-2.8,2-4.3c-0.5,1.5-1.2,2.9-2.1,4.2c-0.8,1.3-1.6,2.7-2.4,4.1c-1.5,2.8-2.9,5.7-4,8.6
					c-2.2,6.1-3.7,12.4-4.5,18.8c-0.4,3.2-0.7,6.4-0.8,9.7s0.1,6.5,0.2,9.7c0.2,6.5,0.5,12.9,0.8,19.3l2.1,38.6l0.8,15l-16.3-8.2
					l16.5,11.7v0.8c0.5,6.4,0.6,12.7,0.7,19.2c0.1,12.6-0.3,25.3-0.6,38l-6.7-2.8l-1,3.4l7.7,2.5l-1.1,36.2
					c-0.1,2.2-0.1,4.3-0.2,6.5l-6.4-3.7l6.3,6.6v0.3c0,3.3,0.1,6.6,0.2,9.8c0.2,6.5,0.7,13,1.2,19.5c1,13,2.3,25.8,4,38.7l8.6-1.5
					c-1.9-12.6-3.6-25.3-5-38c-0.7-6.4-1.3-12.7-1.7-19.1c-0.2-3.2-0.4-6.3-0.4-9.5s0-6.4,0-9.6l0.1-36.1c1.6-0.4,3.3-1,4.8-1.6
					c2.6-1,4.9-2.5,6.8-4.5c1.7-2.2,3.2-4.6,4.3-7.2c1.2-2.5,2.2-5.2,3-7.8C139.3,564.3,138.1,566.8,136.7,569.2z"/>
				<path class="st16" d="M102.7,509.4l0.4-1c1.7-4.2-0.1-9.2-3.9-11.1l-0.4,1C97.1,502.6,98.9,507.6,102.7,509.4z"/>
				<path class="st16" d="M90.5,519.8l0.9,0.2c4.1,1,8.2-1.9,9.1-6.5l0,0l-0.9-0.2C95.5,512.3,91.4,515.3,90.5,519.8z"/>
				<path class="st16" d="M134.8,567.5l0.9,0.3c1.1-4.5-1.2-9.1-5.3-10.4l-0.9-0.3C128.4,561.5,130.8,566.2,134.8,567.5z"/>
				<path class="st16" d="M140.3,571.9l-2.9,0.7l0,0c0.4,3.1,3.3,5.2,6.4,4.8c0,0,0,0,0,0h0.3l2.9-0.7c-0.4-3.1-3.3-5.2-6.4-4.8
					c0,0,0,0,0,0H140.3z"/>
				<path class="st16" d="M107,621v-1c0.2-3.1-2.3-5.8-5.4-6v1C101.4,618.1,103.9,620.8,107,621z"/>
				<path class="st16" d="M100.9,629.8l0.9,0.1c3.1,0.3,5.7-2,6-5.1c0,0,0,0,0,0v-0.1l-0.9-0.1c-3.1-0.3-5.7,2-6,5.1c0,0,0,0,0,0
					V629.8z"/>
			</g>
			<g class="st25">
				<path class="st16" d="M457,521.7c-1.8,3.4-4.1,6.6-6.7,9.5c-2.7,2.4-6,4.2-9.5,5.2c-2,0.6-4.1,1.2-6.2,1.5l0,0
					c0-18.7,0-37.5-0.6-56.2c-0.3-9.4-0.8-18.8-1.8-28.2l-0.2-2.1l0.3-0.6l-0.4-0.2l-2.1-25l-3.7-44.9l20.1-27l-20.6,20.5l-0.4-4.5
					c-0.7-9.3-1.4-18.6-1.9-27.9c-0.3-4.6-0.6-9.3-0.7-13.9c0.1-4.6,0.3-9.3,0.8-13.9c0.8-9.2,2.7-18.3,5.7-27
					c1.5-4.3,3.3-8.6,5.4-12.6c1-2,2.1-4,3.3-6c1.2-1.9,2.2-4,2.9-6.2c-0.8,2.2-1.8,4.2-3.1,6.1c-1.2,1.9-2.3,3.9-3.5,5.9
					c-2.2,4-4.2,8.2-5.8,12.5c-3.2,8.8-5.4,17.9-6.5,27.2c-0.6,4.7-1,9.3-1.2,14.1c0,4.7,0.1,9.4,0.3,14.1c0.3,9.3,0.7,18.7,1.1,28
					l3.1,56l1.2,21.8l-23.7-11.9l24,17l0.1,1.1c0.7,9.2,0.9,18.5,1,27.8c0.1,18.3-0.4,36.7-0.9,55.1l-9.8-4.1l-1.5,5l11.2,3.6
					l-1.7,52.5c-0.1,3.1-0.2,6.2-0.3,9.3l-9.2-5.3l9.2,9.5v0.5c0,4.8,0.1,9.5,0.2,14.3c0.3,9.5,1,18.9,1.7,28.2
					c1.5,18.8,3.4,37.4,5.7,56.1l12.5-2.2c-2.8-18.3-5.2-36.7-7.2-55.2c-1-9.2-1.9-18.4-2.4-27.6c-0.3-4.6-0.5-9.2-0.6-13.8
					s0-9.3,0-14l0.1-52.4c2.4-0.6,4.7-1.4,7-2.4c3.7-1.4,7.1-3.7,9.8-6.6c2.5-3.2,4.6-6.7,6.2-10.4c1.7-3.7,3.1-7.4,4.3-11.3
					C460.6,514.6,458.9,518.2,457,521.7z"/>
				<path class="st16" d="M407.7,435l0.5-1.4c2.5-6.1-0.1-13.4-5.7-16.1l-0.5,1.4C399.6,425.1,402.1,432.3,407.7,435z"/>
				<path class="st16" d="M390,450l1.3,0.3c6,1.4,11.9-2.8,13.2-9.4l0,0l-1.3-0.3C397.2,439.2,391.3,443.5,390,450z"/>
				<path class="st16" d="M454.2,519.2l1.3,0.4c1.6-6.5-1.8-13.2-7.7-15.1l-1.3-0.4C444.9,510.6,448.3,517.4,454.2,519.2z"/>
				<path class="st16" d="M462.2,525.5l-4.2,1l0,0c0.9,4.8,5.3,7.9,9.7,6.9l4.2-1C470.9,527.6,466.6,524.5,462.2,525.5z"/>
				<path class="st16" d="M413.9,596.8v-1.4c0-4.8-3.5-8.6-7.8-8.6v1.4C406.1,592.9,409.6,596.8,413.9,596.8z"/>
				<path class="st16" d="M405,609.5l1.2,0.2c4.3,0.6,8.2-2.8,8.7-7.6l-1.2-0.2C409.4,601.3,405.5,604.7,405,609.5z"/>
			</g>
			<path class="st16" d="M25.3,528.2c-1.8,3.4-4.1,6.6-6.7,9.5c-2.7,2.4-6,4.2-9.5,5.2c-2,0.6-4.1,1.2-6.2,1.5l0,0
				c0-18.7,0-37.5-0.6-56.2c-0.3-9.4-0.8-18.9-1.8-28.2l-0.2-2.1l0.3-0.6l-0.4-0.2l-2.1-25l-3.7-44.9l20.1-27L-6,380.8l-0.4-4.5
				c-0.7-9.3-1.4-18.6-1.9-27.9c-0.3-4.6-0.6-9.3-0.7-13.9c0.1-4.6,0.3-9.3,0.8-13.9c0.8-9.2,2.7-18.3,5.7-27.1
				c1.5-4.3,3.3-8.6,5.4-12.6c1-2,2.2-4,3.3-6c1.2-1.9,2.2-4,3-6.2c-0.8,2.2-1.8,4.2-3.1,6.1c-1.2,1.9-2.3,3.9-3.5,5.9
				c-2.2,4-4.2,8.2-5.8,12.5c-3.2,8.8-5.4,17.9-6.5,27.2c-0.6,4.7-0.9,9.3-1.2,14.1c0,4.7,0.1,9.4,0.3,14.1c0.3,9.3,0.7,18.7,1.1,28
				l3.1,56l1.2,21.8l-23.7-11.8l24,17l0.1,1.1c0.7,9.2,0.9,18.5,1,27.8c0.1,18.3-0.4,36.7-0.9,55.1l-9.8-4.1l-1.5,5l11.2,3.6
				l-1.6,52.5c-0.1,3.1-0.2,6.2-0.3,9.3l-9.2-5.3l9.1,9.5v0.5c0,4.8,0.1,9.5,0.2,14.3c0.3,9.5,1,18.9,1.7,28.2
				c1.5,18.8,3.4,37.4,5.7,56.1l12.5-2.2C10.5,692.7,8,674.2,6,655.8c-1-9.2-1.8-18.4-2.4-27.6c-0.3-4.6-0.5-9.2-0.6-13.8
				s0-9.3,0-14L3.1,548c2.4-0.6,4.7-1.4,7-2.4c3.7-1.4,7.1-3.7,9.8-6.6c2.5-3.2,4.6-6.6,6.2-10.3c1.7-3.7,3.1-7.5,4.3-11.3
				C29,521.1,27.2,524.7,25.3,528.2z"/>
			<path class="st16" d="M-24,441.6l0.5-1.4c2.5-6.1-0.1-13.4-5.7-16.1l-0.5,1.4C-32.1,431.6-29.5,438.9-24,441.6z"/>
			<path class="st16" d="M-41.7,456.6l1.3,0.3c6,1.4,11.9-2.8,13.2-9.4l0,0l-1.3-0.3C-34.5,445.8-40.4,450-41.7,456.6z"/>
			<path class="st16" d="M22.5,525.7l1.3,0.4c1.6-6.5-1.8-13.2-7.7-15.1l-1.3-0.4C13.2,517.1,16.6,523.9,22.5,525.7z"/>
			<path class="st16" d="M30.5,532.1l-4.2,1l0,0c0.9,4.8,5.3,7.9,9.7,6.9l4.2-1C39.2,534.1,34.9,531,30.5,532.1z"/>
			<path class="st16" d="M-17.8,603.3V602c0-4.8-3.5-8.6-7.8-8.6v1.4C-25.6,599.5-22.1,603.3-17.8,603.3z"/>
			<path class="st16" d="M-26.7,616l1.2,0.2c4.3,0.6,8.2-2.8,8.7-7.6l-1.2-0.2C-22.3,607.9-26.2,611.3-26.7,616z"/>
			<ellipse class="st26" cx="43.7" cy="108.9" rx="2" ry="2.2"/>
			<ellipse class="st26" cx="208.3" cy="190.8" rx="2" ry="2.2"/>
			<ellipse class="st26" cx="312.8" cy="93.6" rx="1.1" ry="1.2"/>
			<ellipse class="st26" cx="162.9" cy="289.6" rx="1.1" ry="1.2"/>
			<path class="st1" d="M226.3,26.1l-1.2-0.5l0.4-1.3c0.1-0.2,0-0.5-0.3-0.6c-0.2-0.1-0.5,0-0.6,0.2v0l-0.4,1.3l-1.2-0.5
				c-0.2-0.1-0.5,0-0.6,0.2v0c-0.1,0.2,0,0.5,0.3,0.6l1.2,0.5l-0.4,1.3c-0.1,0.2,0,0.5,0.3,0.6c0.1,0,0.2,0,0.3,0
				c0.1-0.1,0.2-0.2,0.3-0.3l0.4-1.3l1.2,0.5c0.1,0,0.2,0,0.3,0c0.1-0.1,0.2-0.2,0.3-0.3C226.7,26.5,226.6,26.2,226.3,26.1
				C226.3,26.1,226.3,26.1,226.3,26.1L226.3,26.1z"/>
			<path class="st1" d="M328,64.5l-0.7,0.4l-0.3-0.8c-0.1-0.1-0.2-0.2-0.3-0.1l0,0c-0.1,0.1-0.2,0.2-0.1,0.4l0.3,0.8l-0.7,0.4
				c-0.1,0.1-0.2,0.2-0.1,0.4c0.1,0.1,0.2,0.2,0.3,0.1l0,0l0.7-0.4l0.3,0.8c0.1,0.1,0.2,0.2,0.3,0.1l0,0c0.1,0,0.1-0.1,0.1-0.1
				c0-0.1,0-0.2,0-0.2l-0.3-0.8l0.7-0.4c0.1,0,0.1-0.1,0.1-0.1c0-0.1,0-0.2,0-0.2C328.3,64.6,328.1,64.5,328,64.5L328,64.5z"/>
			<path class="st1" d="M90.7,157.8l-0.7,0.4l-0.3-0.8c-0.1-0.1-0.2-0.2-0.3-0.1l0,0c-0.1,0.1-0.2,0.2-0.1,0.4l0.3,0.8l-0.7,0.4
				c-0.1,0.1-0.2,0.2-0.1,0.4c0.1,0.1,0.2,0.2,0.3,0.1l0,0l0.7-0.4l0.3,0.8c0.1,0.1,0.2,0.2,0.3,0.1l0,0c0.1,0,0.1-0.1,0.1-0.1
				c0-0.1,0-0.2,0-0.2l-0.3-0.8l0.7-0.4c0.1,0,0.1-0.1,0.1-0.1c0-0.1,0-0.2,0-0.2C90.9,157.8,90.8,157.8,90.7,157.8L90.7,157.8z"/>
			<path class="st1" d="M151.5,190.5l-0.7,0.4l-0.3-0.8c0-0.1-0.2-0.2-0.3-0.2c0,0,0,0,0,0l0,0c-0.1,0.1-0.2,0.2-0.1,0.4l0.3,0.8
				l-0.7,0.4c-0.1,0.1-0.2,0.2-0.1,0.4c0.1,0.1,0.2,0.2,0.3,0.1l0,0l0.7-0.4l0.3,0.8c0.1,0.1,0.2,0.2,0.3,0.1l0,0
				c0.1,0,0.1-0.1,0.1-0.1c0-0.1,0-0.2,0-0.2l-0.3-0.8l0.7-0.4c0.1,0,0.1-0.1,0.1-0.1c0-0.1,0-0.2,0-0.2
				C151.7,190.6,151.6,190.5,151.5,190.5C151.4,190.5,151.4,190.5,151.5,190.5L151.5,190.5z"/>
			<path class="st1" d="M181.1,107.1l-0.7,0.4l-0.3-0.8c-0.1-0.1-0.2-0.2-0.3-0.1l0,0c-0.1,0.1-0.2,0.2-0.1,0.4l0.3,0.8l-0.7,0.4
				c-0.1,0.1-0.2,0.2-0.1,0.4c0.1,0.1,0.2,0.2,0.3,0.1l0,0l0.7-0.4l0.3,0.8c0.1,0.1,0.2,0.2,0.3,0.1l0,0c0.1,0,0.1-0.1,0.1-0.1
				c0-0.1,0-0.2,0-0.2l-0.3-0.8l0.7-0.4c0.1,0,0.1-0.1,0.1-0.1c0-0.1,0-0.2,0-0.2C181.4,107.1,181.2,107.1,181.1,107.1L181.1,107.1z
				"/>
		</g>
	</g>
</g>
</svg>
