<svg>
  <symbol id="fapple" viewBox="0 0 45 45">
    <defs>
      <style>
        .cls-1{fill:#183008}.cls-2{fill:#9e0404}.cls-3{fill:#244924}.cls-4{fill:#2a562c}.cls-5{fill:#ba3842}.cls-6{fill:#b23040}.cls-7,.cls-8{fill:none;stroke:#fff}.cls-7,.cls-8,.cls-9{stroke-miterlimit:10}.cls-7{opacity:.56}.cls-9{fill:#f9f9f9;stroke:#f9f9f9;stroke-width:.25px}
      </style>
    </defs>
    <g id="Layer_2">
      <g id="Layer_1-2">
        <path d="M21.59 12.23l1-.75s-.23 4.81 1.09 6.2c.83.89-.51 1.45-1.59 1.75" class="cls-1"/>
        <path d="M22.1 19.42a11.28 11.28 0 0 1-1.16.25s.21-4.49-1-6.22l1.64-1.21" class="cls-1"/>
        <path d="M33.5 24.27c0 4.37-4.42 8.89-10.39 8.89-6.38 0-12.7-3.54-12.7-8.89 0-4.76 1.74-7.79 5.24-8 1.59-.43 6.3.82 6.3.82.17 0 4-1.32 6.36-.64s5.23 3.19 5.19 7.82z" class="cls-2"/>
        <path d="M22 17.12c.17 0 4-1.32 6.36-.64s5.22 3.17 5.18 7.79c0 4.37-4.42 8.89-10.39 8.89" class="cls-2"/>
        <path d="M21.27 12.55l1-.75s-.23 4.81 1.09 6.2c.83.89-.51 1.45-1.59 1.75" class="cls-3"/>
        <path d="M21.78 19.74a11.28 11.28 0 0 1-1.16.25s.21-4.49-1-6.22l1.64-1.21" class="cls-4"/>
        <path d="M33.18 24.59c0 4.37-4.42 8.89-10.39 8.89-6.38 0-12.7-3.54-12.7-8.89 0-4.76 1.74-7.79 5.24-8 1.59-.43 6.3.82 6.3.82.17 0 4-1.32 6.36-.64s5.23 3.23 5.19 7.82z" class="cls-5"/>
        <path d="M21.63 17.44c.17 0 4-1.32 6.36-.64s5.22 3.17 5.18 7.79c0 4.37-4.42 8.89-10.39 8.89" class="cls-6"/>
        <path d="M22.5 44.5a22 22 0 1 1 22-22 22 22 0 0 1-22 22z" class="cls-7"/>
        <circle cx="22.5" cy="22.5" r="19" class="cls-8"/>
        <path d="M33.52 12.78l-.46.23-.23-.46a.18.18 0 0 0-.32.16l.23.46-.46.23a.18.18 0 1 0 .16.32l.46-.23.23.46a.18.18 0 0 0 .32-.16l-.23-.46.46-.23a.18.18 0 1 0-.16-.32z" class="cls-9"/>
        <path d="M24.48 38.26l-.79.1-.1-.79a.27.27 0 0 0-.54.07l.1.79-.79.1a.27.27 0 1 0 .07.54l.79-.1.1.79a.27.27 0 0 0 .54-.07l-.1-.79.79-.1a.27.27 0 1 0-.07-.54z" class="cls-9"/>
        <path d="M13.48 9.26l-.79.1-.1-.79a.27.27 0 0 0-.54.07l.1.79-.79.1a.27.27 0 1 0 .07.54l.79-.1.1.79a.27.27 0 0 0 .54-.07l-.1-.79.79-.1a.27.27 0 1 0-.07-.54z" class="cls-9"/>
        <path d="M37.56 30.44a3.37 3.37 0 0 0-2.5-2.5 2.94 2.94 0 0 0 2.5-2.5 3.14 3.14 0 0 0 2.5 2.5c-1.56.37-2.5 1.13-2.5 2.5z" class="cls-9"/>
        <path d="M10.56 32.44c-.46-2.1-1.9-3.6-4.44-4.44 2.36-.28 3.75-1.88 4.44-4.44A5.58 5.58 0 0 0 15 28c-2.77.65-4.44 2-4.44 4.44z" class="cls-9"/>
      </g>
    </g>
  </symbol>
  <symbol id="fblank" viewBox="0 0 34 34">
    <defs>
      <style>
        .cls-1,.cls-2{fill:none;stroke:#fff}.cls-1,.cls-2,.cls-3{stroke-miterlimit:10}.cls-1{opacity:.56}.cls-3{fill:#f9f9f9;stroke:#f9f9f9;stroke-width:.25px}
      </style>
    </defs>
    <g id="Layer_2">
      <g id="Layer_1-2">
        <path d="M17 33.5A16.5 16.5 0 1 1 33.5 17 16.52 16.52 0 0 1 17 33.5z" class="cls-1"/>
        <circle cx="17" cy="17" r="14.25" class="cls-2"/>
        <path d="M25.27 9.71l-.34.17-.17-.34a.13.13 0 0 0-.24.12l.17.34-.34.17a.13.13 0 1 0 .12.24l.34-.17.17.34a.13.13 0 0 0 .24-.12l-.22-.35.34-.17a.13.13 0 1 0-.12-.24z" class="cls-3"/>
        <path d="M18.48 28.82l-.59.08-.08-.59a.21.21 0 0 0-.41.05l.08.59-.59.08a.21.21 0 1 0 .05.41l.59-.08.08.59a.21.21 0 0 0 .39-.05l-.08-.59.59-.08a.21.21 0 1 0-.05-.41z" class="cls-3"/>
        <path d="M10.23 7.07l-.59.08-.08-.59a.21.21 0 0 0-.41.05l.08.59-.59.08a.21.21 0 1 0 .05.41l.59-.08.08.59a.21.21 0 0 0 .41-.05l-.07-.6.59-.08a.21.21 0 1 0-.05-.41z" class="cls-3"/>
        <path d="M28.3 23a2.53 2.53 0 0 0-1.87-1.87 2.21 2.21 0 0 0 1.87-1.93 2.36 2.36 0 0 0 1.87 1.87c-1.17.28-1.88.86-1.87 1.93z" class="cls-3"/>
        <path d="M8 24.45a4.49 4.49 0 0 0-3.33-3.33c1.82-.21 2.86-1.4 3.33-3.32a4.19 4.19 0 0 0 3.33 3.33C9.29 21.62 8 22.63 8 24.45z" class="cls-3"/>
      </g>
    </g>
  </symbol>
  <symbol id="fdeer" viewBox="0 0 45 45">
    <defs>
      <style>
        .cls-1{fill:#3d240e}.cls-2{fill:#a67c52}.cls-3{fill:#c69c6d}.cls-4{fill:#8c6239}.cls-5{fill:#fff}.cls-6{fill:#e6e6e6}.cls-7{fill:#39b54a}.cls-8{fill:#754c24}.cls-9{fill:#009245}.cls-10,.cls-11{fill:none;stroke:#fff}.cls-10,.cls-11,.cls-12{stroke-miterlimit:10}.cls-10{opacity:.56}.cls-12{fill:#f9f9f9;stroke:#f9f9f9;stroke-width:.25px}
      </style>
    </defs>
    <g id="Layer_2">
      <g id="Layer_1-2">
        <path d="M11.27 12.58s5.74-1 6.89 2.35c1.32 1.78.86 2.3.86 2.3l-2.24-.8a5.82 5.82 0 0 1-5.51-3.85z" class="cls-1"/>
        <path d="M35 12.81s-5.74-1-6.89 2.35c-1.32 1.78-.86 2.3-.86 2.3l2.24-.8A5.82 5.82 0 0 0 35 12.81z" class="cls-1"/>
        <path d="M23.21 12.64a8.11 8.11 0 0 0-7.35 6.6 14.8 14.8 0 0 0-.52 5.8c-.75.86-4.48 5.51.4 8.38s12.46 3.21 15.79-.57.63-6.77-.52-7.64a14.46 14.46 0 0 0-.29-5.74c-.79-2.87-3.83-6.78-7.51-6.83z" class="cls-1"/>
        <path d="M27.63 25.78c0 1.22-1.55 2.3-4.13 2.3s-4.68-1-4.68-2.21 1.81-2.5 4.39-2.5 4.42 1.19 4.42 2.41z" class="cls-1"/>
        <ellipse cx="20.28" cy="19.35" class="cls-1" rx=".92" ry="1.84"/>
        <ellipse cx="26.2" cy="19.35" class="cls-1" rx=".92" ry="1.84"/>
        <ellipse cx="21.43" cy="25.15" class="cls-1" rx="1.61" ry=".8"/>
        <ellipse cx="26.34" cy="19.81" class="cls-1" rx=".6" ry="1.21"/>
        <ellipse cx="20.39" cy="19.81" class="cls-1" rx=".6" ry="1.21"/>
        <ellipse cx="20.51" cy="20.27" class="cls-1" rx=".37" ry=".75"/>
        <ellipse cx="26.42" cy="20.27" class="cls-1" rx=".37" ry=".75"/>
        <path d="M35 12.81s-5.74-1-6.89 2.35c-1.32 1.78-.86 2.3-.86 2.3l2.24-.8A5.82 5.82 0 0 0 35 12.81z" class="cls-1"/>
        <path d="M24.1 35.63c3 0 5.71-.87 7.39-2.78 3.33-3.79.63-6.77-.52-7.64a14.46 14.46 0 0 0-.29-5.74c-.8-2.87-3.85-6.77-7.52-6.83" class="cls-1"/>
        <path d="M23.63 23.33c2.36.12 4 1.25 4 2.4S26.2 27.94 23.8 28" class="cls-1"/>
        <ellipse cx="26.15" cy="19.35" class="cls-1" rx=".92" ry="1.84"/>
        <ellipse cx="26.3" cy="19.81" class="cls-1" rx=".6" ry="1.21"/>
        <ellipse cx="26.38" cy="20.27" class="cls-1" rx=".37" ry=".75"/>
        <path d="M10.77 12.58s5.74-1 6.89 2.35c1.32 1.78.86 2.3.86 2.3l-2.24-.8a5.82 5.82 0 0 1-5.51-3.85z" class="cls-2"/>
        <path d="M34.5 12.81s-5.74-1-6.89 2.35c-1.32 1.78-.86 2.3-.86 2.3l2.24-.8a5.82 5.82 0 0 0 5.51-3.85z" class="cls-2"/>
        <path d="M22.71 12.64a8.11 8.11 0 0 0-7.35 6.6 14.8 14.8 0 0 0-.52 5.8c-.75.86-4.48 5.51.4 8.38s12.47 3.21 15.76-.58.63-6.77-.52-7.64a14.46 14.46 0 0 0-.29-5.74c-.76-2.86-3.8-6.77-7.48-6.82z" class="cls-3"/>
        <path d="M27.13 25.78c0 1.22-1.55 2.3-4.13 2.3s-4.68-1-4.68-2.21 1.81-2.5 4.39-2.5 4.42 1.19 4.42 2.41z" class="cls-4"/>
        <ellipse cx="19.78" cy="19.35" class="cls-5" rx=".92" ry="1.84"/>
        <ellipse cx="25.7" cy="19.35" class="cls-5" rx=".92" ry="1.84"/>
        <ellipse cx="20.93" cy="25.15" class="cls-6" rx="1.61" ry=".8"/>
        <ellipse cx="25.84" cy="19.81" class="cls-7" rx=".6" ry="1.21"/>
        <ellipse cx="19.89" cy="19.81" class="cls-7" rx=".6" ry="1.21"/>
        <ellipse cx="20.01" cy="20.27" rx=".37" ry=".75"/>
        <ellipse cx="25.92" cy="20.27" rx=".37" ry=".75"/>
        <path d="M34.46 12.81s-5.74-1-6.89 2.35c-1.32 1.78-.86 2.3-.86 2.3l2.24-.8a5.82 5.82 0 0 0 5.51-3.85z" class="cls-8"/>
        <path d="M23.6 35.63c3 0 5.71-.87 7.39-2.78 3.33-3.79.63-6.77-.52-7.64a14.46 14.46 0 0 0-.29-5.74c-.8-2.87-3.85-6.77-7.52-6.83" class="cls-2"/>
        <path d="M23.13 23.33c2.36.12 4 1.25 4 2.4S25.7 27.94 23.3 28" class="cls-8"/>
        <ellipse cx="25.65" cy="19.35" class="cls-5" rx=".92" ry="1.84"/>
        <ellipse cx="25.8" cy="19.81" class="cls-9" rx=".6" ry="1.21"/>
        <ellipse cx="25.88" cy="20.27" rx=".37" ry=".75"/>
        <path d="M22.5 44.5a22 22 0 1 1 22-22 22 22 0 0 1-22 22z" class="cls-10"/>
        <circle cx="22.5" cy="22.5" r="19" class="cls-11"/>
        <path d="M33.52 12.78l-.46.23-.23-.46a.18.18 0 0 0-.32.16l.23.46-.46.23a.18.18 0 1 0 .16.32l.46-.23.23.46a.18.18 0 0 0 .32-.16l-.23-.46.46-.23a.18.18 0 1 0-.16-.32z" class="cls-12"/>
        <path d="M24.48 38.26l-.79.1-.1-.79a.27.27 0 0 0-.54.07l.1.79-.79.1a.27.27 0 1 0 .07.54l.79-.1.1.79a.27.27 0 0 0 .54-.07l-.1-.79.79-.1a.27.27 0 1 0-.07-.54z" class="cls-12"/>
        <path d="M13.48 9.26l-.79.1-.1-.79a.27.27 0 0 0-.54.07l.1.79-.79.1a.27.27 0 1 0 .07.54l.79-.1.1.79a.27.27 0 0 0 .54-.07l-.1-.79.79-.1a.27.27 0 1 0-.07-.54z" class="cls-12"/>
        <path d="M37.56 30.44a3.37 3.37 0 0 0-2.5-2.5 2.94 2.94 0 0 0 2.5-2.5 3.14 3.14 0 0 0 2.5 2.5c-1.56.37-2.5 1.13-2.5 2.5z" class="cls-12"/>
        <path d="M10.56 32.44c-.46-2.1-1.9-3.6-4.44-4.44 2.36-.28 3.75-1.88 4.44-4.44A5.58 5.58 0 0 0 15 28c-2.77.65-4.44 2-4.44 4.44z" class="cls-12"/>
      </g>
    </g>
  </symbol>
  <symbol id="t1" viewBox="0 0 78 78">
    <defs>
      <style>
        .cls-1{fill:#099}.cls-2{fill:#00b7b2}.cls-3{fill:#212121}.cls-24,.cls-3{opacity:.34}.cls-4{fill:#d36318}.cls-5{fill:#f4731c}.cls-6{fill:#d8d8d8}.cls-7{fill:#ededed}.cls-8{fill:#2b2b2b}.cls-9{fill:#ff9292}.cls-10{fill:#f27d2f}.cls-11,.cls-22{fill:#724720}.cls-12{fill:#bc5d1d}.cls-13{fill:#495750}.cls-14{fill:#ccc}.cls-15{fill:#e8e8e8}.cls-16{fill:#33493e}.cls-17{fill:#84572f}.cls-18{fill:#686b72}.cls-19{opacity:.74}.cls-20{fill:#efefef}.cls-21{opacity:.41}.cls-22{opacity:.69}.cls-23{fill:#ef874d}.cls-25{fill:#512600}
      </style>
    </defs>
    <g id="Layer_2">
      <g id="Layer_1-2">
        <path d="M66.58 11.42a39 39 0 1 0-55.16 55.16 39 39 0 1 0 55.16-55.16zM39 72.54a33.54 33.54 0 0 1-23.71-57.25 33.54 33.54 0 0 1 47.42 47.42A33.31 33.31 0 0 1 39 72.54z" class="cls-1"/>
        <path d="M66.31 11.69a38.63 38.63 0 1 0-54.62 54.62 38.63 38.63 0 1 0 54.62-54.62zM39 72.91A33.91 33.91 0 0 1 15 15a33.91 33.91 0 1 1 48 48 33.69 33.69 0 0 1-24 9.91z" class="cls-1"/>
        <path d="M65.7 11.43a37.76 37.76 0 1 0-53.4 53.4 37.76 37.76 0 1 0 53.4-53.4zm-2.11 51.29a34.78 34.78 0 0 1-49.18-49.18 34.78 34.78 0 0 1 49.18 49.18z" class="cls-2"/>
        <path d="M78 39a39 39 0 0 1-39 39v-5.46a33.54 33.54 0 0 0 23.71-57.25A33.31 33.31 0 0 0 39 5.46V0a39 39 0 0 1 39 39z" class="cls-3"/>
        <path d="M74.85 25.71a7.54 7.54 0 0 1-1.07 1.36l-1.62 9.58-.52 3.08-.64 3.58-.82 4.44-.68 3.68-.26 1.39L69 54l-.77 4.17-.23 1.15-.83 4.47V64l-.29 1.57v.06l-.4 2.18a1.12 1.12 0 0 1-1.12 1.12H12.93a1.12 1.12 0 0 1-.89-.44 1.11 1.11 0 0 1-.23-.68l-.42-2.26-.27-1.55-.87-4.71-.25-1.16L9.26 54 9 52.82l-.26-1.39-.68-3.68-.82-4.44-.66-3.57-2.09-12.66c-4.75-4.77-2.73-16 13.29-10.93h.63a32.15 32.15 0 0 1 20.34-7.33h.93a32.15 32.15 0 0 1 20.17 7.33h.63a24.55 24.55 0 0 1 7.14-1.29c8.38-.05 9.84 6.63 7.23 10.85z" class="cls-4"/>
        <path d="M13.06 68.44l-.44-2.36-.28-1.53-.87-4.71-.22-1.19s-3.32-13.71-3.4-18.38c-.05-3.27 2-12.95 2-12.95l-4.44-.38a6.41 6.41 0 0 1-1.49-6.69c.91-2.2 3.27-3.42 6.64-3.42a23.2 23.2 0 0 1 6.88 1.24l.18.06h1.27l.34-.28a31.1 31.1 0 0 1 19.68-7h.5a31.1 31.1 0 0 1 19.7 7l.34.28h1.27l.18-.06a23.21 23.21 0 0 1 6.88-1.24c3.12 0 5.33 1 6.39 2.91a6.09 6.09 0 0 1-.35 6.05 6.3 6.3 0 0 1-.9 1.14l-4.09-.24s1.72 10.15 1.6 13.57C70.26 44.94 67 58.65 67 58.65l-.22 1.19-.85 4.62-.31 1.7-.42 2.28z" class="cls-5"/>
        <path d="M47.38 68.93H30.12c1.71-2.15 4.94-3.6 8.63-3.6s6.92 1.45 8.63 3.6z" class="cls-6"/>
        <path d="M47.38 68.93H30.12c1.71-1.71 4.94-2.86 8.63-2.86s6.92 1.16 8.63 2.86z" class="cls-7"/>
        <path d="M43.6 63.34c0 2.06-2.17 3.73-4.84 3.73s-4.84-1.67-4.84-3.73a3 3 0 0 1 .37-1.44c0 1.87 2 3.39 4.47 3.39s4.43-1.51 4.47-3.39a3 3 0 0 1 .37 1.44z" class="cls-8"/>
        <path d="M43.6 62.85c0 2.06-2.17 3.73-4.84 3.73s-4.84-1.67-4.84-3.73a3 3 0 0 1 .37-1.44c0 1.87 2 3.39 4.47 3.39s4.43-1.51 4.47-3.39a3 3 0 0 1 .37 1.44z" class="cls-9"/>
        <ellipse cx="39.19" cy="34.59" class="cls-10" rx="26.64" ry="20.68"/>
        <path d="M46.28 21.92a6.62 6.62 0 0 0 7.16-3.51 7.57 7.57 0 0 1-6.72 2 7.37 7.37 0 0 1-6-5.08 6.56 6.56 0 0 0 5.56 6.59z" class="cls-8"/>
        <path d="M67.89 16.07a7.33 7.33 0 0 0-7 5.33 8.39 8.39 0 0 1 6.89-3.55 8.16 8.16 0 0 1 7.58 4.26 7.26 7.26 0 0 0-7.47-6.04z" class="cls-11"/>
        <path d="M10.38 16.07a7.33 7.33 0 0 0-7 5.33 8.39 8.39 0 0 1 6.89-3.55 8.16 8.16 0 0 1 7.58 4.26 7.26 7.26 0 0 0-7.47-6.04z" class="cls-11"/>
        <path d="M45.8 27.74a6.62 6.62 0 0 0 7.2-3.52 7.57 7.57 0 0 1-6.72 2 7.37 7.37 0 0 1-6-5.08 6.56 6.56 0 0 0 5.52 6.6z" class="cls-8"/>
        <path d="M46.17 34a6.62 6.62 0 0 0 7.16-3.51 7.57 7.57 0 0 1-6.72 2 7.37 7.37 0 0 1-6-5.08A6.56 6.56 0 0 0 46.17 34z" class="cls-8"/>
        <path d="M31.13 21.55A6.62 6.62 0 0 1 24 18a7.57 7.57 0 0 0 6.72 2 7.37 7.37 0 0 0 6-5.08 6.56 6.56 0 0 1-5.59 6.63z" class="cls-8"/>
        <path d="M31.61 27.36a6.62 6.62 0 0 1-7.16-3.51 7.57 7.57 0 0 0 6.72 2 7.37 7.37 0 0 0 6-5.08 6.56 6.56 0 0 1-5.56 6.59z" class="cls-8"/>
        <path d="M31.72 60.61a1.1 1.1 0 0 0-.19-.75 9.06 9.06 0 1 0-15.29-9.73 1.68 1.68 0 0 1-.87-.26 1.56 1.56 0 0 1-.29-.94v-.3l-1.53-.33-.12.27a3.46 3.46 0 0 0 .35 3.43c.24.31.67.79 1.29 1.42a9.12 9.12 0 0 0-.11 1.4 9 9 0 0 0 2.8 6.55l.7.67.89-.36a10.55 10.55 0 0 1 2.82-.7 11.33 11.33 0 0 1 1.24-.07A10.68 10.68 0 0 1 28.18 62l.87.44.43-.35 1.79 1.06.28.18 1-1.29-.23-.24a2 2 0 0 1-.6-1.19z" class="cls-12"/>
        <path d="M46.68 60.61a1.1 1.1 0 0 1 .19-.75 9.06 9.06 0 1 1 15.29-9.73 1.68 1.68 0 0 0 .87-.26 1.56 1.56 0 0 0 .29-.94v-.3l1.53-.33.12.27a3.46 3.46 0 0 1-.35 3.43c-.24.31-.67.79-1.29 1.42a9.12 9.12 0 0 1 .11 1.4 9 9 0 0 1-2.8 6.55l-.7.67-.94-.41a10.55 10.55 0 0 0-2.82-.7 11.33 11.33 0 0 0-1.18-.07 10.68 10.68 0 0 0-4.77 1.09l-.87.44-.44-.39-1.79 1.06-.28.18-1-1.29.23-.24a2 2 0 0 0 .6-1.1z" class="cls-12"/>
        <path d="M31.24 33.64a6.62 6.62 0 0 1-7.16-3.51 7.57 7.57 0 0 0 6.72 2 7.37 7.37 0 0 0 6-5.08 6.56 6.56 0 0 1-5.56 6.59z" class="cls-8"/>
        <path d="M46.58 62.6s1-1 .87-1.86 12.79-9.56 12.79-9.56 2.27.4 3.23-.37a2.36 2.36 0 0 0 .62-1.61 2.58 2.58 0 0 1-.25 2.48c-.49.63-1.86 2-1.86 2S47.57 62 46.58 62.6z" class="cls-8"/>
        <path d="M49.06 61.35a8.2 8.2 0 1 1 10.88-.4l-.29.28-.37-.15a11.41 11.41 0 0 0-3-.76 12.19 12.19 0 0 0-1.34-.07 11.56 11.56 0 0 0-5.16 1.18l-.36.18z" class="cls-8"/>
        <path d="M54.4 47.94a7.58 7.58 0 0 0-4.82 13.42A12.16 12.16 0 0 1 55 60.11a12.77 12.77 0 0 1 1.41.08 12 12 0 0 1 3.21.8 7.57 7.57 0 0 0-5.24-13z" class="cls-13"/>
        <path d="M62 55.52A7.55 7.55 0 0 1 59.64 61a12 12 0 0 0-3.21-.8L47 54a7.58 7.58 0 0 1 15 1.53z" class="cls-14"/>
        <path d="M59.37 59.83a13.12 13.12 0 0 0-2.6-.6l-8.66-5.68a6.58 6.58 0 0 1 12.87 2 6.51 6.51 0 0 1-1.61 4.28z" class="cls-15"/>
        <path d="M57.64 54.74c-.86-.09-1.5-.41-1.5-.78s.33-.51.84-.65A5.71 5.71 0 0 0 47 54a7.58 7.58 0 0 0 2.6 7.37 12.16 12.16 0 0 1 5.4-1.26 12.77 12.77 0 0 1 1.41.08 5.72 5.72 0 0 0 1.21-5.45z" class="cls-13"/>
        <path d="M49.7 60.48a6.84 6.84 0 0 1-2-6.25 5 5 0 0 1 4.47-2.8c1.43 0 4.61 7.13 3.94 8h-1.08a13 13 0 0 0-5.33 1.05z" class="cls-16"/>
        <path d="M49.25 61.7l-.11-.22a13.19 13.19 0 0 1 5.69-1.37 13.35 13.35 0 0 1 4.86.79l-.09.23a13.38 13.38 0 0 0-10.35.57z" class="cls-17"/>
        <path d="M53.53 51.42c-.25.12.12.62.25.87A17.65 17.65 0 0 1 55.39 55c.12.62 1 2.61 1.12 3.11s.5.25.5.25a6.23 6.23 0 0 0 .37-2 3.89 3.89 0 0 0-1-1.37c-.25-.25-.87-.87-.87-1.37a1.82 1.82 0 0 0-.74-1.62c-.62-.33-.99-.7-1.24-.58z" class="cls-18"/>
        <circle cx="52.04" cy="56.14" r="3.85" class="cls-8"/>
        <g class="cls-19">
          <circle cx="55.39" cy="56.26" r="1.24" class="cls-20"/>
        </g>
        <g class="cls-21">
          <circle cx="53.41" cy="57.51" r=".62" class="cls-20"/>
        </g>
        <path d="M56.09 38.45a4.59 4.59 0 0 1-3.68 7.26z" class="cls-8"/>
        <path d="M50.47 39.23a3.71 3.71 0 0 1 .39 6.56z" class="cls-8"/>
        <path d="M47.62 43.09A2.19 2.19 0 0 1 50 44.34a2.84 2.84 0 0 1 .41 1.58z" class="cls-8"/>
        <path d="M69.23 52.67L69 54.06a6.36 6.36 0 0 1-4.42-1 7.18 7.18 0 0 0 4.65-.39z" class="cls-8"/>
        <path d="M68 59.37l-.22 1.19a6.59 6.59 0 0 1-1.42-.84 6.23 6.23 0 0 1-1.83-2.27A6.78 6.78 0 0 0 66.81 59a7.46 7.46 0 0 0 1.19.37z" class="cls-8"/>
        <path d="M70.73 44.55L69.91 49a4.75 4.75 0 0 1-3.61 1.94 5.58 5.58 0 0 0 3.3-4 5.43 5.43 0 0 0-1.68-5.54 4.66 4.66 0 0 1 2.81 3.15z" class="cls-8"/>
        <path d="M31.85 62.6s-1-1-.87-1.86-12.79-9.56-12.79-9.56-2.27.4-3.23-.37a2.36 2.36 0 0 1-.62-1.61 2.58 2.58 0 0 0 .25 2.48c.49.63 1.86 2 1.86 2S30.86 62 31.85 62.6z" class="cls-8"/>
        <path d="M29.37 61.35a8.2 8.2 0 1 0-10.88-.4l.29.28.37-.15a11.41 11.41 0 0 1 3-.76 12.19 12.19 0 0 1 1.34-.07 11.56 11.56 0 0 1 5.16 1.18l.36.18z" class="cls-8"/>
        <path d="M24 47.94a7.58 7.58 0 0 1 4.82 13.42 12.16 12.16 0 0 0-5.44-1.25 12.77 12.77 0 0 0-1.41.08 12 12 0 0 0-3.21.8 7.57 7.57 0 0 1 5.24-13z" class="cls-13"/>
        <path d="M16.45 55.52A7.55 7.55 0 0 0 18.79 61a12 12 0 0 1 3.21-.8l9.45-6.2a7.58 7.58 0 0 0-15 1.53z" class="cls-14"/>
        <path d="M19.05 59.83a13.12 13.12 0 0 1 2.6-.6l8.66-5.68a6.58 6.58 0 0 0-12.87 2 6.51 6.51 0 0 0 1.61 4.28z" class="cls-15"/>
        <path d="M20.79 54.74c.86-.09 1.5-.41 1.5-.78s-.33-.51-.84-.65a5.71 5.71 0 0 1 10 .67 7.58 7.58 0 0 1-2.6 7.37 12.16 12.16 0 0 0-5.44-1.25 12.77 12.77 0 0 0-1.41.08 5.72 5.72 0 0 1-1.21-5.45z" class="cls-13"/>
        <path d="M28.73 60.48a6.84 6.84 0 0 0 2-6.25 5 5 0 0 0-4.47-2.8c-1.43 0-4.61 7.13-3.94 8h1.08a13 13 0 0 1 5.33 1.05z" class="cls-16"/>
        <path d="M29.18 61.7a13.38 13.38 0 0 0-10.35-.57l-.09-.23a13.34 13.34 0 0 1 4.86-.79 13.19 13.19 0 0 1 5.69 1.37z" class="cls-17"/>
        <path d="M24.9 51.42c.25.12-.12.62-.25.87A17.65 17.65 0 0 0 23 55c-.12.62-1 2.61-1.12 3.11s-.5.25-.5.25a6.23 6.23 0 0 1-.37-2A3.89 3.89 0 0 1 22 55c.25-.25.87-.87.87-1.37a1.82 1.82 0 0 1 .79-1.63c.62-.33.99-.7 1.24-.58z" class="cls-18"/>
        <circle cx="26.39" cy="56.14" r="3.85" class="cls-8"/>
        <g class="cls-19">
          <circle cx="23.03" cy="56.26" r="1.24" class="cls-20"/>
        </g>
        <g class="cls-21">
          <circle cx="25.02" cy="57.51" r=".62" class="cls-20"/>
        </g>
        <path d="M26 45.71a4.59 4.59 0 0 1-3.68-7.26z" class="cls-8"/>
        <path d="M27.57 45.79a3.71 3.71 0 0 1 .43-6.56z" class="cls-8"/>
        <path d="M28.05 45.92a2.84 2.84 0 0 1 .41-1.58 2.19 2.19 0 0 1 2.34-1.25z" class="cls-8"/>
        <path d="M9.08 52.67l.26 1.39a6.36 6.36 0 0 0 4.42-1 7.18 7.18 0 0 1-4.68-.39z" class="cls-8"/>
        <path d="M10.32 59.37l.22 1.19a6.59 6.59 0 0 0 1.46-.84 6.23 6.23 0 0 0 1.83-2.27A6.78 6.78 0 0 1 11.5 59a7.46 7.46 0 0 1-1.18.37z" class="cls-8"/>
        <path d="M7.58 44.55L8.4 49a4.75 4.75 0 0 0 3.6 1.93 5.58 5.58 0 0 1-3.3-4 5.43 5.43 0 0 1 1.68-5.54 4.66 4.66 0 0 0-2.8 3.16z" class="cls-8"/>
        <rect width=".62" height="2.11" x="38.32" y="66.82" class="cls-8"/>
        <path d="M74.85 25.71a7.54 7.54 0 0 1-1.07 1.36l-1.62 9.58-.74-.65s-2.73-6.09-4.6-7.58a71 71 0 0 1-5.22-5.09s2.86-3.6 5.34-3.85a7.16 7.16 0 0 1 6.83 3 10.54 10.54 0 0 1 1.08 3.23z" class="cls-22"/>
        <ellipse cx="23.91" cy="63.1" class="cls-23" rx="5.03" ry="1.86"/>
        <ellipse cx="54.84" cy="63.1" class="cls-23" rx="5.03" ry="1.86"/>
        <path d="M3.48 25.71a7.54 7.54 0 0 0 1.07 1.36l1.62 9.58.74-.65s2.73-6.09 4.6-7.58a71 71 0 0 0 5.22-5.09s-2.86-3.6-5.34-3.85a7.16 7.16 0 0 0-6.83 3 10.54 10.54 0 0 0-1.08 3.23z" class="cls-22"/>
        <g class="cls-24">
          <path d="M74.82 25.56l-.09.15a7.54 7.54 0 0 1-1.07 1.36L72 36.57v.09l-.52 3.08-.66 3.57-.19 1-.63 3.44-.26 1.42-.42 2.27-.24 1.29v.1L68.89 54v.12l-.75 4.05-.22 1.19-.22 1.17-.7 3.41.11.06-.29 1.57-.14.06-.4 2.18a1.12 1.12 0 0 1-1.12 1.12H38.75V8.82h.93a32.15 32.15 0 0 1 20 7.33h.63a24.27 24.27 0 0 1 7.26-1.29c8.25.02 9.71 6.49 7.25 10.7z" class="cls-25"/>
        </g>
        <circle cx="42.6" cy="67.57" r=".37" class="cls-8"/>
        <circle cx="45.21" cy="67.57" r=".37" class="cls-8"/>
        <circle cx="45.21" cy="65.58" r=".37" class="cls-8"/>
        <circle cx="47.82" cy="67.57" r=".37" class="cls-8"/>
        <circle cx="30.06" cy="67.57" r=".37" class="cls-8"/>
        <circle cx="32.67" cy="67.57" r=".37" class="cls-8"/>
        <circle cx="32.67" cy="65.58" r=".37" class="cls-8"/>
        <circle cx="35.27" cy="67.57" r=".37" class="cls-8"/>
      </g>
    </g>
  </symbol>
  <symbol id="t2" viewBox="0 0 78 78">
    <defs>
      <style>
        .cls-1{fill:#099}.cls-2{fill:#00b7b2}.cls-3{fill:#212121}.cls-26,.cls-3{opacity:.34}.cls-4{fill:#d36318}.cls-5{fill:#f4731c}.cls-6{fill:#992005;stroke:#f4731c;stroke-miterlimit:10}.cls-7{fill:#d8d8d8}.cls-8{fill:#e2e1e0}.cls-9{fill:#fff}.cls-10{fill:#2b2b2b}.cls-11{fill:#ff9292}.cls-12{fill:#f27d2f}.cls-13,.cls-24{fill:#724720}.cls-14{fill:#bc5d1d}.cls-15{fill:#495750}.cls-16{fill:#ccc}.cls-17{fill:#e8e8e8}.cls-18{fill:#33493e}.cls-19{fill:#84572f}.cls-20{fill:#686b72}.cls-21{opacity:.74}.cls-22{fill:#efefef}.cls-23{opacity:.41}.cls-24{opacity:.69}.cls-25{fill:#ef874d}.cls-27{fill:#512600}
      </style>
    </defs>
    <g id="Layer_2">
      <g id="Layer_1-2">
        <path d="M66.58 11.42a39 39 0 1 0-55.16 55.16 39 39 0 1 0 55.16-55.16zM39 72.54a33.54 33.54 0 0 1-23.71-57.25 33.54 33.54 0 0 1 47.42 47.42A33.31 33.31 0 0 1 39 72.54z" class="cls-1"/>
        <path d="M66.31 11.69a38.63 38.63 0 1 0-54.62 54.62 38.63 38.63 0 1 0 54.62-54.62zM39 72.91A33.91 33.91 0 0 1 15 15a33.91 33.91 0 1 1 48 48 33.69 33.69 0 0 1-24 9.91z" class="cls-1"/>
        <path d="M65.7 11.43a37.76 37.76 0 1 0-53.4 53.4 37.76 37.76 0 1 0 53.4-53.4zm-2.11 51.29a34.78 34.78 0 0 1-49.18-49.18 34.78 34.78 0 0 1 49.18 49.18z" class="cls-2"/>
        <path d="M78 39a39 39 0 0 1-39 39v-5.46a33.54 33.54 0 0 0 23.71-57.25A33.31 33.31 0 0 0 39 5.46V0a39 39 0 0 1 39 39z" class="cls-3"/>
        <path d="M74.85 25.71a7.54 7.54 0 0 1-1.07 1.36l-1.62 9.58-.52 3.08-.64 3.58-.82 4.44-.68 3.68-.26 1.39L69 54l-.77 4.17-.23 1.15-.83 4.47V64l-.29 1.57v.06l-.4 2.18a1.12 1.12 0 0 1-1.12 1.12H12.93a1.12 1.12 0 0 1-.89-.44 1.11 1.11 0 0 1-.23-.68l-.42-2.26-.27-1.55-.87-4.71-.25-1.16L9.26 54 9 52.82l-.26-1.39-.68-3.68-.82-4.44-.66-3.57-2.09-12.66c-4.75-4.77-2.73-16 13.29-10.93h.63a32.15 32.15 0 0 1 20.34-7.33h.93a32.15 32.15 0 0 1 20.17 7.33h.63a24.55 24.55 0 0 1 7.14-1.29c8.38-.05 9.84 6.63 7.23 10.85z" class="cls-4"/>
        <path d="M13.06 68.44l-.44-2.36-.28-1.53-.87-4.71-.22-1.19s-3.32-13.71-3.4-18.38c-.05-3.27 2-12.95 2-12.95l-4.44-.38a6.41 6.41 0 0 1-1.49-6.69c.91-2.2 3.27-3.42 6.64-3.42a23.2 23.2 0 0 1 6.88 1.24l.18.06h1.27l.34-.28a31.1 31.1 0 0 1 19.68-7h.5a31.1 31.1 0 0 1 19.7 7l.34.28h1.27l.18-.06a23.21 23.21 0 0 1 6.88-1.24c3.12 0 5.33 1 6.39 2.91a6.09 6.09 0 0 1-.35 6.05 6.3 6.3 0 0 1-.9 1.14l-4.09-.24s1.72 10.15 1.6 13.57C70.26 44.94 67 58.65 67 58.65l-.22 1.19-.85 4.62-.31 1.7-.42 2.28z" class="cls-5"/>
        <path d="M47.78 64.93V67a5 5 0 0 1-5 5h-8a5 5 0 0 1-5-5v-2.07a6.81 6.81 0 0 1 .93-.93h16.14a6.81 6.81 0 0 1 .93.93z" class="cls-6"/>
        <path d="M47.78 64.93h-18a6.81 6.81 0 0 1 .93-.93 12.49 12.49 0 0 1 8.07-2.67A12.49 12.49 0 0 1 46.85 64a6.81 6.81 0 0 1 .93.93z" class="cls-7"/>
        <path d="M32.28 68c-.41 0-1.5-4-1.5-4h3s-1.08 4-1.5 4z" class="cls-8"/>
        <path d="M45.28 68c-.41 0-1.5-4-1.5-4h3s-1.08 4-1.5 4z" class="cls-8"/>
        <path d="M47.78 64.93h-18c1.78-1.71 5.15-2.86 9-2.86s7.22 1.16 9 2.86z" class="cls-9"/>
        <path d="M43.6 59.34c0 2.06-2.17 3.73-4.84 3.73s-4.84-1.67-4.84-3.73a3 3 0 0 1 .37-1.44c0 1.87 2 3.39 4.47 3.39s4.43-1.51 4.47-3.39a3 3 0 0 1 .37 1.44z" class="cls-10"/>
        <path d="M43.6 58.85c0 2.06-2.17 3.73-4.84 3.73s-4.84-1.67-4.84-3.73a3 3 0 0 1 .37-1.44c0 1.87 2 3.39 4.47 3.39s4.43-1.51 4.47-3.39a3 3 0 0 1 .37 1.44z" class="cls-11"/>
        <ellipse cx="39.19" cy="34.59" class="cls-12" rx="26.64" ry="20.68"/>
        <path d="M46.28 21.92a6.62 6.62 0 0 0 7.16-3.51 7.57 7.57 0 0 1-6.72 2 7.37 7.37 0 0 1-6-5.08 6.56 6.56 0 0 0 5.56 6.59z" class="cls-10"/>
        <path d="M67.89 16.07a7.33 7.33 0 0 0-7 5.33 8.39 8.39 0 0 1 6.89-3.55 8.16 8.16 0 0 1 7.58 4.26 7.26 7.26 0 0 0-7.47-6.04z" class="cls-13"/>
        <path d="M10.38 16.07a7.33 7.33 0 0 0-7 5.33 8.39 8.39 0 0 1 6.89-3.55 8.16 8.16 0 0 1 7.58 4.26 7.26 7.26 0 0 0-7.47-6.04z" class="cls-13"/>
        <path d="M45.8 27.74a6.62 6.62 0 0 0 7.2-3.52 7.57 7.57 0 0 1-6.72 2 7.37 7.37 0 0 1-6-5.08 6.56 6.56 0 0 0 5.52 6.6z" class="cls-10"/>
        <path d="M46.17 34a6.62 6.62 0 0 0 7.16-3.51 7.57 7.57 0 0 1-6.72 2 7.37 7.37 0 0 1-6-5.08A6.56 6.56 0 0 0 46.17 34z" class="cls-10"/>
        <path d="M31.13 21.55A6.62 6.62 0 0 1 24 18a7.57 7.57 0 0 0 6.72 2 7.37 7.37 0 0 0 6-5.08 6.56 6.56 0 0 1-5.59 6.63z" class="cls-10"/>
        <path d="M31.61 27.36a6.62 6.62 0 0 1-7.16-3.51 7.57 7.57 0 0 0 6.72 2 7.37 7.37 0 0 0 6-5.08 6.56 6.56 0 0 1-5.56 6.59z" class="cls-10"/>
        <path d="M31.72 58.61a1.1 1.1 0 0 0-.19-.75 9.06 9.06 0 1 0-15.29-9.73 1.68 1.68 0 0 1-.87-.26 1.56 1.56 0 0 1-.29-.94v-.3l-1.53-.33-.12.27a3.46 3.46 0 0 0 .35 3.43c.24.31.67.79 1.29 1.42a9.12 9.12 0 0 0-.11 1.4 9 9 0 0 0 2.8 6.55l.7.67.89-.36a10.55 10.55 0 0 1 2.82-.7 11.33 11.33 0 0 1 1.24-.07A10.68 10.68 0 0 1 28.18 60l.87.44.43-.35 1.79 1.06.28.18 1-1.29-.23-.24a2 2 0 0 1-.6-1.19z" class="cls-14"/>
        <path d="M46.68 58.61a1.1 1.1 0 0 1 .19-.75 9.06 9.06 0 1 1 15.29-9.73 1.68 1.68 0 0 0 .87-.26 1.56 1.56 0 0 0 .29-.94v-.3l1.53-.33.12.27a3.46 3.46 0 0 1-.35 3.43c-.24.31-.67.79-1.29 1.42a9.12 9.12 0 0 1 .11 1.4 9 9 0 0 1-2.8 6.55l-.7.67-.94-.41a10.55 10.55 0 0 0-2.82-.7 11.33 11.33 0 0 0-1.18-.07 10.68 10.68 0 0 0-4.77 1.09l-.87.44-.44-.39-1.79 1.06-.28.18-1-1.29.23-.24a2 2 0 0 0 .6-1.1z" class="cls-14"/>
        <path d="M31.24 33.64a6.62 6.62 0 0 1-7.16-3.51 7.57 7.57 0 0 0 6.72 2 7.37 7.37 0 0 0 6-5.08 6.56 6.56 0 0 1-5.56 6.59z" class="cls-10"/>
        <path d="M46.58 60.6s1-1 .87-1.86 12.79-9.56 12.79-9.56 2.27.4 3.23-.37a2.36 2.36 0 0 0 .62-1.61 2.58 2.58 0 0 1-.25 2.48c-.49.63-1.86 2-1.86 2S47.57 60 46.58 60.6z" class="cls-10"/>
        <path d="M49.06 59.35a8.2 8.2 0 1 1 10.88-.4l-.29.28-.37-.15a11.41 11.41 0 0 0-3-.76 12.19 12.19 0 0 0-1.34-.07 11.56 11.56 0 0 0-5.16 1.18l-.36.18z" class="cls-10"/>
        <path d="M54.4 45.94a7.58 7.58 0 0 0-4.82 13.42A12.16 12.16 0 0 1 55 58.11a12.77 12.77 0 0 1 1.41.08 12 12 0 0 1 3.21.8 7.57 7.57 0 0 0-5.24-13z" class="cls-15"/>
        <path d="M62 53.52A7.55 7.55 0 0 1 59.64 59a12 12 0 0 0-3.21-.8L47 52a7.58 7.58 0 0 1 15 1.53z" class="cls-16"/>
        <path d="M59.37 57.83a13.12 13.12 0 0 0-2.6-.6l-8.66-5.68a6.58 6.58 0 0 1 12.87 2 6.51 6.51 0 0 1-1.61 4.28z" class="cls-17"/>
        <path d="M57.64 52.74c-.86-.09-1.5-.41-1.5-.78s.33-.51.84-.65A5.71 5.71 0 0 0 47 52a7.58 7.58 0 0 0 2.6 7.37 12.16 12.16 0 0 1 5.4-1.26 12.77 12.77 0 0 1 1.41.08 5.72 5.72 0 0 0 1.21-5.45z" class="cls-15"/>
        <path d="M49.7 58.48a6.84 6.84 0 0 1-2-6.25 5 5 0 0 1 4.47-2.8c1.43 0 4.61 7.13 3.94 8h-1.08a13 13 0 0 0-5.33 1.05z" class="cls-18"/>
        <path d="M49.25 59.7l-.11-.22a13.19 13.19 0 0 1 5.69-1.37 13.35 13.35 0 0 1 4.86.79l-.09.23a13.38 13.38 0 0 0-10.35.57z" class="cls-19"/>
        <path d="M53.53 49.42c-.25.12.12.62.25.87A17.65 17.65 0 0 1 55.39 53c.12.62 1 2.61 1.12 3.11s.5.25.5.25a6.23 6.23 0 0 0 .37-2 3.89 3.89 0 0 0-1-1.37c-.25-.25-.87-.87-.87-1.37a1.82 1.82 0 0 0-.74-1.62c-.62-.33-.99-.7-1.24-.58z" class="cls-20"/>
        <circle cx="52.04" cy="54.14" r="3.85" class="cls-10"/>
        <g class="cls-21">
          <circle cx="55.39" cy="54.26" r="1.24" class="cls-22"/>
        </g>
        <g class="cls-23">
          <circle cx="53.41" cy="55.51" r=".62" class="cls-22"/>
        </g>
        <path d="M56.09 36.45a4.59 4.59 0 0 1-3.68 7.26z" class="cls-10"/>
        <path d="M50.47 37.23a3.71 3.71 0 0 1 .39 6.56z" class="cls-10"/>
        <path d="M47.62 41.09A2.19 2.19 0 0 1 50 42.34a2.84 2.84 0 0 1 .41 1.58z" class="cls-10"/>
        <path d="M69.23 50.67L69 52.06a6.36 6.36 0 0 1-4.42-1 7.18 7.18 0 0 0 4.65-.39z" class="cls-10"/>
        <path d="M68 57.37l-.22 1.19a6.59 6.59 0 0 1-1.42-.84 6.23 6.23 0 0 1-1.83-2.27A6.78 6.78 0 0 0 66.81 57a7.46 7.46 0 0 0 1.19.37z" class="cls-10"/>
        <path d="M70.73 42.55L69.91 47a4.75 4.75 0 0 1-3.61 1.94 5.58 5.58 0 0 0 3.3-4 5.43 5.43 0 0 0-1.68-5.54 4.66 4.66 0 0 1 2.81 3.15z" class="cls-10"/>
        <path d="M31.85 60.6s-1-1-.87-1.86-12.79-9.56-12.79-9.56-2.27.4-3.23-.37a2.36 2.36 0 0 1-.62-1.61 2.58 2.58 0 0 0 .25 2.48c.49.63 1.86 2 1.86 2S30.86 60 31.85 60.6z" class="cls-10"/>
        <path d="M29.37 59.35a8.2 8.2 0 1 0-10.88-.4l.29.28.37-.15a11.41 11.41 0 0 1 3-.76 12.19 12.19 0 0 1 1.34-.07 11.56 11.56 0 0 1 5.16 1.18l.36.18z" class="cls-10"/>
        <path d="M24 45.94a7.58 7.58 0 0 1 4.82 13.42 12.16 12.16 0 0 0-5.44-1.25 12.77 12.77 0 0 0-1.41.08 12 12 0 0 0-3.21.8 7.57 7.57 0 0 1 5.24-13z" class="cls-15"/>
        <path d="M16.45 53.52A7.55 7.55 0 0 0 18.79 59a12 12 0 0 1 3.21-.8l9.45-6.2a7.58 7.58 0 0 0-15 1.53z" class="cls-16"/>
        <path d="M19.05 57.83a13.12 13.12 0 0 1 2.6-.6l8.66-5.68a6.58 6.58 0 0 0-12.87 2 6.51 6.51 0 0 0 1.61 4.28z" class="cls-17"/>
        <path d="M20.79 52.74c.86-.09 1.5-.41 1.5-.78s-.33-.51-.84-.65a5.71 5.71 0 0 1 10 .67 7.58 7.58 0 0 1-2.6 7.37 12.16 12.16 0 0 0-5.44-1.25 12.77 12.77 0 0 0-1.41.08 5.72 5.72 0 0 1-1.21-5.45z" class="cls-15"/>
        <path d="M28.73 58.48a6.84 6.84 0 0 0 2-6.25 5 5 0 0 0-4.47-2.8c-1.43 0-4.61 7.13-3.94 8h1.08a13 13 0 0 1 5.33 1.05z" class="cls-18"/>
        <path d="M29.18 59.7a13.38 13.38 0 0 0-10.35-.57l-.09-.23a13.34 13.34 0 0 1 4.86-.79 13.19 13.19 0 0 1 5.69 1.37z" class="cls-19"/>
        <path d="M24.9 49.42c.25.12-.12.62-.25.87A17.65 17.65 0 0 0 23 53c-.12.62-1 2.61-1.12 3.11s-.5.25-.5.25a6.23 6.23 0 0 1-.37-2A3.89 3.89 0 0 1 22 53c.25-.25.87-.87.87-1.37a1.82 1.82 0 0 1 .79-1.63c.62-.33.99-.7 1.24-.58z" class="cls-20"/>
        <circle cx="26.39" cy="54.14" r="3.85" class="cls-10"/>
        <g class="cls-21">
          <circle cx="23.03" cy="54.26" r="1.24" class="cls-22"/>
        </g>
        <g class="cls-23">
          <circle cx="25.02" cy="55.51" r=".62" class="cls-22"/>
        </g>
        <path d="M26 43.71a4.59 4.59 0 0 1-3.68-7.26z" class="cls-10"/>
        <path d="M27.57 43.79a3.71 3.71 0 0 1 .43-6.56z" class="cls-10"/>
        <path d="M28.05 43.92a2.84 2.84 0 0 1 .41-1.58 2.19 2.19 0 0 1 2.34-1.25z" class="cls-10"/>
        <path d="M9.08 50.67l.26 1.39a6.36 6.36 0 0 0 4.42-1 7.18 7.18 0 0 1-4.68-.39z" class="cls-10"/>
        <path d="M10.32 57.37l.22 1.19a6.59 6.59 0 0 0 1.46-.84 6.23 6.23 0 0 0 1.83-2.27A6.78 6.78 0 0 1 11.5 57a7.46 7.46 0 0 1-1.18.37z" class="cls-10"/>
        <path d="M7.58 42.55L8.4 47a4.75 4.75 0 0 0 3.6 1.93 5.58 5.58 0 0 1-3.3-4 5.43 5.43 0 0 1 1.68-5.54 4.66 4.66 0 0 0-2.8 3.16z" class="cls-10"/>
        <rect width=".62" height="2.11" x="38.32" y="62.82" class="cls-10"/>
        <path d="M74.85 25.71a7.54 7.54 0 0 1-1.07 1.36l-1.62 9.58-.74-.65s-2.73-6.09-4.6-7.58a71 71 0 0 1-5.22-5.09s2.86-3.6 5.34-3.85a7.16 7.16 0 0 1 6.83 3 10.54 10.54 0 0 1 1.08 3.23z" class="cls-24"/>
        <ellipse cx="23.91" cy="62.1" class="cls-25" rx="5.03" ry="1.86"/>
        <ellipse cx="54.84" cy="62.1" class="cls-25" rx="5.03" ry="1.86"/>
        <path d="M3.48 25.71a7.54 7.54 0 0 0 1.07 1.36l1.62 9.58.74-.65s2.73-6.09 4.6-7.58a71 71 0 0 0 5.22-5.09s-2.86-3.6-5.34-3.85a7.16 7.16 0 0 0-6.83 3 10.54 10.54 0 0 0-1.08 3.23z" class="cls-24"/>
        <g class="cls-26">
          <path d="M74.82 25.56l-.09.15a7.54 7.54 0 0 1-1.07 1.36L72 36.57v.09l-.52 3.08-.66 3.57-.19 1-.63 3.44-.26 1.42-.42 2.27-.24 1.29v.1L68.89 54v.12l-.75 4.05-.22 1.19-.22 1.17-.7 3.41.11.06-.29 1.57-.14.06-.4 2.18a1.12 1.12 0 0 1-1.12 1.12H47.91c-.94 3-4.12 4.21-9.12 4.07V8.82h.93a32.15 32.15 0 0 1 20 7.33h.63a24.27 24.27 0 0 1 7.26-1.29c8.21.02 9.67 6.49 7.21 10.7z" class="cls-27"/>
        </g>
        <circle cx="45.03" cy="64.6" r=".34" class="cls-10"/>
        <circle cx="42.03" cy="63.76" r=".34" class="cls-10"/>
        <circle cx="33.44" cy="64.6" r=".34" class="cls-10"/>
        <circle cx="35.44" cy="63.76" r=".34" class="cls-10"/>
      </g>
    </g>
  </symbol>
  <symbol id="t3" viewBox="0 0 78 78">
    <defs>
      <style>
        .cls-1{fill:#099}.cls-2{fill:#00b7b2}.cls-3{fill:#212121}.cls-25,.cls-3{opacity:.34}.cls-4{fill:#d36318}.cls-5{fill:#f4731c}.cls-6{fill:#d8d8d8}.cls-7{fill:#ededed}.cls-8{fill:#2b2b2b}.cls-9{fill:#ff9292}.cls-10{fill:#f27d2f}.cls-11,.cls-23{fill:#724720}.cls-12{fill:#bc5d1d}.cls-13{fill:#495750}.cls-14{fill:#ccc}.cls-15{fill:#e8e8e8}.cls-16{fill:#33493e}.cls-17{fill:#84572f}.cls-18{fill:#686b72}.cls-19{opacity:.74}.cls-20{fill:#efefef}.cls-21{opacity:.41}.cls-22,.cls-27{fill:#1dcaf2}.cls-22{opacity:.3}.cls-23{opacity:.69}.cls-24{fill:#ef874d}.cls-26{fill:#512600}
      </style>
    </defs>
    <g id="Layer_2">
      <g id="Layer_1-2">
        <path d="M66.58 11.42a39 39 0 1 0-55.16 55.16 39 39 0 1 0 55.16-55.16zM39 72.54a33.54 33.54 0 0 1-23.71-57.25 33.54 33.54 0 0 1 47.42 47.42A33.31 33.31 0 0 1 39 72.54z" class="cls-1"/>
        <path d="M66.31 11.69a38.63 38.63 0 1 0-54.62 54.62 38.63 38.63 0 1 0 54.62-54.62zM39 72.91A33.91 33.91 0 0 1 15 15a33.91 33.91 0 1 1 48 48 33.69 33.69 0 0 1-24 9.91z" class="cls-1"/>
        <path d="M65.7 11.43a37.76 37.76 0 1 0-53.4 53.4 37.76 37.76 0 1 0 53.4-53.4zm-2.11 51.29a34.78 34.78 0 0 1-49.18-49.18 34.78 34.78 0 0 1 49.18 49.18z" class="cls-2"/>
        <path d="M78 39a39 39 0 0 1-39 39v-5.46a33.54 33.54 0 0 0 23.71-57.25A33.31 33.31 0 0 0 39 5.46V0a39 39 0 0 1 39 39z" class="cls-3"/>
        <path d="M75 26.75a7.42 7.42 0 0 1-1.07 1.34l-1.61 9.41-.52 3-.66 3.5-.82 4.35-.68 3.65-.26 1.37-.21 1.12-.77 4.09-.22 1.17-.82 4.38v.21L67 65.87v.06l-.4 2.14a1.11 1.11 0 0 1-1.12 1.1H13.22a1.12 1.12 0 0 1-.88-.43 1.08 1.08 0 0 1-.23-.67l-.42-2.22-.28-1.5-.87-4.62-.22-1.17-.77-4.09-.21-1.12L9.08 52l-.68-3.62L7.58 44l-.66-3.5-2.13-12.41C0 23.41 2.06 12.37 18.05 17.37h.63A32.42 32.42 0 0 1 39 10.18h.93A32.41 32.41 0 0 1 60 17.37h.63a24.87 24.87 0 0 1 7.12-1.27c8.43-.04 9.85 6.51 7.25 10.65z" class="cls-4"/>
        <path d="M13.34 68.67l-.44-2.35-.28-1.52-.87-4.69-.22-1.18s-3.31-13.65-3.38-18.3c-.05-3.26 2-12.89 2-12.89l-4.43-.38a6.37 6.37 0 0 1-1.54-6.66c.91-2.19 3.27-3.4 6.62-3.4a23.2 23.2 0 0 1 6.87 1.23l.18.06h1.26l.34-.28a31.08 31.08 0 0 1 19.64-7h.5a31.08 31.08 0 0 1 19.65 7l.34.28h1.26l.18-.06a23.2 23.2 0 0 1 6.87-1.23c3.11 0 5.32 1 6.38 2.9a6.05 6.05 0 0 1-.35 6 6.27 6.27 0 0 1-.9 1.13L69 27.12s1.71 10.11 1.6 13.51c-.15 4.65-3.39 18.3-3.39 18.3L67 60.11l-.85 4.6-.35 1.69-.42 2.27z" class="cls-5"/>
        <path d="M47.59 69.17H30.37c1.7-2.17 4.92-3.59 8.63-3.59s6.89 1.42 8.59 3.59z" class="cls-6"/>
        <path d="M47.59 69.17H30.37c1.71-1.7 4.93-2.85 8.61-2.85s6.91 1.15 8.61 2.85z" class="cls-7"/>
        <path d="M43.81 63.59c0 2.05-2.16 3.72-4.83 3.72s-4.83-1.66-4.83-3.72a3 3 0 0 1 .37-1.43c0 1.87 2 3.38 4.46 3.38s4.42-1.54 4.46-3.38a3 3 0 0 1 .37 1.43z" class="cls-8"/>
        <path d="M43.81 63.1c0 2.05-2.16 3.72-4.83 3.72s-4.83-1.66-4.83-3.72a3 3 0 0 1 .37-1.43c0 1.87 2 3.38 4.46 3.38s4.42-1.51 4.46-3.38a3 3 0 0 1 .37 1.43z" class="cls-9"/>
        <ellipse cx="39.41" cy="34.9" class="cls-10" rx="26.59" ry="20.64"/>
        <path d="M46.49 22.26a6.6 6.6 0 0 0 7.14-3.51 7.56 7.56 0 0 1-6.71 2 7.35 7.35 0 0 1-6-5.07 6.54 6.54 0 0 0 5.57 6.58z" class="cls-8"/>
        <path d="M75.47 22.86a6.74 6.74 0 0 1-1.05 2.76A7.13 7.13 0 0 1 73 27.21a7.56 7.56 0 0 1-4.92 1.68 7.89 7.89 0 0 1-.83-.06 7.52 7.52 0 0 1-3.68-1.51A7.23 7.23 0 0 1 62 25.63l-.11-.17a6.83 6.83 0 0 1-.89-1.89 7.29 7.29 0 0 0 1.34 1.51A8.31 8.31 0 0 0 65 26.6a9.17 9.17 0 0 0 2.88.51 9.07 9.07 0 0 0 3.43-.6 8.12 8.12 0 0 0 2.57-1.58 7 7 0 0 0 1.59-2.07z" class="cls-11"/>
        <path d="M17.84 23.23a6.84 6.84 0 0 1-2 3.91 7.47 7.47 0 0 1-4.33 2.06 7.89 7.89 0 0 1-1.07.05 7.52 7.52 0 0 1-5.21-2.19 7 7 0 0 1-1-1.33 6.79 6.79 0 0 1-.76-1.8 7.16 7.16 0 0 0 1 1.22 8 8 0 0 0 1.67 1.23 9.13 9.13 0 0 0 8.66 0 7.79 7.79 0 0 0 1.95-1.52 6.82 6.82 0 0 0 1.09-1.63z" class="cls-11"/>
        <path d="M46 28.06a6.6 6.6 0 0 0 7.14-3.51 7.56 7.56 0 0 1-6.71 2 7.35 7.35 0 0 1-6-5.07A6.54 6.54 0 0 0 46 28.06z" class="cls-8"/>
        <path d="M46.38 34.32a6.6 6.6 0 0 0 7.14-3.51 7.56 7.56 0 0 1-6.71 2 7.35 7.35 0 0 1-6-5.07 6.54 6.54 0 0 0 5.57 6.58z" class="cls-8"/>
        <path d="M31.37 21.89a6.6 6.6 0 0 1-7.14-3.51 7.56 7.56 0 0 0 6.71 2 7.35 7.35 0 0 0 6-5.07 6.54 6.54 0 0 1-5.57 6.58z" class="cls-8"/>
        <path d="M31.85 27.69a6.6 6.6 0 0 1-7.14-3.51 7.56 7.56 0 0 0 6.71 2 7.35 7.35 0 0 0 6-5.07 6.54 6.54 0 0 1-5.57 6.58z" class="cls-8"/>
        <path d="M32 60.86a1.09 1.09 0 0 0-.19-.75 9 9 0 1 0-15.26-9.71 1.68 1.68 0 0 1-.86-.26 1.55 1.55 0 0 1-.29-.94v-.3l-1.53-.33-.12.27a3.45 3.45 0 0 0 .35 3.37c.24.31.67.78 1.29 1.42a9.1 9.1 0 0 0-.11 1.4A9 9 0 0 0 18 61.58l.69.66.89-.36a10.53 10.53 0 0 1 2.81-.7 11.31 11.31 0 0 1 1.24-.07 10.66 10.66 0 0 1 4.76 1.09l.87.44.43-.35 1.79 1.05.28.18 1-1.29-.17-.23a2 2 0 0 1-.59-1.14z" class="cls-12"/>
        <path d="M46.89 60.86a1.09 1.09 0 0 1 .19-.75 9 9 0 1 1 15.26-9.71 1.68 1.68 0 0 0 .86-.26 1.55 1.55 0 0 0 .29-.94v-.3l1.51-.32.12.27a3.45 3.45 0 0 1-.35 3.37c-.24.31-.67.78-1.29 1.42a9.1 9.1 0 0 1 .11 1.4 9 9 0 0 1-2.79 6.53l-.69.66-.89-.36a10.53 10.53 0 0 0-2.81-.7 11.31 11.31 0 0 0-1.24-.07 10.66 10.66 0 0 0-4.76 1.09l-.87.44-.43-.35-1.79 1.05-.28.18-1-1.29.23-.23a2 2 0 0 0 .62-1.13z" class="cls-12"/>
        <path d="M31.48 33.95a6.6 6.6 0 0 1-7.14-3.51 7.56 7.56 0 0 0 6.71 2 7.35 7.35 0 0 0 6-5.07 6.54 6.54 0 0 1-5.57 6.58z" class="cls-8"/>
        <path d="M46.79 62.85s1-.93.87-1.74 12.77-8.94 12.77-8.94 2.26.37 3.22-.35a2.12 2.12 0 0 0 .62-1.51 2.28 2.28 0 0 1-.27 2.32c-.49.59-1.86 1.86-1.86 1.86s-14.36 7.78-15.35 8.36z" class="cls-8"/>
        <path d="M49.27 61.69a6.77 6.77 0 0 1-3-5.49 6.24 6.24 0 0 1 .17-1.44c.77-3.29 4.14-5.68 8-5.68 4.51 0 8.18 3.19 8.18 7.11a6.64 6.64 0 0 1-2.52 5.14l-.29.24-.37-.13a12.8 12.8 0 0 0-3-.66c-.44 0-.89-.06-1.34-.06a13 13 0 0 0-5.15 1l-.36.16z" class="cls-8"/>
        <path d="M54.6 50c-3.65 0-6.7 2.27-7.41 5.29a5.84 5.84 0 0 0-.19 1.29 6.33 6.33 0 0 0 2.75 5.11 13.56 13.56 0 0 1 5.43-1.09c.48 0 .94 0 1.4.07a13.43 13.43 0 0 1 3.21.7 6.24 6.24 0 0 0 2.33-4.78c.04-3.67-3.35-6.59-7.52-6.59z" class="cls-13"/>
        <path d="M62.16 56.64a6.18 6.18 0 0 1-2.33 4.75 13.51 13.51 0 0 0-3.21-.69l-9.43-5.38c.71-3 3.75-5.25 7.41-5.25 4.17-.01 7.56 2.93 7.56 6.57z" class="cls-14"/>
        <path d="M59.56 60.38a14.77 14.77 0 0 0-2.56-.52l-8.64-4.93a6.56 6.56 0 0 1 6.27-4c3.62 0 6.57 2.56 6.57 5.71a5.24 5.24 0 0 1-1.64 3.74z" class="cls-15"/>
        <path d="M57.83 55.5c-.86-.09-1.49-.38-1.49-.73s.33-.47.84-.61a5.79 5.79 0 0 0-4.81-2.47 5.73 5.73 0 0 0-5.17 3.1 6.65 6.65 0 0 0-.2 1.44 6.9 6.9 0 0 0 2.75 5.46 12.81 12.81 0 0 1 5.43-1.17 13.59 13.59 0 0 1 1.4.07A5.13 5.13 0 0 0 58.07 57a5 5 0 0 0-.24-1.5z" class="cls-13"/>
        <path d="M49.91 60.87a6.18 6.18 0 0 1-2.13-4.64A6 6 0 0 1 47.9 55a5 5 0 0 1 4.46-2.62c1.42 0 4.6 6.66 3.93 7.47h-1.08a13.76 13.76 0 0 0-5.3 1.02z" class="cls-16"/>
        <path d="M49.46 61.95l-.11-.22A13.17 13.17 0 0 1 55 60.36a13.33 13.33 0 0 1 4.85.79l-.09.23a13.36 13.36 0 0 0-10.33.56z" class="cls-17"/>
        <path d="M53.73 52.4c-.25.12.12.58.25.81a16.31 16.31 0 0 1 1.61 2.55c.12.58 1 2.44 1.12 2.9a.31.31 0 0 0 .5.23 5.51 5.51 0 0 0 .36-1.89 3.66 3.66 0 0 0-1-1.28c-.25-.23-.87-.81-.87-1.28A1.66 1.66 0 0 0 55 53c-.65-.37-1-.72-1.27-.6z" class="cls-18"/>
        <ellipse cx="52.24" cy="56.81" class="cls-8" rx="3.84" ry="3.6"/>
        <g class="cls-19">
          <ellipse cx="55.59" cy="56.93" class="cls-20" rx="1.24" ry="1.16"/>
        </g>
        <g class="cls-21">
          <circle cx="53.61" cy="57.77" r=".62" class="cls-20"/>
        </g>
        <path d="M55.2 40.4a4.58 4.58 0 0 0-6 5.46z" class="cls-8"/>
        <path d="M55.93 46a3.7 3.7 0 0 0-6.42 1.36z" class="cls-8"/>
        <path d="M69.39 52.94l-.26 1.39a6.35 6.35 0 0 1-4.41-1 7.17 7.17 0 0 0 4.67-.39z" class="cls-8"/>
        <path d="M68.16 59.63l-.22 1.19a6.57 6.57 0 0 1-1.41-.82 6.22 6.22 0 0 1-1.83-2.26 6.77 6.77 0 0 0 2.3 1.51 7.45 7.45 0 0 0 1.16.38z" class="cls-8"/>
        <path d="M70.89 44.84l-.82 4.43a4.74 4.74 0 0 1-3.6 1.94 5.57 5.57 0 0 0 3.29-4 5.42 5.42 0 0 0-1.67-5.53 4.65 4.65 0 0 1 2.8 3.16z" class="cls-8"/>
        <path d="M32.1 62.6s-1-.91-.87-1.7-12.77-8.72-12.77-8.72-2.26.36-3.22-.34a2 2 0 0 1-.62-1.47 2.18 2.18 0 0 0 .25 2.26c.49.57 1.86 1.81 1.86 1.81S31.11 62 32.1 62.6z" class="cls-8"/>
        <path d="M29.62 61.47a6.7 6.7 0 0 0 3-5.44 6.15 6.15 0 0 0-.17-1.43c-.77-3.26-4.14-5.63-8-5.63-4.51 0-8.18 3.17-8.18 7.06a6.57 6.57 0 0 0 2.52 5.1l.29.24.37-.13a12.89 12.89 0 0 1 3-.65c.44 0 .89-.06 1.34-.06a13.07 13.07 0 0 1 5.15 1l.36.16z" class="cls-8"/>
        <path d="M24.29 49.84c3.65 0 6.7 2.25 7.41 5.24a5.74 5.74 0 0 1 .15 1.33 6.26 6.26 0 0 1-2.75 5.07 13.65 13.65 0 0 0-5.43-1.08c-.48 0-.94 0-1.4.07a13.52 13.52 0 0 0-3.21.69 6.17 6.17 0 0 1-2.33-4.75c0-3.63 3.38-6.57 7.56-6.57z" class="cls-13"/>
        <path d="M16.73 56.45a6.11 6.11 0 0 0 2.33 4.71 13.6 13.6 0 0 1 3.21-.69l9.43-5.34c-.71-3-3.75-5.21-7.41-5.21-4.18.01-7.56 2.93-7.56 6.53z" class="cls-14"/>
        <path d="M19.33 60.17a14.87 14.87 0 0 1 2.59-.52l8.64-4.9a6.56 6.56 0 0 0-6.27-4c-3.62 0-6.57 2.54-6.57 5.67a5.18 5.18 0 0 0 1.61 3.75z" class="cls-15"/>
        <path d="M21.06 55.44c.86-.09 1.49-.37 1.49-.71s-.33-.46-.84-.59a5.84 5.84 0 0 1 4.81-2.41 5.75 5.75 0 0 1 5.17 3 6.33 6.33 0 0 1 .15 1.39 6.67 6.67 0 0 1-2.75 5.33 13.09 13.09 0 0 0-5.43-1.14 13.94 13.94 0 0 0-1.4.07 4.94 4.94 0 0 1-1.45-3.47 4.78 4.78 0 0 1 .25-1.47z" class="cls-13"/>
        <path d="M29 60.67a6 6 0 0 0 2.13-4.52A5.73 5.73 0 0 0 31 55a5 5 0 0 0-4.46-2.56c-1.42 0-4.6 6.5-3.93 7.28h1.08a14.07 14.07 0 0 1 5.31.95z" class="cls-16"/>
        <path d="M29.42 61.95a13.36 13.36 0 0 0-10.33-.56l-.09-.24a13.31 13.31 0 0 1 4.85-.79 13.17 13.17 0 0 1 5.67 1.37z" class="cls-17"/>
        <path d="M25.16 52.41c.25.11-.12.57-.25.79a15.85 15.85 0 0 0-1.61 2.5c-.12.57-1 2.38-1.12 2.83a.32.32 0 0 1-.5.23 5.25 5.25 0 0 1-.37-1.81 3.59 3.59 0 0 1 1-1.25c.25-.23.87-.79.87-1.25a1.6 1.6 0 0 1 .74-1.45c.62-.36.99-.7 1.24-.59z" class="cls-18"/>
        <ellipse cx="26.64" cy="56.71" class="cls-8" rx="3.84" ry="3.51"/>
        <g class="cls-19">
          <circle cx="23.3" cy="56.53" r="1.24" class="cls-20"/>
        </g>
        <g class="cls-21">
          <circle cx="25.28" cy="57.77" r=".62" class="cls-20"/>
        </g>
        <path d="M9.37 53.55l.26 1.27a6.83 6.83 0 0 0 4.37-.93 7.8 7.8 0 0 1-4.63-.34z" class="cls-8"/>
        <path d="M10.6 59.63l.22 1.19a6.57 6.57 0 0 0 1.42-.82 6.22 6.22 0 0 0 1.83-2.26 6.77 6.77 0 0 1-2.28 1.53 7.45 7.45 0 0 1-1.19.36z" class="cls-8"/>
        <path d="M7.87 44.84l.82 4.43a4.74 4.74 0 0 0 3.6 1.94 5.57 5.57 0 0 1-3.29-4 5.42 5.42 0 0 1 1.67-5.53 4.65 4.65 0 0 0-2.8 3.16z" class="cls-8"/>
        <path d="M25 40.46a4.58 4.58 0 0 1 5.62 5.86z" class="cls-8"/>
        <path d="M23.86 46a3.7 3.7 0 0 1 6.31 1.8z" class="cls-8"/>
        <circle cx="29.5" cy="56.53" r="1.18" class="cls-22" transform="rotate(-63.46 29.5 56.525)"/>
        <circle cx="25.82" cy="57.19" r="1.24" class="cls-22"/>
        <circle cx="22.87" cy="59.25" r="1.24" class="cls-22"/>
        <circle cx="27.19" cy="59.77" r="1.24" class="cls-22" transform="rotate(-68.88 27.2 59.775)"/>
        <circle cx="29.56" cy="60.62" r=".99" class="cls-22"/>
        <rect width=".62" height="2.11" x="38.55" y="67.06" class="cls-8"/>
        <path d="M75 27a6 6 0 0 1-1.07.85l-1.12 6.25-1.24-.65s-2.5-3.5-4.35-4.61L67 28.7c-1.6-.8-4.31-2.59-5-3.07l-.18-.12.07-.05.52-.38A8.31 8.31 0 0 0 65 26.6a9.17 9.17 0 0 0 2.88.51 9.07 9.07 0 0 0 3.43-.6 8.12 8.12 0 0 0 2.57-1.58 3.11 3.11 0 0 1 .49.65A7.26 7.26 0 0 1 75 27z" class="cls-23"/>
        <ellipse cx="24.17" cy="63.34" class="cls-24" rx="5.02" ry="1.86"/>
        <ellipse cx="55.03" cy="63.34" class="cls-24" rx="5.02" ry="1.86"/>
        <path d="M17 25.14s-3.35 2.73-5.21 3.86l-.3.2c-1.84 1.39-4.29 5.54-4.29 5.54l-1.2.35L4.85 28a6.25 6.25 0 0 1-1.07-1 11.24 11.24 0 0 1 .39-1.19 6.09 6.09 0 0 1 .26-.58 8 8 0 0 0 1.67 1.23 9.13 9.13 0 0 0 8.66 0 7.79 7.79 0 0 0 1.95-1.52z" class="cls-23"/>
        <g class="cls-25">
          <path d="M75.22 26.69l-.09.15a7.41 7.41 0 0 1-1.07 1.34l-1.6 9.29v.09l-.52 3-.66 3.49-.19 1-.63 3.34-.26 1.39-.44 2.22-.24 1.26v.1l-.22 1.14v.12l-.75 4-.22 1.16-.22 1.14-.63 3.35.11.06-.29 1.54-.14.06-.4 2.14a1.11 1.11 0 0 1-1.12 1.09H39.23V10.3h.93a32.45 32.45 0 0 1 20 7.18h.63A24.63 24.63 0 0 1 68 16.21c8.22.02 9.68 6.36 7.22 10.48z" class="cls-26"/>
        </g>
        <circle cx="42.82" cy="67.81" r=".37" class="cls-8"/>
        <circle cx="45.43" cy="67.81" r=".37" class="cls-8"/>
        <circle cx="45.43" cy="65.82" r=".37" class="cls-8"/>
        <circle cx="48.03" cy="67.81" r=".37" class="cls-8"/>
        <circle cx="30.3" cy="67.81" r=".37" class="cls-8"/>
        <circle cx="32.91" cy="67.81" r=".37" class="cls-8"/>
        <circle cx="32.91" cy="65.82" r=".37" class="cls-8"/>
        <circle cx="35.51" cy="67.81" r=".37" class="cls-8"/>
        <rect width="4.9" height="3.22" x="16.3" y="59.5" class="cls-27" rx="1.61" ry="1.61"/>
        <rect width="5.41" height="3.22" x="59.35" y="59.63" class="cls-27" rx="1.61" ry="1.61"/>
        <circle cx="49.58" cy="57.5" r="1.18" class="cls-22"/>
        <circle cx="53.25" cy="57.31" r="1.24" class="cls-22"/>
        <circle cx="56.21" cy="59.38" r="1.24" class="cls-22"/>
        <circle cx="51.88" cy="59.9" r="1.24" class="cls-22" transform="rotate(-21.12 51.865 59.874)"/>
        <circle cx="49.52" cy="60.74" r=".99" class="cls-22"/>
      </g>
    </g>
  </symbol>
  <symbol id="t4" viewBox="0 0 78 78">
    <defs>
      <style>
        .cls-1{fill:#099}.cls-2{fill:#00b7b2}.cls-3{fill:#212121}.cls-25,.cls-3{opacity:.34}.cls-4{fill:#d36318}.cls-5{fill:#f4731c}.cls-6{fill:#d8d8d8}.cls-7{fill:#ededed}.cls-8{fill:#2b2b2b}.cls-9{fill:#ff9292}.cls-10{fill:#f27d2f}.cls-11,.cls-23{fill:#724720}.cls-12{fill:#bc5d1d}.cls-13{fill:#495750}.cls-14{fill:#ccc}.cls-15{fill:#e8e8e8}.cls-16{fill:#33493e}.cls-17{fill:#84572f}.cls-18{fill:#686b72}.cls-19{opacity:.74}.cls-20{fill:#efefef}.cls-21{opacity:.41}.cls-22,.cls-27{fill:#1dcaf2}.cls-22{opacity:.3}.cls-23{opacity:.69}.cls-24{fill:#ef874d}.cls-26{fill:#512600}
      </style>
    </defs>
    <g id="Layer_2">
      <g id="Layer_1-2">
        <path d="M66.58 11.42a39 39 0 1 0-55.16 55.16 39 39 0 1 0 55.16-55.16zM39 72.54a33.54 33.54 0 0 1-23.71-57.25 33.54 33.54 0 0 1 47.42 47.42A33.31 33.31 0 0 1 39 72.54z" class="cls-1"/>
        <path d="M66.31 11.69a38.63 38.63 0 1 0-54.62 54.62 38.63 38.63 0 1 0 54.62-54.62zM39 72.91A33.91 33.91 0 0 1 15 15a33.91 33.91 0 1 1 48 48 33.69 33.69 0 0 1-24 9.91z" class="cls-1"/>
        <path d="M65.7 11.43a37.76 37.76 0 1 0-53.4 53.4 37.76 37.76 0 1 0 53.4-53.4zm-2.11 51.29a34.78 34.78 0 0 1-49.18-49.18 34.78 34.78 0 0 1 49.18 49.18z" class="cls-2"/>
        <path d="M78 39a39 39 0 0 1-39 39v-5.46a33.54 33.54 0 0 0 23.71-57.25A33.31 33.31 0 0 0 39 5.46V0a39 39 0 0 1 39 39z" class="cls-3"/>
        <path d="M75 26.75a7.42 7.42 0 0 1-1.07 1.34l-1.61 9.41-.52 3-.66 3.5-.82 4.35-.68 3.65-.26 1.37-.21 1.12-.77 4.09-.22 1.17-.82 4.38v.21L67 65.87v.06l-.4 2.14a1.11 1.11 0 0 1-1.12 1.1H13.22a1.12 1.12 0 0 1-.88-.43 1.08 1.08 0 0 1-.23-.67l-.42-2.22-.28-1.5-.87-4.62-.22-1.17-.77-4.09-.21-1.12L9.08 52l-.68-3.62L7.58 44l-.66-3.5-2.13-12.41C0 23.41 2.06 12.37 18.05 17.37h.63A32.42 32.42 0 0 1 39 10.18h.93A32.41 32.41 0 0 1 60 17.37h.63a24.87 24.87 0 0 1 7.12-1.27c8.43-.04 9.85 6.51 7.25 10.65z" class="cls-4"/>
        <path d="M13.34 68.67l-.44-2.35-.28-1.52-.87-4.69-.22-1.18s-3.31-13.65-3.38-18.3c-.05-3.26 2-12.89 2-12.89l-4.43-.38a6.37 6.37 0 0 1-1.54-6.66c.91-2.19 3.27-3.4 6.62-3.4a23.2 23.2 0 0 1 6.87 1.23l.18.06h1.26l.34-.28a31.08 31.08 0 0 1 19.64-7h.5a31.08 31.08 0 0 1 19.65 7l.34.28h1.26l.18-.06a23.2 23.2 0 0 1 6.87-1.23c3.11 0 5.32 1 6.38 2.9a6.05 6.05 0 0 1-.35 6 6.27 6.27 0 0 1-.9 1.13L69 27.12s1.71 10.11 1.6 13.51c-.15 4.65-3.39 18.3-3.39 18.3L67 60.11l-.85 4.6-.35 1.69-.42 2.27z" class="cls-5"/>
        <path d="M47.59 69.17H30.37c1.7-2.17 4.92-3.59 8.63-3.59s6.89 1.42 8.59 3.59z" class="cls-6"/>
        <path d="M47.59 69.17H30.37c1.71-1.7 4.93-2.85 8.61-2.85s6.91 1.15 8.61 2.85z" class="cls-7"/>
        <path d="M43.81 63.59c0 2.05-2.16 3.72-4.83 3.72s-4.83-1.66-4.83-3.72a3 3 0 0 1 .37-1.43c0 1.87 2 3.38 4.46 3.38s4.42-1.54 4.46-3.38a3 3 0 0 1 .37 1.43z" class="cls-8"/>
        <path d="M43.81 63.1c0 2.05-2.16 3.72-4.83 3.72s-4.83-1.66-4.83-3.72a3 3 0 0 1 .37-1.43c0 1.87 2 3.38 4.46 3.38s4.42-1.51 4.46-3.38a3 3 0 0 1 .37 1.43z" class="cls-9"/>
        <ellipse cx="39.41" cy="34.9" class="cls-10" rx="26.59" ry="20.64"/>
        <path d="M46.49 22.26a6.6 6.6 0 0 0 7.14-3.51 7.56 7.56 0 0 1-6.71 2 7.35 7.35 0 0 1-6-5.07 6.54 6.54 0 0 0 5.57 6.58z" class="cls-8"/>
        <path d="M75.47 22.86a6.74 6.74 0 0 1-1.05 2.76A7.13 7.13 0 0 1 73 27.21a7.56 7.56 0 0 1-4.92 1.68 7.89 7.89 0 0 1-.83-.06 7.52 7.52 0 0 1-3.68-1.51A7.23 7.23 0 0 1 62 25.63l-.11-.17a6.83 6.83 0 0 1-.89-1.89 7.29 7.29 0 0 0 1.34 1.51A8.31 8.31 0 0 0 65 26.6a9.17 9.17 0 0 0 2.88.51 9.07 9.07 0 0 0 3.43-.6 8.12 8.12 0 0 0 2.57-1.58 7 7 0 0 0 1.59-2.07z" class="cls-11"/>
        <path d="M17.84 23.23a6.84 6.84 0 0 1-2 3.91 7.47 7.47 0 0 1-4.33 2.06 7.89 7.89 0 0 1-1.07.05 7.52 7.52 0 0 1-5.21-2.19 7 7 0 0 1-1-1.33 6.79 6.79 0 0 1-.76-1.8 7.16 7.16 0 0 0 1 1.22 8 8 0 0 0 1.67 1.23 9.13 9.13 0 0 0 8.66 0 7.79 7.79 0 0 0 1.95-1.52 6.82 6.82 0 0 0 1.09-1.63z" class="cls-11"/>
        <path d="M46 28.06a6.6 6.6 0 0 0 7.14-3.51 7.56 7.56 0 0 1-6.71 2 7.35 7.35 0 0 1-6-5.07A6.54 6.54 0 0 0 46 28.06z" class="cls-8"/>
        <path d="M46.38 34.32a6.6 6.6 0 0 0 7.14-3.51 7.56 7.56 0 0 1-6.71 2 7.35 7.35 0 0 1-6-5.07 6.54 6.54 0 0 0 5.57 6.58z" class="cls-8"/>
        <path d="M31.37 21.89a6.6 6.6 0 0 1-7.14-3.51 7.56 7.56 0 0 0 6.71 2 7.35 7.35 0 0 0 6-5.07 6.54 6.54 0 0 1-5.57 6.58z" class="cls-8"/>
        <path d="M31.85 27.69a6.6 6.6 0 0 1-7.14-3.51 7.56 7.56 0 0 0 6.71 2 7.35 7.35 0 0 0 6-5.07 6.54 6.54 0 0 1-5.57 6.58z" class="cls-8"/>
        <path d="M32 60.86a1.09 1.09 0 0 0-.19-.75 9 9 0 1 0-15.26-9.71 1.68 1.68 0 0 1-.86-.26 1.55 1.55 0 0 1-.29-.94v-.3l-1.53-.33-.12.27a3.45 3.45 0 0 0 .35 3.37c.24.31.67.78 1.29 1.42a9.1 9.1 0 0 0-.11 1.4A9 9 0 0 0 18 61.58l.69.66.89-.36a10.53 10.53 0 0 1 2.81-.7 11.31 11.31 0 0 1 1.24-.07 10.66 10.66 0 0 1 4.76 1.09l.87.44.43-.35 1.79 1.05.28.18 1-1.29-.17-.23a2 2 0 0 1-.59-1.14z" class="cls-12"/>
        <path d="M46.89 60.86a1.09 1.09 0 0 1 .19-.75 9 9 0 1 1 15.26-9.71 1.68 1.68 0 0 0 .86-.26 1.55 1.55 0 0 0 .29-.94v-.3l1.51-.32.12.27a3.45 3.45 0 0 1-.35 3.37c-.24.31-.67.78-1.29 1.42a9.1 9.1 0 0 1 .11 1.4 9 9 0 0 1-2.79 6.53l-.69.66-.89-.36a10.53 10.53 0 0 0-2.81-.7 11.31 11.31 0 0 0-1.24-.07 10.66 10.66 0 0 0-4.76 1.09l-.87.44-.43-.35-1.79 1.05-.28.18-1-1.29.23-.23a2 2 0 0 0 .62-1.13z" class="cls-12"/>
        <path d="M31.48 33.95a6.6 6.6 0 0 1-7.14-3.51 7.56 7.56 0 0 0 6.71 2 7.35 7.35 0 0 0 6-5.07 6.54 6.54 0 0 1-5.57 6.58z" class="cls-8"/>
        <path d="M46.79 62.85s1-.93.87-1.74 12.77-8.94 12.77-8.94 2.26.37 3.22-.35a2.12 2.12 0 0 0 .62-1.51 2.28 2.28 0 0 1-.27 2.32c-.49.59-1.86 1.86-1.86 1.86s-14.36 7.78-15.35 8.36z" class="cls-8"/>
        <path d="M49.27 61.69a6.77 6.77 0 0 1-3-5.49 6.24 6.24 0 0 1 .17-1.44c.77-3.29 4.14-5.68 8-5.68 4.51 0 8.18 3.19 8.18 7.11a6.64 6.64 0 0 1-2.52 5.14l-.29.24-.37-.13a12.8 12.8 0 0 0-3-.66c-.44 0-.89-.06-1.34-.06a13 13 0 0 0-5.15 1l-.36.16z" class="cls-8"/>
        <path d="M54.6 50c-3.65 0-6.7 2.27-7.41 5.29a5.84 5.84 0 0 0-.19 1.29 6.33 6.33 0 0 0 2.75 5.11 13.56 13.56 0 0 1 5.43-1.09c.48 0 .94 0 1.4.07a13.43 13.43 0 0 1 3.21.7 6.24 6.24 0 0 0 2.33-4.78c.04-3.67-3.35-6.59-7.52-6.59z" class="cls-13"/>
        <path d="M62.16 56.64a6.18 6.18 0 0 1-2.33 4.75 13.51 13.51 0 0 0-3.21-.69l-9.43-5.38c.71-3 3.75-5.25 7.41-5.25 4.17-.01 7.56 2.93 7.56 6.57z" class="cls-14"/>
        <path d="M59.56 60.38a14.77 14.77 0 0 0-2.56-.52l-8.64-4.93a6.56 6.56 0 0 1 6.27-4c3.62 0 6.57 2.56 6.57 5.71a5.24 5.24 0 0 1-1.64 3.74z" class="cls-15"/>
        <path d="M57.83 55.5c-.86-.09-1.49-.38-1.49-.73s.33-.47.84-.61a5.79 5.79 0 0 0-4.81-2.47 5.73 5.73 0 0 0-5.17 3.1 6.65 6.65 0 0 0-.2 1.44 6.9 6.9 0 0 0 2.75 5.46 12.81 12.81 0 0 1 5.43-1.17 13.59 13.59 0 0 1 1.4.07A5.13 5.13 0 0 0 58.07 57a5 5 0 0 0-.24-1.5z" class="cls-13"/>
        <path d="M49.91 60.87a6.18 6.18 0 0 1-2.13-4.64A6 6 0 0 1 47.9 55a5 5 0 0 1 4.46-2.62c1.42 0 4.6 6.66 3.93 7.47h-1.08a13.76 13.76 0 0 0-5.3 1.02z" class="cls-16"/>
        <path d="M49.46 61.95l-.11-.22A13.17 13.17 0 0 1 55 60.36a13.33 13.33 0 0 1 4.85.79l-.09.23a13.36 13.36 0 0 0-10.33.56z" class="cls-17"/>
        <path d="M53.73 52.4c-.25.12.12.58.25.81a16.31 16.31 0 0 1 1.61 2.55c.12.58 1 2.44 1.12 2.9a.31.31 0 0 0 .5.23 5.51 5.51 0 0 0 .36-1.89 3.66 3.66 0 0 0-1-1.28c-.25-.23-.87-.81-.87-1.28A1.66 1.66 0 0 0 55 53c-.65-.37-1-.72-1.27-.6z" class="cls-18"/>
        <ellipse cx="52.24" cy="56.81" class="cls-8" rx="3.84" ry="3.6"/>
        <g class="cls-19">
          <ellipse cx="55.59" cy="56.93" class="cls-20" rx="1.24" ry="1.16"/>
        </g>
        <g class="cls-21">
          <circle cx="53.61" cy="57.77" r=".62" class="cls-20"/>
        </g>
        <path d="M55.2 40.4a4.58 4.58 0 0 0-6 5.46z" class="cls-8"/>
        <path d="M55.93 46a3.7 3.7 0 0 0-6.42 1.36z" class="cls-8"/>
        <path d="M69.39 52.94l-.26 1.39a6.35 6.35 0 0 1-4.41-1 7.17 7.17 0 0 0 4.67-.39z" class="cls-8"/>
        <path d="M68.16 59.63l-.22 1.19a6.57 6.57 0 0 1-1.41-.82 6.22 6.22 0 0 1-1.83-2.26 6.77 6.77 0 0 0 2.3 1.51 7.45 7.45 0 0 0 1.16.38z" class="cls-8"/>
        <path d="M70.89 44.84l-.82 4.43a4.74 4.74 0 0 1-3.6 1.94 5.57 5.57 0 0 0 3.29-4 5.42 5.42 0 0 0-1.67-5.53 4.65 4.65 0 0 1 2.8 3.16z" class="cls-8"/>
        <path d="M32.1 62.6s-1-.91-.87-1.7-12.77-8.72-12.77-8.72-2.26.36-3.22-.34a2 2 0 0 1-.62-1.47 2.18 2.18 0 0 0 .25 2.26c.49.57 1.86 1.81 1.86 1.81S31.11 62 32.1 62.6z" class="cls-8"/>
        <path d="M29.62 61.47a6.7 6.7 0 0 0 3-5.44 6.15 6.15 0 0 0-.17-1.43c-.77-3.26-4.14-5.63-8-5.63-4.51 0-8.18 3.17-8.18 7.06a6.57 6.57 0 0 0 2.52 5.1l.29.24.37-.13a12.89 12.89 0 0 1 3-.65c.44 0 .89-.06 1.34-.06a13.07 13.07 0 0 1 5.15 1l.36.16z" class="cls-8"/>
        <path d="M24.29 49.84c3.65 0 6.7 2.25 7.41 5.24a5.74 5.74 0 0 1 .15 1.33 6.26 6.26 0 0 1-2.75 5.07 13.65 13.65 0 0 0-5.43-1.08c-.48 0-.94 0-1.4.07a13.52 13.52 0 0 0-3.21.69 6.17 6.17 0 0 1-2.33-4.75c0-3.63 3.38-6.57 7.56-6.57z" class="cls-13"/>
        <path d="M16.73 56.45a6.11 6.11 0 0 0 2.33 4.71 13.6 13.6 0 0 1 3.21-.69l9.43-5.34c-.71-3-3.75-5.21-7.41-5.21-4.18.01-7.56 2.93-7.56 6.53z" class="cls-14"/>
        <path d="M19.33 60.17a14.87 14.87 0 0 1 2.59-.52l8.64-4.9a6.56 6.56 0 0 0-6.27-4c-3.62 0-6.57 2.54-6.57 5.67a5.18 5.18 0 0 0 1.61 3.75z" class="cls-15"/>
        <path d="M21.06 55.44c.86-.09 1.49-.37 1.49-.71s-.33-.46-.84-.59a5.84 5.84 0 0 1 4.81-2.41 5.75 5.75 0 0 1 5.17 3 6.33 6.33 0 0 1 .15 1.39 6.67 6.67 0 0 1-2.75 5.33 13.09 13.09 0 0 0-5.43-1.14 13.94 13.94 0 0 0-1.4.07 4.94 4.94 0 0 1-1.45-3.47 4.78 4.78 0 0 1 .25-1.47z" class="cls-13"/>
        <path d="M29 60.67a6 6 0 0 0 2.13-4.52A5.73 5.73 0 0 0 31 55a5 5 0 0 0-4.46-2.56c-1.42 0-4.6 6.5-3.93 7.28h1.08a14.07 14.07 0 0 1 5.31.95z" class="cls-16"/>
        <path d="M29.42 61.95a13.36 13.36 0 0 0-10.33-.56l-.09-.24a13.31 13.31 0 0 1 4.85-.79 13.17 13.17 0 0 1 5.67 1.37z" class="cls-17"/>
        <path d="M25.16 52.41c.25.11-.12.57-.25.79a15.85 15.85 0 0 0-1.61 2.5c-.12.57-1 2.38-1.12 2.83a.32.32 0 0 1-.5.23 5.25 5.25 0 0 1-.37-1.81 3.59 3.59 0 0 1 1-1.25c.25-.23.87-.79.87-1.25a1.6 1.6 0 0 1 .74-1.45c.62-.36.99-.7 1.24-.59z" class="cls-18"/>
        <ellipse cx="26.64" cy="56.71" class="cls-8" rx="3.84" ry="3.51"/>
        <g class="cls-19">
          <circle cx="23.3" cy="56.53" r="1.24" class="cls-20"/>
        </g>
        <g class="cls-21">
          <circle cx="25.28" cy="57.77" r=".62" class="cls-20"/>
        </g>
        <path d="M9.37 53.55l.26 1.27a6.83 6.83 0 0 0 4.37-.93 7.8 7.8 0 0 1-4.63-.34z" class="cls-8"/>
        <path d="M10.6 59.63l.22 1.19a6.57 6.57 0 0 0 1.42-.82 6.22 6.22 0 0 0 1.83-2.26 6.77 6.77 0 0 1-2.28 1.53 7.45 7.45 0 0 1-1.19.36z" class="cls-8"/>
        <path d="M7.87 44.84l.82 4.43a4.74 4.74 0 0 0 3.6 1.94 5.57 5.57 0 0 1-3.29-4 5.42 5.42 0 0 1 1.67-5.53 4.65 4.65 0 0 0-2.8 3.16z" class="cls-8"/>
        <path d="M25 40.46a4.58 4.58 0 0 1 5.62 5.86z" class="cls-8"/>
        <path d="M23.86 46a3.7 3.7 0 0 1 6.31 1.8z" class="cls-8"/>
        <circle cx="29.5" cy="59.07" r="1.18" class="cls-22"/>
        <circle cx="24.97" cy="58.88" r="1.24" class="cls-22"/>
        <circle cx="22.87" cy="59.25" r="1.24" class="cls-22"/>
        <circle cx="27.19" cy="59.77" r="1.24" class="cls-22" transform="rotate(-68.88 27.2 59.775)"/>
        <circle cx="29.56" cy="60.62" r=".99" class="cls-22"/>
        <rect width=".62" height="2.11" x="38.55" y="67.06" class="cls-8"/>
        <path d="M75 27a6 6 0 0 1-1.07.85l-1.12 6.25-1.24-.65s-2.5-3.5-4.35-4.61L67 28.7c-1.6-.8-4.31-2.59-5-3.07l-.18-.12.07-.05.52-.38A8.31 8.31 0 0 0 65 26.6a9.17 9.17 0 0 0 2.88.51 9.07 9.07 0 0 0 3.43-.6 8.12 8.12 0 0 0 2.57-1.58 3.11 3.11 0 0 1 .49.65A7.26 7.26 0 0 1 75 27z" class="cls-23"/>
        <ellipse cx="24.17" cy="63.34" class="cls-24" rx="5.02" ry="1.86"/>
        <ellipse cx="55.03" cy="63.34" class="cls-24" rx="5.02" ry="1.86"/>
        <path d="M17 25.14s-3.35 2.73-5.21 3.86l-.3.2c-1.84 1.39-4.29 5.54-4.29 5.54l-1.2.35L4.85 28a6.25 6.25 0 0 1-1.07-1 11.24 11.24 0 0 1 .39-1.19 6.09 6.09 0 0 1 .26-.58 8 8 0 0 0 1.67 1.23 9.13 9.13 0 0 0 8.66 0 7.79 7.79 0 0 0 1.95-1.52z" class="cls-23"/>
        <g class="cls-25">
          <path d="M75.22 26.69l-.09.15a7.41 7.41 0 0 1-1.07 1.34l-1.6 9.29v.09l-.52 3-.66 3.49-.19 1-.63 3.34-.26 1.39-.44 2.22-.24 1.26v.1l-.22 1.14v.12l-.75 4-.22 1.16-.22 1.14-.63 3.35.11.06-.29 1.54-.14.06-.4 2.14a1.11 1.11 0 0 1-1.12 1.09H39.23V10.3h.93a32.45 32.45 0 0 1 20 7.18h.63A24.63 24.63 0 0 1 68 16.21c8.22.02 9.68 6.36 7.22 10.48z" class="cls-26"/>
        </g>
        <circle cx="42.82" cy="67.81" r=".37" class="cls-8"/>
        <circle cx="45.43" cy="67.81" r=".37" class="cls-8"/>
        <circle cx="45.43" cy="65.82" r=".37" class="cls-8"/>
        <circle cx="48.03" cy="67.81" r=".37" class="cls-8"/>
        <circle cx="30.3" cy="67.81" r=".37" class="cls-8"/>
        <circle cx="32.91" cy="67.81" r=".37" class="cls-8"/>
        <circle cx="32.91" cy="65.82" r=".37" class="cls-8"/>
        <circle cx="35.51" cy="67.81" r=".37" class="cls-8"/>
        <rect width="8.55" height="3.22" x="16.3" y="59.5" class="cls-27" rx="1.61" ry="1.61"/>
        <rect width="8.92" height="3.22" x="55.84" y="59.63" class="cls-27" rx="1.61" ry="1.61"/>
        <circle cx="49.58" cy="59.19" r="1.18" class="cls-22"/>
        <circle cx="54.1" cy="59.01" r="1.24" class="cls-22"/>
        <circle cx="56.21" cy="59.38" r="1.24" class="cls-22"/>
        <circle cx="51.88" cy="59.9" r="1.24" class="cls-22" transform="rotate(-21.12 51.865 59.874)"/>
        <circle cx="49.52" cy="60.74" r=".99" class="cls-22"/>
      </g>
    </g>
  </symbol>
</svg>
