<svg xmlns="http://www.w3.org/2000/svg" viewBox="0 0 78 78"><defs><style>.cls-1{fill:#099;}.cls-2{fill:#00b7b2;}.cls-3{fill:#212121;}.cls-24,.cls-3{opacity:0.34;}.cls-4{fill:#d36318;}.cls-5{fill:#f4731c;}.cls-6{fill:#d8d8d8;}.cls-7{fill:#ededed;}.cls-8{fill:#2b2b2b;}.cls-9{fill:#ff9292;}.cls-10{fill:#f27d2f;}.cls-11,.cls-22{fill:#724720;}.cls-12{fill:#bc5d1d;}.cls-13{fill:#495750;}.cls-14{fill:#ccc;}.cls-15{fill:#e8e8e8;}.cls-16{fill:#33493e;}.cls-17{fill:#84572f;}.cls-18{fill:#686b72;}.cls-19{opacity:0.74;}.cls-20{fill:#efefef;}.cls-21{opacity:0.41;}.cls-22{opacity:0.69;}.cls-23{fill:#ef874d;}.cls-25{fill:#512600;}</style></defs><title>t1</title><g id="Layer_2" data-name="Layer 2"><g id="Layer_1-2" data-name="Layer 1"><path class="cls-1" d="M66.58,11.42A39,39,0,1,0,11.42,66.58,39,39,0,1,0,66.58,11.42ZM39,72.54A33.54,33.54,0,0,1,15.29,15.29,33.54,33.54,0,0,1,62.71,62.71,33.31,33.31,0,0,1,39,72.54Z"/><path class="cls-1" d="M66.31,11.69A38.63,38.63,0,1,0,11.69,66.31,38.63,38.63,0,1,0,66.31,11.69ZM39,72.91A33.91,33.91,0,0,1,15,15,33.91,33.91,0,1,1,63,63,33.69,33.69,0,0,1,39,72.91Z"/><path class="cls-2" d="M65.7,11.43a37.76,37.76,0,1,0-53.4,53.4,37.76,37.76,0,1,0,53.4-53.4ZM63.59,62.72A34.78,34.78,0,0,1,14.41,13.54,34.78,34.78,0,0,1,63.59,62.72Z"/><path class="cls-3" d="M78,39A39,39,0,0,1,39,78V72.54A33.54,33.54,0,0,0,62.71,15.29,33.31,33.31,0,0,0,39,5.46V0A39,39,0,0,1,78,39Z"/><path class="cls-4" d="M74.85,25.71a7.54,7.54,0,0,1-1.07,1.36l-1.62,9.58-.52,3.08L71,43.31l-.82,4.44h0l-.68,3.68-.26,1.39L69,54l-.77,4.17L68,59.32l-.83,4.47,0,.15V64h0l-.29,1.57h0v.06l-.4,2.18a1.12,1.12,0,0,1-1.12,1.12H12.93a1.12,1.12,0,0,1-.89-.44,1.11,1.11,0,0,1-.23-.68l-.42-2.26L11.12,64l-.87-4.71L10,58.13,9.26,54,9,52.82l-.26-1.39-.68-3.68h0l-.82-4.44-.66-3.57L4.49,27.08c-4.75-4.77-2.73-16,13.29-10.93h.63A32.15,32.15,0,0,1,38.75,8.82h.93a32.15,32.15,0,0,1,20.17,7.33h.63a24.55,24.55,0,0,1,7.14-1.29h0C76,14.81,77.46,21.49,74.85,25.71Z"/><path class="cls-5" d="M13.06,68.44l-.44-2.36-.28-1.53-.87-4.71-.22-1.19S7.93,44.94,7.85,40.27c-.05-3.27,2-12.95,2-12.95l-4.44-.38a6.41,6.41,0,0,1-1.49-6.69c.91-2.2,3.27-3.42,6.64-3.42a23.2,23.2,0,0,1,6.88,1.24l.18.06h1.27l.34-.28a31.1,31.1,0,0,1,19.68-7h.5a31.1,31.1,0,0,1,19.7,7l.34.28h1.27l.18-.06a23.21,23.21,0,0,1,6.88-1.24c3.12,0,5.33,1,6.39,2.91a6.09,6.09,0,0,1-.35,6.05,6.3,6.3,0,0,1-.9,1.14l-4.09-.24s1.72,10.15,1.6,13.57C70.26,44.94,67,58.65,67,58.65l-.22,1.19-.85,4.62-.31,1.7-.42,2.28Z"/><path class="cls-6" d="M47.38,68.93H30.12c1.71-2.15,4.94-3.6,8.63-3.6S45.67,66.78,47.38,68.93Z"/><path class="cls-7" d="M47.38,68.93H30.12c1.71-1.71,4.94-2.86,8.63-2.86S45.67,67.23,47.38,68.93Z"/><path class="cls-8" d="M43.6,63.34c0,2.06-2.17,3.73-4.84,3.73s-4.84-1.67-4.84-3.73a3,3,0,0,1,.37-1.44c0,1.87,2,3.39,4.47,3.39s4.43-1.51,4.47-3.39A3,3,0,0,1,43.6,63.34Z"/><path class="cls-9" d="M43.6,62.85c0,2.06-2.17,3.73-4.84,3.73s-4.84-1.67-4.84-3.73a3,3,0,0,1,.37-1.44c0,1.87,2,3.39,4.47,3.39s4.43-1.51,4.47-3.39A3,3,0,0,1,43.6,62.85Z"/><ellipse class="cls-10" cx="39.19" cy="34.59" rx="26.64" ry="20.68"/><path class="cls-8" d="M46.28,21.92a6.62,6.62,0,0,0,7.16-3.51,7.57,7.57,0,0,1-6.72,2,7.37,7.37,0,0,1-6-5.08A6.56,6.56,0,0,0,46.28,21.92Z"/><path class="cls-11" d="M67.89,16.07a7.33,7.33,0,0,0-7,5.33,8.39,8.39,0,0,1,6.89-3.55,8.16,8.16,0,0,1,7.58,4.26A7.26,7.26,0,0,0,67.89,16.07Z"/><path class="cls-11" d="M10.38,16.07a7.33,7.33,0,0,0-7,5.33,8.39,8.39,0,0,1,6.89-3.55,8.16,8.16,0,0,1,7.58,4.26A7.26,7.26,0,0,0,10.38,16.07Z"/><path class="cls-8" d="M45.8,27.74A6.62,6.62,0,0,0,53,24.22a7.57,7.57,0,0,1-6.72,2,7.37,7.37,0,0,1-6-5.08A6.56,6.56,0,0,0,45.8,27.74Z"/><path class="cls-8" d="M46.17,34a6.62,6.62,0,0,0,7.16-3.51,7.57,7.57,0,0,1-6.72,2,7.37,7.37,0,0,1-6-5.08A6.56,6.56,0,0,0,46.17,34Z"/><path class="cls-8" d="M31.13,21.55A6.62,6.62,0,0,1,24,18a7.57,7.57,0,0,0,6.72,2,7.37,7.37,0,0,0,6-5.08A6.56,6.56,0,0,1,31.13,21.55Z"/><path class="cls-8" d="M31.61,27.36a6.62,6.62,0,0,1-7.16-3.51,7.57,7.57,0,0,0,6.72,2,7.37,7.37,0,0,0,6-5.08A6.56,6.56,0,0,1,31.61,27.36Z"/><path class="cls-12" d="M31.72,60.61a1.1,1.1,0,0,0-.19-.75,9.06,9.06,0,1,0-15.29-9.73,1.68,1.68,0,0,1-.87-.26,1.56,1.56,0,0,1-.29-.94v-.3l-1.53-.33-.12.27A3.46,3.46,0,0,0,13.78,52c.24.31.67.79,1.29,1.42a9.12,9.12,0,0,0-.11,1.4,9,9,0,0,0,2.8,6.55l.7.67.89-.36a10.55,10.55,0,0,1,2.82-.7,11.33,11.33,0,0,1,1.24-.07,10.68,10.68,0,0,1,4.77,1.09l.87.44.43-.35,1.79,1.06.28.18,1-1.29-.23-.24A2,2,0,0,1,31.72,60.61Z"/><path class="cls-12" d="M46.68,60.61a1.1,1.1,0,0,1,.19-.75,9.06,9.06,0,1,1,15.29-9.73,1.68,1.68,0,0,0,.87-.26,1.56,1.56,0,0,0,.29-.94v-.3l1.53-.33.12.27A3.46,3.46,0,0,1,64.62,52c-.24.31-.67.79-1.29,1.42a9.12,9.12,0,0,1,.11,1.4,9,9,0,0,1-2.8,6.55l-.7.67L59,61.63a10.55,10.55,0,0,0-2.82-.7A11.33,11.33,0,0,0,55,60.86a10.68,10.68,0,0,0-4.77,1.09l-.87.44L48.92,62l-1.79,1.06-.28.18-1-1.29.23-.24A2,2,0,0,0,46.68,60.61Z"/><path class="cls-8" d="M31.24,33.64a6.62,6.62,0,0,1-7.16-3.51,7.57,7.57,0,0,0,6.72,2,7.37,7.37,0,0,0,6-5.08A6.56,6.56,0,0,1,31.24,33.64Z"/><path class="cls-8" d="M46.58,62.6s1-1,.87-1.86,12.79-9.56,12.79-9.56,2.27.4,3.23-.37a2.36,2.36,0,0,0,.62-1.61,2.58,2.58,0,0,1-.25,2.48c-.49.63-1.86,2-1.86,2S47.57,62,46.58,62.6Z"/><path class="cls-8" d="M49.06,61.35a8.2,8.2,0,1,1,10.88-.4l-.29.28-.37-.15a11.41,11.41,0,0,0-3-.76,12.19,12.19,0,0,0-1.34-.07,11.56,11.56,0,0,0-5.16,1.18l-.36.18Z"/><path class="cls-13" d="M54.4,47.94a7.58,7.58,0,0,0-4.82,13.42A12.16,12.16,0,0,1,55,60.11a12.77,12.77,0,0,1,1.41.08,12,12,0,0,1,3.21.8,7.57,7.57,0,0,0-5.24-13Z"/><path class="cls-14" d="M62,55.52A7.55,7.55,0,0,1,59.64,61a12,12,0,0,0-3.21-.8L47,54a7.58,7.58,0,0,1,15,1.53Z"/><path class="cls-15" d="M59.37,59.83a13.12,13.12,0,0,0-2.6-.6l-8.66-5.68a6.58,6.58,0,0,1,12.87,2A6.51,6.51,0,0,1,59.37,59.83Z"/><path class="cls-13" d="M57.64,54.74c-.86-.09-1.5-.41-1.5-.78s.33-.51.84-.65A5.71,5.71,0,0,0,47,54a7.58,7.58,0,0,0,2.6,7.37A12.16,12.16,0,0,1,55,60.11a12.77,12.77,0,0,1,1.41.08,5.72,5.72,0,0,0,1.21-5.45Z"/><path class="cls-16" d="M49.7,60.48a6.84,6.84,0,0,1-2-6.25,5,5,0,0,1,4.47-2.8c1.43,0,4.61,7.13,3.94,8-.36,0-.72,0-1.08,0A13,13,0,0,0,49.7,60.48Z"/><path class="cls-17" d="M49.25,61.7l-.11-.22a13.19,13.19,0,0,1,5.69-1.37,13.35,13.35,0,0,1,4.86.79l-.09.23a13.38,13.38,0,0,0-10.35.57Z"/><path class="cls-18" d="M53.53,51.42c-.25.12.12.62.25.87A17.65,17.65,0,0,1,55.39,55c.12.62,1,2.61,1.12,3.11s.5.25.5.25a6.23,6.23,0,0,0,.37-2,3.89,3.89,0,0,0-1-1.37c-.25-.25-.87-.87-.87-1.37A1.82,1.82,0,0,0,54.77,52C54.15,51.67,53.78,51.3,53.53,51.42Z"/><circle class="cls-8" cx="52.04" cy="56.14" r="3.85"/><g class="cls-19"><circle class="cls-20" cx="55.39" cy="56.26" r="1.24"/></g><g class="cls-21"><circle class="cls-20" cx="53.41" cy="57.51" r="0.62"/></g><path class="cls-8" d="M56.09,38.45h0a4.59,4.59,0,0,1-3.68,7.26Z"/><path class="cls-8" d="M50.47,39.23h0a3.71,3.71,0,0,1,.39,6.56Z"/><path class="cls-8" d="M47.62,43.09h0A2.19,2.19,0,0,1,50,44.34a2.84,2.84,0,0,1,.41,1.58Z"/><path class="cls-8" d="M69.23,52.67,69,54.06a6.36,6.36,0,0,1-4.42-1A7.18,7.18,0,0,0,69.23,52.67Z"/><path class="cls-8" d="M68,59.37l-.22,1.19a6.59,6.59,0,0,1-1.42-.84,6.23,6.23,0,0,1-1.83-2.27A6.78,6.78,0,0,0,66.81,59,7.46,7.46,0,0,0,68,59.37Z"/><path class="cls-8" d="M70.73,44.55,69.91,49h0a4.75,4.75,0,0,1-3.61,1.94,5.58,5.58,0,0,0,3.3-4,5.43,5.43,0,0,0-1.68-5.54A4.66,4.66,0,0,1,70.73,44.55Z"/><path class="cls-8" d="M31.85,62.6s-1-1-.87-1.86-12.79-9.56-12.79-9.56-2.27.4-3.23-.37a2.36,2.36,0,0,1-.62-1.61,2.58,2.58,0,0,0,.25,2.48c.49.63,1.86,2,1.86,2S30.86,62,31.85,62.6Z"/><path class="cls-8" d="M29.37,61.35a8.2,8.2,0,1,0-10.88-.4l.29.28.37-.15a11.41,11.41,0,0,1,3-.76,12.19,12.19,0,0,1,1.34-.07,11.56,11.56,0,0,1,5.16,1.18l.36.18Z"/><path class="cls-13" d="M24,47.94a7.58,7.58,0,0,1,4.82,13.42,12.16,12.16,0,0,0-5.44-1.25,12.77,12.77,0,0,0-1.41.08,12,12,0,0,0-3.21.8,7.57,7.57,0,0,1,5.24-13Z"/><path class="cls-14" d="M16.45,55.52A7.55,7.55,0,0,0,18.79,61a12,12,0,0,1,3.21-.8L31.45,54a7.58,7.58,0,0,0-15,1.53Z"/><path class="cls-15" d="M19.05,59.83a13.12,13.12,0,0,1,2.6-.6l8.66-5.68a6.58,6.58,0,0,0-12.87,2A6.51,6.51,0,0,0,19.05,59.83Z"/><path class="cls-13" d="M20.79,54.74c.86-.09,1.5-.41,1.5-.78s-.33-.51-.84-.65a5.71,5.71,0,0,1,10,.67,7.58,7.58,0,0,1-2.6,7.37,12.16,12.16,0,0,0-5.44-1.25,12.77,12.77,0,0,0-1.41.08,5.72,5.72,0,0,1-1.21-5.45Z"/><path class="cls-16" d="M28.73,60.48a6.84,6.84,0,0,0,2-6.25,5,5,0,0,0-4.47-2.8c-1.43,0-4.61,7.13-3.94,8,.36,0,.72,0,1.08,0A13,13,0,0,1,28.73,60.48Z"/><path class="cls-17" d="M29.18,61.7a13.38,13.38,0,0,0-10.35-.57l-.09-.23a13.34,13.34,0,0,1,4.86-.79,13.19,13.19,0,0,1,5.69,1.37Z"/><path class="cls-18" d="M24.9,51.42c.25.12-.12.62-.25.87A17.65,17.65,0,0,0,23,55c-.12.62-1,2.61-1.12,3.11s-.5.25-.5.25a6.23,6.23,0,0,1-.37-2A3.89,3.89,0,0,1,22,55c.25-.25.87-.87.87-1.37A1.82,1.82,0,0,1,23.66,52C24.28,51.67,24.65,51.3,24.9,51.42Z"/><circle class="cls-8" cx="26.39" cy="56.14" r="3.85"/><g class="cls-19"><circle class="cls-20" cx="23.03" cy="56.26" r="1.24"/></g><g class="cls-21"><circle class="cls-20" cx="25.02" cy="57.51" r="0.62"/></g><path class="cls-8" d="M26,45.71a4.59,4.59,0,0,1-3.68-7.26h0Z"/><path class="cls-8" d="M27.57,45.79A3.71,3.71,0,0,1,28,39.23h0Z"/><path class="cls-8" d="M28.05,45.92a2.84,2.84,0,0,1,.41-1.58,2.19,2.19,0,0,1,2.34-1.25h0Z"/><path class="cls-8" d="M9.08,52.67l.26,1.39a6.36,6.36,0,0,0,4.42-1A7.18,7.18,0,0,1,9.08,52.67Z"/><path class="cls-8" d="M10.32,59.37l.22,1.19A6.59,6.59,0,0,0,12,59.72a6.23,6.23,0,0,0,1.83-2.27A6.78,6.78,0,0,1,11.5,59,7.46,7.46,0,0,1,10.32,59.37Z"/><path class="cls-8" d="M7.58,44.55,8.4,49h0A4.75,4.75,0,0,0,12,50.93a5.58,5.58,0,0,1-3.3-4,5.43,5.43,0,0,1,1.68-5.54A4.66,4.66,0,0,0,7.58,44.55Z"/><rect class="cls-8" x="38.32" y="66.82" width="0.62" height="2.11"/><path class="cls-22" d="M74.85,25.71a7.54,7.54,0,0,1-1.07,1.36l-1.62,9.58L71.42,36s-2.73-6.09-4.6-7.58a71,71,0,0,1-5.22-5.09s2.86-3.6,5.34-3.85a7.16,7.16,0,0,1,6.83,3A10.54,10.54,0,0,1,74.85,25.71Z"/><ellipse class="cls-23" cx="23.91" cy="63.1" rx="5.03" ry="1.86"/><ellipse class="cls-23" cx="54.84" cy="63.1" rx="5.03" ry="1.86"/><path class="cls-22" d="M3.48,25.71a7.54,7.54,0,0,0,1.07,1.36l1.62,9.58L6.91,36s2.73-6.09,4.6-7.58a71,71,0,0,0,5.22-5.09s-2.86-3.6-5.34-3.85a7.16,7.16,0,0,0-6.83,3A10.54,10.54,0,0,0,3.48,25.71Z"/><g class="cls-24"><path class="cls-25" d="M74.82,25.56l-.09.15a7.54,7.54,0,0,1-1.07,1.36L72,36.57l0,.09-.52,3.08-.66,3.57-.19,1L70,47.75h0l-.26,1.42-.42,2.27-.24,1.29,0,.1L68.89,54l0,.12-.75,4.05-.22,1.19v0l-.22,1.17h0L67,63.94l.11.06h0l-.29,1.57h0l-.14.06-.4,2.18a1.12,1.12,0,0,1-1.12,1.12H38.75V8.82h.93a32.15,32.15,0,0,1,20,7.33h.63a24.27,24.27,0,0,1,7.26-1.29h0C75.82,14.88,77.28,21.35,74.82,25.56Z"/></g><circle class="cls-8" cx="42.6" cy="67.57" r="0.37"/><circle class="cls-8" cx="45.21" cy="67.57" r="0.37"/><circle class="cls-8" cx="45.21" cy="65.58" r="0.37"/><circle class="cls-8" cx="47.82" cy="67.57" r="0.37"/><circle class="cls-8" cx="30.06" cy="67.57" r="0.37"/><circle class="cls-8" cx="32.67" cy="67.57" r="0.37"/><circle class="cls-8" cx="32.67" cy="65.58" r="0.37"/><circle class="cls-8" cx="35.27" cy="67.57" r="0.37"/></g></g></svg>