<svg xmlns="http://www.w3.org/2000/svg" viewBox="0 0 78 78"><defs><style>.cls-1{fill:#099;}.cls-2{fill:#00b7b2;}.cls-3{fill:#212121;}.cls-25,.cls-3{opacity:0.34;}.cls-4{fill:#d36318;}.cls-5{fill:#f4731c;}.cls-6{fill:#d8d8d8;}.cls-7{fill:#ededed;}.cls-8{fill:#2b2b2b;}.cls-9{fill:#ff9292;}.cls-10{fill:#f27d2f;}.cls-11,.cls-23{fill:#724720;}.cls-12{fill:#bc5d1d;}.cls-13{fill:#495750;}.cls-14{fill:#ccc;}.cls-15{fill:#e8e8e8;}.cls-16{fill:#33493e;}.cls-17{fill:#84572f;}.cls-18{fill:#686b72;}.cls-19{opacity:0.74;}.cls-20{fill:#efefef;}.cls-21{opacity:0.41;}.cls-22,.cls-27{fill:#1dcaf2;}.cls-22{opacity:0.3;}.cls-23{opacity:0.69;}.cls-24{fill:#ef874d;}.cls-26{fill:#512600;}</style></defs><title>t4</title><g id="Layer_2" data-name="Layer 2"><g id="Layer_1-2" data-name="Layer 1"><path class="cls-1" d="M66.58,11.42A39,39,0,1,0,11.42,66.58,39,39,0,1,0,66.58,11.42ZM39,72.54A33.54,33.54,0,0,1,15.29,15.29,33.54,33.54,0,0,1,62.71,62.71,33.31,33.31,0,0,1,39,72.54Z"/><path class="cls-1" d="M66.31,11.69A38.63,38.63,0,1,0,11.69,66.31,38.63,38.63,0,1,0,66.31,11.69ZM39,72.91A33.91,33.91,0,0,1,15,15,33.91,33.91,0,1,1,63,63,33.69,33.69,0,0,1,39,72.91Z"/><path class="cls-2" d="M65.7,11.43a37.76,37.76,0,1,0-53.4,53.4,37.76,37.76,0,1,0,53.4-53.4ZM63.59,62.72A34.78,34.78,0,0,1,14.41,13.54,34.78,34.78,0,0,1,63.59,62.72Z"/><path class="cls-3" d="M78,39A39,39,0,0,1,39,78V72.54A33.54,33.54,0,0,0,62.71,15.29,33.31,33.31,0,0,0,39,5.46V0A39,39,0,0,1,78,39Z"/><path class="cls-4" d="M75,26.75a7.42,7.42,0,0,1-1.07,1.34L72.32,37.5l-.52,3L71.14,44l-.82,4.35h0L69.64,52l-.26,1.37-.21,1.12-.77,4.09-.22,1.17-.82,4.38,0,.15v.06h0L67,65.87h0v.06l-.4,2.14a1.11,1.11,0,0,1-1.12,1.1H13.22a1.12,1.12,0,0,1-.88-.43,1.08,1.08,0,0,1-.23-.67l-.42-2.22-.28-1.5-.87-4.62-.22-1.17-.77-4.09-.21-1.12L9.08,52,8.4,48.38h0L7.58,44l-.66-3.5L4.79,28.09C0,23.41,2.06,12.37,18.05,17.37h.63A32.42,32.42,0,0,1,39,10.18h.93A32.41,32.41,0,0,1,60,17.37h.63a24.87,24.87,0,0,1,7.12-1.27h0C76.18,16.06,77.6,22.61,75,26.75Z"/><path class="cls-5" d="M13.34,68.67l-.44-2.35-.28-1.52-.87-4.69-.22-1.18S8.22,45.28,8.15,40.63c-.05-3.26,2-12.89,2-12.89l-4.43-.38A6.37,6.37,0,0,1,4.18,20.7c.91-2.19,3.27-3.4,6.62-3.4a23.2,23.2,0,0,1,6.87,1.23l.18.06h1.26l.34-.28a31.08,31.08,0,0,1,19.64-7h.5a31.08,31.08,0,0,1,19.65,7l.34.28h1.26l.18-.06a23.2,23.2,0,0,1,6.87-1.23c3.11,0,5.32,1,6.38,2.9a6.05,6.05,0,0,1-.35,6,6.27,6.27,0,0,1-.9,1.13L69,27.12s1.71,10.11,1.6,13.51c-.15,4.65-3.39,18.3-3.39,18.3L67,60.11l-.85,4.6L65.8,66.4l-.42,2.27Z"/><path class="cls-6" d="M47.59,69.17H30.37C32.07,67,35.29,65.58,39,65.58S45.89,67,47.59,69.17Z"/><path class="cls-7" d="M47.59,69.17H30.37c1.71-1.7,4.93-2.85,8.61-2.85S45.89,67.47,47.59,69.17Z"/><path class="cls-8" d="M43.81,63.59c0,2.05-2.16,3.72-4.83,3.72s-4.83-1.66-4.83-3.72a3,3,0,0,1,.37-1.43c0,1.87,2,3.38,4.46,3.38S43.4,64,43.44,62.16A3,3,0,0,1,43.81,63.59Z"/><path class="cls-9" d="M43.81,63.1c0,2.05-2.16,3.72-4.83,3.72s-4.83-1.66-4.83-3.72a3,3,0,0,1,.37-1.43c0,1.87,2,3.38,4.46,3.38s4.42-1.51,4.46-3.38A3,3,0,0,1,43.81,63.1Z"/><ellipse class="cls-10" cx="39.41" cy="34.9" rx="26.59" ry="20.64"/><path class="cls-8" d="M46.49,22.26a6.6,6.6,0,0,0,7.14-3.51,7.56,7.56,0,0,1-6.71,2,7.35,7.35,0,0,1-6-5.07A6.54,6.54,0,0,0,46.49,22.26Z"/><path class="cls-11" d="M75.47,22.86a6.74,6.74,0,0,1-1.05,2.76A7.13,7.13,0,0,1,73,27.21a7.56,7.56,0,0,1-4.92,1.68,7.89,7.89,0,0,1-.83-.06,7.52,7.52,0,0,1-3.68-1.51A7.23,7.23,0,0,1,62,25.63l-.11-.17A6.83,6.83,0,0,1,61,23.57a7.29,7.29,0,0,0,1.34,1.51A8.31,8.31,0,0,0,65,26.6a9.17,9.17,0,0,0,2.88.51,9.07,9.07,0,0,0,3.43-.6,8.12,8.12,0,0,0,2.57-1.58A7,7,0,0,0,75.47,22.86Z"/><path class="cls-11" d="M17.84,23.23a6.84,6.84,0,0,1-2,3.91,7.47,7.47,0,0,1-4.33,2.06,7.89,7.89,0,0,1-1.07.05,7.52,7.52,0,0,1-5.21-2.19,7,7,0,0,1-1-1.33,6.79,6.79,0,0,1-.76-1.8,7.16,7.16,0,0,0,1,1.22,8,8,0,0,0,1.67,1.23,9.13,9.13,0,0,0,8.66,0,7.79,7.79,0,0,0,1.95-1.52A6.82,6.82,0,0,0,17.84,23.23Z"/><path class="cls-8" d="M46,28.06a6.6,6.6,0,0,0,7.14-3.51,7.56,7.56,0,0,1-6.71,2,7.35,7.35,0,0,1-6-5.07A6.54,6.54,0,0,0,46,28.06Z"/><path class="cls-8" d="M46.38,34.32a6.6,6.6,0,0,0,7.14-3.51,7.56,7.56,0,0,1-6.71,2,7.35,7.35,0,0,1-6-5.07A6.54,6.54,0,0,0,46.38,34.32Z"/><path class="cls-8" d="M31.37,21.89a6.6,6.6,0,0,1-7.14-3.51,7.56,7.56,0,0,0,6.71,2,7.35,7.35,0,0,0,6-5.07A6.54,6.54,0,0,1,31.37,21.89Z"/><path class="cls-8" d="M31.85,27.69a6.6,6.6,0,0,1-7.14-3.51,7.56,7.56,0,0,0,6.71,2,7.35,7.35,0,0,0,6-5.07A6.54,6.54,0,0,1,31.85,27.69Z"/><path class="cls-12" d="M32,60.86a1.09,1.09,0,0,0-.19-.75,9,9,0,1,0-15.26-9.71,1.68,1.68,0,0,1-.86-.26,1.55,1.55,0,0,1-.29-.94v-.3l-1.53-.33-.12.27a3.45,3.45,0,0,0,.35,3.37c.24.31.67.78,1.29,1.42a9.1,9.1,0,0,0-.11,1.4A9,9,0,0,0,18,61.58l.69.66.89-.36a10.53,10.53,0,0,1,2.81-.7,11.31,11.31,0,0,1,1.24-.07,10.66,10.66,0,0,1,4.76,1.09l.87.44.43-.35,1.79,1.05.28.18,1-1.29L32.59,62A2,2,0,0,1,32,60.86Z"/><path class="cls-12" d="M46.89,60.86a1.09,1.09,0,0,1,.19-.75,9,9,0,1,1,15.26-9.71,1.68,1.68,0,0,0,.86-.26,1.55,1.55,0,0,0,.29-.94v-.3L65,48.58l.12.27a3.45,3.45,0,0,1-.35,3.37c-.24.31-.67.78-1.29,1.42a9.1,9.1,0,0,1,.11,1.4,9,9,0,0,1-2.79,6.53l-.69.66-.89-.36a10.53,10.53,0,0,0-2.81-.7,11.31,11.31,0,0,0-1.24-.07,10.66,10.66,0,0,0-4.76,1.09l-.87.44-.43-.35-1.79,1.05-.28.18-1-1.29.23-.23A2,2,0,0,0,46.89,60.86Z"/><path class="cls-8" d="M31.48,33.95a6.6,6.6,0,0,1-7.14-3.51,7.56,7.56,0,0,0,6.71,2,7.35,7.35,0,0,0,6-5.07A6.54,6.54,0,0,1,31.48,33.95Z"/><path class="cls-8" d="M46.79,62.85s1-.93.87-1.74,12.77-8.94,12.77-8.94,2.26.37,3.22-.35a2.12,2.12,0,0,0,.62-1.51A2.28,2.28,0,0,1,64,52.63c-.49.59-1.86,1.86-1.86,1.86S47.78,62.27,46.79,62.85Z"/><path class="cls-8" d="M49.27,61.69a6.77,6.77,0,0,1-3-5.49,6.24,6.24,0,0,1,.17-1.44c.77-3.29,4.14-5.68,8-5.68,4.51,0,8.18,3.19,8.18,7.11a6.64,6.64,0,0,1-2.52,5.14l-.29.24-.37-.13a12.8,12.8,0,0,0-3-.66c-.44,0-.89-.06-1.34-.06a13,13,0,0,0-5.15,1l-.36.16Z"/><path class="cls-13" d="M54.6,50c-3.65,0-6.7,2.27-7.41,5.29A5.84,5.84,0,0,0,47,56.58a6.33,6.33,0,0,0,2.75,5.11,13.56,13.56,0,0,1,5.43-1.09c.48,0,.94,0,1.4.07a13.43,13.43,0,0,1,3.21.7,6.24,6.24,0,0,0,2.33-4.78C62.16,52.92,58.77,50,54.6,50Z"/><path class="cls-14" d="M62.16,56.64a6.18,6.18,0,0,1-2.33,4.75,13.51,13.51,0,0,0-3.21-.69l-9.43-5.38c.71-3,3.75-5.25,7.41-5.25C58.77,50.06,62.16,53,62.16,56.64Z"/><path class="cls-15" d="M59.56,60.38A14.77,14.77,0,0,0,57,59.86l-8.64-4.93a6.56,6.56,0,0,1,6.27-4c3.62,0,6.57,2.56,6.57,5.71A5.24,5.24,0,0,1,59.56,60.38Z"/><path class="cls-13" d="M57.83,55.5c-.86-.09-1.49-.38-1.49-.73s.33-.47.84-.61a5.79,5.79,0,0,0-4.81-2.47,5.73,5.73,0,0,0-5.17,3.1A6.65,6.65,0,0,0,47,56.23a6.9,6.9,0,0,0,2.75,5.46,12.81,12.81,0,0,1,5.43-1.17,13.59,13.59,0,0,1,1.4.07A5.13,5.13,0,0,0,58.07,57,5,5,0,0,0,57.83,55.5Z"/><path class="cls-16" d="M49.91,60.87a6.18,6.18,0,0,1-2.13-4.64A6,6,0,0,1,47.9,55a5,5,0,0,1,4.46-2.62c1.42,0,4.6,6.66,3.93,7.47-.36,0-.72,0-1.08,0A13.76,13.76,0,0,0,49.91,60.87Z"/><path class="cls-17" d="M49.46,61.95l-.11-.22A13.17,13.17,0,0,1,55,60.36a13.33,13.33,0,0,1,4.85.79l-.09.23a13.36,13.36,0,0,0-10.33.56Z"/><path class="cls-18" d="M53.73,52.4c-.25.12.12.58.25.81a16.31,16.31,0,0,1,1.61,2.55c.12.58,1,2.44,1.12,2.9a.31.31,0,0,0,.5.23A5.51,5.51,0,0,0,57.57,57a3.66,3.66,0,0,0-1-1.28c-.25-.23-.87-.81-.87-1.28A1.66,1.66,0,0,0,55,53C54.35,52.63,54,52.28,53.73,52.4Z"/><ellipse class="cls-8" cx="52.24" cy="56.81" rx="3.84" ry="3.6"/><g class="cls-19"><ellipse class="cls-20" cx="55.59" cy="56.93" rx="1.24" ry="1.16"/></g><g class="cls-21"><circle class="cls-20" cx="53.61" cy="57.77" r="0.62"/></g><path class="cls-8" d="M55.2,40.4h0a4.58,4.58,0,0,0-6,5.46Z"/><path class="cls-8" d="M55.93,46h0a3.7,3.7,0,0,0-6.42,1.36Z"/><path class="cls-8" d="M69.39,52.94l-.26,1.39a6.35,6.35,0,0,1-4.41-1A7.17,7.17,0,0,0,69.39,52.94Z"/><path class="cls-8" d="M68.16,59.63l-.22,1.19A6.57,6.57,0,0,1,66.53,60a6.22,6.22,0,0,1-1.83-2.26A6.77,6.77,0,0,0,67,59.25,7.45,7.45,0,0,0,68.16,59.63Z"/><path class="cls-8" d="M70.89,44.84l-.82,4.43h0a4.74,4.74,0,0,1-3.6,1.94,5.57,5.57,0,0,0,3.29-4,5.42,5.42,0,0,0-1.67-5.53A4.65,4.65,0,0,1,70.89,44.84Z"/><path class="cls-8" d="M32.1,62.6s-1-.91-.87-1.7-12.77-8.72-12.77-8.72-2.26.36-3.22-.34a2,2,0,0,1-.62-1.47,2.18,2.18,0,0,0,.25,2.26c.49.57,1.86,1.81,1.86,1.81S31.11,62,32.1,62.6Z"/><path class="cls-8" d="M29.62,61.47a6.7,6.7,0,0,0,3-5.44,6.15,6.15,0,0,0-.17-1.43c-.77-3.26-4.14-5.63-8-5.63-4.51,0-8.18,3.17-8.18,7.06a6.57,6.57,0,0,0,2.52,5.1l.29.24.37-.13a12.89,12.89,0,0,1,3-.65c.44,0,.89-.06,1.34-.06a13.07,13.07,0,0,1,5.15,1l.36.16Z"/><path class="cls-13" d="M24.29,49.84c3.65,0,6.7,2.25,7.41,5.24a5.74,5.74,0,0,1,.15,1.33,6.26,6.26,0,0,1-2.75,5.07,13.65,13.65,0,0,0-5.43-1.08c-.48,0-.94,0-1.4.07a13.52,13.52,0,0,0-3.21.69,6.17,6.17,0,0,1-2.33-4.75C16.73,52.78,20.11,49.84,24.29,49.84Z"/><path class="cls-14" d="M16.73,56.45a6.11,6.11,0,0,0,2.33,4.71,13.6,13.6,0,0,1,3.21-.69l9.43-5.34c-.71-3-3.75-5.21-7.41-5.21C20.11,49.93,16.73,52.85,16.73,56.45Z"/><path class="cls-15" d="M19.33,60.17a14.87,14.87,0,0,1,2.59-.52l8.64-4.9a6.56,6.56,0,0,0-6.27-4c-3.62,0-6.57,2.54-6.57,5.67A5.18,5.18,0,0,0,19.33,60.17Z"/><path class="cls-13" d="M21.06,55.44c.86-.09,1.49-.37,1.49-.71s-.33-.46-.84-.59a5.84,5.84,0,0,1,4.81-2.41,5.75,5.75,0,0,1,5.17,3,6.33,6.33,0,0,1,.15,1.39,6.67,6.67,0,0,1-2.75,5.33,13.09,13.09,0,0,0-5.43-1.14,13.94,13.94,0,0,0-1.4.07,4.94,4.94,0,0,1-1.45-3.47A4.78,4.78,0,0,1,21.06,55.44Z"/><path class="cls-16" d="M29,60.67a6,6,0,0,0,2.13-4.52A5.73,5.73,0,0,0,31,55a5,5,0,0,0-4.46-2.56c-1.42,0-4.6,6.5-3.93,7.28.36,0,.72,0,1.08,0A14.07,14.07,0,0,1,29,60.67Z"/><path class="cls-17" d="M29.42,61.95a13.36,13.36,0,0,0-10.33-.56L19,61.15a13.31,13.31,0,0,1,4.85-.79,13.17,13.17,0,0,1,5.67,1.37Z"/><path class="cls-18" d="M25.16,52.41c.25.11-.12.57-.25.79A15.85,15.85,0,0,0,23.3,55.7c-.12.57-1,2.38-1.12,2.83a.32.32,0,0,1-.5.23,5.25,5.25,0,0,1-.37-1.81,3.59,3.59,0,0,1,1-1.25c.25-.23.87-.79.87-1.25A1.6,1.6,0,0,1,23.92,53C24.54,52.64,24.91,52.3,25.16,52.41Z"/><ellipse class="cls-8" cx="26.64" cy="56.71" rx="3.84" ry="3.51"/><g class="cls-19"><circle class="cls-20" cx="23.3" cy="56.53" r="1.24"/></g><g class="cls-21"><circle class="cls-20" cx="25.28" cy="57.77" r="0.62"/></g><path class="cls-8" d="M9.37,53.55l.26,1.27A6.83,6.83,0,0,0,14,53.89,7.8,7.8,0,0,1,9.37,53.55Z"/><path class="cls-8" d="M10.6,59.63l.22,1.19A6.57,6.57,0,0,0,12.24,60a6.22,6.22,0,0,0,1.83-2.26,6.77,6.77,0,0,1-2.28,1.53A7.45,7.45,0,0,1,10.6,59.63Z"/><path class="cls-8" d="M7.87,44.84l.82,4.43h0a4.74,4.74,0,0,0,3.6,1.94,5.57,5.57,0,0,1-3.29-4,5.42,5.42,0,0,1,1.67-5.53A4.65,4.65,0,0,0,7.87,44.84Z"/><path class="cls-8" d="M25,40.46h0a4.58,4.58,0,0,1,5.62,5.86Z"/><path class="cls-8" d="M23.86,46h0a3.7,3.7,0,0,1,6.31,1.8Z"/><circle class="cls-22" cx="29.5" cy="59.07" r="1.18"/><circle class="cls-22" cx="24.97" cy="58.88" r="1.24"/><circle class="cls-22" cx="22.87" cy="59.25" r="1.24"/><circle class="cls-22" cx="27.19" cy="59.77" r="1.24" transform="translate(-38.36 63.61) rotate(-68.88)"/><circle class="cls-22" cx="29.56" cy="60.62" r="0.99"/><rect class="cls-8" x="38.55" y="67.06" width="0.62" height="2.11"/><path class="cls-23" d="M75,27a6,6,0,0,1-1.07.85l-1.12,6.25-1.24-.65s-2.5-3.5-4.35-4.61L67,28.7c-1.6-.8-4.31-2.59-5-3.07l-.18-.12.07-.05.52-.38A8.31,8.31,0,0,0,65,26.6a9.17,9.17,0,0,0,2.88.51,9.07,9.07,0,0,0,3.43-.6,8.12,8.12,0,0,0,2.57-1.58l0,0a3.11,3.11,0,0,1,.49.65A7.26,7.26,0,0,1,75,27Z"/><ellipse class="cls-24" cx="24.17" cy="63.34" rx="5.02" ry="1.86"/><ellipse class="cls-24" cx="55.03" cy="63.34" rx="5.02" ry="1.86"/><path class="cls-23" d="M17,25.14S13.65,27.87,11.79,29l-.3.2c-1.84,1.39-4.29,5.54-4.29,5.54L6,35.09,4.85,28a6.25,6.25,0,0,1-1.07-1,11.24,11.24,0,0,1,.39-1.19,6.09,6.09,0,0,1,.26-.58,8,8,0,0,0,1.67,1.23,9.13,9.13,0,0,0,8.66,0,7.79,7.79,0,0,0,1.95-1.52Z"/><g class="cls-25"><path class="cls-26" d="M75.22,26.69l-.09.15a7.41,7.41,0,0,1-1.07,1.34l-1.6,9.29,0,.09-.52,3-.66,3.49-.19,1-.63,3.34h0l-.26,1.39L69.76,52l-.24,1.26,0,.1L69.3,54.5l0,.12-.75,4-.22,1.16v0l-.22,1.14h0l-.63,3.35.11.06h0l-.29,1.54h0l-.14.06-.4,2.14a1.11,1.11,0,0,1-1.12,1.09H39.23V10.3h.93a32.45,32.45,0,0,1,20,7.18h.63A24.63,24.63,0,0,1,68,16.21h0C76.22,16.23,77.68,22.57,75.22,26.69Z"/></g><circle class="cls-8" cx="42.82" cy="67.81" r="0.37"/><circle class="cls-8" cx="45.43" cy="67.81" r="0.37"/><circle class="cls-8" cx="45.43" cy="65.82" r="0.37"/><circle class="cls-8" cx="48.03" cy="67.81" r="0.37"/><circle class="cls-8" cx="30.3" cy="67.81" r="0.37"/><circle class="cls-8" cx="32.91" cy="67.81" r="0.37"/><circle class="cls-8" cx="32.91" cy="65.82" r="0.37"/><circle class="cls-8" cx="35.51" cy="67.81" r="0.37"/><rect class="cls-27" x="16.3" y="59.5" width="8.55" height="3.22" rx="1.61" ry="1.61"/><rect class="cls-27" x="55.84" y="59.63" width="8.92" height="3.22" rx="1.61" ry="1.61"/><circle class="cls-22" cx="49.58" cy="59.19" r="1.18"/><circle class="cls-22" cx="54.1" cy="59.01" r="1.24"/><circle class="cls-22" cx="56.21" cy="59.38" r="1.24"/><circle class="cls-22" cx="51.88" cy="59.9" r="1.24" transform="translate(-18.09 22.71) rotate(-21.12)"/><circle class="cls-22" cx="49.52" cy="60.74" r="0.99"/></g></g></svg>