<svg xmlns="http://www.w3.org/2000/svg" viewBox="0 0 75.36 75.36"><defs><style>.cls-1{fill:#099;}.cls-2{fill:#00b7b2;}.cls-3{fill:#d36318;}.cls-4{fill:#f4731c;}.cls-5{fill:#d8d8d8;}.cls-6{fill:#ededed;}.cls-7{fill:#2b2b2b;}.cls-8{fill:#ff9292;}.cls-9{fill:#f27d2f;}.cls-10,.cls-22{fill:#724720;}.cls-11{fill:#bc5d1d;}.cls-12{fill:#495750;}.cls-13{fill:#ccc;}.cls-14{fill:#e8e8e8;}.cls-15{fill:#33493e;}.cls-16{fill:#84572f;}.cls-17{fill:#686b72;}.cls-18{opacity:0.74;}.cls-19{fill:#efefef;}.cls-20{opacity:0.41;}.cls-21,.cls-26{fill:#1dcaf2;}.cls-21{opacity:0.3;}.cls-22{opacity:0.69;}.cls-23{fill:#ef874d;}.cls-24{opacity:0.34;}.cls-25{fill:#512600;}</style></defs><title>tiger-head</title><g id="Layer_2" data-name="Layer 2"><g id="Layer_1-2" data-name="Layer 1"><path class="cls-1" d="M64.32,11A37.68,37.68,0,1,0,11,64.32,37.68,37.68,0,1,0,64.32,11Zm-26.64,59A32.4,32.4,0,0,1,14.77,14.77,32.4,32.4,0,0,1,60.59,60.59,32.19,32.19,0,0,1,37.68,70.08Z"/><path class="cls-1" d="M64.07,11.29A37.32,37.32,0,1,0,11.29,64.07,37.32,37.32,0,1,0,64.07,11.29ZM37.68,70.44A32.76,32.76,0,0,1,14.51,14.51,32.76,32.76,0,1,1,60.84,60.84,32.55,32.55,0,0,1,37.68,70.44Z"/><path class="cls-2" d="M63.47,11A36.48,36.48,0,1,0,11.88,62.63,36.48,36.48,0,1,0,63.47,11Zm-2,49.55A33.6,33.6,0,0,1,13.92,13.08,33.6,33.6,0,0,1,61.44,60.6Z"/><path class="cls-3" d="M73.22,24.58a7.39,7.39,0,0,1-1.07,1.33l-1.61,9.36-.52,3-.66,3.48-.81,4.33h0l-.68,3.6-.26,1.36-.21,1.11-.77,4.07-.22,1.16-.82,4.36,0,.15V62h0l-.29,1.54h0v.06l-.4,2.13a1.1,1.1,0,0,1-1.11,1.09h-52a1.12,1.12,0,0,1-.88-.43,1.07,1.07,0,0,1-.23-.66L10.2,63.5,9.92,62l-.86-4.6-.22-1.16-.77-4.07-.21-1.11L7.6,49.7l-.68-3.6h0l-.81-4.33-.66-3.48L3.33,25.91C-1.39,21.26.62,10.26,16.53,15.24h.63A32.27,32.27,0,0,1,37.37,8.08h.93a32.26,32.26,0,0,1,20,7.16H59A24.75,24.75,0,0,1,66,14h0C74.4,13.93,75.81,20.46,73.22,24.58Z"/><path class="cls-4" d="M11.84,66.31,11.41,64l-.28-1.52-.87-4.67L10,56.61S6.75,43,6.67,38.39c-.05-3.24,1.95-12.83,1.95-12.83l-4.41-.38a6.34,6.34,0,0,1-1.48-6.63c.91-2.18,3.25-3.39,6.59-3.39a23.09,23.09,0,0,1,6.84,1.22l.18.06H17.6l.34-.28a30.94,30.94,0,0,1,19.55-7H38a30.94,30.94,0,0,1,19.56,7l.34.28h1.26l.18-.06a23.09,23.09,0,0,1,6.84-1.22c3.1,0,5.3,1,6.35,2.89a6,6,0,0,1-.34,6,6.25,6.25,0,0,1-.89,1.13l-4.06-.24S68.93,35,68.82,38.39c-.15,4.63-3.37,18.21-3.37,18.21l-.22,1.18-.85,4.58L64.07,64l-.42,2.26Z"/><path class="cls-5" d="M45.94,66.8H28.79c1.7-2.14,4.9-3.58,8.57-3.58S44.24,64.66,45.94,66.8Z"/><path class="cls-6" d="M45.94,66.8H28.79c1.7-1.69,4.9-2.84,8.57-2.84S44.24,65.11,45.94,66.8Z"/><path class="cls-7" d="M42.18,61.25c0,2-2.15,3.7-4.81,3.7s-4.81-1.66-4.81-3.7a3,3,0,0,1,.37-1.43c0,1.86,2,3.36,4.44,3.36s4.4-1.5,4.44-3.36A3,3,0,0,1,42.18,61.25Z"/><path class="cls-8" d="M42.18,60.76c0,2-2.15,3.7-4.81,3.7s-4.81-1.66-4.81-3.7a3,3,0,0,1,.37-1.43c0,1.86,2,3.36,4.44,3.36s4.4-1.5,4.44-3.36A3,3,0,0,1,42.18,60.76Z"/><ellipse class="cls-9" cx="37.8" cy="32.69" rx="26.46" ry="20.54"/><path class="cls-7" d="M44.84,20.11A6.57,6.57,0,0,0,52,16.62a7.52,7.52,0,0,1-6.67,1.95,7.32,7.32,0,0,1-5.94-5.05A6.51,6.51,0,0,0,44.84,20.11Z"/><path class="cls-10" d="M73.69,20.71a6.71,6.71,0,0,1-1,2.74A7.09,7.09,0,0,1,71.2,25a7.52,7.52,0,0,1-4.89,1.67,7.85,7.85,0,0,1-.82-.06,7.48,7.48,0,0,1-3.67-1.5,7.19,7.19,0,0,1-1.58-1.68l-.11-.17a6.8,6.8,0,0,1-.81-1.88,7.26,7.26,0,0,0,1.33,1.5,8.27,8.27,0,0,0,2.64,1.51,9.13,9.13,0,0,0,2.87.51,9,9,0,0,0,3.41-.59,8.08,8.08,0,0,0,2.56-1.57A7,7,0,0,0,73.69,20.71Z"/><path class="cls-10" d="M16.32,21.08a6.81,6.81,0,0,1-2,3.89A7.43,7.43,0,0,1,10,27a7.85,7.85,0,0,1-1.07.05A7.48,7.48,0,0,1,3.75,24.9a6.93,6.93,0,0,1-1-1.33A6.76,6.76,0,0,1,2,21.78,7.13,7.13,0,0,0,3,23a8,8,0,0,0,1.66,1.22A8.92,8.92,0,0,0,8.8,25.31a8.88,8.88,0,0,0,4.46-1.08,7.76,7.76,0,0,0,1.94-1.51A6.79,6.79,0,0,0,16.32,21.08Z"/><path class="cls-7" d="M44.36,25.88a6.57,6.57,0,0,0,7.11-3.49,7.52,7.52,0,0,1-6.67,1.95,7.32,7.32,0,0,1-5.94-5.05A6.51,6.51,0,0,0,44.36,25.88Z"/><path class="cls-7" d="M44.73,32.11a6.57,6.57,0,0,0,7.11-3.49,7.52,7.52,0,0,1-6.67,1.95,7.32,7.32,0,0,1-5.94-5.05A6.51,6.51,0,0,0,44.73,32.11Z"/><path class="cls-7" d="M29.79,19.74a6.57,6.57,0,0,1-7.11-3.49,7.52,7.52,0,0,0,6.67,1.95,7.32,7.32,0,0,0,5.94-5.05A6.51,6.51,0,0,1,29.79,19.74Z"/><path class="cls-7" d="M30.27,25.51A6.57,6.57,0,0,1,23.16,22,7.52,7.52,0,0,0,29.84,24a7.32,7.32,0,0,0,5.94-5.05A6.51,6.51,0,0,1,30.27,25.51Z"/><path class="cls-11" d="M30.38,58.53a1.09,1.09,0,0,0-.19-.75A9,9,0,1,0,15,48.12a1.67,1.67,0,0,1-.86-.26,1.55,1.55,0,0,1-.29-.93v-.3l-1.52-.33-.12.27a3.43,3.43,0,0,0,.35,3.36c.24.31.67.78,1.28,1.41a9.05,9.05,0,0,0-.11,1.39,8.92,8.92,0,0,0,2.78,6.5l.69.66.89-.36a10.48,10.48,0,0,1,2.8-.69,11.25,11.25,0,0,1,1.23-.07,10.61,10.61,0,0,1,4.74,1.08l.86.43.43-.35,1.78,1,.28.17,1-1.28L31,59.65A2,2,0,0,1,30.38,58.53Z"/><path class="cls-11" d="M45.24,58.53a1.09,1.09,0,0,1,.19-.75,9,9,0,1,1,15.19-9.66,1.67,1.67,0,0,0,.86-.26,1.55,1.55,0,0,0,.29-.93v-.3l1.52-.33.12.27a3.43,3.43,0,0,1-.35,3.36c-.24.31-.67.78-1.28,1.41a9.05,9.05,0,0,1,.11,1.39,8.92,8.92,0,0,1-2.78,6.5l-.69.66-.89-.36a10.48,10.48,0,0,0-2.8-.69,11.25,11.25,0,0,0-1.23-.07,10.61,10.61,0,0,0-4.74,1.08l-.86.43-.43-.35-1.78,1-.28.17-1-1.28.23-.23A2,2,0,0,0,45.24,58.53Z"/><path class="cls-7" d="M29.9,31.74a6.57,6.57,0,0,1-7.11-3.49,7.52,7.52,0,0,0,6.67,1.95,7.32,7.32,0,0,0,5.94-5.05A6.51,6.51,0,0,1,29.9,31.74Z"/><path class="cls-7" d="M45.14,60.51s1-.92.86-1.73,12.71-8.9,12.71-8.9,2.25.37,3.21-.35a2.11,2.11,0,0,0,.62-1.5,2.27,2.27,0,0,1-.25,2.31c-.48.58-1.85,1.85-1.85,1.85S46.13,59.93,45.14,60.51Z"/><path class="cls-7" d="M47.61,59.36a6.74,6.74,0,0,1-3-5.46,6.21,6.21,0,0,1,.17-1.43c.77-3.27,4.13-5.65,8-5.65,4.49,0,8.14,3.18,8.14,7.08A6.61,6.61,0,0,1,58.42,59l-.29.24-.37-.13a12.74,12.74,0,0,0-3-.65c-.44,0-.88-.06-1.33-.06a12.92,12.92,0,0,0-5.13,1l-.36.16Z"/><path class="cls-12" d="M52.91,47.68c-3.64,0-6.67,2.26-7.37,5.26a5.81,5.81,0,0,0-.15,1.33,6.3,6.3,0,0,0,2.74,5.09,13.5,13.5,0,0,1,5.41-1.09c.47,0,.94,0,1.4.07a13.36,13.36,0,0,1,3.19.7,6.21,6.21,0,0,0,2.32-4.76C60.44,50.63,57.07,47.68,52.91,47.68Z"/><path class="cls-13" d="M60.44,54.33a6.15,6.15,0,0,1-2.32,4.73,13.45,13.45,0,0,0-3.19-.69L45.54,53c.7-3,3.74-5.22,7.37-5.22C57.07,47.78,60.44,50.71,60.44,54.33Z"/><path class="cls-14" d="M57.85,58.05a14.7,14.7,0,0,0-2.58-.52l-8.6-4.91a6.53,6.53,0,0,1,6.24-4c3.61,0,6.54,2.55,6.54,5.69A5.22,5.22,0,0,1,57.85,58.05Z"/><path class="cls-12" d="M56.13,53.2c-.86-.09-1.49-.38-1.49-.72s.33-.47.84-.61a5.76,5.76,0,0,0-4.78-2.46,5.7,5.7,0,0,0-5.15,3.08,6.62,6.62,0,0,0-.15,1.42,6.87,6.87,0,0,0,2.74,5.44,12.75,12.75,0,0,1,5.41-1.16,13.53,13.53,0,0,1,1.4.07,5.11,5.11,0,0,0,1.44-3.54A5,5,0,0,0,56.13,53.2Z"/><path class="cls-15" d="M48.25,58.54a6.15,6.15,0,0,1-2.12-4.62,6,6,0,0,1,.12-1.2,5,5,0,0,1,4.44-2.61c1.42,0,4.57,6.63,3.91,7.44-.36,0-.72,0-1.08,0A13.7,13.7,0,0,0,48.25,58.54Z"/><path class="cls-16" d="M47.8,59.61l-.11-.22A13.11,13.11,0,0,1,53.33,58a13.26,13.26,0,0,1,4.83.79l-.09.23a13.29,13.29,0,0,0-10.28.56Z"/><path class="cls-17" d="M52,50.11c-.25.12.12.58.25.81a16.24,16.24,0,0,1,1.6,2.54c.12.58,1,2.43,1.11,2.89a.31.31,0,0,0,.49.23,5.48,5.48,0,0,0,.37-1.85,3.65,3.65,0,0,0-1-1.27c-.25-.23-.86-.81-.86-1.27a1.65,1.65,0,0,0-.74-1.5C52.66,50.34,52.29,50,52,50.11Z"/><ellipse class="cls-7" cx="50.57" cy="54.5" rx="3.82" ry="3.58"/><g class="cls-18"><ellipse class="cls-19" cx="53.9" cy="54.61" rx="1.23" ry="1.16"/></g><g class="cls-20"><circle class="cls-19" cx="51.92" cy="55.45" r="0.62"/></g><path class="cls-7" d="M53.51,38.17h0a4.56,4.56,0,0,0-6,5.43Z"/><path class="cls-7" d="M54.24,43.76h0a3.69,3.69,0,0,0-6.39,1.35Z"/><path class="cls-7" d="M67.64,50.65,67.38,52A6.32,6.32,0,0,1,63,51,7.13,7.13,0,0,0,67.64,50.65Z"/><path class="cls-7" d="M66.41,57.3l-.22,1.18a6.54,6.54,0,0,1-1.41-.83A6.19,6.19,0,0,1,63,55.4a6.74,6.74,0,0,0,2.27,1.53A7.41,7.41,0,0,0,66.41,57.3Z"/><path class="cls-7" d="M69.13,42.58,68.31,47h0a4.72,4.72,0,0,1-3.59,1.93A5.54,5.54,0,0,0,68,45a5.39,5.39,0,0,0-1.67-5.5A4.63,4.63,0,0,1,69.13,42.58Z"/><path class="cls-7" d="M30.51,60.26s-1-.9-.86-1.69S16.94,49.9,16.94,49.9s-2.25.36-3.21-.34a2,2,0,0,1-.62-1.46,2.17,2.17,0,0,0,.25,2.25c.48.57,1.85,1.8,1.85,1.8S29.53,59.7,30.51,60.26Z"/><path class="cls-7" d="M28,59.14a6.67,6.67,0,0,0,3-5.42,6.12,6.12,0,0,0-.17-1.42c-.77-3.25-4.13-5.61-8-5.61-4.49,0-8.14,3.15-8.14,7a6.54,6.54,0,0,0,2.51,5.07l.29.24.37-.13a12.83,12.83,0,0,1,3-.65c.44,0,.88-.06,1.33-.06a13,13,0,0,1,5.13,1l.36.16Z"/><path class="cls-12" d="M22.74,47.56c3.64,0,6.67,2.24,7.37,5.22a5.72,5.72,0,0,1,.15,1.32,6.23,6.23,0,0,1-2.74,5,13.59,13.59,0,0,0-5.41-1.08c-.47,0-.94,0-1.4.07a13.46,13.46,0,0,0-3.19.69,6.14,6.14,0,0,1-2.32-4.72C15.22,50.48,18.59,47.56,22.74,47.56Z"/><path class="cls-13" d="M15.22,54.14a6.08,6.08,0,0,0,2.32,4.69,13.54,13.54,0,0,1,3.19-.68l9.38-5.32c-.7-3-3.74-5.18-7.37-5.18C18.59,47.65,15.22,50.56,15.22,54.14Z"/><path class="cls-14" d="M17.8,57.84a14.8,14.8,0,0,1,2.58-.51L29,52.45a6.53,6.53,0,0,0-6.24-4c-3.61,0-6.54,2.53-6.54,5.64A5.16,5.16,0,0,0,17.8,57.84Z"/><path class="cls-12" d="M19.53,53.14c.86-.09,1.49-.37,1.49-.71s-.33-.46-.84-.59A5.81,5.81,0,0,1,25,49.45a5.72,5.72,0,0,1,5.15,3,6.3,6.3,0,0,1,.15,1.39,6.64,6.64,0,0,1-2.74,5.3A13,13,0,0,0,22.13,58a13.87,13.87,0,0,0-1.4.07,4.92,4.92,0,0,1-1.44-3.45A4.76,4.76,0,0,1,19.53,53.14Z"/><path class="cls-15" d="M27.41,58.34a5.94,5.94,0,0,0,2.12-4.5,5.71,5.71,0,0,0-.12-1.17A5,5,0,0,0,25,50.12c-1.42,0-4.57,6.47-3.91,7.25.36,0,.72,0,1.08,0A14,14,0,0,1,27.41,58.34Z"/><path class="cls-16" d="M27.85,59.61a13.29,13.29,0,0,0-10.28-.56l-.09-.23A13.25,13.25,0,0,1,22.32,58,13.11,13.11,0,0,1,28,59.39Z"/><path class="cls-17" d="M23.61,50.12c.25.11-.12.56-.25.79a15.78,15.78,0,0,0-1.6,2.48c-.12.56-1,2.37-1.11,2.82a.31.31,0,0,1-.49.23,5.23,5.23,0,0,1-.37-1.8,3.57,3.57,0,0,1,1-1.24c.25-.23.86-.79.86-1.24a1.6,1.6,0,0,1,.74-1.46C23,50.35,23.36,50,23.61,50.12Z"/><ellipse class="cls-7" cx="25.09" cy="54.4" rx="3.82" ry="3.49"/><g class="cls-18"><circle class="cls-19" cx="21.76" cy="54.22" r="1.23"/></g><g class="cls-20"><circle class="cls-19" cx="23.73" cy="55.45" r="0.62"/></g><path class="cls-7" d="M7.89,51.26l.26,1.26a6.8,6.8,0,0,0,4.39-.92A7.76,7.76,0,0,1,7.89,51.26Z"/><path class="cls-7" d="M9.12,57.3l.22,1.18a6.54,6.54,0,0,0,1.41-.83,6.19,6.19,0,0,0,1.82-2.25,6.74,6.74,0,0,1-2.27,1.53A7.41,7.41,0,0,1,9.12,57.3Z"/><path class="cls-7" d="M6.4,42.58,7.21,47h0a4.72,4.72,0,0,0,3.59,1.93A5.54,5.54,0,0,1,7.52,45a5.39,5.39,0,0,1,1.67-5.5A4.63,4.63,0,0,0,6.4,42.58Z"/><path class="cls-7" d="M23.43,38.22h0A4.56,4.56,0,0,1,29,44.05Z"/><path class="cls-7" d="M22.31,43.75h0a3.69,3.69,0,0,1,6.28,1.79Z"/><circle class="cls-21" cx="27.93" cy="56.75" r="1.17"/><circle class="cls-21" cx="23.43" cy="56.56" r="1.23"/><circle class="cls-21" cx="21.33" cy="56.93" r="1.23"/><circle class="cls-21" cx="25.63" cy="57.45" r="1.23" transform="translate(-37.19 60.66) rotate(-68.88)"/><circle class="cls-21" cx="27.99" cy="58.29" r="0.99"/><rect class="cls-7" x="36.93" y="64.7" width="0.62" height="2.1"/><path class="cls-22" d="M73.22,24.82a5.93,5.93,0,0,1-1.07.85L71,31.89l-1.23-.65s-2.49-3.48-4.33-4.59l-.24-.13c-1.6-.8-4.29-2.58-5-3.05l-.18-.12.07-.05.52-.38a8.27,8.27,0,0,0,2.64,1.51,9.13,9.13,0,0,0,2.87.51,9,9,0,0,0,3.41-.59,8.08,8.08,0,0,0,2.56-1.57l0,0a3.1,3.1,0,0,1,.48.65A7.23,7.23,0,0,1,73.22,24.82Z"/><ellipse class="cls-23" cx="22.62" cy="61" rx="5" ry="1.85"/><ellipse class="cls-23" cx="53.34" cy="61" rx="5" ry="1.85"/><path class="cls-22" d="M15.49,23s-3.33,2.72-5.18,3.84L10,27c-1.83,1.39-4.27,5.51-4.27,5.51l-1.19.34L3.4,25.79a6.22,6.22,0,0,1-1.07-1,11.19,11.19,0,0,1,.38-1.19A6.06,6.06,0,0,1,3,23a8,8,0,0,0,1.66,1.22A8.92,8.92,0,0,0,8.8,25.31a8.88,8.88,0,0,0,4.46-1.08,7.76,7.76,0,0,0,1.94-1.51Z"/><g class="cls-24"><path class="cls-25" d="M73.44,24.52l-.09.15A7.37,7.37,0,0,1,72.28,26l-1.59,9.25,0,.09-.52,3-.66,3.48-.19,1-.63,3.32h0l-.26,1.38L68,49.74,67.77,51l0,.1-.21,1.11,0,.12-.74,4-.22,1.16v0l-.21,1.14h0l-.63,3.33.11.06h0l-.29,1.53h0l-.13.06L65,65.71a1.1,1.1,0,0,1-1.11,1.09H37.61V8.2h.93a32.3,32.3,0,0,1,19.91,7.14h.63a24.52,24.52,0,0,1,7.21-1.26h0C74.44,14.11,75.89,20.42,73.44,24.52Z"/></g><circle class="cls-7" cx="41.19" cy="65.44" r="0.37"/><circle class="cls-7" cx="43.78" cy="65.44" r="0.37"/><circle class="cls-7" cx="43.78" cy="63.47" r="0.37"/><circle class="cls-7" cx="46.37" cy="65.44" r="0.37"/><circle class="cls-7" cx="28.73" cy="65.44" r="0.37"/><circle class="cls-7" cx="31.32" cy="65.44" r="0.37"/><circle class="cls-7" cx="31.32" cy="63.47" r="0.37"/><circle class="cls-7" cx="33.91" cy="65.44" r="0.37"/><rect class="cls-26" x="14.79" y="57.18" width="8.51" height="3.21" rx="0.94" ry="0.94"/><rect class="cls-26" x="54.14" y="57.3" width="8.88" height="3.21" rx="0.94" ry="0.94"/><circle class="cls-21" cx="47.91" cy="56.87" r="1.17"/><circle class="cls-21" cx="52.42" cy="56.69" r="1.23"/><circle class="cls-21" cx="54.51" cy="57.06" r="1.23"/><circle class="cls-21" cx="50.21" cy="57.57" r="1.23" transform="translate(-17.37 21.95) rotate(-21.12)"/><circle class="cls-21" cx="47.85" cy="58.41" r="0.99"/></g></g></svg>