<svg xmlns="http://www.w3.org/2000/svg" xmlns:xlink="http://www.w3.org/1999/xlink" width="322.73" height="137.38" viewBox="0 0 322.73 137.38"><defs><style>.cls-1{fill:#492812;}.cls-2{fill:#86502a;}.cls-3{fill:#784418;}.cls-4{fill:#b87f50;}.cls-5{fill:#5d3b20;}.cls-6{opacity:0.41;}.cls-7{fill:#683f29;}.cls-8{fill:#5c2f0b;}.cls-9{fill:url(#radial-gradient);}.cls-10{fill:url(#radial-gradient-2);}.cls-11{fill:url(#radial-gradient-3);}.cls-12{opacity:0.76;}.cls-13{fill:url(#radial-gradient-4);}.cls-14{opacity:0.49;}.cls-15{fill:url(#radial-gradient-5);}.cls-16{opacity:0.7;}.cls-17{fill:url(#linear-gradient);}.cls-18{opacity:0.57;}.cls-19{fill:#5b280c;}.cls-20{fill:#5e260b;}</style><radialGradient id="radial-gradient" cx="-1565.91" cy="-10.39" r="90.24" gradientTransform="matrix(-0.94, 0, 0, 0.79, -1341.87, 13.67)" gradientUnits="userSpaceOnUse"><stop offset="0" stop-color="#b87f50" stop-opacity="0.4"/><stop offset="0.11" stop-color="#c2946d" stop-opacity="0.31"/><stop offset="0.31" stop-color="#d0b49a" stop-opacity="0.17"/><stop offset="0.52" stop-color="#dbcbbb" stop-opacity="0.08"/><stop offset="0.74" stop-color="#e1d9ce" stop-opacity="0.02"/><stop offset="1" stop-color="#e3ddd4" stop-opacity="0"/></radialGradient><radialGradient id="radial-gradient-2" cx="-3154.15" cy="26.93" r="80.81" gradientTransform="matrix(-0.43, 0, 0, 1.28, -1282.6, -20.9)" xlink:href="#radial-gradient"/><radialGradient id="radial-gradient-3" cx="-1586.01" cy="41.19" r="87.3" gradientTransform="matrix(-0.94, 0, 0, 1.07, -1341.87, -12.25)" gradientUnits="userSpaceOnUse"><stop offset="0" stop-color="#b87f50" stop-opacity="0.3"/><stop offset="0.22" stop-color="#caa687" stop-opacity="0.17"/><stop offset="0.46" stop-color="#d8c5b2" stop-opacity="0.08"/><stop offset="0.71" stop-color="#e0d7cc" stop-opacity="0.02"/><stop offset="1" stop-color="#e3ddd4" stop-opacity="0"/></radialGradient><radialGradient id="radial-gradient-4" cx="-1729.03" cy="49.9" r="25.02" gradientTransform="matrix(-0.94, 0, 0, 0.79, -1341.87, 13.67)" xlink:href="#radial-gradient-3"/><radialGradient id="radial-gradient-5" cx="-1679.3" cy="20.2" r="24.23" gradientTransform="matrix(-0.94, 0, 0, 1.16, -1341.87, -9.05)" xlink:href="#radial-gradient-3"/><linearGradient id="linear-gradient" x1="-1394.52" y1="-137.57" x2="-1376.95" y2="-137.57" gradientTransform="matrix(-0.98, -0.18, -0.18, 0.98, -1370.57, -100.83)" xlink:href="#radial-gradient-3"/></defs><title>topwoodbase</title><g id="Layer_2" data-name="Layer 2"><g id="Layer_1-2" data-name="Layer 1"><path class="cls-1" d="M56.41,84c11-6,25-17,32-21l142.53-2.5c.23.06.47,46.5.47,46.5l19,30c25.12,1.7,48.77-2.33,60-10l11-22-1.63-28.73L319.41,50l-.71-6.38V40.57s2.35-6.42,3.75-9.12l.28-.54-.24-.55c-.44-1-1.87-5.12-1.87-5.12l.95-7.23,1-7.1L317.73,0H256.36C228.13,0,4.54.55,4.54.55L1.91,15.14l1.33,5.31,1,4.68L3.41,26,0,38.25l2.39,9.46s.73,1.22,1,1.32c.24.51,2,20,2,20s11,12,16,15Z"/><path class="cls-2" d="M316.1,49.64l.21,22,1.1,33.36-11,19c-13.74,7.32-37.28,9.4-54,8l-20-30V56l-146,3-31,20h-32L7.12,66.91l.53-21.67L3.57,43.91,1.3,38.18,5.51,25.64,2.91,15,5.51,1.09H316.42L321,9.55,319,23.45,321,28.64l-3.9,9.27Z"/><path class="cls-3" d="M4.54,38.56a8.69,8.69,0,0,0,1.16,3.19l.53.1,4,1.78.87,5.8S10.92,65.17,11,65.61C13.2,68.34,21.41,76,26.41,77a71,71,0,0,0,28-4c7.85-2.93,19.17-10.18,29.83-15.29l.86-.53L233.41,54l1,40c0,1,19,36,19,36l48-9,11-17,1-36-.2-19.57.65-7.47V37.77s2.39-6.84,3.63-9.23c-.33-.77-.84-2.23-1.2-3.31-.26-.76-.44-1.32-.44-1.32l1-8.44.94-5.7L314.4,3.22s-37-1-64.22-1-242.57,1-242.57,1L6.27,7.31l-.13,6.87,0,.76,1.13,4,1.3,6.27.15.72,3,8.17S5.41,37.52,4.54,38.56Z"/><polygon class="cls-1" points="322.28 10.91 279.74 9.54 322.28 13.09 322.28 10.91"/><polygon class="cls-1" points="4.63 26.13 227.56 24.87 4.44 23.95 4.63 26.13"/><polygon class="cls-1" points="320.3 25.24 227.78 22.09 320.82 26.45 320.3 25.24"/><polygon class="cls-1" points="318.72 40.05 294.64 38.01 250.75 36.32 295 39.37 318.8 43.05 318.72 40.05"/><polygon class="cls-1" points="6.33 45.89 26.43 41.6 30.07 40.83 241.34 41.55 29.89 43.09 9.41 49 6.65 60.84 6.33 45.89"/><polygon class="cls-1" points="26.63 39.55 29.88 36.27 25.34 39.55 25.01 43.18 26.63 42.82 26.63 39.55"/><path class="cls-4" d="M313.67,10.64l7.14.23L321,9.55l-4.55-8.45H263.77l-37.83,0L5.52,1.09,2.92,15l2.22,8.86,34.54.59L6.49,22.64S4.22,15.55,4.22,15,5.52,1.91,6.17,1.64s308.64.55,308.64.55a1.83,1.83,0,0,1,1,.27,73,73,0,0,1,3.9,6.82C319.68,9.55,317.41,10.36,313.67,10.64Z"/><path class="cls-4" d="M316.35,12.61l4.14.34L319,23.45l.65,1.84-22.24-.89s20,.68,20.3-.14,1.95-9.55,1.62-10.09S318.22,13.23,316.35,12.61Z"/><path class="cls-4" d="M301.25,25.57l18.92.89.81,2.18-3.9,9.27-.16,2-17.86-1.57s16.72,1.16,17,.89,0-1.64.32-1.91,4.22-8.73,3.9-9a3.44,3.44,0,0,0-1.62-1.09C317.73,27,301.25,25.57,301.25,25.57Z"/><path class="cls-4" d="M295.57,39.48l21.11,3.2-.57,7,.21,22L317.41,105l-11,19c-13.57,7.26-37.11,9.4-54,8,22,2,41.7-4,52-10l11-18,.26-33.45-.86-21.45,1.3-6Z"/><polygon class="cls-4" points="42.33 25.45 4.41 26 1.31 38.18 6.41 28 42.33 25.45"/><polygon class="cls-4" points="3.58 43.91 7.41 46 25.41 42 25.34 39.55 29.88 36.27 25.01 39.55 24.41 41 7.8 44.73 3.58 43.91"/><path class="cls-4" d="M30.45,43.43,5.8,48.89,7.12,63.66S9.08,50,9.41,50,30.45,43.43,30.45,43.43Z"/><polygon class="cls-4" points="232.41 56 86.41 59 55.41 79 23.41 79 55.41 77 86.41 57 232.41 56"/><path class="cls-5" d="M305.94,17.19c-.15,1,.9,1.88,2.35,2s2.75-.51,2.9-1.48-.9-1.88-2.35-2S306.1,16.22,305.94,17.19Z"/><g class="cls-6"><path class="cls-5" d="M292,44.45c-.15,1,2.48,2,5.88,2.41s6.27-.14,6.43-1.11-2.48-2-5.88-2.41S292.18,43.48,292,44.45Z"/></g><path class="cls-5" d="M303.12,19.53c-.09.56.52,1.09,1.36,1.18s1.6-.3,1.68-.86-.52-1.09-1.36-1.18S303.21,19,303.12,19.53Z"/><path class="cls-7" d="M17.32,33.26a2,2,0,0,0,2.26,1.65A1.88,1.88,0,0,0,21.52,33a2,2,0,0,0-2.26-1.65A1.88,1.88,0,0,0,17.32,33.26Z"/><path class="cls-5" d="M13.62,36.25c0,.39.56.68,1.17.64s1.07-.39,1-.78-.56-.68-1.17-.64S13.58,35.86,13.62,36.25Z"/><path class="cls-5" d="M16.6,37.65c.05.57.8,1,1.68.92s1.54-.56,1.49-1.13-.8-1-1.68-.92S16.55,37.08,16.6,37.65Z"/><path class="cls-8" d="M245.32,6.27C236.87,6,45.79,4.91,41.57,5.18S6.17,7.36,6.17,7.36l34.11-.55Z"/><path class="cls-9" d="M6.15,7.29c.18,0,31.24-1.91,35.41-2.18,3.1-.2,183.71.32,194.35.74,3.83.15,7.14.28,9.4.35v.15l-205,.55L6.17,7.44ZM235.91,6C225.84,5.6,43.72,3.36,40.64,3.56c-3.36.22-27.81,3.19-32.58,3.68l32.21-.5,202.07-.5Z"/><path class="cls-8" d="M133.05,14.28s-86.51-3.55-90.11-3.11-8.85,4.88-8.85,4.88l87.41-2.66Z"/><path class="cls-10" d="M34.08,15.94c.05,0,5.3-4.45,8.86-4.89s90,3.07,90.12,3.11v.24l-11.55-.89L34.09,16.17Zm98.16-1.84c-2.32-.85-86.36-3.16-89.29-2.8s-7.07,3.46-8.41,4.52l87-2.54Z"/><path class="cls-8" d="M260.26,31.23S49,29.74,43.84,30.48s-14.94,4.09-14.94,4.09l13-1.86Z"/><path class="cls-11" d="M28.88,34.47c.1,0,13.94-5.34,14.67-5.34,5.19,0,216.27,2,216.71,2v.2L41.91,32.81l-13,1.86Zm13.94-5.34c-1.46,0-10.18,4.3-12.84,5.18l11.91-1.7L257,31.22C246.72,30.9,47.16,29.14,42.82,29.14Z"/><g class="cls-12"><path class="cls-8" d="M246.62,47.73s43.84-1.09,49-.55,14.94,13,14.94,13l-13-11.36Z"/><path class="cls-13" d="M297.6,48.89l-51-1.09v-.15c.44,0,43.9-1.08,49-.54s14.85,13,15,13l0,.14Zm-47.71-1.17,47.72,1L309.51,60c-2.66-.65-10.77-13.87-14.9-14.31-1-.11-2.37,0-5.82,0C277.82,45.69,257.7,47.54,249.89,47.72Z"/></g><g class="cls-14"><path class="cls-8" d="M200,14.12s43.84-1.61,49-.81S264,17.74,264,17.74l-13-2Z"/><path class="cls-15" d="M251,15.84l-51-1.61V14c.44,0,43.9-1.6,49-.81s14.85,4.4,15,4.44l0,.21Zm-47.71-1.73L251,15.62l11.9,1.85c-2.66-1-10.77-5.72-14.9-6.36-1-.16-2.37,0-5.82,0C231.21,11.1,211.09,13.84,203.28,14.11Z"/></g><g class="cls-16"><path class="cls-8" d="M17.34,20.5s6.79-.8,7.64-2.29,1.95-7.44,1-8.43S13.65,9.16,12,10.09s-3.45,3.06-3.6,3.85,2.21,3.69,2.21,3.69a5,5,0,0,1-.25-3.33c.57-1.54,1.7-3,3.17-3.11S23.3,10.11,24,11.06c0,0,1.09,3.48-.11,5.31s-6.95,3.23-7.64,2.29a2.29,2.29,0,0,1,0-3.28c1.13-1.43,5.88-.56,5.88-.56l-6.43-1.18s-1.83,2.12-1.7,3,0,3.28.74,3.83S17.34,20.5,17.34,20.5Z"/><path class="cls-17" d="M14.71,20.53c-.6-.43-.66-1.89-.71-3,0-.38,0-.71-.07-.92-.14-.89,1.54-2.86,1.73-3.08l0,0,6.46,1.19,0,.22s-4.72-.85-5.81.53a2.71,2.71,0,0,0-.67,1.47,2.55,2.55,0,0,0,.66,1.65c.19.26.9.35,1.9.22,2.11-.27,4.87-1.33,5.63-2.49,1.11-1.69.18-4.91.1-5.17-.44-.54-3.74-.5-9.81.12l-.55.05c-1.5.14-2.59,1.66-3.1,3a4.86,4.86,0,0,0,.25,3.22l.32.7-.44-.54c-.24-.3-2.38-3-2.23-3.79s2-3,3.65-3.94c.87-.5,4.26-.81,7.23-.89s6.22,0,6.76.59.37,3.11.22,4.13A15.55,15.55,0,0,1,25,18.27c-.86,1.5-7.37,2.29-7.7,2.33a5.58,5.58,0,0,1-2,.15A1.46,1.46,0,0,1,14.71,20.53ZM12.06,10.19c-1.64.95-3.41,3-3.54,3.76-.09.47,1,2,1.86,3.17a4.6,4.6,0,0,1,0-2.86c.53-1.44,1.67-3,3.24-3.18l.55-.05c4-.41,9.35-.85,9.93-.05v0c0,.14,1.1,3.57-.13,5.43-.81,1.24-3.62,2.3-5.75,2.57-.62.08-1.7.15-2-.27a2.74,2.74,0,0,1-.69-1.81,3,3,0,0,1,.73-1.63c.57-.72,2-.88,3.3-.86l-3.78-.7c-.52.61-1.74,2.19-1.64,2.82,0,.23.05.57.07,1,0,1,.11,2.43.64,2.81.73.53,2.52.06,2.54.06h0s1.72-.2,3.5-.59c3-.63,3.85-1.25,4.08-1.65a15.52,15.52,0,0,0,1.15-4.35c.29-2.05.23-3.52-.17-3.94A1.86,1.86,0,0,0,25,9.56C22.16,9,13.53,9.34,12.06,10.19Z"/></g><polyline class="cls-4" points="232.07 90.17 232.41 102 242.41 117.33 234.41 101"/><g class="cls-18"><path class="cls-19" d="M239.41,67.9c2.73-.38,5.46-.55,8.18-.68s5.46-.17,8.18-.06c.67,0,1.39.11,2,.11a17.33,17.33,0,0,0,2-.07,35.31,35.31,0,0,0,4-.58c2.67-.54,5.28-1.35,7.91-2.13,1.31-.39,2.64-.77,4-1.08A15.22,15.22,0,0,1,280,63l.61.08.46.07c.29.06.62.09,1,.12.65.07,1.33.1,2,.15l4.05.21c5.42.31,10.87.63,16.32,1.28v.2a119,119,0,0,1-16.41.65c-1.37-.06-2.74-.12-4.12-.26-.69-.08-1.38-.14-2.08-.26-.35,0-.7-.1-1.07-.19l-.55-.12-.4-.06A17.46,17.46,0,0,0,276,65c-1.33.18-2.68.34-4,.56q-4,.65-8,1.69c-1.33.34-2.64.73-4,1.05a21.44,21.44,0,0,1-4.17.53c-2.73.12-5.46.05-8.18-.06s-5.46-.29-8.18-.68Z"/></g><g class="cls-18"><path class="cls-20" d="M252.41,107c3.75,2.55,7.47,5.14,11.2,7.73l-.22-.06q6.74-.66,13.48-1.24l13.49-1.18-.52.26c4.57-5.42,9.26-10.73,13.89-16.1v1.19l-5-6,.68.34-9.25-.46c-3.08-.14-6.17-.35-9.25-.52l-18.5-1.08.84-.49-4,8-.45-1.17,17.91,7.24h-.43l7.55-2.89,7.57-2.83.06.55q-5.48-1.11-10.95-2.28,5.53.82,11.05,1.72l1,.16-.92.39-7.43,3.17-7.45,3.11-.21.09-.23-.08L258.1,97.79l-.87-.32.42-.84,4-8,.26-.52.58,0L281,89c3.08.16,6.17.29,9.25.48l9.25.54.42,0,.26.32,5,6,.5.61-.51.58c-4.7,5.3-9.35,10.65-14.11,15.9l-.22.24-.3,0-13.51.82q-6.76.43-13.52.76h-.13l-.09-.07C259.6,112.53,256,109.79,252.41,107Z"/></g></g></g></svg>