<svg xmlns="http://www.w3.org/2000/svg" xmlns:xlink="http://www.w3.org/1999/xlink" viewBox="0 0 631.47 386.64"><defs><style>.a{fill:#a8a8a8;}.b{fill:#b5b5b5;}.c{fill:#c6c6c6;}.d{fill:#d3d3d3;}.e{fill:#ddd;}.f{fill:#cecece;}.g{fill:#eae8e8;}.h{fill:#efefef;}.i{opacity:0.35;fill:url(#a);}.j{fill:#e5e5e5;}.k{fill:#9b9a9a;}.l{fill:#495750;}.m{fill:#ccc;}.n{fill:#e8e8e8;}.o{fill:#249daa;}.p{fill:#1b6d6b;}.q{fill:#2bd0d8;}.r{fill:#2b2b2b;}.s{opacity:0.74;}.t{opacity:0.41;}.u{fill:#f9b9b9;}.v{fill:#eaeaea;}.w{fill:#a3a3a3;}.x{fill:#c1bfbf;}.y{fill:#784418;}.z{fill:#492812;}.aa{fill:#86502a;}.ab{fill:none;}.ac{fill:#b87f50;}.ad{fill:#5d3b20;}.ae{fill:#683f29;}.af{fill:#5c2f0b;}.ag{fill:url(#b);}.ah{opacity:0.76;}.ai{fill:url(#c);}.aj{opacity:0.7;}.ak{fill:url(#d);}.al{fill:#212121;opacity:0.43;}.am{opacity:0.56;fill:#1e0404;}.am,.an{font-size:42px;font-family:GROBOLD, GROBOLD;}.an{fill:#f4f2f2;}</style><linearGradient id="a" x1="362.03" y1="-187.23" x2="362.03" y2="-197.36" gradientTransform="translate(28.86 355.95) rotate(-15.3)" gradientUnits="userSpaceOnUse"><stop offset="0" stop-opacity="0"/><stop offset="1"/></linearGradient><radialGradient id="b" cx="349.8" cy="94.45" r="37.38" gradientUnits="userSpaceOnUse"><stop offset="0" stop-color="#b87f50" stop-opacity="0.3"/><stop offset="0.22" stop-color="#caa687" stop-opacity="0.17"/><stop offset="0.46" stop-color="#d8c5b2" stop-opacity="0.08"/><stop offset="0.71" stop-color="#e0d7cc" stop-opacity="0.02"/><stop offset="1" stop-color="#e3ddd4" stop-opacity="0"/></radialGradient><radialGradient id="c" cx="1148.24" cy="127.65" r="37.38" gradientTransform="matrix(-1, 0, 0, 1, 1415, 0)" xlink:href="#b"/><linearGradient id="d" x1="394.18" y1="132.58" x2="427.3" y2="132.58" xlink:href="#b"/></defs><title>ttutboard</title><path class="a" d="M335.76,90.31l-2.25,23.84a2.87,2.87,0,0,1-3.12,2.58c-15.14.42-28.58-3-39-11.25a12.46,12.46,0,0,1-2.58-3.12l.84-8.85a2.87,2.87,0,0,1,3.12-2.58c13.15,1.68,27,1.85,40.44-3.74A2.87,2.87,0,0,1,335.76,90.31Z" transform="translate(-6.37 -3.2)"/><path class="b" d="M354,73.73h8.49a1.92,1.92,0,0,1,1.92,1.92v1.93a7.76,7.76,0,0,1-7.76,7.76h-8.85a.91.91,0,0,1-.91-.91V80.85A7.12,7.12,0,0,1,354,73.73Z" transform="translate(541.3 385.99) rotate(-134.42)"/><path class="c" d="M331.15,112.25a1.21,1.21,0,0,1-.29.08l-.33-.07-.54.3c-14.29,1.41-27.6-1.3-37.23-8.87a10.16,10.16,0,0,1-1.66-1.89l.76-8.09a.61.61,0,0,1,.45-.53.58.58,0,0,1,.19,0c17.82,2.27,28,.3,34.19-1.38a61.26,61.26,0,0,0,6.6-2.22.61.61,0,0,1,.21.51l-1.86,21.71C331.63,112.09,331.36,112.2,331.15,112.25Z" transform="translate(-6.37 -3.2)"/><path class="d" d="M352.79,82.6a6.91,6.91,0,0,0,9.76.1l1-1L359,77a7.67,7.67,0,0,0-10.84-.11.67.67,0,0,0,0,.93Z" transform="translate(-6.37 -3.2)"/><path class="b" d="M298.6,86.71h8.85a7.76,7.76,0,0,1,7.76,7.76V96.4a1.92,1.92,0,0,1-1.92,1.92H304.8a7.12,7.12,0,0,1-7.12-7.12V87.62A.91.91,0,0,1,298.6,86.71Z" transform="translate(137.09 364.82) rotate(-76.19)"/><path class="e" d="M310.43,93.72a6.91,6.91,0,0,1-8.35,5.05l-1.38-.34,1.57-6.38a7.67,7.67,0,0,1,9.27-5.61.67.67,0,0,1,.48.79Z" transform="translate(-6.37 -3.2)"/><path class="f" d="M314,109.47l-.54-3.57-1-6.66-.37-2.47h0l-.18-1.19-.52-3.45-.06-.37-.16-1v-.06l-.79-5.22-1-6.46L309,76.56l-.1-.65c0-.11,0-.21-.06-.32s0-.16,0-.24v-.08a3.15,3.15,0,0,1,0-.47,3.34,3.34,0,0,1,.18-1,3.39,3.39,0,0,1,.8-1.29,3.33,3.33,0,0,1,1.5-.88l28.1-7.69a3.33,3.33,0,0,1,1.74,0,3.39,3.39,0,0,1,1.34.7,3.34,3.34,0,0,1,.68.79,3,3,0,0,1,.22.42l0,.07c0,.08.06.15.08.23s.07.2.11.3l.25.61.92,2.26,2.1,5.18.21.52.14.35,3.64,9h0l.38.94,0,.1,3.67,9.07,1.39,3.44C360.63,113.62,318.31,125.2,314,109.47Z" transform="translate(-6.37 -3.2)"/><path class="g" d="M316.83,110.68l-5.06-33.57c0-.19-.06-.35-.09-.48a1,1,0,0,1,.67-1.12l28.1-7.69a1,1,0,0,1,1.15.62c0,.12.09.28.16.46l12.74,31.47C356.53,107.77,318.86,118.08,316.83,110.68Z" transform="translate(-6.37 -3.2)"/><path class="h" d="M336.34,107.4a49.54,49.54,0,0,1-10.66,1.85l-5.08-29L336.08,76l10.38,27.52A49.54,49.54,0,0,1,336.34,107.4Z" transform="translate(-6.37 -3.2)"/><path class="a" d="M271.26,97.28h12.17A10.67,10.67,0,0,1,294.1,108v2.66a2.64,2.64,0,0,1-2.64,2.64H279.8a9.79,9.79,0,0,1-9.79-9.79V98.54a1.25,1.25,0,0,1,1.25-1.25Z" transform="translate(113.26 355.55) rotate(-77.82)"/><path class="d" d="M287.58,106.77A9.5,9.5,0,0,1,276.31,114l-1.91-.41,1.91-8.83a10.55,10.55,0,0,1,12.53-8.08.92.92,0,0,1,.69,1.07Z" transform="translate(-6.37 -3.2)"/><path class="a" d="M283.64,79.47h11.67a2.64,2.64,0,0,1,2.64,2.64v2.66a10.67,10.67,0,0,1-10.67,10.67H275.11a1.25,1.25,0,0,1-1.25-1.25V89.26A9.79,9.79,0,0,1,283.64,79.47Z" transform="translate(425.36 -176.75) rotate(102.18)"/><path class="d" d="M291.56,88.37a9.5,9.5,0,0,0-7.27-11.28l-1.91-.41-1.91,8.83A10.55,10.55,0,0,0,288.54,98a.92.92,0,0,0,1.07-.69Z" transform="translate(-6.37 -3.2)"/><path class="i" d="M347.09,74.76l-36.91,10.1-1.26-8.53a1.75,1.75,0,0,1,0-.35,2.54,2.54,0,0,0,0-.55c-.06-.22-.11-.44-.16-.66l34.56-9.46c.07.22.14.43.2.65a2.54,2.54,0,0,0,.24.5,1.75,1.75,0,0,1,.15.32Z" transform="translate(-6.37 -3.2)"/><path class="f" d="M357.93,58.33a3.48,3.48,0,0,1-2.53,4.2L298.34,78.14A3.48,3.48,0,0,1,294,75.82L282.82,42.4a3.41,3.41,0,0,1-.12-1,23.92,23.92,0,0,1-.77-5.22h0A27.26,27.26,0,0,1,286.6,20.3a33.05,33.05,0,0,1,2-2.77A39.17,39.17,0,0,1,307.88,5l.14,0,.8-.23a39.25,39.25,0,0,1,24.27.89A31.76,31.76,0,0,1,336.27,7a27.09,27.09,0,0,1,11.88,11.36,24.15,24.15,0,0,1,1.93,4.87c0,.17.09.33.13.5s0,.15.07.22Z" transform="translate(-6.37 -3.2)"/><path class="f" d="M298.94,73a9.11,9.11,0,1,1,6.38-11.19A9.12,9.12,0,0,1,298.94,73Z" transform="translate(-6.37 -3.2)"/><path class="f" d="M351.38,58.63a9.11,9.11,0,1,1,6.38-11.19A9.12,9.12,0,0,1,351.38,58.63Z" transform="translate(-6.37 -3.2)"/><path class="j" d="M355.81,55.67a5.23,5.23,0,0,1-3.3,5.46L299.46,75.65a5.2,5.2,0,0,1-4.88-3.29l-.35-1.87L283.76,41.21l0-.12a.65.65,0,0,1,0-.18v-.43l-.11-.42c-1.8-6.88-.22-14.27,4.47-20.8A38,38,0,0,1,309,5.21C327,.3,344.8,8.05,348.74,22.49l.1.39,0,.19,0,.12,0,.06,0,.13,6,30h0Z" transform="translate(-6.37 -3.2)"/><circle class="j" cx="296.53" cy="64.19" r="7.91" transform="translate(-12.8 77.34) rotate(-15.3)"/><circle class="j" cx="348.97" cy="49.84" r="7.91" transform="translate(-7.15 90.67) rotate(-15.3)"/><path class="k" d="M301.72,66.56a6.34,6.34,0,1,0-7.34,4.14l.3.07.18-.25a8.83,8.83,0,0,1,1.7-1.73,9.43,9.43,0,0,1,.85-.59,8.94,8.94,0,0,1,3.88-1.31l.31,0Z" transform="translate(-6.37 -3.2)"/><path class="l" d="M292.77,59.88a5.86,5.86,0,0,1,8.61,6.9,9.41,9.41,0,0,0-4.09,1.38,9.88,9.88,0,0,0-.9.62,9.32,9.32,0,0,0-1.8,1.83,5.86,5.86,0,0,1-1.82-10.73Z" transform="translate(-6.37 -3.2)"/><path class="m" d="M290.84,67.94a5.84,5.84,0,0,0,3.75,2.66,9.32,9.32,0,0,1,1.8-1.83l3.72-7.91a5.86,5.86,0,0,0-9.27,7.08Z" transform="translate(-6.37 -3.2)"/><path class="n" d="M294.3,69.73a10.15,10.15,0,0,1,1.47-1.45L299.18,61a5.09,5.09,0,0,0-7.69,6.5A5,5,0,0,0,294.3,69.73Z" transform="translate(-6.37 -3.2)"/><path class="o" d="M293.39,65.68c.53-.41.82-.87.67-1.12s-.42-.2-.82-.09a4.42,4.42,0,0,1,6.87-3.6,5.87,5.87,0,0,1,1.27,5.92,9.41,9.41,0,0,0-4.09,1.38,9.88,9.88,0,0,0-.9.62,4.42,4.42,0,0,1-3-3.1Z" transform="translate(-6.37 -3.2)"/><path class="p" d="M300.94,66.25a5.29,5.29,0,0,0-1.2-4.94,3.86,3.86,0,0,0-4.08,0c-.94.58-.16,6.56.63,6.87.23-.16.46-.32.7-.47A10.09,10.09,0,0,1,300.94,66.25Z" transform="translate(-6.37 -3.2)"/><path class="k" d="M301.73,66.87a10.36,10.36,0,0,0-7.05,3.81l-.15-.12a10.32,10.32,0,0,1,2.89-2.49,10.21,10.21,0,0,1,4.3-1.4Z" transform="translate(-6.37 -3.2)"/><path class="q" d="M294.75,61.82c.21,0,.17.46.19.67A13.66,13.66,0,0,0,295,65c.17.46.4,2.12.52,2.5s-.23.36-.23.36-.93-.78-1-1.16a3,3,0,0,1,.1-1.3,2,2,0,0,0,0-1.25,1.41,1.41,0,0,1-.16-1.37C294.44,62.24,294.54,61.84,294.75,61.82Z" transform="translate(-6.37 -3.2)"/><circle class="r" cx="297.64" cy="64.33" r="2.98" transform="translate(3.91 161.89) rotate(-31.52)"/><g class="s"><circle class="h" cx="295.48" cy="65.77" r="0.96" transform="matrix(0.85, -0.52, 0.52, 0.85, 2.84, 160.97)"/></g><g class="t"><circle class="h" cx="297.3" cy="65.79" r="0.48" transform="matrix(0.85, -0.52, 0.52, 0.85, 3.1, 161.92)"/></g><ellipse class="u" cx="352.42" cy="57.66" rx="2.67" ry="2.05" transform="translate(8.2 170.16) rotate(-28.2)"/><ellipse class="u" cx="298.82" cy="72.33" rx="2.67" ry="2.05" transform="translate(-9.15 9.43) rotate(-2.41)"/><path class="k" d="M345.52,54.12a6.34,6.34,0,1,1,8.42.29l-.24.2-.28-.14a8.83,8.83,0,0,0-2.31-.75,9.43,9.43,0,0,0-1-.13,8.94,8.94,0,0,0-4.05.63l-.29.12Z" transform="translate(-6.37 -3.2)"/><path class="l" d="M350.39,44.07a5.86,5.86,0,0,0-4.47,10.09,9.41,9.41,0,0,1,4.27-.66,9.88,9.88,0,0,1,1.08.14,9.32,9.32,0,0,1,2.43.79,5.86,5.86,0,0,0-3.32-10.36Z" transform="translate(-6.37 -3.2)"/><path class="m" d="M355.81,50.34a5.84,5.84,0,0,1-2.11,4.09,9.32,9.32,0,0,0-2.43-.79l-6.95-5.31a5.86,5.86,0,0,1,11.49,2Z" transform="translate(-6.37 -3.2)"/><path class="n" d="M353.56,53.52a10.15,10.15,0,0,0-2-.61L345.23,48A5.09,5.09,0,0,1,355,50.28,5,5,0,0,1,353.56,53.52Z" transform="translate(-6.37 -3.2)"/><path class="o" d="M352.51,49.5c-.66-.12-1.13-.4-1.11-.68s.28-.37.69-.46a4.42,4.42,0,0,0-7.76,0,5.87,5.87,0,0,0,1.6,5.84,9.41,9.41,0,0,1,4.27-.66,9.88,9.88,0,0,1,1.08.14,4.42,4.42,0,0,0,1.24-4.14Z" transform="translate(-6.37 -3.2)"/><path class="p" d="M346.07,53.49a5.29,5.29,0,0,1-1.2-4.94,3.86,3.86,0,0,1,3.61-1.92c1.1.08,3.16,5.76,2.6,6.39-.28,0-.55-.07-.83-.09A10.09,10.09,0,0,0,346.07,53.49Z" transform="translate(-6.37 -3.2)"/><path class="k" d="M345.65,54.4a10.36,10.36,0,0,1,8,.14l.08-.18a10.32,10.32,0,0,0-3.71-.88,10.21,10.21,0,0,0-4.46.74Z" transform="translate(-6.37 -3.2)"/><path class="q" d="M349.52,46.71c-.2.08.06.49.14.68a13.66,13.66,0,0,1,1.09,2.2c.06.49.62,2.07.69,2.46s.37.22.37.22a4.82,4.82,0,0,0,.4-1.51,3,3,0,0,0-.69-1.11c-.18-.21-.62-.72-.59-1.1a1.41,1.41,0,0,0-.49-1.29C350,46.93,349.72,46.63,349.52,46.71Z" transform="translate(-6.37 -3.2)"/><circle class="r" cx="348.11" cy="50.27" r="2.98" transform="translate(266.58 390.66) rotate(-85.88)"/><g class="s"><circle class="h" cx="350.69" cy="50.55" r="0.96" transform="translate(268.69 393.5) rotate(-85.88)"/></g><g class="t"><circle class="h" cx="349.09" cy="51.4" r="0.48" transform="translate(266.36 392.69) rotate(-85.88)"/></g><ellipse class="f" cx="315.85" cy="30.1" rx="31.71" ry="22.74" transform="translate(-3.12 81.23) rotate(-15.3)"/><ellipse class="e" cx="315.53" cy="28.92" rx="29.37" ry="20.65" transform="translate(-2.82 81.1) rotate(-15.3)"/><ellipse class="v" cx="314.4" cy="23.81" rx="22.27" ry="11.57" transform="translate(-1.51 80.62) rotate(-15.3)"/><path class="w" d="M300.08,69.16c4.39-.21,8.78-.34,13.1-.79,1.08-.11,2.15-.26,3.19-.47.26-.06.52-.11.76-.18l.38-.1.39-.11c.52-.15,1-.31,1.53-.49s1-.38,1.49-.59,1-.43,1.57-.62,1.08-.34,1.63-.48,1.09-.27,1.65-.37,1.12-.17,1.66-.24,1.07-.14,1.6-.23,1.06-.19,1.58-.3a15.51,15.51,0,0,0,1.49-.45c2-.72,4.06-1.57,6.07-2.42s4-1.73,6-2.65q1.5-.68,3-1.4c.49-.24,1-.49,1.46-.75a12,12,0,0,0,1.4-.85,17.58,17.58,0,0,1-2.68,1.93c-.93.59-1.89,1.13-2.85,1.67-1.93,1.06-3.88,2.07-5.87,3-1,.48-2,.94-3,1.39s-2,.87-3.07,1.27a14.88,14.88,0,0,1-1.64.53c-.55.12-1.09.24-1.64.34s-1.11.17-1.65.24-1.07.14-1.59.24-1,.21-1.56.34-1,.28-1.53.45-1,.36-1.49.57-1,.42-1.57.61-1.07.35-1.6.51l-.4.11-.2.06-.21.05c-.28.07-.56.12-.84.18a30.69,30.69,0,0,1-3.33.37c-2.21.14-4.42.14-6.62.07S302.26,69.4,300.08,69.16Z" transform="translate(-6.37 -3.2)"/><path class="x" d="M296.42,50.64a32.25,32.25,0,0,0,12.35,4,34.44,34.44,0,0,0,6.48.1,35.15,35.15,0,0,0,6.39-1.08,35.59,35.59,0,0,0,6.1-2.19l1.46-.71,1.42-.78,1.39-.85c.45-.3.91-.6,1.35-.9a34.3,34.3,0,0,0,9-9.37,29.8,29.8,0,0,1-8.52,10,33.49,33.49,0,0,1-5.68,3.48,35.48,35.48,0,0,1-6.26,2.31,35,35,0,0,1-6.59,1.06,32.29,32.29,0,0,1-6.66-.28A28.33,28.33,0,0,1,296.42,50.64Z" transform="translate(-6.37 -3.2)"/><path class="x" d="M295.56,50a29.63,29.63,0,0,0,12.63,3.37,38.6,38.6,0,0,0,6.55-.24,42,42,0,0,0,6.43-1.28,43.73,43.73,0,0,0,6.17-2.21,44.34,44.34,0,0,0,5.8-3.08,40.46,40.46,0,0,0,9.86-8.7,34.28,34.28,0,0,1-9.4,9.39c-.45.33-.93.62-1.4.92s-1,.58-1.45.85l-.73.41-.75.38-.75.38-.76.35a43.09,43.09,0,0,1-6.3,2.31,41.32,41.32,0,0,1-6.6,1.25,35.76,35.76,0,0,1-6.71.07,29.78,29.78,0,0,1-6.57-1.3A23.6,23.6,0,0,1,295.56,50Z" transform="translate(-6.37 -3.2)"/><path class="a" d="M296.23,50.54a32.3,32.3,0,0,0,6,2.36A32.85,32.85,0,0,0,308.56,54a35.72,35.72,0,0,0,6.4-.08,37.57,37.57,0,0,0,6.28-1.17,39.43,39.43,0,0,0,6-2.16,41.17,41.17,0,0,0,5.62-3.08,39.86,39.86,0,0,0,9.49-8.66,33.61,33.61,0,0,1-9,9.34l-1.36.92-1.4.85-1.44.79-1.47.73a39,39,0,0,1-6.16,2.27A37.2,37.2,0,0,1,315,54.91a33.26,33.26,0,0,1-6.57-.09,30,30,0,0,1-6.39-1.44A27.08,27.08,0,0,1,296.23,50.54Z" transform="translate(-6.37 -3.2)"/><ellipse class="f" cx="322.41" cy="56.33" rx="19.73" ry="1.58" transform="translate(-9.81 83.89) rotate(-15.3)"/><rect class="y" y="109.09" width="631.47" height="277.55"/><rect class="h" x="192.47" y="-54.26" width="261.87" height="610.66" transform="translate(568.1 -75.54) rotate(90)"/><path class="z" d="M450.19,107.31l-3.41,20.58-4.8-1.2s-.77,2.21-1.2,2.4c-.38,1,0,4.8,0,4.8l-1.2,4.8s-9.6,25.2-18,30l-14.4-12c-8.4-4.8-25.2-10.8-30.68-11.58H251.4c-2.84.89-29.52,6-29.52,6l-4.85-.6-14.5-13.7-1.86-19v-6l-.06-.2c-.52-1.64-4-12.79-6.13-17.7l-.46-1,.38-1.09c.73-2,2.77-8.33,2.77-8.33h.23l91.73-.79,87.49-.76L398,81.76l23.75-.2,10.58,1.93Z" transform="translate(-6.37 -3.2)"/><polygon class="aa" points="190.54 85.24 196.97 103.44 198.58 126.47 211.43 138.25 244.63 132.9 371 132.9 402.01 146.29 416.41 157.09 430.44 132.9 431.21 117.83 438.01 121.09 439.21 104.29 426.01 81.49 413.3 79.35 190.54 85.24"/><path class="y" d="M414.6,81.75l-.25,1.41,16.52,16s10.39,6.68,11.82,8.73a19.23,19.23,0,0,1-1.92,6.27l-.87.2-6.67,3.5-1.43,11.39a36.76,36.76,0,0,1,.27,4.26c-.9,8.75-8.1,24.35-24.25,13.26h0c-6.63-3.32-17.48-7.8-27.27-15l-1.41-1H250.19l-.77.24c-5,1.55-27.55,5.58-27.55,5.58l-2.53-.24-9.56-9-1.07-14.67,0-6.3s-3.94-13.43-6-18.13c.54-1.5,1.08-2.64,1.68-4.76Z" transform="translate(-6.37 -3.2)"/><line class="ab" x1="414.74" y1="80.31" x2="344.58" y2="77.84"/><line class="ab" x1="190.8" y1="80.95" x2="191.65" y2="78.58"/><polygon class="z" points="194.25 107.64 233.97 103.64 306.34 100.32 233.38 106.31 194.13 113.53 194.25 107.64"/><polygon class="z" points="433.43 118.09 400.17 112.05 394.15 110.96 322.27 101.91 394.53 113.66 433.08 123.97 433.43 118.09"/><polygon class="z" points="399.9 106.66 394.54 100.23 402.04 106.66 402.58 113.8 399.9 113.08 399.9 106.66"/><path class="ac" d="M384.76,80.23" transform="translate(-6.37 -3.2)"/><path class="ac" d="M229.58,83.49l-31.34.67-1.34,4.28,6.43,18.21.27,4L233,107.58s-27.58,2.28-28.11,1.74,0-3.21-.54-3.75-7-17.14-6.43-17.67a5.8,5.8,0,0,1,2.68-2.14C202.26,85.23,229.58,83.49,229.58,83.49Z" transform="translate(-6.37 -3.2)"/><polygon class="ac" points="232.43 106.52 197.63 112.81 198.56 126.47 211.41 138.25 244.61 132.9 271.65 132.9 244.61 131.29 212.48 136.11 200.7 125.4 198.56 113.62 232.43 106.52"/><polygon class="ac" points="439.21 104.29 424.81 85.09 414.36 83.64 411.45 83.31 382.87 80.16 373.21 79.09 376.96 78.98 385.53 78.74 391.68 78.56 415.21 77.89 426.01 80.29 439.21 104.29"/><polygon class="ac" points="438.01 121.09 431.21 117.83 402.58 113.08 402.04 106.66 394.54 100.23 402.58 106.66 403.11 112.55 430.96 116.83 438.01 121.09"/><path class="ac" d="M389,114.95l11.91,1.87,37.46,6.27-1.59,13s-1.07-7.5-1.61-7.5-34.27-10.71-34.27-10.71Z" transform="translate(-6.37 -3.2)"/><polygon class="ac" points="322.97 132.9 370.98 132.9 400.81 147.49 416.41 157.09 402.01 146.29 371.52 129.68 322.97 132.9"/><g class="t"><ellipse class="ad" cx="240.68" cy="119.7" rx="14.4" ry="3.48" transform="translate(-20.56 31.07) rotate(-7.91)"/></g><ellipse class="ae" cx="420.84" cy="97.56" rx="3.48" ry="6.16" transform="translate(282.47 505.7) rotate(-85.26)"/><ellipse class="ad" cx="428.86" cy="103.55" rx="1.4" ry="2.49" transform="translate(283.85 519.18) rotate(-85.26)"/><ellipse class="ad" cx="421.15" cy="106.03" rx="2.02" ry="3.57" transform="translate(274.3 513.78) rotate(-85.26)"/><path class="af" d="M297,92.72s72.29-2.14,80.86-1.07,24.63,5.89,24.63,5.89L381.1,94.87Z" transform="translate(-6.37 -3.2)"/><path class="ag" d="M377.91,91.51c-7.51-.94-64.54.61-78,1l-2.86.07v.3l3.36.08L381.08,95l21.42,2.68,0-.14,0-.14C402.4,97.35,386.38,92.57,377.91,91.51Zm3.19,3.22-78.68-2c16.94-.47,68.36-1.81,75.46-.92,6.8.85,18.48,4.12,22.87,5.38Z" transform="translate(-6.37 -3.2)"/><g class="ah"><path class="af" d="M319.52,125.92s-72.29-2.14-80.86-1.07S214,130.74,214,130.74l21.42-2.68Z" transform="translate(-6.37 -3.2)"/><path class="ai" d="M317.46,125.72c-11.89-.34-71.14-2-78.8-1-8.48,1.06-24.49,5.84-24.66,5.89l.06.29,21.41-2.68,82.09-2.1,2,0v-.29Zm-101.64,4.66c4.38-1.27,16.07-4.52,22.87-5.38,1.69-.22,5.92-.3,11.6-.3,18.1,0,51,.86,63.84,1.21l-78.7,2Z" transform="translate(-6.37 -3.2)"/></g><g class="aj"><path class="af" d="M408.41,140.38S396.1,137.7,395,135.56s-1.07-10.17,1.07-11.24,23,2.14,25.7,3.75,5.35,4.82,5.35,5.89-5.35,4.28-5.35,4.28,2.14-2.14,1.61-4.28a6.33,6.33,0,0,0-4.82-4.82c-2.68-.54-17.67-3.75-19.28-2.68,0,0-3.21,4.28-1.61,7s11.78,5.89,13.39,4.82,2.68-2.14,1.07-4.28-10.71-2.14-10.71-2.14h12.32s2.68,3.21,2.14,4.28-1.07,4.28-2.68,4.82S408.41,140.38,408.41,140.38Z" transform="translate(-6.37 -3.2)"/><path class="ak" d="M421.87,127.94c-1.43-.86-7.61-2.08-13.1-2.89s-11.54-1.45-12.73-.86c-1.42.71-1.74,4-1.82,5.35a15,15,0,0,0,.68,6.1c1.09,2.16,12.88,4.76,13.48,4.9a14.75,14.75,0,0,0,3.74.68,3.9,3.9,0,0,0,1.16-.16c1.25-.42,1.87-2.32,2.33-3.7a10.56,10.56,0,0,1,.43-1.2c.56-1.12-1.87-4.1-2.16-4.44l0,0H401.46V132c.08,0,9,0,10.58,2.09a2.72,2.72,0,0,1,.74,2.08c-.13.76-.8,1.34-1.78,2-.44.3-1.79.24-3.59-.17-3.82-.85-8.58-2.92-9.59-4.6-1.49-2.47,1.34-6.46,1.57-6.78,1-.6,7.12.24,18.16,2.51l1,.2a6.2,6.2,0,0,1,4.7,4.7c.52,2-1.55,4.13-1.56,4.15l-.84.83,1-.6c.56-.34,5.44-3.29,5.44-4.42S424.57,129.56,421.87,127.94Zm.62,9.71a4.71,4.71,0,0,0,1.06-3.73,6.51,6.51,0,0,0-4.93-4.92l-1-.2c-7.25-1.49-17-3.36-18.4-2.45l0,0c-.13.18-3.25,4.4-1.61,7.13,1.08,1.81,5.92,3.86,9.78,4.74,1.12.25,3.1.6,3.8.12,1-.68,1.76-1.32,1.91-2.18a3.06,3.06,0,0,0-.79-2.3c-.82-1.08-3.4-1.63-5.83-1.91h7.25c.76.91,2.48,3.28,2.09,4.07a9.64,9.64,0,0,0-.46,1.24c-.43,1.33-1,3.14-2.15,3.52-1.54.52-4.69-.53-4.72-.54h0s-3.11-.68-6.28-1.61c-5.27-1.54-6.72-2.54-7-3.13a14.74,14.74,0,0,1-.66-6c.16-2.75.78-4.66,1.67-5.1a4.79,4.79,0,0,1,1.72-.19c5.51,0,21.41,2.47,23.84,3.94C424.45,129.82,427,133,427,134,427,134.59,424.48,136.39,422.49,137.65Z" transform="translate(-6.37 -3.2)"/></g><path class="al" d="M450.19,107.31l-3.41,20.58-4.8-1.2s-.77,2.21-1.2,2.4c-.38,1,0,4.8,0,4.8l-1.2,4.8s-9.6,25.2-18,30l-14.4-12c-8.4-4.8-25.2-10.8-30.68-11.58H322l-2.1-9-1.25-5.35-1.07-4.63,0-.14,0-.11,0-.14-5.08-21.83-.35-.31,0,0L300.39,93l-.18-.16-.18-.17-.14-.13-7.24-6.6-3.42-3.12-.1-.08,87.49-.76L398,81.76l23.53-.67,10.8,2.4Z" transform="translate(-6.37 -3.2)"/><text class="am" transform="translate(236.41 127.09)">Tutorial</text><text class="an" transform="translate(234.01 124.69)">Tutorial</text></svg>