<svg id="Layer_1" data-name="Layer 1" xmlns="http://www.w3.org/2000/svg" xmlns:xlink="http://www.w3.org/1999/xlink" viewBox="0 0 79.65 90.81"><defs><style>.cls-1{fill:#a8a8a8;}.cls-2{fill:#b5b5b5;}.cls-3{fill:#c6c6c6;}.cls-4{fill:#d3d3d3;}.cls-5{fill:#ddd;}.cls-6{fill:#cecece;}.cls-7{fill:#eae8e8;}.cls-8{fill:#efefef;}.cls-9{opacity:0.35;fill:url(#linear-gradient);}.cls-10{fill:#e5e5e5;}.cls-11{fill:#9b9a9a;}.cls-12{fill:#495750;}.cls-13{fill:#ccc;}.cls-14{fill:#e8e8e8;}.cls-15{fill:#249daa;}.cls-16{fill:#1b6d6b;}.cls-17{fill:#2bd0d8;}.cls-18{fill:#2b2b2b;}.cls-19{opacity:0.74;}.cls-20{opacity:0.41;}.cls-21{fill:#f9b9b9;}.cls-22{fill:#eaeaea;}.cls-23{fill:#a3a3a3;}.cls-24{fill:#c1bfbf;}.cls-25{fill:#939393;}.cls-26,.cls-27{fill:#1dcaf2;}.cls-27{opacity:0.3;}</style><linearGradient id="linear-gradient" x1="55.45" y1="64.91" x2="55.45" y2="56.89" gradientUnits="userSpaceOnUse"><stop offset="0" stop-opacity="0"/><stop offset="1"/></linearGradient></defs><title>whale1</title><g id="belugawhale"><path class="cls-1" d="M58.7,74.42,52,92.16a2.27,2.27,0,0,1-2.92,1.32c-11.65-2.84-21.2-8.29-27.46-16.75a9.87,9.87,0,0,1-1.32-2.92l2.49-6.58A2.27,2.27,0,0,1,25.7,65.9C35.39,69.94,46,73,57.38,71.5A2.27,2.27,0,0,1,58.7,74.42Z" transform="translate(-4.81 -3.39)"/><path class="cls-2" d="M73.76,65.74h8.05A1.24,1.24,0,0,1,83,67v3a5,5,0,0,1-5,5H69.76a.59.59,0,0,1-.59-.59v-4a4.59,4.59,0,0,1,4.59-4.59Z" transform="translate(46.88 167.66) rotate(-119.11)"/><path class="cls-3" d="M50.59,90.22a1,1,0,0,1-.24,0l-.24-.12-.48.12C38.42,88.31,28.82,83.46,23,75.66a8,8,0,0,1-.87-1.79l2.27-6a.48.48,0,0,1,.45-.31l.15,0C38.19,73,46.41,73.66,51.46,73.66A48.52,48.52,0,0,0,57,73.35a.48.48,0,0,1,.05.44l-6,16.2A.46.46,0,0,1,50.59,90.22Z" transform="translate(-4.81 -3.39)"/><path class="cls-4" d="M73.31,72.09a5.47,5.47,0,0,0,7.43,2.12l1-.55L79.2,69.11a6.08,6.08,0,0,0-8.26-2.35.53.53,0,0,0-.2.71Z" transform="translate(-4.81 -3.39)"/><path class="cls-2" d="M29.49,65.38h8.29a5,5,0,0,1,5,5v3a1.24,1.24,0,0,1-1.24,1.24H33.49A4.59,4.59,0,0,1,28.9,70V66a.59.59,0,0,1,.59-.59Z" transform="translate(-47.55 63.85) rotate(-60.89)"/><path class="cls-5" d="M38.63,71.73a5.47,5.47,0,0,1-7.43,2.12l-1-.55,2.53-4.55A6.08,6.08,0,0,1,41,66.4a.53.53,0,0,1,.2.71Z" transform="translate(-4.81 -3.39)"/><path class="cls-6" d="M38.07,84.51l.34-2.84.63-5.3.23-2h0l.11-.95.32-2.74,0-.29.1-.83v-.05l.49-4.15.61-5.13.23-1.92.06-.52c0-.08,0-.17,0-.25s0-.13,0-.19V57.3a2.5,2.5,0,0,1,.08-.37,2.64,2.64,0,0,1,.35-.75,2.68,2.68,0,0,1,.88-.82A2.64,2.64,0,0,1,43.91,55H67a2.64,2.64,0,0,1,1.33.36,2.68,2.68,0,0,1,.88.82,2.64,2.64,0,0,1,.35.75,2.35,2.35,0,0,1,.08.37v.06c0,.06,0,.13,0,.19s0,.17,0,.25l.06.52L70,60.25l.52,4.39.05.44,0,.3.9,7.63h0l.09.8v.08l.91,7.7.34,2.92C72.82,97.42,38.07,97.42,38.07,84.51Z" transform="translate(-4.81 -3.39)"/><path class="cls-7" d="M40,86l3.15-26.7c0-.15,0-.28,0-.39a.76.76,0,0,1,.75-.71H67a.76.76,0,0,1,.75.71c0,.1,0,.23,0,.39L70.91,86C70.91,92.1,40,92.1,40,86Z" transform="translate(-4.81 -3.39)"/><path class="cls-8" d="M55.56,87.6A39.23,39.23,0,0,1,47,86.78l2.18-23.19H61.92l2.18,23.19A39.24,39.24,0,0,1,55.56,87.6Z" transform="translate(-4.81 -3.39)"/><path class="cls-1" d="M5.81,68.3h11.4a6.88,6.88,0,0,1,6.88,6.88v4.07a1.7,1.7,0,0,1-1.7,1.7H11.31A6.31,6.31,0,0,1,5,74.63V69.11a.81.81,0,0,1,.81-.81Z" transform="translate(-63.18 49.69) rotate(-62.51)"/><path class="cls-4" d="M18.45,76.92a7.52,7.52,0,0,1-10.13,3.2L6.94,79.4l3.3-6.35A8.36,8.36,0,0,1,21.5,69.5a.73.73,0,0,1,.3,1Z" transform="translate(-4.81 -3.39)"/><path class="cls-1" d="M18,55.49H29a1.7,1.7,0,0,1,1.7,1.7v4.07a6.88,6.88,0,0,1-6.88,6.88H12.47a.81.81,0,0,1-.81-.81V61.8A6.31,6.31,0,0,1,18,55.49Z" transform="translate(81.01 68.15) rotate(117.49)"/><path class="cls-4" d="M25.33,63.7a7.52,7.52,0,0,0-3.2-10.13l-1.38-.72-3.3,6.35A8.36,8.36,0,0,0,21,70.45a.73.73,0,0,0,1-.3Z" transform="translate(-4.81 -3.39)"/><path class="cls-9" d="M70.6,64.91H40.29l.82-6.78a1.38,1.38,0,0,1,0-.27,2,2,0,0,0,.08-.43c0-.18,0-.36,0-.54H69.64c0,.18,0,.36,0,.54a2,2,0,0,0,.08.43,1.38,1.38,0,0,1,0,.27Z" transform="translate(-4.81 -3.39)"/><path class="cls-6" d="M82.31,54.62A2.76,2.76,0,0,1,79.5,57.3H32.65a2.76,2.76,0,0,1-2.81-2.68L28.27,26.76a2.7,2.7,0,0,1,.12-.79,18.95,18.95,0,0,1,.5-4.15h0a21.59,21.59,0,0,1,6.89-11.15A26.18,26.18,0,0,1,37.9,9,31,31,0,0,1,55.24,3.4H56A31.08,31.08,0,0,1,74.38,9.14a25.15,25.15,0,0,1,2.13,1.74A21.46,21.46,0,0,1,83.2,22a19.13,19.13,0,0,1,.45,4.13c0,.14,0,.27,0,.41s0,.12,0,.18Z" transform="translate(-4.81 -3.39)"/><circle class="cls-6" cx="29.38" cy="42.88" r="7.22"/><circle class="cls-6" cx="72.43" cy="42.88" r="7.22"/><path class="cls-10" d="M81.25,52.15a4.14,4.14,0,0,1-3.66,3.48H34a4.12,4.12,0,0,1-3-3.54l.12-1.5L29.24,26v-.1a.52.52,0,0,1,0-.14l.1-.33v-.34c.06-5.63,2.82-10.94,7.76-15a30.06,30.06,0,0,1,19-6.36c14.73,0,26.72,9.64,26.72,21.5,0,.11,0,.21,0,.32v.25s0,0,0,0V26L81.08,50.23h0Z" transform="translate(-4.81 -3.39)"/><circle class="cls-10" cx="29.38" cy="42.88" r="6.26"/><circle class="cls-10" cx="72.43" cy="42.88" r="6.26"/><path class="cls-11" d="M37.65,49.16a5,5,0,1,0-6.47,1.63l.22.11.19-.15a7,7,0,0,1,1.66-1,7.47,7.47,0,0,1,.78-.27,7.08,7.08,0,0,1,3.24-.19l.24,0Z" transform="translate(-4.81 -3.39)"/><path class="cls-12" d="M32.21,42.19a4.64,4.64,0,0,1,5.13,7.07,7.45,7.45,0,0,0-3.42.2,7.82,7.82,0,0,0-.81.29,7.38,7.38,0,0,0-1.75,1,4.64,4.64,0,0,1,.85-8.57Z" transform="translate(-4.81 -3.39)"/><path class="cls-13" d="M29.05,47.94a4.62,4.62,0,0,0,2.31,2.82,7.38,7.38,0,0,1,1.75-1l4.5-5.27a4.64,4.64,0,0,0-8.56,3.47Z" transform="translate(-4.81 -3.39)"/><path class="cls-14" d="M31.32,50a8,8,0,0,1,1.43-.8l4.12-4.83a4,4,0,0,0-7.23,3.36A4,4,0,0,0,31.32,50Z" transform="translate(-4.81 -3.39)"/><path class="cls-15" d="M31.47,46.74c.49-.2.81-.5.75-.71s-.28-.24-.61-.24a3.5,3.5,0,0,1,6-1.31,4.65,4.65,0,0,1-.27,4.78,7.45,7.45,0,0,0-3.42.2,7.82,7.82,0,0,0-.81.29,3.5,3.5,0,0,1-1.64-3Z" transform="translate(-4.81 -3.39)"/><path class="cls-16" d="M37.12,48.76a4.19,4.19,0,0,0,.11-4,3.05,3.05,0,0,0-3.11-.88c-.84.24-1.49,5-1,5.38L33.8,49A8,8,0,0,1,37.12,48.76Z" transform="translate(-4.81 -3.39)"/><path class="cls-11" d="M37.6,49.4a8.2,8.2,0,0,0-6.19,1.44l-.09-.12A8.18,8.18,0,0,1,34,49.42a8.09,8.09,0,0,1,3.58-.17Z" transform="translate(-4.81 -3.39)"/><path class="cls-17" d="M33.32,44.08c.17,0,0,.39,0,.55a10.82,10.82,0,0,0-.48,1.88c0,.39-.14,1.7-.13,2s-.25.23-.25.23a3.82,3.82,0,0,1-.56-1.11,2.39,2.39,0,0,1,.35-1c.1-.19.36-.66.28-1a1.12,1.12,0,0,1,.16-1.08C33,44.34,33.15,44.05,33.32,44.08Z" transform="translate(-4.81 -3.39)"/><circle class="cls-18" cx="35.01" cy="46.61" r="2.36" transform="matrix(0.96, -0.28, 0.28, 0.96, -16.43, 8.24)"/><g class="cls-19"><circle class="cls-8" cx="33.05" cy="47.25" r="0.76" transform="matrix(0.96, -0.28, 0.28, 0.96, -16.69, 7.72)"/></g><g class="cls-20"><circle class="cls-8" cx="34.44" cy="47.64" r="0.38" transform="translate(-16.75 8.12) rotate(-16.21)"/></g><ellipse class="cls-21" cx="78.24" cy="52.96" rx="2.11" ry="1.63" transform="translate(-14.66 15.4) rotate(-12.89)"/><ellipse class="cls-21" cx="34.23" cy="52.96" rx="1.63" ry="2.11" transform="translate(-29.84 71.12) rotate(-77.11)"/><path class="cls-11" d="M73.72,48.81a5,5,0,1,1,6.37,2l-.22.1-.18-.16a7,7,0,0,0-1.61-1.06,7.47,7.47,0,0,0-.76-.32A7.08,7.08,0,0,0,74.09,49l-.25,0Z" transform="translate(-4.81 -3.39)"/><path class="cls-12" d="M79.53,42.15A4.64,4.64,0,0,0,74,48.93a7.45,7.45,0,0,1,3.4.39,7.82,7.82,0,0,1,.8.33,7.38,7.38,0,0,1,1.69,1.12,4.64,4.64,0,0,0-.37-8.61Z" transform="translate(-4.81 -3.39)"/><path class="cls-13" d="M82.37,48.08a4.62,4.62,0,0,1-2.47,2.69,7.38,7.38,0,0,0-1.69-1.12L74,44.14a4.64,4.64,0,0,1,8.36,3.94Z" transform="translate(-4.81 -3.39)"/><path class="cls-14" d="M80,50a8,8,0,0,0-1.38-.88l-3.85-5.05a4,4,0,0,1,7,3.76A4,4,0,0,1,80,50Z" transform="translate(-4.81 -3.39)"/><path class="cls-15" d="M80,46.75c-.48-.23-.78-.54-.71-.75s.29-.22.62-.21A3.5,3.5,0,0,0,74,44.14a4.65,4.65,0,0,0,0,4.79,7.45,7.45,0,0,1,3.4.39,7.82,7.82,0,0,1,.8.33A3.5,3.5,0,0,0,80,46.75Z" transform="translate(-4.81 -3.39)"/><path class="cls-16" d="M74.26,48.44a4.19,4.19,0,0,1,.11-4,3.05,3.05,0,0,1,3.16-.71c.82.29,1.21,5.06.65,5.42l-.62-.25A8,8,0,0,0,74.26,48.44Z" transform="translate(-4.81 -3.39)"/><path class="cls-11" d="M73.76,49.05a8.2,8.2,0,0,1,6.1,1.78l.1-.12a8.18,8.18,0,0,0-2.65-1.45,8.09,8.09,0,0,0-3.56-.37Z" transform="translate(-4.81 -3.39)"/><path class="cls-17" d="M78.32,44c-.17,0-.05.38,0,.55a10.82,10.82,0,0,1,.38,1.91c-.05.38,0,1.71,0,2s.24.24.24.24a3.82,3.82,0,0,0,.62-1.07,2.39,2.39,0,0,0-.3-1,1.6,1.6,0,0,1-.22-1,1.12,1.12,0,0,0-.1-1.09C78.63,44.26,78.49,44,78.32,44Z" transform="translate(-4.81 -3.39)"/><circle class="cls-18" cx="76.5" cy="46.41" r="2.36" transform="translate(2.48 99.73) rotate(-70.57)"/><g class="cls-19"><circle class="cls-8" cx="78.41" cy="47.17" r="0.76" transform="translate(3.04 102.04) rotate(-70.57)"/></g><g class="cls-20"><circle class="cls-8" cx="77.01" cy="47.48" r="0.38" transform="translate(1.81 100.93) rotate(-70.57)"/></g><ellipse class="cls-6" cx="51.26" cy="20.87" rx="25.12" ry="18.01"/><ellipse class="cls-5" cx="51.26" cy="19.9" rx="23.26" ry="16.36"/><ellipse class="cls-22" cx="51.47" cy="15.77" rx="17.64" ry="9.16"/><path class="cls-23" d="M35.86,50.8c3.4.76,6.78,1.58,10.17,2.14.85.14,1.7.25,2.53.31l.62,0h.63c.43,0,.85,0,1.27-.06s.84-.08,1.27-.14.88-.11,1.33-.14.9,0,1.34,0,.89,0,1.34.06.89.1,1.32.16.85.12,1.27.16.85.08,1.27.1a12.28,12.28,0,0,0,1.24,0c1.7-.13,3.43-.35,5.14-.58S70,52.29,71.75,52q1.28-.2,2.56-.45l1.27-.27a9.5,9.5,0,0,0,1.25-.36,13.92,13.92,0,0,1-2.45.92c-.84.25-1.68.47-2.53.68-1.69.41-3.4.77-5.11,1.09-.86.16-1.72.3-2.58.43s-1.73.24-2.61.33a11.78,11.78,0,0,1-1.37.06c-.44,0-.88,0-1.33-.09s-.88-.1-1.31-.16-.85-.11-1.27-.15S55.44,54,55,54s-.85,0-1.26,0-.83.07-1.26.13-.88.11-1.32.14-.89,0-1.33.05h-.67l-.68,0a24.3,24.3,0,0,1-2.62-.41c-1.72-.36-3.4-.82-5.07-1.33S37.48,51.44,35.86,50.8Z" transform="translate(-4.81 -3.39)"/><path class="cls-24" d="M36.93,35.89a25.54,25.54,0,0,0,8.6,5.63A27.28,27.28,0,0,0,50.47,43a27.84,27.84,0,0,0,5.11.51,28.19,28.19,0,0,0,5.12-.4L62,42.82l1.25-.3,1.24-.36,1.22-.41a27.17,27.17,0,0,0,8.84-5.27,23.6,23.6,0,0,1-8.61,5.88,26.52,26.52,0,0,1-5.07,1.47,28.1,28.1,0,0,1-5.26.46,27.7,27.7,0,0,1-5.25-.57,25.57,25.57,0,0,1-5-1.61A22.43,22.43,0,0,1,36.93,35.89Z" transform="translate(-4.81 -3.39)"/><path class="cls-24" d="M36.42,35.19a23.47,23.47,0,0,0,8.94,5.21,30.57,30.57,0,0,0,5.05,1.19A33.22,33.22,0,0,0,55.6,42a34.64,34.64,0,0,0,5.18-.39,35.12,35.12,0,0,0,5.07-1.14,32,32,0,0,0,9.35-4.59A27.15,27.15,0,0,1,66,41c-.42.16-.84.28-1.26.41s-.85.24-1.28.35l-.65.16-.65.14-.65.14-.66.11a34.13,34.13,0,0,1-5.3.45,32.72,32.72,0,0,1-5.3-.42A28.33,28.33,0,0,1,45.15,41a23.58,23.58,0,0,1-4.75-2.37A18.69,18.69,0,0,1,36.42,35.19Z" transform="translate(-4.81 -3.39)"/><path class="cls-1" d="M36.81,35.77a25.58,25.58,0,0,0,4.1,3.06A26,26,0,0,0,45.5,41a28.29,28.29,0,0,0,4.9,1.27,29.75,29.75,0,0,0,5,.42,31.23,31.23,0,0,0,5.05-.39,32.6,32.6,0,0,0,4.94-1.17,31.57,31.57,0,0,0,9.06-4.63,26.62,26.62,0,0,1-8.85,5.25l-1.23.42-1.25.36-1.26.31-1.28.25a30.91,30.91,0,0,1-5.18.45A29.46,29.46,0,0,1,50.27,43a26.34,26.34,0,0,1-5-1.44,23.74,23.74,0,0,1-4.58-2.44A21.45,21.45,0,0,1,36.81,35.77Z" transform="translate(-4.81 -3.39)"/><ellipse class="cls-6" cx="50.79" cy="42.28" rx="15.62" ry="1.25"/><path class="cls-10" d="M74.85,40.19c.54,2.09,4.09,3,7.93,2" transform="translate(-4.81 -3.39)"/><path class="cls-25" d="M75.31,40.07a2.32,2.32,0,0,0,1.12,1.45,5.9,5.9,0,0,0,2,.73,11.43,11.43,0,0,0,4.38-.08,11.67,11.67,0,0,1-4.44.56,6.48,6.48,0,0,1-2.25-.58,3.15,3.15,0,0,1-1.7-1.83Z" transform="translate(-4.81 -3.39)"/><path class="cls-10" d="M36.86,40.19c-.54,2.09-4.09,3-7.93,2" transform="translate(-4.81 -3.39)"/><path class="cls-25" d="M37.32,40.31a3.15,3.15,0,0,1-1.7,1.83,6.49,6.49,0,0,1-2.25.58,11.67,11.67,0,0,1-4.44-.56,11.43,11.43,0,0,0,4.38.08,5.9,5.9,0,0,0,2-.73,2.32,2.32,0,0,0,1.12-1.45Z" transform="translate(-4.81 -3.39)"/><rect class="cls-26" x="77.13" y="49.38" width="4.53" height="1.64" rx="0.55" ry="0.55" transform="translate(13.07 -24.18) rotate(16.79)"/><circle class="cls-27" cx="74.49" cy="47.63" r="0.6" transform="translate(2.56 101.8) rotate(-73.21)"/><circle class="cls-27" cx="76.71" cy="48.21" r="0.63" transform="translate(3.59 104.34) rotate(-73.21)"/><circle class="cls-27" cx="80.03" cy="48.46" r="0.97" transform="translate(5.71 107.7) rotate(-73.21)"/><circle class="cls-27" cx="80.53" cy="49.28" r="0.63" transform="translate(5.28 108.75) rotate(-73.21)"/><circle class="cls-27" cx="77.68" cy="48.7" r="0.63" transform="translate(3.81 105.61) rotate(-73.21)"/><circle class="cls-27" cx="75.5" cy="48.31" r="0.63" transform="matrix(1, -0.08, 0.08, 1, -8.24, 2.45)"/><circle class="cls-27" cx="74.23" cy="48.38" r="0.5" transform="matrix(0.29, -0.96, 0.96, 0.29, 1.66, 102.08)"/><rect class="cls-26" x="29.8" y="49.62" width="4.53" height="1.64" rx="0.55" ry="0.55" transform="translate(72.52 86.08) rotate(163.21)"/><circle class="cls-27" cx="36.97" cy="47.87" r="0.6" transform="translate(-17.06 9.33) rotate(-16.79)"/><circle class="cls-27" cx="34.75" cy="48.45" r="0.63" transform="translate(-17.32 8.71) rotate(-16.79)"/><circle class="cls-27" cx="33.78" cy="48.94" r="0.63" transform="translate(-17.5 8.45) rotate(-16.79)"/><circle class="cls-27" cx="30.56" cy="49.53" r="0.63" transform="translate(-17.81 7.55) rotate(-16.79)"/><circle class="cls-27" cx="31.86" cy="48.85" r="1.19" transform="translate(-17.56 7.89) rotate(-16.79)"/><circle class="cls-27" cx="35.95" cy="48.55" r="0.63" transform="translate(-19.98 77.35) rotate(-85.67)"/><circle class="cls-27" cx="37.23" cy="48.62" r="0.5" transform="translate(-17.27 9.43) rotate(-16.79)"/></g></svg>