<svg id="Layer_1" data-name="Layer 1" xmlns="http://www.w3.org/2000/svg" xmlns:xlink="http://www.w3.org/1999/xlink" viewBox="0 0 76.46 84.56"><defs><style>.cls-1{fill:#cecece;}.cls-2{fill:#9b9a9a;}.cls-3{fill:#eae8e8;}.cls-4{fill:#b2b2b2;}.cls-5{opacity:0.35;fill:url(#linear-gradient);}.cls-6{fill:#495750;}.cls-7{fill:#ccc;}.cls-8{fill:#e8e8e8;}.cls-9{fill:#249daa;}.cls-10{fill:#1b6d6b;}.cls-11{fill:#2bd0d8;}.cls-12{fill:#2b2b2b;}.cls-13{opacity:0.74;}.cls-14{fill:#efefef;}.cls-15{opacity:0.41;}.cls-16{fill:#f9b9b9;}.cls-17{fill:#fff;}.cls-18{fill:#ff8e78;}.cls-19,.cls-20{fill:#1dcaf2;}.cls-20{opacity:0.3;}.cls-21{fill:#939393;}.cls-22{fill:#1e1e1e;opacity:0.34;}</style><linearGradient id="linear-gradient" x1="49.55" y1="68.71" x2="49.55" y2="60.69" gradientUnits="userSpaceOnUse"><stop offset="0" stop-opacity="0"/><stop offset="1"/></linearGradient></defs><title>bear1</title><path class="cls-1" d="M78.92,30.92l-1.06-.22-1.5-.31-2.65-.55h-.07a.79.79,0,0,1-.85-.64l0-.09L68.3,14.21l0-.16a.92.92,0,0,1,.34-.89A.9.9,0,0,1,69,13l.14,0,.58-.12,5.42-1.13c7.23-4.16,11.7,2.37,12.71,7.68v.06C88.84,24.68,85.84,31.8,78.92,30.92Z" transform="translate(-11.57 -6.12)"/><path class="cls-2" d="M72.73,26.88l4.27.89a4.47,4.47,0,0,0,4.23-1.62,8.43,8.43,0,0,0,1.53-6.63v-.06C82.1,16,80.23,13.74,78.67,13c-1.3-.6-2.79-.39-4.55.62l-.38.22-4.62,1Z" transform="translate(-11.57 -6.12)"/><path class="cls-1" d="M30.18,14.56,27.89,30.23a.79.79,0,0,1-.82.75l-5,1.83c-6.72,1.87-10.72-4.74-10.49-10.08v-.06c.23-5.41,3.71-12.51,11.47-9.45l6.26.38A.92.92,0,0,1,30.18,14.56Z" transform="translate(-11.57 -6.12)"/><path class="cls-2" d="M27.61,27.92l-4.1,1.5a4.47,4.47,0,0,1-4.42-1,8.43,8.43,0,0,1-2.48-6.34V22c.15-3.51,1.67-6,3.11-7,1.2-.78,2.7-.79,4.59,0l.41.16,4.71.29Z" transform="translate(-11.57 -6.12)"/><path class="cls-1" d="M66.62,88.87l-.11.18a2.36,2.36,0,0,1-.25.33,2.67,2.67,0,0,1-2,.88H34.8a2.67,2.67,0,0,1-2-.87h0a2.44,2.44,0,0,1-.26-.35h0a2.74,2.74,0,0,1-.39-1.79l.34-2.84.63-5.3.23-2h0l.11-.95.32-2.74,0-.29.1-.83v-.05l.49-4.15L35,63l.23-1.92.06-.52c0-.08,0-.17,0-.25s0-.13,0-.19V60a2.49,2.49,0,0,1,.08-.37,2.64,2.64,0,0,1,.35-.75,2.68,2.68,0,0,1,.88-.82A2.64,2.64,0,0,1,38,57.74H61.08a2.64,2.64,0,0,1,1.33.36,2.68,2.68,0,0,1,.88.82,2.64,2.64,0,0,1,.35.75,2.35,2.35,0,0,1,.08.37v.06c0,.06,0,.13,0,.19s0,.17,0,.25l.06.52L64.06,63l.52,4.39.05.44,0,.3.9,7.63h0l.09.8v.08l.91,7.7.34,2.92A2.76,2.76,0,0,1,66.62,88.87Z" transform="translate(-11.57 -6.12)"/><path class="cls-3" d="M34.8,89.61a.74.74,0,0,1-.55-.25.78.78,0,0,1-.17-.61L37.23,62c0-.15,0-.28,0-.39a.76.76,0,0,1,.75-.71H61.08a.76.76,0,0,1,.75.71c0,.1,0,.23,0,.39L65,88.75a.78.78,0,0,1-.17.61.74.74,0,0,1-.55.25Z" transform="translate(-11.57 -6.12)"/><path class="cls-1" d="M80.23,57.35A2.76,2.76,0,0,1,77.42,60H22.93a2.76,2.76,0,0,1-2.81-2.68l2-24.55.26-3.2v-.12a2.7,2.7,0,0,1,.12-.79,19,19,0,0,1,.5-4.15,20.92,20.92,0,0,1,4.89-9.17q.8-.89,1.7-1.71l.3-.27A26.18,26.18,0,0,1,32,11.7,31,31,0,0,1,49.46,6.12h.66a31.08,31.08,0,0,1,18.36,5.75q.63.46,1.22,1t.9.78q.4.37.79.75A21.2,21.2,0,0,1,77.3,24.77a18.56,18.56,0,0,1,.34,2c0,.34.07.68.09,1s0,.72,0,1.08c0,.14,0,.27,0,.41s0,.12,0,.18l.11,1.22Z" transform="translate(-11.57 -6.12)"/><path class="cls-2" d="M51.94,90.25H46.75l0-.49v-.15l.11-1.74h0l0-.5.1-1.56,0-.47.07-1,.06-.86.6-9a1.5,1.5,0,0,1,1.3-1.44h.41l.21,0a1.5,1.5,0,0,1,1.07,1.39l.68,9.36.07,1,.09,1.3,0,.25.24,3.27v.1Z" transform="translate(-11.57 -6.12)"/><path class="cls-4" d="M50.8,90.25H47.89l0-.48v-.16h0l.18-3v-.14h0l.13-2.06.62-10A.43.43,0,0,1,49.1,74a.42.42,0,0,1,.2,0,.41.41,0,0,1,.16,0l.05,0,.09.07a.42.42,0,0,1,.13.3l.76,11.2L50.72,89l0,.58Z" transform="translate(-11.57 -6.12)"/><path class="cls-3" d="M66.62,87.56v1.32a1.24,1.24,0,0,1-.11.5A2.72,2.72,0,0,1,64,90.68H53.45A3.6,3.6,0,0,1,52,90.41l-.3-.15a2.31,2.31,0,0,1-.38-.26,1.82,1.82,0,0,1-.25-.25L51,89.61h0a1.32,1.32,0,0,1-.23-.73V87.56a1.23,1.23,0,0,1,0-.16,1.49,1.49,0,0,1,.49-.88h0a2.32,2.32,0,0,1,.36-.28l.1-.06a3.46,3.46,0,0,1,1.7-.42H64a3.7,3.7,0,0,1,.63.06,2.85,2.85,0,0,1,1.51.74,1.66,1.66,0,0,1,.31.43A1.27,1.27,0,0,1,66.62,87.56Z" transform="translate(-11.57 -6.12)"/><path class="cls-2" d="M56.25,90c-.09-.53-.13-1.06-.2-1.6a10.67,10.67,0,0,0-.18-1.51,1.58,1.58,0,0,0-.8-1,1.21,1.21,0,0,0-.59-.12h-1.6a1.2,1.2,0,0,0-.59.12,1.58,1.58,0,0,0-.8,1,10.72,10.72,0,0,0-.18,1.51c-.07.53-.11,1.06-.2,1.6-.09-.53-.14-1.06-.2-1.6a7,7,0,0,1,0-1.67,2.18,2.18,0,0,1,1.07-1.51,1.92,1.92,0,0,1,1-.23h1.6a1.9,1.9,0,0,1,1,.24,2.18,2.18,0,0,1,1.07,1.51,7,7,0,0,1,0,1.67C56.38,89,56.34,89.51,56.25,90Z" transform="translate(-11.57 -6.12)"/><path class="cls-2" d="M61.38,90c-.09-.53-.13-1.06-.2-1.6A10.67,10.67,0,0,0,61,86.93a1.59,1.59,0,0,0-.8-1,1.21,1.21,0,0,0-.59-.12H58a1.2,1.2,0,0,0-.59.12,1.58,1.58,0,0,0-.8,1,10.65,10.65,0,0,0-.18,1.51c-.07.53-.11,1.06-.2,1.6-.09-.53-.14-1.06-.2-1.6a7,7,0,0,1,0-1.67,2.18,2.18,0,0,1,1.07-1.51A1.92,1.92,0,0,1,58,85h1.6a1.9,1.9,0,0,1,1,.24,2.18,2.18,0,0,1,1.07,1.51,7,7,0,0,1,0,1.67C61.52,89,61.48,89.51,61.38,90Z" transform="translate(-11.57 -6.12)"/><path class="cls-2" d="M66.52,90c-.09-.53-.13-1.06-.2-1.6a10.66,10.66,0,0,0-.18-1.51,1.58,1.58,0,0,0-.8-1,1.21,1.21,0,0,0-.59-.12h-1.6a1.2,1.2,0,0,0-.59.12,1.58,1.58,0,0,0-.8,1,10.58,10.58,0,0,0-.18,1.51c-.07.53-.11,1.06-.2,1.6-.09-.53-.14-1.06-.2-1.6a7,7,0,0,1,0-1.67,2.18,2.18,0,0,1,1.07-1.51,1.92,1.92,0,0,1,1-.23h1.6a1.9,1.9,0,0,1,1,.24,2.18,2.18,0,0,1,1.07,1.51,7,7,0,0,1,0,1.67C66.65,89,66.61,89.51,66.52,90Z" transform="translate(-11.57 -6.12)"/><path class="cls-3" d="M48.33,87.35v1.32c0,1-1.19,1.8-2.66,1.8H35.16a3.58,3.58,0,0,1-1.41-.28,2.55,2.55,0,0,1-.68-.42,1.82,1.82,0,0,1-.33-.37,1.32,1.32,0,0,1-.23-.73V87.35a1.21,1.21,0,0,1,0-.16A1.73,1.73,0,0,1,33.46,86a3.46,3.46,0,0,1,1.7-.42H45.75a3.11,3.11,0,0,1,2.13.8A1.42,1.42,0,0,1,48.33,87.35Z" transform="translate(-11.57 -6.12)"/><path class="cls-3" d="M78.52,54.66A4.06,4.06,0,0,1,75.57,58a4,4,0,0,1-.64.12H24.78a4.06,4.06,0,0,1-3-3.49l.12-1.49,2-24.26v-.1a.52.52,0,0,1,0-.14l.1-.32V28c.06-5.57,2.75-10.81,7.59-14.77A29.18,29.18,0,0,1,50.12,6.91c14.4,0,26.11,9.53,26.11,21.24,0,.11,0,.21,0,.32v.4l2.12,23.89h0Z" transform="translate(-11.57 -6.12)"/><path class="cls-2" d="M43.09,89.83c-.09-.53-.13-1.06-.2-1.6a10.67,10.67,0,0,0-.18-1.51,1.59,1.59,0,0,0-.8-1,1.21,1.21,0,0,0-.59-.12h-1.6a1.2,1.2,0,0,0-.59.12,1.58,1.58,0,0,0-.8,1,10.65,10.65,0,0,0-.18,1.51c-.07.53-.11,1.06-.2,1.6-.09-.53-.14-1.06-.2-1.6a7,7,0,0,1,0-1.67,2.18,2.18,0,0,1,1.07-1.51,1.92,1.92,0,0,1,1-.23h1.6a1.91,1.91,0,0,1,1,.24,2.18,2.18,0,0,1,1.07,1.51,7,7,0,0,1,0,1.67C43.23,88.76,43.19,89.29,43.09,89.83Z" transform="translate(-11.57 -6.12)"/><path class="cls-2" d="M38,89.83c-.09-.53-.13-1.06-.2-1.6a10.73,10.73,0,0,0-.18-1.51,1.58,1.58,0,0,0-.8-1,1.21,1.21,0,0,0-.59-.12H34.6a1.2,1.2,0,0,0-.59.12,1.58,1.58,0,0,0-.8,1A10.65,10.65,0,0,0,33,88.23c-.07.53-.11,1.06-.21,1.6-.09-.53-.14-1.06-.2-1.6a7,7,0,0,1,0-1.67,2.18,2.18,0,0,1,1.07-1.51,1.92,1.92,0,0,1,1-.23h1.6a1.9,1.9,0,0,1,1,.24,2.18,2.18,0,0,1,1.07,1.51,7,7,0,0,1,0,1.67C38.1,88.76,38.06,89.29,38,89.83Z" transform="translate(-11.57 -6.12)"/><path class="cls-2" d="M48.23,89.83c-.09-.53-.13-1.06-.2-1.6a10.59,10.59,0,0,0-.18-1.51,1.58,1.58,0,0,0-.8-1,1.21,1.21,0,0,0-.59-.12h-1.6a1.2,1.2,0,0,0-.59.12,1.58,1.58,0,0,0-.8,1,10.65,10.65,0,0,0-.18,1.51c-.07.53-.11,1.06-.2,1.6-.09-.53-.14-1.06-.2-1.6a7,7,0,0,1,0-1.67,2.18,2.18,0,0,1,1.07-1.51,1.92,1.92,0,0,1,1-.23h1.6a1.9,1.9,0,0,1,1,.24,2.18,2.18,0,0,1,1.07,1.51,7,7,0,0,1,0,1.67C48.36,88.76,48.32,89.29,48.23,89.83Z" transform="translate(-11.57 -6.12)"/><path class="cls-5" d="M64.7,68.71H34.39l.82-6.78a1.38,1.38,0,0,1,0-.27,2,2,0,0,0,.08-.43c0-.18,0-.36,0-.54H63.74c0,.18,0,.36,0,.54a2,2,0,0,0,.08.43,1.38,1.38,0,0,1,0,.27Z" transform="translate(-11.57 -6.12)"/><path class="cls-2" d="M39.07,51.68a7.15,7.15,0,1,0-9.5.32l.27.22.31-.15a10,10,0,0,1,2.6-.85,10.63,10.63,0,0,1,1.16-.15,10.08,10.08,0,0,1,4.57.71l.33.14Z" transform="translate(-11.57 -6.12)"/><path class="cls-6" d="M33.59,40.35a6.61,6.61,0,0,1,5,11.38A10.6,10.6,0,0,0,33.8,51a11.14,11.14,0,0,0-1.22.15,10.51,10.51,0,0,0-2.75.89,6.61,6.61,0,0,1,3.75-11.68Z" transform="translate(-11.57 -6.12)"/><path class="cls-7" d="M27.46,47.41A6.58,6.58,0,0,0,29.84,52a10.51,10.51,0,0,1,2.75-.89l7.84-6a6.61,6.61,0,0,0-13,2.26Z" transform="translate(-11.57 -6.12)"/><path class="cls-8" d="M30,51a11.45,11.45,0,0,1,2.22-.68l7.18-5.48a5.74,5.74,0,0,0-11.07,2.51A5.68,5.68,0,0,0,30,51Z" transform="translate(-11.57 -6.12)"/><path class="cls-9" d="M31.19,46.47c.75-.14,1.28-.45,1.26-.77s-.32-.42-.77-.52a5,5,0,0,1,8.74,0,6.62,6.62,0,0,1-1.81,6.58A10.6,10.6,0,0,0,33.8,51a11.14,11.14,0,0,0-1.22.15,5,5,0,0,1-1.39-4.67Z" transform="translate(-11.57 -6.12)"/><path class="cls-10" d="M38.45,51a6,6,0,0,0,1.36-5.57,4.35,4.35,0,0,0-4.07-2.16c-1.24.09-3.57,6.49-2.93,7.2.31,0,.63-.08.94-.1A11.37,11.37,0,0,1,38.45,51Z" transform="translate(-11.57 -6.12)"/><path class="cls-2" d="M38.92,52a11.68,11.68,0,0,0-9,.15l-.09-.2A11.64,11.64,0,0,1,34,51a11.51,11.51,0,0,1,5,.84Z" transform="translate(-11.57 -6.12)"/><path class="cls-11" d="M34.56,43.32c.22.09-.07.55-.16.77a15.4,15.4,0,0,0-1.24,2.48c-.07.55-.7,2.33-.78,2.77s-.42.25-.42.25a5.44,5.44,0,0,1-.45-1.71,3.4,3.4,0,0,1,.78-1.25c.2-.23.7-.81.67-1.24a1.59,1.59,0,0,1,.55-1.45C34,43.57,34.34,43.23,34.56,43.32Z" transform="translate(-11.57 -6.12)"/><circle class="cls-12" cx="36.15" cy="47.33" r="3.36" transform="translate(-14.84 -3.43) rotate(-4.07)"/><g class="cls-13"><circle class="cls-14" cx="33.24" cy="47.65" r="1.08" transform="translate(-14.87 -3.64) rotate(-4.07)"/></g><g class="cls-15"><circle class="cls-14" cx="35.05" cy="48.61" r="0.54" transform="translate(-14.93 -3.51) rotate(-4.07)"/></g><ellipse class="cls-16" cx="34.48" cy="54.23" rx="1.63" ry="4.39" transform="translate(-32.98 79.83) rotate(-87.12)"/><path class="cls-2" d="M61.11,51.52a7.15,7.15,0,1,1,9.48.66l-.28.21L70,52.23a10,10,0,0,0-2.57-.94,10.63,10.63,0,0,0-1.15-.19,10.08,10.08,0,0,0-4.59.55l-.33.12Z" transform="translate(-11.57 -6.12)"/><path class="cls-6" d="M67,40.39a6.61,6.61,0,0,0-5.43,11.19A10.6,10.6,0,0,1,66.4,51a11.14,11.14,0,0,1,1.21.2,10.51,10.51,0,0,1,2.71,1A6.61,6.61,0,0,0,67,40.39Z" transform="translate(-11.57 -6.12)"/><path class="cls-7" d="M72.86,47.66a6.58,6.58,0,0,1-2.53,4.53,10.51,10.51,0,0,0-2.71-1L60,44.94a6.61,6.61,0,0,1,12.87,2.72Z" transform="translate(-11.57 -6.12)"/><path class="cls-8" d="M70.2,51.16A11.45,11.45,0,0,0,68,50.4l-7-5.73a5.74,5.74,0,0,1,11,2.9A5.68,5.68,0,0,1,70.2,51.16Z" transform="translate(-11.57 -6.12)"/><path class="cls-9" d="M69.16,46.59c-.74-.16-1.26-.49-1.23-.81s.33-.41.79-.49A5,5,0,0,0,60,44.94a6.62,6.62,0,0,0,1.57,6.64A10.6,10.6,0,0,1,66.4,51a11.14,11.14,0,0,1,1.21.2,5,5,0,0,0,1.55-4.61Z" transform="translate(-11.57 -6.12)"/><path class="cls-10" d="M61.75,50.83a6,6,0,0,1-1.16-5.61,4.35,4.35,0,0,1,4.14-2c1.24.13,3.33,6.61,2.68,7.3-.31-.06-.62-.1-.94-.14A11.37,11.37,0,0,0,61.75,50.83Z" transform="translate(-11.57 -6.12)"/><path class="cls-2" d="M61.25,51.84a11.68,11.68,0,0,1,9,.47l.1-.19A11.64,11.64,0,0,0,66.23,51a11.51,11.51,0,0,0-5.06.66Z" transform="translate(-11.57 -6.12)"/><path class="cls-11" d="M65.91,43.32c-.23.08.05.55.13.78a15.4,15.4,0,0,1,1.15,2.52c.05.55.62,2.35.68,2.8s.41.26.41.26A5.44,5.44,0,0,0,68.79,48a3.4,3.4,0,0,0-.74-1.28c-.19-.24-.67-.83-.63-1.27a1.59,1.59,0,0,0-.5-1.47C66.43,43.6,66.14,43.24,65.91,43.32Z" transform="translate(-11.57 -6.12)"/><circle class="cls-12" cx="64.18" cy="47.28" r="3.36" transform="translate(-1.22 99.96) rotate(-83.9)"/><g class="cls-13"><circle class="cls-14" cx="67.08" cy="47.7" r="1.08" transform="translate(0.95 103.21) rotate(-83.9)"/></g><g class="cls-15"><circle class="cls-14" cx="65.24" cy="48.59" r="0.54" transform="translate(-1.58 102.18) rotate(-83.9)"/></g><ellipse class="cls-16" cx="66.13" cy="54.09" rx="1.63" ry="4.39" transform="translate(-6.64 107.57) rotate(-83.52)"/><ellipse class="cls-14" cx="38.72" cy="15.68" rx="18.01" ry="11.87"/><ellipse class="cls-17" cx="38.78" cy="11.33" rx="14.49" ry="6.92"/><path class="cls-18" d="M51.91,57.18a3.47,3.47,0,0,1-4.2.12l-2.28-1.17a1.67,1.67,0,0,1,1.44-2.5l2.75.72,2.75-.72a1.67,1.67,0,0,1,1.44,2.5Z" transform="translate(-11.57 -6.12)"/><path class="cls-17" d="M49.73,55.92a2.62,2.62,0,0,1-1.38-.47l0,0-1.9-1a.48.48,0,0,1,.07-.23.46.46,0,0,1,.3-.23l2.86.74L52.5,54a.46.46,0,0,1,.3.23.48.48,0,0,1,.07.24l-1.58.86,0,0A2.73,2.73,0,0,1,49.73,55.92Z" transform="translate(-11.57 -6.12)"/><rect class="cls-19" x="54.35" y="44.13" width="8.59" height="3.1" rx="1.05" ry="1.05"/><circle class="cls-20" cx="49.76" cy="42.88" r="1.13"/><circle class="cls-20" cx="56.97" cy="43.3" r="1.19"/><circle class="cls-20" cx="58.88" cy="43.65" r="1.19"/><circle class="cls-20" cx="65.96" cy="49.75" r="1.19" transform="translate(-25.06 20.99) rotate(-21.12)"/><circle class="cls-20" cx="52.2" cy="44.01" r="0.95"/><circle class="cls-20" cx="50.59" cy="44.31" r="0.66"/><rect class="cls-19" x="25.96" y="50.25" width="8.59" height="3.1" rx="1.05" ry="1.05" transform="translate(48.94 97.48) rotate(-180)"/><circle class="cls-20" cx="27.57" cy="42.88" r="1.13"/><circle class="cls-20" cx="20.36" cy="43.3" r="1.19"/><circle class="cls-20" cx="18.45" cy="43.65" r="1.19"/><circle class="cls-20" cx="34.5" cy="49.75" r="1.19" transform="translate(-35.9 57.89) rotate(-68.88)"/><circle class="cls-20" cx="25.13" cy="44.01" r="0.95"/><circle class="cls-20" cx="26.74" cy="44.31" r="0.66"/><path class="cls-3" d="M32.52,37.25c0,2.83,4.21,5.13,9.42,5.13" transform="translate(-11.57 -6.12)"/><path class="cls-21" d="M33,37.25a3.19,3.19,0,0,0,1,2.29,7.86,7.86,0,0,0,2.31,1.57,15.05,15.05,0,0,0,5.61,1.27,15.29,15.29,0,0,1-5.8-.83,8.44,8.44,0,0,1-2.62-1.49A4,4,0,0,1,32,37.25Z" transform="translate(-11.57 -6.12)"/><path class="cls-3" d="M68.18,37.25c0,2.83-4.21,5.13-9.42,5.13" transform="translate(-11.57 -6.12)"/><path class="cls-21" d="M68.66,37.25a4,4,0,0,1-1.48,2.81,8.44,8.44,0,0,1-2.62,1.49,15.29,15.29,0,0,1-5.8.83,15.05,15.05,0,0,0,5.61-1.27,7.86,7.86,0,0,0,2.31-1.57,3.19,3.19,0,0,0,1-2.29Z" transform="translate(-11.57 -6.12)"/><path class="cls-22" d="M78.92,30.92l-1.06-.22,2.37,26.65A2.76,2.76,0,0,1,77.42,60H63.73v.06c0,.06,0,.13,0,.19s0,.17,0,.25l.06.52L64.06,63l.52,4.39.05.44,0,.3.9,7.63h0l.09.8v.08l.91,7.7.34,2.92a2.76,2.76,0,0,1-.3,1.63h0a1.24,1.24,0,0,1-.11.5A2.72,2.72,0,0,1,64,90.68H53.45A3.6,3.6,0,0,1,52,90.41l-.3-.15H49.46V6.12h.66a31.08,31.08,0,0,1,18.36,5.75q.63.46,1.22,1l5.42-1.13c7.23-4.16,11.7,2.37,12.71,7.68v.06C88.84,24.68,85.84,31.8,78.92,30.92Z" transform="translate(-11.57 -6.12)"/></svg>