<?xml version="1.0" encoding="utf-8"?>
<!-- Generator: Adobe Illustrator 21.1.0, SVG Export Plug-In . SVG Version: 6.00 Build 0)  -->
<svg version="1.1" id="Layer_1" xmlns="http://www.w3.org/2000/svg" xmlns:xlink="http://www.w3.org/1999/xlink" x="0px" y="0px"
	 viewBox="0 0 453.2 177.8" style="enable-background:new 0 0 453.2 177.8;" xml:space="preserve">
<style type="text/css">
	.st0{clip-path:url(#SVGID_2_);}
	.st1{fill:#F9F9F9;stroke:#F9F9F9;stroke-width:0.25;stroke-miterlimit:10;}
	.st2{fill:#CE783F;}
	.st3{fill:#B4673E;}
	.st4{fill:#E49345;}
	.st5{fill:#9B5C3F;}
	.st6{fill:none;stroke:#2D2D2D;stroke-miterlimit:10;}
	.st7{fill:#82820F;}
	.st8{opacity:0.5;fill:#492E17;}
	.st9{fill:url(#SVGID_3_);}
</style>
<title>bluebg</title>
<g>
	<defs>
		<rect id="SVGID_1_" y="-6" width="453.2" height="183.6"/>
	</defs>
	<clipPath id="SVGID_2_">
		<use xlink:href="#SVGID_1_"  style="overflow:visible;"/>
	</clipPath>
	<g class="st0">
		<path class="st1" d="M149.8-596.1l-0.7,0.3l-0.3-0.7c-0.1-0.1-0.2-0.2-0.3-0.1c-0.1,0.1-0.2,0.2-0.1,0.4l0.3,0.7l-0.7,0.3
			c-0.1,0.1-0.2,0.2-0.1,0.4c0.1,0.1,0.2,0.2,0.3,0.1l0.7-0.3l0.3,0.7c0.1,0.1,0.2,0.2,0.3,0.1c0.1,0,0.1-0.1,0.1-0.1
			c0-0.1,0-0.2,0-0.2l-0.3-0.7l0.7-0.3c0.1,0,0.1-0.1,0.1-0.1c0-0.1,0-0.2,0-0.2C150.1-596.1,149.9-596.2,149.8-596.1z"/>
		<g>
			<polygon class="st2" points="465.3,91.3 465.3,79.8 401.8,79.8 303.5,79.8 240,79.8 204.6,79.8 44.8,79.8 38.9,79.8 -20.1,79.8 
				-39.2,79.8 -39.2,134.5 -39.2,164.5 -39.2,192.8 -25.1,192.8 -4.2,192.8 17.8,192.8 23.3,192.8 54.2,192.8 102.1,192.8 
				123.8,192.8 155.5,192.8 169,192.8 236.1,192.8 304.4,192.8 316.5,192.8 465.3,192.8 465.3,150.4 465.3,129.7 465.3,119.3 
				465.3,98.3 465.3,91.6 			"/>
			<path id="XMLID_293_" class="st3" d="M-36.6,121.6c0,0,20.4,29.3,52.5,19.5s50.2-48.5,89.9-49c0,0-33.4,8.6-48,35.1
				s-35.6,56.5-91.6,33.5L-36.6,121.6z"/>
			<path id="XMLID_292_" class="st3" d="M204.6,79.8c0,0-52.1,10.8-55,39.8c-2.1,20.7-1.1,36.1-40,43.3
				c-41.6,7.6-77.3,52.3-77.3,52.3l61.6-2.5c0,0,3.9-17.7,17-31.7c15.4-16.4,43.2-4.2,51.1-67.7c3.9-31.8,60.9-28.6,60.9-28.6
				L204.6,79.8z"/>
			<path id="XMLID_291_" class="st4" d="M37.5,76c0,0,3.2,3.1,1.3,19.8c-1.6,14.1-10.5,26.5-32.1,33.4c0,0,25.6,2.9,54.4-41.1
				L37.5,76z"/>
			<path id="XMLID_290_" class="st4" d="M141.7,252.8c0,0,21.6-114.4,140.2-117.2c118.6-2.8,119.9-55.8,119.9-55.8
				s5.9,51.6-104.2,67.7s-57,169.5-57,169.5L141.7,252.8z"/>
			<path id="XMLID_289_" class="st3" d="M240,79.8c0,0-28.8,22.3-31.5,44s-39.3,21.6-47.2,36.3c0,0,14.4-7.7,32.1-12.6
				c16.7-4.6,19-4.4,24-25c2-8.1-5.2-26.6,46.7-19.8c33.8,4.4,61.6-19.4,61.6-19.4l-22.3-3.5c0,0-14.4,22.5-31.8,18.8
				C254.4,95,240,79.8,240,79.8z"/>
			<path class="st3" d="M465.3,91.3c-1.6-0.1-3.2-0.1-4.9,0h-0.1c-6.8,0.3-14.7,2-23.9,5.7c-17.1,6.7-38.5,20.2-65.4,44.2
				c-27.4,24.6-49.3,40.9-66.6,51.6c-46.9,29.1-60.4,17.1-60.8,16.8l7.5,15.3l59.6-26.5c0,0,2.1-2.1,5.8-5.6
				c15.1-14.4,57.5-53,96.5-72.9c17.8-9.1,36.2-7,52.4-0.6v-21v-6.6V91.3z"/>
			<path class="st4" d="M465.3,129.7v20.7c-14.3-6-30.8-8.1-46.5,1.3c-40,23.7-61.8,33.5-72.7,26.5c0,0,26.2,3.5,65.5-39.1
				C428.8,120.5,448.5,122.1,465.3,129.7z"/>
			<path id="XMLID_288_" class="st4" d="M-14.9,230.5c0,0,75.4-93.1,109.4-99.9c34.1-6.8,47.2-34.7,47.2-34.7s-11.6,34.1-46.5,44.7
				C60.2,151-14.9,230.5-14.9,230.5z"/>
			<path id="XMLID_287_" class="st5" d="M-30.7,110.5c0,0,17-10.5,24.2,0s-9.8,9.8-17.7,9.4C-32,119.5-30.7,110.5-30.7,110.5z"/>
			<path id="XMLID_286_" class="st5" d="M284.9,170.1c0,0,13.2-8.1,18.8,0c5.6,8.1-7.6,7.6-13.7,7.3
				C283.9,177.2,284.9,170.1,284.9,170.1z"/>
			<path id="XMLID_285_" class="st5" d="M-1.2,120.1c0,0,3.8,5.4,9.1,0C13.2,114.7-5,114.7-1.2,120.1z"/>
			<path id="XMLID_284_" class="st5" d="M72.4,125.1c0,0,3.5-12.2,12.7-9.1c9.2,3.1,6.1,6.4,6.1,6.4S77.2,130.2,72.4,125.1z"/>
			<path id="XMLID_283_" class="st5" d="M255.2,114.8c0,0-5.3,8.1,0,8.3C260.5,123.4,261.6,112.4,255.2,114.8z"/>
			<path id="XMLID_282_" class="st5" d="M224.8,117c0,0,3.1,4.4,7.4,0C236.5,112.6,221.7,112.6,224.8,117z"/>
			<path id="XMLID_281_" class="st5" d="M234.9,120.9c0,0,2.8-9.9,10.2-7.4c7.4,2.5,4.9,5.2,4.9,5.2S238.8,125.1,234.9,120.9z"/>
			<path id="XMLID_280_" class="st5" d="M88.8,107L88.8,107c-1.4,2.2-0.8,5.1,1.3,6.5c3.2,2.1,7.9,4.3,11.6,2.5c2-1,2.7-3.3,2.3-5.8
				C102.7,102.5,93.1,100.6,88.8,107z"/>
			<path id="XMLID_279_" class="st5" d="M261.8,177.8L261.8,177.8c-1.1,1.7-0.7,4,1,5c2.5,1.6,6.2,3.3,9,2c1.6-0.8,2.1-2.5,1.8-4.5
				C272.5,174.4,265,172.8,261.8,177.8z"/>
			<path id="XMLID_278_" class="st6" d="M300,159.2l-0.7,0.9c-1,1.3-0.1,3.3,1.5,3.3l1.1,0c0.7,0,1.3-0.7,1.2-1.5l0,0
				C302.8,160.3,301.5,159.2,300,159.2L300,159.2z"/>
			<path id="XMLID_277_" class="st5" d="M248.5,120.2l-0.7,0.9c-1.1,1.4-0.2,3.4,1.5,3.4l1.1,0c0.8,0,1.4-0.8,1.2-1.6l0,0
				C251.3,121.3,250,120.2,248.5,120.2L248.5,120.2z"/>
			<path id="XMLID_276_" class="st5" d="M282.5,183.5l1-0.5c1.5-0.7,1.5-2.9,0-3.6l-1-0.5c-0.7-0.3-1.5,0.1-1.7,0.8l0,0
				C280.5,181.3,281.2,182.8,282.5,183.5L282.5,183.5z"/>
			<path id="XMLID_275_" class="st5" d="M-27.2,196.8c0.7-0.5,5.5-15.3,15.7-11.4c10.3,4,6.8,11.4,6.8,11.4H-27.2z"/>
			<path id="XMLID_274_" class="st5" d="M269.3,167c0,0-1.7,4.4,1.4,5.8s4.9-2.9,4.9-2.9l-3.4-2.9H269.3z"/>
			<path id="XMLID_273_" class="st5" d="M120.5,198.4c1.7-1.2,9.6-21,17.5-20.8c7.9,0.1,16.2-2.7,19.7-0.3c3.5,2.3,3.1,3.8,3.7,7.5
				c0.7,3.7-15.1,16.2-15.1,16.2L120.5,198.4z"/>
			<path id="XMLID_272_" class="st5" d="M404,172.1c0,0-6.1,8.8,0,9.1c6.1,0.3,15.3-8,15.3-8S416.7,159.9,404,172.1z"/>
		</g>
		<path class="st7" d="M465.3,91.3V79.8V63.6c-84-5-166.5,5.2-250.1,2.1c-16.1,0-31.6,0-47.7-3.3c-11.4-2.7-21.5-7.4-33.6-4.7
			c-32.9,6.7-63.8,7.4-96.1,8c-24.2,0.7-49.7,4-72.5-3.3c-0.1,0-0.2,0-0.3,0c-0.2,0-0.3,0-0.3-0.1c-0.1-0.1,0.1-0.4,0.4-0.8
			c0-0.1,0.1-0.1,0.1-0.2c0.1-0.1,0.2-0.3,0.2-0.5c0.1-0.2,0.2-0.4,0.2-0.6c0,0,0-0.1,0-0.1c-0.7,0-1.5,0-2.2,0
			c0.4,3.4-0.7,12.4-1.4,19.7c-0.5,4.8-0.7,8.8-0.3,10c0,0.1,0.1,0.2,0.2,0.3c0,0,0.1,0.1,0.1,0.1c0,0,0.1,0,0.1,0
			C-18.6,96.4,2.6,95,23.3,94c3.8-0.2,7.6-0.3,11.3-0.5c2.6-0.1,5.3-0.1,7.9-0.2c29.4-0.6,57.9-1.7,88.2-7.9
			c12.1-2.7,22.2,2,33.6,4.7c0.1,0,0.2,0,0.3,0.1c1.8,0.4,3.7,0.7,5.5,1c14,2.3,27.7,2.3,41.9,2.3c1.5,0.1,3,0.1,4.4,0.1
			c11.8,0.4,23.6,0.5,35.4,0.4h0c10.8,0,21.5-0.2,32.2-0.5c7.1-0.2,14.3-0.4,21.4-0.7c30.3-1,60.6-2.4,91-2.8h0c0.5,0,1.1,0,1.7,0
			c20.6-0.2,41.3,0,62,1.2h0.1c1.7,0.1,3.4,0.2,5.1,0.3V91.3z"/>
		<path class="st8" d="M465.3,91.6v6.6c-10-0.6-20-1.1-30-1.3c-13.3-0.3-26.6-0.4-39.9-0.2c-1,0-2,0-3,0
			c-35.2,0.5-70.3,2.3-105.4,3.3h0c-25,0.7-49.9,0.9-75,0h-1.3c-15.7,0-30.7-0.1-46.4-3.3c-1-0.2-1.9-0.5-2.9-0.7
			c-1.6-0.4-3.3-0.9-4.9-1.3c-8.4-2.4-16.5-4.7-25.8-2.6c-19.8,4-38.9,5.9-57.9,6.8h0c-4.2,0.2-8.5,0.4-12.8,0.6h0
			c-7.5,0.3-15.1,0.4-22.7,0.6h0c-0.9,0-1.7,0-2.6,0.1c-4.1,0.1-8.3,0.3-12.4,0.5c-20.3,1-41.2,2.2-60.1-3.9c-0.7,0-0.7-2.9-0.4-7
			c0,0,0,0,0,0c0,0.1,0.1,0.2,0.2,0.3c0,0,0.1,0.1,0.1,0.1s0.1,0,0.1,0C-18.6,96.4,2.6,95,23.3,94c3.8-0.2,7.6-0.3,11.3-0.5
			c2.6-0.1,5.3-0.1,7.9-0.2c29.4-0.6,57.9-1.7,88.2-7.9c12.1-2.7,22.2,2,33.6,4.7c0.1,0,0.2,0,0.3,0.1c1.8,0.4,3.7,0.7,5.5,1
			c14,2.3,27.7,2.3,41.9,2.3c1.5,0.1,3,0.1,4.4,0.1c11.8,0.4,23.6,0.5,35.4,0.4h0c10.8,0,21.5-0.2,32.2-0.5
			c7.1-0.2,14.3-0.4,21.4-0.7c30.3-1,60.6-2.4,91-2.8h0c0.5,0,1.1,0,1.7,0c20.6-0.2,41.3,0,62,1.2h0.1
			C461.9,91.4,463.6,91.5,465.3,91.6z"/>
		<linearGradient id="SVGID_3_" gradientUnits="userSpaceOnUse" x1="214.998" y1="79.2997" x2="214.998" y2="22.0071">
			<stop  offset="0" style="stop-color:#BFA910"/>
			<stop  offset="1" style="stop-color:#CFA53D"/>
		</linearGradient>
		<path class="st9" d="M465.3,55.8v7.8c-84-5-166.5,5.2-250.1,2.1c-16.1,0-31.6,0-47.7-3.3c-11.4-2.7-21.5-7.4-33.6-4.7
			c-32.9,6.7-63.8,7.4-96.1,8c-24.2,0.7-49.7,4-72.5-3.3c-0.1,0-0.2,0-0.3,0c-0.2,0-0.3,0-0.3-0.1c-0.1-0.1,0.1-0.4,0.4-0.8
			c0-0.1,0.1-0.1,0.1-0.2c0.1-0.1,0.2-0.3,0.2-0.5c0.1-0.2,0.2-0.4,0.2-0.6c0,0,0-0.1,0-0.1c0.3-1,0.6-2.4,0.3-4.4
			c10.8,0,22.2,1.6,33.5,2.7l-1.7-10.1l5.8,8.5l2.1-40.7l1.5,42.9c0.1,0,0.3,0,0.4,0l8-20.2L9.1,59.2c8.7,0.6,17.3,0.6,25.4-0.9
			c13.2-2.2,26.5-3.6,39.7-4.6l9.9-0.7c11.3-0.7,22.7-1.1,34.1-1.6l2-0.1c7.9-0.3,15.8-0.7,23.8-1.1c1.9-0.1,3.9-0.1,5.8-0.1
			l7.5,0.2c0.1,0,0.3,0,0.4,0l1.6,0.1c11.4,0.8,22.7,2.8,34.4,5.1c15.5,3.3,29.6,4.7,45,4c17.4-1.2,34.8-2.3,52.2-3.3l-0.9-4.4
			l2.5,4.3c28.9-1.6,57.7-2.8,86.7-3.1l-1.7-9.6l5.8,8.5l2.1-25.6l1.3,26.7h1.1l7.5-16l-6.1,16c8.9,0,17.9,0.1,26.8,0.3l2.4-5.5
			l-1.1,5.5C433.3,53.9,449.3,54.6,465.3,55.8z"/>
	</g>
</g>
</svg>
