<svg id="Layer_1" data-name="Layer 1" xmlns="http://www.w3.org/2000/svg" xmlns:xlink="http://www.w3.org/1999/xlink" viewBox="0 0 127.38 77.25"><defs><style>.cls-1{fill:#302014;}.cls-2,.cls-26{fill:#4a3320;}.cls-3{fill:#ffb600;}.cls-4{fill:#e08205;}.cls-5{fill:#edc600;}.cls-6{fill:#020101;}.cls-7{fill:url(#linear-gradient);}.cls-8{opacity:0.73;fill:url(#linear-gradient-2);}.cls-9{fill:#fc0;}.cls-10{fill:#ffdb43;}.cls-11{opacity:0.5;fill:url(#linear-gradient-3);}.cls-12{fill:#ffa071;}.cls-13{fill:#fcd32b;}.cls-14,.cls-16,.cls-25{fill:#2b2b2b;}.cls-14{opacity:0.56;}.cls-15{fill:#efefef;}.cls-17{fill:#495750;}.cls-18{fill:#ccc;}.cls-19{fill:#33493e;}.cls-20{fill:#686b72;}.cls-21{opacity:0.74;}.cls-22{opacity:0.22;}.cls-23{opacity:0.41;}.cls-24,.cls-29{fill:#1dcaf2;}.cls-24{opacity:0.3;}.cls-25{stroke:#ad6b3e;stroke-width:0.2px;}.cls-25,.cls-27,.cls-28{stroke-miterlimit:10;}.cls-26{opacity:0.34;}.cls-27,.cls-28{fill:none;stroke:#4a3320;stroke-linecap:round;stroke-width:1.62px;}.cls-28{opacity:0.35;}</style><linearGradient id="linear-gradient" x1="75.71" y1="49.03" x2="95.41" y2="49.03" gradientUnits="userSpaceOnUse"><stop offset="0" stop-color="#330"/><stop offset="0.27" stop-color="#212100" stop-opacity="0.65"/><stop offset="0.72" stop-color="#090900" stop-opacity="0.18"/><stop offset="1" stop-opacity="0"/></linearGradient><linearGradient id="linear-gradient-2" x1="40.96" y1="49.13" x2="60.66" y2="49.13" gradientUnits="userSpaceOnUse"><stop offset="0" stop-opacity="0"/><stop offset="0.28" stop-color="#090900" stop-opacity="0.18"/><stop offset="0.73" stop-color="#212100" stop-opacity="0.65"/><stop offset="1" stop-color="#330"/></linearGradient><linearGradient id="linear-gradient-3" x1="131.73" y1="50.05" x2="131.78" y2="50.05" gradientUnits="userSpaceOnUse"><stop offset="0" stop-opacity="0"/><stop offset="0.22" stop-color="#050400" stop-opacity="0.06"/><stop offset="0.47" stop-color="#120e00" stop-opacity="0.25"/><stop offset="0.73" stop-color="#281f00" stop-opacity="0.56"/><stop offset="1" stop-color="#483700" stop-opacity="0.99"/><stop offset="1" stop-color="#483700"/></linearGradient></defs><title>butterfly1</title><path class="cls-1" d="M68.62,64.34l-1.5,1.46-18,17.55C44.35,85.86,38,86.85,35.5,82.11l-2.93-7A19.48,19.48,0,0,1,31,71.29a11.7,11.7,0,0,1,1-9.47,13.22,13.22,0,0,1,3.51-3.74l3.38-3.42H35.13A30.83,30.83,0,0,1,4.39,23.92V16.6a8.32,8.32,0,0,1,8.3-8.3h9a44.17,44.17,0,0,1,44,44,2.32,2.32,0,0,1-2.08,2.3l2,2.21,3.91,4.35A2.33,2.33,0,0,1,68.62,64.34Z" transform="translate(-4.39 -8.3)"/><path class="cls-2" d="M67.13,65.8l-18,17.55C44.35,85.86,38,86.85,35.5,82.11l-2.93-7A19.48,19.48,0,0,1,31,71.29a12.08,12.08,0,0,1,4.5-5.89L38.88,62H35.13A30.73,30.73,0,0,1,32,61.82a13.22,13.22,0,0,1,3.51-3.74l3.38-3.42H35.13A30.83,30.83,0,0,1,4.39,23.92a8.32,8.32,0,0,1,8.3-8.3h9a44.21,44.21,0,0,1,43.63,38q.22,1.58.32,3.2.09,1.39.09,2.81A2.33,2.33,0,0,1,63.68,62Z" transform="translate(-4.39 -8.3)"/><path class="cls-3" d="M7.2,20.1l.73-2.63s3.78.34,4.76.57,1.22,1.37-.24,1.83A22.46,22.46,0,0,1,7.2,20.1Z" transform="translate(-4.39 -8.3)"/><path class="cls-3" d="M12.81,31.17c-1.46-.23-1.1-1.71-1.46-2.17s-1.29-1.41-.49-1.94c2.07-1.37,5.25.91,4.88,1.71S14.27,31.4,12.81,31.17Z" transform="translate(-4.39 -8.3)"/><path class="cls-3" d="M17.2,37.91c-2.56.23-1.46-1.71-2.2-2.63a20.46,20.46,0,0,1-1.59-2.51c.61-.68,3.78.34,4.39.8A2.85,2.85,0,0,1,19,35.62C19,36.42,19.76,37.68,17.2,37.91Z" transform="translate(-4.39 -8.3)"/><path class="cls-3" d="M21.1,15.65,9,14.4a5.26,5.26,0,0,1,2-1.83C12.08,12.11,20,15.08,21.1,15.65Z" transform="translate(-4.39 -8.3)"/><path class="cls-3" d="M21.1,44.18c-2,.46-2.81-3.08-3.29-3.77A5,5,0,0,1,19,39c.85-.69,2.2,1,2.81,2.05S23.06,43.73,21.1,44.18Z" transform="translate(-4.39 -8.3)"/><path class="cls-3" d="M9.76,25.7c-1.1-.23-.24-1-.24-1.71S8.29,22.5,8.05,21.81s1.46-.57,6.22-.57,12.08,2.63,12.08,2.63C21.59,23.07,10.86,25.92,9.76,25.7Z" transform="translate(-4.39 -8.3)"/><polygon class="cls-3" points="13.42 22.07 17.08 20.02 14.64 18.08 22.2 20.13 20.74 20.47 20.5 21.73 13.42 22.07"/><path class="cls-3" d="M25.25,47.84a2.14,2.14,0,0,1-3-1.26c-.49-1,1.59-3.57,1.59-2.4,0,.11,2.44-.11,2.81.34A2.59,2.59,0,0,1,25.25,47.84Z" transform="translate(-4.39 -8.3)"/><path class="cls-3" d="M22,35.17c.37-1-2.32-2.74-2-3.42a37.5,37.5,0,0,1,4.51.46c1.71.34,2.81,1,2.81,1.71s-2.93,3.31-4,3.31A1.46,1.46,0,0,1,22,35.17Z" transform="translate(-4.39 -8.3)"/><path class="cls-3" d="M23.3,39.28a28.3,28.3,0,0,1,4-2.28c1.1-.34,2.32.57,2.93.68s0,1.26-.73,1.71-4,2.4-4.64,1.94S24.76,40,23.3,39.28Z" transform="translate(-4.39 -8.3)"/><path class="cls-3" d="M26.35,23.87c.24,0,.49.23,2.2.68A6.79,6.79,0,0,0,31,24.9a6,6,0,0,1-4.64,1.71C24.89,26.38,26.11,23.87,26.35,23.87Z" transform="translate(-4.39 -8.3)"/><path class="cls-3" d="M32.08,50c-.73,1-1.83.57-4.39.23s-1.46-.69-1.34-1.37,1.83-1.37,3.29-1.37a12,12,0,0,0,1.71.46A1.25,1.25,0,0,1,32.08,50Z" transform="translate(-4.39 -8.3)"/><path class="cls-3" d="M28.42,42.82s0-.34,1.22-1.14S34,41.33,35,41.45s1.22,1,.49,2.05-4.76,2.63-4.76,1.71S29.16,43.16,28.42,42.82Z" transform="translate(-4.39 -8.3)"/><path class="cls-3" d="M35,27.64c1.46-.34,2.57,1.14,1.83,1.14-.12,0-1.34,1.6-2.44,2.05s1.1,1.71,1.83,2.28,4.39,2.51,3.9,3.54-2.44,1-6.59-1.14-3.29-4.34-2.81-4.68A1.28,1.28,0,0,0,31,29.12C30.62,28.43,33.55,28,35,27.64Z" transform="translate(-4.39 -8.3)"/><path class="cls-3" d="M45.75,44.53c4.39,0,9,3.31,9,3.31s-6.47.11-9,.11-5.61,1.26-7.08,1-.73-1.14-2.2-2.17a4.15,4.15,0,0,0-2.56-.91s0-.11,2-1S41.36,44.53,45.75,44.53Z" transform="translate(-4.39 -8.3)"/><path class="cls-4" d="M67.71,62.62l-.25.13-1.87,1.82L47.93,81.75a14.63,14.63,0,0,1-6.34,1.75,4.49,4.49,0,0,1-4.33-2.23l-2.92-6.95,0-.08A17.08,17.08,0,0,1,32.69,70a11.16,11.16,0,0,1-.26-3.41,9.6,9.6,0,0,1,4.23-7l.12-.09L43.31,53l1.34-.38L60,53.51l7.87,8.74A.37.37,0,0,1,67.71,62.62Z" transform="translate(-4.39 -8.3)"/><path class="cls-3" d="M65.59,65.79,47.93,83a14.63,14.63,0,0,1-6.34,1.75,4.49,4.49,0,0,1-4.33-2.23l-2.92-6.95,0-.08a17.08,17.08,0,0,1-1.61-4.23,11.16,11.16,0,0,1-.26-3.41,9.6,9.6,0,0,1,4.23-7l.12-.09,6.53-6.59,1.34-.38L60,54.73,68,62.23C68,62.37,65.59,65.79,65.59,65.79Z" transform="translate(-4.39 -8.3)"/><path class="cls-5" d="M65.59,64.57,47.93,81.75a14.63,14.63,0,0,1-6.34,1.75,4.49,4.49,0,0,1-4.33-2.23l-2.92-6.95,0-.08A17.08,17.08,0,0,1,32.69,70a10,10,0,0,1,4-5.49l.12-.09,6.53-6.59,1.34-.38L60,58.39Z" transform="translate(-4.39 -8.3)"/><path class="cls-5" d="M21.1,15.65,9,14.4a5.26,5.26,0,0,1,2-1.83C12.08,12.11,20,15.08,21.1,15.65Z" transform="translate(-4.39 -8.3)"/><path class="cls-5" d="M12.44,19.87a22.46,22.46,0,0,1-5.25.23l.73-2.63s3.78.34,4.76.57S13.91,19.42,12.44,19.87Z" transform="translate(-4.39 -8.3)"/><path class="cls-5" d="M26.35,23.87c-4.76-.8-15.49,2.05-16.59,1.83s-.24-1-.24-1.71S8.29,22.5,8.05,21.81s1.46-.57,6.22-.57S26.35,23.87,26.35,23.87Z" transform="translate(-4.39 -8.3)"/><path class="cls-5" d="M15.74,28.78c-.37.8-1.46,2.63-2.93,2.4s-1.1-1.71-1.46-2.17-1.29-1.41-.49-1.94C12.93,25.7,16.1,28,15.74,28.78Z" transform="translate(-4.39 -8.3)"/><polygon class="cls-5" points="22.2 20.13 20.74 20.47 20.5 21.73 13.42 22.07 17.08 20.02 14.64 18.08 22.2 20.13"/><path class="cls-5" d="M40.14,36.65c-.49,1-2.44,1-6.59-1.14s-3.29-4.34-2.81-4.68A1.28,1.28,0,0,0,31,29.12c-.37-.68,2.56-1.14,4-1.48s2.57,1.14,1.83,1.14c-.12,0-1.34,1.6-2.44,2.05s1.1,1.71,1.83,2.28S40.62,35.62,40.14,36.65Z" transform="translate(-4.39 -8.3)"/><path class="cls-5" d="M31,24.9a6,6,0,0,1-4.64,1.71c-1.46-.23-.24-2.74,0-2.74s.49.23,2.2.68A6.79,6.79,0,0,0,31,24.9Z" transform="translate(-4.39 -8.3)"/><path class="cls-5" d="M27.33,33.91c0,.68-2.93,3.31-4,3.31A1.46,1.46,0,0,1,22,35.17c.37-1-2.32-2.74-2-3.42a37.5,37.5,0,0,1,4.51.46C26.23,32.54,27.33,33.23,27.33,33.91Z" transform="translate(-4.39 -8.3)"/><path class="cls-5" d="M17.2,37.91c-2.56.23-1.46-1.71-2.2-2.63a20.46,20.46,0,0,1-1.59-2.51c.61-.68,3.78.34,4.39.8A2.85,2.85,0,0,1,19,35.62C19,36.42,19.76,37.68,17.2,37.91Z" transform="translate(-4.39 -8.3)"/><path class="cls-5" d="M21.1,44.18c-2,.46-2.81-3.08-3.29-3.77A5,5,0,0,1,19,39c.85-.69,2.2,1,2.81,2.05S23.06,43.73,21.1,44.18Z" transform="translate(-4.39 -8.3)"/><path class="cls-5" d="M29.52,39.39c-.73.46-4,2.4-4.64,1.94S24.76,40,23.3,39.28a28.3,28.3,0,0,1,4-2.28c1.1-.34,2.32.57,2.93.68S30.25,38.93,29.52,39.39Z" transform="translate(-4.39 -8.3)"/><path class="cls-5" d="M25.25,47.84a2.14,2.14,0,0,1-3-1.26c-.49-1,1.59-3.57,1.59-2.4,0,.11,2.44-.11,2.81.34A2.59,2.59,0,0,1,25.25,47.84Z" transform="translate(-4.39 -8.3)"/><path class="cls-5" d="M35.5,43.5c-.73,1-4.76,2.63-4.76,1.71s-1.59-2.05-2.32-2.4c0,0,0-.34,1.22-1.14S34,41.33,35,41.45,36.23,42.47,35.5,43.5Z" transform="translate(-4.39 -8.3)"/><path class="cls-5" d="M32.08,50c-.73,1-1.83.57-4.39.23s-1.46-.69-1.34-1.37,1.83-1.37,3.29-1.37a12,12,0,0,0,1.71.46A1.25,1.25,0,0,1,32.08,50Z" transform="translate(-4.39 -8.3)"/><path class="cls-5" d="M54.78,47.84s-6.47.11-9,.11-5.61,1.26-7.08,1-.73-1.14-2.2-2.17a4.15,4.15,0,0,0-2.56-.91s0-.11,2-1,5.49-.34,9.88-.34S54.78,47.84,54.78,47.84Z" transform="translate(-4.39 -8.3)"/><path class="cls-2" d="M61.62,55.06c-2.5,1.15-5,2.19-7.6,3.17-1.28.48-2.59.92-3.84,1.48A30.15,30.15,0,0,1,46.24,61c-2.66.73-5.38,1.2-8,1.83a12.73,12.73,0,0,0-1.9.6,11.46,11.46,0,0,0-1.74,1A27.07,27.07,0,0,0,31.37,67l0,0a18.6,18.6,0,0,1,3-2.91,12,12,0,0,1,1.77-1.14,10.64,10.64,0,0,1,2-.68c2.69-.68,5.41-1,8.11-1.54a16.16,16.16,0,0,0,3.92-1.16c1.25-.58,2.48-1.2,3.74-1.75A69.25,69.25,0,0,1,61.6,55Z" transform="translate(-4.39 -8.3)"/><path class="cls-2" d="M46.27,61a7.81,7.81,0,0,1-.15,2.37,5.83,5.83,0,0,1-.4,1.15,4.32,4.32,0,0,1-.72,1c-.55.58-1.17,1.07-1.76,1.58L41.5,68.68a9,9,0,0,1-.93.75,3.68,3.68,0,0,1-1.12.52c-.75.24-1.5.46-2.26.65l-2.28.52-1.13.26a3.29,3.29,0,0,0-1.05.38l-.06,0a2.47,2.47,0,0,1,1-.65c.37-.15.73-.3,1.1-.42.74-.25,1.49-.48,2.24-.69l2.26-.57a3.82,3.82,0,0,0,1-.38c.32-.19.66-.38,1-.6A13,13,0,0,0,43.11,67a16.59,16.59,0,0,0,1.51-1.77A8.58,8.58,0,0,0,46.21,61Z" transform="translate(-4.39 -8.3)"/><path class="cls-2" d="M40.4,69.57a18.35,18.35,0,0,0-.28,2,6.63,6.63,0,0,0,0,1,1.55,1.55,0,0,0,.08.41c0,.07,0,.07,0,.1a.71.71,0,0,0,.13.1,3.88,3.88,0,0,0,1.84.37,5.6,5.6,0,0,0,1.94-.36,21.27,21.27,0,0,0,3.42-2.31c1.11-.86,2.21-1.74,3.3-2.63s2.16-1.8,3.22-2.74,2-2,3.07-2.91c2.09-1.9,4.24-3.72,6.4-5.53-2.11,1.87-4.22,3.75-6.25,5.7-1,1-1.94,2-3,3s-2.09,1.9-3.15,2.83S49,70.46,47.92,71.35q-.82.67-1.67,1.31a10.15,10.15,0,0,1-1.85,1.18,6.31,6.31,0,0,1-2.18.46A4.52,4.52,0,0,1,40,73.88a1.48,1.48,0,0,1-.29-.22,1.16,1.16,0,0,1-.22-.36,2.28,2.28,0,0,1-.14-.62,7.45,7.45,0,0,1,0-1.12,19.2,19.2,0,0,1,.23-2.16Z" transform="translate(-4.39 -8.3)"/><path class="cls-2" d="M40.12,73.53c-.85.86-1.68,1.77-2.47,2.7-.39.47-.77.94-1.12,1.45a4.23,4.23,0,0,0-.79,1.63,4.29,4.29,0,0,1,.66-1.71c.31-.54.65-1,1-1.55.71-1,1.47-2,2.26-2.92Z" transform="translate(-4.39 -8.3)"/><path class="cls-2" d="M44.83,73.32c0,1.8,0,3.6-.06,5.4,0,.9-.07,1.8-.13,2.7a8,8,0,0,1-.47,2.64,8,8,0,0,0,.32-2.65q0-1.35,0-2.69c0-1.79-.13-3.59-.24-5.38Z" transform="translate(-4.39 -8.3)"/><path class="cls-2" d="M50.55,69q.56,2.29,1.06,4.59.25,1.15.47,2.31a10,10,0,0,1,.26,2.33,10,10,0,0,0-.41-2.3q-.29-1.14-.61-2.27c-.43-1.51-.88-3-1.35-4.5Z" transform="translate(-4.39 -8.3)"/><path class="cls-2" d="M43.67,56.37s-3-.24-2.93.73.49,2.68,1,2.68,0,.85,2.2-.12,2.56-1.59,2-2.44S43.67,56.37,43.67,56.37Z" transform="translate(-4.39 -8.3)"/><path class="cls-2" d="M39,64.6s-3.8-.3-3.65.91.61,3.34,1.22,3.34,0,1.06,2.73-.15,3.19-2,2.43-3S39,64.6,39,64.6Z" transform="translate(-4.39 -8.3)"/><path class="cls-2" d="M39.58,77s-1.93,2.4-1.05,2.85S41,81,41.32,80.61s.71.48,1.14-1.9.13-3-.93-3S39.58,77,39.58,77Z" transform="translate(-4.39 -8.3)"/><path class="cls-2" d="M46.8,76.19s.06,2.94,1,2.73,2.52-.73,2.48-1.19.82-.08-.33-2.09-1.77-2.3-2.52-1.63A3,3,0,0,0,46.8,76.19Z" transform="translate(-4.39 -8.3)"/><path class="cls-2" d="M36.71,72.32s-1.52-.12-1.46.36S35.5,74,35.74,74s0,.42,1.09-.06,1.28-.78,1-1.19S36.71,72.32,36.71,72.32Z" transform="translate(-4.39 -8.3)"/><path class="cls-6" d="M64.29,53c-.91-3-1.92-6-3-9S59,38.05,57.68,35.2s-2.81-5.7-5-7.89a34.4,34.4,0,0,0-3.7-2.9c-1.28-.92-2.59-1.8-3.91-2.67q-3.95-2.62-8-5a87.43,87.43,0,0,0-8.39-4.37c-2.84-1.37-6-1.64-9.17-2s-6.3-.51-9.46-.62c3.16,0,6.33.1,9.49.32,1.58.12,3.16.28,4.73.53a17.86,17.86,0,0,1,4.59,1.32,77.78,77.78,0,0,1,8.48,4.32q4.12,2.37,8.1,5c1.32.88,2.63,1.77,3.91,2.7a34.84,34.84,0,0,1,3.74,3A27.76,27.76,0,0,1,58.1,35,118.87,118.87,0,0,1,64.29,53Z" transform="translate(-4.39 -8.3)"/><path class="cls-6" d="M62.67,52.05a.42.42,0,0,1-.39-.09l-.07-.08,0,0-.09-.12-.19-.25L61.53,51l-.79-1q-.8-1-1.66-1.85a23.24,23.24,0,0,0-3.75-3.23,9.73,9.73,0,0,0-2.17-1.1,21,21,0,0,0-2.4-.62c-1.63-.34-3.28-.6-4.93-.86s-3.31-.5-5-.82a17.54,17.54,0,0,1-2.46-.63,9.39,9.39,0,0,1-1.16-.54l-1.12-.57a35.23,35.23,0,0,1-4.35-2.56,12.63,12.63,0,0,1-1.92-1.67,4.26,4.26,0,0,1-1.19-2.29l0,.06A7.06,7.06,0,0,1,28,30a3.29,3.29,0,0,1,.52-1.63,4.58,4.58,0,0,1,1.26-1.14,11.07,11.07,0,0,1,6.15-2.35,19.25,19.25,0,0,1,6.47,1.37A17.08,17.08,0,0,1,48,29.75a43.2,43.2,0,0,1,4.09,5.19c1.26,1.8,2.47,3.65,3.64,5.51Q59.27,46,62.52,51.8Zm-.3-.52c-2.15-3.72-4.37-7.41-6.69-11C54.49,38.65,53.28,36.81,52,35a43.09,43.09,0,0,0-4.11-5.15,16.91,16.91,0,0,0-5.58-3.37,19,19,0,0,0-6.39-1.31,10.81,10.81,0,0,0-6,2.33,4.3,4.3,0,0,0-1.17,1.06,3,3,0,0,0-.46,1.48A6.75,6.75,0,0,0,29,33.17v.06a3.92,3.92,0,0,0,1.11,2.09A12.27,12.27,0,0,0,32,36.93a34.85,34.85,0,0,0,4.31,2.5l1.12.56a8.93,8.93,0,0,0,1.11.51,17.15,17.15,0,0,0,2.4.59c1.64.31,3.29.54,4.95.78s3.31.5,5,.83a21.48,21.48,0,0,1,2.46.62,10.25,10.25,0,0,1,2.3,1.15,23.81,23.81,0,0,1,3.86,3.29q.88.91,1.7,1.87l.81,1,.39.5.19.25.1.13,0,0,0,0A.24.24,0,0,0,62.37,51.54Z" transform="translate(-4.39 -8.3)"/><path class="cls-1" d="M131.67,16.6v7.32a30.83,30.83,0,0,1-30.74,30.74H97.18l3.38,3.42a13.24,13.24,0,0,1,3.51,3.74,11.71,11.71,0,0,1,1,9.47,19.38,19.38,0,0,1-1.57,3.87l-2.93,7-.09.17,0,.05-.1.16-.1.16,0,0-.11.16h0L100,83l-.06.08-.06.08-.13.16-.14.15h0l-.14.14,0,0-.12.12h0l-.12.11L99,84l-.17.13-.16.11-.08.05-.08.05-.07,0-.1.06-.17.1,0,0-.07,0-.05,0-.09,0-.09,0-.07,0-.14.06-.14.06-.12,0-.21.08L97,85.1l-.09,0-.09,0-.21.06-.11,0h0l-.1,0h0l-.19,0-.24,0h-.11l-.15,0H93.52l-.16,0-.16,0-.16,0-.44-.06-.14,0h-.07l-.1,0-.39-.08-.48-.11L91.09,85l-.26-.07-.28-.08-.2-.06-.14,0L90,84.64l-.55-.19-.25-.1-.06,0-.25-.1-.2-.08-.1,0L88,83.87l-.27-.13-.26-.13h0l-.23-.12L87,83.34,77.07,73.7l-.1-.1-1.26-1.22-.16-.15L72,68.79l-3.08-3-.6-.59-.1-.1-.2-.2-.59-.57a2.3,2.3,0,0,1-.57-.43,2.24,2.24,0,0,1-.27-.34,2.33,2.33,0,0,1-.12-2.37l.18-.2.06-.06L68,59.48l.2-.22.1-.11,2.06-2.29L72,55.06l.37-.41a2.26,2.26,0,0,1-.37-.07,2.32,2.32,0,0,1-1.19-.78l-.11-.14a2.3,2.3,0,0,1-.26-.5L70.41,53a2.3,2.3,0,0,1-.1-.66q0-.38,0-.75a43.64,43.64,0,0,1,1.43-10.37q.27-1.05.6-2.08a43.79,43.79,0,0,1,3.37-7.86q.53-1,1.12-1.92l0-.06q.32-.52.65-1t.64-1a44.26,44.26,0,0,1,3.31-4.21l.61-.67.16-.17q.49-.52,1-1L83.5,21l0,0,.33-.32.35-.33.31-.29.17-.16.32-.29.31-.28.29-.25.22-.19.59-.49.51-.42.19-.15.24-.19.1-.08.27-.21.52-.39.42-.31.39-.28.23-.16.94-.63.26-.17.29-.18.69-.43.67-.4.36-.21,0,0,.32-.18.12-.07.26-.14q1.05-.58,2.14-1.1.77-.37,1.56-.71l.35-.15.15-.06.41-.17.07,0,.45-.18.31-.12.08,0,.17-.07.5-.18.37-.13.06,0,.41-.14.17-.06.38-.12.13,0,.44-.14.51-.16.5-.14h0L103,9.8l.52-.14.12,0,.39-.1h0l.47-.11h0l.53-.12h0l.5-.11.53-.11.62-.11.45-.08,1.11-.17.51-.07.52-.06h0l1.1-.11.51,0h.1l.45,0h.08l.45,0h.15l.36,0h.2l.51,0h10.1A8.32,8.32,0,0,1,131.67,16.6Z" transform="translate(-4.39 -8.3)"/><path class="cls-2" d="M100.93,54.66H97.18l3.38,3.42a13.24,13.24,0,0,1,3.51,3.74q-1.12.12-2.27.15H97.18l.47.47,2.29,2.31.62.63.12.09a13.55,13.55,0,0,1,2.93,3l0,.06h0a10.72,10.72,0,0,1,1.4,2.77,19.38,19.38,0,0,1-1.57,3.87l-2.93,7-.09.17,0,.05-.1.16-.1.16,0,0-.11.16h0L100,83l-.06.08-.06.08-.13.16-.14.15h0l-.14.14,0,0-.12.12h0l-.12.11L99,84l-.17.13-.16.11-.08.05-.08.05-.07,0-.1.06-.17.1,0,0-.07,0-.05,0-.09,0-.09,0-.07,0-.14.06-.14.06-.12,0-.21.08L97,85.1l-.09,0-.09,0-.21.06-.11,0h0l-.1,0h0l-.19,0-.24,0h-.11l-.15,0H93.52l-.16,0-.16,0-.16,0-.44-.06-.14,0h-.07l-.1,0-.39-.08-.48-.11L91.09,85l-.26-.07-.28-.08-.2-.06-.14,0L90,84.64l-.55-.19-.25-.1-.06,0-.25-.1-.2-.08-.1,0L88,83.87l-.27-.13-.26-.13h0l-.23-.12L87,83.34,77,73.61l-1.26-1.22-.16-.15L72,68.79l-3.08-3,.87-1,.43-.48,1.29-1.43.48-.53.37-.41A2.15,2.15,0,0,1,72,61.9a2.33,2.33,0,0,1-1.66-1.79,2.16,2.16,0,0,1,0-.24q0-.1,0-.2,0-1.41.09-2.81t.3-3.05l0-.14c0-.17,0-.34.07-.5l0-.15q.11-.71.24-1.42a43.26,43.26,0,0,1,1.23-4.95q.15-.49.32-1,.27-.8.57-1.59h0l0-.06h0l.32-.8.22-.52h0l.33-.75h0q.28-.64.59-1.27h0l.12-.24h0l0-.05h0q.44-.9.93-1.78l.1-.18.44-.77h0l.07-.13a44.2,44.2,0,0,1,2.55-3.87h0a44.43,44.43,0,0,1,3.78-4.48l.6-.61.82-.8q.9-.86,1.85-1.66.64-.54,1.3-1.06a44.25,44.25,0,0,1,8.19-5.11,43.62,43.62,0,0,1,18.94-4.31h9a8.32,8.32,0,0,1,8.3,8.3A30.83,30.83,0,0,1,100.93,54.66Z" transform="translate(-4.39 -8.3)"/><path class="cls-3" d="M128.87,20.1l-.73-2.63s-3.78.34-4.76.57-1.22,1.37.24,1.83A22.46,22.46,0,0,0,128.87,20.1Z" transform="translate(-4.39 -8.3)"/><path class="cls-3" d="M123.26,31.17c1.46-.23,1.1-1.71,1.46-2.17s1.29-1.41.49-1.94c-2.07-1.37-5.25.91-4.88,1.71S121.79,31.4,123.26,31.17Z" transform="translate(-4.39 -8.3)"/><path class="cls-3" d="M118.86,37.91c2.56.23,1.46-1.71,2.2-2.63a20.46,20.46,0,0,0,1.59-2.51c-.61-.68-3.78.34-4.39.8A2.85,2.85,0,0,0,117,35.62C117,36.42,116.3,37.68,118.86,37.91Z" transform="translate(-4.39 -8.3)"/><path class="cls-3" d="M115,15.65,127,14.4a5.26,5.26,0,0,0-2-1.83C124,12.11,116.06,15.08,115,15.65Z" transform="translate(-4.39 -8.3)"/><path class="cls-3" d="M115,44.18c2,.46,2.81-3.08,3.29-3.77A5,5,0,0,0,117,39c-.85-.69-2.2,1-2.81,2.05S113,43.73,115,44.18Z" transform="translate(-4.39 -8.3)"/><path class="cls-3" d="M126.31,25.7c1.1-.23.24-1,.24-1.71s1.22-1.48,1.46-2.17-1.46-.57-6.22-.57-12.08,2.63-12.08,2.63C114.47,23.07,125.21,25.92,126.31,25.7Z" transform="translate(-4.39 -8.3)"/><polygon class="cls-3" points="113.86 22.07 110.2 20.02 112.64 18.08 105.08 20.13 106.54 20.47 106.79 21.73 113.86 22.07"/><path class="cls-3" d="M110.81,47.84a2.14,2.14,0,0,0,3-1.26c.49-1-1.59-3.57-1.59-2.4,0,.11-2.44-.11-2.81.34A2.59,2.59,0,0,0,110.81,47.84Z" transform="translate(-4.39 -8.3)"/><path class="cls-3" d="M114.11,35.17c-.37-1,2.32-2.74,2-3.42a37.5,37.5,0,0,0-4.51.46c-1.71.34-2.81,1-2.81,1.71s2.93,3.31,4,3.31A1.46,1.46,0,0,0,114.11,35.17Z" transform="translate(-4.39 -8.3)"/><path class="cls-3" d="M112.76,39.28a28.3,28.3,0,0,0-4-2.28c-1.1-.34-2.32.57-2.93.68s0,1.26.73,1.71,4,2.4,4.64,1.94S111.3,40,112.76,39.28Z" transform="translate(-4.39 -8.3)"/><path class="cls-3" d="M109.71,23.87c-.24,0-.49.23-2.2.68a6.79,6.79,0,0,1-2.44.34,6,6,0,0,0,4.64,1.71C111.18,26.38,110,23.87,109.71,23.87Z" transform="translate(-4.39 -8.3)"/><path class="cls-3" d="M104,50c.73,1,1.83.57,4.39.23s1.46-.69,1.34-1.37-1.83-1.37-3.29-1.37a12,12,0,0,1-1.71.46A1.25,1.25,0,0,0,104,50Z" transform="translate(-4.39 -8.3)"/><path class="cls-3" d="M107.64,42.82s0-.34-1.22-1.14-4.39-.34-5.37-.23-1.22,1-.49,2.05,4.76,2.63,4.76,1.71S106.91,43.16,107.64,42.82Z" transform="translate(-4.39 -8.3)"/><path class="cls-3" d="M101.05,27.64c-1.46-.34-2.57,1.14-1.83,1.14.12,0,1.34,1.6,2.44,2.05s-1.1,1.71-1.83,2.28-4.39,2.51-3.9,3.54,2.44,1,6.59-1.14,3.29-4.34,2.81-4.68a1.28,1.28,0,0,1-.24-1.71C105.44,28.43,102.52,28,101.05,27.64Z" transform="translate(-4.39 -8.3)"/><path class="cls-3" d="M90.32,44.53c-4.39,0-9,3.31-9,3.31s6.47.11,9,.11,5.61,1.26,7.08,1,.73-1.14,2.2-2.17a4.15,4.15,0,0,1,2.56-.91s0-.11-2-1S94.71,44.53,90.32,44.53Z" transform="translate(-4.39 -8.3)"/><path class="cls-4" d="M68.36,62.62l.25.13,1.87,1.82L88.13,81.75a14.63,14.63,0,0,0,6.34,1.75,4.49,4.49,0,0,0,4.33-2.23l2.92-6.95,0-.08A17.08,17.08,0,0,0,103.37,70a11.16,11.16,0,0,0,.26-3.41,9.6,9.6,0,0,0-4.23-7l-.12-.09L92.75,53l-1.34-.38L76,53.51l-7.87,8.74A.37.37,0,0,0,68.36,62.62Z" transform="translate(-4.39 -8.3)"/><path class="cls-3" d="M70.48,65.79,88.13,83a14.63,14.63,0,0,0,6.34,1.75,4.49,4.49,0,0,0,4.33-2.23l2.92-6.95,0-.08a17.08,17.08,0,0,0,1.61-4.23,11.16,11.16,0,0,0,.26-3.41,9.6,9.6,0,0,0-4.23-7l-.12-.09-6.53-6.59-1.34-.38L76,54.73l-7.92,7.5C68.1,62.37,70.48,65.79,70.48,65.79Z" transform="translate(-4.39 -8.3)"/><path class="cls-5" d="M70.48,64.57,88.13,81.75a14.63,14.63,0,0,0,6.34,1.75,4.49,4.49,0,0,0,4.33-2.23l2.92-6.95,0-.08A17.08,17.08,0,0,0,103.37,70a10,10,0,0,0-4-5.49l-.12-.09-6.53-6.59-1.34-.38L76,58.39Z" transform="translate(-4.39 -8.3)"/><path class="cls-5" d="M115,15.65,127,14.4a5.26,5.26,0,0,0-2-1.83C124,12.11,116.06,15.08,115,15.65Z" transform="translate(-4.39 -8.3)"/><path class="cls-5" d="M123.62,19.87a22.46,22.46,0,0,0,5.25.23l-.73-2.63s-3.78.34-4.76.57S122.16,19.42,123.62,19.87Z" transform="translate(-4.39 -8.3)"/><path class="cls-5" d="M109.71,23.87c4.76-.8,15.49,2.05,16.59,1.83s.24-1,.24-1.71,1.22-1.48,1.46-2.17-1.46-.57-6.22-.57S109.71,23.87,109.71,23.87Z" transform="translate(-4.39 -8.3)"/><path class="cls-5" d="M120.33,28.78c.37.8,1.46,2.63,2.93,2.4s1.1-1.71,1.46-2.17,1.29-1.41.49-1.94C123.13,25.7,120,28,120.33,28.78Z" transform="translate(-4.39 -8.3)"/><polygon class="cls-5" points="105.08 20.13 106.54 20.47 106.79 21.73 113.86 22.07 110.2 20.02 112.64 18.08 105.08 20.13"/><path class="cls-5" d="M95.93,36.65c.49,1,2.44,1,6.59-1.14s3.29-4.34,2.81-4.68a1.28,1.28,0,0,1-.24-1.71c.37-.68-2.56-1.14-4-1.48s-2.57,1.14-1.83,1.14c.12,0,1.34,1.6,2.44,2.05s-1.1,1.71-1.83,2.28S95.44,35.62,95.93,36.65Z" transform="translate(-4.39 -8.3)"/><path class="cls-5" d="M105.08,24.9a6,6,0,0,0,4.64,1.71c1.46-.23.24-2.74,0-2.74s-.49.23-2.2.68A6.79,6.79,0,0,1,105.08,24.9Z" transform="translate(-4.39 -8.3)"/><path class="cls-5" d="M108.74,33.91c0,.68,2.93,3.31,4,3.31a1.46,1.46,0,0,0,1.34-2.05c-.37-1,2.32-2.74,2-3.42a37.5,37.5,0,0,0-4.51.46C109.84,32.54,108.74,33.23,108.74,33.91Z" transform="translate(-4.39 -8.3)"/><path class="cls-5" d="M118.86,37.91c2.56.23,1.46-1.71,2.2-2.63a20.46,20.46,0,0,0,1.59-2.51c-.61-.68-3.78.34-4.39.8A2.85,2.85,0,0,0,117,35.62C117,36.42,116.3,37.68,118.86,37.91Z" transform="translate(-4.39 -8.3)"/><path class="cls-5" d="M115,44.18c2,.46,2.81-3.08,3.29-3.77A5,5,0,0,0,117,39c-.85-.69-2.2,1-2.81,2.05S113,43.73,115,44.18Z" transform="translate(-4.39 -8.3)"/><path class="cls-5" d="M106.54,39.39c.73.46,4,2.4,4.64,1.94s.12-1.37,1.59-2.05a28.3,28.3,0,0,0-4-2.28c-1.1-.34-2.32.57-2.93.68S105.81,38.93,106.54,39.39Z" transform="translate(-4.39 -8.3)"/><path class="cls-5" d="M110.81,47.84a2.14,2.14,0,0,0,3-1.26c.49-1-1.59-3.57-1.59-2.4,0,.11-2.44-.11-2.81.34A2.59,2.59,0,0,0,110.81,47.84Z" transform="translate(-4.39 -8.3)"/><path class="cls-5" d="M100.56,43.5c.73,1,4.76,2.63,4.76,1.71s1.59-2.05,2.32-2.4c0,0,0-.34-1.22-1.14s-4.39-.34-5.37-.23S99.83,42.47,100.56,43.5Z" transform="translate(-4.39 -8.3)"/><path class="cls-5" d="M104,50c.73,1,1.83.57,4.39.23s1.46-.69,1.34-1.37-1.83-1.37-3.29-1.37a12,12,0,0,1-1.71.46A1.25,1.25,0,0,0,104,50Z" transform="translate(-4.39 -8.3)"/><path class="cls-5" d="M81.29,47.84s6.47.11,9,.11,5.61,1.26,7.08,1,.73-1.14,2.2-2.17a4.15,4.15,0,0,1,2.56-.91s0-.11-2-1-5.49-.34-9.88-.34S81.29,47.84,81.29,47.84Z" transform="translate(-4.39 -8.3)"/><path class="cls-2" d="M74.47,55a69.25,69.25,0,0,1,7.77,2.77c1.26.55,2.49,1.17,3.74,1.75a16.16,16.16,0,0,0,3.92,1.16c2.69.51,5.42.87,8.11,1.54a10.64,10.64,0,0,1,2,.68,12,12,0,0,1,1.77,1.14,18.6,18.6,0,0,1,3,2.91l0,0a27.11,27.11,0,0,0-3.19-2.57,11.46,11.46,0,0,0-1.74-1,12.73,12.73,0,0,0-1.9-.6c-2.65-.63-5.37-1.1-8-1.83a30.15,30.15,0,0,1-3.93-1.29c-1.25-.56-2.56-1-3.84-1.48-2.56-1-5.1-2-7.6-3.17Z" transform="translate(-4.39 -8.3)"/><path class="cls-2" d="M89.86,61a8.58,8.58,0,0,0,1.59,4.19A16.59,16.59,0,0,0,93,67a13,13,0,0,0,1.81,1.46c.32.22.65.41,1,.6a3.82,3.82,0,0,0,1,.38L99,70c.75.2,1.5.44,2.24.69.37.12.74.27,1.1.42a2.47,2.47,0,0,1,1,.65l-.06,0a3.29,3.29,0,0,0-1.05-.38l-1.13-.26-2.28-.52c-.76-.19-1.51-.4-2.26-.65a3.68,3.68,0,0,1-1.12-.52,9,9,0,0,1-.93-.75l-1.74-1.58c-.59-.52-1.21-1-1.76-1.58a4.32,4.32,0,0,1-.72-1,5.83,5.83,0,0,1-.4-1.15A7.8,7.8,0,0,1,89.8,61Z" transform="translate(-4.39 -8.3)"/><path class="cls-2" d="M96.56,69.4a19.09,19.09,0,0,1,.23,2.16,7.45,7.45,0,0,1,0,1.12,2.28,2.28,0,0,1-.14.62,1.16,1.16,0,0,1-.22.36,1.48,1.48,0,0,1-.29.22,4.52,4.52,0,0,1-2.27.43,6.31,6.31,0,0,1-2.18-.46,10.15,10.15,0,0,1-1.85-1.18Q89,72,88.14,71.35,86.5,70,84.9,68.62c-1.07-.93-2.12-1.87-3.15-2.83s-2-2-3-3c-2-2-4.13-3.83-6.25-5.7,2.16,1.81,4.32,3.63,6.4,5.53,1.05,1,2,2,3.07,2.91s2.13,1.84,3.22,2.74,2.19,1.77,3.3,2.63a21.27,21.27,0,0,0,3.42,2.31,5.6,5.6,0,0,0,1.94.36,3.88,3.88,0,0,0,1.84-.37.71.71,0,0,0,.13-.1s0,0,0-.1a1.55,1.55,0,0,0,.08-.41,6.63,6.63,0,0,0,0-1,18.35,18.35,0,0,0-.28-2Z" transform="translate(-4.39 -8.3)"/><path class="cls-2" d="M96.4,73.12c.79.95,1.55,1.92,2.26,2.92.35.51.7,1,1,1.55a4.29,4.29,0,0,1,.66,1.71,4.23,4.23,0,0,0-.79-1.63c-.34-.5-.73-1-1.12-1.45-.78-.93-1.61-1.83-2.47-2.7Z" transform="translate(-4.39 -8.3)"/><path class="cls-2" d="M91.84,73.34c-.11,1.79-.2,3.59-.24,5.38q0,1.35,0,2.69a8,8,0,0,0,.32,2.65,8,8,0,0,1-.47-2.64c-.06-.9-.11-1.8-.13-2.7-.06-1.8-.07-3.6-.06-5.4Z" transform="translate(-4.39 -8.3)"/><path class="cls-2" d="M86.09,69.14c-.46,1.49-.92,3-1.35,4.5q-.32,1.13-.61,2.27a10,10,0,0,0-.41,2.3A10,10,0,0,1,84,75.87q.22-1.16.47-2.31.5-2.3,1.06-4.59Z" transform="translate(-4.39 -8.3)"/><path class="cls-2" d="M92.39,56.37s3-.24,2.93.73-.49,2.68-1,2.68,0,.85-2.2-.12-2.56-1.59-2-2.44S92.39,56.37,92.39,56.37Z" transform="translate(-4.39 -8.3)"/><path class="cls-2" d="M97,64.6s3.8-.3,3.65.91-.61,3.34-1.22,3.34,0,1.06-2.73-.15-3.19-2-2.43-3S97,64.6,97,64.6Z" transform="translate(-4.39 -8.3)"/><path class="cls-2" d="M96.49,77s1.93,2.4,1.05,2.85S95,81,94.75,80.61s-.71.48-1.14-1.9-.13-3,.93-3S96.49,77,96.49,77Z" transform="translate(-4.39 -8.3)"/><path class="cls-2" d="M89.26,76.19s-.06,2.94-1,2.73-2.52-.73-2.48-1.19-.82-.08.33-2.09,1.77-2.3,2.52-1.63A3,3,0,0,1,89.26,76.19Z" transform="translate(-4.39 -8.3)"/><path class="cls-2" d="M99.35,72.32s1.52-.12,1.46.36-.24,1.31-.49,1.31,0,.42-1.09-.06-1.28-.78-1-1.19S99.35,72.32,99.35,72.32Z" transform="translate(-4.39 -8.3)"/><path class="cls-6" d="M71.77,53A118.87,118.87,0,0,1,78,35,27.76,27.76,0,0,1,83,26.92a34.84,34.84,0,0,1,3.74-3c1.28-.93,2.59-1.83,3.91-2.7q4-2.61,8.1-5a77.78,77.78,0,0,1,8.48-4.32,17.86,17.86,0,0,1,4.59-1.32c1.57-.25,3.15-.41,4.73-.53,3.16-.22,6.33-.31,9.49-.32-3.16.11-6.32.3-9.46.62s-6.32.62-9.17,2A87.43,87.43,0,0,0,99,16.74q-4.09,2.38-8,5c-1.32.87-2.63,1.75-3.91,2.67a34.4,34.4,0,0,0-3.7,2.9c-2.2,2.18-3.63,5.08-5,7.89S75.87,41,74.78,44,72.68,49.92,71.77,53Z" transform="translate(-4.39 -8.3)"/><path class="cls-6" d="M73.7,51.54a.24.24,0,0,0-.31,0l0,0,0,0,.1-.13.19-.25.39-.5.81-1q.82-1,1.7-1.87a23.81,23.81,0,0,1,3.86-3.29,10.25,10.25,0,0,1,2.3-1.15,21.48,21.48,0,0,1,2.46-.62c1.65-.34,3.31-.59,5-.83s3.31-.48,4.95-.78a17.15,17.15,0,0,0,2.4-.59A8.93,8.93,0,0,0,98.63,40l1.12-.56a34.89,34.89,0,0,0,4.31-2.5,12.27,12.27,0,0,0,1.87-1.61A3.92,3.92,0,0,0,107,33.23v-.06a6.74,6.74,0,0,0,.69-3.11,3,3,0,0,0-.46-1.48,4.3,4.3,0,0,0-1.17-1.06,10.81,10.81,0,0,0-6-2.33,19,19,0,0,0-6.39,1.31,16.91,16.91,0,0,0-5.58,3.37A43.09,43.09,0,0,0,84.06,35c-1.27,1.79-2.49,3.63-3.67,5.48C78.07,44.13,75.85,47.81,73.7,51.54Zm-.3.52.15-.26q3.26-5.74,6.77-11.34c1.17-1.86,2.38-3.71,3.64-5.51A43.2,43.2,0,0,1,88,29.75a17.08,17.08,0,0,1,5.63-3.45,19.25,19.25,0,0,1,6.47-1.37,11.07,11.07,0,0,1,6.15,2.35,4.58,4.58,0,0,1,1.26,1.14,3.29,3.29,0,0,1,.52,1.63,7.06,7.06,0,0,1-.71,3.28l0-.06a4.26,4.26,0,0,1-1.19,2.29,12.63,12.63,0,0,1-1.92,1.67,35.23,35.23,0,0,1-4.35,2.56l-1.12.57a9.39,9.39,0,0,1-1.16.54,17.54,17.54,0,0,1-2.46.63c-1.65.32-3.31.56-5,.82s-3.3.52-4.93.86a21,21,0,0,0-2.4.62,9.73,9.73,0,0,0-2.17,1.1A23.24,23.24,0,0,0,77,48.17q-.86.9-1.66,1.85l-.79,1-.38.49-.19.25-.09.12,0,0-.07.08A.42.42,0,0,1,73.39,52.05Z" transform="translate(-4.39 -8.3)"/><path class="cls-7" d="M95.41,12.61v72.8H93.52l-.16,0-.16,0-.16,0-.44-.06-.14,0h-.07l-.1,0-.39-.08-.48-.11L91.09,85l-.26-.07-.28-.08-.2-.06-.14,0L90,84.64l-.55-.19-.25-.1-.06,0-.25-.1-.2-.08-.1,0L88,83.87l-.27-.13-.26-.13h0l-.23-.12L87,83.34,77.07,73.7l-.1-.1v2.13c0,.05,0,.1,0,.15s0,.1,0,.15,0,.1,0,.15v.15s0,.1,0,.15l0,.13h0l0,.14,0,.13,0,.12,0,.18,0,.14h0l0,.14,0,.14,0,.1,0,.1,0,.1,0,.1-.05.12-.1.22-.05.11-.06.12-.05.09-.12.2,0,.07-.12.17-.07.09-.11.15V16.51A23.46,23.46,0,0,1,79.05,18q.83.44,1.62.94a23.75,23.75,0,0,1,2.26,1.62l.57.48,0,0,.33-.32.35-.33.31-.29.17-.16.32-.29.31-.28.29-.25.22-.19.59-.49.51-.42.19-.15.24-.19.1-.08.27-.21.52-.39.42-.31.39-.28.23-.16.94-.63.26-.17.29-.18.69-.43.67-.4.36-.21,0,0,.32-.18.12-.07.26-.14Q94.32,13.13,95.41,12.61Z" transform="translate(-4.39 -8.3)"/><path class="cls-8" d="M60.66,16.61V79.45l-.11-.15-.07-.09L60.36,79l0-.07-.12-.2-.05-.09-.06-.12L60,78.44l-.1-.22-.05-.12,0-.1,0-.1,0-.1,0-.1,0-.14,0-.14h0l0-.14,0-.18,0-.12,0-.13,0-.14h0l0-.13s0-.1,0-.15v-.15s0-.1,0-.15,0-.1,0-.15,0-.1,0-.15V73.71l-10,9.74-.28.15-.23.12h0l-.26.13-.27.13-.52.23-.1,0-.2.08-.25.1-.06,0-.25.1-.55.19-.24.08-.14,0-.2.06-.28.08-.26.07-.31.08-.48.11-.39.08-.1,0h-.07l-.14,0-.44.06-.16,0-.16,0-.16,0H41V12.71q1.08.52,2.14,1.1l.26.14.12.07.32.18,0,0,.36.21.67.4.69.43.29.18.26.17.94.63.23.16.39.28.42.31.52.39.27.21.1.08.24.19.19.15.51.42.59.49.22.19.29.25.31.28.32.29.17.16.31.29.35.33.16.16.21.21.57-.48A23.75,23.75,0,0,1,55.7,19l-.16-.21.16-.09q.72-.44,1.47-.83l.15.2A23.46,23.46,0,0,1,60.66,16.61Z" transform="translate(-4.39 -8.3)"/><g id="body"><path class="cls-3" d="M77,53.27V75.74c0,.05,0,.1,0,.15s0,.1,0,.15,0,.1,0,.15v.15s0,.1,0,.15l0,.13h0l0,.14,0,.13,0,.12,0,.18,0,.14h0l0,.14,0,.14,0,.1,0,.1,0,.1,0,.1-.05.12-.1.22-.05.11-.06.12-.05.09-.12.2,0,.07-.12.17-.07.09-.11.15-.18.21-.08.09,0,0-.07.08-.18.18-.14.13h0l-.15.13,0,0-.16.13-.1.08c-.15.11-.31.22-.47.32L74,80.8l-.14.08-.11.06-.11.06-.07,0-.22.1-.1,0-.07,0-.11,0-.25.08-.11,0h0l-.13,0-.14,0-.18,0-.13,0-.1,0-.16,0-.17,0H64.23a5.85,5.85,0,0,1-5.84-5.84V53.27a1.1,1.1,0,0,1,0-.12,1.68,1.68,0,0,1,1.67-1.56H75.29A1.68,1.68,0,0,1,77,53.16S77,53.23,77,53.27Z" transform="translate(-4.39 -8.3)"/><path class="cls-9" d="M64.23,80.16a4.43,4.43,0,0,1-4.42-4.42V53.27a.27.27,0,0,1,.27-.27H75.29a.27.27,0,0,1,.27.27V75.74a4.43,4.43,0,0,1-4.42,4.42Z" transform="translate(-4.39 -8.3)"/><path class="cls-10" d="M65.59,78.13c-1.38,0-2.51-1.84-2.51-4.09V53.25c0-.13.07-.25.15-.25h8.63c.08,0,.15.11.15.25V74c0,2.26-1.13,4.09-2.51,4.09Z" transform="translate(-4.39 -8.3)"/><rect class="cls-11" x="54" y="45.5" width="18.57" height="9.11"/></g><g id="butterhead"><path class="cls-3" d="M89.78,30.38v0a6.12,6.12,0,0,0-.4-1.6,14.34,14.34,0,0,0-1.28-2.38l0,0h0q-.41-.65-.86-1.27l-.52-.7-.18-.23a23.73,23.73,0,0,0-3-3.12l-.57-.48a23.75,23.75,0,0,0-2.26-1.62q-.79-.5-1.62-.94a23.65,23.65,0,0,0-10.72-2.72H68a23.59,23.59,0,0,0-10.68,2.54l-.16.08q-.75.39-1.47.83l-.16.09,0,0c-.28.21-.55.42-.82.64h-.15q-.69.48-1.35,1l-.53.44-.11.09a23.67,23.67,0,0,0-3.1,3.23l-.1.12-.52.69q-.5.68-.94,1.4l-.11.18a10.1,10.1,0,0,0-1.07,2.15l-.08.27a5,5,0,0,0-.14.72,8.19,8.19,0,0,0,0,1.47c.14,1.58.5,3.58.5,3.58l.43,2.32L48,40h0l.44,2.4,0,.12.14.79.14.74.18,1,.32,1.75.14.77.07.38.5,2.69.18,1,.25,1.33,0,.14a.72.72,0,0,0,.15.44.73.73,0,0,0,.58.28H85.24a.73.73,0,0,0,.73-.73l0-.16.23-1.26v0h0l.19-1h0v0l0-.1.47-2.53.07-.38.14-.77.34-1.84.16-.88.14-.74.15-.84v-.07l.44-2.4h0l.53-2.89.43-2.32.34-2,0-.22A20.49,20.49,0,0,0,89.78,30.38Z" transform="translate(-4.39 -8.3)"/><path class="cls-9" d="M51.61,53.15,51.4,52l-.18-1L50.65,48l-.14-.77-2.21-12a27,27,0,0,1-.52-4.67,6.58,6.58,0,0,1,1.1-2.62A22.45,22.45,0,0,1,54,22.1c.31-.25.63-.49.95-.72h.21l.36-.29.73-.57A22.41,22.41,0,0,1,87,27.68a8.19,8.19,0,0,1,1.49,3.43,19.71,19.71,0,0,1-.09,2.17l-.33,1.94-1.71,9.25-.5,2.72-.14.78-.56,3,0,.16h0l-.18,1-.2,1.08Z" transform="translate(-4.39 -8.3)"/><ellipse class="cls-12" cx="52.47" cy="42.58" rx="3.27" ry="1.21"/><ellipse class="cls-12" cx="74.99" cy="42.58" rx="3.27" ry="1.21"/><ellipse class="cls-13" cx="63.67" cy="20.39" rx="16.05" ry="12.87"/><ellipse class="cls-10" cx="63.67" cy="19.58" rx="14.68" ry="11.77"/><path class="cls-14" d="M86.45,50.45v.16l0,0h0v0Z" transform="translate(-4.39 -8.3)"/><path class="cls-3" d="M51.73,50.35a7.71,7.71,0,0,1,4.48-13.58l.49,0A7.71,7.71,0,0,1,62,50l-.29.68-.49-.21a10.72,10.72,0,0,0-4.2-.83h-.52a11.19,11.19,0,0,0-3,.53c-.24.09-.46.19-.67.29l-.63.3Z" transform="translate(-4.39 -8.3)"/><path class="cls-15" d="M63.62,42.56a7.18,7.18,0,0,0-14.08,2.35,7.11,7.11,0,0,0,2.54,5l.27.23.32-.15c.23-.11.48-.21.72-.31a11.7,11.7,0,0,1,3.13-.56,11.33,11.33,0,0,1,4.95.86l.09-.2,0,0,.11-.1a7.18,7.18,0,0,0,2-7.12Z" transform="translate(-4.39 -8.3)"/><path class="cls-3" d="M83.45,50.51c-.21-.1-.43-.2-.67-.29a11.19,11.19,0,0,0-3-.55h-.58a10.71,10.71,0,0,0-4.14.81l-.49.21L74.31,50a7.7,7.7,0,0,1,5.36-13.24l.53,0A7.71,7.71,0,0,1,87.36,45a7.63,7.63,0,0,1-2.76,5.39l-.53.44Z" transform="translate(-4.39 -8.3)"/><path class="cls-15" d="M80.17,37.3a7.17,7.17,0,0,0-5.43,12.36l.11.1,0,0,.08.2a11.33,11.33,0,0,1,5-.83,11.69,11.69,0,0,1,3.12.58c.24.1.49.2.72.31l.32.15.27-.22a7.11,7.11,0,0,0,2.57-5A7.18,7.18,0,0,0,80.17,37.3Z" transform="translate(-4.39 -8.3)"/><path class="cls-16" d="M61.61,49.69a7.18,7.18,0,1,0-9.53.25l.27.23.32-.15a10,10,0,0,1,2.62-.83A10.67,10.67,0,0,1,56.45,49a10.12,10.12,0,0,1,4.58.75l.33.14Z" transform="translate(-4.39 -8.3)"/><path class="cls-17" d="M56.2,38.28a6.63,6.63,0,0,1,5,11.45,10.64,10.64,0,0,0-4.82-.79,11.17,11.17,0,0,0-1.22.15,10.54,10.54,0,0,0-2.76.88A6.63,6.63,0,0,1,56.2,38.28Z" transform="translate(-4.39 -8.3)"/><path class="cls-18" d="M50,45.32A6.61,6.61,0,0,0,52.35,50a10.54,10.54,0,0,1,2.76-.88L63,43.15a6.63,6.63,0,0,0-13,2.17Z" transform="translate(-4.39 -8.3)"/><path class="cls-17" d="M50,43.79c1-.27,1.82-.73,1.76-1.14s-.48-.49-1.1-.56a6.45,6.45,0,0,1,5.18-3.81c7.63-.54,9.56,8.25,4.92,11.27a13.77,13.77,0,0,0-6.27-.27c-.56.09-1.71.54-2.24.69A7.14,7.14,0,0,1,50,43.79Z" transform="translate(-4.39 -8.3)"/><path class="cls-19" d="M61.44,49a7.29,7.29,0,0,0,1.24-6.16c-.8-2.68-4.05-4-6.22-3.56-1.62.34-3.53,9.22-2.57,10,.4-.12.81-.22,1.22-.31A15.16,15.16,0,0,1,61.44,49Z" transform="translate(-4.39 -8.3)"/><path class="cls-16" d="M61.46,50a11.71,11.71,0,0,0-9.07.08l-.09-.2a11.68,11.68,0,0,1,4.2-1,11.55,11.55,0,0,1,5,.88Z" transform="translate(-4.39 -8.3)"/><path class="cls-20" d="M54.06,40.59c.22.09-.07.55-.17.77a15.45,15.45,0,0,0-1.26,2.48c-.07.55-.72,2.33-.8,2.77s-.42.24-.42.24A5.45,5.45,0,0,1,51,45.15a3.41,3.41,0,0,1,.79-1.25c.2-.23.71-.81.68-1.24A1.59,1.59,0,0,1,53,41.2C53.53,40.84,53.83,40.5,54.06,40.59Z" transform="translate(-4.39 -8.3)"/><g class="cls-21"><circle class="cls-15" cx="53.71" cy="41.05" r="1.09" transform="translate(-6.88 -4.82) rotate(-3.63)"/></g><g class="cls-22"><circle class="cls-15" cx="53.09" cy="46.75" r="2.28" transform="translate(-7.25 -4.84) rotate(-3.63)"/></g><g class="cls-23"><circle class="cls-15" cx="57.6" cy="46.58" r="0.54" transform="translate(-7.23 -4.56) rotate(-3.63)"/></g><path class="cls-16" d="M74.74,49.66a7.18,7.18,0,1,1,9.53.31l-.27.22L83.68,50a10,10,0,0,0-2.61-.84A10.67,10.67,0,0,0,79.9,49a10.12,10.12,0,0,0-4.58.72L75,49.9Z" transform="translate(-4.39 -8.3)"/><path class="cls-17" d="M80.21,38.28a6.63,6.63,0,0,0-5,11.43A10.64,10.64,0,0,1,80,48.95a11.17,11.17,0,0,1,1.22.15A10.54,10.54,0,0,1,84,50a6.63,6.63,0,0,0-3.79-11.71Z" transform="translate(-4.39 -8.3)"/><path class="cls-18" d="M86.37,45.35A6.61,6.61,0,0,1,84,50a10.54,10.54,0,0,0-2.76-.89l-7.87-6a6.63,6.63,0,0,1,13,2.24Z" transform="translate(-4.39 -8.3)"/><path class="cls-17" d="M86.42,43.83c-1-.27-1.82-.74-1.75-1.15s.48-.49,1.1-.55a6.45,6.45,0,0,0-5.15-3.84c-7.63-.58-9.61,8.2-5,11.24a13.77,13.77,0,0,1,6.27-.23c.56.09,1.71.55,2.24.7a7.14,7.14,0,0,0,2.28-6.16Z" transform="translate(-4.39 -8.3)"/><path class="cls-19" d="M74.91,48.93a7.29,7.29,0,0,1-1.2-6.16c.82-2.68,4.07-4,6.24-3.53,1.62.35,3.48,9.24,2.51,10.06-.4-.12-.81-.23-1.22-.32A15.16,15.16,0,0,0,74.91,48.93Z" transform="translate(-4.39 -8.3)"/><path class="cls-16" d="M74.89,50a11.71,11.71,0,0,1,9.07.13l.09-.2a11.68,11.68,0,0,0-4.2-1,11.55,11.55,0,0,0-5,.85Z" transform="translate(-4.39 -8.3)"/><path class="cls-20" d="M82.34,40.61c-.22.09.07.55.16.77a15.45,15.45,0,0,1,1.24,2.48c.07.55.71,2.34.79,2.78s.42.25.42.25a5.45,5.45,0,0,0,.45-1.71,3.41,3.41,0,0,0-.79-1.25c-.2-.23-.71-.81-.68-1.25a1.59,1.59,0,0,0-.55-1.45C82.87,40.86,82.56,40.51,82.34,40.61Z" transform="translate(-4.39 -8.3)"/><g class="cls-21"><circle class="cls-15" cx="82.69" cy="41.07" r="1.09" transform="matrix(0.07, -1, 1, 0.07, 31.62, 112.42)"/></g><g class="cls-22"><circle class="cls-15" cx="83.27" cy="46.77" r="2.28" transform="translate(26.47 118.31) rotate(-86.04)"/></g><g class="cls-23"><circle class="cls-15" cx="78.77" cy="46.57" r="0.54" transform="translate(22.48 113.63) rotate(-86.04)"/></g><circle class="cls-24" cx="83" cy="47.18" r="1.01" transform="translate(4.7 99.31) rotate(-68.88)"/><circle class="cls-24" cx="70.97" cy="39.28" r="0.96"/><circle class="cls-24" cx="74.65" cy="39.13" r="1.01"/><circle class="cls-24" cx="76.37" cy="39.43" r="1.01"/><circle class="cls-24" cx="77.23" cy="48.16" r="1.01" transform="translate(-16.55 22.76) rotate(-21.12)"/><circle class="cls-24" cx="70.92" cy="40.54" r="0.81"/><path class="cls-25" d="M97.62,42.28a.93.93,0,0,1-1.19-.56l-.21-.55A19.12,19.12,0,0,0,87.3,31.08a17.52,17.52,0,0,0-3.1-1.26c-.44-.13-.88-.24-1.32-.34l-.47-.09h0l-.18,0a15.89,15.89,0,0,0-7.93.66l-.13,0a.93.93,0,0,1-1.05-.32.93.93,0,0,1,.16-1.28.93.93,0,0,1,.27-.15q.64-.23,1.28-.4a17.73,17.73,0,0,1,7.88-.35l.22,0,.53.11q.54.12,1.08.28a19.39,19.39,0,0,1,3.62,1.45A21,21,0,0,1,98,40.55l.21.55A.93.93,0,0,1,97.62,42.28Z" transform="translate(-4.39 -8.3)"/><path class="cls-25" d="M63.79,29.81a.93.93,0,0,1-1.24.43,16.27,16.27,0,0,0-13.16-.43,19.18,19.18,0,0,0-10.25,9.57.93.93,0,1,1-1.67-.81A21,21,0,0,1,48.72,28.07a18.1,18.1,0,0,1,14.65.5A.93.93,0,0,1,63.79,29.81Z" transform="translate(-4.39 -8.3)"/><circle class="cls-24" cx="56.52" cy="39.08" r="0.96"/><circle class="cls-24" cx="52.83" cy="38.93" r="1.01"/><circle class="cls-24" cx="51.12" cy="39.23" r="1.01"/><circle class="cls-24" cx="59.03" cy="47.95" r="1.01" transform="translate(-11.36 77.44) rotate(-68.88)"/><circle class="cls-24" cx="56.57" cy="40.34" r="0.81"/></g><path class="cls-26" d="M131.78,16.6v7.32A30.83,30.83,0,0,1,101,54.66H97.28l3.38,3.42a13.24,13.24,0,0,1,3.51,3.74,11.71,11.71,0,0,1,1,9.47,19.38,19.38,0,0,1-1.57,3.87l-2.93,7-.09.17,0,.05-.1.16-.1.16,0,0-.24.33-.06.08-.06.08-.27.31h0l-.14.14,0,0-.12.12h0l-.12.11-.16.14-.17.13-.16.11-.08.05-.08.05-.07,0-.1.06-.17.1,0,0-.07,0-.05,0-.09,0-.09,0-.07,0-.14.06-.14.06-.12,0-.21.08-.22.07-.09,0-.09,0-.21.06-.11,0h0l-.1,0h0l-.19,0-.24,0h-.11l-.15,0H93.62l-.16,0-.16,0-.16,0-.44-.06-.14,0h-.07l-.1,0L92,85.16l-.48-.11L91.19,85l-.26-.07-.28-.08-.2-.06-.14,0-.24-.08-.55-.19-.25-.1-.06,0-.25-.1-.2-.08-.1,0-.52-.23-.27-.13-.26-.13h0l-.23-.12-.28-.15-10-9.74v2.13c0,.05,0,.1,0,.15s0,.1,0,.15,0,.1,0,.15v.15s0,.1,0,.15l0,.13h0l0,.14,0,.13,0,.12,0,.18,0,.14h0l0,.14,0,.14,0,.1,0,.1,0,.1,0,.1-.05.12-.1.22-.05.11-.06.12-.05.09-.12.2,0,.07-.12.17-.07.09-.11.15-.18.21-.08.09,0,0-.07.08-.18.18-.14.13h0l-.15.13,0,0-.16.13-.1.08c-.15.11-.31.22-.47.32l-.12.07-.14.08-.11.06-.11.06-.07,0-.22.1-.1,0-.07,0-.11,0-.25.08-.11,0h0l-.13,0-.14,0-.18,0-.13,0-.1,0-.16,0-.17,0H68.34V15.23A23.65,23.65,0,0,1,79.05,18q.83.44,1.62.94a23.75,23.75,0,0,1,2.26,1.62l.57.48,0,0,.05,0,.38-.36.35-.33.31-.29.17-.16.32-.29.31-.28.29-.25.22-.19.59-.49.51-.42.19-.15.24-.19.1-.08.27-.21.52-.39.42-.31.39-.28.23-.16.94-.63.26-.17.29-.18.69-.43.67-.4.36-.21,0,0,.32-.18.12-.07.26-.14q1-.55,2-1.05l.1,0q.77-.37,1.56-.71l.35-.15.15-.06.41-.17.07,0,.45-.18.31-.12.08,0,.17-.07.5-.18.37-.13.06,0,.41-.14.17-.06.38-.12.13,0,.44-.14.51-.16.5-.14h0l.52-.14.52-.14.12,0,.39-.1h0l.47-.11h0l.53-.12h0l.5-.11.53-.11.62-.11.45-.08,1.11-.17.51-.07.52-.06h0l1.1-.11.51,0h.1l.45,0h.08l.45,0h.15l.36,0h.2l.51,0h10.1A8.32,8.32,0,0,1,131.78,16.6Z" transform="translate(-4.39 -8.3)"/><path class="cls-27" d="M59.55,58.14c0,1.73,2,3.13,4.55,3.13" transform="translate(-4.39 -8.3)"/><path class="cls-27" d="M59.55,64.3c0,1.73,2,3.13,4.55,3.13" transform="translate(-4.39 -8.3)"/><path class="cls-27" d="M75.71,58.14c0,1.73-2,3.13-4.55,3.13" transform="translate(-4.39 -8.3)"/><path class="cls-28" d="M59.34,58.64c0,1.73,2.1,3.13,4.69,3.13" transform="translate(-4.39 -8.3)"/><path class="cls-28" d="M59.34,64.81c0,1.73,2.1,3.13,4.69,3.13" transform="translate(-4.39 -8.3)"/><path class="cls-28" d="M76,58.64c0,1.73-2.1,3.13-4.69,3.13" transform="translate(-4.39 -8.3)"/><path class="cls-28" d="M76,64.81c0,1.73-2.1,3.13-4.69,3.13" transform="translate(-4.39 -8.3)"/><path class="cls-27" d="M75.71,64.3c0,1.73-2,3.13-4.55,3.13" transform="translate(-4.39 -8.3)"/><path class="cls-27" d="M60.59,77.18c-1.68-.41-3.66,1.75-4.42,4.84" transform="translate(-4.39 -8.3)"/><path class="cls-27" d="M74.66,77.18c1.68-.41,3.66,1.75,4.42,4.84" transform="translate(-4.39 -8.3)"/><rect class="cls-29" x="45.66" y="39.94" width="6.97" height="2.63" rx="0.89" ry="0.89"/><rect class="cls-29" x="74.96" y="40.04" width="7.27" height="2.63" rx="0.89" ry="0.89"/></svg>