<svg xmlns="http://www.w3.org/2000/svg" viewBox="0 0 79.56 77.1"><defs><style>.a{fill:#099;}.b{fill:#00b7b2;}.c{fill:#cecece;}.d{fill:#9b9a9a;}.e{fill:#eae8e8;}.f{fill:#495750;}.g{fill:#ccc;}.h{fill:#e8e8e8;}.i{fill:#249daa;}.j{fill:#1b6d6b;}.k{fill:#2bd0d8;}.l{fill:#2b2b2b;}.m{opacity:0.74;}.n{fill:#efefef;}.o{opacity:0.41;}.p{fill:#f9b9b9;}.q{fill:#fff;}.r{fill:#ff8e78;}.s,.t{fill:#1dcaf2;}.t{opacity:0.3;}.u{fill:#939393;}.v{fill:#1e1e1e;opacity:0.34;}</style></defs><title>choosebear</title><path class="a" d="M68.8,16.81A38.55,38.55,0,1,0,14.28,71.33,38.55,38.55,0,1,0,68.8,16.81ZM41.54,77.22A33.15,33.15,0,1,1,65,67.51,32.93,32.93,0,0,1,41.54,77.22Z" transform="translate(-1 -5.52)"/><path class="a" d="M68.54,17.07a38.18,38.18,0,1,0-54,54,38.18,38.18,0,1,0,54-54Zm-27,60.52a33.52,33.52,0,1,1,23.7-9.82A33.3,33.3,0,0,1,41.54,77.59Z" transform="translate(-1 -5.52)"/><path class="b" d="M67.93,16.82A37.32,37.32,0,1,0,15.15,69.6,37.32,37.32,0,1,0,67.93,16.82Zm-2.08,50.7A34.38,34.38,0,0,1,17.23,18.9,34.38,34.38,0,0,1,65.85,67.52Z" transform="translate(-1 -5.52)"/><path class="c" d="M71.08,42.06,70,41.83l-1.56-.32-2.76-.57h-.08a.82.82,0,0,1-.88-.66l0-.09L60,24.67l0-.17a1,1,0,0,1,.35-.93.94.94,0,0,1,.41-.19l.15,0,.6-.13L67.12,22c7.52-4.33,12.17,2.46,13.23,8v.06C81.4,35.56,78.28,43,71.08,42.06Z" transform="translate(-1 -5.52)"/><path class="d" d="M64.63,37.86l4.44.92a4.65,4.65,0,0,0,4.4-1.69,8.77,8.77,0,0,0,1.6-6.9v-.06c-.69-3.59-2.63-5.95-4.25-6.69-1.35-.62-2.9-.41-4.73.64l-.4.23-4.81,1Z" transform="translate(-1 -5.52)"/><path class="c" d="M20.36,25,18,41.34a.82.82,0,0,1-.85.78L11.92,44C4.93,46,.77,39.09,1,33.54v-.06c.24-5.63,3.86-13,11.93-9.83l6.51.39A1,1,0,0,1,20.36,25Z" transform="translate(-1 -5.52)"/><path class="d" d="M17.69,38.93l-4.26,1.56a4.65,4.65,0,0,1-4.6-1,8.77,8.77,0,0,1-2.58-6.6V32.8c.16-3.65,1.74-6.27,3.24-7.24,1.25-.81,2.81-.83,4.77,0l.42.17,4.9.3Z" transform="translate(-1 -5.52)"/><path class="c" d="M72.44,69.55a2.87,2.87,0,0,1-2.93,2.79H12.82a2.87,2.87,0,0,1-2.93-2.79L12,44l.27-3.32v-.13a2.81,2.81,0,0,1,.12-.82,19.74,19.74,0,0,1,.52-4.32A21.77,21.77,0,0,1,18,25.88q.83-.93,1.76-1.78l.31-.28a27.24,27.24,0,0,1,2.21-1.76,32.29,32.29,0,0,1,18.17-5.8h.69a32.34,32.34,0,0,1,19.1,6q.65.48,1.27,1t.94.82q.42.38.82.78a22.05,22.05,0,0,1,6.15,10.83,19.31,19.31,0,0,1,.35,2.1c0,.35.07.71.09,1.07s0,.75,0,1.13c0,.14,0,.28,0,.42s0,.13,0,.19L70,41.83Z" transform="translate(-1 -5.52)"/><path class="e" d="M70.65,66.75a4.22,4.22,0,0,1-3.06,3.45,4.18,4.18,0,0,1-.66.12H14.74a4.22,4.22,0,0,1-3.09-3.63l.13-1.55,2-25.24v-.1a.54.54,0,0,1,0-.14l.1-.34V39c.06-5.79,2.86-11.25,7.89-15.37A30.36,30.36,0,0,1,41.1,17.08c15,0,27.17,9.91,27.17,22.1,0,.11,0,.22,0,.33v.26s0,0,0,.05v.11l2.2,24.86h0Z" transform="translate(-1 -5.52)"/><path class="d" d="M29.61,63.66a7.44,7.44,0,1,0-9.88.34l.28.23.33-.16A10.36,10.36,0,0,1,23,63.18,11.06,11.06,0,0,1,24.25,63a10.49,10.49,0,0,1,4.75.74l.34.14Z" transform="translate(-1 -5.52)"/><path class="f" d="M23.91,51.86A6.88,6.88,0,0,1,29.14,63.7a11,11,0,0,0-5-.78,11.59,11.59,0,0,0-1.27.16A10.93,10.93,0,0,0,20,64a6.88,6.88,0,0,1,3.9-12.15Z" transform="translate(-1 -5.52)"/><path class="g" d="M17.54,59.21A6.85,6.85,0,0,0,20,64a10.93,10.93,0,0,1,2.86-.93L31,56.86a6.88,6.88,0,0,0-13.48,2.35Z" transform="translate(-1 -5.52)"/><path class="h" d="M20.17,62.95a11.91,11.91,0,0,1,2.31-.71L30,56.54a6,6,0,0,0-11.52,2.61A5.91,5.91,0,0,0,20.17,62.95Z" transform="translate(-1 -5.52)"/><path class="i" d="M21.41,58.23c.78-.14,1.33-.47,1.31-.8s-.33-.44-.8-.54a5.19,5.19,0,0,1,9.1,0,6.88,6.88,0,0,1-1.88,6.84,11,11,0,0,0-5-.78,11.59,11.59,0,0,0-1.27.16,5.19,5.19,0,0,1-1.45-4.85Z" transform="translate(-1 -5.52)"/><path class="j" d="M29,62.91a6.21,6.21,0,0,0,1.42-5.79,4.52,4.52,0,0,0-4.23-2.25c-1.29.09-3.71,6.75-3.05,7.49.32,0,.65-.09,1-.11A11.83,11.83,0,0,1,29,62.91Z" transform="translate(-1 -5.52)"/><path class="d" d="M29.45,64a12.15,12.15,0,0,0-9.4.15L20,63.94a12.11,12.11,0,0,1,4.35-1,12,12,0,0,1,5.24.87Z" transform="translate(-1 -5.52)"/><path class="k" d="M24.92,55c.23.1-.07.57-.17.8a16,16,0,0,0-1.29,2.58c-.07.57-.73,2.43-.81,2.88s-.43.26-.43.26a5.66,5.66,0,0,1-.47-1.78,3.53,3.53,0,0,1,.81-1.3c.21-.24.73-.84.7-1.29a1.65,1.65,0,0,1,.57-1.51C24.37,55.22,24.69,54.86,24.92,55Z" transform="translate(-1 -5.52)"/><circle class="l" cx="26.57" cy="59.13" r="3.49" transform="translate(-5.13 -3.48) rotate(-4.07)"/><g class="m"><circle class="n" cx="23.54" cy="59.46" r="1.13" transform="translate(-5.16 -3.7) rotate(-4.07)"/></g><g class="o"><circle class="n" cx="25.42" cy="60.46" r="0.56" transform="translate(-5.22 -3.56) rotate(-4.07)"/></g><ellipse class="p" cx="24.84" cy="66.31" rx="1.69" ry="4.57" transform="translate(-43.63 82.27) rotate(-87.12)"/><path class="d" d="M52.54,63.49a7.44,7.44,0,1,1,9.86.69l-.29.22-.32-.17a10.36,10.36,0,0,0-2.68-1,11.06,11.06,0,0,0-1.2-.2,10.49,10.49,0,0,0-4.77.57l-.34.13Z" transform="translate(-1 -5.52)"/><path class="f" d="M58.66,51.91A6.88,6.88,0,0,0,53,63.55a11,11,0,0,1,5-.6,11.59,11.59,0,0,1,1.26.21,10.93,10.93,0,0,1,2.82,1,6.88,6.88,0,0,0-3.47-12.28Z" transform="translate(-1 -5.52)"/><path class="g" d="M64.76,59.48a6.85,6.85,0,0,1-2.64,4.71,10.93,10.93,0,0,0-2.82-1l-7.93-6.51a6.88,6.88,0,0,1,13.39,2.83Z" transform="translate(-1 -5.52)"/><path class="h" d="M62,63.12a11.91,11.91,0,0,0-2.29-.79l-7.27-6a6,6,0,0,1,11.42,3A5.91,5.91,0,0,1,62,63.12Z" transform="translate(-1 -5.52)"/><path class="i" d="M60.92,58.36c-.77-.17-1.31-.51-1.28-.85s.35-.42.82-.51a5.19,5.19,0,0,0-9.09-.36A6.88,6.88,0,0,0,53,63.55a11,11,0,0,1,5-.6,11.59,11.59,0,0,1,1.26.21,5.19,5.19,0,0,0,1.62-4.8Z" transform="translate(-1 -5.52)"/><path class="j" d="M53.21,62.77A6.21,6.21,0,0,1,52,56.93a4.52,4.52,0,0,1,4.31-2.1c1.29.14,3.47,6.88,2.79,7.59-.32-.06-.65-.11-1-.14A11.83,11.83,0,0,0,53.21,62.77Z" transform="translate(-1 -5.52)"/><path class="d" d="M52.68,63.82a12.15,12.15,0,0,1,9.39.49l.1-.2a12.11,12.11,0,0,0-4.31-1.18,12,12,0,0,0-5.26.69Z" transform="translate(-1 -5.52)"/><path class="k" d="M57.54,55c-.24.09.05.57.14.81a16,16,0,0,1,1.19,2.62c.05.57.65,2.45.71,2.91s.42.27.42.27a5.66,5.66,0,0,0,.53-1.76,3.53,3.53,0,0,0-.77-1.33c-.2-.25-.7-.87-.65-1.32a1.65,1.65,0,0,0-.52-1.53C58.07,55.25,57.77,54.87,57.54,55Z" transform="translate(-1 -5.52)"/><circle class="l" cx="55.74" cy="59.08" r="3.49" transform="translate(-9.93 102.7) rotate(-83.9)"/><g class="m"><circle class="n" cx="58.75" cy="59.51" r="1.13" transform="translate(-7.66 106.09) rotate(-83.9)"/></g><g class="o"><circle class="n" cx="56.84" cy="60.44" r="0.56" transform="translate(-10.3 105.02) rotate(-83.9)"/></g><ellipse class="p" cx="57.76" cy="66.16" rx="1.69" ry="4.57" transform="translate(-15.49 110.57) rotate(-83.52)"/><ellipse class="n" cx="40.29" cy="27.05" rx="18.74" ry="12.35"/><ellipse class="q" cx="40.35" cy="22.52" rx="15.08" ry="7.2"/><path class="r" d="M43,69.38a3.62,3.62,0,0,1-4.37.12l-2.37-1.22a1.73,1.73,0,0,1,1.5-2.6l2.87.74,2.87-.74a1.73,1.73,0,0,1,1.5,2.6Z" transform="translate(-1 -5.52)"/><path class="q" d="M40.7,68.07a2.73,2.73,0,0,1-1.44-.49l0,0-2-1a.5.5,0,0,1,.07-.23.48.48,0,0,1,.31-.23l3,.77,3-.77a.48.48,0,0,1,.31.23.5.5,0,0,1,.07.25l-1.64.9,0,0A2.84,2.84,0,0,1,40.7,68.07Z" transform="translate(-1 -5.52)"/><rect class="s" x="56.55" y="56.65" width="8.94" height="3.23" rx="1.05" ry="1.05"/><circle class="t" cx="51.77" cy="55.35" r="1.18"/><circle class="t" cx="59.28" cy="55.78" r="1.24"/><circle class="t" cx="61.26" cy="56.15" r="1.24"/><circle class="t" cx="57.59" cy="61.64" r="1.24" transform="translate(-19.34 19.37) rotate(-21.12)"/><circle class="t" cx="54.31" cy="56.52" r="0.99"/><circle class="t" cx="52.64" cy="56.83" r="0.68"/><rect class="s" x="15.97" y="62.17" width="8.94" height="3.23" rx="1.05" ry="1.05" transform="translate(39.88 122.04) rotate(-180)"/><circle class="t" cx="28.69" cy="55.35" r="1.18"/><circle class="t" cx="21.18" cy="55.78" r="1.24"/><circle class="t" cx="19.19" cy="56.15" r="1.24"/><circle class="t" cx="24.86" cy="61.64" r="1.24" transform="translate(-42.6 57.11) rotate(-68.88)"/><circle class="t" cx="26.14" cy="56.52" r="0.99"/><circle class="t" cx="27.82" cy="56.83" r="0.68"/><path class="e" d="M22.8,48.64c0,2.95,4.38,5.34,9.8,5.34" transform="translate(-1 -5.52)"/><path class="u" d="M23.29,48.64A3.32,3.32,0,0,0,24.35,51a8.18,8.18,0,0,0,2.41,1.63A15.67,15.67,0,0,0,32.6,54a15.91,15.91,0,0,1-6-.87,8.78,8.78,0,0,1-2.73-1.55,4.18,4.18,0,0,1-1.54-2.92Z" transform="translate(-1 -5.52)"/><path class="e" d="M59.9,48.64c0,2.95-4.38,5.34-9.8,5.34" transform="translate(-1 -5.52)"/><path class="u" d="M60.4,48.64a4.18,4.18,0,0,1-1.54,2.92,8.78,8.78,0,0,1-2.73,1.55,15.91,15.91,0,0,1-6,.87,15.67,15.67,0,0,0,5.84-1.32A8.18,8.18,0,0,0,58.34,51a3.32,3.32,0,0,0,1.06-2.38Z" transform="translate(-1 -5.52)"/><path class="v" d="M40.42,72.64V16.26h.69a32.34,32.34,0,0,1,19.1,6q.65.48,1.27,1L67.12,22c7.52-4.33,12.17,2.46,13.23,8v.06c1,5.46-2.08,12.87-9.28,12L70,41.83l2.46,27.73a2.87,2.87,0,0,1-2.93,2.79H55.27" transform="translate(-1 -5.52)"/></svg>