<svg xmlns="http://www.w3.org/2000/svg" viewBox="0 0 80.34 77.1"><defs><style>.a{fill:#099;}.b{fill:#00b7b2;}.c{fill:#232323;}.d{fill:#b2b2b2;}.e{fill:#e5e5e5;}.f{fill:#2b2b2b;}.g{fill:#495750;}.h{fill:#ccc;}.i{fill:#e8e8e8;}.j{fill:#ad6123;}.k{fill:#874616;}.l{fill:#262e26;}.m{fill:#e57929;}.n{opacity:0.74;}.o{fill:#efefef;}.p{opacity:0.41;}.q{fill:#ea8888;}.r{fill:#fff;}.s{fill:#7c7c7c;}.t,.u{fill:#1dcaf2;}.u{opacity:0.3;}.v{fill:#848484;}.w{fill:#191919;opacity:0.34;}</style></defs><title>choosepanda</title><path class="a" d="M68.8,16.81A38.55,38.55,0,1,0,14.28,71.33,38.55,38.55,0,1,0,68.8,16.81ZM41.54,77.22A33.15,33.15,0,1,1,65,67.51,32.93,32.93,0,0,1,41.54,77.22Z" transform="translate(-1.91 -5.52)"/><path class="a" d="M68.54,17.07a38.18,38.18,0,1,0-54,54,38.18,38.18,0,1,0,54-54Zm-27,60.52a33.52,33.52,0,1,1,23.7-9.82A33.3,33.3,0,0,1,41.54,77.59Z" transform="translate(-1.91 -5.52)"/><path class="b" d="M67.93,16.82A37.32,37.32,0,1,0,15.15,69.6,37.32,37.32,0,1,0,67.93,16.82Zm-2.08,50.7A34.38,34.38,0,0,1,17.23,18.9,34.38,34.38,0,0,1,65.85,67.52Z" transform="translate(-1.91 -5.52)"/><path class="c" d="M82.21,37.42v.06c-.38,5.12-4.6,10.92-10.51,9.71a9.21,9.21,0,0,1-1.59-.48l-.06,0-5-2.52a.83.83,0,0,1-.76-.88l-.46-16.59a1,1,0,0,1,1-.89h0l6.56.38C79.88,23.93,82.63,31.76,82.21,37.42Z" transform="translate(-1.91 -5.52)"/><path d="M64.87,40.9,69,43a4.69,4.69,0,0,0,4.73-.49A8.84,8.84,0,0,0,77,36.18v-.06c.27-3.67-1-6.48-2.38-7.62-1.15-1-2.71-1.16-4.77-.61l-.44.12-4.94-.28Z" transform="translate(-1.91 -5.52)"/><path class="c" d="M20.3,26.67l-.44,16.59a.83.83,0,0,1-.76.89l-5,2.52C7.36,49.46,2.38,43.07,2,37.49v-.06c-.43-5.66,2.31-13.49,10.76-11.26l6.56-.38A1,1,0,0,1,20.3,26.67Z" transform="translate(-1.91 -5.52)"/><path d="M19.29,40.89,15.21,43a4.69,4.69,0,0,1-4.73-.48,8.84,8.84,0,0,1-3.37-6.29v-.06c-.28-3.67,1-6.48,2.37-7.63,1.15-1,2.71-1.16,4.77-.62l.45.12,4.94-.29Z" transform="translate(-1.91 -5.52)"/><path class="d" d="M73.76,70.47a2.89,2.89,0,0,1-3,2.81H13.7a2.89,2.89,0,0,1-3-2.81l1.88-23.32.31-3.78.17-2.11a2.83,2.83,0,0,1,.12-.83,20.86,20.86,0,0,1,4.53-12.62,24.54,24.54,0,0,1,1.75-2c5.22-5.41,13.23-8.92,22.25-9h.44c9.19,0,17.38,3.53,22.69,9a24.5,24.5,0,0,1,1.77,2,20.83,20.83,0,0,1,4.52,12.8c0,.14,0,.28,0,.43s0,.13,0,.19l.19,2.1.34,3.82Z" transform="translate(-1.91 -5.52)"/><path class="e" d="M72,67.65a4.25,4.25,0,0,1-3.09,3.48,4.21,4.21,0,0,1-.67.13H15.63a4.25,4.25,0,0,1-3.11-3.66L12.65,66l2-25.43v-.1a.54.54,0,0,1,0-.15l.1-.34v-.35c.06-5.84,2.88-11.34,8-15.49A30.59,30.59,0,0,1,42.19,17.6c15.09,0,27.37,10,27.37,22.26,0,.11,0,.22,0,.33v.26s0,0,0,.05v.11l2.22,25h0Z" transform="translate(-1.91 -5.52)"/><path class="c" d="M31.66,64.24a13.62,13.62,0,0,0-6,.25l-.27.07a14.06,14.06,0,0,0-3.25,1.38c-.26.17-.51.35-.73.52l-.86.67-1-.51a10.13,10.13,0,0,1-5.06-6.24,10.23,10.23,0,1,1,18.36,2.86l-.23,1.18Z" transform="translate(-1.91 -5.52)"/><path class="c" d="M21.8,48.69a9.26,9.26,0,0,0-6.36,11.43A9.16,9.16,0,0,0,20,65.76l.4.21.36-.28c.26-.21.54-.4.82-.58a15.07,15.07,0,0,1,3.79-1.57,14.6,14.6,0,0,1,6.47-.27L31.9,63h-.06l.11-.16A9.25,9.25,0,0,0,21.8,48.69Z" transform="translate(-1.91 -5.52)"/><path class="f" d="M31.39,63.33a7.5,7.5,0,1,0-9.67,2.37l.32.17.29-.23a10.44,10.44,0,0,1,2.49-1.43,11.15,11.15,0,0,1,1.16-.4,10.57,10.57,0,0,1,4.84-.25l.36.07Z" transform="translate(-1.91 -5.52)"/><path class="g" d="M23.33,52.88a6.93,6.93,0,0,1,7.6,10.59,11.12,11.12,0,0,0-5.1.27,11.68,11.68,0,0,0-1.22.42A11,11,0,0,0,22,65.67a6.93,6.93,0,0,1,1.34-12.79Z" transform="translate(-1.91 -5.52)"/><path class="h" d="M18.57,61.45A6.9,6.9,0,0,0,22,65.67a11,11,0,0,1,2.62-1.51l6.75-7.82a6.93,6.93,0,0,0-12.81,5.1Z" transform="translate(-1.91 -5.52)"/><path class="i" d="M21.94,64.59a12,12,0,0,1,2.13-1.18l6.19-7.17a6,6,0,0,0-10.82,5A6,6,0,0,0,21.94,64.59Z" transform="translate(-1.91 -5.52)"/><path class="j" d="M22.19,59.68c.74-.3,1.22-.73,1.12-1.06s-.42-.36-.9-.36a5.22,5.22,0,0,1,9-1.91,6.93,6.93,0,0,1-.44,7.14,11.12,11.12,0,0,0-5.1.27,11.68,11.68,0,0,0-1.22.42,5.23,5.23,0,0,1-2.43-4.49Z" transform="translate(-1.91 -5.52)"/><path class="k" d="M30.61,62.73a6.25,6.25,0,0,0,.2-6,4.56,4.56,0,0,0-4.64-1.35c-1.25.36-2.26,7.42-1.46,8,.31-.12.62-.22.94-.31A11.92,11.92,0,0,1,30.61,62.73Z" transform="translate(-1.91 -5.52)"/><path class="l" d="M31.31,63.69a12.24,12.24,0,0,0-9.24,2.1l-.13-.18A12.2,12.2,0,0,1,26,63.69a12.07,12.07,0,0,1,5.34-.22Z" transform="translate(-1.91 -5.52)"/><path class="m" d="M25,55.72c.25,0,0,.58,0,.83a16.14,16.14,0,0,0-.74,2.81c0,.58-.22,2.54-.2,3s-.37.34-.37.34a5.7,5.7,0,0,1-.83-1.65,3.56,3.56,0,0,1,.53-1.45c.16-.28.55-1,.42-1.42A1.67,1.67,0,0,1,24,56.58C24.49,56.1,24.72,55.68,25,55.72Z" transform="translate(-1.91 -5.52)"/><circle class="f" cx="27.46" cy="59.5" r="3.52" transform="translate(-17.16 4.29) rotate(-15.9)"/><g class="n"><circle class="o" cx="24.54" cy="60.45" r="1.14" transform="translate(-17.53 3.52) rotate(-15.9)"/></g><g class="p"><circle class="o" cx="26.6" cy="61.05" r="0.57" transform="translate(-17.62 4.11) rotate(-15.9)"/></g><ellipse class="q" cx="27.23" cy="66.93" rx="4.6" ry="1.7" transform="translate(-12 -0.46) rotate(-8.96)"/><path class="c" d="M52.9,64.38a13.62,13.62,0,0,1,6,.15l.27.07a14.06,14.06,0,0,1,3.27,1.32c.27.17.52.34.74.51l.87.65,1-.52a10.13,10.13,0,0,0,5-6.33,10.23,10.23,0,1,0-18.3,3.17l.25,1.17Z" transform="translate(-1.91 -5.52)"/><path class="c" d="M62.49,48.66A9.26,9.26,0,0,1,69,60a9.16,9.16,0,0,1-4.48,5.72l-.4.22-.36-.27c-.27-.2-.54-.39-.83-.57a15.07,15.07,0,0,0-3.82-1.5,14.6,14.6,0,0,0-6.47-.16l-.06-.27h.06L52.59,63a9.25,9.25,0,0,1,9.91-14.31Z" transform="translate(-1.91 -5.52)"/><path class="f" d="M53.16,63.46a7.5,7.5,0,1,1,9.71,2.21l-.32.18-.29-.22a10.44,10.44,0,0,0-2.51-1.39,11.15,11.15,0,0,0-1.17-.38,10.57,10.57,0,0,0-4.84-.17l-.36.08Z" transform="translate(-1.91 -5.52)"/><path class="g" d="M61,52.88A6.93,6.93,0,0,0,53.61,63.6a11.12,11.12,0,0,1,5.1.18,11.68,11.68,0,0,1,1.22.4,11,11,0,0,1,2.65,1.46A6.93,6.93,0,0,0,61,52.88Z" transform="translate(-1.91 -5.52)"/><path class="h" d="M65.95,61.36a6.9,6.9,0,0,1-3.35,4.28,11,11,0,0,0-2.65-1.46l-6.89-7.71a6.93,6.93,0,0,1,12.89,4.88Z" transform="translate(-1.91 -5.52)"/><path class="i" d="M62.63,64.56a12,12,0,0,0-2.15-1.14l-6.31-7.06a6,6,0,0,1,10.9,4.77A6,6,0,0,1,62.63,64.56Z" transform="translate(-1.91 -5.52)"/><path class="j" d="M62.29,59.65c-.74-.29-1.23-.71-1.14-1s.41-.37.9-.38a5.22,5.22,0,0,0-9-1.76,6.93,6.93,0,0,0,.56,7.13,11.12,11.12,0,0,1,5.1.18,11.68,11.68,0,0,1,1.22.4,5.23,5.23,0,0,0,2.35-4.53Z" transform="translate(-1.91 -5.52)"/><path class="k" d="M53.93,62.85a6.25,6.25,0,0,1-.3-6,4.56,4.56,0,0,1,4.61-1.42c1.26.34,2.39,7.38,1.6,8-.31-.11-.63-.21-.95-.29A11.92,11.92,0,0,0,53.93,62.85Z" transform="translate(-1.91 -5.52)"/><path class="l" d="M53.25,63.82a12.24,12.24,0,0,1,9.28,1.94l.13-.19a12.2,12.2,0,0,0-4.11-1.84,12.07,12.07,0,0,0-5.35-.13Z" transform="translate(-1.91 -5.52)"/><path class="m" d="M59.45,55.75c-.25.05,0,.58,0,.83a16.14,16.14,0,0,1,.78,2.79c0,.58.26,2.54.26,3s.38.34.38.34a5.7,5.7,0,0,0,.8-1.67,3.56,3.56,0,0,0-.56-1.44c-.16-.28-.56-1-.45-1.41a1.67,1.67,0,0,0-.28-1.6C59.94,56.11,59.7,55.7,59.45,55.75Z" transform="translate(-1.91 -5.52)"/><circle class="f" cx="57.02" cy="59.57" r="3.52" transform="translate(-17.13 93.8) rotate(-75.08)"/><g class="n"><circle class="o" cx="59.95" cy="60.47" r="1.14" transform="translate(-15.82 97.31) rotate(-75.08)"/></g><g class="p"><circle class="o" cx="57.91" cy="61.1" r="0.57" transform="matrix(0.26, -0.97, 0.97, 0.26, -17.95, 95.79)"/></g><ellipse class="q" cx="57.94" cy="66.93" rx="1.7" ry="4.6" transform="translate(-23.82 99.64) rotate(-74.7)"/><ellipse class="o" cx="40.47" cy="27.69" rx="18.88" ry="12.44"/><ellipse class="r" cx="40.53" cy="23.13" rx="15.19" ry="7.25"/><path class="c" d="M44.08,70.3a3.64,3.64,0,0,1-4.4.13L37.29,69.2a1.75,1.75,0,0,1,1.51-2.62l2.89.75,2.89-.75a1.75,1.75,0,0,1,1.51,2.62Z" transform="translate(-1.91 -5.52)"/><path class="s" d="M41.79,69a2.75,2.75,0,0,1-1.45-.49l0,0-2-1a.51.51,0,0,1,.07-.24.48.48,0,0,1,.32-.24l3,.78,3-.78a.48.48,0,0,1,.32.24.5.5,0,0,1,.07.25l-1.65.9,0,0A2.87,2.87,0,0,1,41.79,69Z" transform="translate(-1.91 -5.52)"/><rect class="t" x="54.85" y="58.39" width="9" height="3.25" rx="0.95" ry="0.95"/><circle class="u" cx="51.66" cy="55.2" r="1.19"/><circle class="u" cx="56.72" cy="57.14" r="1.25"/><circle class="u" cx="59.73" cy="56.76" r="1.25"/><circle class="u" cx="56.34" cy="62.04" r="1.25" transform="translate(-20.48 18.95) rotate(-21.12)"/><circle class="u" cx="51.97" cy="56.89" r="1"/><rect class="t" x="18.62" y="63.91" width="9" height="3.25" rx="0.95" ry="0.95" transform="translate(44.34 125.55) rotate(-180)"/><circle class="u" cx="28.91" cy="55.2" r="1.19"/><circle class="u" cx="23.84" cy="57.14" r="1.25"/><circle class="u" cx="20.84" cy="56.76" r="1.25"/><circle class="u" cx="28.04" cy="62.04" r="1.25" transform="translate(-41.85 60.33) rotate(-68.88)"/><circle class="u" cx="28.59" cy="56.89" r="1"/><path class="v" d="M28.4,45.27a1.85,1.85,0,0,0,.33.76,2.76,2.76,0,0,0,.67.64,5.46,5.46,0,0,0,1.89.78,9.21,9.21,0,0,0,2.14.21,11.87,11.87,0,0,0,2.18-.23,12,12,0,0,1-2.15.54,9.68,9.68,0,0,1-2.25.09,6.23,6.23,0,0,1-2.27-.59,3.79,3.79,0,0,1-1-.74,3,3,0,0,1-.71-1.15h0a.63.63,0,0,1,1.18-.41Z" transform="translate(-1.91 -5.52)"/><path class="v" d="M55.39,45.87a1.85,1.85,0,0,1-.36.75,2.76,2.76,0,0,1-.7.62,5.46,5.46,0,0,1-1.91.72,9.21,9.21,0,0,1-2.14.14,11.87,11.87,0,0,1-2.17-.3,12,12,0,0,0,2.13.62,9.68,9.68,0,0,0,2.25.17,6.23,6.23,0,0,0,2.29-.51,3.79,3.79,0,0,0,1.05-.7,3,3,0,0,0,.75-1.13h0a.63.63,0,0,0-1.17-.45Z" transform="translate(-1.91 -5.52)"/><path class="w" d="M41.53,73.42l.22-56.64h.44c9.19,0,17.38,3.53,22.69,9l6.56.38c8.45-2.24,11.2,5.59,10.77,11.25v.06c-.38,5.12-4.6,10.92-10.51,9.71l2.07,23.29a2.89,2.89,0,0,1-3,2.81H56.46" transform="translate(-1.91 -5.52)"/></svg>