<svg xmlns="http://www.w3.org/2000/svg" viewBox="0 0 45 45"><defs><style>.cls-1{fill:#3d240e;}.cls-2{fill:#a67c52;}.cls-3{fill:#c69c6d;}.cls-4{fill:#8c6239;}.cls-5{fill:#fff;}.cls-6{fill:#e6e6e6;}.cls-7{fill:#39b54a;}.cls-8{fill:#754c24;}.cls-9{fill:#009245;}.cls-10,.cls-11{fill:none;stroke:#fff;}.cls-10,.cls-11,.cls-12{stroke-miterlimit:10;}.cls-10{opacity:0.56;}.cls-12{fill:#f9f9f9;stroke:#f9f9f9;stroke-width:0.25px;}</style></defs><title>fdeer</title><g id="Layer_2" data-name="Layer 2"><g id="Layer_1-2" data-name="Layer 1"><path class="cls-1" d="M11.27,12.58s5.74-1,6.89,2.35c1.32,1.78.86,2.3.86,2.3l-2.24-.8A5.82,5.82,0,0,1,11.27,12.58Z"/><path class="cls-1" d="M35,12.81s-5.74-1-6.89,2.35c-1.32,1.78-.86,2.3-.86,2.3l2.24-.8A5.82,5.82,0,0,0,35,12.81Z"/><path class="cls-1" d="M23.21,12.64a8.11,8.11,0,0,0-7.35,6.6,14.8,14.8,0,0,0-.52,5.8c-.75.86-4.48,5.51.4,8.38s12.46,3.21,15.79-.57.63-6.77-.52-7.64a14.46,14.46,0,0,0-.29-5.74C29.93,16.6,26.89,12.69,23.21,12.64Z"/><path class="cls-1" d="M27.63,25.78c0,1.22-1.55,2.3-4.13,2.3s-4.68-1-4.68-2.21,1.81-2.5,4.39-2.5S27.63,24.56,27.63,25.78Z"/><ellipse class="cls-1" cx="20.28" cy="19.35" rx="0.92" ry="1.84"/><ellipse class="cls-1" cx="26.2" cy="19.35" rx="0.92" ry="1.84"/><ellipse class="cls-1" cx="21.43" cy="25.15" rx="1.61" ry="0.8"/><ellipse class="cls-1" cx="26.34" cy="19.81" rx="0.6" ry="1.21"/><ellipse class="cls-1" cx="20.39" cy="19.81" rx="0.6" ry="1.21"/><ellipse class="cls-1" cx="20.51" cy="20.27" rx="0.37" ry="0.75"/><ellipse class="cls-1" cx="26.42" cy="20.27" rx="0.37" ry="0.75"/><path class="cls-1" d="M35,12.81s-5.74-1-6.89,2.35c-1.32,1.78-.86,2.3-.86,2.3l2.24-.8A5.82,5.82,0,0,0,35,12.81Z"/><path class="cls-1" d="M24.1,35.63c3,0,5.71-.87,7.39-2.78,3.33-3.79.63-6.77-.52-7.64a14.46,14.46,0,0,0-.29-5.74c-.8-2.87-3.85-6.77-7.52-6.83"/><path class="cls-1" d="M23.63,23.33c2.36.12,4,1.25,4,2.4S26.2,27.94,23.8,28"/><ellipse class="cls-1" cx="26.15" cy="19.35" rx="0.92" ry="1.84"/><ellipse class="cls-1" cx="26.3" cy="19.81" rx="0.6" ry="1.21"/><ellipse class="cls-1" cx="26.38" cy="20.27" rx="0.37" ry="0.75"/><path class="cls-2" d="M10.77,12.58s5.74-1,6.89,2.35c1.32,1.78.86,2.3.86,2.3l-2.24-.8A5.82,5.82,0,0,1,10.77,12.58Z"/><path class="cls-2" d="M34.5,12.81s-5.74-1-6.89,2.35c-1.32,1.78-.86,2.3-.86,2.3l2.24-.8A5.82,5.82,0,0,0,34.5,12.81Z"/><path class="cls-3" d="M22.71,12.64a8.11,8.11,0,0,0-7.35,6.6,14.8,14.8,0,0,0-.52,5.8c-.75.86-4.48,5.51.4,8.38S27.71,36.63,31,32.84s.63-6.77-.52-7.64a14.46,14.46,0,0,0-.29-5.74C29.43,16.6,26.39,12.69,22.71,12.64Z"/><path class="cls-4" d="M27.13,25.78c0,1.22-1.55,2.3-4.13,2.3s-4.68-1-4.68-2.21,1.81-2.5,4.39-2.5S27.13,24.56,27.13,25.78Z"/><ellipse class="cls-5" cx="19.78" cy="19.35" rx="0.92" ry="1.84"/><ellipse class="cls-5" cx="25.7" cy="19.35" rx="0.92" ry="1.84"/><ellipse class="cls-6" cx="20.93" cy="25.15" rx="1.61" ry="0.8"/><ellipse class="cls-7" cx="25.84" cy="19.81" rx="0.6" ry="1.21"/><ellipse class="cls-7" cx="19.89" cy="19.81" rx="0.6" ry="1.21"/><ellipse cx="20.01" cy="20.27" rx="0.37" ry="0.75"/><ellipse cx="25.92" cy="20.27" rx="0.37" ry="0.75"/><path class="cls-8" d="M34.46,12.81s-5.74-1-6.89,2.35c-1.32,1.78-.86,2.3-.86,2.3l2.24-.8A5.82,5.82,0,0,0,34.46,12.81Z"/><path class="cls-2" d="M23.6,35.63c3,0,5.71-.87,7.39-2.78,3.33-3.79.63-6.77-.52-7.64a14.46,14.46,0,0,0-.29-5.74c-.8-2.87-3.85-6.77-7.52-6.83"/><path class="cls-8" d="M23.13,23.33c2.36.12,4,1.25,4,2.4S25.7,27.94,23.3,28"/><ellipse class="cls-5" cx="25.65" cy="19.35" rx="0.92" ry="1.84"/><ellipse class="cls-9" cx="25.8" cy="19.81" rx="0.6" ry="1.21"/><ellipse cx="25.88" cy="20.27" rx="0.37" ry="0.75"/><path class="cls-10" d="M22.5,44.5a22,22,0,1,1,22-22A22,22,0,0,1,22.5,44.5Z"/><circle class="cls-11" cx="22.5" cy="22.5" r="19"/><path class="cls-12" d="M33.52,12.78l-.46.23-.23-.46a.18.18,0,0,0-.32.16l.23.46-.46.23a.18.18,0,1,0,.16.32l.46-.23.23.46a.18.18,0,0,0,.32-.16l-.23-.46.46-.23a.18.18,0,1,0-.16-.32Z"/><path class="cls-12" d="M24.48,38.26l-.79.1-.1-.79a.27.27,0,0,0-.54.07l.1.79-.79.1a.27.27,0,1,0,.07.54l.79-.1.1.79a.27.27,0,0,0,.54-.07l-.1-.79.79-.1a.27.27,0,1,0-.07-.54Z"/><path class="cls-12" d="M13.48,9.26l-.79.1-.1-.79a.27.27,0,0,0-.54.07l.1.79-.79.1a.27.27,0,1,0,.07.54l.79-.1.1.79a.27.27,0,0,0,.54-.07l-.1-.79.79-.1a.27.27,0,1,0-.07-.54Z"/><path class="cls-12" d="M37.56,30.44a3.37,3.37,0,0,0-2.5-2.5,2.94,2.94,0,0,0,2.5-2.5,3.14,3.14,0,0,0,2.5,2.5C38.5,28.31,37.56,29.07,37.56,30.44Z"/><path class="cls-12" d="M10.56,32.44c-.46-2.1-1.9-3.6-4.44-4.44,2.36-.28,3.75-1.88,4.44-4.44A5.58,5.58,0,0,0,15,28C12.23,28.65,10.56,30,10.56,32.44Z"/></g></g></svg>