<svg xmlns="http://www.w3.org/2000/svg" xmlns:xlink="http://www.w3.org/1999/xlink" viewBox="0 0 309.67 501.13"><defs><style>.a{fill:#784418;}.b{fill:#efefef;}.c{fill:#a8a8a8;}.d{fill:#b5b5b5;}.e{fill:#c6c6c6;}.f{fill:#d3d3d3;}.g{fill:#ddd;}.h{fill:#cecece;}.i{fill:#eae8e8;}.j{opacity:0.35;fill:url(#a);}.al,.am,.an,.ap,.aq,.at,.bf,.bo,.bt,.bu,.bv,.bw,.cb,.cc,.cd,.ce,.j{isolation:isolate;}.k{fill:#e5e5e5;}.l{fill:#9b9a9a;}.m{fill:#495750;}.n{fill:#ccc;}.o{fill:#e8e8e8;}.p{fill:#249daa;}.q{fill:#1b6d6b;}.r{fill:#2bd0d8;}.s{fill:#2b2b2b;}.t{opacity:0.74;}.u{opacity:0.41;}.v{fill:#f9b9b9;}.w{fill:#eaeaea;}.x{fill:#a3a3a3;}.y{fill:#c1bfbf;}.z{fill:#492812;}.aa{fill:#86502a;}.ab{fill:none;}.ac{fill:#b87f50;}.ad{fill:#5d3b20;}.ae{fill:#683f29;}.af{fill:#5c2f0b;}.ag{fill:url(#b);}.ah{opacity:0.76;}.ai{fill:url(#c);}.aj{opacity:0.7;}.ak{fill:url(#d);}.al{fill:#212121;opacity:0.43;}.am,.at,.bf,.bo{opacity:0.56;}.am{font-size:33.54px;fill:#1e0404;}.am,.ap,.aq{font-family:GROBOLD, GROBOLD;}.ao{fill:#f4f2f2;}.ap{font-size:20.84px;}.ap,.as{fill:#13bc13;}.aq{font-size:19.67px;}.aq,.ar{fill:#d31616;}.at,.au,.av,.bf,.bg,.bh,.bo,.bp,.bq{fill:#d1d3d4;stroke-miterlimit:10;}.at,.au,.bf,.bg,.bo,.bp{stroke:#fff;}.at,.au{stroke-width:2.15px;}.av,.bh,.bq{stroke:#f9f9f9;}.av{stroke-width:0.53px;}.aw{fill:#3d240e;}.ax,.bu{fill:#a67c52;}.ay{fill:#c69c6d;}.az,.bv{fill:#8c6239;}.ba{fill:#fff;}.bb{fill:#e6e6e6;}.bc{fill:#39b54a;}.bd{fill:#754c24;}.be{fill:#009245;}.bf,.bg{stroke-width:2.18px;}.bh{stroke-width:0.55px;}.bi{fill:#183008;}.bj{fill:#9e0404;}.bk{fill:#244924;}.bl{fill:#2a562c;}.bm{fill:#ba3842;}.bn{fill:#b23040;}.bo,.bp{stroke-width:2.19px;}.bq{stroke-width:0.55px;}.br,.bw{fill:#42210b;}.bs,.bt{fill:#603813;}.bt,.bu,.bv,.bw,.cb,.cc,.cd,.ce{opacity:0.5;}.bx{opacity:0.4;}.by{fill:#301709;}.bz{fill:#512d10;}.ca{fill:#56351a;}.cb{fill:#936c4a;}.cc{fill:#775132;}.cd{fill:#472910;}.ce{fill:#2b1407;}</style><linearGradient id="a" x1="121.46" y1="564.15" x2="121.46" y2="572.24" gradientTransform="matrix(0.96, -0.26, -0.26, -0.96, 190.85, 642.11)" gradientUnits="userSpaceOnUse"><stop offset="0" stop-opacity="0"/><stop offset="1"/></linearGradient><radialGradient id="b" cx="189.04" cy="310.04" r="29.84" gradientTransform="matrix(1, 0, 0, -1, -12.23, 387.66)" gradientUnits="userSpaceOnUse"><stop offset="0" stop-color="#b87f50" stop-opacity="0.3"/><stop offset="0.22" stop-color="#caa687" stop-opacity="0.17"/><stop offset="0.46" stop-color="#d8c5b2" stop-opacity="0.08"/><stop offset="0.71" stop-color="#e0d7cc" stop-opacity="0.02"/><stop offset="1" stop-color="#e3ddd4" stop-opacity="0"/></radialGradient><radialGradient id="c" cx="713.12" cy="283.53" r="29.87" gradientTransform="translate(823.7 387.66) rotate(180)" xlink:href="#b"/><linearGradient id="d" x1="224.52" y1="279.55" x2="250.98" y2="279.55" gradientTransform="matrix(1, 0, 0, -1, -12.23, 387.66)" xlink:href="#b"/></defs><title>FinalTutorial1Mobile</title><rect class="a" y="89.91" width="309.67" height="411.22"/><rect class="b" x="3.42" y="95.45" width="302.84" height="399.59"/><path class="c" d="M165.67,74.29l-1.76,19a2.31,2.31,0,0,1-2.48,2.08c-12.06.32-22.84-2.4-31.14-8.94a10.37,10.37,0,0,1-2.08-2.48l.64-7a2.31,2.31,0,0,1,2.48-2.08c10.46,1.36,21.56,1.44,32.26-3A2.23,2.23,0,0,1,165.67,74.29Z" transform="translate(-0.33 -4.87)"/><path class="d" d="M179,69.89,174.3,65a1.45,1.45,0,0,1,0-2.16h0l1.12-1a6.19,6.19,0,0,1,8.78.08h0l5,5a.68.68,0,0,1,0,1h0l-2.08,2a5.76,5.76,0,0,1-8.06-.08Z" transform="translate(-0.33 -4.87)"/><path class="e" d="M162,91.85c-.08,0-.16.08-.24.08l-.24-.08-.4.24c-11.42,1.12-22-1-29.7-7.11a12.27,12.27,0,0,1-1.36-1.52L130.7,77a.38.38,0,0,1,.4-.4h.16c14.21,1.84,22.36.24,27.31-1.12,1.76-.48,3.51-1.12,5.27-1.76a.61.61,0,0,1,.16.4l-1.52,17.33C162.4,91.69,162.16,91.77,162,91.85Z" transform="translate(-0.33 -4.87)"/><path class="f" d="M179.25,68.14a5.54,5.54,0,0,0,7.83.08l.8-.8-3.59-3.75a6.07,6.07,0,0,0-8.62-.08.45.45,0,0,0,0,.72Z" transform="translate(-0.33 -4.87)"/><path class="d" d="M136.29,81.07,138,74.21a6.18,6.18,0,0,1,7.51-4.55h0l1.52.4a1.53,1.53,0,0,1,1.12,1.84h0l-1.6,6.55a5.69,5.69,0,0,1-6.87,4.15L136.85,82a.74.74,0,0,1-.56-.88Z" transform="translate(-0.33 -4.87)"/><path class="g" d="M145.47,77a5.58,5.58,0,0,1-6.71,4.07l-1.12-.24,1.28-5.11a6.1,6.1,0,0,1,7.35-4.47.55.55,0,0,1,.4.64Z" transform="translate(-0.33 -4.87)"/><path class="h" d="M148.27,89.62l-.4-2.87-.8-5.35-.32-2h0l-.16-1-.4-2.71-.08-.32-.16-.8v-.08l-.64-4.15-.8-5.19-.32-2-.08-.56a.29.29,0,0,0-.08-.24.11.11,0,0,1,0-.16v-.32a2.89,2.89,0,0,1,.8-1.84,3,3,0,0,1,1.2-.72l22.44-6.15a2,2,0,0,1,1.36,0,2.18,2.18,0,0,1,1,.56,2.15,2.15,0,0,1,.56.64.61.61,0,0,1,.16.32v.08a.28.28,0,0,0,.08.16c0,.08.08.16.08.24l.16.48.72,1.84,1.68,4.15.16.4.08.24,2.87,7.19h0l.32.72v.08l3,7.27,1.12,2.71C185.56,92.89,151.7,102.15,148.27,89.62Z" transform="translate(-0.33 -4.87)"/><path class="i" d="M150.58,90.57l-4.07-26.83a.72.72,0,0,0-.08-.4.74.74,0,0,1,.56-.88l22.44-6.15a.75.75,0,0,1,.88.48c0,.16.08.24.16.4L180.6,82.35C182.2,88.26,152.18,96.48,150.58,90.57Z" transform="translate(-0.33 -4.87)"/><path class="b" d="M166.15,87.94a38.24,38.24,0,0,1-8.54,1.44l-4.07-23.16,12.38-3.35,8.3,22A36.65,36.65,0,0,1,166.15,87.94Z" transform="translate(-0.33 -4.87)"/><path class="c" d="M114.73,93.29l2.08-9.5a8.52,8.52,0,0,1,10.14-6.55h0l2.08.48a2.09,2.09,0,0,1,1.6,2.48h0l-2,9.1a7.82,7.82,0,0,1-9.26,6h0l-3.91-.8a1,1,0,0,1-.8-1.2h.08Z" transform="translate(-0.33 -4.87)"/><path class="f" d="M127.18,87.46a7.58,7.58,0,0,1-9,5.75l-1.52-.32,1.52-7a8.4,8.4,0,0,1,10-6.47.74.74,0,0,1,.56.88Z" transform="translate(-0.33 -4.87)"/><path class="c" d="M132.45,71.65l-2,9.1a2.09,2.09,0,0,1-2.48,1.6h0l-2.08-.48a8.52,8.52,0,0,1-6.55-10.14h0l2.08-9.5a1,1,0,0,1,1.2-.8h0l3.83.8a7.72,7.72,0,0,1,6,9.26Z" transform="translate(-0.33 -4.87)"/><path class="f" d="M130.3,72.77a7.63,7.63,0,0,0-5.83-9L123,63.43l-1.44,7a8.35,8.35,0,0,0,6.39,10,.74.74,0,0,0,.88-.56Z" transform="translate(-0.33 -4.87)"/><path class="j" d="M174.7,61.91,145.23,70l-1-6.79v-.72a5.09,5.09,0,0,1-.16-.56l27.63-7.59a5.09,5.09,0,0,1,.16.56c.08.16.08.24.16.4a.29.29,0,0,1,.08.24Z" transform="translate(-0.33 -4.87)"/><path class="h" d="M183.4,48.81a2.76,2.76,0,0,1-2,3.35L135.81,64.62a2.73,2.73,0,0,1-3.43-1.84l-8.94-26.67a2.72,2.72,0,0,1-.08-.8,24.89,24.89,0,0,1-.64-4.15h0a21.91,21.91,0,0,1,3.75-12.7,22.61,22.61,0,0,1,1.6-2.24,30.73,30.73,0,0,1,15.41-10h.08l.64-.16a31,31,0,0,1,19.4.72c.88.32,1.68.64,2.56,1a21.79,21.79,0,0,1,9.5,9.1,16.58,16.58,0,0,1,1.52,3.91c0,.16.08.24.08.4s0,.08.08.16Z" transform="translate(-0.33 -4.87)"/><path class="h" d="M136.29,60.47a7.28,7.28,0,1,1,5.11-8.94h0A7.31,7.31,0,0,1,136.29,60.47Z" transform="translate(-0.33 -4.87)"/><path class="h" d="M178.13,49.05a7.28,7.28,0,1,1,5.11-8.94h0A7.39,7.39,0,0,1,178.13,49.05Z" transform="translate(-0.33 -4.87)"/><path class="k" d="M181.64,46.66A4.19,4.19,0,0,1,179,51L136.69,62.63A4.17,4.17,0,0,1,132.77,60l-.32-1.52-8.38-23.4v-.56L124,34.2c-1.44-5.51-.16-11.42,3.59-16.61A30.06,30.06,0,0,1,144.27,6.41C158.65,2.5,172.86,8.65,176,20.23l.08.32v.4l4.79,24h0Z" transform="translate(-0.33 -4.87)"/><circle class="k" cx="133.09" cy="54.16" r="6.31" transform="matrix(0.97, -0.26, 0.26, 0.97, -9.86, 31.8)"/><circle class="k" cx="176.23" cy="42.02" r="6.31" transform="translate(-5.18 43.12) rotate(-15.3)"/><path class="l" d="M138.52,55.36a5.08,5.08,0,1,0-6.47,3.11c.16.08.4.08.56.16l.24.08.16-.16a7.28,7.28,0,0,1,1.36-1.36l.72-.48a7.21,7.21,0,0,1,3.11-1h.24Z" transform="translate(-0.33 -4.87)"/><path class="m" d="M131.34,50a4.74,4.74,0,0,1,6.47,1.52,4.67,4.67,0,0,1,.4,4,6.69,6.69,0,0,0-3.27,1.12l-.72.48a6.14,6.14,0,0,0-1.44,1.44A4.67,4.67,0,0,1,129.18,53,4.76,4.76,0,0,1,131.34,50Z" transform="translate(-0.33 -4.87)"/><path class="n" d="M129.82,56.48a4.71,4.71,0,0,0,3,2.16,6.14,6.14,0,0,1,1.44-1.44l3-6.31a4.68,4.68,0,0,0-6.63-.24A4.51,4.51,0,0,0,129.82,56.48Z" transform="translate(-0.33 -4.87)"/><path class="o" d="M132.53,57.92a5.37,5.37,0,0,1,1.2-1.12L136.45,51a4.14,4.14,0,0,0-5.75.48,4.1,4.1,0,0,0-.4,4.71A4.8,4.8,0,0,0,132.53,57.92Z" transform="translate(-0.33 -4.87)"/><path class="p" d="M131.82,54.64c.4-.32.64-.72.56-.88s-.32-.16-.64-.08a3.49,3.49,0,0,1,3.59-3.43,4.1,4.1,0,0,1,1.92.56,4.68,4.68,0,0,1,1,4.71A6.69,6.69,0,0,0,135,56.64l-.72.48a3.39,3.39,0,0,1-2.48-2.48Z" transform="translate(-0.33 -4.87)"/><path class="q" d="M137.88,55.12a4.14,4.14,0,0,0-1-3.91,3,3,0,0,0-3.27,0c-.72.48-.16,5.27.48,5.51.16-.16.4-.24.56-.4A7.78,7.78,0,0,1,137.88,55.12Z" transform="translate(-0.33 -4.87)"/><path class="l" d="M138.52,55.6a8.51,8.51,0,0,0-5.59,3l-.08-.08a9.29,9.29,0,0,1,2.32-2,7.59,7.59,0,0,1,3.43-1.12Z" transform="translate(-0.33 -4.87)"/><path class="r" d="M132.93,51.53c.16,0,.16.4.16.56a8.37,8.37,0,0,0,.08,2c.16.4.32,1.68.4,2s-.16.32-.16.32-.72-.64-.8-1a2.3,2.3,0,0,1,.08-1,2,2,0,0,0,0-1,1.36,1.36,0,0,1-.16-1.12C132.69,51.93,132.69,51.61,132.93,51.53Z" transform="translate(-0.33 -4.87)"/><circle class="s" cx="135.27" cy="53.59" r="2.4" transform="translate(-8.39 73.75) rotate(-31.52)"/><g class="t"><circle class="b" cx="132.75" cy="55.2" r="0.8" transform="translate(-9.63 72.52) rotate(-31.46)"/></g><g class="u"><circle class="b" cx="134.22" cy="55.28" r="0.4" transform="translate(-9.46 73.3) rotate(-31.46)"/></g><ellipse class="v" cx="178.94" cy="48.25" rx="2.16" ry="1.6" transform="translate(-1.89 85.42) rotate(-28.2)"/><ellipse class="v" cx="136.21" cy="59.99" rx="2.16" ry="1.68" transform="matrix(1, -0.04, 0.04, 1, -2.74, 0.91)"/><path class="l" d="M173.42,45.46a5.08,5.08,0,1,1,7.19-.16c-.16.16-.32.24-.4.4l-.16.16-.24-.08a7.15,7.15,0,0,0-1.84-.64,2.72,2.72,0,0,0-.8-.08,7.25,7.25,0,0,0-3.19.48l-.24.08Z" transform="translate(-0.33 -4.87)"/><path class="m" d="M177.33,37.39a4.77,4.77,0,0,0-5,4.31,4.66,4.66,0,0,0,1.44,3.75,8.4,8.4,0,0,1,3.43-.56c.32,0,.56.08.88.08a7.73,7.73,0,0,1,1.92.64A4.77,4.77,0,0,0,180.6,39a4.94,4.94,0,0,0-3.27-1.6Z" transform="translate(-0.33 -4.87)"/><path class="n" d="M181.64,42.42A4.7,4.7,0,0,1,180,45.7a9,9,0,0,0-1.92-.64l-5.59-4.23a4.68,4.68,0,0,1,9.18,1.6Z" transform="translate(-0.33 -4.87)"/><path class="o" d="M179.81,44.9a5.3,5.3,0,0,0-1.6-.48l-5-3.91a4.08,4.08,0,0,1,5.35-2.16,4,4,0,0,1,2.48,4A3.85,3.85,0,0,1,179.81,44.9Z" transform="translate(-0.33 -4.87)"/><path class="p" d="M179,41.71c-.56-.08-.88-.32-.88-.56s.24-.32.56-.4a3.64,3.64,0,0,0-4.79-1.44,3.56,3.56,0,0,0-1.44,1.44,4.57,4.57,0,0,0,1.28,4.63,8.4,8.4,0,0,1,3.43-.56c.32,0,.56.08.88.08a3.07,3.07,0,0,0,1-3.19Z" transform="translate(-0.33 -4.87)"/><path class="q" d="M173.9,44.9a4.14,4.14,0,0,1-1-3.91,3.05,3.05,0,0,1,2.87-1.52c.88.08,2.56,4.63,2.08,5.11-.24,0-.4-.08-.64-.08A6.84,6.84,0,0,0,173.9,44.9Z" transform="translate(-0.33 -4.87)"/><path class="l" d="M173.58,45.62a8.42,8.42,0,0,1,6.39.08l.08-.16a8.55,8.55,0,0,0-6.55-.16Z" transform="translate(-0.33 -4.87)"/><path class="r" d="M176.61,39.47c-.16.08.08.4.08.56a12,12,0,0,1,.88,1.76c.08.4.48,1.68.56,2s.32.16.32.16a6.65,6.65,0,0,0,.32-1.2,2.07,2.07,0,0,0-.56-.88,1.58,1.58,0,0,1-.48-.88,1,1,0,0,0-.4-1C177,39.71,176.85,39.47,176.61,39.47Z" transform="translate(-0.33 -4.87)"/><circle class="s" cx="175.52" cy="42.37" r="2.4" transform="matrix(0.07, -1, 1, 0.07, 120.31, 209.52)"/><g class="t"><circle class="b" cx="177.58" cy="42.58" r="0.8" transform="translate(122.02 211.77) rotate(-85.88)"/></g><g class="u"><circle class="b" cx="176.29" cy="43.26" r="0.4" transform="translate(120.14 211.11) rotate(-85.88)"/></g><ellipse class="h" cx="149.8" cy="26.28" rx="25.31" ry="18.13" transform="translate(-1.96 35.59) rotate(-15.3)"/><ellipse class="g" cx="149.56" cy="25.32" rx="23.48" ry="16.45" transform="translate(-1.72 35.49) rotate(-15.3)"/><ellipse class="w" cx="148.6" cy="21.26" rx="17.81" ry="9.26" transform="translate(-0.68 35.09) rotate(-15.3)"/><path class="x" d="M137.17,57.44c3.51-.16,7-.24,10.46-.64.88-.08,1.68-.24,2.56-.4.24-.08.4-.08.64-.16l.32-.08.32-.08c.4-.16.8-.24,1.2-.4l1.2-.48c.4-.16.8-.32,1.28-.48s.88-.24,1.28-.4a7.48,7.48,0,0,1,1.28-.32,7,7,0,0,1,1.36-.16,6.21,6.21,0,0,0,1.28-.16l1.28-.24c.4-.08.8-.24,1.2-.32,1.6-.56,3.27-1.28,4.87-1.92s3.19-1.36,4.79-2.16c.8-.4,1.6-.72,2.4-1.12a8.73,8.73,0,0,0,1.2-.64c.4-.24.8-.4,1.12-.64A10.45,10.45,0,0,1,175,48.17c-.72.48-1.52.88-2.32,1.36a52.18,52.18,0,0,1-4.71,2.4c-.8.4-1.6.72-2.4,1.12a23,23,0,0,1-2.48,1,7.85,7.85,0,0,1-1.28.4l-1.28.24a7,7,0,0,1-1.28.16A7,7,0,0,0,158,55l-1.28.24c-.48.08-.8.24-1.2.32a7.49,7.49,0,0,0-1.2.48c-.4.16-.8.32-1.28.48l-1.28.4-.32.08-.16.08-.16.08-.64.16c-.88.16-1.76.24-2.64.32-1.76.08-3.51.08-5.27.08S138.92,57.6,137.17,57.44Z" transform="translate(-0.33 -4.87)"/><path class="y" d="M134.29,42.66a25.34,25.34,0,0,0,9.9,3.19,28.18,28.18,0,0,0,5.19.08,29.49,29.49,0,0,0,10-2.64l1.2-.56,1.12-.64,1.12-.64,1-.72a26.82,26.82,0,0,0,7.19-7.51,25.14,25.14,0,0,1-6.79,8A33.1,33.1,0,0,1,159.6,44a27,27,0,0,1-5,1.84,30.26,30.26,0,0,1-5.27.88A30,30,0,0,1,144,46.5,23.64,23.64,0,0,1,134.29,42.66Z" transform="translate(-0.33 -4.87)"/><path class="y" d="M133.49,42.11a24.55,24.55,0,0,0,10.06,2.71,37.2,37.2,0,0,0,5.19-.16,36.21,36.21,0,0,0,5.11-1,36.48,36.48,0,0,0,5-1.76,37,37,0,0,0,4.63-2.48,32.76,32.76,0,0,0,7.91-6.95,28,28,0,0,1-7.51,7.51c-.4.24-.72.48-1.12.72a8.73,8.73,0,0,1-1.2.64l-.56.32-.64.32-.64.32-.64.24a34.22,34.22,0,0,1-5,1.84,30.49,30.49,0,0,1-5.27,1,29.94,29.94,0,0,1-5.35.08,24.62,24.62,0,0,1-5.27-1A17.59,17.59,0,0,1,133.49,42.11Z" transform="translate(-0.33 -4.87)"/><path class="c" d="M134.13,42.58a25,25,0,0,0,4.79,1.92,27.68,27.68,0,0,0,5,.88,27.33,27.33,0,0,0,5.11-.08,27.92,27.92,0,0,0,5-1,31.06,31.06,0,0,0,4.79-1.76,30.4,30.4,0,0,0,4.47-2.48,33,33,0,0,0,7.59-6.95,26.53,26.53,0,0,1-7.19,7.43l-1.12.72-1.12.64-1.12.64-1.2.56a36.88,36.88,0,0,1-5,1.84,28.32,28.32,0,0,1-5.19,1,23.27,23.27,0,0,1-5.27-.08,22.48,22.48,0,0,1-5.11-1.12A19.78,19.78,0,0,1,134.13,42.58Z" transform="translate(-0.33 -4.87)"/><ellipse class="h" cx="154.99" cy="47.22" rx="15.73" ry="1.28" transform="translate(-7.3 37.7) rotate(-15.3)"/><path class="z" d="M257,87.86l-2.71,16.45-3.83-1s-.64,1.76-1,1.92a15,15,0,0,0,0,3.83l-1,3.83s-7.67,20.12-14.37,24l-11.5-9.58c-6.71-3.83-20.12-8.62-24.51-9.26H98.28c-2.24.72-23.56,4.79-23.56,4.79l-3.91-.48L59.23,111.42,57.71,96.24V91.45l-.08-.16c-.4-1.28-3.19-10.22-4.87-14.13l-.4-.8.32-.88c.56-1.6,2.24-6.63,2.24-6.63h.16l73.22-.64,69.87-.64,17.09-.16,19-.16,8.46,1.52Z" transform="translate(-0.33 -4.87)"/><polygon class="aa" points="54.42 67.97 59.62 82.51 60.89 100.87 71.11 110.3 97.62 105.98 198.56 105.98 223.31 116.68 234.81 125.31 245.99 105.98 246.63 94 252.06 96.56 253.01 83.15 242.47 64.94 232.33 63.26 54.42 67.97"/><path class="a" d="M228.6,67.5l-.16,1.12,13.18,12.78s8.3,5.35,9.42,6.95a15.94,15.94,0,0,1-1.52,5l-.72.16-5.35,2.79-1.12,9.1a24,24,0,0,1,.24,3.43c-.72,7-6.47,19.48-19.32,10.62h0c-5.27-2.64-14-6.23-21.8-12l-1.12-.8h-103l-.64.16c-4,1.28-22,4.47-22,4.47l-2-.16L65,104,64.1,92.25v-5S61,76.52,59.31,72.77c.4-1.2.88-2.08,1.36-3.83Z" transform="translate(-0.33 -4.87)"/><line class="ab" x1="233.45" y1="63.98" x2="177.48" y2="62.06"/><line class="ab" x1="54.66" y1="64.54" x2="55.3" y2="62.62"/><polygon class="z" points="57.38 85.86 89.16 82.67 146.89 80.03 88.68 84.74 57.3 90.57 57.38 85.86"/><polygon class="z" points="248.38 94.17 221.87 89.37 217 88.5 159.67 81.23 217.32 90.65 248.14 98.88 248.38 94.17"/><polygon class="z" points="221.63 85.06 217.32 79.95 223.31 85.06 223.79 90.73 221.63 90.17 221.63 85.06"/><path class="ac" d="M204.8,66.3" transform="translate(-0.33 -4.87)"/><path class="ac" d="M80.87,68.86l-25,.56-1,3.43L60,87.38l.24,3.19L83.67,88.1s-22,1.84-22.44,1.36,0-2.56-.4-3-5.59-13.65-5.11-14.13a4.44,4.44,0,0,1,2.16-1.68C59.07,70.29,80.87,68.86,80.87,68.86Z" transform="translate(-0.33 -4.87)"/><polygon class="ac" points="87.88 84.98 60.09 90.01 60.89 100.87 71.11 110.3 97.62 105.98 119.18 105.98 97.62 104.7 71.99 108.62 62.57 99.99 60.89 90.65 87.88 84.98"/><polygon class="ac" points="253.01 83.15 241.52 67.81 233.21 66.7 230.9 66.38 208.06 63.9 200.31 63.02 203.35 62.94 210.13 62.78 215.09 62.62 233.85 62.06 242.47 63.98 253.01 83.15"/><polygon class="ac" points="252.06 96.56 246.63 94 223.79 90.17 223.31 85.06 217.32 79.95 223.79 85.06 224.19 89.77 246.47 93.21 252.06 96.56"/><path class="ac" d="M208.15,94l9.5,1.52,29.94,5-1.28,10.38s-.88-6-1.28-6-27.39-8.54-27.39-8.54Z" transform="translate(-0.33 -4.87)"/><polygon class="ac" points="160.23 105.98 198.56 105.98 222.35 117.64 234.81 125.31 223.31 116.68 198.96 103.43 160.23 105.98"/><g class="u"><ellipse class="ad" cx="89.88" cy="97.28" rx="11.5" ry="2.79" transform="translate(-13.07 8.67) rotate(-8.05)"/></g><ellipse class="ae" cx="233.61" cy="80.08" rx="2.79" ry="4.95" transform="matrix(0.08, -1, 1, 0.08, 134.16, 301.41)"/><ellipse class="ad" cx="240.02" cy="84.86" rx="1.12" ry="2" transform="translate(135.28 312.17) rotate(-85.26)"/><ellipse class="ad" cx="233.87" cy="86.85" rx="1.6" ry="2.87" transform="matrix(0.08, -1, 1, 0.08, 127.66, 307.87)"/><path class="af" d="M134.69,76.2s57.73-1.68,64.6-.88S219,80,219,80l-17.09-2.16Z" transform="translate(-0.33 -4.87)"/><path class="ag" d="M199.29,75.24c-6-.72-51.5.48-62.28.8l-2.32.08v.24l2.71.08L201.85,78l17.09,2.24V80C218.85,80,206.08,76.12,199.29,75.24Zm2.56,2.56L139,76.2c13.49-.4,54.62-1.44,60.29-.72,5.43.64,14.77,3.27,18.29,4.31Z" transform="translate(-0.33 -4.87)"/><g class="ah"><path class="af" d="M152.66,102.71s-57.73-1.68-64.6-.88-19.72,4.71-19.72,4.71l17.09-2.16Z" transform="translate(-0.33 -4.87)"/><path class="ai" d="M151.06,102.55c-9.5-.24-56.77-1.6-62.92-.8-6.79.88-19.56,4.63-19.72,4.71l.08.24,17.09-2.16,65.56-1.68h1.6v-.24Zm-81.13,3.75c3.51-1,12.86-3.59,18.29-4.31,1.36-.16,4.71-.24,9.26-.24,14.45,0,40.72.72,50.94,1l-62.84,1.6Z" transform="translate(-0.33 -4.87)"/></g><g class="aj"><path class="af" d="M223.64,114.29s-9.82-2.16-10.7-3.83-.88-8.14.88-8.94,18.37,1.68,20.52,3,4.31,3.83,4.31,4.71-4.31,3.43-4.31,3.43,1.68-1.68,1.28-3.43a5,5,0,0,0-3.83-3.83c-2.16-.4-14.13-3-15.41-2.16,0,0-2.56,3.43-1.28,5.59s9.42,4.71,10.7,3.83,2.16-1.68.88-3.43-8.54-1.68-8.54-1.68H228s2.16,2.56,1.68,3.43-.88,3.43-2.16,3.83S223.64,114.29,223.64,114.29Z" transform="translate(-0.33 -4.87)"/><path class="ak" d="M234.42,104.39c-1.12-.72-6.07-1.68-10.46-2.32s-9.18-1.12-10.14-.72c-1.12.56-1.36,3.19-1.44,4.31a11.22,11.22,0,0,0,.56,4.87c.88,1.76,10.3,3.83,10.78,3.91a12.85,12.85,0,0,0,3,.56,2,2,0,0,0,1-.16c1-.32,1.52-1.84,1.84-3,.08-.32.24-.64.32-1,.48-.88-1.52-3.27-1.76-3.51h-9.9v.24c.08,0,7.19,0,8.46,1.68a2.16,2.16,0,0,1,.56,1.68c-.08.64-.64,1-1.44,1.6-.32.24-1.44.16-2.87-.16-3-.72-6.87-2.32-7.67-3.67-1.2-2,1-5.19,1.28-5.43.8-.48,5.67.16,14.53,2l.8.16a5,5,0,0,1,3.75,3.75c.4,1.6-1.2,3.27-1.28,3.27l-.64.64.8-.48c.48-.24,4.31-2.64,4.31-3.51S236.58,105.67,234.42,104.39Zm.48,7.75a3.65,3.65,0,0,0,.88-3,5.16,5.16,0,0,0-3.91-3.91l-.8-.16c-5.75-1.2-13.57-2.71-14.69-1.92h0c-.08.16-2.56,3.51-1.28,5.67.88,1.44,4.71,3.11,7.83,3.75.88.16,2.48.48,3,.08.8-.56,1.44-1,1.52-1.76a2.28,2.28,0,0,0-.64-1.84c-.64-.88-2.71-1.28-4.63-1.52H228c.64.72,2,2.64,1.68,3.27-.16.32-.24.64-.4,1-.32,1-.8,2.48-1.68,2.79-1.2.4-3.75-.4-3.75-.4h0s-2.48-.56-5-1.28c-4.23-1.2-5.35-2-5.59-2.48a12.17,12.17,0,0,1-.56-4.79c.16-2.24.64-3.75,1.36-4.07a4,4,0,0,1,1.36-.16c4.39,0,17.09,2,19,3.11,2.16,1.36,4.15,3.91,4.15,4.71,0,.4-2,1.84-3.59,2.87Z" transform="translate(-0.33 -4.87)"/></g><path class="al" d="M257,87.86l-2.71,16.45-3.83-1s-.64,1.76-1,1.92a15,15,0,0,0,0,3.83l-1,3.83s-7.67,20.12-14.37,24l-11.5-9.58c-6.71-3.83-20.12-8.62-24.51-9.26H154.65L153,110.86l-1-4.31-.88-3.67v-.32l-4.07-17.41-.32-.24h0l-9.34-8.46-.16-.16-.16-.16L137,76l-5.75-5.27-2.71-2.48-.08-.08,69.87-.64,17.09-.16,18.76-.56,8.62,1.92Z" transform="translate(-0.33 -4.87)"/><text class="am" transform="translate(91.09 101.38)">Tutorial</text><g class="an"><path class="ao" d="M106.9,84.35l-4,.48v18.84l-9.5,1.2.48-19.16-4.39.4.24-8.22,18.13-1.52Z" transform="translate(-0.33 -4.87)"/><path class="ao" d="M119.12,101.35h0A5.12,5.12,0,0,1,117,104a7.42,7.42,0,0,1-3.35.8,5.48,5.48,0,0,1-4.07-1.52,5.72,5.72,0,0,1-1.6-4.31V84.91l7.51-.64-.24,12.38c0,.56.08,1,.32,1.12a1.66,1.66,0,0,0,1.2.32,1.69,1.69,0,0,0,1.12-.32,1.3,1.3,0,0,0,.4-1.12L118,84.83l7.75-.64-.48,20-6.15.24v-3Z" transform="translate(-0.33 -4.87)"/><path class="ao" d="M136.77,104.63h-1a7.86,7.86,0,0,1-5-1.44c-1.2-1-1.76-2.56-1.76-4.71v-8H127.1l.24-5.83h1.6V82.43l7.27-3.27v5.51l2.71-.4-.4,6.15h-2.32v5.83a2,2,0,0,0,.32,1.36c.16.24.64.32,1.28.32h.72c.16,0,.32-.08.48-.08l-1.2,6.63A2.19,2.19,0,0,1,136.77,104.63Z" transform="translate(-0.33 -4.87)"/><path class="ao" d="M159.92,97.12a10.38,10.38,0,0,1-1.76,3.51,9.2,9.2,0,0,1-3,2.48,12.65,12.65,0,0,1-8.38,1.12,10.1,10.1,0,0,1-3.67-1.6,9.39,9.39,0,0,1-2.71-2.87A9.84,9.84,0,0,1,139,95.69a9.73,9.73,0,0,1,.24-4.31A10.38,10.38,0,0,1,141,87.86a10.55,10.55,0,0,1,3-2.56,12.65,12.65,0,0,1,8.38-1.12,10.1,10.1,0,0,1,3.67,1.6,9.39,9.39,0,0,1,2.71,2.87,11.24,11.24,0,0,1,1.44,4.07A15.61,15.61,0,0,1,159.92,97.12Zm-12.06.24a4.35,4.35,0,0,0,2.79-.24,4.17,4.17,0,0,0,2.16-1.84,3,3,0,0,0,.08-2.48,2.74,2.74,0,0,0-1.84-1.68,4.35,4.35,0,0,0-2.79.24,4.17,4.17,0,0,0-2.16,1.84,3,3,0,0,0-.08,2.48A3.15,3.15,0,0,0,147.87,97.36Z" transform="translate(-0.33 -4.87)"/><path class="ao" d="M167.67,84.27V88h.08c.56-2.48,2.24-3.75,5-3.75a10.72,10.72,0,0,1,1.68.08l-1.76,7.11h-1.12a3.25,3.25,0,0,0-2.4,1,3.63,3.63,0,0,0-1,2.87v8.62l-7,.64-.24-19.64Z" transform="translate(-0.33 -4.87)"/><path class="ao" d="M175.25,76.84l7.67-.32-.4,5.91-7.35.56Zm0,8.46,7.51-.64-.4,19.32-7.11.64Z" transform="translate(-0.33 -4.87)"/><path class="ao" d="M195.86,102.07h0a4.72,4.72,0,0,1-2.4,1.76,9.3,9.3,0,0,1-3,.48,6.92,6.92,0,0,1-2.56-.48,6.24,6.24,0,0,1-2.08-1.36,6.38,6.38,0,0,1-1.44-2.16,8.37,8.37,0,0,1-.56-2.87,5.68,5.68,0,0,1,.56-2.56,6.77,6.77,0,0,1,6.31-3.83,6.48,6.48,0,0,1,2.64.48,7.29,7.29,0,0,1,1.76,1v-1a2.1,2.1,0,0,0-1-2.08,6,6,0,0,0-2.64-.48,9.74,9.74,0,0,0-2.71.32c-.88.24-1.68.4-2.56.72l1.28-5.35a14.69,14.69,0,0,1,3.35-.64c1.2-.08,2.32-.16,3.59-.16a14,14,0,0,1,3.19.4,6.89,6.89,0,0,1,2.79,1.28,6.5,6.5,0,0,1,1.92,2.24,6.32,6.32,0,0,1,.64,3.35l-.4,12.7-6.71.56v-2.32Zm-6.15-5.43a1.37,1.37,0,0,0,.32,2.48,3.74,3.74,0,0,0,2.16.16,3.57,3.57,0,0,0,1.92-.8,1.53,1.53,0,0,0,.48-1.36A1.64,1.64,0,0,0,193.7,96a3,3,0,0,0-2.16-.24A4.9,4.9,0,0,0,189.71,96.64Z" transform="translate(-0.33 -4.87)"/><path class="ao" d="M205.6,77.64l7.59-.64-.32,27-7,.64Z" transform="translate(-0.33 -4.87)"/></g><text class="ap" transform="translate(31.26 250.17)">Good</text><text class="aq" transform="translate(31.14 348.75)">Bad</text><polygon class="ar" points="138.04 339.1 107.09 340.14 107.3 346.61 138.25 345.56 138.46 353.14 158.07 340.9 137.69 329.98 138.04 339.1"/><text class="aq" transform="translate(31.14 447.75)">Bad</text><polygon class="ar" points="138.04 438.1 107.09 439.14 107.3 445.61 138.25 444.57 138.46 452.15 158.07 439.91 137.69 428.99 138.04 438.1"/><polygon class="as" points="138.39 245.12 107.22 245.64 107.09 239.12 138.25 238.46 138.13 230.87 158.54 242.16 138.59 254.25 138.39 245.12"/><path class="at" d="M246.53,393.62a47.18,47.18,0,1,1,47.18-47.18h0A47.24,47.24,0,0,1,246.53,393.62Z" transform="translate(-0.33 -4.87)"/><circle class="au" cx="246.2" cy="341.47" r="40.8"/><path class="av" d="M270.22,325.46l-1,.48-.48-1a.37.37,0,1,0-.68.29l.48,1-1,.48a.37.37,0,0,0,.29.68h0l1-.48.48,1a.37.37,0,1,0,.68-.29l-.48-1,1-.48a.37.37,0,0,0-.29-.68Z" transform="translate(-0.33 -4.87)"/><path class="av" d="M250.79,380.18l-1.74.19-.19-1.74a.59.59,0,1,0-1.16.19l.19,1.74-1.74.19a.57.57,0,0,0-.48.68c.1.29.39.58.68.48l1.74-.19.19,1.74a.59.59,0,1,0,1.16-.19l-.19-1.74,1.74-.19a.57.57,0,0,0,.48-.68.73.73,0,0,0-.68-.48Z" transform="translate(-0.33 -4.87)"/><path class="av" d="M227.2,317.92l-1.74.19-.19-1.74a.59.59,0,1,0-1.16.19h0l.19,1.74-1.74.19a.57.57,0,0,0-.48.68c.1.29.39.58.68.48h0l1.74-.19.19,1.74a.59.59,0,1,0,1.16-.19l-.19-1.74,1.74-.19a.57.57,0,0,0,.48-.68A.73.73,0,0,0,227.2,317.92Z" transform="translate(-0.33 -4.87)"/><path class="av" d="M278.82,363.36c-.58-2.51-2.32-4.35-5.41-5.32,2.8-.39,4.54-2.32,5.41-5.32a6.58,6.58,0,0,0,5.41,5.32C280.85,358.81,278.82,360.46,278.82,363.36Z" transform="translate(-0.33 -4.87)"/><path class="av" d="M220.91,367.71c-1-4.54-4.06-7.73-9.57-9.57,5-.58,8-4.06,9.57-9.57,1.16,5.22,4.54,8.31,9.57,9.57C224.49,359.59,220.91,362.49,220.91,367.71Z" transform="translate(-0.33 -4.87)"/><path class="aw" d="M220.53,322.95s12.67-2.13,15.28,5.22c2.9,4,1.93,5.12,1.93,5.12l-4.93-1.74A13.16,13.16,0,0,1,220.53,322.95Z" transform="translate(-0.33 -4.87)"/><path class="aw" d="M273.12,323.43s-12.67-2.13-15.28,5.22c-2.9,4-1.93,5.12-1.93,5.12l4.93-1.74A12.94,12.94,0,0,0,273.12,323.43Z" transform="translate(-0.33 -4.87)"/><path class="aw" d="M247,323s-13,.39-16.24,14.6c-.68,3.19-2,7.73-1.16,12.86-1.64,1.93-9.86,12.18.87,18.56s27.55,7.15,34.9-1.26,1.35-15-1.16-16.92a31,31,0,0,0-.68-12.67C261.91,331.84,255.14,323.24,247,323Z" transform="translate(-0.33 -4.87)"/><path class="aw" d="M256.78,352.14c0,2.71-3.48,5.12-9.18,5.12s-10.34-2.22-10.34-4.93,4-5.51,9.76-5.51S256.78,349.53,256.78,352.14Z" transform="translate(-0.33 -4.87)"/><ellipse class="aw" cx="240.2" cy="333.06" rx="2.03" ry="4.06"/><ellipse class="aw" cx="253.26" cy="333.06" rx="2.03" ry="4.06"/><ellipse class="aw" cx="242.72" cy="345.92" rx="3.58" ry="1.74"/><ellipse class="aw" cx="253.55" cy="334.12" rx="1.35" ry="2.71"/><ellipse class="aw" cx="240.4" cy="334.12" rx="1.35" ry="2.71"/><ellipse class="aw" cx="240.69" cy="335.09" rx="0.87" ry="1.64"/><ellipse class="aw" cx="253.74" cy="335.09" rx="0.87" ry="1.64"/><path class="aw" d="M272.93,323.43s-12.67-2.13-15.28,5.22c-2.9,4-1.93,5.12-1.93,5.12l4.93-1.74A12.84,12.84,0,0,0,272.93,323.43Z" transform="translate(-0.33 -4.87)"/><path class="aw" d="M248.95,374c6.57,0,12.67-1.93,16.34-6.19,7.35-8.41,1.35-15-1.16-16.92a31,31,0,0,0-.68-12.67c-1.74-6.38-8.51-15-16.63-15.08" transform="translate(-0.33 -4.87)"/><path class="aw" d="M247.89,346.73c5.22.29,8.89,2.8,8.89,5.32s-3.19,4.93-8.51,5" transform="translate(-0.33 -4.87)"/><ellipse class="aw" cx="253.16" cy="333.06" rx="2.03" ry="4.06"/><ellipse class="aw" cx="253.55" cy="334.12" rx="1.35" ry="2.71"/><ellipse class="aw" cx="253.64" cy="335.09" rx="0.87" ry="1.64"/><path class="ax" d="M219.46,322.95s12.67-2.13,15.28,5.22c2.9,4,1.93,5.12,1.93,5.12l-4.93-1.74A13.07,13.07,0,0,1,219.46,322.95Z" transform="translate(-0.33 -4.87)"/><path class="ax" d="M272,323.43s-12.67-2.13-15.28,5.22c-2.9,4-1.93,5.12-1.93,5.12l4.93-1.74A12.84,12.84,0,0,0,272,323.43Z" transform="translate(-0.33 -4.87)"/><path class="ay" d="M245.86,323s-13,.39-16.24,14.6c-.68,3.19-2,7.73-1.16,12.86-1.64,1.93-9.86,12.18.87,18.56s27.55,7.15,34.9-1.26,1.35-15-1.16-16.92a31,31,0,0,0-.68-12.67C260.74,331.84,254.07,323.24,245.86,323Z" transform="translate(-0.33 -4.87)"/><path class="az" d="M255.72,352.14c0,2.71-3.48,5.12-9.18,5.12s-10.34-2.22-10.34-4.93,4-5.51,9.76-5.51S255.72,349.53,255.72,352.14Z" transform="translate(-0.33 -4.87)"/><ellipse class="ba" cx="239.04" cy="333.06" rx="2.03" ry="4.06"/><ellipse class="ba" cx="252.19" cy="333.06" rx="2.03" ry="4.06"/><ellipse class="bb" cx="241.65" cy="345.92" rx="3.58" ry="1.74"/><ellipse class="bc" cx="252.48" cy="334.12" rx="1.35" ry="2.71"/><ellipse class="bc" cx="239.33" cy="334.12" rx="1.35" ry="2.71"/><ellipse cx="239.53" cy="335.09" rx="0.87" ry="1.64"/><ellipse cx="252.68" cy="335.09" rx="0.87" ry="1.64"/><path class="bd" d="M271.86,323.43s-12.67-2.13-15.28,5.22c-2.9,4-1.93,5.12-1.93,5.12l4.93-1.74A12.84,12.84,0,0,0,271.86,323.43Z" transform="translate(-0.33 -4.87)"/><path class="ax" d="M247.79,374c6.57,0,12.67-1.93,16.34-6.19,7.35-8.41,1.35-15-1.16-16.92a31,31,0,0,0-.68-12.67c-1.74-6.38-8.51-15-16.63-15.08" transform="translate(-0.33 -4.87)"/><path class="bd" d="M246.82,346.73c5.22.29,8.89,2.8,8.89,5.32s-3.19,4.93-8.51,5" transform="translate(-0.33 -4.87)"/><ellipse class="ba" cx="252.1" cy="333.06" rx="2.03" ry="4.06"/><ellipse class="be" cx="252.39" cy="334.12" rx="1.35" ry="2.71"/><ellipse cx="252.58" cy="335.09" rx="0.87" ry="1.64"/><path class="bf" d="M246.35,295.29a47.85,47.85,0,1,1,47.85-47.85A47.88,47.88,0,0,1,246.35,295.29Z" transform="translate(-0.33 -4.87)"/><circle class="bg" cx="246.02" cy="242.56" r="41.36"/><path class="bh" d="M270.37,226.24l-1,.51-.51-1a.32.32,0,0,0-.51-.09.31.31,0,0,0-.17.43l.51,1-1,.51a.41.41,0,0,0,.26.77H268l1-.51.51,1a.32.32,0,0,0,.51.09.31.31,0,0,0,.17-.43l-.51-1,1-.51a.41.41,0,0,0,.26-.51c-.17-.26-.34-.34-.6-.26Z" transform="translate(-0.33 -4.87)"/><path class="bh" d="M250.63,281.7l-1.71.26-.26-1.71a.56.56,0,0,0-.68-.43.64.64,0,0,0-.43.6l.26,1.71-1.71.26a.6.6,0,0,0,0,1.2h.17l1.71-.26.26,1.71a.56.56,0,0,0,.68.43.64.64,0,0,0,.43-.6l-.26-1.71,1.71-.26a.6.6,0,1,0,0-1.2Z" transform="translate(-0.33 -4.87)"/><path class="bh" d="M226.7,218.55l-1.71.26-.26-1.71a.56.56,0,0,0-.68-.43.64.64,0,0,0-.43.6l.26,1.71-1.71.26a.6.6,0,0,0,0,1.2h.17l1.71-.26.26,1.71a.56.56,0,0,0,.68.43.64.64,0,0,0,.43-.6l-.26-1.71,1.71-.26a.6.6,0,1,0,0-1.2Z" transform="translate(-0.33 -4.87)"/><path class="bh" d="M279.17,264.7c-.6-2.56-2.31-4.44-5.47-5.47,2.91-.34,4.61-2.31,5.47-5.47a6.83,6.83,0,0,0,5.47,5.47C281.22,260.08,279.08,261.7,279.17,264.7Z" transform="translate(-0.33 -4.87)"/><path class="bh" d="M220.38,269.05c-1-4.61-4.19-7.86-9.66-9.66,5.13-.6,8.12-4.1,9.66-9.66,1.2,5.3,4.61,8.37,9.66,9.66C224,260.76,220.38,263.76,220.38,269.05Z" transform="translate(-0.33 -4.87)"/><path class="bi" d="M246.87,225.9l2.22-1.62s-.51,10.43,2.39,13.5c1.79,2-1.11,3.16-3.5,3.85" transform="translate(-0.33 -4.87)"/><path class="bi" d="M248,241.54a13.63,13.63,0,0,1-2.56.51s.43-9.74-2.14-13.59l3.59-2.65" transform="translate(-0.33 -4.87)"/><path class="bj" d="M272.76,252c-.09,9.49-9.66,19.31-22.64,19.31-13.84,0-27.69-7.69-27.69-19.31,0-10.34,3.76-17,11.45-17.35,3.42-.94,13.67,1.79,13.67,1.79.34,0,8.63-2.91,13.84-1.37C267,236.67,272.84,242.05,272.76,252Z" transform="translate(-0.33 -4.87)"/><path class="bj" d="M247.64,236.5c.34,0,8.63-2.91,13.84-1.37,5.47,1.54,11.37,6.92,11.28,17-.09,9.49-9.66,19.31-22.64,19.31" transform="translate(-0.33 -4.87)"/><path class="bk" d="M246.18,226.58,248.4,225s-.51,10.43,2.39,13.5c1.79,2-1.11,3.16-3.5,3.85" transform="translate(-0.33 -4.87)"/><path class="bl" d="M247.29,242.22a13.63,13.63,0,0,1-2.56.51s.43-9.74-2.14-13.59l3.59-2.65" transform="translate(-0.33 -4.87)"/><path class="bm" d="M272.07,252.82c-.09,9.49-9.66,19.31-22.64,19.31-13.84,0-27.69-7.69-27.69-19.31,0-10.34,3.76-17,11.45-17.35,3.42-.94,13.67,1.79,13.67,1.79.34,0,8.63-2.91,13.84-1.37C266.26,237.35,272.16,242.73,272.07,252.82Z" transform="translate(-0.33 -4.87)"/><path class="bn" d="M247,237.18c.34,0,8.63-2.91,13.84-1.37,5.47,1.54,11.37,6.92,11.28,17-.09,9.49-9.66,19.31-22.64,19.31" transform="translate(-0.33 -4.87)"/><path class="bo" d="M246.71,493.66a48.21,48.21,0,1,1,48.21-48.21A48.2,48.2,0,0,1,246.71,493.66Z" transform="translate(-0.33 -4.87)"/><circle class="bp" cx="246.38" cy="440.57" r="41.66"/><path class="bq" d="M271,424.1l-1,.47-.47-1a.42.42,0,1,0-.75.37h0l.47,1-1,.47a.42.42,0,0,0-.19.56c.09.28.28.28.56.19h0l1-.47.47,1a.42.42,0,1,0,.75-.37h0l-.47-1,1-.47a.42.42,0,0,0,.19-.56A.38.38,0,0,0,271,424.1Z" transform="translate(-0.33 -4.87)"/><path class="bq" d="M251.11,480l-1.78.19-.19-1.69a.57.57,0,1,0-1.12.19l.19,1.78-1.69.19a.57.57,0,0,0,.19,1.12l1.69-.19.19,1.78a.61.61,0,1,0,1.22-.09l-.19-1.78,1.69-.19a.5.5,0,0,0,.47-.66.64.64,0,0,0-.66-.66Z" transform="translate(-0.33 -4.87)"/><path class="bq" d="M227,416.33l-1.69.19-.28-1.78a.61.61,0,1,0-1.22.09l.19,1.78-1.69.28a.62.62,0,0,0-.56.66c0,.28.37.56.66.56l1.69-.19.19,1.78a.61.61,0,1,0,1.22-.09l-.19-1.78,1.69-.19a.66.66,0,0,0,0-1.31Z" transform="translate(-0.33 -4.87)"/><path class="bq" d="M279.76,462.86c-.56-2.62-2.34-4.49-5.52-5.52,2.9-.37,4.68-2.34,5.52-5.52a7,7,0,0,0,5.52,5.52C281.82,458.18,279.76,459.86,279.76,462.86Z" transform="translate(-0.33 -4.87)"/><path class="bq" d="M220.59,467.26c-1-4.59-4.21-7.86-9.74-9.74,5.15-.66,8.24-4.12,9.74-9.74,1.22,5.34,4.59,8.43,9.74,9.74C224.15,458.92,220.5,461.92,220.59,467.26Z" transform="translate(-0.33 -4.87)"/><path class="br" d="M227.24,425.22s-1.87,0-1.87,2.9,3.28,19.1,1.12,20.41-4.12,4.12-1.31,6.18.66,6.55.94,8.71-2.34,3.37.94,5.24,33.14-1.59,34.45-.94,2.15-7.4,1.87-7.68a4.16,4.16,0,0,1,1.5-3.74c1.4-.94-1.12-10.48-1.12-11.89s-.47-12.08-1-12.83-1.78-1.69-1.22-1.78.56-4.87.09-5.43a34.86,34.86,0,0,1-2.06-6c-.09-.66-2.25.56-2.53.56s-1.31-.84-2.06-.09-2.53,1.69-3,1.22-.28-.66-.75-1.22-3.65-.94-4.49-.84a20.65,20.65,0,0,0-4.31.94c-.66.37-1.22,2.06-1.59,1.31s.84-1.12-1.59-1.59-3.84-1.22-2.81.37-1.31-.19-1.59.28-1.5,1.12-1.4,2.06-1.22-.19-2.06-.19-1.78.84-1.78,1.4-.84.47-1.31.84S228.83,425.22,227.24,425.22Z" transform="translate(-0.33 -4.87)"/><path class="bs" d="M227.52,425.69s-1.87,0-1.87,2.9,3.28,19.1,1.12,20.41-4.12,4.12-1.31,6.18.66,6.55.94,8.71-2.34,3.37.94,5.24,33.14-1.59,34.45-.94,2.15-7.4,1.87-7.68a4.16,4.16,0,0,1,1.5-3.74c1.4-.94-1.12-10.48-1.12-11.89s-.47-12.08-1-12.83-1.78-1.69-1.22-1.78.56-4.87.09-5.43a34.86,34.86,0,0,1-2.06-6c-.09-.66-2.25.56-2.53.56s-1.31-.84-2.06-.09-2.53,1.69-3,1.22-.28-.66-.75-1.22-3.65-.94-4.49-.84a20.65,20.65,0,0,0-4.31.94c-.66.37-1.22,2.06-1.59,1.31s.84-1.12-1.59-1.59-3.84-1.22-2.81.37-1.31-.19-1.59.28-1.5,1.12-1.4,2.06-1.22-.19-2.06-.19-1.78.84-1.78,1.4-.84.47-1.31.84S229.21,425.69,227.52,425.69Z" transform="translate(-0.33 -4.87)"/><path class="bd" d="M227.24,426.25s-1.87,0-1.87,2.9,3.28,19.1,1.12,20.41-4.12,4.12-1.31,6.18.66,6.55.94,8.71-2.34,3.37.94,5.24,33.14-1.59,34.45-.94,2.15-7.4,1.87-7.68a4.16,4.16,0,0,1,1.5-3.74c1.4-.94-1.12-10.48-1.12-11.89s-.47-12.08-1-12.83-1.78-1.69-1.22-1.78.56-4.87.09-5.43a34.86,34.86,0,0,1-2.06-6c-.09-.66-2.25.56-2.53.56s-1.31-.84-2.06-.09-2.53,1.69-3,1.22-.28-.66-.75-1.22-3.65-.94-4.49-.84a20.65,20.65,0,0,0-4.31.94c-.66.37-1.22,2.06-1.59,1.31s.84-1.12-1.59-1.59-3.84-1.22-2.81.37-1.31-.19-1.59.28-1.5,1.12-1.4,2.06-1.22-.19-2.06-.19-1.78.84-1.78,1.4-.84.47-1.31.84S228.83,426.25,227.24,426.25Z" transform="translate(-0.33 -4.87)"/><path class="bt" d="M234.92,441.79s-2,1.5-.19,4.87-1.12,8.24-.84,10.11.94,4.68.94,4.68,3.56,4.21,3.18,2.06-1.22-4.31-.28-6.37,2.43-4.21,1.69-8.52S238.38,441.79,234.92,441.79Z" transform="translate(-0.33 -4.87)"/><path class="bu" d="M240.72,426.44s1.87,6.27,1.69,8.14a23,23,0,0,1-1.4,4.77s5-3.93,3.84-6.83S243.25,426.63,240.72,426.44Z" transform="translate(-0.33 -4.87)"/><path class="bv" d="M253.64,429.81s.94,5.62,1.69,8.52,0,2.62.47,4.68,2.15.47,2.25-2.43,2.06-.94,2.25-3.28.94-3.56-.37-3.74-1.69.09-2.25-2-.19-2.06-1.22-2.62-1.5-1.4-1.78-.56S254.2,430.56,253.64,429.81Z" transform="translate(-0.33 -4.87)"/><path class="bt" d="M246.24,450.5s2.81.94,2.25,2.43a5.76,5.76,0,0,0-.66,2.43c0,.75-.19,3.28.56,2.34s1.4-.94,1.69-2.43.84-2.15,1-2,.28,2.34.56,2.9-1.12,2.9-1.12,3.18-1.12,2.43-.84,2.71a1.47,1.47,0,0,0,1.87-.94c0-.09.09-.19.09-.37,0-1.31,0-3.65.37-4.31s.94.19.94-2.15,1.69-2.62,1.5-3.56-1.78-4-2-4.68.37-2.06-.56-3.09a9.33,9.33,0,0,0-2.25-2.34c-2-1.59-2.25-5.34-2.43-1.78s2.06,8.14,2.06,8.52S246.24,450.5,246.24,450.5Z" transform="translate(-0.33 -4.87)"/><path class="bv" d="M234.45,443.85s-2.81.47-2.34,3-3.18,5.62-3.18,6.09.28,5.8.28,5.8-.66,1,.47-1.78a22.48,22.48,0,0,1,3.18-5.15c.28-.47-.28-2.81,1-4.77S234.45,443.85,234.45,443.85Z" transform="translate(-0.33 -4.87)"/><path class="bw" d="M227.15,439.64a2.15,2.15,0,0,0,2.06.66c1.12-.37,1.59,1.12,1.59,1.69s-1.4,2.06-1.4,2.06l-1.69.09A18.47,18.47,0,0,1,227.15,439.64Z" transform="translate(-0.33 -4.87)"/><path class="bv" d="M232.86,423.35s-1-.37-.66,2.81a14.23,14.23,0,0,1-.28,6.27c-.28.84-1.22,2.34-1.22,3.37s1.4,4.4,1.5,1.87.19-2.9.28-4.12a13.62,13.62,0,0,1,1.12-3.93C234.07,428.41,234.92,420.92,232.86,423.35Z" transform="translate(-0.33 -4.87)"/><path class="bt" d="M250.55,421.2a33.46,33.46,0,0,0,.94,3.28,7.15,7.15,0,0,1,.75,3.09c0,1.5.94,1.12,1.22.37s1.4-1.87.37-2.15-1.22,0-1.22-.94.37-1.78-.19-2.06-.94-.19-.94-.56S251.39,419.7,250.55,421.2Z" transform="translate(-0.33 -4.87)"/><path class="ab" d="M255.14,449.66a2.69,2.69,0,0,0-.94,2.81c.56,1.69-.94,3.93.56,2.43s1.12-1.12.84-2.9S255.51,449.66,255.14,449.66Z" transform="translate(-0.33 -4.87)"/><path class="bw" d="M260.85,458.36a3.23,3.23,0,0,1,.47,1.69c0,.37-.47,2.9.37,2.15a2.09,2.09,0,0,0,.94-2.25c0-1.12-1.69-2.71-1.87-1.87Z" transform="translate(-0.33 -4.87)"/><path class="bv" d="M240.35,465.85c2-.28,3.09-.56,3.37-.37s1.87,1.12.56,1.12-1.78.94-3,1-4.21.94-3.56,0A12.91,12.91,0,0,1,240.35,465.85Z" transform="translate(-0.33 -4.87)"/><g class="bx"><path class="by" d="M263.66,444.51c0-1.4-.47-12.08-1-12.83s-1.78-1.69-1.22-1.78.56-4.87.09-5.43a34.86,34.86,0,0,1-2.06-6c-.09-.66-2.25.56-2.53.56s-1.31-.84-2.06-.09-2.53,1.69-3,1.22-.28-.66-.75-1.22-3.65-.94-4.49-.84c-.56.09-2.06.37-3.18.56a342.88,342.88,0,0,0,.94,50c8.24-.56,16.48-1.31,17.13-.94,1.22.66,2.15-7.4,1.87-7.68a4.16,4.16,0,0,1,1.5-3.74C266.28,455.46,263.66,445.82,263.66,444.51Z" transform="translate(-0.33 -4.87)"/><path class="bz" d="M263.94,445c0-1.4-.47-12.08-1-12.83s-1.78-1.69-1.22-1.78.56-4.87.09-5.43a34.86,34.86,0,0,1-2.06-6c-.09-.66-2.25.56-2.53.56s-1.31-.84-2.06-.09-2.53,1.69-3,1.22-.28-.66-.75-1.22-3.65-.94-4.49-.84c-.66.09-2.34.37-3.46.66a355,355,0,0,0,1,49.9c8.33-.56,16.66-1.31,17.32-.94,1.22.66,2.15-7.4,1.87-7.68a4.16,4.16,0,0,1,1.5-3.74C266.47,455.93,263.94,446.38,263.94,445Z" transform="translate(-0.33 -4.87)"/><path class="ca" d="M263.66,445.54c0-1.4-.47-12.08-1-12.83s-1.78-1.69-1.22-1.78.56-4.87.09-5.43a34.86,34.86,0,0,1-2.06-6c-.09-.66-2.25.56-2.53.56s-1.31-.84-2.06-.09-2.53,1.69-3,1.22-.28-.66-.75-1.22-3.65-.94-4.49-.84c-.56.09-2.15.37-3.28.66a343,343,0,0,0,1.12,50c8.24-.56,16.38-1.31,17-.94,1.22.66,2.15-7.4,1.87-7.68a4.16,4.16,0,0,1,1.5-3.74C266.28,456.49,263.66,446.94,263.66,445.54Z" transform="translate(-0.33 -4.87)"/><path class="cb" d="M244.75,432.52a34.23,34.23,0,0,0-1.69-4.31c-.09,3.09-.09,6.09-.09,9.17C244.18,436,245.4,434.12,244.75,432.52Z" transform="translate(-0.33 -4.87)"/><path class="cc" d="M253.55,429.81s.94,5.62,1.69,8.52,0,2.62.47,4.68,2.15.47,2.25-2.43,2.06-.94,2.25-3.28.94-3.56-.37-3.74-1.69.09-2.25-2-.19-2.06-1.22-2.62-1.5-1.4-1.78-.56S254.2,430.56,253.55,429.81Z" transform="translate(-0.33 -4.87)"/><path class="cd" d="M246.24,450.5s2.81.94,2.25,2.43a5.76,5.76,0,0,0-.66,2.43c0,.75-.28,3.18.47,2.34s1.4-.94,1.69-2.43.84-2.15,1-2,.28,2.34.56,2.9-1.12,2.9-1.12,3.18-1.12,2.43-.84,2.71a1.47,1.47,0,0,0,1.87-.94c0-.09.09-.19.09-.37,0-1.31,0-3.65.37-4.31s.94.19.94-2.15,1.69-2.62,1.5-3.56-1.78-4-2-4.68.37-2.06-.56-3.09a9.33,9.33,0,0,0-2.25-2.34c-2-1.59-2.25-5.34-2.43-1.78s2.06,8.14,2.06,8.52S246.24,450.5,246.24,450.5Z" transform="translate(-0.33 -4.87)"/><path class="cd" d="M250.55,421.1a33.46,33.46,0,0,0,.94,3.28,7.15,7.15,0,0,1,.75,3.09c0,1.5.94,1.12,1.22.37s1.4-1.87.37-2.15-1.22,0-1.22-.94.37-1.78-.19-2.06-.94-.19-.94-.56S251.3,419.7,250.55,421.1Z" transform="translate(-0.33 -4.87)"/><path class="ab" d="M255,449.66a2.69,2.69,0,0,0-.94,2.81c.56,1.69-.94,3.93.56,2.43s1.12-1.12.84-2.9S255.42,449.66,255,449.66Z" transform="translate(-0.33 -4.87)"/><path class="ce" d="M260.85,458.36a3.23,3.23,0,0,1,.47,1.69c0,.37-.47,2.9.37,2.15a2.09,2.09,0,0,0,.94-2.25c0-1.12-1.69-2.71-1.87-1.87Z" transform="translate(-0.33 -4.87)"/><path class="bv" d="M244.09,465.85l.09.84h0C245.21,466.69,244.65,466.23,244.09,465.85Z" transform="translate(-0.33 -4.87)"/></g><path d="M14,145.84l2.92,5.87,2.91-5.87h1.76v8.84H20.2v-6.61l-2.79,5.69h-1l-2.79-5.69v6.61h-1.4v-8.84Z" transform="translate(-0.33 -4.87)"/><path d="M27.85,154.68v-.82a2.73,2.73,0,0,1-2.22.88,2.13,2.13,0,0,1-2.36-2.08c0-1.23.92-2,2.54-2h2v-.2c0-.85-.54-1.35-1.6-1.35a3.54,3.54,0,0,0-2,.68l-.59-1a4.92,4.92,0,0,1,2.89-.85c1.73,0,2.7.88,2.72,2.36v4.41Zm0-2.36v-.62H26c-.95,0-1.39.25-1.39.9s.49,1,1.3,1C27,153.6,27.76,153.05,27.84,152.32Z" transform="translate(-0.33 -4.87)"/><path d="M33.88,151.6l-1.14,1.2v1.88H31.29v-9.37h1.45V151l3-3h1.67l-2.49,2.6,2.68,4.12H35.85Z" transform="translate(-0.33 -4.87)"/><path d="M44.34,151.88H39.26a2,2,0,0,0,2.08,1.68,2.61,2.61,0,0,0,1.9-.78l.77.82a3.66,3.66,0,0,1-2.78,1.14,3.41,3.41,0,1,1,0-6.82C43.55,147.91,44.51,149.45,44.34,151.88Zm-1.26-1.06a1.73,1.73,0,0,0-1.87-1.74,1.9,1.9,0,0,0-2,1.74Z" transform="translate(-0.33 -4.87)"/><path d="M51.53,149.06c-.57,0-1,.19-1,.67,0,1.24,3.58.57,3.56,3,0,1.38-1.23,2-2.58,2a4.16,4.16,0,0,1-2.7-.94l.52-1a3.66,3.66,0,0,0,2.25.83c.62,0,1.1-.21,1.1-.72,0-1.38-3.54-.61-3.52-3,0-1.36,1.19-1.95,2.48-1.95a4.25,4.25,0,0,1,2.35.68l-.53,1.07A4,4,0,0,0,51.53,149.06Z" transform="translate(-0.33 -4.87)"/><path d="M61.68,148v6.72H60.23v-1.31a2.48,2.48,0,0,1-2.4,1.36,2.33,2.33,0,0,1-2.46-2.59V148h1.45v3.78a1.48,1.48,0,0,0,1.57,1.63,1.9,1.9,0,0,0,1.84-2.1V148Z" transform="translate(-0.33 -4.87)"/><path d="M67.6,147.91v1.39a2,2,0,0,0-2.32,1.87v3.51H63.82V148h1.45v1.34A2.44,2.44,0,0,1,67.6,147.91Z" transform="translate(-0.33 -4.87)"/><path d="M74.71,151.88H69.63a2,2,0,0,0,2.08,1.68,2.61,2.61,0,0,0,1.9-.78l.77.82a3.66,3.66,0,0,1-2.78,1.14,3.41,3.41,0,1,1,0-6.82C73.93,147.91,74.89,149.45,74.71,151.88Zm-1.26-1.06a1.73,1.73,0,0,0-1.87-1.74,1.9,1.9,0,0,0-2,1.74Z" transform="translate(-0.33 -4.87)"/><path d="M83.82,154.25a3.22,3.22,0,0,1-1.65.49,1.77,1.77,0,0,1-1.88-2V149.3h-.95v-1.09h.95v-1.84h1.44v1.84h2v1.09h-2v3.22c0,.69.26.91.72.91a2.34,2.34,0,0,0,1-.29Z" transform="translate(-0.33 -4.87)"/><path d="M91.46,151.31a3.51,3.51,0,1,1-3.5-3.4A3.3,3.3,0,0,1,91.46,151.31Zm-5.56,0A2.06,2.06,0,1,0,88,149.15,2,2,0,0,0,85.9,151.33Z" transform="translate(-0.33 -4.87)"/><path d="M103.15,151.31a3.51,3.51,0,1,1-3.5-3.4A3.3,3.3,0,0,1,103.15,151.31Zm-5.56,0a2.06,2.06,0,1,0,2.06-2.19A2,2,0,0,0,97.59,151.33Z" transform="translate(-0.33 -4.87)"/><path d="M111.09,150.5v4.18h-1.45V150.9a1.5,1.5,0,0,0-1.62-1.63,1.88,1.88,0,0,0-1.91,1.83v3.58h-1.45V148h1.45v1.29a2.54,2.54,0,0,1,2.48-1.34A2.35,2.35,0,0,1,111.09,150.5Z" transform="translate(-0.33 -4.87)"/><path d="M114.55,145.31v9.37H113.1v-9.37Z" transform="translate(-0.33 -4.87)"/><path d="M117.21,157.2a2.27,2.27,0,0,1-1.55-.57l.62-1.12a1.42,1.42,0,0,0,.87.33,1.09,1.09,0,0,0,1-.75l.23-.51L115.62,148h1.5l2,5.09L121,148h1.45l-3.06,7.64A2.24,2.24,0,0,1,117.21,157.2Z" transform="translate(-0.33 -4.87)"/><path d="M129,147.42v.8h1.76v1.09H129v5.38h-1.44V149.3h-.88v-1.09h.88v-.66a2.2,2.2,0,0,1,2.31-2.31,2.56,2.56,0,0,1,1.52.47l-.56,1.11a1.62,1.62,0,0,0-.92-.32A.84.84,0,0,0,129,147.42Z" transform="translate(-0.33 -4.87)"/><path d="M137.38,151.88H132.3a2,2,0,0,0,2.08,1.68,2.61,2.61,0,0,0,1.9-.78l.77.82a3.66,3.66,0,0,1-2.78,1.14,3.41,3.41,0,1,1,0-6.82C136.59,147.91,137.55,149.45,137.38,151.88Zm-1.26-1.06a1.73,1.73,0,0,0-1.87-1.74,1.9,1.9,0,0,0-2,1.74Z" transform="translate(-0.33 -4.87)"/><path d="M144.8,151.88h-5.08a2,2,0,0,0,2.08,1.68,2.61,2.61,0,0,0,1.9-.78l.77.82a3.66,3.66,0,0,1-2.78,1.14,3.41,3.41,0,1,1,0-6.82C144,147.91,145,149.45,144.8,151.88Zm-1.26-1.06a1.73,1.73,0,0,0-1.87-1.74,1.9,1.9,0,0,0-2,1.74Z" transform="translate(-0.33 -4.87)"/><path d="M152.72,145.31v9.37h-1.45v-1.15a2.6,2.6,0,0,1-2.36,1.21,3.43,3.43,0,0,1,0-6.85,2.66,2.66,0,0,1,2.39,1.23v-3.82Zm-1.45,6a2,2,0,0,0-2.06-2.21,2.07,2.07,0,0,0-2.07,2.21,2.07,2.07,0,1,0,4.13,0Z" transform="translate(-0.33 -4.87)"/><path d="M162.52,154.25a3.23,3.23,0,0,1-1.66.49,1.77,1.77,0,0,1-1.88-2V149.3H158v-1.09H159v-1.84h1.44v1.84h2v1.09h-2v3.22c0,.69.27.91.72.91a2.35,2.35,0,0,0,1-.29Z" transform="translate(-0.33 -4.87)"/><path d="M170.37,150.5v4.18h-1.45V150.9a1.5,1.5,0,0,0-1.62-1.63,1.92,1.92,0,0,0-1.92,2.1v3.31h-1.45v-9.37h1.45v4a2.54,2.54,0,0,1,2.49-1.36A2.35,2.35,0,0,1,170.37,150.5Z" transform="translate(-0.33 -4.87)"/><path d="M178.22,151.88h-5.08a2,2,0,0,0,2.08,1.68,2.61,2.61,0,0,0,1.9-.78l.77.82a3.66,3.66,0,0,1-2.78,1.14,3.41,3.41,0,1,1,0-6.82C177.44,147.91,178.4,149.45,178.22,151.88ZM177,150.82a1.73,1.73,0,0,0-1.87-1.74,1.9,1.9,0,0,0-2,1.74Z" transform="translate(-0.33 -4.87)"/><path d="M187.56,154.68v-.82a2.73,2.73,0,0,1-2.22.88,2.13,2.13,0,0,1-2.36-2.08c0-1.23.92-2,2.54-2h2v-.2c0-.85-.54-1.35-1.6-1.35a3.54,3.54,0,0,0-2,.68l-.59-1a4.92,4.92,0,0,1,2.89-.85c1.73,0,2.7.88,2.72,2.36v4.41Zm0-2.36v-.62h-1.82c-.95,0-1.39.25-1.39.9s.49,1,1.3,1C186.67,153.6,187.47,153.05,187.54,152.32Z" transform="translate(-0.33 -4.87)"/><path d="M197.36,150.5v4.18h-1.45V150.9a1.5,1.5,0,0,0-1.62-1.63,1.88,1.88,0,0,0-1.91,1.83v3.58h-1.45V148h1.45v1.29a2.54,2.54,0,0,1,2.48-1.34A2.35,2.35,0,0,1,197.36,150.5Z" transform="translate(-0.33 -4.87)"/><path d="M200.87,146a.85.85,0,1,1-.85-.87A.83.83,0,0,1,200.87,146Zm-.13,1.92v6.72H199.3V148Z" transform="translate(-0.33 -4.87)"/><path d="M214.12,150.5v4.18h-1.45V150.9a1.49,1.49,0,0,0-1.59-1.64,1.91,1.91,0,0,0-1.84,2.1v3.32h-1.45V150.9a1.48,1.48,0,0,0-1.58-1.64,1.92,1.92,0,0,0-1.87,2.1v3.32h-1.44V148h1.44v1.3a2.48,2.48,0,0,1,2.44-1.35,2.25,2.25,0,0,1,2.34,1.62,2.47,2.47,0,0,1,2.55-1.62A2.33,2.33,0,0,1,214.12,150.5Z" transform="translate(-0.33 -4.87)"/><path d="M220.09,154.68v-.82a2.73,2.73,0,0,1-2.22.88,2.13,2.13,0,0,1-2.36-2.08c0-1.23.92-2,2.54-2h2v-.2c0-.85-.54-1.35-1.6-1.35a3.54,3.54,0,0,0-2,.68l-.59-1a4.92,4.92,0,0,1,2.89-.85c1.73,0,2.7.88,2.72,2.36v4.41Zm0-2.36v-.62h-1.82c-.95,0-1.39.25-1.39.9s.49,1,1.3,1C219.21,153.6,220,153.05,220.08,152.32Z" transform="translate(-0.33 -4.87)"/><path d="M225,145.31v9.37h-1.45v-9.37Z" transform="translate(-0.33 -4.87)"/><path d="M229.09,149.06c-.57,0-1,.19-1,.67,0,1.24,3.58.57,3.56,3,0,1.38-1.23,2-2.58,2a4.15,4.15,0,0,1-2.7-.94l.52-1a3.66,3.66,0,0,0,2.25.83c.62,0,1.1-.21,1.1-.72,0-1.38-3.54-.61-3.53-3,0-1.36,1.19-1.95,2.48-1.95a4.25,4.25,0,0,1,2.35.68l-.53,1.07A4,4,0,0,0,229.09,149.06Z" transform="translate(-0.33 -4.87)"/><path d="M240.95,154.68v-.82a2.73,2.73,0,0,1-2.22.88,2.13,2.13,0,0,1-2.36-2.08c0-1.23.92-2,2.54-2h2v-.2c0-.85-.54-1.35-1.6-1.35a3.54,3.54,0,0,0-2,.68l-.59-1a4.92,4.92,0,0,1,2.89-.85c1.73,0,2.7.88,2.72,2.36v4.41Zm0-2.36v-.62h-1.82c-.95,0-1.39.25-1.39.9s.49,1,1.3,1C240.06,153.6,240.86,153.05,240.93,152.32Z" transform="translate(-0.33 -4.87)"/><path d="M251.39,151.35a3.11,3.11,0,0,1-3.18,3.39,2.64,2.64,0,0,1-2.37-1.21v3.61h-1.45V148h1.45v1.16a2.63,2.63,0,0,1,2.35-1.21A3.16,3.16,0,0,1,251.39,151.35Zm-1.47-.05a2.05,2.05,0,1,0-2,2.2A2,2,0,0,0,249.93,151.3Z" transform="translate(-0.33 -4.87)"/><path d="M260,151.35a3.11,3.11,0,0,1-3.18,3.39,2.64,2.64,0,0,1-2.37-1.21v3.61H253V148h1.45v1.16a2.63,2.63,0,0,1,2.35-1.21A3.16,3.16,0,0,1,260,151.35Zm-1.47-.05a2.05,2.05,0,1,0-2,2.2A2,2,0,0,0,258.52,151.3Z" transform="translate(-0.33 -4.87)"/><path d="M263,145.31v9.37h-1.45v-9.37Z" transform="translate(-0.33 -4.87)"/><path d="M271.13,151.88h-5.08a2,2,0,0,0,2.08,1.68,2.61,2.61,0,0,0,1.9-.78l.77.82a3.66,3.66,0,0,1-2.78,1.14,3.41,3.41,0,1,1,0-6.82C270.35,147.91,271.31,149.45,271.13,151.88Zm-1.26-1.06a1.73,1.73,0,0,0-1.87-1.74,1.9,1.9,0,0,0-2,1.74Z" transform="translate(-0.33 -4.87)"/><path d="M274.54,149.06c-.57,0-1,.19-1,.67,0,1.24,3.58.57,3.56,3,0,1.38-1.23,2-2.58,2a4.16,4.16,0,0,1-2.7-.94l.52-1a3.66,3.66,0,0,0,2.25.83c.62,0,1.1-.21,1.1-.72,0-1.38-3.54-.61-3.53-3,0-1.36,1.19-1.95,2.48-1.95a4.25,4.25,0,0,1,2.35.68l-.53,1.07A4,4,0,0,0,274.54,149.06Z" transform="translate(-0.33 -4.87)"/><path d="M279.82,153.95a.8.8,0,1,1-1.59,0,.8.8,0,1,1,1.59,0Zm-.1-8v2.19l-.24,3.74h-.91l-.24-3.74v-2.19Z" transform="translate(-0.33 -4.87)"/><path d="M17.94,167.84H13.48l-.85,2H11.08L15,161h1.53l3.87,8.84H18.78Zm-.57-1.33-1.67-3.93L14,166.52Z" transform="translate(-0.33 -4.87)"/><path d="M27.89,165.66v4.18H26.44v-3.78a1.5,1.5,0,0,0-1.62-1.63,1.88,1.88,0,0,0-1.91,1.83v3.58H21.46v-6.72h1.45v1.29a2.54,2.54,0,0,1,2.48-1.34A2.35,2.35,0,0,1,27.89,165.66Z" transform="translate(-0.33 -4.87)"/><path d="M30.09,172.35a2.28,2.28,0,0,1-1.55-.57l.62-1.12A1.42,1.42,0,0,0,30,171a1.09,1.09,0,0,0,1-.75l.23-.51-2.78-6.62H30l2,5.09,1.87-5.09h1.45l-3.06,7.64A2.24,2.24,0,0,1,30.09,172.35Z" transform="translate(-0.33 -4.87)"/><path d="M40.14,169.41a3.23,3.23,0,0,1-1.66.49,1.77,1.77,0,0,1-1.88-2v-3.49h-.95v-1.09h.95v-1.84H38v1.84h2v1.09H38v3.22c0,.7.27.91.72.91a2.35,2.35,0,0,0,1-.29Z" transform="translate(-0.33 -4.87)"/><path d="M48,165.66v4.18H46.53v-3.78a1.5,1.5,0,0,0-1.62-1.63,1.92,1.92,0,0,0-1.92,2.1v3.31H41.54v-9.37H43v4a2.54,2.54,0,0,1,2.49-1.36A2.35,2.35,0,0,1,48,165.66Z" transform="translate(-0.33 -4.87)"/><path d="M51.5,161.2a.85.85,0,1,1-.85-.87A.83.83,0,0,1,51.5,161.2Zm-.13,1.92v6.72H49.93v-6.72Z" transform="translate(-0.33 -4.87)"/><path d="M59.95,165.66v4.18H58.5v-3.78a1.5,1.5,0,0,0-1.62-1.63A1.88,1.88,0,0,0,55,166.26v3.58H53.52v-6.72H55v1.29a2.54,2.54,0,0,1,2.48-1.34A2.35,2.35,0,0,1,59.95,165.66Z" transform="translate(-0.33 -4.87)"/><path d="M68,163.12v6.06c0,1.93-1.38,3.15-3.49,3.15a4.88,4.88,0,0,1-2.79-.88l.62-1a3.4,3.4,0,0,0,2.11.73,1.89,1.89,0,0,0,2.11-1.91v-.85a2.46,2.46,0,0,1-2.22,1.14,3,3,0,0,1-3-3.25,3,3,0,0,1,3-3.2,2.51,2.51,0,0,1,2.27,1.14v-1.09Zm-1.44,3.18a1.91,1.91,0,0,0-1.93-2.06,2.07,2.07,0,1,0,1.93,2.06Z" transform="translate(-0.33 -4.87)"/><path d="M79.68,167H74.6a2,2,0,0,0,2.08,1.68,2.61,2.61,0,0,0,1.9-.78l.77.82a3.66,3.66,0,0,1-2.78,1.14,3.41,3.41,0,1,1,0-6.82C78.9,163.07,79.85,164.61,79.68,167ZM78.41,166a1.73,1.73,0,0,0-1.87-1.74,1.9,1.9,0,0,0-2,1.74Z" transform="translate(-0.33 -4.87)"/><path d="M82.71,160.46v9.37H81.25v-9.37Z" transform="translate(-0.33 -4.87)"/><path d="M86.81,164.22c-.57,0-1,.19-1,.67,0,1.24,3.58.57,3.56,3,0,1.38-1.23,2-2.58,2a4.15,4.15,0,0,1-2.7-.93l.52-1a3.66,3.66,0,0,0,2.25.83c.62,0,1.1-.21,1.1-.72,0-1.38-3.54-.61-3.53-3,0-1.36,1.19-1.95,2.48-1.95a4.25,4.25,0,0,1,2.35.68l-.53,1.07A4,4,0,0,0,86.81,164.22Z" transform="translate(-0.33 -4.87)"/><path d="M96.77,167H91.69a2,2,0,0,0,2.08,1.68,2.61,2.61,0,0,0,1.9-.78l.77.82a3.66,3.66,0,0,1-2.78,1.14,3.41,3.41,0,1,1,0-6.82C96,163.07,96.95,164.61,96.77,167ZM95.5,166a1.73,1.73,0,0,0-1.87-1.74,1.9,1.9,0,0,0-2,1.74Z" transform="translate(-0.33 -4.87)"/><path d="M102.5,163.12l1.74,5.28,1.69-5.28h1.5l1.71,5.28,1.72-5.28h1.48l-2.45,6.72h-1.5l-1.71-5-1.71,5h-1.49L101,163.12Z" transform="translate(-0.33 -4.87)"/><path d="M114.92,161.2a.85.85,0,1,1-.85-.87A.83.83,0,0,1,114.92,161.2Zm-.13,1.92v6.72h-1.44v-6.72Z" transform="translate(-0.33 -4.87)"/><path d="M118.45,160.46v9.37H117v-9.37Z" transform="translate(-0.33 -4.87)"/><path d="M122.18,160.46v9.37h-1.45v-9.37Z" transform="translate(-0.33 -4.87)"/><path d="M134.58,160.46v9.37h-1.45v-1.15a2.6,2.6,0,0,1-2.36,1.21,3.43,3.43,0,0,1,0-6.85,2.66,2.66,0,0,1,2.39,1.23v-3.82Zm-1.45,6a2,2,0,0,0-2.06-2.21A2.07,2.07,0,0,0,129,166.5a2.07,2.07,0,1,0,4.13,0Z" transform="translate(-0.33 -4.87)"/><path d="M142.71,167h-5.08a2,2,0,0,0,2.08,1.68,2.61,2.61,0,0,0,1.9-.78l.77.82a3.66,3.66,0,0,1-2.78,1.14,3.41,3.41,0,1,1,0-6.82C141.92,163.07,142.88,164.61,142.71,167ZM141.44,166a1.73,1.73,0,0,0-1.87-1.74,1.9,1.9,0,0,0-2,1.74Z" transform="translate(-0.33 -4.87)"/><path d="M147,164.34a2.15,2.15,0,0,0,0,4.3,2.5,2.5,0,0,0,2-.81l.81.81a3.42,3.42,0,0,1-2.86,1.25,3.41,3.41,0,0,1,0-6.82,3.55,3.55,0,0,1,2.78,1.1l-.8.94A2.54,2.54,0,0,0,147,164.34Z" transform="translate(-0.33 -4.87)"/><path d="M155.12,163.07v1.39a2,2,0,0,0-2.33,1.87v3.51h-1.45v-6.72h1.45v1.34A2.44,2.44,0,0,1,155.12,163.07Z" transform="translate(-0.33 -4.87)"/><path d="M162.23,167h-5.08a2,2,0,0,0,2.08,1.68,2.61,2.61,0,0,0,1.9-.78l.77.82a3.66,3.66,0,0,1-2.78,1.14,3.41,3.41,0,1,1,0-6.82C161.45,163.07,162.41,164.61,162.23,167ZM161,166a1.73,1.73,0,0,0-1.87-1.74,1.9,1.9,0,0,0-2,1.74Z" transform="translate(-0.33 -4.87)"/><path d="M167.78,169.84V169a2.73,2.73,0,0,1-2.22.88,2.13,2.13,0,0,1-2.36-2.08c0-1.23.92-2,2.54-2h2v-.2c0-.85-.54-1.35-1.6-1.35a3.54,3.54,0,0,0-2,.68l-.59-1a4.92,4.92,0,0,1,2.89-.85c1.73,0,2.7.88,2.72,2.36v4.41Zm0-2.36v-.62h-1.82c-.95,0-1.39.25-1.39.9s.49,1,1.3,1C166.89,168.75,167.69,168.21,167.77,167.48Z" transform="translate(-0.33 -4.87)"/><path d="M173,164.22c-.57,0-1,.19-1,.67,0,1.24,3.58.57,3.56,3,0,1.38-1.23,2-2.58,2a4.15,4.15,0,0,1-2.7-.93l.52-1a3.66,3.66,0,0,0,2.25.83c.62,0,1.1-.21,1.1-.72,0-1.38-3.54-.61-3.53-3,0-1.36,1.19-1.95,2.48-1.95a4.25,4.25,0,0,1,2.35.68l-.53,1.07A4,4,0,0,0,173,164.22Z" transform="translate(-0.33 -4.87)"/><path d="M183,167h-5.08a2,2,0,0,0,2.08,1.68,2.61,2.61,0,0,0,1.9-.78l.77.82a3.66,3.66,0,0,1-2.78,1.14,3.41,3.41,0,1,1,0-6.82C182.21,163.07,183.18,164.61,183,167ZM181.74,166a1.73,1.73,0,0,0-1.87-1.74,1.9,1.9,0,0,0-2,1.74Z" transform="translate(-0.33 -4.87)"/><path d="M195.38,166.5a3.11,3.11,0,0,1-3.18,3.39,2.64,2.64,0,0,1-2.37-1.21v3.61h-1.45v-9.17h1.45v1.16a2.63,2.63,0,0,1,2.35-1.21A3.16,3.16,0,0,1,195.38,166.5Zm-1.47-.05a2.05,2.05,0,1,0-2,2.2A2,2,0,0,0,193.91,166.45Z" transform="translate(-0.33 -4.87)"/><path d="M203.27,166.47a3.51,3.51,0,1,1-3.5-3.4A3.3,3.3,0,0,1,203.27,166.47Zm-5.56,0a2.06,2.06,0,1,0,2.06-2.19A2,2,0,0,0,197.71,166.49Z" transform="translate(-0.33 -4.87)"/><path d="M206.35,161.2a.85.85,0,1,1-.85-.87A.83.83,0,0,1,206.35,161.2Zm-.13,1.92v6.72h-1.44v-6.72Z" transform="translate(-0.33 -4.87)"/><path d="M214.8,165.66v4.18h-1.45v-3.78a1.5,1.5,0,0,0-1.62-1.63,1.88,1.88,0,0,0-1.91,1.83v3.58h-1.45v-6.72h1.45v1.29a2.54,2.54,0,0,1,2.48-1.34A2.35,2.35,0,0,1,214.8,165.66Z" transform="translate(-0.33 -4.87)"/><path d="M220.55,169.41a3.23,3.23,0,0,1-1.66.49,1.77,1.77,0,0,1-1.88-2v-3.49h-.95v-1.09H217v-1.84h1.44v1.84h2v1.09h-2v3.22c0,.7.27.91.72.91a2.35,2.35,0,0,0,1-.29Z" transform="translate(-0.33 -4.87)"/><path d="M223.78,164.22c-.57,0-1,.19-1,.67,0,1.24,3.58.57,3.56,3,0,1.38-1.23,2-2.58,2a4.15,4.15,0,0,1-2.7-.93l.52-1a3.66,3.66,0,0,0,2.25.83c.62,0,1.1-.21,1.1-.72,0-1.38-3.54-.61-3.53-3,0-1.36,1.19-1.95,2.48-1.95a4.25,4.25,0,0,1,2.35.68l-.53,1.07A4,4,0,0,0,223.78,164.22Z" transform="translate(-0.33 -4.87)"/><path d="M235.64,169.84V169a2.73,2.73,0,0,1-2.22.88,2.13,2.13,0,0,1-2.36-2.08c0-1.23.92-2,2.54-2h2v-.2c0-.85-.54-1.35-1.6-1.35a3.54,3.54,0,0,0-2,.68l-.59-1a4.92,4.92,0,0,1,2.89-.85c1.73,0,2.7.88,2.72,2.36v4.41Zm0-2.36v-.62h-1.82c-.95,0-1.39.25-1.39.9s.49,1,1.3,1C234.76,168.75,235.55,168.21,235.63,167.48Z" transform="translate(-0.33 -4.87)"/><path d="M245.45,165.66v4.18H244v-3.78a1.5,1.5,0,0,0-1.62-1.63,1.88,1.88,0,0,0-1.91,1.83v3.58H239v-6.72h1.45v1.29a2.54,2.54,0,0,1,2.48-1.34A2.35,2.35,0,0,1,245.45,165.66Z" transform="translate(-0.33 -4.87)"/><path d="M253.79,160.46v9.37h-1.45v-1.15A2.6,2.6,0,0,1,250,169.9a3.43,3.43,0,0,1,0-6.85,2.66,2.66,0,0,1,2.39,1.23v-3.82Zm-1.45,6a2,2,0,0,0-2.06-2.21,2.07,2.07,0,0,0-2.07,2.21,2.07,2.07,0,1,0,4.13,0Z" transform="translate(-0.33 -4.87)"/><path d="M266.3,165.66v4.18h-1.45v-3.78a1.5,1.5,0,0,0-1.62-1.63,1.92,1.92,0,0,0-1.92,2.1v3.31h-1.45v-9.37h1.45v4a2.54,2.54,0,0,1,2.49-1.36A2.35,2.35,0,0,1,266.3,165.66Z" transform="translate(-0.33 -4.87)"/><path d="M274.15,167h-5.08a2,2,0,0,0,2.08,1.68,2.61,2.61,0,0,0,1.9-.78l.77.82a3.66,3.66,0,0,1-2.78,1.14,3.41,3.41,0,1,1,0-6.82C273.37,163.07,274.33,164.61,274.15,167ZM272.89,166a1.73,1.73,0,0,0-1.87-1.74,1.9,1.9,0,0,0-2,1.74Z" transform="translate(-0.33 -4.87)"/><path d="M279.7,169.84V169a2.73,2.73,0,0,1-2.22.88,2.13,2.13,0,0,1-2.36-2.08c0-1.23.92-2,2.54-2h2v-.2c0-.85-.54-1.35-1.6-1.35a3.54,3.54,0,0,0-2,.68l-.59-1a4.92,4.92,0,0,1,2.89-.85c1.73,0,2.7.88,2.72,2.36v4.41Zm0-2.36v-.62h-1.82c-.95,0-1.39.25-1.39.9s.49,1,1.3,1C278.81,168.75,279.61,168.21,279.69,167.48Z" transform="translate(-0.33 -4.87)"/><path d="M284.59,160.46v9.37h-1.45v-9.37Z" transform="translate(-0.33 -4.87)"/><path d="M290.6,169.41a3.23,3.23,0,0,1-1.66.49,1.77,1.77,0,0,1-1.88-2v-3.49h-.95v-1.09h.95v-1.84h1.44v1.84h2v1.09h-2v3.22c0,.7.27.91.72.91a2.35,2.35,0,0,0,1-.29Z" transform="translate(-0.33 -4.87)"/><path d="M298.45,165.66v4.18H297v-3.78a1.5,1.5,0,0,0-1.62-1.63,1.92,1.92,0,0,0-1.92,2.1v3.31H292v-9.37h1.45v4a2.54,2.54,0,0,1,2.49-1.36A2.35,2.35,0,0,1,298.45,165.66Z" transform="translate(-0.33 -4.87)"/><path d="M301.63,169.11a.8.8,0,1,1-1.59,0,.8.8,0,1,1,1.59,0Zm-.1-8v2.19l-.24,3.74h-.91l-.24-3.74V161.1Z" transform="translate(-0.33 -4.87)"/></svg>