<?xml version="1.0" encoding="utf-8"?>
<!-- Generator: Adobe Illustrator 21.1.0, SVG Export Plug-In . SVG Version: 6.00 Build 0)  -->
<svg version="1.1" id="Layer_1" xmlns="http://www.w3.org/2000/svg" xmlns:xlink="http://www.w3.org/1999/xlink" x="0px" y="0px"
	 viewBox="0 0 631.5 386.6" style="enable-background:new 0 0 631.5 386.6;" xml:space="preserve">
<style type="text/css">
	.st0{fill:#A8A8A8;}
	.st1{fill:#B5B5B5;}
	.st2{fill:#C6C6C6;}
	.st3{fill:#D3D3D3;}
	.st4{fill:#DDDDDD;}
	.st5{fill:#CECECE;}
	.st6{fill:#EAE8E8;}
	.st7{fill:#EFEFEF;}
	.st8{opacity:0.35;fill:url(#SVGID_1_);enable-background:new    ;}
	.st9{fill:#E5E5E5;}
	.st10{fill:#9B9A9A;}
	.st11{fill:#495750;}
	.st12{fill:#CCCCCC;}
	.st13{fill:#E8E8E8;}
	.st14{fill:#249DAA;}
	.st15{fill:#1B6D6B;}
	.st16{fill:#2BD0D8;}
	.st17{fill:#2B2B2B;}
	.st18{opacity:0.74;}
	.st19{opacity:0.41;}
	.st20{fill:#F9B9B9;}
	.st21{fill:#EAEAEA;}
	.st22{fill:#A3A3A3;}
	.st23{fill:#C1BFBF;}
	.st24{fill:#784418;}
	.st25{fill:#492812;}
	.st26{fill:#86502A;}
	.st27{fill:none;}
	.st28{fill:#B87F50;}
	.st29{fill:#5D3B20;}
	.st30{fill:#683F29;}
	.st31{fill:#5C2F0B;}
	.st32{fill:url(#SVGID_2_);}
	.st33{opacity:0.76;}
	.st34{fill:url(#SVGID_3_);}
	.st35{opacity:0.7;}
	.st36{fill:url(#SVGID_4_);}
	.st37{opacity:0.43;fill:#212121;enable-background:new    ;}
	.st38{opacity:0.56;fill:#1E0404;enable-background:new    ;}
	.st39{font-family:'GROBOLD';}
	.st40{font-size:42px;}
	.st41{enable-background:new    ;}
	.st42{fill:#F4F2F2;}
	.st43{fill:#13BC13;}
	.st44{font-size:21px;}
	.st45{fill:#D31616;}
	.st46{font-size:20px;}
	.st47{opacity:0.56;fill:#D1D3D4;stroke:#FFFFFF;stroke-width:2.22;stroke-miterlimit:10;enable-background:new    ;}
	.st48{fill:#D1D3D4;stroke:#FFFFFF;stroke-width:2.22;stroke-miterlimit:10;}
	.st49{fill:#D1D3D4;stroke:#F9F9F9;stroke-width:0.55;stroke-miterlimit:10;}
	.st50{fill:#3D240E;}
	.st51{fill:#A67C52;}
	.st52{fill:#C69C6D;}
	.st53{fill:#8C6239;}
	.st54{fill:#FFFFFF;}
	.st55{fill:#E6E6E6;}
	.st56{fill:#39B54A;}
	.st57{fill:#754C24;}
	.st58{fill:#009245;}
	.st59{opacity:0.56;fill:#D1D3D4;stroke:#FFFFFF;stroke-width:2.55;stroke-miterlimit:10;enable-background:new    ;}
	.st60{fill:#D1D3D4;stroke:#FFFFFF;stroke-width:2.55;stroke-miterlimit:10;}
	.st61{fill:#D1D3D4;stroke:#F9F9F9;stroke-width:0.64;stroke-miterlimit:10;}
	.st62{fill:#183008;}
	.st63{fill:#9E0404;}
	.st64{fill:#244924;}
	.st65{fill:#2A562C;}
	.st66{fill:#BA3842;}
	.st67{fill:#B23040;}
	.st68{opacity:0.56;fill:#D1D3D4;stroke:#FFFFFF;stroke-width:2.34;stroke-miterlimit:10;enable-background:new    ;}
	.st69{fill:#D1D3D4;stroke:#FFFFFF;stroke-width:2.34;stroke-miterlimit:10;}
	.st70{fill:#D1D3D4;stroke:#F9F9F9;stroke-width:0.59;stroke-miterlimit:10;}
	.st71{fill:#42210B;}
	.st72{fill:#603813;}
	.st73{opacity:0.5;fill:#603813;enable-background:new    ;}
	.st74{opacity:0.5;fill:#A67C52;enable-background:new    ;}
	.st75{opacity:0.5;fill:#8C6239;enable-background:new    ;}
	.st76{opacity:0.5;fill:#42210B;enable-background:new    ;}
	.st77{opacity:0.4;}
	.st78{fill:#301709;}
	.st79{fill:#512D10;}
	.st80{fill:#56351A;}
	.st81{opacity:0.5;fill:#936C4A;enable-background:new    ;}
	.st82{opacity:0.5;fill:#775132;enable-background:new    ;}
	.st83{opacity:0.5;fill:#472910;enable-background:new    ;}
	.st84{opacity:0.5;fill:#2B1407;enable-background:new    ;}
</style>
<title>tut7desktop</title>
<path class="st0" d="M329.4,87l-2.2,23.8c-0.2,1.6-1.5,2.7-3.1,2.6c-15.1,0.4-28.6-3-39-11.2c-1-0.9-1.9-1.9-2.6-3.1l0.8-8.8
	c0.2-1.6,1.5-2.7,3.1-2.6c13.1,1.7,27,1.8,40.4-3.7C328.4,84.1,329.5,85.5,329.4,87z"/>
<path class="st1" d="M346.1,81.5l-5.9-6.1c-0.8-0.7-0.8-2,0-2.7c0,0,0,0,0,0l0,0l1.4-1.3c3.1-3,8-3,11,0.1c0,0,0,0,0,0l0,0l6.2,6.3
	c0.4,0.4,0.4,0.9,0,1.3c0,0,0,0,0,0l0,0l-2.6,2.5C353.4,84.3,348.9,84.3,346.1,81.5C346.1,81.5,346.1,81.5,346.1,81.5z"/>
<path class="st2" d="M324.8,109c-0.1,0-0.2,0.1-0.3,0.1l-0.3-0.1l-0.5,0.3c-14.3,1.4-27.6-1.3-37.2-8.9c-0.6-0.6-1.2-1.2-1.7-1.9
	l0.8-8.1c0-0.3,0.2-0.5,0.5-0.5c0.1,0,0.1,0,0.2,0c17.8,2.3,28,0.3,34.2-1.4c2.2-0.6,4.4-1.4,6.6-2.2c0.1,0.1,0.2,0.3,0.2,0.5
	l-1.9,21.7C325.3,108.8,325,108.9,324.8,109z"/>
<path class="st3" d="M346.4,79.3c2.7,2.7,7,2.8,9.8,0.1l1-1l-4.5-4.7c-3-3-7.8-3.1-10.8-0.1c-0.3,0.3-0.3,0.7,0,0.9L346.4,79.3z"/>
<path class="st1" d="M292.6,95.5l2.1-8.6c1-4.2,5.2-6.7,9.4-5.7c0,0,0,0,0,0l0,0l1.9,0.5c1,0.3,1.7,1.3,1.4,2.3l0,0l-2,8.2
	c-0.9,3.8-4.8,6.1-8.6,5.2l-3.5-0.8C292.8,96.5,292.5,96,292.6,95.5C292.6,95.5,292.6,95.5,292.6,95.5L292.6,95.5z"/>
<path class="st4" d="M304.1,90.4c-0.9,3.7-4.7,6-8.4,5.1l-1.4-0.3l1.6-6.4c1-4.1,5.2-6.6,9.2-5.6c0.3,0.1,0.6,0.4,0.5,0.8
	L304.1,90.4z"/>
<path class="st5" d="M307.6,106.2l-0.5-3.6l-1-6.7l-0.4-2.5l0,0l-0.2-1.2l-0.5-3.4l-0.1-0.4l-0.2-1v-0.1l-0.8-5.2l-1-6.5l-0.4-2.5
	l-0.1-0.7c0-0.1,0-0.2-0.1-0.3c-0.1-0.1,0-0.2,0-0.2V72c0-0.2,0-0.3,0-0.5c0-0.3,0.1-0.7,0.2-1c0.2-0.5,0.4-0.9,0.8-1.3
	c0.4-0.4,0.9-0.7,1.5-0.9l28.1-7.7c0.6-0.2,1.2-0.2,1.7,0c0.5,0.1,1,0.4,1.3,0.7c0.3,0.2,0.5,0.5,0.7,0.8c0.1,0.1,0.2,0.3,0.2,0.4
	v0.1c0,0.1,0.1,0.2,0.1,0.2c0,0.1,0.1,0.2,0.1,0.3l0.2,0.6l0.9,2.3l2.1,5.2l0.2,0.5l0.1,0.3l3.6,9l0,0l0.4,0.9v0.1l3.7,9.1l1.4,3.4
	C354.3,110.3,311.9,121.9,307.6,106.2z"/>
<path class="st6" d="M310.5,107.4l-5.1-33.6c0-0.2,0-0.3-0.1-0.5c-0.1-0.5,0.2-1,0.7-1.1l28.1-7.7c0.5-0.1,1,0.2,1.1,0.6
	c0,0.2,0.1,0.3,0.2,0.5l12.7,31.5C350.1,104.5,312.5,114.8,310.5,107.4z"/>
<path class="st7" d="M330,104.1c-3.5,1-7,1.6-10.7,1.8l-5.1-29l15.5-4.2l10.4,27.5C336.9,101.9,333.5,103.2,330,104.1z"/>
<path class="st0" d="M265.6,110.8l2.6-11.9c1.2-5.8,6.9-9.4,12.7-8.2l0,0l2.6,0.6c1.4,0.3,2.3,1.7,2,3.1l0,0l-2.5,11.4
	c-1.1,5.3-6.4,8.6-11.6,7.5c0,0,0,0,0,0l0,0l-4.9-1c-0.7-0.1-1.1-0.8-1-1.5c0,0,0,0,0,0L265.6,110.8z"/>
<path class="st3" d="M281.2,103.5c-1.1,5.1-6.2,8.3-11.3,7.2l-1.9-0.4l1.9-8.8c1.2-5.7,6.8-9.3,12.5-8.1c0.5,0.1,0.8,0.6,0.7,1.1
	L281.2,103.5z"/>
<path class="st0" d="M287.8,83.7l-2.5,11.4c-0.3,1.4-1.7,2.3-3.1,2l0,0l-2.6-0.6c-5.8-1.2-9.4-6.9-8.2-12.7l0,0l2.6-11.9
	c0.1-0.7,0.8-1.1,1.5-1c0,0,0,0,0,0l4.8,1c5.3,1.1,8.7,6.3,7.5,11.6C287.8,83.6,287.8,83.6,287.8,83.7z"/>
<path class="st3" d="M285.1,85.1c1.1-5.1-2.2-10.2-7.3-11.3l-1.9-0.4l-1.8,8.8c-1.2,5.7,2.3,11.3,8,12.5c0.5,0.1,1-0.2,1.1-0.7
	L285.1,85.1z"/>
<linearGradient id="SVGID_1_" gradientUnits="userSpaceOnUse" x1="282.5978" y1="224.1588" x2="282.5978" y2="214.0288" gradientTransform="matrix(0.96 -0.26 0.26 0.96 -6.29 -61.41)">
	<stop  offset="0" style="stop-color:#000000;stop-opacity:0"/>
	<stop  offset="1" style="stop-color:#000000"/>
</linearGradient>
<path class="st8" d="M340.7,71.5l-36.9,10.1l-1.3-8.5c0-0.1,0-0.2,0-0.3c0-0.2,0-0.4,0-0.6c-0.1-0.2-0.1-0.4-0.2-0.7l34.6-9.5
	c0.1,0.2,0.1,0.4,0.2,0.7c0.1,0.2,0.1,0.3,0.2,0.5c0.1,0.1,0.1,0.2,0.1,0.3L340.7,71.5z"/>
<path class="st5" d="M351.6,55.1c0.5,1.9-0.7,3.7-2.5,4.2L292,74.9c-1.8,0.6-3.8-0.5-4.3-2.3l-11.2-33.4c-0.1-0.3-0.1-0.7-0.1-1
	c-0.4-1.7-0.7-3.5-0.8-5.2l0,0c-0.1-5.6,1.5-11.2,4.7-15.9c0.6-1,1.3-1.9,2-2.8c5-6,11.7-10.4,19.3-12.5h0.1l0.8-0.2
	c8-2.3,16.5-2,24.3,0.9c1.1,0.4,2.1,0.8,3.2,1.3c5,2.5,9.2,6.4,11.9,11.4c0.8,1.5,1.5,3.2,1.9,4.9c0,0.2,0.1,0.3,0.1,0.5
	c0,0.2,0,0.1,0.1,0.2L351.6,55.1z"/>
<path class="st5" d="M292.6,69.7c-4.9,1.3-9.9-1.5-11.2-6.4c-1.3-4.9,1.5-9.9,6.4-11.2c4.9-1.3,9.9,1.5,11.2,6.4c0,0,0,0,0,0l0,0
	C300.3,63.4,297.4,68.4,292.6,69.7z"/>
<path class="st5" d="M345,55.4c-4.9,1.3-9.9-1.5-11.2-6.4s1.5-9.9,6.4-11.2c4.9-1.3,9.9,1.5,11.2,6.4c0,0,0,0,0,0l0,0
	C352.7,49,349.8,54,345,55.4z"/>
<path class="st9" d="M349.4,52.4c0.3,2.4-1.1,4.6-3.3,5.5l-53,14.5c-2.2,0-4.1-1.3-4.9-3.3l-0.4-1.9l-10.5-29.3v-0.1
	c0-0.1,0-0.1,0-0.2v-0.4l-0.1-0.4c-1.8-6.9-0.2-14.3,4.5-20.8c5.2-6.9,12.5-11.9,20.9-14c18-4.9,35.8,2.8,39.7,17.3l0.1,0.4v0.5
	l6,30l0,0L349.4,52.4z"/>
<ellipse transform="matrix(0.9652 -0.2614 0.2614 0.9652 -6.1199 77.5833)" class="st9" cx="288.6" cy="61.8" rx="7.9" ry="7.9"/>
<ellipse transform="matrix(0.9646 -0.2639 0.2639 0.9646 -0.1537 92.0545)" class="st9" cx="342.6" cy="46.6" rx="7.9" ry="7.9"/>
<path class="st10" d="M295.4,63.3c1.1-3.3-0.6-6.9-3.9-8.1c-3.3-1.1-6.9,0.6-8.1,3.9c-1.1,3.3,0.6,6.9,3.9,8.1
	c0.2,0.1,0.5,0.1,0.7,0.2l0.3,0.1l0.2-0.2c0.5-0.7,1.1-1.2,1.7-1.7c0.3-0.2,0.6-0.4,0.9-0.6c1.2-0.7,2.5-1.2,3.9-1.3h0.3L295.4,63.3
	z"/>
<path class="st11" d="M286.4,56.6c2.8-1.7,6.4-0.8,8.1,1.9c0.9,1.5,1.1,3.3,0.5,5c-1.5,0.1-2.9,0.6-4.1,1.4
	c-0.3,0.2-0.6,0.4-0.9,0.6c-0.7,0.5-1.3,1.1-1.8,1.8c-3.2-0.7-5.2-3.8-4.5-7C284.1,58.8,285,57.4,286.4,56.6z"/>
<path class="st12" d="M284.5,64.7c0.8,1.4,2.2,2.3,3.8,2.7c0.5-0.7,1.1-1.3,1.8-1.8l3.7-7.9c-2.2-2.4-5.9-2.5-8.3-0.3
	C283.4,59.2,283,62.3,284.5,64.7z"/>
<path class="st13" d="M287.9,66.5c0.4-0.5,0.9-1,1.5-1.4l3.4-7.3c-2.1-1.8-5.4-1.5-7.2,0.6c-1.4,1.7-1.6,4-0.5,5.9
	C285.8,65.3,286.8,66.1,287.9,66.5z"/>
<path class="st14" d="M287,62.4c0.5-0.4,0.8-0.9,0.7-1.1s-0.4-0.2-0.8-0.1c0-2.4,2.1-4.4,4.5-4.3c0.8,0,1.7,0.3,2.4,0.7
	c1.5,1.6,2,3.9,1.3,5.9c-1.5,0.1-2.9,0.6-4.1,1.4c-0.3,0.2-0.6,0.4-0.9,0.6C288.5,65.1,287.4,63.9,287,62.4L287,62.4z"/>
<path class="st15" d="M294.6,63c0.5-1.7,0-3.6-1.2-4.9c-1.2-0.8-2.8-0.8-4.1,0c-0.9,0.6-0.2,6.6,0.6,6.9c0.2-0.2,0.5-0.3,0.7-0.5
	C291.8,63.7,293.2,63.2,294.6,63z"/>
<path class="st10" d="M295.4,63.6c-2.7,0.3-5.3,1.7-7,3.8l-0.1-0.1c0.8-1,1.8-1.8,2.9-2.5c1.3-0.8,2.8-1.3,4.3-1.4L295.4,63.6z"/>
<path class="st16" d="M288.4,58.5c0.2,0,0.2,0.5,0.2,0.7c-0.1,0.8,0,1.7,0.1,2.5c0.2,0.5,0.4,2.1,0.5,2.5c0.1,0.4-0.2,0.4-0.2,0.4
	s-0.9-0.8-1-1.2c-0.1-0.4,0-0.9,0.1-1.3c0.1-0.4,0.1-0.8,0-1.2c-0.3-0.4-0.3-0.9-0.2-1.4C288.1,59,288.1,58.6,288.4,58.5z"/>
<ellipse transform="matrix(0.8525 -0.5228 0.5228 0.8525 11.0544 161.2815)" class="st17" cx="291.3" cy="61.1" rx="3" ry="3"/>
<g class="st18">
	<ellipse transform="matrix(0.853 -0.5219 0.5219 0.853 9.4052 159.6915)" class="st7" cx="288.2" cy="63.1" rx="1" ry="1"/>
</g>
<g class="st19">
	<ellipse transform="matrix(0.853 -0.5219 0.5219 0.853 9.6602 160.6418)" class="st7" cx="290" cy="63.2" rx="0.5" ry="0.5"/>
</g>
<ellipse transform="matrix(0.8813 -0.4726 0.4726 0.8813 15.3752 169.9728)" class="st20" cx="346" cy="54.4" rx="2.7" ry="2"/>
<ellipse transform="matrix(0.9991 -4.205003e-02 4.205003e-02 0.9991 -2.6453 12.3587)" class="st20" cx="292.5" cy="69.1" rx="2.7" ry="2.1"/>
<path class="st10" d="M339.1,50.9c-2.5-2.4-2.6-6.4-0.2-9c2.4-2.5,6.4-2.6,9-0.2c2.5,2.4,2.6,6.4,0.2,9c-0.2,0.2-0.4,0.3-0.5,0.5
	l-0.2,0.2l-0.3-0.1c-0.7-0.4-1.5-0.6-2.3-0.8c-0.3-0.1-0.7-0.1-1-0.1c-1.4-0.1-2.7,0.1-4,0.6l-0.3,0.1L339.1,50.9z"/>
<path class="st11" d="M344,40.8c-3.2-0.2-6,2.2-6.3,5.4c-0.1,1.8,0.5,3.5,1.8,4.7c1.4-0.5,2.8-0.8,4.3-0.7c0.4,0,0.7,0.1,1.1,0.1
	c0.8,0.2,1.7,0.4,2.4,0.8c2.5-2.1,2.8-5.8,0.8-8.3C347.1,41.7,345.6,40.9,344,40.8L344,40.8z"/>
<path class="st12" d="M349.4,47.1c-0.1,1.6-0.9,3.1-2.1,4.1c-0.8-0.4-1.6-0.6-2.4-0.8l-7-5.3c0.9-3.1,4.1-4.9,7.2-4.1
	C347.8,41.8,349.6,44.3,349.4,47.1L349.4,47.1z"/>
<path class="st13" d="M347.1,50.2c-0.6-0.3-1.3-0.5-2-0.6l-6.3-4.9c1.1-2.6,4.1-3.8,6.7-2.7c2,0.8,3.2,2.8,3.1,5
	C348.5,48.2,348,49.4,347.1,50.2z"/>
<path class="st14" d="M346.1,46.2c-0.7-0.1-1.1-0.4-1.1-0.7s0.3-0.4,0.7-0.5c-1.2-2.1-3.9-2.9-6-1.8c-0.7,0.4-1.4,1-1.8,1.8
	c-0.6,2.1,0,4.3,1.6,5.8c1.4-0.5,2.8-0.8,4.3-0.7c0.4,0,0.7,0.1,1.1,0.1C346,49.3,346.5,47.8,346.1,46.2L346.1,46.2z"/>
<path class="st15" d="M339.7,50.2c-1.2-1.3-1.7-3.2-1.2-4.9c0.7-1.3,2.2-2,3.6-1.9c1.1,0.1,3.2,5.8,2.6,6.4c-0.3,0-0.5-0.1-0.8-0.1
	C342.5,49.5,341,49.7,339.7,50.2z"/>
<path class="st10" d="M339.3,51.1c2.6-1,5.5-1,8,0.1l0.1-0.2c-1.2-0.5-2.4-0.8-3.7-0.9c-1.5-0.1-3,0.2-4.5,0.7L339.3,51.1z"/>
<path class="st16" d="M343.1,43.4c-0.2,0.1,0.1,0.5,0.1,0.7c0.4,0.7,0.8,1.4,1.1,2.2c0.1,0.5,0.6,2.1,0.7,2.5s0.4,0.2,0.4,0.2
	c0.2-0.5,0.3-1,0.4-1.5c-0.1-0.4-0.4-0.8-0.7-1.1c-0.2-0.2-0.6-0.7-0.6-1.1c0.1-0.5-0.1-1-0.5-1.3C343.6,43.7,343.4,43.4,343.1,43.4
	z"/>
<ellipse transform="matrix(7.184566e-02 -0.9974 0.9974 7.184566e-02 270.2996 384.4684)" class="st17" cx="341.7" cy="47" rx="3" ry="3"/>
<g class="st18">
	
		<ellipse transform="matrix(7.184566e-02 -0.9974 0.9974 7.184566e-02 272.4018 387.3024)" class="st7" cx="344.3" cy="47.3" rx="1" ry="1"/>
</g>
<g class="st19">
	
		<ellipse transform="matrix(7.184566e-02 -0.9974 0.9974 7.184566e-02 270.0946 386.4969)" class="st7" cx="342.7" cy="48.1" rx="0.5" ry="0.5"/>
</g>
<ellipse transform="matrix(0.9646 -0.2639 0.2639 0.9646 3.8817 82.6167)" class="st5" cx="309.5" cy="26.9" rx="31.7" ry="22.7"/>
<ellipse transform="matrix(0.9646 -0.2639 0.2639 0.9646 4.1827 82.4903)" class="st4" cx="309.2" cy="25.7" rx="29.4" ry="20.6"/>
<ellipse transform="matrix(0.9646 -0.2639 0.2639 0.9646 5.4913 82.0114)" class="st21" cx="308" cy="20.6" rx="22.3" ry="11.6"/>
<path class="st22" d="M293.7,65.9c4.4-0.2,8.8-0.3,13.1-0.8c1.1-0.1,2.1-0.3,3.2-0.5c0.3-0.1,0.5-0.1,0.8-0.2l0.4-0.1l0.4-0.1
	c0.5-0.2,1-0.3,1.5-0.5s1-0.4,1.5-0.6s1-0.4,1.6-0.6s1.1-0.3,1.6-0.5s1.1-0.3,1.6-0.4s1.1-0.2,1.7-0.2s1.1-0.1,1.6-0.2
	s1.1-0.2,1.6-0.3c0.5-0.1,1-0.3,1.5-0.4c2-0.7,4.1-1.6,6.1-2.4s4-1.7,6-2.7c1-0.5,2-0.9,3-1.4c0.5-0.2,1-0.5,1.5-0.8
	c0.5-0.3,1-0.5,1.4-0.8c-0.8,0.7-1.7,1.4-2.7,1.9c-0.9,0.6-1.9,1.1-2.9,1.7c-1.9,1.1-3.9,2.1-5.9,3c-1,0.5-2,0.9-3,1.4
	s-2,0.9-3.1,1.3c-0.5,0.2-1.1,0.4-1.6,0.5c-0.5,0.1-1.1,0.2-1.6,0.3s-1.1,0.2-1.6,0.2s-1.1,0.1-1.6,0.2s-1,0.2-1.6,0.3
	s-1,0.3-1.5,0.4s-1,0.4-1.5,0.6s-1,0.4-1.6,0.6l-1.6,0.5l-0.4,0.1l-0.2,0.1l-0.2,0.1l-0.8,0.2c-1.1,0.2-2.2,0.3-3.3,0.4
	c-2.2,0.1-4.4,0.1-6.6,0.1S295.9,66.1,293.7,65.9z"/>
<path class="st23" d="M290.1,47.4c3.8,2.2,8,3.5,12.4,4c2.2,0.2,4.3,0.3,6.5,0.1c2.2-0.2,4.3-0.5,6.4-1.1c2.1-0.5,4.1-1.3,6.1-2.2
	l1.5-0.7l1.4-0.8l1.4-0.8L327,45c3.6-2.5,6.6-5.7,9-9.4c-2.1,3.9-5,7.3-8.5,10c-1.8,1.3-3.7,2.5-5.7,3.5c-2,1-4.1,1.7-6.3,2.3
	c-2.2,0.6-4.4,0.9-6.6,1.1c-2.2,0.1-4.5,0-6.7-0.3C297.9,51.5,293.7,49.9,290.1,47.4z"/>
<path class="st23" d="M289.1,46.7c3.9,2,8.2,3.2,12.6,3.4c2.2,0.1,4.4,0,6.5-0.2c2.2-0.3,4.3-0.7,6.4-1.3c2.1-0.6,4.2-1.3,6.2-2.2
	c2-0.9,3.9-1.9,5.8-3.1c3.7-2.3,7.1-5.3,9.9-8.7c-2.5,3.7-5.7,6.9-9.4,9.4c-0.5,0.3-0.9,0.6-1.4,0.9s-1,0.6-1.5,0.8l-0.7,0.4
	l-0.8,0.4l-0.8,0.4l-0.8,0.3c-2,0.9-4.1,1.7-6.3,2.3c-2.2,0.6-4.4,1-6.6,1.2c-2.2,0.2-4.5,0.3-6.7,0.1c-2.2-0.2-4.4-0.6-6.6-1.3
	C293,48.9,291,48,289.1,46.7z"/>
<path class="st0" d="M289.9,47.3c1.9,1,3.9,1.8,6,2.4c2.1,0.6,4.2,0.9,6.3,1.1c2.1,0.2,4.3,0.1,6.4-0.1c2.1-0.2,4.2-0.6,6.3-1.2
	c2.1-0.6,4.1-1.3,6-2.2c2-0.9,3.8-1.9,5.6-3.1c3.6-2.4,6.8-5.3,9.5-8.7c-2.4,3.7-5.4,6.8-9,9.3l-1.4,0.9l-1.4,0.8l-1.4,0.8l-1.5,0.7
	c-2,0.9-4.1,1.7-6.2,2.3c-2.1,0.6-4.3,1-6.5,1.2c-2.2,0.2-4.4,0.2-6.6-0.1c-2.2-0.2-4.3-0.7-6.4-1.4
	C293.6,49.4,291.7,48.4,289.9,47.3z"/>
<ellipse transform="matrix(0.9646 -0.2639 0.2639 0.9646 -2.807 85.2771)" class="st5" cx="316" cy="53.1" rx="19.7" ry="1.6"/>
<rect y="109" class="st24" width="631.5" height="277.5"/>
<rect x="7.7" y="117.5" class="st7" width="610.7" height="261.9"/>
<path class="st25" d="M443.8,104l-3.4,20.6l-4.8-1.2c0,0-0.8,2.2-1.2,2.4c-0.4,1,0,4.8,0,4.8l-1.2,4.8c0,0-9.6,25.2-18,30l-14.4-12
	c-8.4-4.8-25.2-10.8-30.7-11.6H245c-2.8,0.9-29.5,6-29.5,6l-4.9-0.6l-14.5-13.7l-1.9-19v-6l-0.1-0.2c-0.5-1.6-4-12.8-6.1-17.7
	l-0.5-1l0.4-1.1c0.7-2,2.8-8.3,2.8-8.3h0.2l91.7-0.8l87.5-0.8l21.4-0.2l23.8-0.2l10.6,1.9L443.8,104z"/>
<polygon class="st26" points="190.5,85.2 197,103.4 198.6,126.4 211.4,138.2 244.6,132.8 371,132.8 402,146.2 416.4,157 
	430.4,132.8 431.2,117.8 438,121 439.2,104.2 426,81.4 413.3,79.3 "/>
<path class="st24" d="M408.2,78.5l-0.2,1.4l16.5,16c0,0,10.4,6.7,11.8,8.7c-0.3,2.2-0.9,4.3-1.9,6.3l-0.9,0.2l-6.7,3.5l-1.4,11.4
	c0.2,1.4,0.3,2.8,0.3,4.3c-0.9,8.8-8.1,24.4-24.2,13.3l0,0c-6.6-3.3-17.5-7.8-27.3-15l-1.4-1H243.8l-0.8,0.2
	c-5,1.6-27.6,5.6-27.6,5.6l-2.5-0.2l-9.6-9l-1.1-14.7v-6.3c0,0-3.9-13.4-6-18.1c0.5-1.5,1.1-2.6,1.7-4.8L408.2,78.5z"/>
<line class="st27" x1="414.7" y1="80.2" x2="344.6" y2="77.8"/>
<line class="st27" x1="190.8" y1="80.9" x2="191.6" y2="78.5"/>
<polygon class="st25" points="194.2,107.6 234,103.6 306.3,100.3 233.4,106.2 194.1,113.5 "/>
<polygon class="st25" points="433.4,118 400.2,112 394.1,110.9 322.3,101.8 394.5,113.6 433.1,123.9 "/>
<polygon class="st25" points="399.9,106.6 394.5,100.2 402,106.6 402.6,113.7 399.9,113 "/>
<path class="st28" d="M378.4,77"/>
<path class="st28" d="M223.2,80.2l-31.3,0.7l-1.3,4.3l6.4,18.2l0.3,4l29.4-3.1c0,0-27.6,2.3-28.1,1.7s0-3.2-0.5-3.8
	s-7-17.1-6.4-17.7c0.7-1,1.6-1.7,2.7-2.1C195.9,82,223.2,80.2,223.2,80.2z"/>
<polygon class="st28" points="232.4,106.5 197.6,112.8 198.6,126.4 211.4,138.2 244.6,132.8 271.6,132.8 244.6,131.2 212.5,136.1 
	200.7,125.3 198.6,113.6 "/>
<polygon class="st28" points="439.2,104.2 424.8,85 414.4,83.6 411.5,83.2 382.9,80.1 373.2,79 377,78.9 385.5,78.7 391.7,78.5 
	415.2,77.8 426,80.2 "/>
<polygon class="st28" points="438,121 431.2,117.8 402.6,113 402,106.6 394.5,100.2 402.6,106.6 403.1,112.5 431,116.8 "/>
<path class="st28" d="M382.6,111.7l11.9,1.9l37.5,6.3l-1.6,13c0,0-1.1-7.5-1.6-7.5s-34.3-10.7-34.3-10.7L382.6,111.7z"/>
<polygon class="st28" points="323,132.8 371,132.8 400.8,147.4 416.4,157 402,146.2 371.5,129.6 "/>
<g class="st19">
	<ellipse transform="matrix(0.9901 -0.14 0.14 0.9901 -13.9067 33.972)" class="st29" cx="234.5" cy="115.8" rx="14.4" ry="3.5"/>
</g>
<ellipse transform="matrix(8.263423e-02 -0.9966 0.9966 8.263423e-02 286.2516 499.5609)" class="st30" cx="414.5" cy="94.3" rx="3.5" ry="6.2"/>
<ellipse transform="matrix(8.263423e-02 -0.9966 0.9966 8.263423e-02 287.6309 513.0223)" class="st29" cx="422.5" cy="100.3" rx="1.4" ry="2.5"/>
<ellipse transform="matrix(8.263423e-02 -0.9966 0.9966 8.263423e-02 278.0811 507.6267)" class="st29" cx="414.8" cy="102.8" rx="2" ry="3.6"/>
<path class="st31" d="M290.6,89.4c0,0,72.3-2.1,80.9-1.1s24.7,5.9,24.7,5.9l-21.4-2.7L290.6,89.4z"/>
<radialGradient id="SVGID_2_" cx="355.64" cy="497.52" r="37.3556" gradientTransform="matrix(1 0 0 1 -12.23 -406.34)" gradientUnits="userSpaceOnUse">
	<stop  offset="0" style="stop-color:#B87F50;stop-opacity:0.3"/>
	<stop  offset="0.22" style="stop-color:#CAA687;stop-opacity:0.17"/>
	<stop  offset="0.46" style="stop-color:#D8C5B2;stop-opacity:8.000000e-02"/>
	<stop  offset="0.71" style="stop-color:#E0D7CC;stop-opacity:2.000000e-02"/>
	<stop  offset="1" style="stop-color:#E3DDD4;stop-opacity:0"/>
</radialGradient>
<path class="st32" d="M371.5,88.2c-7.5-0.9-64.5,0.6-78,1l-2.9,0.1v0.3l3.4,0.1l80.7,2l21.4,2.8v-0.3C396,94.1,380,89.3,371.5,88.2z
	 M374.7,91.4l-78.7-2c16.9-0.5,68.4-1.8,75.5-0.9c6.8,0.8,18.5,4.1,22.9,5.4L374.7,91.4z"/>
<g class="st33">
	<path class="st31" d="M313.1,122.6c0,0-72.3-2.1-80.9-1.1s-24.7,5.9-24.7,5.9l21.4-2.7L313.1,122.6z"/>
	
		<radialGradient id="SVGID_3_" cx="1015.2701" cy="530.7218" r="37.4058" gradientTransform="matrix(-1 0 0 1 1275.7001 -406.34)" gradientUnits="userSpaceOnUse">
		<stop  offset="0" style="stop-color:#B87F50;stop-opacity:0.3"/>
		<stop  offset="0.22" style="stop-color:#CAA687;stop-opacity:0.17"/>
		<stop  offset="0.46" style="stop-color:#D8C5B2;stop-opacity:8.000000e-02"/>
		<stop  offset="0.71" style="stop-color:#E0D7CC;stop-opacity:2.000000e-02"/>
		<stop  offset="1" style="stop-color:#E3DDD4;stop-opacity:0"/>
	</radialGradient>
	<path class="st34" d="M311.1,122.4c-11.9-0.3-71.1-2-78.8-1c-8.5,1.1-24.5,5.8-24.7,5.9l0.1,0.3l21.4-2.7l82.1-2.1h2v-0.3
		L311.1,122.4z M209.5,127.1c4.4-1.3,16.1-4.5,22.9-5.4c1.7-0.2,5.9-0.3,11.6-0.3c18.1,0,51,0.9,63.8,1.2l-78.7,2L209.5,127.1z"/>
</g>
<g class="st35">
	<path class="st31" d="M402,137.1c0,0-12.3-2.7-13.4-4.8s-1.1-10.2,1.1-11.2s23,2.1,25.7,3.8c2.7,1.6,5.4,4.8,5.4,5.9
		s-5.4,4.3-5.4,4.3s2.1-2.1,1.6-4.3c-0.5-2.4-2.4-4.3-4.8-4.8c-2.7-0.5-17.7-3.8-19.3-2.7c0,0-3.2,4.3-1.6,7s11.8,5.9,13.4,4.8
		s2.7-2.1,1.1-4.3s-10.7-2.1-10.7-2.1h12.3c0,0,2.7,3.2,2.1,4.3s-1.1,4.3-2.7,4.8S402,137.1,402,137.1z"/>
	
		<linearGradient id="SVGID_4_" gradientUnits="userSpaceOnUse" x1="400.0123" y1="535.6603" x2="433.15" y2="535.6603" gradientTransform="matrix(1 0 0 1 -12.23 -406.34)">
		<stop  offset="0" style="stop-color:#B87F50;stop-opacity:0.3"/>
		<stop  offset="0.22" style="stop-color:#CAA687;stop-opacity:0.17"/>
		<stop  offset="0.46" style="stop-color:#D8C5B2;stop-opacity:8.000000e-02"/>
		<stop  offset="0.71" style="stop-color:#E0D7CC;stop-opacity:2.000000e-02"/>
		<stop  offset="1" style="stop-color:#E3DDD4;stop-opacity:0"/>
	</linearGradient>
	<path class="st36" d="M415.5,124.7c-1.4-0.9-7.6-2.1-13.1-2.9s-11.5-1.4-12.7-0.9c-1.4,0.7-1.7,4-1.8,5.4c-0.2,2.1,0,4.1,0.7,6.1
		c1.1,2.2,12.9,4.8,13.5,4.9c1.2,0.4,2.5,0.6,3.7,0.7c0.4,0,0.8,0,1.2-0.2c1.2-0.4,1.9-2.3,2.3-3.7c0.1-0.4,0.3-0.8,0.4-1.2
		c0.6-1.1-1.9-4.1-2.2-4.4h-12.4v0.3c0.1,0,9,0,10.6,2.1c0.5,0.6,0.8,1.3,0.7,2.1c-0.1,0.8-0.8,1.3-1.8,2c-0.4,0.3-1.8,0.2-3.6-0.2
		c-3.8-0.9-8.6-2.9-9.6-4.6c-1.5-2.5,1.3-6.5,1.6-6.8c1-0.6,7.1,0.2,18.2,2.5l1,0.2c2.3,0.5,4.2,2.4,4.7,4.7c0.5,2-1.5,4.1-1.6,4.1
		l-0.8,0.8l1-0.6c0.6-0.3,5.4-3.3,5.4-4.4S418.2,126.3,415.5,124.7z M416.1,134.4c0.9-1,1.3-2.4,1.1-3.7c-0.6-2.5-2.5-4.4-4.9-4.9
		l-1-0.2c-7.2-1.5-17-3.4-18.4-2.4l0,0c-0.1,0.2-3.2,4.4-1.6,7.1c1.1,1.8,5.9,3.9,9.8,4.7c1.1,0.2,3.1,0.6,3.8,0.1
		c1-0.7,1.8-1.3,1.9-2.2c0.1-0.8-0.2-1.7-0.8-2.3c-0.8-1.1-3.4-1.6-5.8-1.9h7.2c0.8,0.9,2.5,3.3,2.1,4.1c-0.2,0.4-0.3,0.8-0.5,1.2
		c-0.4,1.3-1,3.1-2.1,3.5c-1.5,0.5-4.7-0.5-4.7-0.5l0,0c0,0-3.1-0.7-6.3-1.6c-5.3-1.5-6.7-2.5-7-3.1c-0.6-1.9-0.9-4-0.7-6
		c0.2-2.8,0.8-4.7,1.7-5.1c0.6-0.2,1.1-0.2,1.7-0.2c5.5,0,21.4,2.5,23.8,3.9c2.7,1.7,5.2,4.9,5.2,5.9
		C420.6,131.3,418.1,133.1,416.1,134.4L416.1,134.4z"/>
</g>
<path class="st37" d="M443.8,104l-3.4,20.6l-4.8-1.2c0,0-0.8,2.2-1.2,2.4c-0.4,1,0,4.8,0,4.8l-1.2,4.8c0,0-9.6,25.2-18,30l-14.4-12
	c-8.4-4.8-25.2-10.8-30.7-11.6h-54.5l-2.1-9l-1.2-5.4l-1.1-4.6v-0.4l-5.1-21.8l-0.4-0.3l0,0L294,89.7l-0.2-0.2l-0.2-0.2l-0.1-0.1
	l-7.2-6.6l-3.4-3.1l-0.1-0.1l87.5-0.8l21.4-0.2l23.5-0.7l10.8,2.4L443.8,104z"/>
<text transform="matrix(1 0 0 1 236.41 127.03)" class="st38 st39 st40">Tutorial</text>
<g class="st41">
	<path class="st42" d="M255.8,99.6l-5,0.6v23.6l-11.9,1.5l0.6-24l-5.5,0.5l0.3-10.3l22.7-1.9L255.8,99.6z"/>
	<path class="st42" d="M271.1,120.9L271.1,120.9c-0.6,1.5-1.5,2.6-2.7,3.3c-1.2,0.6-2.6,1-4.2,1c-2.1,0-3.8-0.6-5.1-1.9
		c-1.3-1.2-2-3.1-2-5.4v-17.6l9.4-0.8l-0.3,15.5c0,0.7,0.1,1.2,0.4,1.4c0.3,0.3,0.8,0.4,1.5,0.4c0.6,0,1-0.1,1.4-0.4
		c0.4-0.3,0.5-0.8,0.5-1.4l-0.3-14.8l9.7-0.8l-0.6,25l-7.7,0.3V120.9z"/>
	<path class="st42" d="M293.2,125c-0.4,0-0.8,0-1.3,0c-2.7,0-4.8-0.6-6.3-1.8c-1.5-1.2-2.2-3.2-2.2-5.9v-10l-2.3,0l0.3-7.3h2v-2.8
		l9.1-4.1v6.9l3.4-0.5l-0.5,7.7h-2.9v7.3c0,0.8,0.1,1.4,0.4,1.7c0.2,0.3,0.8,0.4,1.6,0.4c0.4,0,0.7,0,0.9,0c0.2,0,0.4-0.1,0.6-0.1
		l-1.5,8.3C294.1,125,293.7,125,293.2,125z"/>
	<path class="st42" d="M322.2,115.6c-0.5,1.7-1.2,3.1-2.2,4.4c-1,1.3-2.3,2.3-3.8,3.1c-1.5,0.8-3.2,1.4-5.1,1.6
		c-1.9,0.3-3.7,0.2-5.4-0.2c-1.7-0.4-3.2-1-4.6-2c-1.3-0.9-2.5-2.1-3.4-3.6c-0.9-1.5-1.5-3.2-1.7-5.1c-0.3-1.9-0.2-3.7,0.3-5.4
		c0.5-1.7,1.2-3.1,2.2-4.4c1-1.3,2.3-2.3,3.8-3.2c1.5-0.8,3.2-1.4,5.1-1.6c1.9-0.3,3.7-0.2,5.4,0.2c1.7,0.4,3.2,1,4.6,2
		c1.3,0.9,2.5,2.1,3.4,3.6c0.9,1.5,1.5,3.2,1.8,5.1C322.7,112.1,322.6,113.9,322.2,115.6z M307.1,115.9c1,0.3,2.2,0.2,3.5-0.3
		c1.3-0.6,2.2-1.3,2.7-2.3c0.5-1,0.5-2,0.1-3.1c-0.5-1.1-1.2-1.8-2.3-2.1c-1-0.3-2.2-0.2-3.5,0.3c-1.3,0.6-2.2,1.3-2.7,2.3
		c-0.5,1-0.5,2-0.1,3.1C305.3,114.8,306.1,115.6,307.1,115.9z"/>
	<path class="st42" d="M331.9,99.5v4.7h0.1c0.7-3.1,2.8-4.7,6.3-4.7c0.8,0,1.5,0,2.1,0.1l-2.2,8.9c-0.2,0-0.4,0-0.6,0
		c-0.2,0-0.5,0-0.8,0c-1.2,0-2.2,0.4-3,1.2c-0.9,0.8-1.3,2-1.3,3.6v10.8l-8.8,0.8l-0.3-24.6L331.9,99.5z"/>
	<path class="st42" d="M341.4,90.2l9.6-0.4l-0.5,7.4l-9.2,0.7L341.4,90.2z M341.4,100.8l9.4-0.8l-0.5,24.2l-8.9,0.8V100.8z"/>
	<path class="st42" d="M367.2,121.8L367.2,121.8c-0.8,1.1-1.8,1.8-3,2.2s-2.4,0.6-3.8,0.6c-1.1,0-2.2-0.2-3.2-0.6
		c-1-0.4-1.9-1-2.6-1.7c-0.8-0.8-1.4-1.7-1.8-2.7c-0.4-1.1-0.7-2.3-0.7-3.6c0-1.1,0.2-2.2,0.7-3.2s1.1-1.8,1.8-2.5
		c0.8-0.7,1.7-1.3,2.7-1.7c1-0.4,2.2-0.6,3.4-0.6c1.3,0,2.4,0.2,3.3,0.6c0.9,0.4,1.6,0.8,2.2,1.3v-1.3c0-1.3-0.4-2.1-1.3-2.6
		c-0.8-0.4-1.9-0.6-3.3-0.6c-1.2,0-2.4,0.1-3.4,0.4c-1.1,0.3-2.1,0.5-3.2,0.9l1.6-6.7c1.3-0.4,2.7-0.7,4.2-0.8s2.9-0.2,4.5-0.2
		c1.4,0,2.7,0.2,4,0.5c1.3,0.3,2.5,0.8,3.5,1.6c1,0.7,1.8,1.7,2.4,2.8c0.6,1.1,0.9,2.6,0.8,4.2l-0.5,15.9l-8.4,0.7V121.8z
		 M359.5,115c-0.6,0.5-0.9,1.1-0.8,1.7c0.1,0.6,0.5,1.1,1.2,1.4c0.7,0.3,1.6,0.4,2.7,0.2c1.1-0.2,1.9-0.5,2.4-1
		c0.5-0.5,0.7-1.1,0.6-1.7c-0.1-0.5-0.4-1-1.1-1.4c-0.6-0.4-1.5-0.5-2.7-0.3C360.9,114.1,360.2,114.5,359.5,115z"/>
	<path class="st42" d="M379.4,91.2l9.5-0.8l-0.4,33.8l-8.8,0.8L379.4,91.2z"/>
</g>
<text transform="matrix(1 0 0 1 352.51 250.96)" class="st43 st39 st44">Good</text>
<text transform="matrix(1 0 0 1 260.56 253.02)" class="st45 st39 st46">Bad</text>
<polygon class="st45" points="261.4,291.3 282.9,268.3 278.1,263.8 256.6,286.8 251,281.5 245.7,304.4 268.2,297.6 "/>
<polygon class="st43" points="403,284.1 381.6,261.1 386.4,256.6 407.9,279.5 413.5,274.3 418.8,297.2 396.3,290.4 "/>
<path class="st47" d="M178.8,361.6c-27,0-48.8-21.9-48.8-48.8c0-27,21.9-48.8,48.8-48.8s48.8,21.9,48.8,48.8l0,0
	C227.6,339.7,205.8,361.5,178.8,361.6z"/>
<circle class="st48" cx="178.8" cy="312.7" r="42.2"/>
<path class="st49" d="M203.3,291.1l-1,0.5l-0.5-1c-0.1-0.2-0.3-0.3-0.5-0.2c-0.2,0.1-0.3,0.3-0.2,0.5l0.5,1l-1,0.5
	c-0.2,0.1-0.3,0.3-0.2,0.5c0.1,0.2,0.3,0.3,0.5,0.2l0,0l1-0.5l0.5,1c0.1,0.2,0.3,0.3,0.5,0.2c0.2-0.1,0.3-0.3,0.2-0.5l-0.5-1l1-0.5
	c0.2-0.1,0.3-0.3,0.2-0.5C203.7,291.1,203.5,291,203.3,291.1z"/>
<path class="st49" d="M183.2,347.7l-1.8,0.2l-0.2-1.8c0-0.3-0.4-0.6-0.7-0.5c-0.3,0-0.6,0.4-0.5,0.7l0.2,1.8l-1.8,0.2
	c-0.3,0-0.6,0.4-0.5,0.7s0.4,0.6,0.7,0.5l1.8-0.2l0.2,1.8c0,0.3,0.4,0.6,0.7,0.5c0.3,0,0.6-0.4,0.5-0.7l-0.2-1.8l1.8-0.2
	c0.3,0,0.6-0.4,0.5-0.7S183.5,347.7,183.2,347.7L183.2,347.7z"/>
<path class="st49" d="M158.8,283.3l-1.8,0.2l-0.2-1.8c0-0.3-0.4-0.6-0.7-0.5c-0.3,0-0.6,0.4-0.5,0.7l0,0l0.2,1.8l-1.8,0.2
	c-0.3,0-0.6,0.4-0.5,0.7s0.4,0.6,0.7,0.5l0,0l1.8-0.2l0.2,1.8c0,0.3,0.4,0.6,0.7,0.5c0.3,0,0.6-0.4,0.5-0.7l-0.2-1.8l1.8-0.2
	c0.3,0,0.6-0.4,0.5-0.7S159.1,283.3,158.8,283.3z"/>
<path class="st49" d="M212.2,330.3c-0.6-2.6-2.4-4.5-5.6-5.5c2.9-0.4,4.7-2.4,5.6-5.5c0.5,2.8,2.7,5,5.6,5.5
	C214.3,325.6,212.2,327.3,212.2,330.3z"/>
<path class="st49" d="M152.3,334.8c-1-4.7-4.2-8-9.9-9.9c5.2-0.6,8.3-4.2,9.9-9.9c1.2,5.4,4.7,8.6,9.9,9.9
	C156,326.4,152.3,329.4,152.3,334.8z"/>
<path class="st50" d="M151.9,288.5c0,0,13.1-2.2,15.8,5.4c3,4.1,2,5.3,2,5.3l-5.1-1.8C158.9,297.4,153.9,293.8,151.9,288.5z"/>
<path class="st50" d="M206.3,289c0,0-13.1-2.2-15.8,5.4c-3,4.1-2,5.3-2,5.3l5.1-1.8C199.3,297.9,204.4,294.4,206.3,289z"/>
<path class="st50" d="M179.3,288.6c0,0-13.4,0.4-16.8,15.1c-0.7,3.3-2.1,8-1.2,13.3c-1.7,2-10.2,12.6,0.9,19.2s28.5,7.4,36.1-1.3
	s1.4-15.5-1.2-17.5c0.7-4.4,0.4-8.9-0.7-13.1C194.7,297.7,187.7,288.8,179.3,288.6z"/>
<path class="st50" d="M189.4,318.7c0,2.8-3.6,5.3-9.5,5.3s-10.7-2.3-10.7-5.1s4.1-5.7,10.1-5.7S189.4,316,189.4,318.7z"/>
<ellipse class="st50" cx="172.6" cy="304" rx="2.1" ry="4.2"/>
<ellipse class="st50" cx="186.1" cy="304" rx="2.1" ry="4.2"/>
<ellipse class="st50" cx="175.2" cy="317.3" rx="3.7" ry="1.8"/>
<ellipse class="st50" cx="186.4" cy="305.1" rx="1.4" ry="2.8"/>
<ellipse class="st50" cx="172.8" cy="305.1" rx="1.4" ry="2.8"/>
<ellipse class="st50" cx="173.1" cy="306.1" rx="0.9" ry="1.7"/>
<ellipse class="st50" cx="186.6" cy="306.1" rx="0.9" ry="1.7"/>
<path class="st50" d="M206.1,289c0,0-13.1-2.2-15.8,5.4c-3,4.1-2,5.3-2,5.3l5.1-1.8C199.2,297.9,204.2,294.4,206.1,289z"/>
<path class="st50" d="M181.3,341.3c6.8,0,13.1-2,16.9-6.4c7.6-8.7,1.4-15.5-1.2-17.5c0.7-4.4,0.4-8.9-0.7-13.1
	c-1.8-6.6-8.8-15.5-17.2-15.6"/>
<path class="st50" d="M180.2,313.1c5.4,0.3,9.2,2.9,9.2,5.5s-3.3,5.1-8.8,5.2"/>
<ellipse class="st50" cx="186" cy="304" rx="2.1" ry="4.2"/>
<ellipse class="st50" cx="186.4" cy="305.1" rx="1.4" ry="2.8"/>
<ellipse class="st50" cx="186.5" cy="306.1" rx="0.9" ry="1.7"/>
<path class="st51" d="M150.8,288.5c0,0,13.1-2.2,15.8,5.4c3,4.1,2,5.3,2,5.3l-5.1-1.8C157.8,297.4,152.7,293.8,150.8,288.5z"/>
<path class="st51" d="M205.1,289c0,0-13.1-2.2-15.8,5.4c-3,4.1-2,5.3-2,5.3l5.1-1.8C198.2,297.9,203.2,294.4,205.1,289z"/>
<path class="st52" d="M178.1,288.6c0,0-13.4,0.4-16.8,15.1c-0.7,3.3-2.1,8-1.2,13.3c-1.7,2-10.2,12.6,0.9,19.2s28.5,7.4,36.1-1.3
	s1.4-15.5-1.2-17.5c0.7-4.4,0.4-8.9-0.7-13.1C193.5,297.7,186.6,288.8,178.1,288.6z"/>
<path class="st53" d="M188.3,318.7c0,2.8-3.6,5.3-9.5,5.3s-10.7-2.3-10.7-5.1s4.1-5.7,10.1-5.7S188.3,316,188.3,318.7z"/>
<ellipse class="st54" cx="171.4" cy="304" rx="2.1" ry="4.2"/>
<ellipse class="st54" cx="185" cy="304" rx="2.1" ry="4.2"/>
<ellipse class="st55" cx="174.1" cy="317.3" rx="3.7" ry="1.8"/>
<ellipse class="st56" cx="185.3" cy="305.1" rx="1.4" ry="2.8"/>
<ellipse class="st56" cx="171.7" cy="305.1" rx="1.4" ry="2.8"/>
<ellipse cx="171.9" cy="306.1" rx="0.9" ry="1.7"/>
<ellipse cx="185.5" cy="306.1" rx="0.9" ry="1.7"/>
<path class="st57" d="M205,289c0,0-13.1-2.2-15.8,5.4c-3,4.1-2,5.3-2,5.3l5.1-1.8C198.1,297.9,203.1,294.4,205,289z"/>
<path class="st51" d="M180.1,341.3c6.8,0,13.1-2,16.9-6.4c7.6-8.7,1.4-15.5-1.2-17.5c0.7-4.4,0.4-8.9-0.7-13.1
	c-1.8-6.6-8.8-15.5-17.2-15.6"/>
<path class="st57" d="M179.1,313.1c5.4,0.3,9.2,2.9,9.2,5.5s-3.3,5.1-8.8,5.2"/>
<ellipse class="st54" cx="184.9" cy="304" rx="2.1" ry="4.2"/>
<ellipse class="st58" cx="185.2" cy="305.1" rx="1.4" ry="2.8"/>
<ellipse cx="185.4" cy="306.1" rx="0.9" ry="1.7"/>
<path class="st59" d="M512.7,360.8c-30.9,0-56-25.1-56-56s25.1-56,56-56s56,25.1,56,56C568.6,335.7,543.6,360.7,512.7,360.8z"/>
<circle class="st60" cx="512.7" cy="304.8" r="48.4"/>
<path class="st61" d="M540.8,280l-1.2,0.6l-0.6-1.2c-0.1-0.2-0.4-0.3-0.6-0.1c-0.2,0.1-0.3,0.3-0.2,0.5l0.6,1.2l-1.2,0.6
	c-0.2,0.1-0.4,0.3-0.3,0.6c0.1,0.2,0.3,0.4,0.6,0.3c0,0,0.1,0,0.1,0l1.2-0.6l0.6,1.2c0.1,0.2,0.4,0.3,0.6,0.1
	c0.2-0.1,0.3-0.3,0.2-0.5l-0.6-1.2l1.2-0.6c0.2-0.1,0.4-0.3,0.3-0.6C541.3,280,541.1,279.9,540.8,280C540.8,280,540.8,280,540.8,280
	z"/>
<path class="st61" d="M517.7,344.9l-2,0.3l-0.3-2c-0.1-0.4-0.5-0.6-0.8-0.5c-0.3,0.1-0.5,0.4-0.5,0.7l0.3,2l-2,0.3
	c-0.4,0-0.7,0.3-0.7,0.7c0,0.4,0.3,0.7,0.7,0.7c0.1,0,0.1,0,0.2,0l2-0.3l0.3,2c0.1,0.4,0.5,0.6,0.8,0.5c0.3-0.1,0.5-0.4,0.5-0.7
	l-0.3-2l2-0.3c0.4,0,0.7-0.3,0.7-0.7c0-0.4-0.3-0.7-0.7-0.7C517.8,344.9,517.8,344.9,517.7,344.9z"/>
<path class="st61" d="M489.7,271l-2,0.3l-0.3-2c-0.1-0.4-0.5-0.6-0.8-0.5c-0.3,0.1-0.5,0.4-0.5,0.7l0.3,2l-2,0.3
	c-0.4,0-0.7,0.3-0.7,0.7c0,0.4,0.3,0.7,0.7,0.7c0.1,0,0.1,0,0.2,0l2-0.3l0.3,2c0.1,0.4,0.5,0.6,0.8,0.5c0.3-0.1,0.5-0.4,0.5-0.7
	l-0.3-2l2-0.3c0.4,0,0.7-0.3,0.7-0.7c0-0.4-0.3-0.7-0.7-0.7C489.8,271,489.8,271,489.7,271z"/>
<path class="st61" d="M551.1,325c-0.7-3-2.7-5.2-6.4-6.4c3.4-0.4,5.4-2.7,6.4-6.4c0.6,3.2,3.1,5.8,6.4,6.4
	C553.5,319.6,551,321.5,551.1,325z"/>
<path class="st61" d="M482.3,330.1c-1.2-5.4-4.9-9.2-11.3-11.3c6-0.7,9.5-4.8,11.3-11.3c1.4,6.2,5.4,9.8,11.3,11.3
	C486.5,320.4,482.3,323.9,482.3,330.1z"/>
<path class="st62" d="M513.3,279.6l2.6-1.9c0,0-0.6,12.2,2.8,15.8c2.1,2.3-1.3,3.7-4.1,4.5"/>
<path class="st62" d="M514.6,297.9c-1,0.3-2,0.5-3,0.6c0,0,0.5-11.4-2.5-15.9l4.2-3.1"/>
<path class="st63" d="M543.6,310.2c-0.1,11.1-11.3,22.6-26.5,22.6c-16.2,0-32.4-9-32.4-22.6c0-12.1,4.4-19.9,13.4-20.3
	c4-1.1,16,2.1,16,2.1c0.4,0,10.1-3.4,16.2-1.6C536.9,292.2,543.7,298.5,543.6,310.2z"/>
<path class="st63" d="M514.2,292c0.4,0,10.1-3.4,16.2-1.6c6.4,1.8,13.3,8.1,13.2,19.9c-0.1,11.1-11.3,22.6-26.5,22.6"/>
<path class="st64" d="M512.5,280.4l2.6-1.9c0,0-0.6,12.2,2.8,15.8c2.1,2.3-1.3,3.7-4.1,4.5"/>
<path class="st65" d="M513.8,298.7c-1,0.3-2,0.5-3,0.6c0,0,0.5-11.4-2.5-15.9l4.2-3.1"/>
<path class="st66" d="M542.8,311.1c-0.1,11.1-11.3,22.6-26.5,22.6c-16.2,0-32.4-9-32.4-22.6c0-12.1,4.4-19.9,13.4-20.3
	c4-1.1,16,2.1,16,2.1c0.4,0,10.1-3.4,16.2-1.6C536,293,542.9,299.3,542.8,311.1z"/>
<path class="st67" d="M513.4,292.8c0.4,0,10.1-3.4,16.2-1.6c6.4,1.8,13.3,8.1,13.2,19.9c-0.1,11.1-11.3,22.6-26.5,22.6"/>
<path class="st68" d="M70.2,318.4c-28.5,0-51.5-23.1-51.5-51.5s23.1-51.5,51.5-51.5s51.5,23.1,51.5,51.5
	C121.7,295.3,98.7,318.4,70.2,318.4z"/>
<circle class="st69" cx="70.2" cy="266.9" r="44.5"/>
<path class="st70" d="M96.1,244.1l-1.1,0.5l-0.5-1.1c-0.1-0.2-0.4-0.3-0.6-0.2c-0.2,0.1-0.3,0.4-0.2,0.6l0,0l0.5,1.1l-1.1,0.5
	c-0.2,0.1-0.3,0.3-0.2,0.6s0.3,0.3,0.6,0.2l0,0l1.1-0.5l0.5,1.1c0.1,0.2,0.4,0.3,0.6,0.2c0.2-0.1,0.3-0.4,0.2-0.6l0,0l-0.5-1.1
	l1.1-0.5c0.2-0.1,0.3-0.3,0.2-0.6S96.3,244,96.1,244.1z"/>
<path class="st70" d="M74.9,303.8L73,304l-0.2-1.8c0-0.4-0.4-0.6-0.7-0.5c-0.4,0-0.6,0.4-0.5,0.7l0.2,1.9l-1.8,0.2
	c-0.4,0-0.6,0.4-0.5,0.7c0,0.4,0.4,0.6,0.7,0.5l1.8-0.2l0.2,1.9c0,0.4,0.4,0.6,0.7,0.6c0.4,0,0.6-0.4,0.6-0.7l-0.2-1.9l1.8-0.2
	c0.4,0,0.6-0.4,0.5-0.7C75.6,304,75.2,303.8,74.9,303.8L74.9,303.8L74.9,303.8z"/>
<path class="st70" d="M49.1,235.8l-1.8,0.2l-0.3-1.9c0-0.4-0.4-0.6-0.7-0.6c-0.4,0-0.6,0.4-0.6,0.7l0.2,1.9l-1.8,0.3
	c-0.4,0-0.6,0.4-0.6,0.7s0.4,0.6,0.7,0.6l1.8-0.2l0.2,1.9c0,0.4,0.4,0.6,0.7,0.6c0.4,0,0.6-0.4,0.6-0.7l-0.2-1.9l1.8-0.2
	c0.4,0,0.6-0.4,0.6-0.7S49.5,235.8,49.1,235.8L49.1,235.8L49.1,235.8z"/>
<path class="st70" d="M105.5,285.5c-0.6-2.8-2.5-4.8-5.9-5.9c3.1-0.4,5-2.5,5.9-5.9c0.6,3,2.9,5.3,5.9,5.9
	C107.7,280.5,105.5,282.3,105.5,285.5z"/>
<path class="st70" d="M42.3,290.2c-1.1-4.9-4.5-8.4-10.4-10.4c5.5-0.7,8.8-4.4,10.4-10.4c1.3,5.7,4.9,9,10.4,10.4
	C46.1,281.3,42.2,284.5,42.3,290.2z"/>
<path class="st71" d="M49.4,245.3c0,0-2,0-2,3.1s3.5,20.4,1.2,21.8s-4.4,4.4-1.4,6.6s0.7,7,1,9.3s-2.5,3.6,1,5.6s35.4-1.7,36.8-1
	s2.3-7.9,2-8.2c-0.2-1.5,0.4-3,1.6-4c1.5-1-1.2-11.2-1.2-12.7s-0.5-12.9-1.1-13.7s-1.9-1.8-1.3-1.9s0.6-5.2,0.1-5.8
	s-2.1-5.7-2.2-6.4s-2.4,0.6-2.7,0.6s-1.4-0.9-2.2-0.1s-2.7,1.8-3.2,1.3s-0.3-0.7-0.8-1.3s-3.9-1-4.8-0.9s-3.9,0.6-4.6,1
	s-1.3,2.2-1.7,1.4s0.9-1.2-1.7-1.7s-4.1-1.3-3,0.4s-1.4-0.2-1.7,0.3s-1.6,1.2-1.5,2.2s-1.3-0.2-2.2-0.2s-1.9,0.9-1.9,1.5
	s-0.9,0.5-1.4,0.9S51.1,245.3,49.4,245.3z"/>
<path class="st72" d="M49.7,245.8c0,0-2,0-2,3.1s3.5,20.4,1.2,21.8s-4.4,4.4-1.4,6.6s0.7,7,1,9.3s-2.5,3.6,1,5.6s35.4-1.7,36.8-1
	s2.3-7.9,2-8.2c-0.2-1.5,0.4-3,1.6-4c1.5-1-1.2-11.2-1.2-12.7s-0.5-12.9-1.1-13.7s-1.9-1.8-1.3-1.9s0.6-5.2,0.1-5.8
	s-2.1-5.7-2.2-6.4s-2.4,0.6-2.7,0.6s-1.4-0.9-2.2-0.1s-2.7,1.8-3.2,1.3s-0.3-0.7-0.8-1.3s-3.9-1-4.8-0.9s-3.9,0.6-4.6,1
	s-1.3,2.2-1.7,1.4s0.9-1.2-1.7-1.7s-4.1-1.3-3,0.4s-1.4-0.2-1.7,0.3s-1.6,1.2-1.5,2.2s-1.3-0.2-2.2-0.2s-1.9,0.9-1.9,1.5
	s-0.9,0.5-1.4,0.9S51.5,245.8,49.7,245.8z"/>
<path class="st57" d="M49.4,246.4c0,0-2,0-2,3.1c0,3.1,3.5,20.4,1.2,21.8s-4.4,4.4-1.4,6.6s0.7,7,1,9.3s-2.5,3.6,1,5.6
	s35.4-1.7,36.8-1s2.3-7.9,2-8.2c-0.2-1.5,0.4-3,1.6-4c1.5-1-1.2-11.2-1.2-12.7s-0.5-12.9-1.1-13.7s-1.9-1.8-1.3-1.9s0.6-5.2,0.1-5.8
	s-2.1-5.7-2.2-6.4s-2.4,0.6-2.7,0.6s-1.4-0.9-2.2-0.1s-2.7,1.8-3.2,1.3s-0.3-0.7-0.8-1.3s-3.9-1-4.8-0.9s-3.9,0.6-4.6,1
	s-1.3,2.2-1.7,1.4s0.9-1.2-1.7-1.7s-4.1-1.3-3,0.4s-1.4-0.2-1.7,0.3s-1.6,1.2-1.5,2.2s-1.3-0.2-2.2-0.2s-1.9,0.9-1.9,1.5
	s-0.9,0.5-1.4,0.9S51.1,246.4,49.4,246.4z"/>
<path class="st73" d="M57.6,263c0,0-2.1,1.6-0.2,5.2s-1.2,8.8-0.9,10.8s1,5,1,5s3.8,4.5,3.4,2.2s-1.3-4.6-0.3-6.8s2.6-4.5,1.8-9.1
	S61.3,263,57.6,263z"/>
<path class="st74" d="M63.8,246.6c0,0,2,6.7,1.8,8.7c-0.3,1.7-0.8,3.4-1.5,5.1c0,0,5.3-4.2,4.1-7.3C66.9,250,66.5,246.8,63.8,246.6z
	"/>
<path class="st75" d="M77.6,250.2c0,0,1,6,1.8,9.1s0,2.8,0.5,5s2.3,0.5,2.4-2.6s2.2-1,2.4-3.5c0.2-2.5,1-3.8-0.4-4s-1.8,0.1-2.4-2.1
	s-0.2-2.2-1.3-2.8s-1.6-1.5-1.9-0.6S78.2,251,77.6,250.2z"/>
<path class="st73" d="M69.7,272.3c0,0,3,1,2.4,2.6s-0.7,1.8-0.7,2.6S71.2,281,72,280s1.5-1,1.8-2.6s0.9-2.3,1.1-2.1s0.3,2.5,0.6,3.1
	s-1.2,3.1-1.2,3.4s-1.2,2.6-0.9,2.9c0.8,0.3,1.8-0.2,2-1c0-0.1,0.1-0.2,0.1-0.4c0-1.4,0-3.9,0.4-4.6s1,0.2,1-2.3s1.8-2.8,1.6-3.8
	s-1.9-4.3-2.1-5s0.4-2.2-0.6-3.3s-0.3-0.8-2.4-2.5s-2.4-5.7-2.6-1.9s2.2,8.7,2.2,9.1S69.7,272.3,69.7,272.3z"/>
<path class="st75" d="M57.1,265.2c0,0-3,0.5-2.5,3.2s-3.4,6-3.4,6.5s0.3,6.2,0.3,6.2s-0.7,1.1,0.5-1.9c0.9-2,2-3.8,3.4-5.5
	c0.3-0.5-0.3-3,1.1-5.1S57.1,265.2,57.1,265.2z"/>
<path class="st76" d="M49.3,260.7c0,0,1,1.1,2.2,0.7s1.7,1.2,1.7,1.8s-1.5,2.2-1.5,2.2l-1.8,0.1C49.5,263.9,49.3,262.3,49.3,260.7z"
	/>
<path class="st75" d="M55.4,243.3c0,0-1.1-0.4-0.7,3c0.4,2.2,0.3,4.5-0.3,6.7c-0.3,0.9-1.3,2.5-1.3,3.6c0,1,1.5,4.7,1.6,2
	c0.1-2.7,0.2-3.1,0.3-4.4c0.2-1.5,0.6-2.9,1.2-4.2C56.7,248.7,57.6,240.7,55.4,243.3z"/>
<path class="st73" d="M74.3,241c0.3,1.2,0.6,2.4,1,3.5c0.5,1,0.8,2.2,0.8,3.3c0,1.6,1,1.2,1.3,0.4s1.5-2,0.4-2.3s-1.3,0-1.3-1
	s0.4-1.9-0.2-2.2s-1-0.2-1-0.6S75.2,239.4,74.3,241z"/>
<path class="st27" d="M79.2,271.4c-0.9,0.7-1.3,1.9-1,3c0.6,1.8-1,4.2,0.6,2.6s1.2-1.2,0.9-3.1S79.6,271.4,79.2,271.4z"/>
<path class="st76" d="M85.3,280.7c0.3,0.5,0.5,1.1,0.5,1.8c0,0.4-0.5,3.1,0.4,2.3c0.8-0.5,1.2-1.4,1-2.4c0-1.2-1.8-2.9-2-2
	L85.3,280.7z"/>
<path class="st75" d="M63.4,288.7c2.1-0.3,3.3-0.6,3.6-0.4s2,1.2,0.6,1.2s-1.9,1-3.2,1.1s-4.5,1-3.8,0
	C61.4,289.9,62.4,289.2,63.4,288.7z"/>
<g class="st77">
	<path class="st78" d="M88.3,265.9c0-1.5-0.5-12.9-1.1-13.7s-1.9-1.8-1.3-1.9s0.6-5.2,0.1-5.8s-2.1-5.7-2.2-6.4s-2.4,0.6-2.7,0.6
		s-1.4-0.9-2.2-0.1s-2.7,1.8-3.2,1.3s-0.3-0.7-0.8-1.3s-3.9-1-4.8-0.9c-0.6,0.1-2.2,0.4-3.4,0.6c-1,17.8-0.6,35.6,1,53.4
		c8.8-0.6,17.6-1.4,18.3-1c1.3,0.7,2.3-7.9,2-8.2c-0.2-1.5,0.4-3,1.6-4C91.1,277.6,88.3,267.3,88.3,265.9z"/>
	<path class="st79" d="M88.6,266.4c0-1.5-0.5-12.9-1.1-13.7s-1.9-1.8-1.3-1.9s0.6-5.2,0.1-5.8s-2.1-5.7-2.2-6.4s-2.4,0.6-2.7,0.6
		s-1.4-0.9-2.2-0.1s-2.7,1.8-3.2,1.3s-0.3-0.7-0.8-1.3s-3.9-1-4.8-0.9c-0.7,0.1-2.5,0.4-3.7,0.7c-0.9,17.8-0.5,35.6,1.1,53.3
		c8.9-0.6,17.8-1.4,18.5-1c1.3,0.7,2.3-7.9,2-8.2c-0.2-1.5,0.4-3,1.6-4C91.3,278.1,88.6,267.9,88.6,266.4z"/>
	<path class="st80" d="M88.3,267c0-1.5-0.5-12.9-1.1-13.7s-1.9-1.8-1.3-1.9s0.6-5.2,0.1-5.8s-2.1-5.7-2.2-6.4s-2.4,0.6-2.7,0.6
		s-1.4-0.9-2.2-0.1s-2.7,1.8-3.2,1.3s-0.3-0.7-0.8-1.3s-3.9-1-4.8-0.9c-0.6,0.1-2.3,0.4-3.5,0.7c-0.9,17.8-0.5,35.6,1.2,53.4
		c8.8-0.6,17.5-1.4,18.2-1c1.3,0.7,2.3-7.9,2-8.2c-0.2-1.5,0.4-3,1.6-4C91.1,278.7,88.3,268.5,88.3,267z"/>
	<path class="st81" d="M68.1,253.1c-0.5-1.6-1.1-3.1-1.8-4.6c-0.1,3.3-0.1,6.5-0.1,9.8C67.5,256.8,68.8,254.8,68.1,253.1z"/>
	<path class="st82" d="M77.5,250.2c0,0,1,6,1.8,9.1s0,2.8,0.5,5s2.3,0.5,2.4-2.6s2.2-1,2.4-3.5c0.2-2.5,1-3.8-0.4-4
		s-1.8,0.1-2.4-2.1s-0.2-2.2-1.3-2.8s-1.6-1.5-1.9-0.6S78.2,251,77.5,250.2z"/>
	<path class="st83" d="M69.7,272.3c0,0,3,1,2.4,2.6s-0.7,1.8-0.7,2.6s-0.3,3.4,0.5,2.5s1.5-1,1.8-2.6s0.9-2.3,1.1-2.1
		s0.3,2.5,0.6,3.1s-1.2,3.1-1.2,3.4s-1.2,2.6-0.9,2.9c0.8,0.3,1.8-0.2,2-1c0-0.1,0.1-0.2,0.1-0.4c0-1.4,0-3.9,0.4-4.6s1,0.2,1-2.3
		s1.8-2.8,1.6-3.8s-1.9-4.3-2.1-5s0.4-2.2-0.6-3.3s-0.3-0.8-2.4-2.5s-2.4-5.7-2.6-1.9s2.2,8.7,2.2,9.1S69.7,272.3,69.7,272.3z"/>
	<path class="st83" d="M74.3,240.9c0.3,1.2,0.6,2.4,1,3.5c0.5,1,0.8,2.2,0.8,3.3c0,1.6,1,1.2,1.3,0.4s1.5-2,0.4-2.3s-1.3,0-1.3-1
		s0.4-1.9-0.2-2.2s-1-0.2-1-0.6S75.1,239.4,74.3,240.9z"/>
	<path class="st27" d="M79.1,271.4c-0.9,0.7-1.3,1.9-1,3c0.6,1.8-1,4.2,0.6,2.6s1.2-1.2,0.9-3.1S79.5,271.4,79.1,271.4z"/>
	<path class="st84" d="M85.3,280.7c0.3,0.5,0.5,1.1,0.5,1.8c0,0.4-0.5,3.1,0.4,2.3c0.8-0.5,1.2-1.4,1-2.4c0-1.2-1.8-2.9-2-2
		L85.3,280.7z"/>
	<path class="st75" d="M67.4,288.7l0.1,0.9l0,0C68.6,289.6,68,289.1,67.4,288.7z"/>
</g>
<g>
	<path d="M172.6,171.7l3.5,7.2l3.5-7.2h2.5v11.2h-2l0-8l-3.3,6.9h-1.4l-3.3-6.9v8h-2v-11.2H172.6z"/>
	<path d="M189.8,182.9v-1c-0.6,0.8-1.6,1.1-2.8,1.1c-1.8,0-3-1.1-3-2.7c0-1.6,1.2-2.6,3.2-2.6h2.5v-0.2c0-1-0.7-1.6-1.9-1.6
		c-0.8,0-1.7,0.3-2.5,0.8l-0.8-1.4c1.2-0.7,2.2-1.1,3.8-1.1c2.2,0,3.5,1.1,3.5,3l0,5.6H189.8z M189.8,180v-0.8h-2.2
		c-1.1,0-1.6,0.3-1.6,1.1c0,0.7,0.6,1.2,1.5,1.2C188.7,181.4,189.7,180.8,189.8,180z"/>
	<path d="M197.6,179.2l-1.3,1.4v2.4h-2.1v-11.9h2.1v6.9l3.5-3.6h2.4l-3.2,3.3l3.4,5.2H200L197.6,179.2z"/>
	<path d="M211.1,179.4h-6.3c0.3,1.2,1.2,2,2.4,2c0.9,0,1.7-0.3,2.3-1l1.1,1.2c-0.8,0.9-2.1,1.5-3.6,1.5c-2.7,0-4.4-1.8-4.4-4.3
		c0-2.6,1.8-4.4,4.4-4.4C210,174.3,211.3,176.3,211.1,179.4z M209.2,178c0-1.3-0.9-2.1-2.2-2.1c-1.2,0-2.1,0.8-2.3,2.1H209.2z"/>
	<path d="M220.3,175.9c-0.7,0-1.2,0.2-1.2,0.8c0,1.4,4.5,0.7,4.5,3.8c0,1.7-1.6,2.6-3.4,2.6c-1.3,0-2.6-0.4-3.5-1.2l0.7-1.5
		c0.8,0.7,2,1.1,2.9,1.1c0.7,0,1.3-0.2,1.3-0.8c0-1.6-4.5-0.7-4.4-3.8c0-1.8,1.5-2.6,3.2-2.6c1.1,0,2.3,0.3,3.1,0.9l-0.8,1.5
		C221.9,176.2,221,175.9,220.3,175.9z"/>
	<path d="M233.3,174.4v8.6h-2.1v-1.6c-0.6,1.1-1.6,1.7-3,1.7c-1.9,0-3.1-1.3-3.1-3.3v-5.4h2.1v4.8c0,1.2,0.7,1.9,1.8,1.9
		c1.3,0,2.1-1.1,2.1-2.4v-4.2H233.3z"/>
	<path d="M240.9,174.3v2c-1.8-0.1-2.9,0.9-2.9,2.5v4.1h-2.1v-8.6h2.1v1.6C238.6,174.9,239.6,174.3,240.9,174.3z"/>
	<path d="M250,179.4h-6.3c0.3,1.2,1.2,2,2.4,2c0.9,0,1.7-0.3,2.3-1l1.1,1.2c-0.8,0.9-2.1,1.5-3.6,1.5c-2.7,0-4.4-1.8-4.4-4.3
		c0-2.6,1.8-4.4,4.4-4.4C248.9,174.3,250.2,176.3,250,179.4z M248.1,178c0-1.3-0.9-2.1-2.2-2.1c-1.2,0-2.1,0.8-2.3,2.1H248.1z"/>
	<path d="M261.6,182.4c-0.7,0.4-1.4,0.6-2.1,0.6c-1.4,0-2.5-0.8-2.5-2.6v-4.2h-1.2l0-1.5h1.2v-2.4h2.1v2.4h2.4v1.5H259v3.9
		c0,0.8,0.3,1.1,0.9,1.1c0.4,0,0.8-0.1,1.2-0.4L261.6,182.4z"/>
	<path d="M271.4,178.7c0,2.6-1.8,4.4-4.5,4.4c-2.7,0-4.5-1.8-4.5-4.4c0-2.6,1.8-4.3,4.5-4.3C269.6,174.3,271.4,176.1,271.4,178.7z
		 M264.5,178.7c0,1.5,1,2.6,2.4,2.6c1.4,0,2.4-1.1,2.4-2.6s-1-2.6-2.4-2.6C265.5,176.1,264.5,177.2,264.5,178.7z"/>
	<path d="M286.3,178.7c0,2.6-1.8,4.4-4.5,4.4c-2.7,0-4.5-1.8-4.5-4.4c0-2.6,1.8-4.3,4.5-4.3C284.5,174.3,286.3,176.1,286.3,178.7z
		 M279.3,178.7c0,1.5,1,2.6,2.4,2.6c1.4,0,2.4-1.1,2.4-2.6s-1-2.6-2.4-2.6C280.3,176.1,279.3,177.2,279.3,178.7z"/>
	<path d="M296.4,177.6v5.3h-2.1v-4.7c0-1.2-0.7-1.9-1.9-1.9c-1.4,0-2.2,1.1-2.2,2.5v4.2h-2.1v-8.6h2.1v1.6c0.6-1.1,1.7-1.7,3.1-1.7
		C295.2,174.3,296.4,175.6,296.4,177.6z"/>
	<path d="M300.9,171.1v11.9h-2.1v-11.9H300.9z"/>
	<path d="M304.3,186.1c-0.8,0-1.5-0.2-2.1-0.8l0.9-1.6c0.4,0.3,0.7,0.4,1.1,0.4c0.5,0,1-0.3,1.2-0.9l0.3-0.6l-3.5-8.4h2.2l2.4,6.2
		l2.2-6.2h2.1l-3.8,9.6C306.7,185.4,305.7,186.1,304.3,186.1z"/>
	<path d="M319.5,173.9v0.9h2.1v1.5h-2.1v6.7h-2.1v-6.7h-1.1v-1.5h1.1v-0.8c0-2,1.5-2.9,3-2.9c0.7,0,1.5,0.2,2,0.6l-0.8,1.6
		c-0.4-0.2-0.8-0.4-1.1-0.4C320,172.8,319.5,173.1,319.5,173.9z"/>
	<path d="M330.3,179.4h-6.3c0.3,1.2,1.2,2,2.4,2c0.9,0,1.7-0.3,2.3-1l1.1,1.2c-0.8,0.9-2.1,1.5-3.6,1.5c-2.7,0-4.4-1.8-4.4-4.3
		c0-2.6,1.8-4.4,4.4-4.4C329.2,174.3,330.5,176.3,330.3,179.4z M328.4,178c0-1.3-0.9-2.1-2.2-2.1c-1.2,0-2.1,0.8-2.3,2.1H328.4z"/>
	<path d="M339.7,179.4h-6.3c0.3,1.2,1.2,2,2.4,2c0.9,0,1.7-0.3,2.3-1l1.1,1.2c-0.8,0.9-2.1,1.5-3.6,1.5c-2.7,0-4.4-1.8-4.4-4.3
		c0-2.6,1.8-4.4,4.4-4.4C338.6,174.3,339.9,176.3,339.7,179.4z M337.8,178c0-1.3-0.9-2.1-2.2-2.1c-1.2,0-2.1,0.8-2.3,2.1H337.8z"/>
	<path d="M349.8,171.1v11.9h-2.1v-1.4c-0.6,0.9-1.6,1.5-2.9,1.5c-2.4,0-4.1-1.8-4.1-4.4c0-2.6,1.6-4.3,4-4.3c1.3,0,2.3,0.5,2.9,1.5
		v-4.7H349.8z M347.7,178.7c0-1.5-1-2.6-2.4-2.6c-1.4,0-2.4,1.1-2.4,2.6c0,1.5,1,2.6,2.4,2.6S347.7,180.2,347.7,178.7z"/>
	<path d="M362.3,182.4c-0.7,0.4-1.4,0.6-2.1,0.6c-1.4,0-2.5-0.8-2.5-2.6v-4.2h-1.2l0-1.5h1.2v-2.4h2.1v2.4h2.4v1.5h-2.4v3.9
		c0,0.8,0.3,1.1,0.9,1.1c0.4,0,0.8-0.1,1.2-0.4L362.3,182.4z"/>
	<path d="M372.3,177.6v5.3h-2.1v-4.7c0-1.2-0.7-1.9-1.9-1.9c-1.4,0-2.3,1.1-2.3,2.5v4.2H364v-11.9h2.1v4.9c0.6-1.2,1.7-1.7,3.1-1.7
		C371.1,174.3,372.3,175.6,372.3,177.6z"/>
	<path d="M382.3,179.4H376c0.3,1.2,1.2,2,2.4,2c0.9,0,1.7-0.3,2.3-1l1.1,1.2c-0.8,0.9-2.1,1.5-3.6,1.5c-2.7,0-4.4-1.8-4.4-4.3
		c0-2.6,1.8-4.4,4.4-4.4C381.2,174.3,382.5,176.3,382.3,179.4z M380.4,178c0-1.3-0.9-2.1-2.2-2.1c-1.2,0-2.1,0.8-2.3,2.1H380.4z"/>
	<path d="M394,182.9v-1c-0.6,0.8-1.6,1.1-2.8,1.1c-1.8,0-3-1.1-3-2.7c0-1.6,1.2-2.6,3.2-2.6h2.5v-0.2c0-1-0.7-1.6-1.9-1.6
		c-0.8,0-1.7,0.3-2.5,0.8l-0.8-1.4c1.2-0.7,2.2-1.1,3.8-1.1c2.2,0,3.5,1.1,3.5,3l0,5.6H394z M394,180v-0.8h-2.2
		c-1.1,0-1.6,0.3-1.6,1.1c0,0.7,0.6,1.2,1.5,1.2C392.9,181.4,393.9,180.8,394,180z"/>
	<path d="M406.7,177.6v5.3h-2.1v-4.7c0-1.2-0.7-1.9-1.9-1.9c-1.4,0-2.2,1.1-2.2,2.5v4.2h-2.1v-8.6h2.1v1.6c0.6-1.1,1.7-1.7,3.1-1.7
		C405.5,174.3,406.7,175.6,406.7,177.6z"/>
	<path d="M411.2,171.9c0,0.7-0.5,1.2-1.1,1.2s-1.1-0.5-1.1-1.2c0-0.7,0.5-1.2,1.1-1.2S411.2,171.3,411.2,171.9z M411.1,174.4v8.6
		H409v-8.6H411.1z"/>
	<path d="M428,177.6v5.3h-2.1v-4.7c0-1.2-0.7-2-1.9-2c-1.3,0-2.2,1.1-2.2,2.5v4.2h-2.1v-4.7c0-1.2-0.7-2-1.9-2
		c-1.4,0-2.2,1.1-2.2,2.5v4.2h-2.1v-8.6h2.1v1.6c0.6-1.1,1.6-1.6,3-1.7c1.5,0,2.5,0.8,2.9,2c0.6-1.4,1.7-2,3.2-2
		C426.8,174.3,428,175.6,428,177.6z"/>
	<path d="M435.4,182.9v-1c-0.6,0.8-1.6,1.1-2.8,1.1c-1.8,0-3-1.1-3-2.7c0-1.6,1.2-2.6,3.2-2.6h2.5v-0.2c0-1-0.7-1.6-1.9-1.6
		c-0.8,0-1.7,0.3-2.5,0.8l-0.8-1.4c1.2-0.7,2.2-1.1,3.8-1.1c2.2,0,3.5,1.1,3.5,3l0,5.6H435.4z M435.4,180v-0.8h-2.2
		c-1.1,0-1.6,0.3-1.6,1.1c0,0.7,0.6,1.2,1.5,1.2C434.3,181.4,435.3,180.8,435.4,180z"/>
	<path d="M441.9,171.1v11.9h-2.1v-11.9H441.9z"/>
	<path d="M447.2,175.9c-0.7,0-1.2,0.2-1.2,0.8c0,1.4,4.5,0.7,4.5,3.8c0,1.7-1.6,2.6-3.4,2.6c-1.3,0-2.6-0.4-3.5-1.2l0.7-1.5
		c0.8,0.7,2,1.1,2.9,1.1c0.7,0,1.3-0.2,1.3-0.8c0-1.6-4.5-0.7-4.5-3.8c0-1.8,1.5-2.6,3.2-2.6c1.1,0,2.3,0.3,3.1,0.9l-0.8,1.5
		C448.9,176.2,447.9,175.9,447.2,175.9z"/>
	<path d="M462.2,182.9v-1c-0.6,0.8-1.6,1.1-2.8,1.1c-1.8,0-3-1.1-3-2.7c0-1.6,1.2-2.6,3.2-2.6h2.5v-0.2c0-1-0.7-1.6-1.9-1.6
		c-0.8,0-1.7,0.3-2.5,0.8l-0.8-1.4c1.2-0.7,2.2-1.1,3.8-1.1c2.2,0,3.5,1.1,3.5,3l0,5.6H462.2z M462.2,180v-0.8H460
		c-1.1,0-1.6,0.3-1.6,1.1c0,0.7,0.6,1.2,1.5,1.2C461.1,181.4,462.1,180.8,462.2,180z"/>
	<path d="M475.7,178.7c0,2.6-1.6,4.3-4,4.3c-1.3,0-2.3-0.5-2.9-1.5v4.5h-2.1v-11.7h2.1v1.4c0.6-0.9,1.6-1.5,2.9-1.5
		C474,174.3,475.7,176.1,475.7,178.7z M473.5,178.6c0-1.5-1-2.6-2.4-2.6c-1.4,0-2.4,1.1-2.4,2.6c0,1.5,1,2.6,2.4,2.6
		C472.5,181.2,473.5,180.2,473.5,178.6z"/>
	<path d="M486.5,178.7c0,2.6-1.6,4.3-4,4.3c-1.3,0-2.3-0.5-2.9-1.5v4.5h-2.1v-11.7h2.1v1.4c0.6-0.9,1.6-1.5,2.9-1.5
		C484.9,174.3,486.5,176.1,486.5,178.7z M484.4,178.6c0-1.5-1-2.6-2.4-2.6c-1.4,0-2.4,1.1-2.4,2.6c0,1.5,1,2.6,2.4,2.6
		C483.4,181.2,484.4,180.2,484.4,178.6z"/>
	<path d="M490.5,171.1v11.9h-2.1v-11.9H490.5z"/>
	<path d="M500.9,179.4h-6.3c0.3,1.2,1.2,2,2.4,2c0.9,0,1.7-0.3,2.3-1l1.1,1.2c-0.8,0.9-2.1,1.5-3.6,1.5c-2.7,0-4.4-1.8-4.4-4.3
		c0-2.6,1.8-4.4,4.4-4.4C499.8,174.3,501.1,176.3,500.9,179.4z M499,178c0-1.3-0.9-2.1-2.2-2.1c-1.2,0-2.1,0.8-2.3,2.1H499z"/>
	<path d="M505.2,175.9c-0.7,0-1.2,0.2-1.2,0.8c0,1.4,4.5,0.7,4.5,3.8c0,1.7-1.6,2.6-3.4,2.6c-1.3,0-2.6-0.4-3.5-1.2l0.7-1.5
		c0.8,0.7,2,1.1,2.9,1.1c0.7,0,1.3-0.2,1.3-0.8c0-1.6-4.5-0.7-4.5-3.8c0-1.8,1.5-2.6,3.2-2.6c1.1,0,2.3,0.3,3.1,0.9l-0.8,1.5
		C506.9,176.2,506,175.9,505.2,175.9z"/>
	<path d="M512.1,181.9c0,0.7-0.5,1.2-1.1,1.2c-0.6,0-1.1-0.5-1.1-1.2s0.5-1.1,1.1-1.1C511.7,180.8,512.1,181.2,512.1,181.9z
		 M512,171.9v2.8l-0.4,4.7h-1.3l-0.4-4.7v-2.8H512z"/>
	<path d="M163.2,199.8h-5.5l-1,2.4h-2.2l4.9-11.2h2.2l4.8,11.2h-2.3L163.2,199.8z M162.5,197.9l-2-4.7l-2,4.7H162.5z"/>
	<path d="M176.1,196.8v5.3H174v-4.7c0-1.2-0.7-1.9-1.9-1.9c-1.4,0-2.2,1.1-2.2,2.5v4.2h-2.1v-8.6h2.1v1.6c0.6-1.1,1.7-1.7,3.1-1.7
		C174.9,193.5,176.1,194.8,176.1,196.8z"/>
	<path d="M179,205.3c-0.8,0-1.5-0.2-2.1-0.8l0.9-1.6c0.4,0.3,0.7,0.4,1.1,0.4c0.5,0,1-0.3,1.2-0.9l0.3-0.6l-3.5-8.4h2.2l2.4,6.2
		l2.2-6.2h2.1l-3.8,9.6C181.4,204.6,180.4,205.3,179,205.3z"/>
	<path d="M192,201.6c-0.7,0.4-1.4,0.6-2.1,0.6c-1.4,0-2.5-0.8-2.5-2.6v-4.2h-1.2l0-1.5h1.2v-2.4h2.1v2.4h2.4v1.5h-2.4v3.9
		c0,0.8,0.3,1.1,0.9,1.1c0.4,0,0.8-0.1,1.2-0.4L192,201.6z"/>
	<path d="M202,196.8v5.3h-2.1v-4.7c0-1.2-0.7-1.9-1.9-1.9c-1.4,0-2.3,1.1-2.3,2.5v4.2h-2.1v-11.9h2.1v4.9c0.6-1.2,1.7-1.7,3.1-1.7
		C200.8,193.5,202,194.8,202,196.8z"/>
	<path d="M206.5,191.1c0,0.7-0.5,1.2-1.1,1.2s-1.1-0.5-1.1-1.2c0-0.7,0.5-1.2,1.1-1.2S206.5,190.5,206.5,191.1z M206.4,193.6v8.6
		h-2.1v-8.6H206.4z"/>
	<path d="M217.3,196.8v5.3h-2.1v-4.7c0-1.2-0.7-1.9-1.9-1.9c-1.4,0-2.2,1.1-2.2,2.5v4.2H209v-8.6h2.1v1.6c0.6-1.1,1.7-1.7,3.1-1.7
		C216.1,193.5,217.3,194.8,217.3,196.8z"/>
	<path d="M227.5,193.6v7.7c0,2.4-1.8,4-4.5,4c-1.4,0-2.6-0.4-3.6-1.1l0.8-1.5c0.8,0.6,1.6,0.9,2.7,0.9c1.5,0,2.5-0.8,2.5-2.2v-1
		c-0.6,0.9-1.5,1.3-2.7,1.3c-2.3,0-3.8-1.7-3.8-4.1c0-2.4,1.5-4.1,3.7-4.1c1.2,0,2.2,0.5,2.8,1.3v-1.3H227.5z M225.4,197.6
		c0-1.4-0.9-2.4-2.3-2.4c-1.3,0-2.3,1-2.3,2.4c0,1.4,0.9,2.4,2.3,2.4C224.5,200.1,225.4,199.1,225.4,197.6z"/>
	<path d="M242.4,198.6h-6.3c0.3,1.2,1.2,2,2.4,2c0.9,0,1.7-0.3,2.3-1l1.1,1.2c-0.8,0.9-2.1,1.5-3.6,1.5c-2.7,0-4.4-1.8-4.4-4.3
		c0-2.6,1.8-4.4,4.4-4.4C241.3,193.5,242.6,195.5,242.4,198.6z M240.5,197.2c0-1.3-0.9-2.1-2.2-2.1c-1.2,0-2.1,0.8-2.3,2.1H240.5z"
		/>
	<path d="M246.4,190.3v11.9h-2.1v-11.9H246.4z"/>
	<path d="M251.6,195.1c-0.7,0-1.2,0.2-1.2,0.8c0,1.4,4.5,0.7,4.5,3.8c0,1.7-1.6,2.6-3.4,2.6c-1.3,0-2.6-0.4-3.5-1.2l0.7-1.5
		c0.8,0.7,2,1.1,2.9,1.1c0.7,0,1.3-0.2,1.3-0.8c0-1.6-4.5-0.7-4.4-3.8c0-1.8,1.5-2.6,3.2-2.6c1.1,0,2.3,0.3,3.1,0.9l-0.8,1.5
		C253.3,195.4,252.3,195.1,251.6,195.1z"/>
	<path d="M264.4,198.6h-6.3c0.3,1.2,1.2,2,2.4,2c0.9,0,1.7-0.3,2.3-1l1.1,1.2c-0.8,0.9-2.1,1.5-3.6,1.5c-2.7,0-4.4-1.8-4.4-4.3
		c0-2.6,1.8-4.4,4.4-4.4C263.3,193.5,264.6,195.5,264.4,198.6z M262.5,197.2c0-1.3-0.9-2.1-2.2-2.1c-1.2,0-2.1,0.8-2.3,2.1H262.5z"
		/>
	<path d="M271.8,193.6l2.1,6.5l2-6.5h2.1l2.1,6.5l2-6.5h2.1l-3.1,8.6H279l-2-6l-2,6h-2.1l-3.1-8.5L271.8,193.6z"/>
	<path d="M287.7,191.1c0,0.7-0.5,1.2-1.1,1.2s-1.1-0.5-1.1-1.2c0-0.7,0.5-1.2,1.1-1.2S287.7,190.5,287.7,191.1z M287.6,193.6v8.6
		h-2.1v-8.6H287.6z"/>
	<path d="M292.3,190.3v11.9h-2.1v-11.9H292.3z"/>
	<path d="M297.1,190.3v11.9h-2.1v-11.9H297.1z"/>
	<path d="M312.9,190.3v11.9h-2.1v-1.4c-0.6,0.9-1.6,1.5-2.9,1.5c-2.4,0-4.1-1.8-4.1-4.4c0-2.6,1.6-4.3,4-4.3c1.3,0,2.3,0.5,2.9,1.5
		v-4.7H312.9z M310.8,197.9c0-1.5-1-2.6-2.4-2.6c-1.4,0-2.4,1.1-2.4,2.6c0,1.5,1,2.6,2.4,2.6S310.8,199.4,310.8,197.9z"/>
	<path d="M323.2,198.6h-6.3c0.3,1.2,1.2,2,2.4,2c0.9,0,1.7-0.3,2.3-1l1.1,1.2c-0.8,0.9-2.1,1.5-3.6,1.5c-2.7,0-4.4-1.8-4.4-4.3
		c0-2.6,1.8-4.4,4.4-4.4C322.1,193.5,323.4,195.5,323.2,198.6z M321.3,197.2c0-1.3-0.9-2.1-2.2-2.1c-1.2,0-2.1,0.8-2.3,2.1H321.3z"
		/>
	<path d="M328.7,195.3c-1.4,0-2.3,1-2.3,2.5c0,1.5,1,2.6,2.3,2.6c1,0,1.8-0.3,2.3-1l1.3,1.1c-0.8,1.1-2,1.7-3.7,1.7
		c-2.6,0-4.3-1.8-4.3-4.3c0-2.6,1.8-4.4,4.4-4.4c1.6,0,2.8,0.6,3.6,1.6l-1.3,1.2C330.4,195.7,329.6,195.3,328.7,195.3z"/>
	<path d="M339,193.5v2c-1.8-0.1-2.9,0.9-2.9,2.5v4.1H334v-8.6h2.1v1.6C336.7,194.1,337.7,193.5,339,193.5z"/>
	<path d="M348.2,198.6h-6.3c0.3,1.2,1.2,2,2.4,2c0.9,0,1.7-0.3,2.3-1l1.1,1.2c-0.8,0.9-2.1,1.5-3.6,1.5c-2.7,0-4.4-1.8-4.4-4.3
		c0-2.6,1.8-4.4,4.4-4.4C347.1,193.5,348.4,195.5,348.2,198.6z M346.3,197.2c0-1.3-0.9-2.1-2.2-2.1c-1.2,0-2.1,0.8-2.3,2.1H346.3z"
		/>
	<path d="M355,202.1v-1c-0.6,0.8-1.6,1.1-2.8,1.1c-1.8,0-3-1.1-3-2.7c0-1.6,1.2-2.6,3.2-2.6h2.5v-0.2c0-1-0.7-1.6-1.9-1.6
		c-0.8,0-1.7,0.3-2.5,0.8l-0.8-1.4c1.2-0.7,2.2-1.1,3.8-1.1c2.2,0,3.5,1.1,3.5,3l0,5.6H355z M355,199.2v-0.8h-2.2
		c-1.1,0-1.6,0.3-1.6,1.1c0,0.7,0.6,1.2,1.5,1.2C353.9,200.6,354.9,200,355,199.2z"/>
	<path d="M362,195.1c-0.7,0-1.2,0.2-1.2,0.8c0,1.4,4.5,0.7,4.5,3.8c0,1.7-1.6,2.6-3.4,2.6c-1.3,0-2.6-0.4-3.5-1.2l0.7-1.5
		c0.8,0.7,2,1.1,2.9,1.1c0.7,0,1.3-0.2,1.3-0.8c0-1.6-4.5-0.7-4.5-3.8c0-1.8,1.5-2.6,3.2-2.6c1.1,0,2.3,0.3,3.1,0.9l-0.8,1.5
		C363.6,195.4,362.7,195.1,362,195.1z"/>
	<path d="M374.8,198.6h-6.3c0.3,1.2,1.2,2,2.4,2c0.9,0,1.7-0.3,2.3-1l1.1,1.2c-0.8,0.9-2.1,1.5-3.6,1.5c-2.7,0-4.4-1.8-4.4-4.3
		c0-2.6,1.8-4.4,4.4-4.4C373.7,193.5,375,195.5,374.8,198.6z M372.9,197.2c0-1.3-0.9-2.1-2.2-2.1c-1.2,0-2.1,0.8-2.3,2.1H372.9z"/>
	<path d="M390.5,197.9c0,2.6-1.6,4.3-4,4.3c-1.3,0-2.3-0.5-2.9-1.5v4.5h-2.1v-11.7h2.1v1.4c0.6-0.9,1.6-1.5,2.9-1.5
		C388.8,193.5,390.5,195.3,390.5,197.9z M388.4,197.8c0-1.5-1-2.6-2.4-2.6c-1.4,0-2.4,1.1-2.4,2.6c0,1.5,1,2.6,2.4,2.6
		C387.4,200.4,388.4,199.4,388.4,197.8z"/>
	<path d="M400.5,197.9c0,2.6-1.8,4.4-4.5,4.4c-2.7,0-4.5-1.8-4.5-4.4c0-2.6,1.8-4.3,4.5-4.3C398.7,193.5,400.5,195.3,400.5,197.9z
		 M393.6,197.9c0,1.5,1,2.6,2.4,2.6c1.4,0,2.4-1.1,2.4-2.6c0-1.5-1-2.6-2.4-2.6C394.6,195.3,393.6,196.4,393.6,197.9z"/>
	<path d="M404.5,191.1c0,0.7-0.5,1.2-1.1,1.2s-1.1-0.5-1.1-1.2c0-0.7,0.5-1.2,1.1-1.2S404.5,190.5,404.5,191.1z M404.4,193.6v8.6
		h-2.1v-8.6H404.4z"/>
	<path d="M415.3,196.8v5.3h-2.1v-4.7c0-1.2-0.7-1.9-1.9-1.9c-1.4,0-2.2,1.1-2.2,2.5v4.2H407v-8.6h2.1v1.6c0.6-1.1,1.7-1.7,3.1-1.7
		C414.1,193.5,415.3,194.8,415.3,196.8z"/>
	<path d="M422.6,201.6c-0.7,0.4-1.4,0.6-2.1,0.6c-1.4,0-2.5-0.8-2.5-2.6v-4.2h-1.2l0-1.5h1.2v-2.4h2.1v2.4h2.4v1.5h-2.4v3.9
		c0,0.8,0.3,1.1,0.9,1.1c0.4,0,0.8-0.1,1.2-0.4L422.6,201.6z"/>
	<path d="M426.8,195.1c-0.7,0-1.2,0.2-1.2,0.8c0,1.4,4.5,0.7,4.5,3.8c0,1.7-1.6,2.6-3.4,2.6c-1.3,0-2.6-0.4-3.5-1.2l0.7-1.5
		c0.8,0.7,2,1.1,2.9,1.1c0.7,0,1.3-0.2,1.3-0.8c0-1.6-4.5-0.7-4.5-3.8c0-1.8,1.5-2.6,3.2-2.6c1.1,0,2.3,0.3,3.1,0.9l-0.8,1.5
		C428.5,195.4,427.6,195.1,426.8,195.1z"/>
	<path d="M441.8,202.1v-1c-0.6,0.8-1.6,1.1-2.8,1.1c-1.8,0-3-1.1-3-2.7c0-1.6,1.2-2.6,3.2-2.6h2.5v-0.2c0-1-0.7-1.6-1.9-1.6
		c-0.8,0-1.7,0.3-2.5,0.8l-0.8-1.4c1.2-0.7,2.2-1.1,3.8-1.1c2.2,0,3.5,1.1,3.5,3l0,5.6H441.8z M441.8,199.2v-0.8h-2.2
		c-1.1,0-1.6,0.3-1.6,1.1c0,0.7,0.6,1.2,1.5,1.2C440.8,200.6,441.7,200,441.8,199.2z"/>
	<path d="M454.5,196.8v5.3h-2.1v-4.7c0-1.2-0.7-1.9-1.9-1.9c-1.4,0-2.2,1.1-2.2,2.5v4.2h-2.1v-8.6h2.1v1.6c0.6-1.1,1.7-1.7,3.1-1.7
		C453.3,193.5,454.5,194.8,454.5,196.8z"/>
	<path d="M465.1,190.3v11.9h-2.1v-1.4c-0.6,0.9-1.6,1.5-2.9,1.5c-2.4,0-4.1-1.8-4.1-4.4c0-2.6,1.6-4.3,4-4.3c1.3,0,2.3,0.5,2.9,1.5
		v-4.7H465.1z M463.1,197.9c0-1.5-1-2.6-2.4-2.6c-1.4,0-2.4,1.1-2.4,2.6c0,1.5,1,2.6,2.4,2.6S463.1,199.4,463.1,197.9z"/>
	<path d="M481,196.8v5.3h-2.1v-4.7c0-1.2-0.7-1.9-1.9-1.9c-1.4,0-2.3,1.1-2.3,2.5v4.2h-2.1v-11.9h2.1v4.9c0.6-1.2,1.7-1.7,3.1-1.7
		C479.8,193.5,481,194.8,481,196.8z"/>
	<path d="M491,198.6h-6.3c0.3,1.2,1.2,2,2.4,2c0.9,0,1.7-0.3,2.3-1l1.1,1.2c-0.8,0.9-2.1,1.5-3.6,1.5c-2.7,0-4.4-1.8-4.4-4.3
		c0-2.6,1.8-4.4,4.4-4.4C489.9,193.5,491.2,195.5,491,198.6z M489.1,197.2c0-1.3-0.9-2.1-2.2-2.1c-1.2,0-2.1,0.8-2.3,2.1H489.1z"/>
	<path d="M497.9,202.1v-1c-0.6,0.8-1.6,1.1-2.8,1.1c-1.8,0-3-1.1-3-2.7c0-1.6,1.2-2.6,3.2-2.6h2.5v-0.2c0-1-0.7-1.6-1.9-1.6
		c-0.8,0-1.7,0.3-2.5,0.8l-0.8-1.4c1.2-0.7,2.2-1.1,3.8-1.1c2.2,0,3.5,1.1,3.5,3l0,5.6H497.9z M497.9,199.2v-0.8h-2.2
		c-1.1,0-1.6,0.3-1.6,1.1c0,0.7,0.6,1.2,1.5,1.2C496.8,200.6,497.8,200,497.9,199.2z"/>
	<path d="M504.4,190.3v11.9h-2.1v-11.9H504.4z"/>
	<path d="M512.1,201.6c-0.7,0.4-1.4,0.6-2.1,0.6c-1.4,0-2.5-0.8-2.5-2.6v-4.2h-1.2l0-1.5h1.2v-2.4h2.1v2.4h2.4v1.5h-2.4v3.9
		c0,0.8,0.3,1.1,0.9,1.1c0.4,0,0.8-0.1,1.2-0.4L512.1,201.6z"/>
	<path d="M522.2,196.8v5.3h-2.1v-4.7c0-1.2-0.7-1.9-1.9-1.9c-1.4,0-2.3,1.1-2.3,2.5v4.2h-2.1v-11.9h2.1v4.9c0.6-1.2,1.7-1.7,3.1-1.7
		C521,193.5,522.2,194.8,522.2,196.8z"/>
	<path d="M526.3,201.1c0,0.7-0.5,1.2-1.1,1.2c-0.6,0-1.1-0.5-1.1-1.2c0-0.7,0.5-1.1,1.1-1.1C525.8,200,526.3,200.4,526.3,201.1z
		 M526.2,191.1v2.8l-0.4,4.7h-1.3l-0.4-4.7v-2.8H526.2z"/>
</g>
</svg>
