<svg xmlns="http://www.w3.org/2000/svg" xmlns:xlink="http://www.w3.org/1999/xlink" viewBox="0 0 309.73 505.91"><defs><style>.a,.ae,.db,.dc,.dz{fill:none;}.b{fill:#784418;}.c{fill:#efefef;}.d{clip-path:url(#a);}.e{fill:url(#b);}.f{opacity:0.26;}.g{fill:#ad5236;}.h{opacity:0.09;}.i{opacity:0.1;}.dm,.dn,.do,.dp,.du,.dv,.dw,.dx,.j,.p{opacity:0.5;}.k{fill:#ce783f;}.l{fill:#b4673e;}.m{fill:#e49345;}.n{fill:#9b5c3f;}.o{fill:#82820f;}.p{fill:#492e17;}.ac,.au,.bv,.bw,.bx,.cm,.cn,.db,.dm,.dn,.do,.dp,.du,.dv,.dw,.dx,.p{isolation:isolate;}.q{fill:url(#c);}.r{opacity:0.8;}.s{fill:#ffe7e1;}.t{fill:url(#d);}.u{fill:url(#e);}.ac,.v{fill:#fff;}.w{fill:url(#f);}.x{fill:url(#g);}.y{fill:url(#h);}.z{fill:url(#i);}.aa{fill:url(#j);}.ab{fill:url(#k);}.ac{opacity:0.24;}.ad,.dd{fill:#f9f9f9;}.ad,.ae,.dd{stroke:#f9f9f9;}.ad,.db,.dc,.dd,.dz{stroke-miterlimit:10;}.ad{stroke-width:0.2px;}.ae{stroke-linecap:round;stroke-linejoin:round;stroke-width:0.4px;}.af{fill:url(#l);}.ag{fill:url(#m);}.ah{fill:url(#n);}.ai{fill:url(#o);}.aj{fill:url(#p);}.ak{fill:url(#q);}.al{fill:url(#r);}.am{fill:url(#s);}.an{fill:#a8a8a8;}.ao{fill:#b5b5b5;}.ap{fill:#c6c6c6;}.aq{fill:#d3d3d3;}.ar{fill:#ddd;}.as{fill:#cecece;}.at{fill:#eae8e8;}.au{opacity:0.35;fill:url(#t);}.av{fill:#e5e5e5;}.aw{fill:#9b9a9a;}.ax{fill:#495750;}.ay{fill:#ccc;}.az{fill:#e8e8e8;}.ba{fill:#249daa;}.bb{fill:#1b6d6b;}.bc{fill:#2bd0d8;}.bd{fill:#2b2b2b;}.be{opacity:0.74;}.bf{opacity:0.41;}.bg{fill:#f9b9b9;}.bh{fill:#eaeaea;}.bi{fill:#a3a3a3;}.bj{fill:#c1bfbf;}.bk{fill:#492812;}.bl{fill:#86502a;}.bm{fill:#b87f50;}.bn{fill:#5d3b20;}.bo{fill:#683f29;}.bp{fill:#5c2f0b;}.bq{fill:url(#u);}.br{opacity:0.76;}.bs{fill:url(#v);}.bt{opacity:0.7;}.bu{fill:url(#w);}.bv{fill:#212121;opacity:0.43;}.bw,.db{opacity:0.56;}.bw{font-size:33.54px;fill:#1e0404;font-family:GROBOLD, GROBOLD;}.by{fill:#f4f2f2;}.bz{fill:#099;}.ca{fill:#00b7b2;}.cb{fill:#d36318;}.cc{fill:#f4731c;}.cd{fill:#d8d8d8;}.ce{fill:#ededed;}.cf{fill:#ff9292;}.cg{fill:#f27d2f;}.ch,.cn{fill:#724720;}.ci{fill:#bc5d1d;}.cj{fill:#33493e;}.ck{fill:#84572f;}.cl{fill:#686b72;}.cm,.cr{fill:#1dcaf2;}.cm{opacity:0.3;}.cn{opacity:0.69;}.co{fill:#ef874d;}.cp{opacity:0.34;}.cq{fill:#512600;}.cs{fill:#f36;}.ct{fill:#3d240e;}.cu,.dn{fill:#a67c52;}.cv{fill:#c69c6d;}.cw,.do{fill:#8c6239;}.cx{fill:#e6e6e6;}.cy{fill:#39b54a;}.cz{fill:#754c24;}.da{fill:#009245;}.db,.dc{stroke:#fff;stroke-width:1.13px;}.dd{stroke-width:0.28px;}.de{fill:#183008;}.df{fill:#9e0404;}.dg{fill:#244924;}.dh{fill:#2a562c;}.di{fill:#ba3842;}.dj{fill:#b23040;}.dk,.dp{fill:#42210b;}.dl,.dm{fill:#603813;}.dq{opacity:0.4;}.dr{fill:#301709;}.ds{fill:#512d10;}.dt{fill:#56351a;}.du{fill:#936c4a;}.dv{fill:#775132;}.dw{fill:#472910;}.dx{fill:#2b1407;}.dy{fill:#d68c56;}.dz{stroke:#13bc13;stroke-width:3.5px;}.ea{fill:#13bc13;}.eb{font-size:14px;font-family:Montserrat-Medium, Montserrat;}.ec{letter-spacing:-0.02em;}.ed{letter-spacing:-0.02em;}.ee{letter-spacing:0.03em;}</style><clipPath id="a" transform="translate(-0.78 -2.87)"><rect class="a" x="3.63" y="98.6" width="303.03" height="400.4"/></clipPath><linearGradient id="b" x1="155" y1="56.17" x2="155" y2="-315.77" gradientTransform="matrix(1, 0, 0, -1, -0.78, 123.13)" gradientUnits="userSpaceOnUse"><stop offset="0" stop-color="#bc6e5c"/><stop offset="0.23" stop-color="#d19475"/><stop offset="0.45" stop-color="#e3b58a"/><stop offset="0.58" stop-color="#eac192"/><stop offset="0.66" stop-color="#ecc38b"/><stop offset="0.79" stop-color="#f1c778"/><stop offset="0.93" stop-color="#face59"/><stop offset="1" stop-color="#ffd248"/></linearGradient><linearGradient id="c" x1="158.76" y1="-328.45" x2="158.76" y2="-287.15" gradientTransform="matrix(1, 0, 0, -1, -4.32, 119.04)" gradientUnits="userSpaceOnUse"><stop offset="0" stop-color="#bfa910"/><stop offset="1" stop-color="#cfa53d"/></linearGradient><linearGradient id="d" x1="236.08" y1="-17.02" x2="250.47" y2="27.75" gradientTransform="matrix(1, 0, 0, -1, -4.32, 119.04)" gradientUnits="userSpaceOnUse"><stop offset="0" stop-color="#edcb60"/><stop offset="0.08" stop-color="#e1d184"/><stop offset="0.19" stop-color="#d3d7af"/><stop offset="0.28" stop-color="#c9dccf"/><stop offset="0.37" stop-color="#c2dfe2"/><stop offset="0.42" stop-color="#c0e0e9"/><stop offset="0.49" stop-color="#b4d7e3"/><stop offset="0.62" stop-color="#93c1d2"/><stop offset="0.8" stop-color="#5f9cb6"/><stop offset="1" stop-color="#186b91"/></linearGradient><linearGradient id="e" x1="264.21" y1="7.38" x2="264.21" y2="7.38" gradientTransform="matrix(1, 0, 0, -1, 0, 126)" xlink:href="#d"/><linearGradient id="f" x1="262.7" y1="-101.09" x2="273.7" y2="-66.89" gradientTransform="matrix(1, 0, 0, -1, -4.32, 119.04)" gradientUnits="userSpaceOnUse"><stop offset="0" stop-color="#186b91"/><stop offset="0.2" stop-color="#5f9cb6"/><stop offset="0.38" stop-color="#93c1d2"/><stop offset="0.51" stop-color="#b4d7e3"/><stop offset="0.58" stop-color="#c0e0e9"/><stop offset="0.63" stop-color="#c2dfe2"/><stop offset="0.72" stop-color="#c9dccf"/><stop offset="0.81" stop-color="#d3d7af"/><stop offset="0.92" stop-color="#e1d184"/><stop offset="1" stop-color="#edcb60"/></linearGradient><linearGradient id="g" x1="283.37" y1="-80.83" x2="283.37" y2="-80.83" gradientTransform="matrix(1, 0, 0, -1, 0, 126)" gradientUnits="userSpaceOnUse"><stop offset="0" stop-color="#a085a5"/><stop offset="0.24" stop-color="#ac6d84" stop-opacity="0.67"/><stop offset="0.58" stop-color="#be4c55" stop-opacity="0.2"/><stop offset="0.62" stop-color="#c05057" stop-opacity="0.23"/><stop offset="0.68" stop-color="#c65b5c" stop-opacity="0.3"/><stop offset="0.75" stop-color="#cf6e64" stop-opacity="0.41"/><stop offset="0.83" stop-color="#dc8770" stop-opacity="0.57"/><stop offset="0.92" stop-color="#eda87e" stop-opacity="0.78"/><stop offset="1" stop-color="#ffcb8e"/></linearGradient><linearGradient id="h" x1="67.77" y1="-49.29" x2="77.43" y2="-19.22" xlink:href="#f"/><linearGradient id="i" x1="85.29" y1="-30.55" x2="85.29" y2="-30.55" gradientTransform="matrix(1, 0, 0, -1, 0, 126)" xlink:href="#f"/><linearGradient id="j" x1="158.63" y1="-83.33" x2="176.26" y2="-28.45" gradientTransform="matrix(1, 0, 0, -1, -4.32, 119.04)" xlink:href="#g"/><linearGradient id="k" x1="194.03" y1="-54.94" x2="194.03" y2="-54.94" xlink:href="#g"/><linearGradient id="l" x1="109.34" y1="-4.74" x2="120.76" y2="30.77" xlink:href="#f"/><linearGradient id="m" x1="140.2" y1="18.22" x2="140.2" y2="18.22" gradientTransform="matrix(1, 0, 0, -1, 0, 126)" xlink:href="#f"/><linearGradient id="n" x1="134.01" y1="-10.47" x2="145.01" y2="23.73" xlink:href="#f"/><linearGradient id="o" x1="154.58" y1="9.79" x2="154.58" y2="9.79" xlink:href="#g"/><linearGradient id="p" x1="8.72" y1="-4.48" x2="17.09" y2="21.54" xlink:href="#f"/><linearGradient id="q" x1="23.97" y1="23.03" x2="23.97" y2="23.03" gradientTransform="matrix(1, 0, 0, -1, 0, 126)" xlink:href="#f"/><linearGradient id="r" x1="21.67" y1="-109.23" x2="31.33" y2="-79.16" xlink:href="#f"/><linearGradient id="s" x1="39.19" y1="-90.61" x2="39.19" y2="-90.61" gradientTransform="matrix(1, 0, 0, -1, 0, 126)" xlink:href="#f"/><linearGradient id="t" x1="89.85" y1="324.65" x2="89.85" y2="332.74" gradientTransform="matrix(0.96, -0.26, -0.26, -0.96, 159.43, 401.97)" gradientUnits="userSpaceOnUse"><stop offset="0" stop-opacity="0"/><stop offset="1"/></linearGradient><radialGradient id="u" cx="189.54" cy="46.04" r="29.84" gradientTransform="matrix(1, 0, 0, -1, -12.23, 121.66)" gradientUnits="userSpaceOnUse"><stop offset="0" stop-color="#b87f50" stop-opacity="0.3"/><stop offset="0.22" stop-color="#caa687" stop-opacity="0.17"/><stop offset="0.46" stop-color="#d8c5b2" stop-opacity="0.08"/><stop offset="0.71" stop-color="#e0d7cc" stop-opacity="0.02"/><stop offset="1" stop-color="#e3ddd4" stop-opacity="0"/></radialGradient><radialGradient id="v" cx="870.62" cy="19.53" r="29.87" gradientTransform="translate(981.7 121.66) rotate(180)" xlink:href="#u"/><linearGradient id="w" x1="225.02" y1="15.55" x2="251.48" y2="15.55" gradientTransform="matrix(1, 0, 0, -1, -12.23, 121.66)" xlink:href="#u"/></defs><title>FinalTutorial6Mobile</title><rect class="b" x="0.06" y="89.91" width="309.67" height="411.22"/><rect class="c" x="3.47" y="95.45" width="302.84" height="399.59"/><g class="d"><rect class="e" x="0.69" y="93.17" width="307.07" height="407.17"/><g class="f"><path class="g" d="M62.78,369.1a20.22,20.22,0,0,0,2.17,3.76A8.83,8.83,0,0,0,68,375a9.38,9.38,0,0,0,2,.6h0c0-7.38,0-14.9.2-22.28.1-3.76.3-7.53.59-11.14l0-.75-.1-.3h.1L71.55,331l1.23-17.76-6.5-10.69,6.7,8.13.15-1.81c.25-3.76.44-7.38.64-11.14.1-1.81.2-3.76.2-5.57s-.1-3.76-.25-5.57a53.33,53.33,0,0,0-1.82-10.69,47.78,47.78,0,0,0-1.77-5c-.34-.75-.69-1.66-1.08-2.41a11.06,11.06,0,0,1-.94-2.41,14.1,14.1,0,0,0,1,2.41c.39.75.74,1.51,1.13,2.41a38.44,38.44,0,0,1,1.87,5,55.32,55.32,0,0,1,2.12,10.84c.2,1.81.3,3.76.39,5.57,0,2,0,3.76-.1,5.57-.1,3.76-.2,7.38-.39,11.14l-1,22.28-.39,8.58,7.68-4.67L72.63,342v.45c-.2,3.61-.3,7.38-.3,11,0,7.23.15,14.6.3,21.83l3.2-1.66.49,2-3.64,1.35.49,20.92c0,1.2,0,2.41.1,3.76l3-2.11-3,3.76v.15c0,2,0,3.76,0,5.72-.1,3.76-.3,7.53-.54,11.29-.49,7.53-1.13,14.9-1.87,22.28l-4.09-.9c.89-7.23,1.67-14.45,2.31-21.83.34-3.61.59-7.23.79-11,.1-1.81.15-3.61.2-5.42s0-3.76,0-5.57l0-20.77c-.79-.3-1.53-.6-2.27-.9a9.11,9.11,0,0,1-3.2-2.56,17.12,17.12,0,0,1-2-4.06,40.77,40.77,0,0,1-1.38-4.52C61.65,366.39,62.19,367.89,62.78,369.1Z" transform="translate(-0.78 -2.87)"/></g><g class="f"><path class="g" d="M94.55,355.25a19.76,19.76,0,0,0,2.17,4.37A8.18,8.18,0,0,0,99.77,362a9.81,9.81,0,0,0,2,.75h0c0-8.73,0-17.46.2-26.19q.15-6.55.59-13.1l0-.9-.1-.3h.1l.69-11.59,1.23-20.92L98,277.27l6.7,9.48.15-2.11c.25-4.37.44-8.73.64-12.95.1-2.11.2-4.37.2-6.47s-.1-4.37-.25-6.47a78.59,78.59,0,0,0-1.82-12.64,45.5,45.5,0,0,0-1.77-5.87c-.34-.9-.69-1.81-1.08-2.86a16.09,16.09,0,0,1-.94-2.86,15.93,15.93,0,0,0,1,2.86c.39.9.74,1.81,1.13,2.71a54.5,54.5,0,0,1,1.87,5.87A74.82,74.82,0,0,1,106,258.61c.2,2.11.3,4.37.39,6.62s0,4.37-.1,6.62c-.1,4.37-.2,8.73-.39,13.1l-1,26-.39,10.09,7.68-5.57-7.78,8v.45c-.2,4.21-.3,8.58-.3,12.95,0,8.58.15,17,.3,25.59l3.2-2,.49,2.26-3.64,1.66.49,24.39c0,1.51,0,2.86.1,4.37l3-2.41-3,4.37v.3c0,2.26,0,4.37,0,6.62-.1,4.37-.3,8.73-.54,13.1-.49,8.73-1.13,17.31-1.87,26l-4.09-1.05c.89-8.43,1.72-17,2.36-25.59.3-4.37.59-8.58.79-12.79.1-2.11.15-4.21.2-6.32s0-4.37,0-6.47l0-24.39a13.26,13.26,0,0,1-2.27-1.05,9.35,9.35,0,0,1-3.2-3,24.58,24.58,0,0,1-2-4.82c-.54-1.66-1-3.46-1.43-5.27C93.42,352.09,94,353.74,94.55,355.25Z" transform="translate(-0.78 -2.87)"/></g><g class="h"><path class="g" d="M99.57,389.57a17.72,17.72,0,0,1-2.17,2.71,9.12,9.12,0,0,1-3.05,1.51l-2,.45h0c0-5.27,0-10.54-.2-15.65-.1-2.71-.3-5.27-.59-7.83l0-.6.1-.15h-.15l-.69-7.07-1.23-12.49L96,342.9l-6.7,5.72-.15-1.2c-.25-2.56-.44-5.27-.64-7.83-.1-1.2-.15-2.56-.2-3.91s.1-2.56.25-3.91a27.43,27.43,0,0,1,1.82-7.53,20.25,20.25,0,0,1,1.72-3.46c.34-.6.69-1.05,1.08-1.66a10.31,10.31,0,0,0,.94-1.66,6.29,6.29,0,0,1-1,1.66c-.39.6-.74,1.05-1.13,1.66a27.66,27.66,0,0,0-1.87,3.46A30.55,30.55,0,0,0,88,331.77c-.2,1.2-.3,2.56-.39,3.91s0,2.56.1,3.91c.1,2.56.2,5.27.39,7.83l1,15.65.39,6-7.68-3.16,7.78,4.67v.3q.3,3.84.3,7.68,0,7.68-.3,15.35l-3.2-1.2-.49,1.35,3.64,1.05-.49,14.6c0,.9,0,1.66-.1,2.56l-3-1.51,3,2.71v.15c0,1.35,0,2.71,0,3.91.1,2.71.3,5.27.54,7.83.49,5.27,1.13,10.54,1.87,15.65l4.09-.6q-1.33-7.45-2.36-15.35c-.34-2.56-.59-5.12-.79-7.68-.1-1.2-.15-2.56-.2-3.76,0-1.35,0-2.56,0-3.91l0-14.6c.79-.15,1.53-.45,2.27-.6a8.29,8.29,0,0,0,3.2-1.81,13.57,13.57,0,0,0,2-2.86,23.71,23.71,0,0,0,1.43-3.16C100.66,387.61,100.11,388.66,99.57,389.57Z" transform="translate(-0.78 -2.87)"/></g><g class="i"><path class="g" d="M46.28,395.14a8.94,8.94,0,0,1-1.38,2A5,5,0,0,1,43,398a3.2,3.2,0,0,1-1.18.15h0c.25-4.37.44-8.73.59-12.95,0-2.26,0-4.37,0-6.62v-.45l0-.15h0l-.1-5.87-.15-10.54,4.14-5.72-4.14,4.21v-7.53c0-1.05,0-2.11,0-3.16s.2-2.11.34-3.16a26.89,26.89,0,0,1,1.43-6,13.82,13.82,0,0,1,1.18-2.71c.25-.45.44-.9.69-1.35a4.29,4.29,0,0,0,.64-1.35,6.87,6.87,0,0,1-.64,1.35,8.43,8.43,0,0,1-.74,1.2A17.39,17.39,0,0,0,43.92,340a36.58,36.58,0,0,0-2,9.33c0,1.05-.1,2.26-.15,3.31,0,2.11-.1,4.37-.15,6.47l-.1,13.1,0,5.12-4.33-3.46,4.33,4.67v.3c0,2.11,0,4.37-.15,6.47-.2,4.21-.54,8.43-.84,12.64l-1.82-1.2-.34,1.05,2.07,1.2-.94,12c0,.75-.1,1.51-.15,2.11l-1.67-1.51,1.63,2.41v.15c0,1.05-.1,2.26-.15,3.31,0,2.26,0,4.37,0,6.62,0,4.37.2,8.73.39,13.1l2.41-.15c-.3-4.21-.54-8.58-.69-12.95-.1-2.11-.1-4.37-.1-6.47,0-1.05,0-2.11,0-3.16l.15-3.16.64-12a4.88,4.88,0,0,0,1.38-.3,4.25,4.25,0,0,0,1.92-1.2,14.93,14.93,0,0,0,1.33-2.26,25.25,25.25,0,0,0,.94-2.56C47.07,393.63,46.68,394.53,46.28,395.14Z" transform="translate(-0.78 -2.87)"/></g><g class="f"><path class="g" d="M42.44,383.09A15.4,15.4,0,0,1,40.82,386a6.6,6.6,0,0,1-2.27,1.51l-1.48.45h0c0-5.57,0-11.14-.15-16.56,0-2.86-.2-5.57-.44-8.28l0-.6,0-.15h-.1l-.49-7.38L35,341.7l4.83-8-5,6-.1-1.35c-.15-2.71-.34-5.57-.44-8.28,0-1.35-.15-2.71-.15-4.06s.1-2.71.2-4.06a38.63,38.63,0,0,1,1.38-8A37.14,37.14,0,0,1,37,310.24c.25-.6.54-1.2.79-1.81a8.07,8.07,0,0,0,.69-1.81,6.17,6.17,0,0,1-.74,1.81c-.3.6-.59,1.2-.84,1.81A21.53,21.53,0,0,0,35.55,314,37.93,37.93,0,0,0,34,322c-.15,1.35-.25,2.71-.3,4.21,0,1.35,0,2.86,0,4.21.1,2.71.15,5.57.3,8.28l.74,16.56.3,6.47-5.71-3.46,5.81,5.12v.3c.15,2.71.25,5.42.25,8.28,0,5.42-.1,10.84-.2,16.26L32.84,387l-.34,1.51,2.71,1.05-.39,15.5c0,.9,0,1.81,0,2.71l-2.22-1.51L34.76,409v.15c0,1.35,0,2.86,0,4.21.1,2.86.25,5.72.44,8.43.34,5.57.84,11.14,1.38,16.56l3-.6c-.69-5.27-1.23-10.84-1.72-16.26q-.37-4.06-.59-8.13c0-1.35-.15-2.71-.15-4.06V389.72a7.16,7.16,0,0,0,1.67-.75,6,6,0,0,0,2.36-2,15.24,15.24,0,0,0,1.53-3,28.89,28.89,0,0,0,1-3.31A11.47,11.47,0,0,0,42.44,383.09Z" transform="translate(-0.78 -2.87)"/><path class="g" d="M30.52,357.51l.15-.45a4.38,4.38,0,0,0-1.38-4.82l-.15.45A4.38,4.38,0,0,0,30.52,357.51Z" transform="translate(-0.78 -2.87)"/><path class="g" d="M26.24,361.87l.34.15c1.43.45,2.86-.75,3.2-2.71h0l-.34-.15C28,358.71,26.58,359.91,26.24,361.87Z" transform="translate(-0.78 -2.87)"/><path class="g" d="M41.8,382.34l.3.15c.39-2-.44-3.91-1.87-4.52l-.3-.15C39.54,379.78,40.37,381.89,41.8,382.34Z" transform="translate(-0.78 -2.87)"/><path class="g" d="M43.72,384.3l-1,.3h0c.25,1.51,1.28,2.41,2.36,2.11l1-.3C45.84,384.9,44.76,384,43.72,384.3Z" transform="translate(-0.78 -2.87)"/><path class="g" d="M32.05,405.37v-.45c0-1.35-.84-2.56-1.87-2.56v.45C30.13,404.17,31,405.37,32.05,405.37Z" transform="translate(-0.78 -2.87)"/><path class="g" d="M29.88,409h.3c1,.15,2-.9,2.12-2.26H32C31,406.58,30,407.63,29.88,409Z" transform="translate(-0.78 -2.87)"/></g><g class="j"><path class="g" d="M154.73,360.52a19,19,0,0,1-2.36,4.06,10.22,10.22,0,0,1-3.3,2.26,10.69,10.69,0,0,1-2.17.6h0c0-8,0-16.11-.25-24.08-.1-4.06-.3-8.13-.64-12l0-.9.1-.3h-.15l-.74-10.69-1.33-19.27,7-11.59-7.24,8.73-.15-2c-.25-3.91-.49-8-.69-12-.1-2-.2-4.06-.25-6s.1-4.06.3-5.87a60.61,60.61,0,0,1,2-11.59,57.22,57.22,0,0,1,1.87-5.42c.39-.9.74-1.66,1.13-2.56a14,14,0,0,0,1-2.71,9.6,9.6,0,0,1-1.08,2.56c-.39.9-.84,1.66-1.23,2.56a37.61,37.61,0,0,0-2,5.42,59.38,59.38,0,0,0-2.27,11.59c-.2,2-.34,3.91-.44,6s0,4.06.1,6c.1,4.06.25,8,.39,12l1.08,24.08.44,9.33-8.32-5.12L143.9,331v.45c.2,3.91.34,8,.34,11.89,0,7.83-.15,15.81-.3,23.63l-3.45-1.81-.54,2.11,3.94,1.51-.54,22.58c0,1.35,0,2.71-.1,4.06L140,393.18l3.2,4.06v.15c0,2.11,0,4.06.1,6.17.15,4.06.34,8.13.59,12,.54,8.13,1.18,16.11,2,24.08l4.38-.9c-1-7.68-1.82-15.65-2.51-23.63-.34-3.91-.64-7.83-.84-11.89-.1-2-.2-3.91-.2-5.87v-6l0-22.43a15.19,15.19,0,0,0,2.46-1.05,8.91,8.91,0,0,0,3.45-2.86,21.21,21.21,0,0,0,2.17-4.52c.54-1.51,1.08-3.16,1.53-4.82A25.92,25.92,0,0,1,154.73,360.52Z" transform="translate(-0.78 -2.87)"/><path class="g" d="M137.44,323.34l.2-.6c.84-2.71,0-5.72-2-6.92l-.2.6C134.64,319.12,135.52,322.28,137.44,323.34Z" transform="translate(-0.78 -2.87)"/><path class="g" d="M131.24,329.81l.44.15c2.07.6,4.19-1.2,4.63-4.06h0l-.44-.15C133.75,325.14,131.68,326.95,131.24,329.81Z" transform="translate(-0.78 -2.87)"/><path class="g" d="M153.75,359.46l.44.15c.59-2.71-.64-5.72-2.71-6.47L151,353C150.5,355.7,151.68,358.71,153.75,359.46Z" transform="translate(-0.78 -2.87)"/><path class="g" d="M156.55,362.17l-1.48.45h0c.34,2.11,1.87,3.46,3.4,3l1.48-.45C159.61,363.07,158.08,361.72,156.55,362.17Z" transform="translate(-0.78 -2.87)"/><path class="g" d="M139.61,392.58V392c0-2.11-1.23-3.76-2.76-3.76v.6C136.9,391.07,138.13,392.58,139.61,392.58Z" transform="translate(-0.78 -2.87)"/><path class="g" d="M136.51,398.15H137c1.48.3,2.86-1.2,3.05-3.16h-.44C138.08,394.69,136.71,396,136.51,398.15Z" transform="translate(-0.78 -2.87)"/></g><path class="g" d="M3.39,363.38a19.26,19.26,0,0,1-2.27,3.91c0,.45,0,.75,0,1.2.15-.15.25-.3.39-.45a21.21,21.21,0,0,0,2.17-4.52c.54-1.51,1.08-3.16,1.53-4.82C4.62,360.37,4,361.87,3.39,363.38Z" transform="translate(-0.78 -2.87)"/><path class="g" d="M1.52,356.9c0,1.66,0,3.16-.1,4.82a3.47,3.47,0,0,0,1,.6l.44.15A6.42,6.42,0,0,0,1.52,356.9Z" transform="translate(-0.78 -2.87)"/><path class="g" d="M5.21,364.88l-1.48.45h0c.34,2.11,1.87,3.46,3.4,3l1.48-.45C8.26,365.78,6.74,364.58,5.21,364.88Z" transform="translate(-0.78 -2.87)"/><g class="f"><path class="g" d="M149.61,352.09a19.76,19.76,0,0,0,2.17,4.37,8.18,8.18,0,0,0,3.05,2.41,9.81,9.81,0,0,0,2,.75h0c0-8.73,0-17.46.2-26.19q.15-6.55.59-13.1l0-.9-.1-.3h.1l.69-11.59,1.23-20.92-6.5-12.49,6.7,9.48.15-2.11c.25-4.37.44-8.73.64-12.95.1-2.11.2-4.37.2-6.47s-.1-4.37-.25-6.47A78.59,78.59,0,0,0,158.72,243a55.07,55.07,0,0,0-1.72-5.87c-.34-.9-.69-1.81-1.08-2.86a16.09,16.09,0,0,1-.94-2.86,15.93,15.93,0,0,0,1,2.86c.39.9.74,1.81,1.13,2.71A54.49,54.49,0,0,1,159,242.8a74.82,74.82,0,0,1,2.12,12.64c.2,2.11.3,4.37.39,6.62s0,4.37-.1,6.62c-.1,4.37-.25,8.73-.39,13.1l-1,26-.39,10.09,7.68-5.57-7.78,8v.45c-.2,4.21-.3,8.58-.3,12.95,0,8.58.15,17,.3,25.59l3.2-2,.49,2.26-3.64,1.66.49,24.39c0,1.51,0,2.86.1,4.37l3-2.41-3,4.37v.3c0,2.26,0,4.37,0,6.62-.1,4.37-.3,8.73-.54,13.1-.49,8.73-1.13,17.31-1.87,26L153.65,437c.89-8.43,1.72-17,2.36-25.59.3-4.37.59-8.58.79-12.79.1-2.11.15-4.21.2-6.32s0-4.37,0-6.47l0-24.39a13.26,13.26,0,0,1-2.27-1.05,9.35,9.35,0,0,1-3.2-3,24.58,24.58,0,0,1-2-4.82c-.54-1.66-1-3.46-1.43-5.27A36.5,36.5,0,0,0,149.61,352.09Z" transform="translate(-0.78 -2.87)"/></g><g class="f"><path class="g" d="M210.53,351.48a19.76,19.76,0,0,0,2.17,4.37,8.18,8.18,0,0,0,3.05,2.41,9.81,9.81,0,0,0,2,.75h0c0-8.73,0-17.46.2-26.19q.15-6.55.59-13.1l0-.9-.1-.3h.1l.69-11.59L220.53,286,214,273.51l6.7,9.48.15-2.11c.25-4.37.44-8.73.64-12.95.1-2.11.2-4.37.2-6.47s-.1-4.37-.25-6.47a78.59,78.59,0,0,0-1.82-12.64,55.07,55.07,0,0,0-1.72-5.87c-.34-.9-.69-1.81-1.08-2.86a16.09,16.09,0,0,1-.94-2.86,15.93,15.93,0,0,0,1,2.86c.39.9.74,1.81,1.13,2.71a54.49,54.49,0,0,1,1.87,5.87A74.82,74.82,0,0,1,222,254.85c.2,2.11.3,4.37.39,6.62s0,4.37-.1,6.62c-.1,4.37-.25,8.73-.39,13.1l-1,26-.39,10.09,7.68-5.57-7.78,8v.45c-.2,4.21-.3,8.58-.3,12.95,0,8.58.15,17,.3,25.59l3.2-2,.49,2.26-3.64,1.66.49,24.39c0,1.51,0,2.86.1,4.37l3-2.41-3,4.37v.3c0,2.26,0,4.37,0,6.62-.1,4.37-.3,8.73-.54,13.1-.49,8.73-1.13,17.31-1.87,26l-4.09-1.05c.89-8.43,1.72-17,2.36-25.59.3-4.37.59-8.58.79-12.79.1-2.11.15-4.21.2-6.32s0-4.37,0-6.47l0-24.39a13.26,13.26,0,0,1-2.27-1.05,9.35,9.35,0,0,1-3.2-3,24.58,24.58,0,0,1-2-4.82c-.54-1.66-1-3.46-1.43-5.27A36.58,36.58,0,0,0,210.53,351.48Z" transform="translate(-0.78 -2.87)"/></g><g class="h"><path class="g" d="M218.46,387.76a17.72,17.72,0,0,1-2.17,2.71,9.12,9.12,0,0,1-3.05,1.51l-2,.45h0c0-5.27,0-10.54-.2-15.65-.1-2.71-.3-5.27-.59-7.83l0-.6.1-.15h-.1l-.69-6.92-1.23-12.49,6.5-7.53-6.7,5.72-.15-1.2c-.25-2.56-.44-5.27-.64-7.83-.1-1.2-.15-2.56-.2-3.91s.1-2.56.25-3.91a27.43,27.43,0,0,1,1.82-7.53,20.25,20.25,0,0,1,1.72-3.46c.34-.6.69-1.05,1.08-1.66a10.31,10.31,0,0,0,.94-1.66,6.29,6.29,0,0,1-1,1.66c-.39.6-.74,1.05-1.13,1.66a27.66,27.66,0,0,0-1.87,3.46,30.55,30.55,0,0,0-2.12,7.53c-.2,1.2-.3,2.56-.39,3.91s0,2.56.1,3.91c.1,2.56.25,5.27.39,7.83l1,15.65.39,6-7.68-3.31,7.78,4.82v.3q.3,3.84.3,7.68,0,7.68-.3,15.35l-3.2-1.2-.49,1.35,3.64,1.05-.49,14.6c0,.9,0,1.66-.1,2.56l-3-1.51,3,2.71V412c0,1.35,0,2.71,0,3.91.1,2.71.3,5.27.54,7.83.49,5.42,1.13,10.54,1.87,15.65l4.09-.6q-1.33-7.45-2.36-15.35c-.34-2.56-.59-5.12-.79-7.68-.1-1.2-.15-2.56-.2-3.76,0-1.35,0-2.56,0-3.91l0-14.6c.79-.15,1.53-.45,2.27-.6a8.29,8.29,0,0,0,3.2-1.81,13.57,13.57,0,0,0,2-2.86,23.71,23.71,0,0,0,1.43-3.16C219.59,385.8,219.05,386.86,218.46,387.76Z" transform="translate(-0.78 -2.87)"/></g><g class="h"><path class="g" d="M275.49,382.79a17.72,17.72,0,0,1-2.17,2.71,9.12,9.12,0,0,1-3.05,1.51l-2,.45h0c0-5.27,0-10.54-.2-15.65-.1-2.71-.3-5.27-.59-7.83l0-.6.1-.15h-.1l-.69-6.92-1.23-12.49,6.5-7.53L265.3,342l-.15-1.2c-.25-2.56-.44-5.27-.64-7.83-.1-1.2-.15-2.56-.2-3.91s.1-2.56.25-3.91a27.43,27.43,0,0,1,1.82-7.53,20.25,20.25,0,0,1,1.72-3.46c.34-.6.69-1.05,1.08-1.66a10.32,10.32,0,0,0,.94-1.66,6.29,6.29,0,0,1-1,1.66c-.39.6-.74,1.05-1.13,1.66a27.66,27.66,0,0,0-1.87,3.46,30.55,30.55,0,0,0-2.12,7.53c-.2,1.2-.3,2.56-.39,3.91s0,2.56.1,3.91c.1,2.56.25,5.27.39,7.83l1,15.65.39,6-7.68-3.31,7.78,4.82v.3q.3,3.84.3,7.68,0,7.68-.3,15.35l-3.2-1.2-.49,1.35,3.64,1.05-.49,14.6c0,.9,0,1.66-.1,2.56l-3-1.51,3,2.71V407c0,1.35,0,2.71.1,3.91.1,2.71.3,5.27.54,7.83.49,5.27,1.13,10.54,1.87,15.65l4.09-.6c-.89-5-1.63-10.09-2.31-15.35-.34-2.56-.59-5.12-.79-7.68-.1-1.2-.15-2.56-.2-3.76,0-1.35,0-2.56,0-3.91l0-14.6c.79-.15,1.53-.45,2.27-.6a8.29,8.29,0,0,0,3.2-1.81,13.57,13.57,0,0,0,2-2.86,18.81,18.81,0,0,0,1.38-3.16C276.62,380.84,276.08,381.89,275.49,382.79Z" transform="translate(-0.78 -2.87)"/></g><path class="g" d="M294.85,349.23a21.12,21.12,0,0,1-2.61,4.52,10.49,10.49,0,0,1-3.69,2.56,14.85,14.85,0,0,1-2.41.75h0c0-9,0-17.91-.25-26.94-.1-4.52-.34-9-.69-13.55l0-1.05.1-.3-.15-.15-.84-12-1.48-21.53,7.88-12.95-8.08,9.78-.15-2.11c-.3-4.52-.54-8.88-.74-13.4-.1-2.26-.25-4.52-.25-6.62,0-2.26.15-4.52.3-6.62A65.05,65.05,0,0,1,284,236.63a46.92,46.92,0,0,1,2.12-6c.39-.9.84-2,1.28-2.86a11.57,11.57,0,0,0,1.13-3,12.06,12.06,0,0,1-1.18,2.86c-.44.9-.89,1.81-1.33,2.86a46.37,46.37,0,0,0-2.27,6,67.28,67.28,0,0,0-2.56,12.95c-.25,2.26-.39,4.52-.49,6.77s0,4.52.1,6.77c.15,4.52.25,8.88.44,13.4l1.18,26.79.49,10.39-9.26-5.72L283,316v.6c.25,4.37.39,8.88.39,13.25,0,8.73-.15,17.61-.34,26.34l-3.84-2-.59,2.41,4.38,1.66-.54,25.29c0,1.51,0,3-.1,4.52l-3.64-2.56,3.6,4.52v.3c0,2.26,0,4.52.1,6.77.15,4.52.34,9,.64,13.55.59,9,1.33,18.06,2.22,26.94l4.92-1.05c-1.08-8.73-2-17.46-2.81-26.49-.39-4.37-.69-8.73-.94-13.25-.1-2.26-.2-4.37-.25-6.62s0-4.52,0-6.62l0-25.14a10.26,10.26,0,0,0,2.76-1.2,10.94,10.94,0,0,0,3.84-3.16,25.6,25.6,0,0,0,2.46-5,46.61,46.61,0,0,0,1.67-5.42A37.52,37.52,0,0,1,294.85,349.23Z" transform="translate(-0.78 -2.87)"/><path class="g" d="M275.54,307.68l.2-.6c1-3,0-6.47-2.22-7.68l-.2.6C272.34,303,273.37,306.48,275.54,307.68Z" transform="translate(-0.78 -2.87)"/><path class="g" d="M268.6,314.91l.49.15c2.31.75,4.68-1.35,5.17-4.52h0l-.49-.15C271.45,309.79,269.09,311.75,268.6,314.91Z" transform="translate(-0.78 -2.87)"/><path class="g" d="M293.76,348l.49.15c.64-3.16-.69-6.32-3-7.23l-.49-.15C290.12,344,291.45,347.12,293.76,348Z" transform="translate(-0.78 -2.87)"/><path class="g" d="M296.87,351l-1.63.45h0c.39,2.26,2.07,3.76,3.79,3.31l1.63-.45C300.31,351.94,298.59,350.58,296.87,351Z" transform="translate(-0.78 -2.87)"/><path class="g" d="M278,385.2v-.6c0-2.26-1.38-4.21-3.05-4.21v.6C274.9,383.4,276.28,385.2,278,385.2Z" transform="translate(-0.78 -2.87)"/><path class="g" d="M274.51,391.22H275c1.67.3,3.2-1.35,3.4-3.61h-.49C276.23,387.31,274.7,389,274.51,391.22Z" transform="translate(-0.78 -2.87)"/><path class="k" d="M309,489.52c0-2.86,0-5.72.2-8.43A147.82,147.82,0,0,1,308,464.53c0-3,0-6.17.25-9.18-.3-2.41-.59-4.82-.79-7.38H2.21c0,7.23-.2,14.3-.69,21.37,0,.75,0,1.51,0,2.26.2,4.67.34,9.33.39,14,.1,7.23-.1,14.3-.54,21.37a6.12,6.12,0,0,1,4.09-1.81,6.31,6.31,0,0,1,3.94,1.66c2.41-4.82,5.27-7.53,8.18-7.68,1.87,0,3.74,1.05,5.47,3.16a2.7,2.7,0,0,1,1.08-.15c2.76,0,5.42,2.26,7.78,6.62h1.58a6,6,0,0,1,3.79-1.66,5.85,5.85,0,0,1,3.6,1.35c1.87-2.71,3.84-4.06,5.91-4.37A6.94,6.94,0,0,1,51,502c2.61,0,5.17,2.11,7.44,6,2.22-3.91,4.78-6,7.34-6,2.36,0,4.73,1.66,6.85,5A6.34,6.34,0,0,1,77,504.87a6,6,0,0,1,2.71.75c1.82-2.41,3.79-3.76,5.81-3.76a5.31,5.31,0,0,1,3.2,1.05A4.21,4.21,0,0,1,92,501.86h.34c2.46,0,4.92,1.81,7.09,5.42h.59c2.61-6,5.76-9.18,9-9.33,3.05,0,6.06,2.86,8.57,8.28,2.51-5.27,5.47-8.13,8.52-8.28a6.32,6.32,0,0,1,4,1.66,6.19,6.19,0,0,1,3.89-1.66c2.76,0,5.42,2.26,7.73,6.62,1.82-2.41,3.74-3.61,5.71-3.61a5.31,5.31,0,0,1,3.2,1.05,4.91,4.91,0,0,1,3.05-1.05q2.81,0,5.47,3.16A6.54,6.54,0,0,1,163.6,502c2.31,0,4.63,1.66,6.7,5a7.18,7.18,0,0,1,4.14-2,6.5,6.5,0,0,1,4.78,2.41h2.41c3.5-5.12,7.54-5.72,11.18-1.81,1.77-2.26,3.69-3.46,5.61-3.46a6.6,6.6,0,0,1,4.83,2.41,6.4,6.4,0,0,1,4.68-2.41,5.79,5.79,0,0,1,3,.9,5.34,5.34,0,0,1,2.91-.9,7,7,0,0,1,5,2.56c1.58-1.66,3.2-2.56,4.88-2.56a7.29,7.29,0,0,1,1.82.3,4.79,4.79,0,0,1,3.74-1.35h.64a4.74,4.74,0,0,1,2,.45,4.48,4.48,0,0,1,1.92-.45,7.68,7.68,0,0,1,1.82.3,3.69,3.69,0,0,1,1.77-.3c1.92,0,3.84,1.2,5.66,3.46,1.77-2.26,3.64-3.31,5.52-3.46a6.86,6.86,0,0,1,4.53,2.11,6.43,6.43,0,0,1,4.33-2.11c2.81,0,5.57,2.41,7.93,6.92,14.92-.45,29.85-.6,44.77-.6C309.52,501.71,309.08,495.69,309,489.52Z" transform="translate(-0.78 -2.87)"/><path class="l" d="M1.86,487.56c0,6.47-.15,12.95-.54,19.27A8.58,8.58,0,0,1,4,505.17c7-4.67,13.69-12.34,19.95-23.18,11.43-19.12,37.63-25.29,37.63-25.29C35.15,457.15,20.87,477.17,1.86,487.56Z" transform="translate(-0.78 -2.87)"/><path class="l" d="M130.5,447.82s-36.35,7.83-38.41,28.6c-1.33,13.4-.89,23.63-20.19,29.35a5.59,5.59,0,0,1,.79,1.2A6.34,6.34,0,0,1,77,504.87a6,6,0,0,1,2.71.75c1.82-2.41,3.79-3.76,5.81-3.76a5.31,5.31,0,0,1,3.2,1.05,4.74,4.74,0,0,1,3-1.05c4-5.87,7.24-15.05,9.06-30,2.76-23,42.55-20.62,42.55-20.62Z" transform="translate(-0.78 -2.87)"/><path class="m" d="M1.71,479.28c0,.75,0,1.51,0,2.26C11.71,477.32,21.36,468,30.33,454l-16.45-8.73s2.27,2.26.94,14.3C13.88,467.09,10.09,474.16,1.71,479.28Z" transform="translate(-0.78 -2.87)"/><path class="m" d="M268.2,447.82s-.94,38.23-83.72,40.19c-18.62.45-33.79,5-46.15,11.74a16,16,0,0,1,3.55,4.82c1.82-2.41,3.74-3.61,5.71-3.61a5.31,5.31,0,0,1,3.2,1.05,4.91,4.91,0,0,1,3.05-1.05q2.81,0,5.47,3.16a6.54,6.54,0,0,1,4.38-2.11c2.22,0,4.38,1.51,6.4,4.37,6.6-4.67,15-8.13,25.41-9.63C272.34,485.15,268.2,447.82,268.2,447.82Z" transform="translate(-0.78 -2.87)"/><path class="l" d="M102.72,502.61a11,11,0,0,0-2.41,3l.89-.45A24.79,24.79,0,0,1,102.72,502.61Z" transform="translate(-0.78 -2.87)"/><path class="l" d="M199.6,447.82s-10,16.26-22.16,13.55c-7.54-1.81-15-6.32-22.21-13.55,0,0-20.14,16.11-22,31.76-1.23,10.69-13.69,14-23.15,18.51a6.65,6.65,0,0,1,3.3,1.66c2.86-1.05,6-2.26,9.36-3.16,11.62-3.31,13.25-3.16,16.79-18.06,1.38-5.87-3.64-19.27,32.65-14.3,23.59,3.16,43-14,43-14Z" transform="translate(-0.78 -2.87)"/><path class="l" d="M308,464.38q-.07-4.06.15-8.13a50.44,50.44,0,0,0-15.76,4.06c-11.92,4.82-26.89,14.6-45.65,31.91-3.45,3.16-6.75,6.17-9.9,8.88h.79a6.08,6.08,0,0,1,2.27.45c11.23-9,23.94-18.21,36.15-24.69,10.93-5.72,22.21-5.27,32.5-2C308.19,471.45,308,468,308,464.38Z" transform="translate(-0.78 -2.87)"/><path class="m" d="M309,489.52c0-2.41,0-4.67.1-7.07-10.93-4.06-23.2-3.91-34,8.28a134.94,134.94,0,0,1-12.8,12.64,19.5,19.5,0,0,1,3.2,4.67h.89q6.28-3.61,13.74-8.13c9.8-6,20-5.42,29.21-2.26C309.13,494.94,309,492.23,309,489.52Z" transform="translate(-0.78 -2.87)"/><path class="m" d="M53.67,484.4c-7.19,1.51-17.09,8.73-27.33,18.06a9.83,9.83,0,0,1,4,3.61c8.86-6.92,17.29-12.49,23.74-14.45,24.38-7.53,32.5-32.21,32.5-32.21S77.41,479.58,53.67,484.4Z" transform="translate(-0.78 -2.87)"/><path class="n" d="M38.26,480.49s2.46-8.73,8.86-6.62,4.28,4.67,4.28,4.67S41.6,484.25,38.26,480.49Z" transform="translate(-0.78 -2.87)"/><path class="n" d="M165.86,473.11s-3.69,5.87,0,6S170.29,471.3,165.86,473.11Z" transform="translate(-0.78 -2.87)"/><path class="n" d="M144.64,474.61c1.67,2,3.5,2,5.17,0C152.76,471.6,142.47,471.6,144.64,474.61Z" transform="translate(-0.78 -2.87)"/><path class="n" d="M151.68,477.47s2-7.07,7.14-5.27,3.45,3.76,3.45,3.76S154.39,480.49,151.68,477.47Z" transform="translate(-0.78 -2.87)"/><path class="n" d="M49.73,467.54h0a3.44,3.44,0,0,0,.89,4.67c2.27,1.51,5.57,3.16,8.08,1.81,1.43-.75,1.87-2.41,1.58-4.21A5.67,5.67,0,0,0,49.73,467.54Z" transform="translate(-0.78 -2.87)"/><path class="n" d="M161.13,476.87l-.49.6a1.47,1.47,0,0,0,1,2.41h.79a1,1,0,0,0,.84-1.2h0a2.34,2.34,0,0,0-2.17-1.81Z" transform="translate(-0.78 -2.87)"/><path class="o" d="M307,438.34v-2.41c-54.67-2.86-108.4,3.91-162.87,1.81-10.83,0-21.28,0-32.11-2.41-7.68-2-14.48-5.27-22.61-3.46-22.16,4.82-43,5.27-64.71,5.87-7.44.15-15.07.75-22.65.9l.15,6.77c0,4.37,0,8.88-.15,13.25,4.28-.15,8.57-.3,12.85-.6,2.56-.15,5.12-.3,7.63-.3l5.32-.15c19.8-.45,39-1.2,59.35-5.72,8.13-2,14.92,1.51,22.61,3.31h.25a32.14,32.14,0,0,0,3.69.75c9.46,1.66,18.67,1.66,28.17,1.66l3,.15c8,.3,15.91.45,23.84.3h0q10.86,0,21.72-.45l14.38-.45c20.44-.75,40.83-1.81,61.32-2h1.13c13.59-.15,27.19,0,40.88.75,0-.3,0-.6,0-.75A153.36,153.36,0,0,1,307,438.34Z" transform="translate(-0.78 -2.87)"/><path class="p" d="M308.14,456.1c-13.69-.75-27.28-.9-40.88-.75h-1.13c-20.49.3-40.88,1.2-61.32,2l-14.38.45-21.72.45h0c-7.93,0-15.86,0-23.84-.3l-3-.15c-9.55,0-18.71,0-28.17-1.66a32.14,32.14,0,0,1-3.69-.75h-.25c-7.68-2-14.48-5.27-22.61-3.31-20.34,4.52-39.55,5.27-59.35,5.72l-5.32.15c-2.51,0-5.07.15-7.63.3-4.28.15-8.57.45-12.85.6,0,1.66-.1,3.16-.2,4.82,4.09-.15,8.22-.3,12.31-.6l8.37-.45h1.77l15.27-.45h0l8.57-.45h0c12.85-.75,25.66-2,39-5,6.25-1.51,11.72.15,17.39,2l3.3.9,1.92.6c10.54,2.41,20.73,2.41,31.27,2.41h.84c16.89.75,33.74.45,50.53,0h0c23.64-.75,47.28-2,71-2.41h2c8.91-.15,17.88-.15,26.84.15,5.17.15,10.39.3,15.61.75C308,459.41,308,457.76,308.14,456.1Z" transform="translate(-0.78 -2.87)"/><path class="q" d="M307.16,430.21c-9-.6-18-1.05-26.94-1.35l.74-3.91-1.63,3.91c-6-.15-12.07-.15-18.07-.15l4.14-11.44-5.07,11.44h-.74l-.89-19.27L257.32,428l-3.89-6.17,1.13,7.07c-19.5.15-39,1.05-58.36,2.26l-1.67-3,.59,3.16c-11.72.75-23.44,1.51-35.16,2.41a108.89,108.89,0,0,1-30.29-2.86,157,157,0,0,0-23.15-3.61h-1.33l-5-.15H96.27c-5.37.3-10.69.6-16,.75H78.89c-7.68.3-15.32.75-23,1.2l-6.65.45c-8.91.75-17.83,1.66-26.74,3.31a64.77,64.77,0,0,1-17.14.6l4.33-14.6-5.42,14.6H4l-1-31L1.71,429.61c.15,3.16.25,6.17.34,9.33,7.58-.15,15.22-.75,22.65-.9,21.72-.45,42.5-.9,64.71-5.87,8.13-2,14.92,1.51,22.61,3.46C122.87,438,133.31,438,144.14,438c54.47,2.11,108.25-4.52,162.87-1.81C307,434,307.06,432,307.16,430.21Z" transform="translate(-0.78 -2.87)"/><g class="r"><path class="s" d="M257.07,114s-1.77-14.15-9.11-9c0,0,1.13-8.73-2.36-13.25H233.48c-4.09,4.37-1.92,12.79-1.92,12.79s-5.37-3.76-7.44,0c-1.08,2-1.58,5.57-1.72,8.73-6.16-6.77-10.88,4.21-9.21,5s9.11,0,9.11,0,4.63,1.35,7.14,0a34.25,34.25,0,0,0,18.67.6,12.42,12.42,0,0,0,9,.15s6.25.45,8.47-.9C267.76,117,261.95,108.08,257.07,114Z" transform="translate(-0.78 -2.87)"/><path class="t" d="M245.79,112.6a4.17,4.17,0,0,1-1.63,1.81c-1.72,1.2-3.55.75-5.22-1.35-8.08-10.24-4.88-17.91-2.27-21.68h-3.15c-3.4,3.61-2.46,9.93-2.07,12.19a23.57,23.57,0,0,0,2.31,5.12c-4.43-6.62-8-5.87-8.27-5.72a2.71,2.71,0,0,0-1.38,1.35c-1.08,2-1.53,5.57-1.72,8.73.1.9.15,1.66.3,2.41a20.42,20.42,0,0,0-2.36-4.21c-5.07-2.71-8.62,6-7.14,6.77s9.11,0,9.11,0,4.63,1.35,7.14,0a34.25,34.25,0,0,0,18.67.6,12.42,12.42,0,0,0,9,.15,37.27,37.27,0,0,0,5.42-.15,28.31,28.31,0,0,1-6.7-1.2C252.64,120.58,245.79,112.6,245.79,112.6Z" transform="translate(-0.78 -2.87)"/><path class="u" d="M264.21,118.62Z" transform="translate(-0.78 -2.87)"/><path class="v" d="M257.07,114s-1.77-14.15-9.11-9c0,0,1.13-8.73-2.36-13.25h-.84c1.48,2.56,3.1,6.92,2.46,14.15,0,0,6.8-5.87,9.26,9.33,0,0,5.81-7.38,9,3C267.76,117,261.95,108.08,257.07,114Z" transform="translate(-0.78 -2.87)"/></g><g class="r"><path class="s" d="M277.86,203.37s-1.33-10.84-7-6.92c0,0,1.67-12.79-6.55-12.19-8.86.6-6,11.74-6,11.74s-4.14-2.86-5.71,0a17.52,17.52,0,0,0-1.33,6.62c-4.68-5.27-8.32,3.16-7.09,3.91s7,0,7,0,3.55,1.05,5.47,0A25.63,25.63,0,0,0,271,207a9.88,9.88,0,0,0,6.89.15s4.78.3,6.45-.6S281.6,198.85,277.86,203.37Z" transform="translate(-0.78 -2.87)"/><path class="w" d="M276.87,206.08c-2.41,2.26-7.68-3.76-7.68-3.76a4.69,4.69,0,0,1-1.23,1.35c-1.33.9-2.71.45-4-1.05-8.82-11.14-.15-18.36-.1-18.51-7.19.9-6.06,9-5.66,11.14a22.25,22.25,0,0,0,1.77,3.91c-2-3-4.14-4.67-6.3-4.52-1.33.45-2.31,3.61-2.41,7.68,0,.6.15,1.2.2,2a11.46,11.46,0,0,0-1.82-3.16c-3.89-2.11-6.6,4.67-5.47,5.12,1.28.6,7,0,7,0s3.55,1.05,5.47,0a25.63,25.63,0,0,0,14.28.45,9.88,9.88,0,0,0,6.89.15,33.34,33.34,0,0,0,4.14,0A13.46,13.46,0,0,1,276.87,206.08Z" transform="translate(-0.78 -2.87)"/><path class="x" d="M283.37,206.83Z" transform="translate(-0.78 -2.87)"/><path class="v" d="M277.86,203.37s-1.33-10.84-7-6.92c0,0,1.18-9-3.4-11.59,1.13,1.35,3.55,5,2.86,12.19,0,0,5.22-4.52,7.09,7.23,0,0,4.43-5.72,6.89,2.26C286,205.62,281.6,198.85,277.86,203.37Z" transform="translate(-0.78 -2.87)"/></g><g class="r"><path class="s" d="M80.46,153.39s-1.18-9.63-6.11-6c0,0,1.48-11.14-5.76-10.69-7.78.6-5.27,10.39-5.27,10.39s-3.6-2.56-5,0a16.1,16.1,0,0,0-1.18,5.87c-4.14-4.67-7.34,2.86-6.21,3.46s6.11,0,6.11,0,3.1.9,4.78,0a22.32,22.32,0,0,0,12.56.45,8.42,8.42,0,0,0,6.06.15s4.19.3,5.66-.6S83.76,149.63,80.46,153.39Z" transform="translate(-0.78 -2.87)"/><path class="y" d="M79.63,156c-2.12,2-6.75-3.31-6.75-3.31a2.6,2.6,0,0,1-1.08,1.2c-1.18.75-2.41.45-3.5-.9-7.73-9.78-.1-16.11,0-16.26-6.3.75-5.32,8-5,9.78a15,15,0,0,0,1.58,3.46c-1.72-2.71-3.64-4.06-5.57-3.91-1.13.3-2.07,3.16-2.12,6.77,0,.6.1,1.05.2,1.66a13.56,13.56,0,0,0-1.58-2.86c-3.4-1.81-5.76,4.06-4.83,4.52,1.13.6,6.11,0,6.11,0s3.1.9,4.78,0a22.32,22.32,0,0,0,12.56.45,8.42,8.42,0,0,0,6.06.15,25.75,25.75,0,0,0,3.64,0A13.77,13.77,0,0,1,79.63,156Z" transform="translate(-0.78 -2.87)"/><path class="z" d="M85.29,156.55Z" transform="translate(-0.78 -2.87)"/><path class="v" d="M80.46,153.39s-1.18-9.63-6.11-6c0,0,1-8-3-10.24,1,1.2,3.1,4.37,2.51,10.69,0,0,4.58-3.91,6.21,6.32,0,0,3.89-5,6.06,2C87.65,155.5,83.76,149.63,80.46,153.39Z" transform="translate(-0.78 -2.87)"/></g><g class="r"><path class="s" d="M185.27,175.22s-2.17-17.46-11.13-11c0,0,2.66-20.32-10.44-19.42-14.18,1.05-9.55,18.82-9.55,18.82s-6.6-4.52-9.16,0c-1.33,2.41-1.92,6.92-2.12,10.69-7.54-8.43-13.3,5.12-11.33,6.17s11.13,0,11.13,0,5.66,1.66,8.72,0a40.76,40.76,0,0,0,22.85.75,15.49,15.49,0,0,0,11,.3s7.68.45,10.34-1.05S191.18,168.14,185.27,175.22Z" transform="translate(-0.78 -2.87)"/><path class="aa" d="M183.69,179.58c-3.89,3.61-12.26-6-12.26-6a6.92,6.92,0,0,1-2,2.26c-2.12,1.35-4.38.9-6.4-1.66-14.09-17.76-.2-29.5-.15-29.5-11.48,1.35-9.7,14.45-9,17.91a29,29,0,0,0,2.86,6.32c-5.42-8-9.8-7.23-10.1-7.07a3.76,3.76,0,0,0-1.67,1.66c-1.33,2.41-1.92,6.92-2.12,10.69.1,1.05.2,2.11.34,3a23.05,23.05,0,0,0-2.91-5.12c-6.21-3.31-10.54,7.38-8.77,8.28,2,.9,11.13,0,11.13,0s5.66,1.66,8.72,0a40.76,40.76,0,0,0,22.85.75,15.49,15.49,0,0,0,11,.3,56.11,56.11,0,0,0,6.65-.15A31.49,31.49,0,0,1,183.69,179.58Z" transform="translate(-0.78 -2.87)"/><path class="ab" d="M194,180.94Z" transform="translate(-0.78 -2.87)"/><path class="v" d="M185.27,175.22s-2.17-17.46-11.13-11c0,0,1.92-14.6-5.42-18.51,1.77,2.11,5.66,8,4.58,19.57,0,0,8.32-7.07,11.33,11.44,0,0,7.09-9,11,3.61C198.32,178.83,191.18,168.14,185.27,175.22Z" transform="translate(-0.78 -2.87)"/></g><path class="ac" d="M297.56,181.54s-76-31.46-105.49-19.27c0,0,48.17-4.21,102.24,23.63Z" transform="translate(-0.78 -2.87)"/><path class="ac" d="M308.64,100.11V92.73c-2.51.15-5,.3-7.54.6-2.27,3.76-4.88,6.17-7,5.42a120.61,120.61,0,0,0-13.94-3.91c-1.08,0-2.17-.15-3.25-.15a40.92,40.92,0,0,1-7.29-1.51c-14.38-1.81-28.76-1.35-43.09-1.35a6.22,6.22,0,0,1-3.4-1.2c-1.92,2.71-4,4.06-6.16,4.06-8.47,0-17,.15-25.46.15H186c-14.09-.3-36.59-3.16-51.37-5.57-8.32-.45-16.65-.45-25-.45-6.35,0-12.76-.45-19.06,1.05a33.49,33.49,0,0,1-6.7,2.86c-1,.75-2.07,1.51-3.1,2.41,11.67-3,21.33-5,26.5-5,21.77.15,75.84,16.26,114.55,7.38,34.62-8,78.31,6.92,87.17,10.24A68.27,68.27,0,0,1,308.64,100.11Z" transform="translate(-0.78 -2.87)"/><path class="ac" d="M69.14,98a15.62,15.62,0,0,1-2-2.56A17.4,17.4,0,0,1,60,93.93c-1.77,2.41-3.74,3.61-5.66,3.61a7.2,7.2,0,0,1-5-2.56c-1.58,1.66-3.2,2.56-4.83,2.56-1.92,0-3.79-1.05-5.57-3.31A11,11,0,0,1,34.71,93c-2,2.86-4.14,4.37-6.3,4.52a6.22,6.22,0,0,1-3.69-1.35,5.72,5.72,0,0,1-3.55,1.35,7.68,7.68,0,0,1-1.82-.3,3.69,3.69,0,0,1-1.77.3c-2.31,0-4.63-1.66-6.7-4.82a12,12,0,0,1-1.72,1.51,16.07,16.07,0,0,1-8,3.91c.15,4.06.25,8,.34,11.89,0,3.16,0,6.17,0,9.18C18.65,113.65,46,104.62,69.14,98Z" transform="translate(-0.78 -2.87)"/><path class="ac" d="M302.38,220.38c-2.17,1.51-97.07-11.89-111.65-19.42s-42.16,5.72-72.69,11c-24.58,4.37-91.8,2.41-117,1.51-.1.75-.15,1.66-.25,2.41.1,2,.2,3.91.3,6,17.24,4.67,93,23.33,134.06,1.66C181.67,199,308.78,233,308.78,233S304.55,218.87,302.38,220.38ZM50.62,222.63c-1.28-.75-.54-2.26,1.08-2.26,11.62-.15,42-.3,49.55,0,13.4.6-21.62,19.57-50.63,2.26Zm147.11-13.85s15.71-.3,17.39,4.37-28.56-2-17.39-4.37Z" transform="translate(-0.78 -2.87)"/><path class="ac" d="M154.39,272.46s44.28-21.53,60.48-6,47.92-1.66,47.92-1.66l2.17-5s-33.49,2.71-44.13-.6-20.24-11.74-25.31-7.07-38.12,13.25-38.86,12.34S154.39,272.46,154.39,272.46Zm72.3-8c2.61-.3,13.2-.15,17.24,0,.59,0,.84.9.39,1.51-10.1,10.84-22.31-1.05-17.63-1.51ZM187,259.81c.59-2.86,6.06-2.71,6.06-2.71,3.89,1.51-6.65,5.57-6.06,2.71Z" transform="translate(-0.78 -2.87)"/><path class="ac" d="M309.62,169.35a116.61,116.61,0,0,1,.44-11.89c-10.49-3-42.45-12.34-65.35-22.43,19.55,1.66,51,1.66,51,1.66l-1.92-5.87c-11.92,7.38-45.46,1.66-60.87-1.51-1.28-.75-2.46-1.35-3.55-2.11-21.82-13.4-53.19-2.86-67.18,6-17.83,1.66-41.07-.75-58.21-3.16l-8.57-2.86C55.49,114.1,9.1,151.28,1.07,157.46c.44,6,.74,12,.94,18.21,9.26,1.35,21.18.6,35.8-5,31-11.74,43.68-8.13,47.87-5.72-4-2.56-14.87-7.07-35.51-.6C38.95,168,24.61,168.44,11.66,168c18.81-13.7,55.31-36.73,74.66-24.69,26.79,16.86,62.25,13.1,93.28,0,27.48-11.59,111.26,22.13,130.12,30.11C309.67,172.21,309.62,170.85,309.62,169.35ZM39.19,143.46c-.49-1.66,5.57-13.4,14.43-10.24S40.87,149.33,39.19,143.46Zm30-8.58c-5.17,3.76-10.83,2.26-6.35-1.51.94-.9,11.48-2.26,6.35,1.51Zm24,1.35s20.88,3.46,22.06,7.38-32.9-4.82-22.06-7.38Zm65.55-.6c-7.88,6.17-14.33,6.62-31.52,1.81a118.85,118.85,0,0,0,31.62-2Zm20.88.6c-7.93.75,22.65-11.29,28.91-5.27s-12.46,3.91-28.91,5.27Z" transform="translate(-0.78 -2.87)"/><path class="ac" d="M85.68,165.13a7,7,0,0,1,1.77,1.35A7,7,0,0,0,85.68,165.13Z" transform="translate(-0.78 -2.87)"/><path class="ad" d="M58.65,118.92l-.39.15-.1-.75c0-.15-.1-.15-.15-.15s-.15.15-.1.3l.1.75-.39.15c-.1,0-.15.15-.1.3s.1.15.15.15l.39-.15.1.75c0,.15.1.15.15.15s0,0,.1-.15l0-.15-.1-.75.39-.15s0,0,.1-.15l0-.15C58.79,119.07,58.69,118.92,58.65,118.92Z" transform="translate(-0.78 -2.87)"/><ellipse class="ae" cx="59" cy="196.88" rx="0.84" ry="1.51"/><ellipse class="ae" cx="100.96" cy="132.3" rx="0.44" ry="0.75"/><ellipse class="ae" cx="40.78" cy="262.51" rx="0.44" ry="0.75"/><path class="ad" d="M145.62,220.07l-.39.15-.1-.75c0-.15-.1-.15-.2-.15s-.15.15-.1.3l.1.75-.39.15c-.1,0-.15.15-.1.3s.1.15.2.15l.39-.15.1.75c0,.15.1.15.2.15s0,0,.1-.15c0,0,0-.15,0-.15l-.1-.75.39-.15s0,0,.1-.15c0,0,0-.15,0-.15C145.77,220.07,145.72,220.07,145.62,220.07Z" transform="translate(-0.78 -2.87)"/><path class="ad" d="M12.5,177.93l-.25.3-.15-.45c0-.15-.1-.15-.15-.15s0,.15,0,.3l.15.45-.25.3s0,.15,0,.3.1.15.15.15l.25-.3.15.45c0,.15.1.15.15.15s0,0,0-.15v-.15l-.15-.45.25-.3s0,0,0-.15v-.15C12.6,177.93,12.55,177.78,12.5,177.93Z" transform="translate(-0.78 -2.87)"/><path class="ad" d="M36.93,199.6l-.3.3-.15-.45c0-.15-.1-.15-.15-.15s-.1.15,0,.3l.15.45-.3.3s-.1.15,0,.3.1.15.15.15l.3-.3.15.45c0,.15.1.15.15.15s0,0,0-.15v-.15l-.15-.45.3-.3s0,0,0-.15v-.15C37,199.6,37,199.6,36.93,199.6Z" transform="translate(-0.78 -2.87)"/><path class="ad" d="M48.84,144.21l-.3.3-.15-.45c0-.15-.1-.15-.15-.15s-.1.15,0,.3l.15.45-.3.3s-.1.15,0,.3.1.15.15.15l.3-.3.15.45c0,.15.1.15.15.15s0,0,0-.15v-.15l-.15-.45.3-.3s0,0,0-.15v-.15C48.94,144.21,48.89,144.06,48.84,144.21Z" transform="translate(-0.78 -2.87)"/><path class="ad" d="M237.47,132.17l.34-.6.25.6c0,.15.15.15.2,0a.72.72,0,0,0,0-.45l-.25-.6.34-.6a.72.72,0,0,0,0-.45c0-.15-.15-.15-.2,0l-.34.6-.25-.6c0-.15-.15-.15-.2,0,0,0,0,.15,0,.15v.15l.25.6-.34.6s0,.15,0,.15v.15C237.32,132.32,237.42,132.32,237.47,132.17Z" transform="translate(-0.78 -2.87)"/><path class="ad" d="M265.64,157l.2-.45.2.3h.15a.33.33,0,0,0,0-.3l-.2-.3.2-.45a.33.33,0,0,0,0-.3H266l-.2.45-.2-.3h-.15l0,.15s0,.15,0,.15l.2.3-.2.45,0,.15s0,.15,0,.15C265.54,157.15,265.64,157.15,265.64,157Z" transform="translate(-0.78 -2.87)"/><path class="ae" d="M194.82,157.76a1.63,1.63,0,0,1,.25-1.2c.2-.3.39-.15.54.3a1.63,1.63,0,0,1-.25,1.2C195.21,158.36,195,158.21,194.82,157.76Z" transform="translate(-0.78 -2.87)"/><path class="ad" d="M139.66,120.88l.34-.6.25.6c0,.15.15.15.2,0a.72.72,0,0,0,0-.45l-.25-.6.34-.6a.72.72,0,0,0,0-.45c0-.15-.15-.15-.2,0l-.34.6-.25-.6c0-.15-.15-.15-.2,0,0,0,0,.15,0,.15v.15l.25.6-.34.6s0,.15,0,.15v.15C139.51,121,139.61,121,139.66,120.88Z" transform="translate(-0.78 -2.87)"/><path class="ad" d="M235.11,166l.49-.15v.9c0,.15.1.3.2.3s.2-.15.2-.45v-.9l.49-.15c.1,0,.2-.15.2-.45s-.1-.3-.2-.3L236,165v-.9c0-.15-.1-.3-.2-.3s-.1,0-.1.15c0,0,0,.15,0,.3v.9l-.49.15s-.1,0-.1.15c0,0,0,.15,0,.3S235,166,235.11,166Z" transform="translate(-0.78 -2.87)"/><path class="ad" d="M193.24,180.64l.2-.45.2.3h.15a.33.33,0,0,0,0-.3l-.2-.3.2-.45a.33.33,0,0,0,0-.3h-.15l-.2.45-.2-.3h-.15l0,.15s0,.15,0,.15l.2.3-.2.45,0,.15s0,.15,0,.15Q193.17,180.86,193.24,180.64Z" transform="translate(-0.78 -2.87)"/><path class="ad" d="M241.76,100.26l.2-.45.2.3h.15a.33.33,0,0,0,0-.3l-.2-.3.2-.45a.33.33,0,0,0,0-.3h-.15l-.2.45-.2-.3h-.15l0,.15s0,.15,0,.15l.2.3-.2.45,0,.15s0,.15,0,.15Z" transform="translate(-0.78 -2.87)"/><g class="r"><path class="s" d="M132.22,102.51s.15-9.93-2.61-13.7c-6.7-.3-13.4-.3-20.09-.3h-6.3a24.2,24.2,0,0,0,.54,3.46s-6-4.21-8.32,0c-1.23,2.11-1.72,6.32-2,9.63-6.85-7.68-12.16,4.67-10.29,5.57s10.19,0,10.19,0,5.12,1.51,8,0a39.22,39.22,0,0,0,20.83.75,13.63,13.63,0,0,0,10,.15s7,.45,9.46-.9S137.59,96,132.22,102.51Z" transform="translate(-0.78 -2.87)"/><path class="af" d="M119.57,101.31a5,5,0,0,1-1.82,2c-2,1.2-4,.75-5.86-1.51-3.94-5-5.52-9.48-5.71-13.25h-3a25.65,25.65,0,0,0,.39,2.71,29.41,29.41,0,0,0,2.61,5.72c-4.92-7.38-9-6.47-9.21-6.47A3.13,3.13,0,0,0,95.43,92c-1.23,2.11-1.72,6.32-2,9.63l.3,2.71a19.16,19.16,0,0,0-2.66-4.67c-5.66-3-9.6,6.77-8,7.53,1.82.9,10.19,0,10.19,0s5.12,1.51,8,0a39.22,39.22,0,0,0,20.83.75,13.63,13.63,0,0,0,10,.15,46.59,46.59,0,0,0,6.06-.15,31.88,31.88,0,0,1-7.49-1.35C127.25,110,119.57,101.31,119.57,101.31Z" transform="translate(-0.78 -2.87)"/><path class="ag" d="M140.2,107.78Z" transform="translate(-0.78 -2.87)"/><path class="v" d="M132.22,102.51s.2-11.44-3.6-13.7h-3a5,5,0,0,0-1.13.6c1.53,0,5,1.81,7,14.6,0,0,6.5-8.28,10.1,3.31C144.09,106,137.59,96,132.22,102.51Z" transform="translate(-0.78 -2.87)"/></g><g class="r"><path class="s" d="M149.12,112.6s-1.33-10.84-7-6.92c0,0,1.67-12.79-6.55-12.19-8.86.6-6,11.74-6,11.74s-4.14-2.86-5.71,0a17.52,17.52,0,0,0-1.33,6.62c-4.68-5.27-8.32,3.16-7.09,3.91s7,0,7,0,3.55,1.05,5.47,0a25.63,25.63,0,0,0,14.28.45,9.88,9.88,0,0,0,6.89.15s4.78.3,6.45-.6S152.81,108.08,149.12,112.6Z" transform="translate(-0.78 -2.87)"/><path class="ah" d="M148.13,115.46c-2.41,2.26-7.68-3.76-7.68-3.76a4.69,4.69,0,0,1-1.23,1.35c-1.33.9-2.71.45-4-1.05-8.82-11.14-.15-18.36,0-18.51-7.19.9-6.06,9-5.66,11.14a22.25,22.25,0,0,0,1.77,3.91c-2-3-4.14-4.67-6.3-4.52-1.33.45-2.31,3.61-2.41,7.68,0,.6.15,1.2.2,2a11.46,11.46,0,0,0-1.82-3.16c-3.89-2.11-6.6,4.67-5.47,5.12,1.28.6,7,0,7,0s3.55,1.05,5.47,0a25.63,25.63,0,0,0,14.28.45,9.88,9.88,0,0,0,6.89.15,33.34,33.34,0,0,0,4.14,0A17.54,17.54,0,0,1,148.13,115.46Z" transform="translate(-0.78 -2.87)"/><path class="ai" d="M154.58,116.21Z" transform="translate(-0.78 -2.87)"/><path class="v" d="M149.12,112.6s-1.33-10.84-7-6.92c0,0,1.18-9-3.4-11.59,1.13,1.2,3.55,5,2.86,12.19,0,0,5.22-4.52,7.09,7.23,0,0,4.43-5.72,6.89,2.26C157.24,114.86,152.81,108.08,149.12,112.6Z" transform="translate(-0.78 -2.87)"/></g><g class="r"><path class="s" d="M23.48,97.09a4.27,4.27,0,0,1-2.27.6,8.09,8.09,0,0,1-1.87-.3,3.69,3.69,0,0,1-1.77.3,3.33,3.33,0,0,1-1.23-.15c-.1.15-.2.15-.3.3V97.4a10.61,10.61,0,0,1-5.12-4.52A12,12,0,0,1,9.2,94.39a15.74,15.74,0,0,1-8,3.76c.1,2,.15,3.91.2,5.87a26.33,26.33,0,0,0,4.58-.9,14.44,14.44,0,0,0,10,.3s7,.45,9.46-.9C26.73,101.76,25.6,98.9,23.48,97.09Z" transform="translate(-0.78 -2.87)"/><path class="aj" d="M4.27,97.4a10.69,10.69,0,0,1-2.17.6,5.26,5.26,0,0,1-.54.45c-.2.15-.25.15-.34.15,0,1.81.15,3.61.2,5.42a26.33,26.33,0,0,0,4.58-.9,14.44,14.44,0,0,0,10,.3,46.59,46.59,0,0,0,6.06-.15,31.88,31.88,0,0,1-7.49-1.35C11.76,104.62,6.34,99.5,4.27,97.4Z" transform="translate(-0.78 -2.87)"/><path class="ak" d="M24,103Z" transform="translate(-0.78 -2.87)"/><path class="v" d="M16.34,97.55c-.1.15-.2.15-.3.3V97.4l-1-.45c.15.75.25,1.51.39,2.26A14.81,14.81,0,0,1,17,97.7,1.23,1.23,0,0,0,16.34,97.55Z" transform="translate(-0.78 -2.87)"/><path class="v" d="M23.48,97.09a1.71,1.71,0,0,1-.79.3,11.49,11.49,0,0,1,2.76,5.12C26.73,101.76,25.6,98.9,23.48,97.09Z" transform="translate(-0.78 -2.87)"/></g><g class="r"><path class="s" d="M34.41,213.45s-1.18-9.63-6.11-6c0,0,1.48-11.14-5.76-10.69-7.78.6-5.27,10.39-5.27,10.39s-3.6-2.56-5,0A16.1,16.1,0,0,0,11.07,213c-4.14-4.67-7.34,2.86-6.21,3.46s6.11,0,6.11,0,3.1.9,4.78,0a22.32,22.32,0,0,0,12.56.45,8.42,8.42,0,0,0,6.06.15s4.19.3,5.66-.6S37.66,209.54,34.41,213.45Z" transform="translate(-0.78 -2.87)"/><path class="al" d="M33.53,215.86c-2.12,2-6.75-3.31-6.75-3.31a2.6,2.6,0,0,1-1.08,1.2c-1.18.75-2.41.45-3.5-.9-7.73-9.78-.1-16.11,0-16.26-6.3.75-5.32,8-5,9.78a15,15,0,0,0,1.58,3.46c-1.72-2.71-3.64-4.06-5.57-3.91a2.27,2.27,0,0,0-.94.9,16.1,16.1,0,0,0-1.18,5.87c0,.6.1,1.05.2,1.66a13.56,13.56,0,0,0-1.58-2.86c-3.4-1.81-5.76,4.06-4.83,4.52,1.13.6,6.11,0,6.11,0s3.1.9,4.78,0a22.32,22.32,0,0,0,12.56.45,8.42,8.42,0,0,0,6.06.15,25.75,25.75,0,0,0,3.64,0A14.08,14.08,0,0,1,33.53,215.86Z" transform="translate(-0.78 -2.87)"/><path class="am" d="M39.19,216.61Z" transform="translate(-0.78 -2.87)"/><path class="v" d="M34.41,213.45s-1.18-9.63-6.11-6c0,0,1-8-3-10.24,1,1.2,3.1,4.37,2.51,10.69,0,0,4.58-3.91,6.21,6.32,0,0,3.89-5,6.06,2C41.56,215.41,37.66,209.54,34.41,213.45Z" transform="translate(-0.78 -2.87)"/></g></g><path class="an" d="M166.17,72.29l-1.76,19a2.31,2.31,0,0,1-2.48,2.08c-12.06.32-22.84-2.4-31.14-8.94a10.37,10.37,0,0,1-2.08-2.48l.64-7a2.31,2.31,0,0,1,2.48-2.08c10.46,1.36,21.56,1.44,32.26-3A2.23,2.23,0,0,1,166.17,72.29Z" transform="translate(-0.78 -2.87)"/><path class="ao" d="M179.51,67.89,174.8,63a1.45,1.45,0,0,1,0-2.16h0l1.12-1a6.19,6.19,0,0,1,8.78.08h0l5,5a.68.68,0,0,1,0,1h0l-2.08,2a5.76,5.76,0,0,1-8.06-.08Z" transform="translate(-0.78 -2.87)"/><path class="ap" d="M162.5,89.85c-.08,0-.16.08-.24.08l-.24-.08-.4.24c-11.42,1.12-22-1-29.7-7.11a12.27,12.27,0,0,1-1.36-1.52L131.2,75a.38.38,0,0,1,.4-.4h.16c14.21,1.84,22.36.24,27.31-1.12,1.76-.48,3.51-1.12,5.27-1.76a.61.61,0,0,1,.16.4L163,89.45C162.9,89.69,162.66,89.77,162.5,89.85Z" transform="translate(-0.78 -2.87)"/><path class="aq" d="M179.75,66.14a5.54,5.54,0,0,0,7.83.08l.8-.8-3.59-3.75a6.07,6.07,0,0,0-8.62-.08.45.45,0,0,0,0,.72Z" transform="translate(-0.78 -2.87)"/><path class="ao" d="M136.79,79.07l1.68-6.87A6.18,6.18,0,0,1,146,67.65h0l1.52.4a1.53,1.53,0,0,1,1.12,1.84h0L147,76.44a5.69,5.69,0,0,1-6.87,4.15L137.35,80a.74.74,0,0,1-.56-.88Z" transform="translate(-0.78 -2.87)"/><path class="ar" d="M146,75a5.58,5.58,0,0,1-6.71,4.07l-1.12-.24,1.28-5.11a6.1,6.1,0,0,1,7.35-4.47.55.55,0,0,1,.4.64Z" transform="translate(-0.78 -2.87)"/><path class="as" d="M148.77,87.62l-.4-2.87-.8-5.35-.32-2h0l-.16-1-.4-2.71-.08-.32-.16-.8v-.08l-.64-4.15-.8-5.19-.32-2-.08-.56a.29.29,0,0,0-.08-.24.11.11,0,0,1,0-.16v-.32a2.89,2.89,0,0,1,.8-1.84,3,3,0,0,1,1.2-.72L169,51.2a2,2,0,0,1,1.36,0,2.18,2.18,0,0,1,1,.56,2.15,2.15,0,0,1,.56.64.61.61,0,0,1,.16.32v.08a.28.28,0,0,0,.08.16c0,.08.08.16.08.24l.16.48.72,1.84,1.68,4.15.16.4.08.24,2.87,7.19h0l.32.72v.08l3,7.27,1.12,2.71C186.06,90.89,152.2,100.15,148.77,87.62Z" transform="translate(-0.78 -2.87)"/><path class="at" d="M151.08,88.57,147,61.74a.72.72,0,0,0-.08-.4.74.74,0,0,1,.56-.88l22.44-6.15a.75.75,0,0,1,.88.48c0,.16.08.24.16.4L181.1,80.35C182.7,86.26,152.68,94.48,151.08,88.57Z" transform="translate(-0.78 -2.87)"/><path class="c" d="M166.65,85.94a38.24,38.24,0,0,1-8.54,1.44L154,64.22l12.38-3.35,8.3,22A36.65,36.65,0,0,1,166.65,85.94Z" transform="translate(-0.78 -2.87)"/><path class="an" d="M115.23,91.29l2.08-9.5a8.52,8.52,0,0,1,10.14-6.55h0l2.08.48a2.09,2.09,0,0,1,1.6,2.48h0l-2,9.1a7.82,7.82,0,0,1-9.26,6h0l-3.91-.8a1,1,0,0,1-.8-1.2h.08Z" transform="translate(-0.78 -2.87)"/><path class="aq" d="M127.68,85.46a7.58,7.58,0,0,1-9,5.75l-1.52-.32,1.52-7a8.4,8.4,0,0,1,10-6.47.74.74,0,0,1,.56.88Z" transform="translate(-0.78 -2.87)"/><path class="an" d="M133,69.65l-2,9.1a2.09,2.09,0,0,1-2.48,1.6h0l-2.08-.48a8.52,8.52,0,0,1-6.55-10.14h0l2.08-9.5a1,1,0,0,1,1.2-.8h0l3.83.8a7.72,7.72,0,0,1,6,9.26Z" transform="translate(-0.78 -2.87)"/><path class="aq" d="M130.8,70.77a7.63,7.63,0,0,0-5.83-9l-1.52-.32-1.44,7a8.35,8.35,0,0,0,6.39,10,.74.74,0,0,0,.88-.56Z" transform="translate(-0.78 -2.87)"/><path class="au" d="M175.2,59.91,145.73,68l-1-6.79v-.72a5.09,5.09,0,0,1-.16-.56l27.63-7.59a5.09,5.09,0,0,1,.16.56c.08.16.08.24.16.4a.29.29,0,0,1,.08.24Z" transform="translate(-0.78 -2.87)"/><path class="as" d="M183.9,46.81a2.76,2.76,0,0,1-2,3.35L136.31,62.62a2.73,2.73,0,0,1-3.43-1.84l-8.94-26.67a2.72,2.72,0,0,1-.08-.8,24.89,24.89,0,0,1-.64-4.15h0A21.91,21.91,0,0,1,127,16.47a22.61,22.61,0,0,1,1.6-2.24A30.73,30.73,0,0,1,144,4.25h.08l.64-.16a31,31,0,0,1,19.4.72c.88.32,1.68.64,2.56,1a21.79,21.79,0,0,1,9.5,9.1,16.58,16.58,0,0,1,1.52,3.91c0,.16.08.24.08.4s0,.08.08.16Z" transform="translate(-0.78 -2.87)"/><path class="as" d="M136.79,58.47a7.28,7.28,0,1,1,5.11-8.94h0A7.31,7.31,0,0,1,136.79,58.47Z" transform="translate(-0.78 -2.87)"/><path class="as" d="M178.63,47.05a7.28,7.28,0,1,1,5.11-8.94h0A7.39,7.39,0,0,1,178.63,47.05Z" transform="translate(-0.78 -2.87)"/><path class="av" d="M182.14,44.66A4.19,4.19,0,0,1,179.51,49L137.19,60.63A4.17,4.17,0,0,1,133.27,58L133,56.47l-8.38-23.4v-.56l-.08-.32c-1.44-5.51-.16-11.42,3.59-16.61A30.06,30.06,0,0,1,144.77,4.41c14.37-3.91,28.59,2.24,31.7,13.81l.08.32v.4l4.79,24h0Z" transform="translate(-0.78 -2.87)"/><circle class="av" cx="133.59" cy="52.16" r="6.31" transform="matrix(0.97, -0.26, 0.26, 0.97, -9.77, 33.86)"/><circle class="av" cx="176.73" cy="40.02" r="6.31" transform="translate(-5.07 45.18) rotate(-15.3)"/><path class="aw" d="M139,53.36a5.08,5.08,0,1,0-6.47,3.11c.16.08.4.08.56.16l.24.08.16-.16a7.28,7.28,0,0,1,1.36-1.36l.72-.48a7.21,7.21,0,0,1,3.11-1h.24Z" transform="translate(-0.78 -2.87)"/><path class="ax" d="M131.84,48a4.74,4.74,0,0,1,6.47,1.52,4.67,4.67,0,0,1,.4,4,6.69,6.69,0,0,0-3.27,1.12l-.72.48a6.14,6.14,0,0,0-1.44,1.44A4.67,4.67,0,0,1,129.68,51,4.76,4.76,0,0,1,131.84,48Z" transform="translate(-0.78 -2.87)"/><path class="ay" d="M130.32,54.48a4.71,4.71,0,0,0,3,2.16,6.14,6.14,0,0,1,1.44-1.44l3-6.31a4.68,4.68,0,0,0-6.63-.24A4.51,4.51,0,0,0,130.32,54.48Z" transform="translate(-0.78 -2.87)"/><path class="az" d="M133,55.92a5.37,5.37,0,0,1,1.2-1.12L136.95,49a4.14,4.14,0,0,0-5.75.48,4.1,4.1,0,0,0-.4,4.71A4.8,4.8,0,0,0,133,55.92Z" transform="translate(-0.78 -2.87)"/><path class="ba" d="M132.32,52.64c.4-.32.64-.72.56-.88s-.32-.16-.64-.08a3.49,3.49,0,0,1,3.59-3.43,4.1,4.1,0,0,1,1.92.56,4.68,4.68,0,0,1,1,4.71,6.69,6.69,0,0,0-3.27,1.12l-.72.48a3.39,3.39,0,0,1-2.48-2.48Z" transform="translate(-0.78 -2.87)"/><path class="bb" d="M138.38,53.12a4.14,4.14,0,0,0-1-3.91,3,3,0,0,0-3.27,0c-.72.48-.16,5.27.48,5.51.16-.16.4-.24.56-.4A7.78,7.78,0,0,1,138.38,53.12Z" transform="translate(-0.78 -2.87)"/><path class="aw" d="M139,53.6a8.51,8.51,0,0,0-5.59,3l-.08-.08a9.29,9.29,0,0,1,2.32-2,7.59,7.59,0,0,1,3.43-1.12Z" transform="translate(-0.78 -2.87)"/><path class="bc" d="M133.43,49.53c.16,0,.16.4.16.56a8.37,8.37,0,0,0,.08,2c.16.4.32,1.68.4,2s-.16.32-.16.32-.72-.64-.8-1a2.3,2.3,0,0,1,.08-1,2,2,0,0,0,0-1,1.36,1.36,0,0,1-.16-1.12C133.19,49.93,133.19,49.61,133.43,49.53Z" transform="translate(-0.78 -2.87)"/><circle class="bd" cx="135.77" cy="51.59" r="2.4" transform="translate(-7.71 75.72) rotate(-31.52)"/><g class="be"><circle class="c" cx="133.25" cy="53.2" r="0.8" transform="translate(-8.96 74.49) rotate(-31.46)"/></g><g class="bf"><circle class="c" cx="134.72" cy="53.28" r="0.4" transform="translate(-8.78 75.27) rotate(-31.46)"/></g><ellipse class="bg" cx="179.44" cy="46.25" rx="2.16" ry="1.6" transform="translate(-1.33 87.42) rotate(-28.2)"/><ellipse class="bg" cx="136.71" cy="57.99" rx="2.16" ry="1.68" transform="matrix(1, -0.04, 0.04, 1, -3.09, 2.93)"/><path class="aw" d="M173.92,43.46a5.08,5.08,0,1,1,7.19-.16c-.16.16-.32.24-.4.4l-.16.16-.24-.08a7.15,7.15,0,0,0-1.84-.64,2.72,2.72,0,0,0-.8-.08,7.25,7.25,0,0,0-3.19.48l-.24.08Z" transform="translate(-0.78 -2.87)"/><path class="ax" d="M177.83,35.39a4.77,4.77,0,0,0-5,4.31,4.66,4.66,0,0,0,1.44,3.75,8.4,8.4,0,0,1,3.43-.56c.32,0,.56.08.88.08a7.73,7.73,0,0,1,1.92.64A4.77,4.77,0,0,0,181.1,37a4.94,4.94,0,0,0-3.27-1.6Z" transform="translate(-0.78 -2.87)"/><path class="ay" d="M182.14,40.42a4.7,4.7,0,0,1-1.68,3.27,9,9,0,0,0-1.92-.64L173,38.83a4.68,4.68,0,0,1,9.18,1.6Z" transform="translate(-0.78 -2.87)"/><path class="az" d="M180.31,42.9a5.3,5.3,0,0,0-1.6-.48l-5-3.91A4.08,4.08,0,0,1,179,36.35a4,4,0,0,1,2.48,4A3.85,3.85,0,0,1,180.31,42.9Z" transform="translate(-0.78 -2.87)"/><path class="ba" d="M179.51,39.71c-.56-.08-.88-.32-.88-.56s.24-.32.56-.4a3.64,3.64,0,0,0-4.79-1.44A3.56,3.56,0,0,0,173,38.75a4.57,4.57,0,0,0,1.28,4.63,8.4,8.4,0,0,1,3.43-.56c.32,0,.56.08.88.08a3.07,3.07,0,0,0,1-3.19Z" transform="translate(-0.78 -2.87)"/><path class="bb" d="M174.4,42.9a4.14,4.14,0,0,1-1-3.91,3.05,3.05,0,0,1,2.87-1.52c.88.08,2.56,4.63,2.08,5.11-.24,0-.4-.08-.64-.08A6.84,6.84,0,0,0,174.4,42.9Z" transform="translate(-0.78 -2.87)"/><path class="aw" d="M174.08,43.62a8.42,8.42,0,0,1,6.39.08l.08-.16a8.55,8.55,0,0,0-6.55-.16Z" transform="translate(-0.78 -2.87)"/><path class="bc" d="M177.11,37.47c-.16.08.08.4.08.56a12,12,0,0,1,.88,1.76c.08.4.48,1.68.56,2s.32.16.32.16a6.65,6.65,0,0,0,.32-1.2,2.07,2.07,0,0,0-.56-.88,1.58,1.58,0,0,1-.48-.88,1,1,0,0,0-.4-1C177.51,37.71,177.35,37.47,177.11,37.47Z" transform="translate(-0.78 -2.87)"/><circle class="bd" cx="176.02" cy="40.37" r="2.4" transform="matrix(0.07, -1, 1, 0.07, 122.33, 210.16)"/><g class="be"><circle class="c" cx="178.08" cy="40.58" r="0.8" transform="translate(124.03 212.41) rotate(-85.88)"/></g><g class="bf"><circle class="c" cx="176.79" cy="41.26" r="0.4" transform="translate(122.16 211.75) rotate(-85.88)"/></g><ellipse class="as" cx="150.3" cy="24.28" rx="25.31" ry="18.13" transform="translate(-1.86 37.65) rotate(-15.3)"/><ellipse class="ar" cx="150.06" cy="23.32" rx="23.48" ry="16.45" transform="translate(-1.61 37.55) rotate(-15.3)"/><ellipse class="bh" cx="149.1" cy="19.26" rx="17.81" ry="9.26" transform="translate(-0.58 37.16) rotate(-15.3)"/><path class="bi" d="M137.67,55.44c3.51-.16,7-.24,10.46-.64.88-.08,1.68-.24,2.56-.4.24-.08.4-.08.64-.16l.32-.08.32-.08c.4-.16.8-.24,1.2-.4l1.2-.48c.4-.16.8-.32,1.28-.48s.88-.24,1.28-.4a7.48,7.48,0,0,1,1.28-.32,7,7,0,0,1,1.36-.16,6.21,6.21,0,0,0,1.28-.16l1.28-.24c.4-.08.8-.24,1.2-.32,1.6-.56,3.27-1.28,4.87-1.92s3.19-1.36,4.79-2.16c.8-.4,1.6-.72,2.4-1.12a8.73,8.73,0,0,0,1.2-.64c.4-.24.8-.4,1.12-.64a10.45,10.45,0,0,1-2.16,1.52c-.72.48-1.52.88-2.32,1.36a52.18,52.18,0,0,1-4.71,2.4c-.8.4-1.6.72-2.4,1.12a23,23,0,0,1-2.48,1,7.85,7.85,0,0,1-1.28.4l-1.28.24a7,7,0,0,1-1.28.16,7,7,0,0,0-1.28.16l-1.28.24c-.48.08-.8.24-1.2.32a7.49,7.49,0,0,0-1.2.48c-.4.16-.8.32-1.28.48l-1.28.4L152,55l-.16.08-.16.08-.64.16c-.88.16-1.76.24-2.64.32-1.76.08-3.51.08-5.27.08S139.42,55.6,137.67,55.44Z" transform="translate(-0.78 -2.87)"/><path class="bj" d="M134.79,40.66a25.34,25.34,0,0,0,9.9,3.19,28.18,28.18,0,0,0,5.19.08,29.49,29.49,0,0,0,10-2.64l1.2-.56,1.12-.64,1.12-.64,1-.72a26.82,26.82,0,0,0,7.19-7.51,25.14,25.14,0,0,1-6.79,8A33.1,33.1,0,0,1,160.1,42a27,27,0,0,1-5,1.84,30.26,30.26,0,0,1-5.27.88,30,30,0,0,1-5.35-.24A23.64,23.64,0,0,1,134.79,40.66Z" transform="translate(-0.78 -2.87)"/><path class="bj" d="M134,40.11a24.55,24.55,0,0,0,10.06,2.71,37.2,37.2,0,0,0,5.19-.16,36.21,36.21,0,0,0,5.11-1,36.48,36.48,0,0,0,5-1.76,37,37,0,0,0,4.63-2.48,32.76,32.76,0,0,0,7.91-6.95,28,28,0,0,1-7.51,7.51c-.4.24-.72.48-1.12.72a8.73,8.73,0,0,1-1.2.64l-.56.32-.64.32-.64.32-.64.24a34.22,34.22,0,0,1-5,1.84,30.49,30.49,0,0,1-5.27,1,29.94,29.94,0,0,1-5.35.08,24.62,24.62,0,0,1-5.27-1A17.59,17.59,0,0,1,134,40.11Z" transform="translate(-0.78 -2.87)"/><path class="an" d="M134.63,40.58a25,25,0,0,0,4.79,1.92,27.68,27.68,0,0,0,5,.88,27.33,27.33,0,0,0,5.11-.08,27.92,27.92,0,0,0,5-1,31.06,31.06,0,0,0,4.79-1.76,30.4,30.4,0,0,0,4.47-2.48,33,33,0,0,0,7.59-6.95,26.53,26.53,0,0,1-7.19,7.43l-1.12.72-1.12.64-1.12.64-1.2.56a36.88,36.88,0,0,1-5,1.84,28.32,28.32,0,0,1-5.19,1,23.27,23.27,0,0,1-5.27-.08,22.48,22.48,0,0,1-5.11-1.12A19.78,19.78,0,0,1,134.63,40.58Z" transform="translate(-0.78 -2.87)"/><ellipse class="as" cx="155.49" cy="45.22" rx="15.73" ry="1.28" transform="translate(-7.2 39.76) rotate(-15.3)"/><path class="bk" d="M257.52,85.86l-2.71,16.45-3.83-1s-.64,1.76-1,1.92a15,15,0,0,0,0,3.83l-1,3.83s-7.67,20.12-14.37,24l-11.5-9.58c-6.71-3.83-20.12-8.62-24.51-9.26H98.78c-2.24.72-23.56,4.79-23.56,4.79l-3.91-.48L59.73,109.42,58.21,94.24V89.45l-.08-.16c-.4-1.28-3.19-10.22-4.87-14.13l-.4-.8.32-.88c.56-1.6,2.24-6.63,2.24-6.63h.16l73.22-.64,69.87-.64,17.09-.16,19-.16,8.46,1.52Z" transform="translate(-0.78 -2.87)"/><polygon class="bl" points="54.48 67.97 59.67 82.51 60.95 100.87 71.17 110.3 97.68 105.98 198.61 105.98 223.37 116.68 234.87 125.31 246.04 105.98 246.68 94 252.11 96.56 253.07 83.15 242.53 64.94 232.39 63.26 54.48 67.97"/><path class="b" d="M229.1,65.5l-.16,1.12,13.18,12.78s8.3,5.35,9.42,6.95a15.94,15.94,0,0,1-1.52,5l-.72.16-5.35,2.79-1.12,9.1a24,24,0,0,1,.24,3.43c-.72,7-6.47,19.48-19.32,10.62h0c-5.27-2.64-14-6.23-21.8-12l-1.12-.8h-103l-.64.16c-4,1.28-22,4.47-22,4.47l-2-.16L65.48,102,64.6,90.25v-5s-3.11-10.7-4.79-14.45c.4-1.2.88-2.08,1.36-3.83Z" transform="translate(-0.78 -2.87)"/><line class="a" x1="233.51" y1="63.98" x2="177.53" y2="62.06"/><line class="a" x1="54.72" y1="64.54" x2="55.36" y2="62.62"/><polygon class="bk" points="57.44 85.86 89.22 82.67 146.95 80.03 88.74 84.74 57.36 90.57 57.44 85.86"/><polygon class="bk" points="248.44 94.17 221.93 89.37 217.06 88.5 159.73 81.23 217.38 90.65 248.2 98.88 248.44 94.17"/><polygon class="bk" points="221.69 85.06 217.38 79.95 223.37 85.06 223.85 90.73 221.69 90.17 221.69 85.06"/><path class="bm" d="M205.3,64.3" transform="translate(-0.78 -2.87)"/><path class="bm" d="M81.37,66.86l-25,.56-1,3.43,5.11,14.53.24,3.19L84.17,86.1s-22,1.84-22.44,1.36,0-2.56-.4-3-5.59-13.65-5.11-14.13a4.44,4.44,0,0,1,2.16-1.68C59.57,68.29,81.37,66.86,81.37,66.86Z" transform="translate(-0.78 -2.87)"/><polygon class="bm" points="87.94 84.98 60.15 90.01 60.95 100.87 71.17 110.3 97.68 105.98 119.24 105.98 97.68 104.7 72.05 108.62 62.63 99.99 60.95 90.65 87.94 84.98"/><polygon class="bm" points="253.07 83.15 241.57 67.81 233.27 66.7 230.95 66.38 208.12 63.9 200.37 63.02 203.41 62.94 210.19 62.78 215.14 62.62 233.91 62.06 242.53 63.98 253.07 83.15"/><polygon class="bm" points="252.11 96.56 246.68 94 223.85 90.17 223.37 85.06 217.38 79.95 223.85 85.06 224.25 89.77 246.52 93.21 252.11 96.56"/><path class="bm" d="M208.65,92l9.5,1.52,29.94,5-1.28,10.38s-.88-6-1.28-6-27.39-8.54-27.39-8.54Z" transform="translate(-0.78 -2.87)"/><polygon class="bm" points="160.28 105.98 198.61 105.98 222.41 117.64 234.87 125.31 223.37 116.68 199.01 103.43 160.28 105.98"/><g class="bf"><ellipse class="bn" cx="90.38" cy="95.28" rx="11.5" ry="2.79" transform="translate(-13.23 10.72) rotate(-8.05)"/></g><ellipse class="bo" cx="234.11" cy="78.08" rx="2.79" ry="4.95" transform="matrix(0.08, -1, 1, 0.08, 136.17, 302.07)"/><ellipse class="bn" cx="240.52" cy="82.86" rx="1.12" ry="2" transform="translate(137.29 312.84) rotate(-85.26)"/><ellipse class="bn" cx="234.37" cy="84.85" rx="1.6" ry="2.87" transform="matrix(0.08, -1, 1, 0.08, 129.67, 308.53)"/><path class="bp" d="M135.19,74.2s57.73-1.68,64.6-.88S219.51,78,219.51,78l-17.09-2.16Z" transform="translate(-0.78 -2.87)"/><path class="bq" d="M199.79,73.24c-6-.72-51.5.48-62.28.8l-2.32.08v.24l2.71.08L202.35,76l17.09,2.24V78C219.35,78,206.58,74.12,199.79,73.24Zm2.56,2.56L139.5,74.2c13.49-.4,54.62-1.44,60.29-.72,5.43.64,14.77,3.27,18.29,4.31Z" transform="translate(-0.78 -2.87)"/><g class="br"><path class="bp" d="M153.16,100.71S95.42,99,88.56,99.83s-19.72,4.71-19.72,4.71l17.09-2.16Z" transform="translate(-0.78 -2.87)"/><path class="bs" d="M151.56,100.55c-9.5-.24-56.77-1.6-62.92-.8-6.79.88-19.56,4.63-19.72,4.71l.08.24,17.09-2.16,65.56-1.68h1.6v-.24Zm-81.13,3.75c3.51-1,12.86-3.59,18.29-4.31,1.36-.16,4.71-.24,9.26-.24,14.45,0,40.72.72,50.94,1l-62.84,1.6Z" transform="translate(-0.78 -2.87)"/></g><g class="bt"><path class="bp" d="M224.14,112.29s-9.82-2.16-10.7-3.83-.88-8.14.88-8.94,18.37,1.68,20.52,3,4.31,3.83,4.31,4.71-4.31,3.43-4.31,3.43,1.68-1.68,1.28-3.43a5,5,0,0,0-3.83-3.83c-2.16-.4-14.13-3-15.41-2.16,0,0-2.56,3.43-1.28,5.59s9.42,4.71,10.7,3.83,2.16-1.68.88-3.43-8.54-1.68-8.54-1.68h9.82s2.16,2.56,1.68,3.43-.88,3.43-2.16,3.83S224.14,112.29,224.14,112.29Z" transform="translate(-0.78 -2.87)"/><path class="bu" d="M234.92,102.39c-1.12-.72-6.07-1.68-10.46-2.32s-9.18-1.12-10.14-.72c-1.12.56-1.36,3.19-1.44,4.31a11.22,11.22,0,0,0,.56,4.87c.88,1.76,10.3,3.83,10.78,3.91a12.85,12.85,0,0,0,3,.56,2,2,0,0,0,1-.16c1-.32,1.52-1.84,1.84-3,.08-.32.24-.64.32-1,.48-.88-1.52-3.27-1.76-3.51h-9.9v.24c.08,0,7.19,0,8.46,1.68a2.16,2.16,0,0,1,.56,1.68c-.08.64-.64,1-1.44,1.6-.32.24-1.44.16-2.87-.16-3-.72-6.87-2.32-7.67-3.67-1.2-2,1-5.19,1.28-5.43.8-.48,5.67.16,14.53,2l.8.16a5,5,0,0,1,3.75,3.75c.4,1.6-1.2,3.27-1.28,3.27l-.64.64.8-.48c.48-.24,4.31-2.64,4.31-3.51S237.08,103.67,234.92,102.39Zm.48,7.75a3.65,3.65,0,0,0,.88-3,5.16,5.16,0,0,0-3.91-3.91l-.8-.16c-5.75-1.2-13.57-2.71-14.69-1.92h0c-.08.16-2.56,3.51-1.28,5.67.88,1.44,4.71,3.11,7.83,3.75.88.16,2.48.48,3,.08.8-.56,1.44-1,1.52-1.76a2.28,2.28,0,0,0-.64-1.84c-.64-.88-2.71-1.28-4.63-1.52h5.75c.64.72,2,2.64,1.68,3.27-.16.32-.24.64-.4,1-.32,1-.8,2.48-1.68,2.79-1.2.4-3.75-.4-3.75-.4h0s-2.48-.56-5-1.28c-4.23-1.2-5.35-2-5.59-2.48a12.17,12.17,0,0,1-.56-4.79c.16-2.24.64-3.75,1.36-4.07a4,4,0,0,1,1.36-.16c4.39,0,17.09,2,19,3.11,2.16,1.36,4.15,3.91,4.15,4.71,0,.4-2,1.84-3.59,2.87Z" transform="translate(-0.78 -2.87)"/></g><path class="bv" d="M257.52,85.86l-2.71,16.45-3.83-1s-.64,1.76-1,1.92a15,15,0,0,0,0,3.83l-1,3.83s-7.67,20.12-14.37,24l-11.5-9.58c-6.71-3.83-20.12-8.62-24.51-9.26H155.15l-1.68-7.19-1-4.31-.88-3.67v-.32l-4.07-17.41-.32-.24h0l-9.34-8.46-.16-.16-.16-.16-.08-.08-5.75-5.27L129,66.3l-.08-.08,69.87-.64,17.09-.16,18.76-.56,8.62,1.92Z" transform="translate(-0.78 -2.87)"/><text class="bw" transform="translate(91.14 101.38)">Tutorial</text><g class="bx"><path class="by" d="M107.4,82.35l-4,.48v18.84l-9.5,1.2.48-19.16L90,84.1l.24-8.22,18.13-1.52Z" transform="translate(-0.78 -2.87)"/><path class="by" d="M119.62,99.35h0a5.12,5.12,0,0,1-2.16,2.64,7.42,7.42,0,0,1-3.35.8,5.48,5.48,0,0,1-4.07-1.52,5.72,5.72,0,0,1-1.6-4.31V82.91l7.51-.64-.24,12.38c0,.56.08,1,.32,1.12a1.66,1.66,0,0,0,1.2.32,1.69,1.69,0,0,0,1.12-.32,1.3,1.3,0,0,0,.4-1.12l-.24-11.82,7.75-.64-.48,20-6.15.24v-3Z" transform="translate(-0.78 -2.87)"/><path class="by" d="M137.27,102.63h-1a7.86,7.86,0,0,1-5-1.44c-1.2-1-1.76-2.56-1.76-4.71v-8H127.6l.24-5.83h1.6V80.43l7.27-3.27v5.51l2.71-.4-.4,6.15h-2.32v5.83A2,2,0,0,0,137,95.6c.16.24.64.32,1.28.32H139c.16,0,.32-.08.48-.08l-1.2,6.63A2.19,2.19,0,0,1,137.27,102.63Z" transform="translate(-0.78 -2.87)"/><path class="by" d="M160.42,95.12a10.38,10.38,0,0,1-1.76,3.51,9.2,9.2,0,0,1-3,2.48,12.65,12.65,0,0,1-8.38,1.12,10.1,10.1,0,0,1-3.67-1.6,9.39,9.39,0,0,1-2.71-2.87,9.84,9.84,0,0,1-1.36-4.07,9.73,9.73,0,0,1,.24-4.31,10.38,10.38,0,0,1,1.76-3.51,10.55,10.55,0,0,1,3-2.56,12.65,12.65,0,0,1,8.38-1.12,10.1,10.1,0,0,1,3.67,1.6,9.39,9.39,0,0,1,2.71,2.87,11.24,11.24,0,0,1,1.44,4.07A15.61,15.61,0,0,1,160.42,95.12Zm-12.06.24a4.35,4.35,0,0,0,2.79-.24,4.17,4.17,0,0,0,2.16-1.84,3,3,0,0,0,.08-2.48,2.74,2.74,0,0,0-1.84-1.68,4.35,4.35,0,0,0-2.79.24,4.17,4.17,0,0,0-2.16,1.84,3,3,0,0,0-.08,2.48A3.15,3.15,0,0,0,148.37,95.36Z" transform="translate(-0.78 -2.87)"/><path class="by" d="M168.17,82.27V86h.08c.56-2.48,2.24-3.75,5-3.75a10.72,10.72,0,0,1,1.68.08l-1.76,7.11h-1.12a3.25,3.25,0,0,0-2.4,1,3.63,3.63,0,0,0-1,2.87v8.62l-7,.64-.24-19.64Z" transform="translate(-0.78 -2.87)"/><path class="by" d="M175.75,74.84l7.67-.32-.4,5.91-7.35.56Zm0,8.46,7.51-.64-.4,19.32-7.11.64Z" transform="translate(-0.78 -2.87)"/><path class="by" d="M196.36,100.07h0a4.72,4.72,0,0,1-2.4,1.76,9.3,9.3,0,0,1-3,.48,6.92,6.92,0,0,1-2.56-.48,6.24,6.24,0,0,1-2.08-1.36,6.38,6.38,0,0,1-1.44-2.16,8.37,8.37,0,0,1-.56-2.87,5.68,5.68,0,0,1,.56-2.56,6.77,6.77,0,0,1,6.31-3.83,6.48,6.48,0,0,1,2.64.48,7.29,7.29,0,0,1,1.76,1v-1a2.1,2.1,0,0,0-1-2.08,6,6,0,0,0-2.64-.48,9.74,9.74,0,0,0-2.71.32c-.88.24-1.68.4-2.56.72l1.28-5.35a14.69,14.69,0,0,1,3.35-.64c1.2-.08,2.32-.16,3.59-.16a14,14,0,0,1,3.19.4,6.89,6.89,0,0,1,2.79,1.28,6.5,6.5,0,0,1,1.92,2.24,6.32,6.32,0,0,1,.64,3.35l-.4,12.7-6.71.56v-2.32Zm-6.15-5.43a1.37,1.37,0,0,0,.32,2.48,3.74,3.74,0,0,0,2.16.16,3.57,3.57,0,0,0,1.92-.8,1.53,1.53,0,0,0,.48-1.36A1.64,1.64,0,0,0,194.2,94a3,3,0,0,0-2.16-.24A4.9,4.9,0,0,0,190.21,94.64Z" transform="translate(-0.78 -2.87)"/><path class="by" d="M206.1,75.64l7.59-.64-.32,27-7,.64Z" transform="translate(-0.78 -2.87)"/></g><path class="bd" d="M100.8,387.3l-.7,3.8h0a3.7,3.7,0,0,1-3.1,1.6,5,5,0,0,0,1.4-8.1A4.59,4.59,0,0,1,100.8,387.3Z" transform="translate(-0.78 -2.87)"/><path class="bz" d="M97.3,360.3a32.47,32.47,0,1,0,9.6,23A33.44,33.44,0,0,0,97.3,360.3ZM74.2,411.5a28,28,0,1,1,19.9-8.2A28.59,28.59,0,0,1,74.2,411.5Z" transform="translate(-0.78 -2.87)"/><path class="bz" d="M97.1,360.5a32.23,32.23,0,1,0,9.5,22.8A33.12,33.12,0,0,0,97.1,360.5ZM74.2,411.8a28.51,28.51,0,1,1,20-8.3,28.36,28.36,0,0,1-20,8.3Z" transform="translate(-0.78 -2.87)"/><path class="ca" d="M96.5,360.4a31.51,31.51,0,1,0,9.3,22.3A31.16,31.16,0,0,0,96.5,360.4Zm-1.7,42.9a29.13,29.13,0,1,1,0-41.2,29.21,29.21,0,0,1,0,41.2Z" transform="translate(-0.78 -2.87)"/><path class="cb" d="M104.3,371.9a10.63,10.63,0,0,1-.9,1.1l-1.4,8-.4,2.5-.6,3-.7,3.7h0l-.6,3.1-.2,1.2-.2,1-.7,3.5-.2,1-.7,3.8v.2h0l-.2,1.3h0l-.3,1.8a.9.9,0,0,1-.9.9H51.7a.91.91,0,0,1-.8-.4,1.42,1.42,0,0,1-.2-.6l-.4-2-.2-1.3-.7-3.7-.2-1-.7-3.5-.2-1-.2-1.2-.6-3.1h0l-.7-3.7-.5-3L44.5,373c-4-4-2.3-13.4,11.3-9.1h.5a27.85,27.85,0,0,1,17.3-6.1h.8a27.29,27.29,0,0,1,17.1,6.1h.6a24.42,24.42,0,0,1,6-1.1h0C105.3,362.8,106.5,368.4,104.3,371.9Z" transform="translate(-0.78 -2.87)"/><path class="cc" d="M51.8,407.6l-.4-2-.2-1.3-.7-4-.2-1s-2.8-11.6-2.9-15.6c0-2.8,1.7-11,1.7-11l-3.8-.3a5.47,5.47,0,0,1-1.3-5.7c.8-1.9,2.8-2.9,5.6-2.9a18.58,18.58,0,0,1,5.8,1h1.3l.3-.2a26.11,26.11,0,0,1,16.7-6h.4a26.11,26.11,0,0,1,16.7,6l.3.2h1.3a19.64,19.64,0,0,1,5.8-1c2.7,0,4.5.9,5.4,2.5a4.88,4.88,0,0,1-.3,5.2,3.92,3.92,0,0,1-.8,1l-3.5-.2s1.4,8.6,1.3,11.5c-.1,4-2.9,15.6-2.9,15.6l-.2,1-.7,3.9-.3,1.4-.4,1.9Z" transform="translate(-0.78 -2.87)"/><path class="cd" d="M80.9,408H66.3a10.29,10.29,0,0,1,14.6,0Z" transform="translate(-0.78 -2.87)"/><path class="ce" d="M80.9,408H66.3c1.4-1.5,4.2-2.4,7.3-2.4S79.5,406.5,80.9,408Z" transform="translate(-0.78 -2.87)"/><path class="bd" d="M77.7,403.3c0,1.7-1.8,3.2-4.1,3.2s-4.1-1.4-4.1-3.2a2.66,2.66,0,0,1,.3-1.2c0,1.6,1.7,2.9,3.8,2.9s3.8-1.3,3.8-2.9A2.13,2.13,0,0,1,77.7,403.3Z" transform="translate(-0.78 -2.87)"/><path class="cf" d="M77.7,402.8c0,1.7-1.8,3.2-4.1,3.2s-4.1-1.4-4.1-3.2a2.66,2.66,0,0,1,.3-1.2c0,1.6,1.7,2.9,3.8,2.9s3.8-1.3,3.8-2.9A2.66,2.66,0,0,1,77.7,402.8Z" transform="translate(-0.78 -2.87)"/><ellipse class="cg" cx="73.22" cy="375.93" rx="22.6" ry="17.6"/><path class="ch" d="M104.6,368.6a5,5,0,0,1-.9,2.3,8,8,0,0,1-1.3,1.3,6,6,0,0,1-4.2,1.4h-.7a6.09,6.09,0,0,1-3.1-1.3,5.71,5.71,0,0,1-1.3-1.4l-.1-.1a7.74,7.74,0,0,1-.7-1.6,6.89,6.89,0,0,0,1.1,1.3,6.54,6.54,0,0,0,2.3,1.3,6.72,6.72,0,0,0,2.4.4,9.29,9.29,0,0,0,2.9-.5,8,8,0,0,0,2.2-1.3A5.51,5.51,0,0,0,104.6,368.6Z" transform="translate(-0.78 -2.87)"/><path class="ch" d="M55.6,368.9a6,6,0,0,1-5.4,5h-.9a6.47,6.47,0,0,1-4.4-1.8A10.63,10.63,0,0,1,44,371a4.71,4.71,0,0,1-.6-1.5,2.84,2.84,0,0,0,.9,1,7.1,7.1,0,0,0,1.4,1,7.85,7.85,0,0,0,7.3,0,7,7,0,0,0,1.7-1.3A14.63,14.63,0,0,0,55.6,368.9Z" transform="translate(-0.78 -2.87)"/><path class="bd" d="M79.6,373a5.51,5.51,0,0,0,6.1-3,6.29,6.29,0,0,1-5.7,1.7,6.14,6.14,0,0,1-5.1-4.3A5.44,5.44,0,0,0,79.6,373Z" transform="translate(-0.78 -2.87)"/><path class="bd" d="M79.9,378.3a5.51,5.51,0,0,0,6.1-3,6.29,6.29,0,0,1-5.7,1.7,6.14,6.14,0,0,1-5.1-4.3A5.44,5.44,0,0,0,79.9,378.3Z" transform="translate(-0.78 -2.87)"/><path class="bd" d="M67.5,372.7a5.51,5.51,0,0,1-6.1-3,6.29,6.29,0,0,0,5.7,1.7,6.14,6.14,0,0,0,5.1-4.3A5.44,5.44,0,0,1,67.5,372.7Z" transform="translate(-0.78 -2.87)"/><path class="ci" d="M67.6,400.9c0-.2,0-.5-.2-.6a7.71,7.71,0,1,0-12.8-8.6l-.2.3a1.45,1.45,0,0,1-.7-.2.78.78,0,0,1-.2-.8v-.2l-1.3-.3-.1.2a3,3,0,0,0,.3,2.9,10,10,0,0,0,1.1,1.2,4.87,4.87,0,0,0-.1,1.2,7.56,7.56,0,0,0,2.4,5.5l.6.6.8-.3a10.55,10.55,0,0,1,2.4-.6c.3,0,.7-.1,1.1-.1a9.78,9.78,0,0,1,4.1.9l.7.4.4-.3,1.5.9.2.1.9-1.1-.2-.1A1.69,1.69,0,0,1,67.6,400.9Z" transform="translate(-0.78 -2.87)"/><path class="ci" d="M80.3,400.9c0-.2,0-.5.2-.6a7.72,7.72,0,1,1,12.4-9.2c.1.1.2.3.3.4a2.19,2.19,0,0,0,.3.5,1.45,1.45,0,0,0,.7-.2.78.78,0,0,0,.2-.8v-.2l1.3-.3.1.2a3,3,0,0,1-.3,2.9,10,10,0,0,1-1.1,1.2,4.87,4.87,0,0,1,.1,1.2,8,8,0,0,1-2.4,5.6l-.6.6-.8-.3a10.55,10.55,0,0,0-2.4-.6c-.3,0-.7-.1-1.1-.1a9.78,9.78,0,0,0-4.1.9l-.7.4-.4-.3-1.5.9-.2.1-.9-1.1.2-.2A1,1,0,0,0,80.3,400.9Z" transform="translate(-0.78 -2.87)"/><path class="bd" d="M67.2,378a5.51,5.51,0,0,1-6.1-3,6.29,6.29,0,0,0,5.7,1.7,6.14,6.14,0,0,0,5.1-4.3A5.44,5.44,0,0,1,67.2,378Z" transform="translate(-0.78 -2.87)"/><path class="bd" d="M80.2,402.6s.9-.8.7-1.5,10.9-7.6,10.9-7.6,1.9.3,2.7-.3a1.9,1.9,0,0,0,.5-1.3,2,2,0,0,1-.2,2c-.4.5-1.6,1.6-1.6,1.6Z" transform="translate(-0.78 -2.87)"/><path class="bd" d="M82.4,401.6a5.83,5.83,0,0,1-2.6-4.7,5,5,0,0,1,.2-1.2,6.8,6.8,0,0,1,6.8-4.8c3.8,0,7,2.7,7,6a5.8,5.8,0,0,1-2.1,4.4l-.2.2-.3-.1a11,11,0,0,0-2.6-.6H87.5a11.17,11.17,0,0,0-4.4.9l-.3.1Z" transform="translate(-0.78 -2.87)"/><path class="ax" d="M86.9,391.7a6.25,6.25,0,0,0-6.3,4.5,4.48,4.48,0,0,0-.1,1.1,5.54,5.54,0,0,0,2.3,4.4,12.16,12.16,0,0,1,4.6-.9,4.87,4.87,0,0,1,1.2.1,13.09,13.09,0,0,1,2.7.6,5.42,5.42,0,0,0,2-4.1C93.3,394.2,90.4,391.7,86.9,391.7Z" transform="translate(-0.78 -2.87)"/><path class="ay" d="M93.3,397.3a5.22,5.22,0,0,1-2,4,13.1,13.1,0,0,0-2.7-.6l-8-4.6a6.25,6.25,0,0,1,6.3-4.5C90.4,391.7,93.3,394.2,93.3,397.3Z" transform="translate(-0.78 -2.87)"/><path class="az" d="M91.1,400.5a8.51,8.51,0,0,0-2.2-.4l-7.3-4.2a5.56,5.56,0,0,1,5.3-3.4c3.1,0,5.6,2.2,5.6,4.9A4.26,4.26,0,0,1,91.1,400.5Z" transform="translate(-0.78 -2.87)"/><path class="ax" d="M89.6,396.4c-.7-.1-1.3-.3-1.3-.6s.3-.4.7-.5a5.07,5.07,0,0,0-4.1-2.1,5,5,0,0,0-4.4,2.6,4.87,4.87,0,0,0-.1,1.2,5.93,5.93,0,0,0,2.3,4.6,10.6,10.6,0,0,1,4.6-1,4.87,4.87,0,0,1,1.2.1,4.23,4.23,0,0,0,1.2-3A1.47,1.47,0,0,0,89.6,396.4Z" transform="translate(-0.78 -2.87)"/><path class="cj" d="M82.9,400.9a5.18,5.18,0,0,1-1.8-4,3.4,3.4,0,0,1,.1-1,4.29,4.29,0,0,1,3.8-2.2c1.2,0,3.9,5.7,3.3,6.4h-.9A13.76,13.76,0,0,0,82.9,400.9Z" transform="translate(-0.78 -2.87)"/><path class="ck" d="M82.5,401.9l-.1-.2a10.05,10.05,0,0,1,4.8-1.2,11.41,11.41,0,0,1,4.1.7l-.1.2a10.61,10.61,0,0,0-8.7.5Z" transform="translate(-0.78 -2.87)"/><path class="cl" d="M86.1,393.7c-.2.1.1.5.2.7a16.44,16.44,0,0,1,1.4,2.2c.1.5.9,2.1.9,2.5a.32.32,0,0,0,.3.3c.1,0,.1,0,.2-.1a4.15,4.15,0,0,0,.3-1.6,3.13,3.13,0,0,0-.9-1.1c-.2-.2-.7-.7-.7-1.1a1.61,1.61,0,0,0-.6-1.3C86.7,393.9,86.4,393.6,86.1,393.7Z" transform="translate(-0.78 -2.87)"/><ellipse class="bd" cx="84.12" cy="394.63" rx="3.3" ry="3.1"/><g class="be"><ellipse class="c" cx="86.92" cy="394.73" rx="1.1" ry="1"/></g><g class="bf"><circle class="c" cx="85.22" cy="395.43" r="0.5"/></g><path class="bd" d="M87.4,383.5h0a3.93,3.93,0,0,0-5,2.3,3.63,3.63,0,0,0-.1,2.3Z" transform="translate(-0.78 -2.87)"/><path class="bd" d="M88,388.3h0a3.27,3.27,0,0,0-4.5-.4,2.94,2.94,0,0,0-1,1.6Z" transform="translate(-0.78 -2.87)"/><path class="bd" d="M99.5,394.2l-.2,1.2a5.29,5.29,0,0,1-3.8-.9A6.87,6.87,0,0,0,99.5,394.2Z" transform="translate(-0.78 -2.87)"/><path class="bd" d="M98.4,399.9l-.2,1a7.46,7.46,0,0,1-1.2-.7,4.54,4.54,0,0,1-1.5-1.9,5.86,5.86,0,0,0,1.9,1.3C97.7,399.7,98.1,399.8,98.4,399.9Z" transform="translate(-0.78 -2.87)"/><path class="bd" d="M67.7,402.4s-.9-.8-.7-1.5-10.9-7.4-10.9-7.4-1.9.3-2.7-.3a1.84,1.84,0,0,1-.5-1.2,1.85,1.85,0,0,0,.2,1.9,12.09,12.09,0,0,0,1.6,1.6S66.9,401.9,67.7,402.4Z" transform="translate(-0.78 -2.87)"/><path class="bd" d="M65.6,401.5a5.79,5.79,0,0,0,2.6-4.6,5,5,0,0,0-.2-1.2,6.8,6.8,0,0,0-6.8-4.8c-3.8,0-7,2.7-7,6a5.26,5.26,0,0,0,2.2,4.3l.2.2.3-.1a11,11,0,0,1,2.6-.6h1.1a11.17,11.17,0,0,1,4.4.9l.3.1Z" transform="translate(-0.78 -2.87)"/><path class="ax" d="M61.1,391.5a6.25,6.25,0,0,1,6.3,4.5,4.1,4.1,0,0,1,.1,1.1,5.36,5.36,0,0,1-2.3,4.3,12.16,12.16,0,0,0-4.6-.9H59.4a13.09,13.09,0,0,0-2.7.6,5.22,5.22,0,0,1-2-4C54.6,394.1,57.5,391.5,61.1,391.5Z" transform="translate(-0.78 -2.87)"/><path class="ay" d="M54.6,397.2a5.22,5.22,0,0,0,2,4,13.1,13.1,0,0,1,2.7-.6l8-4.5a6.17,6.17,0,0,0-6.3-4.4C57.5,391.6,54.6,394.1,54.6,397.2Z" transform="translate(-0.78 -2.87)"/><path class="az" d="M56.9,400.3a8.51,8.51,0,0,1,2.2-.4l7.3-4.2a5.56,5.56,0,0,0-5.3-3.4c-3.1,0-5.6,2.2-5.6,4.8A4.16,4.16,0,0,0,56.9,400.3Z" transform="translate(-0.78 -2.87)"/><path class="ax" d="M58.3,396.3c.7-.1,1.3-.3,1.3-.6s-.3-.4-.7-.5a5.11,5.11,0,0,1,4.1-2,5,5,0,0,1,4.4,2.5,4.87,4.87,0,0,1,.1,1.2,5.59,5.59,0,0,1-2.3,4.5,10.6,10.6,0,0,0-4.6-1,4.87,4.87,0,0,0-1.2.1,4.07,4.07,0,0,1-1.2-3A5.28,5.28,0,0,1,58.3,396.3Z" transform="translate(-0.78 -2.87)"/><path class="cj" d="M65.1,400.8a5.32,5.32,0,0,0,1.8-3.9,3.4,3.4,0,0,0-.1-1,4.29,4.29,0,0,0-3.8-2.2c-1.2,0-3.9,5.5-3.3,6.2h.9A11.66,11.66,0,0,1,65.1,400.8Z" transform="translate(-0.78 -2.87)"/><path class="ck" d="M65.5,401.9a11.65,11.65,0,0,0-8.8-.5l-.1-.2a11.41,11.41,0,0,1,4.1-.7,10.44,10.44,0,0,1,4.9,1.2Z" transform="translate(-0.78 -2.87)"/><path class="cl" d="M61.8,393.7c.2.1-.1.5-.2.7-.5.7-1,1.4-1.4,2.1-.1.5-.9,2-.9,2.4a.32.32,0,0,1-.3.3c-.1,0-.1,0-.2-.1a4,4,0,0,1-.3-1.5,4.44,4.44,0,0,1,.8-1.1c.2-.2.7-.7.7-1.1a1.31,1.31,0,0,1,.6-1.2C61.3,393.9,61.6,393.6,61.8,393.7Z" transform="translate(-0.78 -2.87)"/><ellipse class="bd" cx="62.32" cy="394.53" rx="3.3" ry="3"/><g class="be"><circle class="c" cx="59.42" cy="394.33" r="1"/></g><g class="bf"><circle class="c" cx="61.12" cy="395.43" r="0.5"/></g><path class="bd" d="M48.4,394.7l.2,1.1a5.74,5.74,0,0,0,3.8-.8A6.81,6.81,0,0,1,48.4,394.7Z" transform="translate(-0.78 -2.87)"/><path class="bd" d="M49.4,399.9l.2,1a7.46,7.46,0,0,0,1.2-.7,4.94,4.94,0,0,0,1.6-1.9,5.86,5.86,0,0,1-1.9,1.3Z" transform="translate(-0.78 -2.87)"/><path class="bd" d="M47.1,387.3l.7,3.8h0a3.7,3.7,0,0,0,3.1,1.6,5,5,0,0,1-1.4-8.1A4,4,0,0,0,47.1,387.3Z" transform="translate(-0.78 -2.87)"/><path class="bd" d="M61.7,383.5h0a3.93,3.93,0,0,1,4.8,2.7,3.66,3.66,0,0,1-.1,2.3Z" transform="translate(-0.78 -2.87)"/><path class="bd" d="M60.7,388.3h0a3.17,3.17,0,0,1,4.5-.1,2.6,2.6,0,0,1,.9,1.6Z" transform="translate(-0.78 -2.87)"/><circle class="cm" cx="64.72" cy="396.53" r="1"/><circle class="cm" cx="60.92" cy="396.33" r="1"/><circle class="cm" cx="59.12" cy="396.73" r="1"/><ellipse class="cm" cx="63.56" cy="399.96" rx="1.1" ry="1" transform="translate(-333.22 312.27) rotate(-68.88)"/><circle class="cm" cx="64.82" cy="397.83" r="0.9"/><rect class="bd" x="72.42" y="403.33" width="0.5" height="1.8"/><path class="cn" d="M104.3,372.1a5.5,5.5,0,0,1-.9.7l-1,5.3-1.1-.6a17.14,17.14,0,0,0-3.7-3.9l-.2-.1c-1.4-.7-3.7-2.2-4.3-2.6l-.2-.1H93l.4-.3a6.54,6.54,0,0,0,2.3,1.3,6.72,6.72,0,0,0,2.4.4,9.29,9.29,0,0,0,2.9-.5,8,8,0,0,0,2.2-1.3h0a2.09,2.09,0,0,1,.4.6A4.13,4.13,0,0,1,104.3,372.1Z" transform="translate(-0.78 -2.87)"/><ellipse class="co" cx="60.22" cy="400.13" rx="4.3" ry="1.6"/><ellipse class="co" cx="86.42" cy="400.13" rx="4.3" ry="1.6"/><path class="cn" d="M54.9,370.5a45.87,45.87,0,0,1-4.4,3.3l-.3.1c-1.6,1.2-3.7,4.7-3.7,4.7l-1,.3-1-6a3.82,3.82,0,0,1-.9-.9c.1-.3.2-.7.3-1s.2-.3.2-.5a7.1,7.1,0,0,0,1.4,1,7.85,7.85,0,0,0,7.3,0,7,7,0,0,0,1.7-1.3Z" transform="translate(-0.78 -2.87)"/><g class="cp"><path class="cq" d="M104.4,371.9l-.1.1a10.63,10.63,0,0,1-.9,1.1L102,381v.1l-.4,2.5-.6,3-.2.9-.5,2.8h0l-.2,1.2-.4,1.9-.2,1.1v.1l-.1.9v.1l-.7,3.4-.2,1h0l-.2,1h0l-.5,2.9h.1l-.2,1.3h-.1l-.4,1.8a.9.9,0,0,1-.9.9H73.8V357.8h.8a27.61,27.61,0,0,1,17,6.1h.5a21.84,21.84,0,0,1,6.2-1.1h0C105.3,363,106.5,368.3,104.4,371.9Z" transform="translate(-0.78 -2.87)"/></g><circle class="bd" cx="76.12" cy="403.93" r="0.3"/><circle class="bd" cx="78.32" cy="403.93" r="0.3"/><circle class="bd" cx="78.32" cy="402.33" r="0.3"/><circle class="bd" cx="80.52" cy="403.93" r="0.3"/><circle class="bd" cx="65.42" cy="403.93" r="0.3"/><circle class="bd" cx="67.62" cy="403.93" r="0.3"/><circle class="bd" cx="67.62" cy="402.33" r="0.3"/><circle class="bd" cx="69.82" cy="403.93" r="0.3"/><path class="cr" d="M55.1,399.8h5.7a.86.86,0,0,1,.8.8v1.1a.86.86,0,0,1-.8.8H55.1a.86.86,0,0,1-.8-.8v-1.1A.74.74,0,0,1,55.1,399.8Z" transform="translate(-0.78 -2.87)"/><path class="cr" d="M88.7,399.9h6a.86.86,0,0,1,.8.8v1.1a.86.86,0,0,1-.8.8h-6a.86.86,0,0,1-.8-.8v-1.1A.79.79,0,0,1,88.7,399.9Z" transform="translate(-0.78 -2.87)"/><circle class="cm" cx="81.82" cy="396.63" r="1"/><circle class="cm" cx="85.72" cy="396.53" r="1"/><circle class="cm" cx="87.42" cy="396.83" r="1"/><ellipse class="cm" cx="84.59" cy="400.08" rx="1.1" ry="1" transform="translate(-139.25 54.48) rotate(-21.12)"/><circle class="cm" cx="81.82" cy="397.93" r="0.9"/><path class="ca" d="M48.7,415.6h57.9A2.43,2.43,0,0,1,109,418v3.2a2.43,2.43,0,0,1-2.4,2.4H48.7a2.43,2.43,0,0,1-2.4-2.4V418A2.43,2.43,0,0,1,48.7,415.6Z" transform="translate(-0.78 -2.87)"/><path class="v" d="M49.4,416.6h56.5a1.9,1.9,0,0,1,1.9,1.9V421a1.9,1.9,0,0,1-1.9,1.9H49.4a1.9,1.9,0,0,1-1.9-1.9v-2.5A1.84,1.84,0,0,1,49.4,416.6Z" transform="translate(-0.78 -2.87)"/><path class="cs" d="M81.3,416.5V423H48.2c-.7,0-1.6-1.2-1.6-2.7v-1c0-1.5,1-2.7,1.6-2.7Z" transform="translate(-0.78 -2.87)"/><path class="ct" d="M258.7,274.3s6.5-1.1,7.8,2.7c1.5,2,1,2.6,1,2.6l-2.5-.9A6.82,6.82,0,0,1,258.7,274.3Z" transform="translate(-0.78 -2.87)"/><path class="ct" d="M285.6,274.5s-6.5-1.1-7.8,2.7c-1.5,2-1,2.6-1,2.6l2.5-.9A6.49,6.49,0,0,0,285.6,274.5Z" transform="translate(-0.78 -2.87)"/><path class="ct" d="M272.2,274.3a9,9,0,0,0-8.3,7.5,18.32,18.32,0,0,0-.6,6.6c-.9,1-5.1,6.2.5,9.5s14.1,3.6,17.9-.6.7-7.7-.6-8.6a17.71,17.71,0,0,0-.3-6.5C279.9,278.8,276.4,274.4,272.2,274.3Z" transform="translate(-0.78 -2.87)"/><path class="ct" d="M277.2,289.3c0,1.4-1.8,2.6-4.7,2.6s-5.3-1.1-5.3-2.5,2-2.8,5-2.8S277.2,287.9,277.2,289.3Z" transform="translate(-0.78 -2.87)"/><ellipse class="ct" cx="268.22" cy="279.13" rx="1" ry="2.1"/><ellipse class="ct" cx="274.92" cy="279.13" rx="1" ry="2.1"/><ellipse class="ct" cx="269.52" cy="285.63" rx="1.8" ry="0.9"/><ellipse class="ct" cx="275.02" cy="279.63" rx="0.7" ry="1.4"/><ellipse class="ct" cx="268.32" cy="279.63" rx="0.7" ry="1.4"/><ellipse class="ct" cx="268.42" cy="280.13" rx="0.4" ry="0.9"/><ellipse class="ct" cx="275.12" cy="280.13" rx="0.4" ry="0.9"/><path class="ct" d="M285.6,274.5s-6.5-1.1-7.8,2.7c-1.5,2-1,2.6-1,2.6l2.5-.9A6.68,6.68,0,0,0,285.6,274.5Z" transform="translate(-0.78 -2.87)"/><path class="ct" d="M273.2,300.4c3.3,0,6.5-1,8.4-3.2,3.8-4.3.7-7.7-.6-8.6a17.71,17.71,0,0,0-.3-6.5c-.9-3.2-4.4-7.7-8.5-7.7" transform="translate(-0.78 -2.87)"/><path class="ct" d="M272.7,286.5c2.7.1,4.5,1.4,4.5,2.7s-1.6,2.5-4.3,2.6" transform="translate(-0.78 -2.87)"/><ellipse class="ct" cx="274.82" cy="279.13" rx="1" ry="2.1"/><ellipse class="ct" cx="275.02" cy="279.63" rx="0.7" ry="1.4"/><ellipse class="ct" cx="275.12" cy="280.13" rx="0.4" ry="0.9"/><path class="cu" d="M258.2,274.3s6.5-1.1,7.8,2.7c1.5,2,1,2.6,1,2.6l-2.5-.9A6.62,6.62,0,0,1,258.2,274.3Z" transform="translate(-0.78 -2.87)"/><path class="cu" d="M285.1,274.5s-6.5-1.1-7.8,2.7c-1.5,2-1,2.6-1,2.6l2.5-.9A6.68,6.68,0,0,0,285.1,274.5Z" transform="translate(-0.78 -2.87)"/><path class="cv" d="M271.7,274.3a9,9,0,0,0-8.3,7.5,18.32,18.32,0,0,0-.6,6.6c-.9,1-5.1,6.2.5,9.5s14.1,3.6,17.9-.6.7-7.7-.6-8.6a17.71,17.71,0,0,0-.3-6.5C279.3,278.8,275.9,274.4,271.7,274.3Z" transform="translate(-0.78 -2.87)"/><path class="cw" d="M276.7,289.3c0,1.4-1.8,2.6-4.7,2.6s-5.3-1.1-5.3-2.5,2-2.8,5-2.8S276.7,287.9,276.7,289.3Z" transform="translate(-0.78 -2.87)"/><ellipse class="v" cx="267.62" cy="279.13" rx="1" ry="2.1"/><ellipse class="v" cx="274.32" cy="279.13" rx="1" ry="2.1"/><ellipse class="cx" cx="268.92" cy="285.63" rx="1.8" ry="0.9"/><ellipse class="cy" cx="274.52" cy="279.63" rx="0.7" ry="1.4"/><ellipse class="cy" cx="267.72" cy="279.63" rx="0.7" ry="1.4"/><ellipse cx="267.82" cy="280.13" rx="0.4" ry="0.9"/><ellipse cx="274.52" cy="280.13" rx="0.4" ry="0.9"/><path class="cz" d="M285,274.5s-6.5-1.1-7.8,2.7c-1.5,2-1,2.6-1,2.6l2.5-.9A6.49,6.49,0,0,0,285,274.5Z" transform="translate(-0.78 -2.87)"/><path class="cu" d="M272.7,300.4c3.3,0,6.5-1,8.4-3.2,3.8-4.3.7-7.7-.6-8.6a17.71,17.71,0,0,0-.3-6.5c-.9-3.2-4.4-7.7-8.5-7.7" transform="translate(-0.78 -2.87)"/><path class="cz" d="M272.2,286.5c2.7.1,4.5,1.4,4.5,2.7s-1.6,2.5-4.3,2.6" transform="translate(-0.78 -2.87)"/><ellipse class="v" cx="274.22" cy="279.13" rx="1" ry="2.1"/><ellipse class="da" cx="274.42" cy="279.63" rx="0.7" ry="1.4"/><ellipse cx="274.52" cy="280.13" rx="0.4" ry="0.9"/><path class="db" d="M271.5,310.5a24.9,24.9,0,1,1,24.9-25A24.9,24.9,0,0,1,271.5,310.5Z" transform="translate(-0.78 -2.87)"/><circle class="dc" cx="270.72" cy="282.63" r="21.5"/><path class="dd" d="M284,274.5l-.6.3-.3-.5c0-.1-.2-.1-.3-.1s-.1.2-.1.3l.3.5-.5.3c-.1,0-.1.2-.1.3s.2.1.3.1l.5-.3.3.5c0,.1.2.1.3.1s.1-.2.1-.3l-.3-.5.5-.3c.1,0,.1-.2.1-.3s-.1-.1-.2-.1Z" transform="translate(-0.78 -2.87)"/><path class="dd" d="M273.7,303.4l-.9.1-.1-.9a.32.32,0,0,0-.3-.3.45.45,0,0,0-.3.4h0l.1.9-.9.1c-.2,0-.3.2-.3.4s.2.3.4.3l.9-.1.1.9a.32.32,0,0,0,.3.3.45.45,0,0,0,.3-.4l-.1-.9.9-.1c.2,0,.3-.2.3-.4S273.9,303.4,273.7,303.4Z" transform="translate(-0.78 -2.87)"/><path class="dd" d="M261.2,270.5l-.9.1-.1-.9c0-.2-.2-.3-.4-.3s-.3.2-.3.4h0l.1.9-.9.1c-.2,0-.3.2-.3.4a.32.32,0,0,0,.3.3l.9-.1.1.9c0,.2.2.3.4.3s.3-.2.3-.4l-.1-.9.9-.1c.2,0,.3-.2.3-.4S261.4,270.5,261.2,270.5Z" transform="translate(-0.78 -2.87)"/><path class="dd" d="M288.5,294.5a3.65,3.65,0,0,0-2.8-2.8,3.28,3.28,0,0,0,2.8-2.8,3.52,3.52,0,0,0,2.8,2.8C289.6,292.1,288.5,293,288.5,294.5Z" transform="translate(-0.78 -2.87)"/><path class="dd" d="M257.9,296.8c-.5-2.4-2.2-4.1-5-5,2.7-.3,4.2-2.1,5-5a6.42,6.42,0,0,0,5,5C259.8,292.5,257.9,294,257.9,296.8Z" transform="translate(-0.78 -2.87)"/><path class="de" d="M163.6,348.9l1.2-.9s-.3,5.4,1.2,7c.9,1-.6,1.6-1.8,2" transform="translate(-0.78 -2.87)"/><path class="de" d="M164.1,357l-1.3.3s.2-5.1-1.1-7.1l1.9-1.4" transform="translate(-0.78 -2.87)"/><path class="df" d="M177.1,362.5c0,5-5,10.1-11.8,10.1-7.2,0-14.4-4-14.4-10.1,0-5.4,2-8.8,5.9-9,1.8-.5,7.1.9,7.1.9.2,0,4.5-1.5,7.2-.7S177.1,357.3,177.1,362.5Z" transform="translate(-0.78 -2.87)"/><path class="df" d="M164,354.4c.2,0,4.5-1.5,7.2-.7s5.9,3.6,5.9,8.8c0,5-5,10.1-11.8,10.1" transform="translate(-0.78 -2.87)"/><path class="dg" d="M163.2,349.3l1.2-.9s-.3,5.4,1.2,7c.9,1-.6,1.6-1.8,2" transform="translate(-0.78 -2.87)"/><path class="dh" d="M163.8,357.4l-1.3.3s.2-5.1-1.1-7.1l1.9-1.4" transform="translate(-0.78 -2.87)"/><path class="di" d="M176.7,362.9c0,5-5,10.1-11.8,10.1-7.2,0-14.4-4-14.4-10.1,0-5.4,2-8.8,5.9-9,1.8-.5,7.1.9,7.1.9.2,0,4.5-1.5,7.2-.7S176.7,357.6,176.7,362.9Z" transform="translate(-0.78 -2.87)"/><path class="dj" d="M163.6,354.8c.2,0,4.5-1.5,7.2-.7s5.9,3.6,5.9,8.8c0,5-5,10.1-11.8,10.1" transform="translate(-0.78 -2.87)"/><path class="db" d="M164.6,385.5a24.9,24.9,0,1,1,24.9-24.9A24.9,24.9,0,0,1,164.6,385.5Z" transform="translate(-0.78 -2.87)"/><circle class="dc" cx="163.82" cy="357.63" r="21.5"/><path class="dd" d="M177.1,349.5l-.5.3-.3-.5c0-.1-.2-.1-.3-.1s-.1.2-.1.3l.3.5-.5.3c-.1,0-.1.2-.1.3s.2.1.3.1h0l.5-.3.3.5c0,.1.2.1.3.1s.1-.2.1-.3h0l-.3-.5.5-.3c.1,0,.1-.2.1-.3A.37.37,0,0,0,177.1,349.5Z" transform="translate(-0.78 -2.87)"/><path class="dd" d="M166.8,378.4l-.9.1-.1-.9a.32.32,0,0,0-.3-.3c-.2,0-.3.2-.3.4l.1.9-.9.1a.3.3,0,0,0,0,.6l.9-.1.1.9a.32.32,0,0,0,.3.3c.2,0,.3-.2.3-.4l-.1-.9.9-.1a.32.32,0,0,0,.3-.3C167.2,378.5,167,378.4,166.8,378.4Z" transform="translate(-0.78 -2.87)"/><path class="dd" d="M154.4,345.5l-.9.1-.1-.9a.32.32,0,0,0-.3-.3c-.2,0-.3.2-.3.4h0l.1.9-.9.1a.3.3,0,1,0,0,.6l.9-.1.1.9a.32.32,0,0,0,.3.3c.2,0,.3-.2.3-.4l-.1-.9.9-.1a.3.3,0,1,0,0-.6Z" transform="translate(-0.78 -2.87)"/><path class="dd" d="M181.7,369.5a3.65,3.65,0,0,0-2.8-2.8,3.28,3.28,0,0,0,2.8-2.8,3.52,3.52,0,0,0,2.8,2.8C182.7,367.1,181.7,368,181.7,369.5Z" transform="translate(-0.78 -2.87)"/><path class="dd" d="M151.1,371.8c-.5-2.4-2.2-4.1-5-5,2.7-.3,4.2-2.1,5-5a6.42,6.42,0,0,0,5,5C153,367.5,151.1,369,151.1,371.8Z" transform="translate(-0.78 -2.87)"/><path class="dk" d="M113.2,259.6s-1.1,0-1.1,1.8,1.9,11.3.7,12.1-2.4,2.4-.8,3.7.4,3.9.6,5.1-1.4,2,.5,3.1,19.7-.9,20.5-.5,1.3-4.4,1.1-4.6a2.37,2.37,0,0,1,.9-2.2c.8-.5-.7-6.2-.7-7s-.3-7.2-.6-7.6-1.1-1-.7-1.1.3-2.9,0-3.2a20.63,20.63,0,0,1-1.2-3.5c0-.4-1.3.3-1.5.3s-.8-.5-1.2,0-1.5,1-1.8.7-.2-.4-.4-.7a5,5,0,0,0-2.7-.5,12.21,12.21,0,0,0-2.6.6c-.4.2-.7,1.2-.9.8s.5-.7-.9-.9-2.3-.7-1.7.2-.8-.1-.9.1-.9.7-.8,1.2-.7-.1-1.2-.1-1.1.5-1.1.8-.5.3-.8.5S114.2,259.6,113.2,259.6Z" transform="translate(-0.78 -2.87)"/><path class="dl" d="M113.4,259.9s-1.1,0-1.1,1.8,1.9,11.3.7,12.1-2.4,2.4-.8,3.7.4,3.9.6,5.1-1.4,2,.5,3.1,19.7-.9,20.5-.5,1.3-4.4,1.1-4.6a2.37,2.37,0,0,1,.9-2.2c.8-.5-.7-6.2-.7-7s-.3-7.2-.6-7.6-1.1-1-.7-1.1.3-2.9,0-3.2a20.63,20.63,0,0,1-1.2-3.5c0-.4-1.3.3-1.5.3s-.8-.5-1.2,0-1.5,1-1.8.7-.2-.4-.4-.7a5,5,0,0,0-2.7-.5,12.21,12.21,0,0,0-2.6.6c-.4.2-.7,1.2-.9.8s.5-.7-.9-.9-2.3-.7-1.7.2-.8-.1-.9.1-.9.7-.8,1.2-.7-.1-1.2-.1-1.1.5-1.1.8-.5.3-.8.5S114.4,259.9,113.4,259.9Z" transform="translate(-0.78 -2.87)"/><path class="cz" d="M113.2,260.3s-1.1,0-1.1,1.8,1.9,11.3.7,12.1-2.4,2.4-.8,3.7.4,3.9.6,5.1-1.4,2,.5,3.1,19.7-.9,20.5-.5,1.3-4.4,1.1-4.6a2.37,2.37,0,0,1,.9-2.2c.8-.5-.7-6.2-.7-7s-.3-7.2-.6-7.6-1.1-1-.7-1.1.3-2.9,0-3.2a20.63,20.63,0,0,1-1.2-3.5c0-.4-1.3.3-1.5.3s-.8-.5-1.2,0-1.5,1-1.8.7-.2-.4-.4-.7a5,5,0,0,0-2.7-.5,12.21,12.21,0,0,0-2.6.6c-.4.2-.7,1.2-.9.8s.5-.7-.9-.9-2.3-.7-1.7.2-.8-.1-.9.1-.9.7-.8,1.2-.7-.1-1.2-.1-1.1.5-1.1.8-.5.3-.8.5S114.2,260.3,113.2,260.3Z" transform="translate(-0.78 -2.87)"/><path class="dm" d="M117.8,269.5s-1.2.9-.1,2.9-.7,4.9-.5,6,.6,2.8.6,2.8,2.1,2.5,1.9,1.2-.7-2.6-.2-3.8a6.84,6.84,0,0,0,1-5C120,271,119.8,269.5,117.8,269.5Z" transform="translate(-0.78 -2.87)"/><path class="dn" d="M121.2,260.4a24,24,0,0,1,1,4.9,22.88,22.88,0,0,1-.8,2.8s3-2.3,2.3-4.1S122.7,260.5,121.2,260.4Z" transform="translate(-0.78 -2.87)"/><path class="do" d="M128.9,262.4s.6,3.4,1,5,0,1.5.3,2.8,1.3.3,1.3-1.5,1.2-.6,1.3-1.9.6-2.1-.2-2.2-1,0-1.3-1.2-.1-1.2-.7-1.5-.9-.8-1.1-.3S129.3,262.8,128.9,262.4Z" transform="translate(-0.78 -2.87)"/><path class="dm" d="M124.5,274.7s1.7.5,1.4,1.5-.4,1-.4,1.5-.2,1.9.3,1.4.8-.6,1-1.5.5-1.3.6-1.2.2,1.4.3,1.8-.7,1.8-.7,1.9-.7,1.5-.5,1.6a.8.8,0,0,0,1.1-.6v-.2a7.63,7.63,0,0,1,.2-2.6c.2-.4.5.1.6-1.3s1-1.5.9-2.1-1.1-2.4-1.2-2.8.2-1.2-.3-1.9-.2-.4-1.4-1.4-1.3-3.2-1.5-1.1,1.2,4.9,1.2,5.1A5.6,5.6,0,0,1,124.5,274.7Z" transform="translate(-0.78 -2.87)"/><path class="do" d="M117.5,270.7s-1.7.3-1.4,1.8-1.9,3.3-1.9,3.6.2,3.4.2,3.4-.4.6.3-1.1a11.73,11.73,0,0,1,1.9-3c.2-.3-.2-1.7.6-2.9S117.5,270.7,117.5,270.7Z" transform="translate(-0.78 -2.87)"/><path class="dp" d="M113.1,268.2s.6.6,1.2.4.9.7.9,1-.8,1.2-.8,1.2h-1C113.3,270,113.2,269.1,113.1,268.2Z" transform="translate(-0.78 -2.87)"/><path class="do" d="M116.5,258.6s-.6-.2-.4,1.6a7.75,7.75,0,0,1-.2,3.7,6.79,6.79,0,0,0-.7,2c0,.6.8,2.6.9,1.1a23.86,23.86,0,0,1,.2-2.4,6.15,6.15,0,0,1,.7-2.3C117.3,261.6,117.8,257.1,116.5,258.6Z" transform="translate(-0.78 -2.87)"/><path class="dm" d="M127.1,257.2a10.54,10.54,0,0,0,.5,1.9,3.13,3.13,0,0,1,.4,1.9c0,.9.6.7.7.2s.8-1.1.2-1.3-.7,0-.7-.6.2-1.1-.1-1.2-.6-.1-.6-.3S127.6,256.4,127.1,257.2Z" transform="translate(-0.78 -2.87)"/><path class="a" d="M129.8,274.2a1.66,1.66,0,0,0-.6,1.6c.3,1-.6,2.3.3,1.5s.7-.7.5-1.8S130,274.2,129.8,274.2Z" transform="translate(-0.78 -2.87)"/><path class="dp" d="M133.2,279.3a1.93,1.93,0,0,1,.3,1c0,.2-.3,1.8.2,1.3a1.3,1.3,0,0,0,.5-1.3c0-.7-1-1.6-1.1-1.1Z" transform="translate(-0.78 -2.87)"/><path class="do" d="M121,283.8a11.62,11.62,0,0,1,2-.2c.2.1,1.1.7.3.7s-1.1.5-1.8.6-2.5.5-2.1,0A9.06,9.06,0,0,1,121,283.8Z" transform="translate(-0.78 -2.87)"/><g class="dq"><path class="dr" d="M134.9,271.1c0-.8-.3-7.2-.6-7.6s-1.1-1-.7-1.1.3-2.9,0-3.2a20.63,20.63,0,0,1-1.2-3.5c0-.4-1.3.3-1.5.3s-.8-.5-1.2,0-1.5,1-1.8.7-.2-.4-.4-.7a5,5,0,0,0-2.7-.5c-.3.1-1.2.2-1.9.4a210.42,210.42,0,0,0,.6,29.7c4.9-.3,9.8-.8,10.2-.6.7.4,1.3-4.4,1.1-4.6a2.37,2.37,0,0,1,.9-2.2C136.4,277.6,134.9,271.9,134.9,271.1Z" transform="translate(-0.78 -2.87)"/><path class="ds" d="M135,271.4c0-.8-.3-7.2-.6-7.6s-1.1-1-.7-1.1.3-2.9,0-3.2a20.63,20.63,0,0,1-1.2-3.5c0-.4-1.3.3-1.5.3s-.8-.5-1.2,0-1.5,1-1.8.7-.2-.4-.4-.7a5,5,0,0,0-2.7-.5c-.4.1-1.4.2-2.1.4a208.7,208.7,0,0,0,.6,29.6c5-.3,9.9-.8,10.3-.6.7.4,1.3-4.4,1.1-4.6a2.37,2.37,0,0,1,.9-2.2C136.5,277.9,135,272.2,135,271.4Z" transform="translate(-0.78 -2.87)"/><path class="dt" d="M134.9,271.7c0-.8-.3-7.2-.6-7.6s-1.1-1-.7-1.1.3-2.9,0-3.2a20.63,20.63,0,0,1-1.2-3.5c0-.4-1.3.3-1.5.3s-.8-.5-1.2,0-1.5,1-1.8.7-.2-.4-.4-.7a5,5,0,0,0-2.7-.5c-.3.1-1.3.2-1.9.4a196.46,196.46,0,0,0,.7,29.7c4.9-.3,9.7-.8,10.1-.6.7.4,1.3-4.4,1.1-4.6a2.37,2.37,0,0,1,.9-2.2C136.4,278.2,134.9,272.5,134.9,271.7Z" transform="translate(-0.78 -2.87)"/><path class="du" d="M123.6,264a27.72,27.72,0,0,0-1-2.6c0,1.8-.1,3.6-.1,5.5C123.3,266.1,124,264.9,123.6,264Z" transform="translate(-0.78 -2.87)"/><path class="dv" d="M128.9,262.4s.6,3.4,1,5,0,1.5.3,2.8,1.3.3,1.3-1.5,1.2-.6,1.3-1.9.6-2.1-.2-2.2-1,0-1.3-1.2-.1-1.2-.7-1.5-.9-.8-1.1-.3S129.3,262.8,128.9,262.4Z" transform="translate(-0.78 -2.87)"/><path class="dw" d="M124.5,274.6s1.7.5,1.4,1.5-.4,1-.4,1.5-.2,1.9.3,1.4.8-.6,1-1.5.5-1.3.6-1.2.2,1.4.3,1.8-.7,1.8-.7,1.9-.7,1.5-.5,1.6a.8.8,0,0,0,1.1-.6v-.2a7.63,7.63,0,0,1,.2-2.6c.2-.4.5.1.6-1.3s1-1.5.9-2.1-1.1-2.4-1.2-2.8.2-1.2-.3-1.9-.2-.4-1.4-1.4-1.3-3.2-1.5-1.1,1.2,5,1.2,5.1A7.35,7.35,0,0,1,124.5,274.6Z" transform="translate(-0.78 -2.87)"/><path class="dw" d="M127.1,257.2a10.54,10.54,0,0,0,.5,1.9,3.13,3.13,0,0,1,.4,1.9c0,.9.6.7.7.2s.8-1.1.2-1.3-.7,0-.7-.6.2-1.1-.1-1.2-.6-.1-.6-.3S127.5,256.4,127.1,257.2Z" transform="translate(-0.78 -2.87)"/><path class="a" d="M129.8,274.2a1.66,1.66,0,0,0-.6,1.6c.3,1-.6,2.3.3,1.5s.7-.7.5-1.8S130,274.2,129.8,274.2Z" transform="translate(-0.78 -2.87)"/><path class="dx" d="M133.2,279.3a1.93,1.93,0,0,1,.3,1c0,.2-.3,1.8.2,1.3a1.3,1.3,0,0,0,.5-1.3c0-.7-1-1.6-1.1-1.1Z" transform="translate(-0.78 -2.87)"/><path class="do" d="M123.3,283.8v.5h0C123.9,284.3,123.5,284,123.3,283.8Z" transform="translate(-0.78 -2.87)"/></g><path class="db" d="M124.1,296.1A24.9,24.9,0,1,1,149,271.2,24.9,24.9,0,0,1,124.1,296.1Z" transform="translate(-0.78 -2.87)"/><circle class="dc" cx="123.32" cy="268.23" r="21.5"/><path class="dd" d="M136.6,260.1l-.5.3-.3-.5c0-.1-.2-.1-.3-.1s-.1.2-.1.3h0l.3.5-.5.3c-.1,0-.1.2-.1.3s.2.1.3.1l.5-.3.3.5c0,.1.2.1.3.1s.1-.2.1-.3h0l-.3-.5.5-.3c.1,0,.1-.2.1-.3A.37.37,0,0,0,136.6,260.1Z" transform="translate(-0.78 -2.87)"/><path class="dd" d="M126.3,289l-.9.1-.1-.9a.3.3,0,0,0-.6,0l.1.9-.9.1c-.2,0-.3.2-.3.4s.2.3.4.3l.9-.1.1.9a.3.3,0,0,0,.6,0l-.1-.9.9-.1c.2,0,.3-.2.3-.4S126.5,289,126.3,289Z" transform="translate(-0.78 -2.87)"/><path class="dd" d="M113.8,256.1l-.9.1-.1-.9a.3.3,0,0,0-.6,0l.1.9-.9.1c-.2,0-.3.2-.3.4s.2.3.4.3h0l.9-.1.1.9a.3.3,0,0,0,.6,0l-.1-.9.9-.1c.2,0,.3-.2.3-.4S114,256.1,113.8,256.1Z" transform="translate(-0.78 -2.87)"/><path class="dd" d="M141.1,280.1a3.65,3.65,0,0,0-2.8-2.8,3.28,3.28,0,0,0,2.8-2.8,3.52,3.52,0,0,0,2.8,2.8C142.2,277.7,141.1,278.6,141.1,280.1Z" transform="translate(-0.78 -2.87)"/><path class="dd" d="M110.5,282.4c-.5-2.4-2.2-4.1-5-5,2.7-.3,4.2-2.1,5-5a6.42,6.42,0,0,0,5,5C112.4,278.1,110.5,279.6,110.5,282.4Z" transform="translate(-0.78 -2.87)"/><path class="bp" d="M43.7,186.17c-14.43,0-26.15-12.95-26.15-28.86s11.72-28.86,26.15-28.86,26.15,12.95,26.15,28.86S58.14,186.17,43.7,186.17Z" transform="translate(-0.78 -2.87)"/><path class="ca" d="M43.7,128.53c14.43,0,26.15,12.95,26.15,28.86S58.14,186.25,43.7,186.25" transform="translate(-0.78 -2.87)"/><path class="bl" d="M43.7,181.79c-12.25,0-22.22-11-22.22-24.49s10-24.49,22.22-24.49,22.22,11,22.22,24.49S56,181.79,43.7,181.79Z" transform="translate(-0.78 -2.87)"/><path class="dy" d="M43.7,179.61c-11.11,0-20.21-10-20.21-22.3S32.6,135,43.7,135s20.21,10,20.21,22.3S54.9,179.61,43.7,179.61Z" transform="translate(-0.78 -2.87)"/><g class="bx"><path class="v" d="M36.71,165.7v1.92H27a7.66,7.66,0,0,1,.17-1.4A6.9,6.9,0,0,1,28.4,164a19.47,19.47,0,0,1,2.36-2.45A21,21,0,0,0,34,158.18a4.93,4.93,0,0,0,.87-2.36,2.77,2.77,0,0,0-.79-2,2.63,2.63,0,0,0-2-.79,2.59,2.59,0,0,0-2.1.87,3.5,3.5,0,0,0-.79,2.36l-1.84-.17a5.34,5.34,0,0,1,1.4-3.5,4.56,4.56,0,0,1,3.32-1.22,4.28,4.28,0,0,1,3.32,1.31,4.64,4.64,0,0,1,1.22,3.24,5,5,0,0,1-.35,1.92,7.3,7.3,0,0,1-1.22,2,26.21,26.21,0,0,1-2.8,2.89c-1,1-1.75,1.66-2.1,2a8.21,8.21,0,0,0-.79,1h7.35Z" transform="translate(-0.78 -2.87)"/><path class="v" d="M38.72,159.66a16.91,16.91,0,0,1,.52-4.64,5.45,5.45,0,0,1,1.57-2.71,3.87,3.87,0,0,1,2.62-1,4.16,4.16,0,0,1,2.1.52A4.82,4.82,0,0,1,47,153.37a9.44,9.44,0,0,1,.87,2.36,15.13,15.13,0,0,1,.35,3.85,16.91,16.91,0,0,1-.52,4.64,5.87,5.87,0,0,1-1.57,2.71,3.94,3.94,0,0,1-2.71,1,3.81,3.81,0,0,1-3.32-1.66C39.16,164.91,38.72,162.73,38.72,159.66Zm1.84,0c0,2.62.26,4.46.87,5.34a2.37,2.37,0,0,0,2.1,1.31,2.47,2.47,0,0,0,2.1-1.31c.61-.87.87-2.62.87-5.34s-.26-4.46-.87-5.34a2.58,2.58,0,0,0-2.1-1.31,2.33,2.33,0,0,0-2,1.14C40.82,155.2,40.56,157,40.56,159.66Z" transform="translate(-0.78 -2.87)"/><path class="v" d="M50.09,159.66a16.91,16.91,0,0,1,.52-4.64,5.45,5.45,0,0,1,1.57-2.71,3.87,3.87,0,0,1,2.62-1,4.16,4.16,0,0,1,2.1.52,4.82,4.82,0,0,1,1.49,1.49,9.44,9.44,0,0,1,.87,2.36,15.13,15.13,0,0,1,.35,3.85,16.91,16.91,0,0,1-.52,4.64,5.87,5.87,0,0,1-1.57,2.71,3.94,3.94,0,0,1-2.71,1,3.81,3.81,0,0,1-3.32-1.66C50.61,164.91,50.09,162.73,50.09,159.66Zm1.84,0c0,2.62.26,4.46.87,5.34a2.37,2.37,0,0,0,2.1,1.31A2.47,2.47,0,0,0,57,165c.61-.87.87-2.62.87-5.34s-.26-4.46-.87-5.34A2.58,2.58,0,0,0,54.9,153a2.33,2.33,0,0,0-2,1.14A11.66,11.66,0,0,0,51.93,159.66Z" transform="translate(-0.78 -2.87)"/></g><g class="bx"><path class="v" d="M34.35,145.76l.7-.09a1.65,1.65,0,0,0,.17.7.9.9,0,0,0,.52.44,2.55,2.55,0,0,0,.79.17,1.71,1.71,0,0,0,.7-.09.87.87,0,0,0,.44-.35,1.24,1.24,0,0,0,.17-.52.67.67,0,0,0-.17-.44.87.87,0,0,0-.44-.35,3.39,3.39,0,0,0-1-.26,4.79,4.79,0,0,1-1-.35,1.48,1.48,0,0,1-.52-.52,1.65,1.65,0,0,1-.17-.7,1.41,1.41,0,0,1,.26-.79,1.62,1.62,0,0,1,.7-.61,1.73,1.73,0,0,1,1-.17,4.39,4.39,0,0,1,1,.17,2.36,2.36,0,0,1,.7.61,1.69,1.69,0,0,1,.26.87l-.7.09a1.11,1.11,0,0,0-.35-.79,1.31,1.31,0,0,0-.87-.26,1.57,1.57,0,0,0-1,.26.79.79,0,0,0-.26.61,1.24,1.24,0,0,0,.17.52,3.09,3.09,0,0,0,1,.44c.52.17,1,.26,1.14.35a2.36,2.36,0,0,1,.7.61,1.3,1.3,0,0,1,.17.79,1.48,1.48,0,0,1-.26.87,1.21,1.21,0,0,1-.7.61,1.87,1.87,0,0,1-1,.26,2.79,2.79,0,0,1-1.22-.26,1.54,1.54,0,0,1-.79-.7A6,6,0,0,1,34.35,145.76Z" transform="translate(-0.78 -2.87)"/><path class="v" d="M41.87,146l.61.09a2.29,2.29,0,0,1-.52,1.14,1.45,1.45,0,0,1-1,.44,1.47,1.47,0,0,1-1.22-.52,2.12,2.12,0,0,1-.44-1.57,5.16,5.16,0,0,1,.17-1.22,1.4,1.4,0,0,1,.61-.79,1.69,1.69,0,0,1,.87-.26,1.39,1.39,0,0,1,1,.35,1.73,1.73,0,0,1,.52,1l-.61.09c-.09-.26-.17-.52-.35-.61a1.24,1.24,0,0,0-.52-.17.85.85,0,0,0-.79.35,3,3,0,0,0,0,2.45.85.85,0,0,0,.79.35.79.79,0,0,0,.61-.26A1.66,1.66,0,0,0,41.87,146Z" transform="translate(-0.78 -2.87)"/><path class="v" d="M42.83,145.49a2.26,2.26,0,0,1,.61-1.75,1.52,1.52,0,0,1,1.22-.44,1.78,1.78,0,0,1,1.31.52,2.14,2.14,0,0,1,.52,1.57,2.92,2.92,0,0,1-.26,1.31,1.62,1.62,0,0,1-.61.7,1.9,1.9,0,0,1-2.27-.26A2.52,2.52,0,0,1,42.83,145.49Zm.61,0a1.71,1.71,0,0,0,.35,1.22.93.93,0,0,0,1.57,0,2.26,2.26,0,0,0,.35-1.22,1.48,1.48,0,0,0-.35-1.14c-.26-.26-.44-.44-.79-.44a.92.92,0,0,0-.79.44A1.75,1.75,0,0,0,43.44,145.49Z" transform="translate(-0.78 -2.87)"/><path class="v" d="M47.12,147.59v-4.2h.61V144c.17-.26.26-.52.44-.61a.67.67,0,0,1,.44-.17,1.4,1.4,0,0,1,.7.26l-.26.7a1.48,1.48,0,0,0-.44-.17.45.45,0,0,0-.35.17c-.09.09-.17.26-.26.35a2.42,2.42,0,0,0-.09.79v2.19h-.79Z" transform="translate(-0.78 -2.87)"/><path class="v" d="M52.19,146.19l.7.09a1.26,1.26,0,0,1-.61,1,1.39,1.39,0,0,1-1,.35,1.78,1.78,0,0,1-1.31-.52,2.14,2.14,0,0,1-.52-1.57,2.52,2.52,0,0,1,.52-1.66,1.57,1.57,0,0,1,1.31-.61,1.32,1.32,0,0,1,1.22.61,2.14,2.14,0,0,1,.52,1.57v.17h-2.8a1.88,1.88,0,0,0,.35,1,.85.85,0,0,0,.79.35,1.26,1.26,0,0,0,.61-.17A5.82,5.82,0,0,0,52.19,146.19Zm-2.1-1.14h2.1a1.07,1.07,0,0,0-.26-.79.92.92,0,0,0-.79-.44,1.07,1.07,0,0,0-.79.35A1.06,1.06,0,0,0,50.09,145.06Z" transform="translate(-0.78 -2.87)"/></g><circle class="dz" cx="43.45" cy="154.17" r="33.06"/><polygon class="ea" points="47.56 232.08 48.09 255.53 48.51 276.21 39.16 276.54 38.73 253.44 38.28 232.37 27.52 232.73 43.42 203.55 60.46 231.58 47.56 232.08"/><text class="eb" transform="translate(89.44 152.51)">Apples gi<tspan class="ec" x="66.05" y="0">v</tspan><tspan x="73.3" y="0">e </tspan><tspan class="ed" x="85.79" y="0">y</tspan><tspan x="93.14" y="0">ou +1 points!</tspan><tspan x="17.63" y="33.6">E</tspan><tspan class="ec" x="26.88" y="33.6">v</tspan><tspan x="34.13" y="33.6">e</tspan><tspan class="ee" x="42.42" y="33.6">r</tspan><tspan x="48.41" y="33.6">ything else gi</tspan><tspan class="ec" x="142.64" y="33.6">v</tspan><tspan x="149.9" y="33.6">es </tspan><tspan class="ec" x="43.79" y="50.4">y</tspan><tspan x="51.14" y="50.4">ou -1 points.</tspan></text></svg>