<svg xmlns="http://www.w3.org/2000/svg" xmlns:xlink="http://www.w3.org/1999/xlink" viewBox="0 0 309.67 501.13"><defs><style>.a{fill:#784418;}.b{fill:#efefef;}.c{fill:#a8a8a8;}.d{fill:#b5b5b5;}.e{fill:#c6c6c6;}.f{fill:#d3d3d3;}.g{fill:#ddd;}.h{fill:#cecece;}.i{fill:#eae8e8;}.j{opacity:0.35;fill:url(#a);}.al,.am,.an,.ap,.ar,.bg,.bs,.bt,.j{isolation:isolate;}.k{fill:#e5e5e5;}.l{fill:#9b9a9a;}.m{fill:#495750;}.n{fill:#ccc;}.o{fill:#e8e8e8;}.p{fill:#249daa;}.q{fill:#1b6d6b;}.r{fill:#2bd0d8;}.s{fill:#2b2b2b;}.t{opacity:0.74;}.u{opacity:0.41;}.v{fill:#f9b9b9;}.w{fill:#eaeaea;}.x{fill:#a3a3a3;}.y{fill:#c1bfbf;}.z{fill:#492812;}.aa{fill:#86502a;}.ab{fill:none;}.ac{fill:#b87f50;}.ad{fill:#5d3b20;}.ae{fill:#683f29;}.af{fill:#5c2f0b;}.ag{fill:url(#b);}.ah{opacity:0.76;}.ai{fill:url(#c);}.aj{opacity:0.7;}.ak{fill:url(#d);}.al{fill:#212121;opacity:0.43;}.am{opacity:0.56;font-size:33.54px;fill:#1e0404;}.am,.ap,.ar{font-family:GROBOLD, GROBOLD;}.ao{fill:#f4f2f2;}.ap{font-size:19.67px;}.ap,.aq{fill:#d31616;}.ar{font-size:20.84px;}.ar,.as{fill:#13bc13;}.at{fill:#099;}.au{fill:#00b7b2;}.av{fill:#fff;}.aw{fill:#f36;}.ax{fill:#384948;}.ay{fill:#465b5a;}.az{fill:#262e26;}.ba{fill:#526664;}.bb{fill:#5a6d6b;}.bc{fill:#ad6123;}.bd{fill:#874616;}.be{fill:#e57929;}.bf{fill:#997373;}.bg{fill:#253332;}.bg,.bv{opacity:0.34;}.bh{fill:#d36318;}.bi{fill:#f4731c;}.bj{fill:#d8d8d8;}.bk{fill:#ededed;}.bl{fill:#ff9292;}.bm{fill:#f27d2f;}.bn,.bt{fill:#724720;}.bo{fill:#bc5d1d;}.bp{fill:#33493e;}.bq{fill:#84572f;}.br{fill:#686b72;}.bs,.bx{fill:#1dcaf2;}.bs{opacity:0.3;}.bt{opacity:0.69;}.bu{fill:#ef874d;}.bw{fill:#512600;}</style><linearGradient id="a" x1="86.44" y1="303.34" x2="86.44" y2="311.43" gradientTransform="matrix(0.96, -0.26, -0.26, -0.96, 156.66, 381.13)" gradientUnits="userSpaceOnUse"><stop offset="0" stop-opacity="0"/><stop offset="1"/></linearGradient><radialGradient id="b" cx="189.04" cy="24.54" r="29.84" gradientTransform="matrix(1, 0, 0, -1, -12.23, 100.66)" gradientUnits="userSpaceOnUse"><stop offset="0" stop-color="#b87f50" stop-opacity="0.3"/><stop offset="0.22" stop-color="#caa687" stop-opacity="0.17"/><stop offset="0.46" stop-color="#d8c5b2" stop-opacity="0.08"/><stop offset="0.71" stop-color="#e0d7cc" stop-opacity="0.02"/><stop offset="1" stop-color="#e3ddd4" stop-opacity="0"/></radialGradient><radialGradient id="c" cx="869.12" cy="-1.97" r="29.87" gradientTransform="translate(979.7 100.66) rotate(180)" xlink:href="#b"/><linearGradient id="d" x1="224.52" y1="-5.95" x2="250.98" y2="-5.95" gradientTransform="matrix(1, 0, 0, -1, -12.23, 100.66)" xlink:href="#b"/></defs><title>FinalTutorial2Mobile</title><rect class="a" y="89.91" width="309.67" height="411.22"/><rect class="b" x="3.42" y="95.45" width="302.84" height="399.59"/><path class="c" d="M165.67,72.79l-1.76,19a2.31,2.31,0,0,1-2.48,2.08c-12.06.32-22.84-2.4-31.14-8.94a10.37,10.37,0,0,1-2.08-2.48l.64-7a2.31,2.31,0,0,1,2.48-2.08c10.46,1.36,21.56,1.44,32.26-3A2.23,2.23,0,0,1,165.67,72.79Z" transform="translate(-0.33 -3.37)"/><path class="d" d="M179,68.39l-4.71-4.87a1.45,1.45,0,0,1,0-2.16h0l1.12-1a6.19,6.19,0,0,1,8.78.08h0l5,5a.68.68,0,0,1,0,1h0l-2.08,2a5.76,5.76,0,0,1-8.06-.08Z" transform="translate(-0.33 -3.37)"/><path class="e" d="M162,90.35c-.08,0-.16.08-.24.08l-.24-.08-.4.24c-11.42,1.12-22-1-29.7-7.11A12.27,12.27,0,0,1,130.06,82l.64-6.47a.38.38,0,0,1,.4-.4h.16c14.21,1.84,22.36.24,27.31-1.12,1.76-.48,3.51-1.12,5.27-1.76a.61.61,0,0,1,.16.4L162.48,90C162.4,90.19,162.16,90.27,162,90.35Z" transform="translate(-0.33 -3.37)"/><path class="f" d="M179.25,66.64a5.54,5.54,0,0,0,7.83.08l.8-.8-3.59-3.75a6.07,6.07,0,0,0-8.62-.08.45.45,0,0,0,0,.72Z" transform="translate(-0.33 -3.37)"/><path class="d" d="M136.29,79.57,138,72.71a6.18,6.18,0,0,1,7.51-4.55h0l1.52.4a1.53,1.53,0,0,1,1.12,1.84h0l-1.6,6.55a5.69,5.69,0,0,1-6.87,4.15l-2.79-.64a.74.74,0,0,1-.56-.88Z" transform="translate(-0.33 -3.37)"/><path class="g" d="M145.47,75.5a5.58,5.58,0,0,1-6.71,4.07l-1.12-.24,1.28-5.11a6.1,6.1,0,0,1,7.35-4.47.55.55,0,0,1,.4.64Z" transform="translate(-0.33 -3.37)"/><path class="h" d="M148.27,88.12l-.4-2.87-.8-5.35-.32-2h0l-.16-1-.4-2.71-.08-.32-.16-.8V73l-.64-4.15-.8-5.19-.32-2-.08-.56a.29.29,0,0,0-.08-.24.11.11,0,0,1,0-.16v-.32a2.89,2.89,0,0,1,.8-1.84,3,3,0,0,1,1.2-.72l22.44-6.15a2,2,0,0,1,1.36,0,2.18,2.18,0,0,1,1,.56,2.15,2.15,0,0,1,.56.64.61.61,0,0,1,.16.32v.08a.28.28,0,0,0,.08.16c0,.08.08.16.08.24l.16.48.72,1.84,1.68,4.15.16.4.08.24L177.41,68h0l.32.72v.08l3,7.27,1.12,2.71C185.56,91.39,151.7,100.65,148.27,88.12Z" transform="translate(-0.33 -3.37)"/><path class="i" d="M150.58,89.07l-4.07-26.83a.72.72,0,0,0-.08-.4A.74.74,0,0,1,147,61l22.44-6.15a.75.75,0,0,1,.88.48c0,.16.08.24.16.4L180.6,80.85C182.2,86.76,152.18,95,150.58,89.07Z" transform="translate(-0.33 -3.37)"/><path class="b" d="M166.15,86.44a38.24,38.24,0,0,1-8.54,1.44l-4.07-23.16,12.38-3.35,8.3,22A36.65,36.65,0,0,1,166.15,86.44Z" transform="translate(-0.33 -3.37)"/><path class="c" d="M114.73,91.79l2.08-9.5a8.52,8.52,0,0,1,10.14-6.55h0l2.08.48a2.09,2.09,0,0,1,1.6,2.48h0l-2,9.1a7.82,7.82,0,0,1-9.26,6h0l-3.91-.8a1,1,0,0,1-.8-1.2h.08Z" transform="translate(-0.33 -3.37)"/><path class="f" d="M127.18,86a7.58,7.58,0,0,1-9,5.75l-1.52-.32,1.52-7a8.4,8.4,0,0,1,10-6.47.74.74,0,0,1,.56.88Z" transform="translate(-0.33 -3.37)"/><path class="c" d="M132.45,70.15l-2,9.1a2.09,2.09,0,0,1-2.48,1.6h0l-2.08-.48a8.52,8.52,0,0,1-6.55-10.14h0l2.08-9.5a1,1,0,0,1,1.2-.8h0l3.83.8a7.72,7.72,0,0,1,6,9.26Z" transform="translate(-0.33 -3.37)"/><path class="f" d="M130.3,71.27a7.63,7.63,0,0,0-5.83-9L123,61.93l-1.44,7a8.35,8.35,0,0,0,6.39,10,.74.74,0,0,0,.88-.56Z" transform="translate(-0.33 -3.37)"/><path class="j" d="M174.7,60.41l-29.46,8.06-1-6.79V61a5.09,5.09,0,0,1-.16-.56l27.63-7.59a5.09,5.09,0,0,1,.16.56c.08.16.08.24.16.4a.29.29,0,0,1,.08.24Z" transform="translate(-0.33 -3.37)"/><path class="h" d="M183.4,47.31a2.76,2.76,0,0,1-2,3.35L135.81,63.12a2.73,2.73,0,0,1-3.43-1.84l-8.94-26.67a2.72,2.72,0,0,1-.08-.8,24.89,24.89,0,0,1-.64-4.15h0A21.91,21.91,0,0,1,126.47,17a22.61,22.61,0,0,1,1.6-2.24,30.73,30.73,0,0,1,15.41-10h.08l.64-.16a31,31,0,0,1,19.4.72c.88.32,1.68.64,2.56,1a21.79,21.79,0,0,1,9.5,9.1,16.58,16.58,0,0,1,1.52,3.91c0,.16.08.24.08.4s0,.08.08.16Z" transform="translate(-0.33 -3.37)"/><path class="h" d="M136.29,59A7.28,7.28,0,1,1,141.4,50h0A7.31,7.31,0,0,1,136.29,59Z" transform="translate(-0.33 -3.37)"/><path class="h" d="M178.13,47.55a7.28,7.28,0,1,1,5.11-8.94h0A7.39,7.39,0,0,1,178.13,47.55Z" transform="translate(-0.33 -3.37)"/><path class="k" d="M181.64,45.16A4.19,4.19,0,0,1,179,49.55L136.69,61.13a4.17,4.17,0,0,1-3.91-2.64L132.45,57l-8.38-23.4V33L124,32.7c-1.44-5.51-.16-11.42,3.59-16.61A30.06,30.06,0,0,1,144.27,4.91C158.65,1,172.86,7.15,176,18.73l.08.32v.4l4.79,24h0Z" transform="translate(-0.33 -3.37)"/><circle class="k" cx="133.09" cy="52.66" r="6.31" transform="matrix(0.97, -0.26, 0.26, 0.97, -9.47, 33.25)"/><circle class="k" cx="176.23" cy="40.52" r="6.31" transform="translate(-4.78 44.57) rotate(-15.3)"/><path class="l" d="M138.52,53.86A5.08,5.08,0,1,0,132.06,57c.16.08.4.08.56.16l.24.08.16-.16a7.28,7.28,0,0,1,1.36-1.36l.72-.48a7.21,7.21,0,0,1,3.11-1h.24Z" transform="translate(-0.33 -3.37)"/><path class="m" d="M131.34,48.51A4.74,4.74,0,0,1,137.8,50a4.67,4.67,0,0,1,.4,4,6.69,6.69,0,0,0-3.27,1.12l-.72.48a6.14,6.14,0,0,0-1.44,1.44,4.67,4.67,0,0,1-3.59-5.59A4.76,4.76,0,0,1,131.34,48.51Z" transform="translate(-0.33 -3.37)"/><path class="n" d="M129.82,55a4.71,4.71,0,0,0,3,2.16,6.14,6.14,0,0,1,1.44-1.44l3-6.31a4.68,4.68,0,0,0-6.63-.24A4.51,4.51,0,0,0,129.82,55Z" transform="translate(-0.33 -3.37)"/><path class="o" d="M132.53,56.42a5.37,5.37,0,0,1,1.2-1.12l2.71-5.83a4.14,4.14,0,0,0-5.75.48,4.1,4.1,0,0,0-.4,4.71A4.8,4.8,0,0,0,132.53,56.42Z" transform="translate(-0.33 -3.37)"/><path class="p" d="M131.82,53.14c.4-.32.64-.72.56-.88s-.32-.16-.64-.08a3.49,3.49,0,0,1,3.59-3.43,4.1,4.1,0,0,1,1.92.56,4.68,4.68,0,0,1,1,4.71A6.69,6.69,0,0,0,135,55.14l-.72.48a3.39,3.39,0,0,1-2.48-2.48Z" transform="translate(-0.33 -3.37)"/><path class="q" d="M137.88,53.62a4.14,4.14,0,0,0-1-3.91,3,3,0,0,0-3.27,0c-.72.48-.16,5.27.48,5.51.16-.16.4-.24.56-.4A7.78,7.78,0,0,1,137.88,53.62Z" transform="translate(-0.33 -3.37)"/><path class="l" d="M138.52,54.1a8.51,8.51,0,0,0-5.59,3l-.08-.08a9.29,9.29,0,0,1,2.32-2,7.59,7.59,0,0,1,3.43-1.12Z" transform="translate(-0.33 -3.37)"/><path class="r" d="M132.93,50c.16,0,.16.4.16.56a8.37,8.37,0,0,0,.08,2c.16.4.32,1.68.4,2s-.16.32-.16.32-.72-.64-.8-1a2.3,2.3,0,0,1,.08-1,2,2,0,0,0,0-1,1.36,1.36,0,0,1-.16-1.12C132.69,50.43,132.69,50.11,132.93,50Z" transform="translate(-0.33 -3.37)"/><circle class="s" cx="135.27" cy="52.09" r="2.4" transform="translate(-7.61 75.03) rotate(-31.52)"/><g class="t"><circle class="b" cx="132.75" cy="53.7" r="0.8" transform="translate(-8.85 73.8) rotate(-31.46)"/></g><g class="u"><circle class="b" cx="134.22" cy="53.78" r="0.4" transform="translate(-8.67 74.58) rotate(-31.46)"/></g><ellipse class="v" cx="178.94" cy="46.75" rx="2.16" ry="1.6" transform="translate(-1.19 86.74) rotate(-28.2)"/><ellipse class="v" cx="136.21" cy="58.49" rx="2.16" ry="1.68" transform="matrix(1, -0.04, 0.04, 1, -2.67, 2.41)"/><path class="l" d="M173.42,44a5.08,5.08,0,1,1,7.19-.16c-.16.16-.32.24-.4.4l-.16.16-.24-.08a7.15,7.15,0,0,0-1.84-.64,2.72,2.72,0,0,0-.8-.08A7.25,7.25,0,0,0,174,44l-.24.08Z" transform="translate(-0.33 -3.37)"/><path class="m" d="M177.33,35.89a4.77,4.77,0,0,0-5,4.31A4.66,4.66,0,0,0,173.74,44a8.4,8.4,0,0,1,3.43-.56c.32,0,.56.08.88.08a7.73,7.73,0,0,1,1.92.64,4.77,4.77,0,0,0,.64-6.63,4.94,4.94,0,0,0-3.27-1.6Z" transform="translate(-0.33 -3.37)"/><path class="n" d="M181.64,40.92A4.7,4.7,0,0,1,180,44.2a9,9,0,0,0-1.92-.64l-5.59-4.23a4.68,4.68,0,0,1,9.18,1.6Z" transform="translate(-0.33 -3.37)"/><path class="o" d="M179.81,43.4a5.3,5.3,0,0,0-1.6-.48l-5-3.91a4.08,4.08,0,0,1,5.35-2.16,4,4,0,0,1,2.48,4A3.85,3.85,0,0,1,179.81,43.4Z" transform="translate(-0.33 -3.37)"/><path class="p" d="M179,40.21c-.56-.08-.88-.32-.88-.56s.24-.32.56-.4a3.64,3.64,0,0,0-4.79-1.44,3.56,3.56,0,0,0-1.44,1.44,4.57,4.57,0,0,0,1.28,4.63,8.4,8.4,0,0,1,3.43-.56c.32,0,.56.08.88.08a3.07,3.07,0,0,0,1-3.19Z" transform="translate(-0.33 -3.37)"/><path class="q" d="M173.9,43.4a4.14,4.14,0,0,1-1-3.91A3.05,3.05,0,0,1,175.81,38c.88.08,2.56,4.63,2.08,5.11-.24,0-.4-.08-.64-.08A6.84,6.84,0,0,0,173.9,43.4Z" transform="translate(-0.33 -3.37)"/><path class="l" d="M173.58,44.12a8.42,8.42,0,0,1,6.39.08L180,44a8.55,8.55,0,0,0-6.55-.16Z" transform="translate(-0.33 -3.37)"/><path class="r" d="M176.61,38c-.16.08.08.4.08.56a12,12,0,0,1,.88,1.76c.08.4.48,1.68.56,2s.32.16.32.16a6.65,6.65,0,0,0,.32-1.2,2.07,2.07,0,0,0-.56-.88,1.58,1.58,0,0,1-.48-.88,1,1,0,0,0-.4-1C177,38.21,176.85,38,176.61,38Z" transform="translate(-0.33 -3.37)"/><circle class="s" cx="175.52" cy="40.87" r="2.4" transform="matrix(0.07, -1, 1, 0.07, 121.8, 209.62)"/><g class="t"><circle class="b" cx="177.58" cy="41.08" r="0.8" transform="translate(123.51 211.88) rotate(-85.88)"/></g><g class="u"><circle class="b" cx="176.29" cy="41.76" r="0.4" transform="translate(121.64 211.21) rotate(-85.88)"/></g><ellipse class="h" cx="149.8" cy="24.78" rx="25.31" ry="18.13" transform="translate(-1.57 37.04) rotate(-15.3)"/><ellipse class="g" cx="149.56" cy="23.82" rx="23.48" ry="16.45" transform="translate(-1.32 36.94) rotate(-15.3)"/><ellipse class="w" cx="148.6" cy="19.76" rx="17.81" ry="9.26" transform="translate(-0.28 36.54) rotate(-15.3)"/><path class="x" d="M137.17,55.94c3.51-.16,7-.24,10.46-.64.88-.08,1.68-.24,2.56-.4.24-.08.4-.08.64-.16l.32-.08.32-.08c.4-.16.8-.24,1.2-.4l1.2-.48c.4-.16.8-.32,1.28-.48s.88-.24,1.28-.4a7.48,7.48,0,0,1,1.28-.32,7,7,0,0,1,1.36-.16,6.21,6.21,0,0,0,1.28-.16l1.28-.24c.4-.08.8-.24,1.2-.32,1.6-.56,3.27-1.28,4.87-1.92s3.19-1.36,4.79-2.16c.8-.4,1.6-.72,2.4-1.12a8.73,8.73,0,0,0,1.2-.64c.4-.24.8-.4,1.12-.64A10.45,10.45,0,0,1,175,46.67c-.72.48-1.52.88-2.32,1.36a52.18,52.18,0,0,1-4.71,2.4c-.8.4-1.6.72-2.4,1.12a23,23,0,0,1-2.48,1,7.85,7.85,0,0,1-1.28.4l-1.28.24a7,7,0,0,1-1.28.16,7,7,0,0,0-1.28.16l-1.28.24c-.48.08-.8.24-1.2.32a7.49,7.49,0,0,0-1.2.48c-.4.16-.8.32-1.28.48l-1.28.4-.32.08-.16.08-.16.08-.64.16c-.88.16-1.76.24-2.64.32-1.76.08-3.51.08-5.27.08S138.92,56.1,137.17,55.94Z" transform="translate(-0.33 -3.37)"/><path class="y" d="M134.29,41.16a25.34,25.34,0,0,0,9.9,3.19,28.18,28.18,0,0,0,5.19.08,29.49,29.49,0,0,0,10-2.64l1.2-.56,1.12-.64L162.8,40l1-.72a26.82,26.82,0,0,0,7.19-7.51,25.14,25.14,0,0,1-6.79,8,33.1,33.1,0,0,1-4.55,2.79,27,27,0,0,1-5,1.84,30.26,30.26,0,0,1-5.27.88A30,30,0,0,1,144,45,23.64,23.64,0,0,1,134.29,41.16Z" transform="translate(-0.33 -3.37)"/><path class="y" d="M133.49,40.61a24.55,24.55,0,0,0,10.06,2.71,37.2,37.2,0,0,0,5.19-.16,36.21,36.21,0,0,0,5.11-1,36.48,36.48,0,0,0,5-1.76,37,37,0,0,0,4.63-2.48,32.76,32.76,0,0,0,7.91-6.95,28,28,0,0,1-7.51,7.51c-.4.24-.72.48-1.12.72a8.73,8.73,0,0,1-1.2.64l-.56.32-.64.32-.64.32L159,41a34.22,34.22,0,0,1-5,1.84,30.49,30.49,0,0,1-5.27,1,29.94,29.94,0,0,1-5.35.08,24.62,24.62,0,0,1-5.27-1A17.59,17.59,0,0,1,133.49,40.61Z" transform="translate(-0.33 -3.37)"/><path class="c" d="M134.13,41.08A25,25,0,0,0,138.92,43a27.68,27.68,0,0,0,5,.88,27.33,27.33,0,0,0,5.11-.08,27.92,27.92,0,0,0,5-1,31.06,31.06,0,0,0,4.79-1.76,30.4,30.4,0,0,0,4.47-2.48,33,33,0,0,0,7.59-6.95,26.53,26.53,0,0,1-7.19,7.43l-1.12.72-1.12.64-1.12.64-1.2.56a36.88,36.88,0,0,1-5,1.84,28.32,28.32,0,0,1-5.19,1,23.27,23.27,0,0,1-5.27-.08,22.48,22.48,0,0,1-5.11-1.12A19.78,19.78,0,0,1,134.13,41.08Z" transform="translate(-0.33 -3.37)"/><ellipse class="h" cx="154.99" cy="45.72" rx="15.73" ry="1.28" transform="translate(-6.91 39.15) rotate(-15.3)"/><path class="z" d="M257,86.36l-2.71,16.45-3.83-1s-.64,1.76-1,1.92a15,15,0,0,0,0,3.83l-1,3.83s-7.67,20.12-14.37,24l-11.5-9.58c-6.71-3.83-20.12-8.62-24.51-9.26H98.28c-2.24.72-23.56,4.79-23.56,4.79l-3.91-.48L59.23,109.92,57.71,94.74V90l-.08-.16c-.4-1.28-3.19-10.22-4.87-14.13l-.4-.8.32-.88c.56-1.6,2.24-6.63,2.24-6.63h.16l73.22-.64,69.87-.64,17.09-.16,19-.16,8.46,1.52Z" transform="translate(-0.33 -3.37)"/><polygon class="aa" points="54.42 67.97 59.62 82.51 60.89 100.87 71.11 110.3 97.62 105.98 198.56 105.98 223.31 116.68 234.81 125.31 245.99 105.98 246.63 94 252.06 96.56 253.01 83.15 242.47 64.94 232.33 63.26 54.42 67.97"/><path class="a" d="M228.6,66l-.16,1.12,13.18,12.78s8.3,5.35,9.42,6.95a15.94,15.94,0,0,1-1.52,5l-.72.16-5.35,2.79-1.12,9.1a24,24,0,0,1,.24,3.43c-.72,7-6.47,19.48-19.32,10.62h0c-5.27-2.64-14-6.23-21.8-12l-1.12-.8h-103l-.64.16c-4,1.28-22,4.47-22,4.47l-2-.16L65,102.49,64.1,90.75v-5S61,75,59.31,71.27c.4-1.2.88-2.08,1.36-3.83Z" transform="translate(-0.33 -3.37)"/><line class="ab" x1="233.45" y1="63.98" x2="177.48" y2="62.06"/><line class="ab" x1="54.66" y1="64.54" x2="55.3" y2="62.62"/><polygon class="z" points="57.38 85.86 89.16 82.67 146.89 80.03 88.68 84.74 57.3 90.57 57.38 85.86"/><polygon class="z" points="248.38 94.17 221.87 89.37 217 88.5 159.67 81.23 217.32 90.65 248.14 98.88 248.38 94.17"/><polygon class="z" points="221.63 85.06 217.32 79.95 223.31 85.06 223.79 90.73 221.63 90.17 221.63 85.06"/><path class="ac" d="M204.8,64.8" transform="translate(-0.33 -3.37)"/><path class="ac" d="M80.87,67.36l-25,.56-1,3.43L60,85.88l.24,3.19L83.67,86.6s-22,1.84-22.44,1.36,0-2.56-.4-3-5.59-13.65-5.11-14.13a4.44,4.44,0,0,1,2.16-1.68C59.07,68.79,80.87,67.36,80.87,67.36Z" transform="translate(-0.33 -3.37)"/><polygon class="ac" points="87.88 84.98 60.09 90.01 60.89 100.87 71.11 110.3 97.62 105.98 119.18 105.98 97.62 104.7 71.99 108.62 62.57 99.99 60.89 90.65 87.88 84.98"/><polygon class="ac" points="253.01 83.15 241.52 67.81 233.21 66.7 230.9 66.38 208.06 63.9 200.31 63.02 203.35 62.94 210.13 62.78 215.09 62.62 233.85 62.06 242.47 63.98 253.01 83.15"/><polygon class="ac" points="252.06 96.56 246.63 94 223.79 90.17 223.31 85.06 217.32 79.95 223.79 85.06 224.19 89.77 246.47 93.21 252.06 96.56"/><path class="ac" d="M208.15,92.51l9.5,1.52,29.94,5-1.28,10.38s-.88-6-1.28-6-27.39-8.54-27.39-8.54Z" transform="translate(-0.33 -3.37)"/><polygon class="ac" points="160.23 105.98 198.56 105.98 222.35 117.64 234.81 125.31 223.31 116.68 198.96 103.43 160.23 105.98"/><g class="u"><ellipse class="ad" cx="89.88" cy="95.78" rx="11.5" ry="2.79" transform="translate(-12.86 10.15) rotate(-8.05)"/></g><ellipse class="ae" cx="233.61" cy="78.58" rx="2.79" ry="4.95" transform="matrix(0.08, -1, 1, 0.08, 135.66, 301.53)"/><ellipse class="ad" cx="240.02" cy="83.36" rx="1.12" ry="2" transform="translate(136.77 312.3) rotate(-85.26)"/><ellipse class="ad" cx="233.87" cy="85.35" rx="1.6" ry="2.87" transform="matrix(0.08, -1, 1, 0.08, 129.16, 307.99)"/><path class="af" d="M134.69,74.7s57.73-1.68,64.6-.88S219,78.53,219,78.53l-17.09-2.16Z" transform="translate(-0.33 -3.37)"/><path class="ag" d="M199.29,73.74c-6-.72-51.5.48-62.28.8l-2.32.08v.24l2.71.08,64.44,1.6,17.09,2.24v-.24C218.85,78.45,206.08,74.62,199.29,73.74Zm2.56,2.56L139,74.7c13.49-.4,54.62-1.44,60.29-.72,5.43.64,14.77,3.27,18.29,4.31Z" transform="translate(-0.33 -3.37)"/><g class="ah"><path class="af" d="M152.66,101.21s-57.73-1.68-64.6-.88S68.33,105,68.33,105l17.09-2.16Z" transform="translate(-0.33 -3.37)"/><path class="ai" d="M151.06,101.05c-9.5-.24-56.77-1.6-62.92-.8-6.79.88-19.56,4.63-19.72,4.71l.08.24L85.58,103l65.56-1.68h1.6v-.24Zm-81.13,3.75c3.51-1,12.86-3.59,18.29-4.31,1.36-.16,4.71-.24,9.26-.24,14.45,0,40.72.72,50.94,1l-62.84,1.6Z" transform="translate(-0.33 -3.37)"/></g><g class="aj"><path class="af" d="M223.64,112.79s-9.82-2.16-10.7-3.83-.88-8.14.88-8.94,18.37,1.68,20.52,3,4.31,3.83,4.31,4.71-4.31,3.43-4.31,3.43,1.68-1.68,1.28-3.43a5,5,0,0,0-3.83-3.83c-2.16-.4-14.13-3-15.41-2.16,0,0-2.56,3.43-1.28,5.59s9.42,4.71,10.7,3.83,2.16-1.68.88-3.43-8.54-1.68-8.54-1.68H228s2.16,2.56,1.68,3.43-.88,3.43-2.16,3.83S223.64,112.79,223.64,112.79Z" transform="translate(-0.33 -3.37)"/><path class="ak" d="M234.42,102.89c-1.12-.72-6.07-1.68-10.46-2.32s-9.18-1.12-10.14-.72c-1.12.56-1.36,3.19-1.44,4.31a11.22,11.22,0,0,0,.56,4.87c.88,1.76,10.3,3.83,10.78,3.91a12.85,12.85,0,0,0,3,.56,2,2,0,0,0,1-.16c1-.32,1.52-1.84,1.84-3,.08-.32.24-.64.32-1,.48-.88-1.52-3.27-1.76-3.51h-9.9v.24c.08,0,7.19,0,8.46,1.68a2.16,2.16,0,0,1,.56,1.68c-.08.64-.64,1-1.44,1.6-.32.24-1.44.16-2.87-.16-3-.72-6.87-2.32-7.67-3.67-1.2-2,1-5.19,1.28-5.43.8-.48,5.67.16,14.53,2l.8.16a5,5,0,0,1,3.75,3.75c.4,1.6-1.2,3.27-1.28,3.27l-.64.64.8-.48c.48-.24,4.31-2.64,4.31-3.51S236.58,104.17,234.42,102.89Zm.48,7.75a3.65,3.65,0,0,0,.88-3,5.16,5.16,0,0,0-3.91-3.91l-.8-.16c-5.75-1.2-13.57-2.71-14.69-1.92h0c-.08.16-2.56,3.51-1.28,5.67.88,1.44,4.71,3.11,7.83,3.75.88.16,2.48.48,3,.08.8-.56,1.44-1,1.52-1.76a2.28,2.28,0,0,0-.64-1.84c-.64-.88-2.71-1.28-4.63-1.52H228c.64.72,2,2.64,1.68,3.27-.16.32-.24.64-.4,1-.32,1-.8,2.48-1.68,2.79-1.2.4-3.75-.4-3.75-.4h0s-2.48-.56-5-1.28c-4.23-1.2-5.35-2-5.59-2.48a12.17,12.17,0,0,1-.56-4.79c.16-2.24.64-3.75,1.36-4.07a4,4,0,0,1,1.36-.16c4.39,0,17.09,2,19,3.11,2.16,1.36,4.15,3.91,4.15,4.71,0,.4-2,1.84-3.59,2.87Z" transform="translate(-0.33 -3.37)"/></g><path class="al" d="M257,86.36l-2.71,16.45-3.83-1s-.64,1.76-1,1.92a15,15,0,0,0,0,3.83l-1,3.83s-7.67,20.12-14.37,24l-11.5-9.58c-6.71-3.83-20.12-8.62-24.51-9.26H154.65L153,109.36,152,105l-.88-3.67v-.32l-4.07-17.41-.32-.24h0l-9.34-8.46-.16-.16-.16-.16-.08-.08-5.75-5.27-2.71-2.48-.08-.08,69.87-.64,17.09-.16,18.76-.56,8.62,1.92Z" transform="translate(-0.33 -3.37)"/><text class="am" transform="translate(91.09 101.38)">Tutorial</text><g class="an"><path class="ao" d="M106.9,82.85l-4,.48v18.84l-9.5,1.2.48-19.16-4.39.4.24-8.22,18.13-1.52Z" transform="translate(-0.33 -3.37)"/><path class="ao" d="M119.12,99.85h0a5.12,5.12,0,0,1-2.16,2.64,7.42,7.42,0,0,1-3.35.8,5.48,5.48,0,0,1-4.07-1.52,5.72,5.72,0,0,1-1.6-4.31V83.41l7.51-.64-.24,12.38c0,.56.08,1,.32,1.12a1.66,1.66,0,0,0,1.2.32,1.69,1.69,0,0,0,1.12-.32,1.3,1.3,0,0,0,.4-1.12L118,83.33l7.75-.64-.48,20-6.15.24v-3Z" transform="translate(-0.33 -3.37)"/><path class="ao" d="M136.77,103.13h-1a7.86,7.86,0,0,1-5-1.44c-1.2-1-1.76-2.56-1.76-4.71V89H127.1l.24-5.83h1.6V80.93l7.27-3.27v5.51l2.71-.4-.4,6.15h-2.32v5.83a2,2,0,0,0,.32,1.36c.16.24.64.32,1.28.32h.72c.16,0,.32-.08.48-.08L137.8,103A2.19,2.19,0,0,1,136.77,103.13Z" transform="translate(-0.33 -3.37)"/><path class="ao" d="M159.92,95.62a10.38,10.38,0,0,1-1.76,3.51,9.2,9.2,0,0,1-3,2.48,12.65,12.65,0,0,1-8.38,1.12,10.1,10.1,0,0,1-3.67-1.6,9.39,9.39,0,0,1-2.71-2.87A9.84,9.84,0,0,1,139,94.19a9.73,9.73,0,0,1,.24-4.31A10.38,10.38,0,0,1,141,86.36a10.55,10.55,0,0,1,3-2.56,12.65,12.65,0,0,1,8.38-1.12,10.1,10.1,0,0,1,3.67,1.6,9.39,9.39,0,0,1,2.71,2.87,11.24,11.24,0,0,1,1.44,4.07A15.61,15.61,0,0,1,159.92,95.62Zm-12.06.24a4.35,4.35,0,0,0,2.79-.24,4.17,4.17,0,0,0,2.16-1.84,3,3,0,0,0,.08-2.48,2.74,2.74,0,0,0-1.84-1.68,4.35,4.35,0,0,0-2.79.24,4.17,4.17,0,0,0-2.16,1.84,3,3,0,0,0-.08,2.48A3.15,3.15,0,0,0,147.87,95.86Z" transform="translate(-0.33 -3.37)"/><path class="ao" d="M167.67,82.77v3.75h.08c.56-2.48,2.24-3.75,5-3.75a10.72,10.72,0,0,1,1.68.08L172.7,90h-1.12a3.25,3.25,0,0,0-2.4,1,3.63,3.63,0,0,0-1,2.87v8.62l-7,.64-.24-19.64Z" transform="translate(-0.33 -3.37)"/><path class="ao" d="M175.25,75.34l7.67-.32-.4,5.91-7.35.56Zm0,8.46,7.51-.64-.4,19.32-7.11.64Z" transform="translate(-0.33 -3.37)"/><path class="ao" d="M195.86,100.57h0a4.72,4.72,0,0,1-2.4,1.76,9.3,9.3,0,0,1-3,.48,6.92,6.92,0,0,1-2.56-.48A6.24,6.24,0,0,1,185.8,101a6.38,6.38,0,0,1-1.44-2.16,8.37,8.37,0,0,1-.56-2.87,5.68,5.68,0,0,1,.56-2.56,6.77,6.77,0,0,1,6.31-3.83,6.48,6.48,0,0,1,2.64.48,7.29,7.29,0,0,1,1.76,1V90A2.1,2.1,0,0,0,194,88a6,6,0,0,0-2.64-.48,9.74,9.74,0,0,0-2.71.32c-.88.24-1.68.4-2.56.72l1.28-5.35a14.69,14.69,0,0,1,3.35-.64c1.2-.08,2.32-.16,3.59-.16a14,14,0,0,1,3.19.4A6.89,6.89,0,0,1,200.33,84a6.5,6.5,0,0,1,1.92,2.24,6.32,6.32,0,0,1,.64,3.35l-.4,12.7-6.71.56v-2.32Zm-6.15-5.43a1.37,1.37,0,0,0,.32,2.48,3.74,3.74,0,0,0,2.16.16,3.57,3.57,0,0,0,1.92-.8,1.53,1.53,0,0,0,.48-1.36,1.64,1.64,0,0,0-.88-1.12,3,3,0,0,0-2.16-.24A4.9,4.9,0,0,0,189.71,95.14Z" transform="translate(-0.33 -3.37)"/><path class="ao" d="M205.6,76.14l7.59-.64-.32,27-7,.64Z" transform="translate(-0.33 -3.37)"/></g><text class="ap" transform="translate(25.14 457.75)">Bad</text><polygon class="aq" points="132.04 448.1 101.09 449.14 101.3 455.61 132.25 454.56 132.46 462.14 152.07 449.9 131.69 438.98 132.04 448.1"/><text class="ar" transform="translate(25.26 321.17)">Good</text><polygon class="as" points="132.39 316.12 101.22 316.64 101.09 310.12 132.25 309.45 132.13 301.87 152.54 313.16 132.59 325.25 132.39 316.12"/><path d="M58.11,153.18l-2.91-3.9-1.5,1.65v2.25H52.21v-8.84H53.7v4.57l4.22-4.57h1.76l-3.42,3.78,3.65,5.07Z" transform="translate(-0.33 -3.37)"/><path d="M67.1,150.38H62a2,2,0,0,0,2.08,1.68,2.61,2.61,0,0,0,1.9-.78l.77.82A3.66,3.66,0,0,1,64,153.23a3.41,3.41,0,1,1,0-6.82C66.32,146.41,67.28,148,67.1,150.38Zm-1.26-1.06A1.73,1.73,0,0,0,64,147.57a1.9,1.9,0,0,0-2,1.74Z" transform="translate(-0.33 -3.37)"/><path d="M74.53,150.38H69.45a2,2,0,0,0,2.08,1.68,2.61,2.61,0,0,0,1.9-.78l.77.82a3.66,3.66,0,0,1-2.78,1.14,3.41,3.41,0,1,1,0-6.82C73.75,146.41,74.71,148,74.53,150.38Zm-1.26-1.06a1.73,1.73,0,0,0-1.87-1.74,1.9,1.9,0,0,0-2,1.74Z" transform="translate(-0.33 -3.37)"/><path d="M83.12,149.85a3.11,3.11,0,0,1-3.18,3.39A2.64,2.64,0,0,1,77.56,152v3.61H76.11v-9.17h1.45v1.16a2.63,2.63,0,0,1,2.35-1.21A3.16,3.16,0,0,1,83.12,149.85Zm-1.47-.05a2.05,2.05,0,1,0-2,2.2A2,2,0,0,0,81.65,149.79Z" transform="translate(-0.33 -3.37)"/><path d="M92.22,152.75a3.23,3.23,0,0,1-1.66.49,1.77,1.77,0,0,1-1.88-2V147.8h-.95v-1.09h.95v-1.84h1.44v1.84h2v1.09h-2V151c0,.7.27.91.72.91a2.35,2.35,0,0,0,1-.29Z" transform="translate(-0.33 -3.37)"/><path d="M100.07,149v4.18H98.62V149.4A1.5,1.5,0,0,0,97,147.77a1.92,1.92,0,0,0-1.92,2.1v3.31H93.63v-9.37h1.45v4a2.54,2.54,0,0,1,2.49-1.36A2.35,2.35,0,0,1,100.07,149Z" transform="translate(-0.33 -3.37)"/><path d="M107.92,150.38h-5.08a2,2,0,0,0,2.08,1.68,2.61,2.61,0,0,0,1.9-.78l.77.82a3.66,3.66,0,0,1-2.78,1.14,3.41,3.41,0,1,1,0-6.82C107.14,146.41,108.1,148,107.92,150.38Zm-1.26-1.06a1.73,1.73,0,0,0-1.87-1.74,1.9,1.9,0,0,0-2,1.74Z" transform="translate(-0.33 -3.37)"/><path d="M117.26,153.18v-.82a2.73,2.73,0,0,1-2.22.88,2.13,2.13,0,0,1-2.36-2.08c0-1.23.92-2,2.54-2h2v-.2c0-.85-.54-1.35-1.6-1.35a3.54,3.54,0,0,0-2,.68l-.59-1a4.92,4.92,0,0,1,2.89-.85c1.73,0,2.7.88,2.72,2.36v4.41Zm0-2.36v-.62h-1.82c-.95,0-1.39.25-1.39.9s.49,1,1.3,1C116.37,152.09,117.17,151.55,117.25,150.82Z" transform="translate(-0.33 -3.37)"/><path d="M127.06,149v4.18h-1.45V149.4a1.5,1.5,0,0,0-1.62-1.63,1.88,1.88,0,0,0-1.91,1.83v3.58h-1.45v-6.72h1.45v1.29a2.54,2.54,0,0,1,2.48-1.34A2.35,2.35,0,0,1,127.06,149Z" transform="translate(-0.33 -3.37)"/><path d="M130.57,144.54a.85.85,0,1,1-.85-.87A.83.83,0,0,1,130.57,144.54Zm-.13,1.92v6.72H129v-6.72Z" transform="translate(-0.33 -3.37)"/><path d="M143.82,149v4.18h-1.45V149.4a1.49,1.49,0,0,0-1.59-1.64,1.91,1.91,0,0,0-1.84,2.1v3.32h-1.45V149.4a1.48,1.48,0,0,0-1.58-1.64,1.92,1.92,0,0,0-1.87,2.1v3.32h-1.44v-6.72H134v1.3a2.48,2.48,0,0,1,2.44-1.35,2.25,2.25,0,0,1,2.34,1.62,2.47,2.47,0,0,1,2.55-1.62A2.33,2.33,0,0,1,143.82,149Z" transform="translate(-0.33 -3.37)"/><path d="M149.8,153.18v-.82a2.73,2.73,0,0,1-2.22.88,2.13,2.13,0,0,1-2.36-2.08c0-1.23.92-2,2.54-2h2v-.2c0-.85-.54-1.35-1.6-1.35a3.54,3.54,0,0,0-2,.68l-.59-1a4.92,4.92,0,0,1,2.89-.85c1.73,0,2.7.88,2.72,2.36v4.41Zm0-2.36v-.62H148c-.95,0-1.39.25-1.39.9s.49,1,1.3,1C148.91,152.09,149.71,151.55,149.78,150.82Z" transform="translate(-0.33 -3.37)"/><path d="M154.68,143.81v9.37h-1.45v-9.37Z" transform="translate(-0.33 -3.37)"/><path d="M158.79,147.56c-.57,0-1,.19-1,.67,0,1.24,3.58.57,3.56,3,0,1.38-1.23,2-2.58,2a4.15,4.15,0,0,1-2.7-.93l.52-1a3.66,3.66,0,0,0,2.25.83c.62,0,1.1-.21,1.1-.72,0-1.38-3.54-.61-3.53-3,0-1.36,1.19-1.95,2.48-1.95a4.25,4.25,0,0,1,2.35.68l-.53,1.07A4,4,0,0,0,158.79,147.56Z" transform="translate(-0.33 -3.37)"/><path d="M168.34,145.92v.8h1.76v1.09h-1.76v5.38H166.9V147.8H166v-1.09h.88v-.66a2.2,2.2,0,0,1,2.31-2.31,2.56,2.56,0,0,1,1.52.47l-.56,1.11a1.62,1.62,0,0,0-.92-.32A.84.84,0,0,0,168.34,145.92Z" transform="translate(-0.33 -3.37)"/><path d="M177.21,149.81a3.51,3.51,0,1,1-3.5-3.4A3.3,3.3,0,0,1,177.21,149.81Zm-5.56,0a2.06,2.06,0,1,0,2.06-2.19A2,2,0,0,0,171.65,149.83Z" transform="translate(-0.33 -3.37)"/><path d="M185.1,149.81a3.51,3.51,0,1,1-3.5-3.4A3.3,3.3,0,0,1,185.1,149.81Zm-5.56,0a2.06,2.06,0,1,0,2.06-2.19A2,2,0,0,0,179.54,149.83Z" transform="translate(-0.33 -3.37)"/><path d="M193,143.81v9.37h-1.45V152a2.6,2.6,0,0,1-2.36,1.21,3.43,3.43,0,0,1,0-6.85,2.66,2.66,0,0,1,2.39,1.23v-3.82Zm-1.45,6a2,2,0,0,0-2.06-2.21,2.07,2.07,0,0,0-2.07,2.21,2.07,2.07,0,1,0,4.13,0Z" transform="translate(-0.33 -3.37)"/><path d="M210.25,149v4.18H208.8V149.4a1.49,1.49,0,0,0-1.59-1.64,1.91,1.91,0,0,0-1.84,2.1v3.32h-1.45V149.4a1.49,1.49,0,0,0-1.58-1.64,1.92,1.92,0,0,0-1.87,2.1v3.32H199v-6.72h1.44v1.3a2.48,2.48,0,0,1,2.44-1.35,2.25,2.25,0,0,1,2.34,1.62,2.47,2.47,0,0,1,2.55-1.62A2.33,2.33,0,0,1,210.25,149Z" transform="translate(-0.33 -3.37)"/><path d="M218.1,150.38H213a2,2,0,0,0,2.08,1.68,2.61,2.61,0,0,0,1.9-.78l.77.82a3.66,3.66,0,0,1-2.78,1.14,3.41,3.41,0,1,1,0-6.82C217.32,146.41,218.28,148,218.1,150.38Zm-1.26-1.06a1.73,1.73,0,0,0-1.87-1.74,1.9,1.9,0,0,0-2,1.74Z" transform="translate(-0.33 -3.37)"/><path d="M223.42,152.75a3.23,3.23,0,0,1-1.66.49,1.77,1.77,0,0,1-1.88-2V147.8h-.95v-1.09h.95v-1.84h1.44v1.84h2v1.09h-2V151c0,.7.27.91.72.91a2.35,2.35,0,0,0,1-.29Z" transform="translate(-0.33 -3.37)"/><path d="M230.6,150.38h-5.08a2,2,0,0,0,2.08,1.68,2.61,2.61,0,0,0,1.9-.78l.77.82a3.66,3.66,0,0,1-2.78,1.14,3.41,3.41,0,1,1,0-6.82C229.81,146.41,230.77,148,230.6,150.38Zm-1.26-1.06a1.73,1.73,0,0,0-1.87-1.74,1.9,1.9,0,0,0-2,1.74Z" transform="translate(-0.33 -3.37)"/><path d="M235.89,146.41v1.39a2,2,0,0,0-2.33,1.87v3.51h-1.45v-6.72h1.45v1.34A2.44,2.44,0,0,1,235.89,146.41Z" transform="translate(-0.33 -3.37)"/><path d="M242.59,145.92v.8h1.76v1.09h-1.76v5.38h-1.44V147.8h-.88v-1.09h.88v-.66a2.2,2.2,0,0,1,2.31-2.31,2.56,2.56,0,0,1,1.52.47l-.56,1.11a1.62,1.62,0,0,0-.92-.32A.84.84,0,0,0,242.59,145.92Z" transform="translate(-0.33 -3.37)"/><path d="M251.42,146.46v6.72H250v-1.31a2.48,2.48,0,0,1-2.4,1.36,2.33,2.33,0,0,1-2.46-2.59v-4.18h1.45v3.78a1.48,1.48,0,0,0,1.57,1.63,1.9,1.9,0,0,0,1.84-2.1v-3.31Z" transform="translate(-0.33 -3.37)"/><path d="M255.08,143.81v9.37h-1.45v-9.37Z" transform="translate(-0.33 -3.37)"/><path d="M258.81,143.81v9.37h-1.45v-9.37Z" transform="translate(-0.33 -3.37)"/><path d="M105.69,165a3.11,3.11,0,0,1-3.18,3.39,2.64,2.64,0,0,1-2.37-1.21v1.16H98.67V159h1.45v3.82a2.63,2.63,0,0,1,2.35-1.21A3.16,3.16,0,0,1,105.69,165Zm-1.47-.05a2.05,2.05,0,1,0-2,2.2A2,2,0,0,0,104.22,165Z" transform="translate(-0.33 -3.37)"/><path d="M107.4,170.85a2.27,2.27,0,0,1-1.55-.57l.62-1.12a1.42,1.42,0,0,0,.87.33,1.09,1.09,0,0,0,1-.75l.23-.51-2.78-6.62h1.5l2,5.09,1.87-5.09h1.45l-3.06,7.64A2.24,2.24,0,0,1,107.4,170.85Z" transform="translate(-0.33 -3.37)"/><path d="M120.26,162.84a2.15,2.15,0,0,0,0,4.3,2.5,2.5,0,0,0,2-.81l.81.81a3.42,3.42,0,0,1-2.86,1.25,3.41,3.41,0,0,1,0-6.82,3.55,3.55,0,0,1,2.78,1.1l-.8.94A2.54,2.54,0,0,0,120.26,162.84Z" transform="translate(-0.33 -3.37)"/><path d="M130.68,165a3.51,3.51,0,1,1-3.5-3.4A3.3,3.3,0,0,1,130.68,165Zm-5.56,0a2.06,2.06,0,1,0,2.06-2.19A2,2,0,0,0,125.12,165Z" transform="translate(-0.33 -3.37)"/><path d="M133.71,159v9.37h-1.45V159Z" transform="translate(-0.33 -3.37)"/><path d="M137.44,159v9.37H136V159Z" transform="translate(-0.33 -3.37)"/><path d="M145.56,165.53h-5.08a2,2,0,0,0,2.08,1.68,2.61,2.61,0,0,0,1.9-.78l.77.82a3.66,3.66,0,0,1-2.78,1.14,3.41,3.41,0,1,1,0-6.82C144.78,161.57,145.74,163.11,145.56,165.53Zm-1.26-1.06a1.73,1.73,0,0,0-1.87-1.74,1.9,1.9,0,0,0-2,1.74Z" transform="translate(-0.33 -3.37)"/><path d="M149.89,162.84a2.15,2.15,0,0,0,0,4.3,2.5,2.5,0,0,0,2-.81l.81.81a3.42,3.42,0,0,1-2.86,1.25,3.41,3.41,0,0,1,0-6.82,3.55,3.55,0,0,1,2.78,1.1l-.8.94A2.54,2.54,0,0,0,149.89,162.84Z" transform="translate(-0.33 -3.37)"/><path d="M158,167.91a3.23,3.23,0,0,1-1.66.49,1.77,1.77,0,0,1-1.88-2V163h-.95v-1.09h.95V160h1.44v1.84h2V163h-2v3.22c0,.69.27.91.72.91a2.35,2.35,0,0,0,1-.29Z" transform="translate(-0.33 -3.37)"/><path d="M160.91,159.7a.85.85,0,1,1-.85-.87A.83.83,0,0,1,160.91,159.7Zm-.13,1.92v6.72h-1.44v-6.72Z" transform="translate(-0.33 -3.37)"/><path d="M169.36,164.16v4.18h-1.45v-3.78a1.5,1.5,0,0,0-1.62-1.63,1.88,1.88,0,0,0-1.91,1.83v3.58h-1.45v-6.72h1.45v1.29a2.54,2.54,0,0,1,2.48-1.34A2.35,2.35,0,0,1,169.36,164.16Z" transform="translate(-0.33 -3.37)"/><path d="M177.37,161.62v6.06c0,1.93-1.38,3.15-3.49,3.15a4.89,4.89,0,0,1-2.79-.88l.62-1a3.39,3.39,0,0,0,2.11.73,1.89,1.89,0,0,0,2.11-1.91v-.85A2.46,2.46,0,0,1,173.7,168a3,3,0,0,1-3-3.25,3,3,0,0,1,3-3.2,2.51,2.51,0,0,1,2.27,1.14v-1.09Zm-1.44,3.18a1.91,1.91,0,0,0-1.93-2.06,2.07,2.07,0,1,0,1.93,2.06Z" transform="translate(-0.33 -3.37)"/><path d="M184.89,161.07v.8h1.76V163h-1.76v5.38h-1.44V163h-.88v-1.09h.88v-.66a2.2,2.2,0,0,1,2.31-2.31,2.56,2.56,0,0,1,1.52.47l-.56,1.11a1.62,1.62,0,0,0-.92-.32A.84.84,0,0,0,184.89,161.07Z" transform="translate(-0.33 -3.37)"/><path d="M193.76,165a3.51,3.51,0,1,1-3.5-3.4A3.3,3.3,0,0,1,193.76,165Zm-5.56,0a2.06,2.06,0,1,0,2.06-2.19A2,2,0,0,0,188.2,165Z" transform="translate(-0.33 -3.37)"/><path d="M201.66,165a3.51,3.51,0,1,1-3.5-3.4A3.3,3.3,0,0,1,201.66,165Zm-5.56,0a2.06,2.06,0,1,0,2.06-2.19A2,2,0,0,0,196.1,165Z" transform="translate(-0.33 -3.37)"/><path d="M209.58,159v9.37h-1.45v-1.15a2.6,2.6,0,0,1-2.36,1.21,3.43,3.43,0,0,1,0-6.85,2.66,2.66,0,0,1,2.39,1.23V159Zm-1.45,6a2,2,0,0,0-2.06-2.21A2.07,2.07,0,0,0,204,165a2.07,2.07,0,1,0,4.13,0Z" transform="translate(-0.33 -3.37)"/><path d="M212.88,167.61a.8.8,0,1,1-1.59,0,.8.8,0,1,1,1.59,0Z" transform="translate(-0.33 -3.37)"/><path class="at" d="M262.06,220.7a52.16,52.16,0,1,0,15.33,36.93A52.25,52.25,0,0,0,262.06,220.7Zm-36.93,81.85a45,45,0,1,1,31.79-13.21A45,45,0,0,1,225.13,302.55Z" transform="translate(-0.33 -3.37)"/><path class="at" d="M261.74,221a51.76,51.76,0,1,0,15.16,36.6A51.76,51.76,0,0,0,261.74,221Zm-36.6,82a45.37,45.37,0,1,1,32.12-13.29A45.37,45.37,0,0,1,225.13,303Z" transform="translate(-0.33 -3.37)"/><path class="au" d="M260.84,220.7a50.58,50.58,0,1,0,14.84,35.79A50.58,50.58,0,0,0,260.84,220.7ZM258,289.42a46.55,46.55,0,1,1,13.7-32.94A46.52,46.52,0,0,1,258,289.42Z" transform="translate(-0.33 -3.37)"/><path class="au" d="M178.5,309.64H271.2a3.91,3.91,0,0,1,3.91,3.91v5.14a3.91,3.91,0,0,1-3.91,3.91H178.5a3.91,3.91,0,0,1-3.91-3.91v-5.14A3.91,3.91,0,0,1,178.5,309.64Z" transform="translate(-0.33 -3.37)"/><path class="av" d="M179.56,311.27h90.49a3,3,0,0,1,3,3v4a3,3,0,0,1-3,3H179.56a3,3,0,0,1-3-3v-4A3,3,0,0,1,179.56,311.27Z" transform="translate(-0.33 -3.37)"/><path class="aw" d="M261.74,311.27v10.35H180.62a4.57,4.57,0,0,1-4-4.4v-1.63a4.57,4.57,0,0,1,4-4.4Z" transform="translate(-0.33 -3.37)"/><path class="ax" d="M265.81,240.91c-.08.41-.16.9-.24,1.39l-3.75,50.79-.57,2.85a1.46,1.46,0,0,1-1.47,1.47H192.69a1.56,1.56,0,0,1-1.14-.57,1.71,1.71,0,0,1-.33-.9l-.57-2.85-3.59-49.81c-.16-.9-.33-2-.57-2.93-5-5.38-8.48-14-7-19.08L184,202.52a3.12,3.12,0,0,1,1.88-2.85h.08a2.24,2.24,0,0,1,1.06-.16c4.32,0,12.72,9.38,12.72,16.71v13.53h0a41.15,41.15,0,0,1,25.11-9.38h2.12a41.36,41.36,0,0,1,25.84,9.38h.33V216.21c0-3.67,2.12-7.83,4.73-11.09s5.87-5.63,8-5.63a3.06,3.06,0,0,1,3,3l4.48,18.75C274.86,226.48,271.11,235.61,265.81,240.91Z" transform="translate(-0.33 -3.37)"/><path class="ay" d="M193.91,295.62l-.24-1.3L190,244.58v-.16c-.16-.9-.33-2-.65-3.26l-.24-.9-.65-.65a26.12,26.12,0,0,1-5.3-8.48c-1.14-2.85-1.47-5.54-1-7.17v-.08l3.75-24.29c1,.41,5.63,2.53,7.66,5.05,2.36,2.93,4.48,6.85,4.48,9.21l.33,18.59s10.11-11.74,26.9-11.58a41.48,41.48,0,0,1,29,11.74l1-17.85c0-2.45,1.63-6.11,4-9a30.61,30.61,0,0,1,7.5-5.87l4.08,24v.08c.49,1.63.08,4.48-1.14,7.5a27.89,27.89,0,0,1-5.54,8.72l-.82.82-.16,1.14c-.08.41-.16.73-.24,1.14l-.08.24L259,294.23l-.24,1.22Z" transform="translate(-0.33 -3.37)"/><path class="az" d="M257.74,241H256.6l.82-26.41c.08-2.53,1.63-6,4.08-9a15.06,15.06,0,0,1,5.14-4.4l3.91,20.05v.16a12.37,12.37,0,0,1-.82,6.28,28.17,28.17,0,0,1-4.32,8C263,239,259.94,241.08,257.74,241Z" transform="translate(-0.33 -3.37)"/><path class="az" d="M195.13,241h1.14l-.82-26.41c-.08-2.53-1.63-6-4.08-9a15.06,15.06,0,0,0-5.14-4.4l-3.91,20.05v.16a12.37,12.37,0,0,0,.82,6.28,28.17,28.17,0,0,0,4.32,8C189.92,239,192.93,241.08,195.13,241Z" transform="translate(-0.33 -3.37)"/><path class="s" d="M232,290.24c0,2.61-2.77,4.81-6.2,4.81s-6.2-2.12-6.2-4.81a3.79,3.79,0,0,1,.49-1.88c.08,2.45,2.61,4.32,5.71,4.32s5.71-2,5.71-4.32A3.79,3.79,0,0,1,232,290.24Z" transform="translate(-0.33 -3.37)"/><ellipse class="ba" cx="226.1" cy="246.26" rx="31.96" ry="24.86"/><ellipse class="bb" cx="226.35" cy="234.6" rx="23.48" ry="11.49"/><path class="d" d="M225.79,294.64c-3.59,0-6.52-2.28-6.52-5.05a4.42,4.42,0,0,1,.49-2l.08-.24c.08-.49.16-1.39.24-2.45,1.22-11.58,2.77-33.83,5.63-33.83s4.48,22.09,5.63,33.83c.08,1,.16,2,.24,2.45l.08.24a4.19,4.19,0,0,1,.49,2C232.31,292.35,229.37,294.64,225.79,294.64Z" transform="translate(-0.33 -3.37)"/><path class="o" d="M232,289.58c0,2.61-2.77,4.32-6.2,4.32s-6.2-1.63-6.2-4.32a3.79,3.79,0,0,1,.49-1.88c.08,2.45,2.61-36.52,5.71-36.52s5.71,38.89,5.71,36.52A3.79,3.79,0,0,1,232,289.58Z" transform="translate(-0.33 -3.37)"/><path class="av" d="M225.79,290.07c-2.36,0-4.32-1.3-4.32-2.85a1,1,0,0,1,.08-.49,2.76,2.76,0,0,0,.49-1,1.54,1.54,0,0,1,.16-.65c.08-.49.16-1.22.33-2.12.41-2.61,1.06-6.52,1.39-10.19.33-3.34,1.55-19.81,1.88-20.79.41,1,1.63,17.45,1.88,20.63.41,3.67,1,7.74,1.39,10.35.16.9.24,1.63.33,2.12a3.7,3.7,0,0,0,.16.65,2.22,2.22,0,0,0,.49,1c0,.16.08.33.08.49C230.11,288.77,228.15,290.07,225.79,290.07Z" transform="translate(-0.33 -3.37)"/><path class="ax" d="M238.1,288.36a11.62,11.62,0,1,1,16.39-1.3,3.86,3.86,0,0,1-.82.82l-.9.82-1.14-.49c-.33-.08-.65-.24-1-.33a16.25,16.25,0,0,0-4-.49h-.33a15,15,0,0,0-6.68,1.63l-1,.49Z" transform="translate(-0.33 -3.37)"/><path class="ax" d="M245.68,269a10.54,10.54,0,0,0-10.52,10.52,10.24,10.24,0,0,0,3.83,8.07l.16.16h-.08l.16.33a15.51,15.51,0,0,1,7.17-1.71,22.5,22.5,0,0,1,4.65.49,4.09,4.09,0,0,1,1.06.41l.49.16.41-.33a10.3,10.3,0,0,0,3.26-7.58A10.61,10.61,0,0,0,245.68,269Z" transform="translate(-0.33 -3.37)"/><path class="ax" d="M213,289.09a14.47,14.47,0,0,0-6.68-1.63H206a16.74,16.74,0,0,0-4,.49c-.33.08-.65.24-1,.33l-1.14.49L199,288a11.59,11.59,0,1,1,16.39-.33l-.82.82-.65,1.22Z" transform="translate(-0.33 -3.37)"/><path class="ax" d="M207,269a10.54,10.54,0,0,0-10.52,10.52,10.3,10.3,0,0,0,3.26,7.58l.41.33.49-.16c.33-.16.73-.24,1.06-.41a15.05,15.05,0,0,1,4.65-.49,17.17,17.17,0,0,1,7.17,1.71l.16-.33h-.08l.16-.16a10.4,10.4,0,0,0,1.39-14.76A10.53,10.53,0,0,0,207,269Z" transform="translate(-0.33 -3.37)"/><path class="s" d="M239,287.63a10.48,10.48,0,1,1,14.76-1.39,8.93,8.93,0,0,1-.82.9l-.41.33-.49-.16a15.3,15.3,0,0,0-3.91-1,12,12,0,0,0-1.71-.08,14.3,14.3,0,0,0-6.6,1.55l-.49.24Z" transform="translate(-0.33 -3.37)"/><path class="m" d="M245.84,270.51a9.67,9.67,0,0,0-9.7,9.7,9.94,9.94,0,0,0,3.51,7.5,16,16,0,0,1,6.93-1.63,13.21,13.21,0,0,1,1.79.08,14.33,14.33,0,0,1,4.08,1.06,9.75,9.75,0,0,0,.33-13.7,9.09,9.09,0,0,0-6.93-3Z" transform="translate(-0.33 -3.37)"/><path class="n" d="M255.54,280.21a9.56,9.56,0,0,1-3,7,17.65,17.65,0,0,0-4.08-1.06l-12.07-8a9.68,9.68,0,0,1,19.16,2Z" transform="translate(-0.33 -3.37)"/><path class="o" d="M252.2,285.67a11.68,11.68,0,0,0-3.34-.73l-11.09-7.26a8.42,8.42,0,0,1,16.47,2.53A8.24,8.24,0,0,1,252.2,285.67Z" transform="translate(-0.33 -3.37)"/><path class="bc" d="M250,279.23c-1.14-.08-1.88-.49-1.88-1,0-.33.41-.65,1.06-.82a7.29,7.29,0,0,0-10.11-2.2,7.12,7.12,0,0,0-2.69,3.1,9.73,9.73,0,0,0,3.34,9.46,16,16,0,0,1,6.93-1.63,13.21,13.21,0,0,1,1.79.08,7.67,7.67,0,0,0,1.55-7Z" transform="translate(-0.33 -3.37)"/><path class="bd" d="M239.81,286.57a8.63,8.63,0,0,1-2.61-8,6.31,6.31,0,0,1,5.71-3.59c1.79,0,5.87,9.13,5.05,10.27-.49,0-.9-.08-1.39-.08A15,15,0,0,0,239.81,286.57Z" transform="translate(-0.33 -3.37)"/><path class="az" d="M239.24,288.12l-.16-.33a16.09,16.09,0,0,1,7.26-1.71,17.62,17.62,0,0,1,6.2,1l-.08.33A16.92,16.92,0,0,0,239.24,288.12Z" transform="translate(-0.33 -3.37)"/><path class="be" d="M244.7,274.91c-.33.16.16.82.33,1.14a22.2,22.2,0,0,1,2,3.51c.16.82,1.3,3.34,1.47,4s.65.33.65.33a7,7,0,0,0,.49-2.53,4.57,4.57,0,0,0-1.3-1.71c-.33-.33-1.14-1.14-1.14-1.71a2.19,2.19,0,0,0-1-2C245.52,275.24,245,274.75,244.7,274.91Z" transform="translate(-0.33 -3.37)"/><circle class="s" cx="242.49" cy="277.57" r="4.89"/><g class="t"><circle class="b" cx="246.73" cy="277.73" r="1.63"/></g><g class="u"><circle class="b" cx="244.2" cy="279.36" r="0.82"/></g><path class="s" d="M213.72,287.63A10.48,10.48,0,1,0,199,286.24a8.93,8.93,0,0,0,.82.9l.41.33.49-.16a15.3,15.3,0,0,1,3.91-1,12,12,0,0,1,1.71-.08,14.3,14.3,0,0,1,6.6,1.55l.49.24Z" transform="translate(-0.33 -3.37)"/><path class="m" d="M207,270.51a9.67,9.67,0,0,1,6.2,17.12,16,16,0,0,0-6.93-1.63,13.21,13.21,0,0,0-1.79.08,14.33,14.33,0,0,0-4.08,1.06,9.75,9.75,0,0,1-.33-13.7,9.05,9.05,0,0,1,6.93-2.93Z" transform="translate(-0.33 -3.37)"/><path class="n" d="M197.17,280.21a9.56,9.56,0,0,0,3,7,17.65,17.65,0,0,1,4.08-1.06l12.07-8a9.65,9.65,0,0,0-11.49-7.5,9.78,9.78,0,0,0-7.66,9.54Z" transform="translate(-0.33 -3.37)"/><path class="o" d="M200.51,285.67a11.68,11.68,0,0,1,3.34-.73l11.09-7.26a8.42,8.42,0,0,0-16.47,2.53A8.24,8.24,0,0,0,200.51,285.67Z" transform="translate(-0.33 -3.37)"/><path class="bc" d="M202.8,279.23c1.14-.08,1.88-.49,1.88-1,0-.33-.41-.65-1.06-.82a7.29,7.29,0,0,1,10.11-2.2,7.12,7.12,0,0,1,2.69,3.1,9.73,9.73,0,0,1-3.34,9.46,16,16,0,0,0-6.93-1.63,13.21,13.21,0,0,0-1.79.08,7.2,7.2,0,0,1-1.55-7Z" transform="translate(-0.33 -3.37)"/><path class="bd" d="M212.91,286.57a8.71,8.71,0,0,0,2.61-8.07,6.31,6.31,0,0,0-5.71-3.59c-1.79,0-5.87,9.13-5.05,10.27.49,0,.9-.08,1.39-.08A16,16,0,0,1,212.91,286.57Z" transform="translate(-0.33 -3.37)"/><path class="az" d="M213.48,288.12a17.1,17.1,0,0,0-13.29-.73l-.08-.33a15.94,15.94,0,0,1,6.2-1,17,17,0,0,1,7.26,1.71Z" transform="translate(-0.33 -3.37)"/><path class="be" d="M208,274.91c.33.16-.16.82-.33,1.14a22.2,22.2,0,0,0-2,3.51c-.16.82-1.3,3.34-1.47,4s-.65.33-.65.33a7,7,0,0,1-.49-2.53,4.57,4.57,0,0,1,1.3-1.71c.33-.33,1.14-1.14,1.14-1.71a2.19,2.19,0,0,1,1-2C207.2,275.24,207.69,274.75,208,274.91Z" transform="translate(-0.33 -3.37)"/><circle class="s" cx="209.64" cy="277.57" r="4.89"/><g class="t"><circle class="b" cx="205.32" cy="277.73" r="1.63"/></g><g class="u"><circle class="b" cx="207.84" cy="279.36" r="0.82"/></g><ellipse class="bf" cx="206.46" cy="286.54" rx="6.44" ry="2.36"/><ellipse class="bf" cx="246.08" cy="286.54" rx="6.44" ry="2.36"/><path class="bg" d="M265.81,240.91c-.08.41-.16.9-.24,1.39L261.82,293l-.57,2.85a1.45,1.45,0,0,1-1.39,1.47H246.66V298H224.89V220.37H227a41.36,41.36,0,0,1,25.84,9.38h.33V216.21c0-3.67,2.12-7.83,4.73-11.09s5.79-5.63,8-5.63a3.06,3.06,0,0,1,3,3l4.48,18.75C274.86,226.48,271.11,235.61,265.81,240.91Z" transform="translate(-0.33 -3.37)"/><path class="s" d="M265.86,402.95l-1.14,6h0a6.42,6.42,0,0,1-4.89,2.61,7.49,7.49,0,0,0,4.48-5.38,7.36,7.36,0,0,0-2.28-7.5A6.06,6.06,0,0,1,265.86,402.95Z" transform="translate(-0.33 -3.37)"/><path class="at" d="M260.31,359.82a52.16,52.16,0,1,0,15.33,36.93A52.25,52.25,0,0,0,260.31,359.82Zm-36.93,81.85a45,45,0,1,1,31.79-13.21A45,45,0,0,1,223.38,441.67Z" transform="translate(-0.33 -3.37)"/><path class="at" d="M260,360.15a51.76,51.76,0,1,0,15.16,36.6A51.76,51.76,0,0,0,260,360.15Zm-36.6,82a45.37,45.37,0,1,1,32.12-13.29A45.37,45.37,0,0,1,223.38,442.16Z" transform="translate(-0.33 -3.37)"/><path class="au" d="M259.09,359.82a50.58,50.58,0,1,0,14.84,35.79A50.58,50.58,0,0,0,259.09,359.82Zm-2.77,68.72A46.55,46.55,0,1,1,270,395.61,47.08,47.08,0,0,1,256.32,428.55Z" transform="translate(-0.33 -3.37)"/><path class="bh" d="M271.48,378.33a7.84,7.84,0,0,1-1.47,1.79l-2.2,12.8-.73,4.08-.9,4.73-1.06,6h0l-.9,4.89-.33,1.88-.33,1.55-1.06,5.54-.33,1.63-1.14,6v.33h0l-.41,2.12h0v.08l-.57,2.93a1.48,1.48,0,0,1-1.55,1.47H187.35a1.73,1.73,0,0,1-1.22-.57,1.23,1.23,0,0,1-.33-.9l-.65-3.1-.41-2-1.22-6.28-.33-1.63-1.06-5.54-.33-1.47-.33-1.88-.9-4.89h0l-1.14-6-.82-4.81-2.93-17c-6.44-6.36-3.75-21.44,18.1-14.59h.9a43.84,43.84,0,0,1,27.64-9.78h1.3A44.12,44.12,0,0,1,251,365.53h1a32.28,32.28,0,0,1,9.62-1.71h0C273.11,363.73,275.07,372.7,271.48,378.33Z" transform="translate(-0.33 -3.37)"/><path class="bi" d="M187.43,435.47l-.57-3.18-.41-2-1.22-6.36-.33-1.63s-4.48-18.67-4.57-24.95c-.08-4.4,2.69-17.53,2.69-17.53l-6-.49a8.64,8.64,0,0,1-2-9c1.22-3,4.48-4.65,9-4.65a33.29,33.29,0,0,1,9.38,1.63l.24.08h1.71l.49-.41a42.81,42.81,0,0,1,26.74-9.62h.73a42.39,42.39,0,0,1,26.82,9.62l.49.41h1.71l.24-.08a33.29,33.29,0,0,1,9.38-1.63c4.24,0,7.26,1.39,8.72,4a8.27,8.27,0,0,1-.49,8.23,7.3,7.3,0,0,1-1.22,1.55l-5.54-.33s2.28,13.78,2.12,18.42c-.16,6.36-4.65,24.95-4.65,24.95l-.33,1.63-1.14,6.28-.41,2.28-.57,3.1Z" transform="translate(-0.33 -3.37)"/><path class="bj" d="M234.14,436.13H210.66c2.36-2.93,6.68-4.89,11.74-4.89S231.78,433.19,234.14,436.13Z" transform="translate(-0.33 -3.37)"/><path class="bk" d="M234.14,436.13H210.66c2.36-2.28,6.68-3.91,11.74-3.91S231.78,433.76,234.14,436.13Z" transform="translate(-0.33 -3.37)"/><path class="s" d="M229,428.46c0,2.77-2.93,5.05-6.6,5.05s-6.6-2.28-6.6-5.05a4.1,4.1,0,0,1,.49-2c0,2.53,2.77,4.57,6.11,4.57s6-2,6.11-4.57A4.1,4.1,0,0,1,229,428.46Z" transform="translate(-0.33 -3.37)"/><path class="bl" d="M229,427.81c0,2.77-2.93,5.05-6.6,5.05s-6.6-2.28-6.6-5.05a4.1,4.1,0,0,1,.49-2c0,2.53,2.77,4.57,6.11,4.57s6-2,6.11-4.57A4.34,4.34,0,0,1,229,427.81Z" transform="translate(-0.33 -3.37)"/><ellipse class="bm" cx="222.64" cy="386.04" rx="36.2" ry="28.13"/><path class="s" d="M232.68,372.21a8.87,8.87,0,0,0,9.78-4.81,10.25,10.25,0,0,1-9.13,2.69,10.07,10.07,0,0,1-8.15-6.93A8.83,8.83,0,0,0,232.68,372.21Z" transform="translate(-0.33 -3.37)"/><path class="bn" d="M272.13,373a9.11,9.11,0,0,1-1.39,3.75,8.4,8.4,0,0,1-2,2.12,10,10,0,0,1-6.68,2.28,5.38,5.38,0,0,1-1.14-.08,10.56,10.56,0,0,1-5.05-2,9.42,9.42,0,0,1-2.12-2.28l-.16-.24a9.39,9.39,0,0,1-1.14-2.61,10.72,10.72,0,0,0,1.79,2,10.49,10.49,0,0,0,3.59,2,16.54,16.54,0,0,0,3.91.73,12.68,12.68,0,0,0,4.65-.82,11.86,11.86,0,0,0,3.51-2.12A9.23,9.23,0,0,0,272.13,373Z" transform="translate(-0.33 -3.37)"/><path class="bn" d="M193.63,373.52a9.32,9.32,0,0,1-2.77,5.3,10.14,10.14,0,0,1-5.87,2.77,8.86,8.86,0,0,1-1.47.08,10,10,0,0,1-7.09-2.93,15,15,0,0,1-1.39-1.79A8.24,8.24,0,0,1,174,374.5a8.65,8.65,0,0,0,1.39,1.63,9,9,0,0,0,2.28,1.63,12.47,12.47,0,0,0,11.74,0,13,13,0,0,0,2.69-2A10.67,10.67,0,0,0,193.63,373.52Z" transform="translate(-0.33 -3.37)"/><path class="s" d="M231.94,380.12a8.92,8.92,0,0,0,9.7-4.81,10.25,10.25,0,0,1-9.13,2.69,10.07,10.07,0,0,1-8.15-6.93A9,9,0,0,0,231.94,380.12Z" transform="translate(-0.33 -3.37)"/><path class="s" d="M232.51,388.6a8.92,8.92,0,0,0,9.7-4.81,10.25,10.25,0,0,1-9.13,2.69,10.07,10.07,0,0,1-8.15-6.93A8.92,8.92,0,0,0,232.51,388.6Z" transform="translate(-0.33 -3.37)"/><path class="s" d="M212,371.72a8.92,8.92,0,0,1-9.7-4.81,10.25,10.25,0,0,0,9.13,2.69,10.07,10.07,0,0,0,8.15-6.93A9,9,0,0,1,212,371.72Z" transform="translate(-0.33 -3.37)"/><path class="s" d="M212.7,379.55a9,9,0,0,1-9.7-4.81,10.54,10.54,0,0,0,9.13,2.77,10.07,10.07,0,0,0,8.15-6.93A8.9,8.9,0,0,1,212.7,379.55Z" transform="translate(-0.33 -3.37)"/><path class="bo" d="M212.87,424.79a1.7,1.7,0,0,0-.24-1.06A12.35,12.35,0,1,0,192.08,410c-.08.16-.24.33-.33.49a2.65,2.65,0,0,1-1.14-.33,2.46,2.46,0,0,1-.41-1.3v-.41l-2.12-.41-.16.41a4.57,4.57,0,0,0,.49,4.57q.49.61,1.71,2a14.55,14.55,0,0,0-.16,1.88,12.21,12.21,0,0,0,3.83,8.89l1,.9,1.22-.49a15.57,15.57,0,0,1,3.83-1,12,12,0,0,1,1.71-.08,15,15,0,0,1,6.52,1.47l1.14.57.57-.49,2.45,1.39.41.24,1.39-1.71-.33-.24A2.87,2.87,0,0,1,212.87,424.79Z" transform="translate(-0.33 -3.37)"/><path class="bo" d="M233.16,424.79a1.7,1.7,0,0,1,.24-1.06,12.31,12.31,0,0,1,19.89-14.51c.08.16.24.33.33.49a8.59,8.59,0,0,1,.57.9,2.65,2.65,0,0,0,1.14-.33,2.46,2.46,0,0,0,.41-1.3v-.41l2-.41.16.41a4.57,4.57,0,0,1-.49,4.57q-.49.61-1.71,2a14.55,14.55,0,0,1,.16,1.88,12.21,12.21,0,0,1-3.83,8.89l-1,.9-1.22-.49a15.57,15.57,0,0,0-3.83-1,12,12,0,0,0-1.71-.08,15,15,0,0,0-6.52,1.47l-1.14.57-.57-.49-2.45,1.39-.41.24-1.3-1.79.33-.33A2.36,2.36,0,0,0,233.16,424.79Z" transform="translate(-0.33 -3.37)"/><path class="s" d="M212.13,388.11a8.92,8.92,0,0,1-9.7-4.81,10.25,10.25,0,0,0,9.13,2.69,10.07,10.07,0,0,0,8.15-6.93A9,9,0,0,1,212.13,388.11Z" transform="translate(-0.33 -3.37)"/><path class="s" d="M233,427.49s1.39-1.22,1.14-2.36S251.59,413,251.59,413s3.1.49,4.4-.49a2.83,2.83,0,0,0,.82-2,3.17,3.17,0,0,1-.33,3.18,35.21,35.21,0,0,1-2.53,2.53S234.39,426.75,233,427.49Z" transform="translate(-0.33 -3.37)"/><path class="s" d="M236.43,425.94a9.28,9.28,0,0,1-4.08-7.5,8,8,0,0,1,.24-2c1.06-4.48,5.63-7.74,10.92-7.74,6.11,0,11.17,4.32,11.17,9.7a9.13,9.13,0,0,1-3.42,7l-.41.33-.49-.16a17.34,17.34,0,0,0-4.08-.9c-.57,0-1.22-.08-1.79-.08a17.09,17.09,0,0,0-7,1.39l-.49.24Z" transform="translate(-0.33 -3.37)"/><path class="m" d="M243.68,410c-5,0-9.13,3.1-10.11,7.17a4.48,4.48,0,0,0-.16,1.79,8.69,8.69,0,0,0,3.75,6.93,18,18,0,0,1,7.42-1.47,15.71,15.71,0,0,1,2,.08,21.35,21.35,0,0,1,4.4,1,8.56,8.56,0,0,0,3.18-6.52C254,414,249.39,410,243.68,410Z" transform="translate(-0.33 -3.37)"/><path class="n" d="M254,419a8.27,8.27,0,0,1-3.18,6.44,19.23,19.23,0,0,0-4.4-1l-12.88-7.34c1-4.08,5.14-7.17,10.11-7.17C249.39,410,254,414.12,254,419Z" transform="translate(-0.33 -3.37)"/><path class="o" d="M250.45,424.14a26.82,26.82,0,0,0-3.51-.73l-11.74-6.68a8.88,8.88,0,0,1,8.56-5.46c5,0,9,3.51,9,7.83A7.64,7.64,0,0,1,250.45,424.14Z" transform="translate(-0.33 -3.37)"/><path class="m" d="M248.08,417.46c-1.14-.08-2-.49-2-1s.41-.65,1.14-.82a7.69,7.69,0,0,0-6.52-3.34,7.56,7.56,0,0,0-7,4.24,5.32,5.32,0,0,0-.16,2,9.15,9.15,0,0,0,3.75,7.42,17.61,17.61,0,0,1,7.42-1.63,15.71,15.71,0,0,1,2,.08,7.07,7.07,0,0,0,2-4.81A10,10,0,0,0,248.08,417.46Z" transform="translate(-0.33 -3.37)"/><path class="bp" d="M237.32,424.79a8.67,8.67,0,0,1-2.93-6.36,11,11,0,0,1,.16-1.63,7,7,0,0,1,6.11-3.59c2,0,6.28,9,5.38,10.19h-1.47A19.8,19.8,0,0,0,237.32,424.79Z" transform="translate(-0.33 -3.37)"/><path class="bq" d="M236.67,426.26l-.16-.33a17,17,0,0,1,7.74-1.88,18.1,18.1,0,0,1,6.6,1.06l-.08.33a18.41,18.41,0,0,0-14.1.82Z" transform="translate(-0.33 -3.37)"/><path class="br" d="M242.46,413.3c-.33.16.16.82.33,1.14a25.45,25.45,0,0,1,2.2,3.51c.16.82,1.39,3.34,1.55,4a.46.46,0,0,0,.49.41.3.3,0,0,0,.24-.08,6.64,6.64,0,0,0,.49-2.53,5.58,5.58,0,0,0-1.39-1.71c-.33-.33-1.14-1.14-1.14-1.71a2.19,2.19,0,0,0-1-2C243.35,413.54,242.87,413.14,242.46,413.3Z" transform="translate(-0.33 -3.37)"/><ellipse class="s" cx="240.17" cy="415.88" rx="5.22" ry="4.89"/><g class="t"><ellipse class="b" cx="244.73" cy="416.04" rx="1.71" ry="1.63"/></g><g class="u"><circle class="b" cx="241.96" cy="417.18" r="0.82"/></g><path class="s" d="M244.5,396.91h0a6.12,6.12,0,0,0-8,3.67,6.54,6.54,0,0,0-.16,3.75Z" transform="translate(-0.33 -3.37)"/><path class="s" d="M245.47,404.58h0a5,5,0,0,0-7.09-.65,4.72,4.72,0,0,0-1.63,2.53Z" transform="translate(-0.33 -3.37)"/><path class="s" d="M263.82,414l-.33,1.88a8.37,8.37,0,0,1-6-1.39A10.62,10.62,0,0,0,263.82,414Z" transform="translate(-0.33 -3.37)"/><path class="s" d="M262.19,423.08l-.33,1.63a12.16,12.16,0,0,1-2-1.14,8.28,8.28,0,0,1-2.45-3.1,10,10,0,0,0,3.1,2.12A6.21,6.21,0,0,0,262.19,423.08Z" transform="translate(-0.33 -3.37)"/><path class="s" d="M213,427.16s-1.39-1.22-1.14-2.28S194.44,413,194.44,413s-3.1.49-4.4-.49a2.59,2.59,0,0,1-.82-2,3,3,0,0,0,.33,3.1,23.74,23.74,0,0,0,2.53,2.45C192.08,416.07,211.64,426.43,213,427.16Z" transform="translate(-0.33 -3.37)"/><path class="s" d="M209.6,425.61a9,9,0,0,0,4.08-7.42,8,8,0,0,0-.24-2c-1.06-4.48-5.63-7.66-10.92-7.66-6.11,0-11.17,4.32-11.17,9.62a8.85,8.85,0,0,0,3.42,6.93l.41.33.49-.16a17.34,17.34,0,0,1,4.08-.9c.57,0,1.22-.08,1.79-.08a17.09,17.09,0,0,1,7,1.39l.49.24Z" transform="translate(-0.33 -3.37)"/><path class="m" d="M202.35,409.71c5,0,9.13,3.1,10.11,7.17a4.48,4.48,0,0,1,.16,1.79,8.54,8.54,0,0,1-3.75,6.85,18.72,18.72,0,0,0-7.34-1.47,15.71,15.71,0,0,0-2,.08,21.35,21.35,0,0,0-4.4,1,8.27,8.27,0,0,1-3.18-6.44C192.08,413.79,196.72,409.71,202.35,409.71Z" transform="translate(-0.33 -3.37)"/><path class="n" d="M192.08,418.76a8.27,8.27,0,0,0,3.18,6.44,15.65,15.65,0,0,1,4.4-.9l12.8-7.26c-1-4.08-5.14-7.09-10.11-7.09C196.72,409.88,192.08,413.87,192.08,418.76Z" transform="translate(-0.33 -3.37)"/><path class="o" d="M195.58,423.82a26.82,26.82,0,0,1,3.51-.73l11.82-6.68a8.88,8.88,0,0,0-8.56-5.46c-5,0-9,3.42-9,7.74A7.42,7.42,0,0,0,195.58,423.82Z" transform="translate(-0.33 -3.37)"/><path class="m" d="M197.95,417.38c1.14-.08,2-.49,2-1s-.49-.65-1.14-.82a7.86,7.86,0,0,1,6.6-3.26,7.64,7.64,0,0,1,7,4.08,4.89,4.89,0,0,1,.16,1.88,9,9,0,0,1-3.75,7.26,18.08,18.08,0,0,0-7.42-1.55,15.71,15.71,0,0,0-2,.08,6.73,6.73,0,0,1-2-4.73C197.62,418.76,197.78,418,197.95,417.38Z" transform="translate(-0.33 -3.37)"/><path class="bp" d="M208.79,424.55a8.47,8.47,0,0,0,2.93-6.2,11,11,0,0,0-.16-1.63,6.82,6.82,0,0,0-6-3.51c-2,0-6.28,8.89-5.38,9.95h1.47A19.7,19.7,0,0,1,208.79,424.55Z" transform="translate(-0.33 -3.37)"/><path class="bq" d="M209.36,426.26a18,18,0,0,0-14.1-.73l-.08-.33a18.47,18.47,0,0,1,6.6-1.14,17,17,0,0,1,7.74,1.88Z" transform="translate(-0.33 -3.37)"/><path class="br" d="M203.57,413.3c.33.16-.16.73-.33,1.06a24.55,24.55,0,0,0-2.2,3.42c-.16.73-1.39,3.26-1.55,3.83a.46.46,0,0,1-.49.41.3.3,0,0,1-.24-.08,6.54,6.54,0,0,1-.49-2.45,5.58,5.58,0,0,1,1.39-1.71c.33-.33,1.14-1.06,1.14-1.71a2.27,2.27,0,0,1,1-2C202.76,413.63,203.25,413.14,203.57,413.3Z" transform="translate(-0.33 -3.37)"/><ellipse class="s" cx="205.27" cy="415.71" rx="5.22" ry="4.81"/><g class="t"><circle class="b" cx="200.71" cy="415.47" r="1.71"/></g><g class="u"><circle class="b" cx="203.4" cy="417.18" r="0.82"/></g><path class="s" d="M182,414.85l.33,1.71a9.65,9.65,0,0,0,6-1.22A10.62,10.62,0,0,1,182,414.85Z" transform="translate(-0.33 -3.37)"/><path class="s" d="M183.76,423.08l.33,1.63c.65-.33,1.3-.73,2-1.14a8.49,8.49,0,0,0,2.53-3.1,10,10,0,0,1-3.1,2.12A9.39,9.39,0,0,1,183.76,423.08Z" transform="translate(-0.33 -3.37)"/><path class="s" d="M180,402.95l1.14,6h0a6.42,6.42,0,0,0,4.89,2.61,7.49,7.49,0,0,1-4.48-5.38,7.36,7.36,0,0,1,2.28-7.5A6.24,6.24,0,0,0,180,402.95Z" transform="translate(-0.33 -3.37)"/><path class="s" d="M203.33,397h0a6.26,6.26,0,0,1,7.66,8Z" transform="translate(-0.33 -3.37)"/><path class="s" d="M201.78,404.58h0a5,5,0,0,1,7.17-.16,5.57,5.57,0,0,1,1.47,2.61Z" transform="translate(-0.33 -3.37)"/><circle class="bs" cx="209.11" cy="418.98" r="1.63"/><circle class="bs" cx="202.99" cy="418.73" r="1.71"/><circle class="bs" cx="200.14" cy="419.22" r="1.71"/><circle class="bs" cx="206.35" cy="423.3" r="1.71" transform="translate(-263.2 459.9) rotate(-68.88)"/><circle class="bs" cx="209.19" cy="421.09" r="1.39"/><rect class="s" x="221.5" y="429.9" width="0.82" height="2.85"/><path class="bt" d="M271.48,378.65a7,7,0,0,1-1.47,1.14l-1.55,8.56-1.71-.9s-3.42-4.73-6-6.28l-.33-.16a73.76,73.76,0,0,1-6.85-4.16l-.24-.16.08-.08.73-.49a10.49,10.49,0,0,0,3.59,2,16.54,16.54,0,0,0,3.91.73,12.68,12.68,0,0,0,4.65-.82,11.86,11.86,0,0,0,3.51-2.12h0a3.62,3.62,0,0,1,.65.9A4.81,4.81,0,0,1,271.48,378.65Z" transform="translate(-0.33 -3.37)"/><ellipse class="bu" cx="201.85" cy="424.76" rx="6.85" ry="2.53"/><ellipse class="bu" cx="243.92" cy="424.76" rx="6.85" ry="2.53"/><path class="bt" d="M192.48,376.13c-2.28,1.88-4.65,3.59-7.09,5.3l-.41.24c-2.53,1.88-5.87,7.5-5.87,7.5l-1.63.49-1.55-9.7a8,8,0,0,1-1.47-1.39c.16-.57.33-1.06.49-1.63a3.81,3.81,0,0,1,.41-.82,9,9,0,0,0,2.28,1.63,12.47,12.47,0,0,0,11.74,0,13,13,0,0,0,2.69-2Z" transform="translate(-0.33 -3.37)"/><g class="bv"><path class="bw" d="M271.81,378.25l-.08.16a7.84,7.84,0,0,1-1.47,1.79l-2.2,12.64v.08l-.73,4.08-.9,4.73-.24,1.39-.9,4.57h0l-.33,1.88-.57,3-.33,1.71v.16l-.33,1.55v.16l-1.06,5.46-.33,1.63h0L262,424.8h0l-.9,4.57.16.08h0l-.41,2.12h0l-.16.08-.65,2.85a1.48,1.48,0,0,1-1.55,1.47h-36V355.91h1.3a44,44,0,0,1,27.23,9.78h.82a33.88,33.88,0,0,1,9.86-1.71h0C273.19,364,275.15,372.62,271.81,378.25Z" transform="translate(-0.33 -3.37)"/></g><circle class="s" cx="227.29" cy="430.88" r="0.49"/><circle class="s" cx="230.87" cy="430.88" r="0.49"/><circle class="s" cx="230.87" cy="428.19" r="0.49"/><circle class="s" cx="234.38" cy="430.88" r="0.49"/><circle class="s" cx="210.25" cy="430.88" r="0.49"/><circle class="s" cx="213.75" cy="430.88" r="0.49"/><circle class="s" cx="213.75" cy="428.19" r="0.49"/><circle class="s" cx="217.34" cy="430.88" r="0.49"/><path class="bx" d="M192.81,422.92h9a1.29,1.29,0,0,1,1.3,1.3V426a1.29,1.29,0,0,1-1.3,1.3h-9a1.29,1.29,0,0,1-1.3-1.3v-1.79A1.29,1.29,0,0,1,192.81,422.92Z" transform="translate(-0.33 -3.37)"/><path class="bx" d="M246.62,423.08h9.62a1.29,1.29,0,0,1,1.3,1.3v1.79a1.29,1.29,0,0,1-1.3,1.3h-9.62a1.29,1.29,0,0,1-1.3-1.3v-1.79A1.4,1.4,0,0,1,246.62,423.08Z" transform="translate(-0.33 -3.37)"/><circle class="bs" cx="236.5" cy="419.14" r="1.63"/><circle class="bs" cx="242.69" cy="418.89" r="1.71"/><circle class="bs" cx="245.55" cy="419.38" r="1.71"/><circle class="bs" cx="239.28" cy="422.52" r="1.71" transform="translate(-136.73 111.49) rotate(-21.16)"/><circle class="bs" cx="236.42" cy="421.26" r="1.39"/><path class="au" d="M182.54,448.19h92.69a3.91,3.91,0,0,1,3.91,3.91v5.14a3.91,3.91,0,0,1-3.91,3.91H182.54a3.91,3.91,0,0,1-3.91-3.91v-5.14A4,4,0,0,1,182.54,448.19Z" transform="translate(-0.33 -3.37)"/><path class="av" d="M183.6,449.82h90.49a3,3,0,0,1,3,3v4a3,3,0,0,1-3,3H183.6a3,3,0,0,1-3-3v-4A3.06,3.06,0,0,1,183.6,449.82Z" transform="translate(-0.33 -3.37)"/><path class="aw" d="M190.69,449.82v10.35h-9.62a12.72,12.72,0,0,1-.49-4.4v-1.63c0-2.45.24-4.4.49-4.4Z" transform="translate(-0.33 -3.37)"/></svg>