<?xml version="1.0" encoding="utf-8"?>
<!-- Generator: Adobe Illustrator 20.0.0, SVG Export Plug-In . SVG Version: 6.00 Build 0)  -->
<svg version="1.1" id="Layer_1" xmlns="http://www.w3.org/2000/svg" xmlns:xlink="http://www.w3.org/1999/xlink" x="0px" y="0px"
	 viewBox="0 0 1049 415" style="enable-background:new 0 0 1049 415;" xml:space="preserve">
<style type="text/css">
	.st0{clip-path:url(#SVGID_2_);}
	.st1{opacity:0.21;fill:#AD5236;enable-background:new    ;}
	.st2{opacity:0.76;fill:#AD5236;enable-background:new    ;}
	.st3{opacity:0.26;}
	.st4{fill:#AD5236;}
	.st5{opacity:9.000000e-02;}
	.st6{opacity:0.1;}
	.st7{opacity:0.19;}
	.st8{fill:#CE783F;}
	.st9{fill:#B4673E;}
	.st10{fill:#E49345;}
	.st11{fill:#9B5C3F;}
	.st12{fill:none;stroke:#2D2D2D;stroke-width:2.27;stroke-miterlimit:10;}
	.st13{fill:#82820F;}
	.st14{opacity:0.5;fill:#492E17;enable-background:new    ;}
	.st15{fill:url(#SVGID_3_);}
	.st16{fill:none;}
</style>
<title>g-bgbot-desktop</title>
<g id="Layer_2">
	<g id="Layer_5">
		<g>
			<defs>
				<rect id="SVGID_1_" y="-176" width="1049" height="592"/>
			</defs>
			<clipPath id="SVGID_2_">
				<use xlink:href="#SVGID_1_"  style="overflow:visible;"/>
			</clipPath>
			<g class="st0">
				<path class="st1" d="M1035.2,309.6c2.8-3,4.4-7,4.5-11.1c0-9.4-8.2-17.1-18.3-17.1c-1.6,0-3.1,0.2-4.7,0.6
					c-0.7-3.5-3.8-6-7.3-5.9c-1.2,0-2.4,0.3-3.4,0.8c-1.9-6.6-8.3-11.5-16-11.5c-6.9-0.1-13.2,4.1-15.7,10.5
					c-1.1-0.6-2.4-0.9-3.7-0.9c-3.8-0.1-7,2.7-7.4,6.4c-1-0.7-2.2-1.1-3.5-1.1c-0.4,0-0.8,0-1.3,0.1c0.1-0.4,0.1-0.8,0.1-1.2
					c-0.1-4.3-3.7-7.6-8-7.5c-1.7,0-3.3,0.5-4.7,1.4c-0.9-5.2-5.5-9-10.8-8.9c-0.7,0-1.4,0.1-2.1,0.2c-2.4-4.1-6.8-6.7-11.6-6.6
					c-7.2,0-13,5.4-13.1,12.1c-0.9-0.3-1.9-0.4-2.9-0.4c-5.4,0-9.7,4.1-9.7,9.1c0,0.4,0,0.8,0.1,1.2l-0.5,0.1
					c-3.7-2.7-8.8-2.5-12.4,0.4c-1-5.5-6.2-9.8-12.4-9.8h-0.2c-1.3-5.7-6.5-9.8-12.3-9.6c-5.3-0.1-10.1,3.1-11.9,8.1
					c-1.1-0.4-2.3-0.6-3.5-0.6c-2.2,0-4.4,0.7-6.2,2.1c-2.4-1.7-5.2-2.6-8.1-2.6c-7.2,0-13.1,5.5-13.1,12.3l0,0c-4.8,0.2-9,3-11,7.4
					c-1.1-0.6-2.4-1-3.8-1c-0.8,0-1.5,0.1-2.2,0.3c-1.8-5.4-6.9-9-12.6-8.9c-4.6-0.1-9,2.3-11.4,6.3c-3.7-2.6-8.5-2.7-12.2-0.2
					c-5.2-6.8-14.9-8.1-21.6-2.9c-1.1,0.9-2.1,1.9-3,3c-2.1-1.9-4.8-3-7.7-3c-6,0-10.8,4.5-10.8,10.1c0,0.5,0.1,1,0.1,1.5
					c-1.3-0.7-2.7-1-4.1-1c-4.1-0.1-7.7,2.8-8.5,6.8c-1.2-0.3-2.3-0.4-3.5-0.4c-3.4,0-6.7,1.2-9.3,3.4c-3-6.7-9.7-11-17-10.9
					c-3.4,0-6.7,0.9-9.6,2.6c-2.4-0.8-5-1.2-7.5-1.2c-1.6,0-3.1,0.2-4.7,0.5c-0.5-2.6-3.6-4.7-7.3-4.7c-1.2,0-2.3,0.2-3.4,0.6
					c-1.9-5.2-8.3-9.1-16-9.1c-7.3,0-13.5,3.5-15.7,8.4c-1.2-0.5-2.4-0.8-3.7-0.8c-3.9,0-7.1,2.2-7.4,5.1c-1.1-0.6-2.2-0.9-3.5-0.9
					c-0.4,0-0.8,0-1.3,0.1c0.1-0.3,0.1-0.7,0.1-1c0-3.3-3.6-5.9-8-5.9c-1.6,0-3.2,0.4-4.7,1.1c-0.7-4-5.2-7-10.8-7
					c-0.7,0-1.4,0.1-2.1,0.1c-2.2-3.1-6.6-5.2-11.6-5.2c-7.2,0-13,4.3-13.1,9.6c-0.9-0.2-1.9-0.3-2.9-0.3c-5.4,0-9.7,3.2-9.7,7.2
					c0,0.3,0,0.7,0.1,1l-0.5,0.1c-1.8-1-3.8-1.5-5.9-1.5c-2.3,0-4.5,0.6-6.5,1.8c-1-4.4-6.2-7.8-12.4-7.8h-0.2
					c-1.1-4.3-6.2-7.6-12.3-7.6c-5.6,0-10.3,2.7-11.9,6.4c-1.1-0.3-2.3-0.5-3.5-0.5c-2.2,0-4.3,0.5-6.2,1.6
					c-2.5-1.4-5.3-2.1-8.1-2.1c-7.2,0-13.1,4.4-13.1,9.7l0,0c-5,0.2-9.3,2.5-11.1,5.8c-1.2-0.5-2.5-0.8-3.8-0.8
					c-0.8,0-1.5,0.1-2.2,0.3c-1.6-4-6.6-7-12.6-7c-4.9,0-9.2,2-11.4,5c-3.8-2.1-8.4-2.1-12.2-0.1c-2.7-2.9-7.2-4.8-12.3-4.8
					s-9.7,1.9-12.3,4.9c-2.2-1.6-4.9-2.4-7.6-2.3c-5,0-9.2,2.5-10.5,5.9c-3.9-3.4-8.9-5.2-14-5.1c-7.7,0-14.2,3.7-16.8,8.8
					c-2.7-1.8-5.9-2.8-9.2-2.8c-1.2,0-2.3,0.1-3.5,0.4c-0.6-3.1-4.1-5.6-8.4-5.6c-1.4,0-2.8,0.3-4.1,0.8c0.1-0.4,0.1-0.8,0.1-1.2
					c0-4.5-4.8-8.2-10.7-8.2c-2.7,0-5.4,0.8-7.6,2.4c-2.6-3-7.1-5-12.2-5c-4.6-0.1-9,1.7-12.2,4.9c-3.8-2-8.4-2-12.1,0.1
					c-2.2-3-6.5-5.1-11.3-5.1c-5.9,0-10.9,3-12.5,7.2c-0.7-0.2-1.5-0.3-2.2-0.3c-1.3,0-2.6,0.3-3.7,0.8c-1.8-3.4-6-5.8-11-6l0,0
					c0-5.5-5.8-10-13-10c-2.8,0-5.6,0.7-8,2.1c-1.8-1.1-4-1.7-6.1-1.7c-1.2,0-2.3,0.2-3.4,0.5c-1.6-3.8-6.3-6.6-11.8-6.6
					c-6.1,0-11.2,3.4-12.2,7.8H151c-6.2,0-11.3,3.4-12.2,8c-1.9-1.3-4.1-1.9-6.4-1.9c-2.1,0-4.1,0.5-5.9,1.5l-0.5-0.1
					c0.1-0.3,0.1-0.7,0.1-1c0-4.1-4.3-7.4-9.6-7.4c-1,0-1.9,0.1-2.8,0.3c-0.1-5.5-5.9-9.9-13-9.9c-5,0-9.3,2.2-11.5,5.4
					c-0.7-0.1-1.3-0.1-2-0.1c-5.5,0-10,3.1-10.6,7.2c-1.4-0.8-3-1.2-4.6-1.1c-4.4,0-7.9,2.7-7.9,6.1c0,0.3,0,0.7,0.1,1
					c-0.4-0.1-0.8-0.1-1.2-0.1c-1.2,0-2.4,0.3-3.4,0.9c-0.3-2.9-3.4-5.2-7.3-5.2c-1.3,0-2.5,0.3-3.7,0.8c-2.2-5-8.3-8.6-15.5-8.6
					c-7.6,0-13.9,4-15.8,9.3c-1.1-0.4-2.2-0.6-3.4-0.6c-3.7,0-6.7,2.1-7.3,4.8c-1.5-0.3-3.1-0.5-4.6-0.5c-10,0-18.1,6.2-18.1,13.9
					c0.1,3.5,1.7,6.8,4.4,9c-5.3,2-8.9,6.1-8.9,10.9C-20.8,325.8-5,331-5,331h303.3c2.9,3.6,8.1,6,14.1,6h353.8c0,0,1.6,0,2.4-0.1
					c1.8,0.5,3.7,0.9,5.6,1.1h354c0,0,16-6.8,16-15C1044.1,317.1,1040.6,311.9,1035.2,309.6z"/>
				<path class="st2" d="M-0.3,339.9c0,6.7,6.2,12.1,13.9,12.1h306.9c7.6,0,13.9-5.5,13.9-12.1c0-2.1-0.6-4.1-1.7-5.9
					c1.1-1.9,1.7-4.1,1.7-6.3c0-7.7-7.1-13.9-15.8-13.9c-6.7,0-12.4,3.7-14.7,8.8c-2.3-1.8-5.1-2.8-8-2.8c-1,0-2.1,0.1-3.1,0.4
					c-0.5-3.1-3.6-5.6-7.3-5.6c-1.2,0-2.5,0.3-3.6,0.8c0.1-0.4,0.1-0.8,0.1-1.2c0-4.5-4.2-8.2-9.4-8.2c-2.4,0-4.8,0.8-6.6,2.4
					c-4.9-5.9-13.7-6.7-19.6-1.8c-0.6,0.5-1.2,1.1-1.7,1.7c-3.3-2-7.4-2-10.6,0.1c-2.2-3.3-6-5.2-9.9-5.1c-5.2,0-9.6,3-10.9,7.2
					c-0.6-0.2-1.3-0.3-1.9-0.3c-1.1,0-2.3,0.3-3.3,0.8c-1.8-3.6-5.5-6-9.6-6l0,0c0-5.5-5.1-10-11.4-10c-2.5,0-4.9,0.7-7,2.1
					c-1.6-1.1-3.4-1.7-5.4-1.7c-1,0-2,0.2-3,0.5c-1.4-3.8-5.5-6.6-10.3-6.6c-5.3,0-9.8,3.4-10.7,7.8h-0.2c-5.4,0-9.9,3.4-10.7,8
					c-3.1-2.4-7.4-2.5-10.7-0.3l-0.4-0.1c0.1-0.3,0.1-0.7,0.1-1c0-4.1-3.8-7.4-8.4-7.4c-0.8,0-1.7,0.1-2.5,0.3
					c-0.1-5.5-5.1-9.9-11.4-9.9c-4.1-0.1-7.9,1.9-10.1,5.4c-0.6-0.1-1.2-0.2-1.8-0.1c-4.8,0-8.8,3.1-9.3,7.2c-1.2-0.7-2.6-1.1-4-1.1
					c-3.8,0-6.9,2.7-6.9,6.1c0,0.3,0,0.7,0.1,1c-0.4-0.1-0.7-0.1-1.1-0.1c-1.1,0-2.1,0.3-3,0.9c-0.2-2.9-3-5.2-6.4-5.2
					c-1.1,0-2.2,0.3-3.2,0.8c-1.9-5-7.3-8.6-13.6-8.6c-6.6,0-12.2,4-13.8,9.3c-0.9-0.4-2-0.6-3-0.6c-3-0.1-5.7,1.9-6.4,4.8
					c-1.3-0.3-2.7-0.5-4-0.5c-8.8,0-15.8,6.2-15.8,13.9c0,3.4,1.4,6.6,3.9,9C2.9,330.9-0.3,335.1-0.3,339.9z M78.5,310
					c-0.4,0.4-0.8,0.8-1.1,1.2c0.2-0.5,0.4-1,0.4-1.5C78,309.8,78.3,309.9,78.5,310z M160.5,320h-0.3l0.1-0.2L160.5,320z M232.5,320
					h-0.1H232.5L232.5,320z"/>
				<path class="st2" d="M1048.2,344.9c-0.1,6.8-5.7,12.2-12.5,12.1h-277c-6.8,0.1-12.4-5.3-12.5-12.1c0-2.1,0.5-4.1,1.6-5.8
					c-1-1.9-1.6-4.1-1.6-6.3c0.1-7.8,6.5-14,14.3-13.9c5.8,0,11.1,3.4,13.3,8.8c2-1.8,4.6-2.8,7.2-2.8c0.9,0,1.9,0.1,2.8,0.4
					c0.5-3.2,3.3-5.6,6.6-5.6c1.1,0,2.2,0.3,3.2,0.8c-0.1-0.4-0.1-0.8-0.1-1.2c0.1-4.6,3.9-8.3,8.5-8.2c0,0,0,0,0,0
					c2.2,0,4.4,0.8,6,2.4c3.8-5.3,11.1-6.6,16.5-2.8c1.1,0.8,2,1.7,2.8,2.8c2.9-2,6.8-2,9.6,0.1c2.9-4.9,9.3-6.6,14.2-3.6
					c2.2,1.3,3.8,3.3,4.6,5.7c1.6-0.5,3.3-0.3,4.7,0.5c1.5-3.5,4.9-5.9,8.7-6l0,0c0.1-5.6,4.7-10.1,10.3-10c0,0,0,0,0,0
					c2.3,0,4.5,0.7,6.3,2.1c2.1-1.7,5-2.2,7.6-1.2c1.8-5.1,7.5-7.8,12.7-6c3.2,1.2,5.6,3.9,6.3,7.2h0.2c4.7,0,8.8,3.3,9.7,8
					c2.7-2.4,6.8-2.5,9.7-0.3l0.4-0.1c-0.1-0.3-0.1-0.7-0.1-1c0.1-4.1,3.5-7.4,7.6-7.4c0,0,0,0,0,0c0.8,0,1.5,0.1,2.2,0.3
					c0.1-5.6,4.7-10,10.3-9.9c3.8,0,7.3,2,9.1,5.4c0.5-0.1,1.1-0.2,1.6-0.1c4.2-0.1,7.8,3,8.4,7.2c1.1-0.7,2.3-1.1,3.7-1.1
					c3.4-0.1,6.2,2.7,6.2,6.1c0,0,0,0,0,0c0,0.3,0,0.7-0.1,1c0.3-0.1,0.7-0.1,1-0.1c1,0,1.9,0.3,2.7,0.9c0.3-3,2.8-5.3,5.8-5.2
					c1,0,2,0.3,2.9,0.8c2.5-6.8,10-10.2,16.8-7.8c3.9,1.4,6.8,4.6,8,8.5c0.8-0.4,1.8-0.6,2.7-0.6c2.8,0,5.3,2,5.7,4.8
					c1.2-0.3,2.4-0.5,3.6-0.5c7.8-0.1,14.2,6.1,14.3,13.9c0,3.3-1.3,6.5-3.5,9C1045.4,336,1048.2,340.2,1048.2,344.9z M977,315
					c0.4,0.4,0.7,0.8,1,1.2c-0.2-0.5-0.3-1-0.4-1.5C977.5,314.8,977.3,314.9,977,315z M903,325h0.3l-0.1-0.2L903,325z M838,325
					L838,325L838,325L838,325z"/>
				<path class="st2" d="M665.2,350.9c-0.1,6.8-5.7,12.2-12.5,12.1h-277c-6.8,0.1-12.4-5.3-12.5-12.1c0-2.1,0.5-4.1,1.6-5.8
					c-1-1.9-1.6-4.1-1.6-6.3c0.1-7.8,6.5-14,14.3-13.9c5.8,0,11.1,3.4,13.3,8.8c2-1.8,4.6-2.8,7.2-2.8c0.9,0,1.9,0.1,2.8,0.4
					c0.5-3.2,3.3-5.6,6.6-5.6c1.1,0,2.2,0.3,3.2,0.8c-0.1-0.4-0.1-0.8-0.1-1.2c0.1-4.6,3.9-8.3,8.5-8.2c0,0,0,0,0,0
					c2.2,0,4.4,0.8,6,2.4c3.8-5.3,11.1-6.6,16.5-2.8c1.1,0.8,2,1.7,2.8,2.8c2.9-2,6.8-2,9.6,0.1c2.9-4.9,9.3-6.6,14.2-3.6
					c2.2,1.3,3.8,3.3,4.6,5.7c1.6-0.5,3.3-0.3,4.7,0.5c1.5-3.5,4.9-5.9,8.7-6l0,0c0.1-5.6,4.7-10.1,10.3-10c0,0,0,0,0,0
					c2.3,0,4.5,0.7,6.3,2.1c2.1-1.7,5-2.2,7.6-1.2c1.8-5.1,7.5-7.8,12.7-6c3.2,1.2,5.6,3.9,6.3,7.2h0.2c4.7,0,8.8,3.3,9.7,8
					c2.7-2.4,6.8-2.5,9.7-0.3l0.4-0.1c-0.1-0.3-0.1-0.7-0.1-1c0.1-4.1,3.5-7.4,7.6-7.4c0,0,0,0,0,0c0.8,0,1.5,0.1,2.2,0.3
					c0.1-5.6,4.7-10,10.3-9.9c3.8,0,7.3,2,9.1,5.4c0.5-0.1,1.1-0.2,1.6-0.1c4.2-0.1,7.8,3,8.4,7.2c1.1-0.7,2.3-1.1,3.7-1.1
					c3.4-0.1,6.2,2.7,6.2,6.1c0,0,0,0,0,0c0,0.3,0,0.7-0.1,1c0.3-0.1,0.7-0.1,1-0.1c1,0,1.9,0.3,2.7,0.9c0.3-3,2.8-5.3,5.8-5.2
					c1,0,2,0.3,2.9,0.8c2.5-6.8,10-10.2,16.8-7.8c3.9,1.4,6.8,4.6,8,8.5c0.8-0.4,1.8-0.6,2.7-0.6c2.8,0,5.3,2,5.7,4.8
					c1.2-0.3,2.4-0.5,3.6-0.5c7.8-0.1,14.2,6.1,14.3,13.9c0,3.3-1.3,6.5-3.5,9C662.4,342,665.2,346.2,665.2,350.9z M594,321
					c0.4,0.4,0.7,0.8,1,1.2c-0.2-0.5-0.3-1-0.4-1.5C594.5,320.8,594.3,320.9,594,321z M520,331h0.3l-0.1-0.2L520,331z M455,331
					L455,331L455,331L455,331z"/>
				<g id="Tees">
					<g class="st3">
						<path class="st4" d="M269.1,228.4c2.1,2.2,4.4,4.2,7,5.8c3.1,1.6,6.4,2.6,9.9,3.2c2.1,0.4,4.2,0.7,5.8,0.9l0,0
							c0.6-11.4,0.7-22.7,1.3-34.1c0.3-5.7,0.9-11.5,1.8-17.1l0.2-1.3l-0.3-0.4l0.4-0.1l2.2-15.2l3.9-27.2l-20.9-16.4l21.5,12.4
							l0.4-2.7c0.8-5.6,1.4-11.3,2-17c0.3-2.8,0.6-5.7,0.7-8.5c-0.1-2.8-0.4-5.6-0.8-8.4c-0.9-5.8-2.9-11.3-5.9-16.4
							c-1.6-2.7-3.5-5.3-5.6-7.7c-1.1-1.2-2.2-2.4-3.4-3.6c-1.2-1.1-2.2-2.4-3-3.8c0.9,1.4,2,2.6,3.2,3.7c1.2,1.2,2.4,2.4,3.6,3.6
							c2.2,2.3,4.2,4.9,6,7.6c3.3,5,5.6,10.6,6.8,16.5c0.6,2.8,1,5.7,1.2,8.5c0,2.9-0.1,5.7-0.3,8.5c-0.3,5.7-0.7,11.3-1.2,17
							l-3.2,34l-1.2,13.2l24.6-7.2l-25,10.3l-0.1,0.7c-0.7,5.6-1,11.2-1,16.9c-0.1,11.1,0.4,22.3,1,33.4l10.2-2.5l1.6,3l-11.7,2.2
							l1.6,31.9c0.1,1.9,0.2,3.8,0.3,5.7l9.6-3.2l-9.5,5.8c0,0.1,0,0.2,0,0.3c0,2.9-0.1,5.8-0.2,8.7c-0.3,5.8-1,11.5-1.7,17.1
							c-1.5,11.4-3.5,22.7-6,34l-13-1.3c2.9-11.1,5.5-22.3,7.5-33.5c1-5.6,1.9-11.2,2.5-16.8c0.3-2.8,0.5-5.6,0.6-8.3s0-5.6,0.3-8.5
							v-31.7c-2.6-0.3-5.1-0.8-7.6-1.4c-3.6-0.8-7.1-2.1-10.2-4c-2.5-1.8-4.6-3.9-6.5-6.3c-1.7-2.2-3.2-4.5-4.5-6.9
							C265.4,224.2,267.2,226.4,269.1,228.4z"/>
					</g>
					<g class="st3">
						<path class="st4" d="M370.9,207.1c2,2.6,4.4,4.8,7,6.7c3,1.8,6.4,3.1,9.9,3.7c2.1,0.5,4.2,0.8,5.8,1.1l0,0
							c0.6-13.3,0.6-26.6,1.3-40c0.3-6.7,0.9-13.4,1.9-20l0.2-1.5l-0.3-0.4l0.4-0.1l2.2-17.8L403,107l-20.9-19.1l21.5,14.6l0.4-3.2
							c0.7-6.6,1.4-13.2,2-19.9c0.3-3.3,0.6-6.6,0.7-9.9c-0.1-3.3-0.4-6.6-0.8-9.9c-0.9-6.7-2.9-13.2-5.9-19.2
							c-1.6-3.2-3.5-6.2-5.6-9c-1.1-1.4-2.2-2.9-3.4-4.3c-1.2-1.3-2.2-2.8-3-4.4c0.8,1.6,1.9,3.1,3.2,4.3c1.2,1.4,2.4,2.8,3.6,4.2
							c2.3,2.8,4.3,5.8,6,8.9c3.3,6,5.6,12.6,6.8,19.3c0.6,3.3,1,6.6,1.2,10c0,3.4-0.1,6.7-0.3,10c-0.3,6.6-0.7,13.3-1.2,19.9
							l-3.2,39.8l-1.2,15.5l24.6-8.4l-25,12.1l-0.1,0.8c-0.7,6.5-1,13.1-1,19.7c-0.1,13,0.4,26.1,1,39.1l10.2-2.9l1.6,3.5l-11.7,2.5
							l1.6,37.3c0.1,2.2,0.2,4.4,0.3,6.6l9.6-3.8l-9.5,6.7c0,0.1,0,0.2,0,0.4c0,3.4-0.1,6.8-0.2,10.1c-0.3,6.7-1,13.4-1.7,20.1
							c-1.5,13.3-3.5,26.6-6,39.8l-13-1.5c2.9-13,5.5-26.1,7.5-39.2c1-6.5,1.9-13.1,2.5-19.6c0.3-3.3,0.5-6.5,0.6-9.8s0-6.6,0.3-9.9
							v-37.2c-2.6-0.4-5.2-1-7.7-1.7c-3.7-0.9-7.1-2.5-10.2-4.7c-2.5-2.1-4.7-4.6-6.5-7.4c-1.7-2.6-3.2-5.3-4.5-8.1
							C367.1,202.1,368.9,204.7,370.9,207.1z"/>
					</g>
					<g class="st5">
						<path class="st4" d="M387,259.7c-2.2,1.6-4.5,3-7,4c-3.2,1.1-6.5,1.9-9.8,2.3c-2.1,0.3-4.2,0.5-7,0.6l0,0c0.6-8,0.6-16,0-24
							c-0.3-4-0.9-8.1-1.9-12l-0.2-0.9l0.3-0.2l-0.4-0.1l-2.2-10.7l-3.9-19.1l20.9-11.5l-21.5,8.7l-0.4-1.9c-0.8-4-1.4-7.9-2-11.9
							c-0.3-2-0.6-4-0.7-5.9c0.1-2,0.4-4,0.8-5.9c1-4.3,3-8.2,5.9-11.5c1.7-2,3.6-3.8,5.6-5.4c1.1-0.9,2.2-1.7,3.4-2.6
							c1.1-0.7,2.1-1.6,3-2.6c-0.9,1-2,1.9-3.2,2.6c-1.2,0.8-2.4,1.7-3.6,2.5c-2.2,1.6-4.2,3.4-6,5.3c-3.1,3.3-5.4,7.3-6.8,11.6
							c-0.6,2-1,4-1.2,6c0,2,0.1,4,0.3,6c0.3,4,0.7,8,1.2,11.9L354,219l1.2,9.3l-24.6-5l25,7.2l0.1,0.5c0.7,3.9,1,7.9,1,11.8
							c0.1,7.8-0.4,15.6-1,23.5l-10.2-1.8l-1.6,2.1l11.7,1.5l-1.6,22.4c-0.1,1.3-0.2,2.6-0.3,4l-9.6-2.3l9.5,4c0,0.1,0,0.1,0,0.2
							c0,2,0.1,4.1,0.2,6.1c0.4,4,1,8,1.7,12c1.6,8.1,3.6,16,6,23.9l13-0.9c-2.9-7.7-5.4-15.6-7.6-23.6c-1-3.9-1.9-7.8-2.5-11.8
							c-0.3-2-0.5-3.9-0.6-5.9c-0.1-2,0-4,0.4-5.9v-22.3c2.1-0.3,4.5-0.6,7-1c3.5-0.5,7-1.5,10.2-2.8c2.4-1.2,4.5-2.7,6.5-4.4
							c1.6-1.5,3.2-3.1,4.5-4.8C390.7,256.8,388.9,258.3,387,259.7z"/>
					</g>
					<g class="st6">
						<path class="st4" d="M216.1,268.2c-1.3,1.2-2.8,2.2-4.4,3.1c-1.9,0.8-3.9,1.3-5.9,1.4c-1.2,0.1-2.5,0.2-3.8,0.3l0,0
							c0.8-6.6,1.5-13.2,1.9-19.9c0.2-3.3,0.2-6.7,0-10v-0.7l0.2-0.2l-0.2-0.1l-0.3-8.9l-0.5-16l13.2-8.7l-13.3,6.4v-1.6
							c-0.1-3.3-0.1-6.6-0.1-10c0-1.7,0-3.3,0.1-5c0.2-1.6,0.6-3.3,1-4.9c0.9-3.4,2.5-6.5,4.5-9.3c1.1-1.5,2.4-2.9,3.8-4.2
							c0.7-0.7,1.5-1.3,2.2-2c0.8-0.6,1.4-1.3,2-2.1c-0.6,0.8-1.3,1.4-2.1,2c-0.8,0.6-1.6,1.3-2.3,1.9c-1.5,1.3-2.8,2.7-4,4.2
							c-2.2,2.8-3.9,5.9-5,9.3c-0.5,1.6-1,3.3-1.3,4.9c-0.2,1.7-0.3,3.3-0.4,5c-0.2,3.3-0.3,6.6-0.4,10l-0.4,19.9l-0.1,7.7
							l-13.9-5.2l13.9,7v0.5c0,3.3-0.2,6.6-0.5,9.9c-0.7,6.5-1.7,13-2.8,19.4l-5.8-1.9l-1.1,1.7l6.7,1.8l-3,18.5
							c-0.2,1.1-0.4,2.2-0.5,3.3l-5.4-2.3l5.2,3.8c0,0.1,0,0.1,0,0.2c-0.2,1.7-0.3,3.4-0.4,5c-0.2,3.4-0.2,6.7-0.1,10.1
							c0.1,6.7,0.6,13.4,1.2,20.1l7.7-0.2c-1-6.6-1.7-13.2-2.2-19.8c-0.2-3.3-0.4-6.6-0.4-9.9c0-1.6,0.1-3.3,0.2-4.9
							s0.4-3.3,0.5-4.9l2.1-18.5c1.5-0.1,2.9-0.3,4.4-0.5c2.2-0.3,4.3-0.9,6.2-1.9c1.6-0.9,3-2.1,4.2-3.4c1.1-1.2,2.2-2.5,3.1-3.8
							C218.6,265.9,217.4,267.1,216.1,268.2z"/>
					</g>
					<g class="st3">
						<path class="st4" d="M203.9,249.7c-1.5,1.7-3.3,3.1-5.2,4.3c-2.3,1.2-4.8,1.9-7.3,2.4c-1.8,0.3-3.5,0.6-5.3,0.7l0,0
							c0.6-8.5,0.6-16.9,0.1-25.4c-0.2-4.3-0.7-8.5-1.4-12.8l-0.1-0.9l0.2-0.3l-0.3-0.1l-1.6-11.3L180,186l15.6-12.2l-16,9.3l-0.3-2
							c-0.6-4.2-1-8.4-1.5-12.6c-0.2-2.1-0.4-4.2-0.5-6.3c0.1-2.1,0.3-4.2,0.6-6.3c0.7-4.3,2.2-8.5,4.4-12.2c1.2-2,2.6-3.9,4.2-5.7
							c0.8-0.9,1.7-1.8,2.5-2.7c0.9-0.8,1.7-1.8,2.2-2.8c-0.6,1-1.5,2-2.4,2.8c-0.9,0.9-1.8,1.8-2.7,2.7c-1.7,1.7-3.2,3.6-4.5,5.7
							c-2.4,3.7-4.1,7.9-5,12.3c-0.5,2.1-0.8,4.2-0.9,6.4c0,2.1,0.1,4.2,0.2,6.4c0.2,4.2,0.5,8.5,0.9,12.7l2.3,25.3l0.9,9.8
							l-18.3-5.3l18.6,7.7v0.5c0.5,4.2,0.8,8.3,0.8,12.5c0.1,8.3-0.3,16.6-0.7,24.9l-7.6-1.9l-1.2,2.3l8.7,1.6l-1.2,23.7
							c-0.1,1.4-0.1,2.8-0.2,4.2l-7.2-2.4l7.1,4.3c0,0.1,0,0.1,0,0.2c0,2.2,0.1,4.3,0.2,6.5c0.2,4.3,0.7,8.5,1.3,12.8
							c1.1,8.5,2.6,16.9,4.4,25.3l9.7-1c-2.2-8.2-4.1-16.6-5.6-24.9c-0.8-4.2-1.4-8.3-1.9-12.5c-0.2-2.1-0.4-4.1-0.5-6.2
							c-0.1-2.1,0-4.2,0.5-6.3v-23.6c1.4-0.3,3.2-0.6,5-1.1c2.7-0.6,5.3-1.6,7.6-3c1.8-1.3,3.5-2.9,4.8-4.7c1.3-1.6,2.4-3.3,3.4-5.1
							C206.7,246.5,205.4,248.2,203.9,249.7z"/>
						<path class="st4" d="M165.7,210.6l0.4-0.6c1.9-2.8-0.1-6-4.4-7.3l-0.4,0.6C159.3,206.1,161.3,209.3,165.7,210.6z"/>
						<path class="st4" d="M151.9,217.3l1,0.1c4.6,0.6,9.2-1.3,10.2-4.2l0,0l-1-0.1C157.5,212.5,152.9,214.4,151.9,217.3z"/>
						<path class="st4" d="M201.7,248.6l1,0.2c1.3-2.9-1.4-6-6-6.8l-1-0.2C194.5,244.7,197.2,247.8,201.7,248.6z"/>
						<path class="st4" d="M207.9,251.4l-3.2,0.5l0,0c0.7,2.2,4.1,3.6,7.5,3.1l3.2-0.5C214.7,252.4,211.3,251,207.9,251.4z"/>
						<path class="st4" d="M170.4,283.6V283c0-2.1-2.6-3.8-5.9-3.8v0.6C164.5,281.9,167.1,283.6,170.4,283.6z"/>
						<path class="st4" d="M163.6,289.4l1,0.1c3.3,0.2,6.4-1.3,6.8-3.4l-1-0.1C167,285.7,163.9,287.2,163.6,289.4z"/>
					</g>
					<g class="st7">
						<path class="st4" d="M564,215.2c-2.2,2.4-4.7,4.5-7.5,6.2c-3.3,1.7-6.9,2.8-10.6,3.4c-2.5,0.5-5,0.8-7.5,1l0,0
							c0.6-12.3,0.5-24.6-0.2-36.8c-0.3-6.2-1-12.4-2-18.5l-0.2-1.4l0.3-0.4l-0.4-0.1l-2.3-16.4l-4.2-29.4l22.5-17.7l-23.2,13.4
							l-0.4-2.9c-0.8-6.1-1.5-12.2-2.2-18.3c-0.3-3-0.6-6.1-0.7-9.1c0.1-3,0.4-6.1,0.9-9.1c1-6.3,3.2-12.3,6.4-17.7
							c1.7-2.9,3.8-5.7,6.1-8.3c1.2-1.3,2.4-2.6,3.7-3.9c1.3-1.2,2.4-2.6,3.3-4.1c-0.9,1.5-2.1,2.9-3.5,4c-1.3,1.3-2.6,2.6-3.9,3.9
							c-2.4,2.5-4.6,5.3-6.5,8.2c-3.5,5.4-6,11.4-7.4,17.8c-0.7,3-1.1,6.1-1.3,9.2c0,3.1,0.1,6.1,0.3,9.2c0.4,6.1,0.8,12.2,1.3,18.4
							l3.5,36.7l1.3,14.3L503,159l26.9,11.1l0.1,0.7c0.7,6,1.1,12.1,1.1,18.2c0.1,12-0.4,24-1,36.1l-11.1-2.7l-1.7,3.2l12.6,2.4
							l-1.8,34.4c-0.1,2-0.2,4.1-0.3,6.1l-10.4-3.5l10.3,6.2c0,0.1,0,0.2,0,0.3c0,3.1,0.1,6.2,0.3,9.4c0.4,6.2,1.1,12.4,1.9,18.5
							c1.7,12.3,3.8,24.5,6.4,36.7l14.1-1.4c-3.1-12-5.9-24.1-8.1-36.1c-1.1-6-2.1-12.1-2.7-18.1c-0.3-3-0.6-6-0.7-9
							c0-3.1-0.1-6.1-0.5-9.1v-34.3c2.8-0.4,5.6-0.9,8.4-1.5c3.9-0.8,7.6-2.3,11.1-4.3c2.7-1.9,5-4.2,7-6.8c1.8-2.3,3.5-4.8,4.9-7.4
							C568,210.6,566.1,213,564,215.2z"/>
						<path class="st4" d="M508.5,158.5l0.6-0.9c2.8-4-0.1-8.8-6.4-10.5l-0.6,0.9C499.4,151.9,502.3,156.7,508.5,158.5z"/>
						<path class="st4" d="M488.6,168.3l1.5,0.2c6.7,0.9,13.4-1.8,14.8-6.1l0,0l-1.5-0.2C496.7,161.2,490.1,164,488.6,168.3z"/>
						<path class="st4" d="M560.8,213.5l1.5,0.3c1.8-4.2-2-8.7-8.6-9.9l-1.5-0.3C550.3,207.9,554.2,212.4,560.8,213.5z"/>
						<path class="st4" d="M569.8,217.7l-4.7,0.6l0,0c1.1,3.2,6,5.2,10.9,4.5l4.7-0.6C579.6,219.1,574.7,217,569.8,217.7z"/>
						<path class="st4" d="M515.9,264.4v-0.9c0-3.1-4-5.7-8.8-5.7v0.9C507,261.9,511,264.4,515.9,264.4z"/>
						<path class="st4" d="M505.5,272.7l1.4,0.1c4.8,0.4,9.2-1.9,9.8-5l-1.4-0.1C510.5,267.4,506.1,269.6,505.5,272.7z"/>
					</g>
					<path class="st4" d="M78.6,219.5c-2.2,2.4-4.7,4.5-7.5,6.2c-3.3,1.7-6.9,2.8-10.6,3.4c-2.5,0.5-5,0.8-7.6,1l0,0
						c0.6-12.3,0.6-24.6-0.1-36.8c-0.3-6.2-1-12.4-2-18.5l-0.2-1.4l0.3-0.4l-0.4-0.1l-2.4-16.4L44,127.1l22.5-17.7l-23.1,13.4
						L43,120c-0.8-6.1-1.5-12.2-2.2-18.3c-0.3-3-0.6-6.1-0.7-9.1c0.1-3,0.4-6.1,0.9-9.1c1-6.3,3.2-12.3,6.4-17.7
						c1.7-2.9,3.8-5.7,6.1-8.3c1.2-1.3,2.4-2.6,3.7-3.9c1.3-1.2,2.4-2.6,3.3-4.1c-0.9,1.5-2.1,2.9-3.4,4c-1.3,1.3-2.6,2.6-3.9,3.9
						c-2.4,2.5-4.6,5.3-6.5,8.2C43,71,40.5,77,39.2,83.3c-0.7,3-1.1,6.1-1.3,9.2c0,3.1,0.1,6.1,0.3,9.2c0.4,6.1,0.8,12.2,1.3,18.4
						l3.5,36.7l1.3,14.3l-26.6-7.8l26.9,11.1l0.1,0.7c0.7,6,1.1,12.1,1.1,18.2c0.1,12-0.4,24-1,36.1l-11.1-2.7l-1.7,3.2l12.6,2.4
						l-1.8,34.4c-0.1,2-0.2,4.1-0.3,6.1l-10.4-3.5l10.3,6.2c0,0.1,0,0.2,0,0.3c0,3.1,0.1,6.2,0.3,9.4c0.4,6.2,1.1,12.4,1.9,18.5
						c1.7,12.3,3.8,24.5,6.4,36.7l14.1-1.4c-3.1-12-5.9-24.1-8.1-36.1c-1.1-6-2.1-12-2.7-18.1c-0.3-3-0.6-6-0.7-9
						c-0.1-3.1,0-6.1,0.4-9.1v-34.3c2.3-0.4,4.9-0.9,7.5-1.5c3.9-0.8,7.6-2.3,11.1-4.3c2.7-1.9,5-4.2,7-6.8c1.8-2.3,3.5-4.8,4.9-7.4
						C82.7,214.9,80.7,217.3,78.6,219.5z"/>
					<path class="st4" d="M23.2,162.7l0.6-0.9c2.8-4-0.1-8.8-6.4-10.5l-0.6,0.9C14,156.2,16.9,161,23.2,162.7z"/>
					<path class="st4" d="M3.3,172.6l1.5,0.2c6.7,0.9,13.4-1.8,14.8-6.1l0,0l-1.5-0.2C11.4,165.5,4.7,168.2,3.3,172.6z"/>
					<path class="st4" d="M75.5,217.8l1.5,0.3c1.8-4.2-2-8.7-8.6-9.9l-1.5-0.2C65,212.2,68.9,216.6,75.5,217.8z"/>
					<path class="st4" d="M84.4,222l-4.7,0.6l0,0c1.1,3.2,6,5.2,10.9,4.5l4.7-0.6C94.3,223.4,89.4,221.3,84.4,222z"/>
					<path class="st4" d="M30.4,268.7v-0.9c0-3.1-4-5.7-8.8-5.7v0.9C21.6,266.1,25.6,268.7,30.4,268.7z"/>
					<path class="st4" d="M20.2,277l1.4,0.1c4.8,0.4,9.2-1.9,9.8-5L30,272C25.1,271.6,20.7,273.9,20.2,277z"/>
					<g class="st3">
						<path class="st4" d="M547.6,202.4c2,2.6,4.4,4.8,7,6.7c3,1.8,6.4,3.1,9.8,3.7c2.1,0.5,4.2,0.8,6.2,1.1l0,0
							c0.2-13.3,0.2-26.6,0.8-40c0.3-6.7,0.9-13.4,1.8-20l0.2-1.5l-0.3-0.4l0.4-0.1l2.2-17.8l3.9-31.9l-20.9-19.1l21.4,14.5l0.4-3.2
							c0.7-6.6,1.4-13.2,2-19.9c0.3-3.3,0.6-6.6,0.7-9.9c-0.1-3.3-0.4-6.6-0.8-9.9c-0.9-6.7-2.9-13.2-5.9-19.2
							c-1.6-3.2-3.5-6.2-5.6-9c-1.1-1.4-2.2-2.9-3.4-4.3c-1.2-1.3-2.2-2.8-3-4.4c0.8,1.6,1.9,3.1,3.2,4.3c1.2,1.4,2.4,2.8,3.6,4.2
							c2.3,2.8,4.3,5.8,6,8.9c3.3,6,5.6,12.6,6.8,19.3c0.6,3.3,1,6.6,1.2,10c0,3.4-0.1,6.7-0.3,10c-0.3,6.6-0.7,13.3-1.2,19.9
							l-3.2,39.8l-1.2,15.5l24.7-8.4l-24.9,12.1l-0.1,0.8c-0.7,6.5-1,13.1-1,19.7c-0.1,13,0.4,26.1,1,39.1l10.2-2.9l1.6,3.5
							l-11.8,2.5l1.6,37.3c0.1,2.2,0.2,4.4,0.3,6.6l9.6-3.8l-9.5,6.8c0,0.1,0,0.2,0,0.4c0,3.4-0.1,6.8-0.2,10.1
							c-0.3,6.7-1,13.4-1.7,20.1c-1.5,13.3-3.5,26.6-6,39.8l-13-1.5c2.9-13,5.5-26.1,7.5-39.2c1-6.5,1.9-13.1,2.5-19.6
							c0.3-3.3,0.5-6.5,0.6-9.8c-0.1-3.3,0.2-6.6,0.8-9.9v-37.2c-2.7-0.4-5.5-0.9-8.1-1.7c-3.7-0.9-7.1-2.5-10.2-4.7
							c-2.5-2.1-4.7-4.6-6.5-7.4c-1.7-2.6-3.2-5.3-4.5-8.1C543.9,197.4,545.6,200,547.6,202.4z"/>
					</g>
					<g class="st3">
						<path class="st4" d="M742.9,201.5c2,2.6,4.4,4.8,7,6.7c3,1.8,6.4,3.1,9.8,3.7c2.1,0.5,4.2,0.8,5.7,1.1l0,0
							c0.7-13.3,0.7-26.6,1.4-40c0.3-6.7,0.9-13.4,1.8-20l0.2-1.5l-0.3-0.4l0.4-0.1l2.2-17.8l3.9-31.9l-20.9-19.1l21.5,14.6l0.4-3.2
							c0.7-6.6,1.4-13.2,2-19.9c0.3-3.3,0.6-6.6,0.7-9.9c-0.1-3.3-0.4-6.6-0.8-9.9c-0.9-6.7-2.9-13.2-5.9-19.2
							c-1.6-3.2-3.5-6.2-5.6-9c-1.1-1.4-2.2-2.9-3.4-4.3c-1.2-1.3-2.2-2.8-3-4.4c0.8,1.6,1.9,3.1,3.2,4.3c1.2,1.4,2.4,2.8,3.6,4.2
							c2.3,2.8,4.3,5.8,6,8.9c3.3,6,5.6,12.6,6.8,19.3c0.6,3.3,1,6.6,1.2,10c0,3.4-0.1,6.7-0.3,10c-0.3,6.6-0.7,13.3-1.2,19.9
							l-3.2,39.8l-1.3,15.4l24.7-8.4l-25,12.1l-0.1,0.8c-0.7,6.5-1,13.1-1,19.7c-0.1,13,0.4,26.1,1,39.1l10.2-2.9l1.6,3.5l-11.7,2.5
							l1.6,37.3c0.1,2.2,0.2,4.4,0.3,6.6l9.6-3.8l-9.5,6.8c0,0.1,0,0.2,0,0.4c0,3.4-0.1,6.8-0.2,10.1c-0.3,6.7-1,13.4-1.7,20.1
							c-1.5,13.3-3.5,26.6-6,39.8l-13-1.5c2.9-13,5.5-26.1,7.5-39.2c1-6.5,1.9-13.1,2.5-19.6c0.3-3.3,0.5-6.5,0.6-9.8s0-6.6,0.2-9.9
							v-37.2c-2.6-0.4-5.1-1-7.6-1.7c-3.7-0.9-7.1-2.5-10.2-4.7c-2.5-2.1-4.7-4.6-6.5-7.4c-1.7-2.6-3.2-5.3-4.5-8.1
							C739.1,196.5,740.9,199.1,742.9,201.5z"/>
					</g>
					<g class="st5">
						<path class="st4" d="M768.3,256.8c-2.2,1.6-4.5,3-7,4c-3.2,1.1-6.5,1.9-9.8,2.2c-2.1,0.3-4.2,0.5-6.6,0.6l0,0
							c0.3-8,0.2-16-0.4-24c-0.3-4-0.9-8.1-1.8-12l-0.2-0.9l0.3-0.2l-0.4-0.1l-2.1-10.6l-3.9-19.1l20.9-11.5l-21.5,8.7l-0.4-1.9
							c-0.8-4-1.4-7.9-2-11.9c-0.3-2-0.6-4-0.7-5.9c0.1-2,0.4-4,0.8-5.9c1-4.3,3-8.2,5.9-11.5c1.7-2,3.6-3.8,5.6-5.4
							c1.1-0.9,2.2-1.7,3.4-2.6c1.1-0.7,2.1-1.6,3-2.6c-0.9,1-2,1.9-3.2,2.6c-1.2,0.8-2.4,1.7-3.6,2.5c-2.2,1.6-4.2,3.4-6,5.3
							c-3.1,3.3-5.4,7.3-6.8,11.6c-0.6,2-1,4-1.2,6c0,2,0.1,4,0.3,6c0.3,4,0.7,8,1.2,11.9l3.1,23.8l1.2,9.3l-24.7-5l25,7.2l0.1,0.5
							c0.7,3.9,1,7.9,1,11.8c0.1,7.8-0.4,15.6-1,23.5l-10.2-1.8l-1.6,2.1l11.7,1.5l-1.6,22.4c-0.1,1.3-0.2,2.6-0.3,4l-9.6-2.3l9.5,4
							c0,0.1,0,0.1,0,0.2c0,2,0.1,4.1,0.2,6.1c0.4,4,1,8,1.7,12c1.6,8.1,3.6,16,6,23.9l13-0.9c-2.9-7.7-5.4-15.5-7.5-23.5
							c-1-3.9-1.9-7.8-2.5-11.8c-0.3-2-0.5-3.9-0.6-5.9c-0.2-2,0.1-4,0.8-5.9v-22.3c1.7-0.3,4.2-0.6,6.6-1c3.5-0.5,7-1.5,10.2-2.8
							c2.4-1.2,4.5-2.7,6.5-4.4c1.6-1.5,3.2-3.1,4.5-4.8C772,253.8,770.2,255.4,768.3,256.8z"/>
					</g>
					<g class="st5">
						<path class="st4" d="M951.2,249.1c-2.2,1.6-4.5,3-7,4c-3.2,1.1-6.5,1.9-9.8,2.2c-2.1,0.3-4.2,0.5-6.5,0.6l0,0
							c0.1-8,0-16-0.6-24c-0.3-4-0.9-8.1-1.8-12l-0.2-0.9l0.3-0.2l-0.4-0.1l-2.2-10.7l-3.9-19.1l20.9-11.5l-21.5,8.7l-0.4-1.9
							c-0.8-4-1.4-7.9-2-11.9c-0.3-2-0.6-4-0.7-5.9c0.1-2,0.4-4,0.8-5.9c1-4.3,3-8.2,5.9-11.5c1.7-2,3.6-3.8,5.6-5.4
							c1.1-0.9,2.2-1.7,3.4-2.6c1.1-0.7,2.1-1.6,3-2.6c-0.9,1-2,1.9-3.2,2.6c-1.2,0.8-2.4,1.7-3.6,2.5c-2.2,1.6-4.2,3.4-6,5.3
							c-3.1,3.3-5.4,7.3-6.8,11.6c-0.6,2-1,4-1.2,6c0,2,0.1,4,0.3,6c0.3,4,0.7,8,1.2,11.9l3.2,23.9l1.2,9.3l-24.7-5l25,7.2l0.1,0.5
							c0.7,3.9,1,7.9,1,11.8c0.1,7.8-0.4,15.6-1,23.5l-10.2-1.8l-1.5,2.1l11.7,1.5l-1.6,22.4c-0.1,1.3-0.2,2.6-0.3,4l-9.6-2.3l9.5,4
							c0,0.1,0,0.1,0,0.2c0,2,0.1,4.1,0.2,6.1c0.4,4,1,8,1.7,12c1.6,8.1,3.6,16,6,23.9l13-0.9c-2.9-7.7-5.4-15.5-7.5-23.5
							c-1-3.9-1.9-7.8-2.5-11.8c-0.3-2-0.5-3.9-0.6-5.9c-0.2-2,0.1-4.1,1-5.9v-22.3c1.6-0.3,4-0.6,6.4-1c3.5-0.5,7-1.5,10.2-2.8
							c2.4-1.2,4.5-2.7,6.5-4.4c1.6-1.5,3.2-3.1,4.5-4.8C954.9,246.2,953.1,247.8,951.2,249.1z"/>
					</g>
					<path class="st4" d="M1013.3,198c-2.5,2.7-5.3,5-8.4,6.9c-3.7,1.9-7.7,3.2-11.9,3.8c-2.8,0.5-5.6,0.9-8.4,1.1l0,0
						c0.7-13.7,0.6-27.4-0.2-41.1c-0.4-6.9-1.1-13.8-2.2-20.6l-0.2-1.5l0.4-0.4L982,146l-2.6-18.3l-4.7-32.8l25.2-19.7l-25.9,15
						l-0.5-3.3c-0.9-6.8-1.7-13.6-2.4-20.4c-0.3-3.4-0.7-6.8-0.8-10.2c0.1-3.4,0.4-6.8,1-10.1c1.1-7,3.5-13.7,7.1-19.8
						c1.9-3.3,4.2-6.4,6.8-9.2c1.3-1.5,2.7-2.9,4.1-4.4s2.9-2.9,3.6-4.6c-1,1.7-2.3,3.2-3.8,4.5c-1.5,1.4-2.9,2.9-4.3,4.3
						c-2.7,2.8-5.1,5.9-7.3,9.2c-3.9,6.1-6.7,12.8-8.2,19.9c-0.7,3.4-1.2,6.8-1.5,10.3c0,3.5,0.2,6.9,0.3,10.3
						c0.4,6.8,0.9,13.7,1.4,20.5l3.9,41l1.5,15.9l-29.7-8.7l30.1,12.5l0.1,0.8c0.8,6.7,1.2,13.5,1.2,20.3
						c0.1,13.4-0.5,26.9-1.2,40.3l-12.4-3l-1.9,3.6l14,2.6l-2,38.4c-0.1,2.3-0.2,4.5-0.3,6.8l-11.6-3.9l11.5,7c0,0.1,0,0.2,0,0.4
						c0,3.5,0.1,7,0.3,10.5c0.4,6.9,1.2,13.8,2.1,20.7c1.8,13.7,4.3,27.4,7.2,41l15.7-1.6c-3.5-13.4-6.6-26.9-9.1-40.4
						c-1.2-6.7-2.3-13.5-3-20.2c-0.3-3.4-0.7-6.7-0.8-10.1c-0.1-3.4,0-6.8,0.4-10.2v-38.3c2.7-0.5,5.6-1,8.5-1.7
						c4.5-1.1,8.9-2.5,12.4-4.8c3-2.1,5.6-4.7,7.8-7.6c2-2.6,3.9-5.4,5.4-8.3C1017.8,192.8,1015.7,195.5,1013.3,198z"/>
					<path class="st4" d="M951.4,134.5l0.7-1c3.1-4.5-0.1-9.8-7.2-11.8l-0.7,1C941.2,127.3,944.4,132.6,951.4,134.5z"/>
					<path class="st4" d="M929.1,145.5l1.7,0.2c7.5,1,14.9-2,16.5-6.9l0,0l-1.7-0.2C938.2,137.6,930.8,140.7,929.1,145.5z"/>
					<path class="st4" d="M1009.8,196.1l1.6,0.3c2.1-4.7-2.3-9.7-9.7-11l-1.6-0.3C998.1,189.8,1002.4,194.8,1009.8,196.1z"/>
					<path class="st4" d="M1019.8,200.8l-5.3,0.7l0,0c1.2,3.5,6.7,5.8,12.2,5l5.3-0.7C1030.8,202.3,1025.3,200,1019.8,200.8z"/>
					<path class="st4" d="M959.2,252.9v-1c0-3.5-4.4-6.3-9.8-6.3v1C949.4,250.1,953.8,252.9,959.2,252.9z"/>
					<path class="st4" d="M948,262.2l1.6,0.1c5.4,0.4,10.3-2.1,10.9-5.5l-1.6-0.1C953.6,256.2,948.6,258.7,948,262.2z"/>
				</g>
				<path class="st8" d="M2.2,348c-1.6,4.5-4.1,8.7-7.3,12.4c3.9,5.7,6.1,11.9,6.1,17.9v63.2c3.1-0.2,6.3-0.4,9.4-0.4
					c52.3-0.1,104.3-4.4,156.7-4.5c12.4-0.1,24.8,1.8,36.6,5.6c27.6-2.4,55.2-4.5,83.1-5.6C350,434,413.6,435,477,435h194.9
					c13-0.1,25.9,2,38.2,6.2c115.5-5.6,231.5-6.2,347.3-6.2c1.2,0,2.4,0,3.6,0.1V348H2.2z"/>
				<path class="st9" d="M7.7,412.9c-2.2,0.3-4.5,0.5-6.7,0.7v27.3c58.7-4.8,90.2-24.6,114.6-42.7c37.5-27.9,123.3-36.9,123.3-36.9
					C136.7,361.9,90.1,402.6,7.7,412.9z"/>
				<path class="st9" d="M464.7,348.3c0,0-119.1,11.4-125.9,41.8c-4.9,21.8-2.5,38-91.4,45.5c-14.9,1.3-29.7,3.5-44.3,6.5l0.5,0.2
					c27.6-2.3,55.2-4.5,83.1-5.6c11.5-0.4,23-0.8,34.5-1c20.2-7.7,37.9-21.6,46.1-52.1c9-33.5,139.4-30.1,139.4-30.1L464.7,348.3z"
					/>
				<path id="_Path_" class="st10" d="M82.5,344.3c0,0,7.4,3.3,3,20.8C81.7,380,61.5,393,12,400.3c0,0,58.5,3,124.4-43.2L82.5,344.3
					z"/>
				<path class="st10" d="M915.9,348.1c0,0-3,55.8-274.3,58.7c-81.7,0.9-143.2,12.4-189.4,28.1c8.3,0,16.5,0,24.8,0h112.7
					c22.4-7.7,51.2-13.2,87.9-15.7C929.4,402.5,915.9,348.1,915.9,348.1z"/>
				<path id="_Path_2" class="st9" d="M545.7,348.3c0,0-66,23.5-72,46.2s-89.9,22.8-107.9,38.2c24.2-5.6,48.8-10,73.4-13.2
					c38.2-4.9,43.5-4.7,55-26.3c4.5-8.5-12-28,106.9-20.8C678.5,377,742.1,352,742.1,352l-51-3.7c0,0-32.8,23.7-72.6,19.8
					S545.7,348.3,545.7,348.3z"/>
				<path class="st9" d="M791.5,437.7c43.3-16.6,97.8-35.5,149.7-47.7c40.6-9.5,82.7-7.3,119.8-0.7V360c-3.6-0.1-7.4-0.1-11.3,0
					h-0.1c-18.4,0.6-36.6,2.5-54.7,6c-39,7.1-88.2,21.2-149.6,46.5c-23.6,9.7-45.5,18.2-65.6,25.7L791.5,437.7z"/>
				<path class="st10" d="M909.7,435.8c13.8-3.5,28.7-7.5,45-11.9c35.9-9.8,73.7-7.6,106.3-1.3v-21.8c-38.5-8-83.6-9.6-122.8,9.9
					c-20.1,10.1-40.9,18.6-62.2,25.6C887.2,436.1,898.4,435.9,909.7,435.8z"/>
				<path class="st10" d="M212.9,401.7c-29.4,2.7-72.3,18.4-114.3,36.8c8.7-0.4,17.5-0.7,26.2-1c33.4-12.2,65.7-22,89.6-25.3
					c79.9-11.1,106.4-47,106.4-47S290.9,394.5,212.9,401.7z"/>
				<path class="st11" d="M1,386.6v6.3c4.8,0.6,9.7-0.1,14-2.3C22.4,387.2,10,385.9,1,386.6z"/>
				<path id="_Path_3" class="st11" d="M162.4,396c0,0,8-12.8,29-9.6s14,6.8,14,6.8S173.4,401.4,162.4,396z"/>
				<path id="_Path_4" class="st11" d="M580.7,385.1c0,0-12.1,8.5,0,8.8S595.2,382.6,580.7,385.1z"/>
				<path id="_Path_5" class="st11" d="M511,387.4c0,0,7.1,4.6,16.9,0S504,382.8,511,387.4z"/>
				<path id="_Path_6" class="st11" d="M534.1,391.6c0,0,6.5-10.4,23.4-7.8s11.3,5.5,11.3,5.5S543,395.9,534.1,391.6z"/>
				<path id="_Path_7" class="st11" d="M200,376.9L200,376.9c-3.2,2.3-1.9,5.4,2.9,6.8c7.4,2.2,18.2,4.5,26.5,2.7
					c4.7-1,6.1-3.5,5.2-6.1C231.7,372.2,209.6,370.2,200,376.9z"/>
				<path class="st12" d="M681.6,435.5c2.2,0.2,4.4,0.4,6.5,0.7c1.3-0.2,2.1-0.8,1.9-1.5c-0.7-1.6-3.5-2.8-6.9-2.8l-1.5,0.9
					C680.1,433.6,680.3,434.8,681.6,435.5z"/>
				<path id="_Path_8" class="st11" d="M565.1,390.4l-1.6,0.9c-2.4,1.4-0.3,3.6,3.5,3.6h2.5c1.8,0,3.1-0.8,2.8-1.7l0,0
					C571.7,391.7,568.6,390.4,565.1,390.4L565.1,390.4z"/>
				<path class="st13" d="M509.1,334.2c-35.6,0-69.7,0-105.2-3.4c-25.2-2.7-47.5-7.5-74.1-4.8c-72.6,6.8-140.8,7.5-212,8.1
					c-38.1,0.5-77.6,2.3-115.5,0.7c0.4,1.7,0.7,3.4,0.9,5.1c0.5,6.7-2.9,13.9-8.6,20.4c0.6,0.9,1.2,1.8,1.8,2.7
					c29.3,1.2,59.6,0.4,89.4-0.2c8.4-0.2,16.7-0.3,25-0.5l17.4-0.2c64.9-0.7,127.8-1.7,194.5-8c26.7-2.7,48.9,2,74.1,4.7l0.7,0.1
					c4,0.4,8.1,0.7,12.1,1c31,2.3,61.1,2.3,92.4,2.3c3.2,0.1,6.5,0.1,9.8,0.1c26.1,0.4,52.1,0.5,78.1,0.4l0,0
					c23.7,0,47.4-0.2,71.1-0.5c15.7-0.2,31.5-0.4,47.2-0.7c66.9-1,133.8-2.5,200.9-2.8h0.3c0,0,2.4,0.2,3.7,0.2
					c45.5-0.2,91.1,0,136.9,0.8h0.1c3.8,0.5,11.1,0.8,11.1,0.8v-28.5C875.6,327.1,693.6,337.4,509.1,334.2z"/>
				<path class="st14" d="M1049.9,360h-0.1c-45.8-0.8-91.4-1.1-136.9-0.8c-1.2,0-3.7-0.2-3.7-0.2l0,0c-67.1,0.3-134,1.8-200.9,2.8
					c-15.7,0.3-31.4,0.5-47.2,0.7c-23.7,0.3-47.4,0.5-71.1,0.5l0,0c-26,0.1-52-0.1-78.1-0.4c-3.2,0-6.5-0.1-9.8-0.1
					c-31.2,0-61.4,0-92.4-2.3c-4-0.3-8.1-0.6-12.1-1l-0.7-0.1c-25.2-2.7-47.4-7.3-74.1-4.7c-66.7,6.1-129.6,7.2-194.5,7.8l-17.4,0.2
					c-8.3,0.1-16.6,0.3-25,0.5c-29.8,0.7-60.1,1.5-89.4,0.2c1.3,2.1,2.3,4.4,3.1,6.7c27.5,1,55.9,0.3,83.8-0.3
					c9.2-0.2,18.4-0.4,27.5-0.5l5.8-0.1h78.3c0,0,84.1-3.5,127.8-7.7c20.5-2.2,38.4,0.2,57,2.8c3.5,0.5,7.1,1,10.8,1.4
					c2.1,0.3,4.2,0.5,6.4,0.8c34.6,3.4,102.4,3.8,102.4,3.8h2.7c0,0,110.5,0.4,165.6,0l0,0c77.5-1.3,154.9-3.2,232.7-3.8
					c2.2,0,4.4,0,6.6,0c29.3-0.2,58.6-0.1,88,0.2c22,0.2,65.9,1.4,65.9,1.4v-7C1060.9,360.8,1053.7,360.5,1049.9,360z"/>
				
					<linearGradient id="SVGID_3_" gradientUnits="userSpaceOnUse" x1="529.4951" y1="-93.39" x2="529.4951" y2="-31.09" gradientTransform="matrix(1 0 0 -1 0 256)">
					<stop  offset="0" style="stop-color:#BFA910"/>
					<stop  offset="1" style="stop-color:#CFA53D"/>
				</linearGradient>
				<path class="st15" d="M955,321.3l2.5-6l-5.3,6c-19.8-0.2-39.5-0.3-59.2-0.3l13.5-17.4L889.9,321h-2.4l-3-29l-4.6,27.9l-12.7-9.3
					L871,321c-63.9,0.3-127.6,1.6-191.3,3.3l-5.4-4.7l1.9,4.8c-38.4,1.1-76.8,2.3-115.2,3.6c-33.2,0.7-66.3-0.7-99.3-4.4
					c-25.7-2.5-50.6-4.7-75.9-5.5l-3.5-0.1h-1l-16.5-0.3c-4.3,0-8.5,0-12.8,0.1c-17.5,0.5-35,0.8-52.5,1.2l-4.4,0.1
					c-25.2,0.5-50.2,1-75.2,1.8l-21.8,0.7c-29.3,1.1-58.5,2.6-87.7,5c-17.9,1.6-36.9,1.6-56.1,1l14.3-22.1l-17.7,21.9l-0.9-0.3
					l-3.2-46.4L42.1,325l-12.7-9.3l3.8,11c-11.8-0.6-23.5-1.3-35.2-1.9c1.9,3.3,3.4,6.8,4.3,10.5c37.9,1.8,77.4-0.2,115.5-0.7
					c71.2-0.7,139.3-1.5,212-8.7c26.6-2.9,48.9,2.2,74.1,5.1c35.6,3.6,69.7,3.6,105.2,3.6c184.5,3.4,366.6-7.7,551.9-2.3v-8.4
					C1025.6,322.6,990.3,321.7,955,321.3z"/>
				<rect x="-1" y="-189" class="st16" width="1050" height="604"/>
			</g>
		</g>
	</g>
</g>
</svg>
