<svg xmlns="http://www.w3.org/2000/svg" xmlns:xlink="http://www.w3.org/1999/xlink" viewBox="0 0 1081.8 631.28"><defs><style>.cls-1,.cls-14{fill:none;}.cls-2{clip-path:url(#clip-path);}.cls-3,.cls-4,.cls-6{fill:#ad5236;}.cls-3{opacity:0.21;}.cls-4{opacity:0.76;}.cls-5{opacity:0.26;}.cls-7{opacity:0.09;}.cls-8{opacity:0.1;}.cls-9{opacity:0.19;}.cls-10{fill:#ce783f;}.cls-11{fill:#b4673e;}.cls-12{fill:#e49345;}.cls-13{fill:#9b5c3f;}.cls-14{stroke:#2d2d2d;stroke-miterlimit:10;stroke-width:2.27px;}.cls-15{fill:#82820f;}.cls-16{fill:#492e17;opacity:0.5;}.cls-17{fill:url(#linear-gradient);}</style><clipPath id="clip-path"><rect class="cls-1" x="20.8" y="13" width="1049" height="592"/></clipPath><linearGradient id="linear-gradient" x1="550.29" y1="538.39" x2="550.29" y2="476.09" gradientUnits="userSpaceOnUse"><stop offset="0" stop-color="#bfa910"/><stop offset="1" stop-color="#cfa53d"/></linearGradient></defs><title>g-bgbot-desktop</title><g id="Layer_2" data-name="Layer 2"><g id="Layer_5" data-name="Layer 5"><g class="cls-2"><path class="cls-3" d="M1056,498.56a16.32,16.32,0,0,0,4.46-11.12c0-9.42-8.18-17.06-18.27-17.06a19.46,19.46,0,0,0-4.66.58,7.28,7.28,0,0,0-7.33-5.91,7.8,7.8,0,0,0-3.44.79c-1.89-6.59-8.32-11.46-16-11.46a16.5,16.5,0,0,0-15.69,10.54,7.78,7.78,0,0,0-3.73-.94,7.23,7.23,0,0,0-7.4,6.44,5.92,5.92,0,0,0-3.45-1.11,6.07,6.07,0,0,0-1.26.14,7,7,0,0,0,.11-1.21,7.74,7.74,0,0,0-8-7.47,8.33,8.33,0,0,0-4.66,1.41,10.61,10.61,0,0,0-10.76-8.87,11.65,11.65,0,0,0-2.07.19,13.26,13.26,0,0,0-11.63-6.59c-7.21,0-13,5.42-13.13,12.13a10.33,10.33,0,0,0-2.86-.4c-5.36,0-9.71,4.06-9.71,9.07a8.43,8.43,0,0,0,.1,1.25l-.47.11a10.18,10.18,0,0,0-12.38.42c-1-5.55-6.15-9.78-12.37-9.78h-.22a12.35,12.35,0,0,0-12.35-9.61,12.51,12.51,0,0,0-11.93,8.08,10.26,10.26,0,0,0-3.48-.61,10.09,10.09,0,0,0-6.19,2.08,13.66,13.66,0,0,0-8.09-2.61c-7.25,0-13.13,5.49-13.13,12.27v0A12.53,12.53,0,0,0,825,476.67a7.78,7.78,0,0,0-3.76-1A7.9,7.9,0,0,0,819,476a13,13,0,0,0-12.61-8.85,13.3,13.3,0,0,0-11.44,6.26,10.81,10.81,0,0,0-12.25-.18,15.44,15.44,0,0,0-24.61.07,11.21,11.21,0,0,0-7.65-2.95c-6,0-10.85,4.54-10.85,10.13a9.5,9.5,0,0,0,.14,1.53,9,9,0,0,0-4.13-1,8.39,8.39,0,0,0-8.46,6.84,14.6,14.6,0,0,0-3.53-.44,14.18,14.18,0,0,0-9.26,3.39,18.28,18.28,0,0,0-17-10.85,19.12,19.12,0,0,0-9.59,2.56,23.71,23.71,0,0,0-7.54-1.22,24.31,24.31,0,0,0-4.66.46c-.53-2.65-3.61-4.68-7.33-4.68a9.53,9.53,0,0,0-3.44.63c-1.89-5.22-8.32-9.07-16-9.07-7.3,0-13.48,3.5-15.69,8.35a9.44,9.44,0,0,0-3.73-.75c-3.92,0-7.13,2.25-7.4,5.1a7,7,0,0,0-3.45-.88,7.63,7.63,0,0,0-1.26.11,4.42,4.42,0,0,0,.11-1c0-3.26-3.58-5.91-8-5.91a10,10,0,0,0-4.66,1.11c-.66-4-5.22-7-10.76-7a14.63,14.63,0,0,0-2.07.15c-2.19-3.1-6.58-5.22-11.63-5.22-7.21,0-13,4.29-13.12,9.61a12.88,12.88,0,0,0-2.86-.32c-5.36,0-9.71,3.21-9.71,7.18a5.3,5.3,0,0,0,.1,1l-.47.09a12,12,0,0,0-5.91-1.5,11.76,11.76,0,0,0-6.47,1.84c-1-4.39-6.15-7.75-12.37-7.75h-.22c-1.07-4.33-6.19-7.61-12.35-7.61-5.57,0-10.29,2.68-11.93,6.39a12.72,12.72,0,0,0-3.48-.48,11.9,11.9,0,0,0-6.19,1.65,16.19,16.19,0,0,0-8.09-2.07c-7.25,0-13.13,4.35-13.13,9.71v0c-5,.17-9.29,2.52-11.08,5.81a9.43,9.43,0,0,0-3.76-.76,9.85,9.85,0,0,0-2.24.26c-1.58-4-6.62-7-12.61-7-4.92,0-9.19,2-11.44,5a13.21,13.21,0,0,0-12.25-.15c-2.67-2.9-7.17-4.81-12.28-4.81s-9.67,1.93-12.33,4.87a13,13,0,0,0-7.65-2.34c-5,0-9.18,2.49-10.45,5.89a20.54,20.54,0,0,0-14-5.1c-7.66,0-14.19,3.66-16.83,8.82a16,16,0,0,0-9.17-2.75,17.45,17.45,0,0,0-3.49.36c-.6-3.14-4.11-5.56-8.38-5.56a10.51,10.51,0,0,0-4.09.81,6.37,6.37,0,0,0,.14-1.24c0-4.55-4.81-8.23-10.74-8.23a12.53,12.53,0,0,0-7.57,2.4c-2.64-3-7.12-5-12.21-5a16.27,16.27,0,0,0-12.16,4.94,12.66,12.66,0,0,0-12.12.15c-2.23-3-6.46-5.09-11.33-5.09-5.92,0-10.91,3-12.48,7.19a9.42,9.42,0,0,0-2.22-.26,9,9,0,0,0-3.73.78c-1.77-3.38-6-5.79-11-6v0c0-5.5-5.82-10-13-10a15.58,15.58,0,0,0-8,2.12,11.47,11.47,0,0,0-6.12-1.69,12.17,12.17,0,0,0-3.45.5c-1.63-3.81-6.3-6.56-11.81-6.56-6.1,0-11.16,3.37-12.22,7.81h-.21c-6.16,0-11.26,3.44-12.25,8a11.34,11.34,0,0,0-6.4-1.88,11.51,11.51,0,0,0-5.85,1.54l-.47-.09a5.67,5.67,0,0,0,.1-1c0-4.07-4.3-7.37-9.61-7.37a12.32,12.32,0,0,0-2.83.33c-.08-5.45-5.86-9.86-13-9.86-5,0-9.34,2.17-11.52,5.35a14,14,0,0,0-2-.15c-5.48,0-10,3.15-10.65,7.21a9.57,9.57,0,0,0-4.61-1.14c-4.37,0-7.91,2.72-7.91,6.07a4.7,4.7,0,0,0,.11,1,7.28,7.28,0,0,0-1.24-.11,6.76,6.76,0,0,0-3.42.9c-.27-2.92-3.44-5.24-7.32-5.24a9.06,9.06,0,0,0-3.69.77c-2.18-5-8.3-8.57-15.53-8.57-7.58,0-13.94,4-15.81,9.31a9.14,9.14,0,0,0-3.4-.64c-3.69,0-6.73,2.09-7.26,4.8a23.25,23.25,0,0,0-4.61-.47c-10,0-18.08,6.21-18.08,13.86a12.12,12.12,0,0,0,4.41,9c-5.27,2-8.93,6.12-8.93,10.9C0,514.78,15.82,520,15.82,520H319.07c2.87,3.58,8.14,6,14.14,6H687s1.6,0,2.37-.08A36.73,36.73,0,0,0,695,527h354s16-6.82,16-15A14.92,14.92,0,0,0,1056,498.56Z"/><path class="cls-4" d="M20.45,528.86c0,6.68,6.24,12.14,13.86,12.14H341.17c7.62,0,13.86-5.46,13.86-12.14A10.88,10.88,0,0,0,353.3,523a12.43,12.43,0,0,0,1.73-6.29c0-7.66-7.09-13.87-15.84-13.87-6.71,0-12.43,3.66-14.74,8.82a12.79,12.79,0,0,0-8-2.75,13.44,13.44,0,0,0-3.06.36c-.52-3.14-3.6-5.56-7.34-5.56a8.22,8.22,0,0,0-3.58.81,7.25,7.25,0,0,0,.12-1.24c0-4.55-4.21-8.24-9.4-8.24a10.09,10.09,0,0,0-6.63,2.4,13.94,13.94,0,0,0-21.34-.06,9.89,9.89,0,0,0-10.62.15,11.72,11.72,0,0,0-9.92-5.09c-5.19,0-9.56,3-10.93,7.2a7.27,7.27,0,0,0-1.94-.26,7.09,7.09,0,0,0-3.26.78,10.9,10.9,0,0,0-9.61-6v0c0-5.51-5.1-10-11.38-10a12.38,12.38,0,0,0-7,2.13,9.13,9.13,0,0,0-5.36-1.69,9.43,9.43,0,0,0-3,.5c-1.43-3.81-5.51-6.57-10.34-6.57-5.34,0-9.77,3.37-10.7,7.81h-.19c-5.4,0-9.86,3.44-10.73,8a9.29,9.29,0,0,0-10.73-.34l-.41-.09a6.43,6.43,0,0,0,.09-1c0-4.07-3.77-7.37-8.41-7.37a9.51,9.51,0,0,0-2.48.33c-.07-5.46-5.13-9.86-11.38-9.86a11.66,11.66,0,0,0-10.09,5.36,10.73,10.73,0,0,0-1.79-.15c-4.8,0-8.75,3.15-9.32,7.21a7.57,7.57,0,0,0-4-1.14c-3.83,0-6.93,2.72-6.93,6.07a5.34,5.34,0,0,0,.1,1,5.61,5.61,0,0,0-1.09-.11,5.36,5.36,0,0,0-3,.9c-.23-2.93-3-5.24-6.41-5.24a7.1,7.1,0,0,0-3.23.77c-1.91-5-7.27-8.57-13.6-8.57-6.64,0-12.21,4-13.85,9.31a7.14,7.14,0,0,0-3-.64,6.22,6.22,0,0,0-6.36,4.81,17.93,17.93,0,0,0-4-.47c-8.75,0-15.84,6.21-15.84,13.87a12.84,12.84,0,0,0,3.86,9C23.66,519.94,20.45,524.08,20.45,528.86ZM99.3,499q-.58.59-1.1,1.23a3.9,3.9,0,0,0,.42-1.48C98.84,498.81,99.07,498.89,99.3,499Zm82,10H181l.1-.21Zm72,0h-.1l.05,0Z"/><path class="cls-4" d="M1069,533.86A12.36,12.36,0,0,1,1056.52,546h-277A12.36,12.36,0,0,1,767,533.86a11.75,11.75,0,0,1,1.56-5.85,13.46,13.46,0,0,1-1.56-6.29,14.09,14.09,0,0,1,14.3-13.87,14.29,14.29,0,0,1,13.3,8.82,10.85,10.85,0,0,1,7.25-2.75,11,11,0,0,1,2.76.36,6.64,6.64,0,0,1,6.62-5.56,6.83,6.83,0,0,1,3.23.81,8,8,0,0,1-.11-1.24,8.36,8.36,0,0,1,8.49-8.24,8.59,8.59,0,0,1,6,2.4,11.82,11.82,0,0,1,19.26-.06,8.2,8.2,0,0,1,9.58.15,10.39,10.39,0,0,1,18.82,2.11,5.94,5.94,0,0,1,4.7.52,9.81,9.81,0,0,1,8.67-6v0a10.13,10.13,0,0,1,10.28-10,10.42,10.42,0,0,1,6.33,2.13,7.75,7.75,0,0,1,7.57-1.19,9.9,9.9,0,0,1,19,1.24h.17a9.74,9.74,0,0,1,9.68,8,7.73,7.73,0,0,1,9.69-.34l.37-.09a7.11,7.11,0,0,1-.08-1,7.48,7.48,0,0,1,7.59-7.37,7.8,7.8,0,0,1,2.24.33A10.13,10.13,0,0,1,973,481a10.31,10.31,0,0,1,9.1,5.36,8.77,8.77,0,0,1,1.62-.15,8.4,8.4,0,0,1,8.42,7.21,6.35,6.35,0,0,1,3.65-1.14,6.16,6.16,0,0,1,6.25,6.07,5.9,5.9,0,0,1-.09,1,4.59,4.59,0,0,1,1-.11,4.51,4.51,0,0,1,2.7.9,5.73,5.73,0,0,1,5.79-5.24,5.91,5.91,0,0,1,2.92.77,13.06,13.06,0,0,1,24.77.74,5.92,5.92,0,0,1,2.69-.64,5.75,5.75,0,0,1,5.74,4.81,14.68,14.68,0,0,1,3.64-.47,14.09,14.09,0,0,1,14.3,13.87,13.54,13.54,0,0,1-3.49,9A12.14,12.14,0,0,1,1069,533.86ZM997.85,504q.53.59,1,1.23a4.23,4.23,0,0,1-.38-1.48A6.5,6.5,0,0,1,997.85,504ZM923.8,514h.28l-.09-.21Zm-65,0h.09l0,0Z"/><path class="cls-4" d="M686,539.86A12.36,12.36,0,0,1,673.52,552h-277A12.36,12.36,0,0,1,384,539.86a11.75,11.75,0,0,1,1.56-5.85,13.46,13.46,0,0,1-1.56-6.29,14.09,14.09,0,0,1,14.3-13.87,14.29,14.29,0,0,1,13.3,8.82,10.85,10.85,0,0,1,7.25-2.75,11,11,0,0,1,2.76.36,6.64,6.64,0,0,1,6.62-5.56,6.83,6.83,0,0,1,3.23.81,8,8,0,0,1-.11-1.24,8.36,8.36,0,0,1,8.49-8.24,8.59,8.59,0,0,1,6,2.4,11.82,11.82,0,0,1,19.26-.06,8.2,8.2,0,0,1,9.58.15,10.39,10.39,0,0,1,18.82,2.11,5.94,5.94,0,0,1,4.7.52,9.81,9.81,0,0,1,8.67-6v0a10.13,10.13,0,0,1,10.28-10,10.42,10.42,0,0,1,6.33,2.13,7.75,7.75,0,0,1,7.57-1.19,9.9,9.9,0,0,1,19,1.24h.17a9.74,9.74,0,0,1,9.68,8,7.73,7.73,0,0,1,9.69-.34l.37-.09a7.11,7.11,0,0,1-.08-1,7.48,7.48,0,0,1,7.59-7.37,7.8,7.8,0,0,1,2.24.33A10.13,10.13,0,0,1,590,487a10.31,10.31,0,0,1,9.1,5.36,8.77,8.77,0,0,1,1.62-.15,8.4,8.4,0,0,1,8.42,7.21,6.35,6.35,0,0,1,3.65-1.14,6.16,6.16,0,0,1,6.25,6.07,5.9,5.9,0,0,1-.09,1,4.59,4.59,0,0,1,1-.11,4.51,4.51,0,0,1,2.7.9,5.73,5.73,0,0,1,5.79-5.24,5.91,5.91,0,0,1,2.92.77,13.06,13.06,0,0,1,24.77.74,5.92,5.92,0,0,1,2.69-.64,5.75,5.75,0,0,1,5.74,4.81,14.68,14.68,0,0,1,3.64-.47,14.09,14.09,0,0,1,14.3,13.87,13.54,13.54,0,0,1-3.49,9A12.14,12.14,0,0,1,686,539.86ZM614.85,510q.53.59,1,1.23a4.23,4.23,0,0,1-.38-1.48A6.5,6.5,0,0,1,614.85,510ZM540.8,520h.28l-.09-.21Zm-65,0h.09l0,0Z"/><g id="Tees"><g class="cls-5"><path class="cls-6" d="M289.93,417.41a33.12,33.12,0,0,0,7,5.75,33.58,33.58,0,0,0,9.85,3.16c2.09.39,4.25.7,5.77.93v0c.62-11.36.67-22.72,1.31-34.12A151.89,151.89,0,0,1,315.68,376l.18-1.26-.3-.36.37-.11,2.17-15.19L322,331.86,301.1,315.5l21.45,12.44.39-2.71c.75-5.65,1.41-11.3,2-17,.28-2.82.59-5.66.69-8.46a61.78,61.78,0,0,0-.82-8.41A46.59,46.59,0,0,0,318.91,275a48.1,48.1,0,0,0-5.61-7.66c-1.1-1.23-2.24-2.44-3.41-3.64a15.49,15.49,0,0,1-3-3.77,16.1,16.1,0,0,0,3.2,3.7c1.22,1.18,2.43,2.37,3.59,3.58a50.49,50.49,0,0,1,6,7.6,48.51,48.51,0,0,1,6.78,16.5,62.86,62.86,0,0,1,1.24,8.54c0,2.87-.13,5.7-.28,8.54-.33,5.67-.71,11.34-1.19,17l-3.2,34-1.24,13.21,24.65-7.2L321.49,375.7l-.06.67a148.31,148.31,0,0,0-1,16.85c-.09,11.12.39,22.27,1,33.42l10.25-2.49,1.56,3-11.68,2.17,1.63,31.87c.08,1.89.19,3.78.27,5.67l9.64-3.21-9.55,5.78c0,.1,0,.21,0,.31,0,2.91-.08,5.79-.24,8.66-.34,5.75-1,11.45-1.74,17.14-1.54,11.39-3.55,22.68-6,34l-13-1.32c2.9-11.08,5.46-22.29,7.51-33.46,1-5.59,1.93-11.19,2.52-16.77.29-2.79.54-5.57.64-8.34s0-5.65.28-8.47V429.45a72.93,72.93,0,0,1-7.65-1.43,33.88,33.88,0,0,1-10.25-4,30.67,30.67,0,0,1-6.48-6.31,49,49,0,0,1-4.51-6.88A54.1,54.1,0,0,0,289.93,417.41Z"/></g><g class="cls-5"><path class="cls-6" d="M391.67,396.1a34.92,34.92,0,0,0,7,6.74,30.25,30.25,0,0,0,9.85,3.7c2.09.46,4.25.81,5.82,1.09v0c.57-13.3.62-26.61,1.26-39.95.33-6.66.87-13.37,1.85-20l.18-1.48-.3-.42.37-.13,2.17-17.79,3.89-31.88-20.89-19.15,21.45,14.57.39-3.18q1.12-9.92,2-19.85c.28-3.3.59-6.63.69-9.9a84.35,84.35,0,0,0-.82-9.85,60.83,60.83,0,0,0-5.91-19.24,56.82,56.82,0,0,0-5.61-9c-1.1-1.44-2.24-2.85-3.41-4.26a18,18,0,0,1-3-4.42,18.37,18.37,0,0,0,3.2,4.34c1.22,1.38,2.43,2.77,3.59,4.19a58.66,58.66,0,0,1,6,8.9,62.55,62.55,0,0,1,6.78,19.32,85.43,85.43,0,0,1,1.24,10c0,3.37-.13,6.67-.28,10-.33,6.64-.71,13.28-1.19,19.92l-3.2,39.81-1.24,15.46,24.65-8.43-24.95,12.09-.06.78c-.69,6.55-.95,13.11-1,19.73-.09,13,.39,26.07,1,39.13L433.37,404l1.56,3.53-11.68,2.54,1.63,37.32c.08,2.22.19,4.42.27,6.64l9.64-3.76L425.25,457c0,.12,0,.24,0,.36,0,3.4-.08,6.77-.24,10.14-.34,6.73-1,13.41-1.74,20.07-1.54,13.34-3.55,26.56-6,39.84l-13-1.54c2.9-13,5.46-26.09,7.51-39.18,1-6.55,1.93-13.1,2.52-19.63.29-3.26.54-6.53.64-9.77s0-6.61.33-9.92V410.19a62.33,62.33,0,0,1-7.69-1.68,31.16,31.16,0,0,1-10.25-4.68,33.62,33.62,0,0,1-6.48-7.39,59.18,59.18,0,0,1-4.51-8.06A62.62,62.62,0,0,0,391.67,396.1Z"/></g><g class="cls-7"><path class="cls-6" d="M407.83,448.7a33.33,33.33,0,0,1-7,4A44.32,44.32,0,0,1,391,455c-2.09.28-4.25.49-7,.65h0a147.91,147.91,0,0,0,0-23.95,76.23,76.23,0,0,0-1.85-12l-.18-.89.3-.25-.37-.08-2.17-10.66-3.89-19.11,20.89-11.48-21.45,8.73-.39-1.9c-.75-4-1.41-7.93-2-11.9-.28-2-.59-4-.69-5.94a30.91,30.91,0,0,1,.82-5.9,27.23,27.23,0,0,1,5.91-11.53,37.55,37.55,0,0,1,5.61-5.38c1.1-.86,2.24-1.71,3.41-2.56a12.65,12.65,0,0,0,3-2.65,13.67,13.67,0,0,1-3.2,2.6c-1.22.83-2.43,1.66-3.59,2.51a41.05,41.05,0,0,0-6,5.33,29.5,29.5,0,0,0-6.78,11.58,32,32,0,0,0-1.24,6c0,2,.13,4,.28,6,.33,4,.71,8,1.19,11.94l3.2,23.86,1.24,9.27-24.65-5.05,24.95,7.25.06.47a73.53,73.53,0,0,1,1,11.83c.09,7.8-.39,15.63-1,23.46l-10.25-1.75-1.56,2.12,11.68,1.53-1.63,22.37c-.08,1.33-.19,2.65-.27,4l-9.64-2.26,9.55,4.05c0,.07,0,.14,0,.22,0,2,.08,4.06.24,6.08a118.71,118.71,0,0,0,1.74,12,235.82,235.82,0,0,0,6,23.89l13-.92A243.64,243.64,0,0,1,387.7,503a119.81,119.81,0,0,1-2.52-11.77c-.29-2-.54-3.91-.64-5.85a22.07,22.07,0,0,1,.41-5.94v-22.3c2.12-.27,4.55-.59,7-1a43.33,43.33,0,0,0,10.25-2.81,28.47,28.47,0,0,0,6.48-4.43,36.18,36.18,0,0,0,4.51-4.83A44.41,44.41,0,0,1,407.83,448.7Z"/></g><g class="cls-8"><path class="cls-6" d="M236.91,457.2a20.57,20.57,0,0,1-4.44,3.06,20.29,20.29,0,0,1-5.94,1.44c-1.24.14-2.52.23-3.8.28h0c.76-6.61,1.48-13.23,1.85-19.9a88.24,88.24,0,0,0,0-10l0-.74.2-.2-.21-.08-.27-8.94-.48-16,13.24-8.67-13.31,6.36,0-1.6c-.06-3.32-.08-6.64-.06-10,0-1.66,0-3.32.15-5a36.81,36.81,0,0,1,1-4.87,28.48,28.48,0,0,1,4.52-9.33,29.91,29.91,0,0,1,3.77-4.23c.72-.67,1.47-1.33,2.22-2a9.64,9.64,0,0,0,2-2.07,10,10,0,0,1-2.1,2c-.79.64-1.57,1.28-2.33,1.94a31.41,31.41,0,0,0-4,4.18,29.76,29.76,0,0,0-5,9.33,37.67,37.67,0,0,0-1.28,4.92c-.21,1.67-.3,3.33-.4,5-.18,3.32-.33,6.64-.43,10L221.45,422l-.14,7.74-13.88-5.2,13.85,7V432a86.69,86.69,0,0,1-.53,9.85c-.68,6.48-1.69,13-2.75,19.42l-5.81-1.87-1.11,1.69,6.66,1.75-3,18.49c-.17,1.1-.36,2.19-.53,3.29l-5.4-2.27,5.18,3.76c0,.06,0,.12,0,.18-.21,1.69-.33,3.37-.43,5.05-.18,3.36-.17,6.71-.11,10.06.15,6.7.58,13.36,1.24,20.06l7.67-.23c-1-6.57-1.72-13.2-2.18-19.8-.22-3.3-.39-6.6-.37-9.87,0-1.64.05-3.27.18-4.88s.36-3.29.54-4.93l2.14-18.5c1.47-.12,2.92-.29,4.35-.53a20.6,20.6,0,0,0,6.23-1.91,19.08,19.08,0,0,0,4.19-3.41,30.43,30.43,0,0,0,3.08-3.82A33.67,33.67,0,0,1,236.91,457.2Z"/></g><g class="cls-5"><path class="cls-6" d="M224.69,438.72A24.66,24.66,0,0,1,219.5,443a25,25,0,0,1-7.33,2.35,48.66,48.66,0,0,1-5.34.69h0a202.05,202.05,0,0,0,.07-25.4,113.1,113.1,0,0,0-1.38-12.75l-.13-.94.23-.27-.28-.08-1.62-11.31L200.82,375l15.56-12.18-16,9.26-.29-2c-.56-4.21-1-8.42-1.5-12.62-.21-2.1-.44-4.22-.51-6.3a46,46,0,0,1,.61-6.26,34.7,34.7,0,0,1,4.4-12.24,35.82,35.82,0,0,1,4.18-5.7c.82-.91,1.67-1.81,2.54-2.71a11.54,11.54,0,0,0,2.25-2.81,12,12,0,0,1-2.38,2.76c-.91.88-1.81,1.76-2.67,2.66a37.59,37.59,0,0,0-4.49,5.66,36.12,36.12,0,0,0-5,12.28,46.81,46.81,0,0,0-.92,6.36c0,2.14.1,4.24.21,6.36.25,4.23.53,8.45.88,12.67L200,395.49l.93,9.83L182.62,400l18.58,7.69,0,.5A110.44,110.44,0,0,1,202,420.7c.07,8.28-.29,16.58-.71,24.88l-7.63-1.86L192.48,446l8.7,1.62L200,471.32c-.06,1.41-.14,2.81-.2,4.22l-7.18-2.39,7.11,4.3c0,.08,0,.15,0,.23,0,2.16.06,4.31.18,6.45.25,4.28.74,8.53,1.3,12.77,1.14,8.48,2.65,16.89,4.44,25.34l9.7-1c-2.16-8.25-4.07-16.6-5.59-24.92-.75-4.16-1.44-8.33-1.88-12.49-.21-2.08-.4-4.15-.47-6.21a24.41,24.41,0,0,1,.46-6.31V447.68c1.43-.28,3.24-.63,5-1.07a25.23,25.23,0,0,0,7.63-3,22.84,22.84,0,0,0,4.83-4.7,36.51,36.51,0,0,0,3.36-5.12A40.28,40.28,0,0,1,224.69,438.72Z"/><path class="cls-6" d="M186.46,399.56l.42-.62c1.9-2.78-.09-6.05-4.41-7.27l-.42.62C180.15,395.07,182.14,398.34,186.46,399.56Z"/><path class="cls-6" d="M172.71,406.34l1,.14c4.62.64,9.21-1.27,10.21-4.23h0l-1-.14C178.3,401.46,173.71,403.37,172.71,406.34Z"/><path class="cls-6" d="M222.51,437.57l1,.18c1.27-2.92-1.41-6-6-6.8l-1-.18C215.28,433.69,218,436.75,222.51,437.57Z"/><path class="cls-6" d="M228.71,440.44l-3.25.45h0c.73,2.18,4.11,3.58,7.51,3.11l3.25-.45C235.49,441.37,232.11,440,228.71,440.44Z"/><path class="cls-6" d="M191.16,472.57V472c0-2.08-2.64-3.77-5.87-3.77v.61C185.29,470.87,187.93,472.57,191.16,472.57Z"/><path class="cls-6" d="M184.36,478.36l1,.07c3.32.25,6.36-1.28,6.75-3.41l-1-.07C187.79,474.69,184.75,476.23,184.36,478.36Z"/></g><g class="cls-9"><path class="cls-6" d="M584.76,404.21a35.75,35.75,0,0,1-7.52,6.21,36.25,36.25,0,0,1-10.63,3.41,74.81,74.81,0,0,1-7.45,1v0A363.65,363.65,0,0,0,559,378a164,164,0,0,0-2-18.48l-.19-1.36.33-.39-.4-.12-2.34-16.4-4.2-29.39,22.55-17.66-23.15,13.43-.42-2.93c-.81-6.1-1.52-12.2-2.17-18.3-.31-3-.64-6.11-.74-9.13a66.69,66.69,0,0,1,.88-9.08,50.3,50.3,0,0,1,6.38-17.74,51.92,51.92,0,0,1,6.06-8.27c1.19-1.32,2.42-2.63,3.68-3.93a16.73,16.73,0,0,0,3.26-4.07,17.38,17.38,0,0,1-3.45,4c-1.32,1.27-2.62,2.56-3.88,3.86a54.5,54.5,0,0,0-6.5,8.2A52.36,52.36,0,0,0,545.34,268a67.86,67.86,0,0,0-1.34,9.22c0,3.1.14,6.15.3,9.22.36,6.13.77,12.24,1.28,18.36l3.45,36.7,1.34,14.26L523.77,348l26.93,11.15.07.72a160.1,160.1,0,0,1,1.08,18.19c.1,12-.42,24-1,36.07l-11.06-2.69-1.69,3.25,12.61,2.35-1.76,34.4c-.09,2-.2,4.08-.29,6.12l-10.4-3.47,10.3,6.23c0,.11,0,.22,0,.33,0,3.14.09,6.25.26,9.35.36,6.2,1.07,12.36,1.88,18.51,1.66,12.3,3.84,24.48,6.44,36.73l14.06-1.42c-3.13-12-5.89-24.06-8.11-36.12-1.09-6-2.08-12.08-2.73-18.1-.31-3-.58-6-.69-9a88.38,88.38,0,0,0-.46-9.14V417.2a74.82,74.82,0,0,0,8.41-1.55,36.58,36.58,0,0,0,11.07-4.32,33.11,33.11,0,0,0,7-6.81,52.93,52.93,0,0,0,4.87-7.43A58.4,58.4,0,0,1,584.76,404.21Z"/><path class="cls-6" d="M529.35,347.45l.61-.9c2.75-4-.13-8.78-6.4-10.55l-.61.9C520.19,340.94,523.07,345.68,529.35,347.45Z"/><path class="cls-6" d="M509.41,357.27l1.49.21c6.7.93,13.36-1.83,14.8-6.14h0l-1.49-.21C517.51,350.21,510.86,353,509.41,357.27Z"/><path class="cls-6" d="M581.6,402.55l1.47.26c1.85-4.24-2-8.68-8.64-9.86l-1.47-.26C571.11,396.93,575,401.36,581.6,402.55Z"/><path class="cls-6" d="M590.59,406.71l-4.71.65h0c1.06,3.17,6,5.2,10.89,4.51l4.71-.65C600.42,408.06,595.52,406,590.59,406.71Z"/><path class="cls-6" d="M536.65,453.4v-.91c0-3.11-4-5.66-8.81-5.66v.91C527.84,450.85,531.81,453.4,536.65,453.4Z"/><path class="cls-6" d="M526.29,461.68l1.4.11c4.81.37,9.21-1.86,9.79-4.95l-1.4-.11C531.27,456.37,526.87,458.59,526.29,461.68Z"/></g><path class="cls-6" d="M99.42,408.5a35.75,35.75,0,0,1-7.52,6.21,36.25,36.25,0,0,1-10.63,3.41,73.11,73.11,0,0,1-7.55,1v0a335.71,335.71,0,0,0-.1-36.83,164,164,0,0,0-2-18.48l-.19-1.36.33-.39-.4-.12L69,345.53l-4.2-29.39,22.55-17.66L64.22,311.92,63.8,309c-.81-6.1-1.52-12.2-2.17-18.3-.31-3-.64-6.11-.74-9.13a66.69,66.69,0,0,1,.88-9.08,50.3,50.3,0,0,1,6.38-17.74,51.92,51.92,0,0,1,6.06-8.27c1.19-1.32,2.42-2.63,3.68-3.93a16.73,16.73,0,0,0,3.26-4.07,17.38,17.38,0,0,1-3.45,4c-1.32,1.27-2.62,2.56-3.88,3.86a54.5,54.5,0,0,0-6.5,8.2A52.36,52.36,0,0,0,60,272.33a67.86,67.86,0,0,0-1.34,9.22c0,3.1.14,6.15.3,9.22.36,6.13.77,12.24,1.28,18.36l3.45,36.7L65,360.09l-26.61-7.77,26.93,11.15.07.72a160.1,160.1,0,0,1,1.08,18.19c.1,12-.42,24-1,36.07l-11.06-2.69L52.72,419l12.61,2.35-1.76,34.4c-.09,2-.2,4.08-.29,6.12l-10.4-3.47,10.3,6.23c0,.11,0,.22,0,.33,0,3.14.09,6.25.26,9.35.36,6.2,1.07,12.36,1.88,18.51,1.66,12.3,3.84,24.48,6.44,36.73l14.06-1.42c-3.13-12-5.89-24.06-8.11-36.12C76.6,486,75.61,480,75,473.93c-.31-3-.58-6-.69-9a50.47,50.47,0,0,1,.42-9.14v-34.3c2.32-.41,4.94-.91,7.53-1.55a36.58,36.58,0,0,0,11.07-4.32,33.11,33.11,0,0,0,7-6.81,52.93,52.93,0,0,0,4.87-7.43A58.4,58.4,0,0,1,99.42,408.5Z"/><path class="cls-6" d="M44,351.74l.61-.9c2.75-4-.13-8.78-6.4-10.55l-.61.9C34.85,345.22,37.73,350,44,351.74Z"/><path class="cls-6" d="M24.07,361.56l1.49.21c6.7.93,13.36-1.83,14.8-6.14h0l-1.49-.21C32.17,354.49,25.51,357.25,24.07,361.56Z"/><path class="cls-6" d="M96.26,406.84l1.47.26c1.85-4.24-2-8.68-8.64-9.86L87.62,397C85.77,401.21,89.66,405.65,96.26,406.84Z"/><path class="cls-6" d="M105.25,411l-4.71.65h0c1.06,3.17,6,5.2,10.89,4.51l4.71-.65C115.07,412.35,110.18,410.31,105.25,411Z"/><path class="cls-6" d="M51.21,457.69v-.91c0-3.11-4-5.66-8.81-5.66V452C42.4,455.14,46.36,457.69,51.21,457.69Z"/><path class="cls-6" d="M41,466l1.4.11c4.81.37,9.21-1.86,9.79-4.95l-1.4-.11C45.93,460.65,41.53,462.88,41,466Z"/><g class="cls-5"><path class="cls-6" d="M568.4,391.44a34.92,34.92,0,0,0,7,6.74,30.25,30.25,0,0,0,9.85,3.7c2.09.46,4.25.81,6.24,1.09v0c.15-13.3.2-26.61.84-39.95.33-6.66.87-13.37,1.85-20l.18-1.48-.3-.42.37-.13,2.17-17.79,3.89-31.88-20.89-19.15L601,286.68l.39-3.18q1.12-9.92,2-19.85c.28-3.3.59-6.63.69-9.9a84.35,84.35,0,0,0-.82-9.85,60.83,60.83,0,0,0-5.91-19.24,56.82,56.82,0,0,0-5.61-9c-1.1-1.44-2.24-2.85-3.41-4.26a18,18,0,0,1-3-4.42,18.37,18.37,0,0,0,3.2,4.34c1.22,1.38,2.43,2.77,3.59,4.19a58.66,58.66,0,0,1,6,8.9,62.55,62.55,0,0,1,6.78,19.32,85.43,85.43,0,0,1,1.24,10c0,3.37-.13,6.67-.28,10-.33,6.64-.71,13.28-1.19,19.92l-3.2,39.81-1.24,15.46,24.65-8.43L600,342.6l-.06.78c-.69,6.55-.95,13.11-1,19.73-.09,13,.39,26.07,1,39.13l10.25-2.92,1.56,3.53L600,405.39l1.63,37.32c.08,2.22.19,4.42.27,6.64l9.64-3.76L602,452.35c0,.12,0,.24,0,.36,0,3.4-.08,6.77-.24,10.14-.34,6.73-1,13.41-1.74,20.07-1.54,13.34-3.55,26.56-6,39.84l-13-1.54c2.9-13,5.46-26.09,7.51-39.18,1-6.55,1.93-13.1,2.52-19.63.29-3.26.54-6.53.64-9.77a53.63,53.63,0,0,1,.75-9.92V405.53a55.28,55.28,0,0,1-8.12-1.68,31.16,31.16,0,0,1-10.25-4.68,33.62,33.62,0,0,1-6.48-7.39,59.18,59.18,0,0,1-4.51-8.06A62.62,62.62,0,0,0,568.4,391.44Z"/></g><g class="cls-5"><path class="cls-6" d="M763.68,390.5a34.92,34.92,0,0,0,7,6.74,30.25,30.25,0,0,0,9.85,3.7c2.09.46,4.25.81,5.73,1.09v0c.66-13.3.71-26.61,1.36-39.95.33-6.66.87-13.37,1.85-20l.18-1.48-.3-.42.37-.13,2.17-17.79,3.89-31.88-20.89-19.15,21.45,14.57.39-3.18q1.12-9.92,2-19.85c.28-3.3.59-6.63.69-9.9a84.35,84.35,0,0,0-.82-9.85,60.83,60.83,0,0,0-5.91-19.24,56.82,56.82,0,0,0-5.61-9c-1.1-1.44-2.24-2.85-3.41-4.26a18,18,0,0,1-3-4.42,18.37,18.37,0,0,0,3.2,4.34c1.22,1.38,2.43,2.77,3.59,4.19a58.66,58.66,0,0,1,6,8.9,62.55,62.55,0,0,1,6.78,19.32,85.43,85.43,0,0,1,1.24,10c0,3.37-.13,6.67-.28,10-.33,6.64-.71,13.28-1.19,19.92l-3.2,39.81L795.53,338l24.65-8.43-24.95,12.09-.06.78c-.69,6.55-.95,13.11-1,19.73-.09,13,.39,26.07,1,39.13l10.25-2.92,1.56,3.53-11.68,2.54,1.63,37.32c.08,2.22.19,4.42.27,6.64l9.64-3.76-9.55,6.76c0,.12,0,.24,0,.36,0,3.4-.08,6.77-.24,10.14-.34,6.73-1,13.41-1.74,20.07-1.54,13.34-3.55,26.56-6,39.84l-13-1.54c2.9-13,5.46-26.09,7.51-39.18,1-6.55,1.93-13.1,2.52-19.63.29-3.26.54-6.53.64-9.77s0-6.61.23-9.92V404.59a64.65,64.65,0,0,1-7.6-1.68,31.16,31.16,0,0,1-10.25-4.68,33.62,33.62,0,0,1-6.48-7.39,59.18,59.18,0,0,1-4.51-8.06A62.62,62.62,0,0,0,763.68,390.5Z"/></g><g class="cls-7"><path class="cls-6" d="M789.14,445.75a33.33,33.33,0,0,1-7,4,44.32,44.32,0,0,1-9.85,2.22c-2.09.28-4.25.49-6.64.65h0a212.93,212.93,0,0,0-.44-23.95,76.23,76.23,0,0,0-1.85-12l-.18-.89.3-.25-.37-.08L761,404.81l-3.89-19.11L778,374.22l-21.45,8.73-.39-1.9c-.75-4-1.41-7.93-2-11.9-.28-2-.59-4-.69-5.94a30.91,30.91,0,0,1,.82-5.9,27.23,27.23,0,0,1,5.91-11.53,37.55,37.55,0,0,1,5.61-5.38c1.1-.86,2.24-1.71,3.41-2.56a12.65,12.65,0,0,0,3-2.65,13.67,13.67,0,0,1-3.2,2.6c-1.22.83-2.43,1.66-3.59,2.51a41.05,41.05,0,0,0-6,5.33,29.5,29.5,0,0,0-6.78,11.58,32,32,0,0,0-1.24,6c0,2,.13,4,.28,6,.33,4,.71,8,1.19,11.94L756,405l1.24,9.27-24.65-5.05,24.95,7.25.06.47a73.53,73.53,0,0,1,1,11.83c.09,7.8-.39,15.63-1,23.46l-10.25-1.75-1.56,2.12,11.68,1.53-1.63,22.37c-.08,1.33-.19,2.65-.27,4L746,478.21l9.55,4.05c0,.07,0,.14,0,.22,0,2,.08,4.06.24,6.08a118.71,118.71,0,0,0,1.74,12,235.82,235.82,0,0,0,6,23.89l13-.92A243.64,243.64,0,0,1,769,500.07a119.81,119.81,0,0,1-2.52-11.77c-.29-2-.54-3.91-.64-5.85a13.14,13.14,0,0,1,.81-5.94V454.2c1.73-.27,4.16-.59,6.56-1a43.33,43.33,0,0,0,10.25-2.81,28.47,28.47,0,0,0,6.48-4.43,36.18,36.18,0,0,0,4.51-4.83A44.41,44.41,0,0,1,789.14,445.75Z"/></g><g class="cls-7"><path class="cls-6" d="M972,438.15a33.33,33.33,0,0,1-7,4,44.32,44.32,0,0,1-9.85,2.22c-2.09.28-4.25.49-6.48.65h0c.09-8,0-16-.61-23.95a76.23,76.23,0,0,0-1.85-12l-.18-.89.3-.25-.37-.08-2.17-10.66-3.89-19.11,20.89-11.48-21.45,8.73-.39-1.9c-.75-4-1.41-7.93-2-11.9-.28-2-.59-4-.69-5.94a30.91,30.91,0,0,1,.82-5.9A27.23,27.23,0,0,1,943,338.16a37.55,37.55,0,0,1,5.61-5.38c1.1-.86,2.24-1.71,3.41-2.56a12.65,12.65,0,0,0,3-2.65,13.67,13.67,0,0,1-3.2,2.6c-1.22.83-2.43,1.66-3.59,2.51a41.05,41.05,0,0,0-6,5.33,29.5,29.5,0,0,0-6.78,11.58,32,32,0,0,0-1.24,6c0,2,.13,4,.28,6,.33,4,.71,8,1.19,11.94l3.2,23.86,1.24,9.27-24.65-5.05,24.95,7.25.06.47a73.53,73.53,0,0,1,1,11.83c.09,7.8-.39,15.63-1,23.46l-10.25-1.75L928.73,445l11.68,1.53-1.63,22.37c-.08,1.33-.19,2.65-.27,4l-9.64-2.26,9.55,4.05c0,.07,0,.14,0,.22,0,2,.08,4.06.24,6.08a118.71,118.71,0,0,0,1.74,12,235.82,235.82,0,0,0,6,23.89l13-.92a243.64,243.64,0,0,1-7.51-23.49,119.81,119.81,0,0,1-2.52-11.77c-.29-2-.54-3.91-.64-5.85a11.34,11.34,0,0,1,1-5.94v-22.3c1.56-.27,4-.59,6.39-1a43.33,43.33,0,0,0,10.25-2.81,28.47,28.47,0,0,0,6.48-4.43,36.18,36.18,0,0,0,4.51-4.83A44.41,44.41,0,0,1,972,438.15Z"/></g><path class="cls-6" d="M1034.13,387a39.94,39.94,0,0,1-8.41,6.94,40.5,40.5,0,0,1-11.88,3.81,82.5,82.5,0,0,1-8.38,1.12v0a388.47,388.47,0,0,0-.16-41.14,183.18,183.18,0,0,0-2.23-20.65l-.22-1.52.37-.43-.45-.13-2.62-18.32-4.69-32.83,25.19-19.73-25.87,15-.47-3.27c-.9-6.81-1.7-13.63-2.42-20.45-.34-3.4-.71-6.83-.83-10.2a74.51,74.51,0,0,1,1-10.15,56.19,56.19,0,0,1,7.12-19.82,58,58,0,0,1,6.77-9.24c1.32-1.48,2.71-2.94,4.11-4.39s2.91-2.9,3.64-4.55a19.42,19.42,0,0,1-3.85,4.47c-1.47,1.42-2.93,2.86-4.33,4.31a60.89,60.89,0,0,0-7.26,9.16,58.5,58.5,0,0,0-8.17,19.9,75.81,75.81,0,0,0-1.5,10.3c0,3.47.16,6.88.34,10.3.4,6.84.86,13.68,1.43,20.51l3.86,41,1.5,15.93L966,324.21l30.09,12.46.08.81a178.87,178.87,0,0,1,1.2,20.32c.11,13.41-.47,26.85-1.15,40.3l-12.36-3-1.89,3.64L996,401.34l-2,38.44c-.09,2.28-.23,4.55-.33,6.84l-11.62-3.87,11.51,7c0,.13,0,.25,0,.37,0,3.5.1,7,.29,10.45.41,6.93,1.2,13.81,2.1,20.67,1.85,13.74,4.28,27.35,7.19,41l15.71-1.59c-3.5-13.36-6.58-26.88-9.06-40.35-1.22-6.74-2.33-13.49-3-20.22-.35-3.36-.65-6.72-.77-10.06a62.64,62.64,0,0,1,.4-10.21V401.48c2.66-.46,5.58-1,8.48-1.73,4.45-1.11,8.88-2.54,12.36-4.82a37,37,0,0,0,7.82-7.61,59.13,59.13,0,0,0,5.44-8.3A65.24,65.24,0,0,1,1034.13,387Z"/><path class="cls-6" d="M972.21,323.55l.68-1c3.08-4.5-.14-9.8-7.15-11.78l-.68,1C962,316.28,965.2,321.58,972.21,323.55Z"/><path class="cls-6" d="M949.94,334.53l1.67.23c7.48,1,14.92-2,16.53-6.86h0l-1.67-.23C959,326.63,951.55,329.72,949.94,334.53Z"/><path class="cls-6" d="M1030.59,385.11l1.64.3c2.06-4.74-2.28-9.7-9.65-11l-1.64-.3C1018.88,378.83,1023.22,383.79,1030.59,385.11Z"/><path class="cls-6" d="M1040.64,389.76l-5.26.73h0c1.19,3.54,6.66,5.81,12.16,5l5.26-.73C1051.61,391.27,1046.14,389,1040.64,389.76Z"/><path class="cls-6" d="M980,441.91v-1c0-3.46-4.4-6.29-9.79-6.29v1C970.23,439.08,974.63,441.91,980,441.91Z"/><path class="cls-6" d="M968.8,451.18l1.57.12c5.37.41,10.29-2.08,10.94-5.53l-1.57-.12C974.36,445.24,969.44,447.73,968.8,451.18Z"/></g><path class="cls-10" d="M23,537a38.65,38.65,0,0,1-7.31,12.37c3.91,5.72,6.07,11.87,6.07,17.87v63.17c3.14-.25,6.28-.4,9.41-.4,52.33-.09,104.34-4.41,156.67-4.51a114.85,114.85,0,0,1,36.59,5.63c27.6-2.36,55.2-4.55,83.09-5.63C370.82,623,434.42,624,497.78,624H692.71a114.64,114.64,0,0,1,38.15,6.21c115.45-5.64,231.52-6.2,347.31-6.21,1.22,0,2.43,0,3.63.06V537Z"/><path class="cls-11" d="M28.47,601.88c-2.25.28-4.47.52-6.67.74v27.31c58.74-4.84,90.18-24.56,114.6-42.73,37.48-27.89,123.27-36.89,123.27-36.89C157.54,550.86,110.91,591.6,28.47,601.88Z"/><path class="cls-11" d="M485.54,537.29s-119.09,11.36-125.92,41.84c-4.88,21.78-2.5,38-91.44,45.5a379,379,0,0,0-44.27,6.49l.5.16c27.61-2.35,55.21-4.54,83.12-5.63q17.21-.67,34.45-1c20.2-7.74,37.92-21.63,46.13-52.11,9-33.5,139.41-30.09,139.41-30.09Z"/><path id="_Path_" data-name="&lt;Path&gt;" class="cls-12" d="M103.29,533.34s7.42,3.3,3,20.83c-3.75,14.85-24,27.87-73.45,35.12,0,0,58.46,3,124.42-43.19Z"/><path class="cls-12" d="M936.74,537.14s-3,55.78-274.32,58.72c-81.69.88-143.23,12.42-189.39,28.1q12.4,0,24.78,0H610.52c22.38-7.66,51.15-13.2,87.88-15.67C950.23,591.45,936.74,537.14,936.74,537.14Z"/><path id="_Path_2" data-name="&lt;Path&gt;" class="cls-11" d="M566.49,537.29s-66,23.49-72,46.24S404.59,606.28,386.6,621.7a738.08,738.08,0,0,1,73.45-13.21c38.16-4.86,43.47-4.65,55-26.3,4.54-8.55-12-28,106.93-20.85C699.3,566,762.86,541,762.86,541l-51-3.67s-32.83,23.65-72.64,19.82S566.49,537.29,566.49,537.29Z"/><path class="cls-11" d="M812.25,626.74c43.33-16.62,97.84-35.47,149.74-47.66,40.61-9.53,82.72-7.33,119.8-.68V549c-3.59-.08-7.38-.1-11.3,0h-.13a353.07,353.07,0,0,0-54.67,5.95c-39,7.07-88.16,21.2-149.63,46.51-23.64,9.74-45.47,18.23-65.62,25.66Z"/><path class="cls-12" d="M930.47,624.81c13.75-3.5,28.7-7.47,45-11.91,35.92-9.8,73.68-7.61,106.33-1.32V589.81c-38.48-8-83.62-9.64-122.81,9.86a451.28,451.28,0,0,1-62.2,25.58Q913.63,625,930.47,624.81Z"/><path class="cls-12" d="M233.71,590.69c-29.43,2.7-72.33,18.36-114.32,36.79q13.09-.54,26.19-1c33.41-12.16,65.66-22,89.63-25.34,79.89-11.07,106.43-47,106.43-47S311.65,583.53,233.71,590.69Z"/><path class="cls-13" d="M21.8,575.6v6.34a24.36,24.36,0,0,0,14-2.28C43.17,576.23,30.78,574.88,21.8,575.6Z"/><path id="_Path_3" data-name="&lt;Path&gt;" class="cls-13" d="M183.24,585s8-12.82,29-9.59,14,6.78,14,6.78S194.23,590.38,183.24,585Z"/><path id="_Path_4" data-name="&lt;Path&gt;" class="cls-13" d="M601.45,574.13s-12.12,8.49,0,8.77S616,571.62,601.45,574.13Z"/><path id="_Path_5" data-name="&lt;Path&gt;" class="cls-13" d="M531.83,576.43s7.06,4.59,16.87,0S524.77,571.84,531.83,576.43Z"/><path id="_Path_6" data-name="&lt;Path&gt;" class="cls-13" d="M554.93,580.59s6.47-10.37,23.44-7.76,11.32,5.48,11.32,5.48S563.82,584.94,554.93,580.59Z"/><path id="_Path_7" data-name="&lt;Path&gt;" class="cls-13" d="M220.8,565.91h0c-3.23,2.26-1.93,5.41,2.89,6.84,7.38,2.19,18.18,4.52,26.5,2.66,4.66-1,6.13-3.46,5.2-6.06C252.48,561.23,230.44,559.16,220.8,565.91Z"/><path class="cls-14" d="M702.44,624.52c2.2.16,4.37.38,6.49.65,1.28-.2,2.14-.84,1.86-1.52-.65-1.61-3.54-2.78-6.9-2.78l-1.53.9C700.89,622.64,701.14,623.79,702.44,624.52Z"/><path id="_Path_8" data-name="&lt;Path&gt;" class="cls-13" d="M585.93,579.44l-1.6.94c-2.44,1.44-.35,3.62,3.47,3.62h2.55c1.79,0,3.13-.8,2.79-1.66h0c-.68-1.69-3.7-2.9-7.21-2.9Z"/><path class="cls-15" d="M529.86,523.25c-35.56,0-69.66,0-105.23-3.39-25.2-2.72-47.45-7.45-74.1-4.75-72.64,6.78-140.82,7.45-212,8.14-38.06.48-77.64,2.33-115.5.65a30,30,0,0,1,.87,5.13c.52,6.69-2.89,13.94-8.56,20.37.64.9,1.21,1.81,1.76,2.72,29.28,1.25,59.56.42,89.38-.25,8.39-.18,16.74-.35,25-.46l17.42-.17c64.9-.66,127.83-1.73,194.52-8,26.69-2.72,48.9,2,74.1,4.73l.74.06c4,.4,8.1.73,12.11,1,31,2.31,61.11,2.31,92.37,2.31,3.24.06,6.51.11,9.75.14q39.16.6,78.08.44h0q35.61,0,71.12-.52,23.61-.27,47.16-.67c66.91-1,133.76-2.46,200.9-2.81h.27s2.43.15,3.66.15q68.21-.36,136.87.85h.13c3.76.53,11.07.77,11.07.77V521.15C896.41,516.09,714.4,526.4,529.86,523.25Z"/><path class="cls-16" d="M1070.73,549h-.13q-68.69-1.23-136.87-.85c-1.23,0-3.66-.15-3.66-.15h0c-67.14.35-134,1.77-200.9,2.81q-23.56.39-47.16.67-35.51.44-71.12.52h0q-39,.11-78.08-.44c-3.24,0-6.51-.08-9.75-.14-31.25,0-61.37,0-92.37-2.27-4-.29-8.06-.62-12.11-1l-.74-.06c-25.2-2.66-47.41-7.34-74.1-4.66-66.68,6.14-129.61,7.19-194.52,7.83l-17.42.17c-8.26.11-16.61.27-25,.45-29.82.66-60.1,1.47-89.38.24a31.75,31.75,0,0,1,3.09,6.74c27.52,1,55.87.32,83.83-.29,9.23-.21,18.4-.41,27.46-.51l5.8-.06h78.34s84.11-3.49,127.8-7.73c20.5-2.16,38.38.25,57,2.76,3.53.48,7.13,1,10.75,1.41,2.11.27,4.21.52,6.35.76,34.62,3.43,102.44,3.8,102.44,3.8H523s110.5.42,165.59,0h0c77.53-1.32,154.94-3.24,232.67-3.78,2.2,0,4.4,0,6.61,0q43.92-.31,88,.17c22,.25,65.87,1.38,65.87,1.38v-7S1074.49,549.53,1070.73,549Z"/><path class="cls-17" d="M975.83,510.34l2.46-6-5.31,6q-29.63-.32-59.24-.31l13.51-17.36L910.7,510h-2.36l-2.95-29-4.57,27.87-12.7-9.29L891.78,510c-63.87.26-127.6,1.56-191.28,3.33l-5.44-4.66,1.88,4.75q-57.62,1.6-115.17,3.56a754.16,754.16,0,0,1-99.3-4.36c-25.68-2.52-50.65-4.69-75.88-5.54l-3.47-.11-1,0-16.52-.26q-6.41,0-12.83.11c-17.55.48-35,.84-52.47,1.2l-4.44.08c-25.16.51-50.2,1-75.2,1.75l-21.83.72c-29.28,1.08-58.46,2.59-87.67,5-17.91,1.64-36.86,1.62-56.13,1L89.3,494.49,71.59,516.43l-.93-.29-3.22-46.4L62.87,514l-12.7-9.29,3.82,11c-11.76-.59-23.55-1.29-35.22-1.86a38.13,38.13,0,0,1,4.28,10.49c37.86,1.8,77.44-.18,115.5-.7,71.15-.74,139.33-1.46,212-8.74,26.65-2.9,48.9,2.18,74.1,5.1,35.56,3.64,69.66,3.64,105.23,3.64,184.54,3.38,366.56-7.69,551.94-2.26v-8.44Q1028.7,510.92,975.83,510.34Z"/><rect class="cls-1" x="19.8" width="1050" height="604"/></g></g></g></svg>