<?xml version="1.0" encoding="utf-8"?>
<!-- Generator: Adobe Illustrator 21.1.0, SVG Export Plug-In . SVG Version: 6.00 Build 0)  -->
<svg version="1.1" id="Layer_1" xmlns="http://www.w3.org/2000/svg" xmlns:xlink="http://www.w3.org/1999/xlink" x="0px" y="0px" width="174" 
	  style="enable-background:new 0 0 453.2 174;" xml:space="preserve">
<style type="text/css">
	.st0{clip-path:url(#SVGID_2_);}
	.st1{fill:#F9F9F9;stroke:#F9F9F9;stroke-width:0.25;stroke-miterlimit:10;}
	.st2{fill:#CE783F;}
	.st3{fill:#B4673E;}
	.st4{fill:#E49345;}
	.st5{fill:#9B5C3F;}
	.st6{fill:none;stroke:#2D2D2D;stroke-miterlimit:10;}
	.st7{fill:#82820F;}
	.st8{opacity:0.5;fill:#492E17;enable-background:new    ;}
	.st9{fill:url(#SVGID_3_);}
</style>
<title>groundbg</title>
<g>
	<defs>
		<rect id="SVGID_1_" x="0" y="-9.6" width="453.2" height="183.6"/>
	</defs>
	<clipPath id="SVGID_2_">
		<use xlink:href="#SVGID_1_"  style="overflow:visible;"/>
	</clipPath>
	<g class="st0">
		<path class="st1" d="M149.8-599.7l-0.7,0.3l-0.3-0.7c-0.1-0.1-0.2-0.2-0.3-0.1c0,0,0,0,0,0c-0.1,0.1-0.2,0.2-0.1,0.4l0.3,0.7
			l-0.7,0.3c-0.1,0.1-0.2,0.2-0.1,0.4c0.1,0.1,0.2,0.2,0.3,0.1c0,0,0,0,0,0l0.7-0.3l0.3,0.7c0.1,0.1,0.2,0.2,0.3,0.1c0,0,0,0,0,0
			c0.1,0,0.1-0.1,0.1-0.1c0-0.1,0-0.2,0-0.2l-0.3-0.7l0.7-0.3c0.1,0,0.1-0.1,0.1-0.1c0-0.1,0-0.2,0-0.2
			C150.1-599.7,149.9-599.7,149.8-599.7C149.8-599.7,149.8-599.7,149.8-599.7z"/>
		<polygon class="st2" points="465.3,87.7 465.3,76.2 401.8,76.2 303.5,76.2 240,76.2 204.6,76.2 44.8,76.2 38.9,76.2 -20.1,76.2 
			-39.2,76.2 -39.2,131 -39.2,161 -39.2,189.2 -25.1,189.2 -4.2,189.2 17.9,189.2 23.3,189.2 54.2,189.2 102.1,189.2 123.8,189.2 
			155.5,189.2 169.1,189.2 236.1,189.2 304.4,189.2 316.5,189.2 465.3,189.2 465.3,146.8 465.3,126.1 465.3,115.7 465.3,94.7 
			465.3,88.1 		"/>
		<path id="_Path_" class="st3" d="M-36.6,118.1c0,0,20.4,29.3,52.5,19.5s50.2-48.5,89.9-49c0,0-33.4,8.6-48,35.1
			s-35.6,56.5-91.6,33.5L-36.6,118.1z"/>
		<path id="_Path_2" class="st3" d="M204.6,76.2c0,0-52.1,10.8-55,39.8c-2.1,20.7-1.1,36.1-40,43.3c-41.6,7.6-77.3,52.3-77.3,52.3
			l61.6-2.5c0,0,3.9-17.7,17-31.7c15.4-16.4,43.3-4.2,51.1-67.7c3.9-31.8,60.9-28.6,60.9-28.6L204.6,76.2z"/>
		<path id="_Path_3" class="st4" d="M37.5,72.4c0,0,3.2,3.1,1.3,19.8c-1.6,14.1-10.5,26.5-32.1,33.4c0,0,25.6,2.9,54.4-41.1
			L37.5,72.4z"/>
		<path id="_Path_4" class="st4" d="M141.7,249.2c0,0,21.6-114.4,140.2-117.2s119.9-55.8,119.9-55.8s5.9,51.6-104.2,67.7
			s-57,169.6-57,169.6L141.7,249.2z"/>
		<path id="_Path_5" class="st3" d="M240,76.2c0,0-28.8,22.3-31.4,44s-39.4,21.6-47.2,36.2c10.3-5.2,21-9.4,32.1-12.6
			c16.7-4.6,19-4.4,24-25c2-8.1-5.2-26.6,46.7-19.8c33.8,4.4,61.6-19.4,61.6-19.4l-22.3-3.5c0,0-14.4,22.5-31.8,18.8
			S240,76.2,240,76.2z"/>
		<path class="st3" d="M465.3,87.7c-1.6-0.1-3.3-0.1-4.9,0h-0.1c-8.2,0.6-16.3,2.5-23.9,5.7c-17.1,6.7-38.5,20.2-65.4,44.2
			c-27.4,24.6-49.3,40.9-66.6,51.6c-46.9,29.1-60.4,17.1-60.8,16.8l7.5,15.3l59.6-26.5c0,0,2.1-2.1,5.8-5.6
			c15.1-14.4,57.5-53,96.5-72.9c17.8-9.1,36.2-7,52.4-0.7L465.3,87.7L465.3,87.7z"/>
		<path class="st4" d="M465.3,126.1v20.7c-14.3-6-30.8-8.1-46.5,1.2c-40,23.7-61.8,33.5-72.7,26.5c0,0,26.2,3.5,65.5-39.1
			C428.8,117,448.5,118.5,465.3,126.1z"/>
		<path id="_Path_6" class="st4" d="M-14.9,226.9c0,0,75.4-93.1,109.4-99.9s47.2-34.7,47.2-34.7s-11.6,34.2-46.5,44.7
			S-14.9,226.9-14.9,226.9z"/>
		<path id="_Path_7" class="st5" d="M-30.7,106.9c0,0,17-10.5,24.2,0s-9.8,9.8-17.7,9.4S-30.7,106.9-30.7,106.9z"/>
		<path id="_Path_8" class="st5" d="M284.9,166.6c0,0,13.2-8.1,18.8,0s-7.6,7.6-13.7,7.3S284.9,166.6,284.9,166.6z"/>
		<path id="_Path_9" class="st5" d="M-1.2,116.5c0,0,3.8,5.4,9.1,0S-5,111.1-1.2,116.5z"/>
		<path id="_Path_10" class="st5" d="M72.4,121.6c0,0,3.5-12.2,12.7-9.1s6.1,6.4,6.1,6.4S77.2,126.7,72.4,121.6z"/>
		<path id="_Path_11" class="st5" d="M255.2,111.2c0,0-5.3,8.1,0,8.3S261.6,108.9,255.2,111.2z"/>
		<path id="_Path_12" class="st5" d="M224.8,113.4c0,0,3.1,4.4,7.4,0S221.7,109.1,224.8,113.4z"/>
		<path id="_Path_13" class="st5" d="M234.9,117.4c0,0,2.8-9.9,10.2-7.4s4.9,5.2,4.9,5.2S238.8,121.5,234.9,117.4z"/>
		<path id="_Path_14" class="st5" d="M88.9,103.4L88.9,103.4c-1.4,2.1-0.9,5,1.3,6.5c3.2,2.1,7.9,4.3,11.6,2.5c2-1,2.7-3.3,2.3-5.8
			c-0.6-4.5-4.8-7.7-9.3-7C92.3,100,90.2,101.4,88.9,103.4z"/>
		<path id="_Path_15" class="st5" d="M261.8,174.2L261.8,174.2c-1.1,1.7-0.6,3.9,1,5c2.5,1.6,6.1,3.3,9,2c1.6-0.8,2.1-2.6,1.8-4.5
			c-0.4-3.5-3.6-6-7.1-5.5C264.5,171.5,262.8,172.6,261.8,174.2z"/>
		<path id="_Path_16" class="st6" d="M300,155.7l-0.7,0.9c-0.7,0.8-0.6,2.1,0.2,2.8c0.3,0.3,0.8,0.5,1.2,0.5h1.1
			c0.7,0,1.2-0.6,1.2-1.3c0-0.1,0-0.1,0-0.2l0,0C302.8,156.8,301.5,155.7,300,155.7L300,155.7z"/>
		<path id="_Path_17" class="st5" d="M248.5,116.6l-0.7,0.9c-0.7,0.9-0.6,2.2,0.3,3c0.3,0.3,0.8,0.4,1.2,0.5h1.1
			c0.7,0,1.3-0.6,1.2-1.3c0-0.1,0-0.2,0-0.2l0,0C251.4,117.8,250.1,116.6,248.5,116.6L248.5,116.6z"/>
		<path id="_Path_18" class="st5" d="M282.5,179.9l1-0.5c1-0.5,1.4-1.8,0.8-2.8c-0.2-0.4-0.5-0.6-0.8-0.8l-1-0.5
			c-0.6-0.3-1.3,0-1.6,0.5c0,0.1-0.1,0.2-0.1,0.3l0,0C280.5,177.7,281.1,179.2,282.5,179.9L282.5,179.9z"/>
		<path id="_Path_19" class="st5" d="M-27.2,193.2c0.7-0.5,5.5-15.4,15.7-11.4s6.8,11.4,6.8,11.4H-27.2z"/>
		<path id="_Path_20" class="st5" d="M269.3,163.4c0,0-1.7,4.4,1.4,5.8s4.9-2.9,4.9-2.9l-3.3-2.9H269.3z"/>
		<path id="_Path_21" class="st5" d="M120.5,194.8c1.8-1.2,9.6-21,17.5-20.8s16.2-2.7,19.7-0.3s3.1,3.8,3.7,7.5
			s-15.1,16.2-15.1,16.2L120.5,194.8z"/>
		<path id="_Path_22" class="st5" d="M404,168.5c0,0-6.1,8.8,0,9.1s15.3-8,15.3-8S416.7,156.4,404,168.5z"/>
		<path class="st7" d="M465.3,87.7V60.1c-84-5-166.5,5.2-250.1,2.1c-16.1,0-31.6,0-47.7-3.3c-11.4-2.7-21.5-7.3-33.6-4.7
			c-32.9,6.7-63.8,7.3-96.1,8c-24.2,0.7-49.7,4-72.5-3.3c-0.1,0-0.2,0-0.3,0c-0.2,0-0.3,0-0.3-0.1s0.1-0.4,0.4-0.8
			c0-0.1,0.1-0.1,0.1-0.2s0.2-0.3,0.2-0.5s0.2-0.4,0.2-0.6c0,0,0-0.1,0-0.1h-2.2c0.4,3.4-0.7,12.4-1.4,19.7c-0.5,4.8-0.7,8.8-0.3,10
			c0,0.1,0.1,0.2,0.2,0.3c0,0,0.1,0.1,0.1,0.1c0,0,0.1,0,0.1,0c19.3,6.2,40.6,4.8,61.3,3.8c3.8-0.2,7.6-0.3,11.3-0.4l7.9-0.2
			c29.4-0.7,57.9-1.7,88.2-7.8c12.1-2.7,22.2,2,33.6,4.7l0.3,0.1c1.8,0.4,3.7,0.7,5.5,1c14,2.3,27.7,2.3,41.9,2.3
			c1.5,0.1,3,0.1,4.4,0.1c11.8,0.4,23.6,0.5,35.4,0.4l0,0c10.8,0,21.5-0.2,32.2-0.5c7.1-0.2,14.3-0.4,21.4-0.7
			c30.3-1,60.6-2.4,91-2.8l0,0c0.5,0,1.1,0,1.7,0c20.6-0.2,41.3,0,62,1.2h0.1l5.1,0.3L465.3,87.7z"/>
		<path class="st8" d="M465.3,88.1v6.6c-10-0.7-20-1.1-30-1.3c-13.3-0.3-26.6-0.4-39.9-0.2c-1,0-2,0-3,0
			c-35.2,0.5-70.3,2.3-105.4,3.3l0,0c-25,0.7-49.9,0.9-75,0h-1.3c-15.7,0-30.7-0.1-46.4-3.3c-1-0.2-1.9-0.5-2.9-0.7
			c-1.6-0.4-3.3-0.9-4.9-1.3c-8.4-2.4-16.5-4.7-25.8-2.6c-19.1,3.7-38.5,6-57.9,6.8l0,0c-4.2,0.2-8.5,0.4-12.8,0.6l0,0
			c-7.5,0.3-15.1,0.4-22.7,0.6l0,0l-2.6,0.1c-4.1,0.1-8.3,0.3-12.5,0.5c-20.3,1-41.2,2.2-60.1-3.9c-0.7,0-0.7-2.9-0.3-7l0,0
			c0,0.1,0.1,0.2,0.2,0.3c0,0,0.1,0.1,0.1,0.1c0,0,0.1,0,0.1,0c19.2,6.2,40.5,4.9,61.2,3.9c3.8-0.2,7.6-0.3,11.3-0.4l7.9-0.2
			c29.4-0.7,57.9-1.7,88.2-7.8c12.1-2.7,22.2,2,33.6,4.7l0.3,0.1c1.8,0.4,3.7,0.7,5.5,1c14,2.3,27.7,2.3,41.9,2.3
			c1.5,0.1,3,0.1,4.4,0.1c11.8,0.4,23.6,0.5,35.4,0.4l0,0c10.8,0,21.5-0.2,32.2-0.5c7.1-0.2,14.3-0.4,21.4-0.7
			c30.3-1,60.6-2.4,91-2.8l0,0c0.5,0,1.1,0,1.7,0c20.6-0.2,41.3,0,62,1.2h0.1L465.3,88.1z"/>
		
			<linearGradient id="SVGID_3_" gradientUnits="userSpaceOnUse" x1="175.8365" y1="670.99" x2="175.8365" y2="728.28" gradientTransform="matrix(1 0 0 -1 39.18 746.73)">
			<stop  offset="0" style="stop-color:#BFA910"/>
			<stop  offset="1" style="stop-color:#CFA53D"/>
		</linearGradient>
		<path class="st9" d="M465.3,52.3v7.8c-84-5-166.5,5.2-250.1,2.1c-16.1,0-31.6,0-47.7-3.3c-11.4-2.7-21.5-7.3-33.6-4.7
			c-32.9,6.7-63.8,7.3-96.1,8c-24.2,0.7-49.7,4-72.5-3.3c-0.1,0-0.2,0-0.3,0c-0.2,0-0.3,0-0.3-0.1s0.1-0.4,0.4-0.8
			c0-0.1,0.1-0.1,0.1-0.2s0.2-0.3,0.2-0.5s0.2-0.4,0.2-0.6c0,0,0-0.1,0-0.1c0.4-1.4,0.6-2.9,0.4-4.4c10.8,0,22.2,1.6,33.5,2.7
			l-1.7-10.1l5.8,8.5l2.1-40.7l1.5,42.9h0.4l8-20.2L9.1,55.7c8.7,0.6,17.3,0.6,25.4-0.9c13.2-2.2,26.5-3.6,39.7-4.6l9.9-0.7
			c11.3-0.7,22.7-1.2,34.1-1.6l2-0.1c7.9-0.3,15.8-0.7,23.8-1.1c1.9-0.1,3.9-0.1,5.8-0.1l7.5,0.2h0.4l1.6,0.1
			c11.6,1,23,2.7,34.4,5.1c14.8,3.3,29.9,4.7,45,4c17.4-1.2,34.8-2.3,52.2-3.3l-0.8-4.4l2.5,4.3c28.9-1.6,57.7-2.8,86.7-3.1
			l-1.7-9.6l5.8,8.5l2.1-25.6l1.3,26.7h1.1l7.5-16l-6.1,16c8.9,0,17.9,0.1,26.8,0.3l2.4-5.5l-1.1,5.5
			C433.3,50.3,449.3,51.1,465.3,52.3z"/>
	</g>
</g>
</svg>
