<?xml version="1.0" encoding="utf-8"?>
<!-- Generator: Adobe Illustrator 21.1.0, SVG Export Plug-In . SVG Version: 6.00 Build 0)  -->
<svg version="1.1" id="Layer_1" xmlns="http://www.w3.org/2000/svg" xmlns:xlink="http://www.w3.org/1999/xlink" x="0px" y="0px"
	 viewBox="0 0 28.9 26.2" style="enable-background:new 0 0 28.9 26.2;" xml:space="preserve">
<style type="text/css">
	.st0{fill:#05527C;}
	.st1{fill:#097ECE;}
	.st2{fill:#008BF8;}
	.st3{opacity:0.14;fill:#061B28;enable-background:new    ;}
	.st4{fill:#FFFFFF;}
</style>
<title>home</title>
<g id="Layer_2">
	<g id="Layer_1-2">
		<polygon class="st0" points="28.3,23.1 28,23.6 26.8,25.3 13.6,24.4 11.9,24.3 9.6,24.2 0.2,23.6 0,6 0.2,5.4 1.7,0.8 13.6,3.1 
			15.1,3.4 26,5.6 27.6,8 27.9,8.6 		"/>
		<polygon class="st1" points="27.9,21.6 26.4,23.6 13.6,22.8 10.3,22.6 0.4,22 0.2,5.4 0.2,5 1.9,0 13.6,2.2 15.1,2.5 25.7,4.6 
			27.5,7.5 27.6,8 		"/>
		<polygon class="st2" points="1.1,20.4 0.9,5.5 2.2,1.7 25.4,6.2 26.8,8.4 27.1,20.7 26.2,22 		"/>
		<polygon class="st3" points="28.3,23.1 28,23.6 11.9,24.3 9.4,24.4 9.6,24.2 10.3,22.6 11.2,21 15.1,13.1 15.1,2.5 25.7,4.6 
			27.5,7.5 27.6,8 27.9,8.6 		"/>
		<polygon class="st4" points="20,11.6 14.3,7.6 8.5,11.6 8.5,11.6 8.5,19.3 12.2,19.3 12.2,14.1 16.4,14.1 16.4,19.3 20.1,19.3 
			20.1,11.6 		"/>
		<polygon class="st4" points="21.4,12 14.3,7 7.2,11.9 6.3,11.1 14.3,5.5 22.3,11.1 		"/>
	</g>
</g>
</svg>
