<svg xmlns="http://www.w3.org/2000/svg" xmlns:xlink="http://www.w3.org/1999/xlink" viewBox="0 0 1008.26 758.62"><defs><style>.cls-1{isolation:isolate;}.cls-2{fill:url(#linear-gradient);}.cls-3{opacity:0.26;}.cls-4{fill:#688c7f;}.cls-5{opacity:0.09;}.cls-6{fill:#ad5236;}.cls-7{opacity:0.1;}.cls-15,.cls-8{opacity:0.5;}.cls-9{fill:#ce783f;}.cls-10{fill:#b4673e;}.cls-11{fill:#e49345;}.cls-12{fill:#9b5c3f;}.cls-13,.cls-28,.cls-33{fill:none;}.cls-13{stroke:#2d2d2d;stroke-width:2.22px;}.cls-13,.cls-32,.cls-34{stroke-miterlimit:10;}.cls-14{fill:#82820f;}.cls-15{fill:#492e17;}.cls-16{fill:url(#linear-gradient-2);}.cls-17{opacity:0.81;}.cls-18{fill:#ffe7e1;}.cls-19{fill:url(#linear-gradient-3);}.cls-20{fill:url(#linear-gradient-4);}.cls-21,.cls-29,.cls-31{fill:#fff;}.cls-22{fill:url(#linear-gradient-5);}.cls-23{fill:url(#linear-gradient-6);}.cls-24{fill:url(#linear-gradient-7);}.cls-25{fill:url(#linear-gradient-8);}.cls-26{fill:url(#linear-gradient-9);}.cls-27{fill:url(#linear-gradient-10);}.cls-28,.cls-32,.cls-33,.cls-34{stroke:#f9f9f9;}.cls-28,.cls-33{stroke-linecap:round;stroke-linejoin:round;}.cls-28{stroke-width:0.86px;}.cls-29,.cls-31{opacity:0.24;}.cls-29,.cls-30{mix-blend-mode:soft-light;}.cls-32,.cls-34{fill:#f9f9f9;}.cls-32{stroke-width:0.43px;}.cls-33{stroke-width:0.87px;}.cls-34{stroke-width:0.43px;}.cls-35{fill:url(#linear-gradient-11);}.cls-36{fill:url(#linear-gradient-12);}.cls-37{fill:url(#linear-gradient-13);}.cls-38{fill:url(#linear-gradient-14);}.cls-39{fill:url(#linear-gradient-15);}.cls-40{fill:url(#linear-gradient-16);}.cls-41{fill:url(#linear-gradient-17);}.cls-42{fill:url(#linear-gradient-18);}</style><linearGradient id="linear-gradient" x1="487.33" y1="-62.58" x2="487.33" y2="506.76" gradientUnits="userSpaceOnUse"><stop offset="0" stop-color="#186b91"/><stop offset="0.2" stop-color="#5f9cb6"/><stop offset="0.38" stop-color="#93c1d2"/><stop offset="0.51" stop-color="#b4d7e3"/><stop offset="0.58" stop-color="#c0e0e9"/><stop offset="0.63" stop-color="#c2dfe2"/><stop offset="0.72" stop-color="#c9dccf"/><stop offset="0.81" stop-color="#d3d7af"/><stop offset="0.92" stop-color="#e1d184"/><stop offset="1" stop-color="#edcb60"/></linearGradient><linearGradient id="linear-gradient-2" x1="490.23" y1="531.02" x2="490.23" y2="471.93" gradientUnits="userSpaceOnUse"><stop offset="0" stop-color="#bfa910"/><stop offset="1" stop-color="#cfa53d"/></linearGradient><linearGradient id="linear-gradient-3" x1="752.82" y1="102.67" x2="779.06" y2="21.03" gradientUnits="userSpaceOnUse"><stop offset="0" stop-color="#edcb60"/><stop offset="0.08" stop-color="#e1d184"/><stop offset="0.19" stop-color="#d3d7af"/><stop offset="0.28" stop-color="#c9dccf"/><stop offset="0.37" stop-color="#c2dfe2"/><stop offset="0.42" stop-color="#c0e0e9"/><stop offset="0.49" stop-color="#b4d7e3"/><stop offset="0.62" stop-color="#93c1d2"/><stop offset="0.8" stop-color="#5f9cb6"/><stop offset="1" stop-color="#186b91"/></linearGradient><linearGradient id="linear-gradient-4" x1="868.72" y1="195.62" x2="868.77" y2="195.47" xlink:href="#linear-gradient-3"/><linearGradient id="linear-gradient-5" x1="837.45" y1="219.15" x2="857.54" y2="156.63" xlink:href="#linear-gradient"/><linearGradient id="linear-gradient-6" x1="930.14" y1="321.91" x2="930.17" y2="321.84" gradientUnits="userSpaceOnUse"><stop offset="0" stop-color="#a085a5"/><stop offset="0.24" stop-color="#ac6d84" stop-opacity="0.67"/><stop offset="0.58" stop-color="#be4c55" stop-opacity="0.2"/><stop offset="0.62" stop-color="#c05057" stop-opacity="0.23"/><stop offset="0.68" stop-color="#c65b5c" stop-opacity="0.3"/><stop offset="0.75" stop-color="#cf6e64" stop-opacity="0.41"/><stop offset="0.83" stop-color="#dc8770" stop-opacity="0.57"/><stop offset="0.92" stop-color="#eda87e" stop-opacity="0.78"/><stop offset="1" stop-color="#ffcb8e"/></linearGradient><linearGradient id="linear-gradient-7" x1="210.34" y1="143.27" x2="227.99" y2="88.35" xlink:href="#linear-gradient"/><linearGradient id="linear-gradient-8" x1="293.8" y1="249.99" x2="293.85" y2="249.84" xlink:href="#linear-gradient"/><linearGradient id="linear-gradient-9" x1="504.96" y1="201.21" x2="537.1" y2="101.22" xlink:href="#linear-gradient-6"/><linearGradient id="linear-gradient-10" x1="643.15" y1="284.69" x2="643.19" y2="284.56" xlink:href="#linear-gradient-6"/><linearGradient id="linear-gradient-11" x1="342.66" y1="92.16" x2="371.97" y2="0.97" xlink:href="#linear-gradient"/><linearGradient id="linear-gradient-12" x1="470.15" y1="180.18" x2="470.2" y2="180.04" xlink:href="#linear-gradient"/><linearGradient id="linear-gradient-13" x1="423.71" y1="89.41" x2="443.8" y2="26.89" xlink:href="#linear-gradient"/><linearGradient id="linear-gradient-14" x1="516.4" y1="192.18" x2="516.43" y2="192.11" xlink:href="#linear-gradient-6"/><linearGradient id="linear-gradient-15" x1="12.88" y1="99.3" x2="42.19" y2="8.11" xlink:href="#linear-gradient"/><linearGradient id="linear-gradient-16" x1="96.84" y1="173.33" x2="96.89" y2="173.19" xlink:href="#linear-gradient"/><linearGradient id="linear-gradient-17" x1="62.3" y1="229.06" x2="79.95" y2="174.15" xlink:href="#linear-gradient"/><linearGradient id="linear-gradient-18" x1="145.76" y1="335.78" x2="145.8" y2="335.63" xlink:href="#linear-gradient"/></defs><title>largelogo</title><g class="cls-1"><g id="Layer_1" data-name="Layer 1"><path class="cls-2" d="M991.46,449.26V278.32c-3.4-8.19-3.81-17.22-4.23-26.07-.19-4.13-.47-8.37-.45-12.59a24.17,24.17,0,0,1,.71-9.34c.06-.37.14-.73.21-1.09a25.07,25.07,0,0,1-3.72-13c.1-21.34,2-42.83,4-64.07,1-10.35.53-20.42-.11-30.77-.33-5.26-.34-10.49-.37-15.75,0-2.16-.11-4.3-.21-6.46a3.87,3.87,0,0,1-.12-.6c-.22-1-.45-2.55-.52-2.82a27.52,27.52,0,0,1-.79-6.59,24.78,24.78,0,0,1-2.62-10.94c0-15,.63-30,1.14-45,.3-8.87.45-17.62,2.27-26.36.51-2.46,1.17-4.88,1.83-7.29-9.5-1.1-19-2-28.57-2.65-13.52-.88-27.9-.08-41.29-2.88a24.35,24.35,0,0,1-7.35,1.18c-16.12,0-32,1.49-48,3.19-14.39,1.53-29,1-43.37-.12-14.22-1.12-28.33-3.21-42.54-4.43a196.8,196.8,0,0,0-21.27-.83c-.82,0-11-.08-11.31.76l3.37-.45q-1.69.26-3.38.59c-1.67.33-3.33.72-5,1.13a25.81,25.81,0,0,1-17.89-1.85c-19.19.49-38.37,1.44-57.55,2.25C624.2-2.81,584-3.24,543.88-3.24c-19.45,0-39,1.05-58.41.62A193.87,193.87,0,0,1,454.12-6.2c-1.12,0-2.24-.17-3.36-.22-2-.08-3.92-.07-5.88,0l-.45,0-.22.05c-1.68.46-8.42,3-1.89.1h0C435.71-3.32,429.82-2,422.72-3.65a20.51,20.51,0,0,1-6.17-2.56,25.94,25.94,0,0,1-5.3.72c-20.84.62-41.68.13-62.51-.31-18.47-.39-36.94-.66-55.42-.18-17.64.46-35.59,3.6-53.19,2.06C222-5.5,203.78-5.56,185.53-5.69h0a255.09,255.09,0,0,1-32.72.36c-.34.07-.68.15-1,.23A122.78,122.78,0,0,1,135.25-2a19,19,0,0,1-13.36-3.45C97.78-1.86,73.7-1.1,49.26-2.1c-17.38-.71-34.75-2-52.13-2.64A21.89,21.89,0,0,1-2.73,9.45a84,84,0,0,0-3,10.26c-.27,1.24-.48,2.49-.71,3.73a171,171,0,0,0-.37,18.25c.55,12.75,2.45,25.39,3.89,38.06,2.3,20.1,2.5,40.49-2.8,59.65.2,5.13.46,10.27.91,15.4C-3.21,172.85-.66,190.87-.13,209,.22,221.38-2.3,233.09-5,244.79a65.45,65.45,0,0,1,.9,9.21c.48,19.13-2.4,38-4.68,57A352.94,352.94,0,0,0-11,360.76c.35,16.72,1.65,33.57.4,50.27a350,350,0,0,1-6.2,43.61,45.32,45.32,0,0,1,7.53,16.44,640.18,640.18,0,0,1,7.14,95.6c0,11.38-.16,22.75-.36,34.12h991c-1.08-12.08-1.6-24.2-2.27-36.36-1-17.56-2-34.95-1.37-52.55A463.12,463.12,0,0,1,991.46,449.26Z" transform="translate(16.8 134.95)"/><g id="Tees"><g class="cls-3"><path class="cls-4" d="M204.78,419a32.79,32.79,0,0,0,7,5.38,35.35,35.35,0,0,0,9.87,3c2.09.37,4.26.65,6.43.87v0c0-10.63,0-21.26.67-31.93a133.13,133.13,0,0,1,1.85-16l.18-1.18-.3-.33.37-.1L233,364.4l3.89-25.48L216,323.61l21.49,11.64.39-2.54c.75-5.29,1.41-10.58,2-15.86.28-2.64.59-5.3.69-7.91a54.13,54.13,0,0,0-.82-7.87,41.79,41.79,0,0,0-5.92-15.38,45.3,45.3,0,0,0-5.62-7.17c-1.1-1.15-2.25-2.28-3.42-3.41a14.72,14.72,0,0,1-3-3.53,15.41,15.41,0,0,0,3.2,3.47c1.22,1.1,2.43,2.22,3.6,3.35a47.91,47.91,0,0,1,6,7.11,43.78,43.78,0,0,1,6.79,15.44,55.21,55.21,0,0,1,1.24,8c0,2.69-.13,5.33-.28,8-.33,5.31-.71,10.62-1.19,15.92l-3.2,31.81L236.69,377l24.7-6.73-25,9.66-.06.63a129.77,129.77,0,0,0-1,15.77c-.09,10.4.39,20.84,1,31.27l10.27-2.33,1.57,2.82-11.7,2L238.06,460c.08,1.77.19,3.53.27,5.31l9.65-3-9.56,5.41c0,.1,0,.19,0,.29,0,2.72-.08,5.41-.24,8.11-.34,5.38-1,10.71-1.75,16-1.54,10.66-3.56,21.23-6,31.85l-13-1.23c2.91-10.37,5.47-20.86,7.53-31.31,1-5.23,1.93-10.47,2.53-15.69.29-2.61.54-5.22.64-7.8s0-5.29,0-7.92l-.09-29.74c-2.49-.36-4.92-.79-7.33-1.34a35.4,35.4,0,0,1-10.27-3.74,29.87,29.87,0,0,1-6.49-5.91,45.71,45.71,0,0,1-4.52-6.44A51.43,51.43,0,0,0,204.78,419Z" transform="translate(16.8 134.95)"/></g><g class="cls-3"><path class="cls-4" d="M306.7,399a34,34,0,0,0,7,6.3,31.65,31.65,0,0,0,9.87,3.46c2.09.43,4.26.76,6.43,1v0c0-12.44,0-24.9.67-37.38a181.5,181.5,0,0,1,1.85-18.76l.18-1.38-.3-.39.37-.12,2.17-16.65,3.89-29.83-20.93-17.93L339.38,301l.39-3c.75-6.19,1.41-12.38,2-18.58.28-3.09.59-6.2.69-9.27a73.86,73.86,0,0,0-.82-9.22,54.22,54.22,0,0,0-5.92-18,52.76,52.76,0,0,0-5.62-8.39c-1.1-1.34-2.25-2.67-3.42-4a16.81,16.81,0,0,1-3-4.14,17.31,17.31,0,0,0,3.2,4.06c1.22,1.29,2.43,2.6,3.6,3.92a54.85,54.85,0,0,1,6,8.33,56,56,0,0,1,6.79,18.08,74.94,74.94,0,0,1,1.24,9.36c0,3.15-.13,6.25-.28,9.36-.33,6.22-.71,12.43-1.19,18.64l-3.2,37.25-1.25,14.47,24.7-7.88-25,11.32-.06.73a177.58,177.58,0,0,0-1,18.46c-.09,12.18.39,24.4,1,36.62l10.27-2.73,1.57,3.3-11.7,2.38L340,447c.08,2.08.19,4.14.27,6.21l9.65-3.52L340.35,456c0,.11,0,.22,0,.34,0,3.18-.08,6.34-.24,9.49-.34,6.3-1,12.55-1.75,18.78-1.54,12.48-3.56,24.85-6,37.29l-13-1.44c2.91-12.14,5.47-24.42,7.53-36.66,1-6.13,1.93-12.26,2.53-18.37.29-3.05.54-6.11.64-9.14s0-6.19,0-9.28L330,412.23c-2.49-.42-4.92-.93-7.33-1.57a25.16,25.16,0,0,1-16.76-11.3,54.47,54.47,0,0,1-4.52-7.54A58.65,58.65,0,0,0,306.7,399Z" transform="translate(16.8 134.95)"/></g><g class="cls-5"><path class="cls-6" d="M322.89,448.26a34,34,0,0,1-7,3.78,47.07,47.07,0,0,1-9.87,2.08c-2.09.26-4.26.46-6.43.61h0c0-7.46,0-14.93-.67-22.41a67,67,0,0,0-1.85-11.25l-.18-.83.3-.23-.37-.07-2.17-10-3.89-17.88,20.93-10.75-21.49,8.17-.39-1.78c-.75-3.71-1.41-7.42-2-11.14-.28-1.85-.59-3.72-.69-5.56a27.14,27.14,0,0,1,.82-5.53,24.91,24.91,0,0,1,5.92-10.79,36.63,36.63,0,0,1,5.62-5c1.1-.81,2.25-1.6,3.42-2.39a12.44,12.44,0,0,0,3-2.48,13.55,13.55,0,0,1-3.2,2.43c-1.22.77-2.43,1.56-3.6,2.35a40.37,40.37,0,0,0-6,5,27.24,27.24,0,0,0-6.79,10.84,28.23,28.23,0,0,0-1.24,5.61c0,1.89.13,3.74.28,5.61.33,3.73.71,7.45,1.19,11.17l3.2,22.33,1.25,8.67-24.7-4.73,25,6.78.06.44a64.39,64.39,0,0,1,1,11.07c.09,7.3-.39,14.63-1,22l-10.27-1.64-1.57,2,11.7,1.43L289.61,477c-.08,1.24-.19,2.48-.27,3.72l-9.65-2.11,9.56,3.79c0,.07,0,.13,0,.2a55.19,55.19,0,0,0,.24,5.69,104.25,104.25,0,0,0,1.75,11.26,208.82,208.82,0,0,0,6,22.35l13-.87a217.34,217.34,0,0,1-7.53-22,105.75,105.75,0,0,1-2.53-11,54.14,54.14,0,0,1-.64-5.48c-.11-1.83,0-3.71,0-5.56l.09-20.87c2.49-.25,4.92-.56,7.33-.94a45.83,45.83,0,0,0,10.27-2.63,28.67,28.67,0,0,0,6.49-4.15,34.9,34.9,0,0,0,4.52-4.52A43.75,43.75,0,0,1,322.89,448.26Z" transform="translate(16.8 134.95)"/></g><g class="cls-7"><path class="cls-6" d="M151.66,456.21a20.7,20.7,0,0,1-4.45,2.87,21.52,21.52,0,0,1-6,1.34c-1.24.13-2.53.22-3.8.26h0c.76-6.19,1.48-12.39,1.85-18.62a77.15,77.15,0,0,0,0-9.4l0-.69.2-.18-.21-.07-.27-8.36-.48-15,13.26-8.11-13.33,6,0-1.49c-.06-3.11-.08-6.21-.06-9.32,0-1.55,0-3.11.15-4.64a32.49,32.49,0,0,1,1-4.55,26,26,0,0,1,4.53-8.73,28.72,28.72,0,0,1,3.78-4c.72-.63,1.47-1.24,2.23-1.85a9.33,9.33,0,0,0,2-1.94,9.77,9.77,0,0,1-2.11,1.9c-.79.6-1.57,1.2-2.33,1.81a30.39,30.39,0,0,0-4,3.91,27.32,27.32,0,0,0-5,8.73,33.39,33.39,0,0,0-1.29,4.61c-.21,1.57-.3,3.11-.4,4.67-.18,3.11-.33,6.21-.43,9.32l-.37,18.65-.14,7.25-13.91-4.87L136,432.26v.37a75.84,75.84,0,0,1-.53,9.22c-.68,6.06-1.69,12.12-2.76,18.18l-5.82-1.75-1.11,1.58,6.67,1.63-3,17.31c-.17,1-.36,2.05-.53,3.08l-5.41-2.12,5.19,3.52c0,.06,0,.11,0,.17-.21,1.58-.33,3.16-.43,4.73-.18,3.15-.17,6.28-.11,9.41.15,6.27.58,12.5,1.24,18.78l7.69-.22c-1-6.15-1.72-12.36-2.18-18.53-.22-3.09-.39-6.17-.37-9.24,0-1.53.05-3.06.18-4.57s.36-3.08.54-4.62l2.14-17.32c1.47-.11,2.92-.27,4.36-.5a21.71,21.71,0,0,0,6.25-1.79,18.92,18.92,0,0,0,4.2-3.19,28.93,28.93,0,0,0,3.08-3.58A32.63,32.63,0,0,1,151.66,456.21Z" transform="translate(16.8 134.95)"/></g><g class="cls-3"><path class="cls-4" d="M139.42,438.92a24.42,24.42,0,0,1-5.2,4,26.32,26.32,0,0,1-7.35,2.2c-1.56.27-3.17.48-4.79.65h0c0-7.91,0-15.83-.5-23.77a99.13,99.13,0,0,0-1.38-11.93l-.13-.88.23-.25-.28-.08-1.62-10.59-2.9-19,15.58-11.4-16,8.67-.29-1.89c-.56-3.94-1-7.88-1.5-11.81-.21-2-.44-3.94-.51-5.89a40.3,40.3,0,0,1,.61-5.86,31.12,31.12,0,0,1,4.41-11.45,33.74,33.74,0,0,1,4.19-5.34c.82-.85,1.67-1.7,2.54-2.54a11,11,0,0,0,2.25-2.63,11.47,11.47,0,0,1-2.38,2.58c-.91.82-1.81,1.65-2.68,2.49a35.68,35.68,0,0,0-4.49,5.3,32.6,32.6,0,0,0-5.06,11.5,41.11,41.11,0,0,0-.93,6c0,2,.1,4,.21,6,.25,4,.53,7.9.89,11.85l2.39,23.69.93,9.2-18.39-5,18.61,7.2,0,.47a96.63,96.63,0,0,1,.74,11.74c.07,7.75-.29,15.52-.71,23.29l-7.65-1.74-1.17,2.1,8.71,1.51-1.22,22.21c-.06,1.32-.14,2.63-.2,4l-7.19-2.24,7.12,4c0,.07,0,.14,0,.22,0,2,.06,4,.18,6,.25,4,.74,8,1.3,11.95,1.15,7.94,2.65,15.81,4.45,23.71l9.72-.92c-2.17-7.72-4.07-15.53-5.6-23.32-.75-3.9-1.44-7.8-1.88-11.68-.22-1.94-.4-3.88-.48-5.81s0-3.94,0-5.9l.07-22.14c1.85-.27,3.66-.59,5.46-1a26.36,26.36,0,0,0,7.65-2.79,22.24,22.24,0,0,0,4.84-4.4,34,34,0,0,0,3.36-4.79A38.3,38.3,0,0,1,139.42,438.92Z" transform="translate(16.8 134.95)"/><path class="cls-4" d="M101.12,402.28l.42-.58c1.9-2.6-.09-5.67-4.42-6.81l-.42.58C94.79,398.07,96.78,401.14,101.12,402.28Z" transform="translate(16.8 134.95)"/><path class="cls-4" d="M87.34,408.62l1,.13c4.63.6,9.23-1.18,10.23-4h0l-1-.13C92.94,404.06,88.34,405.84,87.34,408.62Z" transform="translate(16.8 134.95)"/><path class="cls-4" d="M137.23,437.85l1,.17c1.28-2.74-1.41-5.6-6-6.37l-1-.17C130,434.22,132.67,437.08,137.23,437.85Z" transform="translate(16.8 134.95)"/><path class="cls-4" d="M143.44,440.53l-3.25.42h0c.73,2,4.12,3.35,7.52,2.91l3.25-.42C150.23,441.4,146.85,440.09,143.44,440.53Z" transform="translate(16.8 134.95)"/><path class="cls-4" d="M105.92,470.67v-.59c0-2-2.74-3.65-6.09-3.65V467C99.83,469,102.57,470.67,105.92,470.67Z" transform="translate(16.8 134.95)"/><path class="cls-4" d="M99,476l1,.07c3.32.24,6.37-1.2,6.76-3.19l-1-.07C102.45,472.59,99.4,474,99,476Z" transform="translate(16.8 134.95)"/></g><g class="cls-8"><path class="cls-4" d="M500.15,406.63a35.4,35.4,0,0,1-7.54,5.81A38.16,38.16,0,0,1,482,415.63c-2.26.4-4.6.7-6.94.94v0c0-11.47,0-23-.72-34.46a143.71,143.71,0,0,0-2-17.29l-.19-1.27.33-.36-.4-.11-2.35-15.35-4.2-27.5,22.59-16.53-23.2,12.57-.42-2.74c-.81-5.71-1.52-11.42-2.17-17.13-.31-2.85-.64-5.72-.75-8.54a58.43,58.43,0,0,1,.88-8.5,45.11,45.11,0,0,1,6.39-16.6,48.91,48.91,0,0,1,6.07-7.74c1.19-1.24,2.43-2.46,3.69-3.68a15.89,15.89,0,0,0,3.27-3.81,16.63,16.63,0,0,1-3.46,3.74c-1.32,1.19-2.63,2.39-3.88,3.61a51.72,51.72,0,0,0-6.51,7.68,47.26,47.26,0,0,0-7.33,16.67,59.6,59.6,0,0,0-1.34,8.63c0,2.9.14,5.76.3,8.63.36,5.73.77,11.46,1.29,17.18L464.36,348l1.34,13.34L439,354.06l27,10.43.07.68a140.08,140.08,0,0,1,1.08,17c.1,11.23-.42,22.49-1,33.76l-11.08-2.52-1.69,3,12.63,2.2-1.76,32.2c-.09,1.91-.2,3.82-.3,5.73l-10.42-3.25,10.32,5.83c0,.11,0,.21,0,.31,0,2.94.09,5.84.26,8.75.36,5.81,1.07,11.57,1.89,17.32,1.66,11.51,3.84,22.91,6.45,34.38l14.09-1.33c-3.14-11.19-5.9-22.51-8.12-33.8-1.09-5.65-2.09-11.3-2.73-16.94-.31-2.82-.58-5.63-.69-8.43s0-5.71,0-8.55l.1-32.1c2.69-.39,5.31-.86,7.91-1.45a38.21,38.21,0,0,0,11.09-4,32.24,32.24,0,0,0,7-6.38,49.35,49.35,0,0,0,4.88-7A55.52,55.52,0,0,1,500.15,406.63Z" transform="translate(16.8 134.95)"/><path class="cls-4" d="M444.63,353.51l.61-.84c2.76-3.77-.13-8.21-6.41-9.87l-.61.84C435.46,347.41,438.35,351.85,444.63,353.51Z" transform="translate(16.8 134.95)"/><path class="cls-4" d="M424.66,362.7l1.49.19c6.71.87,13.38-1.72,14.83-5.74h0l-1.49-.19C432.78,356.09,426.11,358.67,424.66,362.7Z" transform="translate(16.8 134.95)"/><path class="cls-4" d="M497,405.07l1.47.25c1.85-4-2-8.12-8.65-9.23l-1.47-.25C486.48,399.81,490.37,404,497,405.07Z" transform="translate(16.8 134.95)"/><path class="cls-4" d="M506,409l-4.72.61h0c1.06,3,6,4.86,10.91,4.23l4.72-.61C515.83,410.23,510.92,408.33,506,409Z" transform="translate(16.8 134.95)"/><path class="cls-4" d="M451.59,452.66v-.85c0-2.91-4-5.3-8.82-5.3v.85C442.77,450.28,446.74,452.66,451.59,452.66Z" transform="translate(16.8 134.95)"/><path class="cls-4" d="M441.57,460.41l1.41.1c4.82.35,9.23-1.74,9.81-4.63l-1.41-.1C446.56,455.44,442.15,457.52,441.57,460.41Z" transform="translate(16.8 134.95)"/></g><path class="cls-4" d="M-9.11,313.62c-.08.75-.17,1.51-.25,2.26l11.2-8.19Z" transform="translate(16.8 134.95)"/><path class="cls-4" d="M-3.62,523l3.89-.37c-2.2-7.83-4.19-15.72-6-23.62Q-4.43,511-3.62,523Z" transform="translate(16.8 134.95)"/><path class="cls-4" d="M13.92,410.64a35.4,35.4,0,0,1-7.54,5.81,38.16,38.16,0,0,1-10.65,3.19c-2.26.4-4.6.7-6.94.94v0q0-1.31,0-2.61a358.75,358.75,0,0,1-5.6,36.69,44.46,44.46,0,0,1,5.6,10.27c0-.49-.06-1-.08-1.46-.12-2.81,0-5.71,0-8.55l.1-32.1c2.69-.39,5.31-.86,7.91-1.45a38.21,38.21,0,0,0,11.09-4,32.24,32.24,0,0,0,7-6.38,49.35,49.35,0,0,0,4.88-7A55.52,55.52,0,0,1,13.92,410.64Z" transform="translate(16.8 134.95)"/><path class="cls-4" d="M10.74,409.09l1.47.25c1.85-4-2-8.12-8.65-9.23l-1.47-.25C.24,403.82,4.14,408,10.74,409.09Z" transform="translate(16.8 134.95)"/><path class="cls-4" d="M19.76,413l-4.72.61h0c1.06,3,6,4.86,10.91,4.23l4.72-.61C29.6,414.24,24.69,412.34,19.76,413Z" transform="translate(16.8 134.95)"/><g class="cls-3"><path class="cls-4" d="M483.75,394.68a34,34,0,0,0,7,6.3,31.65,31.65,0,0,0,9.87,3.46c2.09.43,4.26.76,6.43,1v0c0-12.44,0-24.9.67-37.38a181.5,181.5,0,0,1,1.85-18.76l.18-1.38-.3-.39.37-.12L512,330.76l3.89-29.83L494.94,283l21.49,13.63.39-3c.75-6.19,1.41-12.38,2-18.58.28-3.09.59-6.2.69-9.27a73.86,73.86,0,0,0-.82-9.22,54.22,54.22,0,0,0-5.92-18,52.76,52.76,0,0,0-5.62-8.39c-1.1-1.34-2.25-2.67-3.42-4a16.81,16.81,0,0,1-3-4.14,17.31,17.31,0,0,0,3.2,4.06c1.22,1.29,2.43,2.6,3.6,3.92a54.85,54.85,0,0,1,6,8.33,56,56,0,0,1,6.79,18.08,74.94,74.94,0,0,1,1.24,9.36c0,3.15-.13,6.25-.28,9.36-.33,6.22-.71,12.43-1.19,18.64l-3.2,37.25-1.25,14.47,24.7-7.88-25,11.32-.06.73a177.58,177.58,0,0,0-1,18.46c-.09,12.18.39,24.4,1,36.62l10.27-2.73,1.57,3.3-11.7,2.38L517,442.66c.08,2.08.19,4.14.27,6.21l9.65-3.52-9.56,6.33c0,.11,0,.22,0,.34,0,3.18-.08,6.34-.24,9.49-.34,6.3-1,12.55-1.75,18.78-1.54,12.48-3.56,24.85-6,37.29l-13-1.44c2.91-12.14,5.47-24.42,7.53-36.66,1-6.13,1.93-12.26,2.53-18.37.29-3.05.54-6.11.64-9.14s0-6.19,0-9.28L507,407.86c-2.49-.42-4.92-.93-7.33-1.57A25.16,25.16,0,0,1,482.94,395a54.47,54.47,0,0,1-4.52-7.54A58.65,58.65,0,0,0,483.75,394.68Z" transform="translate(16.8 134.95)"/></g><g class="cls-3"><path class="cls-4" d="M679.39,393.8a34,34,0,0,0,7,6.3,31.65,31.65,0,0,0,9.87,3.46c2.09.43,4.26.76,6.43,1v0c0-12.44,0-24.9.67-37.38a181.5,181.5,0,0,1,1.85-18.76l.18-1.38-.3-.39.37-.12,2.17-16.65,3.89-29.83-20.93-17.93,21.49,13.63.39-3c.75-6.19,1.41-12.38,2-18.58.28-3.09.59-6.2.69-9.27a73.86,73.86,0,0,0-.82-9.22,54.22,54.22,0,0,0-5.92-18,52.76,52.76,0,0,0-5.62-8.39c-1.1-1.34-2.25-2.67-3.42-4a16.81,16.81,0,0,1-3-4.14,17.31,17.31,0,0,0,3.2,4.06c1.22,1.29,2.43,2.6,3.6,3.92a54.85,54.85,0,0,1,6,8.33A56,56,0,0,1,716,255.58a74.94,74.94,0,0,1,1.24,9.36c0,3.15-.13,6.25-.28,9.36-.33,6.22-.71,12.43-1.19,18.64l-3.2,37.25-1.25,14.47,24.7-7.88-25,11.32-.06.73a177.58,177.58,0,0,0-1,18.46c-.09,12.18.39,24.4,1,36.62l10.27-2.73,1.57,3.3L711,406.86l1.63,34.92c.08,2.08.19,4.14.27,6.21l9.65-3.52L713,450.8c0,.11,0,.22,0,.34,0,3.18-.08,6.34-.24,9.49-.34,6.3-1,12.55-1.75,18.78-1.54,12.48-3.56,24.85-6,37.29l-13-1.44c2.91-12.14,5.47-24.42,7.53-36.66,1-6.13,1.93-12.26,2.53-18.37.29-3.05.54-6.11.64-9.14s0-6.19,0-9.28L702.68,407c-2.49-.42-4.92-.93-7.33-1.57a25.16,25.16,0,0,1-16.76-11.3,54.47,54.47,0,0,1-4.52-7.54A58.65,58.65,0,0,0,679.39,393.8Z" transform="translate(16.8 134.95)"/></g><g class="cls-5"><path class="cls-6" d="M704.9,445.51a34,34,0,0,1-7,3.78,47.07,47.07,0,0,1-9.87,2.08c-2.09.26-4.26.46-6.43.61h0c0-7.46,0-14.93-.67-22.41a67,67,0,0,0-1.85-11.25l-.18-.83.3-.23-.37-.07-2.17-10-3.89-17.88,20.93-10.75-21.49,8.17-.39-1.78c-.75-3.71-1.41-7.42-2-11.14-.28-1.85-.59-3.72-.69-5.56a27.14,27.14,0,0,1,.82-5.53,24.91,24.91,0,0,1,5.92-10.79,36.63,36.63,0,0,1,5.62-5c1.1-.81,2.25-1.6,3.42-2.39a12.44,12.44,0,0,0,3-2.48,13.55,13.55,0,0,1-3.2,2.43c-1.22.77-2.43,1.56-3.6,2.35a40.37,40.37,0,0,0-6,5,27.24,27.24,0,0,0-6.79,10.84,28.23,28.23,0,0,0-1.24,5.61c0,1.89.13,3.74.28,5.61.33,3.73.71,7.45,1.19,11.17l3.2,22.33L673,416l-24.7-4.73,25,6.78.06.44a64.39,64.39,0,0,1,1,11.07c.09,7.3-.39,14.63-1,22l-10.27-1.64-1.57,2,11.7,1.43-1.63,20.94c-.08,1.24-.19,2.48-.27,3.72l-9.65-2.11,9.56,3.79c0,.07,0,.13,0,.2a55.19,55.19,0,0,0,.24,5.69,104.25,104.25,0,0,0,1.75,11.26,208.82,208.82,0,0,0,6,22.35l13-.87a217.34,217.34,0,0,1-7.53-22,105.75,105.75,0,0,1-2.53-11,54.14,54.14,0,0,1-.64-5.48c-.11-1.83,0-3.71,0-5.56l.09-20.87c2.49-.25,4.92-.56,7.33-.94a45.83,45.83,0,0,0,10.27-2.63,28.67,28.67,0,0,0,6.49-4.15,34.9,34.9,0,0,0,4.52-4.52A43.75,43.75,0,0,1,704.9,445.51Z" transform="translate(16.8 134.95)"/></g><g class="cls-5"><path class="cls-6" d="M888.09,438.39a34,34,0,0,1-7,3.78,47.07,47.07,0,0,1-9.87,2.08c-2.09.26-4.26.46-6.43.61h0c0-7.46,0-14.93-.67-22.41a67,67,0,0,0-1.85-11.25l-.18-.83.3-.23L862,410l-2.17-10L856,382.19l20.93-10.75-21.49,8.17-.39-1.78c-.75-3.71-1.41-7.42-2-11.14-.28-1.85-.59-3.72-.69-5.56a27.14,27.14,0,0,1,.82-5.53,24.91,24.91,0,0,1,5.92-10.79,36.63,36.63,0,0,1,5.62-5c1.1-.81,2.25-1.6,3.42-2.39a12.44,12.44,0,0,0,3-2.48,13.55,13.55,0,0,1-3.2,2.43c-1.22.77-2.43,1.56-3.6,2.35a40.37,40.37,0,0,0-6,5,27.24,27.24,0,0,0-6.79,10.84,28.23,28.23,0,0,0-1.24,5.61c0,1.89.13,3.74.28,5.61.33,3.73.71,7.45,1.19,11.17l3.2,22.33,1.25,8.67-24.7-4.73,25,6.78.06.44a64.39,64.39,0,0,1,1,11.07c.09,7.3-.39,14.63-1,22l-10.27-1.64-1.57,2,11.7,1.43-1.63,20.94c-.08,1.24-.19,2.48-.27,3.72l-9.65-2.11,9.56,3.79c0,.07,0,.13,0,.2a55.19,55.19,0,0,0,.24,5.69,104.25,104.25,0,0,0,1.75,11.26,208.82,208.82,0,0,0,6,22.35l13-.87a217.34,217.34,0,0,1-7.53-22,105.75,105.75,0,0,1-2.53-11,54.14,54.14,0,0,1-.64-5.48c-.11-1.83,0-3.71,0-5.56l.09-20.87c2.49-.25,4.92-.56,7.33-.94a45.83,45.83,0,0,0,10.27-2.63,28.67,28.67,0,0,0,6.49-4.15,34.9,34.9,0,0,0,4.52-4.52A43.75,43.75,0,0,1,888.09,438.39Z" transform="translate(16.8 134.95)"/></g><path class="cls-4" d="M950.34,390.49a39.55,39.55,0,0,1-8.42,6.49,42.63,42.63,0,0,1-11.9,3.57c-2.52.44-5.14.79-7.75,1v0c0-12.82,0-25.65-.81-38.5a160.56,160.56,0,0,0-2.23-19.32l-.22-1.42.37-.4-.45-.12-2.62-17.15-4.7-30.73,25.24-18.46-25.92,14-.47-3.06c-.9-6.37-1.7-12.76-2.43-19.13-.34-3.18-.71-6.39-.83-9.55a65.28,65.28,0,0,1,1-9.49,50.4,50.4,0,0,1,7.14-18.55,54.64,54.64,0,0,1,6.78-8.65c1.33-1.38,2.71-2.75,4.12-4.11s2.91-2.71,3.65-4.26a18.58,18.58,0,0,1-3.86,4.18c-1.48,1.33-2.93,2.67-4.34,4a57.78,57.78,0,0,0-7.28,8.58,52.8,52.8,0,0,0-8.19,18.62,66.59,66.59,0,0,0-1.5,9.64c0,3.24.16,6.43.34,9.64.4,6.4.86,12.8,1.44,19.2L910.35,325l1.5,14.9-29.78-8.12,30.14,11.66.08.76a156.5,156.5,0,0,1,1.2,19c.11,12.55-.47,25.13-1.15,37.72L900,398.09l-1.89,3.4,14.11,2.45-2,36c-.1,2.14-.23,4.26-.33,6.4l-11.64-3.63,11.53,6.52c0,.12,0,.23,0,.35,0,3.28.1,6.53.29,9.78.41,6.49,1.2,12.92,2.11,19.35,1.86,12.86,4.29,25.6,7.21,38.41l15.74-1.49c-3.51-12.5-6.6-25.15-9.08-37.76-1.22-6.31-2.33-12.63-3.05-18.92-.35-3.15-.65-6.29-.77-9.41s0-6.37,0-9.56l.11-35.86c3-.43,5.93-1,8.84-1.62,4.46-1,8.9-2.37,12.39-4.51a36,36,0,0,0,7.83-7.12,55.13,55.13,0,0,0,5.45-7.76A62,62,0,0,1,950.34,390.49Z" transform="translate(16.8 134.95)"/><path class="cls-4" d="M888.31,331.15l.69-.94c3.08-4.21-.14-9.18-7.16-11l-.69.94C878.06,324.34,881.29,329.3,888.31,331.15Z" transform="translate(16.8 134.95)"/><path class="cls-4" d="M866,341.41l1.67.22c7.49,1,14.95-1.92,16.56-6.42h0l-1.67-.22C875.07,334,867.61,336.92,866,341.41Z" transform="translate(16.8 134.95)"/><path class="cls-4" d="M946.79,388.76l1.64.28c2.07-4.43-2.28-9.07-9.67-10.31l-1.64-.28C935.06,382.88,939.41,387.52,946.79,388.76Z" transform="translate(16.8 134.95)"/><path class="cls-4" d="M956.86,393.11l-5.27.68h0c1.19,3.31,6.67,5.43,12.19,4.72l5.27-.68C967.86,394.52,962.37,392.39,956.86,393.11Z" transform="translate(16.8 134.95)"/><path class="cls-4" d="M896.08,441.92V441c0-3.25-4.44-5.92-9.86-5.92V436C886.23,439.26,890.66,441.92,896.08,441.92Z" transform="translate(16.8 134.95)"/><path class="cls-4" d="M884.89,450.58l1.57.11c5.38.39,10.31-1.94,11-5.17l-1.57-.11C890.46,445,885.53,447.35,884.89,450.58Z" transform="translate(16.8 134.95)"/></g><path class="cls-9" d="M986.25,564.44c-.61-11-1.25-22-1.48-32.93H-3.09q.95,17.51,1,35.17c0,18.55-.43,37.1-.73,55.64,44.44-.91,88.71-4.09,133.22-4.17a112.85,112.85,0,0,1,35.89,5.52c27.07-2.31,54.14-4.45,81.5-5.51,62-2.41,124.44-1.47,186.58-1.47h191.2a112.64,112.64,0,0,1,37.42,6.08c108.83-5.31,218.23-6,327.4-6.07C987.86,599.35,987.22,581.94,986.25,564.44Z" transform="translate(16.8 134.95)"/><path class="cls-10" d="M-2.33,590.91c-.13,9.11-.31,18.22-.47,27.33,39.18-7.84,63.17-23.32,82.62-37.79,36.75-27.35,120.87-36.17,120.87-36.17C110.74,544.76,64.69,577-2.33,590.91Z" transform="translate(16.8 134.95)"/><path class="cls-10" d="M422.28,531.51s-116.76,11.14-123.46,41c-4.79,21.36-2.45,37.27-89.66,44.62a371.64,371.64,0,0,0-43.41,6.36l.49.16c27.07-2.31,54.14-4.45,81.5-5.52q16.87-.66,33.78-1c19.8-7.59,37.18-21.21,45.23-51.09,8.85-32.85,136.69-29.51,136.69-29.51Z" transform="translate(16.8 134.95)"/><path class="cls-11" d="M-2.19,579c0,.77,0,1.53,0,2.3,22.18-2.79,60.86-11.92,102.61-41.19L47.48,527.64s7.28,3.24,2.94,20.43C47.28,560.51,32.32,571.63-2.19,579Z" transform="translate(16.8 134.95)"/><path class="cls-11" d="M864.69,531.51s-2.94,54.69-269,57.57c-80.1.87-140.44,12.18-185.7,27.56q12.15,0,24.3,0H544.83c21.94-7.51,50.16-12.95,86.17-15.36C877.92,584.77,864.69,531.51,864.69,531.51Z" transform="translate(16.8 134.95)"/><path id="_Path_" data-name="&lt;Path&gt;" class="cls-10" d="M501.65,531.51s-64.67,23-70.55,45.34-88.19,22.31-105.83,37.42a723.7,723.7,0,0,1,72-13c37.42-4.76,42.62-4.56,53.89-25.79,4.45-8.39-11.76-27.46,104.85-20.44,75.84,4.57,138.16-20,138.16-20l-50-3.6S612,554.7,573,550.94,501.65,531.51,501.65,531.51Z" transform="translate(16.8 134.95)"/><path class="cls-10" d="M986.25,564.44c-.38-6.88-.77-13.73-1.06-20.58a366.56,366.56,0,0,0-42.85,5.37c-38.27,6.93-86.44,20.79-146.71,45.6C772.45,604.38,751,612.72,731.29,620l11.57-.36c42.49-16.29,95.94-34.78,146.83-46.73,32.45-7.62,65.88-7.59,96.82-3.79Q986.38,566.78,986.25,564.44Z" transform="translate(16.8 134.95)"/><path class="cls-11" d="M987.06,579.57c-32.77-4.35-68.54-2.71-100.33,13.11a442.49,442.49,0,0,1-61,25.09q16.51-.26,33-.44c13.48-3.43,28.15-7.32,44.13-11.68,28.58-7.8,58.36-7.85,85.67-4.3C987.91,594.1,987.46,586.84,987.06,579.57Z" transform="translate(16.8 134.95)"/><path class="cls-11" d="M175.35,583.87c-28.86,2.65-70.92,18-112.1,36.08q12.84-.53,25.68-1c32.76-11.93,64.38-21.59,87.89-24.85,78.34-10.85,104.36-46.06,104.36-46.06S251.78,576.85,175.35,583.87Z" transform="translate(16.8 134.95)"/><path id="_Path_2" data-name="&lt;Path&gt;" class="cls-12" d="M125.87,578.29s7.84-12.57,28.42-9.4S168,575.53,168,575.53,136.65,583.57,125.87,578.29Z" transform="translate(16.8 134.95)"/><path id="_Path_3" data-name="&lt;Path&gt;" class="cls-12" d="M535.93,567.64s-11.89,8.32,0,8.6S550.2,565.17,535.93,567.64Z" transform="translate(16.8 134.95)"/><path id="_Path_4" data-name="&lt;Path&gt;" class="cls-12" d="M467.67,569.89s6.92,4.5,16.54,0S460.75,565.39,467.67,569.89Z" transform="translate(16.8 134.95)"/><path id="_Path_5" data-name="&lt;Path&gt;" class="cls-12" d="M490.32,574s6.34-10.17,23-7.61,11.1,5.37,11.1,5.37S499,578.23,490.32,574Z" transform="translate(16.8 134.95)"/><path id="_Path_6" data-name="&lt;Path&gt;" class="cls-12" d="M162.7,559.58h0c-3.16,2.22-1.89,5.3,2.83,6.7,7.24,2.15,17.83,4.43,26,2.6,4.57-1,6-3.4,5.1-5.94C193.76,555,172.15,553,162.7,559.58Z" transform="translate(16.8 134.95)"/><path class="cls-13" d="M635,617c2.15.16,4.28.37,6.36.64,1.26-.19,2.1-.82,1.83-1.49-.64-1.58-3.47-2.72-6.76-2.72l-1.5.88C633.43,615.2,633.68,616.33,635,617Z" transform="translate(16.8 134.95)"/><path id="_Path_7" data-name="&lt;Path&gt;" class="cls-12" d="M520.72,573.18l-1.57.92c-2.4,1.41-.34,3.55,3.4,3.55h2.5c1.75,0,3.07-.79,2.73-1.63h0c-.67-1.65-3.63-2.85-7.07-2.85Z" transform="translate(16.8 134.95)"/><path class="cls-14" d="M984.83,514.29C810.75,510.54,639.5,520.06,466,517c-34.87,0-68.31,0-103.18-3.45-24.71-2.77-46.52-7.59-72.66-4.84-71.23,6.9-138.07,7.59-207.84,8.29-28.35.37-57.56,1.54-86.24,1.34q1.07,14.33,1.5,28.72c17.72,0,35.59-.49,53.3-.9,8.22-.19,16.42-.36,24.52-.47l17.08-.17c63.64-.67,125.34-1.76,190.73-8.1,26.17-2.77,48,2.07,72.66,4.82l.73.06c4,.4,7.94.75,11.88,1,30.39,2.35,59.92,2.35,90.57,2.35,3.18.06,6.38.11,9.56.14q38.39.61,76.56.45h0q34.92,0,69.74-.53,23.15-.28,46.24-.68c65.61-1.06,131.15-2.5,197-2.86h0c1.17,0,2.38,0,3.59,0,41-.21,82.14,0,123.42,1C984.75,533.54,984.55,523.95,984.83,514.29Z" transform="translate(16.8 134.95)"/><path class="cls-15" d="M985.16,543.14c-41.28-1-82.4-1.2-123.42-1-1.21,0-2.41,0-3.59,0h0c-65.83.36-131.37,1.8-197,2.86q-23.1.4-46.24.68-34.82.44-69.74.53h0q-38.2.12-76.56-.45c-3.18,0-6.38-.08-9.56-.14-30.64,0-60.18,0-90.57-2.35-3.94-.3-7.91-.64-11.88-1l-.73-.06c-24.71-2.75-46.49-7.59-72.66-4.82-65.39,6.34-127.09,7.43-190.73,8.1l-17.08.17c-8.1.11-16.29.28-24.52.47-17.71.41-35.58.88-53.3.9q.1,3.42.17,6.85c16.86,0,33.86-.44,50.71-.83,9.05-.22,18-.42,26.93-.53l5.68-.06h0c16.48-.17,32.87-.34,49.13-.61h0q13.81-.23,27.6-.58h0c41.25-1,82.47-2.89,125.31-7,20.1-2.11,37.63.25,55.89,2.71,3.46.47,7,.93,10.54,1.38,2.06.26,4.13.51,6.22.75,33.95,3.36,66.56,3.45,100.44,3.45H459c54.3,1,108.35.68,162.37,0h0c76-1,151.92-2.89,228.13-3.42,2.16,0,4.32,0,6.48,0q43.06-.3,86.31.17,21.54.25,43.14.77Q985.31,546.57,985.16,543.14Z" transform="translate(16.8 134.95)"/><path class="cls-16" d="M984.89,511.89c.07-1.92.16-3.85.26-5.77q-41-1.24-81.9-1.7l2.41-5.68-5.21,5.64q-29.06-.3-58.08-.3l13.24-16.47L839.39,504.1h-2.32l-2.89-27.52L829.7,503l-12.45-8.82,3.59,10c-62.62.25-125.12,1.48-187.55,3.16L628,502.88l1.84,4.51q-56.49,1.52-112.92,3.37a764.26,764.26,0,0,1-97.36-4.14c-25.18-2.39-49.67-4.45-74.4-5.26l-3.4-.11-1,0-16.2-.25q-6.29,0-12.58.11c-17.21.45-34.36.79-51.44,1.14l-4.35.08c-24.67.48-49.22,1-73.74,1.66l-21.4.68c-28.71,1-57.32,2.46-86,4.73-17.56,1.55-36.14,1.54-55,.93L34,489.39,16.62,510.21l-.89,0-3.18-44.27-4.48,42-12.45-8.82,3.75,10.39-4.07-.21q.41,4.53.75,9.07c28.68.21,57.88-1,86.24-1.34,69.77-.7,136.61-1.38,207.84-8.29,26.14-2.75,48,2.07,72.66,4.84C397.66,517,431.1,517,466,517c173.53,3.07,344.79-6.45,518.86-2.69C984.85,513.49,984.86,512.69,984.89,511.89Z" transform="translate(16.8 134.95)"/><g id="_Group_" data-name="&lt;Group&gt;" class="cls-17"><path id="_Path_8" data-name="&lt;Path&gt;" class="cls-18" d="M829,53.92S823.35,33.59,799.72,41c0,0,7-23.8-27.44-22.68-37.25,1.21-25.1,22-25.1,22s-17.28-5.33-24,0c-3.52,2.78-5,8-5.6,12.42-19.7-9.76-34.95,6-29.66,7.19s29.26,0,29.26,0,14.81,2,22.92,0c0,0,28.91,4.64,59.94.89,0,0,14.46,2.9,28.91.29,0,0,20.1.54,27.15-1.18S844.54,45.68,829,53.92Z" transform="translate(16.8 134.95)"/><g id="_Group_2" data-name="&lt;Group&gt;"><path id="_Path_9" data-name="&lt;Path&gt;" class="cls-19" d="M824.86,59.18c-10.18,4.29-32.2-7-32.2-7a15.49,15.49,0,0,1-5.18,2.58,22.1,22.1,0,0,1-16.8-1.87c-37-20.71-.52-34.38-.32-34.47-30.15,1.61-25.49,16.8-23.67,20.9a33.27,33.27,0,0,0,7.5,7.37c-14.22-9.38-25.75-8.38-26.53-8.3a10.63,10.63,0,0,0-4.45,1.91c-3.51,2.78-5,8-5.6,12.4a32,32,0,0,0,.91,3.5,30.6,30.6,0,0,0-7.62-5.92c-16.28-3.83-27.62,8.61-23,9.63,5.29,1.15,29.26,0,29.26,0s14.81,2,22.92,0c0,0,28.91,4.64,59.94.89,0,0,14.46,2.9,28.91.29,0,0,9.23.25,17.37-.13A177.42,177.42,0,0,1,824.86,59.18Z" transform="translate(16.8 134.95)"/><polygon id="_Path_10" data-name="&lt;Path&gt;" class="cls-20" points="868.75 195.54 868.75 195.54 868.75 195.54 868.75 195.54"/></g><path id="_Path_11" data-name="&lt;Path&gt;" class="cls-21" d="M829,53.92S823.35,33.59,799.72,41c0,0,5-17-14.25-21.59,4.66,2.4,14.8,9.29,12,22.84,0,0,21.85-8.31,29.72,13.41,0,0,18.64-10.55,29,4.25C863.19,58.22,844.54,45.68,829,53.92Z" transform="translate(16.8 134.95)"/></g><g id="_Group_3" data-name="&lt;Group&gt;"><path id="_Path_12" data-name="&lt;Path&gt;" class="cls-18" d="M895.77,181.82s-4.32-15.57-22.41-9.87c0,0,5.38-18.23-21-17.37-28.53.93-19.22,16.85-19.22,16.85s-13.23-4.08-18.36,0c-2.69,2.13-3.82,6.16-4.29,9.51-15.09-7.48-26.76,4.63-22.71,5.5s22.41,0,22.41,0,11.34,1.53,17.55,0a185.78,185.78,0,0,0,45.9.68,67.17,67.17,0,0,0,22.14.22s15.39.41,20.79-.9S907.69,175.5,895.77,181.82Z" transform="translate(16.8 134.95)"/><g id="_Group_4" data-name="&lt;Group&gt;"><path id="_Path_13" data-name="&lt;Path&gt;" class="cls-22" d="M892.61,185.84c-7.79,3.29-24.66-5.34-24.66-5.34a11.86,11.86,0,0,1-4,2A16.93,16.93,0,0,1,851.12,181c-28.31-15.86-.39-26.32-.24-26.4-23.08,1.23-19.52,12.86-18.12,16a25.48,25.48,0,0,0,5.75,5.65c-10.89-7.19-19.71-6.41-20.31-6.35a8.14,8.14,0,0,0-3.41,1.46c-2.69,2.13-3.82,6.15-4.29,9.49a24.52,24.52,0,0,0,.7,2.68,23.43,23.43,0,0,0-5.84-4.53c-12.47-2.93-21.15,6.6-17.58,7.37,4,.88,22.41,0,22.41,0s11.34,1.53,17.55,0a185.78,185.78,0,0,0,45.9.68,67.17,67.17,0,0,0,22.14.22s7.07.19,13.3-.1A135.86,135.86,0,0,1,892.61,185.84Z" transform="translate(16.8 134.95)"/><polygon id="_Path_14" data-name="&lt;Path&gt;" class="cls-23" points="930.16 321.88 930.16 321.88 930.16 321.88 930.16 321.88"/></g><path id="_Path_15" data-name="&lt;Path&gt;" class="cls-21" d="M895.77,181.82s-4.32-15.57-22.41-9.87c0,0,3.84-13-10.91-16.54,3.57,1.84,11.34,7.11,9.17,17.49,0,0,16.74-6.37,22.76,10.27,0,0,14.27-8.08,22.18,3.25C922,185.11,907.69,175.5,895.77,181.82Z" transform="translate(16.8 134.95)"/></g><g id="_Group_5" data-name="&lt;Group&gt;"><path id="_Path_16" data-name="&lt;Path&gt;" class="cls-18" d="M261.58,110.48s-3.79-13.68-19.69-8.67c0,0,4.73-16-18.46-15.26-25.06.81-16.88,14.8-16.88,14.8s-11.62-3.58-16.13,0c-2.37,1.87-3.36,5.41-3.77,8.36-13.25-6.57-23.51,4.07-19.95,4.84s19.69,0,19.69,0,10,1.35,15.42,0a163.21,163.21,0,0,0,40.32.6,59,59,0,0,0,19.45.19s13.52.36,18.26-.79S272,104.93,261.58,110.48Z" transform="translate(16.8 134.95)"/><g id="_Group_6" data-name="&lt;Group&gt;"><path id="_Path_17" data-name="&lt;Path&gt;" class="cls-24" d="M258.8,114c-6.85,2.89-21.66-4.69-21.66-4.69a10.42,10.42,0,0,1-3.49,1.74,14.87,14.87,0,0,1-11.3-1.26c-24.87-13.93-.35-23.13-.21-23.19-20.28,1.08-17.15,11.3-15.92,14.06a22.38,22.38,0,0,0,5,5c-9.57-6.31-17.32-5.64-17.84-5.58a7.15,7.15,0,0,0-3,1.28c-2.36,1.87-3.35,5.4-3.77,8.34a21.55,21.55,0,0,0,.62,2.36,20.58,20.58,0,0,0-5.13-4c-11-2.57-18.58,5.79-15.44,6.47,3.56.77,19.69,0,19.69,0s10,1.35,15.42,0a163.2,163.2,0,0,0,40.32.6,59,59,0,0,0,19.45.19s6.21.17,11.69-.09A119.35,119.35,0,0,1,258.8,114Z" transform="translate(16.8 134.95)"/><polygon id="_Path_18" data-name="&lt;Path&gt;" class="cls-25" points="293.82 249.92 293.82 249.92 293.82 249.92 293.82 249.92"/></g><path id="_Path_19" data-name="&lt;Path&gt;" class="cls-21" d="M261.58,110.48s-3.79-13.68-19.69-8.67c0,0,3.38-11.44-9.59-14.53,3.13,1.61,10,6.25,8.06,15.36,0,0,14.7-5.59,20,9,0,0,12.54-7.1,19.49,2.86C284.58,113.37,272,104.93,261.58,110.48Z" transform="translate(16.8 134.95)"/></g><g id="_Group_7" data-name="&lt;Group&gt;"><path id="_Path_20" data-name="&lt;Path&gt;" class="cls-18" d="M598.25,141.51s-6.91-24.9-35.84-15.78c0,0,8.6-29.15-33.61-27.78-45.63,1.48-30.74,26.94-30.74,26.94s-21.16-6.52-29.36,0c-4.31,3.41-6.12,9.86-6.86,15.22-24.13-12-42.8,7.4-36.32,8.8s35.84,0,35.84,0,18.14,2.45,28.07,0c0,0,35.41,5.69,73.41,1.09,0,0,17.71,3.55,35.41.35,0,0,24.61.66,33.25-1.44S617.3,131.41,598.25,141.51Z" transform="translate(16.8 134.95)"/><g id="_Group_8" data-name="&lt;Group&gt;"><path id="_Path_21" data-name="&lt;Path&gt;" class="cls-26" d="M593.19,147.94c-12.46,5.25-39.44-8.54-39.44-8.54a19,19,0,0,1-6.35,3.16,27.07,27.07,0,0,1-20.58-2.29c-45.28-25.37-.63-42.1-.39-42.22-36.92,2-31.22,20.57-29,25.59a40.75,40.75,0,0,0,9.19,9c-17.42-11.49-31.53-10.26-32.49-10.16a13,13,0,0,0-5.45,2.34c-4.3,3.4-6.11,9.83-6.86,15.19a39.23,39.23,0,0,0,1.12,4.29,37.47,37.47,0,0,0-9.33-7.25c-19.94-4.69-33.83,10.55-28.11,11.79,6.48,1.4,35.84,0,35.84,0s18.14,2.45,28.07,0c0,0,35.41,5.69,73.41,1.09,0,0,17.71,3.55,35.41.35,0,0,11.3.3,21.28-.16C608.52,150.2,593.19,147.94,593.19,147.94Z" transform="translate(16.8 134.95)"/><polygon id="_Path_22" data-name="&lt;Path&gt;" class="cls-27" points="643.17 284.63 643.17 284.63 643.17 284.63 643.17 284.63"/></g><path id="_Path_23" data-name="&lt;Path&gt;" class="cls-21" d="M598.25,141.51s-6.91-24.9-35.84-15.78c0,0,6.15-20.83-17.46-26.45,5.7,2.94,18.13,11.37,14.67,28,0,0,26.77-10.18,36.4,16.42,0,0,22.83-12.92,35.48,5.2C640.13,146.77,617.3,131.41,598.25,141.51Z" transform="translate(16.8 134.95)"/></g><ellipse class="cls-28" cx="587.88" cy="16.12" rx="1.44" ry="1.17"/><path id="_Path_24" data-name="&lt;Path&gt;" class="cls-29" d="M959,150.63s-244.23-45.09-339-27.57c0,0,154.75-6,328.44,33.84Z" transform="translate(16.8 134.95)"/><path class="cls-29" d="M744.64,10.55c-93.56,6.06-150.85,4.49-213.41-.43,93,2.25,195.51-1.94,213.41-6.47C769.9-2.76,910,3.57,910,3.57l12.56-3s-22.17-1.74-54.06-2.61l-5.22.54c-14.39,1.53-29,1-43.37-.12-2.55-.2-5.1-.44-7.65-.69-27.43.54-56.48,2.2-82.69,5.93-82.44,11.72-303.9-3-303.9-3h0C415.29-.43,404.44-1.4,393-2.39,291.52-11.14,96.57,12.08-6.55,26.07c-.29,5.21-.45,10.39-.23,15.63.32,7.35,1.09,14.67,2,22,89.33-13.55,297.53-44.21,352-44,70,.25,243.72,23.2,368,10.56C815.62,20,940,36.35,984,43q.17-4.87.34-9.74A199.84,199.84,0,0,1,985.77,12C935.9,8.31,845.74,4,744.64,10.55Zm-565.85,6c-5.6,4.32-24,8.92-48.94,9.55,0,0-25-.72-17.81-6S184.39,12.21,178.79,16.53Zm9.78,6.88c-16.33-6.68,20.25-18.82,98.15-15.94S224,37.9,188.57,23.41Zm411.78,3.06c-82.41-.76-254.78-14-203.17-12.44C500.35,17.21,690.53,27.3,600.35,26.47Zm28.49-6.26s43.28-4.34,53.75,0S617.26,23.59,628.84,20.21Z" transform="translate(16.8 134.95)"/><path class="cls-29" d="M984,216.25c0-1.79,0-3.58.08-5.36-3.41-3.19-6.94-5.49-9.55-4.72-7,2.08-312-17-358.66-27.66s-135.41,8.24-233.49,15.78c-81.49,6.27-308.64,3.14-383.18,1.9q.41,5.63.61,11.27c37.92,4.75,299.07,35.66,437.48,3.22C572.74,178.94,920.82,215.83,985,223A23.74,23.74,0,0,1,984,216.25Zm-818.37-6.84c-4.11-1.09-1.77-3.28,3.51-3.31,37.36-.16,134.89-.5,159.17.07C371.34,207.17,258.85,234.13,165.62,209.41Zm472.65-19.89s50.49-.35,55.82,6.24S602.38,193,638.26,189.52Z" transform="translate(16.8 134.95)"/><path id="_Compound_Path_" data-name="&lt;Compound Path&gt;" class="cls-29" d="M499.06,280.64s142.24-30.86,194.3-8.6,154-2.42,154-2.42l7-7.05s-107.65,3.86-141.81-.94-65-16.81-81.31-10-122.46,18.9-124.9,17.58S499.06,280.64,499.06,280.64Zm232.26-11.46c8.45-.36,42.42-.14,55.43,0,1.84,0,2.65,1.41,1.22,2.1C755.5,287,716.33,269.82,731.32,269.18Zm-127.39-6.61c1.85-4.19,19.44-4,19.44-4C635.86,260.81,602.08,266.76,603.93,262.57Z" transform="translate(16.8 134.95)"/><g id="_Group_9" data-name="&lt;Group&gt;" class="cls-30"><path class="cls-31" d="M987.87,121.41c-.14-2.26-.22-4.51-.27-6.77C945.95,109.26,855.69,97,789.2,84.12,852,86.55,953,86.55,953,86.55l-6.19-8.37c-38.31,10.63-146,2.37-195.64-2.23-4.05-1-7.88-2-11.45-2.93-70.09-19.1-171-4-215.87,8.62-57.28,2.27-131.91-1.12-187-4.59L309.3,73C169.82,52.6,5.6,117.53,2.44,117.53v12.86l-6-.25q-.87,4.67-2.13,9.25c0,.94.07,1.88.11,2.83a97.06,97.06,0,0,0,14.31.11c29.81,1.95,68.29.93,115.64-7.08,99.77-16.87,140.31-11.54,153.84-8.11-12.78-3.58-47.75-10.1-114.09-.76-36.06,5.08-82.09,5.89-123.73,5.13,60.36-19.64,177.72-52.61,239.94-35.25,86.13,24,200,18.69,299.74,0,84.22-15.79,333.08,27.45,408.43,41.27C988.48,132.18,988.21,126.83,987.87,121.41Zm-859-25.16c-1.57-2.44,18-19,46.31-14.61S134.31,104.66,128.91,96.25Zm96.46-12.41c-16.6,5.29-34.8,3.21-20.44-2.21C208,80.49,242,78.56,225.37,83.84Zm77.09,2s67.18,4.93,71,10.55S267.72,89.49,302.46,85.87ZM513,85c-25.38,8.89-46.09,9.56-101.25,2.57a873.75,873.75,0,0,0,101.66-2.7Zm67.1.88c-25.42,1,72.79-16.17,92.85-7.54S633,83.84,580.1,85.89Z" transform="translate(16.8 134.95)"/><path id="_Path_25" data-name="&lt;Path&gt;" class="cls-31" d="M278.23,127.14a45.84,45.84,0,0,1,5.76,1.93A28.06,28.06,0,0,0,278.23,127.14Z" transform="translate(16.8 134.95)"/></g><path class="cls-32" d="M191.35,61.12l-1.32.24-.29-1.07a.47.47,0,0,0-.55-.29.38.38,0,0,0-.35.45l.29,1.07-1.31.24a.38.38,0,0,0-.35.45.47.47,0,0,0,.55.29l1.32-.24.29,1.07a.47.47,0,0,0,.55.29.48.48,0,0,0,.27-.14.32.32,0,0,0,.09-.31l-.29-1.07,1.31-.24a.48.48,0,0,0,.27-.14.32.32,0,0,0,.09-.31A.47.47,0,0,0,191.35,61.12Z" transform="translate(16.8 134.95)"/><ellipse class="cls-28" cx="211.84" cy="311.67" rx="2.61" ry="2.12"/><ellipse class="cls-28" cx="346.61" cy="219.33" rx="1.44" ry="1.17"/><ellipse class="cls-28" cx="153.23" cy="405.56" rx="1.44" ry="1.17"/><path class="cls-32" d="M470.9,205.72l-1.32.24-.29-1.07a.47.47,0,0,0-.55-.29.38.38,0,0,0-.35.45l.29,1.07-1.31.24a.38.38,0,0,0-.35.45.47.47,0,0,0,.55.29l1.32-.24.29,1.07a.47.47,0,0,0,.55.29.48.48,0,0,0,.27-.14.32.32,0,0,0,.09-.31l-.29-1.07,1.31-.24a.48.48,0,0,0,.27-.14.32.32,0,0,0,.09-.31A.47.47,0,0,0,470.9,205.72Z" transform="translate(16.8 134.95)"/><path class="cls-32" d="M218.19,20.28l-1.57-.46.56-1.27a.45.45,0,0,0-.35-.6.62.62,0,0,0-.73.28l-.56,1.27L214,19.05a.62.62,0,0,0-.73.28.45.45,0,0,0,.35.6l1.57.46-.56,1.27a.45.45,0,0,0,.35.6.7.7,0,0,0,.39,0,.53.53,0,0,0,.34-.28l.56-1.27,1.57.46a.7.7,0,0,0,.39,0,.53.53,0,0,0,.34-.28A.45.45,0,0,0,218.19,20.28Z" transform="translate(16.8 134.95)"/><path class="cls-32" d="M43.13,145.41l-.88.35-.43-.71a.38.38,0,0,0-.45-.12.25.25,0,0,0-.15.37l.43.71-.88.35a.25.25,0,0,0-.15.37.38.38,0,0,0,.45.12l.88-.35.43.71a.38.38,0,0,0,.45.12.31.31,0,0,0,.16-.13.23.23,0,0,0,0-.23l-.43-.71.88-.35a.31.31,0,0,0,.16-.13.23.23,0,0,0,0-.23A.38.38,0,0,0,43.13,145.41Z" transform="translate(16.8 134.95)"/><path class="cls-32" d="M121.63,176.51l-.88.35-.43-.71a.38.38,0,0,0-.45-.12.25.25,0,0,0-.15.37l.43.71-.88.35a.25.25,0,0,0-.15.37.38.38,0,0,0,.45.12l.88-.35.43.71a.38.38,0,0,0,.45.12.31.31,0,0,0,.16-.13.23.23,0,0,0,0-.23l-.43-.71.88-.35a.31.31,0,0,0,.16-.13.23.23,0,0,0,0-.23A.38.38,0,0,0,121.63,176.51Z" transform="translate(16.8 134.95)"/><path class="cls-32" d="M159.92,97.21l-.88.35-.43-.71a.38.38,0,0,0-.45-.12.25.25,0,0,0-.15.37l.43.71-.88.35a.25.25,0,0,0-.15.37.38.38,0,0,0,.45.12l.88-.35.43.71a.38.38,0,0,0,.45.12.31.31,0,0,0,.16-.13.23.23,0,0,0,0-.23l-.43-.71.88-.35a.31.31,0,0,0,.16-.13.23.23,0,0,0,0-.23A.38.38,0,0,0,159.92,97.21Z" transform="translate(16.8 134.95)"/><path class="cls-32" d="M766,80.18l1.1-.76.71.85a.47.47,0,0,0,.62,0,.38.38,0,0,0,.13-.56l-.71-.85,1.1-.76a.38.38,0,0,0,.13-.56.47.47,0,0,0-.62,0l-1.1.76-.71-.85a.47.47,0,0,0-.62,0,.48.48,0,0,0-.19.24.32.32,0,0,0,.05.32l.71.85-1.1.76a.48.48,0,0,0-.19.24.32.32,0,0,0,.05.32A.47.47,0,0,0,766,80.18Z" transform="translate(16.8 134.95)"/><path class="cls-32" d="M856.53,115.63l.65-.68.69.47a.38.38,0,0,0,.46-.07.25.25,0,0,0,0-.4l-.69-.47.65-.68a.25.25,0,0,0,0-.4.38.38,0,0,0-.46.07l-.65.68-.69-.47a.38.38,0,0,0-.46.07.31.31,0,0,0-.09.19.23.23,0,0,0,.1.21l.69.47-.65.68a.31.31,0,0,0-.09.19.23.23,0,0,0,.1.21A.38.38,0,0,0,856.53,115.63Z" transform="translate(16.8 134.95)"/><ellipse class="cls-28" cx="630.3" cy="116.13" rx="1.44" ry="1.17" transform="translate(25.05 405.41) rotate(-24.37)"/><ellipse class="cls-28" cx="729.6" cy="-133.3" rx="1.44" ry="1.17" transform="translate(136.83 424.16) rotate(-24.37)"/><path class="cls-32" d="M451.72,63.82l1.1-.76.71.85a.47.47,0,0,0,.62,0,.38.38,0,0,0,.13-.56l-.71-.85,1.1-.76a.38.38,0,0,0,.13-.56.47.47,0,0,0-.62,0l-1.1.76-.71-.85a.47.47,0,0,0-.62,0,.48.48,0,0,0-.19.24.32.32,0,0,0,.05.32l.71.85-1.1.76a.48.48,0,0,0-.19.24.32.32,0,0,0,.05.32A.47.47,0,0,0,451.72,63.82Z" transform="translate(16.8 134.95)"/><path class="cls-32" d="M758.43,128.45l1.62-.23v1.39a.45.45,0,0,0,.56.4.62.62,0,0,0,.55-.56v-1.39l1.61-.23a.62.62,0,0,0,.55-.56.45.45,0,0,0-.56-.4l-1.62.23v-1.39a.45.45,0,0,0-.56-.4.7.7,0,0,0-.35.16.53.53,0,0,0-.2.4v1.39l-1.61.23a.7.7,0,0,0-.35.16.53.53,0,0,0-.2.4A.45.45,0,0,0,758.43,128.45Z" transform="translate(16.8 134.95)"/><path class="cls-32" d="M623.78,149.38l.65-.68.69.47a.38.38,0,0,0,.46-.07.25.25,0,0,0,0-.4l-.69-.47.65-.68a.25.25,0,0,0,0-.4.38.38,0,0,0-.46.07l-.65.68-.69-.47a.38.38,0,0,0-.46.07.31.31,0,0,0-.09.19.23.23,0,0,0,.1.21l.69.47-.65.68a.31.31,0,0,0-.09.19.23.23,0,0,0,.1.21A.38.38,0,0,0,623.78,149.38Z" transform="translate(16.8 134.95)"/><path class="cls-32" d="M779.76,34.34l.65-.68.69.47a.38.38,0,0,0,.46-.07.25.25,0,0,0,0-.4l-.69-.47.65-.68a.25.25,0,0,0,0-.4.38.38,0,0,0-.46.07l-.65.68-.69-.47a.38.38,0,0,0-.46.07.31.31,0,0,0-.09.19.23.23,0,0,0,.1.21l.69.47-.65.68a.31.31,0,0,0-.09.19.23.23,0,0,0,.1.21A.38.38,0,0,0,779.76,34.34Z" transform="translate(16.8 134.95)"/><path class="cls-33" d="M971.45,23.86a2.39,2.39,0,0,1,1.52-3,2.46,2.46,0,0,1,3.3.85,2.39,2.39,0,0,1-1.52,3A2.46,2.46,0,0,1,971.45,23.86Z" transform="translate(16.8 134.95)"/><path class="cls-34" d="M898.46,5.53l.66-.68.7.47a.39.39,0,0,0,.47-.07.25.25,0,0,0,0-.4l-.7-.47.66-.68a.25.25,0,0,0,0-.4.39.39,0,0,0-.47.07l-.66.68-.7-.47a.39.39,0,0,0-.47.07.31.31,0,0,0-.09.19.23.23,0,0,0,.1.21l.7.47L898,5.2a.31.31,0,0,0-.09.19.23.23,0,0,0,.1.21A.39.39,0,0,0,898.46,5.53Z" transform="translate(16.8 134.95)"/><path class="cls-34" d="M813,9.59l.66-.68.7.47a.39.39,0,0,0,.47-.07.25.25,0,0,0,0-.4l-.7-.47.66-.68a.25.25,0,0,0,0-.4.39.39,0,0,0-.47.07l-.66.68-.7-.47a.39.39,0,0,0-.47.07.31.31,0,0,0-.09.19.23.23,0,0,0,.1.21l.7.47-.66.68a.31.31,0,0,0-.09.19.23.23,0,0,0,.1.21A.39.39,0,0,0,813,9.59Z" transform="translate(16.8 134.95)"/><path id="_Path_26" data-name="&lt;Path&gt;" class="cls-18" d="M427.73,37.71s1.05-28.54-25.33-20.22c0,0,.49-20.75-38-19.5-41.61,1.35-28,24.57-28,24.57s-19.3-6-26.78,0c-3.93,3.11-5.58,9-6.26,13.88-22-10.91-39,6.75-33.12,8s32.69,0,32.69,0,16.54,2.24,25.6,0c0,0,32.29,5.19,66.95,1,0,0,16.15,3.24,32.29.32,0,0,22.45.6,30.32-1.32S445.1,28.5,427.73,37.71Z" transform="translate(16.8 134.95)"/><g id="_Group_10" data-name="&lt;Group&gt;"><path id="_Path_27" data-name="&lt;Path&gt;" class="cls-35" d="M423.12,43.58c-11.37,4.79-36-7.79-36-7.79a17.3,17.3,0,0,1-5.79,2.88,24.69,24.69,0,0,1-18.77-2.09c-41.29-23.13-.58-38.4-.36-38.51C328.56-.13,333.77,16.84,335.8,21.42a37.16,37.16,0,0,0,8.38,8.24c-15.88-10.48-28.76-9.36-29.63-9.27a11.87,11.87,0,0,0-5,2.13c-3.92,3.1-5.57,9-6.25,13.85a35.78,35.78,0,0,0,1,3.91,34.17,34.17,0,0,0-8.51-6.61C277.65,29.4,265,43.29,270.2,44.42c5.91,1.28,32.69,0,32.69,0s16.54,2.24,25.6,0c0,0,32.29,5.19,66.95,1,0,0,16.15,3.24,32.29.32,0,0,10.31.28,19.4-.14C437.1,45.64,423.12,43.58,423.12,43.58Z" transform="translate(16.8 134.95)"/><polygon id="_Path_28" data-name="&lt;Path&gt;" class="cls-36" points="470.17 180.11 470.17 180.11 470.17 180.11 470.17 180.11"/></g><path id="_Path_29" data-name="&lt;Path&gt;" class="cls-21" d="M427.73,37.71s1.05-27-25.33-18.67c0,0-1.75-14.72-23.27-19.84,5.2,2.68,24.51,4.71,21.36,19.84,0,0,16.43-3.62,25.22,20.64,0,0,20.82-11.78,32.35,4.74C465.93,42.51,445.1,28.5,427.73,37.71Z" transform="translate(16.8 134.95)"/><g id="_Group_11" data-name="&lt;Group&gt;"><path id="_Path_30" data-name="&lt;Path&gt;" class="cls-18" d="M482,52.08s-4.32-15.57-22.41-9.87c0,0,5.38-18.23-21-17.37-28.53.93-19.22,16.85-19.22,16.85s-13.23-4.08-18.36,0c-2.69,2.13-3.82,6.16-4.29,9.51C381.66,43.7,370,55.81,374,56.69s22.41,0,22.41,0,11.34,1.53,17.55,0a185.78,185.78,0,0,0,45.9.68,67.17,67.17,0,0,0,22.14.22s15.39.41,20.79-.9S493.94,45.77,482,52.08Z" transform="translate(16.8 134.95)"/><g id="_Group_12" data-name="&lt;Group&gt;"><path id="_Path_31" data-name="&lt;Path&gt;" class="cls-37" d="M478.87,56.1c-7.79,3.29-24.66-5.34-24.66-5.34a11.86,11.86,0,0,1-4,2,16.93,16.93,0,0,1-12.87-1.43c-28.31-15.86-.39-26.32-.24-26.4C414,26.14,417.61,37.77,419,40.91a25.48,25.48,0,0,0,5.75,5.65c-10.89-7.19-19.71-6.41-20.31-6.35A8.14,8.14,0,0,0,401,41.67c-2.69,2.13-3.82,6.15-4.29,9.49a24.52,24.52,0,0,0,.7,2.68,23.43,23.43,0,0,0-5.84-4.53c-12.47-2.93-21.15,6.6-17.58,7.37,4,.88,22.41,0,22.41,0s11.34,1.53,17.55,0a185.78,185.78,0,0,0,45.9.68,67.17,67.17,0,0,0,22.14.22s7.07.19,13.3-.1A135.86,135.86,0,0,1,478.87,56.1Z" transform="translate(16.8 134.95)"/><polygon id="_Path_32" data-name="&lt;Path&gt;" class="cls-38" points="516.41 192.14 516.41 192.14 516.41 192.14 516.41 192.14"/></g><path id="_Path_33" data-name="&lt;Path&gt;" class="cls-21" d="M482,52.08s-4.32-15.57-22.41-9.87c0,0,3.84-13-10.91-16.54,3.57,1.84,11.34,7.11,9.17,17.49,0,0,16.74-6.37,22.76,10.27,0,0,14.27-8.08,22.18,3.25C508.22,55.37,493.94,45.77,482,52.08Z" transform="translate(16.8 134.95)"/></g><path class="cls-18" d="M54.42,30.86S55.47,2.32,29.09,10.63c0,0,.2-8.5-9.75-14.3-7.4-.42-14.8-.8-22.21-1.08A21.89,21.89,0,0,1-2.73,9.45a84,84,0,0,0-3,10.26c-.27,1.24-.48,2.49-.71,3.73C-6.76,29-7,34.59-6.81,40.2a239.87,239.87,0,0,0,28.94-1.63s16.15,3.24,32.29.32c0,0,22.45.6,30.32-1.32S71.79,21.65,54.42,30.86Z" transform="translate(16.8 134.95)"/><g id="_Group_13" data-name="&lt;Group&gt;"><path class="cls-39" d="M49.81,36.72c-11.37,4.79-36-7.79-36-7.79A17.3,17.3,0,0,1,8,31.82a24.68,24.68,0,0,1-14.84-.35c-.09,2.9-.11,5.81,0,8.73a239.86,239.86,0,0,0,28.94-1.63s16.15,3.24,32.29.32c0,0,10.31.28,19.4-.14C63.79,38.79,49.81,36.72,49.81,36.72Z" transform="translate(16.8 134.95)"/><polygon id="_Path_34" data-name="&lt;Path&gt;" class="cls-40" points="96.86 173.26 96.86 173.26 96.86 173.26 96.86 173.26"/></g><path class="cls-21" d="M16.62-3.82l-.53,0A26.13,26.13,0,0,1,27.39,7.24C26.55,1.47,21.67-1.73,16.62-3.82Z" transform="translate(16.8 134.95)"/><path class="cls-21" d="M27.17,12.19A11.37,11.37,0,0,1,29.06,12a17.39,17.39,0,0,0-1.67-4.76A14.18,14.18,0,0,1,27.17,12.19Z" transform="translate(16.8 134.95)"/><path class="cls-21" d="M54.42,30.86s1-26.5-24.67-18.86c5,.08,16,2.47,22.64,20.83,0,0,20.82-11.78,32.35,4.74C92.62,35.65,71.79,21.65,54.42,30.86Z" transform="translate(16.8 134.95)"/><g id="_Group_14" data-name="&lt;Group&gt;"><path id="_Path_35" data-name="&lt;Path&gt;" class="cls-18" d="M113.53,196.27s-3.79-13.68-19.69-8.67c0,0,4.73-16-18.46-15.26-25.06.81-16.88,14.8-16.88,14.8s-11.62-3.58-16.13,0C40,189,39,192.54,38.61,195.48c-13.25-6.57-23.51,4.07-19.95,4.84s19.69,0,19.69,0,10,1.35,15.42,0a163.21,163.21,0,0,0,40.32.6,59,59,0,0,0,19.45.19s13.52.36,18.26-.79S124,190.72,113.53,196.27Z" transform="translate(16.8 134.95)"/><g id="_Group_15" data-name="&lt;Group&gt;"><path id="_Path_36" data-name="&lt;Path&gt;" class="cls-41" d="M110.76,199.8c-6.85,2.89-21.66-4.69-21.66-4.69a10.42,10.42,0,0,1-3.49,1.74,14.87,14.87,0,0,1-11.3-1.26c-24.87-13.93-.35-23.13-.21-23.19-20.28,1.08-17.15,11.3-15.92,14.06a22.38,22.38,0,0,0,5,5c-9.57-6.31-17.32-5.64-17.84-5.58a7.15,7.15,0,0,0-3,1.28C40,189,39,192.52,38.61,195.46a21.55,21.55,0,0,0,.62,2.36,20.58,20.58,0,0,0-5.13-4c-11-2.57-18.58,5.79-15.44,6.47,3.56.77,19.69,0,19.69,0s10,1.35,15.42,0a163.2,163.2,0,0,0,40.32.6,59,59,0,0,0,19.45.19s6.21.17,11.69-.09A119.35,119.35,0,0,1,110.76,199.8Z" transform="translate(16.8 134.95)"/><polygon id="_Path_37" data-name="&lt;Path&gt;" class="cls-42" points="145.78 335.71 145.78 335.71 145.78 335.71 145.78 335.71"/></g><path id="_Path_38" data-name="&lt;Path&gt;" class="cls-21" d="M113.53,196.27s-3.79-13.68-19.69-8.67c0,0,3.38-11.44-9.59-14.53,3.13,1.61,10,6.25,8.06,15.36,0,0,14.7-5.59,20,9,0,0,12.54-7.1,19.49,2.86C136.54,199.16,124,190.72,113.53,196.27Z" transform="translate(16.8 134.95)"/></g></g></g></svg>