<svg xmlns="http://www.w3.org/2000/svg" xmlns:xlink="http://www.w3.org/1999/xlink" viewBox="0 0 1730.29 1160.54"><defs><style>.cls-1,.cls-15,.cls-30,.cls-35{fill:none;}.cls-2{isolation:isolate;}.cls-3{clip-path:url(#clip-path);}.cls-4{fill:url(#linear-gradient);}.cls-5{opacity:0.26;}.cls-6{fill:#688c7f;}.cls-7{opacity:0.09;}.cls-8{fill:#ad5236;}.cls-9{opacity:0.1;}.cls-10,.cls-17{opacity:0.5;}.cls-11{fill:#ce783f;}.cls-12{fill:#b4673e;}.cls-13{fill:#e49345;}.cls-14{fill:#9b5c3f;}.cls-15{stroke:#2d2d2d;stroke-width:3.4px;}.cls-15,.cls-34,.cls-36{stroke-miterlimit:10;}.cls-16{fill:#82820f;}.cls-17{fill:#492e17;}.cls-18{fill:url(#linear-gradient-2);}.cls-19{opacity:0.81;}.cls-20{fill:#ffe7e1;}.cls-21{fill:url(#linear-gradient-3);}.cls-22{fill:url(#linear-gradient-4);}.cls-23,.cls-31,.cls-33{fill:#fff;}.cls-24{fill:url(#linear-gradient-5);}.cls-25{fill:url(#linear-gradient-6);}.cls-26{fill:url(#linear-gradient-7);}.cls-27{fill:url(#linear-gradient-8);}.cls-28{fill:url(#linear-gradient-9);}.cls-29{fill:url(#linear-gradient-10);}.cls-30,.cls-34,.cls-35,.cls-36{stroke:#f9f9f9;}.cls-30,.cls-35{stroke-linecap:round;stroke-linejoin:round;}.cls-30{stroke-width:1.32px;}.cls-31,.cls-33{opacity:0.24;}.cls-31,.cls-32{mix-blend-mode:soft-light;}.cls-34,.cls-36{fill:#f9f9f9;}.cls-34{stroke-width:0.66px;}.cls-35{stroke-width:1.33px;}.cls-36{stroke-width:0.66px;}.cls-37{fill:url(#linear-gradient-11);}.cls-38{fill:url(#linear-gradient-12);}.cls-39{fill:url(#linear-gradient-13);}.cls-40{fill:url(#linear-gradient-14);}.cls-41{fill:url(#linear-gradient-15);}.cls-42{fill:url(#linear-gradient-16);}.cls-43{fill:url(#linear-gradient-17);}.cls-44{fill:url(#linear-gradient-18);}</style><clipPath id="clip-path" transform="translate(10.04 117.36)"><rect class="cls-1" x="124.25" y="78.5" width="1528.5" height="945"/></clipPath><linearGradient id="linear-gradient" x1="890.95" y1="-6.65" x2="890.95" y2="864.33" gradientUnits="userSpaceOnUse"><stop offset="0" stop-color="#186b91"/><stop offset="0.2" stop-color="#5f9cb6"/><stop offset="0.38" stop-color="#93c1d2"/><stop offset="0.51" stop-color="#b4d7e3"/><stop offset="0.58" stop-color="#c0e0e9"/><stop offset="0.63" stop-color="#c2dfe2"/><stop offset="0.72" stop-color="#c9dccf"/><stop offset="0.81" stop-color="#d3d7af"/><stop offset="0.92" stop-color="#e1d184"/><stop offset="1" stop-color="#edcb60"/></linearGradient><linearGradient id="linear-gradient-2" x1="892.99" y1="901.45" x2="892.99" y2="811.05" gradientUnits="userSpaceOnUse"><stop offset="0" stop-color="#bfa910"/><stop offset="1" stop-color="#cfa53d"/></linearGradient><linearGradient id="linear-gradient-3" x1="1301.17" y1="246.16" x2="1341.32" y2="121.26" gradientUnits="userSpaceOnUse"><stop offset="0" stop-color="#edcb60"/><stop offset="0.08" stop-color="#e1d184"/><stop offset="0.19" stop-color="#d3d7af"/><stop offset="0.28" stop-color="#c9dccf"/><stop offset="0.37" stop-color="#c2dfe2"/><stop offset="0.42" stop-color="#c0e0e9"/><stop offset="0.49" stop-color="#b4d7e3"/><stop offset="0.62" stop-color="#93c1d2"/><stop offset="0.8" stop-color="#5f9cb6"/><stop offset="1" stop-color="#186b91"/></linearGradient><linearGradient id="linear-gradient-4" x1="1462.82" y1="299.25" x2="1462.89" y2="299.03" xlink:href="#linear-gradient-3"/><linearGradient id="linear-gradient-5" x1="1430.64" y1="424.34" x2="1461.38" y2="328.7" xlink:href="#linear-gradient"/><linearGradient id="linear-gradient-6" x1="1556.78" y1="492.46" x2="1556.82" y2="492.35" gradientUnits="userSpaceOnUse"><stop offset="0" stop-color="#a085a5"/><stop offset="0.24" stop-color="#ac6d84" stop-opacity="0.67"/><stop offset="0.58" stop-color="#be4c55" stop-opacity="0.2"/><stop offset="0.62" stop-color="#c05057" stop-opacity="0.23"/><stop offset="0.68" stop-color="#c65b5c" stop-opacity="0.3"/><stop offset="0.75" stop-color="#cf6e64" stop-opacity="0.41"/><stop offset="0.83" stop-color="#dc8770" stop-opacity="0.57"/><stop offset="0.92" stop-color="#eda87e" stop-opacity="0.78"/><stop offset="1" stop-color="#ffcb8e"/></linearGradient><linearGradient id="linear-gradient-7" x1="471.28" y1="308.27" x2="498.29" y2="224.25" xlink:href="#linear-gradient"/><linearGradient id="linear-gradient-8" x1="583.3" y1="382.44" x2="583.37" y2="382.21" xlink:href="#linear-gradient"/><linearGradient id="linear-gradient-9" x1="921.99" y1="396.9" x2="971.16" y2="243.94" xlink:href="#linear-gradient-6"/><linearGradient id="linear-gradient-10" x1="1117.73" y1="435.53" x2="1117.79" y2="435.32" xlink:href="#linear-gradient-6"/><linearGradient id="linear-gradient-11" x1="673.7" y1="230.07" x2="718.54" y2="90.58" xlink:href="#linear-gradient"/><linearGradient id="linear-gradient-12" x1="853.08" y1="275.64" x2="853.15" y2="275.42" xlink:href="#linear-gradient"/><linearGradient id="linear-gradient-13" x1="797.69" y1="225.87" x2="828.43" y2="130.23" xlink:href="#linear-gradient"/><linearGradient id="linear-gradient-14" x1="923.83" y1="293.99" x2="923.87" y2="293.88" xlink:href="#linear-gradient-6"/><linearGradient id="linear-gradient-15" x1="102.61" y1="219.59" x2="147.45" y2="80.09" xlink:href="#linear-gradient"/><linearGradient id="linear-gradient-16" x1="281.99" y1="265.16" x2="282.06" y2="264.94" xlink:href="#linear-gradient"/><linearGradient id="linear-gradient-17" x1="244.81" y1="439.51" x2="271.81" y2="355.5" xlink:href="#linear-gradient"/><linearGradient id="linear-gradient-18" x1="356.82" y1="513.69" x2="356.89" y2="513.45" xlink:href="#linear-gradient"/></defs><title>largebg1</title><g class="cls-2"><g id="Layer_1" data-name="Layer 1"><g class="cls-3"><path class="cls-4" d="M1455.31,75C1218,75,981.23,68.87,744,65.61c-101.7-1.4-203.49-.49-305-4l-14.12-.49q-9.74-.32-19.47-.69C370.34,59.2,335.06,58,299.8,57.5c-7,1.71-14.29,3.21-21.68,4.58-19.22,3.56-40.35,4.39-60.55,5.56-11.92.69-23.86,1-35.86,1-19.37,0-38.72-.53-58.08-.79-2.61.47-5.27.88-8,1.19V1008.2h1550.6V75Z" transform="translate(10.04 117.36)"/><g id="Tees"><g class="cls-5"><path class="cls-6" d="M462.77,730.06a50.17,50.17,0,0,0,10.68,8.24c4.2,2.2,9.61,3.54,15.09,4.52,3.2.56,6.52,1,9.83,1.33v0c0-16.26,0-32.53,1-48.84a203.66,203.66,0,0,1,2.83-24.51l.28-1.81-.46-.51.57-.15,3.32-21.75,6-39-32-23.42L512.76,602l.59-3.88c1.15-8.09,2.16-16.18,3.08-24.27.43-4,.9-8.1,1.06-12.11a82.8,82.8,0,0,0-1.25-12,63.93,63.93,0,0,0-9.05-23.53,69.31,69.31,0,0,0-8.6-11c-1.68-1.76-3.44-3.49-5.22-5.21s-3.69-3.44-4.63-5.4c1,1.94,3.07,3.6,4.9,5.3s3.72,3.39,5.5,5.12a73.3,73.3,0,0,1,9.23,10.88,67,67,0,0,1,10.39,23.62,84.46,84.46,0,0,1,1.9,12.23c.05,4.12-.21,8.16-.43,12.23-.5,8.12-1.09,16.24-1.82,24.35l-4.9,48.67-1.9,18.91,37.78-10.3-38.23,14.79-.1,1a198.52,198.52,0,0,0-1.53,24.12c-.14,15.92.6,31.88,1.46,47.84l15.71-3.57,2.4,4.32-17.9,3.11,2.5,45.63c.12,2.71.29,5.41.42,8.12l14.77-4.6-14.63,8.27c0,.15,0,.29,0,.44.06,4.16-.13,8.28-.37,12.4-.52,8.23-1.52,16.39-2.67,24.54-2.35,16.31-5.44,32.47-9.14,48.72l-20-1.89c4.45-15.86,8.37-31.91,11.51-47.9,1.55-8,3-16,3.87-24,.44-4,.83-8,1-11.94s0-8.09.06-12.12l-.14-45.49c-3.81-.55-7.53-1.21-11.21-2.05-5.65-1.32-11.28-3-15.71-5.73a45.69,45.69,0,0,1-9.93-9,69.93,69.93,0,0,1-6.91-9.85A78.68,78.68,0,0,0,462.77,730.06Z" transform="translate(10.04 117.36)"/></g><g class="cls-5"><path class="cls-6" d="M618.7,699.55a52.07,52.07,0,0,0,10.68,9.64c4.2,2.58,9.61,4.15,15.09,5.3,3.2.66,6.52,1.17,9.83,1.56v0c0-19,0-38.09,1-57.19a277.66,277.66,0,0,1,2.83-28.7l.28-2.12-.46-.6.57-.18,3.32-25.47,6-45.64-32-27.42,32.87,20.85.59-4.55c1.15-9.47,2.16-18.94,3.08-28.42.43-4.73.9-9.49,1.06-14.18a113,113,0,0,0-1.25-14.1,83,83,0,0,0-9.05-27.55,80.72,80.72,0,0,0-8.6-12.84c-1.68-2.06-3.44-4.08-5.22-6.1s-3.69-4-4.63-6.33c1,2.27,3.07,4.22,4.9,6.21s3.72,4,5.5,6a83.91,83.91,0,0,1,9.23,12.74,85.72,85.72,0,0,1,10.39,27.66,114.65,114.65,0,0,1,1.9,14.32c.05,4.82-.21,9.56-.43,14.32-.5,9.51-1.09,19-1.82,28.51l-4.9,57-1.9,22.14,37.78-12.06-38.23,17.31-.1,1.12A271.66,271.66,0,0,0,665.44,659c-.14,18.63.6,37.33,1.46,56l15.71-4.18,2.4,5.05-17.9,3.64,2.5,53.42c.12,3.18.29,6.33.42,9.5l14.77-5.39-14.63,9.68c0,.17,0,.34,0,.52.06,4.87-.13,9.7-.37,14.52-.52,9.63-1.52,19.19-2.67,28.74-2.35,19.1-5.44,38-9.14,57l-20-2.21c4.45-18.57,8.37-37.36,11.51-56.09,1.55-9.37,3-18.76,3.87-28.11.44-4.67.83-9.34,1-14s0-9.47.06-14.19l-.14-53.27c-3.81-.64-7.53-1.42-11.21-2.4-5.65-1.55-11.28-3.52-15.71-6.71A49.3,49.3,0,0,1,617.46,700a83.33,83.33,0,0,1-6.91-11.53A89.72,89.72,0,0,0,618.7,699.55Z" transform="translate(10.04 117.36)"/></g><g class="cls-7"><path class="cls-8" d="M643.46,774.85a52.05,52.05,0,0,1-10.68,5.78,72,72,0,0,1-15.09,3.18c-3.2.4-6.52.7-9.83.93v0c0-11.41,0-22.83-1-34.28a102.48,102.48,0,0,0-2.83-17.2l-.28-1.27.46-.36-.57-.11-3.32-15.27-6-27.36,32-16.44-32.87,12.5-.59-2.73c-1.15-5.68-2.16-11.36-3.08-17-.43-2.84-.9-5.69-1.06-8.5a41.52,41.52,0,0,1,1.25-8.45,38.11,38.11,0,0,1,9.05-16.51,56,56,0,0,1,8.6-7.7c1.68-1.23,3.44-2.45,5.22-3.66s3.69-2.41,4.63-3.79c-1,1.36-3.07,2.53-4.9,3.72s-3.72,2.38-5.5,3.6a61.76,61.76,0,0,0-9.23,7.64,41.68,41.68,0,0,0-10.39,16.58,43.19,43.19,0,0,0-1.9,8.58c-.05,2.89.21,5.73.43,8.58.5,5.7,1.09,11.4,1.82,17.09l4.9,34.16,1.9,13.27-37.78-7.23,38.23,10.38.1.67a98.51,98.51,0,0,1,1.53,16.93c.14,11.17-.6,22.38-1.46,33.58l-15.71-2.5-2.4,3,17.9,2.18-2.5,32c-.12,1.9-.29,3.8-.42,5.7l-14.77-3.23,14.63,5.8c0,.1,0,.21,0,.31a84.43,84.43,0,0,0,.37,8.7A159.48,159.48,0,0,0,595,853.36a319.46,319.46,0,0,0,9.14,34.2l20-1.32a332.49,332.49,0,0,1-11.51-33.62,161.78,161.78,0,0,1-3.87-16.85,82.82,82.82,0,0,1-1-8.38c-.17-2.8,0-5.68-.06-8.51l.14-31.93c3.81-.38,7.53-.85,11.21-1.44,5.65-.93,11.28-2.11,15.71-4a43.85,43.85,0,0,0,9.93-6.34,53.4,53.4,0,0,0,6.91-6.91A66.93,66.93,0,0,1,643.46,774.85Z" transform="translate(10.04 117.36)"/></g><g class="cls-9"><path class="cls-8" d="M381.51,787a31.67,31.67,0,0,1-6.8,4.39,32.91,32.91,0,0,1-9.11,2.06c-1.9.2-3.86.33-5.82.4h0c1.17-9.47,2.27-18.95,2.84-28.48A118,118,0,0,0,362.7,751l0-1.06.31-.28-.32-.11-.41-12.79-.73-22.93,20.29-12.41-20.4,9.11-.07-2.28c-.1-4.75-.12-9.51-.09-14.25,0-2.37,0-4.75.24-7.09a49.7,49.7,0,0,1,1.58-7A39.7,39.7,0,0,1,370,666.54a43.93,43.93,0,0,1,5.78-6.06c1.1-1,2.25-1.9,3.41-2.84a14.28,14.28,0,0,0,3.08-3,15,15,0,0,1-3.23,2.9c-1.21.91-2.41,1.83-3.56,2.77a46.49,46.49,0,0,0-6.14,6,41.79,41.79,0,0,0-7.71,13.36,51.08,51.08,0,0,0-2,7c-.32,2.39-.45,4.76-.61,7.14-.28,4.75-.51,9.5-.65,14.25l-.57,28.53-.22,11.08-21.28-7.45,21.23,10.08v.56a116,116,0,0,1-.81,14.11c-1,9.27-2.59,18.54-4.22,27.81l-8.9-2.68-1.7,2.42,10.2,2.5-4.67,26.48c-.26,1.57-.55,3.14-.81,4.71L338.36,823l7.94,5.38c0,.09,0,.17,0,.26-.33,2.42-.51,4.83-.66,7.24-.28,4.81-.27,9.6-.17,14.4.22,9.59.89,19.12,1.9,28.72l11.76-.33c-1.48-9.41-2.63-18.9-3.34-28.34-.34-4.72-.59-9.44-.57-14.13,0-2.34.08-4.68.27-7s.55-4.71.82-7.06l3.28-26.49c2.26-.17,4.47-.42,6.67-.76a33.21,33.21,0,0,0,9.55-2.73,28.94,28.94,0,0,0,6.42-4.88,44.26,44.26,0,0,0,4.72-5.47A49.91,49.91,0,0,1,381.51,787Z" transform="translate(10.04 117.36)"/></g><g class="cls-5"><path class="cls-6" d="M362.78,760.55a37.36,37.36,0,0,1-8,6.13,40.27,40.27,0,0,1-11.24,3.37c-2.38.42-4.85.74-7.32,1v0c0-12.11,0-24.22-.77-36.37a151.65,151.65,0,0,0-2.11-18.25l-.21-1.35.35-.38-.42-.12-2.48-16.2-4.44-29L350,651.91l-24.48,13.26-.44-2.89c-.85-6-1.6-12-2.29-18.07-.32-3-.67-6-.79-9a61.66,61.66,0,0,1,.93-9,47.6,47.6,0,0,1,6.74-17.52,51.61,51.61,0,0,1,6.41-8.17c1.25-1.31,2.56-2.6,3.89-3.88a16.77,16.77,0,0,0,3.45-4,17.55,17.55,0,0,1-3.65,3.95c-1.4,1.26-2.77,2.53-4.1,3.81a54.58,54.58,0,0,0-6.87,8.1,49.87,49.87,0,0,0-7.73,17.59,62.89,62.89,0,0,0-1.42,9.1c0,3.06.15,6.08.32,9.11.38,6,.81,12.09,1.36,18.13L325,698.67l1.42,14.08-28.13-7.67,28.47,11,.07.71a147.82,147.82,0,0,1,1.14,18c.1,11.85-.45,23.74-1.09,35.62l-11.7-2.66-1.78,3.21,13.33,2.32-1.86,34c-.09,2-.21,4-.31,6l-11-3.42L324.46,816c0,.11,0,.22,0,.33,0,3.1.09,6.17.27,9.23.38,6.13,1.13,12.21,2,18.28,1.75,12.14,4.05,24.18,6.81,36.28l14.86-1.4c-3.31-11.81-6.23-23.76-8.57-35.67-1.15-6-2.2-11.93-2.88-17.88-.33-3-.61-5.94-.73-8.89s0-6,0-9l.1-33.88c2.84-.41,5.61-.9,8.35-1.53a40.32,40.32,0,0,0,11.7-4.26,34,34,0,0,0,7.4-6.73,52.07,52.07,0,0,0,5.15-7.33A58.59,58.59,0,0,1,362.78,760.55Z" transform="translate(10.04 117.36)"/><path class="cls-6" d="M304.19,704.5l.65-.89c2.91-4-.13-8.67-6.76-10.41l-.65.89C294.52,698.06,297.56,702.75,304.19,704.5Z" transform="translate(10.04 117.36)"/><path class="cls-6" d="M283.12,714.19l1.58.2c7.08.92,14.12-1.81,15.65-6.06h0l-1.58-.2C291.69,707.22,284.64,709.95,283.12,714.19Z" transform="translate(10.04 117.36)"/><path class="cls-6" d="M359.43,758.91l1.55.26c2-4.19-2.16-8.57-9.13-9.74l-1.55-.26C348.35,753.36,352.46,757.74,359.43,758.91Z" transform="translate(10.04 117.36)"/><path class="cls-6" d="M368.94,763l-5,.64h0c1.12,3.13,6.3,5.13,11.51,4.46l5-.64C379.33,764.35,374.15,762.35,368.94,763Z" transform="translate(10.04 117.36)"/><path class="cls-6" d="M311.54,809.13v-.9c0-3.07-4.19-5.59-9.31-5.59v.9C302.23,806.61,306.42,809.13,311.54,809.13Z" transform="translate(10.04 117.36)"/><path class="cls-6" d="M301,817.31l1.48.11c5.08.36,9.74-1.84,10.35-4.89l-1.48-.11C306.23,812.06,301.57,814.26,301,817.31Z" transform="translate(10.04 117.36)"/></g><g class="cls-10"><path class="cls-6" d="M914.64,711.15A54.16,54.16,0,0,1,903.11,720c-4.54,2.38-10.38,3.83-16.29,4.88-3.46.61-7,1.08-10.61,1.44v0c0-17.55,0-35.12-1.11-52.72A219.85,219.85,0,0,0,872,647.16l-.3-2,.5-.55-.61-.17L868,621l-6.43-42.07,34.56-25.28-35.49,19.23-.64-4.19c-1.24-8.73-2.33-17.47-3.32-26.2-.47-4.36-1-8.75-1.14-13.07a89.38,89.38,0,0,1,1.35-13,69,69,0,0,1,9.77-25.4A74.82,74.82,0,0,1,876,479.18c1.82-1.9,3.71-3.77,5.64-5.63s4-3.71,5-5.83c-1.12,2.1-3.32,3.89-5.29,5.72s-4,3.66-5.94,5.53a79.12,79.12,0,0,0-10,11.74,72.3,72.3,0,0,0-11.21,25.5,91.17,91.17,0,0,0-2.05,13.2c-.06,4.44.22,8.81.46,13.2.54,8.77,1.18,17.53,2,26.29l5.29,52.54,2.06,20.41-40.78-11.12,41.27,16,.1,1a214.3,214.3,0,0,1,1.65,26c.15,17.18-.65,34.41-1.58,51.64l-17-3.85-2.59,4.66,19.32,3.36-2.7,49.25c-.13,2.93-.31,5.84-.45,8.76l-15.94-5,15.79,8.93c0,.16,0,.32,0,.48-.06,4.49.14,8.94.4,13.38.56,8.88,1.64,17.69,2.89,26.49,2.54,17.61,5.88,35.05,9.87,52.59l21.55-2c-4.8-17.12-9-34.44-12.43-51.71-1.67-8.64-3.19-17.29-4.18-25.91-.48-4.31-.89-8.61-1.05-12.89s0-8.73-.06-13.09l.15-49.11c4.11-.59,8.13-1.31,12.1-2.21,6.1-1.43,12.18-3.25,17-6.18A49.32,49.32,0,0,0,916,711.6,75.49,75.49,0,0,0,923.43,701,84.93,84.93,0,0,1,914.64,711.15Z" transform="translate(10.04 117.36)"/><path class="cls-6" d="M829.7,629.89l.94-1.28c4.22-5.77-.19-12.56-9.81-15.1l-.94,1.28C815.67,620.56,820.09,627.36,829.7,629.89Z" transform="translate(10.04 117.36)"/><path class="cls-6" d="M799.15,644l2.28.3c10.26,1.33,20.47-2.63,22.68-8.79h0l-2.28-.3C811.57,633.84,801.36,637.79,799.15,644Z" transform="translate(10.04 117.36)"/><path class="cls-6" d="M909.78,708.78l2.25.38c2.83-6.07-3.13-12.42-13.24-14.12l-2.25-.38C893.72,700.72,899.67,707.08,909.78,708.78Z" transform="translate(10.04 117.36)"/><path class="cls-6" d="M923.57,714.73l-7.22.93h0c1.63,4.53,9.14,7.44,16.68,6.46l7.22-.93C938.62,716.66,931.11,713.75,923.57,714.73Z" transform="translate(10.04 117.36)"/><path class="cls-6" d="M840.35,781.57v-1.3c0-4.46-6.07-8.1-13.5-8.1v1.3C826.85,777.93,832.92,781.57,840.35,781.57Z" transform="translate(10.04 117.36)"/><path class="cls-6" d="M825,793.43l2.15.15c7.37.53,14.12-2.66,15-7.09l-2.15-.15C832.65,785.82,825.9,789,825,793.43Z" transform="translate(10.04 117.36)"/></g><path class="cls-6" d="M170.79,717.29a54.16,54.16,0,0,1-11.53,8.89c-4.54,2.38-10.38,3.83-16.29,4.88-3.46.61-7,1.08-10.61,1.44v0c0-17.55,0-35.12-1.11-52.72a219.85,219.85,0,0,0-3.06-26.46l-.3-2,.5-.55-.61-.17-3.59-23.48-6.43-42.07,34.56-25.28L116.84,579l-.64-4.19c-1.24-8.73-2.33-17.47-3.32-26.2-.47-4.36-1-8.75-1.14-13.07a89.38,89.38,0,0,1,1.35-13,69,69,0,0,1,9.77-25.4,74.82,74.82,0,0,1,9.29-11.84c1.82-1.9,3.71-3.77,5.64-5.63s4-3.71,5-5.83c-1.12,2.1-3.32,3.89-5.29,5.72s-4,3.66-5.94,5.53a79.12,79.12,0,0,0-10,11.74,72.3,72.3,0,0,0-11.21,25.5,91.17,91.17,0,0,0-2.05,13.2c-.06,4.44.22,8.81.46,13.2.54,8.77,1.18,17.53,2,26.29L116,627.58,118.1,648,77.32,636.87l41.27,16,.1,1a214.3,214.3,0,0,1,1.65,26c.15,17.18-.65,34.41-1.58,51.64l-17-3.85-2.59,4.66,19.32,3.36L115.84,785c-.13,2.93-.31,5.84-.45,8.76l-15.94-5,15.79,8.93c0,.16,0,.32,0,.48-.06,4.49.14,8.94.4,13.38.56,8.88,1.64,17.69,2.89,26.49,2.54,17.61,5.88,35.05,9.87,52.59l21.55-2c-4.8-17.12-9-34.44-12.43-51.71-1.67-8.64-3.19-17.29-4.18-25.91-.48-4.31-.89-8.61-1.05-12.89s0-8.73-.06-13.09l.15-49.11c4.11-.59,8.13-1.31,12.1-2.21,6.1-1.43,12.18-3.25,17-6.18a49.32,49.32,0,0,0,10.72-9.75,75.49,75.49,0,0,0,7.46-10.63A84.93,84.93,0,0,1,170.79,717.29Z" transform="translate(10.04 117.36)"/><path class="cls-6" d="M85.86,636l.94-1.28C91,629,86.61,622.18,77,619.65l-.94,1.28C71.83,626.7,76.25,633.49,85.86,636Z" transform="translate(10.04 117.36)"/><path class="cls-6" d="M55.31,650.09l2.28.3c10.26,1.33,20.47-2.63,22.68-8.79h0L78,641.3C67.73,640,57.52,643.93,55.31,650.09Z" transform="translate(10.04 117.36)"/><path class="cls-6" d="M165.94,714.91l2.25.38c2.83-6.07-3.13-12.42-13.24-14.12l-2.25-.38C149.87,706.86,155.83,713.21,165.94,714.91Z" transform="translate(10.04 117.36)"/><path class="cls-6" d="M179.72,720.87l-7.22.93h0c1.63,4.53,9.14,7.44,16.68,6.46l7.22-.93C194.78,722.8,187.27,719.89,179.72,720.87Z" transform="translate(10.04 117.36)"/><path class="cls-6" d="M96.51,787.71v-1.3c0-4.46-6.07-8.1-13.5-8.1v1.3C83,784.06,89.08,787.71,96.51,787.71Z" transform="translate(10.04 117.36)"/><path class="cls-6" d="M81.18,799.57l2.15.15c7.37.53,14.12-2.66,15-7.09l-2.15-.15C88.81,792,82.06,795.14,81.18,799.57Z" transform="translate(10.04 117.36)"/><g class="cls-5"><path class="cls-6" d="M889.55,692.87a52.07,52.07,0,0,0,10.68,9.64c4.2,2.58,9.61,4.15,15.09,5.3,3.2.66,6.52,1.17,9.83,1.56v0c0-19,0-38.09,1-57.19a277.66,277.66,0,0,1,2.83-28.7l.28-2.12-.46-.6.57-.18,3.32-25.47,6-45.64-32-27.42,32.87,20.85.59-4.55c1.15-9.47,2.16-18.94,3.08-28.42.43-4.73.9-9.49,1.06-14.18a113,113,0,0,0-1.25-14.1A83,83,0,0,0,934,454.1a80.72,80.72,0,0,0-8.6-12.84c-1.68-2.06-3.44-4.08-5.22-6.1s-3.69-4-4.63-6.33c1,2.27,3.07,4.22,4.9,6.21s3.72,4,5.5,6a83.91,83.91,0,0,1,9.23,12.74,85.72,85.72,0,0,1,10.39,27.66,114.65,114.65,0,0,1,1.9,14.32c.05,4.82-.21,9.56-.43,14.32-.5,9.51-1.09,19-1.82,28.51l-4.9,57-1.9,22.14,37.78-12.06-38.23,17.31-.1,1.12a271.66,271.66,0,0,0-1.53,28.24c-.14,18.63.6,37.33,1.46,56l15.71-4.18,2.4,5.05L938,712.85l2.5,53.42c.12,3.18.29,6.33.42,9.5l14.77-5.39L941,780.07c0,.17,0,.34,0,.52.06,4.87-.13,9.7-.37,14.52-.52,9.63-1.52,19.19-2.67,28.74-2.35,19.1-5.44,38-9.14,57l-20-2.21c4.45-18.57,8.37-37.36,11.51-56.09,1.55-9.37,3-18.76,3.87-28.11.44-4.67.83-9.34,1-14s0-9.47.06-14.19L925.17,713c-3.81-.64-7.53-1.42-11.21-2.4-5.65-1.55-11.28-3.52-15.71-6.71a49.3,49.3,0,0,1-9.93-10.58,83.33,83.33,0,0,1-6.91-11.53A89.72,89.72,0,0,0,889.55,692.87Z" transform="translate(10.04 117.36)"/></g><g class="cls-5"><path class="cls-6" d="M1188.84,691.52a52.07,52.07,0,0,0,10.68,9.64c4.2,2.58,9.61,4.15,15.09,5.3,3.2.66,6.52,1.17,9.83,1.56v0c0-19,0-38.09,1-57.19a277.66,277.66,0,0,1,2.83-28.7l.28-2.12-.46-.6.57-.18,3.32-25.47,6-45.64-32-27.42,32.87,20.85.59-4.55c1.15-9.47,2.16-18.94,3.08-28.42.43-4.73.9-9.49,1.06-14.18a113,113,0,0,0-1.25-14.1,83,83,0,0,0-9.05-27.55,80.72,80.72,0,0,0-8.6-12.84c-1.68-2.06-3.44-4.08-5.22-6.1s-3.69-4-4.63-6.33c1,2.27,3.07,4.22,4.9,6.21s3.72,4,5.5,6a83.91,83.91,0,0,1,9.23,12.74,85.72,85.72,0,0,1,10.39,27.66,114.65,114.65,0,0,1,1.9,14.32c.05,4.82-.21,9.56-.43,14.32-.5,9.51-1.09,19-1.82,28.51l-4.9,57-1.9,22.14,37.78-12.06L1237.2,621.6l-.1,1.12a271.66,271.66,0,0,0-1.53,28.24c-.14,18.63.6,37.33,1.46,56l15.71-4.18,2.4,5.05-17.9,3.64,2.5,53.42c.12,3.18.29,6.33.42,9.5l14.77-5.39-14.63,9.68c0,.17,0,.34,0,.52.06,4.87-.13,9.7-.37,14.52-.52,9.63-1.52,19.19-2.67,28.74-2.35,19.1-5.44,38-9.14,57l-20-2.21c4.45-18.57,8.37-37.36,11.51-56.09,1.55-9.37,3-18.76,3.87-28.11.44-4.67.83-9.34,1-14s0-9.47.06-14.19l-.14-53.27c-3.81-.64-7.53-1.42-11.21-2.4-5.65-1.55-11.28-3.52-15.71-6.71A49.3,49.3,0,0,1,1187.6,692a83.33,83.33,0,0,1-6.91-11.53A89.72,89.72,0,0,0,1188.84,691.52Z" transform="translate(10.04 117.36)"/></g><g class="cls-7"><path class="cls-8" d="M1227.86,770.63a52.05,52.05,0,0,1-10.68,5.78,72,72,0,0,1-15.09,3.18c-3.2.4-6.52.7-9.83.93v0c0-11.41,0-22.83-1-34.28a102.48,102.48,0,0,0-2.83-17.2l-.28-1.27.46-.36-.57-.11L1184.69,712l-6-27.36,32-16.44-32.87,12.5-.59-2.73c-1.15-5.68-2.16-11.36-3.08-17-.43-2.84-.9-5.69-1.06-8.5a41.52,41.52,0,0,1,1.25-8.45,38.11,38.11,0,0,1,9.05-16.51,56,56,0,0,1,8.6-7.7c1.68-1.23,3.44-2.45,5.22-3.66s3.69-2.41,4.63-3.79c-1,1.36-3.07,2.53-4.9,3.72s-3.72,2.38-5.5,3.6a61.76,61.76,0,0,0-9.23,7.64,41.68,41.68,0,0,0-10.39,16.58,43.19,43.19,0,0,0-1.9,8.58c-.05,2.89.21,5.73.43,8.58.5,5.7,1.09,11.4,1.82,17.09l4.9,34.16,1.9,13.27-37.78-7.23,38.23,10.38.1.67a98.51,98.51,0,0,1,1.53,16.93c.14,11.17-.6,22.38-1.46,33.58l-15.71-2.5-2.4,3,17.9,2.18-2.5,32c-.12,1.9-.29,3.8-.42,5.7l-14.77-3.23,14.63,5.8c0,.1,0,.21,0,.31a84.43,84.43,0,0,0,.37,8.7,159.48,159.48,0,0,0,2.67,17.23,319.46,319.46,0,0,0,9.14,34.2l20-1.32A332.49,332.49,0,0,1,1197,848.39a161.78,161.78,0,0,1-3.87-16.85,82.82,82.82,0,0,1-1-8.38c-.17-2.8,0-5.68-.06-8.51l.14-31.93c3.81-.38,7.53-.85,11.21-1.44,5.65-.93,11.28-2.11,15.71-4a43.85,43.85,0,0,0,9.93-6.34A53.4,53.4,0,0,0,1236,764,66.93,66.93,0,0,1,1227.86,770.63Z" transform="translate(10.04 117.36)"/></g><g class="cls-7"><path class="cls-8" d="M1508.1,759.74a52.05,52.05,0,0,1-10.68,5.78,72,72,0,0,1-15.09,3.18c-3.2.4-6.52.7-9.83.93v0c0-11.41,0-22.83-1-34.28a102.48,102.48,0,0,0-2.83-17.2l-.28-1.27.46-.36-.57-.11-3.32-15.27-6-27.36,32-16.44-32.87,12.5-.59-2.73c-1.15-5.68-2.16-11.36-3.08-17-.43-2.84-.9-5.69-1.06-8.5a41.52,41.52,0,0,1,1.25-8.45,38.11,38.11,0,0,1,9.05-16.51,56,56,0,0,1,8.6-7.7c1.68-1.23,3.44-2.45,5.22-3.66s3.69-2.41,4.63-3.79c-1,1.36-3.07,2.53-4.9,3.72s-3.72,2.38-5.5,3.6a61.76,61.76,0,0,0-9.23,7.64A41.68,41.68,0,0,0,1452.13,633a43.19,43.19,0,0,0-1.9,8.58c-.05,2.89.21,5.73.43,8.58.5,5.7,1.09,11.4,1.82,17.09l4.9,34.16,1.9,13.27-37.78-7.23,38.23,10.38.1.67a98.51,98.51,0,0,1,1.53,16.93c.14,11.17-.6,22.38-1.46,33.58l-15.71-2.5-2.4,3,17.9,2.18-2.5,32c-.12,1.9-.29,3.8-.42,5.7L1442,806.21l14.63,5.8c0,.1,0,.21,0,.31a84.43,84.43,0,0,0,.37,8.7,159.48,159.48,0,0,0,2.67,17.23,319.46,319.46,0,0,0,9.14,34.2l20-1.32a332.49,332.49,0,0,1-11.51-33.62,161.78,161.78,0,0,1-3.87-16.85,82.82,82.82,0,0,1-1-8.38c-.17-2.8,0-5.68-.06-8.51l.14-31.93c3.81-.38,7.53-.85,11.21-1.44,5.65-.93,11.28-2.11,15.71-4a43.85,43.85,0,0,0,9.93-6.34,53.4,53.4,0,0,0,6.91-6.91A66.93,66.93,0,0,1,1508.1,759.74Z" transform="translate(10.04 117.36)"/></g><path class="cls-6" d="M1603.33,686.47a60.5,60.5,0,0,1-12.88,9.93c-5.07,2.65-11.59,4.27-18.2,5.46-3.86.68-7.86,1.2-11.86,1.6v0c0-19.61,0-39.23-1.24-58.9a245.62,245.62,0,0,0-3.41-29.56l-.33-2.18.56-.62-.68-.19-4-26.23-7.19-47,38.61-28.25L1543,532l-.72-4.68c-1.38-9.75-2.6-19.51-3.71-29.27-.52-4.87-1.09-9.77-1.27-14.6a99.86,99.86,0,0,1,1.51-14.53,77.1,77.1,0,0,1,10.92-28.37,83.59,83.59,0,0,1,10.38-13.23c2-2.12,4.15-4.21,6.3-6.29s4.45-4.15,5.59-6.52c-1.25,2.34-3.71,4.34-5.91,6.39s-4.49,4.09-6.64,6.18a88.4,88.4,0,0,0-11.13,13.12,80.77,80.77,0,0,0-12.53,28.49,101.86,101.86,0,0,0-2.29,14.75c-.07,5,.25,9.84.52,14.75.61,9.8,1.32,19.59,2.2,29.37l5.91,58.7,2.3,22.8-45.56-12.42L1545,614.45l.12,1.16a239.42,239.42,0,0,1,1.84,29.09c.17,19.19-.72,38.45-1.76,57.7l-18.95-4.3-2.89,5.2L1545,707l-3,55c-.15,3.27-.35,6.52-.51,9.79l-17.81-5.55,17.64,10c0,.18,0,.35,0,.53-.07,5,.15,10,.44,15,.62,9.92,1.84,19.77,3.22,29.6,2.84,19.67,6.57,39.16,11,58.75l24.08-2.27c-5.37-19.12-10.09-38.48-13.88-57.77-1.87-9.65-3.56-19.32-4.67-29-.53-4.81-1-9.62-1.18-14.4s0-9.75-.07-14.62l.16-54.87c4.59-.66,9.08-1.46,13.52-2.47,6.82-1.59,13.61-3.63,19-6.91a55.11,55.11,0,0,0,12-10.9,84.34,84.34,0,0,0,8.33-11.88A94.89,94.89,0,0,1,1603.33,686.47Z" transform="translate(10.04 117.36)"/><path class="cls-6" d="M1508.44,595.68l1-1.44c4.71-6.45-.22-14-11-16.87l-1,1.44C1492.77,585.26,1497.7,592.85,1508.44,595.68Z" transform="translate(10.04 117.36)"/><path class="cls-6" d="M1474.31,611.39l2.55.33c11.47,1.48,22.87-2.93,25.34-9.82h0l-2.55-.33C1488.18,600.09,1476.78,604.51,1474.31,611.39Z" transform="translate(10.04 117.36)"/><path class="cls-6" d="M1597.91,683.81l2.51.42c3.16-6.78-3.49-13.88-14.79-15.78l-2.51-.42C1580,674.82,1586.62,681.92,1597.91,683.81Z" transform="translate(10.04 117.36)"/><path class="cls-6" d="M1613.31,690.47l-8.06,1h0c1.82,5.06,10.21,8.31,18.64,7.22l8.06-1C1630.13,692.62,1621.74,689.37,1613.31,690.47Z" transform="translate(10.04 117.36)"/><path class="cls-6" d="M1520.33,765.14v-1.45c0-5-6.79-9.05-15.08-9.05v1.45C1505.25,761.07,1512,765.14,1520.33,765.14Z" transform="translate(10.04 117.36)"/><path class="cls-6" d="M1503.21,778.39l2.4.17c8.24.59,15.78-3,16.76-7.92l-2.4-.17C1511.74,769.89,1504.2,773.45,1503.21,778.39Z" transform="translate(10.04 117.36)"/></g><path class="cls-11" d="M101.57,902.19a57.86,57.86,0,0,1-11,18.52c5.87,8.56,9.11,17.78,9.11,26.77v94.61c4.71-.38,9.43-.59,14.11-.6,78.52-.14,156.57-6.61,235.09-6.75a172.64,172.64,0,0,1,54.9,8.44c41.41-3.53,82.82-6.81,124.68-8.44,94.92-3.69,190.36-2.25,285.43-2.25h292.5a172.31,172.31,0,0,1,57.25,9.3c173.23-8.45,347.4-9.29,521.14-9.3,1.83,0,3.64,0,5.44.08V902.19Z" transform="translate(10.04 117.36)"/><path class="cls-12" d="M109.71,999.08c-3.37.42-6.7.78-10,1.11v41c88.1-7.26,135.27-36.84,171.89-64.1,56.21-41.84,184.91-55.33,184.91-55.33C303.32,922.55,233.38,983.67,109.71,999.08Z" transform="translate(10.04 117.36)"/><path class="cls-12" d="M795.51,902.2s-178.63,17-188.88,62.75c-7.32,32.67-3.75,57-137.16,68.26a568.53,568.53,0,0,0-66.41,9.73l.75.24c41.41-3.53,82.82-6.81,124.67-8.44q25.81-1,51.67-1.54c30.29-11.61,56.88-32.45,69.19-78.16,13.54-50.26,209.11-45.14,209.11-45.14Z" transform="translate(10.04 117.36)"/><path id="_Path_" data-name="&lt;Path&gt;" class="cls-13" d="M222.14,896.27s11.13,5,4.5,31.25c-5.62,22.28-36,41.81-110.18,52.68,0,0,87.69,4.57,186.63-64.79Z" transform="translate(10.04 117.36)"/><path class="cls-13" d="M1472.31,902.2s-4.5,83.67-411.48,88.07C938.3,991.6,846,1008.91,776.75,1032.43q18.59.05,37.17.06H983c33.57-11.5,76.73-19.81,131.82-23.5C1492.55,983.67,1472.31,902.2,1472.31,902.2Z" transform="translate(10.04 117.36)"/><path id="_Path_2" data-name="&lt;Path&gt;" class="cls-12" d="M916.93,902.2S818,937.43,809,971.56s-134.91,34.13-161.89,57.25A1107.12,1107.12,0,0,1,757.29,1009c57.25-7.29,65.21-7,82.45-39.45,6.81-12.83-18-42,160.39-31.27,116,7,211.36-30.56,211.36-30.56L1135,902.2s-49.25,35.48-109,29.72S916.93,902.2,916.93,902.2Z" transform="translate(10.04 117.36)"/><path class="cls-12" d="M1285.94,1037c65-24.93,146.76-53.21,224.62-71.49,60.92-14.3,124.07-11,179.7-1v-44.1c-5.39-.12-11.08-.14-17,0h-.19c-23.32.55-50.43,3.19-82,8.92-58.54,10.61-132.24,31.8-224.44,69.76-35.46,14.6-68.2,27.35-98.43,38.48Z" transform="translate(10.04 117.36)"/><path class="cls-13" d="M1463.26,1033.47c20.63-5.24,43.06-11.2,67.5-17.87,53.88-14.7,110.52-11.42,159.49-2V981c-57.71-12-125.43-14.46-184.22,14.79a676.92,676.92,0,0,1-93.3,38.38Q1438,1033.75,1463.26,1033.47Z" transform="translate(10.04 117.36)"/><path class="cls-13" d="M417.76,982.3c-44.15,4.05-108.49,27.54-171.48,55.19q19.64-.82,39.28-1.5c50.11-18.25,98.49-33,134.45-38,119.84-16.6,159.64-70.46,159.64-70.46S534.68,971.56,417.76,982.3Z" transform="translate(10.04 117.36)"/><path class="cls-14" d="M99.71,959.67v9.52a36.54,36.54,0,0,0,21-3.43C131.77,960.61,113.19,958.58,99.71,959.67Z" transform="translate(10.04 117.36)"/><path id="_Path_3" data-name="&lt;Path&gt;" class="cls-14" d="M342.06,973.76s12-19.23,43.47-14.39,21,10.16,21,10.16S358.55,981.84,342.06,973.76Z" transform="translate(10.04 117.36)"/><path id="_Path_4" data-name="&lt;Path&gt;" class="cls-14" d="M969.38,957.46s-18.19,12.74,0,13.15S991.2,953.69,969.38,957.46Z" transform="translate(10.04 117.36)"/><path id="_Path_5" data-name="&lt;Path&gt;" class="cls-14" d="M864.95,960.91s10.59,6.88,25.3,0S854.36,954,864.95,960.91Z" transform="translate(10.04 117.36)"/><path id="_Path_6" data-name="&lt;Path&gt;" class="cls-14" d="M899.59,967.15s9.7-15.56,35.16-11.64,17,8.22,17,8.22S912.93,973.68,899.59,967.15Z" transform="translate(10.04 117.36)"/><path id="_Path_7" data-name="&lt;Path&gt;" class="cls-14" d="M398.41,945.14h0c-4.84,3.39-2.9,8.11,4.33,10.26,11.08,3.29,27.27,6.78,39.76,4,7-1.57,9.2-5.2,7.8-9.09C445.93,938.11,412.86,935,398.41,945.14Z" transform="translate(10.04 117.36)"/><path class="cls-15" d="M1120.85,1033c3.3.25,6.55.56,9.74,1,1.93-.29,3.21-1.25,2.79-2.28-1-2.42-5.31-4.17-10.35-4.17l-2.3,1.35C1118.53,1030.23,1118.91,1032,1120.85,1033Z" transform="translate(10.04 117.36)"/><path id="_Path_8" data-name="&lt;Path&gt;" class="cls-14" d="M946.1,965.94l-2.4,1.41c-3.66,2.16-.53,5.43,5.21,5.43h3.83c2.68,0,4.7-1.2,4.18-2.49h0c-1-2.53-5.55-4.35-10.81-4.35Z" transform="translate(10.04 117.36)"/><path class="cls-16" d="M862.34,880c-53.34,0-104.5,0-157.84-5.28-37.8-4.23-71.17-11.61-111.15-7.4-109,10.56-211.23,11.61-318,12.68-57.1.75-116.46,3.63-173.25,1a48.35,48.35,0,0,1,1.3,8c.77,10.42-4.33,21.72-12.84,31.73,1,1.4,1.82,2.81,2.63,4.24,43.92,1.94,89.34.66,134.06-.38,12.58-.29,25.12-.55,37.5-.71l26.14-.26c97.36-1,191.75-2.69,291.77-12.39,40-4.23,73.36,3.16,111.15,7.37.39,0,.73.07,1.12.1,6.07.62,12.15,1.14,18.17,1.59,46.49,3.59,91.67,3.59,138.55,3.59,4.86.1,9.76.17,14.62.21q58.73.93,117.13.69h0q53.41-.07,106.68-.81,35.41-.43,70.73-1c100.37-1.62,200.64-3.83,301.34-4.38h0c1.8,0,3.64,0,5.49,0,68.21-.36,136.61,0,205.3,1.9h.19c5.64.17,11.27.33,17,.52V876.7C1412.18,868.82,1139.15,884.88,862.34,880Z" transform="translate(10.04 117.36)"/><path class="cls-17" d="M1673.3,920.39h-.19c-68.69-1.86-137.09-2.26-205.3-1.9-1.85,0-3.69,0-5.49,0h0c-100.71.55-201,2.76-301.34,4.38q-35.34.61-70.73,1-53.27.68-106.68.81h0q-58.44.18-117.13-.69c-4.86,0-9.76-.12-14.62-.21-46.88,0-92.06,0-138.55-3.59-6-.45-12.1-1-18.17-1.59-.39,0-.73,0-1.12-.1-37.8-4.21-71.12-11.61-111.15-7.37-100,9.7-194.42,11.37-291.77,12.39l-26.14.26c-12.39.17-24.92.43-37.5.71-44.73,1-90.15,2.33-134.06.38a51.57,51.57,0,0,1,4.63,10.67c41.27,1.61,83.8.5,125.74-.46,13.85-.33,27.59-.64,41.2-.81l8.7-.1h0c25.21-.26,50.28-.52,75.15-.93h0q21.13-.36,42.22-.88h0c63.11-1.52,126.16-4.42,191.7-10.78,30.75-3.24,57.57.38,85.5,4.14,5.3.71,10.69,1.43,16.13,2.12,3.16.4,6.32.78,9.52,1.14,51.93,5.14,101.82,5.28,153.66,5.28h4.18c83.07,1.47,165.76,1,248.39,0h0c116.3-1.55,232.41-4.42,349-5.23,3.3,0,6.61,0,9.91,0q65.88-.46,132,.26,49.48.57,99.15,2.07V920.91C1684.57,920.72,1678.93,920.56,1673.3,920.39Z" transform="translate(10.04 117.36)"/><path class="cls-18" d="M1531.29,860.76l3.69-8.68-8,8.63q-44.45-.46-88.85-.45l20.26-25.19-24.82,25.19h-3.55l-4.42-42.1-6.85,40.44-19-13.49,5.49,15.22c-95.8.38-191.41,2.26-286.92,4.83l-8.16-6.76,2.82,6.9q-86.42,2.32-172.75,5.16a1169.15,1169.15,0,0,1-148.95-6.33c-38.52-3.66-76-6.8-113.82-8l-5.2-.17-1.46,0L646,855.53q-9.62,0-19.24.17c-26.33.69-52.56,1.21-78.7,1.74l-6.66.12c-37.75.74-75.3,1.47-112.8,2.55l-32.74,1c-43.92,1.57-87.69,3.76-131.51,7.23-26.86,2.38-55.28,2.35-84.19,1.43l21.33-32-26.57,31.85-1.36,0-4.86-67.72-6.85,64.22-19-13.49,5.73,15.89c-17.65-.86-35.33-1.87-52.83-2.69A54.32,54.32,0,0,1,102.14,881c56.79,2.62,116.16-.26,173.25-1,106.73-1.07,209-2.12,318-12.68,40-4.21,73.36,3.16,111.15,7.4C757.85,880,809,880,862.34,880c276.81,4.9,549.83-11.16,827.91-3.28V864.45Q1610.6,861.59,1531.29,860.76Z" transform="translate(10.04 117.36)"/><g id="_Group_" data-name="&lt;Group&gt;" class="cls-19"><path id="_Path_9" data-name="&lt;Path&gt;" class="cls-20" d="M1417.69,171.58s-8.63-31.1-44.77-19.71c0,0,10.75-36.41-42-34.7-57,1.85-38.39,33.65-38.39,33.65s-26.43-8.15-36.68,0c-5.38,4.25-7.64,12.31-8.57,19-30.14-14.94-53.46,9.24-45.37,11s44.77,0,44.77,0,22.65,3.07,35.06,0c0,0,44.23,7.11,91.7,1.36,0,0,22.11,4.43,44.23.44,0,0,30.74.83,41.53-1.8S1441.49,159,1417.69,171.58Z" transform="translate(10.04 117.36)"/><g id="_Group_2" data-name="&lt;Group&gt;"><path id="_Path_10" data-name="&lt;Path&gt;" class="cls-21" d="M1411.38,179.62c-15.57,6.56-49.26-10.67-49.26-10.67a23.7,23.7,0,0,1-7.93,3.95,33.82,33.82,0,0,1-25.71-2.86c-56.56-31.68-.79-52.59-.49-52.74-46.12,2.46-39,25.7-36.2,32a50.9,50.9,0,0,0,11.48,11.28c-21.75-14.36-39.39-12.82-40.58-12.69a16.26,16.26,0,0,0-6.8,2.92c-5.37,4.25-7.63,12.28-8.56,19a49,49,0,0,0,1.4,5.36,46.8,46.8,0,0,0-11.66-9c-24.91-5.85-42.26,13.18-35.12,14.72,8.09,1.75,44.77,0,44.77,0s22.65,3.07,35.06,0c0,0,44.23,7.11,91.7,1.36,0,0,22.11,4.43,44.23.44,0,0,14.12.38,26.58-.19C1430.53,182.44,1411.38,179.62,1411.38,179.62Z" transform="translate(10.04 117.36)"/><polygon id="_Path_11" data-name="&lt;Path&gt;" class="cls-22" points="1462.86 299.14 1462.86 299.14 1462.86 299.14 1462.86 299.14"/></g><path id="_Path_12" data-name="&lt;Path&gt;" class="cls-23" d="M1417.69,171.58s-8.63-31.1-44.77-19.71c0,0,7.68-26-21.8-33,7.13,3.67,22.65,14.21,18.33,34.94,0,0,33.43-12.72,45.47,20.51,0,0,28.51-16.14,44.31,6.5C1470,178.15,1441.49,159,1417.69,171.58Z" transform="translate(10.04 117.36)"/></g><g id="_Group_3" data-name="&lt;Group&gt;"><path id="_Path_13" data-name="&lt;Path&gt;" class="cls-20" d="M1519.86,367.23s-6.61-23.81-34.28-15.09c0,0,8.23-27.88-32.14-26.57-43.64,1.42-29.4,25.77-29.4,25.77s-20.24-6.24-28.09,0c-4.12,3.26-5.85,9.43-6.56,14.55-23.08-11.44-40.94,7.08-34.74,8.42s34.28,0,34.28,0,17.35,2.35,26.85,0c0,0,33.87,5.44,70.22,1,0,0,16.93,3.39,33.87.34,0,0,23.54.63,31.8-1.38S1538.08,357.58,1519.86,367.23Z" transform="translate(10.04 117.36)"/><g id="_Group_4" data-name="&lt;Group&gt;"><path id="_Path_14" data-name="&lt;Path&gt;" class="cls-24" d="M1515,373.39c-11.92,5-37.72-8.17-37.72-8.17a18.15,18.15,0,0,1-6.07,3,25.89,25.89,0,0,1-19.69-2.19c-43.31-24.26-.6-40.27-.37-40.39-35.31,1.88-29.86,19.68-27.72,24.48a39,39,0,0,0,8.79,8.64c-16.66-11-30.16-9.81-31.07-9.72a12.45,12.45,0,0,0-5.21,2.23c-4.11,3.25-5.84,9.4-6.56,14.53a37.51,37.51,0,0,0,1.07,4.1,35.84,35.84,0,0,0-8.93-6.93c-19.08-4.48-32.36,10.09-26.89,11.28,6.2,1.34,34.28,0,34.28,0s17.35,2.35,26.85,0c0,0,33.87,5.44,70.22,1,0,0,16.93,3.39,33.87.34,0,0,10.81.29,20.35-.15C1529.69,375.55,1515,373.39,1515,373.39Z" transform="translate(10.04 117.36)"/><polygon id="_Path_15" data-name="&lt;Path&gt;" class="cls-25" points="1556.8 492.41 1556.8 492.41 1556.8 492.41 1556.8 492.41"/></g><path id="_Path_16" data-name="&lt;Path&gt;" class="cls-23" d="M1519.86,367.23s-6.61-23.81-34.28-15.09c0,0,5.88-19.93-16.7-25.3,5.46,2.81,17.34,10.88,14,26.75,0,0,25.6-9.74,34.82,15.71,0,0,21.83-12.36,33.93,5C1559.93,372.27,1538.08,357.58,1519.86,367.23Z" transform="translate(10.04 117.36)"/></g><g id="_Group_5" data-name="&lt;Group&gt;"><path id="_Path_17" data-name="&lt;Path&gt;" class="cls-20" d="M549.67,258.1s-5.81-20.92-30.12-13.26c0,0,7.23-24.49-28.24-23.34-38.34,1.24-25.83,22.64-25.83,22.64s-17.78-5.48-24.67,0c-3.62,2.86-5.14,8.28-5.76,12.78-20.28-10-36,6.22-30.52,7.4s30.12,0,30.12,0,15.24,2.06,23.58,0c0,0,29.75,4.78,61.68.92,0,0,14.88,3,29.75.3,0,0,20.68.56,27.94-1.21S565.67,249.62,549.67,258.1Z" transform="translate(10.04 117.36)"/><g id="_Group_6" data-name="&lt;Group&gt;"><path id="_Path_18" data-name="&lt;Path&gt;" class="cls-26" d="M545.42,263.51c-10.47,4.42-33.14-7.17-33.14-7.17a15.94,15.94,0,0,1-5.34,2.66,22.75,22.75,0,0,1-17.29-1.92c-38-21.31-.53-35.38-.33-35.48-31,1.65-26.23,17.29-24.35,21.51a34.24,34.24,0,0,0,7.72,7.59c-14.63-9.66-26.49-8.62-27.3-8.54a10.94,10.94,0,0,0-4.58,2c-3.61,2.86-5.13,8.26-5.76,12.76a33,33,0,0,0,.94,3.61,31.48,31.48,0,0,0-7.84-6.09c-16.76-3.94-28.43,8.86-23.62,9.91,5.44,1.18,30.12,0,30.12,0s15.24,2.06,23.58,0c0,0,29.75,4.78,61.68.92,0,0,14.88,3,29.75.3,0,0,9.5.25,17.88-.13C558.3,265.41,545.42,263.51,545.42,263.51Z" transform="translate(10.04 117.36)"/><polygon id="_Path_19" data-name="&lt;Path&gt;" class="cls-27" points="583.33 382.33 583.33 382.33 583.33 382.33 583.33 382.33"/></g><path id="_Path_20" data-name="&lt;Path&gt;" class="cls-23" d="M549.67,258.1s-5.81-20.92-30.12-13.26c0,0,5.16-17.5-14.67-22.22,4.79,2.47,15.23,9.56,12.33,23.5,0,0,22.49-8.55,30.58,13.8,0,0,19.18-10.85,29.81,4.37C584.86,262.52,565.67,249.62,549.67,258.1Z" transform="translate(10.04 117.36)"/></g><g id="_Group_7" data-name="&lt;Group&gt;"><path id="_Path_21" data-name="&lt;Path&gt;" class="cls-20" d="M1064.7,305.57s-10.57-38.09-54.83-24.14c0,0,13.16-44.59-51.41-42.5-69.8,2.26-47,41.22-47,41.22s-32.37-10-44.92-.06c-6.59,5.21-9.36,15.08-10.5,23.28-36.92-18.29-65.48,11.32-55.57,13.47s54.83,0,54.83,0,27.75,3.76,42.94,0c0,0,54.17,8.7,112.31,1.67,0,0,27.09,5.43,54.17.54,0,0,37.66,1,50.87-2.21S1093.85,290.12,1064.7,305.57Z" transform="translate(10.04 117.36)"/><g id="_Group_8" data-name="&lt;Group&gt;"><path id="_Path_22" data-name="&lt;Path&gt;" class="cls-28" d="M1057,315.41c-19.07,8-60.34-13.06-60.34-13.06a29,29,0,0,1-9.71,4.84,41.42,41.42,0,0,1-31.48-3.5c-69.27-38.81-1-64.41-.6-64.59-56.48,3-47.76,31.47-44.34,39.15a62.33,62.33,0,0,0,14.06,13.82c-26.64-17.58-48.24-15.7-49.7-15.54a19.92,19.92,0,0,0-8.33,3.57c-6.58,5.2-9.34,15-10.49,23.23a60,60,0,0,0,1.71,6.56,57.32,57.32,0,0,0-14.28-11.08c-30.51-7.17-51.76,16.14-43,18,9.91,2.15,54.83,0,54.83,0s27.75,3.76,42.94,0c0,0,54.17,8.7,112.31,1.67,0,0,27.09,5.43,54.17.54,0,0,17.29.46,32.55-.24C1080.42,318.87,1057,315.41,1057,315.41Z" transform="translate(10.04 117.36)"/><polygon id="_Path_23" data-name="&lt;Path&gt;" class="cls-29" points="1117.76 435.42 1117.76 435.42 1117.76 435.42 1117.76 435.42"/></g><path id="_Path_24" data-name="&lt;Path&gt;" class="cls-23" d="M1064.7,305.57s-10.57-38.09-54.83-24.14c0,0,9.4-31.87-26.71-40.46,8.73,4.49,27.74,17.4,22.45,42.79,0,0,40.95-15.58,55.68,25.12,0,0,34.92-19.76,54.27,8C1128.78,313.61,1093.85,290.12,1064.7,305.57Z" transform="translate(10.04 117.36)"/></g><ellipse class="cls-30" cx="1033.17" cy="24.65" rx="2.2" ry="1.78"/><path id="_Path_25" data-name="&lt;Path&gt;" class="cls-31" d="M1616.51,319.53s-373.62-69-518.56-42.17c0,0,236.73-9.24,502.45,51.76Z" transform="translate(10.04 117.36)"/><path id="_Compound_Path_" data-name="&lt;Compound Path&gt;" class="cls-31" d="M1288.66,105.22c-143.13,9.27-230.76,6.87-326.47-.66,142.31,3.44,299.1-3,326.47-9.9,38.65-9.79,252.94-.12,252.94-.12l19.22-4.66s-169.09-13.27-295.22,4.66-464.9-4.66-464.9-4.66h0c-15.89-1.46-32.48-2.95-49.92-4.45-217.41-18.75-715,58.38-715,58.38l43.48,52.32s494.4-77.37,601.46-77,372.85,35.49,562.94,16.16S1680,158.88,1680,158.88l40.26-45.72S1523.78,90,1288.66,105.22ZM423,114.38C414.45,121,386.3,128,348.15,129c0,0-38.19-1.1-27.25-9.22S431.59,107.77,423,114.38Zm15,10.52c-25-10.23,31-28.79,150.14-24.38S492.15,147.07,438,124.9Zm629.94,4.68c-126.07-1.16-389.76-21.46-310.81-19C914.93,115.42,1205.89,130.85,1067.92,129.58Zm43.59-9.58s66.22-6.63,82.23,0S1093.8,125.17,1111.51,120Z" transform="translate(10.04 117.36)"/><path id="_Compound_Path_2" data-name="&lt;Compound Path&gt;" class="cls-31" d="M1640.32,404.49c-10.73,3.18-477.23-26-548.68-42.32s-207.15,12.61-357.19,24.15-623,2.26-623,2.26l30.6,17s447.7,59.42,676.38,5.84S1672,432.08,1672,432.08,1651.05,401.31,1640.32,404.49Zm-1237.46,5c-6.29-1.67-2.71-5,5.37-5.06,57.15-.24,206.36-.76,243.49.1C717.58,406,545.49,447.26,402.86,409.45ZM1125.92,379s77.24-.53,85.39,9.55S1071,384.33,1125.92,379Z" transform="translate(10.04 117.36)"/><path id="_Compound_Path_3" data-name="&lt;Compound Path&gt;" class="cls-31" d="M913,518.42s217.6-47.2,297.24-13.15,235.55-3.71,235.55-3.71l10.66-10.79s-164.69,5.9-216.94-1.43S1140,463.62,1115.08,474,927.73,502.91,924,500.89,913,518.42,913,518.42Zm355.31-17.53c12.93-.55,64.89-.22,84.8-.06,2.81,0,4.06,2.15,1.87,3.21C1305.27,528.07,1245.34,501.86,1268.27,500.89ZM1073.4,490.77c2.84-6.41,29.74-6.07,29.74-6.07C1122.25,488.08,1070.56,497.18,1073.4,490.77Z" transform="translate(10.04 117.36)"/><g id="_Group_9" data-name="&lt;Group&gt;" class="cls-32"><path id="_Compound_Path_4" data-name="&lt;Compound Path&gt;" class="cls-33" d="M1356.82,217.77c96.05,3.73,250.55,3.73,250.55,3.73l-9.48-12.81c-58.61,16.27-223.35,3.62-299.28-3.41-6.2-1.5-12-3-17.51-4.49-107.23-29.23-261.52-6.17-330.24,13.18-87.63,3.47-201.79-1.71-286.07-7l-42.11-6.17c-213.38-31.23-464.61,68.09-469.44,68.09v19.67c-36.16-1.45-66.84-3.34-86.45-4.64-14.08-.93-22.45-1.56-23.06-1.49,0,0,69.25,28,119.16,24.39,45.61,3,104.47,1.42,176.9-10.83,152.62-25.8,214.64-17.65,235.35-12.4-19.55-5.48-73.05-15.46-174.54-1.16-55.17,7.77-125.59,9-189.28,7.85,92.34-30,271.87-80.48,367.06-53.93,131.76,36.75,306,28.6,458.55,0s658.28,69.41,658.28,69.41V268.88S1493.29,244.28,1356.82,217.77ZM346.7,236.34c-2.4-3.73,27.46-29.14,70.85-22.35S355,249.21,346.7,236.34Zm147.57-19C468.88,225.44,441,222.27,463,214,467.68,212.22,519.67,209.27,494.27,217.36Zm117.93,3.1S715,228,720.76,236.59,559.06,226,612.21,220.45Zm322.08-1.32c-38.82,13.59-70.5,14.62-154.9,3.92a1336.67,1336.67,0,0,0,155.51-4.14Zm102.64,1.35c-38.89,1.5,111.35-24.74,142-11.53S1117.88,217.36,1036.94,220.48Z" transform="translate(10.04 117.36)"/><path id="_Path_26" data-name="&lt;Path&gt;" class="cls-33" d="M575.14,283.59a70.13,70.13,0,0,1,8.82,2.95A42.93,42.93,0,0,0,575.14,283.59Z" transform="translate(10.04 117.36)"/></g><path class="cls-34" d="M442.23,182.59l-2,.37-.45-1.63a.73.73,0,0,0-.85-.44.59.59,0,0,0-.54.69l.45,1.63-2,.37a.59.59,0,0,0-.54.69.73.73,0,0,0,.85.44l2-.37.45,1.63a.73.73,0,0,0,.85.44.74.74,0,0,0,.41-.21.5.5,0,0,0,.13-.48l-.45-1.63,2-.37a.74.74,0,0,0,.41-.21.5.5,0,0,0,.13-.48A.73.73,0,0,0,442.23,182.59Z" transform="translate(10.04 117.36)"/><path class="cls-34" d="M338.5,76.05l-1.34.54-.66-1.09a.57.57,0,0,0-.69-.19.39.39,0,0,0-.23.56l.66,1.09-1.34.54a.39.39,0,0,0-.23.56.57.57,0,0,0,.69.19l1.34-.54.66,1.09A.57.57,0,0,0,338,79a.47.47,0,0,0,.24-.21.35.35,0,0,0,0-.36l-.66-1.09,1.34-.54a.47.47,0,0,0,.24-.21.35.35,0,0,0,0-.36A.57.57,0,0,0,338.5,76.05Z" transform="translate(10.04 117.36)"/><ellipse class="cls-30" cx="132.79" cy="357.86" rx="3.99" ry="3.24"/><ellipse class="cls-30" cx="457.92" cy="476.79" rx="3.99" ry="3.24"/><ellipse class="cls-30" cx="664.09" cy="335.53" rx="2.2" ry="1.78"/><ellipse class="cls-30" cx="368.25" cy="620.43" rx="2.2" ry="1.78"/><path class="cls-34" d="M869.88,403.8l-2,.37-.45-1.63a.73.73,0,0,0-.85-.44.59.59,0,0,0-.54.69l.45,1.63-2,.37a.59.59,0,0,0-.54.69.73.73,0,0,0,.85.44l2-.37.45,1.63a.73.73,0,0,0,.85.44.74.74,0,0,0,.41-.21.5.5,0,0,0,.13-.48l-.45-1.63,2-.37a.74.74,0,0,0,.41-.21.5.5,0,0,0,.13-.48A.73.73,0,0,0,869.88,403.8Z" transform="translate(10.04 117.36)"/><path class="cls-34" d="M483.29,120.12l-2.4-.7.86-1.95a.69.69,0,0,0-.53-.91.94.94,0,0,0-1.12.43l-.86,1.95-2.4-.7a.94.94,0,0,0-1.12.43.69.69,0,0,0,.53.91l2.4.7-.86,1.95a.69.69,0,0,0,.53.91,1.07,1.07,0,0,0,.6,0,.81.81,0,0,0,.53-.43l.86-1.95,2.4.7a1.07,1.07,0,0,0,.6,0,.81.81,0,0,0,.53-.43A.69.69,0,0,0,483.29,120.12Z" transform="translate(10.04 117.36)"/><path class="cls-34" d="M215.48,311.54l-1.34.54-.66-1.09a.57.57,0,0,0-.69-.19.39.39,0,0,0-.23.56l.66,1.09-1.34.54a.39.39,0,0,0-.23.56.57.57,0,0,0,.69.19l1.34-.54.66,1.09a.57.57,0,0,0,.69.19.47.47,0,0,0,.24-.21.35.35,0,0,0,0-.36l-.66-1.09,1.34-.54a.47.47,0,0,0,.24-.21.35.35,0,0,0,0-.36A.57.57,0,0,0,215.48,311.54Z" transform="translate(10.04 117.36)"/><path class="cls-34" d="M335.57,359.11l-1.34.54-.66-1.09a.57.57,0,0,0-.69-.19.39.39,0,0,0-.23.56l.66,1.09-1.34.54a.39.39,0,0,0-.23.56.57.57,0,0,0,.69.19l1.34-.54.66,1.09a.57.57,0,0,0,.69.19.47.47,0,0,0,.24-.21.35.35,0,0,0,0-.36l-.66-1.09,1.34-.54a.47.47,0,0,0,.24-.21.35.35,0,0,0,0-.36A.57.57,0,0,0,335.57,359.11Z" transform="translate(10.04 117.36)"/><path class="cls-34" d="M394.16,237.8l-1.34.54-.66-1.09a.57.57,0,0,0-.69-.19.39.39,0,0,0-.23.56l.66,1.09-1.34.54a.39.39,0,0,0-.23.56.57.57,0,0,0,.69.19l1.34-.54.66,1.09a.57.57,0,0,0,.69.19.47.47,0,0,0,.24-.21.35.35,0,0,0,0-.36l-.66-1.09,1.34-.54a.47.47,0,0,0,.24-.21.35.35,0,0,0,0-.36A.57.57,0,0,0,394.16,237.8Z" transform="translate(10.04 117.36)"/><path class="cls-34" d="M1321.37,211.75l1.68-1.16,1.08,1.3a.73.73,0,0,0,1,0,.59.59,0,0,0,.21-.85l-1.08-1.3,1.68-1.16a.59.59,0,0,0,.21-.85.73.73,0,0,0-1,0l-1.68,1.16-1.08-1.3a.73.73,0,0,0-1,0,.74.74,0,0,0-.28.36.5.5,0,0,0,.08.49l1.08,1.3-1.68,1.16a.74.74,0,0,0-.28.36.5.5,0,0,0,.08.49A.73.73,0,0,0,1321.37,211.75Z" transform="translate(10.04 117.36)"/><path class="cls-34" d="M1459.82,266l1-1,1.05.72a.57.57,0,0,0,.71-.11.39.39,0,0,0,0-.61l-1.05-.72,1-1a.39.39,0,0,0,0-.61.57.57,0,0,0-.71.11l-1,1-1.05-.72a.57.57,0,0,0-.71.11.47.47,0,0,0-.14.29.35.35,0,0,0,.15.32l1.05.72-1,1a.47.47,0,0,0-.14.29.35.35,0,0,0,.15.32A.57.57,0,0,0,1459.82,266Z" transform="translate(10.04 117.36)"/><ellipse class="cls-30" cx="1588.48" cy="27.16" rx="3.99" ry="3.24" transform="translate(140.39 775.3) rotate(-24.37)"/><ellipse class="cls-30" cx="1243.25" cy="53" rx="3.99" ry="3.24" transform="matrix(0.91, -0.41, 0.41, 0.91, 98.96, 635.13)"/><ellipse class="cls-30" cx="1113.75" cy="266.75" rx="2.2" ry="1.78" transform="translate(-0.79 600.74) rotate(-24.37)"/><ellipse class="cls-30" cx="1265.65" cy="-114.84" rx="2.2" ry="1.78" transform="translate(170.22 629.42) rotate(-24.37)"/><path class="cls-34" d="M840.54,186.73l1.68-1.16,1.08,1.3a.73.73,0,0,0,1,0,.59.59,0,0,0,.21-.85l-1.08-1.3,1.68-1.16a.59.59,0,0,0,.21-.85.73.73,0,0,0-1,0l-1.68,1.16-1.08-1.3a.73.73,0,0,0-1,0,.74.74,0,0,0-.28.36.5.5,0,0,0,.08.49l1.08,1.3-1.68,1.16a.74.74,0,0,0-.28.36.5.5,0,0,0,.08.49A.73.73,0,0,0,840.54,186.73Z" transform="translate(10.04 117.36)"/><path class="cls-34" d="M1309.75,285.6l2.47-.35,0,2.13a.69.69,0,0,0,.86.61.94.94,0,0,0,.84-.85l0-2.13,2.47-.35a.94.94,0,0,0,.84-.85.69.69,0,0,0-.86-.61l-2.47.35,0-2.13a.69.69,0,0,0-.86-.61,1.07,1.07,0,0,0-.54.25.81.81,0,0,0-.3.61l0,2.13-2.47.35a1.07,1.07,0,0,0-.54.25.81.81,0,0,0-.3.61A.69.69,0,0,0,1309.75,285.6Z" transform="translate(10.04 117.36)"/><path class="cls-34" d="M1103.76,317.62l1-1,1.05.72a.57.57,0,0,0,.71-.11.39.39,0,0,0,0-.61l-1.05-.72,1-1a.39.39,0,0,0,0-.61.57.57,0,0,0-.71.11l-1,1-1.05-.72a.57.57,0,0,0-.71.11.47.47,0,0,0-.14.29.35.35,0,0,0,.15.32l1.05.72-1,1a.47.47,0,0,0-.14.29.35.35,0,0,0,.15.32A.57.57,0,0,0,1103.76,317.62Z" transform="translate(10.04 117.36)"/><path class="cls-34" d="M1474.7.72l1-1,1.05.72a.57.57,0,0,0,.71-.11.39.39,0,0,0,0-.61L1476.39-1l1-1a.39.39,0,0,0,0-.61.57.57,0,0,0-.71.11l-1,1-1.05-.72a.57.57,0,0,0-.71.11.47.47,0,0,0-.14.29.35.35,0,0,0,.15.32l1.05.72-1,1a.47.47,0,0,0-.14.29.35.35,0,0,0,.15.32A.57.57,0,0,0,1474.7.72Z" transform="translate(10.04 117.36)"/><path class="cls-34" d="M1345.68,6.95l1-1,1.05.72a.57.57,0,0,0,.71-.11.39.39,0,0,0,0-.61l-1.05-.72,1-1a.39.39,0,0,0,0-.61.57.57,0,0,0-.71.11l-1,1L1345.59,4a.57.57,0,0,0-.71.11.47.47,0,0,0-.14.29.35.35,0,0,0,.15.32l1.05.72-1,1a.47.47,0,0,0-.14.29.35.35,0,0,0,.15.32A.57.57,0,0,0,1345.68,6.95Z" transform="translate(10.04 117.36)"/><path class="cls-34" d="M1342.38,141.62l1-1,1.05.72a.57.57,0,0,0,.71-.11.39.39,0,0,0,0-.61l-1.05-.72,1-1a.39.39,0,0,0,0-.61.57.57,0,0,0-.71.11l-1,1-1.05-.72a.57.57,0,0,0-.71.11.47.47,0,0,0-.14.29.35.35,0,0,0,.15.32l1.05.72-1,1a.47.47,0,0,0-.14.29.35.35,0,0,0,.15.32A.57.57,0,0,0,1342.38,141.62Z" transform="translate(10.04 117.36)"/><path class="cls-35" d="M1635.62,125.59c-.75-1.63.29-3.68,2.33-4.59s4.29-.32,5,1.3-.29,3.68-2.33,4.59S1636.37,127.22,1635.62,125.59Z" transform="translate(10.04 117.36)"/><path class="cls-36" d="M1524,97.54l1-1,1.07.72a.59.59,0,0,0,.72-.11.38.38,0,0,0,0-.61l-1.07-.72,1-1a.38.38,0,0,0,0-.61.59.59,0,0,0-.72.11l-1,1-1.07-.72a.59.59,0,0,0-.72.11.47.47,0,0,0-.14.29.35.35,0,0,0,.16.32l1.07.72-1,1a.47.47,0,0,0-.14.29.35.35,0,0,0,.16.32A.59.59,0,0,0,1524,97.54Z" transform="translate(10.04 117.36)"/><path class="cls-36" d="M1393.18,103.76l1-1,1.07.72a.59.59,0,0,0,.72-.11.38.38,0,0,0,0-.61l-1.07-.72,1-1a.38.38,0,0,0,0-.61.59.59,0,0,0-.72.11l-1,1-1.07-.72a.59.59,0,0,0-.72.11.47.47,0,0,0-.14.29.35.35,0,0,0,.16.32l1.07.72-1,1a.47.47,0,0,0-.14.29.35.35,0,0,0,.16.32A.59.59,0,0,0,1393.18,103.76Z" transform="translate(10.04 117.36)"/><path id="_Path_27" data-name="&lt;Path&gt;" class="cls-20" d="M803.85,146.78s1.61-43.66-38.76-30.94c0,0,.75-31.74-58.13-29.83-63.65,2.06-42.88,37.59-42.88,37.59s-29.52-9.1-41-.05c-6,4.75-8.53,13.75-9.57,21.23-33.67-16.68-59.71,10.33-50.67,12.28s50,0,50,0,25.3,3.42,39.16,0c0,0,49.4,7.94,102.42,1.52,0,0,24.7,4.95,49.4.49,0,0,34.34.92,46.39-2S830.42,132.69,803.85,146.78Z" transform="translate(10.04 117.36)"/><g id="_Group_10" data-name="&lt;Group&gt;"><path id="_Path_28" data-name="&lt;Path&gt;" class="cls-37" d="M796.79,155.75c-17.39,7.33-55-11.91-55-11.91a26.47,26.47,0,0,1-8.86,4.41,37.77,37.77,0,0,1-28.71-3.2c-63.17-35.39-.88-58.74-.54-58.91-51.51,2.74-43.55,28.7-40.44,35.71A56.85,56.85,0,0,0,676,134.45c-24.3-16-44-14.31-45.33-14.17a18.16,18.16,0,0,0-7.6,3.26c-6,4.74-8.52,13.72-9.57,21.19a54.74,54.74,0,0,0,1.56,6,52.27,52.27,0,0,0-13-10.11c-27.83-6.54-47.2,14.72-39.22,16.45,9,2,50,0,50,0s25.3,3.42,39.16,0c0,0,49.4,7.94,102.42,1.52,0,0,24.7,4.95,49.4.49,0,0,15.77.42,29.68-.22C818.18,158.91,796.79,155.75,796.79,155.75Z" transform="translate(10.04 117.36)"/><polygon id="_Path_29" data-name="&lt;Path&gt;" class="cls-38" points="853.12 275.53 853.12 275.53 853.12 275.53 853.12 275.53"/></g><path id="_Path_30" data-name="&lt;Path&gt;" class="cls-23" d="M803.85,146.78s1.61-41.28-38.76-28.56c0,0-2.67-22.52-35.6-30.35,8,4.1,37.5,7.2,32.67,30.35,0,0,25.14-5.53,38.58,31.58,0,0,31.85-18,49.5,7.25C862.28,154.11,830.42,132.69,803.85,146.78Z" transform="translate(10.04 117.36)"/><g id="_Group_11" data-name="&lt;Group&gt;"><path id="_Path_31" data-name="&lt;Path&gt;" class="cls-20" d="M886.92,168.76s-6.61-23.81-34.28-15.09c0,0,8.23-27.88-32.14-26.57-43.64,1.42-29.4,25.77-29.4,25.77s-20.24-6.24-28.09,0c-4.12,3.26-5.85,9.43-6.56,14.55-23.08-11.44-40.94,7.08-34.74,8.42s34.28,0,34.28,0,17.35,2.35,26.85,0c0,0,33.87,5.44,70.22,1,0,0,16.93,3.39,33.87.34,0,0,23.54.63,31.8-1.38S905.14,159.11,886.92,168.76Z" transform="translate(10.04 117.36)"/><g id="_Group_12" data-name="&lt;Group&gt;"><path id="_Path_32" data-name="&lt;Path&gt;" class="cls-39" d="M882.08,174.92c-11.92,5-37.72-8.17-37.72-8.17a18.15,18.15,0,0,1-6.07,3,25.89,25.89,0,0,1-19.69-2.19c-43.31-24.26-.6-40.27-.37-40.39-35.31,1.88-29.86,19.68-27.72,24.48a39,39,0,0,0,8.79,8.64c-16.66-11-30.16-9.81-31.07-9.72a12.45,12.45,0,0,0-5.21,2.23c-4.11,3.25-5.84,9.4-6.56,14.53a37.51,37.51,0,0,0,1.07,4.1,35.84,35.84,0,0,0-8.93-6.93c-19.08-4.48-32.36,10.09-26.89,11.28,6.2,1.34,34.28,0,34.28,0s17.35,2.35,26.85,0c0,0,33.87,5.44,70.22,1,0,0,16.93,3.39,33.87.34,0,0,10.81.29,20.35-.15C896.75,177.08,882.08,174.92,882.08,174.92Z" transform="translate(10.04 117.36)"/><polygon id="_Path_33" data-name="&lt;Path&gt;" class="cls-40" points="923.85 293.94 923.85 293.94 923.85 293.94 923.85 293.94"/></g><path id="_Path_34" data-name="&lt;Path&gt;" class="cls-23" d="M886.92,168.76s-6.61-23.81-34.28-15.09c0,0,5.88-19.93-16.7-25.3,5.46,2.81,17.34,10.88,14,26.75,0,0,25.6-9.74,34.82,15.71,0,0,21.83-12.36,33.93,5C927,173.8,905.14,159.11,886.92,168.76Z" transform="translate(10.04 117.36)"/></g><path id="_Path_35" data-name="&lt;Path&gt;" class="cls-20" d="M232.75,136.29s1.61-43.66-38.76-30.94c0,0,.75-31.74-58.13-29.83C72.21,77.59,93,113.11,93,113.11s-29.52-9.1-41-.05c-6,4.75-8.53,13.75-9.57,21.23C8.78,117.6-17.27,144.61-8.23,146.57s50,0,50,0,25.3,3.42,39.16,0c0,0,49.4,7.94,102.42,1.52,0,0,24.7,4.95,49.4.49,0,0,34.34.92,46.39-2S259.33,122.21,232.75,136.29Z" transform="translate(10.04 117.36)"/><g id="_Group_13" data-name="&lt;Group&gt;"><path id="_Path_36" data-name="&lt;Path&gt;" class="cls-41" d="M225.7,145.27c-17.39,7.33-55-11.91-55-11.91a26.47,26.47,0,0,1-8.86,4.41,37.77,37.77,0,0,1-28.71-3.2c-63.17-35.39-.88-58.74-.54-58.91C81,78.41,89,104.37,92.12,111.37A56.85,56.85,0,0,0,104.94,124c-24.3-16-44-14.31-45.33-14.17a18.16,18.16,0,0,0-7.6,3.26c-6,4.74-8.52,13.72-9.57,21.19a54.74,54.74,0,0,0,1.56,6,52.27,52.27,0,0,0-13-10.11c-27.83-6.54-47.2,14.72-39.22,16.45,9,2,50,0,50,0s25.3,3.42,39.16,0c0,0,49.4,7.94,102.42,1.52,0,0,24.7,4.95,49.4.49,0,0,15.77.42,29.68-.22C247.09,148.43,225.7,145.27,225.7,145.27Z" transform="translate(10.04 117.36)"/><polygon id="_Path_37" data-name="&lt;Path&gt;" class="cls-42" points="282.02 265.05 282.02 265.05 282.02 265.05 282.02 265.05"/></g><path id="_Path_38" data-name="&lt;Path&gt;" class="cls-23" d="M232.75,136.29S234.36,95,194,107.73c0,0-2.67-22.52-35.6-30.35,8,4.1,37.5,7.2,32.67,30.35,0,0,25.14-5.53,38.58,31.58,0,0,31.85-18,49.5,7.25C291.19,143.63,259.33,122.21,232.75,136.29Z" transform="translate(10.04 117.36)"/><g id="_Group_14" data-name="&lt;Group&gt;"><path id="_Path_39" data-name="&lt;Path&gt;" class="cls-20" d="M323.19,389.35s-5.81-20.92-30.12-13.26c0,0,7.23-24.49-28.24-23.34C226.5,354,239,375.38,239,375.38s-17.78-5.48-24.67,0c-3.62,2.86-5.14,8.28-5.76,12.78-20.28-10-36,6.22-30.52,7.4s30.12,0,30.12,0,15.24,2.06,23.58,0c0,0,29.75,4.78,61.68.92,0,0,14.88,3,29.75.3,0,0,20.68.56,27.94-1.21S339.19,380.86,323.19,389.35Z" transform="translate(10.04 117.36)"/><g id="_Group_15" data-name="&lt;Group&gt;"><path id="_Path_40" data-name="&lt;Path&gt;" class="cls-43" d="M318.94,394.75c-10.47,4.42-33.14-7.17-33.14-7.17a15.94,15.94,0,0,1-5.34,2.66,22.75,22.75,0,0,1-17.29-1.92c-38-21.31-.53-35.38-.33-35.48-31,1.65-26.23,17.29-24.35,21.51a34.24,34.24,0,0,0,7.72,7.59c-14.63-9.66-26.49-8.62-27.3-8.54a10.94,10.94,0,0,0-4.58,2c-3.61,2.86-5.13,8.26-5.76,12.76a33,33,0,0,0,.94,3.61,31.48,31.48,0,0,0-7.84-6.09c-16.76-3.94-28.43,8.86-23.62,9.91,5.44,1.18,30.12,0,30.12,0s15.24,2.06,23.58,0c0,0,29.75,4.78,61.68.92,0,0,14.88,3,29.75.3,0,0,9.5.25,17.88-.13C331.82,396.65,318.94,394.75,318.94,394.75Z" transform="translate(10.04 117.36)"/><polygon id="_Path_41" data-name="&lt;Path&gt;" class="cls-44" points="356.85 513.57 356.85 513.57 356.85 513.57 356.85 513.57"/></g><path id="_Path_42" data-name="&lt;Path&gt;" class="cls-23" d="M323.19,389.35s-5.81-20.92-30.12-13.26c0,0,5.16-17.5-14.67-22.22,4.79,2.47,15.23,9.56,12.33,23.5,0,0,22.49-8.55,30.58,13.8,0,0,19.18-10.85,29.81,4.37C358.38,393.77,339.19,380.86,323.19,389.35Z" transform="translate(10.04 117.36)"/></g></g></g></g></svg>