<svg id="Layer_1" data-name="Layer 1" xmlns="http://www.w3.org/2000/svg" xmlns:xlink="http://www.w3.org/1999/xlink" viewBox="0 0 1730.3 1160.49"><defs><style>.cls-1,.cls-14,.cls-29,.cls-32{fill:none;}.cls-2{clip-path:url(#clip-path);}.cls-3{fill:url(#linear-gradient);}.cls-4{opacity:0.26;}.cls-5{fill:#688c7f;}.cls-6{opacity:0.09;}.cls-7{fill:#ad5236;}.cls-8{opacity:0.1;}.cls-16,.cls-9{opacity:0.5;}.cls-10{fill:#ce783f;}.cls-11{fill:#b4673e;}.cls-12{fill:#e49345;}.cls-13{fill:#9b5c3f;}.cls-14{stroke:#2d2d2d;stroke-width:3.4px;}.cls-14,.cls-31{stroke-miterlimit:10;}.cls-15{fill:#82820f;}.cls-16{fill:#492e17;}.cls-16,.cls-30{isolation:isolate;}.cls-17{fill:url(#linear-gradient-2);}.cls-18{opacity:0.81;}.cls-19{fill:#ffe7e1;}.cls-20{fill:url(#linear-gradient-3);}.cls-21{fill:url(#linear-gradient-4);}.cls-22,.cls-30{fill:#fff;}.cls-23{fill:url(#linear-gradient-5);}.cls-24{fill:url(#linear-gradient-6);}.cls-25{fill:url(#linear-gradient-7);}.cls-26{fill:url(#linear-gradient-8);}.cls-27{fill:url(#linear-gradient-9);}.cls-28{fill:url(#linear-gradient-10);}.cls-29,.cls-31,.cls-32{stroke:#f9f9f9;}.cls-29,.cls-32{stroke-linecap:round;stroke-linejoin:round;}.cls-29{stroke-width:1.32px;}.cls-30{opacity:0.24;}.cls-31{fill:#f9f9f9;stroke-width:0.66px;}.cls-32{stroke-width:1.33px;}.cls-33{fill:url(#linear-gradient-11);}.cls-34{fill:url(#linear-gradient-12);}.cls-35{fill:url(#linear-gradient-13);}.cls-36{fill:url(#linear-gradient-14);}.cls-37{fill:url(#linear-gradient-15);}.cls-38{fill:url(#linear-gradient-16);}.cls-39{fill:url(#linear-gradient-17);}.cls-40{fill:url(#linear-gradient-18);}</style><clipPath id="clip-path" transform="translate(135.13 195.81)"><rect class="cls-1" x="-0.84" width="1528.5" height="945"/></clipPath><linearGradient id="linear-gradient" x1="755.8" y1="970.79" x2="755.8" y2="99.81" gradientTransform="matrix(1, 0, 0, -1, 10.04, 885.64)" gradientUnits="userSpaceOnUse"><stop offset="0" stop-color="#186b91"/><stop offset="0.2" stop-color="#5f9cb6"/><stop offset="0.38" stop-color="#93c1d2"/><stop offset="0.51" stop-color="#b4d7e3"/><stop offset="0.58" stop-color="#c0e0e9"/><stop offset="0.63" stop-color="#c2dfe2"/><stop offset="0.72" stop-color="#c9dccf"/><stop offset="0.81" stop-color="#d3d7af"/><stop offset="0.92" stop-color="#e1d184"/><stop offset="1" stop-color="#edcb60"/></linearGradient><linearGradient id="linear-gradient-2" x1="757.87" y1="62.69" x2="757.87" y2="153.09" gradientTransform="matrix(1, 0, 0, -1, 10.04, 885.64)" gradientUnits="userSpaceOnUse"><stop offset="0" stop-color="#bfa910"/><stop offset="1" stop-color="#cfa53d"/></linearGradient><linearGradient id="linear-gradient-3" x1="1166.09" y1="717.96" x2="1206.24" y2="842.86" gradientTransform="matrix(1, 0, 0, -1, 10.04, 885.64)" gradientUnits="userSpaceOnUse"><stop offset="0" stop-color="#edcb60"/><stop offset="0.08" stop-color="#e1d184"/><stop offset="0.19" stop-color="#d3d7af"/><stop offset="0.28" stop-color="#c9dccf"/><stop offset="0.37" stop-color="#c2dfe2"/><stop offset="0.42" stop-color="#c0e0e9"/><stop offset="0.49" stop-color="#b4d7e3"/><stop offset="0.62" stop-color="#93c1d2"/><stop offset="0.8" stop-color="#5f9cb6"/><stop offset="1" stop-color="#186b91"/></linearGradient><linearGradient id="linear-gradient-4" x1="1327.73" y1="665" x2="1327.73" y2="665" gradientTransform="matrix(1, 0, 0, -1, 135.13, 964.09)" xlink:href="#linear-gradient-3"/><linearGradient id="linear-gradient-5" x1="1295.48" y1="539.81" x2="1326.22" y2="635.45" xlink:href="#linear-gradient"/><linearGradient id="linear-gradient-6" x1="1421.67" y1="471.73" x2="1421.67" y2="471.73" gradientTransform="matrix(1, 0, 0, -1, 135.13, 964.09)" gradientUnits="userSpaceOnUse"><stop offset="0" stop-color="#a085a5"/><stop offset="0.24" stop-color="#ac6d84" stop-opacity="0.67"/><stop offset="0.58" stop-color="#be4c55" stop-opacity="0.2"/><stop offset="0.62" stop-color="#c05057" stop-opacity="0.23"/><stop offset="0.68" stop-color="#c65b5c" stop-opacity="0.3"/><stop offset="0.75" stop-color="#cf6e64" stop-opacity="0.41"/><stop offset="0.83" stop-color="#dc8770" stop-opacity="0.57"/><stop offset="0.92" stop-color="#eda87e" stop-opacity="0.78"/><stop offset="1" stop-color="#ffcb8e"/></linearGradient><linearGradient id="linear-gradient-7" x1="336.17" y1="655.86" x2="363.18" y2="739.88" xlink:href="#linear-gradient"/><linearGradient id="linear-gradient-8" x1="448.2" y1="581.81" x2="448.2" y2="581.81" gradientTransform="matrix(1, 0, 0, -1, 135.13, 964.09)" xlink:href="#linear-gradient"/><linearGradient id="linear-gradient-9" x1="786.9" y1="567.23" x2="836.07" y2="720.19" gradientTransform="matrix(1, 0, 0, -1, 10.04, 885.64)" xlink:href="#linear-gradient-6"/><linearGradient id="linear-gradient-10" x1="982.63" y1="528.72" x2="982.63" y2="528.72" xlink:href="#linear-gradient-6"/><linearGradient id="linear-gradient-11" x1="538.55" y1="734.08" x2="583.39" y2="873.57" xlink:href="#linear-gradient"/><linearGradient id="linear-gradient-12" x1="717.99" y1="688.61" x2="717.99" y2="688.61" gradientTransform="matrix(1, 0, 0, -1, 135.13, 964.09)" xlink:href="#linear-gradient"/><linearGradient id="linear-gradient-13" x1="662.56" y1="738.27" x2="693.3" y2="833.91" xlink:href="#linear-gradient"/><linearGradient id="linear-gradient-14" x1="788.72" y1="670.2" x2="788.72" y2="670.2" xlink:href="#linear-gradient-6"/><linearGradient id="linear-gradient-15" x1="-32.5" y1="744.54" x2="12.34" y2="884.04" xlink:href="#linear-gradient"/><linearGradient id="linear-gradient-16" x1="146.89" y1="699.09" x2="146.89" y2="699.09" gradientTransform="matrix(1, 0, 0, -1, 135.13, 964.09)" xlink:href="#linear-gradient"/><linearGradient id="linear-gradient-17" x1="109.69" y1="524.63" x2="136.69" y2="608.64" xlink:href="#linear-gradient"/><linearGradient id="linear-gradient-18" x1="221.72" y1="450.57" x2="221.72" y2="450.57" gradientTransform="matrix(1, 0, 0, -1, 135.13, 964.09)" xlink:href="#linear-gradient"/></defs><title>mbg</title><g id="Layer_1-2" data-name="Layer 1"><g class="cls-2"><path class="cls-3" d="M1330.22-3.5c-237.31,0-474.08-6.13-711.31-9.39-101.7-1.4-203.49-.49-305-4l-14.12-.49q-9.74-.32-19.47-.69C245.25-19.3,210-20.5,174.71-21c-7,1.71-14.29,3.21-21.68,4.58-19.22,3.56-40.35,4.39-60.55,5.56-11.92.69-23.86,1-35.86,1-19.37,0-38.72-.53-58.08-.79-2.61.47-5.27.88-8,1.19V929.7h1550.6V-3.5Z" transform="translate(135.13 195.81)"/><g id="Tees"><g class="cls-4"><path class="cls-5" d="M337.68,651.56a50.17,50.17,0,0,0,10.68,8.24c4.2,2.2,9.61,3.54,15.09,4.52,3.2.56,6.52,1,9.83,1.33h0c0-16.26,0-32.53,1-48.84a203.66,203.66,0,0,1,2.83-24.51l.28-1.81-.46-.51.57-.15,3.32-21.75,6-39-32-23.42,32.85,17.84.59-3.88c1.15-8.09,2.16-16.18,3.08-24.27.43-4,.9-8.1,1.06-12.11a82.8,82.8,0,0,0-1.25-12,63.93,63.93,0,0,0-9-23.53,69.31,69.31,0,0,0-8.6-11c-1.68-1.76-3.44-3.49-5.22-5.21s-3.69-3.44-4.63-5.4c1,1.94,3.07,3.6,4.9,5.3s3.72,3.39,5.5,5.12a73.3,73.3,0,0,1,9.23,10.88A67,67,0,0,1,393.67,471a84.46,84.46,0,0,1,1.9,12.23c0,4.12-.21,8.16-.43,12.23-.5,8.12-1.09,16.24-1.82,24.35l-4.9,48.67-1.9,18.91,37.78-10.3L386.07,591.9l-.1,1A198.52,198.52,0,0,0,384.44,617c-.14,15.92.6,31.88,1.46,47.84l15.71-3.57,2.4,4.32-17.9,3.11,2.5,45.63c.12,2.71.29,5.41.42,8.12l14.77-4.6-14.63,8.27v.44c.06,4.16-.13,8.28-.37,12.4-.52,8.23-1.52,16.39-2.67,24.54-2.35,16.31-5.44,32.47-9.14,48.72l-20-1.89c4.45-15.86,8.37-31.91,11.51-47.9,1.55-8,3-16,3.87-24,.44-4,.83-8,1-11.94s0-8.09.06-12.12l-.14-45.49c-3.81-.55-7.53-1.21-11.21-2-5.65-1.32-11.28-3-15.71-5.73a45.69,45.69,0,0,1-9.93-9,69.93,69.93,0,0,1-6.91-9.85A78.68,78.68,0,0,0,337.68,651.56Z" transform="translate(135.13 195.81)"/></g><g class="cls-4"><path class="cls-5" d="M493.61,621a52.07,52.07,0,0,0,10.68,9.64c4.2,2.58,9.61,4.15,15.09,5.3,3.2.66,6.52,1.17,9.83,1.56h0c0-19,0-38.09,1-57.19a277.66,277.66,0,0,1,2.83-28.7l.28-2.12-.46-.6.57-.18,3.32-25.47,6-45.64-32-27.42,32.87,20.85.59-4.55q1.73-14.2,3.08-28.42c.43-4.73.9-9.49,1.06-14.18a113,113,0,0,0-1.25-14.1,83,83,0,0,0-9-27.55,80.72,80.72,0,0,0-8.6-12.84c-1.68-2.06-3.44-4.08-5.22-6.1s-3.69-4-4.63-6.33c1,2.27,3.07,4.22,4.9,6.21s3.72,4,5.5,6A83.91,83.91,0,0,1,539.23,382a85.72,85.72,0,0,1,10.39,27.66,114.66,114.66,0,0,1,1.9,14.32c0,4.82-.21,9.56-.43,14.32q-.75,14.27-1.82,28.51l-4.9,57-1.9,22.14,37.78-12.06L542,551.16l-.1,1.12a271.65,271.65,0,0,0-1.57,28.22c-.14,18.63.6,37.33,1.46,56l15.71-4.18,2.4,5L542,641l2.5,53.42c.12,3.18.29,6.33.42,9.5l14.77-5.39-14.63,9.68v.52c.06,4.87-.13,9.7-.37,14.52-.52,9.63-1.52,19.19-2.67,28.74-2.35,19.1-5.44,38-9.14,57l-20-2.21c4.45-18.57,8.37-37.36,11.51-56.09,1.55-9.37,3-18.76,3.87-28.11.44-4.67.83-9.34,1-14s0-9.47.06-14.19l-.14-53.27c-3.81-.64-7.53-1.42-11.21-2.4-5.65-1.55-11.28-3.52-15.71-6.71a49.3,49.3,0,0,1-9.91-10.52A83.33,83.33,0,0,1,485.46,610,89.73,89.73,0,0,0,493.61,621Z" transform="translate(135.13 195.81)"/></g><g class="cls-6"><path class="cls-7" d="M518.37,696.35a52,52,0,0,1-10.68,5.78,72,72,0,0,1-15.09,3.18c-3.2.4-6.52.7-9.83.93h0c0-11.41,0-22.83-1-34.28a102.48,102.48,0,0,0-2.83-17.2l-.28-1.27.46-.36-.57-.11-3.32-15.27-6-27.36,32-16.44-32.87,12.5-.59-2.73c-1.15-5.68-2.16-11.36-3.08-17-.43-2.84-.9-5.69-1.06-8.5a41.52,41.52,0,0,1,1.25-8.45,38.11,38.11,0,0,1,9-16.51,56,56,0,0,1,8.6-7.7c1.68-1.23,3.44-2.45,5.22-3.66s3.69-2.41,4.63-3.79c-1,1.36-3.07,2.53-4.9,3.72s-3.72,2.38-5.5,3.6a61.76,61.76,0,0,0-9.23,7.64,41.68,41.68,0,0,0-10.39,16.58,43.19,43.19,0,0,0-1.9,8.58c0,2.89.21,5.73.43,8.58.5,5.7,1.09,11.4,1.82,17.09l4.9,34.16,1.9,13.27-37.78-7.23L470,654.48l.1.67a98.51,98.51,0,0,1,1.53,16.93c.14,11.17-.6,22.38-1.46,33.58l-15.71-2.5-2.4,3,17.9,2.18-2.5,32c-.12,1.9-.29,3.8-.42,5.7l-14.77-3.23,14.63,5.8v.31a84.43,84.43,0,0,0,.37,8.7,159.48,159.48,0,0,0,2.68,17.24,319.46,319.46,0,0,0,9.14,34.2l20-1.32a332.49,332.49,0,0,1-11.51-33.62,161.78,161.78,0,0,1-3.87-16.85,82.81,82.81,0,0,1-1-8.38c-.17-2.8,0-5.68-.06-8.51l.14-31.93c3.81-.38,7.53-.85,11.21-1.44,5.65-.93,11.28-2.11,15.71-4a43.85,43.85,0,0,0,9.93-6.34,53.4,53.4,0,0,0,6.91-6.91A66.93,66.93,0,0,1,518.37,696.35Z" transform="translate(135.13 195.81)"/></g><g class="cls-8"><path class="cls-7" d="M256.42,708.5a31.67,31.67,0,0,1-6.8,4.39,32.91,32.91,0,0,1-9.11,2.06c-1.9.2-3.86.33-5.82.4h0c1.17-9.47,2.27-19,2.84-28.48a118,118,0,0,0,.08-14.37v-1.06l.31-.28-.32-.11-.41-12.79-.73-22.93,20.29-12.41L236.35,632l-.07-2.28c-.1-4.75-.12-9.51-.09-14.25a69.69,69.69,0,0,1,.24-7.09,49.7,49.7,0,0,1,1.58-7,39.7,39.7,0,0,1,6.9-13.37,43.93,43.93,0,0,1,5.78-6.06c1.1-1,2.25-1.9,3.41-2.84a14.28,14.28,0,0,0,3.08-3A15,15,0,0,1,254,579c-1.21.91-2.41,1.83-3.56,2.77a46.49,46.49,0,0,0-6.14,6,41.79,41.79,0,0,0-7.71,13.36,51.08,51.08,0,0,0-2,7c-.32,2.39-.45,4.76-.61,7.14-.28,4.75-.51,9.5-.65,14.25l-.57,28.53-.22,11.08-21.28-7.45,21.23,10.08v.56a116,116,0,0,1-.81,14.11c-1,9.27-2.59,18.54-4.22,27.81l-8.9-2.68-1.7,2.42,10.2,2.5L222.34,743c-.26,1.57-.55,3.14-.81,4.71l-8.26-3.21,7.94,5.38v.26c-.33,2.42-.51,4.83-.66,7.24-.28,4.81-.27,9.6-.17,14.4.22,9.59.89,19.12,1.9,28.72l11.76-.33c-1.48-9.41-2.63-18.9-3.34-28.34-.34-4.72-.59-9.44-.57-14.13,0-2.34.08-4.68.27-7s.55-4.71.82-7.06l3.28-26.49c2.26-.17,4.47-.42,6.67-.76a33.21,33.21,0,0,0,9.55-2.73,28.94,28.94,0,0,0,6.42-4.88,44.26,44.26,0,0,0,4.72-5.47A49.91,49.91,0,0,1,256.42,708.5Z" transform="translate(135.13 195.81)"/></g><g class="cls-4"><path class="cls-5" d="M237.69,682a37.36,37.36,0,0,1-8,6.13,40.27,40.27,0,0,1-11.24,3.37c-2.38.42-4.85.74-7.32,1h0c0-12.11,0-24.22-.77-36.37a151.65,151.65,0,0,0-2.11-18.25l-.21-1.35.35-.38-.42-.12-2.48-16.2-4.44-29,23.86-17.47-24.48,13.26-.44-2.89c-.85-6-1.6-12-2.29-18.07-.32-3-.67-6-.79-9a61.66,61.66,0,0,1,.93-9,47.6,47.6,0,0,1,6.74-17.52A51.61,51.61,0,0,1,211,522c1.25-1.31,2.56-2.6,3.89-3.88a16.77,16.77,0,0,0,3.45-4,17.55,17.55,0,0,1-3.65,4q-2.1,1.89-4.1,3.81a54.58,54.58,0,0,0-6.87,8.1A49.87,49.87,0,0,0,196,547.59a62.89,62.89,0,0,0-1.42,9.1c0,3.06.15,6.08.32,9.11.38,6,.81,12.09,1.36,18.13l3.67,36.24,1.42,14.08-28.13-7.67,28.47,11,.07.71a147.82,147.82,0,0,1,1.14,18c.1,11.85-.45,23.74-1.09,35.62l-11.7-2.66-1.78,3.21,13.33,2.32-1.86,34c-.09,2-.21,4-.31,6l-11-3.42,10.9,6.14v.33c0,3.1.09,6.17.27,9.23.38,6.13,1.13,12.21,2,18.28,1.75,12.14,4,24.18,6.81,36.28l14.86-1.4c-3.31-11.81-6.23-23.76-8.57-35.67-1.15-6-2.2-11.93-2.88-17.88-.33-3-.61-5.94-.73-8.89s0-6,0-9l.1-33.88c2.84-.41,5.61-.9,8.35-1.53a40.32,40.32,0,0,0,11.7-4.26,34,34,0,0,0,7.4-6.73,52.07,52.07,0,0,0,5.15-7.33A58.59,58.59,0,0,1,237.69,682Z" transform="translate(135.13 195.81)"/><path class="cls-5" d="M179.1,626l.65-.89c2.91-4-.13-8.67-6.76-10.41l-.65.89C169.43,619.56,172.47,624.25,179.1,626Z" transform="translate(135.13 195.81)"/><path class="cls-5" d="M158,635.69l1.58.2c7.08.92,14.12-1.81,15.65-6.06h0l-1.58-.2C166.6,628.72,159.55,631.45,158,635.69Z" transform="translate(135.13 195.81)"/><path class="cls-5" d="M234.34,680.41l1.55.26c2-4.19-2.16-8.57-9.13-9.74l-1.55-.26C223.26,674.86,227.37,679.24,234.34,680.41Z" transform="translate(135.13 195.81)"/><path class="cls-5" d="M243.85,684.5l-5,.64h0c1.12,3.13,6.3,5.13,11.51,4.46l5-.64C254.24,685.85,249.06,683.85,243.85,684.5Z" transform="translate(135.13 195.81)"/><path class="cls-5" d="M186.45,730.63v-.9c0-3.07-4.19-5.59-9.31-5.59v.9C177.14,728.11,181.33,730.63,186.45,730.63Z" transform="translate(135.13 195.81)"/><path class="cls-5" d="M175.91,738.81l1.48.11c5.08.36,9.74-1.84,10.35-4.89l-1.48-.11C181.14,733.56,176.48,735.76,175.91,738.81Z" transform="translate(135.13 195.81)"/></g><g class="cls-9"><path class="cls-5" d="M789.55,632.65A54.16,54.16,0,0,1,778,641.5c-4.54,2.38-10.38,3.83-16.29,4.88-3.46.61-7,1.08-10.61,1.44h0c0-17.55,0-35.12-1.11-52.72a219.85,219.85,0,0,0-3.1-26.44l-.3-2,.5-.55-.61-.17-3.59-23.44-6.43-42.07L771,475.15l-35.49,19.23-.64-4.19c-1.24-8.73-2.33-17.47-3.32-26.2-.47-4.36-1-8.75-1.14-13.07a89.38,89.38,0,0,1,1.35-13,69,69,0,0,1,9.77-25.4,74.82,74.82,0,0,1,9.34-11.84c1.82-1.9,3.71-3.77,5.64-5.63s4-3.71,5-5.83c-1.12,2.1-3.32,3.89-5.29,5.72s-4,3.66-5.94,5.53a79.12,79.12,0,0,0-10,11.74,72.3,72.3,0,0,0-11.21,25.5,91.17,91.17,0,0,0-2,13.2c-.06,4.44.22,8.81.46,13.2.54,8.77,1.18,17.53,2,26.29l5.29,52.54,2.06,20.41-40.78-11.12,41.27,16,.1,1a214.3,214.3,0,0,1,1.65,26c.15,17.18-.65,34.41-1.58,51.64l-17-3.85-2.59,4.66L737.26,651l-2.7,49.25c-.13,2.93-.31,5.84-.45,8.76l-15.94-5L734,713v.48c-.06,4.49.14,8.94.4,13.38.56,8.88,1.64,17.69,2.89,26.49,2.54,17.61,5.88,35,9.87,52.59l21.55-2c-4.8-17.12-9-34.44-12.43-51.71-1.67-8.64-3.19-17.29-4.18-25.91-.48-4.31-.89-8.61-1-12.89s0-8.73-.06-13.09l.15-49.11c4.11-.59,8.13-1.31,12.1-2.21,6.1-1.43,12.18-3.25,17-6.18a49.32,49.32,0,0,0,10.71-9.72,75.49,75.49,0,0,0,7.43-10.6A84.93,84.93,0,0,1,789.55,632.65Z" transform="translate(135.13 195.81)"/><path class="cls-5" d="M704.61,551.39l.94-1.28c4.22-5.77-.19-12.56-9.81-15.1l-.94,1.28C690.58,542.06,695,548.86,704.61,551.39Z" transform="translate(135.13 195.81)"/><path class="cls-5" d="M674.06,565.5l2.28.3c10.26,1.33,20.47-2.63,22.68-8.79h0l-2.28-.3C686.48,555.34,676.27,559.29,674.06,565.5Z" transform="translate(135.13 195.81)"/><path class="cls-5" d="M784.69,630.28l2.25.38c2.83-6.07-3.13-12.42-13.24-14.12l-2.25-.38C768.63,622.22,774.58,628.58,784.69,630.28Z" transform="translate(135.13 195.81)"/><path class="cls-5" d="M798.48,636.23l-7.22.93h0c1.63,4.53,9.14,7.44,16.68,6.46l7.22-.93C813.53,638.16,806,635.25,798.48,636.23Z" transform="translate(135.13 195.81)"/><path class="cls-5" d="M715.26,703.07v-1.3c0-4.46-6.07-8.1-13.5-8.1V695C701.76,699.43,707.83,703.07,715.26,703.07Z" transform="translate(135.13 195.81)"/><path class="cls-5" d="M699.91,714.93l2.15.15c7.37.53,14.12-2.66,15-7.09l-2.15-.15C707.56,707.32,700.81,710.5,699.91,714.93Z" transform="translate(135.13 195.81)"/></g><path class="cls-5" d="M45.7,638.79a54.16,54.16,0,0,1-11.53,8.89c-4.54,2.38-10.38,3.83-16.29,4.88-3.46.61-7,1.08-10.61,1.44h0c0-17.55,0-35.12-1.11-52.72A219.85,219.85,0,0,0,3.1,574.82l-.3-2,.5-.55-.61-.17L-.9,548.62l-6.43-42.07,34.56-25.28L-8.25,500.5l-.64-4.19c-1.24-8.73-2.33-17.47-3.32-26.2-.47-4.36-1-8.75-1.14-13.07A89.38,89.38,0,0,1-12,444a69,69,0,0,1,9.77-25.4A74.82,74.82,0,0,1,7.06,406.8c1.82-1.9,3.71-3.77,5.64-5.63s4-3.71,5-5.83c-1.12,2.1-3.32,3.89-5.29,5.72s-4,3.66-5.94,5.53a79.12,79.12,0,0,0-10,11.74,72.3,72.3,0,0,0-11.21,25.5A91.17,91.17,0,0,0-16.79,457c-.06,4.44.22,8.81.46,13.2.54,8.77,1.18,17.53,2,26.29l5.24,52.56L-7,569.5l-40.78-11.13,41.27,16,.1,1a214.3,214.3,0,0,1,1.65,26c.15,17.18-.65,34.41-1.58,51.64l-17-3.85-2.59,4.66,19.32,3.36L-9.25,706.5c-.13,2.93-.31,5.84-.45,8.76l-15.94-5,15.79,8.93v.48c-.06,4.49.14,8.94.4,13.38.56,8.88,1.64,17.69,2.89,26.49,2.54,17.61,5.88,35,9.87,52.59l21.55-2c-4.8-17.12-9-34.44-12.43-51.71-1.67-8.64-3.19-17.29-4.18-25.91-.48-4.31-.89-8.61-1.05-12.89s0-8.73-.06-13.09l.15-49.11c4.11-.59,8.13-1.31,12.1-2.21,6.1-1.43,12.18-3.25,17-6.18a49.32,49.32,0,0,0,10.72-9.75,75.49,75.49,0,0,0,7.46-10.63A84.93,84.93,0,0,1,45.7,638.79Z" transform="translate(135.13 195.81)"/><path class="cls-5" d="M-39.23,557.5l.94-1.28c4.2-5.72-.19-12.54-9.8-15.07l-.94,1.28C-53.26,548.2-48.84,555-39.23,557.5Z" transform="translate(135.13 195.81)"/><path class="cls-5" d="M-69.78,571.59l2.28.3c10.26,1.33,20.47-2.63,22.68-8.79h0l-2.27-.3C-57.36,561.5-67.57,565.43-69.78,571.59Z" transform="translate(135.13 195.81)"/><path class="cls-5" d="M40.85,636.41l2.25.38c2.83-6.07-3.13-12.42-13.24-14.12l-2.25-.38C24.78,628.36,30.74,634.71,40.85,636.41Z" transform="translate(135.13 195.81)"/><path class="cls-5" d="M54.63,642.37l-7.22.93h0c1.63,4.53,9.14,7.44,16.68,6.46l7.22-.93C69.69,644.3,62.18,641.39,54.63,642.37Z" transform="translate(135.13 195.81)"/><path class="cls-5" d="M-28.58,709.21v-1.3c0-4.46-6.07-8.1-13.5-8.1v1.3C-42.09,705.56-36,709.21-28.58,709.21Z" transform="translate(135.13 195.81)"/><path class="cls-5" d="M-43.91,721.07l2.15.15c7.37.53,14.12-2.66,15-7.09l-2.15-.15C-36.28,713.5-43,716.64-43.91,721.07Z" transform="translate(135.13 195.81)"/><g class="cls-4"><path class="cls-5" d="M764.46,614.37A52.07,52.07,0,0,0,775.14,624c4.2,2.58,9.61,4.15,15.09,5.3,3.2.66,6.52,1.17,9.83,1.56h0c0-19,0-38.09,1-57.19a277.66,277.66,0,0,1,2.83-28.7l.28-2.12-.46-.6.57-.18,3.32-25.47,6-45.64-32-27.42,32.87,20.85.59-4.55q1.73-14.2,3.08-28.42c.43-4.73.9-9.49,1.06-14.18a113,113,0,0,0-1.25-14.1,83,83,0,0,0-9-27.55,80.72,80.72,0,0,0-8.6-12.84c-1.68-2.06-3.44-4.08-5.22-6.1s-3.69-4-4.63-6.33c1,2.27,3.07,4.22,4.9,6.21s3.72,4,5.5,6a83.91,83.91,0,0,1,9.23,12.74,85.72,85.72,0,0,1,10.39,27.66,114.66,114.66,0,0,1,1.9,14.32c0,4.82-.21,9.56-.43,14.32q-.75,14.27-1.82,28.51l-4.9,57-1.9,22.14,37.78-12.06-38.23,17.31-.1,1.12a271.66,271.66,0,0,0-1.53,28.24c-.14,18.63.6,37.33,1.46,56l15.71-4.18,2.4,5-17.91,3.64,2.5,53.42c.12,3.18.29,6.33.42,9.5l14.77-5.39-14.69,9.69v.52c.06,4.87-.13,9.7-.37,14.52-.52,9.63-1.52,19.19-2.67,28.74-2.35,19.1-5.44,38-9.14,57l-20-2.21c4.45-18.57,8.37-37.36,11.51-56.09,1.55-9.37,3-18.76,3.87-28.11.44-4.67.83-9.34,1-14s0-9.47.06-14.19l-.09-53.25c-3.81-.64-7.53-1.42-11.21-2.4-5.65-1.55-11.28-3.52-15.71-6.71a49.3,49.3,0,0,1-9.93-10.58,83.33,83.33,0,0,1-6.91-11.53A89.72,89.72,0,0,0,764.46,614.37Z" transform="translate(135.13 195.81)"/></g><g class="cls-4"><path class="cls-5" d="M1063.75,613a52.07,52.07,0,0,0,10.68,9.64c4.2,2.58,9.61,4.15,15.09,5.3,3.2.66,6.52,1.17,9.83,1.56h0c0-19,0-38.09,1-57.19a277.67,277.67,0,0,1,2.83-28.7l.28-2.12-.46-.6.57-.18,3.32-25.47,6-45.64-32-27.42,32.87,20.85.59-4.55q1.73-14.2,3.08-28.42c.43-4.73.9-9.49,1.06-14.18a113,113,0,0,0-1.25-14.1,83,83,0,0,0-9.05-27.55,80.72,80.72,0,0,0-8.6-12.84c-1.68-2.06-3.44-4.08-5.22-6.1s-3.69-4-4.63-6.33c1,2.27,3.07,4.22,4.9,6.21s3.72,4,5.5,6a83.91,83.91,0,0,1,9.23,12.74,85.72,85.72,0,0,1,10.39,27.66,114.64,114.64,0,0,1,1.9,14.32c.05,4.82-.21,9.56-.43,14.32q-.75,14.26-1.82,28.51l-4.9,57-1.9,22.14,37.78-12.06-38.28,17.28-.1,1.12a271.64,271.64,0,0,0-1.53,28.24c-.14,18.63.6,37.33,1.46,56l15.71-4.18,2.4,5-17.9,3.64,2.5,53.42c.12,3.18.29,6.33.42,9.5l14.77-5.39-14.63,9.68v.52c.06,4.87-.13,9.7-.37,14.52-.52,9.63-1.52,19.19-2.67,28.74-2.35,19.1-5.44,38-9.14,57l-20-2.21c4.45-18.57,8.37-37.36,11.51-56.09,1.55-9.37,3-18.76,3.87-28.11.44-4.67.83-9.34,1-14s0-9.47.06-14.19l-.14-53.27c-3.81-.64-7.53-1.42-11.21-2.4-5.65-1.55-11.28-3.52-15.71-6.71a49.3,49.3,0,0,1-9.9-10.48A83.33,83.33,0,0,1,1055.6,602,89.72,89.72,0,0,0,1063.75,613Z" transform="translate(135.13 195.81)"/></g><g class="cls-6"><path class="cls-7" d="M1102.77,692.13a52.05,52.05,0,0,1-10.68,5.78,72,72,0,0,1-15.09,3.18c-3.2.4-6.52.7-9.83.93h0c0-11.41,0-22.83-1-34.28a102.49,102.49,0,0,0-2.83-17.2l-.28-1.27.46-.36-.57-.11-3.35-15.3-6-27.36,32-16.44-32.87,12.5-.59-2.73c-1.15-5.68-2.16-11.36-3.08-17-.43-2.84-.9-5.69-1.06-8.5a41.52,41.52,0,0,1,1.25-8.45A38.11,38.11,0,0,1,1058.3,549a56,56,0,0,1,8.6-7.7c1.68-1.23,3.44-2.45,5.22-3.66s3.69-2.41,4.63-3.79c-1,1.36-3.07,2.53-4.9,3.72s-3.72,2.38-5.5,3.6a61.76,61.76,0,0,0-9.23,7.64,41.68,41.68,0,0,0-10.39,16.58,43.19,43.19,0,0,0-1.9,8.58c-.05,2.89.21,5.73.43,8.58.5,5.7,1.09,11.4,1.82,17.09l4.9,34.16,1.9,13.27-37.78-7.23,38.23,10.38.1.67a98.52,98.52,0,0,1,1.53,16.93c.14,11.17-.6,22.38-1.46,33.58l-15.71-2.5-2.4,3,17.9,2.18-2.5,32c-.12,1.9-.29,3.8-.42,5.7l-14.77-3.23,14.63,5.8v.31a84.42,84.42,0,0,0,.37,8.7,159.5,159.5,0,0,0,2.67,17.23,319.48,319.48,0,0,0,9.14,34.2l20-1.32a332.51,332.51,0,0,1-11.5-33.59A161.8,161.8,0,0,1,1068,753a82.8,82.8,0,0,1-1-8.38c-.17-2.8,0-5.68-.06-8.51l.14-31.93c3.81-.38,7.53-.85,11.21-1.44,5.65-.93,11.28-2.11,15.71-4a43.85,43.85,0,0,0,9.93-6.34,53.4,53.4,0,0,0,6.94-6.94A66.93,66.93,0,0,1,1102.77,692.13Z" transform="translate(135.13 195.81)"/></g><g class="cls-6"><path class="cls-7" d="M1383,681.24a52.05,52.05,0,0,1-10.68,5.78,72,72,0,0,1-15.09,3.18c-3.2.4-6.52.7-9.83.93h0c0-11.41,0-22.83-1-34.28a102.49,102.49,0,0,0-2.83-17.2l-.28-1.27.46-.36-.57-.11-3.32-15.27-6-27.36,32-16.44L1333,591.34l-.59-2.73c-1.15-5.68-2.16-11.36-3.08-17-.43-2.84-.9-5.69-1.06-8.5a41.52,41.52,0,0,1,1.25-8.45,38.11,38.11,0,0,1,9.05-16.51,56,56,0,0,1,8.6-7.7c1.68-1.23,3.44-2.45,5.22-3.66s3.69-2.41,4.63-3.79c-1,1.36-3.07,2.53-4.9,3.72s-3.72,2.38-5.5,3.6a61.76,61.76,0,0,0-9.23,7.64A41.68,41.68,0,0,0,1327,554.5a43.19,43.19,0,0,0-1.9,8.58c-.05,2.89.21,5.73.43,8.58.5,5.7,1.09,11.4,1.82,17.09l4.9,34.16,1.9,13.27L1296.41,629l38.23,10.38.1.67a98.52,98.52,0,0,1,1.53,16.93c.14,11.17-.6,22.38-1.46,33.58L1319.1,688l-2.4,3,17.9,2.18-2.5,32c-.12,1.9-.29,3.8-.42,5.7l-14.77-3.18,14.63,5.8v.31a84.43,84.43,0,0,0,.37,8.7,159.5,159.5,0,0,0,2.67,17.23,319.48,319.48,0,0,0,9.14,34.2l20-1.32A332.49,332.49,0,0,1,1352.21,759a161.8,161.8,0,0,1-3.87-16.85,82.8,82.8,0,0,1-1-8.38c-.17-2.8,0-5.68-.06-8.51l.14-31.93c3.81-.38,7.53-.85,11.21-1.44,5.65-.93,11.28-2.11,15.71-4a43.85,43.85,0,0,0,9.93-6.34,53.4,53.4,0,0,0,6.91-6.91A66.92,66.92,0,0,1,1383,681.24Z" transform="translate(135.13 195.81)"/></g><path class="cls-5" d="M1478.24,608a60.5,60.5,0,0,1-12.88,9.93c-5.07,2.65-11.59,4.27-18.2,5.46-3.86.68-7.86,1.2-11.86,1.6h0c0-19.61,0-39.23-1.24-58.9a245.61,245.61,0,0,0-3.41-29.56l-.33-2.18.56-.62-.68-.19-4-26.23-7.19-47L1457.62,432l-39.71,21.47-.72-4.68q-2.07-14.62-3.71-29.27c-.52-4.87-1.09-9.77-1.27-14.6a99.86,99.86,0,0,1,1.51-14.53,77.1,77.1,0,0,1,10.92-28.37A83.59,83.59,0,0,1,1435,348.82c2-2.12,4.15-4.21,6.3-6.29s4.45-4.15,5.59-6.52c-1.25,2.34-3.71,4.34-5.91,6.39s-4.49,4.09-6.64,6.18a88.39,88.39,0,0,0-11.13,13.12,80.77,80.77,0,0,0-12.53,28.49,101.86,101.86,0,0,0-2.29,14.75c-.07,5,.25,9.84.52,14.75.61,9.8,1.32,19.59,2.2,29.37l5.91,58.7,2.3,22.8-45.56-12.42L1419.91,536l.12,1.16a239.42,239.42,0,0,1,1.84,29.09c.17,19.19-.72,38.45-1.76,57.7l-18.95-4.3-2.89,5.2,21.64,3.7-3,55c-.15,3.27-.35,6.52-.51,9.79l-17.81-5.55,17.64,10v.53c-.07,5,.15,10,.44,15,.62,9.92,1.84,19.77,3.22,29.6,2.84,19.67,6.57,39.16,11,58.75l24.08-2.27c-5.37-19.12-10.09-38.48-13.88-57.77-1.87-9.65-3.56-19.32-4.67-29-.53-4.81-1-9.62-1.18-14.4s0-9.75-.07-14.62l.16-54.87c4.59-.66,9.08-1.46,13.52-2.47,6.82-1.59,13.61-3.63,19-6.91a55.11,55.11,0,0,0,12-10.9,84.33,84.33,0,0,0,8.33-11.88A94.89,94.89,0,0,1,1478.24,608Z" transform="translate(135.13 195.81)"/><path class="cls-5" d="M1383.35,517.18l1-1.44c4.71-6.45-.22-14-11-16.87l-1,1.44C1367.68,506.76,1372.61,514.35,1383.35,517.18Z" transform="translate(135.13 195.81)"/><path class="cls-5" d="M1349.22,532.89l2.55.33c11.47,1.48,22.87-2.93,25.34-9.82h0l-2.55-.33C1363.09,521.59,1351.69,526,1349.22,532.89Z" transform="translate(135.13 195.81)"/><path class="cls-5" d="M1472.82,605.31l2.51.42c3.16-6.78-3.49-13.88-14.79-15.78l-2.51-.42C1454.91,596.32,1461.53,603.42,1472.82,605.31Z" transform="translate(135.13 195.81)"/><path class="cls-5" d="M1488.22,612l-8.06,1h0c1.82,5.06,10.21,8.31,18.64,7.22l8.06-1C1505,614.12,1496.65,610.87,1488.22,612Z" transform="translate(135.13 195.81)"/><path class="cls-5" d="M1395.24,686.64v-1.45c0-5-6.79-9-15.08-9v1.45C1380.16,682.57,1386.91,686.64,1395.24,686.64Z" transform="translate(135.13 195.81)"/><path class="cls-5" d="M1378.12,699.89l2.4.17c8.24.59,15.78-3,16.76-7.92l-2.4-.17C1386.65,691.39,1379.11,695,1378.12,699.89Z" transform="translate(135.13 195.81)"/></g><path class="cls-10" d="M-23.52,823.69a57.86,57.86,0,0,1-11,18.52c5.87,8.56,9.11,17.78,9.11,26.77v94.61c4.71-.38,9.43-.59,14.11-.6,78.52-.14,156.57-6.61,235.09-6.75a172.64,172.64,0,0,1,54.9,8.44c41.41-3.53,82.82-6.81,124.68-8.44C498.29,952.55,593.73,954,688.8,954H981.3a172.31,172.31,0,0,1,57.25,9.3c173.23-8.45,347.4-9.29,521.14-9.3,1.83,0,3.64,0,5.44.08V823.69Z" transform="translate(135.13 195.81)"/><path class="cls-11" d="M-15.38,920.58c-3.37.42-6.7.78-10,1.11v41c88.1-7.26,135.27-36.84,171.89-64.1,56.21-41.84,184.91-55.33,184.91-55.33C178.23,844,108.29,905.17-15.38,920.58Z" transform="translate(135.13 195.81)"/><path class="cls-11" d="M670.42,823.7s-178.63,17-188.88,62.75c-7.32,32.67-3.75,57-137.16,68.26A568.52,568.52,0,0,0,278,964.44l.75.24c41.41-3.53,82.82-6.81,124.67-8.44q25.81-1,51.67-1.54c30.29-11.61,56.88-32.45,69.19-78.16,13.54-50.26,209.11-45.14,209.11-45.14Z" transform="translate(135.13 195.81)"/><path id="_Path_" data-name=" Path " class="cls-12" d="M97.05,817.77s11.13,5,4.5,31.25c-5.62,22.28-36,41.81-110.18,52.68,0,0,87.69,4.57,186.63-64.79Z" transform="translate(135.13 195.81)"/><path class="cls-12" d="M1347.22,823.7s-4.5,83.67-411.48,88.07c-122.53,1.33-214.83,18.64-284.08,42.16q18.59,0,37.17.06H857.91c33.57-11.5,76.73-19.81,131.82-23.5C1367.46,905.17,1347.22,823.7,1347.22,823.7Z" transform="translate(135.13 195.81)"/><path id="_Path_2" data-name=" Path 2" class="cls-11" d="M791.84,823.7s-98.93,35.23-107.93,69.36S549,927.19,522,950.31A1107.1,1107.1,0,0,1,632.2,930.5c57.25-7.29,65.21-7,82.45-39.45,6.81-12.83-18-42,160.39-31.27,116,7,211.36-30.56,211.36-30.56l-76.49-5.52s-49.25,35.48-109,29.72S791.84,823.7,791.84,823.7Z" transform="translate(135.13 195.81)"/><path class="cls-11" d="M1160.85,958.5c65-24.93,146.76-53.21,224.62-71.49,60.92-14.3,124.07-11,179.7-1v-44.1c-5.39-.12-11.08-.14-17,0H1548c-23.32.55-50.43,3.19-82,8.92-58.54,10.61-132.24,31.8-224.44,69.76-35.46,14.6-68.2,27.35-98.43,38.48Z" transform="translate(135.13 195.81)"/><path class="cls-12" d="M1338.17,955c20.63-5.24,43.06-11.2,67.5-17.87,53.88-14.7,110.52-11.42,159.49-2V902.5c-57.71-12-125.43-14.46-184.22,14.79a676.92,676.92,0,0,1-93.3,38.38Q1312.91,955.25,1338.17,955Z" transform="translate(135.13 195.81)"/><path class="cls-12" d="M292.67,903.8c-44.15,4-108.49,27.54-171.48,55.19q19.64-.82,39.28-1.5c50.11-18.25,98.49-33,134.45-38C414.76,902.89,454.56,849,454.56,849S409.59,893.06,292.67,903.8Z" transform="translate(135.13 195.81)"/><path class="cls-13" d="M-25.38,881.17v9.52a36.54,36.54,0,0,0,21-3.43C6.68,882.11-11.9,880.08-25.38,881.17Z" transform="translate(135.13 195.81)"/><path id="_Path_3" data-name=" Path 3" class="cls-13" d="M217,895.26s12-19.23,43.47-14.39,21,10.16,21,10.16S233.46,903.34,217,895.26Z" transform="translate(135.13 195.81)"/><path id="_Path_4" data-name=" Path 4" class="cls-13" d="M844.29,879s-18.19,12.74,0,13.15S866.11,875.19,844.29,879Z" transform="translate(135.13 195.81)"/><path id="_Path_5" data-name=" Path 5" class="cls-13" d="M739.86,882.41s10.59,6.88,25.3,0S729.27,875.5,739.86,882.41Z" transform="translate(135.13 195.81)"/><path id="_Path_6" data-name=" Path 6" class="cls-13" d="M774.5,888.65s9.7-15.56,35.16-11.64,17,8.22,17,8.22S787.84,895.18,774.5,888.65Z" transform="translate(135.13 195.81)"/><path id="_Path_7" data-name=" Path 7" class="cls-13" d="M273.32,866.64h0c-4.84,3.39-2.9,8.11,4.33,10.26,11.08,3.29,27.27,6.78,39.76,4,7-1.57,9.2-5.2,7.8-9.09C320.84,859.61,287.77,856.5,273.32,866.64Z" transform="translate(135.13 195.81)"/><path class="cls-14" d="M995.76,954.5c3.3.25,6.55.56,9.74,1,1.93-.29,3.21-1.25,2.79-2.28-1-2.42-5.31-4.17-10.35-4.17l-2.3,1.35C993.44,951.73,993.82,953.5,995.76,954.5Z" transform="translate(135.13 195.81)"/><path id="_Path_8" data-name=" Path 8" class="cls-13" d="M821,887.44l-2.4,1.41c-3.66,2.16-.53,5.43,5.21,5.43h3.83c2.68,0,4.7-1.2,4.18-2.49h0c-1-2.53-5.55-4.35-10.81-4.35Z" transform="translate(135.13 195.81)"/><path class="cls-15" d="M737.25,801.5c-53.34,0-104.5,0-157.84-5.28-37.8-4.23-71.17-11.61-111.15-7.4-109,10.56-211.23,11.61-318,12.68-57.1.75-116.46,3.63-173.25,1a48.35,48.35,0,0,1,1.3,8c.77,10.42-4.33,21.72-12.84,31.73a46.84,46.84,0,0,1,2.63,4.24c43.92,1.94,89.34.66,134.06-.38,12.58-.29,25.12-.55,37.5-.71l26.14-.26c97.36-1,191.75-2.69,291.77-12.39,40-4.23,73.36,3.16,111.15,7.37.39,0,.73.07,1.12.1,6.07.62,12.15,1.14,18.17,1.59,46.49,3.59,91.67,3.59,138.55,3.59,4.86.1,9.76.17,14.62.21q58.73.93,117.13.69h0q53.41-.07,106.68-.81,35.41-.43,70.73-1c100.37-1.62,200.64-3.83,301.34-4.38h5.49c68.21-.36,136.61,0,205.3,1.9h.19c5.64.17,11.27.33,17,.52V798.2C1287.09,790.32,1014.06,806.38,737.25,801.5Z" transform="translate(135.13 195.81)"/><path class="cls-16" d="M1548.21,841.89H1548c-68.69-1.86-137.09-2.26-205.3-1.9h-5.49c-100.71.55-201,2.76-301.34,4.38q-35.34.61-70.73,1-53.27.68-106.68.81h0q-58.44.18-117.13-.69c-4.86,0-9.76-.12-14.62-.21-46.88,0-92.06,0-138.55-3.59-6-.45-12.1-1-18.17-1.59a4.25,4.25,0,0,1-1.12-.1c-37.8-4.21-71.12-11.61-111.15-7.37C357.74,842.33,263.32,844,166,845l-26.14.26c-12.39.17-24.92.43-37.5.71-44.73,1-90.15,2.33-134.06.38A51.57,51.57,0,0,1-27.1,857c41.27,1.61,83.8.5,125.74-.46,13.85-.33,27.59-.64,41.2-.81l8.7-.1h0c25.21-.26,50.28-.52,75.15-.93h0q21.13-.36,42.22-.88h0c63.11-1.52,126.16-4.42,191.7-10.78,30.75-3.24,57.57.38,85.5,4.14,5.3.71,10.69,1.43,16.13,2.12,3.16.4,6.32.78,9.52,1.14,51.93,5.14,101.82,5.28,153.66,5.28h4.18c83.07,1.47,165.76,1,248.39,0h0c116.3-1.55,232.41-4.42,349-5.23h9.91q65.88-.46,132,.26,49.48.57,99.15,2.07V842.41C1559.48,842.22,1553.84,842.06,1548.21,841.89Z" transform="translate(135.13 195.81)"/><path class="cls-17" d="M1406.2,782.26l3.69-8.68-8,8.63q-44.45-.46-88.85-.45l20.26-25.19-24.82,25.19h-3.55l-4.42-42.1-6.85,40.44-19-13.49,5.49,15.22c-95.8.38-191.41,2.26-286.92,4.83l-8.16-6.76,2.82,6.9q-86.42,2.32-172.75,5.16a1169.15,1169.15,0,0,1-149-6.33c-38.52-3.66-76-6.8-113.82-8l-5.2-.17h-1.46l-24.8-.43q-9.62,0-19.24.17c-26.33.69-52.56,1.21-78.7,1.74l-6.66.12c-37.75.74-75.3,1.47-112.8,2.55l-32.74,1c-43.92,1.57-87.69,3.76-131.51,7.23-26.86,2.38-55.28,2.35-84.19,1.43l21.33-32L49.83,791.12H48.47L43.61,723.4l-6.85,64.22-19-13.49L23.49,790c-17.65-.86-35.33-1.87-52.83-2.69a54.32,54.32,0,0,1,6.39,15.17c56.79,2.62,116.16-.26,173.25-1,106.73-1.07,209-2.12,318-12.68,40-4.21,73.36,3.16,111.15,7.4,53.31,5.28,104.46,5.28,157.8,5.28,276.81,4.9,549.83-11.16,827.91-3.28V786Q1485.51,783.09,1406.2,782.26Z" transform="translate(135.13 195.81)"/><g id="_Group_" data-name=" Group " class="cls-18"><path id="_Path_9" data-name=" Path 9" class="cls-19" d="M1292.6,93.08S1284,62,1247.83,73.37c0,0,10.75-36.41-42-34.7-57,1.85-38.39,33.65-38.39,33.65s-26.43-8.15-36.68,0c-5.38,4.25-7.64,12.31-8.57,19-30.14-14.94-53.46,9.24-45.37,11s44.77,0,44.77,0,22.65,3.07,35.06,0c0,0,44.23,7.11,91.7,1.36,0,0,22.11,4.43,44.23.44,0,0,30.74.83,41.53-1.8S1316.4,80.5,1292.6,93.08Z" transform="translate(135.13 195.81)"/><g id="_Group_2" data-name=" Group 2"><path id="_Path_10" data-name=" Path 10" class="cls-20" d="M1286.29,101.12c-15.57,6.56-49.26-10.67-49.26-10.67a23.7,23.7,0,0,1-7.93,3.95,33.82,33.82,0,0,1-25.71-2.86c-56.56-31.68-.79-52.59-.49-52.74-46.12,2.46-39,25.7-36.2,32a50.9,50.9,0,0,0,11.48,11.28c-21.75-14.36-39.39-12.82-40.58-12.69a16.26,16.26,0,0,0-6.8,2.92c-5.37,4.25-7.63,12.28-8.56,19a49,49,0,0,0,1.4,5.36,46.8,46.8,0,0,0-11.66-9c-24.91-5.85-42.26,13.18-35.12,14.72,8.09,1.75,44.77,0,44.77,0s22.65,3.07,35.06,0c0,0,44.23,7.11,91.7,1.36,0,0,22.11,4.43,44.23.44,0,0,14.12.38,26.58-.19C1305.44,103.94,1286.29,101.12,1286.29,101.12Z" transform="translate(135.13 195.81)"/><polygon id="_Path_11" data-name=" Path 11" class="cls-21" points="1462.86 299.09 1462.86 299.09 1462.86 299.09 1462.86 299.09"/></g><path id="_Path_12" data-name=" Path 12" class="cls-22" d="M1292.6,93.08S1284,62,1247.83,73.37c0,0,7.68-26-21.8-33,7.13,3.67,22.65,14.21,18.33,34.94,0,0,33.43-12.72,45.47,20.51,0,0,28.51-16.14,44.31,6.5C1344.91,99.65,1316.4,80.5,1292.6,93.08Z" transform="translate(135.13 195.81)"/></g><g id="_Group_3" data-name=" Group 3"><path id="_Path_13" data-name=" Path 13" class="cls-19" d="M1394.77,288.73s-6.61-23.81-34.28-15.09c0,0,8.23-27.88-32.14-26.57-43.64,1.42-29.4,25.77-29.4,25.77s-20.24-6.24-28.09,0c-4.12,3.26-5.85,9.43-6.56,14.55-23.08-11.44-40.94,7.08-34.74,8.42s34.28,0,34.28,0,17.35,2.35,26.85,0c0,0,33.87,5.44,70.22,1,0,0,16.93,3.39,33.87.34,0,0,23.54.63,31.8-1.38S1413,279.08,1394.77,288.73Z" transform="translate(135.13 195.81)"/><g id="_Group_4" data-name=" Group 4"><path id="_Path_14" data-name=" Path 14" class="cls-23" d="M1389.91,294.89c-11.92,5-37.72-8.17-37.72-8.17a18.15,18.15,0,0,1-6.07,3,25.89,25.89,0,0,1-19.69-2.19c-43.31-24.26-.6-40.27-.37-40.39-35.31,1.88-29.86,19.68-27.72,24.48a39,39,0,0,0,8.79,8.64c-16.66-11-30.16-9.81-31.07-9.72a12.45,12.45,0,0,0-5.21,2.23c-4.11,3.25-5.84,9.4-6.56,14.53a37.5,37.5,0,0,0,1.07,4.1,35.84,35.84,0,0,0-8.93-6.93c-19.08-4.48-32.36,10.09-26.89,11.28,6.2,1.34,34.28,0,34.28,0s17.35,2.35,26.85,0c0,0,33.87,5.44,70.22,1,0,0,16.93,3.39,33.87.34,0,0,10.81.29,20.35-.15C1404.6,297,1389.91,294.89,1389.91,294.89Z" transform="translate(135.13 195.81)"/><polygon id="_Path_15" data-name=" Path 15" class="cls-24" points="1556.8 492.36 1556.8 492.36 1556.8 492.36 1556.8 492.36"/></g><path id="_Path_16" data-name=" Path 16" class="cls-22" d="M1394.77,288.73s-6.61-23.81-34.28-15.09c0,0,5.88-19.93-16.7-25.3,5.46,2.81,17.34,10.88,14,26.75,0,0,25.6-9.74,34.82,15.71,0,0,21.83-12.36,33.93,5C1434.84,293.77,1413,279.08,1394.77,288.73Z" transform="translate(135.13 195.81)"/></g><g id="_Group_5" data-name=" Group 5"><path id="_Path_17" data-name=" Path 17" class="cls-19" d="M424.58,179.6s-5.81-20.92-30.12-13.26c0,0,7.23-24.49-28.24-23.34-38.34,1.24-25.83,22.64-25.83,22.64s-17.78-5.48-24.67,0c-3.62,2.86-5.14,8.28-5.76,12.78-20.28-10-36,6.22-30.52,7.4s30.12,0,30.12,0,15.24,2.06,23.58,0c0,0,29.75,4.78,61.68.92,0,0,14.88,3,29.75.3,0,0,20.68.56,27.94-1.21S440.58,171.12,424.58,179.6Z" transform="translate(135.13 195.81)"/><g id="_Group_6" data-name=" Group 6"><path id="_Path_18" data-name=" Path 18" class="cls-25" d="M420.33,185c-10.47,4.42-33.14-7.17-33.14-7.17a15.94,15.94,0,0,1-5.34,2.66,22.75,22.75,0,0,1-17.29-1.92c-38-21.31-.53-35.38-.33-35.48-31,1.65-26.23,17.29-24.35,21.51a34.24,34.24,0,0,0,7.72,7.59c-14.63-9.66-26.49-8.62-27.3-8.54a10.94,10.94,0,0,0-4.58,2c-3.61,2.86-5.13,8.26-5.76,12.76a33,33,0,0,0,.94,3.61,31.48,31.48,0,0,0-7.84-6.09c-16.76-3.94-28.43,8.86-23.62,9.91,5.44,1.18,30.12,0,30.12,0s15.24,2.06,23.58,0c0,0,29.75,4.78,61.68.92,0,0,14.88,3,29.75.3,0,0,9.5.25,17.88-.13A192.14,192.14,0,0,1,420.33,185Z" transform="translate(135.13 195.81)"/><polygon id="_Path_19" data-name=" Path 19" class="cls-26" points="583.33 382.28 583.33 382.28 583.33 382.28 583.33 382.28"/></g><path id="_Path_20" data-name=" Path 20" class="cls-22" d="M424.58,179.6s-5.81-20.92-30.12-13.26c0,0,5.16-17.5-14.67-22.22,4.79,2.47,15.23,9.56,12.33,23.5,0,0,22.49-8.55,30.58,13.8,0,0,19.18-10.85,29.81,4.37C459.77,184,440.58,171.12,424.58,179.6Z" transform="translate(135.13 195.81)"/></g><g id="_Group_7" data-name=" Group 7"><path id="_Path_21" data-name=" Path 21" class="cls-19" d="M939.61,227.07S929,189,884.78,202.93c0,0,13.16-44.59-51.41-42.5-69.8,2.26-47,41.22-47,41.22s-32.37-10-44.92-.06c-6.59,5.21-9.36,15.08-10.5,23.28-36.92-18.29-65.48,11.32-55.57,13.47s54.83,0,54.83,0,27.75,3.76,42.94,0c0,0,54.17,8.7,112.31,1.67,0,0,27.09,5.43,54.17.54,0,0,37.66,1,50.87-2.21S968.76,211.62,939.61,227.07Z" transform="translate(135.13 195.81)"/><g id="_Group_8" data-name=" Group 8"><path id="_Path_22" data-name=" Path 22" class="cls-27" d="M931.91,236.91c-19.07,8-60.34-13.06-60.34-13.06a29,29,0,0,1-9.71,4.84,41.42,41.42,0,0,1-31.48-3.5c-69.27-38.81-1-64.41-.6-64.59-56.48,3-47.76,31.47-44.34,39.15a62.33,62.33,0,0,0,14.06,13.82C772.86,196,751.26,197.87,749.8,198a19.92,19.92,0,0,0-8.33,3.57c-6.58,5.2-9.34,15-10.49,23.23a60,60,0,0,0,1.71,6.56,57.32,57.32,0,0,0-14.28-11.08c-30.51-7.17-51.76,16.14-43,18,9.91,2.15,54.83,0,54.83,0s27.75,3.76,42.94,0c0,0,54.17,8.7,112.31,1.67,0,0,27.09,5.43,54.17.54,0,0,17.29.46,32.55-.24C955.33,240.37,931.91,236.91,931.91,236.91Z" transform="translate(135.13 195.81)"/><polygon id="_Path_23" data-name=" Path 23" class="cls-28" points="1117.76 435.37 1117.76 435.37 1117.76 435.37 1117.76 435.37"/></g><path id="_Path_24" data-name=" Path 24" class="cls-22" d="M939.61,227.07S929,189,884.78,202.93c0,0,9.4-31.87-26.71-40.46,8.73,4.49,27.74,17.4,22.45,42.79,0,0,41-15.58,55.68,25.12,0,0,34.92-19.76,54.27,8C1003.69,235.11,968.76,211.62,939.61,227.07Z" transform="translate(135.13 195.81)"/></g><ellipse class="cls-29" cx="1033.17" cy="24.6" rx="2.2" ry="1.78"/><path id="_Path_25" data-name=" Path 25" class="cls-30" d="M1491.42,241s-373.62-69-518.56-42.17c0,0,236.73-9.24,502.45,51.76Z" transform="translate(135.13 195.81)"/><path id="_Compound_Path_" data-name=" Compound Path " class="cls-30" d="M1163.57,26.72C1020.44,36,932.81,33.59,837.1,26.06c142.31,3.44,299.1-3,326.47-9.9,38.65-9.79,252.94-.12,252.94-.12l19.22-4.66S1266.64-1.89,1140.51,16s-464.9-4.66-464.9-4.66h0c-15.89-1.46-32.48-2.95-49.92-4.45-217.41-18.75-715,58.38-715,58.38l43.48,52.32s494.4-77.37,601.46-77,372.85,35.49,562.94,16.16,436.34,23.59,436.34,23.59l40.26-45.72S1398.69,11.5,1163.57,26.72ZM297.91,35.88c-8.55,6.62-36.7,13.62-74.85,14.62,0,0-38.19-1.1-27.25-9.22S306.5,29.27,297.91,35.88Zm15,10.52c-25-10.23,31-28.79,150.14-24.38S367.06,68.57,312.91,46.4Zm629.94,4.68C816.78,49.92,553.09,29.62,632,32.08c157.8,4.84,448.76,20.27,310.79,19Zm43.59-9.58s66.22-6.63,82.23,0-100,5.17-82.25,0Z" transform="translate(135.13 195.81)"/><path id="_Compound_Path_2" data-name=" Compound Path 2" class="cls-30" d="M1515.23,326c-10.73,3.18-477.23-26-548.68-42.32S759.4,296.28,609.36,307.82s-623,2.26-623,2.26l30.6,17s447.7,59.42,676.38,5.84,853.57,20.66,853.57,20.66S1526,322.81,1515.23,326ZM277.77,331c-6.29-1.67-2.71-5,5.37-5.06,57.15-.24,206.36-.76,243.49.1,65.86,1.47-106.23,42.73-248.86,4.92Zm723.06-30.49s77.24-.53,85.39,9.55S945.91,305.83,1000.83,300.5Z" transform="translate(135.13 195.81)"/><path id="_Compound_Path_3" data-name=" Compound Path 3" class="cls-30" d="M787.91,439.92s217.6-47.2,297.24-13.15,235.55-3.71,235.55-3.71l10.66-10.79s-164.69,5.9-216.94-1.43S1014.91,385.12,990,395.5s-187.35,28.91-191.08,26.89S787.91,439.92,787.91,439.92Zm355.31-17.53c12.93-.55,64.89-.22,84.8-.06,2.81,0,4.06,2.15,1.87,3.21-49.71,24-109.64-2.18-86.71-3.15ZM948.31,412.27c2.84-6.41,29.74-6.07,29.74-6.07C997.16,409.58,945.47,418.68,948.31,412.27Z" transform="translate(135.13 195.81)"/><g id="_Group_9" data-name=" Group 9"><path id="_Compound_Path_4" data-name=" Compound Path 4" class="cls-30" d="M1231.73,139.27c96.05,3.73,250.55,3.73,250.55,3.73l-9.48-12.81c-58.61,16.27-223.35,3.62-299.28-3.41-6.2-1.5-12-3-17.51-4.49-107.23-29.23-261.52-6.17-330.24,13.18-87.63,3.47-201.79-1.71-286.07-7l-42.11-6.17C284.21,91.07,33,190.39,28.15,190.39v19.67c-36.16-1.45-66.84-3.34-86.45-4.64-14.08-.93-22.45-1.56-23.06-1.49,0,0,69.25,28,119.16,24.39,45.61,3,104.47,1.42,176.9-10.83,152.62-25.8,214.64-17.65,235.35-12.4-19.55-5.48-73-15.46-174.54-1.16-55.17,7.77-125.59,9-189.28,7.85,92.34-30,271.87-80.48,367.06-53.93,131.76,36.75,306,28.6,458.55,0s658.28,69.41,658.28,69.41V190.38S1368.2,165.78,1231.73,139.27ZM221.61,157.84c-2.4-3.73,27.46-29.14,70.85-22.35S229.91,170.71,221.61,157.84Zm147.57-19c-25.39,8.1-53.27,4.93-31.27-3.34,4.68-1.78,56.67-4.73,31.27,3.36Zm117.93,3.1s102.8,7.56,108.56,16.15S434,147.5,487.12,141.95Zm322.08-1.32c-38.82,13.59-70.5,14.62-154.9,3.92A1336.66,1336.66,0,0,0,809.8,140.4ZM911.83,142c-38.89,1.5,111.35-24.74,142-11.53s-61,8.42-142,11.54Z" transform="translate(135.13 195.81)"/><path id="_Path_26" data-name=" Path 26" class="cls-30" d="M450.05,205.09a70.13,70.13,0,0,1,8.82,3A42.93,42.93,0,0,0,450.05,205.09Z" transform="translate(135.13 195.81)"/></g><path class="cls-31" d="M317.14,104.09l-2,.37-.45-1.63a.73.73,0,0,0-.85-.44.59.59,0,0,0-.55.63v.06l.45,1.63-2,.37a.59.59,0,0,0-.55.63v.06a.73.73,0,0,0,.85.44l2-.37.45,1.63a.73.73,0,0,0,.85.44.74.74,0,0,0,.41-.21.5.5,0,0,0,.13-.48l-.45-1.63,2-.37a.74.74,0,0,0,.41-.21.5.5,0,0,0,.13-.48A.73.73,0,0,0,317.14,104.09Z" transform="translate(135.13 195.81)"/><path class="cls-31" d="M213.41-2.45l-1.34.54L211.41-3a.57.57,0,0,0-.69-.19.39.39,0,0,0-.26.49l0,.07.66,1.09L209.81-1a.39.39,0,0,0-.26.49l0,.07a.57.57,0,0,0,.69.19l1.34-.54L212.27.3a.57.57,0,0,0,.64.2.47.47,0,0,0,.24-.21.35.35,0,0,0,0-.36l-.66-1.09,1.34-.54a.47.47,0,0,0,.24-.21.35.35,0,0,0,0-.36A.57.57,0,0,0,213.41-2.45Z" transform="translate(135.13 195.81)"/><ellipse class="cls-29" cx="132.79" cy="357.81" rx="3.99" ry="3.24"/><ellipse class="cls-29" cx="457.92" cy="476.74" rx="3.99" ry="3.24"/><ellipse class="cls-29" cx="664.09" cy="335.48" rx="2.2" ry="1.78"/><ellipse class="cls-29" cx="368.25" cy="620.38" rx="2.2" ry="1.78"/><path class="cls-31" d="M744.79,325.3l-2,.37-.45-1.63a.73.73,0,0,0-.85-.44.59.59,0,0,0-.55.63v.06l.45,1.63-2,.37a.59.59,0,0,0-.55.63V327a.73.73,0,0,0,.85.44l2-.37.45,1.63a.73.73,0,0,0,.85.44.74.74,0,0,0,.41-.21.5.5,0,0,0,.13-.48l-.45-1.63,2-.37a.74.74,0,0,0,.41-.21.5.5,0,0,0,.13-.48A.73.73,0,0,0,744.79,325.3Z" transform="translate(135.13 195.81)"/><path class="cls-31" d="M358.2,41.62l-2.4-.7.86-1.95a.69.69,0,0,0-.42-.88l-.11,0a.94.94,0,0,0-1.12.43l-.86,1.95-2.4-.7a.94.94,0,0,0-1.12.43.69.69,0,0,0,.42.88l.11,0,2.4.7-.86,1.95a.69.69,0,0,0,.42.88l.11,0a1.07,1.07,0,0,0,.6,0,.81.81,0,0,0,.53-.43l.86-1.95,2.4.7a1.07,1.07,0,0,0,.6,0,.81.81,0,0,0,.53-.43.69.69,0,0,0-.42-.88Z" transform="translate(135.13 195.81)"/><path class="cls-31" d="M90.39,233l-1.34.54-.66-1.09a.57.57,0,0,0-.69-.19.39.39,0,0,0-.26.49l0,.07.66,1.09-1.34.54a.39.39,0,0,0-.26.49l0,.07a.57.57,0,0,0,.69.19l1.34-.54.66,1.09a.57.57,0,0,0,.69.19.47.47,0,0,0,.24-.21.35.35,0,0,0,0-.36l-.66-1.09,1.34-.54a.47.47,0,0,0,.24-.21.35.35,0,0,0,0-.36A.57.57,0,0,0,90.39,233Z" transform="translate(135.13 195.81)"/><path class="cls-31" d="M210.48,280.61l-1.34.54-.66-1.09a.57.57,0,0,0-.69-.19.39.39,0,0,0-.26.49l0,.07.66,1.09-1.34.54a.39.39,0,0,0-.26.49l0,.07a.57.57,0,0,0,.69.19l1.34-.54.66,1.09a.57.57,0,0,0,.69.19.47.47,0,0,0,.24-.21.35.35,0,0,0,0-.36l-.66-1.09,1.34-.54a.47.47,0,0,0,.24-.21.35.35,0,0,0,0-.36A.57.57,0,0,0,210.48,280.61Z" transform="translate(135.13 195.81)"/><path class="cls-31" d="M269.07,159.3l-1.34.54-.66-1.09a.57.57,0,0,0-.69-.19.39.39,0,0,0-.26.49l0,.07.66,1.09-1.34.54a.39.39,0,0,0-.26.49l0,.07a.57.57,0,0,0,.69.19l1.34-.54.66,1.09a.57.57,0,0,0,.69.19.47.47,0,0,0,.24-.21.35.35,0,0,0,0-.36l-.66-1.09,1.34-.54a.47.47,0,0,0,.24-.21.35.35,0,0,0,0-.36A.57.57,0,0,0,269.07,159.3Z" transform="translate(135.13 195.81)"/><path class="cls-31" d="M1196.28,133.25l1.68-1.16,1.08,1.3a.73.73,0,0,0,1,0,.59.59,0,0,0,.24-.8l0-.05-1.08-1.3,1.68-1.16a.59.59,0,0,0,.24-.8l0-.05a.73.73,0,0,0-1,0l-1.68,1.16-1.08-1.3a.73.73,0,0,0-1,0,.74.74,0,0,0-.28.36.5.5,0,0,0,.08.49l1.08,1.3-1.68,1.16a.74.74,0,0,0-.28.36.5.5,0,0,0,.08.49A.73.73,0,0,0,1196.28,133.25Z" transform="translate(135.13 195.81)"/><path class="cls-31" d="M1334.73,187.5l1-1,1.05.72a.57.57,0,0,0,.71-.11.39.39,0,0,0,.06-.55l-.06-.06-1.05-.72,1-1a.39.39,0,0,0,.06-.55l-.06-.06a.57.57,0,0,0-.71.11l-1,1-1.05-.72a.57.57,0,0,0-.71.11.47.47,0,0,0-.14.29.35.35,0,0,0,.15.32l1.05.72-1,1a.47.47,0,0,0-.14.29.35.35,0,0,0,.15.32A.57.57,0,0,0,1334.73,187.5Z" transform="translate(135.13 195.81)"/><ellipse class="cls-29" cx="1463.42" cy="-51.27" rx="3.99" ry="3.24" transform="translate(286.67 795.09) rotate(-24.37)"/><ellipse class="cls-29" cx="1116.92" cy="-22.23" rx="3.98" ry="3.23" transform="translate(242.85 652.66) rotate(-24.25)"/><ellipse class="cls-29" cx="988.67" cy="188.3" rx="2.2" ry="1.78" transform="translate(145.52 620.54) rotate(-24.37)"/><ellipse class="cls-29" cx="1140.59" cy="-193.29" rx="2.2" ry="1.78" transform="translate(316.51 649.22) rotate(-24.37)"/><path class="cls-31" d="M715.45,108.23l1.68-1.16,1.08,1.3a.73.73,0,0,0,1,0,.59.59,0,0,0,.24-.8l0-.05-1.08-1.3,1.68-1.16a.59.59,0,0,0,.24-.8l0-.05a.73.73,0,0,0-1,0l-1.68,1.16-1.08-1.3a.73.73,0,0,0-1,0,.74.74,0,0,0-.28.36.5.5,0,0,0,.08.49l1.08,1.3-1.68,1.16a.74.74,0,0,0-.28.36.5.5,0,0,0,.08.49A.73.73,0,0,0,715.45,108.23Z" transform="translate(135.13 195.81)"/><path class="cls-31" d="M1184.66,207.1l2.47-.35v2.13a.69.69,0,0,0,.75.63l.11,0a.94.94,0,0,0,.84-.85v-2.13l2.47-.35a.94.94,0,0,0,.84-.85.69.69,0,0,0-.75-.63l-.11,0-2.47.35v-2.13a.69.69,0,0,0-.75-.63l-.11,0a1.07,1.07,0,0,0-.54.25.81.81,0,0,0-.3.61v2.13l-2.47.35a1.07,1.07,0,0,0-.54.25.81.81,0,0,0-.3.61.69.69,0,0,0,.76.61Z" transform="translate(135.13 195.81)"/><path class="cls-31" d="M978.67,239.12l1-1,1.05.72a.57.57,0,0,0,.71-.11.39.39,0,0,0,.06-.55l-.06-.06-1.05-.72,1-1a.39.39,0,0,0,.06-.55l-.06-.06a.57.57,0,0,0-.71.11l-1,1-1.05-.72a.57.57,0,0,0-.71.11.47.47,0,0,0-.14.29.35.35,0,0,0,.15.32l1.05.72-1,1a.47.47,0,0,0-.14.29.35.35,0,0,0,.15.32A.57.57,0,0,0,978.67,239.12Z" transform="translate(135.13 195.81)"/><path class="cls-31" d="M1349.61-77.78l1-1,1.05.72a.57.57,0,0,0,.71-.11.39.39,0,0,0,.06-.55l-.06-.06-1.07-.72,1-1a.39.39,0,0,0,.06-.55l-.06-.06a.57.57,0,0,0-.71.11l-1,1-1.05-.72a.57.57,0,0,0-.71.11.47.47,0,0,0-.14.29.35.35,0,0,0,.15.32l1.05.72-1,1a.47.47,0,0,0-.14.29.35.35,0,0,0,.15.32A.57.57,0,0,0,1349.61-77.78Z" transform="translate(135.13 195.81)"/><path class="cls-31" d="M1220.59-71.55l1-1,1.05.72a.57.57,0,0,0,.71-.11.39.39,0,0,0,.06-.55l-.06-.06-1.05-.72,1-1a.39.39,0,0,0,.06-.55l-.06-.06a.57.57,0,0,0-.71.11l-1,1-1.09-.73a.57.57,0,0,0-.71.11.47.47,0,0,0-.14.29.35.35,0,0,0,.15.32l1.05.72-1,1a.47.47,0,0,0-.14.29.35.35,0,0,0,.15.32A.57.57,0,0,0,1220.59-71.55Z" transform="translate(135.13 195.81)"/><path class="cls-31" d="M1217.29,63.12l1-1,1.05.72a.57.57,0,0,0,.71-.11.39.39,0,0,0,.06-.55l-.06-.06L1219,61.4l1-1a.39.39,0,0,0,.06-.55l-.06-.06a.57.57,0,0,0-.71.11l-1,1-1.05-.72a.57.57,0,0,0-.71.11.47.47,0,0,0-.14.29.35.35,0,0,0,.15.32l1.05.72-1,1a.47.47,0,0,0-.14.29.35.35,0,0,0,.15.32A.57.57,0,0,0,1217.29,63.12Z" transform="translate(135.13 195.81)"/><path class="cls-32" d="M1510.53,47.09c-.75-1.63.29-3.68,2.33-4.59s4.29-.32,5,1.3-.29,3.68-2.33,4.59S1511.28,48.72,1510.53,47.09Z" transform="translate(135.13 195.81)"/><path class="cls-31" d="M1398.91,19l1-1,1.07.72a.59.59,0,0,0,.72-.11.38.38,0,0,0,.08-.53l-.08-.08-1.07-.72,1-1a.38.38,0,0,0,.08-.53l-.08-.08a.59.59,0,0,0-.72.11l-1,1-1.07-.72a.59.59,0,0,0-.72.11.47.47,0,0,0-.14.29.35.35,0,0,0,.16.32l1.07.72-1,1a.47.47,0,0,0-.14.29.35.35,0,0,0,.16.32A.59.59,0,0,0,1398.91,19Z" transform="translate(135.13 195.81)"/><path class="cls-31" d="M1268.09,25.26l1-1,1.07.72a.59.59,0,0,0,.72-.11.38.38,0,0,0,.08-.53l-.08-.08-1.07-.72,1-1a.38.38,0,0,0,.08-.53l-.08-.08a.59.59,0,0,0-.72.11l-1,1-1.07-.72a.59.59,0,0,0-.72.11.47.47,0,0,0-.14.29.35.35,0,0,0,.16.32l1.07.72-1,1a.47.47,0,0,0-.14.29.35.35,0,0,0,.16.32A.59.59,0,0,0,1268.09,25.26Z" transform="translate(135.13 195.81)"/><path id="_Path_27" data-name=" Path 27" class="cls-19" d="M678.76,68.28S680.37,24.62,640,37.34c0,0,.75-31.74-58.13-29.83C518.22,9.57,539,45.1,539,45.1S509.47,36,498,45c-6,4.75-8.53,13.75-9.57,21.23-33.67-16.68-59.71,10.33-50.67,12.28s50,0,50,0,25.3,3.42,39.16,0c0,0,49.4,7.94,102.42,1.52,0,0,24.7,4.95,49.4.49,0,0,34.34.92,46.39-2S705.33,54.19,678.76,68.28Z" transform="translate(135.13 195.81)"/><g id="_Group_10" data-name=" Group 10"><path id="_Path_28" data-name=" Path 28" class="cls-33" d="M671.7,77.25c-17.39,7.33-55-11.91-55-11.91a26.47,26.47,0,0,1-8.86,4.41,37.77,37.77,0,0,1-28.71-3.2c-63.17-35.39-.88-58.74-.54-58.91-51.51,2.74-43.55,28.7-40.44,35.71a56.85,56.85,0,0,0,12.76,12.6c-24.3-16-44-14.31-45.33-14.17A18.16,18.16,0,0,0,498,45c-6,4.74-8.52,13.72-9.57,21.19a54.74,54.74,0,0,0,1.56,6,52.27,52.27,0,0,0-13-10.11c-27.83-6.54-47.2,14.72-39.22,16.45,9,2,50,0,50,0s25.3,3.42,39.16,0c0,0,49.4,7.94,102.42,1.52,0,0,24.7,4.95,49.4.49,0,0,15.77.42,29.68-.22C693.09,80.41,671.7,77.25,671.7,77.25Z" transform="translate(135.13 195.81)"/><polygon id="_Path_29" data-name=" Path 29" class="cls-34" points="853.12 275.48 853.12 275.48 853.12 275.48 853.12 275.48"/></g><path id="_Path_30" data-name=" Path 30" class="cls-22" d="M678.76,68.28S680.37,27,640,39.72c0,0-2.67-22.52-35.6-30.35,8,4.1,37.5,7.2,32.67,30.35,0,0,25.14-5.53,38.58,31.58,0,0,31.85-18,49.5,7.25C737.19,75.61,705.33,54.19,678.76,68.28Z" transform="translate(135.13 195.81)"/><g id="_Group_11" data-name=" Group 11"><path id="_Path_31" data-name=" Path 31" class="cls-19" d="M761.83,90.26s-6.61-23.81-34.28-15.09c0,0,8.23-27.88-32.14-26.57C651.77,50,666,74.37,666,74.37s-20.24-6.24-28.09,0c-4.12,3.26-5.85,9.43-6.56,14.55-23.08-11.44-40.94,7.08-34.74,8.42s34.28,0,34.28,0,17.35,2.35,26.85,0c0,0,33.87,5.44,70.22,1,0,0,16.93,3.39,33.87.34,0,0,23.54.63,31.8-1.38S780.05,80.61,761.83,90.26Z" transform="translate(135.13 195.81)"/><g id="_Group_12" data-name=" Group 12"><path id="_Path_32" data-name=" Path 32" class="cls-35" d="M757,96.42c-11.92,5-37.72-8.17-37.72-8.17a18.15,18.15,0,0,1-6.07,3,25.89,25.89,0,0,1-19.69-2.19c-43.31-24.26-.6-40.27-.37-40.39-35.31,1.88-29.86,19.68-27.72,24.48a39,39,0,0,0,8.79,8.64c-16.66-11-30.16-9.81-31.07-9.72a12.45,12.45,0,0,0-5.21,2.23c-4.11,3.25-5.84,9.4-6.56,14.53a37.5,37.5,0,0,0,1.07,4.1A35.84,35.84,0,0,0,623.51,86c-19.08-4.48-32.36,10.09-26.89,11.28,6.2,1.34,34.28,0,34.28,0s17.35,2.35,26.85,0c0,0,33.87,5.44,70.22,1,0,0,16.93,3.39,33.87.34,0,0,10.81.29,20.35-.15C771.66,98.58,757,96.42,757,96.42Z" transform="translate(135.13 195.81)"/><polygon id="_Path_33" data-name=" Path 33" class="cls-36" points="923.85 293.89 923.85 293.89 923.85 293.89 923.85 293.89"/></g><path id="_Path_34" data-name=" Path 34" class="cls-22" d="M761.83,90.26s-6.61-23.81-34.28-15.09c0,0,5.88-19.93-16.7-25.3,5.46,2.81,17.34,10.88,14,26.75,0,0,25.6-9.74,34.82,15.71,0,0,21.83-12.36,33.93,5C801.91,95.3,780.05,80.61,761.83,90.26Z" transform="translate(135.13 195.81)"/></g><path id="_Path_35" data-name=" Path 35" class="cls-19" d="M107.66,57.79s1.61-43.66-38.76-30.94c0,0,.75-31.74-58.13-29.83C-52.88-.91-32.09,34.61-32.09,34.61s-29.52-9.1-41-.05c-6,4.75-8.53,13.75-9.57,21.23-33.65-16.69-59.7,10.32-50.66,12.28s50,0,50,0,25.3,3.42,39.16,0c0,0,49.4,7.94,102.42,1.52,0,0,24.7,4.95,49.4.49,0,0,34.34.92,46.39-2S134.24,43.71,107.66,57.79Z" transform="translate(135.13 195.81)"/><g id="_Group_13" data-name=" Group 13"><path id="_Path_36" data-name=" Path 36" class="cls-37" d="M100.61,66.77c-17.39,7.33-55-11.91-55-11.91a26.47,26.47,0,0,1-8.86,4.41A37.77,37.77,0,0,1,8,56.07C-55.13,20.68,7.16-2.67,7.5-2.84-44.09-.09-36.09,25.87-33,32.87A56.85,56.85,0,0,0-20.15,45.5c-24.3-16-44-14.31-45.33-14.17a18.16,18.16,0,0,0-7.6,3.26c-6,4.74-8.52,13.72-9.57,21.19a54.74,54.74,0,0,0,1.56,6,52.27,52.27,0,0,0-13-10.11c-27.83-6.54-47.2,14.72-39.22,16.45,9,2,50,0,50,0s25.3,3.42,39.16,0c0,0,49.4,7.94,102.42,1.52,0,0,24.7,4.95,49.4.49,0,0,15.77.42,29.68-.22C122,69.93,100.61,66.77,100.61,66.77Z" transform="translate(135.13 195.81)"/><polygon id="_Path_37" data-name=" Path 37" class="cls-38" points="282.02 265 282.02 265 282.02 265 282.02 265"/></g><path id="_Path_38" data-name=" Path 38" class="cls-22" d="M107.66,57.79s1.61-41.29-38.75-28.56c0,0-2.67-22.52-35.6-30.35,8,4.1,37.5,7.2,32.67,30.35,0,0,25.14-5.53,38.58,31.58,0,0,31.85-18,49.5,7.25C166.1,65.13,134.24,43.71,107.66,57.79Z" transform="translate(135.13 195.81)"/><g id="_Group_14" data-name=" Group 14"><path id="_Path_39" data-name=" Path 39" class="cls-19" d="M198.1,310.85s-5.81-20.92-30.12-13.26c0,0,7.23-24.49-28.24-23.34-38.33,1.25-25.83,22.63-25.83,22.63s-17.78-5.48-24.67,0c-3.62,2.86-5.14,8.28-5.76,12.78-20.28-10-36,6.22-30.52,7.4s30.12,0,30.12,0,15.24,2.06,23.58,0c0,0,29.75,4.78,61.68.92,0,0,14.88,3,29.75.3,0,0,20.68.56,27.94-1.21S214.1,302.36,198.1,310.85Z" transform="translate(135.13 195.81)"/><g id="_Group_15" data-name=" Group 15"><path id="_Path_40" data-name=" Path 40" class="cls-39" d="M193.85,316.25c-10.47,4.42-33.14-7.17-33.14-7.17a15.94,15.94,0,0,1-5.34,2.66,22.75,22.75,0,0,1-17.29-1.92c-38-21.31-.53-35.38-.33-35.48-31,1.65-26.23,17.29-24.35,21.51a34.24,34.24,0,0,0,7.72,7.59c-14.63-9.66-26.49-8.62-27.3-8.54a10.94,10.94,0,0,0-4.58,2c-3.61,2.86-5.13,8.26-5.76,12.76a33,33,0,0,0,.94,3.61,31.48,31.48,0,0,0-7.84-6.09C59.82,303.24,48.15,316,53,317.09c5.44,1.18,30.12,0,30.12,0s15.24,2.06,23.58,0c0,0,29.75,4.78,61.68.92,0,0,14.88,3,29.75.3,0,0,9.5.25,17.88-.13A192.14,192.14,0,0,1,193.85,316.25Z" transform="translate(135.13 195.81)"/><polygon id="_Path_41" data-name=" Path 41" class="cls-40" points="356.85 513.52 356.85 513.52 356.85 513.52 356.85 513.52"/></g><path id="_Path_42" data-name=" Path 42" class="cls-22" d="M198.1,310.85s-5.81-20.92-30.12-13.26c0,0,5.16-17.5-14.67-22.22,4.79,2.47,15.23,9.56,12.33,23.5,0,0,22.49-8.55,30.58,13.8,0,0,19.18-10.85,29.81,4.37C233.29,315.27,214.1,302.36,198.1,310.85Z" transform="translate(135.13 195.81)"/></g></g></g></svg>