<?xml version="1.0" encoding="utf-8"?>
<!-- Generator: Adobe Illustrator 21.0.2, SVG Export Plug-In . SVG Version: 6.00 Build 0)  -->
<svg version="1.1" id="Layer_1" xmlns="http://www.w3.org/2000/svg" xmlns:xlink="http://www.w3.org/1999/xlink" x="0px" y="0px"
	 viewBox="0 0 973 292" style="enable-background:new 0 0 973 292;" xml:space="preserve">
<style type="text/css">
	.st0{fill:#0D7A08;}
	.st1{fill:#10B208;}
	.st2{opacity:0.14;fill:#076302;enable-background:new    ;}
</style>
<title>nameinput</title>
<polygon class="st0" points="965,264.4 953.9,269.4 912.7,288 464.8,278.6 406.5,277.4 328.1,275.8 9.5,269.2 3,75.7 9.6,69.4 
	61.9,19.2 464.8,44.4 516.1,47.7 886.5,71.1 939.9,97.9 951.9,104.1 "/>
<polygon class="st1" points="952.2,247 900.9,269.8 464.8,260.8 354.9,258.6 15.9,251.5 9.6,69.4 9.4,64.7 67.1,10 464.8,34.7 
	516.1,37.8 875.2,60.1 939.4,92.1 939.9,97.9 "/>
<polygon class="st2" points="965,264.4 953.9,269.4 406.5,277.4 323.7,278.6 328.1,275.8 354.9,258.6 382.2,240.9 516.1,154.4 
	516.1,37.8 875.2,60.1 939.4,92.1 939.9,97.9 951.9,104.1 "/>
</svg>
