<svg xmlns="http://www.w3.org/2000/svg" xmlns:xlink="http://www.w3.org/1999/xlink" viewBox="0 0 1728.11 1159.08"><defs><style>.cls-1,.cls-15,.cls-30,.cls-35{fill:none;}.cls-2{isolation:isolate;}.cls-3{clip-path:url(#clip-path);}.cls-4{fill:url(#linear-gradient);}.cls-5{opacity:0.26;}.cls-6{fill:#688c7f;}.cls-7{opacity:0.09;}.cls-8{fill:#ad5236;}.cls-9{opacity:0.1;}.cls-10,.cls-17{opacity:0.5;}.cls-11{fill:#ce783f;}.cls-12{fill:#b4673e;}.cls-13{fill:#e49345;}.cls-14{fill:#9b5c3f;}.cls-15{stroke:#2d2d2d;stroke-width:3.4px;}.cls-15,.cls-34,.cls-36{stroke-miterlimit:10;}.cls-16{fill:#82820f;}.cls-17{fill:#492e17;}.cls-18{fill:url(#linear-gradient-2);}.cls-19{opacity:0.81;}.cls-20{fill:#ffe7e1;}.cls-21{fill:url(#linear-gradient-3);}.cls-22{fill:url(#linear-gradient-4);}.cls-23,.cls-31,.cls-33{fill:#fff;}.cls-24{fill:url(#linear-gradient-5);}.cls-25{fill:url(#linear-gradient-6);}.cls-26{fill:url(#linear-gradient-7);}.cls-27{fill:url(#linear-gradient-8);}.cls-28{fill:url(#linear-gradient-9);}.cls-29{fill:url(#linear-gradient-10);}.cls-30,.cls-34,.cls-35,.cls-36{stroke:#f9f9f9;}.cls-30,.cls-35{stroke-linecap:round;stroke-linejoin:round;}.cls-30{stroke-width:1.32px;}.cls-31,.cls-33{opacity:0.24;}.cls-31,.cls-32{mix-blend-mode:soft-light;}.cls-34,.cls-36{fill:#f9f9f9;}.cls-34{stroke-width:0.66px;}.cls-35{stroke-width:1.33px;}.cls-36{stroke-width:0.66px;}.cls-37{fill:url(#linear-gradient-11);}.cls-38{fill:url(#linear-gradient-12);}.cls-39{fill:url(#linear-gradient-13);}.cls-40{fill:url(#linear-gradient-14);}.cls-41{fill:url(#linear-gradient-15);}.cls-42{fill:url(#linear-gradient-16);}.cls-43{fill:url(#linear-gradient-17);}.cls-44{fill:url(#linear-gradient-18);}</style><clipPath id="clip-path" transform="translate(145.04 221.65)"><rect class="cls-1" x="1" y="1.66" width="1500" height="891.71"/></clipPath><linearGradient id="linear-gradient" x1="754.81" y1="-111.08" x2="754.81" y2="758.8" gradientUnits="userSpaceOnUse"><stop offset="0" stop-color="#186b91"/><stop offset="0.2" stop-color="#5f9cb6"/><stop offset="0.38" stop-color="#93c1d2"/><stop offset="0.51" stop-color="#b4d7e3"/><stop offset="0.58" stop-color="#c0e0e9"/><stop offset="0.63" stop-color="#c2dfe2"/><stop offset="0.72" stop-color="#c9dccf"/><stop offset="0.81" stop-color="#d3d7af"/><stop offset="0.92" stop-color="#e1d184"/><stop offset="1" stop-color="#edcb60"/></linearGradient><linearGradient id="linear-gradient-2" x1="756.85" y1="795.88" x2="756.85" y2="705.6" gradientUnits="userSpaceOnUse"><stop offset="0" stop-color="#bfa910"/><stop offset="1" stop-color="#cfa53d"/></linearGradient><linearGradient id="linear-gradient-3" x1="1164.52" y1="141.41" x2="1204.61" y2="16.68" gradientUnits="userSpaceOnUse"><stop offset="0" stop-color="#edcb60"/><stop offset="0.08" stop-color="#e1d184"/><stop offset="0.19" stop-color="#d3d7af"/><stop offset="0.28" stop-color="#c9dccf"/><stop offset="0.37" stop-color="#c2dfe2"/><stop offset="0.42" stop-color="#c0e0e9"/><stop offset="0.49" stop-color="#b4d7e3"/><stop offset="0.62" stop-color="#93c1d2"/><stop offset="0.8" stop-color="#5f9cb6"/><stop offset="1" stop-color="#186b91"/></linearGradient><linearGradient id="linear-gradient-4" x1="1460.98" y1="298.88" x2="1461.05" y2="298.66" xlink:href="#linear-gradient-3"/><linearGradient id="linear-gradient-5" x1="1293.82" y1="319.37" x2="1324.52" y2="223.86" xlink:href="#linear-gradient"/><linearGradient id="linear-gradient-6" x1="1554.82" y1="491.84" x2="1554.86" y2="491.73" gradientUnits="userSpaceOnUse"><stop offset="0" stop-color="#a085a5"/><stop offset="0.24" stop-color="#ac6d84" stop-opacity="0.67"/><stop offset="0.58" stop-color="#be4c55" stop-opacity="0.2"/><stop offset="0.62" stop-color="#c05057" stop-opacity="0.23"/><stop offset="0.68" stop-color="#c65b5c" stop-opacity="0.3"/><stop offset="0.75" stop-color="#cf6e64" stop-opacity="0.41"/><stop offset="0.83" stop-color="#dc8770" stop-opacity="0.57"/><stop offset="0.92" stop-color="#eda87e" stop-opacity="0.78"/><stop offset="1" stop-color="#ffcb8e"/></linearGradient><linearGradient id="linear-gradient-7" x1="335.68" y1="203.45" x2="362.65" y2="119.54" xlink:href="#linear-gradient"/><linearGradient id="linear-gradient-8" x1="582.56" y1="381.96" x2="582.64" y2="381.73" xlink:href="#linear-gradient"/><linearGradient id="linear-gradient-9" x1="785.82" y1="291.97" x2="834.92" y2="139.2" xlink:href="#linear-gradient-6"/><linearGradient id="linear-gradient-10" x1="1116.32" y1="434.98" x2="1116.39" y2="434.77" xlink:href="#linear-gradient-6"/><linearGradient id="linear-gradient-11" x1="537.84" y1="125.35" x2="582.62" y2="-13.97" xlink:href="#linear-gradient"/><linearGradient id="linear-gradient-12" x1="852.01" y1="275.3" x2="852.08" y2="275.08" xlink:href="#linear-gradient"/><linearGradient id="linear-gradient-13" x1="661.67" y1="121.15" x2="692.38" y2="25.63" xlink:href="#linear-gradient"/><linearGradient id="linear-gradient-14" x1="922.67" y1="293.62" x2="922.71" y2="293.51" xlink:href="#linear-gradient-6"/><linearGradient id="linear-gradient-15" x1="-32.53" y1="114.88" x2="12.25" y2="-24.44" xlink:href="#linear-gradient"/><linearGradient id="linear-gradient-16" x1="281.63" y1="264.83" x2="281.7" y2="264.61" xlink:href="#linear-gradient"/><linearGradient id="linear-gradient-17" x1="109.48" y1="334.52" x2="136.45" y2="250.62" xlink:href="#linear-gradient"/><linearGradient id="linear-gradient-18" x1="356.37" y1="513.04" x2="356.44" y2="512.81" xlink:href="#linear-gradient"/></defs><title>nbbg</title><g class="cls-2"><g id="Layer_1" data-name="Layer 1"><g class="cls-3"><path class="cls-4" d="M1318.47-29.49c-237.06,0-473.49-6.16-710.38-9.42-101.58-1.4-203.23-.49-304.63-4l-14.11-.49q-9.72-.32-19.45-.69c-35.05-1.24-70.28-2.45-105.5-2.95-7,1.71-14.27,3.2-21.66,4.57-19.2,3.56-40.3,4.38-60.47,5.56-11.9.69-23.83,1-35.81,1-19.35,0-38.67-.53-58-.78-2.61.47-5.26.88-8,1.19v938H1529.14v-932Z" transform="translate(145.04 221.65)"/><g id="Tees"><g class="cls-5"><path class="cls-6" d="M327.18,624.7a50.11,50.11,0,0,0,10.67,8.23c4.2,2.2,9.6,3.54,15.08,4.52,3.2.56,6.51,1,9.82,1.33v0c0-16.24,0-32.49,1-48.78a203.4,203.4,0,0,1,2.83-24.48l.28-1.8-.46-.51L367,563l3.32-21.72,6-38.93-32-23.39,32.83,17.79.59-3.88c1.15-8.08,2.15-16.16,3.07-24.24.43-4,.9-8.09,1.05-12.09a82.7,82.7,0,0,0-1.25-12,63.85,63.85,0,0,0-9-23.5,69.22,69.22,0,0,0-8.59-11c-1.68-1.75-3.43-3.48-5.22-5.21s-3.69-3.44-4.63-5.4c1,1.94,3.07,3.6,4.89,5.29s3.72,3.39,5.5,5.12a73.2,73.2,0,0,1,9.22,10.87,66.89,66.89,0,0,1,10.37,23.59,84.35,84.35,0,0,1,1.9,12.21c.05,4.11-.21,8.15-.43,12.21-.5,8.11-1.09,16.22-1.82,24.32l-4.9,48.61-1.9,18.88,37.73-10.29-38.18,14.77-.1,1a198.27,198.27,0,0,0-1.53,24.09c-.14,15.9.6,31.84,1.46,47.78L391,634.32l2.39,4.31-17.87,3.11,2.5,45.57c.12,2.71.29,5.4.42,8.11l14.75-4.59-14.61,8.26c0,.15,0,.29,0,.44.06,4.15-.13,8.27-.37,12.38-.51,8.22-1.52,16.37-2.67,24.51-2.35,16.29-5.44,32.43-9.13,48.66l-19.94-1.88c4.45-15.84,8.36-31.87,11.5-47.84,1.55-8,3-16,3.86-24,.44-4,.82-8,1-11.92s0-8.08.06-12.11l-.14-45.43c-3.8-.55-7.52-1.21-11.2-2-5.64-1.32-11.27-3-15.69-5.72a45.64,45.64,0,0,1-9.92-9,69.84,69.84,0,0,1-6.9-9.84A78.58,78.58,0,0,0,327.18,624.7Z" transform="translate(145.04 221.65)"/></g><g class="cls-5"><path class="cls-6" d="M482.9,594.23a52,52,0,0,0,10.67,9.63c4.2,2.57,9.6,4.14,15.08,5.29,3.2.66,6.51,1.16,9.82,1.56v0c0-19,0-38,1-57.12a277.31,277.31,0,0,1,2.83-28.66l.28-2.11-.46-.6.57-.18L526,496.58,532,451l-32-27.39,32.83,20.83.59-4.54c1.15-9.46,2.15-18.92,3.07-28.38.43-4.72.9-9.48,1.05-14.16a112.85,112.85,0,0,0-1.25-14.08,82.84,82.84,0,0,0-9-27.51,80.62,80.62,0,0,0-8.59-12.83c-1.68-2.05-3.43-4.08-5.22-6.1s-3.69-4-4.63-6.32c1,2.27,3.07,4.21,4.89,6.2s3.72,4,5.5,6a83.81,83.81,0,0,1,9.22,12.72A85.61,85.61,0,0,1,538.8,383a114.5,114.5,0,0,1,1.9,14.3c.05,4.81-.21,9.54-.43,14.3-.5,9.5-1.09,19-1.82,28.48L533.56,497l-1.9,22.11,37.73-12-38.18,17.29-.1,1.12a271.31,271.31,0,0,0-1.53,28.21c-.14,18.61.6,37.28,1.46,55.95l15.69-4.17,2.39,5-17.87,3.64,2.5,53.36c.12,3.17.29,6.32.42,9.49l14.75-5.38-14.61,9.67c0,.17,0,.34,0,.52.06,4.86-.13,9.69-.37,14.5-.51,9.62-1.52,19.17-2.67,28.7-2.35,19.07-5.44,38-9.13,57l-19.94-2.21c4.45-18.54,8.36-37.31,11.5-56,1.55-9.36,3-18.73,3.86-28.07.44-4.67.82-9.33,1-14s0-9.46.06-14.18l-.14-53.2c-3.8-.64-7.52-1.42-11.2-2.4-5.64-1.54-11.27-3.52-15.69-6.7a49.24,49.24,0,0,1-9.92-10.57,83.22,83.22,0,0,1-6.9-11.52A89.61,89.61,0,0,0,482.9,594.23Z" transform="translate(145.04 221.65)"/></g><g class="cls-7"><path class="cls-8" d="M507.64,669.44A52,52,0,0,1,497,675.21a71.91,71.91,0,0,1-15.08,3.17c-3.2.39-6.51.7-9.82.93v0c0-11.4,0-22.81-1-34.24a102.35,102.35,0,0,0-2.83-17.18l-.28-1.27.46-.36-.57-.11-3.32-15.25-6-27.32,32-16.42-32.83,12.49-.59-2.72c-1.15-5.67-2.15-11.34-3.07-17-.43-2.83-.9-5.68-1.05-8.49a41.47,41.47,0,0,1,1.25-8.44,38.06,38.06,0,0,1,9-16.49,56,56,0,0,1,8.59-7.69c1.68-1.23,3.43-2.45,5.22-3.65s3.69-2.41,4.63-3.79c-1,1.36-3.07,2.53-4.89,3.72s-3.72,2.38-5.5,3.59a61.68,61.68,0,0,0-9.22,7.63,41.63,41.63,0,0,0-10.37,16.56,43.14,43.14,0,0,0-1.9,8.57c-.05,2.88.21,5.72.43,8.57.5,5.7,1.09,11.38,1.82,17.07l4.9,34.12,1.9,13.25-37.73-7.22,38.18,10.37.1.67A98.38,98.38,0,0,1,461,645.15c.14,11.16-.6,22.35-1.46,33.54l-15.69-2.5-2.39,3,17.87,2.18-2.5,32c-.12,1.9-.29,3.79-.42,5.69l-14.75-3.22,14.61,5.8c0,.1,0,.21,0,.31a84.32,84.32,0,0,0,.37,8.69,159.28,159.28,0,0,0,2.67,17.21A319.06,319.06,0,0,0,468.39,782l19.94-1.32a332.07,332.07,0,0,1-11.5-33.58A161.58,161.58,0,0,1,473,730.28a82.72,82.72,0,0,1-1-8.37c-.17-2.79,0-5.67-.06-8.5l.14-31.89c3.8-.38,7.52-.85,11.2-1.44,5.64-.93,11.27-2.11,15.69-4a43.8,43.8,0,0,0,9.92-6.33,53.33,53.33,0,0,0,6.9-6.9A66.84,66.84,0,0,1,507.64,669.44Z" transform="translate(145.04 221.65)"/></g><g class="cls-9"><path class="cls-8" d="M246,681.58a31.63,31.63,0,0,1-6.79,4.38,32.87,32.87,0,0,1-9.1,2.05c-1.9.2-3.86.33-5.81.4h0c1.16-9.46,2.26-18.92,2.83-28.45a117.87,117.87,0,0,0,.07-14.36l0-1.06.31-.28-.32-.11-.41-12.78-.73-22.9,20.27-12.39-20.37,9.1-.07-2.28c-.1-4.75-.12-9.49-.09-14.24,0-2.37,0-4.75.24-7.08a49.63,49.63,0,0,1,1.57-7,39.65,39.65,0,0,1,6.92-13.34,43.88,43.88,0,0,1,5.77-6c1.1-1,2.24-1.9,3.41-2.83a14.26,14.26,0,0,0,3.07-3,14.93,14.93,0,0,1-3.22,2.9c-1.21.91-2.4,1.83-3.56,2.77a46.43,46.43,0,0,0-6.13,6,41.74,41.74,0,0,0-7.7,13.34,51,51,0,0,0-2,7c-.32,2.39-.45,4.75-.61,7.13-.28,4.74-.5,9.49-.65,14.23l-.57,28.5-.22,11.07-21.25-7.44L222.08,645v.56a115.87,115.87,0,0,1-.81,14.09c-1,9.26-2.59,18.52-4.21,27.77l-8.89-2.68-1.7,2.42,10.19,2.5L212,716.09c-.26,1.57-.55,3.13-.81,4.7l-8.27-3.24,7.93,5.37c0,.09,0,.17,0,.26-.32,2.42-.51,4.82-.66,7.23-.28,4.81-.27,9.59-.17,14.38.22,9.58.89,19.1,1.9,28.69l11.74-.33c-1.48-9.39-2.63-18.88-3.33-28.3-.34-4.71-.59-9.43-.56-14.11,0-2.34.08-4.67.27-7s.55-4.7.82-7.05l3.27-26.46c2.25-.17,4.46-.42,6.66-.76a33.17,33.17,0,0,0,9.54-2.73,28.91,28.91,0,0,0,6.41-4.87,44.2,44.2,0,0,0,4.71-5.46A49.85,49.85,0,0,1,246,681.58Z" transform="translate(145.04 221.65)"/></g><g class="cls-5"><path class="cls-6" d="M227.31,655.16a37.31,37.31,0,0,1-7.94,6.12,40.22,40.22,0,0,1-11.23,3.36c-2.38.42-4.85.74-7.31,1v0c0-12.09,0-24.19-.76-36.32A151.46,151.46,0,0,0,198,611.07l-.21-1.34.35-.38-.42-.11-2.47-16.18-4.43-29,23.81-17.42L190.14,559.9,189.7,557c-.85-6-1.6-12-2.29-18-.32-3-.67-6-.79-9a61.58,61.58,0,0,1,.93-9,47.54,47.54,0,0,1,6.73-17.5,51.54,51.54,0,0,1,6.4-8.16c1.25-1.31,2.56-2.59,3.89-3.88a16.74,16.74,0,0,0,3.44-4,17.53,17.53,0,0,1-3.64,3.94c-1.39,1.26-2.77,2.52-4.09,3.81a54.51,54.51,0,0,0-6.87,8.09,49.81,49.81,0,0,0-7.72,17.57,62.81,62.81,0,0,0-1.41,9.09c0,3.06.15,6.07.32,9.09.38,6,.81,12.08,1.35,18.11l3.65,36.2L191,607.41l-28.1-7.66,28.43,11,.07.71a147.64,147.64,0,0,1,1.14,17.94c.1,11.84-.45,23.71-1.09,35.58l-11.68-2.65L178,665.54l13.31,2.31-1.86,33.93c-.09,2-.21,4-.31,6l-11-3.42L189,710.55c0,.11,0,.22,0,.33,0,3.09.09,6.16.27,9.22.38,6.12,1.13,12.19,2,18.25,1.75,12.13,4,24.15,6.8,36.23l14.85-1.4c-3.31-11.79-6.22-23.73-8.56-35.62-1.15-6-2.2-11.91-2.88-17.85-.33-3-.61-5.94-.73-8.88s0-6,0-9l.1-33.83c2.83-.41,5.6-.9,8.34-1.52a40.27,40.27,0,0,0,11.69-4.26,34,34,0,0,0,7.39-6.72,52,52,0,0,0,5.14-7.33A58.51,58.51,0,0,1,227.31,655.16Z" transform="translate(145.04 221.65)"/><path class="cls-6" d="M168.8,599.17l.65-.89c2.91-4-.13-8.66-6.76-10.4l-.65.89C159.13,592.75,162.17,597.43,168.8,599.17Z" transform="translate(145.04 221.65)"/><path class="cls-6" d="M147.75,608.86l1.57.2c7.07.91,14.1-1.81,15.63-6.05h0l-1.57-.2C156.3,601.89,149.27,604.62,147.75,608.86Z" transform="translate(145.04 221.65)"/><path class="cls-6" d="M224,653.52l1.55.26c1.95-4.18-2.15-8.56-9.12-9.73l-1.55-.26C212.9,648,217,652.35,224,653.52Z" transform="translate(145.04 221.65)"/><path class="cls-6" d="M233.46,657.62l-5,.64h0c1.12,3.12,6.29,5.13,11.49,4.45l5-.64C243.84,659,238.66,657,233.46,657.62Z" transform="translate(145.04 221.65)"/><path class="cls-6" d="M176.13,703.68v-.9c0-3.07-4.18-5.58-9.3-5.58v.9C166.83,701.16,171,703.68,176.13,703.68Z" transform="translate(145.04 221.65)"/><path class="cls-6" d="M165.57,711.85l1.48.11c5.08.36,9.73-1.83,10.33-4.88l-1.48-.11C170.83,706.6,166.18,708.8,165.57,711.85Z" transform="translate(145.04 221.65)"/></g><g class="cls-10"><path class="cls-6" d="M778.47,605.82A54.09,54.09,0,0,1,767,614.7c-4.53,2.37-10.36,3.82-16.27,4.88-3.45.61-7,1.07-10.6,1.43v0c0-17.53,0-35.07-1.11-52.66a219.57,219.57,0,0,0-3.05-26.42l-.3-1.95.5-.55-.61-.17-3.58-23.45-6.42-42L760,448.52l-35.44,19.2-.64-4.19c-1.24-8.72-2.32-17.44-3.32-26.17-.47-4.36-1-8.74-1.14-13.05a89.27,89.27,0,0,1,1.35-13A68.92,68.92,0,0,1,730.59,386a74.72,74.72,0,0,1,9.27-11.82c1.81-1.89,3.71-3.76,5.63-5.62s4-3.71,5-5.83c-1.12,2.09-3.31,3.88-5.28,5.72s-4,3.66-5.93,5.52a79,79,0,0,0-10,11.73,72.21,72.21,0,0,0-11.2,25.46,91.06,91.06,0,0,0-2,13.18c-.06,4.44.22,8.8.46,13.18.54,8.76,1.18,17.51,2,26.25l5.28,52.47,2.05,20.38L685.11,525.5l41.22,15.94.1,1a214,214,0,0,1,1.65,26c.15,17.16-.65,34.37-1.58,51.58l-16.94-3.85L707,620.86l19.29,3.35-2.7,49.19c-.13,2.92-.31,5.83-.45,8.75l-15.92-5L723,686.11c0,.16,0,.32,0,.48-.06,4.48.14,8.93.4,13.37.56,8.87,1.64,17.67,2.88,26.46,2.54,17.58,5.87,35,9.86,52.52l21.52-2c-4.8-17.1-9-34.4-12.41-51.64C743.54,716.64,742,708,741,699.39c-.48-4.3-.89-8.6-1.05-12.87s0-8.72-.06-13.07l.15-49c4.11-.59,8.12-1.31,12.09-2.21,6.09-1.42,12.16-3.24,16.94-6.17a49.26,49.26,0,0,0,10.71-9.74,75.4,75.4,0,0,0,7.45-10.62A84.82,84.82,0,0,1,778.47,605.82Z" transform="translate(145.04 221.65)"/><path class="cls-6" d="M693.64,524.66l.94-1.28c4.21-5.76-.19-12.55-9.79-15.08l-.94,1.28C679.63,515.35,684,522.13,693.64,524.66Z" transform="translate(145.04 221.65)"/><path class="cls-6" d="M663.13,538.7l2.28.3c10.25,1.33,20.44-2.62,22.65-8.78h0l-2.28-.3C675.53,528.6,665.34,532.55,663.13,538.7Z" transform="translate(145.04 221.65)"/><path class="cls-6" d="M773.62,603.45l2.25.38c2.83-6.06-3.12-12.41-13.22-14.1l-2.25-.38C757.58,595.41,763.53,601.75,773.62,603.45Z" transform="translate(145.04 221.65)"/><path class="cls-6" d="M787.39,609.4l-7.21.93h0c1.63,4.53,9.12,7.43,16.66,6.46l7.21-.93C802.43,611.32,794.93,608.42,787.39,609.4Z" transform="translate(145.04 221.65)"/><path class="cls-6" d="M704.27,676.15v-1.3c0-4.45-6.07-8.09-13.48-8.09v1.3C690.79,672.51,696.86,676.15,704.27,676.15Z" transform="translate(145.04 221.65)"/><path class="cls-6" d="M689,688l2.15.15c7.36.53,14.1-2.66,15-7.08l-2.15-.15C696.59,680.39,689.85,683.58,689,688Z" transform="translate(145.04 221.65)"/></g><path class="cls-6" d="M35.57,612A54.09,54.09,0,0,1,24,620.83c-4.53,2.37-10.36,3.82-16.27,4.88-3.45.61-7,1.07-10.6,1.43v0c0-17.53,0-35.07-1.11-52.66A219.57,219.57,0,0,0-7,548l-.3-1.95.5-.55-.61-.17L-11,521.92l-6.42-42,34.52-25.25-35.44,19.2-.64-4.19c-1.24-8.72-2.32-17.44-3.32-26.17-.47-4.36-1-8.74-1.14-13.05a89.27,89.27,0,0,1,1.35-13,68.92,68.92,0,0,1,9.76-25.36A74.72,74.72,0,0,1-3,380.27c1.81-1.89,3.71-3.76,5.63-5.62s4-3.71,5-5.83c-1.12,2.09-3.31,3.88-5.28,5.72s-4,3.66-5.93,5.52a79,79,0,0,0-10,11.73,72.21,72.21,0,0,0-11.2,25.46,91.06,91.06,0,0,0-2,13.18c-.06,4.44.22,8.8.46,13.18.54,8.76,1.18,17.51,2,26.25l5.28,52.47,2.05,20.38-40.73-11.11,41.22,15.94.1,1a214,214,0,0,1,1.65,26c.15,17.16-.65,34.37-1.58,51.58l-16.94-3.85L-35.92,627l19.29,3.35-2.7,49.19c-.13,2.92-.31,5.83-.45,8.75l-15.92-5,15.77,8.91c0,.16,0,.32,0,.48-.06,4.48.14,8.93.4,13.37.56,8.87,1.64,17.67,2.88,26.46,2.54,17.58,5.87,35,9.86,52.52l21.52-2c-4.8-17.1-9-34.4-12.41-51.64-1.67-8.63-3.19-17.27-4.17-25.88-.48-4.3-.89-8.6-1.05-12.87s0-8.72-.06-13.07l.15-49c4.11-.59,8.12-1.31,12.09-2.21,6.09-1.42,12.16-3.24,16.94-6.17A49.26,49.26,0,0,0,36.9,612.4a75.4,75.4,0,0,0,7.45-10.62A84.82,84.82,0,0,1,35.57,612Z" transform="translate(145.04 221.65)"/><path class="cls-6" d="M-49.26,530.79l.94-1.28c4.21-5.76-.19-12.55-9.79-15.08l-.94,1.28C-63.27,521.48-58.86,528.26-49.26,530.79Z" transform="translate(145.04 221.65)"/><path class="cls-6" d="M-79.78,544.83l2.28.3c10.25,1.33,20.44-2.62,22.65-8.78h0l-2.28-.3C-67.37,534.73-77.57,538.68-79.78,544.83Z" transform="translate(145.04 221.65)"/><path class="cls-6" d="M30.72,609.58,33,610c2.83-6.06-3.12-12.41-13.22-14.1l-2.25-.38C14.67,601.53,20.62,607.88,30.72,609.58Z" transform="translate(145.04 221.65)"/><path class="cls-6" d="M44.48,615.52l-7.21.93h0c1.63,4.53,9.12,7.43,16.66,6.46l7.21-.93C59.52,617.45,52,614.55,44.48,615.52Z" transform="translate(145.04 221.65)"/><path class="cls-6" d="M-38.63,682.28V681c0-4.45-6.07-8.09-13.48-8.09v1.3C-52.11,678.64-46,682.28-38.63,682.28Z" transform="translate(145.04 221.65)"/><path class="cls-6" d="M-53.94,694.13l2.15.15c7.36.53,14.1-2.66,15-7.08l-2.15-.15C-46.32,686.52-53.06,689.71-53.94,694.13Z" transform="translate(145.04 221.65)"/><g class="cls-5"><path class="cls-6" d="M753.42,587.56a52,52,0,0,0,10.67,9.63c4.2,2.57,9.6,4.14,15.08,5.29,3.2.66,6.51,1.16,9.82,1.56v0c0-19,0-38,1-57.12a277.31,277.31,0,0,1,2.83-28.66l.28-2.11-.46-.6.57-.18,3.32-25.43,6-45.58-32-27.39,32.83,20.83.59-4.54c1.15-9.46,2.15-18.92,3.07-28.38.43-4.72.9-9.48,1.05-14.16a112.85,112.85,0,0,0-1.25-14.08,82.84,82.84,0,0,0-9-27.51,80.62,80.62,0,0,0-8.59-12.83c-1.68-2.05-3.43-4.08-5.22-6.1s-3.69-4-4.63-6.32c1,2.27,3.07,4.21,4.89,6.2s3.72,4,5.5,6a83.81,83.81,0,0,1,9.22,12.72,85.61,85.61,0,0,1,10.37,27.62,114.5,114.5,0,0,1,1.9,14.3c.05,4.81-.21,9.54-.43,14.3-.5,9.5-1.09,19-1.82,28.48l-4.9,56.92-1.9,22.11,37.73-12-38.18,17.29-.1,1.12a271.31,271.31,0,0,0-1.53,28.21c-.14,18.61.6,37.28,1.46,55.95l15.69-4.17,2.39,5-17.87,3.64,2.5,53.36c.12,3.17.29,6.32.42,9.49L819.43,665l-14.61,9.67c0,.17,0,.34,0,.52.06,4.86-.13,9.69-.37,14.5-.51,9.62-1.52,19.17-2.67,28.7-2.35,19.07-5.44,38-9.13,57l-19.94-2.21c4.45-18.54,8.36-37.31,11.5-56,1.55-9.36,3-18.73,3.86-28.07.44-4.67.82-9.33,1-14s0-9.46.06-14.18l-.14-53.2c-3.8-.64-7.52-1.42-11.2-2.4-5.64-1.54-11.27-3.52-15.69-6.7A49.24,49.24,0,0,1,752.18,588a83.22,83.22,0,0,1-6.9-11.52A89.61,89.61,0,0,0,753.42,587.56Z" transform="translate(145.04 221.65)"/></g><g class="cls-5"><path class="cls-6" d="M1052.33,586.22a52,52,0,0,0,10.67,9.63c4.2,2.57,9.6,4.14,15.08,5.29,3.2.66,6.51,1.16,9.82,1.56v0c0-19,0-38,1-57.12a277.31,277.31,0,0,1,2.83-28.66l.28-2.11-.46-.6.57-.18,3.32-25.43,6-45.58-32-27.39,32.83,20.83.59-4.54c1.15-9.46,2.15-18.92,3.07-28.38.43-4.72.9-9.48,1.05-14.16a112.85,112.85,0,0,0-1.25-14.08,82.84,82.84,0,0,0-9-27.51,80.62,80.62,0,0,0-8.59-12.83c-1.68-2.05-3.43-4.08-5.22-6.1s-3.69-4-4.63-6.32c1,2.27,3.07,4.21,4.89,6.2s3.72,4,5.5,6a83.81,83.81,0,0,1,9.22,12.72A85.61,85.61,0,0,1,1108.23,375a114.5,114.5,0,0,1,1.9,14.3c.05,4.81-.21,9.54-.43,14.3-.5,9.5-1.09,19-1.82,28.48L1103,489l-1.9,22.11,37.73-12-38.18,17.29-.1,1.12a271.31,271.31,0,0,0-1.53,28.21c-.14,18.61.6,37.28,1.46,55.95l15.69-4.17,2.39,5-17.87,3.64,2.5,53.36c.12,3.17.29,6.32.42,9.49l14.75-5.38-14.61,9.67c0,.17,0,.34,0,.52.06,4.86-.13,9.69-.37,14.5-.51,9.62-1.52,19.17-2.67,28.7-2.35,19.07-5.44,38-9.13,57l-19.94-2.21c4.45-18.54,8.36-37.31,11.5-56,1.55-9.36,3-18.73,3.86-28.07.44-4.67.82-9.33,1-14s0-9.46.06-14.18l-.14-53.2c-3.8-.64-7.52-1.42-11.2-2.4-5.64-1.54-11.27-3.52-15.69-6.7a49.24,49.24,0,0,1-9.92-10.57,83.22,83.22,0,0,1-6.9-11.52A89.61,89.61,0,0,0,1052.33,586.22Z" transform="translate(145.04 221.65)"/></g><g class="cls-7"><path class="cls-8" d="M1091.3,665.22a52,52,0,0,1-10.67,5.77,71.91,71.91,0,0,1-15.08,3.17c-3.2.39-6.51.7-9.82.93v0c0-11.4,0-22.81-1-34.24a102.35,102.35,0,0,0-2.83-17.18l-.28-1.27.46-.36-.57-.11-3.32-15.25-6-27.32,32-16.42-32.83,12.49-.59-2.72c-1.15-5.67-2.15-11.34-3.07-17-.43-2.83-.9-5.68-1.05-8.49a41.47,41.47,0,0,1,1.25-8.44,38.06,38.06,0,0,1,9-16.49,56,56,0,0,1,8.59-7.69c1.68-1.23,3.43-2.45,5.22-3.65s3.69-2.41,4.63-3.79c-1,1.36-3.07,2.53-4.89,3.72s-3.72,2.38-5.5,3.59a61.68,61.68,0,0,0-9.22,7.63,41.63,41.63,0,0,0-10.37,16.56,43.14,43.14,0,0,0-1.9,8.57c-.05,2.88.21,5.72.43,8.57.5,5.7,1.09,11.38,1.82,17.07l4.9,34.12,1.9,13.25L1004.81,613,1043,623.36l.1.67a98.38,98.38,0,0,1,1.53,16.91c.14,11.16-.6,22.35-1.46,33.54l-15.69-2.5-2.39,3,17.87,2.18-2.5,32c-.12,1.9-.29,3.79-.42,5.69l-14.75-3.22,14.61,5.8c0,.1,0,.21,0,.31a84.32,84.32,0,0,0,.37,8.69,159.28,159.28,0,0,0,2.67,17.21,319.06,319.06,0,0,0,9.13,34.15l19.94-1.32a332.07,332.07,0,0,1-11.5-33.58,161.58,161.58,0,0,1-3.86-16.83,82.72,82.72,0,0,1-1-8.37c-.17-2.79,0-5.67-.06-8.5l.14-31.89c3.8-.38,7.52-.85,11.2-1.44,5.64-.93,11.27-2.11,15.69-4a43.8,43.8,0,0,0,9.92-6.33,53.33,53.33,0,0,0,6.9-6.9A66.84,66.84,0,0,1,1091.3,665.22Z" transform="translate(145.04 221.65)"/></g><g class="cls-7"><path class="cls-8" d="M1371.19,654.34a52,52,0,0,1-10.67,5.77,71.91,71.91,0,0,1-15.08,3.17c-3.2.39-6.51.7-9.82.93v0c0-11.4,0-22.81-1-34.24a102.35,102.35,0,0,0-2.83-17.18l-.28-1.27.46-.36-.57-.11-3.32-15.25-6-27.32,32-16.42-32.83,12.49-.59-2.72c-1.15-5.67-2.15-11.34-3.07-17-.43-2.83-.9-5.68-1.05-8.49a41.47,41.47,0,0,1,1.25-8.44,38.06,38.06,0,0,1,9-16.49,56,56,0,0,1,8.59-7.69c1.68-1.23,3.43-2.45,5.22-3.65s3.69-2.41,4.63-3.79c-1,1.36-3.07,2.53-4.89,3.72s-3.72,2.38-5.5,3.59a61.68,61.68,0,0,0-9.22,7.63,41.63,41.63,0,0,0-10.37,16.56,43.14,43.14,0,0,0-1.9,8.57c-.05,2.88.21,5.72.43,8.57.5,5.7,1.09,11.38,1.82,17.07l4.9,34.12,1.9,13.25-37.73-7.22,38.18,10.37.1.67a98.38,98.38,0,0,1,1.53,16.91c.14,11.16-.6,22.35-1.46,33.54l-15.69-2.5-2.39,3,17.87,2.18-2.5,32c-.12,1.9-.29,3.79-.42,5.69l-14.75-3.22,14.61,5.8c0,.1,0,.21,0,.31a84.32,84.32,0,0,0,.37,8.69,159.28,159.28,0,0,0,2.67,17.21,319.06,319.06,0,0,0,9.13,34.15l19.94-1.32a332.07,332.07,0,0,1-11.5-33.58,161.58,161.58,0,0,1-3.86-16.83,82.72,82.72,0,0,1-1-8.37c-.17-2.79,0-5.67-.06-8.5l.14-31.89c3.8-.38,7.52-.85,11.2-1.44,5.64-.93,11.27-2.11,15.69-4a43.8,43.8,0,0,0,9.92-6.33,53.33,53.33,0,0,0,6.9-6.9A66.84,66.84,0,0,1,1371.19,654.34Z" transform="translate(145.04 221.65)"/></g><path class="cls-6" d="M1466.3,581.17a60.43,60.43,0,0,1-12.87,9.92c-5.06,2.65-11.58,4.27-18.18,5.45-3.86.68-7.85,1.2-11.84,1.6v0c0-19.58,0-39.18-1.24-58.83a245.31,245.31,0,0,0-3.41-29.52l-.33-2.18.56-.62-.68-.19-4-26.2-7.18-46.95,38.56-28.21-39.6,21.45-.72-4.68c-1.38-9.74-2.6-19.49-3.71-29.23-.52-4.87-1.09-9.76-1.27-14.58a99.74,99.74,0,0,1,1.51-14.51,77,77,0,0,1,10.9-28.34,83.48,83.48,0,0,1,10.36-13.21c2-2.12,4.14-4.2,6.29-6.28s4.45-4.14,5.58-6.51c-1.25,2.34-3.7,4.34-5.9,6.39s-4.48,4.09-6.63,6.17a88.29,88.29,0,0,0-11.12,13.1,80.67,80.67,0,0,0-12.51,28.45,101.73,101.73,0,0,0-2.29,14.73c-.07,5,.25,9.83.52,14.73.61,9.79,1.32,19.56,2.19,29.33l5.9,58.62,2.29,22.77L1362,491.43,1408,509.24l.12,1.15a239.12,239.12,0,0,1,1.84,29.05c.17,19.17-.72,38.4-1.76,57.63l-18.92-4.3-2.89,5.2,21.56,3.75-3,55c-.15,3.27-.35,6.51-.5,9.78l-17.79-5.54,17.62,10c0,.18,0,.35,0,.53-.07,5,.15,10,.44,14.94.62,9.91,1.83,19.74,3.22,29.56,2.84,19.64,6.56,39.11,11,58.68l24-2.27c-5.36-19.1-10.08-38.43-13.87-57.7-1.87-9.64-3.56-19.29-4.66-28.91-.53-4.81-1-9.61-1.18-14.38s0-9.74-.07-14.6l.16-54.8c4.59-.66,9.07-1.46,13.5-2.47,6.81-1.59,13.59-3.62,18.93-6.9a55,55,0,0,0,12-10.88,84.23,84.23,0,0,0,8.32-11.86A94.77,94.77,0,0,1,1466.3,581.17Z" transform="translate(145.04 221.65)"/><path class="cls-6" d="M1371.53,490.5l1-1.43c4.71-6.44-.21-14-10.94-16.85l-1,1.43C1355.88,480.09,1360.8,487.67,1371.53,490.5Z" transform="translate(145.04 221.65)"/><path class="cls-6" d="M1337.44,506.18l2.55.33c11.45,1.48,22.84-2.93,25.31-9.8h0l-2.55-.33C1351.3,494.9,1339.91,499.31,1337.44,506.18Z" transform="translate(145.04 221.65)"/><path class="cls-6" d="M1460.88,578.52l2.51.42c3.16-6.77-3.49-13.86-14.77-15.76l-2.51-.42C1443,569.53,1449.6,576.62,1460.88,578.52Z" transform="translate(145.04 221.65)"/><path class="cls-6" d="M1476.26,585.16l-8.05,1h0c1.82,5.06,10.19,8.3,18.62,7.21l8.05-1C1493.07,587.32,1484.69,584.07,1476.26,585.16Z" transform="translate(145.04 221.65)"/><path class="cls-6" d="M1383.41,659.75V658.3c0-5-6.78-9-15.06-9v1.45C1368.35,655.68,1375.12,659.75,1383.41,659.75Z" transform="translate(145.04 221.65)"/><path class="cls-6" d="M1366.31,673l2.4.17c8.23.59,15.76-3,16.74-7.91l-2.4-.17C1374.82,664.48,1367.29,668,1366.31,673Z" transform="translate(145.04 221.65)"/></g><path class="cls-11" d="M-33.57,796.62a57.78,57.78,0,0,1-11,18.5c5.86,8.55,9.1,17.76,9.1,26.74v94.49c4.7-.37,9.42-.59,14.1-.6,78.42-.14,156.37-6.6,234.79-6.74a172.42,172.42,0,0,1,54.83,8.43c41.36-3.53,82.72-6.8,124.52-8.43,94.8-3.69,190.12-2.25,285.07-2.25H970a172.09,172.09,0,0,1,57.18,9.29c173-8.44,347-9.28,520.49-9.29,1.83,0,3.64,0,5.44.08V796.62Z" transform="translate(145.04 221.65)"/><path class="cls-12" d="M-25.44,893.39c-3.37.42-6.69.78-10,1.11v40.91c88-7.26,135.1-36.79,171.68-64,56.14-41.78,184.68-55.26,184.68-55.26C167.93,817,98.07,878-25.44,893.39Z" transform="translate(145.04 221.65)"/><path class="cls-12" d="M659.49,796.63s-178.4,17-188.64,62.67c-7.32,32.63-3.75,56.95-137,68.17a567.82,567.82,0,0,0-66.32,9.72l.75.24c41.36-3.53,82.71-6.8,124.52-8.43q25.78-1,51.6-1.54c30.25-11.59,56.81-32.41,69.11-78.06,13.52-50.19,208.85-45.08,208.85-45.08Z" transform="translate(145.04 221.65)"/><path id="_Path_" data-name="&lt;Path&gt;" class="cls-13" d="M86.85,790.71s11.12,4.95,4.49,31.21c-5.61,22.25-36,41.75-110,52.61,0,0,87.58,4.56,186.39-64.71Z" transform="translate(145.04 221.65)"/><path class="cls-13" d="M1335.45,796.63s-4.49,83.56-411,88c-122.38,1.32-214.58,18.61-283.73,42.1q18.57.05,37.13.06H846.73c33.53-11.48,76.63-19.78,131.65-23.47C1355.66,878,1335.45,796.63,1335.45,796.63Z" transform="translate(145.04 221.65)"/><path id="_Path_2" data-name="&lt;Path&gt;" class="cls-12" d="M780.76,796.63S682,831.82,673,865.9,538.23,900,511.28,923.08a1105.73,1105.73,0,0,1,110-19.79c57.17-7.28,65.12-7,82.34-39.4,6.8-12.81-18-42,160.19-31.23,115.88,7,211.09-30.52,211.09-30.52l-76.35-5.5s-49.19,35.43-108.82,29.69S780.76,796.63,780.76,796.63Z" transform="translate(145.04 221.65)"/><path class="cls-12" d="M1149.3,931.27c64.92-24.9,146.58-53.14,224.33-71.4,60.84-14.28,123.92-11,179.47-1v-44c-5.39-.12-11.06-.14-16.93,0H1536c-23.29.55-50.36,3.18-81.9,8.91-58.47,10.6-132.07,31.76-224.16,69.68-35.42,14.58-68.11,27.32-98.3,38.44Z" transform="translate(145.04 221.65)"/><path class="cls-13" d="M1326.4,927.74c20.6-5.24,43-11.18,67.42-17.85,53.81-14.68,110.38-11.4,159.29-2V875.3c-57.64-12-125.28-14.44-184,14.78a676.07,676.07,0,0,1-93.18,38.33Q1301.17,928,1326.4,927.74Z" transform="translate(145.04 221.65)"/><path class="cls-13" d="M282.22,876.63c-44.1,4-108.35,27.5-171.27,55.12q19.61-.82,39.23-1.5c50.05-18.22,98.37-33,134.28-38,119.69-16.58,159.44-70.37,159.44-70.37S399,865.9,282.22,876.63Z" transform="translate(145.04 221.65)"/><path class="cls-14" d="M-35.43,854v9.51a36.49,36.49,0,0,0,21-3.42C-3.41,855-22,852.94-35.43,854Z" transform="translate(145.04 221.65)"/><path id="_Path_3" data-name="&lt;Path&gt;" class="cls-14" d="M206.61,868.1s12-19.21,43.42-14.37,21,10.15,21,10.15S223.08,876.17,206.61,868.1Z" transform="translate(145.04 221.65)"/><path id="_Path_4" data-name="&lt;Path&gt;" class="cls-14" d="M833.14,851.82s-18.16,12.72,0,13.14S854.94,848.05,833.14,851.82Z" transform="translate(145.04 221.65)"/><path id="_Path_5" data-name="&lt;Path&gt;" class="cls-14" d="M728.84,855.27s10.58,6.87,25.27,0S718.27,848.4,728.84,855.27Z" transform="translate(145.04 221.65)"/><path id="_Path_6" data-name="&lt;Path&gt;" class="cls-14" d="M763.45,861.49s9.69-15.54,35.12-11.62,17,8.21,17,8.21S776.77,868,763.45,861.49Z" transform="translate(145.04 221.65)"/><path id="_Path_7" data-name="&lt;Path&gt;" class="cls-14" d="M262.89,839.51h0c-4.83,3.39-2.89,8.1,4.33,10.24,11.06,3.28,27.24,6.77,39.71,4,7-1.56,9.19-5.19,7.79-9.07C310.35,832.5,277.33,829.39,262.89,839.51Z" transform="translate(145.04 221.65)"/><path class="cls-15" d="M984.43,927.31c3.29.25,6.54.56,9.72,1,1.92-.29,3.21-1.25,2.79-2.28-1-2.42-5.3-4.16-10.34-4.16l-2.29,1.35C982.11,924.5,982.49,926.22,984.43,927.31Z" transform="translate(145.04 221.65)"/><path id="_Path_8" data-name="&lt;Path&gt;" class="cls-14" d="M809.89,860.29l-2.4,1.41c-3.66,2.16-.52,5.43,5.2,5.42h3.82c2.68,0,4.69-1.2,4.17-2.49h0c-1-2.53-5.54-4.35-10.8-4.35Z" transform="translate(145.04 221.65)"/><path class="cls-16" d="M726.24,774.44c-53.27,0-104.36,0-157.64-5.27-37.75-4.23-71.08-11.59-111-7.39-108.83,10.55-211,11.59-317.56,12.66-57,.75-116.31,3.62-173,1a48.29,48.29,0,0,1,1.3,8c.77,10.41-4.32,21.69-12.83,31.69,1,1.39,1.82,2.81,2.63,4.23C2,821.3,47.33,820,92,819c12.57-.29,25.08-.55,37.46-.71l26.1-.26c97.23-1,191.51-2.68,291.41-12.38,40-4.23,73.26,3.16,111,7.36.39,0,.73.07,1.12.1,6.06.62,12.13,1.14,18.15,1.59,46.43,3.59,91.56,3.59,138.38,3.59,4.85.1,9.75.17,14.6.21q58.66.93,117,.69h0q53.35-.07,106.55-.81,35.37-.43,70.64-1c100.24-1.62,200.38-3.82,301-4.37h0c1.8,0,3.64,0,5.48,0,68.12-.36,136.44,0,205,1.9h.19c5.63.17,11.26.33,16.93.52V771.16C1275.38,763.29,1002.71,779.33,726.24,774.44Z" transform="translate(145.04 221.65)"/><path class="cls-17" d="M1536.18,814.8H1536c-68.61-1.85-136.92-2.26-205-1.9-1.84,0-3.69,0-5.48,0h0c-100.58.55-200.72,2.76-301,4.37q-35.3.61-70.64,1-53.2.68-106.55.81h0q-58.37.18-117-.69c-4.85,0-9.75-.12-14.6-.21-46.82,0-91.94,0-138.38-3.59-6-.45-12.08-1-18.15-1.59-.39,0-.73,0-1.12-.1-37.75-4.2-71-11.59-111-7.36C347.06,815.32,252.79,817,155.56,818l-26.1.26c-12.37.17-24.89.43-37.46.71-44.67,1-90,2.32-133.89.38A51.51,51.51,0,0,1-37.27,830c41.22,1.61,83.7.5,125.58-.46,13.83-.33,27.56-.64,41.14-.81l8.68-.1h0c25.18-.26,50.22-.52,75.06-.93h0q21.11-.36,42.16-.88h0c63-1.52,126-4.42,191.46-10.76,30.71-3.23,57.5.38,85.39,4.13,5.29.71,10.67,1.43,16.11,2.11,3.15.4,6.31.78,9.51,1.14,51.87,5.13,101.7,5.27,153.47,5.27h4.17c83,1.47,165.55,1,248.08,0h0c116.16-1.54,232.12-4.42,348.56-5.23,3.3,0,6.6,0,9.9,0q65.79-.46,131.88.26,49.42.57,99,2.07V815.32C1547.43,815.13,1541.8,815,1536.18,814.8Z" transform="translate(145.04 221.65)"/><path class="cls-18" d="M1394.35,755.24l3.69-8.67-8,8.62q-44.4-.46-88.74-.45l20.23-25.16-24.79,25.16h-3.54l-4.42-42L1282,753.08l-19-13.47,5.48,15.2c-95.68.38-191.17,2.26-286.56,4.82l-8.15-6.75,2.81,6.89q-86.32,2.32-172.53,5.16a1167.68,1167.68,0,0,1-148.76-6.32c-38.48-3.66-75.88-6.79-113.68-8l-5.19-.17-1.46,0L510.19,750q-9.61,0-19.21.17c-26.3.69-52.5,1.21-78.6,1.73l-6.65.12c-37.7.74-75.21,1.47-112.66,2.54l-32.7,1c-43.86,1.57-87.58,3.75-131.34,7.22-26.83,2.38-55.22,2.35-84.08,1.43l21.3-32L39.69,764.08l-1.36,0L33.48,696.4l-6.84,64.14-19-13.47,5.73,15.87c-17.62-.86-35.29-1.87-52.76-2.69A54.26,54.26,0,0,1-33,775.45c56.72,2.61,116-.26,173-1,106.6-1.07,208.73-2.11,317.56-12.66,39.93-4.2,73.26,3.16,111,7.39,53.27,5.27,104.36,5.27,157.64,5.27,276.46,4.89,549.14-11.14,826.87-3.28V758.92Q1473.56,756.07,1394.35,755.24Z" transform="translate(145.04 221.65)"/><g id="_Group_" data-name="&lt;Group&gt;" class="cls-19"><path id="_Path_9" data-name="&lt;Path&gt;" class="cls-20" d="M1280.89,66.93s-8.62-31.06-44.71-19.69c0,0,10.73-36.36-41.92-34.66-56.92,1.85-38.34,33.61-38.34,33.61s-26.4-8.14-36.63,0c-5.37,4.25-7.63,12.3-8.56,19-30.11-14.92-53.39,9.23-45.31,11s44.71,0,44.71,0,22.63,3.06,35,0c0,0,44.17,7.1,91.58,1.36,0,0,22.09,4.43,44.17.44,0,0,30.71.82,41.48-1.8S1304.66,54.33,1280.89,66.93Z" transform="translate(145.04 221.65)"/><g id="_Group_2" data-name="&lt;Group&gt;"><path id="_Path_10" data-name="&lt;Path&gt;" class="cls-21" d="M1274.58,75c-15.55,6.56-49.2-10.65-49.2-10.65a23.67,23.67,0,0,1-7.92,3.94,33.77,33.77,0,0,1-25.67-2.86c-56.49-31.64-.79-52.52-.49-52.67-46.06,2.45-38.94,25.66-36.16,31.93a50.83,50.83,0,0,0,11.46,11.27c-21.73-14.34-39.34-12.8-40.53-12.67a16.24,16.24,0,0,0-6.8,2.91c-5.36,4.24-7.62,12.27-8.55,18.94a48.91,48.91,0,0,0,1.4,5.35,46.75,46.75,0,0,0-11.64-9c-24.88-5.85-42.21,13.16-35.07,14.71,8.08,1.75,44.71,0,44.71,0s22.63,3.06,35,0c0,0,44.17,7.1,91.58,1.36,0,0,22.09,4.43,44.17.44,0,0,14.1.38,26.54-.19C1293.71,77.78,1274.58,75,1274.58,75Z" transform="translate(145.04 221.65)"/><polygon id="_Path_11" data-name="&lt;Path&gt;" class="cls-22" points="1461.01 298.77 1461.01 298.77 1461.01 298.77 1461.01 298.77"/></g><path id="_Path_12" data-name="&lt;Path&gt;" class="cls-23" d="M1280.89,66.93s-8.62-31.06-44.71-19.69c0,0,7.67-26-21.78-33,7.12,3.66,22.62,14.19,18.3,34.89,0,0,33.39-12.7,45.41,20.49,0,0,28.48-16.12,44.26,6.49C1333.15,73.49,1304.66,54.33,1280.89,66.93Z" transform="translate(145.04 221.65)"/></g><g id="_Group_3" data-name="&lt;Group&gt;"><path id="_Path_13" data-name="&lt;Path&gt;" class="cls-20" d="M1382.94,262.34s-6.6-23.78-34.24-15.07c0,0,8.22-27.85-32.1-26.54-43.58,1.41-29.36,25.74-29.36,25.74s-20.21-6.23-28.05,0c-4.12,3.25-5.84,9.42-6.55,14.54-23.05-11.42-40.89,7.07-34.7,8.41s34.24,0,34.24,0,17.33,2.34,26.81,0c0,0,33.83,5.43,70.13,1,0,0,16.91,3.39,33.83.34,0,0,23.51.63,31.76-1.38S1401.13,252.69,1382.94,262.34Z" transform="translate(145.04 221.65)"/><g id="_Group_4" data-name="&lt;Group&gt;"><path id="_Path_14" data-name="&lt;Path&gt;" class="cls-24" d="M1378.1,268.48c-11.91,5-37.68-8.16-37.68-8.16a18.13,18.13,0,0,1-6.07,3,25.86,25.86,0,0,1-19.66-2.19c-43.26-24.23-.6-40.22-.37-40.33-35.27,1.88-29.82,19.65-27.69,24.45a38.93,38.93,0,0,0,8.78,8.63c-16.64-11-30.12-9.8-31-9.71a12.44,12.44,0,0,0-5.2,2.23c-4.11,3.25-5.84,9.39-6.55,14.51a37.47,37.47,0,0,0,1.07,4.1,35.79,35.79,0,0,0-8.92-6.92c-19.05-4.48-32.32,10.08-26.86,11.26,6.19,1.34,34.24,0,34.24,0s17.33,2.34,26.81,0c0,0,33.83,5.43,70.13,1,0,0,16.91,3.39,33.83.34,0,0,10.8.29,20.33-.15C1392.75,270.65,1378.1,268.48,1378.1,268.48Z" transform="translate(145.04 221.65)"/><polygon id="_Path_15" data-name="&lt;Path&gt;" class="cls-25" points="1554.84 491.79 1554.84 491.79 1554.84 491.79 1554.84 491.79"/></g><path id="_Path_16" data-name="&lt;Path&gt;" class="cls-23" d="M1382.94,262.34s-6.6-23.78-34.24-15.07c0,0,5.87-19.9-16.68-25.26,5.45,2.8,17.32,10.87,14,26.72,0,0,25.57-9.73,34.77,15.69,0,0,21.81-12.34,33.89,5C1423,267.36,1401.13,252.69,1382.94,262.34Z" transform="translate(145.04 221.65)"/></g><g id="_Group_5" data-name="&lt;Group&gt;"><path id="_Path_17" data-name="&lt;Path&gt;" class="cls-20" d="M414,153.34s-5.8-20.89-30.08-13.24c0,0,7.22-24.46-28.2-23.31-38.29,1.24-25.79,22.61-25.79,22.61s-17.76-5.48-24.64,0c-3.62,2.86-5.13,8.27-5.76,12.77-20.25-10-35.92,6.21-30.48,7.39s30.08,0,30.08,0,15.22,2.06,23.56,0c0,0,29.72,4.77,61.61.92,0,0,14.86,3,29.72.3,0,0,20.66.55,27.9-1.21S429.95,144.87,414,153.34Z" transform="translate(145.04 221.65)"/><g id="_Group_6" data-name="&lt;Group&gt;"><path id="_Path_18" data-name="&lt;Path&gt;" class="cls-26" d="M409.72,158.74c-10.46,4.41-33.1-7.17-33.1-7.17a15.92,15.92,0,0,1-5.33,2.65A22.72,22.72,0,0,1,354,152.31c-38-21.29-.53-35.33-.33-35.43-31,1.65-26.2,17.26-24.32,21.48a34.19,34.19,0,0,0,7.71,7.58c-14.62-9.64-26.46-8.61-27.26-8.53a10.93,10.93,0,0,0-4.57,2c-3.61,2.85-5.13,8.25-5.75,12.74a32.92,32.92,0,0,0,.94,3.6,31.45,31.45,0,0,0-7.83-6.08c-16.74-3.93-28.39,8.85-23.59,9.89,5.44,1.18,30.08,0,30.08,0s15.22,2.06,23.56,0c0,0,29.72,4.77,61.61.92,0,0,14.86,3,29.72.3,0,0,9.48.25,17.86-.13C422.58,160.64,409.72,158.74,409.72,158.74Z" transform="translate(145.04 221.65)"/><polygon id="_Path_19" data-name="&lt;Path&gt;" class="cls-27" points="582.6 381.85 582.6 381.85 582.6 381.85 582.6 381.85"/></g><path id="_Path_20" data-name="&lt;Path&gt;" class="cls-23" d="M414,153.34s-5.8-20.89-30.08-13.24c0,0,5.16-17.48-14.65-22.19,4.79,2.46,15.22,9.54,12.31,23.47,0,0,22.46-8.54,30.55,13.78,0,0,19.16-10.84,29.77,4.36C449.11,157.76,429.95,144.87,414,153.34Z" transform="translate(145.04 221.65)"/></g><g id="_Group_7" data-name="&lt;Group&gt;"><path id="_Path_21" data-name="&lt;Path&gt;" class="cls-20" d="M928.35,200.75s-10.56-38-54.76-24.11c0,0,13.14-44.54-51.35-42.45-69.71,2.26-47,41.17-47,41.17s-32.33-10-44.87-.06c-6.58,5.2-9.34,15.06-10.48,23.25-36.87-18.27-65.39,11.31-55.5,13.45s54.76,0,54.76,0,27.71,3.75,42.89,0c0,0,54.1,8.69,112.17,1.67,0,0,27.05,5.42,54.1.54,0,0,37.61,1,50.8-2.2S957.46,185.32,928.35,200.75Z" transform="translate(145.04 221.65)"/><g id="_Group_8" data-name="&lt;Group&gt;"><path id="_Path_22" data-name="&lt;Path&gt;" class="cls-28" d="M920.62,210.58c-19,8-60.26-13-60.26-13a29,29,0,0,1-9.7,4.83,41.36,41.36,0,0,1-31.45-3.5c-69.19-38.76-1-64.33-.6-64.51-56.41,3-47.7,31.43-44.29,39.11a62.26,62.26,0,0,0,14,13.8c-26.61-17.56-48.18-15.68-49.64-15.52a19.89,19.89,0,0,0-8.32,3.57c-6.57,5.19-9.33,15-10.48,23.2a59.93,59.93,0,0,0,1.71,6.56A57.25,57.25,0,0,0,707.39,194c-30.47-7.16-51.69,16.12-43,18,9.9,2.14,54.76,0,54.76,0s27.71,3.75,42.89,0c0,0,54.1,8.69,112.17,1.67,0,0,27.05,5.42,54.1.54,0,0,17.27.46,32.51-.24C944,214,920.62,210.58,920.62,210.58Z" transform="translate(145.04 221.65)"/><polygon id="_Path_23" data-name="&lt;Path&gt;" class="cls-29" points="1116.35 434.87 1116.35 434.87 1116.35 434.87 1116.35 434.87"/></g><path id="_Path_24" data-name="&lt;Path&gt;" class="cls-23" d="M928.35,200.75s-10.56-38-54.76-24.11c0,0,9.39-31.83-26.67-40.41,8.72,4.48,27.7,17.38,22.42,42.73,0,0,40.9-15.56,55.61,25.09,0,0,34.88-19.74,54.21,7.95C992.35,208.78,957.46,185.32,928.35,200.75Z" transform="translate(145.04 221.65)"/></g><ellipse class="cls-30" cx="1031.87" cy="24.62" rx="2.19" ry="1.78"/><path id="_Path_25" data-name="&lt;Path&gt;" class="cls-31" d="M1479.47,214.69s-373.15-68.89-517.9-42.12c0,0,236.43-9.23,501.82,51.7Z" transform="translate(145.04 221.65)"/><path id="_Compound_Path_" data-name="&lt;Compound Path&gt;" class="cls-31" d="M1152,.66C1009.07,9.92,921.55,7.52,826,0,968.09,3.43,1124.68-3,1152-9.89c38.6-9.78,252.63-.12,252.63-.12l19.19-4.65S1255-27.92,1129-10s-464.32-4.65-464.32-4.65h0c-15.87-1.46-32.44-2.94-49.86-4.44C397.68-37.83-99.31,39.21-99.31,39.21l43.43,52.26S437.89,14.2,544.82,14.57,917.2,50,1107.05,30.71s435.81,23.54,435.81,23.54l40.21-45.66S1386.85-14.56,1152,.66ZM287.47,9.8c-8.56,6.6-36.67,13.63-74.78,14.59,0,0-38.14-1.1-27.21-9.21S296,3.2,287.47,9.8Zm14.94,10.51C277.47,10.1,333.35-8.45,452.37-4S356.51,42.45,302.41,20.31ZM931.57,25C805.66,23.83,542.3,3.56,621.15,6,778.77,10.84,1069.35,26.25,931.57,25Zm43.53-9.56s66.13-6.62,82.12,0S957.41,20.58,975.1,15.42Z" transform="translate(145.04 221.65)"/><path id="_Compound_Path_2" data-name="&lt;Compound Path&gt;" class="cls-31" d="M1503.24,299.55c-10.72,3.18-476.63-26-548-42.27S748.37,269.87,598.51,281.4s-622.17,2.25-622.17,2.25l30.56,17S454,360,682.42,306.43s852.45,20.67,852.45,20.67S1514,296.37,1503.24,299.55Zm-1235.9,5c-6.29-1.67-2.71-5,5.36-5.05,57.08-.24,206.1-.76,243.19.1C581.66,301.07,409.79,342.27,267.34,304.5Zm722.15-30.39s77.15-.53,85.28,9.54S934.67,279.41,989.49,274.11Z" transform="translate(145.04 221.65)"/><path id="_Compound_Path_3" data-name="&lt;Compound Path&gt;" class="cls-31" d="M776.81,413.33s217.33-47.14,296.86-13.13,235.25-3.7,235.25-3.7l10.64-10.78s-164.48,5.89-216.67-1.43S1003.51,358.61,978.66,369s-187.11,28.88-190.84,26.86S776.81,413.33,776.81,413.33Zm354.86-17.51c12.91-.55,64.81-.22,84.69-.06,2.81,0,4.06,2.15,1.87,3.21C1168.61,423,1108.76,396.79,1131.66,395.82ZM937,385.72c2.83-6.4,29.7-6.06,29.7-6.06C985.83,383,934.2,392.12,937,385.72Z" transform="translate(145.04 221.65)"/><g id="_Group_9" data-name="&lt;Group&gt;" class="cls-32"><path id="_Compound_Path_4" data-name="&lt;Compound Path&gt;" class="cls-33" d="M1220.1,113.07c95.93,3.72,250.23,3.72,250.23,3.72L1460.87,104c-58.53,16.25-223.07,3.62-298.91-3.41-6.19-1.5-12-3-17.49-4.48-107.09-29.19-261.19-6.17-329.83,13.16-87.52,3.47-201.54-1.71-285.71-7l-42.06-6.16c-213.11-31.19-464,68-468.85,68v19.64c-36.12-1.45-66.76-3.34-86.34-4.63-14.06-.93-22.43-1.55-23-1.49,0,0,69.16,28,119,24.36,45.55,3,104.34,1.42,176.68-10.81,152.43-25.77,214.37-17.63,235.05-12.39-19.53-5.48-73-15.44-174.32-1.16-55.1,7.76-125.43,9-189,7.84,92.22-30,271.53-80.38,366.6-53.86,131.59,36.71,305.59,28.56,458,0s657.45,69.32,657.45,69.32V164.11S1356.4,139.54,1220.1,113.07ZM211.25,131.61c-2.39-3.72,27.43-29.1,70.76-22.33S219.51,144.46,211.25,131.61Zm147.38-19c-25.36,8.08-53.17,4.91-31.23-3.37C332.08,107.52,384,104.57,358.64,112.65Zm117.79,3.09s102.64,7.53,108.42,16.12S423.35,121.27,476.42,115.74Zm321.68-1.32C759.33,128,727.69,129,643.4,118.34a1335,1335,0,0,0,155.32-4.13Zm102.51,1.35c-38.84,1.5,111.21-24.71,141.87-11.52S981.46,112.65,900.62,115.77Z" transform="translate(145.04 221.65)"/><path id="_Path_26" data-name="&lt;Path&gt;" class="cls-33" d="M439.41,178.8a70,70,0,0,1,8.81,2.94A42.87,42.87,0,0,0,439.41,178.8Z" transform="translate(145.04 221.65)"/></g><path class="cls-34" d="M306.66,77.93l-2,.37-.45-1.63a.73.73,0,0,0-.85-.44.59.59,0,0,0-.54.69l.45,1.63-2,.37a.59.59,0,0,0-.54.69.73.73,0,0,0,.85.44l2-.37L304,81.3a.73.73,0,0,0,.85.44.74.74,0,0,0,.41-.21.49.49,0,0,0,.13-.48L305,79.42l2-.37a.74.74,0,0,0,.41-.21.49.49,0,0,0,.13-.48A.73.73,0,0,0,306.66,77.93Z" transform="translate(145.04 221.65)"/><path class="cls-34" d="M203.06-28.48l-1.34.54L201.06-29a.57.57,0,0,0-.69-.19.39.39,0,0,0-.23.56l.66,1.09-1.34.54a.39.39,0,0,0-.23.56.57.57,0,0,0,.69.19l1.34-.54.66,1.09a.57.57,0,0,0,.69.19.47.47,0,0,0,.24-.21.35.35,0,0,0,0-.35l-.66-1.09,1.34-.54a.47.47,0,0,0,.24-.21.35.35,0,0,0,0-.35A.57.57,0,0,0,203.06-28.48Z" transform="translate(145.04 221.65)"/><ellipse class="cls-30" cx="132.62" cy="357.41" rx="3.99" ry="3.24"/><ellipse class="cls-30" cx="457.34" cy="476.19" rx="3.99" ry="3.24"/><ellipse class="cls-30" cx="663.25" cy="335.11" rx="2.19" ry="1.78"/><ellipse class="cls-30" cx="367.79" cy="619.65" rx="2.19" ry="1.78"/><path class="cls-34" d="M733.77,298.86l-2,.37-.45-1.63a.73.73,0,0,0-.85-.44.59.59,0,0,0-.54.69l.45,1.63-2,.37a.59.59,0,0,0-.54.69.73.73,0,0,0,.85.44l2-.37.45,1.63a.73.73,0,0,0,.85.44.74.74,0,0,0,.41-.21.49.49,0,0,0,.13-.48l-.45-1.63,2-.37a.74.74,0,0,0,.41-.21.49.49,0,0,0,.13-.48A.73.73,0,0,0,733.77,298.86Z" transform="translate(145.04 221.65)"/><path class="cls-34" d="M347.67,15.53l-2.39-.7.86-1.94a.68.68,0,0,0-.53-.91.94.94,0,0,0-1.12.43l-.86,1.94-2.39-.7a.94.94,0,0,0-1.12.43.68.68,0,0,0,.53.91l2.39.7-.86,1.94a.68.68,0,0,0,.53.91,1.06,1.06,0,0,0,.6,0,.81.81,0,0,0,.52-.43l.86-1.94,2.39.7a1.06,1.06,0,0,0,.6,0,.81.81,0,0,0,.52-.43A.68.68,0,0,0,347.67,15.53Z" transform="translate(145.04 221.65)"/><path class="cls-34" d="M80.19,206.71l-1.34.54-.66-1.09a.57.57,0,0,0-.69-.19.39.39,0,0,0-.23.56l.66,1.09-1.34.54a.39.39,0,0,0-.23.56.57.57,0,0,0,.69.19l1.34-.54.66,1.09a.57.57,0,0,0,.69.19.47.47,0,0,0,.24-.21.35.35,0,0,0,0-.35L79.31,208l1.34-.54a.47.47,0,0,0,.24-.21.35.35,0,0,0,0-.35A.57.57,0,0,0,80.19,206.71Z" transform="translate(145.04 221.65)"/><path class="cls-34" d="M200.14,254.22l-1.34.54-.66-1.09a.57.57,0,0,0-.69-.19.39.39,0,0,0-.23.56l.66,1.09-1.34.54a.39.39,0,0,0-.23.56.57.57,0,0,0,.69.19l1.34-.54L199,257a.57.57,0,0,0,.69.19.47.47,0,0,0,.24-.21.35.35,0,0,0,0-.35l-.66-1.09,1.34-.54a.47.47,0,0,0,.24-.21.35.35,0,0,0,0-.35A.57.57,0,0,0,200.14,254.22Z" transform="translate(145.04 221.65)"/><path class="cls-34" d="M258.65,133.07l-1.34.54-.66-1.09a.57.57,0,0,0-.69-.19.39.39,0,0,0-.23.56l.66,1.09-1.34.54a.39.39,0,0,0-.23.56.57.57,0,0,0,.69.19l1.34-.54.66,1.09a.57.57,0,0,0,.69.19.47.47,0,0,0,.24-.21.35.35,0,0,0,0-.35l-.66-1.09,1.34-.54a.47.47,0,0,0,.24-.21.35.35,0,0,0,0-.35A.57.57,0,0,0,258.65,133.07Z" transform="translate(145.04 221.65)"/><path class="cls-34" d="M1184.69,107l1.68-1.16,1.08,1.3a.73.73,0,0,0,1,0,.59.59,0,0,0,.21-.85l-1.08-1.3,1.68-1.16a.59.59,0,0,0,.21-.85.73.73,0,0,0-1,0l-1.68,1.16-1.08-1.3a.73.73,0,0,0-1,0,.74.74,0,0,0-.28.36.49.49,0,0,0,.08.49l1.08,1.3-1.68,1.16a.74.74,0,0,0-.28.36.49.49,0,0,0,.08.49A.73.73,0,0,0,1184.69,107Z" transform="translate(145.04 221.65)"/><path class="cls-34" d="M1323,161.22l1-1,1.05.72a.57.57,0,0,0,.71-.11.39.39,0,0,0,0-.61l-1.05-.72,1-1a.39.39,0,0,0,0-.61.57.57,0,0,0-.71.11l-1,1-1.05-.72a.57.57,0,0,0-.71.11.47.47,0,0,0-.14.29.35.35,0,0,0,.15.32l1.05.72-1,1a.47.47,0,0,0-.14.29.35.35,0,0,0,.15.32A.57.57,0,0,0,1323,161.22Z" transform="translate(145.04 221.65)"/><ellipse class="cls-30" cx="1451.47" cy="-77.31" rx="3.99" ry="3.24" transform="translate(306.29 813.73) rotate(-24.37)"/><ellipse class="cls-30" cx="1106.67" cy="-51.5" rx="3.99" ry="3.24" transform="translate(264.92 673.74) rotate(-24.37)"/><ellipse class="cls-30" cx="977.33" cy="161.98" rx="2.19" ry="1.78" transform="translate(165.29 639.39) rotate(-24.37)"/><ellipse class="cls-30" cx="1129.04" cy="-219.13" rx="2.19" ry="1.78" transform="translate(336.09 668.04) rotate(-24.37)"/><path class="cls-34" d="M704.47,82.06l1.68-1.16,1.08,1.3a.73.73,0,0,0,1,0,.59.59,0,0,0,.21-.85l-1.08-1.3L709,78.93a.59.59,0,0,0,.21-.85.73.73,0,0,0-1,0l-1.68,1.16-1.08-1.3a.73.73,0,0,0-1,0,.74.74,0,0,0-.28.36.49.49,0,0,0,.08.49l1.08,1.3-1.68,1.16a.74.74,0,0,0-.28.36.49.49,0,0,0,.08.49A.73.73,0,0,0,704.47,82.06Z" transform="translate(145.04 221.65)"/><path class="cls-34" d="M1173.09,180.8l2.47-.35,0,2.12a.68.68,0,0,0,.86.61.94.94,0,0,0,.84-.85l0-2.12,2.47-.35a.94.94,0,0,0,.84-.85.68.68,0,0,0-.86-.61l-2.47.35,0-2.12a.68.68,0,0,0-.86-.61,1.06,1.06,0,0,0-.54.25.81.81,0,0,0-.3.61l0,2.12-2.47.35a1.06,1.06,0,0,0-.54.25.81.81,0,0,0-.3.61A.68.68,0,0,0,1173.09,180.8Z" transform="translate(145.04 221.65)"/><path class="cls-34" d="M967.36,212.78l1-1,1.05.72a.57.57,0,0,0,.71-.11.39.39,0,0,0,0-.61L969,211l1-1a.39.39,0,0,0,0-.61.57.57,0,0,0-.71.11l-1,1-1.05-.72a.57.57,0,0,0-.71.11.47.47,0,0,0-.14.29.35.35,0,0,0,.15.32l1.05.72-1,1a.47.47,0,0,0-.14.29.35.35,0,0,0,.15.32A.57.57,0,0,0,967.36,212.78Z" transform="translate(145.04 221.65)"/><path class="cls-34" d="M1337.83-103.71l1-1,1.05.72a.57.57,0,0,0,.71-.11.39.39,0,0,0,0-.61l-1.05-.72,1-1a.39.39,0,0,0,0-.61.57.57,0,0,0-.71.11l-1,1-1.05-.72a.57.57,0,0,0-.71.11.47.47,0,0,0-.14.29.35.35,0,0,0,.15.32l1.05.72-1,1a.47.47,0,0,0-.14.29.35.35,0,0,0,.15.32A.57.57,0,0,0,1337.83-103.71Z" transform="translate(145.04 221.65)"/><path class="cls-34" d="M1209-97.5l1-1,1.05.72a.57.57,0,0,0,.71-.11.39.39,0,0,0,0-.61l-1.05-.72,1-1a.39.39,0,0,0,0-.61.57.57,0,0,0-.71.11l-1,1-1.05-.72a.57.57,0,0,0-.71.11.47.47,0,0,0-.14.29.35.35,0,0,0,.15.32l1.05.72-1,1a.47.47,0,0,0-.14.29.35.35,0,0,0,.15.32A.57.57,0,0,0,1209-97.5Z" transform="translate(145.04 221.65)"/><path class="cls-34" d="M1205.68,37l1-1,1.05.72a.57.57,0,0,0,.71-.11.39.39,0,0,0,0-.61l-1.05-.72,1-1a.39.39,0,0,0,0-.61.57.57,0,0,0-.71.11l-1,1-1.05-.72a.57.57,0,0,0-.71.11.47.47,0,0,0-.14.29.35.35,0,0,0,.15.32l1.05.72-1,1a.47.47,0,0,0-.14.29.35.35,0,0,0,.15.32A.57.57,0,0,0,1205.68,37Z" transform="translate(145.04 221.65)"/><path class="cls-35" d="M1498.55,21c-.75-1.63.29-3.68,2.33-4.59s4.29-.32,5,1.3-.29,3.68-2.33,4.59S1499.3,22.63,1498.55,21Z" transform="translate(145.04 221.65)"/><path class="cls-36" d="M1387-7l1-1,1.07.72a.59.59,0,0,0,.72-.11.38.38,0,0,0,0-.61l-1.07-.72,1-1a.38.38,0,0,0,0-.61.59.59,0,0,0-.72.11l-1,1-1.07-.72a.59.59,0,0,0-.72.11.47.47,0,0,0-.14.29.35.35,0,0,0,.16.32l1.07.72-1,1a.47.47,0,0,0-.14.29.35.35,0,0,0,.16.32A.59.59,0,0,0,1387-7Z" transform="translate(145.04 221.65)"/><path class="cls-36" d="M1256.41-.81l1-1,1.07.72a.59.59,0,0,0,.72-.11.38.38,0,0,0,0-.61l-1.07-.72,1-1a.38.38,0,0,0,0-.61.59.59,0,0,0-.72.11l-1,1-1.07-.72a.59.59,0,0,0-.72.11.47.47,0,0,0-.14.29.35.35,0,0,0,.16.32l1.07.72-1,1a.47.47,0,0,0-.14.29.35.35,0,0,0,.16.32A.59.59,0,0,0,1256.41-.81Z" transform="translate(145.04 221.65)"/><path id="_Path_27" data-name="&lt;Path&gt;" class="cls-20" d="M667.82,42.16s1.61-43.6-38.71-30.9c0,0,.75-31.7-58.06-29.8C507.48-16.48,528.23,19,528.23,19s-29.48-9.09-40.92-.05c-6,4.75-8.52,13.73-9.56,21.2-33.63-16.66-59.64,10.31-50.61,12.27s49.94,0,49.94,0,25.27,3.42,39.11,0c0,0,49.34,7.93,102.29,1.52,0,0,24.67,4.94,49.34.49,0,0,34.3.92,46.33-2S694.36,28.09,667.82,42.16Z" transform="translate(145.04 221.65)"/><g id="_Group_10" data-name="&lt;Group&gt;"><path id="_Path_28" data-name="&lt;Path&gt;" class="cls-37" d="M660.77,51.12c-17.37,7.32-55-11.9-55-11.9a26.44,26.44,0,0,1-8.85,4.4,37.72,37.72,0,0,1-28.68-3.19c-63.09-35.34-.88-58.67-.54-58.83-51.45,2.74-43.5,28.67-40.39,35.66a56.77,56.77,0,0,0,12.8,12.58c-24.27-16-43.94-14.3-45.27-14.16a18.14,18.14,0,0,0-7.59,3.26c-6,4.74-8.51,13.7-9.55,21.16a54.67,54.67,0,0,0,1.56,6,52.21,52.21,0,0,0-13-10.1c-27.79-6.53-47.14,14.7-39.17,16.43,9,2,49.94,0,49.94,0s25.27,3.42,39.11,0c0,0,49.34,7.93,102.29,1.52,0,0,24.67,4.94,49.34.49,0,0,15.75.42,29.65-.22C682.14,54.27,660.77,51.12,660.77,51.12Z" transform="translate(145.04 221.65)"/><polygon id="_Path_29" data-name="&lt;Path&gt;" class="cls-38" points="852.04 275.19 852.04 275.19 852.04 275.19 852.04 275.19"/></g><path id="_Path_30" data-name="&lt;Path&gt;" class="cls-23" d="M667.82,42.16S669.43.93,629.11,13.63c0,0-2.67-22.49-35.56-30.31,7.95,4.09,37.45,7.19,32.63,30.31,0,0,25.11-5.53,38.53,31.54,0,0,31.81-18,49.43,7.25C726.18,49.49,694.36,28.09,667.82,42.16Z" transform="translate(145.04 221.65)"/><g id="_Group_11" data-name="&lt;Group&gt;"><path id="_Path_31" data-name="&lt;Path&gt;" class="cls-20" d="M750.79,64.12S744.19,40.33,716.55,49c0,0,8.22-27.85-32.1-26.54-43.58,1.41-29.36,25.74-29.36,25.74S634.87,42,627,48.21c-4.12,3.25-5.84,9.42-6.55,14.54-23.05-11.42-40.89,7.07-34.7,8.41s34.24,0,34.24,0,17.33,2.34,26.81,0c0,0,33.83,5.43,70.13,1,0,0,16.91,3.39,33.83.34,0,0,23.51.63,31.76-1.38S769,54.47,750.79,64.12Z" transform="translate(145.04 221.65)"/><g id="_Group_12" data-name="&lt;Group&gt;"><path id="_Path_32" data-name="&lt;Path&gt;" class="cls-39" d="M746,70.26c-11.91,5-37.68-8.16-37.68-8.16a18.13,18.13,0,0,1-6.07,3,25.86,25.86,0,0,1-19.66-2.19c-43.26-24.23-.6-40.22-.37-40.33-35.27,1.88-29.82,19.65-27.69,24.45a38.93,38.93,0,0,0,8.78,8.63c-16.64-11-30.12-9.8-31-9.71a12.44,12.44,0,0,0-5.2,2.23c-4.11,3.25-5.84,9.39-6.55,14.51a37.47,37.47,0,0,0,1.07,4.1,35.79,35.79,0,0,0-8.92-6.92C593.58,55.41,580.31,70,585.78,71.15c6.19,1.34,34.24,0,34.24,0s17.33,2.34,26.81,0c0,0,33.83,5.43,70.13,1,0,0,16.91,3.39,33.83.34,0,0,10.8.29,20.33-.15C760.6,72.42,746,70.26,746,70.26Z" transform="translate(145.04 221.65)"/><polygon id="_Path_33" data-name="&lt;Path&gt;" class="cls-40" points="922.69 293.57 922.69 293.57 922.69 293.57 922.69 293.57"/></g><path id="_Path_34" data-name="&lt;Path&gt;" class="cls-23" d="M750.79,64.12S744.19,40.33,716.55,49c0,0,5.87-19.9-16.68-25.26,5.45,2.8,17.32,10.87,14,26.72,0,0,25.57-9.73,34.77,15.69,0,0,21.81-12.34,33.89,5C790.8,69.14,769,54.47,750.79,64.12Z" transform="translate(145.04 221.65)"/></g><path id="_Path_35" data-name="&lt;Path&gt;" class="cls-20" d="M97.45,31.69S99.05-11.92,58.74.79c0,0,.75-31.7-58.06-29.8C-62.89-26.95-42.15,8.54-42.15,8.54S-71.63-.56-83.06,8.48c-6,4.75-8.52,13.73-9.56,21.2C-126.25,13-152.26,40-143.23,41.95s49.94,0,49.94,0,25.27,3.42,39.11,0c0,0,49.34,7.93,102.29,1.52,0,0,24.67,4.94,49.34.49,0,0,34.3.92,46.33-2S124,17.62,97.45,31.69Z" transform="translate(145.04 221.65)"/><g id="_Group_13" data-name="&lt;Group&gt;"><path id="_Path_36" data-name="&lt;Path&gt;" class="cls-41" d="M90.4,40.65c-17.37,7.32-55-11.9-55-11.9a26.44,26.44,0,0,1-8.85,4.4A37.72,37.72,0,0,1-2.08,30C-65.17-5.38-3-28.7-2.62-28.86-54.07-26.12-46.12-.2-43,6.8A56.77,56.77,0,0,0-30.2,19.38c-24.27-16-43.94-14.3-45.27-14.16a18.14,18.14,0,0,0-7.59,3.26c-6,4.74-8.51,13.7-9.55,21.16a54.67,54.67,0,0,0,1.56,6,52.21,52.21,0,0,0-13-10.1c-27.79-6.53-47.14,14.7-39.17,16.43,9,2,49.94,0,49.94,0s25.27,3.42,39.11,0c0,0,49.34,7.93,102.29,1.52,0,0,24.67,4.94,49.34.49,0,0,15.75.42,29.65-.22C111.77,43.81,90.4,40.65,90.4,40.65Z" transform="translate(145.04 221.65)"/><polygon id="_Path_37" data-name="&lt;Path&gt;" class="cls-42" points="281.67 264.72 281.67 264.72 281.67 264.72 281.67 264.72"/></g><path id="_Path_38" data-name="&lt;Path&gt;" class="cls-23" d="M97.45,31.69S99.05-9.54,58.74,3.16c0,0-2.67-22.49-35.56-30.31C31.13-23.06,60.63-20,55.81,3.16c0,0,25.11-5.53,38.53,31.54,0,0,31.81-18,49.43,7.25C155.81,39,124,17.62,97.45,31.69Z" transform="translate(145.04 221.65)"/><g id="_Group_14" data-name="&lt;Group&gt;"><path id="_Path_39" data-name="&lt;Path&gt;" class="cls-20" d="M187.77,284.42s-5.8-20.89-30.08-13.24c0,0,7.22-24.46-28.2-23.31-38.29,1.24-25.79,22.61-25.79,22.61s-17.76-5.48-24.64,0c-3.62,2.86-5.13,8.27-5.76,12.77-20.25-10-35.92,6.21-30.48,7.39s30.08,0,30.08,0,15.22,2.06,23.56,0c0,0,29.72,4.77,61.61.92,0,0,14.86,3,29.72.3,0,0,20.66.55,27.9-1.21S203.75,275.95,187.77,284.42Z" transform="translate(145.04 221.65)"/><g id="_Group_15" data-name="&lt;Group&gt;"><path id="_Path_40" data-name="&lt;Path&gt;" class="cls-43" d="M183.52,289.82c-10.46,4.41-33.1-7.17-33.1-7.17a15.92,15.92,0,0,1-5.33,2.65,22.72,22.72,0,0,1-17.27-1.92c-38-21.29-.53-35.33-.33-35.43-31,1.65-26.2,17.26-24.32,21.48a34.19,34.19,0,0,0,7.71,7.58c-14.62-9.64-26.46-8.61-27.26-8.53a10.93,10.93,0,0,0-4.57,2c-3.61,2.85-5.13,8.25-5.75,12.74a32.92,32.92,0,0,0,.94,3.6,31.45,31.45,0,0,0-7.83-6.08c-16.74-3.93-28.39,8.85-23.59,9.89,5.44,1.18,30.08,0,30.08,0s15.22,2.06,23.56,0c0,0,29.72,4.77,61.61.92,0,0,14.86,3,29.72.3,0,0,9.48.25,17.86-.13C196.39,291.72,183.52,289.82,183.52,289.82Z" transform="translate(145.04 221.65)"/><polygon id="_Path_41" data-name="&lt;Path&gt;" class="cls-44" points="356.4 512.92 356.4 512.92 356.4 512.92 356.4 512.92"/></g><path id="_Path_42" data-name="&lt;Path&gt;" class="cls-23" d="M187.77,284.42s-5.8-20.89-30.08-13.24c0,0,5.16-17.48-14.65-22.19,4.79,2.46,15.22,9.54,12.31,23.47,0,0,22.46-8.54,30.55,13.78,0,0,19.16-10.84,29.77,4.36C222.92,288.84,203.75,275.95,187.77,284.42Z" transform="translate(145.04 221.65)"/></g></g></g></g></svg>