<svg xmlns="http://www.w3.org/2000/svg" viewBox="0 0 140.69 57.21"><defs><style>.a{fill:#0d7a08;}.b{fill:#10b208;}.c{fill:#17c10e;}.d{fill:#076302;opacity:0.14;isolation:isolate;}.e{font-size:26px;fill:#fff;font-family:GROBOLD, GROBOLD;}</style></defs><title>nextbtntut</title><polygon class="a" points="140.69 52.36 139.07 53.39 133.04 57.21 67.53 55.29 59.02 55.04 47.54 54.7 0.96 53.33 0 13.53 0.97 12.22 8.61 1.88 67.53 7.09 75.03 7.76 129.21 12.56 137.01 18.09 138.78 19.35 140.69 52.36"/><polygon class="b" points="138.81 48.77 131.31 53.46 67.53 51.62 51.45 51.15 1.88 49.71 0.97 12.22 0.94 11.26 9.38 0 67.53 5.07 75.03 5.73 127.56 10.32 136.94 16.88 137.01 18.09 138.81 48.77"/><polygon class="c" points="5.54 46.06 4.72 12.46 11.13 3.92 126.23 13.97 133.3 18.91 134.94 46.77 130.29 49.68 5.54 46.06"/><polygon class="d" points="140.69 52.36 139.07 53.39 59.02 55.04 46.9 55.29 47.54 54.7 51.45 51.15 55.45 47.51 75.03 29.7 75.03 5.73 127.56 10.32 136.94 16.88 137.01 18.09 138.78 19.35 140.69 52.36"/><text class="e" transform="translate(37.63 39.31)">Next</text></svg>