<svg id="Layer_1" data-name="Layer 1" xmlns="http://www.w3.org/2000/svg" xmlns:xlink="http://www.w3.org/1999/xlink" viewBox="0 0 68.96 76.08"><defs><style>.cls-1{fill:#232323;}.cls-2{fill:#b2b2b2;}.cls-3{fill:#353535;}.cls-4{fill:#0f0f0f;}.cls-5{fill:#e5e5e5;}.cls-6{fill:url(#linear-gradient);}.cls-7{fill:#2b2b2b;}.cls-8{fill:#495750;}.cls-9{fill:#ccc;}.cls-10{fill:#e8e8e8;}.cls-11{fill:#ad6123;}.cls-12{fill:#874616;}.cls-13{fill:#262e26;}.cls-14{fill:#e57929;}.cls-15{opacity:0.74;}.cls-16{fill:#efefef;}.cls-17{opacity:0.41;}.cls-18{fill:#ea8888;}.cls-19{fill:#fff;}.cls-20{fill:#7c7c7c;}.cls-21,.cls-22{fill:#1dcaf2;}.cls-22{opacity:0.3;}.cls-23{fill:#848484;}.cls-24{fill:#191919;opacity:0.34;}</style><linearGradient id="linear-gradient" x1="37.47" y1="60.86" x2="37.47" y2="53.64" gradientUnits="userSpaceOnUse"><stop offset="0" stop-opacity="0"/><stop offset="1"/></linearGradient></defs><title>panda1</title><path class="cls-1" d="M72.33,22.27v.05c-.33,4.39-3.95,9.37-9,8.33a7.91,7.91,0,0,1-1.36-.41l-.05,0-4.28-2.16A.71.71,0,0,1,57,27.3l-.39-14.24a.83.83,0,0,1,.89-.76h0l5.63.32C70.34,10.69,72.69,17.41,72.33,22.27Z" transform="translate(-3.41 -4.55)"/><path d="M57.45,25.26,61,27A4,4,0,0,0,65,26.61a7.58,7.58,0,0,0,2.88-5.4v-.05c.24-3.15-.86-5.56-2-6.54-1-.82-2.33-1-4.09-.53l-.38.1-4.24-.24Z" transform="translate(-3.41 -4.55)"/><path class="cls-1" d="M19.2,13l-.37,14.24a.71.71,0,0,1-.65.76L13.9,30.22C8.09,32.6,3.81,27.12,3.45,22.33v-.05c-.37-4.86,2-11.58,9.23-9.66l5.63-.33A.83.83,0,0,1,19.2,13Z" transform="translate(-3.41 -4.55)"/><path d="M18.33,25.25,14.83,27a4,4,0,0,1-4.06-.41,7.58,7.58,0,0,1-2.89-5.4v-.05c-.24-3.15.85-5.56,2-6.55,1-.82,2.33-1,4.09-.53l.38.1,4.24-.25Z" transform="translate(-3.41 -4.55)"/><path d="M52.84,79l-.1.16a2.13,2.13,0,0,1-.23.3,2.4,2.4,0,0,1-1.78.79H24.21a2.4,2.4,0,0,1-1.77-.78h0a2.2,2.2,0,0,1-.24-.31h0a2.46,2.46,0,0,1-.35-1.61l.3-2.56.56-4.77.21-1.77h0l.1-.85.29-2.47,0-.27.09-.75v0l.44-3.73.55-4.62.2-1.73.05-.47c0-.08,0-.15,0-.23s0-.12,0-.17v-.06a2.25,2.25,0,0,1,.07-.33,2.38,2.38,0,0,1,.32-.67,2.42,2.42,0,0,1,.79-.74,2.37,2.37,0,0,1,1.2-.32H47.85a2.37,2.37,0,0,1,1.2.32,2.41,2.41,0,0,1,.79.74,2.38,2.38,0,0,1,.32.67,2.12,2.12,0,0,1,.07.33v.06c0,.06,0,.12,0,.17s0,.15,0,.23l.05.47.2,1.73.47,4,0,.4,0,.27.81,6.87h0l.08.72V68l.82,6.92.31,2.62A2.48,2.48,0,0,1,52.84,79Z" transform="translate(-3.41 -4.55)"/><path class="cls-1" d="M24.2,79.67a.67.67,0,0,1-.5-.22.7.7,0,0,1-.15-.55l2.84-24c0-.14,0-.25,0-.35a.68.68,0,0,1,.67-.64H47.85a.68.68,0,0,1,.67.64c0,.09,0,.21,0,.35l2.84,24a.71.71,0,0,1-.15.55.67.67,0,0,1-.5.22Z" transform="translate(-3.41 -4.55)"/><path class="cls-2" d="M65.08,50.64a2.48,2.48,0,0,1-2.53,2.41h-49A2.48,2.48,0,0,1,11,50.64l1.62-20,.26-3.25L13,25.57a2.43,2.43,0,0,1,.1-.71A17.9,17.9,0,0,1,17,14a21.06,21.06,0,0,1,1.5-1.73A27,27,0,0,1,37.61,4.55H38a27.05,27.05,0,0,1,19.47,7.75A21,21,0,0,1,59,14a17.88,17.88,0,0,1,3.88,11c0,.12,0,.24,0,.36s0,.11,0,.17l.16,1.8.29,3.28Z" transform="translate(-3.41 -4.55)"/><path d="M39.63,80.25H35l0-.44v-.14l.1-1.56h0l0-.45.09-1.4,0-.43.06-.94.05-.78L35.9,66a1.35,1.35,0,0,1,1.17-1.3h.37l.17,0h0a1.35,1.35,0,0,1,1,1.25l.61,8.42.06.86.08,1.17,0,.23.21,2.94v.09Z" transform="translate(-3.41 -4.55)"/><path class="cls-2" d="M38.6,80.25H36l0-.43v-.14h0L36.18,77v-.13h0L36.31,75l.56-9a.39.39,0,0,1,.21-.34.38.38,0,0,1,.18,0,.37.37,0,0,1,.19.05l.08.06a.38.38,0,0,1,.11.27l.68,10.07.21,3.07,0,.52Z" transform="translate(-3.41 -4.55)"/><path class="cls-3" d="M52.84,77.83V79a1.12,1.12,0,0,1-.1.45,2.45,2.45,0,0,1-2.29,1.17H41a3.24,3.24,0,0,1-1.27-.25l-.27-.14a2.08,2.08,0,0,1-.34-.24,1.64,1.64,0,0,1-.22-.23l-.08-.11h0A1.19,1.19,0,0,1,38.6,79V77.83a1.09,1.09,0,0,1,0-.14,1.34,1.34,0,0,1,.44-.79h0a2.09,2.09,0,0,1,.33-.25l.09-.05A3.11,3.11,0,0,1,41,76.21h9.53a3.33,3.33,0,0,1,.57.06,2.57,2.57,0,0,1,1.36.66,1.5,1.5,0,0,1,.28.38A1.15,1.15,0,0,1,52.84,77.83Z" transform="translate(-3.41 -4.55)"/><path class="cls-4" d="M43.5,80.05c-.08-.48-.12-1-.18-1.44a9.58,9.58,0,0,0-.16-1.36,1.42,1.42,0,0,0-.72-.87,1.09,1.09,0,0,0-.53-.11H40.48a1.08,1.08,0,0,0-.53.11,1.42,1.42,0,0,0-.72.87,9.57,9.57,0,0,0-.16,1.36c-.06.48-.1,1-.18,1.44-.08-.48-.12-1-.18-1.44a6.33,6.33,0,0,1,0-1.5,2,2,0,0,1,1-1.36,1.72,1.72,0,0,1,.86-.21h1.44a1.71,1.71,0,0,1,.85.21,2,2,0,0,1,1,1.35,6.3,6.3,0,0,1,0,1.5C43.62,79.1,43.59,79.58,43.5,80.05Z" transform="translate(-3.41 -4.55)"/><path class="cls-4" d="M48.12,80.05c-.08-.48-.12-1-.18-1.44a9.58,9.58,0,0,0-.16-1.36,1.43,1.43,0,0,0-.72-.87,1.09,1.09,0,0,0-.53-.11H45.1a1.08,1.08,0,0,0-.53.11,1.42,1.42,0,0,0-.72.87,9.5,9.5,0,0,0-.16,1.36c-.06.48-.1,1-.18,1.44-.09-.48-.12-1-.18-1.44a6.33,6.33,0,0,1,0-1.5,2,2,0,0,1,1-1.36,1.73,1.73,0,0,1,.86-.21h1.44a1.71,1.71,0,0,1,.86.21,2,2,0,0,1,1,1.35,6.32,6.32,0,0,1,0,1.5C48.24,79.1,48.21,79.58,48.12,80.05Z" transform="translate(-3.41 -4.55)"/><path class="cls-4" d="M52.74,80.05c-.08-.48-.12-1-.18-1.44a9.58,9.58,0,0,0-.16-1.36,1.42,1.42,0,0,0-.72-.87,1.09,1.09,0,0,0-.53-.11H49.71a1.08,1.08,0,0,0-.53.11,1.42,1.42,0,0,0-.72.87,9.64,9.64,0,0,0-.16,1.36c-.06.48-.1,1-.18,1.44-.08-.48-.12-1-.18-1.44a6.3,6.3,0,0,1,0-1.5,2,2,0,0,1,1-1.36,1.72,1.72,0,0,1,.86-.21h1.44a1.71,1.71,0,0,1,.86.21,2,2,0,0,1,1,1.35,6.3,6.3,0,0,1,0,1.5C52.86,79.1,52.83,79.58,52.74,80.05Z" transform="translate(-3.41 -4.55)"/><path class="cls-3" d="M36.38,77.63v1.18c0,.89-1.08,1.62-2.39,1.62H24.53a3.22,3.22,0,0,1-1.27-.25,2.3,2.3,0,0,1-.61-.37,1.64,1.64,0,0,1-.3-.34,1.18,1.18,0,0,1-.21-.66V77.63a1.09,1.09,0,0,1,0-.15,1.56,1.56,0,0,1,.85-1.1A3.11,3.11,0,0,1,24.53,76h9.53a2.8,2.8,0,0,1,1.92.72A1.28,1.28,0,0,1,36.38,77.63Z" transform="translate(-3.41 -4.55)"/><path class="cls-5" d="M63.54,48.22a3.65,3.65,0,0,1-2.65,3,3.61,3.61,0,0,1-.57.11H15.19a3.65,3.65,0,0,1-2.67-3.14l.11-1.34L14.38,25v-.09a.46.46,0,0,1,0-.12l.09-.29v-.3a17.43,17.43,0,0,1,6.83-13.29A26.26,26.26,0,0,1,38,5.26c13,0,23.5,8.57,23.5,19.11,0,.1,0,.19,0,.29V25l1.91,21.5h0Z" transform="translate(-3.41 -4.55)"/><path class="cls-4" d="M31.67,79.86c-.08-.48-.12-1-.18-1.44a9.65,9.65,0,0,0-.16-1.36,1.43,1.43,0,0,0-.72-.87,1.09,1.09,0,0,0-.53-.11H28.64a1.08,1.08,0,0,0-.53.11,1.42,1.42,0,0,0-.72.87,9.64,9.64,0,0,0-.16,1.36c-.06.48-.1,1-.18,1.44-.08-.48-.12-1-.18-1.44a6.3,6.3,0,0,1,0-1.5,2,2,0,0,1,1-1.36,1.72,1.72,0,0,1,.86-.21h1.44a1.71,1.71,0,0,1,.86.21,2,2,0,0,1,1,1.35,6.33,6.33,0,0,1,0,1.5C31.79,78.9,31.75,79.38,31.67,79.86Z" transform="translate(-3.41 -4.55)"/><path class="cls-4" d="M27.05,79.86c-.08-.48-.12-1-.18-1.44a9.58,9.58,0,0,0-.16-1.36A1.43,1.43,0,0,0,26,76.2a1.09,1.09,0,0,0-.53-.11H24a1.08,1.08,0,0,0-.53.11,1.42,1.42,0,0,0-.72.87,9.57,9.57,0,0,0-.16,1.36c-.06.48-.1,1-.18,1.44-.09-.48-.12-1-.18-1.44a6.33,6.33,0,0,1,0-1.5,2,2,0,0,1,1-1.36,1.73,1.73,0,0,1,.86-.21h1.44a1.71,1.71,0,0,1,.86.21,2,2,0,0,1,1,1.35,6.3,6.3,0,0,1,0,1.5C27.17,78.9,27.14,79.38,27.05,79.86Z" transform="translate(-3.41 -4.55)"/><path class="cls-4" d="M36.29,79.86c-.08-.48-.12-1-.18-1.44a9.58,9.58,0,0,0-.16-1.36,1.43,1.43,0,0,0-.72-.87,1.09,1.09,0,0,0-.53-.11H33.26a1.08,1.08,0,0,0-.53.11,1.42,1.42,0,0,0-.72.87,9.57,9.57,0,0,0-.16,1.36c-.06.48-.1,1-.18,1.44-.09-.48-.12-1-.18-1.44a6.35,6.35,0,0,1,0-1.5,2,2,0,0,1,1-1.36,1.73,1.73,0,0,1,.86-.21h1.44a1.71,1.71,0,0,1,.86.21,2,2,0,0,1,1,1.35,6.3,6.3,0,0,1,0,1.5C36.41,78.9,36.37,79.38,36.29,79.86Z" transform="translate(-3.41 -4.55)"/><path class="cls-6" d="M51.11,60.86H23.84l.74-6.1a1.25,1.25,0,0,1,0-.25,1.81,1.81,0,0,0,.07-.39c0-.16,0-.32,0-.48H50.24c0,.16,0,.32,0,.48a1.81,1.81,0,0,0,.07.39,1.25,1.25,0,0,1,0,.25Z" transform="translate(-3.41 -4.55)"/><path class="cls-1" d="M28.95,45.29a11.69,11.69,0,0,0-5.17.22l-.23.06a12.07,12.07,0,0,0-2.79,1.18c-.23.15-.44.3-.63.45l-.74.57-.82-.44A8.7,8.7,0,0,1,14.21,42,8.78,8.78,0,1,1,30,44.44l-.2,1Z" transform="translate(-3.41 -4.55)"/><path class="cls-1" d="M20.48,31.95A8,8,0,0,0,15,41.75,7.86,7.86,0,0,0,19,46.6l.34.18.31-.24c.23-.18.46-.34.7-.5a12.94,12.94,0,0,1,3.25-1.35,12.54,12.54,0,0,1,5.55-.23l0-.24H29.1l.09-.13a7.94,7.94,0,0,0-8.71-12.14Z" transform="translate(-3.41 -4.55)"/><path class="cls-7" d="M28.71,44.51a6.43,6.43,0,1,0-8.3,2l.28.15.25-.19a9,9,0,0,1,2.14-1.23,9.57,9.57,0,0,1,1-.34,9.07,9.07,0,0,1,4.15-.22l.31.06Z" transform="translate(-3.41 -4.55)"/><path class="cls-8" d="M21.8,35.54a5.95,5.95,0,0,1,6.53,9.09,9.54,9.54,0,0,0-4.38.23,10,10,0,0,0-1,.36,9.45,9.45,0,0,0-2.25,1.29,5.95,5.95,0,0,1,1.15-11Z" transform="translate(-3.41 -4.55)"/><path class="cls-9" d="M17.71,42.89a5.92,5.92,0,0,0,2.94,3.63,9.45,9.45,0,0,1,2.25-1.29l5.8-6.71a5.95,5.95,0,0,0-11,4.38Z" transform="translate(-3.41 -4.55)"/><path class="cls-10" d="M20.6,45.59a10.3,10.3,0,0,1,1.83-1l5.31-6.15a5.17,5.17,0,0,0-9.29,4.26A5.11,5.11,0,0,0,20.6,45.59Z" transform="translate(-3.41 -4.55)"/><path class="cls-11" d="M20.82,41.37c.63-.26,1-.63,1-.91s-.36-.31-.77-.31a4.48,4.48,0,0,1,7.69-1.64,6,6,0,0,1-.38,6.13,9.54,9.54,0,0,0-4.38.23,10,10,0,0,0-1,.36,4.49,4.49,0,0,1-2.08-3.85Z" transform="translate(-3.41 -4.55)"/><path class="cls-12" d="M28,44a5.37,5.37,0,0,0,.17-5.15,3.91,3.91,0,0,0-4-1.15c-1.08.31-1.94,6.37-1.26,6.88.26-.1.54-.19.81-.27A10.23,10.23,0,0,1,28,44Z" transform="translate(-3.41 -4.55)"/><path class="cls-13" d="M28.64,44.82a10.51,10.51,0,0,0-7.93,1.8l-.11-.16a10.47,10.47,0,0,1,3.5-1.64,10.36,10.36,0,0,1,4.59-.19Z" transform="translate(-3.41 -4.55)"/><path class="cls-14" d="M23.2,38c.21,0,0,.5,0,.71a13.85,13.85,0,0,0-.63,2.41c0,.5-.19,2.18-.18,2.58s-.32.29-.32.29a4.89,4.89,0,0,1-.71-1.42,3.06,3.06,0,0,1,.46-1.25c.13-.24.47-.84.36-1.22a1.43,1.43,0,0,1,.22-1.38C22.79,38.3,23,37.94,23.2,38Z" transform="translate(-3.41 -4.55)"/><circle class="cls-7" cx="25.34" cy="41.22" r="3.02" transform="translate(-13.73 3.98) rotate(-15.9)"/><g class="cls-15"><circle class="cls-16" cx="22.84" cy="42.04" r="0.97" transform="translate(-14.05 3.32) rotate(-15.9)"/></g><g class="cls-17"><circle class="cls-16" cx="24.6" cy="42.55" r="0.49" transform="translate(-14.13 3.82) rotate(-15.9)"/></g><ellipse class="cls-18" cx="25.15" cy="47.6" rx="3.95" ry="1.46" transform="translate(-10.51 -0.05) rotate(-8.96)"/><path class="cls-1" d="M47.18,45.41a11.69,11.69,0,0,1,5.18.13l.23.06a12.07,12.07,0,0,1,2.81,1.13c.23.14.44.29.64.44l.75.56.82-.45a8.7,8.7,0,0,0,4.25-5.43,8.78,8.78,0,1,0-15.71,2.72l.21,1Z" transform="translate(-3.41 -4.55)"/><path class="cls-1" d="M55.41,31.92A8,8,0,0,1,61,41.63a7.86,7.86,0,0,1-3.84,4.91l-.34.19-.31-.23c-.23-.17-.47-.33-.71-.49a12.94,12.94,0,0,0-3.28-1.29A12.54,12.54,0,0,0,47,44.58l0-.24H47l-.09-.13a7.94,7.94,0,0,1,8.5-12.29Z" transform="translate(-3.41 -4.55)"/><path class="cls-7" d="M47.4,44.62a6.43,6.43,0,1,1,8.34,1.89l-.28.15-.25-.19A9,9,0,0,0,53,45.29,9.57,9.57,0,0,0,52,45a9.07,9.07,0,0,0-4.16-.15l-.31.06Z" transform="translate(-3.41 -4.55)"/><path class="cls-8" d="M54.16,35.54a5.95,5.95,0,0,0-6.37,9.2,9.54,9.54,0,0,1,4.38.15,10,10,0,0,1,1.05.34,9.45,9.45,0,0,1,2.27,1.25,5.95,5.95,0,0,0-1.34-11Z" transform="translate(-3.41 -4.55)"/><path class="cls-9" d="M58.37,42.82a5.92,5.92,0,0,1-2.88,3.68,9.45,9.45,0,0,0-2.27-1.25l-5.91-6.61a5.95,5.95,0,0,1,11.07,4.19Z" transform="translate(-3.41 -4.55)"/><path class="cls-10" d="M55.53,45.56a10.3,10.3,0,0,0-1.85-1l-5.42-6.06a5.17,5.17,0,0,1,9.36,4.1A5.11,5.11,0,0,1,55.53,45.56Z" transform="translate(-3.41 -4.55)"/><path class="cls-11" d="M55.24,41.35c-.64-.25-1.05-.61-1-.89s.35-.32.77-.32a4.48,4.48,0,0,0-7.72-1.51,6,6,0,0,0,.48,6.12,9.54,9.54,0,0,1,4.38.15,10,10,0,0,1,1.05.34,4.49,4.49,0,0,0,2-3.89Z" transform="translate(-3.41 -4.55)"/><path class="cls-12" d="M48.06,44.1a5.37,5.37,0,0,1-.26-5.15,3.91,3.91,0,0,1,4-1.22c1.08.29,2.05,6.34,1.37,6.86-.27-.09-.54-.18-.81-.25A10.23,10.23,0,0,0,48.06,44.1Z" transform="translate(-3.41 -4.55)"/><path class="cls-13" d="M47.47,44.93a10.51,10.51,0,0,1,8,1.66l.11-.16A10.47,10.47,0,0,0,52,44.85a10.36,10.36,0,0,0-4.59-.11Z" transform="translate(-3.41 -4.55)"/><path class="cls-14" d="M52.8,38c-.21,0,0,.5,0,.71a13.85,13.85,0,0,1,.67,2.4c0,.5.23,2.18.22,2.58S54,44,54,44a4.89,4.89,0,0,0,.68-1.43,3.06,3.06,0,0,0-.48-1.24c-.14-.24-.48-.84-.38-1.21a1.43,1.43,0,0,0-.24-1.38C53.22,38.32,53,38,52.8,38Z" transform="translate(-3.41 -4.55)"/><circle class="cls-7" cx="50.71" cy="41.28" r="3.02" transform="matrix(0.26, -0.97, 0.97, 0.26, -5.64, 75.1)"/><g class="cls-15"><circle class="cls-16" cx="53.23" cy="42.05" r="0.97" transform="translate(-4.52 78.11) rotate(-75.08)"/></g><g class="cls-17"><circle class="cls-16" cx="51.47" cy="42.59" r="0.49" transform="translate(-6.35 76.81) rotate(-75.08)"/></g><ellipse class="cls-18" cx="51.5" cy="47.6" rx="1.46" ry="3.95" transform="translate(-11.41 80.17) rotate(-74.7)"/><ellipse class="cls-16" cx="34.74" cy="14.11" rx="16.2" ry="10.68"/><ellipse class="cls-19" cx="34.79" cy="10.19" rx="13.04" ry="6.22"/><path class="cls-1" d="M39.6,50.49a3.13,3.13,0,0,1-3.78.11l-2-1.05a1.5,1.5,0,0,1,1.3-2.25l2.48.64L40,47.3a1.5,1.5,0,0,1,1.3,2.25Z" transform="translate(-3.41 -4.55)"/><path class="cls-20" d="M37.64,49.36a2.36,2.36,0,0,1-1.24-.42l0,0L34.65,48a.44.44,0,0,1,.06-.2.41.41,0,0,1,.27-.2l2.58.67,2.58-.67a.41.41,0,0,1,.27.2.43.43,0,0,1,.06.22L39,48.82l0,0A2.46,2.46,0,0,1,37.64,49.36Z" transform="translate(-3.41 -4.55)"/><rect class="cls-21" x="47.08" y="40.46" width="7.73" height="2.79" rx="0.95" ry="0.95"/><circle class="cls-22" cx="44.34" cy="37.72" r="1.02"/><circle class="cls-22" cx="48.69" cy="39.38" r="1.07"/><circle class="cls-22" cx="51.26" cy="39.06" r="1.07"/><circle class="cls-22" cx="50.13" cy="43.41" r="1.07" transform="translate(-15.68 16.43) rotate(-21.12)"/><circle class="cls-22" cx="44.61" cy="39.17" r="0.86"/><rect class="cls-21" x="17.75" y="45" width="7.73" height="2.79" rx="0.95" ry="0.95" transform="translate(39.83 88.25) rotate(-180)"/><circle class="cls-22" cx="24.81" cy="37.72" r="1.02"/><circle class="cls-22" cx="20.46" cy="39.38" r="1.07"/><circle class="cls-22" cx="17.89" cy="39.06" r="1.07"/><circle class="cls-22" cx="25.83" cy="43.41" r="1.07" transform="translate(-27.37 47.32) rotate(-68.88)"/><circle class="cls-22" cx="24.54" cy="39.17" r="0.86"/><path class="cls-23" d="M26.14,29a1.59,1.59,0,0,0,.29.66,2.37,2.37,0,0,0,.58.55,4.68,4.68,0,0,0,1.62.67,7.91,7.91,0,0,0,1.83.18,10.19,10.19,0,0,0,1.87-.2,10.33,10.33,0,0,1-1.85.47,8.31,8.31,0,0,1-1.94.08,5.35,5.35,0,0,1-1.95-.5,3.25,3.25,0,0,1-.88-.63,2.61,2.61,0,0,1-.61-1h0a.54.54,0,0,1,1-.35Z" transform="translate(-3.41 -4.55)"/><path class="cls-23" d="M49.31,29.52a1.59,1.59,0,0,1-.31.65,2.37,2.37,0,0,1-.6.53,4.68,4.68,0,0,1-1.64.61,7.91,7.91,0,0,1-1.84.12,10.19,10.19,0,0,1-1.86-.26,10.33,10.33,0,0,0,1.83.53,8.31,8.31,0,0,0,1.93.15,5.35,5.35,0,0,0,2-.44,3.25,3.25,0,0,0,.9-.6,2.61,2.61,0,0,0,.65-1h0a.54.54,0,0,0-1-.39Z" transform="translate(-3.41 -4.55)"/><path class="cls-24" d="M72.33,22.27v.05c-.33,4.39-3.95,9.37-9,8.33l1.78,20a2.48,2.48,0,0,1-2.53,2.41H50.23v.06c0,.06,0,.12,0,.17s0,.15,0,.23l.05.47.2,1.73.47,4,0,.4,0,.27.81,6.87h0l.08.72V68l.82,6.92.31,2.62A2.48,2.48,0,0,1,52.84,79h0a1.12,1.12,0,0,1-.1.45,2.45,2.45,0,0,1-2.29,1.17H41a3.24,3.24,0,0,1-1.27-.25l-.27-.14H37.61V4.55H38a27.05,27.05,0,0,1,19.47,7.75l5.63.32C70.34,10.69,72.69,17.41,72.33,22.27Z" transform="translate(-3.41 -4.55)"/></svg>