<svg xmlns="http://www.w3.org/2000/svg" xmlns:xlink="http://www.w3.org/1999/xlink" viewBox="0 0 82 97.97"><defs><style>.cls-1{opacity:0.89;}.cls-2{fill:#384948;}.cls-3{fill:#465b5a;}.cls-4{fill:#262e26;}.cls-21,.cls-5{fill:#2b2b2b;}.cls-6{fill:#526664;}.cls-7{fill:#5a6d6b;}.cls-8{fill:#b5b5b5;}.cls-9{fill:#e8e8e8;}.cls-10{fill:#fff;}.cls-11{fill:#495750;}.cls-12{fill:#ccc;}.cls-13{fill:#ad6123;}.cls-14{fill:#874616;}.cls-15{fill:#e57929;}.cls-16{opacity:0.74;}.cls-17{fill:#efefef;}.cls-18{opacity:0.41;}.cls-19{fill:#997373;}.cls-20,.cls-21{opacity:0.56;}.cls-20{fill:url(#linear-gradient);}.cls-22{fill:#253332;opacity:0.34;}</style><linearGradient id="linear-gradient" x1="49.07" y1="75.03" x2="49.07" y2="66.87" gradientUnits="userSpaceOnUse"><stop offset="0" stop-opacity="0"/><stop offset="1"/></linearGradient></defs><title>rhino1</title><g id="Layer_2" data-name="Layer 2"><g id="Layer_1-2" data-name="Layer 1"><g id="rhino" class="cls-1"><g id="balck-Rhino"><g id="rhinotail"><path class="cls-2" d="M24.61,84.34A19,19,0,0,1,15.05,82a18.63,18.63,0,0,1-6.91-7.17,37.12,37.12,0,0,1-4-11.93l2.57-.45a34.56,34.56,0,0,0,3.65,11.08,16.06,16.06,0,0,0,5.93,6.2,16.91,16.91,0,0,0,9.14,2,39.29,39.29,0,0,0,12.15-2.78l.92,2.44a41.85,41.85,0,0,1-13,2.95Z"/><path class="cls-2" d="M8.59,55.56c2.28,4.89-.66,8.15-3.48,8.15S0,61.11,0,57.9,7,45.12,7,45.12A17.12,17.12,0,0,0,8.59,55.56Z"/><path class="cls-3" d="M8.1,55.69c1.72,4.07-.07,6.93-1.93,7s-3.48-2-3.62-4.75,4-11.06,4-11.06A18.36,18.36,0,0,0,8.1,55.69Z"/></g><path class="cls-2" d="M66.44,96.13l-.11.18a2.4,2.4,0,0,1-.25.33,2.72,2.72,0,0,1-2,.89h-30a2.72,2.72,0,0,1-2-.89h0a2.48,2.48,0,0,1-.27-.35,2.78,2.78,0,0,1-.4-1.82l.34-2.89.64-5.39.24-2h0l.11-1,.33-2.79,0-.3.1-.85v-.05L33.7,75l.62-5.22.23-2,.06-.53c0-.09,0-.17,0-.26s0-.13,0-.2a2.59,2.59,0,0,1,.09-.44,2.69,2.69,0,0,1,.36-.76,2.72,2.72,0,0,1,2.25-1.2H60.8a2.72,2.72,0,0,1,2.25,1.2,2.69,2.69,0,0,1,.36.76,2.47,2.47,0,0,1,.09.44c0,.07,0,.13,0,.2s0,.17,0,.26l.06.53.23,2,.53,4.47.05.45,0,.3.92,7.76h0l.1.81v.08l.93,7.82.35,3A2.81,2.81,0,0,1,66.44,96.13Z"/><path class="cls-3" d="M34.08,96.88a.76.76,0,0,1-.56-.25.8.8,0,0,1-.17-.62l3.21-27.14c0-.15,0-.29,0-.4a.77.77,0,0,1,.76-.72H60.8a.77.77,0,0,1,.76.72c0,.1,0,.24,0,.39L64.8,96a.8.8,0,0,1-.17.62.76.76,0,0,1-.56.25Z"/><path class="cls-2" d="M76.62,28.29c0,.31-.1.63-.18,1L73.87,63.93l-.36,2a1,1,0,0,1-1,1H26.66a1,1,0,0,1-.78-.38,1,1,0,0,1-.2-.59l-.37-2-2.48-34c-.1-.64-.24-1.31-.41-2-3.42-3.67-5.79-9.61-4.79-13l3-12.83A2.08,2.08,0,0,1,22,.15l0,0A2.05,2.05,0,0,1,22.74,0c2.94,0,8.7,6.39,8.7,11.42v9.24h0a28.14,28.14,0,0,1,17.17-6.41h1.45a28.15,28.15,0,0,1,17.66,6.41H68V11.42c0-2.51,1.44-5.37,3.25-7.59S75.19,0,76.66,0a2.07,2.07,0,0,1,2.07,2.07l3,12.83C82.81,18.43,80.23,24.67,76.62,28.29Z"/><path class="cls-3" d="M27.46,65.67l-.16-.87-2.52-34v-.09c-.1-.64-.25-1.34-.47-2.21l-.15-.6-.43-.45a18.25,18.25,0,0,1-3.64-5.82,8.52,8.52,0,0,1-.69-4.89l0-.06L22,.11c.69.29,3.84,1.73,5.26,3.48,1.64,2,3.07,4.66,3.07,6.31l.22,12.72a25.48,25.48,0,0,1,18.4-7.94,28.3,28.3,0,0,1,19.82,8l.66-12.18c0-1.65,1.1-4.17,2.74-6.2a19.69,19.69,0,0,1,5.15-4l2.8,16.38,0,.06a8.74,8.74,0,0,1-.78,5.11,17.94,17.94,0,0,1-3.86,5.92l-.57.56-.12.78c0,.26-.09.52-.15.77l0,.17L72,64.82l-.16.86Z"/><path class="cls-4" d="M71.11,28.38l-.21,0h-.55l.58-18.06a11.51,11.51,0,0,1,2.8-6.13,10.21,10.21,0,0,1,3.51-3l2.65,13.7,0,.06a8.42,8.42,0,0,1-.54,4.28,19.63,19.63,0,0,1-2.93,5.45C74.63,27,72.59,28.43,71.11,28.38Z"/><path class="cls-4" d="M28.29,28.38l.21,0H29l-.58-18.06a11.51,11.51,0,0,0-2.8-6.13,10.21,10.21,0,0,0-3.51-3l-2.65,13.7,0,.06A8.42,8.42,0,0,0,20,19.19,19.63,19.63,0,0,0,23,24.64C24.76,27,26.8,28.43,28.29,28.38Z"/><path class="cls-5" d="M53.5,62c0,1.8-1.9,3.26-4.24,3.26S45,63.78,45,62a2.61,2.61,0,0,1,.33-1.26c0,1.64,1.77,3,3.91,3s3.88-1.32,3.91-3A2.61,2.61,0,0,1,53.5,62Z"/><ellipse class="cls-6" cx="49.71" cy="34.25" rx="21.85" ry="16.96"/><ellipse class="cls-7" cx="49.87" cy="26.31" rx="16.03" ry="7.86"/><path class="cls-8" d="M49.26,65c-2.46,0-4.46-1.56-4.46-3.48a2.82,2.82,0,0,1,.35-1.36l.08-.14c.06-.34.09-1,.16-1.66.82-7.92,1.91-23.15,3.87-23.15s3,15.11,3.87,23.15c.07.7.1,1.32.16,1.66l.08.14a2.82,2.82,0,0,1,.35,1.36C53.71,63.46,51.71,65,49.26,65Z"/><path class="cls-9" d="M53.5,61.54c0,1.8-1.9,2.94-4.24,2.94S45,63.34,45,61.54a2.61,2.61,0,0,1,.33-1.26c0,1.64,1.77-24.95,3.91-24.95s3.88,26.59,3.91,24.95A2.61,2.61,0,0,1,53.5,61.54Z"/><path class="cls-10" d="M49.26,61.87c-1.59,0-2.94-.9-2.94-2a1.25,1.25,0,0,1,0-.32,1.8,1.8,0,0,0,.32-.68c0-.11.05-.26.09-.46.06-.36.14-.85.24-1.47.28-1.8.71-4.48.95-7,.22-2.28,1-13.51,1.3-14.2.26.69,1.09,11.91,1.3,14.09.25,2.48.67,5.27.95,7.07.1.62.17,1.11.24,1.47,0,.21.06.35.09.46a1.8,1.8,0,0,0,.32.68,1.25,1.25,0,0,1,0,.32C52.19,61,50.85,61.87,49.26,61.87Z"/><path class="cls-2" d="M57.69,60.73a7.94,7.94,0,1,1,10.64-.3l-.61.58-.78-.32-.66-.24a10.9,10.9,0,0,0-2.72-.34h-.22a10.57,10.57,0,0,0-4.55,1.09l-.68.34Z"/><path class="cls-2" d="M62.85,47.52a7.18,7.18,0,0,0-4.57,12.71l.11.09,0,0,.1.19a11.33,11.33,0,0,1,4.88-1.17,11.68,11.68,0,0,1,3.16.36c.25.08.5.16.74.26l.33.13.25-.24A7.11,7.11,0,0,0,70,54.69,7.18,7.18,0,0,0,62.85,47.52Z"/><path class="cls-2" d="M40.53,61.22A10.57,10.57,0,0,0,36,60.12h-.22a10.91,10.91,0,0,0-2.72.34l-.66.24L31.6,61,31,60.43a7.86,7.86,0,0,1-2.45-5.73,7.94,7.94,0,1,1,13.09,6l-.42.83Z"/><path class="cls-2" d="M36.48,47.52a7.18,7.18,0,0,0-7.18,7.18,7.11,7.11,0,0,0,2.21,5.18l.25.24.33-.13c.24-.1.49-.18.74-.26A11.7,11.7,0,0,1,36,59.36a11.33,11.33,0,0,1,4.88,1.17l.1-.19,0,0,.11-.09a7.18,7.18,0,0,0-4.57-12.71Z"/><path class="cls-5" d="M58.28,60.23a7.18,7.18,0,1,1,9.53-.35l-.25.24L67.23,60a10,10,0,0,0-2.67-.66,10.67,10.67,0,0,0-1.17-.06,10.12,10.12,0,0,0-4.52,1l-.32.16Z"/><path class="cls-11" d="M63,48.49a6.63,6.63,0,0,0-4.22,11.75,10.64,10.64,0,0,1,4.76-1.09,11.18,11.18,0,0,1,1.23.07,10.55,10.55,0,0,1,2.81.7A6.63,6.63,0,0,0,63,48.49Z"/><path class="cls-12" d="M69.59,55.13a6.61,6.61,0,0,1-2,4.79,10.55,10.55,0,0,0-2.81-.7l-8.27-5.43a6.63,6.63,0,0,1,13.13,1.34Z"/><path class="cls-9" d="M67.31,58.9A11.49,11.49,0,0,0,65,58.38l-7.58-5a5.76,5.76,0,0,1,11.26,1.73A5.7,5.7,0,0,1,67.31,58.9Z"/><path class="cls-13" d="M65.79,54.45c-.76-.08-1.31-.36-1.31-.68s.29-.44.74-.57a5,5,0,0,0-8.76.59,6.64,6.64,0,0,0,2.28,6.46,10.64,10.64,0,0,1,4.76-1.09,11.18,11.18,0,0,1,1.23.07,5,5,0,0,0,1.06-4.77Z"/><path class="cls-14" d="M58.84,59.47A6,6,0,0,1,57.08,54,4.36,4.36,0,0,1,61,51.54c1.25,0,4,6.24,3.45,7-.31,0-.63,0-.95,0A11.41,11.41,0,0,0,58.84,59.47Z"/><path class="cls-4" d="M58.45,60.54l-.1-.19a11.55,11.55,0,0,1,5-1.2,11.69,11.69,0,0,1,4.25.69l-.07.2a11.72,11.72,0,0,0-9.06.5Z"/><path class="cls-15" d="M62.2,51.54c-.22.11.11.54.22.76a15.45,15.45,0,0,1,1.41,2.39c.11.54.87,2.28,1,2.72s.43.22.43.22a5.45,5.45,0,0,0,.33-1.74,3.41,3.41,0,0,0-.87-1.2c-.22-.22-.76-.76-.76-1.2a1.59,1.59,0,0,0-.65-1.41C62.74,51.76,62.41,51.43,62.2,51.54Z"/><circle class="cls-5" cx="60.89" cy="55.67" r="3.37"/><g class="cls-16"><circle class="cls-17" cx="63.83" cy="55.78" r="1.09"/></g><g class="cls-18"><circle class="cls-17" cx="62.09" cy="56.87" r="0.54"/></g><path class="cls-5" d="M41,60.23a7.18,7.18,0,1,0-9.53-.35l.25.24.33-.13a10,10,0,0,1,2.67-.66,10.67,10.67,0,0,1,1.17-.06,10.12,10.12,0,0,1,4.52,1l.32.16Z"/><path class="cls-11" d="M36.37,48.49a6.63,6.63,0,0,1,4.22,11.75,10.64,10.64,0,0,0-4.76-1.09,11.18,11.18,0,0,0-1.23.07,10.55,10.55,0,0,0-2.81.7,6.63,6.63,0,0,1,4.59-11.42Z"/><path class="cls-12" d="M29.73,55.13a6.61,6.61,0,0,0,2,4.79,10.55,10.55,0,0,1,2.81-.7l8.27-5.43a6.63,6.63,0,0,0-13.13,1.34Z"/><path class="cls-9" d="M32,58.9a11.49,11.49,0,0,1,2.27-.52l7.58-5A5.76,5.76,0,0,0,30.6,55.13,5.7,5.7,0,0,0,32,58.9Z"/><path class="cls-13" d="M33.53,54.45c.76-.08,1.31-.36,1.31-.68s-.29-.44-.74-.57a5,5,0,0,1,8.76.59,6.64,6.64,0,0,1-2.28,6.46,10.64,10.64,0,0,0-4.76-1.09,11.18,11.18,0,0,0-1.23.07,5,5,0,0,1-1.06-4.77Z"/><path class="cls-14" d="M40.48,59.47A6,6,0,0,0,42.24,54a4.36,4.36,0,0,0-3.92-2.45c-1.25,0-4,6.24-3.45,7,.31,0,.63,0,.95,0A11.41,11.41,0,0,1,40.48,59.47Z"/><path class="cls-4" d="M40.87,60.54a11.72,11.72,0,0,0-9.06-.5l-.07-.2A11.68,11.68,0,0,1,36,59.14a11.55,11.55,0,0,1,5,1.2Z"/><path class="cls-15" d="M37.13,51.54c.22.11-.11.54-.22.76a15.45,15.45,0,0,0-1.41,2.39c-.11.54-.87,2.28-1,2.72s-.43.22-.43.22a5.45,5.45,0,0,1-.33-1.74,3.41,3.41,0,0,1,.87-1.2c.22-.22.76-.76.76-1.2A1.59,1.59,0,0,1,36,52.08C36.58,51.76,36.91,51.43,37.13,51.54Z"/><circle class="cls-5" cx="38.43" cy="55.67" r="3.37"/><g class="cls-16"><circle class="cls-17" cx="35.5" cy="55.78" r="1.09"/></g><g class="cls-18"><circle class="cls-17" cx="37.24" cy="56.87" r="0.54"/></g><ellipse class="cls-19" cx="36.26" cy="61.76" rx="4.4" ry="1.63"/><ellipse class="cls-19" cx="63.34" cy="61.76" rx="4.4" ry="1.63"/><path class="cls-2" d="M51.51,97.53H46.24l0-.5v-.16l.12-1.76h0l0-.51.1-1.59,0-.48.07-1.06.06-.88.61-9.2a1.52,1.52,0,0,1,1.32-1.47h.2l.22,0,.22,0a1.53,1.53,0,0,1,1.09,1.41L51,90.91l.07,1,.1,1.32,0,.26.24,3.33v.1Z"/><path class="cls-4" d="M50.35,97.53h-3l0-.48v-.16h0l.19-3v-.15l.13-2.09.63-10.17a.44.44,0,0,1,.23-.39.43.43,0,0,1,.2,0,.42.42,0,0,1,.22.06l.09.07a.43.43,0,0,1,.13.31L50,92.82l.24,3.47,0,.59Z"/><g id="paw"><path class="cls-2" d="M66.44,94.8v1.34a1.27,1.27,0,0,1-.11.51A2.77,2.77,0,0,1,63.74,98H53a3.65,3.65,0,0,1-1.43-.28l-.31-.15a2.34,2.34,0,0,1-.38-.27,1.85,1.85,0,0,1-.25-.26l-.09-.12h0a1.34,1.34,0,0,1-.23-.74V94.8a1.25,1.25,0,0,1,0-.16,1.51,1.51,0,0,1,.49-.9,2.36,2.36,0,0,1,.37-.28l.1-.06A3.51,3.51,0,0,1,53,93H63.81a3.77,3.77,0,0,1,.64.06,2.9,2.9,0,0,1,1.53.75,1.69,1.69,0,0,1,.32.43A1.29,1.29,0,0,1,66.44,94.8Z"/><path class="cls-7" d="M55.89,97.32a9.15,9.15,0,0,1-1.71-1.62,8.4,8.4,0,0,1-.58-.81c-.09-.1-.17-.36-.24-.27a.47.47,0,0,0-.2.12c-.22.21-.25.65.18,1a1.29,1.29,0,0,0,.39.23,1,1,0,0,0,.24.07l.12,0h0c-.27,0-.54,0-.81,0s-.54,0-.81,0h0l.12,0a1.11,1.11,0,0,0,.24-.07,1.32,1.32,0,0,0,.39-.23c.44-.38.41-.82.19-1a.47.47,0,0,0-.19-.12c-.08-.1-.15.16-.24.27a8.62,8.62,0,0,1-.58.81,9.16,9.16,0,0,1-1.72,1.62A9.16,9.16,0,0,1,49,95.69a8.61,8.61,0,0,1-.58-.81,1.07,1.07,0,0,1-.23-.55,3.52,3.52,0,0,1-.08-.92,4.34,4.34,0,0,1,2.09-3.54,4.61,4.61,0,0,1,1.15-.51,4.72,4.72,0,0,1,.64-.13l.52,0c.27,0,.54,0,.81,0s.54,0,.81,0l.52,0a4.51,4.51,0,0,1,1.79.64,4.34,4.34,0,0,1,2.09,3.54,3.57,3.57,0,0,1-.08.92,1.07,1.07,0,0,1-.23.55,8.4,8.4,0,0,1-.58.81A9.15,9.15,0,0,1,55.89,97.32Z"/><path class="cls-7" d="M61.11,97.32a9.15,9.15,0,0,1-1.71-1.62,8.4,8.4,0,0,1-.58-.81c-.09-.1-.17-.36-.24-.27a.47.47,0,0,0-.2.12c-.22.21-.25.65.18,1A1.29,1.29,0,0,0,59,96a1,1,0,0,0,.24.07l.12,0h0c-.27,0-.54,0-.81,0s-.54,0-.81,0h0l.12,0A1.11,1.11,0,0,0,58,96a1.32,1.32,0,0,0,.39-.23c.44-.38.41-.82.19-1a.47.47,0,0,0-.19-.12c-.08-.1-.15.16-.24.27a8.61,8.61,0,0,1-.58.81,9.16,9.16,0,0,1-1.72,1.62,9.16,9.16,0,0,1-1.72-1.62,8.61,8.61,0,0,1-.58-.81,1.07,1.07,0,0,1-.23-.55,3.52,3.52,0,0,1-.08-.92,4.34,4.34,0,0,1,2.09-3.54,4.61,4.61,0,0,1,1.15-.51,4.72,4.72,0,0,1,.64-.13l.52,0c.27,0,.54,0,.81,0s.54,0,.81,0l.52,0a4.51,4.51,0,0,1,1.79.64,4.34,4.34,0,0,1,2.09,3.54,3.57,3.57,0,0,1-.08.92,1.07,1.07,0,0,1-.23.55,8.4,8.4,0,0,1-.58.81A9.15,9.15,0,0,1,61.11,97.32Z"/><path class="cls-7" d="M66.33,97.32a9.15,9.15,0,0,1-1.71-1.62,8.4,8.4,0,0,1-.58-.81c-.09-.1-.17-.36-.24-.27a.47.47,0,0,0-.2.12c-.22.21-.25.65.18,1a1.29,1.29,0,0,0,.39.23,1,1,0,0,0,.24.07l.12,0h0c-.27,0-.54,0-.81,0s-.54,0-.81,0h0l.12,0a1.11,1.11,0,0,0,.24-.07,1.32,1.32,0,0,0,.39-.23c.44-.38.41-.82.19-1a.47.47,0,0,0-.19-.12c-.08-.1-.15.16-.24.27a8.61,8.61,0,0,1-.58.81,9.16,9.16,0,0,1-1.72,1.62,9.16,9.16,0,0,1-1.72-1.62,8.61,8.61,0,0,1-.58-.81,1.07,1.07,0,0,1-.23-.55,3.52,3.52,0,0,1-.08-.92,4.34,4.34,0,0,1,2.09-3.54,4.61,4.61,0,0,1,1.15-.51,4.72,4.72,0,0,1,.64-.13l.52,0c.27,0,.54,0,.81,0s.54,0,.81,0l.52,0a4.51,4.51,0,0,1,1.79.64,4.34,4.34,0,0,1,2.09,3.54,3.57,3.57,0,0,1-.08.92,1.07,1.07,0,0,1-.23.55,8.4,8.4,0,0,1-.58.81A9.15,9.15,0,0,1,66.33,97.32Z"/></g><g id="paw-2" data-name="paw"><path class="cls-2" d="M47.84,94.58v1.34c0,1-1.21,1.83-2.7,1.83H34.45A3.64,3.64,0,0,1,33,97.47a2.6,2.6,0,0,1-.69-.42,1.85,1.85,0,0,1-.34-.38,1.34,1.34,0,0,1-.24-.75V94.58a1.23,1.23,0,0,1,0-.16,1.76,1.76,0,0,1,1-1.24,3.52,3.52,0,0,1,1.73-.43H45.21a3.16,3.16,0,0,1,2.17.81A1.45,1.45,0,0,1,47.84,94.58Z"/><path class="cls-7" d="M37.3,97.1a9.15,9.15,0,0,1-1.71-1.62,8.4,8.4,0,0,1-.58-.81c-.09-.1-.17-.36-.24-.27a.47.47,0,0,0-.2.12c-.22.21-.25.65.18,1a1.29,1.29,0,0,0,.39.23,1,1,0,0,0,.24.07l.12,0h0c-.27,0-.54,0-.81,0s-.54,0-.81,0h0l.12,0a1.11,1.11,0,0,0,.24-.07,1.32,1.32,0,0,0,.39-.23c.44-.38.41-.82.19-1a.47.47,0,0,0-.19-.12c-.08-.1-.15.16-.24.27a8.62,8.62,0,0,1-.58.81,9.16,9.16,0,0,1-1.72,1.62,9.16,9.16,0,0,1-1.72-1.62,8.62,8.62,0,0,1-.58-.81,1.07,1.07,0,0,1-.23-.55,3.52,3.52,0,0,1-.08-.92,4.34,4.34,0,0,1,2.09-3.54,4.61,4.61,0,0,1,1.15-.51,4.72,4.72,0,0,1,.64-.13l.52,0c.27,0,.54,0,.81,0s.54,0,.81,0L36,89a4.51,4.51,0,0,1,1.79.64,4.34,4.34,0,0,1,2.09,3.54,3.57,3.57,0,0,1-.08.92,1.07,1.07,0,0,1-.23.55,8.4,8.4,0,0,1-.58.81A9.15,9.15,0,0,1,37.3,97.1Z"/><path class="cls-7" d="M42.51,97.1a9.15,9.15,0,0,1-1.71-1.62,8.41,8.41,0,0,1-.58-.81c-.09-.1-.17-.36-.24-.27a.47.47,0,0,0-.2.12c-.22.21-.25.65.18,1a1.29,1.29,0,0,0,.39.23,1,1,0,0,0,.24.07l.12,0h0c-.27,0-.54,0-.81,0s-.54,0-.81,0h0l.12,0a1.11,1.11,0,0,0,.24-.07,1.32,1.32,0,0,0,.39-.23c.44-.38.41-.82.19-1a.47.47,0,0,0-.19-.12c-.08-.1-.15.16-.24.27a8.62,8.62,0,0,1-.58.81A9.16,9.16,0,0,1,37.3,97.1a9.16,9.16,0,0,1-1.72-1.62,8.62,8.62,0,0,1-.58-.81,1.07,1.07,0,0,1-.23-.55,3.52,3.52,0,0,1-.08-.92,4.34,4.34,0,0,1,2.09-3.54,4.61,4.61,0,0,1,1.15-.51,4.72,4.72,0,0,1,.64-.13l.52,0c.27,0,.54,0,.81,0s.54,0,.81,0l.52,0a4.51,4.51,0,0,1,1.79.64,4.34,4.34,0,0,1,2.09,3.54,3.57,3.57,0,0,1-.08.92,1.07,1.07,0,0,1-.23.55,8.41,8.41,0,0,1-.58.81A9.15,9.15,0,0,1,42.51,97.1Z"/><path class="cls-7" d="M47.73,97.1A9.15,9.15,0,0,1,46,95.48a8.41,8.41,0,0,1-.58-.81c-.09-.1-.17-.36-.24-.27a.47.47,0,0,0-.2.12c-.22.21-.25.65.18,1a1.29,1.29,0,0,0,.39.23,1,1,0,0,0,.24.07l.12,0h0c-.27,0-.54,0-.81,0s-.54,0-.81,0h0l.12,0a1.11,1.11,0,0,0,.24-.07,1.32,1.32,0,0,0,.39-.23c.44-.38.41-.82.19-1a.47.47,0,0,0-.19-.12c-.08-.1-.15.16-.24.27a8.62,8.62,0,0,1-.58.81,9.16,9.16,0,0,1-1.72,1.62,9.16,9.16,0,0,1-1.72-1.62,8.62,8.62,0,0,1-.58-.81,1.07,1.07,0,0,1-.23-.55,3.52,3.52,0,0,1-.08-.92A4.34,4.34,0,0,1,42,89.65a4.61,4.61,0,0,1,1.15-.51,4.72,4.72,0,0,1,.64-.13l.52,0c.27,0,.54,0,.81,0s.54,0,.81,0l.52,0a4.51,4.51,0,0,1,1.79.64,4.34,4.34,0,0,1,2.09,3.54,3.57,3.57,0,0,1-.08.92,1.07,1.07,0,0,1-.23.55,8.4,8.4,0,0,1-.58.81A9.15,9.15,0,0,1,47.73,97.1Z"/></g><path class="cls-20" d="M64.48,75H33.67l.84-6.89a1.41,1.41,0,0,1,0-.28,2,2,0,0,0,.08-.44c0-.18,0-.36,0-.55H63.5c0,.18,0,.36,0,.55a2,2,0,0,0,.08.44,1.41,1.41,0,0,1,0,.28Z"/><path class="cls-21" d="M74.16,62.36v.21l0,0h0v-.06Z"/></g><path class="cls-22" d="M76.62,28.29c0,.31-.1.63-.18,1L73.87,63.93l-.36,2a1,1,0,0,1-1,1h-9c0,.07,0,.13,0,.2s0,.17,0,.26l.06.53a1.41,1.41,0,0,1,0,.28L64.48,75h0l.92,7.76h0l.1.81v.08l.93,7.82.35,3a2.81,2.81,0,0,1-.3,1.66h0a1.27,1.27,0,0,1-.11.51A2.77,2.77,0,0,1,63.74,98H53a3.65,3.65,0,0,1-1.43-.28l-.31-.15H48.62V14.26h1.45a28.15,28.15,0,0,1,17.66,6.41H68V11.42c0-2.51,1.44-5.37,3.25-7.59S75.19,0,76.66,0a2.07,2.07,0,0,1,2.07,2.07l3,12.83C82.81,18.43,80.23,24.67,76.62,28.29Z"/></g></g></g></svg>