<svg xmlns="http://www.w3.org/2000/svg" viewBox="0 0 180.35 52.92"><defs><style>.a{fill:#0d7a08;}.b{fill:#10b208;}.c{fill:#17c10e;}.d{fill:#076302;opacity:0.14;}.d,.e{isolation:isolate;}.e{font-size:20.82px;fill:#fff;font-family:GROBOLD, GROBOLD;}</style></defs><title>skipbtn</title><polygon class="a" points="180.35 48.43 178.28 49.38 170.54 52.92 86.57 51.14 75.65 50.91 60.95 50.59 1.23 49.33 0 12.51 1.24 11.3 11.04 1.74 86.57 6.56 96.19 7.17 165.63 11.62 175.64 16.73 177.9 17.9 180.35 48.43"/><polygon class="b" points="177.95 45.11 168.32 49.45 86.57 47.74 65.97 47.31 2.41 45.98 1.24 11.3 1.2 10.41 12.02 0 86.57 4.69 96.19 5.3 163.52 9.54 175.54 15.62 175.64 16.73 177.95 45.11"/><polygon class="c" points="7.1 42.61 6.05 11.53 14.26 3.63 161.81 12.92 170.88 17.5 172.98 43.26 167.01 45.95 7.1 42.61"/><polygon class="d" points="180.35 48.43 178.28 49.38 75.65 50.91 60.12 51.14 60.95 50.59 65.97 47.31 71.08 43.94 96.19 27.48 96.19 5.3 163.52 9.54 175.54 15.62 175.64 16.73 177.9 17.9 180.35 48.43"/><text class="e" transform="translate(26.24 34.69) scale(0.98 1)">Skip Tutorial</text></svg>