<svg xmlns="http://www.w3.org/2000/svg" xmlns:xlink="http://www.w3.org/1999/xlink" viewBox="0 0 549.04 93.54"><defs><style>.a{fill:none;}.b{fill:#ad8f12;}.c{fill:#cecece;}.d{fill:#3d240e;}.ap,.e{fill:#a67c52;}.f{fill:#c69c6d;}.aq,.g{fill:#8c6239;}.h{fill:#fff;}.i{fill:#e6e6e6;}.j{fill:#39b54a;}.k{fill:#754c24;}.l{fill:#009245;}.ai,.m{font-size:14px;font-family:MyriadPro-Regular, Myriad Pro;}.m{letter-spacing:-0.01em;}.n{letter-spacing:0em;}.o,.p{fill:#515151;}.aa,.ac,.ad,.ae,.af,.ag,.ah,.p,.q,.s,.t,.u,.v,.w,.x,.y,.z{opacity:0.7;}.r{fill:#f2c611;}.s{fill:url(#a);}.t{fill:url(#b);}.u{fill:url(#c);}.v{fill:url(#d);}.w{fill:url(#e);}.x{fill:url(#f);}.y{fill:url(#g);}.z{fill:url(#h);}.aa{fill:url(#i);}.ab{fill:#ba9b19;}.ac{fill:url(#j);}.ad{fill:url(#k);}.ae{fill:url(#l);}.af{fill:url(#m);}.ag{fill:url(#n);}.ah{fill:url(#o);}.aj{letter-spacing:-0.01em;}.ak{letter-spacing:0em;}.al{letter-spacing:0.03em;}.am,.ar{fill:#42210b;}.an,.ao{fill:#603813;}.ao,.ap,.aq,.ar,.aw,.ax,.ay,.az,.bw{opacity:0.5;}.as{opacity:0.4;}.at{fill:#301709;}.au{fill:#512d10;}.av{fill:#56351a;}.aw{fill:#936c4a;}.ax{fill:#775132;}.ay{fill:#472910;}.az{fill:#2b1407;}.ba{letter-spacing:0.01em;}.bb{fill:#2b0720;}.bc{opacity:0.8;}.bd{fill:#990d6e;}.be{fill:#6b0546;}.bf{fill:#870257;}.bg{fill:#9e005d;}.bh{fill:#870c67;}.bi{fill:#4f0237;}.bj{fill:#6b054c;}.bk{fill:#840255;}.bl{letter-spacing:0em;}.bm{letter-spacing:-0.04em;}.bn{letter-spacing:0em;}.bo{fill:#133303;}.bp{fill:#4d6b3f;}.bq{fill:#537744;}.br{fill:#4c6b3e;}.bs{fill:#455e38;}.bt{letter-spacing:0em;}.bu{letter-spacing:-0.03em;}.bv{fill:#0a0909;}.bx{fill:#3d2204;}.by{fill:#4f2b07;}.bz{fill:#211203;}.ca{fill:#331b05;}.cb{letter-spacing:-0.03em;}</style><pattern id="a" width="42.18" height="36.53" patternTransform="translate(181.1 -66.01) scale(0.3)" patternUnits="userSpaceOnUse" viewBox="0 0 42.18 36.53"><rect class="a" width="42.18" height="36.53"/><polygon class="b" points="9.85 33.76 4.21 33.76 1.39 38.56 4.21 43.35 9.85 43.35 12.67 38.56 9.85 33.76"/><polygon class="b" points="37.97 29.7 32.33 29.7 29.51 34.5 32.33 39.29 37.97 39.29 40.79 34.5 37.97 29.7"/><polygon class="b" points="23.91 25.65 18.27 25.65 15.45 30.44 18.27 35.23 23.91 35.23 26.73 30.44 23.91 25.65"/><polygon class="b" points="9.85 21.59 4.21 21.59 1.39 26.38 4.21 31.18 9.85 31.18 12.67 26.38 9.85 21.59"/><polygon class="b" points="37.97 17.53 32.33 17.53 29.51 22.32 32.33 27.12 37.97 27.12 40.79 22.32 37.97 17.53"/><polygon class="b" points="23.91 13.47 18.27 13.47 15.45 18.26 18.27 23.06 23.91 23.06 26.73 18.26 23.91 13.47"/><polygon class="b" points="9.85 9.41 4.21 9.41 1.39 14.21 4.21 19 9.85 19 12.67 14.21 9.85 9.41"/><polygon class="b" points="37.97 5.35 32.33 5.35 29.51 10.15 32.33 14.94 37.97 14.94 40.79 10.15 37.97 5.35"/><polygon class="b" points="23.91 1.29 18.27 1.29 15.45 6.09 18.27 10.88 23.91 10.88 26.73 6.09 23.91 1.29"/><polygon class="b" points="9.85 -2.77 4.21 -2.77 1.39 2.03 4.21 6.82 9.85 6.82 12.67 2.03 9.85 -2.77"/><polygon class="b" points="37.97 -6.82 32.33 -6.82 29.51 -2.03 32.33 2.77 37.97 2.77 40.79 -2.03 37.97 -6.82"/></pattern><pattern id="b" width="42.18" height="36.53" patternTransform="translate(182.25 -73.93) scale(0.3)" patternUnits="userSpaceOnUse" viewBox="0 0 42.18 36.53"><rect class="a" width="42.18" height="36.53"/><polygon class="b" points="9.85 33.76 4.21 33.76 1.39 38.56 4.21 43.35 9.85 43.35 12.67 38.56 9.85 33.76"/><polygon class="b" points="37.97 29.7 32.33 29.7 29.51 34.5 32.33 39.29 37.97 39.29 40.79 34.5 37.97 29.7"/><polygon class="b" points="23.91 25.65 18.27 25.65 15.45 30.44 18.27 35.23 23.91 35.23 26.73 30.44 23.91 25.65"/><polygon class="b" points="9.85 21.59 4.21 21.59 1.39 26.38 4.21 31.18 9.85 31.18 12.67 26.38 9.85 21.59"/><polygon class="b" points="37.97 17.53 32.33 17.53 29.51 22.32 32.33 27.12 37.97 27.12 40.79 22.32 37.97 17.53"/><polygon class="b" points="23.91 13.47 18.27 13.47 15.45 18.26 18.27 23.06 23.91 23.06 26.73 18.26 23.91 13.47"/><polygon class="b" points="9.85 9.41 4.21 9.41 1.39 14.21 4.21 19 9.85 19 12.67 14.21 9.85 9.41"/><polygon class="b" points="37.97 5.35 32.33 5.35 29.51 10.15 32.33 14.94 37.97 14.94 40.79 10.15 37.97 5.35"/><polygon class="b" points="23.91 1.29 18.27 1.29 15.45 6.09 18.27 10.88 23.91 10.88 26.73 6.09 23.91 1.29"/><polygon class="b" points="9.85 -2.77 4.21 -2.77 1.39 2.03 4.21 6.82 9.85 6.82 12.67 2.03 9.85 -2.77"/><polygon class="b" points="37.97 -6.82 32.33 -6.82 29.51 -2.03 32.33 2.77 37.97 2.77 40.79 -2.03 37.97 -6.82"/></pattern><pattern id="c" width="42.18" height="36.53" patternTransform="translate(182.1 -68.96) scale(0.3)" patternUnits="userSpaceOnUse" viewBox="0 0 42.18 36.53"><rect class="a" width="42.18" height="36.53"/><polygon class="b" points="9.85 33.76 4.21 33.76 1.39 38.56 4.21 43.35 9.85 43.35 12.67 38.56 9.85 33.76"/><polygon class="b" points="37.97 29.7 32.33 29.7 29.51 34.5 32.33 39.29 37.97 39.29 40.79 34.5 37.97 29.7"/><polygon class="b" points="23.91 25.65 18.27 25.65 15.45 30.44 18.27 35.23 23.91 35.23 26.73 30.44 23.91 25.65"/><polygon class="b" points="9.85 21.59 4.21 21.59 1.39 26.38 4.21 31.18 9.85 31.18 12.67 26.38 9.85 21.59"/><polygon class="b" points="37.97 17.53 32.33 17.53 29.51 22.32 32.33 27.12 37.97 27.12 40.79 22.32 37.97 17.53"/><polygon class="b" points="23.91 13.47 18.27 13.47 15.45 18.26 18.27 23.06 23.91 23.06 26.73 18.26 23.91 13.47"/><polygon class="b" points="9.85 9.41 4.21 9.41 1.39 14.21 4.21 19 9.85 19 12.67 14.21 9.85 9.41"/><polygon class="b" points="37.97 5.35 32.33 5.35 29.51 10.15 32.33 14.94 37.97 14.94 40.79 10.15 37.97 5.35"/><polygon class="b" points="23.91 1.29 18.27 1.29 15.45 6.09 18.27 10.88 23.91 10.88 26.73 6.09 23.91 1.29"/><polygon class="b" points="9.85 -2.77 4.21 -2.77 1.39 2.03 4.21 6.82 9.85 6.82 12.67 2.03 9.85 -2.77"/><polygon class="b" points="37.97 -6.82 32.33 -6.82 29.51 -2.03 32.33 2.77 37.97 2.77 40.79 -2.03 37.97 -6.82"/></pattern><pattern id="d" width="42.18" height="36.53" patternTransform="translate(183.4 -76.88) scale(0.3)" patternUnits="userSpaceOnUse" viewBox="0 0 42.18 36.53"><rect class="a" width="42.18" height="36.53"/><polygon class="b" points="9.85 33.76 4.21 33.76 1.39 38.56 4.21 43.35 9.85 43.35 12.67 38.56 9.85 33.76"/><polygon class="b" points="37.97 29.7 32.33 29.7 29.51 34.5 32.33 39.29 37.97 39.29 40.79 34.5 37.97 29.7"/><polygon class="b" points="23.91 25.65 18.27 25.65 15.45 30.44 18.27 35.23 23.91 35.23 26.73 30.44 23.91 25.65"/><polygon class="b" points="9.85 21.59 4.21 21.59 1.39 26.38 4.21 31.18 9.85 31.18 12.67 26.38 9.85 21.59"/><polygon class="b" points="37.97 17.53 32.33 17.53 29.51 22.32 32.33 27.12 37.97 27.12 40.79 22.32 37.97 17.53"/><polygon class="b" points="23.91 13.47 18.27 13.47 15.45 18.26 18.27 23.06 23.91 23.06 26.73 18.26 23.91 13.47"/><polygon class="b" points="9.85 9.41 4.21 9.41 1.39 14.21 4.21 19 9.85 19 12.67 14.21 9.85 9.41"/><polygon class="b" points="37.97 5.35 32.33 5.35 29.51 10.15 32.33 14.94 37.97 14.94 40.79 10.15 37.97 5.35"/><polygon class="b" points="23.91 1.29 18.27 1.29 15.45 6.09 18.27 10.88 23.91 10.88 26.73 6.09 23.91 1.29"/><polygon class="b" points="9.85 -2.77 4.21 -2.77 1.39 2.03 4.21 6.82 9.85 6.82 12.67 2.03 9.85 -2.77"/><polygon class="b" points="37.97 -6.82 32.33 -6.82 29.51 -2.03 32.33 2.77 37.97 2.77 40.79 -2.03 37.97 -6.82"/></pattern><pattern id="e" width="42.18" height="36.53" patternTransform="translate(183.4 -70.6) scale(0.3)" patternUnits="userSpaceOnUse" viewBox="0 0 42.18 36.53"><rect class="a" width="42.18" height="36.53"/><polygon class="b" points="9.85 33.76 4.21 33.76 1.39 38.56 4.21 43.35 9.85 43.35 12.67 38.56 9.85 33.76"/><polygon class="b" points="37.97 29.7 32.33 29.7 29.51 34.5 32.33 39.29 37.97 39.29 40.79 34.5 37.97 29.7"/><polygon class="b" points="23.91 25.65 18.27 25.65 15.45 30.44 18.27 35.23 23.91 35.23 26.73 30.44 23.91 25.65"/><polygon class="b" points="9.85 21.59 4.21 21.59 1.39 26.38 4.21 31.18 9.85 31.18 12.67 26.38 9.85 21.59"/><polygon class="b" points="37.97 17.53 32.33 17.53 29.51 22.32 32.33 27.12 37.97 27.12 40.79 22.32 37.97 17.53"/><polygon class="b" points="23.91 13.47 18.27 13.47 15.45 18.26 18.27 23.06 23.91 23.06 26.73 18.26 23.91 13.47"/><polygon class="b" points="9.85 9.41 4.21 9.41 1.39 14.21 4.21 19 9.85 19 12.67 14.21 9.85 9.41"/><polygon class="b" points="37.97 5.35 32.33 5.35 29.51 10.15 32.33 14.94 37.97 14.94 40.79 10.15 37.97 5.35"/><polygon class="b" points="23.91 1.29 18.27 1.29 15.45 6.09 18.27 10.88 23.91 10.88 26.73 6.09 23.91 1.29"/><polygon class="b" points="9.85 -2.77 4.21 -2.77 1.39 2.03 4.21 6.82 9.85 6.82 12.67 2.03 9.85 -2.77"/><polygon class="b" points="37.97 -6.82 32.33 -6.82 29.51 -2.03 32.33 2.77 37.97 2.77 40.79 -2.03 37.97 -6.82"/></pattern><pattern id="f" width="42.18" height="36.53" patternTransform="translate(197.42 -73.55) scale(0.3)" patternUnits="userSpaceOnUse" viewBox="0 0 42.18 36.53"><rect class="a" width="42.18" height="36.53"/><polygon class="b" points="9.85 33.76 4.21 33.76 1.39 38.56 4.21 43.35 9.85 43.35 12.67 38.56 9.85 33.76"/><polygon class="b" points="37.97 29.7 32.33 29.7 29.51 34.5 32.33 39.29 37.97 39.29 40.79 34.5 37.97 29.7"/><polygon class="b" points="23.91 25.65 18.27 25.65 15.45 30.44 18.27 35.23 23.91 35.23 26.73 30.44 23.91 25.65"/><polygon class="b" points="9.85 21.59 4.21 21.59 1.39 26.38 4.21 31.18 9.85 31.18 12.67 26.38 9.85 21.59"/><polygon class="b" points="37.97 17.53 32.33 17.53 29.51 22.32 32.33 27.12 37.97 27.12 40.79 22.32 37.97 17.53"/><polygon class="b" points="23.91 13.47 18.27 13.47 15.45 18.26 18.27 23.06 23.91 23.06 26.73 18.26 23.91 13.47"/><polygon class="b" points="9.85 9.41 4.21 9.41 1.39 14.21 4.21 19 9.85 19 12.67 14.21 9.85 9.41"/><polygon class="b" points="37.97 5.35 32.33 5.35 29.51 10.15 32.33 14.94 37.97 14.94 40.79 10.15 37.97 5.35"/><polygon class="b" points="23.91 1.29 18.27 1.29 15.45 6.09 18.27 10.88 23.91 10.88 26.73 6.09 23.91 1.29"/><polygon class="b" points="9.85 -2.77 4.21 -2.77 1.39 2.03 4.21 6.82 9.85 6.82 12.67 2.03 9.85 -2.77"/><polygon class="b" points="37.97 -6.82 32.33 -6.82 29.51 -2.03 32.33 2.77 37.97 2.77 40.79 -2.03 37.97 -6.82"/></pattern><pattern id="g" width="42.18" height="36.53" patternTransform="translate(197.19 -68.89) scale(0.3)" patternUnits="userSpaceOnUse" viewBox="0 0 42.18 36.53"><rect class="a" width="42.18" height="36.53"/><polygon class="b" points="9.85 33.76 4.21 33.76 1.39 38.56 4.21 43.35 9.85 43.35 12.67 38.56 9.85 33.76"/><polygon class="b" points="37.97 29.7 32.33 29.7 29.51 34.5 32.33 39.29 37.97 39.29 40.79 34.5 37.97 29.7"/><polygon class="b" points="23.91 25.65 18.27 25.65 15.45 30.44 18.27 35.23 23.91 35.23 26.73 30.44 23.91 25.65"/><polygon class="b" points="9.85 21.59 4.21 21.59 1.39 26.38 4.21 31.18 9.85 31.18 12.67 26.38 9.85 21.59"/><polygon class="b" points="37.97 17.53 32.33 17.53 29.51 22.32 32.33 27.12 37.97 27.12 40.79 22.32 37.97 17.53"/><polygon class="b" points="23.91 13.47 18.27 13.47 15.45 18.26 18.27 23.06 23.91 23.06 26.73 18.26 23.91 13.47"/><polygon class="b" points="9.85 9.41 4.21 9.41 1.39 14.21 4.21 19 9.85 19 12.67 14.21 9.85 9.41"/><polygon class="b" points="37.97 5.35 32.33 5.35 29.51 10.15 32.33 14.94 37.97 14.94 40.79 10.15 37.97 5.35"/><polygon class="b" points="23.91 1.29 18.27 1.29 15.45 6.09 18.27 10.88 23.91 10.88 26.73 6.09 23.91 1.29"/><polygon class="b" points="9.85 -2.77 4.21 -2.77 1.39 2.03 4.21 6.82 9.85 6.82 12.67 2.03 9.85 -2.77"/><polygon class="b" points="37.97 -6.82 32.33 -6.82 29.51 -2.03 32.33 2.77 37.97 2.77 40.79 -2.03 37.97 -6.82"/></pattern><pattern id="h" width="42.18" height="36.53" patternTransform="translate(210.91 -65.41) scale(0.3)" patternUnits="userSpaceOnUse" viewBox="0 0 42.18 36.53"><rect class="a" width="42.18" height="36.53"/><polygon class="b" points="9.85 33.76 4.21 33.76 1.39 38.56 4.21 43.35 9.85 43.35 12.67 38.56 9.85 33.76"/><polygon class="b" points="37.97 29.7 32.33 29.7 29.51 34.5 32.33 39.29 37.97 39.29 40.79 34.5 37.97 29.7"/><polygon class="b" points="23.91 25.65 18.27 25.65 15.45 30.44 18.27 35.23 23.91 35.23 26.73 30.44 23.91 25.65"/><polygon class="b" points="9.85 21.59 4.21 21.59 1.39 26.38 4.21 31.18 9.85 31.18 12.67 26.38 9.85 21.59"/><polygon class="b" points="37.97 17.53 32.33 17.53 29.51 22.32 32.33 27.12 37.97 27.12 40.79 22.32 37.97 17.53"/><polygon class="b" points="23.91 13.47 18.27 13.47 15.45 18.26 18.27 23.06 23.91 23.06 26.73 18.26 23.91 13.47"/><polygon class="b" points="9.85 9.41 4.21 9.41 1.39 14.21 4.21 19 9.85 19 12.67 14.21 9.85 9.41"/><polygon class="b" points="37.97 5.35 32.33 5.35 29.51 10.15 32.33 14.94 37.97 14.94 40.79 10.15 37.97 5.35"/><polygon class="b" points="23.91 1.29 18.27 1.29 15.45 6.09 18.27 10.88 23.91 10.88 26.73 6.09 23.91 1.29"/><polygon class="b" points="9.85 -2.77 4.21 -2.77 1.39 2.03 4.21 6.82 9.85 6.82 12.67 2.03 9.85 -2.77"/><polygon class="b" points="37.97 -6.82 32.33 -6.82 29.51 -2.03 32.33 2.77 37.97 2.77 40.79 -2.03 37.97 -6.82"/></pattern><pattern id="i" width="42.18" height="36.53" patternTransform="translate(211.21 -70.08) scale(0.3)" patternUnits="userSpaceOnUse" viewBox="0 0 42.18 36.53"><rect class="a" width="42.18" height="36.53"/><polygon class="b" points="9.85 33.76 4.21 33.76 1.39 38.56 4.21 43.35 9.85 43.35 12.67 38.56 9.85 33.76"/><polygon class="b" points="37.97 29.7 32.33 29.7 29.51 34.5 32.33 39.29 37.97 39.29 40.79 34.5 37.97 29.7"/><polygon class="b" points="23.91 25.65 18.27 25.65 15.45 30.44 18.27 35.23 23.91 35.23 26.73 30.44 23.91 25.65"/><polygon class="b" points="9.85 21.59 4.21 21.59 1.39 26.38 4.21 31.18 9.85 31.18 12.67 26.38 9.85 21.59"/><polygon class="b" points="37.97 17.53 32.33 17.53 29.51 22.32 32.33 27.12 37.97 27.12 40.79 22.32 37.97 17.53"/><polygon class="b" points="23.91 13.47 18.27 13.47 15.45 18.26 18.27 23.06 23.91 23.06 26.73 18.26 23.91 13.47"/><polygon class="b" points="9.85 9.41 4.21 9.41 1.39 14.21 4.21 19 9.85 19 12.67 14.21 9.85 9.41"/><polygon class="b" points="37.97 5.35 32.33 5.35 29.51 10.15 32.33 14.94 37.97 14.94 40.79 10.15 37.97 5.35"/><polygon class="b" points="23.91 1.29 18.27 1.29 15.45 6.09 18.27 10.88 23.91 10.88 26.73 6.09 23.91 1.29"/><polygon class="b" points="9.85 -2.77 4.21 -2.77 1.39 2.03 4.21 6.82 9.85 6.82 12.67 2.03 9.85 -2.77"/><polygon class="b" points="37.97 -6.82 32.33 -6.82 29.51 -2.03 32.33 2.77 37.97 2.77 40.79 -2.03 37.97 -6.82"/></pattern><pattern id="j" width="42.18" height="36.53" patternTransform="translate(234.24 -59.51) scale(0.3)" patternUnits="userSpaceOnUse" viewBox="0 0 42.18 36.53"><rect class="a" width="42.18" height="36.53"/><polygon class="b" points="9.85 33.76 4.21 33.76 1.39 38.56 4.21 43.35 9.85 43.35 12.67 38.56 9.85 33.76"/><polygon class="b" points="37.97 29.7 32.33 29.7 29.51 34.5 32.33 39.29 37.97 39.29 40.79 34.5 37.97 29.7"/><polygon class="b" points="23.91 25.65 18.27 25.65 15.45 30.44 18.27 35.23 23.91 35.23 26.73 30.44 23.91 25.65"/><polygon class="b" points="9.85 21.59 4.21 21.59 1.39 26.38 4.21 31.18 9.85 31.18 12.67 26.38 9.85 21.59"/><polygon class="b" points="37.97 17.53 32.33 17.53 29.51 22.32 32.33 27.12 37.97 27.12 40.79 22.32 37.97 17.53"/><polygon class="b" points="23.91 13.47 18.27 13.47 15.45 18.26 18.27 23.06 23.91 23.06 26.73 18.26 23.91 13.47"/><polygon class="b" points="9.85 9.41 4.21 9.41 1.39 14.21 4.21 19 9.85 19 12.67 14.21 9.85 9.41"/><polygon class="b" points="37.97 5.35 32.33 5.35 29.51 10.15 32.33 14.94 37.97 14.94 40.79 10.15 37.97 5.35"/><polygon class="b" points="23.91 1.29 18.27 1.29 15.45 6.09 18.27 10.88 23.91 10.88 26.73 6.09 23.91 1.29"/><polygon class="b" points="9.85 -2.77 4.21 -2.77 1.39 2.03 4.21 6.82 9.85 6.82 12.67 2.03 9.85 -2.77"/><polygon class="b" points="37.97 -6.82 32.33 -6.82 29.51 -2.03 32.33 2.77 37.97 2.77 40.79 -2.03 37.97 -6.82"/></pattern><pattern id="k" width="42.18" height="36.53" patternTransform="translate(248.19 -57.8) scale(0.3)" patternUnits="userSpaceOnUse" viewBox="0 0 42.18 36.53"><rect class="a" width="42.18" height="36.53"/><polygon class="b" points="9.85 33.76 4.21 33.76 1.39 38.56 4.21 43.35 9.85 43.35 12.67 38.56 9.85 33.76"/><polygon class="b" points="37.97 29.7 32.33 29.7 29.51 34.5 32.33 39.29 37.97 39.29 40.79 34.5 37.97 29.7"/><polygon class="b" points="23.91 25.65 18.27 25.65 15.45 30.44 18.27 35.23 23.91 35.23 26.73 30.44 23.91 25.65"/><polygon class="b" points="9.85 21.59 4.21 21.59 1.39 26.38 4.21 31.18 9.85 31.18 12.67 26.38 9.85 21.59"/><polygon class="b" points="37.97 17.53 32.33 17.53 29.51 22.32 32.33 27.12 37.97 27.12 40.79 22.32 37.97 17.53"/><polygon class="b" points="23.91 13.47 18.27 13.47 15.45 18.26 18.27 23.06 23.91 23.06 26.73 18.26 23.91 13.47"/><polygon class="b" points="9.85 9.41 4.21 9.41 1.39 14.21 4.21 19 9.85 19 12.67 14.21 9.85 9.41"/><polygon class="b" points="37.97 5.35 32.33 5.35 29.51 10.15 32.33 14.94 37.97 14.94 40.79 10.15 37.97 5.35"/><polygon class="b" points="23.91 1.29 18.27 1.29 15.45 6.09 18.27 10.88 23.91 10.88 26.73 6.09 23.91 1.29"/><polygon class="b" points="9.85 -2.77 4.21 -2.77 1.39 2.03 4.21 6.82 9.85 6.82 12.67 2.03 9.85 -2.77"/><polygon class="b" points="37.97 -6.82 32.33 -6.82 29.51 -2.03 32.33 2.77 37.97 2.77 40.79 -2.03 37.97 -6.82"/></pattern><pattern id="l" width="42.18" height="36.53" patternTransform="translate(261.9 -54.32) scale(0.3)" patternUnits="userSpaceOnUse" viewBox="0 0 42.18 36.53"><rect class="a" width="42.18" height="36.53"/><polygon class="b" points="9.85 33.76 4.21 33.76 1.39 38.56 4.21 43.35 9.85 43.35 12.67 38.56 9.85 33.76"/><polygon class="b" points="37.97 29.7 32.33 29.7 29.51 34.5 32.33 39.29 37.97 39.29 40.79 34.5 37.97 29.7"/><polygon class="b" points="23.91 25.65 18.27 25.65 15.45 30.44 18.27 35.23 23.91 35.23 26.73 30.44 23.91 25.65"/><polygon class="b" points="9.85 21.59 4.21 21.59 1.39 26.38 4.21 31.18 9.85 31.18 12.67 26.38 9.85 21.59"/><polygon class="b" points="37.97 17.53 32.33 17.53 29.51 22.32 32.33 27.12 37.97 27.12 40.79 22.32 37.97 17.53"/><polygon class="b" points="23.91 13.47 18.27 13.47 15.45 18.26 18.27 23.06 23.91 23.06 26.73 18.26 23.91 13.47"/><polygon class="b" points="9.85 9.41 4.21 9.41 1.39 14.21 4.21 19 9.85 19 12.67 14.21 9.85 9.41"/><polygon class="b" points="37.97 5.35 32.33 5.35 29.51 10.15 32.33 14.94 37.97 14.94 40.79 10.15 37.97 5.35"/><polygon class="b" points="23.91 1.29 18.27 1.29 15.45 6.09 18.27 10.88 23.91 10.88 26.73 6.09 23.91 1.29"/><polygon class="b" points="9.85 -2.77 4.21 -2.77 1.39 2.03 4.21 6.82 9.85 6.82 12.67 2.03 9.85 -2.77"/><polygon class="b" points="37.97 -6.82 32.33 -6.82 29.51 -2.03 32.33 2.77 37.97 2.77 40.79 -2.03 37.97 -6.82"/></pattern><pattern id="m" width="42.18" height="36.53" patternTransform="translate(262.05 -58.99) scale(0.3)" patternUnits="userSpaceOnUse" viewBox="0 0 42.18 36.53"><rect class="a" width="42.18" height="36.53"/><polygon class="b" points="9.85 33.76 4.21 33.76 1.39 38.56 4.21 43.35 9.85 43.35 12.67 38.56 9.85 33.76"/><polygon class="b" points="37.97 29.7 32.33 29.7 29.51 34.5 32.33 39.29 37.97 39.29 40.79 34.5 37.97 29.7"/><polygon class="b" points="23.91 25.65 18.27 25.65 15.45 30.44 18.27 35.23 23.91 35.23 26.73 30.44 23.91 25.65"/><polygon class="b" points="9.85 21.59 4.21 21.59 1.39 26.38 4.21 31.18 9.85 31.18 12.67 26.38 9.85 21.59"/><polygon class="b" points="37.97 17.53 32.33 17.53 29.51 22.32 32.33 27.12 37.97 27.12 40.79 22.32 37.97 17.53"/><polygon class="b" points="23.91 13.47 18.27 13.47 15.45 18.26 18.27 23.06 23.91 23.06 26.73 18.26 23.91 13.47"/><polygon class="b" points="9.85 9.41 4.21 9.41 1.39 14.21 4.21 19 9.85 19 12.67 14.21 9.85 9.41"/><polygon class="b" points="37.97 5.35 32.33 5.35 29.51 10.15 32.33 14.94 37.97 14.94 40.79 10.15 37.97 5.35"/><polygon class="b" points="23.91 1.29 18.27 1.29 15.45 6.09 18.27 10.88 23.91 10.88 26.73 6.09 23.91 1.29"/><polygon class="b" points="9.85 -2.77 4.21 -2.77 1.39 2.03 4.21 6.82 9.85 6.82 12.67 2.03 9.85 -2.77"/><polygon class="b" points="37.97 -6.82 32.33 -6.82 29.51 -2.03 32.33 2.77 37.97 2.77 40.79 -2.03 37.97 -6.82"/></pattern><pattern id="n" width="42.18" height="36.53" patternTransform="translate(234.16 -43.76) scale(0.3)" patternUnits="userSpaceOnUse" viewBox="0 0 42.18 36.53"><rect class="a" width="42.18" height="36.53"/><polygon class="b" points="9.85 33.76 4.21 33.76 1.39 38.56 4.21 43.35 9.85 43.35 12.67 38.56 9.85 33.76"/><polygon class="b" points="37.97 29.7 32.33 29.7 29.51 34.5 32.33 39.29 37.97 39.29 40.79 34.5 37.97 29.7"/><polygon class="b" points="23.91 25.65 18.27 25.65 15.45 30.44 18.27 35.23 23.91 35.23 26.73 30.44 23.91 25.65"/><polygon class="b" points="9.85 21.59 4.21 21.59 1.39 26.38 4.21 31.18 9.85 31.18 12.67 26.38 9.85 21.59"/><polygon class="b" points="37.97 17.53 32.33 17.53 29.51 22.32 32.33 27.12 37.97 27.12 40.79 22.32 37.97 17.53"/><polygon class="b" points="23.91 13.47 18.27 13.47 15.45 18.26 18.27 23.06 23.91 23.06 26.73 18.26 23.91 13.47"/><polygon class="b" points="9.85 9.41 4.21 9.41 1.39 14.21 4.21 19 9.85 19 12.67 14.21 9.85 9.41"/><polygon class="b" points="37.97 5.35 32.33 5.35 29.51 10.15 32.33 14.94 37.97 14.94 40.79 10.15 37.97 5.35"/><polygon class="b" points="23.91 1.29 18.27 1.29 15.45 6.09 18.27 10.88 23.91 10.88 26.73 6.09 23.91 1.29"/><polygon class="b" points="9.85 -2.77 4.21 -2.77 1.39 2.03 4.21 6.82 9.85 6.82 12.67 2.03 9.85 -2.77"/><polygon class="b" points="37.97 -6.82 32.33 -6.82 29.51 -2.03 32.33 2.77 37.97 2.77 40.79 -2.03 37.97 -6.82"/></pattern><pattern id="o" width="42.18" height="36.53" patternTransform="translate(273.91 -51.49) scale(0.3)" patternUnits="userSpaceOnUse" viewBox="0 0 42.18 36.53"><rect class="a" width="42.18" height="36.53"/><polygon class="b" points="9.85 33.76 4.21 33.76 1.39 38.56 4.21 43.35 9.85 43.35 12.67 38.56 9.85 33.76"/><polygon class="b" points="37.97 29.7 32.33 29.7 29.51 34.5 32.33 39.29 37.97 39.29 40.79 34.5 37.97 29.7"/><polygon class="b" points="23.91 25.65 18.27 25.65 15.45 30.44 18.27 35.23 23.91 35.23 26.73 30.44 23.91 25.65"/><polygon class="b" points="9.85 21.59 4.21 21.59 1.39 26.38 4.21 31.18 9.85 31.18 12.67 26.38 9.85 21.59"/><polygon class="b" points="37.97 17.53 32.33 17.53 29.51 22.32 32.33 27.12 37.97 27.12 40.79 22.32 37.97 17.53"/><polygon class="b" points="23.91 13.47 18.27 13.47 15.45 18.26 18.27 23.06 23.91 23.06 26.73 18.26 23.91 13.47"/><polygon class="b" points="9.85 9.41 4.21 9.41 1.39 14.21 4.21 19 9.85 19 12.67 14.21 9.85 9.41"/><polygon class="b" points="37.97 5.35 32.33 5.35 29.51 10.15 32.33 14.94 37.97 14.94 40.79 10.15 37.97 5.35"/><polygon class="b" points="23.91 1.29 18.27 1.29 15.45 6.09 18.27 10.88 23.91 10.88 26.73 6.09 23.91 1.29"/><polygon class="b" points="9.85 -2.77 4.21 -2.77 1.39 2.03 4.21 6.82 9.85 6.82 12.67 2.03 9.85 -2.77"/><polygon class="b" points="37.97 -6.82 32.33 -6.82 29.51 -2.03 32.33 2.77 37.97 2.77 40.79 -2.03 37.97 -6.82"/></pattern></defs><title>ttutanimfood</title><rect class="c" x="233.33" y="-220.01" width="93.54" height="547.47" transform="translate(327.46 -233.33) rotate(90)"/><path class="d" d="M203.65,19.3s13.92-2.37,16.71,5.71c3.2,4.32,2.09,5.57,2.09,5.57L217,28.63A14.12,14.12,0,0,1,203.65,19.3Z" transform="translate(-6.37 -6.95)"/><path class="d" d="M261.21,19.86s-13.92-2.37-16.71,5.71c-3.2,4.32-2.09,5.57-2.09,5.57l5.43-1.95A14.12,14.12,0,0,0,261.21,19.86Z" transform="translate(-6.37 -6.95)"/><path class="d" d="M232.62,19.44s-14.2.42-17.82,16c-.7,3.48-2.23,8.49-1.25,14.06-1.81,2.09-10.86,13.37,1,20.33s30.21,7.8,38.29-1.39,1.53-16.43-1.25-18.52a35.08,35.08,0,0,0-.7-13.92C248.91,29,241.53,19.58,232.62,19.44Z" transform="translate(-6.37 -6.95)"/><path class="d" d="M243.34,51.33c0,3-3.76,5.57-10,5.57S222,54.5,222,51.54s4.38-6.06,10.65-6.06S243.34,48.37,243.34,51.33Z" transform="translate(-6.37 -6.95)"/><ellipse class="d" cx="219.14" cy="28.78" rx="2.23" ry="4.46"/><ellipse class="d" cx="233.49" cy="28.78" rx="2.23" ry="4.46"/><ellipse class="d" cx="221.93" cy="42.84" rx="3.9" ry="1.95"/><ellipse class="d" cx="233.83" cy="29.89" rx="1.46" ry="2.92"/><ellipse class="d" cx="219.41" cy="29.89" rx="1.46" ry="2.92"/><ellipse class="d" cx="219.69" cy="31.01" rx="0.91" ry="1.81"/><ellipse class="d" cx="234.03" cy="31.01" rx="0.91" ry="1.81"/><path class="d" d="M261.1,19.86s-13.92-2.37-16.71,5.71c-3.2,4.32-2.09,5.57-2.09,5.57l5.43-1.95A14.12,14.12,0,0,0,261.1,19.86Z" transform="translate(-6.37 -6.95)"/><path class="d" d="M234.77,75.21c7.16,0,13.85-2.12,17.93-6.75,8.08-9.19,1.53-16.43-1.25-18.52a35.08,35.08,0,0,0-.7-13.92c-1.95-7-9.33-16.43-18.24-16.57" transform="translate(-6.37 -6.95)"/><path class="d" d="M233.62,45.36c5.73.29,9.71,3,9.71,5.82s-3.47,5.36-9.29,5.56" transform="translate(-6.37 -6.95)"/><ellipse class="d" cx="233.38" cy="28.78" rx="2.23" ry="4.46"/><ellipse class="d" cx="233.73" cy="29.89" rx="1.46" ry="2.92"/><ellipse class="d" cx="233.93" cy="31.01" rx="0.91" ry="1.81"/><path class="e" d="M202.44,19.3s13.92-2.37,16.71,5.71c3.2,4.32,2.09,5.57,2.09,5.57l-5.43-1.95A14.12,14.12,0,0,1,202.44,19.3Z" transform="translate(-6.37 -6.95)"/><path class="e" d="M260,19.86s-13.92-2.37-16.71,5.71c-3.2,4.32-2.09,5.57-2.09,5.57l5.43-1.95A14.12,14.12,0,0,0,260,19.86Z" transform="translate(-6.37 -6.95)"/><path class="f" d="M231.4,19.44s-14.2.42-17.82,16c-.7,3.48-2.23,8.49-1.25,14.06-1.81,2.09-10.86,13.37,1,20.33s30.21,7.8,38.29-1.39,1.53-16.43-1.25-18.52a35.08,35.08,0,0,0-.7-13.92C247.69,29,240.32,19.58,231.4,19.44Z" transform="translate(-6.37 -6.95)"/><path class="g" d="M242.13,51.33c0,3-3.76,5.57-10,5.57s-11.35-2.4-11.35-5.36,4.38-6.06,10.65-6.06S242.13,48.37,242.13,51.33Z" transform="translate(-6.37 -6.95)"/><ellipse class="h" cx="217.93" cy="28.78" rx="2.23" ry="4.46"/><ellipse class="h" cx="232.27" cy="28.78" rx="2.23" ry="4.46"/><ellipse class="i" cx="220.72" cy="42.84" rx="3.9" ry="1.95"/><ellipse class="j" cx="232.62" cy="29.89" rx="1.46" ry="2.92"/><ellipse class="j" cx="218.2" cy="29.89" rx="1.46" ry="2.92"/><ellipse cx="218.48" cy="31.01" rx="0.91" ry="1.81"/><ellipse cx="232.82" cy="31.01" rx="0.91" ry="1.81"/><path class="k" d="M259.89,19.86S246,17.49,243.18,25.57c-3.2,4.32-2.09,5.57-2.09,5.57l5.43-1.95A14.12,14.12,0,0,0,259.89,19.86Z" transform="translate(-6.37 -6.95)"/><path class="e" d="M233.56,75.21c7.16,0,13.85-2.12,17.93-6.75,8.08-9.19,1.53-16.43-1.25-18.52a35.08,35.08,0,0,0-.7-13.92c-1.95-7-9.33-16.43-18.24-16.57" transform="translate(-6.37 -6.95)"/><path class="k" d="M232.41,45.36c5.73.29,9.71,3,9.71,5.82s-3.47,5.36-9.29,5.56" transform="translate(-6.37 -6.95)"/><ellipse class="h" cx="232.17" cy="28.78" rx="2.23" ry="4.46"/><ellipse class="l" cx="232.52" cy="29.89" rx="1.46" ry="2.92"/><ellipse cx="232.71" cy="31.01" rx="0.91" ry="1.81"/><text class="m" transform="translate(211.85 79.68)">T<tspan class="n" x="6.79" y="0">iger</tspan></text><polygon class="o" points="295.35 36.55 286.88 36.55 282.64 43.89 286.88 51.22 295.35 51.22 299.59 43.89 295.35 36.55"/><polygon class="p" points="295.35 36.58 286.88 36.58 282.64 43.91 286.88 51.25 295.35 51.25 299.59 43.91 295.35 36.58"/><polygon class="o" points="309.22 28.64 300.75 28.64 296.51 35.97 300.75 43.31 309.22 43.31 313.45 35.97 309.22 28.64"/><polygon class="p" points="309.22 28.66 300.75 28.66 296.51 36 300.75 43.33 309.22 43.33 313.45 36 309.22 28.66"/><polygon class="o" points="309.07 44.62 300.6 44.62 296.36 51.95 300.6 59.29 309.07 59.29 313.3 51.95 309.07 44.62"/><polygon class="p" points="309.07 44.64 300.6 44.64 296.36 51.98 300.6 59.31 309.07 59.31 313.3 51.98 309.07 44.64"/><polygon class="o" points="323.09 36.7 314.62 36.7 310.38 44.04 314.62 51.37 323.09 51.37 327.32 44.04 323.09 36.7"/><polygon class="p" points="323.09 36.73 314.62 36.73 310.38 44.06 314.62 51.4 323.09 51.4 327.32 44.06 323.09 36.73"/><polygon class="o" points="323.09 20.95 314.62 20.95 310.38 28.29 314.62 35.62 323.09 35.62 327.32 28.29 323.09 20.95"/><polygon class="p" points="323.09 20.97 314.62 20.97 310.38 28.31 314.62 35.65 323.09 35.65 327.32 28.31 323.09 20.97"/><polygon class="o" points="337.11 29.01 328.63 29.01 324.4 36.35 328.63 43.69 337.11 43.69 341.34 36.35 337.11 29.01"/><polygon class="p" points="337.11 29.04 328.63 29.04 324.4 36.37 328.63 43.71 337.11 43.71 341.34 36.37 337.11 29.04"/><polygon class="o" points="336.88 44.69 328.41 44.69 324.17 52.03 328.41 59.36 336.88 59.36 341.12 52.03 336.88 44.69"/><polygon class="p" points="336.88 44.72 328.41 44.72 324.17 52.05 328.41 59.39 336.88 59.39 341.12 52.05 336.88 44.72"/><polygon class="o" points="350.6 37.15 342.13 37.15 337.89 44.49 342.13 51.83 350.6 51.83 354.83 44.49 350.6 37.15"/><polygon class="p" points="350.6 37.18 342.13 37.18 337.89 44.52 342.13 51.85 350.6 51.85 354.83 44.52 350.6 37.18"/><polygon class="o" points="350.9 21.48 342.43 21.48 338.19 28.81 342.43 36.15 350.9 36.15 355.13 28.81 350.9 21.48"/><polygon class="p" points="350.9 21.5 342.43 21.5 338.19 28.84 342.43 36.17 350.9 36.17 355.13 28.84 350.9 21.5"/><g class="q"><polyline class="o" points="318.72 35.76 323.21 35.7 327.45 28.36 323.21 21.02 318.63 21.02"/><polyline class="p" points="319.11 35.72 323.06 35.72 327.3 28.39 323.06 21.05 318.49 21.05"/><polygon class="o" points="337.23 29.09 328.76 29.09 324.53 36.43 328.76 43.76 337.23 43.76 341.47 36.43 337.23 29.09"/><polygon class="o" points="337.01 44.77 328.54 44.77 324.3 52.1 328.54 59.44 337.01 59.44 341.24 52.1 337.01 44.77"/><polygon class="p" points="337.01 44.79 328.54 44.79 324.3 52.13 328.54 59.47 337.01 59.47 341.24 52.13 337.01 44.79"/><polygon class="o" points="350.73 37.23 342.25 37.23 338.02 44.57 342.25 51.9 350.73 51.9 354.96 44.57 350.73 37.23"/><polygon class="p" points="350.73 37.26 342.25 37.26 338.02 44.59 342.25 51.93 350.73 51.93 354.96 44.59 350.73 37.26"/><polygon class="o" points="351.03 21.55 342.56 21.55 338.32 28.89 342.56 36.23 351.03 36.23 355.26 28.89 351.03 21.55"/><polygon class="p" points="350.87 21.58 342.4 21.58 338.17 28.91 342.4 36.25 350.87 36.25 355.11 28.91 350.87 21.58"/><polyline class="o" points="318.94 51.45 323.14 51.45 327.37 44.12 323.14 36.78 318.56 36.78"/><polyline class="p" points="319.03 51.48 322.99 51.48 327.22 44.14 322.99 36.8 318.42 36.8"/><polygon class="p" points="337.3 29.07 328.83 29.07 324.59 36.41 328.83 43.74 337.3 43.74 341.53 36.41 337.3 29.07"/></g><polygon class="r" points="294.54 36.55 286.07 36.55 281.83 43.89 286.07 51.22 294.54 51.22 298.78 43.89 294.54 36.55"/><polygon class="s" points="294.54 36.58 286.07 36.58 281.83 43.91 286.07 51.25 294.54 51.25 298.78 43.91 294.54 36.58"/><polygon class="r" points="308.41 28.64 299.94 28.64 295.7 35.97 299.94 43.31 308.41 43.31 312.65 35.97 308.41 28.64"/><polygon class="t" points="308.41 28.66 299.94 28.66 295.7 36 299.94 43.33 308.41 43.33 312.65 36 308.41 28.66"/><polygon class="r" points="308.26 44.62 299.79 44.62 295.55 51.95 299.79 59.29 308.26 59.29 312.5 51.95 308.26 44.62"/><polygon class="u" points="308.26 44.64 299.79 44.64 295.55 51.98 299.79 59.31 308.26 59.31 312.5 51.98 308.26 44.64"/><polygon class="r" points="322.28 36.7 313.81 36.7 309.57 44.04 313.81 51.37 322.28 51.37 326.51 44.04 322.28 36.7"/><polygon class="v" points="322.28 36.73 313.81 36.73 309.57 44.06 313.81 51.4 322.28 51.4 326.51 44.06 322.28 36.73"/><polygon class="r" points="322.28 20.95 313.81 20.95 309.57 28.29 313.81 35.62 322.28 35.62 326.51 28.29 322.28 20.95"/><polygon class="w" points="322.28 20.97 313.81 20.97 309.57 28.31 313.81 35.65 322.28 35.65 326.51 28.31 322.28 20.97"/><polygon class="r" points="336.3 29.01 327.83 29.01 323.59 36.35 327.83 43.69 336.3 43.69 340.53 36.35 336.3 29.01"/><polygon class="x" points="336.3 29.04 327.83 29.04 323.59 36.37 327.83 43.71 336.3 43.71 340.53 36.37 336.3 29.04"/><polygon class="r" points="336.07 44.69 327.6 44.69 323.37 52.03 327.6 59.36 336.07 59.36 340.31 52.03 336.07 44.69"/><polygon class="y" points="336.07 44.72 327.6 44.72 323.37 52.05 327.6 59.39 336.07 59.39 340.31 52.05 336.07 44.72"/><polygon class="r" points="349.79 37.15 341.32 37.15 337.08 44.49 341.32 51.83 349.79 51.83 354.03 44.49 349.79 37.15"/><polygon class="z" points="349.79 37.18 341.32 37.18 337.08 44.52 341.32 51.85 349.79 51.85 354.03 44.52 349.79 37.18"/><polygon class="r" points="350.09 21.48 341.62 21.48 337.38 28.81 341.62 36.15 350.09 36.15 354.33 28.81 350.09 21.48"/><polygon class="aa" points="350.09 21.5 341.62 21.5 337.38 28.84 341.62 36.17 350.09 36.17 354.33 28.84 350.09 21.5"/><g class="q"><polyline class="ab" points="317.92 35.76 322.41 35.7 326.64 28.36 322.41 21.02 317.83 21.02"/><polyline class="ac" points="318.3 35.72 322.25 35.72 326.49 28.39 322.25 21.05 317.69 21.05"/><polygon class="ab" points="336.43 29.09 327.95 29.09 323.72 36.43 327.95 43.76 336.43 43.76 340.66 36.43 336.43 29.09"/><polygon class="ab" points="336.2 44.77 327.73 44.77 323.49 52.1 327.73 59.44 336.2 59.44 340.44 52.1 336.2 44.77"/><polygon class="ad" points="336.2 44.79 327.73 44.79 323.49 52.13 327.73 59.47 336.2 59.47 340.44 52.13 336.2 44.79"/><polygon class="ab" points="349.92 37.23 341.45 37.23 337.21 44.57 341.45 51.9 349.92 51.9 354.15 44.57 349.92 37.23"/><polygon class="ae" points="349.92 37.26 341.45 37.26 337.21 44.59 341.45 51.93 349.92 51.93 354.15 44.59 349.92 37.26"/><polygon class="ab" points="350.22 21.55 341.75 21.55 337.51 28.89 341.75 36.23 350.22 36.23 354.45 28.89 350.22 21.55"/><polygon class="af" points="350.07 21.58 341.6 21.58 337.36 28.91 341.6 36.25 350.07 36.25 354.3 28.91 350.07 21.58"/><polyline class="ab" points="318.13 51.45 322.33 51.45 326.57 44.12 322.33 36.78 317.75 36.78"/><polyline class="ag" points="318.22 51.48 322.18 51.48 326.41 44.14 322.18 36.8 317.61 36.8"/><polygon class="ah" points="336.49 29.07 328.02 29.07 323.78 36.41 328.02 43.74 336.49 43.74 340.73 36.41 336.49 29.07"/></g><text class="ai" transform="translate(293.91 79.68)">But<tspan class="aj" x="19.94" y="0">t</tspan><tspan class="ak" x="24.49" y="0">e</tspan><tspan class="al" x="31.5" y="0">r</tspan><tspan x="36.5" y="0">fly </tspan></text><path class="am" d="M120.82,23.08s-1.93,0-1.93,3,3.36,19.57,1.18,21-4.2,4.2-1.34,6.38.67,6.72,1,8.91-2.44,3.44.92,5.38,34.11-1.6,35.37-.92S158.2,59.29,158,59a4.34,4.34,0,0,1,1.51-3.86c1.43-.92-1.18-10.75-1.18-12.18s-.5-12.43-1.09-13.19-1.85-1.68-1.26-1.85.59-5,.08-5.54-2-5.46-2.1-6.13-2.27.59-2.6.59-1.34-.84-2.1-.08-2.6,1.68-3.11,1.26-.25-.67-.76-1.26-3.78-1-4.62-.84a24.6,24.6,0,0,0-4.45,1c-.67.42-1.26,2.1-1.6,1.34s.84-1.18-1.6-1.6-3.95-1.26-2.86.42-1.34-.17-1.6.25-1.51,1.18-1.43,2.1-1.26-.17-2.1-.17-1.85.84-1.85,1.43-.84.5-1.34.84S122.5,23.08,120.82,23.08Z" transform="translate(-6.37 -6.95)"/><path class="an" d="M121.08,23.62s-1.93,0-1.93,3,3.36,19.57,1.18,21-4.2,4.2-1.34,6.38.67,6.72,1,8.91-2.44,3.44.92,5.38,34.11-1.6,35.37-.92,2.18-7.56,1.93-7.9a4.34,4.34,0,0,1,1.51-3.86c1.43-.92-1.18-10.75-1.18-12.18S158,31,157.46,30.26s-1.85-1.68-1.26-1.85.59-5,.08-5.54-2-5.46-2.1-6.13-2.27.59-2.6.59-1.34-.84-2.1-.08-2.6,1.68-3.11,1.26-.25-.67-.76-1.26-3.78-1-4.62-.84a24.6,24.6,0,0,0-4.45,1c-.67.42-1.26,2.1-1.6,1.34s.84-1.18-1.6-1.6-3.95-1.26-2.86.42-1.34-.17-1.6.25-1.51,1.18-1.43,2.1-1.26-.17-2.1-.17-1.85.84-1.85,1.43-.84.5-1.34.84S122.76,23.62,121.08,23.62Z" transform="translate(-6.37 -6.95)"/><path class="k" d="M120.82,24.15s-1.93,0-1.93,3,3.36,19.57,1.18,21-4.2,4.2-1.34,6.38.67,6.72,1,8.91-2.44,3.44.92,5.38,34.11-1.6,35.37-.92S158.2,60.36,158,60a4.34,4.34,0,0,1,1.51-3.86c1.43-.92-1.18-10.75-1.18-12.18s-.5-12.43-1.09-13.19-1.85-1.68-1.26-1.85.59-5,.08-5.54-2-5.46-2.1-6.13-2.27.59-2.6.59-1.34-.84-2.1-.08-2.6,1.68-3.11,1.26-.25-.67-.76-1.26-3.78-1-4.62-.84a24.6,24.6,0,0,0-4.45,1c-.67.42-1.26,2.1-1.6,1.34s.84-1.18-1.6-1.6-3.95-1.26-2.86.42-1.34-.17-1.6.25-1.51,1.18-1.43,2.1-1.26-.17-2.1-.17-1.85.84-1.85,1.43-.84.5-1.34.84S122.5,24.15,120.82,24.15Z" transform="translate(-6.37 -6.95)"/><path class="ao" d="M128.71,40.12s-2,1.51-.17,5-1.18,8.49-.84,10.42,1,4.79,1,4.79,3.7,4.28,3.28,2.1-1.26-4.45-.25-6.55,2.52-4.37,1.68-8.74S132.24,40.12,128.71,40.12Z" transform="translate(-6.37 -6.95)"/><path class="ap" d="M134.59,24.41s1.93,6.47,1.68,8.4a26.26,26.26,0,0,1-1.43,4.87s5.12-4,3.95-7.06S137.2,24.57,134.59,24.41Z" transform="translate(-6.37 -6.95)"/><path class="aq" d="M147.87,27.85s1,5.8,1.76,8.74,0,2.69.5,4.79,2.18.5,2.27-2.52,2.1-1,2.27-3.36,1-3.61-.42-3.86-1.68.08-2.27-2-.17-2.1-1.26-2.69-1.51-1.43-1.85-.59S148.54,28.61,147.87,27.85Z" transform="translate(-6.37 -6.95)"/><path class="ao" d="M140.31,49.11s2.86.92,2.35,2.52-.67,1.68-.67,2.52-.25,3.28.5,2.35,1.43-1,1.68-2.52.84-2.18,1.09-2,.34,2.44.59,3-1.18,3-1.18,3.28-1.18,2.52-.84,2.77a1.55,1.55,0,0,0,2-1.34c0-1.34,0-3.78.42-4.45s.92.17,1-2.18,1.68-2.69,1.51-3.7-1.85-4.12-2-4.79.42-2.1-.59-3.19-.25-.76-2.35-2.44-2.27-5.46-2.52-1.85,2.1,8.4,2.1,8.74S140.31,49.11,140.31,49.11Z" transform="translate(-6.37 -6.95)"/><path class="aq" d="M128.15,42.24s-2.89.51-2.38,3.06-3.23,5.78-3.23,6.29.34,5.95.34,5.95-.68,1,.51-1.87a22.44,22.44,0,0,1,3.23-5.27c.34-.51-.34-2.89,1-4.93S128.15,42.24,128.15,42.24Z" transform="translate(-6.37 -6.95)"/><path class="ar" d="M120.65,37.93s1,1.09,2.1.67,1.6,1.18,1.6,1.68-1.43,2.1-1.43,2.1l-1.76.08A27.37,27.37,0,0,1,120.65,37.93Z" transform="translate(-6.37 -6.95)"/><path class="aq" d="M126.53,21.21s-1.09-.42-.67,2.86a15.34,15.34,0,0,1-.25,6.47c-.34.84-1.26,2.44-1.26,3.44s1.43,4.54,1.51,1.93.17-3,.25-4.2a15.54,15.54,0,0,1,1.18-4C127.79,26.42,128.71,18.69,126.53,21.21Z" transform="translate(-6.37 -6.95)"/><path class="ao" d="M144.76,18.95a26.15,26.15,0,0,0,.92,3.36,6.63,6.63,0,0,1,.76,3.19c0,1.51,1,1.18,1.26.34s1.43-1.93.42-2.18-1.26,0-1.26-1,.42-1.85-.17-2.1-1-.17-1-.59S145.6,17.43,144.76,18.95Z" transform="translate(-6.37 -6.95)"/><path class="a" d="M149.46,48.27a2.68,2.68,0,0,0-1,2.86c.59,1.68-1,4,.59,2.52s1.18-1.18.84-3S149.8,48.27,149.46,48.27Z" transform="translate(-6.37 -6.95)"/><path class="ar" d="M155.35,57.17a4.74,4.74,0,0,1,.5,1.68c0,.42-.5,3,.42,2.18a2.22,2.22,0,0,0,.92-2.27c0-1.18-1.76-2.77-1.93-1.93Z" transform="translate(-6.37 -6.95)"/><path class="aq" d="M134.26,64.9c2-.25,3.19-.59,3.44-.34s1.93,1.18.59,1.18-1.85.92-3.11,1.09-4.37.92-3.61,0A11.08,11.08,0,0,1,134.26,64.9Z" transform="translate(-6.37 -6.95)"/><g class="as"><path class="at" d="M158.25,42.9c0-1.43-.5-12.43-1.09-13.19s-1.85-1.68-1.26-1.85.59-5,.08-5.54-2-5.46-2.1-6.13-2.27.59-2.6.59-1.34-.84-2.1-.08-2.6,1.68-3.11,1.26-.25-.67-.76-1.26-3.78-1-4.62-.84c-.58.12-2.14.35-3.28.62a355.55,355.55,0,0,0,1,51.36c8.5-.56,16.93-1.33,17.58-1,1.26.67,2.18-7.56,1.93-7.9a4.34,4.34,0,0,1,1.51-3.86C160.86,54.16,158.25,44.33,158.25,42.9Z" transform="translate(-6.37 -6.95)"/><path class="au" d="M158.52,43.44c0-1.43-.5-12.43-1.09-13.19s-1.85-1.68-1.26-1.85.59-5,.08-5.54-2-5.46-2.1-6.13-2.27.59-2.6.59-1.34-.84-2.1-.08-2.6,1.68-3.11,1.26-.25-.67-.76-1.26-3.78-1-4.62-.84c-.63.13-2.43.39-3.58.69a353.21,353.21,0,0,0,1.08,51.3c8.57-.56,17.13-1.34,17.79-1,1.26.67,2.18-7.56,1.93-7.9a4.34,4.34,0,0,1,1.51-3.86C161.12,54.69,158.52,44.86,158.52,43.44Z" transform="translate(-6.37 -6.95)"/><path class="av" d="M158.25,44c0-1.43-.5-12.43-1.09-13.19s-1.85-1.68-1.26-1.85.59-5,.08-5.54-2-5.46-2.1-6.13-2.27.59-2.6.59-1.34-.84-2.1-.08-2.6,1.68-3.11,1.26-.25-.67-.76-1.26-3.78-1-4.62-.84c-.58.12-2.19.36-3.33.63a351.24,351.24,0,0,0,1.16,51.34c8.46-.56,16.82-1.32,17.47-1,1.26.67,2.18-7.56,1.93-7.9a4.34,4.34,0,0,1,1.51-3.86C160.86,55.23,158.25,45.4,158.25,44Z" transform="translate(-6.37 -6.95)"/><path class="aw" d="M138.76,30.61a42.07,42.07,0,0,0-1.7-4.43q-.12,4.71-.12,9.44C138.18,34.19,139.4,32.25,138.76,30.61Z" transform="translate(-6.37 -6.95)"/><path class="ax" d="M147.83,27.84s1,5.8,1.76,8.74,0,2.69.5,4.79,2.18.5,2.27-2.52,2.1-1,2.27-3.36,1-3.61-.42-3.86-1.68.08-2.27-2-.17-2.1-1.26-2.69-1.51-1.43-1.85-.59S148.51,28.6,147.83,27.84Z" transform="translate(-6.37 -6.95)"/><path class="ay" d="M140.27,49.1s2.86.92,2.35,2.52S142,53.3,142,54.14s-.25,3.28.5,2.35,1.43-1,1.68-2.52.84-2.18,1.09-2,.34,2.44.59,3-1.18,3-1.18,3.28-1.18,2.52-.84,2.77a1.55,1.55,0,0,0,2-1.34c0-1.34,0-3.78.42-4.45s.92.17,1-2.18,1.68-2.69,1.51-3.7-1.85-4.12-2-4.79.42-2.1-.59-3.19-.25-.76-2.35-2.44-2.27-5.46-2.52-1.85,2.1,8.4,2.1,8.74S140.27,49.1,140.27,49.1Z" transform="translate(-6.37 -6.95)"/><path class="ay" d="M144.73,18.93a26.15,26.15,0,0,0,.92,3.36,6.63,6.63,0,0,1,.76,3.19c0,1.51,1,1.18,1.26.34s1.43-1.93.42-2.18-1.26,0-1.26-1,.42-1.85-.17-2.1-1-.17-1-.59S145.57,17.42,144.73,18.93Z" transform="translate(-6.37 -6.95)"/><path class="a" d="M149.43,48.25a2.68,2.68,0,0,0-1,2.86c.59,1.68-1,4,.59,2.52s1.18-1.18.84-3S149.77,48.25,149.43,48.25Z" transform="translate(-6.37 -6.95)"/><path class="az" d="M155.31,57.16a4.74,4.74,0,0,1,.5,1.68c0,.42-.5,3,.42,2.18a2.22,2.22,0,0,0,.92-2.27c0-1.18-1.76-2.77-1.93-1.93Z" transform="translate(-6.37 -6.95)"/><path class="aq" d="M138.14,64.9l.08.83h0C139.22,65.73,138.64,65.26,138.14,64.9Z" transform="translate(-6.37 -6.95)"/></g><text class="ai" transform="translate(101.16 79.68)">Black <tspan class="ba" x="33.45" y="0">R</tspan><tspan x="41.1" y="0">hino</tspan></text><path class="bb" d="M503.81,54.36s1.8,8.11.15,9.62-3.16,2-5.11,3.31-6,4.51-5.11,8.86c0,0,2.85-4.36,6.16-5.26s6.76-1.2,9-5.56a34.19,34.19,0,0,0,2.43-6q-.12-3.41-.23-6.83Z" transform="translate(-6.37 -6.95)"/><path class="bb" d="M523.64,66.83c-5.56-2.1-5.26-8-4.21-10.22s-3.76-5.26-3.76-5.26l-4.56,1.15q.11,3.42.23,6.83c.31-1.06.42-1.68.42-1.68s2.25,9.47,4.36,10.07,12.17,4.21,14,8A10.2,10.2,0,0,0,523.64,66.83Z" transform="translate(-6.37 -6.95)"/><path class="bb" d="M497.34,50.31s-1.8,2.55-2.4,3.31-1.8,3-7.21,3-8.41.15-10.82,4.06c0,0,4.66-2.25,8.71-.9s7.81,4.81,17.28-6S497.34,50.31,497.34,50.31Z" transform="translate(-6.37 -6.95)"/><path class="bb" d="M500,54s-1.05,2.94-1.43,3.83-.93,3.38-6.14,4.83-8.06,2.4-9.33,6.81c0,0,3.88-3.42,8.15-3.21s8.82,2.53,15-10.43S500,54,500,54Z" transform="translate(-6.37 -6.95)"/><path class="bb" d="M526.07,50.15s1.8,2.55,2.4,3.31,1.8,3,7.21,3,8.41.15,10.82,4.06c0,0-4.66-2.25-8.71-.9s-7.81,4.81-17.28-6S526.07,50.15,526.07,50.15Z" transform="translate(-6.37 -6.95)"/><path class="bb" d="M523.39,53.85s1.05,2.94,1.43,3.83.93,3.38,6.14,4.83,8.06,2.4,9.33,6.81c0,0-3.88-3.42-8.15-3.21s-8.82,2.53-15-10.43S523.39,53.85,523.39,53.85Z" transform="translate(-6.37 -6.95)"/><path class="bb" d="M511,12.94c-2.19.36-16,3.51-19.68,26.85.15,6.94,4.94,17.05,19.92,17C510.76,42.13,510.39,27.38,511,12.94Z" transform="translate(-6.37 -6.95)"/><path class="bb" d="M511.32,12.9l-.3,0c-.63,14.44-.26,29.19.24,43.84h.81c15.62-.45,20.28-9.47,20.13-16.68S526.34,13.5,511.32,12.9Z" transform="translate(-6.37 -6.95)"/><path class="bb" d="M505.23,28.22a7.37,7.37,0,0,0,0,14.72,7,7,0,0,0,5.56-2.76q-.09-4.68-.1-9.35A7,7,0,0,0,505.23,28.22Z" transform="translate(-6.37 -6.95)"/><path class="bb" d="M510.69,30.84q0,4.67.1,9.35a7.53,7.53,0,0,0-.1-9.35Z" transform="translate(-6.37 -6.95)"/><ellipse class="bb" cx="514.19" cy="28.93" rx="7.14" ry="7.36"/><ellipse class="bb" cx="514.87" cy="28.93" rx="4.51" ry="4.66"/><ellipse class="bb" cx="499.25" cy="28.78" rx="4.51" ry="4.66"/><ellipse class="bb" cx="522.36" cy="34.23" rx="1.57" ry="2.7" transform="translate(171.93 421.8) rotate(-52.66)"/><ellipse class="bb" cx="506.73" cy="33.93" rx="1.57" ry="2.7" transform="translate(166.02 409.26) rotate(-52.66)"/><path class="bb" d="M523.94,45c-4,2-8.74,2.31-13,2q0,.92.05,1.83A18,18,0,0,0,523.94,45Z" transform="translate(-6.37 -6.95)"/><path class="bb" d="M499.45,44.6A25,25,0,0,0,511,48.85q0-.92-.05-1.83A47.76,47.76,0,0,1,499.45,44.6Z" transform="translate(-6.37 -6.95)"/><g class="bc"><path class="bb" d="M523.64,66.83c-5.56-2.1-5.26-8-4.21-10.22s-3.76-5.26-3.76-5.26l-4.56,1.15q.11,3.42.23,6.83c.31-1.06.42-1.68.42-1.68s2.25,9.47,4.36,10.07,12.17,4.21,14,8A10.2,10.2,0,0,0,523.64,66.83Z" transform="translate(-6.37 -6.95)"/><path class="bb" d="M526.07,50.15s1.8,2.55,2.4,3.31,1.8,3,7.21,3,8.41.15,10.82,4.06c0,0-4.66-2.25-8.71-.9s-7.81,4.81-17.28-6S526.07,50.15,526.07,50.15Z" transform="translate(-6.37 -6.95)"/><path class="bb" d="M523.39,53.85s1.05,2.94,1.43,3.83.93,3.38,6.14,4.83,8.06,2.4,9.33,6.81c0,0-3.88-3.42-8.15-3.21s-8.82,2.53-15-10.43S523.39,53.85,523.39,53.85Z" transform="translate(-6.37 -6.95)"/><path class="bb" d="M512.38,13.1a11.52,11.52,0,0,0-1.36-.16c-.63,14.44-.26,29.19.24,43.84h.81c15.62-.45,20.28-9.47,20.13-16.68S527.4,13.7,512.38,13.1Z" transform="translate(-6.37 -6.95)"/><path class="bb" d="M505.23,28.22a7.37,7.37,0,0,0,0,14.72,7,7,0,0,0,5.56-2.76q-.09-4.68-.1-9.35A7,7,0,0,0,505.23,28.22Z" transform="translate(-6.37 -6.95)"/><path class="bb" d="M510.69,30.84q0,4.67.1,9.35a7.53,7.53,0,0,0-.1-9.35Z" transform="translate(-6.37 -6.95)"/><ellipse class="bb" cx="514.19" cy="28.93" rx="7.14" ry="7.36"/><ellipse class="bb" cx="514.87" cy="28.93" rx="4.51" ry="4.66"/><ellipse class="bb" cx="499.25" cy="28.78" rx="4.51" ry="4.66"/><ellipse class="bb" cx="522.36" cy="34.23" rx="1.57" ry="2.7" transform="translate(171.93 421.8) rotate(-52.66)"/><ellipse class="bb" cx="506.73" cy="33.93" rx="1.57" ry="2.7" transform="translate(166.02 409.26) rotate(-52.66)"/><path class="bb" d="M499.45,44.6A25,25,0,0,0,511,48.85q0-.92-.05-1.83A47.76,47.76,0,0,1,499.45,44.6Z" transform="translate(-6.37 -6.95)"/><path class="bb" d="M523.94,45c-4,2-8.74,2.31-13,2q0,.92.05,1.83A18,18,0,0,0,523.94,45Z" transform="translate(-6.37 -6.95)"/></g><path class="bd" d="M502.59,54s1.8,8.11.15,9.62-3.16,2-5.11,3.31-6,4.51-5.11,8.86c0,0,2.85-4.36,6.16-5.26s6.76-1.2,9-5.56a34.19,34.19,0,0,0,2.43-6q-.12-3.41-.23-6.83Z" transform="translate(-6.37 -6.95)"/><path class="bd" d="M522.43,66.43c-5.56-2.1-5.26-8-4.21-10.22S514.46,51,514.46,51l-4.56,1.15q.11,3.42.23,6.83c.31-1.06.42-1.68.42-1.68s2.25,9.47,4.36,10.07,12.17,4.21,14,8A10.2,10.2,0,0,0,522.43,66.43Z" transform="translate(-6.37 -6.95)"/><path class="be" d="M496.13,49.9s-1.8,2.55-2.4,3.31-1.8,3-7.21,3-8.41.15-10.82,4.06c0,0,4.66-2.25,8.71-.9s7.81,4.81,17.28-6S496.13,49.9,496.13,49.9Z" transform="translate(-6.37 -6.95)"/><path class="bf" d="M498.82,53.59s-1.05,2.94-1.43,3.83-.93,3.38-6.14,4.83-8.06,2.4-9.33,6.81c0,0,3.88-3.42,8.15-3.21s8.82,2.53,15-10.43S498.82,53.59,498.82,53.59Z" transform="translate(-6.37 -6.95)"/><path class="be" d="M524.86,49.75s1.8,2.55,2.4,3.31,1.8,3,7.21,3,8.41.15,10.82,4.06c0,0-4.66-2.25-8.71-.9s-7.81,4.81-17.28-6S524.86,49.75,524.86,49.75Z" transform="translate(-6.37 -6.95)"/><path class="bf" d="M522.18,53.44s1.05,2.94,1.43,3.83.93,3.38,6.14,4.83,8.06,2.4,9.33,6.81c0,0-3.88-3.42-8.15-3.21s-8.82,2.53-15-10.43S522.18,53.44,522.18,53.44Z" transform="translate(-6.37 -6.95)"/><path class="bg" d="M509.81,12.53c-2.19.36-16,3.51-19.68,26.85.15,6.94,4.94,17.05,19.92,17C509.55,41.72,509.18,27,509.81,12.53Z" transform="translate(-6.37 -6.95)"/><path class="bg" d="M510.11,12.49l-.3,0c-.63,14.44-.26,29.19.24,43.84h.81c15.62-.45,20.28-9.47,20.13-16.68S525.13,13.09,510.11,12.49Z" transform="translate(-6.37 -6.95)"/><path class="h" d="M504,27.82a7.37,7.37,0,0,0,0,14.72,7,7,0,0,0,5.56-2.76q-.09-4.68-.1-9.35A7,7,0,0,0,504,27.82Z" transform="translate(-6.37 -6.95)"/><path class="h" d="M509.48,30.44q0,4.67.1,9.35a7.53,7.53,0,0,0-.1-9.35Z" transform="translate(-6.37 -6.95)"/><ellipse class="h" cx="512.98" cy="28.52" rx="7.14" ry="7.36"/><ellipse cx="513.66" cy="28.52" rx="4.51" ry="4.66"/><ellipse cx="498.03" cy="28.37" rx="4.51" ry="4.66"/><ellipse class="h" cx="521.14" cy="33.83" rx="1.57" ry="2.7" transform="translate(171.77 420.68) rotate(-52.66)"/><ellipse class="h" cx="505.52" cy="33.52" rx="1.57" ry="2.7" transform="matrix(0.61, -0.8, 0.8, 0.61, 165.87, 408.14)"/><path d="M522.73,44.64c-4,2-8.74,2.31-13,2q0,.92.05,1.83A18,18,0,0,0,522.73,44.64Z" transform="translate(-6.37 -6.95)"/><path d="M498.24,44.19a25,25,0,0,0,11.56,4.26q0-.92-.05-1.83A47.76,47.76,0,0,1,498.24,44.19Z" transform="translate(-6.37 -6.95)"/><g class="bc"><path class="bh" d="M522.43,66.43c-5.56-2.1-5.26-8-4.21-10.22S514.46,51,514.46,51l-4.56,1.15q.11,3.42.23,6.83c.31-1.06.42-1.68.42-1.68s2.25,9.47,4.36,10.07,12.17,4.21,14,8A10.2,10.2,0,0,0,522.43,66.43Z" transform="translate(-6.37 -6.95)"/><path class="bi" d="M524.86,49.75s1.8,2.55,2.4,3.31,1.8,3,7.21,3,8.41.15,10.82,4.06c0,0-4.66-2.25-8.71-.9s-7.81,4.81-17.28-6S524.86,49.75,524.86,49.75Z" transform="translate(-6.37 -6.95)"/><path class="bj" d="M522.18,53.44s1.05,2.94,1.43,3.83.93,3.38,6.14,4.83,8.06,2.4,9.33,6.81c0,0-3.88-3.42-8.15-3.21s-8.82,2.53-15-10.43S522.18,53.44,522.18,53.44Z" transform="translate(-6.37 -6.95)"/><path class="bk" d="M511.17,12.7a11.52,11.52,0,0,0-1.36-.16c-.63,14.44-.26,29.19.24,43.84h.81c15.62-.45,20.28-9.47,20.13-16.68S526.19,13.3,511.17,12.7Z" transform="translate(-6.37 -6.95)"/><path class="h" d="M504,27.82a7.37,7.37,0,0,0,0,14.72,7,7,0,0,0,5.56-2.76q-.09-4.68-.1-9.35A7,7,0,0,0,504,27.82Z" transform="translate(-6.37 -6.95)"/><path class="h" d="M509.48,30.44q0,4.67.1,9.35a7.53,7.53,0,0,0-.1-9.35Z" transform="translate(-6.37 -6.95)"/><ellipse class="h" cx="512.98" cy="28.52" rx="7.14" ry="7.36"/><ellipse cx="513.66" cy="28.52" rx="4.51" ry="4.66"/><ellipse cx="498.03" cy="28.37" rx="4.51" ry="4.66"/><ellipse class="h" cx="521.14" cy="33.83" rx="1.57" ry="2.7" transform="translate(171.77 420.68) rotate(-52.66)"/><ellipse class="h" cx="505.52" cy="33.52" rx="1.57" ry="2.7" transform="matrix(0.61, -0.8, 0.8, 0.61, 165.87, 408.14)"/><path d="M498.24,44.19a25,25,0,0,0,11.56,4.26q0-.92-.05-1.83A47.76,47.76,0,0,1,498.24,44.19Z" transform="translate(-6.37 -6.95)"/><path d="M522.73,44.64c-4,2-8.74,2.31-13,2q0,.92.05,1.83A18,18,0,0,0,522.73,44.64Z" transform="translate(-6.37 -6.95)"/></g><text class="ai" transform="translate(466.75 79.68)"><tspan class="bl">B</tspan><tspan class="ak" x="7.64" y="0">eluga</tspan><tspan class="bm" x="40.25" y="0"> </tspan><tspan class="bn" x="42.71" y="0">W</tspan><tspan x="54.49" y="0">hale </tspan></text><path class="bo" d="M431,52.34s-2.36-23-12.71-30.75c0,.24.1,3.73.21,8.75a22.69,22.69,0,0,0,3-1.54l-1.16,1c-.7.59-1.7,1.32-1.87,1.44.06,2.45.12,5.22.19,8.13,1.06-.4,5.47-3,5.47-3L422,38l-3.21,2.3,0,2c0,1.86.09,3.81.13,5.79,2-1,9.26-5.26,9.26-5.26l-3.88,2.61c-2,1.34-4.4,2.88-5.36,3.5.07,3.21.14,6.48.2,9.57,2-1.06,10.78-6.65,10.78-6.65a55.91,55.91,0,0,1-4.69,3.61c-2.29,1.52-5.05,3.28-6.06,3.92.06,3,.12,5.85.16,8.22,2.75-1.57,10.18-6.32,10.18-6.32a55.9,55.9,0,0,1-4.69,3.61c-1.93,1.28-4.2,2.74-5.47,3.54l.06,2.9c2.86-1.86,10.41-7.21,10.91-12l-7.38.51Z" transform="translate(-6.37 -6.95)"/><path class="bo" d="M412,60.81a53.68,53.68,0,0,1-4.62-3.51s8.1,5.09,10.41,6.32c0-2.4.09-5.06.14-7.86-1.22-.77-3.54-2.22-5.5-3.5a53.67,53.67,0,0,1-4.62-3.51s7.52,4.73,10.14,6.18c0-3,.09-6.15.12-9.25-1-.64-3.27-2.07-5.16-3.31l-3.82-2.53s6.87,4,9,5c0-3.14.07-6.21.1-9.05L415,33.54,412.79,32s4.39,2.54,5.4,2.89c.08-7.61.12-13.27.12-13.27s-7.17,6.87-7.58,10.15l4.92,4-6.35-1s-12.52,28.44,8.29,37c.07-1.75.14-4.26.2-7.24C416.66,63.78,414.13,62.19,412,60.81Z" transform="translate(-6.37 -6.95)"/><path class="bo" d="M418.31,21.59s0,5.66-.12,13.27c-1-.35-5.4-2.89-5.4-2.89l2.2,1.58,3.19,2.25c0,2.84-.06,5.91-.1,9.05-2.12-1-9-5-9-5l3.82,2.53c1.89,1.24,4.14,2.67,5.16,3.31,0,3.1-.08,6.24-.12,9.25-2.61-1.45-10.14-6.18-10.14-6.18a53.67,53.67,0,0,0,4.62,3.51c2,1.28,4.28,2.74,5.5,3.5,0,2.79-.09,5.46-.14,7.86-2.31-1.23-10.41-6.32-10.41-6.32A53.68,53.68,0,0,0,412,60.81c2.12,1.38,4.65,3,5.77,3.67-.06,3-.13,5.49-.2,7.24a21.13,21.13,0,0,1-.19,2.65l.77.1h.24" transform="translate(-6.37 -6.95)"/><path class="bo" d="M418.41,74.47h1s0-1.17-.06-3.14l-.06-2.9c1.27-.81,3.54-2.26,5.47-3.54a55.9,55.9,0,0,0,4.69-3.61s-7.43,4.75-10.18,6.32c0-2.36-.1-5.18-.16-8.22,1-.64,3.77-2.4,6.06-3.92a55.91,55.91,0,0,0,4.69-3.61s-8.74,5.59-10.78,6.65c-.06-3.08-.13-6.35-.2-9.57,1-.62,3.36-2.16,5.36-3.5l3.88-2.61s-7.28,4.3-9.26,5.26c0-2-.09-3.93-.13-5.79l0-2L422,38l2.24-1.62s-4.41,2.6-5.47,3c-.07-2.91-.13-5.68-.19-8.13.17-.12,1.17-.86,1.87-1.44l1.16-1a22.69,22.69,0,0,1-3,1.54c-.12-5-.2-8.51-.21-8.75" transform="translate(-6.37 -6.95)"/><path class="bo" d="M414.84,25.92a24.88,24.88,0,0,0,3.44,1.74v.29l0,.49s-1.28-.87-2.15-1.52Z" transform="translate(-6.37 -6.95)"/><path class="bp" d="M430.46,53.47s-2.36-23-12.71-30.75c0,.24.1,3.73.21,8.75a22.69,22.69,0,0,0,3-1.54l-1.16,1c-.7.59-1.7,1.32-1.87,1.44.06,2.45.12,5.22.19,8.13,1.06-.4,5.47-3,5.47-3L421.4,39.1l-3.21,2.3,0,2c0,1.86.09,3.81.13,5.79,2-1,9.26-5.26,9.26-5.26l-3.88,2.61c-2,1.34-4.4,2.88-5.36,3.5.07,3.21.14,6.48.2,9.57,2-1.06,10.78-6.65,10.78-6.65a55.91,55.91,0,0,1-4.69,3.61c-2.29,1.52-5.05,3.28-6.06,3.92.06,3,.12,5.85.16,8.22,2.75-1.57,10.18-6.32,10.18-6.32A55.9,55.9,0,0,1,424.25,66c-1.93,1.28-4.2,2.74-5.47,3.54l.06,2.9c2.86-1.86,10.41-7.21,10.91-12l-7.38.51Z" transform="translate(-6.37 -6.95)"/><path class="bq" d="M411.45,61.94a53.68,53.68,0,0,1-4.62-3.51s8.1,5.09,10.41,6.32c0-2.4.09-5.06.14-7.86-1.22-.77-3.54-2.22-5.5-3.5a53.67,53.67,0,0,1-4.62-3.51s7.52,4.73,10.14,6.18c0-3,.09-6.15.12-9.25-1-.64-3.27-2.07-5.16-3.31L408.53,41s6.87,4,9,5c0-3.14.07-6.21.1-9.05l-3.19-2.25-2.2-1.58s4.39,2.54,5.4,2.89c.08-7.61.12-13.27.12-13.27s-7.17,6.87-7.58,10.15l4.92,4-6.35-1s-12.52,28.44,8.29,37c.07-1.75.14-4.26.2-7.24C416.1,64.91,413.56,63.32,411.45,61.94Z" transform="translate(-6.37 -6.95)"/><path class="br" d="M417.75,22.72s0,5.66-.12,13.27c-1-.35-5.4-2.89-5.4-2.89l2.2,1.58,3.19,2.25c0,2.84-.06,5.91-.1,9.05-2.12-1-9-5-9-5l3.82,2.53c1.89,1.24,4.14,2.67,5.16,3.31,0,3.1-.08,6.24-.12,9.25-2.61-1.45-10.14-6.18-10.14-6.18a53.67,53.67,0,0,0,4.62,3.51c2,1.28,4.28,2.74,5.5,3.5,0,2.79-.09,5.46-.14,7.86-2.31-1.23-10.41-6.32-10.41-6.32a53.68,53.68,0,0,0,4.62,3.51c2.12,1.38,4.65,3,5.77,3.67-.06,3-.13,5.49-.2,7.24a21.13,21.13,0,0,1-.19,2.65l.77.1h.24" transform="translate(-6.37 -6.95)"/><path class="bs" d="M417.85,75.6h1s0-1.17-.06-3.14l-.06-2.9c1.27-.81,3.54-2.26,5.47-3.54a55.9,55.9,0,0,0,4.69-3.61s-7.43,4.75-10.18,6.32c0-2.36-.1-5.18-.16-8.22,1-.64,3.77-2.4,6.06-3.92A55.91,55.91,0,0,0,429.36,53s-8.74,5.59-10.78,6.65c-.06-3.08-.13-6.35-.2-9.57,1-.62,3.36-2.16,5.36-3.5L427.63,44s-7.28,4.3-9.26,5.26c0-2-.09-3.93-.13-5.79l0-2,3.21-2.3,2.24-1.62s-4.41,2.6-5.47,3c-.07-2.91-.13-5.68-.19-8.13.17-.12,1.17-.86,1.87-1.44l1.16-1a22.69,22.69,0,0,1-3,1.54c-.12-5-.2-8.51-.21-8.75" transform="translate(-6.37 -6.95)"/><path class="br" d="M414.28,27.05a24.88,24.88,0,0,0,3.44,1.74v.29l0,.49s-1.28-.87-2.15-1.52Z" transform="translate(-6.37 -6.95)"/><text class="ai" transform="translate(379.04 79.68)">Gia<tspan class="bt" x="19.07" y="0">n</tspan><tspan class="ak" x="26.78" y="0">t </tspan><tspan class="bu" x="34.38" y="0">P</tspan><tspan x="41.47" y="0">anda</tspan></text><path class="bv" d="M20.54,71.1h22s2.2.17,3.67-2.54a3.74,3.74,0,0,0,3.5,2.31c2.71.06,22.06.11,22.06.11L63,59.13S76.24,29.45,46.28,24.48C20.15,28.77,26.19,50.61,29.52,59,27,62.63,20.54,71.1,20.54,71.1Z" transform="translate(-6.37 -6.95)"/><circle class="bv" cx="31.98" cy="35.56" r="3.7"/><circle class="bv" cx="47.95" cy="35.62" r="3.7"/><circle class="bv" cx="31.08" cy="34.26" r="1.21"/><circle class="bv" cx="46.93" cy="34.32" r="1.21"/><circle class="bv" cx="39.85" cy="43.77" r="5.64"/><rect class="bv" x="34.88" y="48.69" width="5.36" height="0.51" rx="0.18" ry="0.18" transform="translate(10.87 -16.26) rotate(18.27)"/><rect class="bv" x="52.43" y="53.15" width="5.36" height="0.51" rx="0.18" ry="0.18" transform="translate(13.16 -21.54) rotate(18.27)"/><rect class="bv" x="28.06" y="43.88" width="5.36" height="0.51" rx="0.18" ry="0.18"/><rect class="bv" x="46.17" y="43.83" width="5.36" height="0.51" rx="0.18" ry="0.18"/><rect class="bv" x="52.37" y="48.64" width="5.36" height="0.51" rx="0.18" ry="0.18" transform="translate(-19.61 14.42) rotate(-19.66)"/><path class="bv" d="M39.7,52.94l-4.57,1.63a.25.25,0,0,1-.32-.15h0a.25.25,0,0,1,.15-.32l4.57-1.63a.25.25,0,0,1,.32.15h0A.25.25,0,0,1,39.7,52.94Z" transform="translate(-6.37 -6.95)"/><path class="bv" d="M29.52,59l16.69,4.1,16.84-4L71.78,71l-22.06-.11s-3-.26-3.5-2.31c0,0-1.52,2.92-3.67,2.54s-22,0-22,0Z" transform="translate(-6.37 -6.95)"/><g class="bw"><path class="bv" d="M63,59.13S76.24,29.45,46.28,24.48l-.29.05c-.31,14.9.38,29.39.14,44.3.18-.23-.07,0,.09-.28a3.74,3.74,0,0,0,3.5,2.31c2.71.06,22.06.11,22.06.11Z" transform="translate(-6.37 -6.95)"/><circle class="bv" cx="31.98" cy="35.56" r="3.7"/><circle class="bv" cx="47.95" cy="35.62" r="3.7"/><circle class="bv" cx="31.08" cy="34.26" r="1.21"/><circle class="bv" cx="46.93" cy="34.32" r="1.21"/><path class="bv" d="M40.58,50.72a5.64,5.64,0,0,0,5.24,5.62q0-5.62,0-11.25A5.64,5.64,0,0,0,40.58,50.72Z" transform="translate(-6.37 -6.95)"/><path class="bv" d="M46.22,45.08l-.39,0q0,5.62,0,11.25l.4,0a5.64,5.64,0,0,0,0-11.29Z" transform="translate(-6.37 -6.95)"/><rect class="bv" x="34.88" y="48.69" width="5.36" height="0.51" rx="0.18" ry="0.18" transform="translate(10.87 -16.26) rotate(18.27)"/><rect class="bv" x="52.43" y="53.15" width="5.36" height="0.51" rx="0.18" ry="0.18" transform="translate(13.16 -21.54) rotate(18.27)"/><rect class="bv" x="28.06" y="43.88" width="5.36" height="0.51" rx="0.18" ry="0.18"/><rect class="bv" x="46.17" y="43.83" width="5.36" height="0.51" rx="0.18" ry="0.18"/><rect class="bv" x="52.37" y="48.64" width="5.36" height="0.51" rx="0.18" ry="0.18" transform="translate(-19.61 14.42) rotate(-19.66)"/><path class="bv" d="M39.7,52.94l-4.57,1.63a.25.25,0,0,1-.32-.15h0a.25.25,0,0,1,.15-.32l4.57-1.63a.25.25,0,0,1,.32.15h0A.25.25,0,0,1,39.7,52.94Z" transform="translate(-6.37 -6.95)"/><path class="bv" d="M63,59.13l-16.84,4h0c0,2.11,0,3.61-.08,5.72.33-.44.09-.28.09-.28.55,2.05,3.5,2.31,3.5,2.31L71.78,71Z" transform="translate(-6.37 -6.95)"/></g><path class="bx" d="M19.49,71.1h22s2.2.17,3.67-2.54a3.74,3.74,0,0,0,3.5,2.31c2.71.06,22.06.11,22.06.11L62,59.13S75.19,29.45,45.22,24.48C19.1,28.77,25.14,50.61,28.46,59,25.93,62.63,19.49,71.1,19.49,71.1Z" transform="translate(-6.37 -6.95)"/><circle class="h" cx="30.93" cy="35.56" r="3.7"/><circle class="h" cx="46.9" cy="35.62" r="3.7"/><circle cx="30.02" cy="34.26" r="1.21"/><circle cx="45.88" cy="34.32" r="1.21"/><circle cx="38.8" cy="43.77" r="5.64"/><rect x="33.83" y="48.69" width="5.36" height="0.51" rx="0.18" ry="0.18" transform="translate(10.82 -15.93) rotate(18.27)"/><rect x="51.38" y="53.15" width="5.36" height="0.51" rx="0.18" ry="0.18" transform="translate(13.1 -21.21) rotate(18.27)"/><rect x="27" y="43.88" width="5.36" height="0.51" rx="0.18" ry="0.18"/><rect x="45.12" y="43.83" width="5.36" height="0.51" rx="0.18" ry="0.18"/><rect x="51.32" y="48.64" width="5.36" height="0.51" rx="0.18" ry="0.18" transform="translate(-19.67 14.07) rotate(-19.66)"/><path d="M38.65,52.94l-4.57,1.63a.25.25,0,0,1-.32-.15h0a.25.25,0,0,1,.15-.32l4.57-1.63a.25.25,0,0,1,.32.15h0A.25.25,0,0,1,38.65,52.94Z" transform="translate(-6.37 -6.95)"/><path class="by" d="M28.46,59l16.69,4.1,16.84-4L70.73,71l-22.06-.11s-3-.26-3.5-2.31c0,0-1.52,2.92-3.67,2.54s-22,0-22,0Z" transform="translate(-6.37 -6.95)"/><g class="bw"><path class="bz" d="M62,59.13S75.19,29.45,45.22,24.48l-.29.05c-.31,14.9.38,29.39.14,44.3.18-.23-.07,0,.09-.28a3.74,3.74,0,0,0,3.5,2.31c2.71.06,22.06.11,22.06.11Z" transform="translate(-6.37 -6.95)"/><circle class="h" cx="30.93" cy="35.56" r="3.7"/><circle class="h" cx="46.9" cy="35.62" r="3.7"/><circle cx="30.02" cy="34.26" r="1.21"/><circle cx="45.88" cy="34.32" r="1.21"/><path d="M39.53,50.72a5.64,5.64,0,0,0,5.24,5.62q0-5.62,0-11.25A5.64,5.64,0,0,0,39.53,50.72Z" transform="translate(-6.37 -6.95)"/><path d="M45.17,45.08l-.39,0q0,5.62,0,11.25l.4,0a5.64,5.64,0,0,0,0-11.29Z" transform="translate(-6.37 -6.95)"/><rect x="33.83" y="48.69" width="5.36" height="0.51" rx="0.18" ry="0.18" transform="translate(10.82 -15.93) rotate(18.27)"/><rect x="51.38" y="53.15" width="5.36" height="0.51" rx="0.18" ry="0.18" transform="translate(13.1 -21.21) rotate(18.27)"/><rect x="27" y="43.88" width="5.36" height="0.51" rx="0.18" ry="0.18"/><rect x="45.12" y="43.83" width="5.36" height="0.51" rx="0.18" ry="0.18"/><rect x="51.32" y="48.64" width="5.36" height="0.51" rx="0.18" ry="0.18" transform="translate(-19.67 14.07) rotate(-19.66)"/><path d="M38.65,52.94l-4.57,1.63a.25.25,0,0,1-.32-.15h0a.25.25,0,0,1,.15-.32l4.57-1.63a.25.25,0,0,1,.32.15h0A.25.25,0,0,1,38.65,52.94Z" transform="translate(-6.37 -6.95)"/><path class="ca" d="M62,59.13l-16.84,4h0c0,2.11,0,3.61-.08,5.72.33-.44.09-.28.09-.28.55,2.05,3.5,2.31,3.5,2.31L70.73,71Z" transform="translate(-6.37 -6.95)"/></g><text class="ai" transform="translate(12.33 79.68)"><tspan class="cb">P</tspan><tspan class="ak" x="7.1" y="0">olar </tspan><tspan class="bl" x="32.38" y="0">B</tspan><tspan x="40.03" y="0">ear</tspan></text></svg>