<?xml version="1.0" encoding="utf-8"?>
<!-- Generator: Adobe Illustrator 21.0.2, SVG Export Plug-In . SVG Version: 6.00 Build 0)  -->
<svg version="1.1" id="Layer_1" xmlns="http://www.w3.org/2000/svg" xmlns:xlink="http://www.w3.org/1999/xlink" x="0px" y="0px"
	 viewBox="0 0 631.5 386.6" style="enable-background:new 0 0 631.5 386.6;" xml:space="preserve">
<style type="text/css">
	.st0{fill:#A8A8A8;}
	.st1{fill:#B5B5B5;}
	.st2{fill:#C6C6C6;}
	.st3{fill:#D3D3D3;}
	.st4{fill:#DDDDDD;}
	.st5{fill:#CECECE;}
	.st6{fill:#EAE8E8;}
	.st7{fill:#EFEFEF;}
	.st8{opacity:0.35;fill:url(#SVGID_1_);enable-background:new    ;}
	.st9{fill:#E5E5E5;}
	.st10{fill:#9B9A9A;}
	.st11{fill:#495750;}
	.st12{fill:#CCCCCC;}
	.st13{fill:#E8E8E8;}
	.st14{fill:#249DAA;}
	.st15{fill:#1B6D6B;}
	.st16{fill:#2BD0D8;}
	.st17{fill:#2B2B2B;}
	.st18{opacity:0.74;}
	.st19{opacity:0.41;}
	.st20{fill:#F9B9B9;}
	.st21{fill:#EAEAEA;}
	.st22{fill:#A3A3A3;}
	.st23{fill:#C1BFBF;}
	.st24{fill:#784418;}
	.st25{fill:#492812;}
	.st26{fill:#86502A;}
	.st27{fill:none;}
	.st28{fill:#B87F50;}
	.st29{fill:#5D3B20;}
	.st30{fill:#683F29;}
	.st31{fill:#5C2F0B;}
	.st32{fill:url(#SVGID_2_);}
	.st33{opacity:0.76;}
	.st34{fill:url(#SVGID_3_);}
	.st35{opacity:0.7;}
	.st36{fill:url(#SVGID_4_);}
	.st37{opacity:0.43;fill:#212121;enable-background:new    ;}
	.st38{opacity:0.56;fill:#1E0404;enable-background:new    ;}
	.st39{font-family:'GROBOLD';}
	.st40{font-size:42px;}
	.st41{fill:#F4F2F2;}
	.st42{font-family:'Montserrat-Regular';}
	.st43{font-size:18px;}
	.st44{fill:#009999;}
	.st45{fill:#00B7B2;}
	.st46{fill:#FFFFFF;}
	.st47{fill:#FF3366;}
	.st48{opacity:0.35;fill:#232323;enable-background:new    ;}
	.st49{fill:#384948;}
	.st50{fill:#465B5A;}
	.st51{fill:#262E26;}
	.st52{fill:#526664;}
	.st53{fill:#5A6D6B;}
	.st54{fill:#AD6123;}
	.st55{fill:#874616;}
	.st56{fill:#E57929;}
	.st57{fill:#997373;}
	.st58{opacity:0.34;fill:#253332;enable-background:new    ;}
	.st59{fill:#42210B;}
	.st60{fill:#603813;}
	.st61{fill:#754C24;}
	.st62{opacity:0.5;fill:#603813;enable-background:new    ;}
	.st63{opacity:0.5;fill:#A67C52;enable-background:new    ;}
	.st64{opacity:0.5;fill:#8C6239;enable-background:new    ;}
	.st65{opacity:0.5;fill:#42210B;enable-background:new    ;}
	.st66{opacity:0.4;}
	.st67{fill:#301709;}
	.st68{fill:#512D10;}
	.st69{fill:#56351A;}
	.st70{opacity:0.5;fill:#936C4A;enable-background:new    ;}
	.st71{opacity:0.5;fill:#775132;enable-background:new    ;}
	.st72{opacity:0.5;fill:#472910;enable-background:new    ;}
	.st73{opacity:0.5;fill:#2B1407;enable-background:new    ;}
	.st74{fill:#D36318;}
	.st75{fill:#F4731C;}
	.st76{fill:#D8D8D8;}
	.st77{fill:#EDEDED;}
	.st78{fill:#FF9292;}
	.st79{fill:#F27D2F;}
	.st80{fill:#724720;}
	.st81{fill:#BC5D1D;}
	.st82{fill:#33493E;}
	.st83{fill:#84572F;}
	.st84{fill:#686B72;}
	.st85{opacity:0.3;fill:#1DCAF2;enable-background:new    ;}
	.st86{opacity:0.69;fill:#724720;enable-background:new    ;}
	.st87{fill:#EF874D;}
	.st88{opacity:0.34;}
	.st89{fill:#512600;}
	.st90{fill:#1DCAF2;}
	.st91{fill:#3D240E;}
	.st92{fill:#A67C52;}
	.st93{fill:#C69C6D;}
	.st94{fill:#8C6239;}
	.st95{fill:#E6E6E6;}
	.st96{fill:#39B54A;}
	.st97{fill:#009245;}
	.st98{fill:#13BC13;}
	.st99{enable-background:new    ;}
	.st100{font-size:21px;}
</style>
<title>tut1desktop</title>
<path class="st0" d="M329.4,87l-2.3,23.8c-0.2,1.6-1.5,2.7-3.1,2.6c-15.1,0.4-28.6-3-39-11.3c-1-0.9-1.9-1.9-2.6-3.1l0.8-8.8
	c0.2-1.6,1.5-2.7,3.1-2.6c13.1,1.7,27,1.8,40.4-3.7C328.4,84.1,329.5,85.5,329.4,87z"/>
<path class="st1" d="M346.2,81.5l-5.9-6.1c-0.8-0.7-0.8-2,0-2.7c0,0,0,0,0,0l0,0l1.4-1.3c3.1-3,8-3,11,0.1c0,0,0,0,0,0l0,0l6.2,6.3
	c0.4,0.4,0.4,0.9,0,1.3c0,0,0,0,0,0l0,0l-2.6,2.5C353.4,84.3,348.9,84.3,346.2,81.5z"/>
<path class="st2" d="M324.8,109c-0.1,0-0.2,0.1-0.3,0.1l-0.3-0.1l-0.5,0.3c-14.3,1.4-27.6-1.3-37.2-8.9c-0.6-0.6-1.2-1.2-1.7-1.9
	l0.8-8.1c0-0.3,0.2-0.5,0.5-0.5c0.1,0,0.1,0,0.2,0c17.8,2.3,28,0.3,34.2-1.4c2.2-0.6,4.4-1.4,6.6-2.2c0.1,0.1,0.2,0.3,0.2,0.5
	l-1.9,21.7C325.3,108.8,325,108.9,324.8,109z"/>
<path class="st3" d="M346.4,79.3c2.7,2.7,7,2.8,9.8,0.1l1-1l-4.6-4.7c-3-3-7.8-3.1-10.8-0.1c-0.3,0.3-0.3,0.7,0,0.9L346.4,79.3z"/>
<path class="st1" d="M292.6,95.5l2.1-8.6c1-4.2,5.2-6.7,9.4-5.7l0,0l1.9,0.5c1,0.3,1.6,1.3,1.4,2.3c0,0,0,0,0,0l0,0l-2,8.2
	c-0.9,3.8-4.8,6.1-8.6,5.2l-3.5-0.8C292.8,96.5,292.5,96,292.6,95.5C292.6,95.5,292.6,95.5,292.6,95.5L292.6,95.5z"/>
<path class="st4" d="M304.1,90.5c-0.9,3.7-4.7,6-8.4,5.1l-1.4-0.3l1.6-6.4c1-4.1,5.2-6.6,9.3-5.6c0.3,0.1,0.6,0.4,0.5,0.8
	L304.1,90.5z"/>
<path class="st5" d="M307.6,106.2l-0.5-3.6l-1-6.7l-0.4-2.5l0,0l-0.2-1.2l-0.5-3.4l-0.1-0.4l-0.2-1v-0.1l-0.8-5.2l-1-6.5l-0.4-2.5
	l-0.1-0.7c0-0.1,0-0.2-0.1-0.3c-0.1-0.1,0-0.2,0-0.2V72c0-0.2,0-0.3,0-0.5c0-0.3,0.1-0.7,0.2-1c0.2-0.5,0.4-0.9,0.8-1.3
	c0.4-0.4,0.9-0.7,1.5-0.9l28.1-7.7c0.6-0.2,1.2-0.2,1.7,0c0.5,0.1,1,0.4,1.3,0.7c0.3,0.2,0.5,0.5,0.7,0.8c0.1,0.1,0.2,0.3,0.2,0.4
	v0.1c0,0.1,0.1,0.2,0.1,0.2c0,0.1,0.1,0.2,0.1,0.3l0.3,0.6l0.9,2.3l2.1,5.2l0.2,0.5l0.1,0.3l3.6,9l0,0l0.4,0.9v0.1l3.7,9.1l1.4,3.4
	C354.3,110.4,311.9,121.9,307.6,106.2z"/>
<path class="st6" d="M310.5,107.4l-5.1-33.6c0-0.2,0-0.3-0.1-0.5c-0.1-0.5,0.2-1,0.7-1.1l28.1-7.7c0.5-0.1,1,0.2,1.1,0.6
	c0,0.2,0.1,0.3,0.2,0.5l12.7,31.5C350.2,104.5,312.5,114.8,310.5,107.4z"/>
<path class="st7" d="M330,104.1c-3.5,1-7,1.7-10.7,1.9l-5.1-29l15.5-4.3l10.4,27.5C336.9,101.9,333.5,103.2,330,104.1z"/>
<path class="st0" d="M265.6,110.9l2.6-11.9c1.2-5.8,6.9-9.4,12.7-8.2l0,0l2.6,0.6c1.4,0.3,2.3,1.7,2,3.1l0,0l-2.5,11.4
	c-1.1,5.3-6.4,8.6-11.6,7.5c0,0,0,0,0,0l0,0l-4.9-1c-0.7-0.1-1.1-0.8-1-1.5c0,0,0,0,0,0L265.6,110.9z"/>
<path class="st3" d="M281.2,103.5c-1.1,5.1-6.2,8.3-11.3,7.2l-1.9-0.4l1.9-8.8c1.2-5.7,6.8-9.3,12.5-8.1c0.5,0.1,0.8,0.6,0.7,1.1
	L281.2,103.5z"/>
<path class="st0" d="M287.8,83.7L285.4,95c-0.3,1.4-1.7,2.3-3.1,2l0,0l-2.6-0.6c-5.8-1.2-9.4-6.9-8.2-12.7l0,0l2.6-11.9
	c0.1-0.7,0.8-1.1,1.5-1c0,0,0,0,0,0l4.8,1c5.3,1.1,8.7,6.3,7.5,11.6C287.9,83.6,287.9,83.6,287.8,83.7z"/>
<path class="st3" d="M285.2,85.1c1.1-5.1-2.2-10.2-7.3-11.3l-1.9-0.4l-1.9,8.8c-1.2,5.7,2.4,11.3,8.1,12.5c0.5,0.1,1-0.2,1.1-0.7
	L285.2,85.1z"/>
<linearGradient id="SVGID_1_" gradientUnits="userSpaceOnUse" x1="304.2173" y1="85.8281" x2="304.2173" y2="75.6981" gradientTransform="matrix(0.96 -0.26 0.26 0.96 8.9 76.94)">
	<stop  offset="0" style="stop-color:#000000;stop-opacity:0"/>
	<stop  offset="1" style="stop-color:#000000"/>
</linearGradient>
<path class="st8" d="M340.7,71.5l-36.9,10.1l-1.3-8.6c0-0.1,0-0.2,0-0.3c0-0.2,0-0.4,0-0.6c-0.1-0.2-0.1-0.4-0.2-0.7l34.6-9.4
	c0.1,0.2,0.1,0.4,0.2,0.7c0.1,0.2,0.1,0.3,0.2,0.5c0.1,0.1,0.1,0.2,0.1,0.3L340.7,71.5z"/>
<path class="st5" d="M351.6,55c0.5,1.9-0.7,3.7-2.5,4.2L292,74.9c-1.8,0.6-3.8-0.5-4.4-2.3c0,0,0,0,0,0l-11.2-33.4
	c-0.1-0.3-0.1-0.7-0.1-1c-0.4-1.7-0.7-3.5-0.8-5.2l0,0c-0.1-5.6,1.5-11.2,4.7-15.9c0.6-1,1.3-1.9,2-2.8c5-6,11.7-10.4,19.3-12.5h0.1
	l0.8-0.2c8-2.3,16.5-2,24.3,0.9c1.1,0.4,2.1,0.8,3.2,1.3c5,2.5,9.2,6.4,11.9,11.4c0.8,1.5,1.5,3.2,1.9,4.9c0,0.2,0.1,0.3,0.1,0.5
	c0,0.2,0,0.1,0.1,0.2L351.6,55z"/>
<path class="st5" d="M292.6,69.7c-4.9,1.3-9.9-1.5-11.2-6.4c-1.3-4.9,1.5-9.9,6.4-11.2c4.9-1.3,9.9,1.5,11.2,6.4c0,0,0,0,0,0l0,0
	C300.3,63.4,297.5,68.4,292.6,69.7z"/>
<path class="st5" d="M345,55.4c-4.9,1.3-9.9-1.5-11.2-6.4c-1.3-4.9,1.5-9.9,6.4-11.2c4.9-1.3,9.9,1.5,11.2,6.4c0,0,0,0,0,0l0,0
	C352.7,49,349.9,54,345,55.4z"/>
<path class="st9" d="M349.4,52.4c0.3,2.4-1.1,4.6-3.3,5.5l-53,14.5c-2.2,0-4.1-1.3-4.9-3.3l-0.4-1.9L277.4,38v-0.1
	c0-0.1,0-0.1,0-0.2v-0.4l-0.1-0.4c-1.8-6.9-0.2-14.3,4.5-20.8c5.2-6.9,12.5-11.9,20.9-14.1c18-4.9,35.8,2.8,39.7,17.3l0.1,0.4v0.5
	l6,30l0,0L349.4,52.4z"/>
<ellipse transform="matrix(0.9646 -0.2639 0.2639 0.9646 -5.7992 78.7247)" class="st9" cx="290.2" cy="61" rx="7.9" ry="7.9"/>
<ellipse transform="matrix(0.9652 -0.2614 0.2614 0.9652 -0.6257 90.7515)" class="st9" cx="340.8" cy="47.7" rx="7.9" ry="7.9"/>
<path class="st10" d="M295.3,63.3c1.1-3.3-0.6-6.9-3.9-8.1c-3.3-1.1-6.9,0.6-8.1,3.9c-1.1,3.3,0.6,6.9,3.9,8.1
	c0.2,0.1,0.5,0.1,0.7,0.2l0.3,0.1l0.2-0.3c0.5-0.7,1.1-1.2,1.7-1.7c0.3-0.2,0.6-0.4,0.9-0.6c1.2-0.7,2.5-1.2,3.9-1.3h0.3L295.3,63.3
	z"/>
<path class="st11" d="M286.4,56.6c2.8-1.7,6.4-0.8,8.1,1.9c0.9,1.5,1.1,3.3,0.5,5c-1.5,0.1-2.9,0.6-4.1,1.4
	c-0.3,0.2-0.6,0.4-0.9,0.6c-0.7,0.5-1.3,1.1-1.8,1.8c-3.2-0.7-5.2-3.8-4.5-7C284.1,58.8,285,57.5,286.4,56.6z"/>
<path class="st12" d="M284.5,64.7c0.8,1.4,2.2,2.3,3.8,2.7c0.5-0.7,1.1-1.3,1.8-1.8l3.7-7.9c-2.2-2.4-5.9-2.5-8.3-0.3
	C283.4,59.2,283,62.3,284.5,64.7z"/>
<path class="st13" d="M287.9,66.5c0.4-0.5,0.9-1,1.5-1.4l3.4-7.3c-2.1-1.9-5.3-1.6-7.2,0.5c-1.5,1.7-1.7,4.1-0.5,6
	C285.8,65.3,286.8,66.1,287.9,66.5z"/>
<path class="st14" d="M287,62.4c0.5-0.4,0.8-0.9,0.7-1.1s-0.4-0.2-0.8-0.1c0-2.4,2.1-4.4,4.5-4.3c0.8,0,1.7,0.3,2.4,0.7
	c1.5,1.6,2,3.9,1.3,5.9c-1.5,0.1-2.9,0.6-4.1,1.4c-0.3,0.2-0.6,0.4-0.9,0.6C288.5,65.1,287.4,63.9,287,62.4L287,62.4z"/>
<path class="st15" d="M294.6,63c0.5-1.7,0-3.6-1.2-4.9c-1.2-0.8-2.8-0.8-4.1,0c-0.9,0.6-0.2,6.6,0.6,6.9c0.2-0.2,0.5-0.3,0.7-0.5
	C291.9,63.7,293.2,63.2,294.6,63z"/>
<path class="st10" d="M295.4,63.6c-2.7,0.3-5.3,1.7-7,3.8l-0.1-0.1c0.8-1,1.8-1.8,2.9-2.5c1.3-0.8,2.8-1.3,4.3-1.4L295.4,63.6z"/>
<path class="st16" d="M288.4,58.6c0.2,0,0.2,0.5,0.2,0.7c-0.1,0.8-0.1,1.7,0,2.5c0.2,0.5,0.4,2.1,0.5,2.5s-0.2,0.4-0.2,0.4
	s-0.9-0.8-1-1.2c-0.1-0.4,0-0.9,0.1-1.3c0.1-0.4,0.1-0.8,0-1.3c-0.3-0.4-0.3-0.9-0.2-1.4C288.1,59,288.2,58.6,288.4,58.6z"/>
<ellipse transform="matrix(0.8525 -0.5228 0.5228 0.8525 11.0534 161.2777)" class="st17" cx="291.3" cy="61.1" rx="3" ry="3"/>
<g class="st18">
	<ellipse transform="matrix(0.853 -0.5219 0.5219 0.853 9.4051 159.6944)" class="st7" cx="288.2" cy="63.2" rx="1" ry="1"/>
</g>
<g class="st19">
	<ellipse transform="matrix(0.853 -0.5219 0.5219 0.853 9.6626 160.6431)" class="st7" cx="290" cy="63.2" rx="0.5" ry="0.5"/>
</g>
<ellipse transform="matrix(0.8813 -0.4726 0.4726 0.8813 15.3768 169.9756)" class="st20" cx="346" cy="54.4" rx="2.7" ry="2"/>
<ellipse transform="matrix(0.9992 -3.996804e-02 3.996804e-02 0.9992 -2.5539 11.7488)" class="st20" cx="292.6" cy="69.7" rx="2.7" ry="2.1"/>
<path class="st10" d="M339.1,50.9c-2.5-2.4-2.6-6.4-0.2-9c2.4-2.5,6.4-2.6,9-0.2c2.5,2.4,2.6,6.4,0.2,9c-0.2,0.2-0.4,0.3-0.5,0.5
	l-0.2,0.2l-0.3-0.1c-0.7-0.4-1.5-0.6-2.3-0.8c-0.3-0.1-0.7-0.1-1-0.1c-1.4-0.1-2.7,0.1-4,0.6l-0.3,0.1L339.1,50.9z"/>
<path class="st11" d="M344,40.8c-3.2-0.2-6,2.2-6.3,5.4c-0.1,1.8,0.5,3.5,1.8,4.7c1.4-0.5,2.8-0.8,4.3-0.7c0.4,0,0.7,0.1,1.1,0.1
	c0.8,0.2,1.7,0.4,2.4,0.8c2.5-2.1,2.8-5.8,0.8-8.3C347.1,41.7,345.6,40.9,344,40.8L344,40.8z"/>
<path class="st12" d="M349.4,47c-0.1,1.6-0.9,3.1-2.1,4.1c-0.8-0.4-1.6-0.6-2.4-0.8l-7-5.3c0.9-3.1,4.1-4.9,7.2-4.1
	C347.8,41.7,349.6,44.2,349.4,47L349.4,47z"/>
<path class="st13" d="M347.2,50.3c-0.6-0.3-1.3-0.5-2-0.6l-6.3-4.9c1.1-2.6,4.1-3.8,6.7-2.6c1.9,0.8,3.2,2.8,3.1,4.9
	C348.5,48.2,348,49.4,347.2,50.3z"/>
<path class="st14" d="M346.1,46.2c-0.7-0.1-1.1-0.4-1.1-0.7s0.3-0.4,0.7-0.5c-1.2-2.1-3.9-2.9-6-1.8c-0.7,0.4-1.4,1-1.8,1.8
	c-0.6,2.1,0.1,4.4,1.6,5.8c1.4-0.5,2.8-0.8,4.3-0.7c0.4,0,0.7,0.1,1.1,0.1C346.1,49.3,346.5,47.8,346.1,46.2L346.1,46.2z"/>
<path class="st15" d="M339.7,50.2c-1.2-1.3-1.7-3.2-1.2-4.9c0.7-1.3,2.1-2,3.6-1.9c1.1,0.1,3.2,5.8,2.6,6.4c-0.3,0-0.5-0.1-0.8-0.1
	C342.5,49.6,341,49.8,339.7,50.2z"/>
<path class="st10" d="M339.3,51.1c2.6-1,5.5-1,8,0.1l0.1-0.2c-1.2-0.5-2.4-0.8-3.7-0.9c-1.5-0.1-3,0.2-4.5,0.7L339.3,51.1z"/>
<path class="st16" d="M343.1,43.5c-0.2,0.1,0.1,0.5,0.1,0.7c0.4,0.7,0.8,1.4,1.1,2.2c0.1,0.5,0.6,2.1,0.7,2.5s0.4,0.2,0.4,0.2
	c0.2-0.5,0.3-1,0.4-1.5c-0.1-0.4-0.4-0.8-0.7-1.1c-0.2-0.2-0.6-0.7-0.6-1.1c0.1-0.5-0.1-1-0.5-1.3C343.6,43.7,343.3,43.4,343.1,43.5
	z"/>
<ellipse transform="matrix(6.982913e-02 -0.9976 0.9976 6.982913e-02 271.4965 383.18)" class="st17" cx="341.2" cy="46" rx="3" ry="3"/>
<g class="st18">
	
		<ellipse transform="matrix(7.184566e-02 -0.9974 0.9974 7.184566e-02 272.4092 387.3042)" class="st7" cx="344.3" cy="47.3" rx="1" ry="1"/>
</g>
<g class="st19">
	
		<ellipse transform="matrix(7.184566e-02 -0.9974 0.9974 7.184566e-02 270.082 386.4972)" class="st7" cx="342.7" cy="48.1" rx="0.5" ry="0.5"/>
</g>
<ellipse transform="matrix(0.9646 -0.2639 0.2639 0.9646 3.8809 82.6145)" class="st5" cx="309.5" cy="26.9" rx="31.7" ry="22.7"/>
<ellipse transform="matrix(0.9646 -0.2639 0.2639 0.9646 4.1819 82.4881)" class="st4" cx="309.2" cy="25.7" rx="29.4" ry="20.6"/>
<ellipse transform="matrix(0.9646 -0.2639 0.2639 0.9646 5.493 82.0082)" class="st21" cx="308" cy="20.6" rx="22.3" ry="11.6"/>
<path class="st22" d="M293.7,65.9c4.4-0.2,8.8-0.3,13.1-0.8c1.1-0.1,2.1-0.3,3.2-0.5c0.3-0.1,0.5-0.1,0.8-0.2l0.4-0.1l0.4-0.1
	c0.5-0.2,1-0.3,1.5-0.5s1-0.4,1.5-0.6s1-0.4,1.6-0.6s1.1-0.3,1.6-0.5s1.1-0.3,1.6-0.4s1.1-0.2,1.7-0.2s1.1-0.1,1.6-0.2
	s1.1-0.2,1.6-0.3c0.5-0.1,1-0.3,1.5-0.4c2-0.7,4.1-1.6,6.1-2.4s4-1.7,6-2.7c1-0.5,2-0.9,3-1.4c0.5-0.2,1-0.5,1.5-0.8
	c0.5-0.3,1-0.5,1.4-0.8c-0.8,0.7-1.7,1.4-2.7,1.9c-0.9,0.6-1.9,1.1-2.9,1.7c-1.9,1.1-3.9,2.1-5.9,3c-1,0.5-2,0.9-3,1.4
	c-1,0.5-2,0.9-3.1,1.3c-0.5,0.2-1.1,0.4-1.6,0.5c-0.5,0.1-1.1,0.2-1.6,0.3s-1.1,0.2-1.6,0.2s-1.1,0.1-1.6,0.2s-1,0.2-1.6,0.3
	s-1,0.3-1.5,0.4s-1,0.4-1.5,0.6s-1,0.4-1.6,0.6l-1.6,0.5l-0.4,0.1l-0.2,0.1l-0.2,0.1l-0.8,0.2c-1.1,0.2-2.2,0.3-3.3,0.4
	c-2.2,0.1-4.4,0.1-6.6,0.1S295.9,66.1,293.7,65.9z"/>
<path class="st23" d="M290,47.4c3.8,2.2,8,3.5,12.4,4c2.2,0.2,4.3,0.3,6.5,0.1c2.2-0.2,4.3-0.5,6.4-1.1c2.1-0.5,4.1-1.3,6.1-2.2
	l1.5-0.7l1.4-0.8l1.4-0.8L327,45c3.6-2.5,6.6-5.7,9-9.4c-2.1,3.9-5,7.3-8.5,10c-1.8,1.3-3.7,2.5-5.7,3.4c-2,1-4.1,1.7-6.3,2.3
	c-2.2,0.6-4.4,0.9-6.6,1.1c-2.2,0.1-4.5,0-6.7-0.3C297.9,51.5,293.7,49.9,290,47.4z"/>
<path class="st23" d="M289.2,46.7c3.9,2,8.2,3.2,12.6,3.4c2.2,0.1,4.4,0,6.5-0.2c2.2-0.3,4.3-0.7,6.4-1.3c2.1-0.6,4.2-1.3,6.2-2.2
	c2-0.9,3.9-1.9,5.8-3.1c3.7-2.3,7.1-5.3,9.9-8.7c-2.5,3.7-5.7,6.9-9.4,9.4c-0.5,0.3-0.9,0.6-1.4,0.9s-1,0.6-1.5,0.8l-0.7,0.4
	l-0.8,0.4l-0.8,0.4l-0.8,0.3c-2,0.9-4.1,1.7-6.3,2.3c-2.2,0.6-4.4,1-6.6,1.3c-2.2,0.2-4.5,0.3-6.7,0.1c-2.2-0.2-4.4-0.6-6.6-1.3
	C293.1,48.9,291.1,48,289.2,46.7z"/>
<path class="st0" d="M289.9,47.3c1.9,1,3.9,1.8,6,2.4c2.1,0.6,4.2,0.9,6.3,1.1c2.1,0.2,4.3,0.1,6.4-0.1c2.1-0.2,4.2-0.6,6.3-1.2
	c2.1-0.6,4.1-1.3,6-2.2c2-0.9,3.8-1.9,5.6-3.1c3.6-2.4,6.8-5.3,9.5-8.7c-2.4,3.7-5.4,6.8-9,9.3l-1.4,0.9l-1.4,0.8l-1.4,0.8l-1.5,0.7
	c-2,0.9-4,1.7-6.2,2.3c-2.1,0.6-4.3,1-6.5,1.2c-2.2,0.2-4.4,0.2-6.6-0.1c-2.2-0.2-4.3-0.7-6.4-1.4C293.6,49.4,291.7,48.5,289.9,47.3
	z"/>
<ellipse transform="matrix(0.9646 -0.2639 0.2639 0.9646 -2.8078 85.2748)" class="st5" cx="316" cy="53.1" rx="19.7" ry="1.6"/>
<rect y="109" class="st24" width="631.5" height="277.5"/>
<rect x="11.7" y="116.9" class="st7" width="610.7" height="261.9"/>
<path class="st25" d="M443.8,104l-3.4,20.6l-4.8-1.2c0,0-0.8,2.2-1.2,2.4c-0.4,1,0,4.8,0,4.8l-1.2,4.8c0,0-9.6,25.2-18,30l-14.4-12
	c-8.4-4.8-25.2-10.8-30.7-11.6H245c-2.8,0.9-29.5,6-29.5,6l-4.9-0.6l-14.5-13.7l-1.9-19v-6l-0.1-0.2c-0.5-1.6-4-12.8-6.1-17.7
	l-0.5-1l0.4-1.1c0.7-2,2.8-8.3,2.8-8.3h0.2l91.7-0.8l87.5-0.8l21.4-0.2l23.8-0.2l10.6,1.9L443.8,104z"/>
<polygon class="st26" points="190.5,85.2 197,103.4 198.6,126.4 211.4,138.2 244.6,132.8 371,132.8 402,146.2 416.4,157 
	430.4,132.8 431.2,117.8 438,121 439.2,104.2 426,81.4 413.3,79.3 "/>
<path class="st24" d="M408.2,78.5l-0.3,1.4l16.5,16c0,0,10.4,6.7,11.8,8.7c-0.3,2.2-0.9,4.3-1.9,6.3l-0.9,0.2l-6.7,3.5l-1.4,11.4
	c0.2,1.4,0.3,2.8,0.3,4.3c-0.9,8.8-8.1,24.4-24.3,13.3l0,0c-6.6-3.3-17.5-7.8-27.3-15l-1.4-1H243.8l-0.8,0.2
	c-5,1.5-27.6,5.6-27.6,5.6l-2.5-0.2l-9.6-9l-1.1-14.7v-6.3c0,0-3.9-13.4-6-18.1c0.5-1.5,1.1-2.6,1.7-4.8L408.2,78.5z"/>
<line class="st27" x1="414.7" y1="80.3" x2="344.6" y2="77.8"/>
<line class="st27" x1="190.8" y1="80.9" x2="191.6" y2="78.5"/>
<polygon class="st25" points="194.3,107.6 234,103.6 306.3,100.3 233.4,106.3 194.1,113.5 "/>
<polygon class="st25" points="433.4,118 400.2,112 394.1,110.9 322.3,101.8 394.5,113.6 433.1,123.9 "/>
<polygon class="st25" points="399.9,106.6 394.5,100.2 402,106.6 402.6,113.7 399.9,113 "/>
<path class="st28" d="M378.4,77"/>
<path class="st28" d="M223.2,80.2l-31.3,0.7l-1.3,4.3l6.4,18.2l0.3,4l29.4-3.1c0,0-27.6,2.3-28.1,1.7s0-3.2-0.5-3.8
	s-7-17.1-6.4-17.7c0.7-1,1.6-1.7,2.7-2.1C195.9,82,223.2,80.2,223.2,80.2z"/>
<polygon class="st28" points="232.4,106.5 197.6,112.8 198.6,126.4 211.4,138.2 244.6,132.8 271.6,132.8 244.6,131.2 212.5,136.1 
	200.7,125.3 198.6,113.6 "/>
<polygon class="st28" points="439.2,104.2 424.8,85 414.4,83.6 411.5,83.3 382.9,80.1 373.2,79 377,78.9 385.5,78.7 391.7,78.5 
	415.2,77.8 426,80.2 "/>
<polygon class="st28" points="438,121 431.2,117.8 402.6,113 402,106.6 394.5,100.2 402.6,106.6 403.1,112.5 431,116.8 "/>
<path class="st28" d="M382.6,111.7l11.9,1.9l37.5,6.3l-1.6,13c0,0-1.1-7.5-1.6-7.5s-34.3-10.7-34.3-10.7L382.6,111.7z"/>
<polygon class="st28" points="323,132.8 371,132.8 400.8,147.4 416.4,157 402,146.2 371.5,129.6 "/>
<g class="st19">
	
		<ellipse transform="matrix(0.9905 -0.1376 0.1376 0.9905 -13.7955 33.3519)" class="st29" cx="234.3" cy="116.4" rx="14.4" ry="3.5"/>
</g>
<ellipse transform="matrix(8.263423e-02 -0.9966 0.9966 8.263423e-02 286.2449 499.5538)" class="st30" cx="414.5" cy="94.3" rx="3.5" ry="6.2"/>
<ellipse transform="matrix(7.974522e-02 -0.9968 0.9968 7.974522e-02 289.8564 511.0294)" class="st29" cx="421.7" cy="98.5" rx="1.4" ry="2.5"/>
<ellipse transform="matrix(8.263423e-02 -0.9966 0.9966 8.263423e-02 278.0736 507.6187)" class="st29" cx="414.8" cy="102.8" rx="2" ry="3.6"/>
<path class="st31" d="M290.6,89.5c0,0,72.3-2.1,80.9-1.1s24.6,5.9,24.6,5.9l-21.4-2.7L290.6,89.5z"/>
<radialGradient id="SVGID_2_" cx="358.165" cy="330.55" r="37.4035" gradientTransform="matrix(1 0 0 1 -14.76 -239.36)" gradientUnits="userSpaceOnUse">
	<stop  offset="0" style="stop-color:#B87F50;stop-opacity:0.3"/>
	<stop  offset="0.22" style="stop-color:#CAA687;stop-opacity:0.17"/>
	<stop  offset="0.46" style="stop-color:#D8C5B2;stop-opacity:8.000000e-02"/>
	<stop  offset="0.71" style="stop-color:#E0D7CC;stop-opacity:2.000000e-02"/>
	<stop  offset="1" style="stop-color:#E3DDD4;stop-opacity:0"/>
</radialGradient>
<path class="st32" d="M371.5,88.3c-7.5-0.9-64.5,0.6-78,1l-2.9,0.1v0.3l3.4,0.1l80.7,2l21.4,2.7v-0.2C396,94.1,380,89.3,371.5,88.3z
	 M374.7,91.5l-78.7-2c16.9-0.5,68.4-1.8,75.5-0.9c6.8,0.8,18.5,4.1,22.9,5.4L374.7,91.5z"/>
<g class="st33">
	<path class="st31" d="M313.1,122.7c0,0-72.3-2.1-80.9-1.1s-24.7,5.9-24.7,5.9l21.4-2.7L313.1,122.7z"/>
	
		<radialGradient id="SVGID_3_" cx="818.6201" cy="363.7518" r="37.3917" gradientTransform="matrix(-1 0 0 1 1079.03 -239.36)" gradientUnits="userSpaceOnUse">
		<stop  offset="0" style="stop-color:#B87F50;stop-opacity:0.3"/>
		<stop  offset="0.22" style="stop-color:#CAA687;stop-opacity:0.17"/>
		<stop  offset="0.46" style="stop-color:#D8C5B2;stop-opacity:8.000000e-02"/>
		<stop  offset="0.71" style="stop-color:#E0D7CC;stop-opacity:2.000000e-02"/>
		<stop  offset="1" style="stop-color:#E3DDD4;stop-opacity:0"/>
	</radialGradient>
	<path class="st34" d="M311.1,122.5c-11.9-0.3-71.1-2-78.8-1c-8.5,1.1-24.5,5.8-24.7,5.9l0.1,0.3l21.4-2.7l82.1-2.1h2v-0.3
		L311.1,122.5z M209.5,127.1c4.4-1.3,16.1-4.5,22.9-5.4c1.7-0.2,5.9-0.3,11.6-0.3c18.1,0,51,0.9,63.8,1.2l-78.7,2L209.5,127.1z"/>
</g>
<g class="st35">
	<path class="st31" d="M402,137.1c0,0-12.3-2.7-13.4-4.8s-1-10.2,1.1-11.3s23,2.1,25.7,3.8s5.4,4.8,5.4,5.9s-5.4,4.3-5.4,4.3
		s2.1-2.1,1.6-4.3c-0.5-2.4-2.4-4.3-4.8-4.8c-2.7-0.5-17.7-3.8-19.3-2.7c0,0-3.2,4.3-1.6,7c1.6,2.7,11.8,5.9,13.4,4.8
		s2.7-2.1,1.1-4.3s-10.7-2.1-10.7-2.1h12.3c0,0,2.7,3.2,2.1,4.3s-1.1,4.3-2.7,4.8S402,137.1,402,137.1z"/>
	
		<linearGradient id="SVGID_4_" gradientUnits="userSpaceOnUse" x1="402.5423" y1="368.6903" x2="435.68" y2="368.6903" gradientTransform="matrix(1 0 0 1 -14.76 -239.36)">
		<stop  offset="0" style="stop-color:#B87F50;stop-opacity:0.3"/>
		<stop  offset="0.22" style="stop-color:#CAA687;stop-opacity:0.17"/>
		<stop  offset="0.46" style="stop-color:#D8C5B2;stop-opacity:8.000000e-02"/>
		<stop  offset="0.71" style="stop-color:#E0D7CC;stop-opacity:2.000000e-02"/>
		<stop  offset="1" style="stop-color:#E3DDD4;stop-opacity:0"/>
	</linearGradient>
	<path class="st36" d="M415.5,124.7c-1.4-0.9-7.6-2.1-13.1-2.9s-11.5-1.4-12.7-0.9c-1.4,0.7-1.7,4-1.8,5.4c-0.2,2.1,0,4.1,0.7,6.1
		c1.1,2.2,12.9,4.8,13.5,4.9c1.2,0.4,2.5,0.6,3.7,0.7c0.4,0,0.8,0,1.2-0.2c1.3-0.4,1.9-2.3,2.3-3.7c0.1-0.4,0.3-0.8,0.4-1.2
		c0.6-1.1-1.9-4.1-2.2-4.4h-12.4v0.3c0.1,0,9,0,10.6,2.1c0.5,0.6,0.8,1.3,0.7,2.1c-0.1,0.8-0.8,1.3-1.8,2c-0.4,0.3-1.8,0.2-3.6-0.2
		c-3.8-0.9-8.6-2.9-9.6-4.6c-1.5-2.5,1.3-6.5,1.6-6.8c1-0.6,7.1,0.2,18.2,2.5l1,0.2c2.3,0.5,4.2,2.4,4.7,4.7c0.5,2-1.5,4.1-1.6,4.1
		l-0.8,0.8l1-0.6c0.6-0.3,5.4-3.3,5.4-4.4S418.2,126.3,415.5,124.7z M416.1,134.4c0.9-1,1.3-2.4,1.1-3.7c-0.6-2.5-2.5-4.4-4.9-4.9
		l-1-0.2c-7.3-1.5-17-3.4-18.4-2.4l0,0c-0.1,0.2-3.3,4.4-1.6,7.1c1.1,1.8,5.9,3.9,9.8,4.7c1.1,0.3,3.1,0.6,3.8,0.1
		c1-0.7,1.8-1.3,1.9-2.2c0.1-0.8-0.2-1.7-0.8-2.3c-0.8-1.1-3.4-1.6-5.8-1.9h7.3c0.8,0.9,2.5,3.3,2.1,4.1c-0.2,0.4-0.3,0.8-0.5,1.2
		c-0.4,1.3-1,3.1-2.1,3.5c-1.5,0.5-4.7-0.5-4.7-0.5l0,0c0,0-3.1-0.7-6.3-1.6c-5.3-1.5-6.7-2.5-7-3.1c-0.6-1.9-0.9-4-0.7-6
		c0.2-2.8,0.8-4.7,1.7-5.1c0.6-0.2,1.1-0.2,1.7-0.2c5.5,0,21.4,2.5,23.8,3.9c2.7,1.7,5.2,4.8,5.2,5.8
		C420.6,131.3,418.1,133.1,416.1,134.4L416.1,134.4z"/>
</g>
<path class="st37" d="M443.8,104l-3.4,20.6l-4.8-1.2c0,0-0.8,2.2-1.2,2.4c-0.4,1,0,4.8,0,4.8l-1.2,4.8c0,0-9.6,25.2-18,30l-14.4-12
	c-8.4-4.8-25.2-10.8-30.7-11.6h-54.5l-2.1-9l-1.3-5.3l-1.1-4.6v-0.4l-5.1-21.8l-0.4-0.3l0,0L294,89.7l-0.2-0.2l-0.2-0.2l-0.1-0.1
	l-7.2-6.6l-3.4-3.1l-0.1-0.1l87.5-0.8l21.4-0.2l23.5-0.7l10.8,2.4L443.8,104z"/>
<text transform="matrix(1 0 0 1 236.41 127.03)" class="st38 st39 st40">Tutorial</text>
<text transform="matrix(1 0 0 1 234.01 124.63)" class="st41 st39 st40">Tutorial</text>
<rect x="82" y="165" class="st27" width="517" height="40"/>
<text transform="matrix(1 0 0 1 84.813 178.356)"><tspan x="0" y="0" class="st42 st43">Make sure to feed the correct food to the correct animal, </tspan><tspan x="87.2" y="21.6" class="st42 st43">otherwise the animal will lose health. </tspan></text>
<path class="st17" d="M174.3,308l-1.3,7l0,0c-1.3,1.8-3.4,2.9-5.6,3c2.6-1.1,4.6-3.4,5.2-6.2c0.9-3.2-0.2-6.5-2.6-8.7
	C172.1,304,173.7,305.8,174.3,308z"/>
<g>
	<path class="st44" d="M570.3,261.7c-22.1-22.1-58-22.1-80.1,0s-22.1,58,0,80.1c22.1,22.1,58,22.1,80.1,0c10.6-10.6,16.6-25,16.6-40
		C587,286.7,581,272.3,570.3,261.7z M530.3,350.4c-26.9,0-48.7-21.8-48.7-48.7c0-26.9,21.8-48.7,48.7-48.7s48.7,21.8,48.7,48.7
		c0,12.9-5.1,25.3-14.3,34.4C555.6,345.3,543.2,350.4,530.3,350.4z"/>
	<path class="st44" d="M569.9,262c-21.9-21.9-57.4-21.9-79.3,0s-21.9,57.4,0,79.3c21.9,21.9,57.4,21.9,79.3,0
		c10.5-10.5,16.4-24.8,16.4-39.7C586.4,286.8,580.5,272.5,569.9,262z M530.3,350.9c-27.2,0-49.2-22-49.2-49.2
		c0-27.2,22-49.2,49.2-49.2c27.2,0,49.2,22,49.2,49.2c0,13.1-5.2,25.6-14.4,34.8C555.9,345.8,543.4,351,530.3,350.9L530.3,350.9z"/>
	<path class="st45" d="M569,261.7c-21.4-21.4-56.1-21.3-77.5,0.1c-21.4,21.4-21.3,56.1,0.1,77.5c21.4,21.4,56.1,21.3,77.5-0.1
		c10.3-10.3,16-24.2,16-38.7C585.1,285.9,579.3,271.9,569,261.7z M566,336.1c-19.7,19.7-51.7,19.7-71.4-0.1
		c-19.7-19.7-19.7-51.7,0.1-71.4s51.7-19.7,71.4,0.1c9.5,9.5,14.8,22.3,14.8,35.7C580.8,313.8,575.5,326.7,566,336.1L566,336.1z"/>
	<path class="st44" d="M549.6,242.4l-0.3-14.4c-7.4-8.5-7.7-21-0.6-29.8c0.8-1,1.6-1.9,2.6-2.7c9.5-8.6,24.2-7.8,32.8,1.8
		c4.2,4.7,6.3,10.9,5.9,17.2c-0.1,0.7-0.1,1.5-0.3,2.2c-0.1,0.6-0.2,1.3-0.4,1.9c-3.1,12.2-15.5,19.7-27.8,16.8L549.6,242.4z"/>
	
		<ellipse transform="matrix(8.872039e-02 -0.9961 0.9961 8.872039e-02 304.7116 758.1819)" class="st46" cx="566.7" cy="212.6" rx="20.2" ry="20.2"/>
	<path class="st45" d="M479.7,358.1h100.5c2.3,0,4.2,1.9,4.2,4.2v5.6c0,2.3-1.9,4.2-4.2,4.2H479.7c-2.3,0-4.2-1.9-4.2-4.2v-5.6
		C475.5,360,477.4,358.1,479.7,358.1z"/>
	<path class="st46" d="M582.3,363v4.3c0,1.8-1.5,3.2-3.2,3.2h-98.1c-1.8,0-3.2-1.5-3.2-3.2V363c0-1.8,1.5-3.2,3.2-3.2H579
		C580.8,359.8,582.3,361.3,582.3,363z"/>
	<path class="st47" d="M569.9,359.8V371H482c-1.8,0-4.3-2.1-4.3-4.7v-1.8c0-2.7,2.5-4.7,4.3-4.7L569.9,359.8z"/>
	<path class="st48" d="M549.6,242.4l-0.3-14.4c-4.2-4.9-6.3-11.3-5.6-17.7l46.2,4.1c-0.1,0.7-0.1,1.5-0.3,2.2
		c-0.1,0.6-0.2,1.3-0.4,1.9c-3.1,12.2-15.5,19.7-27.8,16.8L549.6,242.4z"/>
	<path class="st49" d="M574.4,283.6c-0.1,0.5-0.2,1-0.3,1.5l-4.1,55l-0.6,3.1c0,0.9-0.7,1.6-1.6,1.6l0,0h-72.7
		c-0.5,0-0.9-0.2-1.2-0.6c-0.2-0.3-0.3-0.6-0.3-0.9l-0.6-3.1l-3.9-53.9c-0.2-1-0.4-2.1-0.7-3.1c-5.4-5.8-9.2-15.2-7.6-20.7l4.8-20.3
		c0-1.3,0.8-2.5,2.1-3h0.1c0.4-0.1,0.7-0.2,1.1-0.2c4.7,0,13.8,10.1,13.8,18.1v14.7l0,0c7.7-6.3,17.3-9.9,27.2-10.2h1h1.3
		c10.2,0.1,20.1,3.7,28,10.2h0.4v-14.7c0-4,2.3-8.5,5.2-12s6.3-6.1,8.6-6.1c1.8,0,3.3,1.5,3.3,3.3l4.8,20.3
		C584.2,267.9,580.1,277.8,574.4,283.6z"/>
	<path class="st50" d="M496.4,342.8l-0.3-1.4l-4-53.9v-0.1c-0.2-1-0.4-2.1-0.7-3.5l-0.2-0.9l-0.7-0.7c-2.5-2.7-4.4-5.8-5.8-9.2
		c-1.2-3.1-1.6-6-1.1-7.8v-0.1l4.1-26.3c1.1,0.5,6.1,2.7,8.3,5.5c2.6,3.2,4.9,7.4,4.9,10l0.3,20.2c0,0,10.9-12.8,29.2-12.6
		c20.1,0.2,31.4,12.8,31.4,12.8l1-19.3c0-2.7,1.8-6.6,4.3-9.8c2.3-2.6,5.1-4.7,8.2-6.4l4.4,26v0.1c0.5,1.8,0.1,4.8-1.2,8.1
		c-1.4,3.5-3.4,6.7-6,9.4l-0.9,0.9l-0.2,1.2c-0.1,0.4-0.1,0.8-0.2,1.2l-0.1,0.3l-4.2,55.1l-0.3,1.4L496.4,342.8z"/>
	<path class="st51" d="M565.7,283.7h-0.3h-0.2h-0.7l0.9-28.6c0.1-2.7,1.8-6.4,4.4-9.7c2.4-3,4.6-4.3,5.6-4.8l4.2,21.7v0.1
		c0.4,1.6,0.1,4-0.9,6.8c-1.1,3.1-2.7,6-4.6,8.6C571.3,281.5,568,283.8,565.7,283.7z"/>
	<path class="st51" d="M497.7,283.7h0.3h0.2h0.7l-0.9-28.6c-0.1-2.7-1.8-6.4-4.4-9.7c-2.4-3-4.6-4.3-5.6-4.8l-4.2,21.7v0.1
		c-0.4,1.6-0.1,4,0.9,6.8c1.1,3.1,2.7,6,4.6,8.6C492.1,281.5,495.4,283.8,497.7,283.7z"/>
	<path class="st17" d="M537.7,337c0,2.9-3,5.2-6.7,5.2c-3.7,0-6.7-2.3-6.7-5.2c0-0.7,0.2-1.4,0.5-2c0.1,2.6,2.8,4.7,6.2,4.7
		s6.2-2.1,6.2-4.7C537.5,335.6,537.7,336.3,537.7,337z"/>
	<ellipse class="st52" cx="531.7" cy="293" rx="34.7" ry="26.9"/>
	<ellipse class="st53" cx="532" cy="280.4" rx="25.4" ry="12.5"/>
	<path class="st1" d="M531,341.8c-3.9,0-7.1-2.5-7.1-5.5c0-0.8,0.2-1.5,0.6-2.2l0.1-0.2c0.1-0.5,0.1-1.5,0.3-2.7
		c1.3-12.6,3-36.7,6.1-36.7s4.8,24,6.1,36.7c0.1,1.1,0.2,2.1,0.3,2.7l0.1,0.2c0.4,0.7,0.6,1.4,0.6,2.2
		C538.1,339.3,534.9,341.8,531,341.8z"/>
	<path class="st13" d="M537.7,336.3c0,2.9-3,4.7-6.7,4.7c-3.7,0-6.7-1.8-6.7-4.7c0-0.7,0.2-1.4,0.5-2c0.1,2.6,2.8-39.6,6.2-39.6
		s6.2,42.2,6.2,39.6C537.5,334.9,537.7,335.6,537.7,336.3z"/>
	<path class="st46" d="M531,336.8c-2.5,0-4.7-1.4-4.7-3.1c0-0.2,0-0.3,0.1-0.5c0.2-0.3,0.4-0.7,0.5-1.1c0-0.2,0.1-0.4,0.1-0.7
		c0.1-0.6,0.2-1.3,0.4-2.3c0.5-2.9,1.1-7.1,1.5-11c0.3-3.6,1.7-21.4,2.1-22.5c0.4,1.1,1.8,18.9,2.1,22.3c0.4,3.9,1.1,8.4,1.5,11.2
		c0.2,1,0.3,1.8,0.4,2.3c0.1,0.3,0.1,0.6,0.1,0.7c0.1,0.4,0.3,0.8,0.5,1.1c0,0.2,0.1,0.3,0.1,0.5C535.7,335.4,533.5,336.8,531,336.8
		z"/>
	<path class="st49" d="M544.4,335c-5.3-4.5-5.9-12.5-1.4-17.7c4.5-5.3,12.5-5.9,17.7-1.4c5.3,4.5,5.9,12.5,1.4,17.7
		c-0.3,0.3-0.6,0.6-0.9,0.9l-1,0.9l-1.2-0.5c-0.3-0.1-0.7-0.3-1-0.4c-1.4-0.4-2.9-0.5-4.3-0.5h-0.4c-2.5,0-5,0.6-7.2,1.8l-1.1,0.5
		L544.4,335z"/>
	<path class="st49" d="M552.6,314.1c-6.3,0-11.4,5.1-11.4,11.4c0,3.4,1.5,6.6,4.1,8.8l0.2,0.2h-0.1l0.2,0.3c2.4-1.2,5.1-1.8,7.7-1.9
		c1.7,0,3.4,0.2,5,0.6c0.4,0.1,0.8,0.3,1.2,0.4l0.5,0.2l0.4-0.4c2.3-2.1,3.5-5.1,3.5-8.2C563.9,319.1,558.8,314.1,552.6,314.1z"/>
	<path class="st49" d="M517.2,335.8c-2.2-1.1-4.7-1.7-7.2-1.8h-0.3c-1.5,0-2.9,0.2-4.3,0.5c-0.4,0.1-0.7,0.2-1,0.4l-1.2,0.5l-1-0.9
		c-2.5-2.4-3.9-5.7-3.9-9.1c0-7,5.6-12.6,12.6-12.6c7,0,12.6,5.6,12.6,12.6c0,3.7-1.6,7.2-4.4,9.6l-0.7,1.3L517.2,335.8z"/>
	<path class="st49" d="M510.7,314.1c-6.3,0-11.4,5.1-11.4,11.4c0,3.1,1.3,6.1,3.5,8.2l0.4,0.4l0.5-0.2c0.4-0.2,0.8-0.3,1.2-0.4
		c1.6-0.4,3.3-0.6,5-0.6c2.7,0,5.3,0.7,7.7,1.9l0.2-0.3h-0.1l0.2-0.2c4.9-4,5.5-11.2,1.5-16C517.3,315.6,514.1,314.1,510.7,314.1
		L510.7,314.1z"/>
	<path class="st17" d="M545.3,334.2c-4.8-4-5.5-11.2-1.5-16c4-4.8,11.2-5.5,16-1.5c4.8,4,5.5,11.2,1.5,16c-0.3,0.3-0.6,0.7-0.9,1
		l-0.4,0.4l-0.5-0.2c-1.4-0.5-2.8-0.9-4.2-1.1c-0.6-0.1-1.2-0.1-1.9-0.1c-2.5,0-4.9,0.5-7.2,1.6l-0.5,0.3L545.3,334.2z"/>
	<path class="st11" d="M552.7,315.6c-5.8,0-10.5,4.7-10.5,10.5c0,3.1,1.4,6.1,3.8,8.1c2.3-1.2,4.9-1.8,7.6-1.8c0.7,0,1.3,0,2,0.1
		c1.5,0.2,3,0.5,4.4,1.1c4.2-4,4.3-10.7,0.3-14.9C558.3,316.8,555.6,315.6,552.7,315.6L552.7,315.6z"/>
	<path class="st12" d="M563.2,326.1c0,2.9-1.2,5.6-3.2,7.6c-1.4-0.6-2.9-0.9-4.4-1.1l-13.1-8.6c1.2-5.7,6.8-9.3,12.4-8.2
		C559.8,316.9,563.3,321.1,563.2,326.1L563.2,326.1z"/>
	<path class="st13" d="M559.6,332.1c-1.2-0.4-2.4-0.7-3.6-0.8l-12-7.9c1.5-4.8,6.7-7.5,11.5-6c3.8,1.2,6.4,4.7,6.4,8.7
		C561.9,328.3,561.1,330.5,559.6,332.1z"/>
	<path class="st54" d="M557.2,325.1c-1.2-0.1-2.1-0.6-2.1-1.1c0-0.4,0.5-0.7,1.2-0.9c-2.4-3.7-7.3-4.8-11-2.4
		c-1.3,0.8-2.3,2-2.9,3.3c-0.8,3.8,0.6,7.7,3.6,10.2c2.3-1.2,4.9-1.8,7.6-1.8c0.7,0,1.3,0,2,0.1C557.4,330.5,558,327.7,557.2,325.1
		L557.2,325.1z"/>
	<path class="st55" d="M546.2,333c-2.4-2.2-3.4-5.5-2.8-8.7c1.2-2.4,3.5-3.9,6.2-3.9c2,0,6.4,9.9,5.5,11.1c-0.5,0-1-0.1-1.5-0.1
		C551,331.5,548.5,332,546.2,333z"/>
	<path class="st51" d="M545.6,334.7l-0.2-0.3c2.5-1.2,5.2-1.9,7.9-1.9c2.3-0.1,4.6,0.3,6.8,1.1l-0.1,0.3
		C555.3,332.2,550.1,332.5,545.6,334.7z"/>
	<path class="st56" d="M551.5,320.4c-0.3,0.2,0.2,0.9,0.3,1.2s2.1,2.9,2.2,3.8c0.2,0.9,1.4,3.6,1.6,4.3s0.7,0.3,0.7,0.3
		c0.3-0.9,0.5-1.8,0.5-2.8c-0.3-0.7-0.8-1.4-1.4-1.9c-0.3-0.3-1.2-1.2-1.2-1.9c0.1-0.9-0.3-1.7-1-2.2
		C552.4,320.8,551.9,320.3,551.5,320.4z"/>
	<circle class="st17" cx="549.4" cy="327" r="5.3"/>
	<g class="st18">
		<circle class="st7" cx="554.1" cy="327.2" r="1.7"/>
	</g>
	<g class="st19">
		<circle class="st7" cx="551.3" cy="328.9" r="0.9"/>
	</g>
	<path class="st17" d="M518,334.2c4.8-4,5.5-11.2,1.5-16c-4-4.8-11.2-5.5-16-1.5c-4.8,4-5.5,11.2-1.5,16c0.3,0.3,0.6,0.7,0.9,1
		l0.4,0.4l0.5-0.2c1.4-0.5,2.8-0.9,4.2-1.1c0.6-0.1,1.2-0.1,1.9-0.1c2.5,0,4.9,0.5,7.2,1.6l0.5,0.3L518,334.2z"/>
	<path class="st11" d="M510.6,315.6c5.8,0,10.5,4.7,10.5,10.5c0,3.1-1.4,6.1-3.8,8.1c-2.3-1.2-4.9-1.8-7.6-1.8c-0.7,0-1.3,0-2,0.1
		c-1.5,0.2-3,0.5-4.4,1.1c-4.2-4-4.3-10.7-0.3-14.9C505,316.8,507.7,315.6,510.6,315.6L510.6,315.6z"/>
	<path class="st12" d="M500,326.1c0,2.9,1.2,5.6,3.2,7.6c1.4-0.6,2.9-0.9,4.4-1.1l13.1-8.6c-1.2-5.7-6.8-9.3-12.4-8.2
		C503.5,316.9,500,321.1,500,326.1L500,326.1z"/>
	<path class="st13" d="M503.6,332.1c1.2-0.4,2.4-0.7,3.6-0.8l12.1-7.9c-1.5-4.8-6.7-7.5-11.5-6c-3.8,1.2-6.4,4.7-6.4,8.7
		C501.4,328.3,502.2,330.5,503.6,332.1z"/>
	<path class="st54" d="M506.1,325.1c1.2-0.1,2.1-0.6,2.1-1.1c0-0.4-0.5-0.7-1.2-0.9c2.4-3.7,7.3-4.8,11-2.4c1.3,0.8,2.3,2,2.9,3.3
		c0.8,3.8-0.6,7.8-3.6,10.2c-2.3-1.2-4.9-1.8-7.6-1.8c-0.7,0-1.3,0-2,0.1C505.9,330.6,505.3,327.7,506.1,325.1L506.1,325.1z"/>
	<path class="st55" d="M517.1,333c2.4-2.2,3.4-5.5,2.8-8.7c-1.2-2.4-3.5-3.9-6.2-3.9c-2,0-6.4,9.9-5.5,11.1c0.5,0,1-0.1,1.5-0.1
		C512.3,331.5,514.8,332,517.1,333z"/>
	<path class="st51" d="M517.7,334.7c-4.5-2.2-9.7-2.5-14.4-0.8l-0.1-0.3c2.2-0.8,4.5-1.2,6.8-1.1c2.7,0,5.4,0.7,7.9,1.9L517.7,334.7
		z"/>
	<path class="st56" d="M511.8,320.4c0.3,0.2-0.2,0.9-0.3,1.2s-2.1,2.9-2.2,3.8c-0.2,0.9-1.4,3.6-1.6,4.3s-0.7,0.3-0.7,0.3
		c-0.3-0.9-0.5-1.8-0.5-2.8c0.3-0.7,0.8-1.4,1.4-1.9c0.3-0.3,1.2-1.2,1.2-1.9c-0.1-0.9,0.3-1.7,1-2.2
		C510.9,320.8,511.4,320.3,511.8,320.4z"/>
	<circle class="st17" cx="513.8" cy="327" r="5.3"/>
	<g class="st18">
		<circle class="st7" cx="509.2" cy="327.2" r="1.7"/>
	</g>
	<g class="st19">
		<circle class="st7" cx="511.9" cy="328.9" r="0.9"/>
	</g>
	<ellipse class="st57" cx="510.4" cy="336.6" rx="7" ry="2.6"/>
	<ellipse class="st57" cx="553.3" cy="336.6" rx="7" ry="2.6"/>
	<path class="st58" d="M574.4,283.6c-0.1,0.5-0.2,1-0.3,1.5l-4.1,55l-0.6,3.1c0,0.9-0.7,1.6-1.5,1.6c0,0,0,0,0,0h-14.3
		c0,0.1,0,0.2,0,0.3c0,0.1,0,0.3,0,0.4H530v-84.2h2.3c10.2,0.1,20.1,3.7,28,10.2h0.4v-14.7c0-4,2.3-8.5,5.2-12s6.3-6.1,8.6-6.1
		c1.8,0,3.3,1.5,3.3,3.3l4.8,20.3C584.2,267.9,580.1,277.8,574.4,283.6z"/>
	<path class="st59" d="M554.2,202.8c0,0-1.1,0.2-0.8,1.9c0.3,1.7,3.6,10.7,2.5,11.7c-1.1,1-2,2.7-0.2,3.7c1.8,1,1,3.7,1.3,4.9
		c0.4,1.2-1.1,2.1,1,2.9c2,0.8,19-3.9,19.7-3.6c0.8,0.3,0.6-4.4,0.4-4.6c-0.2-0.8,0-1.7,0.5-2.3c0.7-0.6-1.6-5.9-1.7-6.7
		c-0.1-0.8-1.4-6.9-1.8-7.3s-1.2-0.8-0.9-0.9s-0.1-2.9-0.4-3.1c-0.7-1-1.3-2.1-1.7-3.3c-0.1-0.4-1.2,0.5-1.4,0.6
		c-0.2,0-0.8-0.4-1.2,0.1c-0.4,0.5-1.3,1.2-1.6,1c-0.3-0.2-0.2-0.4-0.5-0.6c-0.9-0.2-1.8-0.3-2.7-0.1c-0.8,0.2-1.6,0.5-2.4,0.9
		c-0.3,0.3-0.5,1.3-0.8,0.9c-0.3-0.4,0.4-0.7-1-0.8c-1.4,0-2.3-0.4-1.6,0.5s-0.8,0-0.9,0.3s-0.7,0.8-0.6,1.3c0.1,0.5-0.7,0-1.2,0.1
		c-0.5,0.1-1,0.6-0.9,1s-0.4,0.4-0.7,0.6C554.4,202,555.1,202.6,554.2,202.8z"/>
	<path class="st60" d="M554.4,203.1c0,0-1.1,0.2-0.8,1.9c0.3,1.7,3.6,10.7,2.5,11.7c-1.1,1-2,2.7-0.2,3.7s1,3.7,1.3,4.9
		c0.4,1.2-1.1,2.1,1,2.9c2,0.8,19-3.9,19.7-3.6c0.8,0.3,0.6-4.4,0.4-4.6c-0.2-0.8,0-1.7,0.5-2.3c0.7-0.6-1.6-5.9-1.7-6.7
		c-0.1-0.8-1.4-6.9-1.8-7.3c-0.4-0.4-1.2-0.8-0.9-0.9s-0.1-2.9-0.4-3.1c-0.7-1-1.3-2.1-1.7-3.3c-0.1-0.4-1.2,0.5-1.4,0.6
		c-0.2,0-0.8-0.4-1.2,0.1c-0.4,0.5-1.3,1.2-1.6,1s-0.2-0.4-0.5-0.6c-0.9-0.2-1.8-0.3-2.7-0.1c-0.8,0.2-1.6,0.6-2.4,1
		c-0.3,0.3-0.5,1.3-0.8,0.9c-0.3-0.4,0.4-0.7-1-0.8c-1.4,0-2.3-0.4-1.6,0.5c0.8,0.8-0.8,0-0.9,0.3c-0.1,0.3-0.7,0.8-0.6,1.3
		c0.1,0.5-0.7,0-1.2,0.1c-0.5,0.1-1,0.6-0.9,1c0.1,0.3-0.4,0.4-0.7,0.6C554.6,202.3,555.3,202.9,554.4,203.1z"/>
	<path class="st61" d="M554.3,203.4c0,0-1.1,0.2-0.8,1.9s3.6,10.7,2.5,11.7c-1.1,1-2,2.7-0.2,3.7s1,3.7,1.3,4.9
		c0.4,1.2-1.1,2.1,1,2.9c2,0.8,19-3.9,19.7-3.6c0.8,0.3,0.6-4.4,0.4-4.6c-0.2-0.8,0-1.7,0.5-2.3c0.7-0.6-1.6-5.9-1.7-6.7
		c-0.1-0.8-1.4-6.9-1.8-7.3s-1.2-0.8-0.9-0.9s-0.1-2.9-0.4-3.1c-0.7-1-1.3-2.1-1.7-3.3c-0.1-0.4-1.2,0.5-1.4,0.6
		c-0.2,0-0.8-0.4-1.2,0.1c-0.4,0.5-1.3,1.2-1.6,1c-0.3-0.2-0.2-0.4-0.5-0.6c-0.9-0.2-1.8-0.3-2.7-0.1c-0.8,0.2-1.6,0.6-2.4,1
		c-0.3,0.3-0.5,1.3-0.8,0.9c-0.3-0.4,0.4-0.7-1-0.8c-1.4,0-2.3-0.4-1.6,0.5s-0.8,0-0.9,0.3c-0.1,0.3-0.7,0.8-0.6,1.3
		c0.1,0.5-0.7,0-1.2,0.1c-0.5,0.1-1,0.6-0.9,1s-0.4,0.4-0.7,0.6C554.5,202.7,555.2,203.2,554.3,203.4z"/>
	<path class="st62" d="M560.1,211.6c0,0-1,1,0.3,2.8c1.3,1.8,0.1,4.9,0.4,5.9s1,2.6,1,2.6s2.4,2.1,2,0.9c-0.4-1.2-1.1-2.4-0.7-3.6
		c0.7-1.6,0.8-3.4,0.2-5C562.5,212.8,562.1,211.3,560.1,211.6z"/>
	<path class="st63" d="M562,202.3c0,0,1.6,3.5,1.7,4.6c0,1-0.2,1.9-0.4,2.9c0,0,2.5-2.7,1.6-4.3C564,203.9,563.5,202.2,562,202.3z"
		/>
	<path class="st64" d="M569.7,203.1c0,0,1.1,3.2,1.8,4.7c0.7,1.6,0.2,1.5,0.7,2.7c0.5,1.1,1.3,0.1,1.1-1.6c-0.2-1.7,1.1-0.8,1-2.1
		s0.2-2.1-0.6-2.1c-0.8,0-0.9,0.2-1.4-0.9c-0.5-1.1-0.3-1.2-0.9-1.4c-0.7-0.2-1-0.7-1.1-0.2C570.1,202.7,570.2,203.5,569.7,203.1z"
		/>
	<path class="st62" d="M567.4,215.7c0,0,1.7,0.3,1.5,1.2c-0.1,0.5-0.2,1-0.2,1.5c0.1,0.5,0.1,1.9,0.5,1.3c0.3-0.6,0.7-0.7,0.7-1.6
		c0-0.9,0.3-1.3,0.4-1.2c0.2,0.1,0.4,1.3,0.6,1.6s-0.4,1.8-0.4,1.9c0,0.2-0.4,1.5-0.2,1.6s1.1-0.2,1-0.9c-0.2-0.8-0.2-1.7-0.2-2.5
		c0.2-0.4,0.5,0,0.4-1.3c-0.2-1.3,0.7-1.7,0.5-2.2s-1.4-2.1-1.5-2.5c-0.2-0.4,0.1-1.2-0.6-1.8c-0.4-0.5-1-0.9-1.5-1.2
		c-1.3-0.8-1.8-2.9-1.6-0.8c0.2,2,1.9,4.5,1.9,4.7C568.4,214.3,567.9,215,567.4,215.7z"/>
	<path class="st64" d="M560,212.9c0,0-1.6,0.5-1.1,1.9c0.5,1.4-1.3,3.5-1.3,3.8c0,0.3,0.7,3.3,0.7,3.3s-0.3,0.6,0.1-1.1
		c0.3-1.1,0.8-2.2,1.4-3.2c0.2-0.3-0.4-1.6,0.1-2.8C560.5,213.5,560,212.9,560,212.9z"/>
	<path class="st65" d="M555.4,211.1c0.3,0.3,0.8,0.4,1.2,0.2c0.6-0.3,1,0.5,1,0.8c0,0.3-0.6,1.3-0.6,1.3l-1,0.2
		C555.8,212.8,555.5,212,555.4,211.1z"/>
	<path class="st64" d="M557.2,201.2c0,0-0.6-0.1-0.1,1.7c0.4,1.2,0.5,2.4,0.4,3.6c-0.2,0.7-0.4,1.3-0.4,2c0.1,0.6,1.2,2.4,1,1
		s-0.2-1.7-0.2-2.4c0-0.8,0.1-1.6,0.3-2.4C558.4,204,558.2,199.6,557.2,201.2z"/>
	<path class="st62" d="M567.2,198.4c0.2,0.6,0.5,1.2,0.8,1.8c0.4,0.5,0.6,1.1,0.7,1.7c0.1,0.9,0.7,0.6,0.7,0.1s0.6-1.2,0-1.3
		c-0.6-0.1-0.7,0.1-0.8-0.5c-0.1-0.6,0.1-1.1-0.3-1.2s-0.6,0-0.6-0.2C567.8,198.6,567.6,197.5,567.2,198.4z"/>
	<path class="st27" d="M572.4,214.4c-0.4,0.4-0.6,1.1-0.3,1.7c0.5,0.9-0.2,2.4,0.5,1.4c0.8-1,0.6-0.8,0.2-1.8
		C572.5,214.7,572.6,214.4,572.4,214.4z"/>
	<path class="st65" d="M576.5,218.9c0.2,0.3,0.3,0.6,0.4,0.9c0,0.2,0,1.8,0.4,1.2c0.4-0.3,0.5-0.9,0.3-1.4c-0.1-0.7-1.2-1.4-1.2-0.9
		L576.5,218.9z"/>
	<path class="st64" d="M565.3,225c1.1-0.3,1.8-0.6,1.9-0.5c0.1,0.1,1.2,0.5,0.4,0.6c-0.8,0.1-1,0.7-1.6,0.9c-0.7,0.2-2.4,0.9-2,0.3
		C564.4,225.8,564.8,225.4,565.3,225z"/>
	<g class="st66">
		<path class="st67" d="M576.9,210.6c-0.1-0.8-1.4-6.9-1.8-7.3s-1.2-0.8-0.9-0.9s-0.1-2.9-0.4-3.1c-0.7-1-1.3-2.1-1.7-3.3
			c-0.1-0.4-1.2,0.5-1.4,0.6s-0.8-0.4-1.2,0.1c-0.4,0.5-1.3,1.2-1.6,1c-0.3-0.2-0.2-0.4-0.5-0.6c-0.9-0.2-1.8-0.3-2.7-0.1
			c-0.3,0.1-1.2,0.4-1.8,0.6c1,9.7,2.7,19.2,5,28.7c4.7-1.1,9.4-2.2,9.7-2.1c0.8,0.3,0.6-4.4,0.4-4.6c-0.2-0.8,0-1.7,0.5-2.3
			C579.3,216.7,577,211.4,576.9,210.6z"/>
		<path class="st68" d="M577.1,210.9c-0.1-0.8-1.4-6.9-1.8-7.3s-1.2-0.8-0.9-0.9c0.3-0.1-0.1-2.9-0.4-3.1c-0.7-1-1.3-2.1-1.7-3.3
			c-0.1-0.4-1.2,0.5-1.4,0.6s-0.8-0.4-1.2,0.1c-0.4,0.5-1.3,1.2-1.6,1c-0.3-0.2-0.2-0.4-0.5-0.6c-0.9-0.2-1.8-0.3-2.7-0.1
			c-0.3,0.1-1.3,0.4-1.9,0.7c1,9.7,2.7,19.2,5.1,28.6c4.8-1.1,9.5-2.2,9.9-2.1c0.8,0.3,0.6-4.4,0.4-4.6c-0.2-0.8,0-1.7,0.5-2.3
			C579.5,217,577.2,211.7,577.1,210.9z"/>
		<path class="st69" d="M577,211.2c-0.1-0.8-1.4-6.9-1.8-7.3s-1.2-0.8-0.9-0.9c0.3-0.1-0.1-2.9-0.4-3.1c-0.7-1-1.3-2.1-1.7-3.3
			c-0.1-0.4-1.2,0.5-1.4,0.6s-0.8-0.4-1.2,0.1c-0.4,0.5-1.3,1.2-1.6,1c-0.3-0.2-0.2-0.4-0.5-0.6c-0.9-0.2-1.8-0.3-2.7-0.1
			c-0.3,0.1-1.2,0.4-1.8,0.6c1,9.7,2.7,19.2,5.1,28.7c4.7-1.1,9.3-2.2,9.7-2.1c0.8,0.3,0.6-4.4,0.4-4.6c-0.2-0.8,0-1.7,0.5-2.3
			C579.4,217.3,577.1,212,577,211.2z"/>
		<path class="st70" d="M564.9,205.4c-0.4-0.8-0.8-1.6-1.3-2.3c0.2,1.8,0.5,3.5,0.8,5.3C564.9,207.5,565.4,206.3,564.9,205.4z"/>
		<path class="st71" d="M569.7,203.1c0,0,1.1,3.2,1.8,4.7c0.7,1.6,0.2,1.5,0.7,2.7c0.5,1.1,1.3,0.1,1.1-1.6c-0.2-1.7,1.1-0.8,1-2.1
			c-0.1-1.3,0.2-2.1-0.6-2.1s-0.9,0.2-1.4-0.9c-0.5-1.1-0.3-1.2-0.9-1.4c-0.7-0.2-1-0.7-1.1-0.2S570.2,203.5,569.7,203.1z"/>
		<path class="st72" d="M567.3,215.7c0,0,1.7,0.3,1.5,1.2c-0.1,0.5-0.2,1-0.2,1.5c0.1,0.5,0.1,1.9,0.5,1.3s0.7-0.7,0.7-1.6
			c0-0.9,0.3-1.3,0.4-1.2s0.4,1.3,0.6,1.6c0.2,0.3-0.4,1.8-0.4,1.9c0,0.2-0.4,1.5-0.2,1.6s1.1-0.2,1-0.9c-0.2-0.8-0.2-1.7-0.2-2.5
			c0.2-0.4,0.5,0,0.4-1.3c-0.2-1.3,0.7-1.7,0.5-2.2c-0.2-0.5-1.4-2.1-1.5-2.5s0.1-1.2-0.6-1.8c-0.4-0.5-1-0.9-1.5-1.2
			c-1.3-0.8-1.8-2.9-1.6-0.8c0.2,2,1.9,4.5,1.9,4.7C568.4,214.3,567.9,215,567.3,215.7z"/>
		<path class="st72" d="M567.2,198.4c0.2,0.6,0.5,1.2,0.8,1.8c0.4,0.5,0.6,1.1,0.7,1.7c0.1,0.9,0.7,0.6,0.7,0.1s0.6-1.2,0-1.3
			c-0.6-0.1-0.7,0.1-0.8-0.5c-0.1-0.6,0.1-1.1-0.3-1.2s-0.6,0-0.6-0.2C567.8,198.6,567.5,197.5,567.2,198.4z"/>
		<path class="st27" d="M572.4,214.4c-0.4,0.4-0.6,1.1-0.3,1.7c0.5,0.9-0.2,2.4,0.5,1.4c0.8-1,0.6-0.8,0.2-1.8
			C572.5,214.7,572.5,214.4,572.4,214.4z"/>
		<path class="st73" d="M576.5,218.9c0.2,0.3,0.3,0.6,0.4,0.9c0,0.2,0,1.8,0.4,1.2c0.4-0.3,0.5-0.9,0.3-1.4
			c-0.1-0.7-1.2-1.4-1.2-0.9L576.5,218.9z"/>
		<path class="st64" d="M567.5,224.7l0.1,0.5l0,0C568.2,225.1,567.8,224.8,567.5,224.7z"/>
	</g>
</g>
<g>
	<g>
		<path class="st44" d="M151.1,258.3c-22.9-22.9-60.1-22.9-83,0s-22.9,60.1,0,83s60.1,22.9,83,0c11-11,17.2-25.9,17.2-41.5
			C168.4,284.2,162.2,269.3,151.1,258.3z M109.6,350.2c-27.9,0-50.4-22.6-50.4-50.5c0-27.9,22.6-50.4,50.5-50.4
			c27.9,0,50.4,22.6,50.4,50.5c0,13.4-5.3,26.2-14.8,35.6C135.9,344.9,123,350.3,109.6,350.2z"/>
		<path class="st44" d="M150.7,258.7c-22.7-22.7-59.5-22.7-82.2,0c-22.7,22.7-22.7,59.5,0,82.2c22.7,22.7,59.5,22.7,82.2,0
			c10.9-10.9,17-25.7,17-41.1C167.8,284.3,161.7,269.6,150.7,258.7z M109.7,350.8c-28.2,0-51-22.8-51-51c0-28.2,22.8-51,51-51
			c28.2,0,51,22.8,51,51c0,13.5-5.4,26.5-14.9,36.1C136.2,345.4,123.2,350.8,109.7,350.8L109.7,350.8z"/>
		<path class="st45" d="M149.8,258.3c-22.2-22.1-58.1-22.1-80.3,0.1c-22.1,22.2-22.1,58.1,0.1,80.3c22.2,22.1,58.1,22.1,80.3-0.1
			c10.6-10.7,16.6-25.1,16.6-40.1C166.5,283.4,160.5,268.9,149.8,258.3z M146.6,335.5c-20.5,20.4-53.6,20.4-74-0.1
			c-20.4-20.5-20.4-53.6,0.1-74s53.6-20.4,74,0.1c9.8,9.8,15.3,23.1,15.3,37C162,312.3,156.5,325.7,146.6,335.5L146.6,335.5z"/>
	</g>
	<path class="st74" d="M163.7,279.1c-0.5,0.7-1,1.4-1.6,2l-2.5,14.4l-0.8,4.6l-1,5.3l-1.2,6.7l0,0l-1,5.5l-0.4,2.1l-0.3,1.7
		l-1.2,6.3l-0.3,1.8l-1.3,6.8v0.4l0,0l-0.4,2.4l0,0v0.1l-0.6,3.3c0,0.9-0.8,1.7-1.7,1.7h-80c-0.5,0-1-0.2-1.4-0.7
		c-0.2-0.3-0.4-0.6-0.4-1l-0.7-3.4l-0.4-2.3l-1.4-7.1l-0.3-1.8l-1.2-6.3l-0.3-1.7l-0.4-2.1l-1-5.5l0,0l-1.2-6.7l-1-5.4l-3.3-19
		c-7.3-7.1-4.2-24.1,20.3-16.4h1c8.8-7.1,19.8-11,31.1-11h1.4c11.2,0.1,22,4,30.7,11h1.1c3.5-1.1,7.1-1.8,10.8-1.9l0,0
		C165.5,262.7,167.6,272.7,163.7,279.1z"/>
	<path class="st75" d="M69.3,343.2l-0.7-3.6l-0.4-2.3l-1.3-7.2l-0.4-1.8c0,0-5-20.9-5.1-28c-0.1-5,3-19.7,3-19.7l-6.8-0.6
		c-2.7-2.7-3.6-6.6-2.3-10.2c1.4-3.4,5-5.2,10.1-5.2c3.6,0.1,7.1,0.7,10.5,1.8l0.3,0.1h1.9l0.5-0.4c8.5-6.9,19.1-10.7,30.1-10.8h0.8
		c11,0,21.6,3.8,30.1,10.8l0.5,0.4h1.9l0.3-0.1c3.4-1.1,6.9-1.8,10.5-1.8c4.8,0,8.1,1.5,9.8,4.4c1.5,2.9,1.3,6.5-0.5,9.2
		c-0.4,0.6-0.8,1.2-1.4,1.7l-6.2-0.4c0,0,2.6,15.5,2.4,20.7c-0.2,7.1-5.2,28-5.2,28l-0.3,1.8l-1.3,7l-0.5,2.5l-0.6,3.5L69.3,343.2z"
		/>
	<path class="st76" d="M121.7,344H95.4c2.6-3.3,7.5-5.5,13.2-5.5C114.2,338.5,119.1,340.7,121.7,344z"/>
	<path class="st77" d="M121.7,344H95.4c2.6-2.6,7.5-4.4,13.2-4.4C114.2,339.6,119.1,341.4,121.7,344z"/>
	<path class="st17" d="M116,335.4c0,3.1-3.3,5.7-7.4,5.7s-7.4-2.6-7.4-5.7c0-0.8,0.2-1.5,0.6-2.2c0,2.9,3.1,5.2,6.8,5.2
		c3.8,0,6.8-2.3,6.8-5.2C115.8,333.9,115.9,334.7,116,335.4z"/>
	<path class="st78" d="M116,334.7c0,3.1-3.3,5.7-7.4,5.7s-7.4-2.6-7.4-5.7c0-0.8,0.2-1.5,0.6-2.2c0,2.9,3.1,5.2,6.8,5.2
		c3.8,0,6.8-2.3,6.8-5.2C115.8,333.2,115.9,333.9,116,334.7z"/>
	<ellipse class="st79" cx="109.2" cy="291.5" rx="40.7" ry="31.6"/>
	<path class="st17" d="M120,272.2c4.5,0.9,9-1.3,11-5.4c-2.7,2.6-6.6,3.7-10.3,3c-4.3-0.6-7.9-3.6-9.2-7.8
		C111.5,267.1,115.1,271.4,120,272.2z"/>
	<path class="st80" d="M164.4,273.1c-0.2,1.5-0.7,2.9-1.5,4.2c-0.6,0.9-1.4,1.7-2.3,2.4c-2.1,1.7-4.8,2.6-7.5,2.6
		c-0.4,0-0.8,0-1.3-0.1c-2.1-0.2-4-1-5.6-2.3c-0.9-0.7-1.8-1.6-2.4-2.6l-0.2-0.3c-0.6-0.9-1-1.9-1.2-2.9c0.6,0.9,1.3,1.6,2,2.3
		c1.2,1,2.6,1.8,4.1,2.3c1.4,0.5,2.9,0.8,4.4,0.8c1.8,0,3.6-0.3,5.2-0.9c1.5-0.6,2.8-1.4,3.9-2.4C163,275.4,163.8,274.3,164.4,273.1
		z"/>
	<path class="st80" d="M76.2,273.7c-0.3,2.3-1.4,4.4-3.1,6c-1.8,1.7-4.1,2.8-6.6,3.1c-0.5,0.1-1.1,0.1-1.6,0.1c-3,0-5.8-1.2-8-3.3
		c-0.6-0.6-1.1-1.3-1.5-2c-0.5-0.9-0.9-1.8-1.2-2.7c0.4,0.7,1,1.3,1.5,1.8c0.8,0.7,1.6,1.3,2.6,1.8c4.1,2.2,9.1,2.2,13.2,0
		c1.1-0.6,2.1-1.4,3-2.3C75.2,275.4,75.7,274.6,76.2,273.7z"/>
	<path class="st17" d="M119.3,281.1c4.4,0.9,8.9-1.3,10.9-5.4c-2.7,2.6-6.6,3.7-10.3,3c-4.3-0.6-7.9-3.6-9.2-7.8
		C110.7,276,114.3,280.3,119.3,281.1z"/>
	<path class="st17" d="M119.9,290.7c4.4,0.9,8.9-1.3,10.9-5.4c-2.7,2.6-6.6,3.7-10.3,3c-4.3-0.6-7.9-3.6-9.2-7.8
		C111.3,285.6,114.9,289.9,119.9,290.7z"/>
	<path class="st17" d="M96.9,271.6c-4.4,0.9-8.9-1.3-10.9-5.4c2.7,2.6,6.6,3.7,10.3,3c4.3-0.6,7.9-3.6,9.2-7.8
		C105.5,266.5,101.9,270.9,96.9,271.6z"/>
	<path class="st17" d="M97.6,280.5c-4.4,0.9-8.9-1.3-10.9-5.4c2.7,2.6,6.6,3.8,10.3,3.1c4.3-0.6,7.9-3.6,9.2-7.8
		C106.2,275.4,102.6,279.7,97.6,280.5z"/>
	<path class="st81" d="M97.8,331.3c0-0.4-0.1-0.8-0.3-1.2c4.3-6.4,2.6-14.9-3.8-19.2s-14.9-2.6-19.2,3.8c-0.1,0.2-0.2,0.4-0.4,0.6
		c-0.5,0-0.9-0.2-1.3-0.4c-0.3-0.4-0.5-0.9-0.4-1.4V313l-2.3-0.5l-0.2,0.4c-0.7,1.7-0.5,3.7,0.5,5.2c0.4,0.5,1,1.2,2,2.2
		c-0.1,0.7-0.2,1.4-0.2,2.1c0,3.8,1.5,7.4,4.3,10l1.1,1l1.4-0.5c1.4-0.6,2.8-0.9,4.3-1.1c0.6-0.1,1.3-0.1,1.9-0.1
		c2.5,0,5,0.5,7.3,1.7l1.3,0.7l0.7-0.5l2.7,1.5l0.4,0.3l1.5-2l-0.3-0.3C98.3,332.6,97.9,331.9,97.8,331.3z"/>
	<path class="st81" d="M120.7,331.3c0-0.4,0.1-0.8,0.3-1.2c-4.4-6.3-2.8-14.9,3.5-19.3c6.3-4.4,14.9-2.8,19.3,3.5
		c0.2,0.3,0.4,0.6,0.6,1c0.5,0,0.9-0.2,1.3-0.4c0.3-0.4,0.5-0.9,0.4-1.4V313l2.3-0.5l0.2,0.4c0.7,1.7,0.5,3.7-0.5,5.2
		c-0.4,0.5-1,1.2-2,2.2c0.1,0.7,0.2,1.4,0.2,2.1c0,3.8-1.5,7.4-4.3,10l-1.1,1l-1.4-0.5c-1.4-0.6-2.8-0.9-4.3-1.1
		c-0.6-0.1-1.3-0.1-1.9-0.1c-2.5,0-5,0.5-7.3,1.7l-1.3,0.7l-0.7-0.5l-2.7,1.5l-0.4,0.3l-1.5-2l0.4-0.4
		C120.2,332.5,120.5,331.9,120.7,331.3z"/>
	<path class="st17" d="M97,290.1c-4.4,0.9-8.9-1.3-10.9-5.4c2.7,2.6,6.6,3.7,10.3,3c4.3-0.6,7.9-3.6,9.2-7.8
		C105.6,285,102,289.3,97,290.1z"/>
	<path class="st17" d="M120.5,334.3c0,0,1.5-1.4,1.3-2.7c-0.2-1.3,19.5-13.7,19.5-13.7s3.5,0.6,4.9-0.5c0.6-0.6,0.9-1.4,0.9-2.3
		c0.5,1.2,0.4,2.5-0.4,3.6c-0.7,0.9-2.8,2.8-2.8,2.8S122,333.4,120.5,334.3z"/>
	<path class="st17" d="M124.3,332.5c-2.8-1.9-4.5-5-4.6-8.4c0-0.7,0.1-1.5,0.3-2.2c1.2-5,6.4-8.7,12.3-8.7c6.9,0,12.5,4.9,12.5,10.9
		c0,3.1-1.4,5.9-3.8,7.8l-0.4,0.4l-0.6-0.2c-1.5-0.5-3-0.8-4.6-1c-0.7,0-1.4-0.1-2-0.1c-2.7,0-5.4,0.5-7.9,1.5l-0.5,0.2L124.3,332.5
		z"/>
	<path class="st11" d="M132.4,314.6c-5.6,0-10.3,3.5-11.3,8.1c-0.2,0.7-0.2,1.4-0.2,2c0.1,3.1,1.6,6.1,4.2,7.8
		c2.6-1.1,5.5-1.7,8.3-1.7c0.7,0,1.4,0,2.2,0.1c1.7,0.2,3.3,0.5,4.9,1.1c2.2-1.8,3.5-4.5,3.6-7.3C144,319.1,138.8,314.6,132.4,314.6
		z"/>
	<path class="st12" d="M144,324.8c0,2.8-1.4,5.5-3.6,7.3c-1.6-0.6-3.2-0.9-4.9-1.1l-14.4-8.2c1.1-4.6,5.7-8,11.3-8
		C138.8,314.7,144,319.2,144,324.8z"/>
	<path class="st13" d="M140.1,330.5c-1.3-0.4-2.6-0.6-4-0.8l-13.2-7.6c1.6-3.8,5.4-6.3,9.6-6.2c5.5,0,10.1,3.9,10.1,8.8
		C142.5,327,141.6,329,140.1,330.5z"/>
	<path class="st11" d="M137.4,323.1c-1.3-0.1-2.3-0.6-2.3-1.1c0-0.5,0.5-0.7,1.3-0.9c-1.7-2.4-4.4-3.8-7.3-3.8
		c-3.3-0.1-6.4,1.8-7.9,4.7c-0.2,0.7-0.2,1.4-0.2,2.2c0,3.3,1.6,6.4,4.2,8.4c2.6-1.2,5.5-1.8,8.3-1.8c0.7,0,1.4,0,2.2,0.1
		c1.4-1.5,2.2-3.4,2.2-5.4C137.8,324.6,137.7,323.8,137.4,323.1z"/>
	<path class="st82" d="M125.3,331.3c-2.1-1.8-3.2-4.4-3.3-7.1c0-0.6,0.1-1.2,0.2-1.8c1.4-2.5,4-4,6.8-4c2.2,0,7,10.2,6,11.4h-1.7
		C130.6,329.7,127.9,330.3,125.3,331.3z"/>
	<path class="st83" d="M124.6,332.9l-0.2-0.3c2.7-1.4,5.7-2.1,8.7-2.1c2.5-0.1,5,0.4,7.4,1.2l-0.1,0.4
		C135.2,330.2,129.5,330.5,124.6,332.9L124.6,332.9z"/>
	<path class="st84" d="M131,318.3c-0.4,0.2,0.2,0.9,0.4,1.2c0.9,1.2,1.8,2.5,2.5,3.9c0.2,0.9,1.5,3.7,1.7,4.4c0,0.3,0.2,0.5,0.5,0.4
		c0.1,0,0.2,0,0.2-0.1c0.4-0.9,0.5-1.9,0.6-2.8c-0.4-0.8-0.9-1.4-1.5-1.9c-0.4-0.4-1.3-1.2-1.3-1.9c0.1-0.9-0.4-1.8-1.1-2.3
		C132.1,318.7,131.5,318.2,131,318.3z"/>
	<ellipse class="st17" cx="128.8" cy="325.1" rx="5.9" ry="5.5"/>
	<g class="st18">
		<ellipse class="st7" cx="134" cy="325.2" rx="1.9" ry="1.8"/>
	</g>
	<g class="st19">
		<circle class="st7" cx="130.9" cy="326.5" r="1"/>
	</g>
	<path class="st17" d="M133.4,300L133.4,300c-3.6-1.3-7.7,0.5-9,4.1c-0.5,1.4-0.6,2.8-0.2,4.2L133.4,300z"/>
	<path class="st17" d="M134.5,308.6L134.5,308.6c-2-2.4-5.6-2.7-8-0.7c-0.9,0.7-1.5,1.7-1.8,2.8L134.5,308.6z"/>
	<path class="st17" d="M155.1,319.2l-0.4,2.1c-2.4,0.3-4.8-0.2-6.7-1.5C150.3,320.3,152.8,320.1,155.1,319.2z"/>
	<path class="st17" d="M153.2,329.4l-0.3,1.8c-0.8-0.3-1.5-0.8-2.2-1.3c-1.2-0.9-2.1-2.1-2.7-3.5c1,1,2.2,1.8,3.5,2.4
		C152,329.1,152.6,329.2,153.2,329.4z"/>
	<path class="st17" d="M98,333.9c0,0-1.5-1.4-1.3-2.6c0.2-1.2-19.5-13.3-19.5-13.3s-3.5,0.5-4.9-0.5c-0.6-0.6-0.9-1.4-0.9-2.2
		c-0.5,1.1-0.4,2.5,0.4,3.5c0.7,0.9,2.8,2.7,2.8,2.7S96.5,333.1,98,333.9z"/>
	<path class="st17" d="M94.1,332.2c2.8-1.9,4.5-5,4.6-8.3c0-0.7-0.1-1.5-0.3-2.2c-1.2-5-6.4-8.6-12.3-8.6c-6.9,0-12.5,4.8-12.5,10.8
		c0,3,1.5,5.9,3.9,7.8L78,332l0.6-0.2c1.5-0.5,3-0.8,4.6-1c0.7,0,1.4-0.1,2-0.1c2.7,0,5.4,0.5,7.9,1.5l0.5,0.2L94.1,332.2z"/>
	<path class="st11" d="M86,314.4c5.6,0,10.3,3.4,11.3,8c0.2,0.7,0.2,1.3,0.2,2c-0.1,3.1-1.6,6-4.2,7.7c-2.6-1.1-5.4-1.7-8.3-1.6
		c-0.7,0-1.4,0-2.2,0.1c-1.7,0.2-3.3,0.5-4.9,1.1c-2.2-1.8-3.5-4.4-3.6-7.3C74.5,318.9,79.7,314.4,86,314.4z"/>
	<path class="st12" d="M74.5,324.5c0,2.8,1.4,5.5,3.6,7.2c1.6-0.5,3.2-0.9,4.9-1l14.4-8.2c-1.1-4.6-5.7-8-11.3-8
		C79.7,314.5,74.5,319,74.5,324.5z"/>
	<path class="st13" d="M78.5,330.2c1.3-0.4,2.6-0.6,4-0.8l13.3-7.5c-1.6-3.8-5.4-6.3-9.6-6.2c-5.5,0-10.1,3.9-10.1,8.7
		C76,326.6,76.9,328.7,78.5,330.2z"/>
	<path class="st11" d="M81.1,323c1.3-0.1,2.3-0.6,2.3-1.1c0-0.5-0.5-0.7-1.3-0.9c1.7-2.4,4.5-3.7,7.4-3.7c3.3-0.1,6.3,1.7,7.9,4.6
		c0.2,0.7,0.2,1.4,0.2,2.1c0,3.2-1.6,6.3-4.2,8.1c-2.6-1.2-5.5-1.8-8.3-1.7c-0.7,0-1.4,0-2.2,0.1c-1.4-1.4-2.2-3.3-2.2-5.3
		C80.8,324.5,80.9,323.7,81.1,323z"/>
	<path class="st82" d="M93.2,331c2-1.7,3.2-4.2,3.3-6.9c0-0.6-0.1-1.2-0.2-1.8c-1.4-2.4-4-3.9-6.8-3.9c-2.2,0-7,10-6,11.1h1.7
		C87.9,329.4,90.7,330,93.2,331z"/>
	<path class="st83" d="M93.9,332.9c-4.9-2.4-10.6-2.7-15.8-0.9l-0.1-0.4c2.4-0.9,4.9-1.3,7.4-1.3c3,0,6,0.8,8.7,2.1L93.9,332.9z"/>
	<path class="st84" d="M87.4,318.3c0.4,0.2-0.2,0.9-0.4,1.2c-0.9,1.2-1.8,2.5-2.5,3.8c-0.2,0.9-1.5,3.7-1.7,4.3
		c0,0.3-0.2,0.5-0.5,0.4c-0.1,0-0.2,0-0.2-0.1c-0.3-0.9-0.5-1.8-0.6-2.7c0.4-0.7,0.9-1.4,1.5-1.9c0.4-0.4,1.3-1.2,1.3-1.9
		c-0.1-0.9,0.4-1.8,1.1-2.2C86.5,318.7,87,318.2,87.4,318.3z"/>
	<ellipse class="st17" cx="89.7" cy="324.9" rx="5.9" ry="5.4"/>
	<g class="st18">
		<circle class="st7" cx="84.6" cy="324.6" r="1.9"/>
	</g>
	<g class="st19">
		<circle class="st7" cx="87.6" cy="326.5" r="1"/>
	</g>
	<path class="st17" d="M63.2,320.1l0.4,1.9c2.3,0.3,4.7-0.2,6.7-1.4C68,321.2,65.5,321,63.2,320.1z"/>
	<path class="st17" d="M65.1,329.4l0.3,1.8c0.8-0.3,1.5-0.8,2.2-1.3c1.2-0.9,2.2-2.1,2.8-3.5c-1,1-2.2,1.8-3.5,2.4
		C66.4,329.1,65.7,329.2,65.1,329.4z"/>
	<path class="st17" d="M60.9,306.8l1.2,6.8l0,0c1.3,1.8,3.3,2.9,5.5,3c-2.6-1.1-4.5-3.3-5-6c-0.8-3.1,0.2-6.4,2.6-8.5
		C63.1,302.8,61.5,304.6,60.9,306.8z"/>
	<path class="st17" d="M87.1,300.1L87.1,300.1c3.7-1.1,7.6,1.1,8.7,4.8c0.4,1.4,0.3,2.8-0.1,4.1L87.1,300.1z"/>
	<path class="st17" d="M85.4,308.5L85.4,308.5c2.2-2.3,5.8-2.3,8-0.2c0.8,0.8,1.4,1.8,1.6,2.9L85.4,308.5z"/>
	<circle class="st85" cx="94" cy="328.5" r="1.8"/>
	<circle class="st85" cx="87.1" cy="328.2" r="1.9"/>
	<circle class="st85" cx="83.9" cy="328.8" r="1.9"/>
	
		<ellipse transform="matrix(0.3603 -0.9328 0.9328 0.3603 -249.5703 295.2733)" class="st85" cx="90.5" cy="329.6" rx="1.9" ry="1.9"/>
	<circle class="st85" cx="94.1" cy="330.9" r="1.5"/>
	<rect x="107.9" y="340.8" class="st17" width="1" height="3.2"/>
	<path class="st86" d="M163.7,279.4c-0.5,0.5-1.1,0.9-1.6,1.3l-1.8,9.6l-1.9-1c0,0-3.8-5.3-6.7-7.1l-0.4-0.2c-2.5-1.2-6.6-4-7.7-4.7
		l-0.3-0.2l0.1-0.1l0.8-0.6c1.2,1,2.6,1.8,4.1,2.3c1.4,0.5,2.9,0.8,4.4,0.8c1.8,0,3.6-0.3,5.2-0.9c1.5-0.6,2.8-1.4,3.9-2.4l0,0
		c0.3,0.3,0.5,0.6,0.7,1C163.1,278,163.4,278.7,163.7,279.4z"/>
	<ellipse class="st87" cx="85.9" cy="335.1" rx="7.7" ry="2.8"/>
	<ellipse class="st87" cx="133.1" cy="335.1" rx="7.7" ry="2.8"/>
	<path class="st86" d="M74.9,276.7c-2.6,2.1-5.2,4.1-8,5.9l-0.5,0.2c-2.8,2.1-6.6,8.5-6.6,8.5l-1.8,0.5l-1.7-10.9
		c-0.6-0.4-1.2-1-1.6-1.5c0.2-0.6,0.4-1.2,0.6-1.8c0.1-0.3,0.3-0.6,0.4-0.9c0.8,0.7,1.6,1.3,2.6,1.8c4.1,2.2,9.1,2.2,13.2,0
		c1.1-0.6,2.1-1.4,3-2.3L74.9,276.7z"/>
	<g class="st88">
		<path class="st89" d="M164,279l-0.1,0.2c-0.5,0.7-1,1.4-1.6,2l-2.4,14.2v0.1l-0.8,4.6l-1,5.3l-0.3,1.5l-1,5.1l0,0l-0.4,2.1
			l-0.7,3.4l-0.4,1.9v0.2l-0.3,1.7v0.2l-1.2,6.1l-0.3,1.8l0,0l-0.3,1.7l0,0l-1,5.1l0.2,0.1l0,0l-0.4,2.4l0,0l-0.2,0.1l-0.7,3.2
			c0,0.9-0.8,1.7-1.7,1.7h-40.3v-90.1h1.4c11.1,0.1,21.9,4,30.6,11h0.9c3.6-1.2,7.3-1.9,11.1-1.9l0,0C165.5,263,167.8,272.7,164,279
			z"/>
	</g>
	<circle class="st17" cx="114.4" cy="341.9" r="0.6"/>
	<circle class="st17" cx="118.4" cy="341.9" r="0.6"/>
	<circle class="st17" cx="118.4" cy="338.9" r="0.6"/>
	<circle class="st17" cx="122.4" cy="341.9" r="0.6"/>
	<circle class="st17" cx="95.3" cy="341.9" r="0.6"/>
	<circle class="st17" cx="99.3" cy="341.9" r="0.6"/>
	<circle class="st17" cx="99.3" cy="338.9" r="0.6"/>
	<circle class="st17" cx="103.2" cy="341.9" r="0.6"/>
	<path class="st90" d="M75.3,329.2h10.2c0.8,0,1.4,0.6,1.4,1.4v2c0,0.8-0.6,1.4-1.4,1.4H75.3c-0.8,0-1.4-0.6-1.4-1.4v-2
		C73.8,329.8,74.5,329.2,75.3,329.2z"/>
	<path class="st90" d="M135.8,329.4h10.8c0.8,0,1.4,0.6,1.4,1.4v2c0,0.8-0.6,1.4-1.4,1.4h-10.8c-0.8,0-1.4-0.6-1.4-1.4v-2
		C134.3,330,135,329.4,135.8,329.4z"/>
	<circle class="st85" cx="124.8" cy="328.7" r="1.8"/>
	<circle class="st85" cx="131.7" cy="328.4" r="1.9"/>
	<circle class="st85" cx="134.9" cy="329" r="1.9"/>
	
		<ellipse transform="matrix(0.9328 -0.3603 0.3603 0.9328 -110.2092 68.3809)" class="st85" cx="128.3" cy="329.8" rx="1.9" ry="1.9"/>
	<circle class="st85" cx="124.7" cy="331.1" r="1.5"/>
	<path class="st44" d="M89.3,239.8l0.3-15c7.7-8.8,7.9-21.8,0.6-30.9c-0.8-1-1.7-1.9-2.7-2.8c-9.9-8.9-25.1-8.1-33.9,1.8
		c-4.4,4.9-6.6,11.3-6.1,17.8c0.1,0.8,0.1,1.5,0.3,2.3c0.1,0.6,0.2,1.3,0.4,1.9c3.3,12.7,16.1,20.4,28.8,17.4L89.3,239.8z"/>
	
		<ellipse transform="matrix(0.996 -8.963770e-02 8.963770e-02 0.996 -18.4841 7.3178)" class="st46" cx="72.2" cy="209.5" rx="21" ry="21"/>
	<path class="st45" d="M63.8,357.6h104.1c2.4,0,4.4,2,4.4,4.4v5.8c0,2.4-2,4.4-4.4,4.4H63.8c-2.4,0-4.4-2-4.4-4.4V362
		C59.4,359.6,61.4,357.6,63.8,357.6z"/>
	<path class="st46" d="M170,362.7v4.4c0,1.9-1.5,3.4-3.4,3.4H65c-1.9,0-3.4-1.5-3.4-3.4v-4.4c0-1.9,1.5-3.4,3.4-3.4h101.6
		C168.5,359.4,170,360.9,170,362.7z"/>
	<path class="st47" d="M73,359.4V371H62.2c-0.2,0-0.5-2.2-0.5-4.9v-1.8c0-2.7,0.3-4.9,0.5-4.9L73,359.4z"/>
	<path class="st48" d="M89.3,239.8l0.3-15c4.4-5,6.5-11.7,5.8-18.3l-47.9,4.3c0.1,0.8,0.1,1.5,0.3,2.3c0.1,0.6,0.2,1.3,0.4,1.9
		c3.3,12.7,16.1,20.4,28.8,17.4L89.3,239.8z"/>
	<path class="st91" d="M57.1,196.1c0,0,7.6-1.3,9.1,3.1c1.7,2.4,1.1,3,1.1,3l-3-1.1C61.1,201.1,58.2,199.1,57.1,196.1z"/>
	<path class="st91" d="M88.4,196.4c0,0-7.6-1.3-9.1,3.1c-1.7,2.4-1.1,3-1.1,3l2.9-1.1C84.3,201.5,87.3,199.4,88.4,196.4z"/>
	<path class="st91" d="M72.8,196.1c-4.8,0.4-8.8,3.9-9.7,8.7c-0.4,1.9-1.2,4.6-0.7,7.6c-1,1.1-5.9,7.3,0.5,11s16.4,4.2,20.8-0.8
		c4.4-5,0.8-8.9-0.7-10.1c0.4-2.5,0.2-5.1-0.4-7.6C81.7,201.3,77.7,196.2,72.8,196.1z"/>
	<path class="st91" d="M78.6,213.5c0,1.6-2,3-5.4,3c-3.4,0-6.2-1.3-6.2-2.9s2.4-3.3,5.8-3.3S78.6,211.8,78.6,213.5z"/>
	<ellipse class="st91" cx="69" cy="205" rx="1.2" ry="2.4"/>
	<ellipse class="st91" cx="76.8" cy="205" rx="1.2" ry="2.4"/>
	<ellipse class="st91" cx="70.5" cy="212.6" rx="2.1" ry="1.1"/>
	<ellipse class="st91" cx="76.9" cy="205.6" rx="0.8" ry="1.6"/>
	<ellipse class="st91" cx="69.1" cy="205.6" rx="0.8" ry="1.6"/>
	<ellipse class="st91" cx="69.3" cy="206.2" rx="0.5" ry="1"/>
	<ellipse class="st91" cx="77" cy="206.2" rx="0.5" ry="1"/>
	<path class="st91" d="M88.3,196.4c0,0-7.6-1.3-9.1,3.1c-1.7,2.4-1.1,3-1.1,3l2.9-1.1C84.3,201.5,87.2,199.4,88.3,196.4z"/>
	<path class="st91" d="M74,226.4c3.9,0,7.5-1.2,9.7-3.7c4.4-5,0.8-8.9-0.7-10.1c0.4-2.5,0.2-5.1-0.4-7.6c-1.1-3.8-5.1-8.9-9.9-9"/>
	<path class="st91" d="M73.4,210.2c3.1,0.2,5.3,1.6,5.3,3.2s-1.9,2.9-5.1,3"/>
	<ellipse class="st91" cx="76.7" cy="205" rx="1.2" ry="2.4"/>
	<ellipse class="st91" cx="76.9" cy="205.6" rx="0.8" ry="1.6"/>
	<ellipse class="st91" cx="77" cy="206.2" rx="0.5" ry="1"/>
	<path class="st92" d="M56.4,196.1c0,0,7.6-1.3,9.1,3.1c1.7,2.4,1.1,3,1.1,3l-2.9-1.1C60.4,201.2,57.5,199.1,56.4,196.1z"/>
	<path class="st92" d="M87.7,196.4c0,0-7.6-1.3-9.1,3.1c-1.7,2.4-1.1,3-1.1,3l2.9-1.1C83.7,201.5,86.6,199.4,87.7,196.4z"/>
	<path class="st93" d="M72.2,196.1c-4.8,0.4-8.8,3.9-9.7,8.7c-0.4,1.9-1.2,4.6-0.7,7.6c-1,1.1-5.9,7.3,0.5,11s16.4,4.2,20.8-0.8
		c4.4-5,0.8-8.9-0.7-10.1c0.4-2.5,0.2-5.1-0.4-7.6C81,201.3,77,196.2,72.2,196.1z"/>
	<path class="st94" d="M78,213.5c0,1.6-2,3-5.4,3c-3.4,0-6.2-1.3-6.2-2.9s2.4-3.3,5.8-3.3S78,211.8,78,213.5z"/>
	<ellipse class="st46" cx="68.3" cy="205" rx="1.2" ry="2.4"/>
	<ellipse class="st46" cx="76.1" cy="205" rx="1.2" ry="2.4"/>
	<ellipse class="st95" cx="69.8" cy="212.6" rx="2.1" ry="1.1"/>
	<ellipse class="st96" cx="76.3" cy="205.6" rx="0.8" ry="1.6"/>
	<ellipse class="st96" cx="68.4" cy="205.6" rx="0.8" ry="1.6"/>
	<ellipse cx="68.6" cy="206.2" rx="0.5" ry="1"/>
	<ellipse cx="76.4" cy="206.2" rx="0.5" ry="1"/>
	<path class="st61" d="M87.6,196.4c0,0-7.6-1.3-9.1,3.1c-1.7,2.4-1.1,3-1.1,3l2.9-1.1C83.6,201.5,86.5,199.4,87.6,196.4z"/>
	<path class="st92" d="M73.3,226.4c3.9,0,7.5-1.2,9.7-3.7c4.4-5,0.8-8.9-0.7-10.1c0.4-2.5,0.2-5.1-0.4-7.6c-1.1-3.8-5.1-8.9-9.9-9"
		/>
	<path class="st61" d="M72.7,210.2c3.1,0.2,5.3,1.6,5.3,3.2s-1.9,2.9-5.1,3"/>
	<ellipse class="st46" cx="76" cy="205" rx="1.2" ry="2.4"/>
	<ellipse class="st97" cx="76.2" cy="205.6" rx="0.8" ry="1.6"/>
	<ellipse cx="76.3" cy="206.2" rx="0.5" ry="1"/>
</g>
<polygon class="st98" points="135.4,233.1 120,209.5 151.6,208.1 146.3,216.3 232.5,256 228,263 141.8,223.3 "/>
<polygon class="st98" points="500.7,223.3 414.6,263 410,256 496.2,216.3 490.9,208.1 522.5,209.5 507.1,233.1 "/>
<text transform="matrix(1 0 0 1 196.51 287.8176)" class="st99"><tspan x="0" y="0" class="st98 st39 st100">The animal will ask for </tspan><tspan x="0" y="25.2" class="st98 st39 st100">the correct type of food. </tspan></text>
</svg>
