<?xml version="1.0" encoding="utf-8"?>
<!-- Generator: Adobe Illustrator 21.0.2, SVG Export Plug-In . SVG Version: 6.00 Build 0)  -->
<svg version="1.1" id="Layer_1" xmlns="http://www.w3.org/2000/svg" xmlns:xlink="http://www.w3.org/1999/xlink" x="0px" y="0px"
	 viewBox="0 0 631.5 386.6" style="enable-background:new 0 0 631.5 386.6;" xml:space="preserve">
<style type="text/css">
	.st0{fill:#A8A8A8;}
	.st1{fill:#B5B5B5;}
	.st2{fill:#C6C6C6;}
	.st3{fill:#D3D3D3;}
	.st4{fill:#DDDDDD;}
	.st5{fill:#CECECE;}
	.st6{fill:#EAE8E8;}
	.st7{fill:#EFEFEF;}
	.st8{opacity:0.35;fill:url(#SVGID_1_);enable-background:new    ;}
	.st9{fill:#E5E5E5;}
	.st10{fill:#9B9A9A;}
	.st11{fill:#495750;}
	.st12{fill:#CCCCCC;}
	.st13{fill:#E8E8E8;}
	.st14{fill:#249DAA;}
	.st15{fill:#1B6D6B;}
	.st16{fill:#2BD0D8;}
	.st17{fill:#2B2B2B;}
	.st18{opacity:0.74;}
	.st19{opacity:0.41;}
	.st20{fill:#F9B9B9;}
	.st21{fill:#EAEAEA;}
	.st22{fill:#A3A3A3;}
	.st23{fill:#C1BFBF;}
	.st24{fill:#784418;}
	.st25{fill:#492812;}
	.st26{fill:#86502A;}
	.st27{fill:none;}
	.st28{fill:#B87F50;}
	.st29{fill:#5D3B20;}
	.st30{fill:#683F29;}
	.st31{fill:#5C2F0B;}
	.st32{fill:url(#SVGID_2_);}
	.st33{opacity:0.76;}
	.st34{fill:url(#SVGID_3_);}
	.st35{opacity:0.7;}
	.st36{fill:url(#SVGID_4_);}
	.st37{opacity:0.43;fill:#212121;enable-background:new    ;}
	.st38{opacity:0.56;fill:#1E0404;enable-background:new    ;}
	.st39{font-family:'GROBOLD';}
	.st40{font-size:42px;}
	.st41{fill:#F4F2F2;}
	.st42{fill:#009999;}
	.st43{fill:#00B7B2;}
	.st44{fill:#FFFFFF;}
	.st45{fill:#FF3366;}
	.st46{opacity:0.35;fill:#232323;enable-background:new    ;}
	.st47{fill:#384948;}
	.st48{fill:#465B5A;}
	.st49{fill:#262E26;}
	.st50{fill:#526664;}
	.st51{fill:#5A6D6B;}
	.st52{fill:#AD6123;}
	.st53{fill:#874616;}
	.st54{fill:#E57929;}
	.st55{fill:#997373;}
	.st56{opacity:0.34;fill:#253332;enable-background:new    ;}
	.st57{fill:#42210B;}
	.st58{fill:#603813;}
	.st59{fill:#754C24;}
	.st60{opacity:0.5;fill:#603813;enable-background:new    ;}
	.st61{opacity:0.5;fill:#A67C52;enable-background:new    ;}
	.st62{opacity:0.5;fill:#8C6239;enable-background:new    ;}
	.st63{opacity:0.5;fill:#42210B;enable-background:new    ;}
	.st64{opacity:0.4;}
	.st65{fill:#301709;}
	.st66{fill:#512D10;}
	.st67{fill:#56351A;}
	.st68{opacity:0.5;fill:#936C4A;enable-background:new    ;}
	.st69{opacity:0.5;fill:#775132;enable-background:new    ;}
	.st70{opacity:0.5;fill:#472910;enable-background:new    ;}
	.st71{opacity:0.5;fill:#2B1407;enable-background:new    ;}
	.st72{fill:#D36318;}
	.st73{fill:#F4731C;}
	.st74{fill:#D8D8D8;}
	.st75{fill:#EDEDED;}
	.st76{fill:#FF9292;}
	.st77{fill:#F27D2F;}
	.st78{fill:#724720;}
	.st79{fill:#BC5D1D;}
	.st80{fill:#33493E;}
	.st81{fill:#84572F;}
	.st82{fill:#686B72;}
	.st83{opacity:0.3;fill:#1DCAF2;enable-background:new    ;}
	.st84{opacity:0.69;fill:#724720;enable-background:new    ;}
	.st85{fill:#EF874D;}
	.st86{opacity:0.34;}
	.st87{fill:#512600;}
	.st88{fill:#1DCAF2;}
	.st89{fill:#3D240E;}
	.st90{fill:#A67C52;}
	.st91{fill:#C69C6D;}
	.st92{fill:#8C6239;}
	.st93{fill:#E6E6E6;}
	.st94{fill:#39B54A;}
	.st95{fill:#009245;}
	.st96{fill:#13BC13;}
	.st97{font-size:21px;}
	.st98{fill:#D31616;}
	.st99{font-size:20px;}
	.st100{font-family:'MyriadPro-Regular';}
	.st101{font-size:18px;}
</style>
<title>tut2desktop</title>
<path class="st0" d="M329.4,87l-2.3,23.8c-0.2,1.6-1.5,2.7-3.1,2.6c-15.1,0.4-28.6-3-39-11.3c-1-0.9-1.9-1.9-2.6-3.1l0.8-8.8
	c0.2-1.6,1.5-2.7,3.1-2.6c13.1,1.7,27,1.8,40.4-3.7C328.4,84.1,329.5,85.5,329.4,87z"/>
<path class="st1" d="M346.2,81.5l-5.9-6.1c-0.8-0.7-0.8-2,0-2.7c0,0,0,0,0,0l0,0l1.4-1.3c3.1-3,8-3,11,0.1c0,0,0,0,0,0l0,0l6.2,6.3
	c0.4,0.4,0.4,0.9,0,1.3c0,0,0,0,0,0l0,0l-2.6,2.5C353.4,84.3,348.9,84.3,346.2,81.5z"/>
<path class="st2" d="M324.8,109c-0.1,0-0.2,0.1-0.3,0.1l-0.3-0.1l-0.5,0.3c-14.3,1.4-27.6-1.3-37.2-8.9c-0.6-0.6-1.2-1.2-1.7-1.9
	l0.8-8.1c0-0.3,0.2-0.5,0.5-0.5c0.1,0,0.1,0,0.2,0c17.8,2.3,28,0.3,34.2-1.4c2.2-0.6,4.4-1.4,6.6-2.2c0.1,0.1,0.2,0.3,0.2,0.5
	l-1.9,21.7C325.3,108.8,325,108.9,324.8,109z"/>
<path class="st3" d="M346.4,79.3c2.7,2.7,7,2.8,9.8,0.1l1-1l-4.6-4.7c-3-3-7.8-3.1-10.8-0.1c-0.3,0.3-0.3,0.7,0,0.9L346.4,79.3z"/>
<path class="st1" d="M292.6,95.5l2.1-8.6c1-4.2,5.2-6.7,9.4-5.7l0,0l1.9,0.5c1,0.3,1.6,1.3,1.4,2.3c0,0,0,0,0,0l0,0l-2,8.2
	c-0.9,3.8-4.8,6.1-8.6,5.2l-3.5-0.8C292.8,96.5,292.5,96,292.6,95.5C292.6,95.5,292.6,95.5,292.6,95.5L292.6,95.5z"/>
<path class="st4" d="M304.1,90.5c-0.9,3.7-4.7,6-8.4,5.1l-1.4-0.3l1.6-6.4c1-4.1,5.2-6.6,9.3-5.6c0.3,0.1,0.6,0.4,0.5,0.8
	L304.1,90.5z"/>
<path class="st5" d="M307.6,106.2l-0.5-3.6l-1-6.7l-0.4-2.5l0,0l-0.2-1.2l-0.5-3.4l-0.1-0.4l-0.2-1v-0.1l-0.8-5.2l-1-6.5l-0.4-2.5
	l-0.1-0.7c0-0.1,0-0.2-0.1-0.3c-0.1-0.1,0-0.2,0-0.2V72c0-0.2,0-0.3,0-0.5c0-0.3,0.1-0.7,0.2-1c0.2-0.5,0.4-0.9,0.8-1.3
	c0.4-0.4,0.9-0.7,1.5-0.9l28.1-7.7c0.6-0.2,1.2-0.2,1.7,0c0.5,0.1,1,0.4,1.3,0.7c0.3,0.2,0.5,0.5,0.7,0.8c0.1,0.1,0.2,0.3,0.2,0.4
	v0.1c0,0.1,0.1,0.2,0.1,0.2c0,0.1,0.1,0.2,0.1,0.3l0.3,0.6l0.9,2.3l2.1,5.2l0.2,0.5l0.1,0.3l3.6,9l0,0l0.4,0.9v0.1l3.7,9.1l1.4,3.4
	C354.3,110.4,311.9,121.9,307.6,106.2z"/>
<path class="st6" d="M310.5,107.4l-5.1-33.6c0-0.2,0-0.3-0.1-0.5c-0.1-0.5,0.2-1,0.7-1.1l28.1-7.7c0.5-0.1,1,0.2,1.1,0.6
	c0,0.2,0.1,0.3,0.2,0.5l12.7,31.5C350.2,104.5,312.5,114.8,310.5,107.4z"/>
<path class="st7" d="M330,104.1c-3.5,1-7,1.7-10.7,1.9l-5.1-29l15.5-4.3l10.4,27.5C336.9,101.9,333.5,103.2,330,104.1z"/>
<path class="st0" d="M265.6,110.9l2.6-11.9c1.2-5.8,6.9-9.4,12.7-8.2l0,0l2.6,0.6c1.4,0.3,2.3,1.7,2,3.1l0,0l-2.5,11.4
	c-1.1,5.3-6.4,8.6-11.6,7.5c0,0,0,0,0,0l0,0l-4.9-1c-0.7-0.1-1.1-0.8-1-1.5c0,0,0,0,0,0L265.6,110.9z"/>
<path class="st3" d="M281.2,103.5c-1.1,5.1-6.2,8.3-11.3,7.2l-1.9-0.4l1.9-8.8c1.2-5.7,6.8-9.3,12.5-8.1c0.5,0.1,0.8,0.6,0.7,1.1
	L281.2,103.5z"/>
<path class="st0" d="M287.8,83.7L285.4,95c-0.3,1.4-1.7,2.3-3.1,2l0,0l-2.6-0.6c-5.8-1.2-9.4-6.9-8.2-12.7l0,0l2.6-11.9
	c0.1-0.7,0.8-1.1,1.5-1c0,0,0,0,0,0l4.8,1c5.3,1.1,8.7,6.3,7.5,11.6C287.9,83.6,287.9,83.6,287.8,83.7z"/>
<path class="st3" d="M285.2,85.1c1.1-5.1-2.2-10.2-7.3-11.3l-1.9-0.4l-1.9,8.8c-1.2,5.7,2.4,11.3,8.1,12.5c0.5,0.1,1-0.2,1.1-0.7
	L285.2,85.1z"/>
<linearGradient id="SVGID_1_" gradientUnits="userSpaceOnUse" x1="304.2173" y1="85.8281" x2="304.2173" y2="75.6981" gradientTransform="matrix(0.96 -0.26 0.26 0.96 8.9 76.94)">
	<stop  offset="0" style="stop-color:#000000;stop-opacity:0"/>
	<stop  offset="1" style="stop-color:#000000"/>
</linearGradient>
<path class="st8" d="M340.7,71.5l-36.9,10.1l-1.3-8.6c0-0.1,0-0.2,0-0.3c0-0.2,0-0.4,0-0.6c-0.1-0.2-0.1-0.4-0.2-0.7l34.6-9.4
	c0.1,0.2,0.1,0.4,0.2,0.7c0.1,0.2,0.1,0.3,0.2,0.5c0.1,0.1,0.1,0.2,0.1,0.3L340.7,71.5z"/>
<path class="st5" d="M351.6,55c0.5,1.9-0.7,3.7-2.5,4.2L292,74.9c-1.8,0.6-3.8-0.5-4.4-2.3c0,0,0,0,0,0l-11.2-33.4
	c-0.1-0.3-0.1-0.7-0.1-1c-0.4-1.7-0.7-3.5-0.8-5.2l0,0c-0.1-5.6,1.5-11.2,4.7-15.9c0.6-1,1.3-1.9,2-2.8c5-6,11.7-10.4,19.3-12.5h0.1
	l0.8-0.2c8-2.3,16.5-2,24.3,0.9c1.1,0.4,2.1,0.8,3.2,1.3c5,2.5,9.2,6.4,11.9,11.4c0.8,1.5,1.5,3.2,1.9,4.9c0,0.2,0.1,0.3,0.1,0.5
	c0,0.2,0,0.1,0.1,0.2L351.6,55z"/>
<path class="st5" d="M292.6,69.7c-4.9,1.3-9.9-1.5-11.2-6.4c-1.3-4.9,1.5-9.9,6.4-11.2c4.9-1.3,9.9,1.5,11.2,6.4c0,0,0,0,0,0l0,0
	C300.3,63.4,297.5,68.4,292.6,69.7z"/>
<path class="st5" d="M345,55.4c-4.9,1.3-9.9-1.5-11.2-6.4c-1.3-4.9,1.5-9.9,6.4-11.2c4.9-1.3,9.9,1.5,11.2,6.4c0,0,0,0,0,0l0,0
	C352.7,49,349.9,54,345,55.4z"/>
<path class="st9" d="M349.4,52.4c0.3,2.4-1.1,4.6-3.3,5.5l-53,14.5c-2.2,0-4.1-1.3-4.9-3.3l-0.4-1.9L277.4,38v-0.1
	c0-0.1,0-0.1,0-0.2v-0.4l-0.1-0.4c-1.8-6.9-0.2-14.3,4.5-20.8c5.2-6.9,12.5-11.9,20.9-14.1c18-4.9,35.8,2.8,39.7,17.3l0.1,0.4v0.5
	l6,30l0,0L349.4,52.4z"/>
<ellipse transform="matrix(0.9646 -0.2639 0.2639 0.9646 -5.7992 78.7247)" class="st9" cx="290.2" cy="61" rx="7.9" ry="7.9"/>
<ellipse transform="matrix(0.9652 -0.2614 0.2614 0.9652 -0.6257 90.7515)" class="st9" cx="340.8" cy="47.7" rx="7.9" ry="7.9"/>
<path class="st10" d="M295.3,63.3c1.1-3.3-0.6-6.9-3.9-8.1c-3.3-1.1-6.9,0.6-8.1,3.9c-1.1,3.3,0.6,6.9,3.9,8.1
	c0.2,0.1,0.5,0.1,0.7,0.2l0.3,0.1l0.2-0.3c0.5-0.7,1.1-1.2,1.7-1.7c0.3-0.2,0.6-0.4,0.9-0.6c1.2-0.7,2.5-1.2,3.9-1.3h0.3L295.3,63.3
	z"/>
<path class="st11" d="M286.4,56.6c2.8-1.7,6.4-0.8,8.1,1.9c0.9,1.5,1.1,3.3,0.5,5c-1.5,0.1-2.9,0.6-4.1,1.4
	c-0.3,0.2-0.6,0.4-0.9,0.6c-0.7,0.5-1.3,1.1-1.8,1.8c-3.2-0.7-5.2-3.8-4.5-7C284.1,58.8,285,57.5,286.4,56.6z"/>
<path class="st12" d="M284.5,64.7c0.8,1.4,2.2,2.3,3.8,2.7c0.5-0.7,1.1-1.3,1.8-1.8l3.7-7.9c-2.2-2.4-5.9-2.5-8.3-0.3
	C283.4,59.2,283,62.3,284.5,64.7z"/>
<path class="st13" d="M287.9,66.5c0.4-0.5,0.9-1,1.5-1.4l3.4-7.3c-2.1-1.9-5.3-1.6-7.2,0.5c-1.5,1.7-1.7,4.1-0.5,6
	C285.8,65.3,286.8,66.1,287.9,66.5z"/>
<path class="st14" d="M287,62.4c0.5-0.4,0.8-0.9,0.7-1.1s-0.4-0.2-0.8-0.1c0-2.4,2.1-4.4,4.5-4.3c0.8,0,1.7,0.3,2.4,0.7
	c1.5,1.6,2,3.9,1.3,5.9c-1.5,0.1-2.9,0.6-4.1,1.4c-0.3,0.2-0.6,0.4-0.9,0.6C288.5,65.1,287.4,63.9,287,62.4L287,62.4z"/>
<path class="st15" d="M294.6,63c0.5-1.7,0-3.6-1.2-4.9c-1.2-0.8-2.8-0.8-4.1,0c-0.9,0.6-0.2,6.6,0.6,6.9c0.2-0.2,0.5-0.3,0.7-0.5
	C291.9,63.7,293.2,63.2,294.6,63z"/>
<path class="st10" d="M295.4,63.6c-2.7,0.3-5.3,1.7-7,3.8l-0.1-0.1c0.8-1,1.8-1.8,2.9-2.5c1.3-0.8,2.8-1.3,4.3-1.4L295.4,63.6z"/>
<path class="st16" d="M288.4,58.6c0.2,0,0.2,0.5,0.2,0.7c-0.1,0.8-0.1,1.7,0,2.5c0.2,0.5,0.4,2.1,0.5,2.5s-0.2,0.4-0.2,0.4
	s-0.9-0.8-1-1.2c-0.1-0.4,0-0.9,0.1-1.3c0.1-0.4,0.1-0.8,0-1.3c-0.3-0.4-0.3-0.9-0.2-1.4C288.1,59,288.2,58.6,288.4,58.6z"/>
<ellipse transform="matrix(0.8525 -0.5228 0.5228 0.8525 11.0534 161.2777)" class="st17" cx="291.3" cy="61.1" rx="3" ry="3"/>
<g class="st18">
	<ellipse transform="matrix(0.853 -0.5219 0.5219 0.853 9.4051 159.6944)" class="st7" cx="288.2" cy="63.2" rx="1" ry="1"/>
</g>
<g class="st19">
	<ellipse transform="matrix(0.853 -0.5219 0.5219 0.853 9.6626 160.6431)" class="st7" cx="290" cy="63.2" rx="0.5" ry="0.5"/>
</g>
<ellipse transform="matrix(0.8813 -0.4726 0.4726 0.8813 15.3768 169.9756)" class="st20" cx="346" cy="54.4" rx="2.7" ry="2"/>
<ellipse transform="matrix(0.9992 -3.996804e-02 3.996804e-02 0.9992 -2.5539 11.7488)" class="st20" cx="292.6" cy="69.7" rx="2.7" ry="2.1"/>
<path class="st10" d="M339.1,50.9c-2.5-2.4-2.6-6.4-0.2-9c2.4-2.5,6.4-2.6,9-0.2c2.5,2.4,2.6,6.4,0.2,9c-0.2,0.2-0.4,0.3-0.5,0.5
	l-0.2,0.2l-0.3-0.1c-0.7-0.4-1.5-0.6-2.3-0.8c-0.3-0.1-0.7-0.1-1-0.1c-1.4-0.1-2.7,0.1-4,0.6l-0.3,0.1L339.1,50.9z"/>
<path class="st11" d="M344,40.8c-3.2-0.2-6,2.2-6.3,5.4c-0.1,1.8,0.5,3.5,1.8,4.7c1.4-0.5,2.8-0.8,4.3-0.7c0.4,0,0.7,0.1,1.1,0.1
	c0.8,0.2,1.7,0.4,2.4,0.8c2.5-2.1,2.8-5.8,0.8-8.3C347.1,41.7,345.6,40.9,344,40.8L344,40.8z"/>
<path class="st12" d="M349.4,47c-0.1,1.6-0.9,3.1-2.1,4.1c-0.8-0.4-1.6-0.6-2.4-0.8l-7-5.3c0.9-3.1,4.1-4.9,7.2-4.1
	C347.8,41.7,349.6,44.2,349.4,47L349.4,47z"/>
<path class="st13" d="M347.2,50.3c-0.6-0.3-1.3-0.5-2-0.6l-6.3-4.9c1.1-2.6,4.1-3.8,6.7-2.6c1.9,0.8,3.2,2.8,3.1,4.9
	C348.5,48.2,348,49.4,347.2,50.3z"/>
<path class="st14" d="M346.1,46.2c-0.7-0.1-1.1-0.4-1.1-0.7s0.3-0.4,0.7-0.5c-1.2-2.1-3.9-2.9-6-1.8c-0.7,0.4-1.4,1-1.8,1.8
	c-0.6,2.1,0.1,4.4,1.6,5.8c1.4-0.5,2.8-0.8,4.3-0.7c0.4,0,0.7,0.1,1.1,0.1C346.1,49.3,346.5,47.8,346.1,46.2L346.1,46.2z"/>
<path class="st15" d="M339.7,50.2c-1.2-1.3-1.7-3.2-1.2-4.9c0.7-1.3,2.1-2,3.6-1.9c1.1,0.1,3.2,5.8,2.6,6.4c-0.3,0-0.5-0.1-0.8-0.1
	C342.5,49.6,341,49.8,339.7,50.2z"/>
<path class="st10" d="M339.3,51.1c2.6-1,5.5-1,8,0.1l0.1-0.2c-1.2-0.5-2.4-0.8-3.7-0.9c-1.5-0.1-3,0.2-4.5,0.7L339.3,51.1z"/>
<path class="st16" d="M343.1,43.5c-0.2,0.1,0.1,0.5,0.1,0.7c0.4,0.7,0.8,1.4,1.1,2.2c0.1,0.5,0.6,2.1,0.7,2.5s0.4,0.2,0.4,0.2
	c0.2-0.5,0.3-1,0.4-1.5c-0.1-0.4-0.4-0.8-0.7-1.1c-0.2-0.2-0.6-0.7-0.6-1.1c0.1-0.5-0.1-1-0.5-1.3C343.6,43.7,343.3,43.4,343.1,43.5
	z"/>
<ellipse transform="matrix(6.982913e-02 -0.9976 0.9976 6.982913e-02 271.4965 383.18)" class="st17" cx="341.2" cy="46" rx="3" ry="3"/>
<g class="st18">
	
		<ellipse transform="matrix(7.184566e-02 -0.9974 0.9974 7.184566e-02 272.4092 387.3042)" class="st7" cx="344.3" cy="47.3" rx="1" ry="1"/>
</g>
<g class="st19">
	
		<ellipse transform="matrix(7.184566e-02 -0.9974 0.9974 7.184566e-02 270.082 386.4972)" class="st7" cx="342.7" cy="48.1" rx="0.5" ry="0.5"/>
</g>
<ellipse transform="matrix(0.9646 -0.2639 0.2639 0.9646 3.8809 82.6145)" class="st5" cx="309.5" cy="26.9" rx="31.7" ry="22.7"/>
<ellipse transform="matrix(0.9646 -0.2639 0.2639 0.9646 4.1819 82.4881)" class="st4" cx="309.2" cy="25.7" rx="29.4" ry="20.6"/>
<ellipse transform="matrix(0.9646 -0.2639 0.2639 0.9646 5.493 82.0082)" class="st21" cx="308" cy="20.6" rx="22.3" ry="11.6"/>
<path class="st22" d="M293.7,65.9c4.4-0.2,8.8-0.3,13.1-0.8c1.1-0.1,2.1-0.3,3.2-0.5c0.3-0.1,0.5-0.1,0.8-0.2l0.4-0.1l0.4-0.1
	c0.5-0.2,1-0.3,1.5-0.5s1-0.4,1.5-0.6s1-0.4,1.6-0.6s1.1-0.3,1.6-0.5s1.1-0.3,1.6-0.4s1.1-0.2,1.7-0.2s1.1-0.1,1.6-0.2
	s1.1-0.2,1.6-0.3c0.5-0.1,1-0.3,1.5-0.4c2-0.7,4.1-1.6,6.1-2.4s4-1.7,6-2.7c1-0.5,2-0.9,3-1.4c0.5-0.2,1-0.5,1.5-0.8
	c0.5-0.3,1-0.5,1.4-0.8c-0.8,0.7-1.7,1.4-2.7,1.9c-0.9,0.6-1.9,1.1-2.9,1.7c-1.9,1.1-3.9,2.1-5.9,3c-1,0.5-2,0.9-3,1.4
	c-1,0.5-2,0.9-3.1,1.3c-0.5,0.2-1.1,0.4-1.6,0.5c-0.5,0.1-1.1,0.2-1.6,0.3s-1.1,0.2-1.6,0.2s-1.1,0.1-1.6,0.2s-1,0.2-1.6,0.3
	s-1,0.3-1.5,0.4s-1,0.4-1.5,0.6s-1,0.4-1.6,0.6l-1.6,0.5l-0.4,0.1l-0.2,0.1l-0.2,0.1l-0.8,0.2c-1.1,0.2-2.2,0.3-3.3,0.4
	c-2.2,0.1-4.4,0.1-6.6,0.1S295.9,66.1,293.7,65.9z"/>
<path class="st23" d="M290,47.4c3.8,2.2,8,3.5,12.4,4c2.2,0.2,4.3,0.3,6.5,0.1c2.2-0.2,4.3-0.5,6.4-1.1c2.1-0.5,4.1-1.3,6.1-2.2
	l1.5-0.7l1.4-0.8l1.4-0.8L327,45c3.6-2.5,6.6-5.7,9-9.4c-2.1,3.9-5,7.3-8.5,10c-1.8,1.3-3.7,2.5-5.7,3.4c-2,1-4.1,1.7-6.3,2.3
	c-2.2,0.6-4.4,0.9-6.6,1.1c-2.2,0.1-4.5,0-6.7-0.3C297.9,51.5,293.7,49.9,290,47.4z"/>
<path class="st23" d="M289.2,46.7c3.9,2,8.2,3.2,12.6,3.4c2.2,0.1,4.4,0,6.5-0.2c2.2-0.3,4.3-0.7,6.4-1.3c2.1-0.6,4.2-1.3,6.2-2.2
	c2-0.9,3.9-1.9,5.8-3.1c3.7-2.3,7.1-5.3,9.9-8.7c-2.5,3.7-5.7,6.9-9.4,9.4c-0.5,0.3-0.9,0.6-1.4,0.9s-1,0.6-1.5,0.8l-0.7,0.4
	l-0.8,0.4l-0.8,0.4l-0.8,0.3c-2,0.9-4.1,1.7-6.3,2.3c-2.2,0.6-4.4,1-6.6,1.3c-2.2,0.2-4.5,0.3-6.7,0.1c-2.2-0.2-4.4-0.6-6.6-1.3
	C293.1,48.9,291.1,48,289.2,46.7z"/>
<path class="st0" d="M289.9,47.3c1.9,1,3.9,1.8,6,2.4c2.1,0.6,4.2,0.9,6.3,1.1c2.1,0.2,4.3,0.1,6.4-0.1c2.1-0.2,4.2-0.6,6.3-1.2
	c2.1-0.6,4.1-1.3,6-2.2c2-0.9,3.8-1.9,5.6-3.1c3.6-2.4,6.8-5.3,9.5-8.7c-2.4,3.7-5.4,6.8-9,9.3l-1.4,0.9l-1.4,0.8l-1.4,0.8l-1.5,0.7
	c-2,0.9-4,1.7-6.2,2.3c-2.1,0.6-4.3,1-6.5,1.2c-2.2,0.2-4.4,0.2-6.6-0.1c-2.2-0.2-4.3-0.7-6.4-1.4C293.6,49.4,291.7,48.5,289.9,47.3
	z"/>
<ellipse transform="matrix(0.9646 -0.2639 0.2639 0.9646 -2.8078 85.2748)" class="st5" cx="316" cy="53.1" rx="19.7" ry="1.6"/>
<rect y="109" class="st24" width="631.5" height="277.5"/>
<rect x="11.7" y="116.9" class="st7" width="610.7" height="261.9"/>
<path class="st25" d="M443.8,104l-3.4,20.6l-4.8-1.2c0,0-0.8,2.2-1.2,2.4c-0.4,1,0,4.8,0,4.8l-1.2,4.8c0,0-9.6,25.2-18,30l-14.4-12
	c-8.4-4.8-25.2-10.8-30.7-11.6H245c-2.8,0.9-29.5,6-29.5,6l-4.9-0.6l-14.5-13.7l-1.9-19v-6l-0.1-0.2c-0.5-1.6-4-12.8-6.1-17.7
	l-0.5-1l0.4-1.1c0.7-2,2.8-8.3,2.8-8.3h0.2l91.7-0.8l87.5-0.8l21.4-0.2l23.8-0.2l10.6,1.9L443.8,104z"/>
<polygon class="st26" points="190.5,85.2 197,103.4 198.6,126.4 211.4,138.2 244.6,132.8 371,132.8 402,146.2 416.4,157 
	430.4,132.8 431.2,117.8 438,121 439.2,104.2 426,81.4 413.3,79.3 "/>
<path class="st24" d="M408.2,78.5l-0.3,1.4l16.5,16c0,0,10.4,6.7,11.8,8.7c-0.3,2.2-0.9,4.3-1.9,6.3l-0.9,0.2l-6.7,3.5l-1.4,11.4
	c0.2,1.4,0.3,2.8,0.3,4.3c-0.9,8.8-8.1,24.4-24.3,13.3l0,0c-6.6-3.3-17.5-7.8-27.3-15l-1.4-1H243.8l-0.8,0.2
	c-5,1.5-27.6,5.6-27.6,5.6l-2.5-0.2l-9.6-9l-1.1-14.7v-6.3c0,0-3.9-13.4-6-18.1c0.5-1.5,1.1-2.6,1.7-4.8L408.2,78.5z"/>
<line class="st27" x1="414.7" y1="80.3" x2="344.6" y2="77.8"/>
<line class="st27" x1="190.8" y1="80.9" x2="191.6" y2="78.5"/>
<polygon class="st25" points="194.3,107.6 234,103.6 306.3,100.3 233.4,106.3 194.1,113.5 "/>
<polygon class="st25" points="433.4,118 400.2,112 394.1,110.9 322.3,101.8 394.5,113.6 433.1,123.9 "/>
<polygon class="st25" points="399.9,106.6 394.5,100.2 402,106.6 402.6,113.7 399.9,113 "/>
<path class="st28" d="M378.4,77"/>
<path class="st28" d="M223.2,80.2l-31.3,0.7l-1.3,4.3l6.4,18.2l0.3,4l29.4-3.1c0,0-27.6,2.3-28.1,1.7s0-3.2-0.5-3.8
	s-7-17.1-6.4-17.7c0.7-1,1.6-1.7,2.7-2.1C195.9,82,223.2,80.2,223.2,80.2z"/>
<polygon class="st28" points="232.4,106.5 197.6,112.8 198.6,126.4 211.4,138.2 244.6,132.8 271.6,132.8 244.6,131.2 212.5,136.1 
	200.7,125.3 198.6,113.6 "/>
<polygon class="st28" points="439.2,104.2 424.8,85 414.4,83.6 411.5,83.3 382.9,80.1 373.2,79 377,78.9 385.5,78.7 391.7,78.5 
	415.2,77.8 426,80.2 "/>
<polygon class="st28" points="438,121 431.2,117.8 402.6,113 402,106.6 394.5,100.2 402.6,106.6 403.1,112.5 431,116.8 "/>
<path class="st28" d="M382.6,111.7l11.9,1.9l37.5,6.3l-1.6,13c0,0-1.1-7.5-1.6-7.5s-34.3-10.7-34.3-10.7L382.6,111.7z"/>
<polygon class="st28" points="323,132.8 371,132.8 400.8,147.4 416.4,157 402,146.2 371.5,129.6 "/>
<g class="st19">
	
		<ellipse transform="matrix(0.9905 -0.1376 0.1376 0.9905 -13.7955 33.3519)" class="st29" cx="234.3" cy="116.4" rx="14.4" ry="3.5"/>
</g>
<ellipse transform="matrix(8.263423e-02 -0.9966 0.9966 8.263423e-02 286.2449 499.5538)" class="st30" cx="414.5" cy="94.3" rx="3.5" ry="6.2"/>
<ellipse transform="matrix(7.974522e-02 -0.9968 0.9968 7.974522e-02 289.8564 511.0294)" class="st29" cx="421.7" cy="98.5" rx="1.4" ry="2.5"/>
<ellipse transform="matrix(8.263423e-02 -0.9966 0.9966 8.263423e-02 278.0736 507.6187)" class="st29" cx="414.8" cy="102.8" rx="2" ry="3.6"/>
<path class="st31" d="M290.6,89.5c0,0,72.3-2.1,80.9-1.1s24.6,5.9,24.6,5.9l-21.4-2.7L290.6,89.5z"/>
<radialGradient id="SVGID_2_" cx="358.165" cy="330.55" r="37.4035" gradientTransform="matrix(1 0 0 1 -14.76 -239.36)" gradientUnits="userSpaceOnUse">
	<stop  offset="0" style="stop-color:#B87F50;stop-opacity:0.3"/>
	<stop  offset="0.22" style="stop-color:#CAA687;stop-opacity:0.17"/>
	<stop  offset="0.46" style="stop-color:#D8C5B2;stop-opacity:8.000000e-02"/>
	<stop  offset="0.71" style="stop-color:#E0D7CC;stop-opacity:2.000000e-02"/>
	<stop  offset="1" style="stop-color:#E3DDD4;stop-opacity:0"/>
</radialGradient>
<path class="st32" d="M371.5,88.3c-7.5-0.9-64.5,0.6-78,1l-2.9,0.1v0.3l3.4,0.1l80.7,2l21.4,2.7v-0.2C396,94.1,380,89.3,371.5,88.3z
	 M374.7,91.5l-78.7-2c16.9-0.5,68.4-1.8,75.5-0.9c6.8,0.8,18.5,4.1,22.9,5.4L374.7,91.5z"/>
<g class="st33">
	<path class="st31" d="M313.1,122.7c0,0-72.3-2.1-80.9-1.1s-24.7,5.9-24.7,5.9l21.4-2.7L313.1,122.7z"/>
	
		<radialGradient id="SVGID_3_" cx="818.6201" cy="363.7518" r="37.3917" gradientTransform="matrix(-1 0 0 1 1079.03 -239.36)" gradientUnits="userSpaceOnUse">
		<stop  offset="0" style="stop-color:#B87F50;stop-opacity:0.3"/>
		<stop  offset="0.22" style="stop-color:#CAA687;stop-opacity:0.17"/>
		<stop  offset="0.46" style="stop-color:#D8C5B2;stop-opacity:8.000000e-02"/>
		<stop  offset="0.71" style="stop-color:#E0D7CC;stop-opacity:2.000000e-02"/>
		<stop  offset="1" style="stop-color:#E3DDD4;stop-opacity:0"/>
	</radialGradient>
	<path class="st34" d="M311.1,122.5c-11.9-0.3-71.1-2-78.8-1c-8.5,1.1-24.5,5.8-24.7,5.9l0.1,0.3l21.4-2.7l82.1-2.1h2v-0.3
		L311.1,122.5z M209.5,127.1c4.4-1.3,16.1-4.5,22.9-5.4c1.7-0.2,5.9-0.3,11.6-0.3c18.1,0,51,0.9,63.8,1.2l-78.7,2L209.5,127.1z"/>
</g>
<g class="st35">
	<path class="st31" d="M402,137.1c0,0-12.3-2.7-13.4-4.8s-1-10.2,1.1-11.3s23,2.1,25.7,3.8s5.4,4.8,5.4,5.9s-5.4,4.3-5.4,4.3
		s2.1-2.1,1.6-4.3c-0.5-2.4-2.4-4.3-4.8-4.8c-2.7-0.5-17.7-3.8-19.3-2.7c0,0-3.2,4.3-1.6,7c1.6,2.7,11.8,5.9,13.4,4.8
		s2.7-2.1,1.1-4.3s-10.7-2.1-10.7-2.1h12.3c0,0,2.7,3.2,2.1,4.3s-1.1,4.3-2.7,4.8S402,137.1,402,137.1z"/>
	
		<linearGradient id="SVGID_4_" gradientUnits="userSpaceOnUse" x1="402.5423" y1="368.6903" x2="435.68" y2="368.6903" gradientTransform="matrix(1 0 0 1 -14.76 -239.36)">
		<stop  offset="0" style="stop-color:#B87F50;stop-opacity:0.3"/>
		<stop  offset="0.22" style="stop-color:#CAA687;stop-opacity:0.17"/>
		<stop  offset="0.46" style="stop-color:#D8C5B2;stop-opacity:8.000000e-02"/>
		<stop  offset="0.71" style="stop-color:#E0D7CC;stop-opacity:2.000000e-02"/>
		<stop  offset="1" style="stop-color:#E3DDD4;stop-opacity:0"/>
	</linearGradient>
	<path class="st36" d="M415.5,124.7c-1.4-0.9-7.6-2.1-13.1-2.9s-11.5-1.4-12.7-0.9c-1.4,0.7-1.7,4-1.8,5.4c-0.2,2.1,0,4.1,0.7,6.1
		c1.1,2.2,12.9,4.8,13.5,4.9c1.2,0.4,2.5,0.6,3.7,0.7c0.4,0,0.8,0,1.2-0.2c1.3-0.4,1.9-2.3,2.3-3.7c0.1-0.4,0.3-0.8,0.4-1.2
		c0.6-1.1-1.9-4.1-2.2-4.4h-12.4v0.3c0.1,0,9,0,10.6,2.1c0.5,0.6,0.8,1.3,0.7,2.1c-0.1,0.8-0.8,1.3-1.8,2c-0.4,0.3-1.8,0.2-3.6-0.2
		c-3.8-0.9-8.6-2.9-9.6-4.6c-1.5-2.5,1.3-6.5,1.6-6.8c1-0.6,7.1,0.2,18.2,2.5l1,0.2c2.3,0.5,4.2,2.4,4.7,4.7c0.5,2-1.5,4.1-1.6,4.1
		l-0.8,0.8l1-0.6c0.6-0.3,5.4-3.3,5.4-4.4S418.2,126.3,415.5,124.7z M416.1,134.4c0.9-1,1.3-2.4,1.1-3.7c-0.6-2.5-2.5-4.4-4.9-4.9
		l-1-0.2c-7.3-1.5-17-3.4-18.4-2.4l0,0c-0.1,0.2-3.3,4.4-1.6,7.1c1.1,1.8,5.9,3.9,9.8,4.7c1.1,0.3,3.1,0.6,3.8,0.1
		c1-0.7,1.8-1.3,1.9-2.2c0.1-0.8-0.2-1.7-0.8-2.3c-0.8-1.1-3.4-1.6-5.8-1.9h7.3c0.8,0.9,2.5,3.3,2.1,4.1c-0.2,0.4-0.3,0.8-0.5,1.2
		c-0.4,1.3-1,3.1-2.1,3.5c-1.5,0.5-4.7-0.5-4.7-0.5l0,0c0,0-3.1-0.7-6.3-1.6c-5.3-1.5-6.7-2.5-7-3.1c-0.6-1.9-0.9-4-0.7-6
		c0.2-2.8,0.8-4.7,1.7-5.1c0.6-0.2,1.1-0.2,1.7-0.2c5.5,0,21.4,2.5,23.8,3.9c2.7,1.7,5.2,4.8,5.2,5.8
		C420.6,131.3,418.1,133.1,416.1,134.4L416.1,134.4z"/>
</g>
<path class="st37" d="M443.8,104l-3.4,20.6l-4.8-1.2c0,0-0.8,2.2-1.2,2.4c-0.4,1,0,4.8,0,4.8l-1.2,4.8c0,0-9.6,25.2-18,30l-14.4-12
	c-8.4-4.8-25.2-10.8-30.7-11.6h-54.5l-2.1-9l-1.3-5.3l-1.1-4.6v-0.4l-5.1-21.8l-0.4-0.3l0,0L294,89.7l-0.2-0.2l-0.2-0.2l-0.1-0.1
	l-7.2-6.6l-3.4-3.1l-0.1-0.1l87.5-0.8l21.4-0.2l23.5-0.7l10.8,2.4L443.8,104z"/>
<text transform="matrix(1 0 0 1 236.41 127.03)" class="st38 st39 st40">Tutorial</text>
<text transform="matrix(1 0 0 1 234.01 124.63)" class="st41 st39 st40">Tutorial</text>
<path class="st17" d="M205.5,296.7l-1.4,7.4l0,0c-1.4,1.9-3.6,3.1-6,3.2c2.8-1.2,4.9-3.6,5.5-6.6c0.9-3.4-0.2-7-2.8-9.2
	C203.2,292.4,204.9,294.3,205.5,296.7z"/>
<g>
	<path class="st42" d="M535.1,243.1c-25-25-65.6-25-90.6,0s-25,65.6,0,90.6c25,25,65.6,25,90.6,0c12-12,18.8-28.3,18.8-45.3
		C553.9,271.4,547.2,255.1,535.1,243.1z M489.8,343.5c-30.4,0-55.1-24.7-55.1-55.1c0-30.4,24.7-55.1,55.1-55.1
		c30.4,0,55.1,24.7,55.1,55.1c0,14.6-5.8,28.6-16.1,38.9C518.5,337.7,504.4,343.6,489.8,343.5z"/>
	<path class="st42" d="M534.7,243.5c-24.8-24.8-65-24.8-89.8,0s-24.8,65,0,89.8s65,24.8,89.8,0c11.9-11.9,18.6-28,18.6-44.9
		C553.3,271.6,546.6,255.4,534.7,243.5z M489.8,344.1c-30.8,0-55.7-24.9-55.7-55.7c0-30.8,24.9-55.7,55.7-55.7s55.7,24.9,55.7,55.7
		c0,14.8-5.9,29-16.3,39.4C518.8,338.3,504.6,344.2,489.8,344.1L489.8,344.1z"/>
	<path class="st43" d="M533.6,243.1c-24.2-24.2-63.5-24.1-87.7,0.1c-24.2,24.2-24.1,63.5,0.1,87.7c24.2,24.2,63.5,24.1,87.7-0.1
		c11.6-11.6,18.1-27.4,18.1-43.8C551.9,270.5,545.3,254.7,533.6,243.1z M530.1,327.4c-22.3,22.3-58.5,22.3-80.8-0.1
		s-22.3-58.5,0.1-80.8s58.5-22.3,80.8,0.1c10.7,10.7,16.7,25.2,16.7,40.4C547,302.1,540.9,316.7,530.1,327.4L530.1,327.4z"/>
	<path class="st42" d="M511.7,221.3l-0.3-16.3c-8.4-9.6-8.7-23.8-0.7-33.7c0.9-1.1,1.9-2.1,2.9-3.1c10.8-9.7,27.4-8.8,37.1,2
		c4.8,5.3,7.2,12.3,6.7,19.4c-0.1,0.8-0.2,1.7-0.3,2.5c-0.1,0.7-0.3,1.4-0.5,2.1c-3.6,13.8-17.5,22.3-31.5,19L511.7,221.3z"/>
	
		<ellipse transform="matrix(8.872039e-02 -0.9961 0.9961 8.872039e-02 297.117 699.8052)" class="st44" cx="531" cy="187.5" rx="22.9" ry="22.9"/>
	<path class="st43" d="M432.6,352.3h113.7c2.6,0,4.8,2.1,4.8,4.8v6.3c0,2.6-2.1,4.8-4.8,4.8H432.6c-2.6,0-4.8-2.1-4.8-4.8V357
		C427.8,354.4,429.9,352.3,432.6,352.3z"/>
	<path class="st44" d="M548.6,357.9v4.9c0,2-1.6,3.7-3.7,3.7h-111c-2,0-3.7-1.6-3.7-3.7v-4.9c0-2,1.6-3.7,3.7-3.7h111
		C547,354.2,548.6,355.8,548.6,357.9z"/>
	<path class="st45" d="M534.7,354.2v12.7h-99.5c-2.1,0-4.9-2.4-4.9-5.4v-2c0-3,2.8-5.4,4.9-5.4L534.7,354.2z"/>
	<path class="st46" d="M511.7,221.3l-0.3-16.3c-4.8-5.5-7.1-12.7-6.3-20l52.3,4.7c-0.1,0.8-0.2,1.7-0.3,2.5
		c-0.1,0.7-0.3,1.4-0.5,2.1c-3.6,13.8-17.5,22.3-31.5,19L511.7,221.3z"/>
	<path class="st47" d="M539.7,267.9c-0.1,0.5-0.2,1.1-0.3,1.7l-4.6,62.3l-0.7,3.5c0,1-0.8,1.8-1.8,1.8l0,0H450
		c-0.5,0-1.1-0.3-1.4-0.7c-0.2-0.3-0.4-0.7-0.4-1.1l-0.7-3.5l-4.4-61.1c-0.2-1.1-0.4-2.4-0.7-3.6c-6.1-6.6-10.4-17.3-8.6-23.4
		l5.5-23c0-1.5,0.9-2.9,2.3-3.4h0.1c0.4-0.2,0.8-0.2,1.3-0.2c5.3,0,15.6,11.5,15.6,20.5v16.6l0,0c8.7-7.2,19.6-11.2,30.8-11.5h1.1
		h1.5c11.6,0.1,22.8,4.2,31.7,11.5h0.4v-16.7c0-4.5,2.6-9.6,5.8-13.6s7.2-6.9,9.8-6.9c2,0,3.7,1.7,3.7,3.7l5.5,23
		C550.8,250.2,546.2,261.4,539.7,267.9z"/>
	<path class="st48" d="M451.5,335l-0.3-1.6l-4.5-61v-0.2c-0.2-1.1-0.4-2.4-0.8-4l-0.3-1.1l-0.8-0.8c-2.8-3-5-6.5-6.5-10.4
		c-1.4-3.5-1.8-6.8-1.2-8.8v-0.1l4.6-29.8c1.2,0.5,6.9,3.1,9.4,6.3c2.9,3.6,5.5,8.4,5.5,11.3l0.4,22.8c0,0,12.4-14.4,33-14.3
		c22.8,0.2,35.6,14.4,35.6,14.4l1.2-21.9c0-3,2-7.5,4.9-11.1c2.7-2.9,5.8-5.3,9.2-7.2l5,29.4v0.1c0.6,2,0.1,5.5-1.4,9.2
		c-1.6,4-3.9,7.6-6.8,10.6l-1,1l-0.2,1.4c-0.1,0.5-0.2,0.9-0.3,1.4l-0.1,0.3l-4.7,62.3l-0.3,1.5L451.5,335z"/>
	<path class="st49" d="M529.8,268h-0.4h-0.2h-0.8l1-32.4c0.1-3.1,2-7.3,5-11c2.7-3.4,5.2-4.9,6.3-5.4l4.8,24.6v0.1
		c0.4,1.8,0.1,4.6-1,7.7c-1.2,3.5-3,6.8-5.3,9.8C536.1,265.6,532.5,268.1,529.8,268z"/>
	<path class="st49" d="M452.9,268h0.4h0.2h0.8l-1-32.4c-0.1-3.1-2-7.3-5-11c-2.7-3.4-5.1-4.9-6.3-5.4l-4.8,24.6v0.1
		c-0.4,1.8-0.1,4.6,1,7.7c1.2,3.5,3,6.8,5.3,9.8C446.6,265.6,450.3,268.1,452.9,268z"/>
	<path class="st17" d="M498.2,328.4c0,3.2-3.4,5.9-7.6,5.9s-7.6-2.6-7.6-5.9c0-0.8,0.2-1.6,0.6-2.3c0.1,3,3.2,5.3,7,5.3s7-2.4,7-5.3
		C498,326.8,498.2,327.6,498.2,328.4z"/>
	<ellipse class="st50" cx="491.4" cy="278.6" rx="39.2" ry="30.5"/>
	<ellipse class="st51" cx="491.7" cy="264.3" rx="28.8" ry="14.1"/>
	<path class="st1" d="M490.6,333.8c-4.4,0-8-2.8-8-6.3c0-0.9,0.2-1.7,0.6-2.5l0.1-0.3c0.1-0.6,0.2-1.7,0.3-3
		c1.5-14.2,3.4-41.5,6.9-41.5s5.5,27.1,6.9,41.5c0.1,1.3,0.2,2.4,0.3,3l0.1,0.3c0.4,0.7,0.6,1.6,0.6,2.5
		C498.6,331,495,333.8,490.6,333.8z"/>
	<path class="st13" d="M498.2,327.6c0,3.2-3.4,5.3-7.6,5.3s-7.6-2-7.6-5.3c0-0.8,0.2-1.6,0.6-2.3c0.1,3,3.2-44.8,7-44.8
		s7,47.7,7,44.8C498,326,498.2,326.8,498.2,327.6z"/>
	<path class="st44" d="M490.6,328.2c-2.9,0-5.3-1.6-5.3-3.5c0-0.2,0-0.4,0.1-0.6c0.3-0.4,0.5-0.8,0.6-1.2c0-0.2,0.1-0.5,0.2-0.8
		c0.1-0.6,0.3-1.5,0.4-2.6c0.5-3.2,1.3-8,1.7-12.5c0.4-4.1,1.9-24.3,2.3-25.5c0.5,1.2,2,21.4,2.3,25.3c0.5,4.5,1.2,9.5,1.7,12.7
		c0.2,1.1,0.3,2,0.4,2.6c0.1,0.4,0.1,0.6,0.2,0.8c0.1,0.4,0.3,0.9,0.6,1.2c0,0.2,0.1,0.4,0.1,0.6
		C495.9,326.6,493.4,328.2,490.6,328.2z"/>
	<path class="st47" d="M505.7,326.1c-6-5.1-6.7-14.1-1.6-20.1c5.1-6,14.1-6.7,20.1-1.6c6,5.1,6.7,14.1,1.6,20.1
		c-0.3,0.4-0.6,0.7-1,1l-1.1,1l-1.4-0.6c-0.4-0.1-0.8-0.3-1.2-0.4c-1.6-0.4-3.2-0.6-4.9-0.6h-0.4c-2.8,0-5.6,0.7-8.2,2l-1.2,0.6
		L505.7,326.1z"/>
	<path class="st47" d="M515,302.4c-7.1,0-12.9,5.8-12.9,12.9c0,3.9,1.7,7.5,4.7,9.9l0.2,0.2h-0.1l0.2,0.4c2.7-1.4,5.7-2.1,8.8-2.1
		c1.9,0,3.8,0.2,5.7,0.6c0.5,0.1,0.9,0.3,1.3,0.5l0.6,0.2l0.5-0.4c2.6-2.4,4-5.8,4-9.3C527.9,308.1,522.1,302.4,515,302.4z"/>
	<path class="st47" d="M474.9,327c-2.5-1.3-5.3-2-8.2-2h-0.4c-1.6,0-3.3,0.2-4.9,0.6c-0.4,0.1-0.8,0.3-1.2,0.4l-1.4,0.6l-1.1-1
		c-2.8-2.7-4.4-6.4-4.4-10.3c0-7.9,6.4-14.2,14.3-14.2c7.9,0,14.2,6.4,14.2,14.3c0,4.2-1.8,8.1-5,10.8l-0.8,1.5L474.9,327z"/>
	<path class="st47" d="M467.6,302.4c-7.1,0-12.9,5.8-12.9,12.9c0,3.5,1.4,6.9,4,9.3l0.5,0.4l0.6-0.2c0.4-0.2,0.9-0.3,1.3-0.5
		c1.9-0.5,3.8-0.7,5.7-0.6c3,0,6,0.8,8.8,2.1l0.2-0.4h-0.1l0.2-0.2c5.5-4.5,6.3-12.6,1.7-18.1C475.1,304.1,471.5,302.4,467.6,302.4
		L467.6,302.4z"/>
	<path class="st17" d="M506.8,325.2c-5.5-4.5-6.3-12.6-1.7-18.1c4.5-5.5,12.6-6.3,18.1-1.7c5.5,4.5,6.3,12.6,1.7,18.1
		c-0.3,0.4-0.7,0.8-1,1.1l-0.5,0.4l-0.6-0.2c-1.5-0.6-3.1-1-4.8-1.2c-0.7-0.1-1.4-0.1-2.1-0.1c-2.8,0-5.6,0.6-8.1,1.9l-0.6,0.3
		L506.8,325.2z"/>
	<path class="st11" d="M515.2,304.2c-6.6,0-11.9,5.3-11.9,11.9c0,3.5,1.6,6.9,4.3,9.2c2.7-1.3,5.6-2,8.5-2c0.7,0,1.5,0,2.2,0.1
		c1.7,0.2,3.4,0.6,5,1.3c4.7-4.5,4.9-12.1,0.4-16.8C521.5,305.5,518.4,304.1,515.2,304.2L515.2,304.2z"/>
	<path class="st12" d="M527.1,316.1c0,3.2-1.3,6.4-3.7,8.6c-1.6-0.6-3.3-1.1-5-1.3l-14.9-9.8c1.3-6.4,7.6-10.6,14.1-9.2
		C523.2,305.6,527.1,310.4,527.1,316.1L527.1,316.1z"/>
	<path class="st13" d="M523,322.8c-1.3-0.5-2.7-0.8-4.1-0.9l-13.6-8.9c1.7-5.5,7.5-8.5,13-6.8c4.3,1.4,7.2,5.3,7.2,9.9
		C525.5,318.6,524.6,321,523,322.8z"/>
	<path class="st52" d="M520.3,314.9c-1.4-0.1-2.3-0.6-2.3-1.2c0-0.4,0.5-0.8,1.3-1c-2.7-4.2-8.3-5.4-12.4-2.7
		c-1.4,0.9-2.6,2.2-3.3,3.8c-0.9,4.3,0.7,8.8,4.1,11.6c2.7-1.3,5.6-2,8.5-2c0.7,0,1.5,0,2.2,0.1C520.4,321,521.2,317.8,520.3,314.9
		L520.3,314.9z"/>
	<path class="st53" d="M507.8,323.9c-2.7-2.5-3.9-6.2-3.2-9.8c1.3-2.7,4-4.4,7-4.4c2.2,0,7.2,11.2,6.2,12.6c-0.6,0-1.1-0.1-1.7-0.1
		C513.3,322.1,510.4,322.7,507.8,323.9z"/>
	<path class="st49" d="M507.1,325.8l-0.2-0.4c2.8-1.4,5.8-2.1,8.9-2.1c2.6-0.1,5.2,0.4,7.6,1.2l-0.1,0.4
		C518,323,512.2,323.3,507.1,325.8z"/>
	<path class="st54" d="M513.8,309.6c-0.4,0.2,0.2,1,0.4,1.4s2.3,3.3,2.5,4.3s1.6,4.1,1.8,4.9s0.8,0.4,0.8,0.4c0.4-1,0.6-2.1,0.6-3.1
		c-0.4-0.8-0.9-1.6-1.6-2.1c-0.4-0.4-1.4-1.4-1.4-2.1c0.1-1-0.4-2-1.2-2.5C514.8,310,514.2,309.4,513.8,309.6z"/>
	<circle class="st17" cx="511.5" cy="317" r="6"/>
	<g class="st18">
		<circle class="st7" cx="516.7" cy="317.2" r="2"/>
	</g>
	<g class="st19">
		<circle class="st7" cx="513.6" cy="319.2" r="1"/>
	</g>
	<path class="st17" d="M475.8,325.2c5.5-4.5,6.3-12.6,1.7-18.1c-4.5-5.5-12.6-6.3-18.1-1.7c-5.5,4.5-6.3,12.6-1.7,18.1
		c0.3,0.4,0.7,0.8,1,1.1l0.5,0.4l0.6-0.2c1.5-0.6,3.1-1,4.8-1.2c0.7-0.1,1.4-0.1,2.1-0.1c2.8,0,5.6,0.6,8.1,1.9l0.6,0.3L475.8,325.2
		z"/>
	<path class="st11" d="M467.4,304.2c6.6,0,11.9,5.3,11.9,11.9c0,3.5-1.6,6.9-4.3,9.2c-2.7-1.3-5.6-2-8.5-2c-0.7,0-1.5,0-2.2,0.1
		c-1.7,0.2-3.4,0.6-5,1.3c-4.7-4.5-4.9-12.1-0.4-16.8C461.1,305.5,464.3,304.1,467.4,304.2L467.4,304.2z"/>
	<path class="st12" d="M455.5,316.1c0,3.2,1.3,6.4,3.7,8.6c1.6-0.6,3.3-1.1,5-1.3l14.9-9.8c-1.3-6.4-7.6-10.6-14.1-9.2
		C459.5,305.6,455.5,310.4,455.5,316.1L455.5,316.1z"/>
	<path class="st13" d="M459.6,322.8c1.3-0.5,2.7-0.8,4.1-0.9l13.6-8.9c-1.7-5.5-7.5-8.5-13-6.8c-4.3,1.4-7.2,5.3-7.2,9.9
		C457.1,318.5,458,321,459.6,322.8z"/>
	<path class="st52" d="M462.4,314.9c1.4-0.1,2.4-0.6,2.4-1.2c0-0.4-0.5-0.8-1.3-1c2.7-4.2,8.3-5.4,12.4-2.7c1.4,0.9,2.6,2.2,3.3,3.8
		c0.9,4.3-0.7,8.8-4.1,11.6c-2.7-1.3-5.6-2-8.5-2c-0.7,0-1.5,0-2.2,0.1C462.2,321.1,461.5,317.8,462.4,314.9L462.4,314.9z"/>
	<path class="st53" d="M474.8,323.9c2.7-2.5,3.9-6.2,3.2-9.8c-1.3-2.7-4-4.4-7-4.4c-2.2,0-7.2,11.2-6.2,12.6c0.6,0,1.1-0.1,1.7-0.1
		C469.4,322.1,472.2,322.7,474.8,323.9z"/>
	<path class="st49" d="M475.5,325.8c-5.1-2.5-10.9-2.8-16.3-0.9l-0.1-0.4c2.4-0.9,5-1.3,7.6-1.2c3.1,0,6.2,0.8,8.9,2.1L475.5,325.8z
		"/>
	<path class="st54" d="M468.8,309.6c0.4,0.2-0.2,1-0.4,1.4s-2.3,3.3-2.5,4.3s-1.6,4.1-1.8,4.9s-0.8,0.4-0.8,0.4
		c-0.4-1-0.6-2.1-0.6-3.1c0.4-0.8,0.9-1.6,1.6-2.1c0.4-0.4,1.4-1.4,1.4-2.1c-0.1-1,0.4-2,1.2-2.5C467.8,310,468.4,309.4,468.8,309.6
		z"/>
	<circle class="st17" cx="471.2" cy="317" r="6"/>
	<g class="st18">
		<circle class="st7" cx="465.9" cy="317.2" r="2"/>
	</g>
	<g class="st19">
		<circle class="st7" cx="469" cy="319.2" r="1"/>
	</g>
	<ellipse class="st55" cx="467.3" cy="328" rx="7.9" ry="2.9"/>
	<ellipse class="st55" cx="515.9" cy="328" rx="7.9" ry="2.9"/>
	<path class="st56" d="M539.7,267.9c-0.1,0.5-0.2,1.1-0.3,1.7l-4.6,62.3l-0.7,3.5c0,1-0.8,1.8-1.7,1.8c0,0,0,0,0,0h-16.2
		c0,0.1,0,0.2,0,0.4c0,0.1,0,0.3,0,0.4h-26.7v-95.3h2.6c11.6,0.1,22.8,4.2,31.7,11.5h0.4v-16.6c0-4.5,2.6-9.6,5.8-13.6
		s7.1-6.9,9.8-6.9c2,0,3.7,1.7,3.7,3.7l5.5,23C550.8,250.2,546.2,261.4,539.7,267.9z"/>
	<path class="st57" d="M516.8,176.5c0,0-1.2,0.2-0.9,2.1s4.1,12.1,2.8,13.2s-2.3,3.1-0.2,4.2s1.1,4.2,1.5,5.6s-1.2,2.4,1.1,3.3
		s21.5-4.4,22.3-4.1s0.6-5,0.5-5.2c-0.3-0.9,0-1.9,0.6-2.6c0.8-0.7-1.8-6.7-1.9-7.6s-1.5-7.8-2-8.3s-1.3-0.9-1-1s-0.1-3.3-0.5-3.5
		c-0.8-1.2-1.4-2.4-1.9-3.7c-0.1-0.4-1.4,0.6-1.6,0.6s-0.9-0.4-1.3,0.1s-1.5,1.3-1.8,1.1s-0.2-0.4-0.6-0.7c-1-0.3-2-0.3-3-0.1
		c-0.9,0.2-1.8,0.6-2.7,1c-0.4,0.3-0.6,1.5-0.9,1s0.4-0.8-1.2-0.9s-2.6-0.4-1.8,0.6s-0.9,0-1,0.3s-0.8,0.9-0.7,1.5s-0.8,0-1.3,0.1
		s-1.1,0.7-1,1.1s-0.5,0.4-0.8,0.7S517.9,176.3,516.8,176.5z"/>
	<path class="st58" d="M517,176.8c0,0-1.2,0.2-0.9,2.1s4.1,12.1,2.8,13.2s-2.3,3.1-0.2,4.2s1.1,4.2,1.5,5.6s-1.2,2.4,1.1,3.3
		s21.5-4.4,22.3-4.1s0.6-5,0.5-5.2c-0.3-0.9,0-1.9,0.6-2.6c0.8-0.7-1.8-6.7-1.9-7.6s-1.5-7.8-2-8.3s-1.3-0.9-1-1s-0.1-3.3-0.5-3.5
		c-0.8-1.2-1.4-2.4-1.9-3.7c-0.1-0.4-1.4,0.6-1.6,0.6s-0.9-0.4-1.3,0.1s-1.5,1.3-1.8,1.1s-0.2-0.4-0.6-0.7c-1-0.3-2-0.3-3-0.1
		c-0.9,0.3-1.8,0.6-2.7,1.1c-0.4,0.3-0.6,1.5-0.9,1s0.4-0.8-1.2-0.9s-2.6-0.4-1.8,0.6s-0.9,0-1,0.3s-0.8,0.9-0.7,1.5s-0.8,0-1.3,0.1
		s-1.1,0.7-1,1.1s-0.5,0.4-0.8,0.7S518.1,176.6,517,176.8z"/>
	<path class="st59" d="M516.9,177.1c0,0-1.2,0.2-0.9,2.1s4.1,12.1,2.8,13.2s-2.3,3.1-0.2,4.2s1.1,4.2,1.5,5.6s-1.2,2.4,1.1,3.3
		s21.5-4.4,22.3-4.1s0.6-5,0.5-5.2c-0.3-0.9,0-1.9,0.6-2.6c0.8-0.7-1.8-6.7-1.9-7.6s-1.5-7.8-2-8.3s-1.3-0.9-1-1s-0.1-3.3-0.5-3.5
		c-0.8-1.2-1.4-2.4-1.9-3.7c-0.1-0.4-1.4,0.6-1.6,0.6s-0.9-0.4-1.3,0.1s-1.5,1.3-1.8,1.1s-0.2-0.4-0.6-0.7c-1-0.3-2-0.3-3-0.1
		c-0.9,0.3-1.8,0.6-2.7,1.1c-0.4,0.3-0.6,1.5-0.9,1s0.4-0.8-1.2-0.9s-2.6-0.4-1.8,0.6s-0.9,0-1,0.3s-0.8,0.9-0.7,1.5s-0.8,0-1.3,0.1
		s-1.1,0.7-1,1.1s-0.5,0.4-0.8,0.7S518,177,516.9,177.1z"/>
	<path class="st60" d="M523.5,186.5c0,0-1.1,1.2,0.4,3.2s0.1,5.5,0.5,6.7s1.1,2.9,1.1,2.9s2.8,2.4,2.3,1s-1.2-2.7-0.8-4.1
		c0.8-1.8,0.9-3.8,0.2-5.7C526.2,187.8,525.7,186.1,523.5,186.5z"/>
	<path class="st61" d="M525.7,176c0,0,1.9,3.9,1.9,5.2c0,1.1-0.2,2.2-0.4,3.2c0,0,2.8-3.1,1.8-4.9S527.3,175.8,525.7,176z"/>
	<path class="st62" d="M534.4,176.8c0,0,1.2,3.6,2,5.4s0.3,1.7,0.8,3s1.4,0.1,1.2-1.8s1.2-0.9,1.1-2.4s0.3-2.4-0.7-2.4
		s-1.1,0.2-1.6-1.1s-0.3-1.3-1.1-1.6s-1.1-0.8-1.2-0.2S534.9,177.2,534.4,176.8z"/>
	<path class="st60" d="M531.7,191c0,0,1.9,0.3,1.7,1.4c-0.2,0.5-0.2,1.1-0.2,1.7c0.1,0.5,0.2,2.1,0.5,1.4s0.8-0.8,0.8-1.8
		s0.3-1.5,0.5-1.4s0.5,1.5,0.7,1.9s-0.5,2-0.4,2.2s-0.5,1.7-0.3,1.8s1.3-0.2,1.2-1.1c-0.2-0.9-0.3-1.9-0.2-2.9
		c0.2-0.5,0.6,0,0.4-1.5s0.8-1.9,0.6-2.5s-1.6-2.4-1.8-2.8s0.1-1.4-0.7-2c-0.5-0.5-1.1-1-1.7-1.3c-1.5-0.9-2-3.2-1.8-0.9
		s2.2,5.1,2.2,5.3C532.9,189.5,532.3,190.3,531.7,191z"/>
	<path class="st62" d="M523.4,187.9c0,0-1.8,0.6-1.2,2.2s-1.5,4-1.4,4.3s0.8,3.7,0.8,3.7s-0.3,0.7,0.1-1.2c0.3-1.3,0.9-2.5,1.5-3.7
		c0.2-0.4-0.5-1.8,0.2-3.2S523.4,187.9,523.4,187.9z"/>
	<path class="st63" d="M518.2,185.9c0.4,0.3,0.9,0.4,1.4,0.2c0.7-0.4,1.1,0.6,1.2,0.9s-0.7,1.5-0.7,1.5l-1.1,0.2
		C518.6,187.8,518.4,186.8,518.2,185.9z"/>
	<path class="st62" d="M520.3,174.7c0,0-0.7-0.2-0.2,1.9c0.5,1.3,0.6,2.7,0.5,4.1c-0.3,0.7-0.4,1.5-0.5,2.3c0.1,0.6,1.3,2.7,1.2,1.1
		s-0.2-1.9-0.3-2.7c0-0.9,0.1-1.8,0.3-2.7C521.6,177.9,521.4,172.9,520.3,174.7z"/>
	<path class="st60" d="M531.6,171.5c0.3,0.7,0.6,1.4,0.9,2c0.4,0.6,0.7,1.2,0.8,1.9c0.2,1,0.8,0.6,0.8,0.1s0.7-1.4,0-1.4
		s-0.8,0.1-0.9-0.5s0.1-1.2-0.3-1.3s-0.7,0-0.7-0.3S532,170.4,531.6,171.5z"/>
	<path class="st27" d="M537.5,189.6c-0.5,0.5-0.6,1.3-0.4,1.9c0.5,1-0.2,2.7,0.6,1.5s0.6-0.9,0.2-2S537.7,189.6,537.5,189.6z"/>
	<path class="st63" d="M542.1,194.7c0.2,0.3,0.4,0.6,0.5,1c0,0.3,0,2,0.5,1.3c0.4-0.4,0.6-1,0.4-1.5c-0.1-0.8-1.4-1.6-1.4-1
		L542.1,194.7z"/>
	<path class="st62" d="M529.5,201.6c1.3-0.4,2-0.7,2.2-0.6s1.3,0.6,0.5,0.7s-1.1,0.8-1.9,1s-2.7,1-2.3,0.4
		C528.4,202.6,528.9,202.1,529.5,201.6z"/>
	<g class="st64">
		<path class="st65" d="M542.5,185.3c-0.1-0.9-1.5-7.8-2-8.3s-1.3-0.9-1-1s-0.1-3.3-0.5-3.5c-0.8-1.2-1.4-2.4-1.9-3.7
			c-0.1-0.4-1.4,0.6-1.6,0.6s-0.9-0.4-1.3,0.1s-1.5,1.3-1.8,1.1s-0.2-0.4-0.6-0.7c-1-0.3-2-0.3-3-0.1c-0.3,0.1-1.3,0.4-2,0.7
			c1.1,10.9,3,21.8,5.7,32.4c5.3-1.2,10.6-2.5,11-2.4c0.9,0.3,0.6-5,0.5-5.2c-0.3-0.9,0-1.9,0.6-2.6
			C545.3,192.2,542.6,186.2,542.5,185.3z"/>
		<path class="st66" d="M542.7,185.6c-0.1-0.9-1.5-7.8-2-8.3s-1.3-0.9-1-1s-0.1-3.3-0.5-3.5c-0.8-1.2-1.4-2.4-1.9-3.7
			c-0.1-0.4-1.4,0.6-1.6,0.6s-0.9-0.4-1.3,0.1s-1.5,1.3-1.8,1.1s-0.2-0.4-0.6-0.7c-1-0.3-2-0.3-3-0.1c-0.4,0.1-1.5,0.5-2.2,0.8
			c1.1,10.9,3,21.8,5.7,32.4c5.4-1.2,10.7-2.5,11.2-2.4c0.9,0.3,0.6-5,0.5-5.2c-0.3-0.9,0-1.9,0.6-2.6
			C545.5,192.5,542.9,186.5,542.7,185.6z"/>
		<path class="st67" d="M542.6,186c-0.1-0.9-1.5-7.8-2-8.3s-1.3-0.9-1-1s-0.1-3.3-0.5-3.5c-0.8-1.2-1.4-2.4-1.9-3.7
			c-0.1-0.4-1.4,0.6-1.6,0.6s-0.9-0.4-1.3,0.1s-1.5,1.3-1.8,1.1s-0.2-0.4-0.6-0.7c-1-0.3-2-0.3-3-0.1c-0.4,0.1-1.3,0.4-2,0.7
			c1.1,10.9,3.1,21.8,5.8,32.4c5.3-1.2,10.5-2.5,11-2.3c0.9,0.3,0.6-5,0.5-5.2c-0.3-0.9,0-1.9,0.6-2.6
			C545.4,192.9,542.8,186.9,542.6,186z"/>
		<path class="st68" d="M528.9,179.5c-0.5-0.9-1-1.8-1.5-2.6c0.3,2,0.5,4,0.8,6C528.9,181.8,529.5,180.4,528.9,179.5z"/>
		<path class="st69" d="M534.4,176.8c0,0,1.2,3.6,2,5.4s0.3,1.7,0.8,3s1.4,0.1,1.2-1.8s1.2-0.9,1.1-2.4s0.3-2.4-0.7-2.4
			s-1.1,0.2-1.6-1.1s-0.3-1.3-1.1-1.6s-1.1-0.8-1.2-0.2S534.9,177.2,534.4,176.8z"/>
		<path class="st70" d="M531.7,191c0,0,1.9,0.3,1.7,1.4c-0.2,0.5-0.2,1.1-0.2,1.7c0.1,0.5,0.2,2.1,0.5,1.4s0.8-0.8,0.8-1.8
			s0.3-1.5,0.5-1.4s0.5,1.5,0.7,1.9s-0.5,2-0.4,2.2s-0.5,1.7-0.3,1.8s1.3-0.2,1.2-1.1c-0.2-0.9-0.3-1.9-0.2-2.9
			c0.2-0.5,0.6,0,0.4-1.5s0.8-1.9,0.6-2.5s-1.6-2.4-1.8-2.8s0.1-1.4-0.7-2c-0.5-0.5-1.1-1-1.7-1.3c-1.5-0.9-2-3.2-1.8-0.9
			s2.2,5.1,2.2,5.3C532.9,189.5,532.3,190.3,531.7,191z"/>
		<path class="st70" d="M531.6,171.5c0.3,0.7,0.6,1.4,0.9,2c0.4,0.6,0.7,1.2,0.8,1.9c0.2,1,0.8,0.6,0.8,0.1s0.7-1.4,0-1.4
			s-0.8,0.1-0.9-0.5s0.1-1.2-0.3-1.3s-0.7,0-0.7-0.3S532,170.4,531.6,171.5z"/>
		<path class="st27" d="M537.4,189.6c-0.5,0.5-0.6,1.3-0.4,1.9c0.5,1-0.2,2.7,0.6,1.5s0.6-0.9,0.2-2S537.6,189.6,537.4,189.6z"/>
		<path class="st71" d="M542,194.7c0.2,0.3,0.4,0.6,0.5,1c0,0.3,0,2,0.5,1.3c0.4-0.4,0.6-1,0.4-1.5c-0.1-0.8-1.4-1.6-1.4-1
			L542,194.7z"/>
		<path class="st62" d="M531.9,201.3l0.1,0.5l0,0C532.7,201.7,532.3,201.4,531.9,201.3z"/>
	</g>
</g>
<g>
	<g>
		<path class="st42" d="M198.7,243.8c-25-25-65.6-25-90.6,0s-25,65.6,0,90.6c25,25,65.6,25,90.6,0c12-12,18.8-28.3,18.8-45.3
			C217.5,272.1,210.8,255.8,198.7,243.8z M153.4,344.2c-30.4,0-55.1-24.7-55.1-55.1c0-30.4,24.7-55.1,55.1-55.1
			c30.4,0,55.1,24.7,55.1,55.1c0,14.6-5.8,28.6-16.1,38.9C182.1,338.4,168,344.2,153.4,344.2z"/>
		<path class="st42" d="M198.3,244.2c-24.8-24.8-65-24.8-89.8,0s-24.8,65,0,89.8s65,24.8,89.8,0c11.9-11.9,18.6-28,18.6-44.9
			C216.9,272.2,210.2,256.1,198.3,244.2z M153.4,344.8c-30.8,0-55.7-24.9-55.7-55.7c0-30.8,24.9-55.7,55.7-55.7s55.7,24.9,55.7,55.7
			c0,14.8-5.9,29-16.3,39.4C182.4,339,168.2,344.8,153.4,344.8L153.4,344.8z"/>
		<path class="st43" d="M197.2,243.8c-24.2-24.2-63.5-24.1-87.7,0.1c-24.2,24.2-24.1,63.5,0.1,87.7c24.2,24.2,63.5,24.1,87.7-0.1
			c11.6-11.6,18.1-27.4,18.1-43.8C215.5,271.2,208.9,255.4,197.2,243.8z M193.8,328.1c-22.3,22.3-58.5,22.3-80.8-0.1
			s-22.3-58.5,0.1-80.8s58.5-22.3,80.8,0.1c10.7,10.7,16.7,25.2,16.7,40.4C210.6,302.8,204.6,317.4,193.8,328.1L193.8,328.1z"/>
	</g>
	<path class="st72" d="M212.4,266.5c-0.5,0.8-1.1,1.6-1.8,2.2l-2.7,15.7l-0.9,5l-1.1,5.8l-1.3,7.3l0,0l-1.1,6l-0.4,2.3l-0.4,1.9
		l-1.3,6.8l-0.4,2l-1.4,7.4v0.4l0,0l-0.5,2.6l0,0v0.1l-0.7,3.6c0,1-0.8,1.8-1.9,1.8h-87.3c-0.6,0-1.1-0.3-1.5-0.7
		c-0.3-0.3-0.4-0.7-0.4-1.1l-0.8-3.8l-0.5-2.5l-1.5-7.7l-0.4-2l-1.3-6.8l-0.3-1.9l-0.4-2.3l-1.1-6l0,0l-1.4-7.3l-1-5.9l-3.6-20.8
		c-7.9-7.8-4.6-26.3,22.2-17.9h1.1c9.6-7.8,21.6-12,33.9-12h1.6c12.2,0.1,24.1,4.3,33.6,12h1.2c3.8-1.3,7.8-2,11.8-2.1l0,0
		C214.4,248.6,216.8,259.6,212.4,266.5z"/>
	<path class="st73" d="M109.3,336.6l-0.7-3.9l-0.5-2.5l-1.5-7.8l-0.4-2c0,0-5.5-22.9-5.6-30.6c-0.1-5.4,3.3-21.5,3.3-21.5l-7.4-0.6
		c-2.9-2.9-3.9-7.3-2.5-11.1c1.5-3.7,5.5-5.7,11.1-5.7c3.9,0.1,7.8,0.8,11.5,2l0.3,0.1h2.1l0.6-0.5c9.3-7.6,20.9-11.7,32.8-11.8h0.9
		c12,0,23.6,4.2,32.8,11.8l0.6,0.5h2.1l0.3-0.1c3.7-1.2,7.6-1.9,11.5-2c5.2,0,8.9,1.7,10.7,4.9c1.6,3.2,1.4,7.1-0.6,10.1
		c-0.4,0.7-0.9,1.3-1.5,1.9l-6.8-0.4c0,0,2.8,16.9,2.6,22.6c-0.3,7.8-5.7,30.6-5.7,30.6l-0.4,2l-1.4,7.7l-0.5,2.8l-0.7,3.8
		L109.3,336.6z"/>
	<path class="st74" d="M166.6,337.4h-28.8c2.9-3.6,8.2-6,14.4-6S163.7,333.8,166.6,337.4z"/>
	<path class="st75" d="M166.6,337.4h-28.8c2.9-2.8,8.2-4.8,14.4-4.8S163.7,334.5,166.6,337.4z"/>
	<path class="st17" d="M160.3,328c0,3.4-3.6,6.2-8.1,6.2s-8.1-2.8-8.1-6.2c0-0.8,0.2-1.7,0.6-2.4c0,3.1,3.4,5.6,7.5,5.6
		s7.4-2.5,7.5-5.6C160.1,326.4,160.3,327.2,160.3,328z"/>
	<path class="st76" d="M160.3,327.2c0,3.4-3.6,6.2-8.1,6.2s-8.1-2.8-8.1-6.2c0-0.8,0.2-1.7,0.6-2.4c0,3.1,3.4,5.6,7.5,5.6
		s7.4-2.5,7.5-5.6C160.1,325.6,160.3,326.4,160.3,327.2z"/>
	<ellipse class="st77" cx="152.9" cy="280.1" rx="44.4" ry="34.5"/>
	<path class="st17" d="M164.8,259c4.9,1,9.8-1.4,12-5.9c-3,2.9-7.2,4.1-11.2,3.3c-4.7-0.7-8.6-4-10-8.5
		C155.4,253.4,159.3,258.1,164.8,259z"/>
	<path class="st78" d="M213.2,260c-0.2,1.6-0.8,3.2-1.7,4.6c-0.7,1-1.5,1.9-2.5,2.6c-2.3,1.9-5.2,2.9-8.2,2.8c-0.5,0-0.9,0-1.4-0.1
		c-2.2-0.3-4.4-1.1-6.2-2.5c-1-0.8-1.9-1.7-2.6-2.8l-0.2-0.3c-0.6-1-1.1-2-1.4-3.2c0.6,0.9,1.4,1.8,2.2,2.5c1.3,1.1,2.8,2,4.4,2.5
		c1.6,0.5,3.2,0.8,4.8,0.9c2,0,3.9-0.3,5.7-1c1.6-0.6,3-1.5,4.3-2.6C211.6,262.4,212.5,261.3,213.2,260z"/>
	<path class="st78" d="M116.8,260.6c-0.4,2.5-1.6,4.8-3.4,6.5c-2,1.9-4.5,3.1-7.3,3.4c-0.6,0.1-1.2,0.1-1.8,0.1
		c-3.3,0-6.4-1.3-8.7-3.6c-0.6-0.7-1.2-1.4-1.7-2.2c-0.6-0.9-1-1.9-1.3-3c0.5,0.7,1,1.4,1.7,2c0.8,0.8,1.8,1.5,2.8,2
		c4.5,2.4,9.9,2.4,14.4,0c1.2-0.7,2.3-1.5,3.3-2.5C115.7,262.5,116.4,261.6,116.8,260.6z"/>
	<path class="st17" d="M163.9,268.7c4.8,0.9,9.7-1.4,11.9-5.9c-3,2.9-7.2,4.1-11.2,3.3c-4.7-0.7-8.6-4-10-8.5
		C154.5,263.1,158.5,267.8,163.9,268.7z"/>
	<path class="st17" d="M164.6,279.1c4.8,0.9,9.7-1.4,11.9-5.9c-3,2.9-7.2,4.1-11.2,3.3c-4.7-0.7-8.6-4-10-8.5
		C155.2,273.6,159.2,278.3,164.6,279.1z"/>
	<path class="st17" d="M139.5,258.4c-4.8,0.9-9.7-1.4-11.9-5.9c3,2.9,7.2,4.1,11.2,3.3c4.7-0.7,8.6-4,10-8.5
		C148.9,252.8,144.9,257.5,139.5,258.4z"/>
	<path class="st17" d="M140.3,268c-4.9,0.9-9.7-1.5-11.9-5.9c3,2.9,7.2,4.1,11.2,3.4c4.7-0.7,8.6-4,10-8.5
		C149.7,262.5,145.7,267.2,140.3,268z"/>
	<path class="st79" d="M140.5,323.5c0.1-0.4-0.1-0.9-0.3-1.3c4.6-6.9,2.8-16.3-4.2-21c-6.9-4.6-16.3-2.8-21,4.2
		c-0.1,0.2-0.3,0.4-0.4,0.6c-0.5,0-1-0.2-1.4-0.4c-0.3-0.5-0.5-1-0.5-1.6v-0.5l-2.6-0.5l-0.2,0.5c-0.8,1.9-0.6,4,0.6,5.6
		c0.4,0.5,1.1,1.3,2.2,2.4c-0.1,0.8-0.2,1.5-0.2,2.3c0,4.1,1.7,8.1,4.7,10.9l1.2,1.1l1.5-0.6c1.5-0.6,3.1-1,4.7-1.2
		c0.7-0.1,1.4-0.1,2.1-0.1c2.8,0,5.5,0.6,8,1.8l1.4,0.7l0.7-0.6l3,1.7l0.5,0.3l1.7-2.1l-0.4-0.3C141,324.9,140.6,324.2,140.5,323.5z
		"/>
	<path class="st79" d="M165.4,323.5c-0.1-0.4,0.1-0.9,0.3-1.3c-4.8-6.9-3.1-16.3,3.8-21c6.9-4.8,16.3-3.1,21,3.8
		c0.2,0.3,0.5,0.7,0.7,1.1c0.5,0,1-0.2,1.4-0.4c0.3-0.5,0.5-1,0.5-1.6v-0.5l2.6-0.5l0.2,0.5c0.8,1.9,0.6,4-0.6,5.6
		c-0.4,0.5-1.1,1.3-2.1,2.4c0.1,0.8,0.2,1.5,0.2,2.3c0,4.1-1.7,8.1-4.7,10.9l-1.2,1.1l-1.5-0.6c-1.5-0.6-3.1-1-4.7-1.2
		c-0.7-0.1-1.4-0.1-2.1-0.1c-2.8,0-5.5,0.6-8,1.8l-1.4,0.7l-0.7-0.6l-3,1.7l-0.5,0.3l-1.7-2.1l0.4-0.4
		C164.9,324.8,165.3,324.2,165.4,323.5z"/>
	<path class="st17" d="M139.6,278.5c-4.8,0.9-9.7-1.4-11.9-5.9c3,2.9,7.2,4.1,11.2,3.3c4.7-0.7,8.6-4,10-8.5
		C149,272.9,145,277.7,139.6,278.5z"/>
	<path class="st17" d="M165.3,326.8c0,0,1.7-1.5,1.4-2.9s21.3-15,21.3-15s3.8,0.6,5.4-0.6c0.7-0.7,1-1.6,1-2.5
		c0.6,1.3,0.4,2.8-0.4,3.9c-0.8,1-3.1,3.1-3.1,3.1S166.9,325.9,165.3,326.8z"/>
	<path class="st17" d="M169.4,324.9c-3.1-2.1-4.9-5.5-5-9.2c0-0.8,0.1-1.6,0.3-2.4c1.3-5.5,6.9-9.5,13.4-9.5
		c7.5,0,13.7,5.3,13.7,11.9c0,3.3-1.6,6.5-4.2,8.6l-0.5,0.4l-0.6-0.2c-1.6-0.6-3.3-0.9-5-1.1c-0.7,0-1.5-0.1-2.2-0.1
		c-3,0-5.9,0.5-8.6,1.7l-0.6,0.3L169.4,324.9z"/>
	<path class="st11" d="M178.3,305.3c-6.1,0-11.2,3.8-12.4,8.8c-0.2,0.7-0.3,1.5-0.3,2.2c0.1,3.4,1.8,6.6,4.6,8.5
		c2.9-1.2,6-1.9,9.1-1.8c0.8,0,1.6,0,2.4,0.1c1.8,0.2,3.6,0.6,5.4,1.2c2.4-2,3.9-4.9,3.9-8C190.9,310.2,185.3,305.3,178.3,305.3z"/>
	<path class="st12" d="M190.9,316.4c0,3.1-1.5,6-3.9,7.9c-1.7-0.6-3.5-1-5.4-1.2l-15.8-9c1.2-5,6.3-8.8,12.4-8.8
		C185.3,305.4,190.9,310.4,190.9,316.4z"/>
	<path class="st13" d="M186.6,322.7c-1.4-0.4-2.9-0.7-4.3-0.9l-14.4-8.3c1.8-4.2,5.9-6.9,10.5-6.7c6.1,0,11,4.3,11,9.6
		C189.3,318.8,188.3,321,186.6,322.7z"/>
	<path class="st11" d="M183.7,314.5c-1.4-0.1-2.5-0.6-2.5-1.2s0.6-0.8,1.4-1c-1.8-2.6-4.8-4.2-8-4.1c-3.6-0.1-7,1.9-8.6,5.2
		c-0.2,0.8-0.3,1.6-0.3,2.4c0,3.6,1.7,7,4.6,9.1c2.9-1.3,6-2,9.1-2c0.8,0,1.6,0,2.4,0.1c1.5-1.6,2.4-3.7,2.4-5.9
		C184.2,316.2,184,315.4,183.7,314.5z"/>
	<path class="st80" d="M170.5,323.5c-2.3-2-3.5-4.8-3.6-7.8c0-0.7,0.1-1.3,0.2-2c1.5-2.7,4.4-4.4,7.5-4.4c2.4,0,7.7,11.1,6.6,12.5
		h-1.8C176.3,321.8,173.3,322.4,170.5,323.5z"/>
	<path class="st81" d="M169.7,325.3l-0.2-0.4c2.9-1.5,6.2-2.3,9.5-2.3c2.8-0.1,5.5,0.4,8.1,1.3l-0.1,0.4
		C181.3,322.3,175.1,322.7,169.7,325.3L169.7,325.3z"/>
	<path class="st82" d="M176.8,309.4c-0.4,0.2,0.2,1,0.4,1.4c1,1.3,1.9,2.8,2.7,4.3c0.2,1,1.7,4.1,1.9,4.9c0,0.3,0.3,0.5,0.6,0.5
		c0.1,0,0.2,0,0.3-0.1c0.4-1,0.6-2,0.6-3.1c-0.4-0.8-1-1.6-1.7-2.1c-0.4-0.4-1.4-1.4-1.4-2.1c0.1-1-0.4-2-1.2-2.5
		C177.9,309.7,177.3,309.2,176.8,309.4z"/>
	<ellipse class="st17" cx="174.4" cy="316.7" rx="6.4" ry="6"/>
	<g class="st18">
		<ellipse class="st7" cx="180" cy="316.9" rx="2.1" ry="2"/>
	</g>
	<g class="st19">
		<circle class="st7" cx="176.6" cy="318.3" r="1"/>
	</g>
	<path class="st17" d="M179.3,289.3L179.3,289.3c-4-1.5-8.4,0.5-9.8,4.5c-0.5,1.5-0.6,3.1-0.2,4.6L179.3,289.3z"/>
	<path class="st17" d="M180.5,298.7L180.5,298.7c-2.2-2.6-6.1-3-8.7-0.8c-1,0.8-1.7,1.9-2,3.1L180.5,298.7z"/>
	<path class="st17" d="M203,310.3l-0.4,2.3c-2.6,0.4-5.2-0.2-7.4-1.7C197.8,311.5,200.6,311.3,203,310.3z"/>
	<path class="st17" d="M201,321.4l-0.4,2c-0.8-0.4-1.6-0.8-2.4-1.4c-1.3-1-2.3-2.3-3-3.8c1.1,1.1,2.4,2,3.8,2.6
		C199.7,321.1,200.3,321.3,201,321.4z"/>
	<path class="st17" d="M140.7,326.4c0,0-1.7-1.5-1.4-2.8S117.9,309,117.9,309s-3.8,0.6-5.4-0.6c-0.7-0.6-1-1.5-1-2.5
		c-0.6,1.2-0.4,2.7,0.4,3.8c0.8,1,3.1,3,3.1,3S139,325.5,140.7,326.4z"/>
	<path class="st17" d="M136.5,324.5c3.1-2,4.9-5.4,5-9.1c0-0.8-0.1-1.6-0.3-2.4c-1.3-5.5-6.9-9.4-13.4-9.4
		c-7.5,0-13.7,5.3-13.7,11.8c0,3.3,1.6,6.5,4.2,8.5l0.5,0.4l0.6-0.2c1.6-0.6,3.3-0.9,5-1.1c0.7,0,1.5-0.1,2.2-0.1
		c3,0,5.9,0.5,8.6,1.7l0.6,0.3L136.5,324.5z"/>
	<path class="st11" d="M127.6,305c6.1,0,11.2,3.8,12.4,8.8c0.2,0.7,0.3,1.5,0.3,2.2c-0.1,3.4-1.8,6.5-4.6,8.4
		c-2.9-1.2-5.9-1.8-9-1.8c-0.8,0-1.6,0-2.4,0.1c-1.8,0.2-3.6,0.6-5.4,1.2c-2.4-1.9-3.9-4.8-3.9-7.9C115,310,120.7,305,127.6,305z"/>
	<path class="st12" d="M115,316.1c0,3.1,1.5,6,3.9,7.9c1.7-0.6,3.5-1,5.4-1.1l15.8-8.9c-1.2-5-6.3-8.7-12.4-8.7
		C120.7,305.2,115,310.1,115,316.1z"/>
	<path class="st13" d="M119.3,322.3c1.4-0.4,2.9-0.7,4.3-0.9l14.5-8.2c-1.8-4.2-5.9-6.9-10.5-6.7c-6.1,0-11,4.3-11,9.5
		C116.7,318.4,117.6,320.7,119.3,322.3z"/>
	<path class="st11" d="M122.2,314.4c1.4-0.1,2.5-0.6,2.5-1.2s-0.6-0.8-1.4-1c1.9-2.6,4.9-4.1,8.1-4c3.6-0.1,6.9,1.8,8.6,5
		c0.2,0.8,0.3,1.5,0.3,2.3c0,3.5-1.7,6.8-4.6,8.9c-2.9-1.3-6-1.9-9.1-1.9c-0.8,0-1.6,0-2.4,0.1c-1.5-1.5-2.4-3.6-2.4-5.8
		C121.8,316.1,122,315.2,122.2,314.4z"/>
	<path class="st80" d="M135.5,323.2c2.2-1.9,3.5-4.6,3.6-7.6c0-0.7-0.1-1.3-0.2-2c-1.5-2.7-4.3-4.3-7.4-4.3
		c-2.4,0-7.7,10.9-6.6,12.2h1.8C129.7,321.5,132.7,322.1,135.5,323.2z"/>
	<path class="st81" d="M136.2,325.3c-5.4-2.6-11.6-3-17.3-0.9l-0.2-0.4c2.6-1,5.4-1.4,8.1-1.4c3.3,0,6.6,0.8,9.5,2.3L136.2,325.3z"
		/>
	<path class="st82" d="M129.1,309.4c0.4,0.2-0.2,0.9-0.4,1.3c-1,1.3-1.9,2.7-2.7,4.2c-0.2,0.9-1.7,4-1.9,4.7c0,0.3-0.3,0.5-0.6,0.5
		c-0.1,0-0.2,0-0.3-0.1c-0.4-1-0.6-2-0.6-3c0.4-0.8,1-1.5,1.7-2.1c0.4-0.4,1.4-1.3,1.4-2.1c-0.1-1,0.4-1.9,1.2-2.5
		C128.1,309.8,128.7,309.2,129.1,309.4z"/>
	<ellipse class="st17" cx="131.6" cy="316.5" rx="6.4" ry="5.9"/>
	<g class="st18">
		<circle class="st7" cx="126" cy="316.3" r="2.1"/>
	</g>
	<g class="st19">
		<circle class="st7" cx="129.3" cy="318.3" r="1"/>
	</g>
	<path class="st17" d="M102.7,311.3l0.4,2.1c2.6,0.3,5.2-0.2,7.4-1.5C107.9,312.5,105.2,312.3,102.7,311.3z"/>
	<path class="st17" d="M104.8,321.4l0.4,2c0.8-0.4,1.6-0.8,2.4-1.4c1.3-1,2.4-2.3,3.1-3.8c-1.1,1.1-2.4,2-3.8,2.6
		C106.1,321.1,105.4,321.3,104.8,321.4z"/>
	<path class="st17" d="M100.2,296.7l1.4,7.4l0,0c1.4,1.9,3.6,3.1,6,3.2c-2.8-1.2-4.9-3.6-5.5-6.6c-0.9-3.4,0.2-7,2.8-9.2
		C102.6,292.4,100.8,294.3,100.2,296.7z"/>
	<path class="st17" d="M128.8,289.4L128.8,289.4c4.1-1.1,8.3,1.2,9.5,5.3c0.4,1.5,0.4,3-0.1,4.5L128.8,289.4z"/>
	<path class="st17" d="M126.9,298.7L126.9,298.7c2.4-2.5,6.3-2.6,8.8-0.2c0.9,0.9,1.5,2,1.8,3.2L126.9,298.7z"/>
	<circle class="st83" cx="136.3" cy="320.5" r="2"/>
	<circle class="st83" cx="128.8" cy="320.2" r="2.1"/>
	<circle class="st83" cx="125.3" cy="320.8" r="2.1"/>
	
		<ellipse transform="matrix(0.3603 -0.9328 0.9328 0.3603 -215.321 329.3593)" class="st83" cx="132.5" cy="321.7" rx="2.1" ry="2.1"/>
	<circle class="st83" cx="136.4" cy="323.1" r="1.7"/>
	<rect x="151.5" y="333.9" class="st17" width="1" height="3.5"/>
	<path class="st84" d="M212.4,266.9c-0.5,0.5-1.1,1-1.8,1.4l-1.9,10.5l-2.1-1.1c0,0-4.2-5.8-7.3-7.7l-0.4-0.2
		c-2.7-1.3-7.2-4.3-8.4-5.1l-0.3-0.2l0.1-0.1l0.9-0.6c1.3,1.1,2.8,2,4.4,2.5c1.6,0.5,3.2,0.8,4.8,0.9c2,0,3.9-0.3,5.7-1
		c1.6-0.6,3-1.5,4.3-2.6l0,0c0.3,0.3,0.6,0.7,0.8,1.1C211.8,265.3,212.1,266.1,212.4,266.9z"/>
	<ellipse class="st85" cx="127.4" cy="327.6" rx="8.4" ry="3.1"/>
	<ellipse class="st85" cx="179" cy="327.6" rx="8.4" ry="3.1"/>
	<path class="st84" d="M115.5,263.8c-2.8,2.3-5.7,4.4-8.7,6.5l-0.5,0.3c-3.1,2.3-7.2,9.3-7.2,9.3l-2,0.6l-1.9-11.9
		c-0.7-0.5-1.3-1.1-1.8-1.7c0.2-0.7,0.4-1.3,0.6-2c0.1-0.3,0.3-0.7,0.5-1c0.8,0.8,1.8,1.5,2.8,2c4.5,2.4,9.9,2.4,14.4,0
		c1.2-0.7,2.3-1.5,3.3-2.5L115.5,263.8z"/>
	<g class="st86">
		<path class="st87" d="M212.8,266.4l-0.1,0.3c-0.5,0.8-1.1,1.6-1.8,2.2l-2.7,15.5v0.1l-0.9,5l-1.1,5.8l-0.3,1.7l-1.1,5.6l0,0
			l-0.4,2.3l-0.7,3.7l-0.4,2.1v0.2l-0.4,1.9v0.2l-1.3,6.7l-0.4,2l0,0l-0.4,1.9l0,0l-1.1,5.6l0.2,0.1l0,0l-0.5,2.6l0,0l-0.2,0.1
			l-0.8,3.5c0,1-0.8,1.8-1.9,1.8h-44.1V239h1.6c12.2,0.1,24,4.4,33.4,12h1c3.9-1.3,8-2,12.1-2.1l0,0
			C214.4,248.9,216.9,259.5,212.8,266.4z"/>
	</g>
	<circle class="st17" cx="158.6" cy="335.1" r="0.6"/>
	<circle class="st17" cx="163" cy="335.1" r="0.6"/>
	<circle class="st17" cx="163" cy="331.8" r="0.6"/>
	<circle class="st17" cx="167.3" cy="335.1" r="0.6"/>
	<circle class="st17" cx="137.7" cy="335.1" r="0.6"/>
	<circle class="st17" cx="142" cy="335.1" r="0.6"/>
	<circle class="st17" cx="142" cy="331.8" r="0.6"/>
	<circle class="st17" cx="146.4" cy="335.1" r="0.6"/>
	<path class="st88" d="M115.9,321.2H127c0.9,0,1.6,0.7,1.6,1.6v2.2c0,0.9-0.7,1.6-1.6,1.6h-11.1c-0.9,0-1.6-0.7-1.6-1.6v-2.2
		C114.3,321.9,115,321.2,115.9,321.2z"/>
	<path class="st88" d="M181.9,321.4h11.8c0.9,0,1.6,0.7,1.6,1.6v2.2c0,0.9-0.7,1.6-1.6,1.6h-11.8c-0.9,0-1.6-0.7-1.6-1.6V323
		C180.4,322.1,181.1,321.4,181.9,321.4z"/>
	<circle class="st83" cx="169.9" cy="320.7" r="2"/>
	<circle class="st83" cx="177.5" cy="320.4" r="2.1"/>
	<circle class="st83" cx="181" cy="321" r="2.1"/>
	
		<ellipse transform="matrix(0.9328 -0.3603 0.3603 0.9328 -104.3035 84.2329)" class="st83" cx="173.8" cy="321.9" rx="2.1" ry="2.1"/>
	<circle class="st83" cx="169.8" cy="323.3" r="1.7"/>
	<path class="st42" d="M131.1,223.6l0.3-16.4c8.4-9.6,8.7-23.8,0.7-33.7c-0.9-1.1-1.9-2.1-2.9-3.1c-10.8-9.7-27.4-8.8-37.1,2
		c-4.8,5.3-7.2,12.3-6.7,19.4c0.1,0.8,0.2,1.7,0.3,2.5c0.1,0.7,0.3,1.4,0.5,2.1c3.6,13.8,17.5,22.3,31.5,19L131.1,223.6z"/>
	
		<ellipse transform="matrix(0.996 -8.963770e-02 8.963770e-02 0.996 -16.6161 10.8526)" class="st44" cx="112.5" cy="190.4" rx="23" ry="23"/>
	<path class="st43" d="M103.3,352.3H217c2.6,0,4.8,2.1,4.8,4.8v6.3c0,2.6-2.1,4.8-4.8,4.8H103.3c-2.6,0-4.8-2.1-4.8-4.8V357
		C98.5,354.4,100.7,352.3,103.3,352.3z"/>
	<path class="st44" d="M219.4,357.8v4.9c0,2-1.6,3.7-3.7,3.7h-111c-2,0-3.7-1.6-3.7-3.7v-4.9c0-2,1.6-3.7,3.7-3.7h111
		C217.7,354.2,219.4,355.8,219.4,357.8z"/>
	<path class="st45" d="M113.3,354.2v12.7h-11.8c-0.3,0-0.6-2.4-0.6-5.4v-2c0-3,0.3-5.4,0.6-5.4L113.3,354.2z"/>
	<path class="st46" d="M131.1,223.6l0.3-16.4c4.8-5.5,7.1-12.7,6.3-20l-52.3,4.7c0.1,0.8,0.2,1.7,0.3,2.5c0.1,0.7,0.3,1.4,0.5,2.1
		c3.6,13.8,17.5,22.3,31.5,19L131.1,223.6z"/>
	<path class="st89" d="M96,175.8c0,0,8.3-1.4,9.9,3.4c1.9,2.6,1.2,3.3,1.2,3.3l-3.2-1.2C100.3,181.3,97.2,179.1,96,175.8z"/>
	<path class="st89" d="M130.1,176.1c0,0-8.3-1.4-9.9,3.4c-1.9,2.6-1.2,3.3-1.2,3.3l3.2-1.2C125.8,181.7,128.9,179.5,130.1,176.1z"/>
	<path class="st89" d="M113.2,175.9c-5.3,0.4-9.6,4.3-10.6,9.5c-0.4,2.1-1.3,5-0.7,8.4c-1.1,1.2-6.4,7.9,0.6,12.1s17.9,4.6,22.7-0.8
		s0.9-9.8-0.7-11c0.4-2.8,0.3-5.6-0.4-8.3C122.8,181.5,118.5,175.9,113.2,175.9z"/>
	<path class="st89" d="M119.5,194.8c0,1.8-2.2,3.3-5.9,3.3s-6.7-1.4-6.7-3.2s2.6-3.6,6.3-3.6S119.5,193,119.5,194.8z"/>
	<ellipse class="st89" cx="108.9" cy="185.5" rx="1.3" ry="2.6"/>
	<ellipse class="st89" cx="117.5" cy="185.5" rx="1.3" ry="2.6"/>
	<ellipse class="st89" cx="110.6" cy="193.9" rx="2.3" ry="1.2"/>
	<ellipse class="st89" cx="117.7" cy="186.2" rx="0.9" ry="1.7"/>
	<ellipse class="st89" cx="109.1" cy="186.2" rx="0.9" ry="1.7"/>
	<ellipse class="st89" cx="109.3" cy="186.9" rx="0.5" ry="1.1"/>
	<ellipse class="st89" cx="117.8" cy="186.9" rx="0.5" ry="1.1"/>
	<path class="st89" d="M130.1,176.1c0,0-8.3-1.4-9.9,3.4c-1.9,2.6-1.2,3.3-1.2,3.3l3.2-1.2C125.7,181.7,128.9,179.5,130.1,176.1z"/>
	<path class="st89" d="M114.4,209c4.3,0,8.2-1.3,10.6-4c4.8-5.5,0.9-9.8-0.7-11c0.4-2.8,0.3-5.6-0.4-8.3c-1.2-4.2-5.5-9.8-10.8-9.8"
		/>
	<path class="st89" d="M113.8,191.3c3.4,0.2,5.8,1.8,5.8,3.5s-2.1,3.2-5.5,3.3"/>
	<ellipse class="st89" cx="117.4" cy="185.5" rx="1.3" ry="2.6"/>
	<ellipse class="st89" cx="117.6" cy="186.2" rx="0.9" ry="1.7"/>
	<ellipse class="st89" cx="117.7" cy="186.9" rx="0.5" ry="1.1"/>
	<path class="st90" d="M95.3,175.8c0,0,8.3-1.4,9.9,3.4c1.9,2.6,1.2,3.3,1.2,3.3l-3.2-1.2C99.6,181.4,96.5,179.1,95.3,175.8z"/>
	<path class="st90" d="M129.4,176.1c0,0-8.3-1.4-9.9,3.4c-1.9,2.6-1.2,3.3-1.2,3.3l3.2-1.2C125,181.7,128.2,179.5,129.4,176.1z"/>
	<path class="st91" d="M112.4,175.9c-5.3,0.4-9.6,4.3-10.6,9.5c-0.4,2.1-1.3,5-0.7,8.4c-1.1,1.2-6.4,7.9,0.6,12.1s17.9,4.6,22.7-0.8
		s0.9-9.8-0.7-11c0.4-2.8,0.3-5.6-0.4-8.3C122.1,181.5,117.7,175.9,112.4,175.9z"/>
	<path class="st92" d="M118.8,194.8c0,1.8-2.2,3.3-5.9,3.3s-6.7-1.4-6.7-3.2s2.6-3.6,6.3-3.6S118.8,193,118.8,194.8z"/>
	<ellipse class="st44" cx="108.2" cy="185.5" rx="1.3" ry="2.6"/>
	<ellipse class="st44" cx="116.7" cy="185.5" rx="1.3" ry="2.6"/>
	<ellipse class="st93" cx="109.9" cy="193.9" rx="2.3" ry="1.2"/>
	<ellipse class="st94" cx="116.9" cy="186.2" rx="0.9" ry="1.7"/>
	<ellipse class="st94" cx="108.4" cy="186.2" rx="0.9" ry="1.7"/>
	<ellipse cx="108.6" cy="186.9" rx="0.5" ry="1.1"/>
	<ellipse cx="117.1" cy="186.9" rx="0.5" ry="1.1"/>
	<path class="st59" d="M129.4,176.1c0,0-8.3-1.4-9.9,3.4c-1.9,2.6-1.2,3.3-1.2,3.3l3.2-1.2C125,181.7,128.2,179.5,129.4,176.1z"/>
	<path class="st90" d="M113.7,209c4.3,0,8.2-1.3,10.7-4c4.8-5.5,0.9-9.8-0.7-11c0.4-2.8,0.3-5.6-0.4-8.3c-1.2-4.2-5.5-9.8-10.8-9.8"
		/>
	<path class="st59" d="M113,191.3c3.4,0.2,5.8,1.8,5.8,3.5s-2.1,3.2-5.5,3.3"/>
	<ellipse class="st44" cx="116.7" cy="185.5" rx="1.3" ry="2.6"/>
	<ellipse class="st95" cx="116.9" cy="186.2" rx="0.9" ry="1.7"/>
	<ellipse cx="117" cy="186.9" rx="0.5" ry="1.1"/>
</g>
<text transform="matrix(1 0 0 1 352.51 293.8176)" class="st96 st39 st97">Good</text>
<text transform="matrix(1 0 0 1 243.77 294.02)" class="st98 st39 st99">Bad</text>
<polygon class="st98" points="244.6,332.3 266.1,309.3 261.3,304.8 239.8,327.8 234.2,322.5 228.9,345.4 251.4,338.6 "/>
<polygon class="st96" points="403,332.3 381.6,309.3 386.4,304.8 407.9,327.8 413.5,322.5 418.8,345.4 396.3,338.6 "/>
<rect x="179.7" y="172.7" class="st27" width="262" height="52.7"/>
<text transform="matrix(1 0 0 1 188.7909 185.4466)"><tspan x="0" y="0" class="st100 st101">Keep the animals food meter full </tspan><tspan x="52.4" y="21.6" class="st100 st101">by collecting food.</tspan></text>
</svg>
