<svg xmlns="http://www.w3.org/2000/svg" xmlns:xlink="http://www.w3.org/1999/xlink" viewBox="0 0 631.47 386.58"><defs><style>.a{fill:#a8a8a8;}.b{fill:#b5b5b5;}.c{fill:#c6c6c6;}.d{fill:#d3d3d3;}.e{fill:#ddd;}.f{fill:#cecece;}.g{fill:#eae8e8;}.h{fill:#efefef;}.as,.i{opacity:0.35;}.al,.am,.an,.as,.bc,.bg,.bh,.bi,.bj,.bo,.bp,.bq,.br,.cd,.ce,.cq,.cr,.i{isolation:isolate;}.i{fill:url(#a);}.j{fill:#e5e5e5;}.k{fill:#9b9a9a;}.l{fill:#495750;}.m{fill:#ccc;}.n{fill:#e8e8e8;}.o{fill:#249daa;}.p{fill:#1b6d6b;}.q{fill:#2bd0d8;}.r{fill:#2b2b2b;}.s{opacity:0.74;}.t{opacity:0.41;}.u{fill:#f9b9b9;}.v{fill:#eaeaea;}.w{fill:#a3a3a3;}.x{fill:#c1bfbf;}.y{fill:#784418;}.z{fill:#492812;}.aa{fill:#86502a;}.ab{fill:none;}.ac{fill:#b87f50;}.ad{fill:#5d3b20;}.ae{fill:#683f29;}.af{fill:#5c2f0b;}.ag{fill:url(#b);}.ah{opacity:0.76;}.ai{fill:url(#c);}.aj{opacity:0.7;}.ak{fill:url(#d);}.al{fill:#212121;opacity:0.43;}.am{opacity:0.56;fill:#1e0404;}.am,.an{font-size:42px;}.am,.an,.cq,.cr{font-family:GROBOLD, GROBOLD;}.an{fill:#f4f2f2;}.ao{fill:#099;}.ap{fill:#00b7b2;}.aq{fill:#fff;}.ar{fill:#f36;}.as{fill:#232323;}.at{fill:#384948;}.au{fill:#465b5a;}.av{fill:#262e26;}.aw{fill:#526664;}.ax{fill:#5a6d6b;}.ay{fill:#ad6123;}.az{fill:#874616;}.ba{fill:#e57929;}.bb{fill:#997373;}.bc{fill:#253332;}.bc,.cg{opacity:0.34;}.bd,.bj{fill:#42210b;}.be,.bg{fill:#603813;}.bf{fill:#754c24;}.bg,.bh,.bi,.bj,.bo,.bp,.bq,.br{opacity:0.5;}.bh,.ck{fill:#a67c52;}.bi,.cm{fill:#8c6239;}.bk{opacity:0.4;}.bl{fill:#301709;}.bm{fill:#512d10;}.bn{fill:#56351a;}.bo{fill:#936c4a;}.bp{fill:#775132;}.bq{fill:#472910;}.br{fill:#2b1407;}.bs{fill:#d36318;}.bt{fill:#f4731c;}.bu{fill:#d8d8d8;}.bv{fill:#ededed;}.bw{fill:#ff9292;}.bx{fill:#f27d2f;}.by,.ce{fill:#724720;}.bz{fill:#bc5d1d;}.ca{fill:#33493e;}.cb{fill:#84572f;}.cc{fill:#686b72;}.cd,.ci{fill:#1dcaf2;}.cd{opacity:0.3;}.ce{opacity:0.69;}.cf{fill:#ef874d;}.ch{fill:#512600;}.cj{fill:#3d240e;}.cl{fill:#c69c6d;}.cn{fill:#e6e6e6;}.co{fill:#39b54a;}.cp{fill:#009245;}.cq{font-size:21px;}.cq,.ct{fill:#13bc13;}.cr{font-size:20px;}.cr,.cs{fill:#d31616;}.cu{font-size:18px;font-family:MyriadPro-Regular, Myriad Pro;}.cv{letter-spacing:-0.01em;}.cw{letter-spacing:-0.01em;}.cx{letter-spacing:-0.01em;}.cy{letter-spacing:0.01em;}.cz{letter-spacing:-0.01em;}</style><linearGradient id="a" x1="383.95" y1="199.8" x2="383.95" y2="189.67" gradientTransform="translate(-17.28 102.26) rotate(-15.15) scale(0.99)" gradientUnits="userSpaceOnUse"><stop offset="0" stop-opacity="0"/><stop offset="1"/></linearGradient><radialGradient id="b" cx="438.16" cy="444.55" r="37.4" gradientTransform="translate(-14.76 -239.36)" gradientUnits="userSpaceOnUse"><stop offset="0" stop-color="#b87f50" stop-opacity="0.3"/><stop offset="0.22" stop-color="#caa687" stop-opacity="0.17"/><stop offset="0.46" stop-color="#d8c5b2" stop-opacity="0.08"/><stop offset="0.71" stop-color="#e0d7cc" stop-opacity="0.02"/><stop offset="1" stop-color="#e3ddd4" stop-opacity="0"/></radialGradient><radialGradient id="c" cx="898.62" cy="477.75" r="37.39" gradientTransform="matrix(-1, 0, 0, 1, 1239.03, -239.36)" xlink:href="#b"/><linearGradient id="d" x1="482.54" y1="482.69" x2="515.68" y2="482.69" gradientTransform="translate(-14.76 -239.36)" xlink:href="#b"/></defs><title>tut3desktop</title><path class="a" d="M409.39,201l-2.25,23.84a2.87,2.87,0,0,1-3.12,2.58c-15.14.42-28.58-3-39-11.25a12.46,12.46,0,0,1-2.58-3.12l.84-8.85a2.87,2.87,0,0,1,3.12-2.58c13.15,1.68,27,1.85,40.44-3.74A2.87,2.87,0,0,1,409.39,201Z" transform="translate(-80 -114)"/><path class="b" d="M426.19,195.49l-5.94-6.06a1.92,1.92,0,0,1,0-2.72h0l1.36-1.35a7.76,7.76,0,0,1,11,.08l0,0h0l6.19,6.32a.91.91,0,0,1,0,1.29h0l-2.56,2.51A7.12,7.12,0,0,1,426.19,195.49Z" transform="translate(-80 -114)"/><path class="c" d="M404.78,223a1.21,1.21,0,0,1-.29.08l-.33-.07-.54.3c-14.29,1.41-27.6-1.3-37.23-8.87a10.16,10.16,0,0,1-1.66-1.89l.76-8.09a.61.61,0,0,1,.45-.53.58.58,0,0,1,.19,0c17.82,2.27,28,.3,34.19-1.38a61.26,61.26,0,0,0,6.6-2.22.61.61,0,0,1,.21.51l-1.86,21.71C405.26,222.83,405,222.94,404.78,223Z" transform="translate(-80 -114)"/><path class="d" d="M426.42,193.34a6.91,6.91,0,0,0,9.76.1l1-1-4.57-4.7a7.67,7.67,0,0,0-10.84-.11.67.67,0,0,0,0,.93Z" transform="translate(-80 -114)"/><path class="b" d="M372.61,209.49l2.11-8.59a7.76,7.76,0,0,1,9.39-5.68h0l1.87.46a1.92,1.92,0,0,1,1.37,2.34v0h0l-2,8.24a7.12,7.12,0,0,1-8.61,5.21l-3.48-.85a.91.91,0,0,1-.67-1.1h0Z" transform="translate(-80 -114)"/><path class="e" d="M384.06,204.46a6.91,6.91,0,0,1-8.35,5.05l-1.38-.34,1.57-6.38a7.67,7.67,0,0,1,9.27-5.61.67.67,0,0,1,.48.79Z" transform="translate(-80 -114)"/><path class="f" d="M387.61,220.21l-.54-3.57-1-6.66-.37-2.47h0l-.18-1.19-.52-3.45-.06-.37-.16-1v-.06l-.79-5.22-1-6.46-.38-2.46-.1-.65a.61.61,0,0,0-.06-.32c-.06-.11,0-.16,0-.24V186a3.15,3.15,0,0,1,0-.47,3.34,3.34,0,0,1,.18-1,3.39,3.39,0,0,1,.8-1.29,3.33,3.33,0,0,1,1.5-.88l28.1-7.69a3.33,3.33,0,0,1,1.74,0,3.39,3.39,0,0,1,1.34.7,3.34,3.34,0,0,1,.68.79,3,3,0,0,1,.22.42v.07c0,.08.06.15.08.23a2.86,2.86,0,0,0,.11.3l.25.61.92,2.26,2.1,5.18.21.52.14.35,3.64,9h0l.38.94v.1l3.67,9.07,1.39,3.44C434.26,224.36,391.94,235.94,387.61,220.21Z" transform="translate(-80 -114)"/><path class="g" d="M390.46,221.42l-5.06-33.57a2,2,0,0,0-.09-.48,1,1,0,0,1,.67-1.12l28.1-7.69a1,1,0,0,1,1.15.62,1.69,1.69,0,0,0,.16.46l12.74,31.47C430.16,218.51,392.49,228.82,390.46,221.42Z" transform="translate(-80 -114)"/><path class="h" d="M410,218.14a49.54,49.54,0,0,1-10.66,1.9l-5.08-29,15.48-4.3,10.38,27.52A49.54,49.54,0,0,1,410,218.14Z" transform="translate(-80 -114)"/><path class="a" d="M345.61,224.86l2.57-11.9a10.67,10.67,0,0,1,12.68-8.18h0l2.6.56a2.64,2.64,0,0,1,2,3.14h0L363,219.88a9.79,9.79,0,0,1-11.64,7.5h0l-4.86-1a1.25,1.25,0,0,1-1-1.45v0Z" transform="translate(-80 -114)"/><path class="d" d="M361.21,217.51a9.5,9.5,0,0,1-11.27,7.23l-1.91-.41,1.91-8.83a10.55,10.55,0,0,1,12.53-8.08.92.92,0,0,1,.69,1.07Z" transform="translate(-80 -114)"/><path class="a" d="M367.84,197.68,365.38,209a2.64,2.64,0,0,1-3.14,2h0l-2.6-.56a10.67,10.67,0,0,1-8.18-12.68h0L354,185.9a1.25,1.25,0,0,1,1.45-1h0l4.82,1a9.79,9.79,0,0,1,7.54,11.61Z" transform="translate(-80 -114)"/><path class="d" d="M365.19,199.11a9.5,9.5,0,0,0-7.27-11.28l-1.91-.41-1.91,8.83a10.55,10.55,0,0,0,8.07,12.49.92.92,0,0,0,1.07-.69Z" transform="translate(-80 -114)"/><path class="i" d="M420.72,185.5l-36.91,10.1L382.55,187a1.75,1.75,0,0,1,0-.35,2.54,2.54,0,0,0,0-.55c-.06-.22-.11-.44-.16-.66L416.95,176c.07.22.14.43.2.65a2.54,2.54,0,0,0,.24.5,1.75,1.75,0,0,1,.15.32Z" transform="translate(-80 -114)"/><path class="f" d="M431.61,169a3.48,3.48,0,0,1-2.53,4.2L372,188.88a3.48,3.48,0,0,1-4.35-2.3v0l-11.16-33.42a3.41,3.41,0,0,1-.12-1,23.92,23.92,0,0,1-.77-5.22h0A27.26,27.26,0,0,1,360.23,131a33,33,0,0,1,2-2.77,39.17,39.17,0,0,1,19.28-12.53h.1l.8-.23a39.25,39.25,0,0,1,24.27.89,31.76,31.76,0,0,1,3.18,1.34,27.09,27.09,0,0,1,11.88,11.36,24.15,24.15,0,0,1,1.93,4.87,2.3,2.3,0,0,0,.13.5c0,.17,0,.15.07.22Z" transform="translate(-80 -114)"/><path class="f" d="M372.61,183.74A9.11,9.11,0,1,1,379,172.55h0A9.12,9.12,0,0,1,372.61,183.74Z" transform="translate(-80 -114)"/><path class="f" d="M425,169.37a9.11,9.11,0,1,1,6.38-11.19h0A9.12,9.12,0,0,1,425,169.37Z" transform="translate(-80 -114)"/><path class="j" d="M429.44,166.41a5.23,5.23,0,0,1-3.3,5.46l-53,14.52a5.2,5.2,0,0,1-4.88-3.29l-.35-1.87-10.47-29.28v-.12a.65.65,0,0,1,0-.18v-.43l-.11-.42c-1.8-6.88-.22-14.27,4.47-20.8a38,38,0,0,1,20.86-14.05c18-4.91,35.8,2.84,39.74,17.28l.1.39v.5l6,30h0Z" transform="translate(-80 -114)"/><circle class="j" cx="370.16" cy="174.95" r="7.91" transform="translate(-113.05 -10.13) rotate(-15.3)"/><circle class="j" cx="420.81" cy="161.73" r="7.87" transform="translate(-107.65 1.62) rotate(-15.15)"/><path class="k" d="M375.35,177.3a6.34,6.34,0,1,0-7.34,4.14l.3.07.18-.25a8.83,8.83,0,0,1,1.7-1.73,9.43,9.43,0,0,1,.85-.59,8.94,8.94,0,0,1,3.88-1.31h.31Z" transform="translate(-80 -114)"/><path class="l" d="M366.4,170.62a5.86,5.86,0,0,1,8.61,6.9,9.41,9.41,0,0,0-4.09,1.38,9.88,9.88,0,0,0-.9.62,9.32,9.32,0,0,0-1.8,1.83,5.86,5.86,0,0,1-1.82-10.73Z" transform="translate(-80 -114)"/><path class="m" d="M364.47,178.68a5.84,5.84,0,0,0,3.75,2.66,9.32,9.32,0,0,1,1.8-1.83l3.72-7.91a5.86,5.86,0,0,0-9.27,7.08Z" transform="translate(-80 -114)"/><path class="n" d="M367.93,180.47A10.15,10.15,0,0,1,369.4,179l3.41-7.28a5.09,5.09,0,0,0-7.69,6.5A5,5,0,0,0,367.93,180.47Z" transform="translate(-80 -114)"/><path class="o" d="M367,176.42c.53-.41.82-.87.67-1.12s-.42-.2-.82-.09a4.42,4.42,0,0,1,6.87-3.6,5.87,5.87,0,0,1,1.27,5.92,9.41,9.41,0,0,0-4.09,1.38,9.88,9.88,0,0,0-.9.62,4.42,4.42,0,0,1-3-3.1Z" transform="translate(-80 -114)"/><path class="p" d="M374.61,177a5.29,5.29,0,0,0-1.2-4.94,3.86,3.86,0,0,0-4.08,0c-.94.58-.16,6.56.63,6.87.23-.16.46-.32.7-.47A10.09,10.09,0,0,1,374.61,177Z" transform="translate(-80 -114)"/><path class="k" d="M375.36,177.61a10.36,10.36,0,0,0-7,3.81l-.15-.12a10.32,10.32,0,0,1,2.89-2.49,10.21,10.21,0,0,1,4.3-1.4Z" transform="translate(-80 -114)"/><path class="q" d="M368.38,172.56c.21,0,.17.46.19.67a13.66,13.66,0,0,0,0,2.51c.17.46.4,2.12.52,2.5s-.23.36-.23.36-.93-.78-1-1.16a3,3,0,0,1,.1-1.3,2,2,0,0,0,0-1.25,1.41,1.41,0,0,1-.16-1.37C368.07,173,368.17,172.58,368.38,172.56Z" transform="translate(-80 -114)"/><circle class="r" cx="371.26" cy="175.06" r="2.98" transform="translate(-116.74 105.92) rotate(-31.52)"/><g class="s"><circle class="h" cx="368.2" cy="177.15" r="0.96" transform="translate(-118.33 104.2) rotate(-31.46)"/></g><g class="t"><circle class="h" cx="370.01" cy="177.17" r="0.48" transform="translate(-118.07 105.15) rotate(-31.46)"/></g><ellipse class="u" cx="426.04" cy="168.38" rx="2.67" ry="2.05" transform="translate(-109 107.31) rotate(-28.2)"/><ellipse class="u" cx="372.56" cy="183.75" rx="2.67" ry="2.05" transform="translate(-87.05 -98.97) rotate(-2.29)"/><path class="k" d="M419.15,164.86a6.34,6.34,0,1,1,8.42.29l-.24.2-.28-.14a8.83,8.83,0,0,0-2.31-.75,9.43,9.43,0,0,0-1-.13,8.94,8.94,0,0,0-4,.63l-.29.12Z" transform="translate(-80 -114)"/><path class="l" d="M424,154.81a5.86,5.86,0,0,0-4.47,10.09,9.41,9.41,0,0,1,4.27-.66,9.88,9.88,0,0,1,1.08.14,9.32,9.32,0,0,1,2.43.79A5.86,5.86,0,0,0,424,154.81Z" transform="translate(-80 -114)"/><path class="m" d="M429.44,161a5.84,5.84,0,0,1-2.11,4.09,9.32,9.32,0,0,0-2.43-.79l-7-5.31a5.86,5.86,0,0,1,11.49,2Z" transform="translate(-80 -114)"/><path class="n" d="M427.19,164.26a10.15,10.15,0,0,0-2-.61l-6.33-4.91a5.09,5.09,0,0,1,9.75,2.3A5,5,0,0,1,427.19,164.26Z" transform="translate(-80 -114)"/><path class="o" d="M426.14,160.24c-.66-.12-1.13-.4-1.11-.68s.28-.37.69-.46a4.42,4.42,0,0,0-7.76,0,5.87,5.87,0,0,0,1.65,5.84,9.41,9.41,0,0,1,4.27-.66,9.88,9.88,0,0,1,1.08.14,4.42,4.42,0,0,0,1.24-4.14Z" transform="translate(-80 -114)"/><path class="p" d="M419.7,164.23a5.29,5.29,0,0,1-1.2-4.94,3.86,3.86,0,0,1,3.61-1.92c1.1.08,3.16,5.76,2.6,6.39-.28,0-.55-.07-.83-.09A10.09,10.09,0,0,0,419.7,164.23Z" transform="translate(-80 -114)"/><path class="k" d="M419.28,165.14a10.36,10.36,0,0,1,8,.14l.08-.18a10.32,10.32,0,0,0-3.71-.88,10.21,10.21,0,0,0-4.46.74Z" transform="translate(-80 -114)"/><path class="q" d="M423.15,157.45c-.2.08.06.49.14.68a13.66,13.66,0,0,1,1.09,2.2c.06.49.62,2.07.69,2.46s.37.22.37.22a4.82,4.82,0,0,0,.4-1.51,3,3,0,0,0-.69-1.11c-.18-.21-.62-.72-.59-1.1a1.41,1.41,0,0,0-.49-1.29C423.61,157.67,423.35,157.37,423.15,157.45Z" transform="translate(-80 -114)"/><circle class="r" cx="421.22" cy="160.01" r="2.99" transform="translate(152.19 455.02) rotate(-86)"/><g class="s"><circle class="h" cx="424.31" cy="161.28" r="0.96" transform="translate(152.96 458.9) rotate(-85.88)"/></g><g class="t"><circle class="h" cx="422.71" cy="162.13" r="0.48" transform="translate(150.63 458.1) rotate(-85.88)"/></g><ellipse class="f" cx="389.48" cy="140.86" rx="31.71" ry="22.74" transform="translate(-103.37 -6.24) rotate(-15.3)"/><ellipse class="e" cx="389.16" cy="139.68" rx="29.37" ry="20.65" transform="translate(-103.06 -6.37) rotate(-15.3)"/><ellipse class="v" cx="388.03" cy="134.56" rx="22.27" ry="11.57" transform="translate(-101.75 -6.85) rotate(-15.3)"/><path class="w" d="M373.71,179.9c4.39-.21,8.78-.34,13.1-.79,1.08-.11,2.15-.26,3.19-.47.26-.06.52-.11.76-.18l.38-.1.39-.11c.52-.15,1-.31,1.53-.49s1-.38,1.49-.59,1-.43,1.57-.62,1.08-.34,1.63-.48,1.09-.27,1.65-.37,1.12-.17,1.66-.24,1.07-.14,1.6-.23,1.06-.19,1.58-.3a15.51,15.51,0,0,0,1.49-.45c2-.72,4.06-1.57,6.07-2.42s4-1.73,6-2.65q1.5-.68,3-1.4c.49-.24,1-.49,1.46-.75a12,12,0,0,0,1.4-.85,17.58,17.58,0,0,1-2.68,1.93c-.93.59-1.89,1.13-2.85,1.67-1.93,1.06-3.88,2.07-5.87,3-1,.48-2,.94-3,1.39s-2,.87-3.07,1.27a14.88,14.88,0,0,1-1.64.53c-.55.12-1.09.24-1.64.34s-1.11.17-1.65.24-1.07.14-1.59.24-1,.21-1.56.34-1,.28-1.53.45-1,.36-1.49.57-1,.42-1.57.61l-1.6.51-.4.11-.2.06-.21.05-.84.18a30.69,30.69,0,0,1-3.33.37c-2.21.14-4.42.14-6.62.07S375.89,180.14,373.71,179.9Z" transform="translate(-80 -114)"/><path class="x" d="M370.05,161.38a32.25,32.25,0,0,0,12.35,4,34.44,34.44,0,0,0,6.48.1,35.15,35.15,0,0,0,6.39-1.08,35.59,35.59,0,0,0,6.1-2.19l1.46-.71,1.42-.78,1.39-.85L407,159a34.3,34.3,0,0,0,9-9.37,29.8,29.8,0,0,1-8.52,10,33.49,33.49,0,0,1-5.68,3.44,35.48,35.48,0,0,1-6.26,2.31,35,35,0,0,1-6.59,1.06,32.29,32.29,0,0,1-6.66-.28A28.33,28.33,0,0,1,370.05,161.38Z" transform="translate(-80 -114)"/><path class="x" d="M369.19,160.74a29.63,29.63,0,0,0,12.63,3.37,38.6,38.6,0,0,0,6.55-.24,42,42,0,0,0,6.43-1.28,43.73,43.73,0,0,0,6.17-2.21,44.34,44.34,0,0,0,5.8-3.08,40.46,40.46,0,0,0,9.86-8.7,34.28,34.28,0,0,1-9.4,9.39c-.45.33-.93.62-1.4.92s-1,.58-1.45.85l-.73.41-.75.38-.75.38-.76.35a43.09,43.09,0,0,1-6.3,2.31,41.32,41.32,0,0,1-6.6,1.25,35.76,35.76,0,0,1-6.71.07,29.78,29.78,0,0,1-6.57-1.3A23.6,23.6,0,0,1,369.19,160.74Z" transform="translate(-80 -114)"/><path class="a" d="M369.86,161.28a32.3,32.3,0,0,0,6,2.36,32.85,32.85,0,0,0,6.33,1.1,35.72,35.72,0,0,0,6.4-.08,37.57,37.57,0,0,0,6.28-1.17,39.43,39.43,0,0,0,6-2.16,41.17,41.17,0,0,0,5.62-3.08,39.86,39.86,0,0,0,9.49-8.66,33.61,33.61,0,0,1-9,9.34l-1.36.92-1.4.85-1.44.79-1.47.73a39,39,0,0,1-6.16,2.27,37.2,37.2,0,0,1-6.54,1.16,33.26,33.26,0,0,1-6.57-.09,30,30,0,0,1-6.39-1.44A27.08,27.08,0,0,1,369.86,161.28Z" transform="translate(-80 -114)"/><ellipse class="f" cx="396.04" cy="167.09" rx="19.73" ry="1.58" transform="translate(-110.05 -3.58) rotate(-15.3)"/><rect class="y" y="109.03" width="631.47" height="277.55"/><rect class="h" x="11.7" y="116.87" width="610.66" height="261.87"/><path class="z" d="M523.82,218l-3.41,20.58-4.8-1.2s-.77,2.21-1.2,2.4c-.38,1,0,4.8,0,4.8l-1.2,4.8s-9.6,25.2-18,30l-14.4-12c-8.4-4.8-25.2-10.8-30.68-11.58H325c-2.84.89-29.52,6-29.52,6l-4.85-.6-14.5-13.7-1.86-19v-6l-.06-.2c-.52-1.64-4-12.79-6.13-17.7l-.46-1,.38-1.09c.73-2,2.77-8.33,2.77-8.33H271l91.73-.79,87.49-.76,21.36-.17,23.75-.2,10.58,1.93Z" transform="translate(-80 -114)"/><polygon class="aa" points="190.54 85.18 196.97 103.38 198.58 126.41 211.43 138.19 244.63 132.84 371 132.84 402.01 146.23 416.41 157.03 430.44 132.84 431.21 117.77 438.01 121.03 439.21 104.23 426.01 81.43 413.3 79.29 190.54 85.18"/><path class="y" d="M488.23,192.49,488,193.9l16.52,16s10.39,6.68,11.82,8.73a19.23,19.23,0,0,1-1.92,6.27l-.87.2-6.67,3.5L505.43,240a36.76,36.76,0,0,1,.27,4.26c-.9,8.75-8.1,24.35-24.25,13.26h0c-6.63-3.32-17.48-7.8-27.27-15l-1.41-1H323.82l-.77.24c-5,1.55-27.55,5.58-27.55,5.58l-2.53-.24-9.56-9-1.07-14.67v-6.3s-3.94-13.43-6-18.13c.54-1.5,1.08-2.64,1.68-4.76Z" transform="translate(-80 -114)"/><line class="ab" x1="414.74" y1="80.25" x2="344.58" y2="77.78"/><line class="ab" x1="190.8" y1="80.89" x2="191.65" y2="78.52"/><polygon class="z" points="194.25 107.58 233.97 103.58 306.34 100.26 233.38 106.25 194.13 113.47 194.25 107.58"/><polygon class="z" points="433.43 118.03 400.17 111.99 394.15 110.9 322.27 101.85 394.53 113.6 433.08 123.91 433.43 118.03"/><polygon class="z" points="399.9 106.6 394.54 100.17 402.04 106.6 402.58 113.74 399.9 113.02 399.9 106.6"/><path class="ac" d="M458.39,191" transform="translate(-80 -114)"/><path class="ac" d="M303.21,194.23l-31.34.67-1.34,4.28L277,217.39l.27,4,29.4-3.07s-27.58,2.28-28.11,1.74,0-3.21-.54-3.75-7-17.14-6.43-17.67a5.8,5.8,0,0,1,2.68-2.14C275.89,196,303.21,194.23,303.21,194.23Z" transform="translate(-80 -114)"/><polygon class="ac" points="232.43 106.46 197.63 112.75 198.56 126.41 211.41 138.19 244.61 132.84 271.65 132.84 244.61 131.23 212.48 136.05 200.7 125.34 198.56 113.56 232.43 106.46"/><polygon class="ac" points="439.21 104.23 424.81 85.03 414.36 83.58 411.45 83.25 382.87 80.1 373.21 79.03 376.96 78.92 385.53 78.68 391.68 78.5 415.21 77.83 426.01 80.23 439.21 104.23"/><polygon class="ac" points="438.01 121.03 431.21 117.77 402.58 113.02 402.04 106.6 394.54 100.17 402.58 106.6 403.11 112.49 430.96 116.77 438.01 121.03"/><path class="ac" d="M462.61,225.69l11.91,1.87L512,233.83l-1.59,13s-1.07-7.5-1.61-7.5-34.27-10.71-34.27-10.71Z" transform="translate(-80 -114)"/><polygon class="ac" points="322.97 132.84 370.98 132.84 400.81 147.43 416.41 157.03 402.01 146.23 371.52 129.62 322.97 132.84"/><g class="t"><ellipse class="ad" cx="314.3" cy="230.44" rx="14.4" ry="3.48" transform="translate(-108.72 -68.56) rotate(-7.91)"/></g><ellipse class="ae" cx="494.47" cy="208.3" rx="3.48" ry="6.16" transform="translate(166.02 569.86) rotate(-85.26)"/><ellipse class="ad" cx="501.7" cy="212.53" rx="1.4" ry="2.5" transform="translate(169.84 581.68) rotate(-85.43)"/><ellipse class="ad" cx="494.76" cy="216.77" rx="2.02" ry="3.57" transform="translate(157.85 577.92) rotate(-85.26)"/><path class="af" d="M370.61,203.46s72.29-2.14,80.86-1.07,24.63,5.89,24.63,5.89l-21.39-2.67Z" transform="translate(-80 -114)"/><path class="ag" d="M451.54,202.25c-7.51-.94-64.54.61-78,1l-2.86.07v.3l3.36.08,80.67,2,21.42,2.68v-.24C476,208.09,460,203.31,451.54,202.25Zm3.19,3.22-78.68-2c16.94-.47,68.36-1.81,75.46-.92,6.8.85,18.48,4.12,22.87,5.38Z" transform="translate(-80 -114)"/><g class="ah"><path class="af" d="M393.15,236.66s-72.29-2.14-80.86-1.07-24.68,5.89-24.68,5.89L309,238.8Z" transform="translate(-80 -114)"/><path class="ai" d="M391.09,236.46c-11.89-.34-71.14-2-78.8-1-8.48,1.06-24.49,5.84-24.66,5.89l.06.29L309.1,239l82.09-2.1h2v-.29Zm-101.64,4.66c4.38-1.27,16.07-4.52,22.87-5.38,1.69-.22,5.92-.3,11.6-.3,18.1,0,51,.86,63.84,1.21l-78.7,2Z" transform="translate(-80 -114)"/></g><g class="aj"><path class="af" d="M482,251.12s-12.31-2.68-13.41-4.82-1-10.17,1.07-11.26,23,2.14,25.7,3.75,5.35,4.82,5.35,5.89S495.4,249,495.4,249s2.14-2.14,1.61-4.28a6.33,6.33,0,0,0-4.82-4.82c-2.68-.54-17.67-3.75-19.28-2.68,0,0-3.21,4.28-1.61,7s11.78,5.89,13.39,4.82,2.68-2.14,1.07-4.28-10.71-2.14-10.71-2.14h12.32s2.68,3.21,2.14,4.28-1.07,4.28-2.68,4.82S482,251.12,482,251.12Z" transform="translate(-80 -114)"/><path class="ak" d="M495.5,238.68c-1.43-.86-7.61-2.08-13.1-2.89s-11.54-1.45-12.73-.86c-1.42.71-1.74,4-1.82,5.35a15,15,0,0,0,.68,6.1c1.09,2.16,12.88,4.76,13.48,4.9a14.75,14.75,0,0,0,3.74.68,3.9,3.9,0,0,0,1.16-.16c1.25-.42,1.87-2.32,2.33-3.7a10.56,10.56,0,0,1,.43-1.2c.56-1.12-1.87-4.1-2.16-4.44H475.09v.28c.08,0,9,0,10.58,2.09a2.72,2.72,0,0,1,.74,2.08c-.13.76-.8,1.34-1.78,2-.44.3-1.79.24-3.59-.17-3.82-.85-8.58-2.92-9.59-4.6-1.49-2.47,1.34-6.46,1.57-6.78,1-.6,7.12.24,18.16,2.51l1,.2a6.2,6.2,0,0,1,4.7,4.7c.52,2-1.55,4.13-1.56,4.15l-.84.83,1-.6c.56-.34,5.44-3.29,5.44-4.42S498.2,240.3,495.5,238.68Zm.62,9.71a4.71,4.71,0,0,0,1.06-3.73,6.51,6.51,0,0,0-4.93-4.92l-1-.2c-7.25-1.49-17-3.36-18.4-2.45h0c-.13.18-3.25,4.4-1.61,7.13,1.08,1.81,5.92,3.86,9.78,4.74,1.12.25,3.1.6,3.8.12,1-.68,1.76-1.32,1.91-2.18a3.06,3.06,0,0,0-.79-2.3c-.82-1.08-3.4-1.63-5.83-1.91h7.25c.76.91,2.48,3.28,2.09,4.07A9.64,9.64,0,0,0,489,248c-.43,1.33-1,3.14-2.15,3.52-1.54.52-4.69-.53-4.72-.54h0s-3.11-.68-6.28-1.61c-5.27-1.54-6.72-2.54-7-3.13a14.74,14.74,0,0,1-.66-6c.16-2.75.78-4.66,1.67-5.1a4.79,4.79,0,0,1,1.72-.19c5.51,0,21.41,2.47,23.84,3.94,2.67,1.67,5.22,4.85,5.22,5.85,0,.59-2.52,2.39-4.51,3.65Z" transform="translate(-80 -114)"/></g><path class="al" d="M523.82,218l-3.41,20.58-4.8-1.2s-.77,2.21-1.2,2.4c-.38,1,0,4.8,0,4.8l-1.2,4.8s-9.6,25.2-18,30l-14.4-12c-8.4-4.8-25.2-10.8-30.68-11.58H395.61l-2.1-9-1.25-5.35-1.07-4.63v-.39l-5.08-21.83-.35-.31h0L374,203.74l-.18-.16-.18-.17-.14-.13-7.24-6.6-3.42-3.12-.1-.08,87.49-.76,21.36-.22,23.53-.67,10.8,2.4Z" transform="translate(-80 -114)"/><text class="am" transform="translate(236.41 127.03)">Tutorial</text><text class="an" transform="translate(234.01 124.63)">Tutorial</text><path class="r" d="M285.54,410.71l-1.38,7.42h0a7.93,7.93,0,0,1-6,3.24,9.3,9.3,0,0,0,5.51-6.6,9.05,9.05,0,0,0-2.8-9.24A7.78,7.78,0,0,1,285.54,410.71Z" transform="translate(-80 -114)"/><path class="ao" d="M615.1,357.09a64.08,64.08,0,1,0,18.77,45.32A64.08,64.08,0,0,0,615.1,357.09ZM569.78,457.51a55.11,55.11,0,1,1,39-16.14A55.11,55.11,0,0,1,569.78,457.51Z" transform="translate(-80 -114)"/><path class="ao" d="M614.67,357.52a63.47,63.47,0,1,0,18.59,44.88A63.47,63.47,0,0,0,614.67,357.52Zm-44.88,100.6a55.72,55.72,0,1,1,39.4-16.32,55.72,55.72,0,0,1-39.4,16.32Z" transform="translate(-80 -114)"/><path class="ap" d="M613.61,357.11A62,62,0,1,0,631.83,401,62,62,0,0,0,613.61,357.11Zm-3.46,84.28A57.15,57.15,0,1,1,626.93,401a57.15,57.15,0,0,1-16.78,40.43Z" transform="translate(-80 -114)"/><path class="ao" d="M591.68,335.3,591.35,319a26.25,26.25,0,0,1-.68-33.72,25.36,25.36,0,0,1,2.91-3.07A26.25,26.25,0,0,1,637.3,303.6q-.09,1.25-.3,2.49c-.12.71-.27,1.42-.46,2.13a26.24,26.24,0,0,1-31.46,19Z" transform="translate(-80 -114)"/><circle class="aq" cx="611.01" cy="301.52" r="22.89" transform="translate(176.47 769.37) rotate(-84.91)"/><rect class="ap" x="427.78" y="352.25" width="123.26" height="15.89" rx="4.78" ry="4.78"/><rect class="aq" x="430.22" y="354.18" width="118.38" height="12.2" rx="3.67" ry="3.67"/><path class="ar" d="M614.67,468.18v12.69H515.13c-2.07,0-4.9-2.41-4.9-5.37v-2c0-3,2.83-5.37,4.9-5.37Z" transform="translate(-80 -114)"/><path class="as" d="M591.68,335.3,591.35,319A26.32,26.32,0,0,1,585,299l52.28,4.66q-.09,1.25-.3,2.49c-.12.71-.27,1.42-.46,2.13a26.24,26.24,0,0,1-31.46,19Z" transform="translate(-80 -114)"/><path class="at" d="M619.71,381.89c-.08.55-.19,1.13-.32,1.72l-4.62,62.26-.65,3.52a1.76,1.76,0,0,1-1.76,1.76H530a1.76,1.76,0,0,1-1.4-.69,1.73,1.73,0,0,1-.36-1.07l-.66-3.55-4.44-61.06c-.17-1.15-.44-2.35-.74-3.56-6.14-6.58-10.4-17.25-8.6-23.38l5.47-23a3.73,3.73,0,0,1,2.34-3.45h.09a3.68,3.68,0,0,1,1.28-.23c5.27,0,15.62,11.48,15.62,20.49v16.59h0a50.51,50.51,0,0,1,30.83-11.5h2.61a50.52,50.52,0,0,1,31.7,11.51h.4V351.6c0-4.51,2.59-9.63,5.83-13.63s7.15-6.86,9.78-6.86a3.72,3.72,0,0,1,3.71,3.71l5.47,23C630.82,364.18,626.2,375.38,619.71,381.89Z" transform="translate(-80 -114)"/><path class="au" d="M531.47,449l-.3-1.57-4.53-61v-.16c-.18-1.15-.44-2.41-.84-4l-.28-1.07-.77-.81A32.76,32.76,0,0,1,518.21,370c-1.36-3.54-1.83-6.83-1.24-8.79v-.11l4.63-29.8c1.24.51,6.9,3.11,9.44,6.25,2.94,3.63,5.5,8.37,5.5,11.32l.39,22.84s12.39-14.44,33-14.25c22.8.22,35.58,14.44,35.58,14.44L606.69,350c0-3,2-7.49,4.91-11.13a35.35,35.35,0,0,1,9.24-7.22l5,29.41v.11c.61,2,.09,5.47-1.39,9.17A32.21,32.21,0,0,1,617.61,381l-1,1-.21,1.41c-.07.47-.16.93-.26,1.39l-.07.31-4.72,62.34-.29,1.54Z" transform="translate(-80 -114)"/><path class="av" d="M609.82,382h-1.37l1-32.42c.1-3.09,2-7.3,5-11,2.73-3.37,5.15-4.92,6.3-5.39l4.76,24.6V358c.44,1.77.09,4.58-1,7.69a35.23,35.23,0,0,1-5.26,9.78C616.15,379.56,612.48,382.13,609.82,382Z" transform="translate(-80 -114)"/><path class="av" d="M532.95,382h1.37l-1-32.42c-.1-3.09-2-7.3-5-11-2.73-3.37-5.15-4.92-6.3-5.39l-4.76,24.6V358c-.44,1.77-.09,4.58,1,7.69a35.23,35.23,0,0,0,5.26,9.78C526.61,379.56,530.29,382.13,532.95,382Z" transform="translate(-80 -114)"/><path class="r" d="M578.2,442.36c0,3.23-3.41,5.86-7.61,5.86S563,445.6,563,442.36a4.69,4.69,0,0,1,.59-2.26c.06,3,3.18,5.32,7,5.32s7-2.38,7-5.32A4.69,4.69,0,0,1,578.2,442.36Z" transform="translate(-80 -114)"/><ellipse class="aw" cx="491.41" cy="278.58" rx="39.23" ry="30.45"/><ellipse class="ax" cx="491.68" cy="264.33" rx="28.77" ry="14.1"/><path class="b" d="M570.61,447.83c-4.41,0-8-2.8-8-6.25a5.06,5.06,0,0,1,.64-2.45l.14-.26c.11-.62.16-1.73.29-3,1.47-14.23,3.43-41.55,6.94-41.55s5.47,27.13,6.94,41.55c.13,1.25.18,2.37.29,3l.14.26a5.06,5.06,0,0,1,.64,2.45C578.61,445,575,447.83,570.61,447.83Z" transform="translate(-80 -114)"/><path class="n" d="M578.2,441.58c0,3.23-3.41,5.27-7.61,5.27s-7.61-2-7.61-5.27a4.69,4.69,0,0,1,.59-2.26c.06,3,3.18-44.78,7-44.78s7,47.73,7,44.78A4.69,4.69,0,0,1,578.2,441.58Z" transform="translate(-80 -114)"/><path class="aq" d="M570.61,442.17c-2.86,0-5.27-1.61-5.27-3.51a2.24,2.24,0,0,1,.07-.57,3.22,3.22,0,0,0,.57-1.23,6.35,6.35,0,0,1,.16-.83c.11-.64.25-1.52.42-2.63.51-3.24,1.28-8,1.7-12.5.39-4.1,1.88-24.26,2.34-25.49.46,1.23,2,21.39,2.34,25.29.45,4.46,1.2,9.46,1.7,12.69.17,1.11.31,2,.42,2.64.06.37.11.63.16.83a3.22,3.22,0,0,0,.57,1.23,2.24,2.24,0,0,1,.07.57C575.86,440.56,573.45,442.17,570.61,442.17Z" transform="translate(-80 -114)"/><path class="at" d="M585.74,440.12a14.25,14.25,0,1,1,19.1-.55l-1.09,1-1.4-.57c-.37-.15-.77-.29-1.18-.42a19.56,19.56,0,0,0-4.88-.6h-.4a19,19,0,0,0-8.17,2l-1.22.62Z" transform="translate(-80 -114)"/><path class="at" d="M595,416.4a12.88,12.88,0,0,0-8.2,22.82l.2.17h-.08l.18.35a20.34,20.34,0,0,1,8.77-2.11,21,21,0,0,1,5.67.65c.45.14.89.3,1.32.47l.58.24.46-.44a12.76,12.76,0,0,0,4-9.3A12.9,12.9,0,0,0,595,416.4Z" transform="translate(-80 -114)"/><path class="at" d="M554.93,441a19,19,0,0,0-8.17-2h-.39a19.58,19.58,0,0,0-4.88.6c-.42.13-.82.27-1.18.42l-1.4.57-1.09-1a14.25,14.25,0,1,1,19.1.55l-.75,1.49Z" transform="translate(-80 -114)"/><path class="at" d="M547.61,416.4a12.9,12.9,0,0,0-12.88,12.88,12.76,12.76,0,0,0,4,9.3l.46.44.58-.24c.43-.17.87-.33,1.32-.47a21,21,0,0,1,5.68-.65,20.34,20.34,0,0,1,8.77,2.11l.18-.35h-.08l.2-.17a12.88,12.88,0,0,0-8.2-22.82Z" transform="translate(-80 -114)"/><path class="r" d="M586.79,439.22a12.88,12.88,0,1,1,17.11-.63l-.46.44-.58-.24a17.94,17.94,0,0,0-4.79-1.19,19.15,19.15,0,0,0-2.1-.12,18.16,18.16,0,0,0-8.12,1.86l-.57.29Z" transform="translate(-80 -114)"/><path class="l" d="M595.19,418.16a11.91,11.91,0,0,0-7.58,21.09,19.1,19.1,0,0,1,8.55-2,20.06,20.06,0,0,1,2.21.12,18.93,18.93,0,0,1,5,1.26,11.9,11.9,0,0,0-8.23-20.5Z" transform="translate(-80 -114)"/><path class="m" d="M607.09,430.06a11.86,11.86,0,0,1-3.67,8.6,18.93,18.93,0,0,0-5-1.26l-14.85-9.75a11.91,11.91,0,0,1,23.57,2.4Z" transform="translate(-80 -114)"/><path class="n" d="M603,436.84a20.62,20.62,0,0,0-4.08-.94L585.31,427a10.35,10.35,0,0,1,20.22,3.1A10.23,10.23,0,0,1,603,436.84Z" transform="translate(-80 -114)"/><path class="ay" d="M600.27,428.85c-1.36-.15-2.35-.64-2.35-1.22,0-.42.52-.79,1.32-1a9,9,0,0,0-15.72,1.06,11.92,11.92,0,0,0,4.09,11.56,19.1,19.1,0,0,1,8.55-2,20.06,20.06,0,0,1,2.21.12,9,9,0,0,0,1.9-8.56Z" transform="translate(-80 -114)"/><path class="az" d="M587.8,437.86a10.75,10.75,0,0,1-3.16-9.83,7.83,7.83,0,0,1,7-4.41c2.24,0,7.24,11.2,6.19,12.56-.56,0-1.13-.07-1.7-.07A20.49,20.49,0,0,0,587.8,437.86Z" transform="translate(-80 -114)"/><path class="av" d="M587.1,439.77l-.18-.35a20.74,20.74,0,0,1,8.93-2.15,21,21,0,0,1,7.64,1.24l-.13.37A21,21,0,0,0,587.1,439.77Z" transform="translate(-80 -114)"/><path class="ba" d="M593.82,423.62c-.39.2.2,1,.39,1.37s2.34,3.32,2.54,4.29,1.56,4.1,1.76,4.88.78.39.78.39a9.79,9.79,0,0,0,.59-3.12,6.12,6.12,0,0,0-1.56-2.15c-.39-.39-1.37-1.37-1.37-2.15a2.86,2.86,0,0,0-1.17-2.54C594.79,424,594.21,423.43,593.82,423.62Z" transform="translate(-80 -114)"/><circle class="r" cx="511.47" cy="317.04" r="6.05"/><g class="s"><circle class="h" cx="516.74" cy="317.23" r="1.95"/></g><g class="t"><circle class="h" cx="513.62" cy="319.18" r="0.98"/></g><path class="r" d="M555.85,439.22a12.88,12.88,0,1,0-17.11-.63l.46.44.58-.24a17.94,17.94,0,0,1,4.79-1.19,19.15,19.15,0,0,1,2.1-.12,18.16,18.16,0,0,1,8.12,1.86l.57.29Z" transform="translate(-80 -114)"/><path class="l" d="M547.45,418.16A11.91,11.91,0,0,1,555,439.25a19.1,19.1,0,0,0-8.55-2,20.06,20.06,0,0,0-2.21.12,18.93,18.93,0,0,0-5,1.26,11.9,11.9,0,0,1,8.23-20.5Z" transform="translate(-80 -114)"/><path class="m" d="M535.55,430.06a11.86,11.86,0,0,0,3.67,8.6,18.93,18.93,0,0,1,5-1.26l14.85-9.75a11.91,11.91,0,0,0-23.57,2.4Z" transform="translate(-80 -114)"/><path class="n" d="M539.61,436.84a20.62,20.62,0,0,1,4.08-.94L557.33,427a10.35,10.35,0,0,0-20.22,3.1A10.23,10.23,0,0,0,539.61,436.84Z" transform="translate(-80 -114)"/><path class="ay" d="M542.37,428.85c1.36-.15,2.35-.64,2.35-1.22,0-.42-.52-.79-1.32-1a9,9,0,0,1,15.72,1.06A11.92,11.92,0,0,1,555,439.28a19.1,19.1,0,0,0-8.55-2,20.06,20.06,0,0,0-2.21.12,9,9,0,0,1-1.9-8.56Z" transform="translate(-80 -114)"/><path class="az" d="M554.84,437.86A10.75,10.75,0,0,0,558,428a7.83,7.83,0,0,0-7-4.41c-2.24,0-7.24,11.2-6.19,12.56.56,0,1.13-.07,1.7-.07A20.49,20.49,0,0,1,554.84,437.86Z" transform="translate(-80 -114)"/><path class="av" d="M555.54,439.77a21,21,0,0,0-16.26-.89l-.13-.37a21,21,0,0,1,7.64-1.24,20.74,20.74,0,0,1,8.93,2.15Z" transform="translate(-80 -114)"/><path class="ba" d="M548.82,423.62c.39.2-.2,1-.39,1.37s-2.34,3.32-2.54,4.29-1.56,4.1-1.76,4.88-.78.39-.78.39a9.79,9.79,0,0,1-.59-3.12,6.12,6.12,0,0,1,1.56-2.15c.39-.39,1.37-1.37,1.37-2.15a2.86,2.86,0,0,1,1.17-2.54C547.84,424,548.43,423.43,548.82,423.62Z" transform="translate(-80 -114)"/><circle class="r" cx="471.16" cy="317.04" r="6.05"/><g class="s"><circle class="h" cx="465.89" cy="317.23" r="1.95"/></g><g class="t"><circle class="h" cx="469.01" cy="319.18" r="0.98"/></g><ellipse class="bb" cx="467.26" cy="327.97" rx="7.91" ry="2.93"/><ellipse class="bb" cx="515.86" cy="327.97" rx="7.91" ry="2.93"/><path class="bc" d="M619.71,381.89c-.08.55-.19,1.13-.33,1.72l-4.61,62.25-.66,3.52a1.75,1.75,0,0,1-1.74,1.76H596.16a3.13,3.13,0,0,1,0,.36v.44H569.45V356.69h2.61a50.56,50.56,0,0,1,31.7,11.51h.41V351.6c0-4.51,2.59-9.63,5.83-13.63s7.14-6.86,9.78-6.86a3.72,3.72,0,0,1,3.7,3.71l5.48,23C630.82,364.18,626.19,375.38,619.71,381.89Z" transform="translate(-80 -114)"/><path class="bd" d="M596.82,290.45s-1.22.19-.93,2.11,4.06,12.08,2.81,13.2-2.25,3.08-.22,4.18,1.09,4.19,1.51,5.55-1.21,2.42,1.11,3.32,21.46-4.37,22.33-4.06.64-5,.45-5.2a2.78,2.78,0,0,1,.58-2.6c.81-.73-1.8-6.7-1.94-7.61s-1.54-7.83-2-8.25-1.34-.88-1-1-.12-3.25-.49-3.52a19.94,19.94,0,0,1-1.93-3.68c-.12-.42-1.38.6-1.59.63s-.93-.4-1.34.15-1.49,1.32-1.85,1.1-.23-.4-.6-.72a6,6,0,0,0-3-.08,15.78,15.78,0,0,0-2.71,1c-.38.33-.59,1.46-.88,1s.42-.83-1.17-.85-2.63-.41-1.77.55-.87,0-1,.32-.84.89-.7,1.47-.82,0-1.35.1-1.09.71-1,1.09-.48.4-.77.66S597.89,290.28,596.82,290.45Z" transform="translate(-80 -114)"/><path class="be" d="M597.05,290.76s-1.22.19-.93,2.11,4.06,12.08,2.81,13.2-2.25,3.08-.22,4.18,1.09,4.19,1.51,5.55-1.21,2.42,1.11,3.32,21.46-4.37,22.33-4.06.64-5,.45-5.2a2.78,2.78,0,0,1,.58-2.6c.81-.73-1.8-6.7-1.94-7.61s-1.54-7.83-2-8.25-1.34-.88-1-1-.12-3.25-.49-3.52a19.94,19.94,0,0,1-1.93-3.68c-.12-.42-1.38.6-1.59.63s-.93-.4-1.34.15-1.49,1.32-1.85,1.1-.23-.4-.6-.72a6,6,0,0,0-3-.08,15.78,15.78,0,0,0-2.72,1.08c-.38.33-.59,1.46-.88,1s.42-.83-1.17-.85-2.63-.41-1.77.55-.87,0-1,.32-.84.89-.7,1.47-.82,0-1.35.1-1.09.71-1,1.09-.48.4-.77.66S598.11,290.59,597.05,290.76Z" transform="translate(-80 -114)"/><path class="bf" d="M596.93,291.13s-1.22.19-.93,2.11,4.06,12.08,2.81,13.2-2.25,3.08-.22,4.18,1.09,4.19,1.51,5.55-1.21,2.42,1.11,3.32,21.46-4.37,22.33-4.06.64-5,.45-5.2a2.78,2.78,0,0,1,.58-2.6c.81-.73-1.8-6.7-1.94-7.61s-1.54-7.83-2-8.25-1.34-.88-1-1-.12-3.25-.49-3.52a19.94,19.94,0,0,1-1.93-3.68c-.12-.42-1.38.6-1.59.63s-.93-.4-1.34.15-1.49,1.32-1.85,1.1-.23-.4-.6-.72a6,6,0,0,0-3-.08,15.78,15.78,0,0,0-2.72,1.08c-.38.33-.59,1.46-.88,1s.42-.83-1.17-.85-2.63-.41-1.77.55-.87,0-1,.32-.84.89-.7,1.47-.82,0-1.35.1-1.09.71-1,1.09-.48.4-.77.66S598,291,596.93,291.13Z" transform="translate(-80 -114)"/><path class="bg" d="M603.5,300.47s-1.13,1.16.39,3.21.09,5.49.49,6.69,1.11,2.94,1.11,2.94,2.76,2.35,2.28,1-1.24-2.7-.8-4.13a7.64,7.64,0,0,0,.21-5.7C606.22,301.79,605.74,300.12,603.5,300.47Z" transform="translate(-80 -114)"/><path class="bh" d="M605.69,290s1.86,3.91,1.89,5.16a16.84,16.84,0,0,1-.43,3.23s2.85-3.06,1.81-4.86S607.35,289.78,605.69,290Z" transform="translate(-80 -114)"/><path class="bi" d="M614.44,290.81s1.21,3.58,2,5.36.26,1.7.79,3,1.43.1,1.19-1.82,1.23-.85,1.11-2.35.28-2.39-.65-2.41-1.06.22-1.64-1.05-.31-1.31-1.06-1.58-1.1-.76-1.23-.19S614.94,291.22,614.44,290.81Z" transform="translate(-80 -114)"/><path class="bg" d="M611.74,305s1.9.3,1.74,1.37a4.71,4.71,0,0,0-.18,1.66c.08.53.16,2.1.55,1.44s.81-.78.82-1.76.32-1.47.49-1.39.45,1.51.67,1.86-.45,2-.42,2.19-.5,1.71-.26,1.84,1.28-.2,1.15-1.05a8.85,8.85,0,0,1-.17-2.86c.2-.47.6,0,.42-1.48s.8-1.87.59-2.49-1.58-2.43-1.75-2.84.06-1.37-.69-2A6.11,6.11,0,0,0,613,298.2c-1.5-.86-2-3.24-1.78-.92s2.16,5.12,2.19,5.33A18.85,18.85,0,0,1,611.74,305Z" transform="translate(-80 -114)"/><path class="bi" d="M603.36,301.87s-1.78.61-1.21,2.17-1.48,4-1.43,4.3.8,3.74.8,3.74-.33.71.14-1.24a14.4,14.4,0,0,1,1.53-3.66c.17-.36-.5-1.8.16-3.22S603.36,301.87,603.36,301.87Z" transform="translate(-80 -114)"/><path class="bj" d="M598.18,299.88a1.39,1.39,0,0,0,1.4.22c.65-.37,1.13.59,1.18.91s-.7,1.47-.7,1.47l-1.11.23A17.56,17.56,0,0,1,598.18,299.88Z" transform="translate(-80 -114)"/><path class="bi" d="M600.26,288.7s-.73-.16-.15,1.88a9.84,9.84,0,0,1,.48,4.13,7.75,7.75,0,0,0-.46,2.31c.1.64,1.35,2.74,1.15,1.08s-.19-1.93-.25-2.69a10,10,0,0,1,.35-2.67C601.61,291.88,601.4,286.89,600.26,288.7Z" transform="translate(-80 -114)"/><path class="bg" d="M611.61,285.47a16.76,16.76,0,0,0,.92,2,4.25,4.25,0,0,1,.79,1.95c.15,1,.75.65.83.09s.72-1.37,0-1.43-.8.12-.9-.52.08-1.21-.31-1.31-.66,0-.7-.27S612,284.43,611.61,285.47Z" transform="translate(-80 -114)"/><path class="ab" d="M617.46,303.59a1.72,1.72,0,0,0-.36,1.91c.54,1-.24,2.66.62,1.54s.63-.86.24-2S617.67,303.56,617.46,303.59Z" transform="translate(-80 -114)"/><path class="bj" d="M622.06,308.66a3,3,0,0,1,.48,1c0,.27,0,2,.48,1.34a1.42,1.42,0,0,0,.36-1.53c-.12-.75-1.39-1.58-1.41-1Z" transform="translate(-80 -114)"/><path class="bi" d="M609.46,315.63c1.25-.36,2-.69,2.15-.55s1.34.56.49.69-1.08.77-1.86,1-2.68,1-2.29.36A7.11,7.11,0,0,1,609.46,315.63Z" transform="translate(-80 -114)"/><g class="bk"><path class="bl" d="M622.5,299.33c-.14-.91-1.54-7.83-2-8.25s-1.34-.88-1-1-.12-3.25-.49-3.52a19.94,19.94,0,0,1-1.93-3.68c-.12-.42-1.38.6-1.59.63s-.93-.4-1.34.15-1.49,1.32-1.85,1.1-.23-.4-.6-.72a6,6,0,0,0-3-.08c-.35.13-1.32.43-2,.72a228.07,228.07,0,0,0,5.68,32.45c5.33-1.19,10.6-2.51,11-2.35.86.3.64-5,.45-5.2a2.78,2.78,0,0,1,.58-2.6C625.26,306.21,622.61,300.23,622.5,299.33Z" transform="translate(-80 -114)"/><path class="bm" d="M622.72,299.64c-.14-.91-1.54-7.83-2-8.25s-1.34-.88-1-1-.12-3.25-.49-3.52a19.94,19.94,0,0,1-1.93-3.68c-.12-.42-1.38.6-1.59.63s-.93-.4-1.34.15-1.49,1.32-1.85,1.1-.23-.4-.6-.72a6,6,0,0,0-3-.08c-.39.14-1.5.49-2.2.79a226.57,226.57,0,0,0,5.73,32.41c5.38-1.2,10.73-2.54,11.18-2.38.86.3.64-5,.45-5.2a2.78,2.78,0,0,1,.58-2.6C625.48,306.52,622.86,300.54,622.72,299.64Z" transform="translate(-80 -114)"/><path class="bn" d="M622.61,300c-.14-.91-1.54-7.83-2-8.25s-1.34-.88-1-1-.12-3.25-.49-3.52a19.94,19.94,0,0,1-1.93-3.68c-.12-.42-1.38.6-1.59.63s-.93-.4-1.34.15-1.49,1.32-1.85,1.1-.23-.4-.6-.72a6,6,0,0,0-3-.08c-.36.13-1.35.44-2,.73a225.3,225.3,0,0,0,5.78,32.43c5.31-1.19,10.53-2.49,11-2.33.86.3.64-5,.45-5.2a2.78,2.78,0,0,1,.58-2.6C625.36,306.88,622.75,300.91,622.61,300Z" transform="translate(-80 -114)"/><path class="bo" d="M608.94,293.45a27,27,0,0,0-1.51-2.64q.39,3,.85,6C608.92,295.78,609.5,294.43,608.94,293.45Z" transform="translate(-80 -114)"/><path class="bp" d="M614.42,290.8s1.21,3.58,2,5.36.26,1.7.79,3,1.43.1,1.19-1.82,1.23-.85,1.11-2.35.28-2.39-.65-2.41-1.06.22-1.64-1.05-.31-1.31-1.06-1.58-1.1-.76-1.23-.19S614.92,291.22,614.42,290.8Z" transform="translate(-80 -114)"/><path class="bq" d="M611.71,305s1.9.3,1.74,1.37a4.71,4.71,0,0,0-.18,1.66c.08.53.16,2.1.55,1.44s.81-.78.82-1.76.32-1.47.49-1.39.45,1.51.67,1.86-.45,2-.42,2.19-.5,1.71-.26,1.84,1.28-.2,1.15-1.05a8.85,8.85,0,0,1-.17-2.86c.2-.47.6,0,.42-1.48s.8-1.87.59-2.49-1.58-2.43-1.75-2.84.06-1.37-.69-2a6.11,6.11,0,0,0-1.73-1.31c-1.5-.86-2-3.24-1.78-.92s2.16,5.12,2.19,5.33A18.85,18.85,0,0,1,611.71,305Z" transform="translate(-80 -114)"/><path class="bq" d="M611.61,285.47a16.76,16.76,0,0,0,.92,2,4.25,4.25,0,0,1,.79,1.95c.15,1,.75.65.83.09s.72-1.37,0-1.43-.8.12-.9-.52.08-1.21-.31-1.31-.66,0-.7-.27S612,284.42,611.61,285.47Z" transform="translate(-80 -114)"/><path class="ab" d="M617.44,303.59a1.72,1.72,0,0,0-.36,1.91c.54,1-.24,2.66.62,1.54s.63-.86.24-2S617.61,303.55,617.44,303.59Z" transform="translate(-80 -114)"/><path class="br" d="M622,308.65a3,3,0,0,1,.48,1c0,.27,0,2,.48,1.34a1.42,1.42,0,0,0,.36-1.53c-.12-.75-1.39-1.58-1.41-1Z" transform="translate(-80 -114)"/><path class="bi" d="M611.91,315.25l.13.52h0C612.68,315.67,612.27,315.43,611.91,315.25Z" transform="translate(-80 -114)"/></g><path class="ao" d="M278.71,357.77a64.08,64.08,0,1,0,18.77,45.32A64.08,64.08,0,0,0,278.71,357.77ZM233.39,458.19a55.11,55.11,0,1,1,39-16.14A55.11,55.11,0,0,1,233.39,458.19Z" transform="translate(-80 -114)"/><path class="ao" d="M278.28,358.2a63.47,63.47,0,1,0,18.59,44.88A63.47,63.47,0,0,0,278.28,358.2ZM233.4,458.8a55.72,55.72,0,1,1,39.4-16.32,55.72,55.72,0,0,1-39.4,16.32Z" transform="translate(-80 -114)"/><path class="ap" d="M277.22,357.79a62,62,0,1,0,18.22,43.85A62,62,0,0,0,277.22,357.79Zm-3.46,84.28a57.15,57.15,0,1,1,16.78-40.43,57.15,57.15,0,0,1-16.78,40.43Z" transform="translate(-80 -114)"/><path class="bs" d="M292.41,380.48a12.41,12.41,0,0,1-1.8,2.23l-2.7,15.72-.87,5-1.11,5.84-1.32,7.32h0l-1.14,6-.44,2.28-.35,1.86-1.29,6.83-.37,2-1.41,7.38v.44h0l-.49,2.59h0v.1l-.67,3.58a1.85,1.85,0,0,1-1.86,1.83H189.24a1.88,1.88,0,0,1-1.48-.72,1.8,1.8,0,0,1-.39-1.11l-.76-3.76-.47-2.52-1.53-7.72-.37-2-1.29-6.83L182.6,425l-.44-2.28-1.14-6h0l-1.36-7.27-1-5.91-3.56-20.79c-7.93-7.81-4.55-26.28,22.17-17.92h1.06a54.19,54.19,0,0,1,33.94-12h1.56a54.18,54.18,0,0,1,33.59,12h1.18a41.56,41.56,0,0,1,11.76-2.08h0C294.39,362.6,296.75,373.56,292.41,380.48Z" transform="translate(-80 -114)"/><path class="bt" d="M189.33,450.56l-.72-3.88-.47-2.55-1.46-7.84-.44-2s-5.46-22.86-5.59-30.6c-.08-5.44,3.27-21.55,3.27-21.55l-7.41-.64A10.65,10.65,0,0,1,174,370.37c1.53-3.66,5.46-5.69,11.07-5.69a38.78,38.78,0,0,1,11.49,2l.3.1H199l.57-.47a52,52,0,0,1,32.83-11.76h.86a52,52,0,0,1,32.85,11.79l.57.47h2.12l.3-.1a38.78,38.78,0,0,1,11.49-2c5.21,0,8.9,1.68,10.66,4.85a10.08,10.08,0,0,1-.57,10.08,10.5,10.5,0,0,1-1.49,1.9l-6.82-.4S285.21,398,285,403.73c-.25,7.78-5.66,30.58-5.66,30.58l-.37,2L277.56,444l-.52,2.75-.71,3.8Z" transform="translate(-80 -114)"/><path class="bu" d="M246.61,451.38h-28.8c2.85-3.59,8.23-6,14.39-6S243.74,447.79,246.61,451.38Z" transform="translate(-80 -114)"/><path class="bv" d="M246.61,451.38h-28.8c2.85-2.84,8.23-4.77,14.39-4.77S243.74,448.54,246.61,451.38Z" transform="translate(-80 -114)"/><path class="r" d="M240.28,442c0,3.36-3.61,6.21-8.08,6.21s-8.08-2.79-8.08-6.21a5,5,0,0,1,.62-2.4c0,3.12,3.36,5.64,7.46,5.64s7.39-2.52,7.46-5.64A5,5,0,0,1,240.28,442Z" transform="translate(-80 -114)"/><path class="bw" d="M240.28,441.24c0,3.36-3.61,6.21-8.08,6.21s-8.08-2.79-8.08-6.21a5,5,0,0,1,.62-2.4c0,3.12,3.36,5.64,7.46,5.64s7.39-2.52,7.46-5.64A5,5,0,0,1,240.28,441.24Z" transform="translate(-80 -114)"/><ellipse class="bx" cx="152.92" cy="280.1" rx="44.44" ry="34.49"/><path class="r" d="M244.75,373a11,11,0,0,0,12-5.86,12.63,12.63,0,0,1-11.2,3.27,12.29,12.29,0,0,1-10-8.48A10.93,10.93,0,0,0,244.75,373Z" transform="translate(-80 -114)"/><path class="by" d="M293.19,374a11.27,11.27,0,0,1-1.68,4.6,11.91,11.91,0,0,1-2.5,2.6,12.63,12.63,0,0,1-8.21,2.8,13.18,13.18,0,0,1-1.38-.1,12.56,12.56,0,0,1-6.16-2.52,12.07,12.07,0,0,1-2.65-2.82l-.18-.29a11.42,11.42,0,0,1-1.36-3.16,12.19,12.19,0,0,0,2.23,2.52,13.89,13.89,0,0,0,4.43,2.54,15.33,15.33,0,0,0,4.82.86,15.11,15.11,0,0,0,5.73-1,13.57,13.57,0,0,0,4.3-2.64A11.76,11.76,0,0,0,293.19,374Z" transform="translate(-80 -114)"/><path class="by" d="M196.85,374.6a11.44,11.44,0,0,1-3.36,6.53,12.48,12.48,0,0,1-7.25,3.41,13.18,13.18,0,0,1-1.8.08,12.56,12.56,0,0,1-8.7-3.61,11.64,11.64,0,0,1-1.68-2.23,11.35,11.35,0,0,1-1.26-3,12,12,0,0,0,1.68,2,13.43,13.43,0,0,0,2.79,2,15.2,15.2,0,0,0,14.44,0,13,13,0,0,0,3.26-2.54A11.4,11.4,0,0,0,196.85,374.6Z" transform="translate(-80 -114)"/><path class="r" d="M243.94,382.66a11,11,0,0,0,11.94-5.86,12.63,12.63,0,0,1-11.2,3.27,12.29,12.29,0,0,1-10-8.48A10.93,10.93,0,0,0,243.94,382.66Z" transform="translate(-80 -114)"/><path class="r" d="M244.61,393.13a11,11,0,0,0,11.94-5.86,12.63,12.63,0,0,1-11.2,3.27,12.29,12.29,0,0,1-10-8.48A10.93,10.93,0,0,0,244.61,393.13Z" transform="translate(-80 -114)"/><path class="r" d="M219.47,372.35a11,11,0,0,1-11.94-5.86,12.63,12.63,0,0,0,11.2,3.27,12.29,12.29,0,0,0,10-8.48A10.93,10.93,0,0,1,219.47,372.35Z" transform="translate(-80 -114)"/><path class="r" d="M220.28,382a11,11,0,0,1-11.94-5.89,12.63,12.63,0,0,0,11.22,3.36,12.29,12.29,0,0,0,10-8.48A10.93,10.93,0,0,1,220.28,382Z" transform="translate(-80 -114)"/><path class="bz" d="M220.46,437.49a1.83,1.83,0,0,0-.32-1.26A15.12,15.12,0,0,0,195,419.41q-.21.31-.4.63a2.8,2.8,0,0,1-1.44-.44,2.6,2.6,0,0,1-.49-1.56v-.5l-2.55-.55-.2.45a5.76,5.76,0,0,0,.59,5.64c.4.52,1.13,1.31,2.15,2.37a15.2,15.2,0,0,0-.18,2.33,15,15,0,0,0,4.67,10.92l1.16,1.11,1.49-.6a17.6,17.6,0,0,1,4.7-1.16,18.89,18.89,0,0,1,2.07-.12,17.82,17.82,0,0,1,8,1.81l1.44.72.72-.59,3,1.68.47.29,1.68-2.15-.35-.29A3.36,3.36,0,0,1,220.46,437.49Z" transform="translate(-80 -114)"/><path class="bz" d="M245.42,437.49a1.83,1.83,0,0,1,.32-1.26A15.12,15.12,0,1,1,270.58,419q.36.52.67,1.06a2.8,2.8,0,0,0,1.44-.44,2.6,2.6,0,0,0,.49-1.56v-.5l2.55-.55.2.45a5.76,5.76,0,0,1-.59,5.64c-.4.52-1.13,1.31-2.15,2.37a15.2,15.2,0,0,1,.18,2.33,15,15,0,0,1-4.67,10.92l-1.16,1.11-1.49-.6a17.6,17.6,0,0,0-4.7-1.16,18.89,18.89,0,0,0-2.07-.12,17.82,17.82,0,0,0-8,1.81l-1.44.72-.72-.59-3,1.68-.47.29L244,439.69l.39-.39A3.36,3.36,0,0,0,245.42,437.49Z" transform="translate(-80 -114)"/><path class="r" d="M219.61,392.5a11,11,0,0,1-11.94-5.86,12.63,12.63,0,0,0,11.2,3.27,12.29,12.29,0,0,0,10-8.48A10.93,10.93,0,0,1,219.61,392.5Z" transform="translate(-80 -114)"/><path class="r" d="M245.25,440.82s1.68-1.54,1.44-2.91S268,423,268,423s3.78.62,5.39-.59a3.54,3.54,0,0,0,1-2.52,3.81,3.81,0,0,1-.42,3.88c-.81,1-3.11,3.11-3.11,3.11S246.91,439.85,245.25,440.82Z" transform="translate(-80 -114)"/><path class="r" d="M249.4,438.89a11.32,11.32,0,0,1-5-9.17,10.43,10.43,0,0,1,.29-2.4c1.29-5.49,6.94-9.49,13.43-9.49,7.54,0,13.67,5.34,13.67,11.89a11.1,11.1,0,0,1-4.2,8.56l-.49.4-.62-.22a21.39,21.39,0,0,0-5-1.09c-.74,0-1.48-.1-2.23-.1a21.7,21.7,0,0,0-8.62,1.68l-.6.27Z" transform="translate(-80 -114)"/><path class="l" d="M258.3,419.27c-6.11,0-11.2,3.8-12.38,8.83a9.76,9.76,0,0,0-.25,2.23,10.58,10.58,0,0,0,4.6,8.55,22.67,22.67,0,0,1,9.09-1.83,15.64,15.64,0,0,1,2.35.12,22.44,22.44,0,0,1,5.36,1.18,10.43,10.43,0,0,0,3.9-8C270.94,424.23,265.28,419.27,258.3,419.27Z" transform="translate(-80 -114)"/><path class="m" d="M270.94,430.44a10.33,10.33,0,0,1-3.9,7.94,22.59,22.59,0,0,0-5.36-1.16l-15.77-9c1.18-5,6.28-8.77,12.38-8.77C265.28,419.44,270.94,424.36,270.94,430.44Z" transform="translate(-80 -114)"/><path class="n" d="M266.61,436.69a24.69,24.69,0,0,0-4.33-.87l-14.44-8.25a11,11,0,0,1,10.48-6.72c6.06,0,11,4.28,11,9.56A8.77,8.77,0,0,1,266.61,436.69Z" transform="translate(-80 -114)"/><path class="l" d="M263.71,428.54c-1.44-.15-2.5-.64-2.5-1.21s.55-.79,1.41-1a9.67,9.67,0,0,0-8-4.13,9.57,9.57,0,0,0-8.65,5.17,11.12,11.12,0,0,0-.25,2.38,11.54,11.54,0,0,0,4.6,9.14,21.41,21.41,0,0,1,9.09-2,22.72,22.72,0,0,1,2.35.12,8.58,8.58,0,0,0,2.42-5.94A8.4,8.4,0,0,0,263.71,428.54Z" transform="translate(-80 -114)"/><path class="ca" d="M250.47,437.51a10.33,10.33,0,0,1-3.56-7.76,10.08,10.08,0,0,1,.2-2,8.4,8.4,0,0,1,7.46-4.38c2.38,0,7.67,11.13,6.57,12.49h-1.81A23,23,0,0,0,250.47,437.51Z" transform="translate(-80 -114)"/><path class="cb" d="M249.72,439.31l-.18-.37a22,22,0,0,1,9.47-2.33,22.27,22.27,0,0,1,8.11,1.33l-.15.39a22.32,22.32,0,0,0-17.26.94Z" transform="translate(-80 -114)"/><path class="cc" d="M256.77,423.35c-.42.2.2,1,.42,1.36a27.27,27.27,0,0,1,2.69,4.27c.2,1,1.68,4.08,1.86,4.85a.52.52,0,0,0,.82.39,9.2,9.2,0,0,0,.62-3.11A6.13,6.13,0,0,0,261.5,429c-.42-.39-1.44-1.36-1.44-2.13a2.77,2.77,0,0,0-1.24-2.52C257.88,423.74,257.26,423.17,256.77,423.35Z" transform="translate(-80 -114)"/><ellipse class="r" cx="174.36" cy="316.72" rx="6.42" ry="6.01"/><g class="s"><ellipse class="h" cx="179.96" cy="316.91" rx="2.07" ry="1.95"/></g><g class="t"><circle class="h" cx="176.63" cy="318.32" r="1.04"/></g><path class="r" d="M259.31,403.3h0a7.66,7.66,0,0,0-10.08,9.12Z" transform="translate(-80 -114)"/><path class="r" d="M260.53,412.69h0A6.2,6.2,0,0,0,249.8,415Z" transform="translate(-80 -114)"/><path class="r" d="M283,424.26l-.44,2.27a10.61,10.61,0,0,1-7.36-1.68A12,12,0,0,0,283,424.26Z" transform="translate(-80 -114)"/><path class="r" d="M281,435.43l-.37,2a11,11,0,0,1-2.37-1.39,10.4,10.4,0,0,1-3-3.78,11.32,11.32,0,0,0,3.81,2.57A12.44,12.44,0,0,0,281,435.43Z" transform="translate(-80 -114)"/><path class="r" d="M220.68,440.4s-1.68-1.51-1.44-2.84S197.89,423,197.89,423s-3.78.6-5.39-.57a3.36,3.36,0,0,1-1-2.45,3.64,3.64,0,0,0,.42,3.78,37.64,37.64,0,0,0,3.11,3S219,439.46,220.68,440.4Z" transform="translate(-80 -114)"/><path class="r" d="M216.46,438.52a11.2,11.2,0,0,0,5-9.1,10.28,10.28,0,0,0-.29-2.38c-1.29-5.46-6.94-9.42-13.43-9.42-7.54,0-13.67,5.29-13.67,11.76a11,11,0,0,0,4.22,8.51l.49.4.62-.22a21.55,21.55,0,0,1,5-1.09c.74,0,1.48-.1,2.23-.1a21.83,21.83,0,0,1,8.62,1.68l.6.27Z" transform="translate(-80 -114)"/><path class="l" d="M207.61,419c6.11,0,11.2,3.76,12.38,8.77a9.61,9.61,0,0,1,.25,2.22,10.46,10.46,0,0,1-4.6,8.4,22.82,22.82,0,0,0-9-1.79,15.64,15.64,0,0,0-2.35.12,22.6,22.6,0,0,0-5.36,1.16A10.31,10.31,0,0,1,195,430C195,424,200.66,419,207.61,419Z" transform="translate(-80 -114)"/><path class="m" d="M195,430.12a10.21,10.21,0,0,0,3.9,7.88,22.74,22.74,0,0,1,5.36-1.14L220,427.93c-1.18-5-6.28-8.7-12.38-8.7C200.66,419.22,195,424.11,195,430.12Z" transform="translate(-80 -114)"/><path class="n" d="M199.34,436.34a24.85,24.85,0,0,1,4.33-.86l14.48-8.2a11,11,0,0,0-10.48-6.72c-6.06,0-11,4.25-11,9.47A8.67,8.67,0,0,0,199.34,436.34Z" transform="translate(-80 -114)"/><path class="l" d="M202.24,428.44c1.44-.15,2.5-.62,2.5-1.19s-.55-.77-1.41-1a9.76,9.76,0,0,1,8.09-4,9.61,9.61,0,0,1,8.65,5,10.58,10.58,0,0,1,.25,2.33,11.15,11.15,0,0,1-4.6,8.9,21.83,21.83,0,0,0-9.12-1.91,23.29,23.29,0,0,0-2.35.12,8.26,8.26,0,0,1-2.42-5.79A8,8,0,0,1,202.24,428.44Z" transform="translate(-80 -114)"/><path class="ca" d="M215.47,437.18a10,10,0,0,0,3.56-7.56,9.59,9.59,0,0,0-.2-2,8.4,8.4,0,0,0-7.41-4.28c-2.38,0-7.67,10.87-6.57,12.18h1.81A23.51,23.51,0,0,1,215.47,437.18Z" transform="translate(-80 -114)"/><path class="cb" d="M216.21,439.31a22.32,22.32,0,0,0-17.26-.94l-.15-.39a22.25,22.25,0,0,1,8.13-1.38,22,22,0,0,1,9.54,2.33Z" transform="translate(-80 -114)"/><path class="cc" d="M209.09,423.37c.42.18-.2.94-.42,1.33a26.5,26.5,0,0,0-2.69,4.16c-.2.94-1.68,4-1.86,4.74a.52.52,0,0,1-.82.39,8.78,8.78,0,0,1-.62-3,6,6,0,0,1,1.68-2.08c.42-.39,1.44-1.33,1.44-2.08a2.69,2.69,0,0,1,1.24-2.45C208.07,423.76,208.67,423.17,209.09,423.37Z" transform="translate(-80 -114)"/><ellipse class="r" cx="131.57" cy="316.55" rx="6.42" ry="5.86"/><g class="s"><circle class="h" cx="125.98" cy="316.25" r="2.07"/></g><g class="t"><circle class="h" cx="129.29" cy="318.32" r="1.04"/></g><path class="r" d="M182.69,425.29l.44,2.12a11.42,11.42,0,0,0,7.37-1.55A13,13,0,0,1,182.69,425.29Z" transform="translate(-80 -114)"/><path class="r" d="M184.76,435.43l.37,2A11,11,0,0,0,187.5,436a10.4,10.4,0,0,0,3.06-3.78,11.32,11.32,0,0,1-3.81,2.57A12.44,12.44,0,0,1,184.76,435.43Z" transform="translate(-80 -114)"/><path class="r" d="M180.19,410.71l1.36,7.42h0a7.93,7.93,0,0,0,6,3.24,9.3,9.3,0,0,1-5.51-6.6,9.05,9.05,0,0,1,2.8-9.24A7.78,7.78,0,0,0,180.19,410.71Z" transform="translate(-80 -114)"/><path class="r" d="M208.79,403.39h0a7.66,7.66,0,0,1,9.35,9.79Z" transform="translate(-80 -114)"/><path class="r" d="M206.91,412.67h0a6.2,6.2,0,0,1,10.55,3Z" transform="translate(-80 -114)"/><circle class="cd" cx="136.34" cy="320.5" r="1.96"/><circle class="cd" cx="128.79" cy="320.18" r="2.07"/><circle class="cd" cx="125.26" cy="320.8" r="2.07"/><circle class="cd" cx="212.49" cy="435.68" r="2.07" transform="translate(-350.49 362.9) rotate(-68.88)"/><circle class="cd" cx="136.44" cy="323.09" r="1.66"/><rect class="r" x="151.46" y="333.85" width="1.04" height="3.53"/><path class="ce" d="M292.41,380.88a10,10,0,0,1-1.8,1.43l-1.93,10.45-2.07-1.09s-4.18-5.84-7.27-7.71l-.4-.22c-2.69-1.34-7.2-4.33-8.4-5.12l-.3-.2.12-.08.87-.64a13.89,13.89,0,0,0,4.43,2.54,15.33,15.33,0,0,0,4.82.86,15.11,15.11,0,0,0,5.73-1,13.57,13.57,0,0,0,4.3-2.64h0a5.21,5.21,0,0,1,.81,1.09A12.14,12.14,0,0,1,292.41,380.88Z" transform="translate(-80 -114)"/><ellipse class="cf" cx="127.43" cy="327.64" rx="8.4" ry="3.11"/><ellipse class="cf" cx="179.02" cy="327.64" rx="8.4" ry="3.11"/><path class="ce" d="M195.46,377.83a108.08,108.08,0,0,1-8.7,6.45l-.52.27c-3.07,2.33-7.17,9.25-7.17,9.25l-2,.57-1.91-11.86a10.45,10.45,0,0,1-1.8-1.68,18.79,18.79,0,0,1,.64-2,10.18,10.18,0,0,1,.49-1,13.43,13.43,0,0,0,2.79,2,15.2,15.2,0,0,0,14.44,0,13,13,0,0,0,3.26-2.54Z" transform="translate(-80 -114)"/><g class="cg"><path class="ch" d="M292.77,380.38l-.15.25a12.38,12.38,0,0,1-1.8,2.23l-2.67,15.53v.15l-.87,5-1.11,5.84-.32,1.68-1.06,5.58h0l-.44,2.32-.72,3.73-.39,2.12V425l-.35,1.86v.2l-1.28,6.7-.37,2h0l-.35,1.91h0l-1.06,5.59.18.1h0l-.49,2.57h0l-.22.1-.76,3.53a1.85,1.85,0,0,1-1.86,1.83H232.61V353h1.56a54.24,54.24,0,0,1,33.44,12h1a41.18,41.18,0,0,1,12.11-2.12h0C294.45,362.9,296.89,373.49,292.77,380.38Z" transform="translate(-80 -114)"/></g><circle class="r" cx="158.61" cy="335.09" r="0.62"/><circle class="r" cx="162.96" cy="335.09" r="0.62"/><circle class="r" cx="162.96" cy="331.79" r="0.62"/><circle class="r" cx="167.31" cy="335.09" r="0.62"/><circle class="r" cx="137.69" cy="335.09" r="0.62"/><circle class="r" cx="142.04" cy="335.09" r="0.62"/><circle class="r" cx="142.04" cy="331.79" r="0.62"/><circle class="r" cx="146.39" cy="335.09" r="0.62"/><rect class="ci" x="114.28" y="321.22" width="14.29" height="5.39" rx="1.58" ry="1.58"/><rect class="ci" x="180.36" y="321.42" width="14.91" height="5.39" rx="1.58" ry="1.58"/><circle class="cd" cx="169.9" cy="320.7" r="1.96"/><circle class="cd" cx="177.47" cy="320.4" r="2.07"/><circle class="cd" cx="180.98" cy="321.02" r="2.07"/><circle class="cd" cx="253.77" cy="435.87" r="2.07" transform="matrix(0.93, -0.36, 0.36, 0.93, -220.01, 6.71)"/><circle class="cd" cx="169.8" cy="323.29" r="1.66"/><path class="ao" d="M211.14,337.59l.33-16.37a26.25,26.25,0,0,0,.68-33.72,25.36,25.36,0,0,0-2.91-3.07,26.25,26.25,0,0,0-43.72,21.43q.09,1.25.3,2.49c.12.71.27,1.42.46,2.13a26.24,26.24,0,0,0,31.46,19Z" transform="translate(-80 -114)"/><circle class="aq" cx="192.52" cy="304.42" r="22.98" transform="translate(-106.51 -95.52) rotate(-5.14)"/><rect class="ap" x="98.53" y="352.25" width="123.26" height="15.89" rx="4.78" ry="4.78"/><rect class="aq" x="100.97" y="354.17" width="118.38" height="12.2" rx="3.67" ry="3.67"/><path class="ar" d="M193.34,468.18v12.69H181.56c-.25,0-.58-2.41-.58-5.37v-2c0-3,.34-5.37.58-5.37Z" transform="translate(-80 -114)"/><path class="as" d="M211.14,337.59l.33-16.37a26.32,26.32,0,0,0,6.33-20l-52.28,4.66q.09,1.25.3,2.49c.12.71.27,1.42.46,2.13a26.24,26.24,0,0,0,31.46,19Z" transform="translate(-80 -114)"/><path class="cj" d="M176,289.79s8.27-1.41,9.92,3.39c1.9,2.57,1.24,3.31,1.24,3.31l-3.24-1.16A8.38,8.38,0,0,1,176,289.79Z" transform="translate(-80 -114)"/><path class="cj" d="M210.14,290.12s-8.27-1.41-9.92,3.39c-1.9,2.57-1.24,3.31-1.24,3.31l3.22-1.16A8.38,8.38,0,0,0,210.14,290.12Z" transform="translate(-80 -114)"/><path class="cj" d="M193.17,289.87a11.68,11.68,0,0,0-10.58,9.5c-.42,2.07-1.32,5-.74,8.35-1.07,1.24-6.45,7.94.59,12.07s17.94,4.63,22.74-.83.91-9.76-.74-11a20.83,20.83,0,0,0-.42-8.27C202.84,295.54,198.46,290,193.17,289.87Z" transform="translate(-80 -114)"/><path class="cj" d="M199.53,308.8c0,1.78-2.23,3.31-5.94,3.31s-6.73-1.43-6.73-3.18,2.6-3.6,6.32-3.6S199.53,307,199.53,308.8Z" transform="translate(-80 -114)"/><ellipse class="cj" cx="108.94" cy="185.54" rx="1.32" ry="2.65"/><ellipse class="cj" cx="117.46" cy="185.54" rx="1.32" ry="2.65"/><ellipse class="cj" cx="110.6" cy="193.89" rx="2.32" ry="1.16"/><ellipse class="cj" cx="117.67" cy="186.2" rx="0.87" ry="1.73"/><ellipse class="cj" cx="109.1" cy="186.2" rx="0.87" ry="1.73"/><ellipse class="cj" cx="109.27" cy="186.86" rx="0.54" ry="1.07"/><ellipse class="cj" cx="117.78" cy="186.86" rx="0.54" ry="1.07"/><path class="cj" d="M210.08,290.12s-8.27-1.41-9.92,3.39c-1.9,2.57-1.24,3.31-1.24,3.31l3.22-1.16A8.38,8.38,0,0,0,210.08,290.12Z" transform="translate(-80 -114)"/><path class="cj" d="M194.44,323c4.25,0,8.22-1.26,10.65-4,4.8-5.46.91-9.76-.74-11a20.83,20.83,0,0,0-.42-8.27c-1.16-4.16-5.54-9.76-10.83-9.84" transform="translate(-80 -114)"/><path class="cj" d="M193.76,305.26c3.4.17,5.77,1.78,5.77,3.46s-2.06,3.18-5.52,3.3" transform="translate(-80 -114)"/><ellipse class="cj" cx="117.4" cy="185.54" rx="1.32" ry="2.65"/><ellipse class="cj" cx="117.61" cy="186.2" rx="0.87" ry="1.73"/><ellipse class="cj" cx="117.72" cy="186.86" rx="0.54" ry="1.07"/><path class="ck" d="M175.25,289.79s8.27-1.41,9.92,3.39c1.9,2.57,1.24,3.31,1.24,3.31l-3.22-1.16A8.38,8.38,0,0,1,175.25,289.79Z" transform="translate(-80 -114)"/><path class="ck" d="M209.43,290.12s-8.27-1.41-9.92,3.39c-1.9,2.57-1.24,3.31-1.24,3.31l3.22-1.16A8.38,8.38,0,0,0,209.43,290.12Z" transform="translate(-80 -114)"/><path class="cl" d="M192.44,289.87a11.68,11.68,0,0,0-10.58,9.5c-.42,2.07-1.32,5-.74,8.35-1.07,1.24-6.45,7.94.59,12.07s17.94,4.63,22.74-.83.91-9.76-.74-11a20.83,20.83,0,0,0-.42-8.27C202.12,295.54,197.74,290,192.44,289.87Z" transform="translate(-80 -114)"/><path class="cm" d="M198.81,308.8c0,1.78-2.23,3.31-5.94,3.31s-6.74-1.43-6.74-3.18,2.6-3.6,6.32-3.6S198.81,307,198.81,308.8Z" transform="translate(-80 -114)"/><ellipse class="aq" cx="108.22" cy="185.54" rx="1.32" ry="2.65"/><ellipse class="aq" cx="116.74" cy="185.54" rx="1.32" ry="2.65"/><ellipse class="cn" cx="109.88" cy="193.89" rx="2.32" ry="1.16"/><ellipse class="co" cx="116.95" cy="186.2" rx="0.87" ry="1.73"/><ellipse class="co" cx="108.38" cy="186.2" rx="0.87" ry="1.73"/><ellipse cx="108.55" cy="186.86" rx="0.54" ry="1.07"/><ellipse cx="117.07" cy="186.86" rx="0.54" ry="1.07"/><path class="bf" d="M209.36,290.12s-8.25-1.41-9.92,3.39c-1.9,2.57-1.24,3.31-1.24,3.31l3.22-1.16A8.38,8.38,0,0,0,209.36,290.12Z" transform="translate(-80 -114)"/><path class="ck" d="M193.73,323c4.25,0,8.22-1.26,10.65-4,4.8-5.46.91-9.76-.74-11a20.83,20.83,0,0,0-.42-8.27c-1.16-4.16-5.54-9.76-10.83-9.84" transform="translate(-80 -114)"/><path class="bf" d="M193,305.26c3.4.17,5.77,1.78,5.77,3.46s-2.06,3.18-5.52,3.3" transform="translate(-80 -114)"/><ellipse class="aq" cx="116.68" cy="185.54" rx="1.32" ry="2.65"/><ellipse class="cp" cx="116.89" cy="186.2" rx="0.87" ry="1.73"/><ellipse cx="117" cy="186.86" rx="0.54" ry="1.07"/><text class="cq" transform="translate(352.51 293.81)">Good</text><text class="cr" transform="translate(243.77 294.02)">Bad</text><polygon class="cs" points="244.65 332.29 266.12 309.32 261.28 304.8 239.81 327.76 234.2 322.52 228.89 345.42 251.38 338.57 244.65 332.29"/><polygon class="ct" points="403.02 332.29 381.56 309.33 386.4 304.8 407.86 327.77 413.47 322.53 418.79 345.42 396.3 338.58 403.02 332.29"/><text class="cu" transform="translate(188.96 185.44)">Keep the animals <tspan class="cv" x="132.39" y="0">f</tspan><tspan x="137.41" y="0">ood me</tspan><tspan class="cw" x="195.17" y="0">t</tspan><tspan x="201.02" y="0">er full </tspan><tspan class="cx" x="52.42" y="21.6">b</tspan><tspan x="62.53" y="21.6">y </tspan><tspan class="cw" x="74.82" y="21.6">c</tspan><tspan x="82.78" y="21.6">olle</tspan><tspan class="cy" x="110.18" y="21.6">c</tspan><tspan x="118.47" y="21.6">ting </tspan><tspan class="cv" x="152.51" y="21.6">f</tspan><tspan x="157.53" y="21.6">oo</tspan><tspan class="cz" x="177.3" y="21.6">d</tspan><tspan x="187.27" y="21.6">.</tspan></text></svg>