<svg xmlns="http://www.w3.org/2000/svg" xmlns:xlink="http://www.w3.org/1999/xlink" viewBox="0 0 631.47 386.58"><defs><style>.a{fill:#a8a8a8;}.b{fill:#b5b5b5;}.c{fill:#c6c6c6;}.d{fill:#d3d3d3;}.e{fill:#ddd;}.f{fill:#cecece;}.g{fill:#eae8e8;}.h{fill:#efefef;}.i{opacity:0.35;fill:url(#a);}.al,.am,.an,.i{isolation:isolate;}.j{fill:#e5e5e5;}.k{fill:#9b9a9a;}.l{fill:#495750;}.m{fill:#ccc;}.n{fill:#e8e8e8;}.o{fill:#249daa;}.p{fill:#1b6d6b;}.q{fill:#2bd0d8;}.r{fill:#2b2b2b;}.s{opacity:0.74;}.t{opacity:0.41;}.u{fill:#f9b9b9;}.v{fill:#eaeaea;}.w{fill:#a3a3a3;}.x{fill:#c1bfbf;}.y{fill:#784418;}.z{fill:#492812;}.aa{fill:#86502a;}.ab{fill:none;}.ac{fill:#b87f50;}.ad{fill:#5d3b20;}.ae{fill:#683f29;}.af{fill:#5c2f0b;}.ag{fill:url(#b);}.ah{opacity:0.76;}.ai{fill:url(#c);}.aj{opacity:0.7;}.ak{fill:url(#d);}.al{fill:#212121;opacity:0.43;}.am{opacity:0.56;fill:#1e0404;}.am,.an{font-size:42px;}.am,.an,.at,.au{font-family:GROBOLD, GROBOLD;}.an{fill:#f4f2f2;}.ao{font-size:15px;font-family:Montserrat-Regular, Montserrat;}.ap{letter-spacing:-0.03em;}.aq{letter-spacing:-0.01em;}.ar{letter-spacing:-0.01em;}.as{letter-spacing:-0.02em;}.at{font-size:21px;}.at,.aw{fill:#13bc13;}.au{font-size:20px;}.au,.av{fill:#d31616;}.ax,.ay,.az,.bj,.bk,.bl,.bs,.bt,.bu{fill:#d1d3d4;stroke-miterlimit:10;}.ax,.ay,.bj,.bk,.bs,.bt{stroke:#fff;}.ax,.ay{stroke-width:2.22px;}.ax,.bj,.bs{opacity:0.56;}.az,.bl,.bu{stroke:#f9f9f9;}.az{stroke-width:0.55px;}.ba{fill:#3d240e;}.bb,.by{fill:#a67c52;}.bc{fill:#c69c6d;}.bd,.bz{fill:#8c6239;}.be{fill:#fff;}.bf{fill:#e6e6e6;}.bg{fill:#39b54a;}.bh{fill:#754c24;}.bi{fill:#009245;}.bj,.bk{stroke-width:2.55px;}.bl{stroke-width:0.64px;}.bm{fill:#183008;}.bn{fill:#9e0404;}.bo{fill:#244924;}.bp{fill:#2a562c;}.bq{fill:#ba3842;}.br{fill:#b23040;}.bs,.bt{stroke-width:2.34px;}.bu{stroke-width:0.59px;}.bv,.ca{fill:#42210b;}.bw,.bx{fill:#603813;}.bx,.by,.bz,.ca,.cf,.cg,.ch,.ci{opacity:0.5;}.cb{opacity:0.4;}.cc{fill:#301709;}.cd{fill:#512d10;}.ce{fill:#56351a;}.cf{fill:#936c4a;}.cg{fill:#775132;}.ch{fill:#472910;}.ci{fill:#2b1407;}</style><linearGradient id="a" x1="335.01" y1="559.25" x2="335.01" y2="569.38" gradientTransform="matrix(0.96, -0.26, -0.26, -0.96, 152.57, 709.19)" gradientUnits="userSpaceOnUse"><stop offset="0" stop-opacity="0"/><stop offset="1"/></linearGradient><radialGradient id="b" cx="355.63" cy="294.48" r="37.4" gradientTransform="matrix(1, 0, 0, -1, -6.37, 390.46)" gradientUnits="userSpaceOnUse"><stop offset="0" stop-color="#b87f50" stop-opacity="0.3"/><stop offset="0.22" stop-color="#caa687" stop-opacity="0.17"/><stop offset="0.46" stop-color="#d8c5b2" stop-opacity="0.08"/><stop offset="0.71" stop-color="#e0d7cc" stop-opacity="0.02"/><stop offset="1" stop-color="#e3ddd4" stop-opacity="0"/></radialGradient><radialGradient id="c" cx="995.29" cy="261.28" r="37.39" gradientTransform="translate(1261.56 390.46) rotate(180)" xlink:href="#b"/><linearGradient id="d" x1="400.01" y1="256.34" x2="433.15" y2="256.34" gradientTransform="matrix(1, 0, 0, -1, -6.37, 390.46)" xlink:href="#b"/></defs><title>tut7desktop</title><path class="a" d="M335.25,91.84,333,115.68a2.87,2.87,0,0,1-3.12,2.58c-15.14.42-28.58-3-39-11.25a12.46,12.46,0,0,1-2.58-3.12l.84-8.85a2.87,2.87,0,0,1,3.12-2.58c13.15,1.68,27,1.85,40.44-3.74A2.87,2.87,0,0,1,335.25,91.84Z" transform="translate(-5.86 -4.8)"/><path class="b" d="M352,86.28l-5.94-6.06a1.92,1.92,0,0,1,0-2.72h0l1.38-1.35a7.76,7.76,0,0,1,11,.11h0l6.19,6.32a.91.91,0,0,1,0,1.29h0l-2.56,2.51A7.12,7.12,0,0,1,352,86.28Z" transform="translate(-5.86 -4.8)"/><path class="c" d="M330.64,113.78a1.21,1.21,0,0,1-.29.08l-.33-.07-.54.3c-14.29,1.41-27.6-1.3-37.23-8.87a10.16,10.16,0,0,1-1.66-1.89l.76-8.09a.61.61,0,0,1,.45-.53.58.58,0,0,1,.19,0c17.82,2.27,28,.3,34.19-1.38a61.26,61.26,0,0,0,6.6-2.22.61.61,0,0,1,.21.51l-1.86,21.71C331.12,113.62,330.85,113.73,330.64,113.78Z" transform="translate(-5.86 -4.8)"/><path class="d" d="M352.28,84.13a6.91,6.91,0,0,0,9.76.1l1-1-4.55-4.7a7.67,7.67,0,0,0-10.84-.11.67.67,0,0,0,0,.93Z" transform="translate(-5.86 -4.8)"/><path class="b" d="M298.43,100.28l2.11-8.59A7.76,7.76,0,0,1,309.93,86h0l1.87.46a1.92,1.92,0,0,1,1.41,2.32h0l-2,8.24a7.12,7.12,0,0,1-8.61,5.21l-3.48-.85a.91.91,0,0,1-.67-1.1Z" transform="translate(-5.86 -4.8)"/><path class="e" d="M309.92,95.25a6.91,6.91,0,0,1-8.35,5.05l-1.38-.34,1.57-6.38A7.67,7.67,0,0,1,311,88a.67.67,0,0,1,.48.79Z" transform="translate(-5.86 -4.8)"/><path class="f" d="M313.49,111l-.54-3.57-1-6.66-.37-2.47h0l-.18-1.19-.52-3.45-.06-.37-.16-1v-.06L309.87,87l-1-6.46-.38-2.46-.1-.65a.61.61,0,0,0-.06-.32c-.06-.11,0-.16,0-.24V76.8a3.15,3.15,0,0,1,0-.47,3.34,3.34,0,0,1,.18-1,3.39,3.39,0,0,1,.8-1.29,3.33,3.33,0,0,1,1.5-.88l28.1-7.69a3.33,3.33,0,0,1,1.74,0,3.39,3.39,0,0,1,1.34.7,3.34,3.34,0,0,1,.68.79,3,3,0,0,1,.22.42v.07c0,.08.06.15.08.23a2.86,2.86,0,0,0,.11.3l.25.61.92,2.26,2.1,5.18.21.52.14.35,3.64,9h0l.38.94v.1L354.39,96l1.39,3.44C360.12,115.15,317.8,126.73,313.49,111Z" transform="translate(-5.86 -4.8)"/><path class="g" d="M316.32,112.21l-5.06-33.57a2,2,0,0,0-.09-.48,1,1,0,0,1,.67-1.12l28.1-7.69a1,1,0,0,1,1.15.62,1.69,1.69,0,0,0,.16.46L354,101.9C356,109.3,318.35,119.61,316.32,112.21Z" transform="translate(-5.86 -4.8)"/><path class="h" d="M335.83,108.93a49.54,49.54,0,0,1-10.66,1.85l-5.08-29,15.48-4.25,10.38,27.52A49.54,49.54,0,0,1,335.83,108.93Z" transform="translate(-5.86 -4.8)"/><path class="a" d="M271.44,115.65l2.57-11.9a10.67,10.67,0,0,1,12.68-8.18h0l2.6.56a2.64,2.64,0,0,1,2,3.14h0l-2.46,11.4a9.79,9.79,0,0,1-11.64,7.5h0l-4.86-1a1.25,1.25,0,0,1-1-1.49Z" transform="translate(-5.86 -4.8)"/><path class="d" d="M287.07,108.3a9.5,9.5,0,0,1-11.27,7.23l-1.91-.41,1.91-8.83a10.55,10.55,0,0,1,12.53-8.08.92.92,0,0,1,.69,1.07Z" transform="translate(-5.86 -4.8)"/><path class="a" d="M293.69,88.47l-2.46,11.41a2.64,2.64,0,0,1-3.14,2h0l-2.6-.56a10.67,10.67,0,0,1-8.18-12.68h0l2.57-11.9a1.25,1.25,0,0,1,1.49-1l4.82,1A9.79,9.79,0,0,1,293.69,88.47Z" transform="translate(-5.86 -4.8)"/><path class="d" d="M291,89.9a9.5,9.5,0,0,0-7.27-11.28l-1.91-.41L280,87A10.55,10.55,0,0,0,288,99.53a.92.92,0,0,0,1.07-.69Z" transform="translate(-5.86 -4.8)"/><path class="i" d="M346.58,76.29l-36.91,10.1-1.26-8.53a1.75,1.75,0,0,1,0-.35,2.54,2.54,0,0,0,0-.55c-.06-.22-.11-.44-.16-.66l34.56-9.46c.07.22.14.43.2.65a2.54,2.54,0,0,0,.24.5,1.75,1.75,0,0,1,.15.32Z" transform="translate(-5.86 -4.8)"/><path class="f" d="M357.42,59.86a3.48,3.48,0,0,1-2.53,4.2L297.83,79.67a3.48,3.48,0,0,1-4.34-2.32L282.31,43.93a3.41,3.41,0,0,1-.12-1,23.92,23.92,0,0,1-.77-5.22h0a27.26,27.26,0,0,1,4.67-15.88,33,33,0,0,1,2-2.77A39.17,39.17,0,0,1,307.37,6.53h.14l.8-.23a39.25,39.25,0,0,1,24.27.89,31.76,31.76,0,0,1,3.18,1.34,27.09,27.09,0,0,1,11.88,11.36,24.15,24.15,0,0,1,1.93,4.87,2.3,2.3,0,0,0,.13.5c0,.17,0,.15.07.22Z" transform="translate(-5.86 -4.8)"/><path class="f" d="M298.43,74.53a9.11,9.11,0,1,1,6.38-11.19h0A9.12,9.12,0,0,1,298.43,74.53Z" transform="translate(-5.86 -4.8)"/><path class="f" d="M350.87,60.16A9.11,9.11,0,1,1,357.25,49h0A9.12,9.12,0,0,1,350.87,60.16Z" transform="translate(-5.86 -4.8)"/><path class="j" d="M355.3,57.2a5.23,5.23,0,0,1-3.3,5.46L298.95,77.18a5.2,5.2,0,0,1-4.88-3.29L293.72,72,283.25,42.74v-.12a.65.65,0,0,1,0-.18V42l-.11-.42c-1.8-6.88-.22-14.27,4.47-20.8A38,38,0,0,1,308.49,6.74c18-4.91,35.8,2.84,39.74,17.28l.1.39v.5l6,30h0Z" transform="translate(-5.86 -4.8)"/><circle class="j" cx="296.02" cy="65.74" r="7.91" transform="matrix(0.96, -0.26, 0.26, 0.96, -12.71, 75.65)"/><circle class="j" cx="348.46" cy="51.39" r="7.91" transform="translate(-7.07 88.98) rotate(-15.3)"/><path class="k" d="M301.21,68.09a6.34,6.34,0,1,0-7.34,4.14l.3.07.18-.25a8.83,8.83,0,0,1,1.7-1.73,9.43,9.43,0,0,1,.85-.59,8.94,8.94,0,0,1,3.88-1.31h.31Z" transform="translate(-5.86 -4.8)"/><path class="l" d="M292.26,61.41a5.86,5.86,0,0,1,8.61,6.9,9.41,9.41,0,0,0-4.09,1.38,9.88,9.88,0,0,0-.9.62,9.32,9.32,0,0,0-1.8,1.83,5.86,5.86,0,0,1-1.82-10.73Z" transform="translate(-5.86 -4.8)"/><path class="m" d="M290.33,69.47a5.84,5.84,0,0,0,3.75,2.66,9.32,9.32,0,0,1,1.8-1.83l3.72-7.91a5.86,5.86,0,0,0-9.27,7.08Z" transform="translate(-5.86 -4.8)"/><path class="n" d="M293.79,71.26a10.15,10.15,0,0,1,1.47-1.45l3.41-7.28A5.09,5.09,0,0,0,291,69,5,5,0,0,0,293.79,71.26Z" transform="translate(-5.86 -4.8)"/><path class="o" d="M292.88,67.21c.53-.41.82-.87.67-1.12s-.42-.2-.82-.09a4.42,4.42,0,0,1,6.87-3.6,5.87,5.87,0,0,1,1.27,5.92,9.41,9.41,0,0,0-4.09,1.38,9.88,9.88,0,0,0-.9.62,4.42,4.42,0,0,1-3-3.1Z" transform="translate(-5.86 -4.8)"/><path class="p" d="M300.43,67.78a5.29,5.29,0,0,0-1.2-4.94,3.86,3.86,0,0,0-4.08,0c-.94.58-.16,6.56.63,6.87.23-.16.46-.32.7-.47A10.09,10.09,0,0,1,300.43,67.78Z" transform="translate(-5.86 -4.8)"/><path class="k" d="M301.22,68.4a10.36,10.36,0,0,0-7,3.81l-.15-.12a10.32,10.32,0,0,1,2.89-2.49,10.21,10.21,0,0,1,4.3-1.4Z" transform="translate(-5.86 -4.8)"/><path class="q" d="M294.24,63.35c.21,0,.17.46.19.67a13.66,13.66,0,0,0,.06,2.51c.17.46.4,2.12.52,2.5s-.23.36-.23.36-.93-.78-1-1.16a3,3,0,0,1,.1-1.3,2,2,0,0,0,0-1.25,1.41,1.41,0,0,1-.16-1.37C293.93,63.77,294,63.37,294.24,63.35Z" transform="translate(-5.86 -4.8)"/><circle class="r" cx="297.13" cy="65.85" r="2.98" transform="translate(3.55 160.26) rotate(-31.52)"/><g class="s"><circle class="h" cx="294.06" cy="67.96" r="0.96" transform="translate(1.89 158.65) rotate(-31.46)"/></g><g class="t"><circle class="h" cx="295.87" cy="67.98" r="0.48" transform="translate(2.15 159.6) rotate(-31.46)"/></g><ellipse class="u" cx="351.89" cy="59.17" rx="2.67" ry="2.05" transform="translate(7.95 168.52) rotate(-28.2)"/><ellipse class="u" cx="298.31" cy="73.86" rx="2.67" ry="2.05" transform="translate(-8.7 7.81) rotate(-2.41)"/><path class="k" d="M345,55.65a6.34,6.34,0,1,1,8.42.29l-.24.2-.28-.14a8.83,8.83,0,0,0-2.31-.75,9.43,9.43,0,0,0-1-.13,8.94,8.94,0,0,0-4,.63l-.29.12Z" transform="translate(-5.86 -4.8)"/><path class="l" d="M349.88,45.6a5.86,5.86,0,0,0-4.47,10.09,9.41,9.41,0,0,1,4.27-.66,9.88,9.88,0,0,1,1.08.14,9.32,9.32,0,0,1,2.43.79,5.86,5.86,0,0,0-3.32-10.36Z" transform="translate(-5.86 -4.8)"/><path class="m" d="M355.3,51.87A5.84,5.84,0,0,1,353.19,56a9.32,9.32,0,0,0-2.43-.79l-7-5.31a5.86,5.86,0,0,1,11.49,2Z" transform="translate(-5.86 -4.8)"/><path class="n" d="M353,55.05a10.15,10.15,0,0,0-2-.61l-6.33-4.91a5.09,5.09,0,0,1,9.77,2.28A5,5,0,0,1,353,55.05Z" transform="translate(-5.86 -4.8)"/><path class="o" d="M352,51c-.66-.12-1.13-.4-1.11-.68s.28-.37.69-.46a4.42,4.42,0,0,0-7.76,0,5.87,5.87,0,0,0,1.6,5.84,9.41,9.41,0,0,1,4.27-.66,9.88,9.88,0,0,1,1.08.14A4.42,4.42,0,0,0,352,51.07Z" transform="translate(-5.86 -4.8)"/><path class="p" d="M345.56,55a5.29,5.29,0,0,1-1.2-4.94A3.86,3.86,0,0,1,348,48.16c1.1.08,3.16,5.76,2.6,6.39-.28,0-.55-.07-.83-.09A10.09,10.09,0,0,0,345.56,55Z" transform="translate(-5.86 -4.8)"/><path class="k" d="M345.14,55.93a10.36,10.36,0,0,1,8,.14l.08-.18a10.32,10.32,0,0,0-3.71-.88,10.21,10.21,0,0,0-4.46.74Z" transform="translate(-5.86 -4.8)"/><path class="q" d="M349,48.24c-.2.08.06.49.14.68a13.66,13.66,0,0,1,1.09,2.2c.06.49.62,2.07.69,2.46s.37.22.37.22a4.82,4.82,0,0,0,.4-1.51,3,3,0,0,0-.69-1.11c-.18-.21-.62-.72-.59-1.1a1.41,1.41,0,0,0-.49-1.29C349.49,48.46,349.21,48.16,349,48.24Z" transform="translate(-5.86 -4.8)"/><circle class="r" cx="347.59" cy="51.79" r="2.98" transform="translate(265.1 389.97) rotate(-85.88)"/><g class="s"><circle class="h" cx="350.16" cy="52.08" r="0.96" transform="translate(267.2 392.8) rotate(-85.88)"/></g><g class="t"><circle class="h" cx="348.57" cy="52.93" r="0.48" transform="translate(264.88 391.99) rotate(-85.88)"/></g><ellipse class="f" cx="315.34" cy="31.65" rx="31.71" ry="22.74" transform="translate(-3.03 79.54) rotate(-15.3)"/><ellipse class="e" cx="315.02" cy="30.47" rx="29.37" ry="20.65" transform="translate(-2.73 79.41) rotate(-15.3)"/><ellipse class="v" cx="313.89" cy="25.36" rx="22.27" ry="11.57" transform="translate(-1.42 78.93) rotate(-15.3)"/><path class="w" d="M299.57,70.69c4.39-.21,8.78-.34,13.1-.79,1.08-.11,2.15-.26,3.19-.47.26-.06.52-.11.76-.18l.38-.1.39-.11c.52-.15,1-.31,1.53-.49s1-.38,1.49-.59,1-.43,1.57-.62,1.08-.34,1.63-.48,1.09-.27,1.65-.37,1.12-.17,1.66-.24,1.07-.14,1.6-.23,1.06-.19,1.58-.3a15.51,15.51,0,0,0,1.49-.45c2-.72,4.06-1.57,6.07-2.42s4-1.73,6-2.65q1.5-.68,3-1.4c.49-.24,1-.49,1.46-.75a12,12,0,0,0,1.4-.85,17.58,17.58,0,0,1-2.68,1.93c-.93.59-1.89,1.13-2.85,1.67-1.93,1.06-3.88,2.07-5.87,3-1,.48-2,.94-3,1.39s-2,.87-3.07,1.27a14.88,14.88,0,0,1-1.64.53c-.55.12-1.09.24-1.64.34s-1.11.17-1.65.24-1.07.14-1.59.24-1,.21-1.56.34-1,.28-1.53.45-1,.36-1.49.57-1,.42-1.57.61l-1.6.51-.4.11-.2.06-.21.05-.84.18a30.69,30.69,0,0,1-3.33.37c-2.21.14-4.42.14-6.62.07S301.75,70.93,299.57,70.69Z" transform="translate(-5.86 -4.8)"/><path class="x" d="M295.91,52.17a32.25,32.25,0,0,0,12.35,4,34.44,34.44,0,0,0,6.48.1,35.15,35.15,0,0,0,6.39-1.08,35.59,35.59,0,0,0,6.1-2.19l1.46-.71,1.42-.78,1.39-.85,1.35-.9a34.3,34.3,0,0,0,9-9.37,29.8,29.8,0,0,1-8.52,10,33.49,33.49,0,0,1-5.68,3.48,35.48,35.48,0,0,1-6.26,2.31,35,35,0,0,1-6.59,1.06,32.29,32.29,0,0,1-6.66-.28A28.33,28.33,0,0,1,295.91,52.17Z" transform="translate(-5.86 -4.8)"/><path class="x" d="M295,51.53a29.63,29.63,0,0,0,12.63,3.37,38.6,38.6,0,0,0,6.55-.24,42,42,0,0,0,6.43-1.28,43.73,43.73,0,0,0,6.17-2.21,44.34,44.34,0,0,0,5.8-3.08,40.46,40.46,0,0,0,9.86-8.7,34.28,34.28,0,0,1-9.4,9.39c-.45.33-.93.62-1.4.92s-1,.58-1.45.85l-.73.41-.75.38-.75.38-.76.35a43.09,43.09,0,0,1-6.3,2.31,41.32,41.32,0,0,1-6.6,1.25,35.76,35.76,0,0,1-6.71.07,29.78,29.78,0,0,1-6.57-1.3A23.6,23.6,0,0,1,295,51.53Z" transform="translate(-5.86 -4.8)"/><path class="a" d="M295.72,52.07a32.3,32.3,0,0,0,6,2.36,32.85,32.85,0,0,0,6.33,1.1,35.72,35.72,0,0,0,6.4-.08,37.57,37.57,0,0,0,6.28-1.17,39.43,39.43,0,0,0,6-2.16A41.17,41.17,0,0,0,332.35,49a39.86,39.86,0,0,0,9.49-8.66,33.61,33.61,0,0,1-9,9.34l-1.36.92-1.4.85-1.44.79-1.47.73A39,39,0,0,1,321,55.28a37.2,37.2,0,0,1-6.52,1.16,33.26,33.26,0,0,1-6.57-.09,30,30,0,0,1-6.39-1.44A27.08,27.08,0,0,1,295.72,52.07Z" transform="translate(-5.86 -4.8)"/><ellipse class="f" cx="321.9" cy="57.88" rx="19.73" ry="1.58" transform="translate(-9.72 82.2) rotate(-15.3)"/><rect class="y" y="109.03" width="631.47" height="277.55"/><rect class="h" x="7.7" y="117.53" width="610.66" height="261.87"/><path class="z" d="M449.68,108.84l-3.41,20.58-4.8-1.2s-.77,2.21-1.2,2.4c-.38,1,0,4.8,0,4.8l-1.2,4.8s-9.6,25.2-18,30l-14.4-12c-8.4-4.8-25.2-10.8-30.68-11.58H250.89c-2.84.89-29.52,6-29.52,6l-4.85-.6L202,138.34l-1.86-19v-6l-.06-.2c-.52-1.64-4-12.79-6.13-17.7l-.46-1,.38-1.09c.73-2,2.77-8.33,2.77-8.33h.23l91.73-.79,87.49-.76,21.38-.18,23.75-.2L431.82,85Z" transform="translate(-5.86 -4.8)"/><polygon class="aa" points="190.54 85.18 196.97 103.38 198.58 126.41 211.43 138.19 244.63 132.84 371 132.84 402.01 146.23 416.41 157.03 430.44 132.84 431.21 117.77 438.01 121.03 439.21 104.23 426.01 81.43 413.3 79.29 190.54 85.18"/><path class="y" d="M414.09,83.28l-.25,1.41,16.52,16s10.39,6.68,11.82,8.73a19.23,19.23,0,0,1-1.92,6.27l-.87.2-6.67,3.5-1.43,11.39a36.76,36.76,0,0,1,.27,4.26c-.9,8.75-8.1,24.35-24.25,13.26h0c-6.63-3.32-17.48-7.8-27.27-15l-1.41-1H249.68l-.77.24c-5,1.55-27.55,5.58-27.55,5.58l-2.53-.24-9.56-9-1.07-14.67v-6.3s-3.94-13.43-6-18.13c.54-1.5,1.08-2.64,1.68-4.76Z" transform="translate(-5.86 -4.8)"/><line class="ab" x1="414.74" y1="80.25" x2="344.58" y2="77.78"/><line class="ab" x1="190.8" y1="80.89" x2="191.65" y2="78.52"/><polygon class="z" points="194.25 107.58 233.97 103.58 306.34 100.26 233.38 106.25 194.13 113.47 194.25 107.58"/><polygon class="z" points="433.43 118.03 400.17 111.99 394.15 110.9 322.27 101.85 394.53 113.6 433.08 123.91 433.43 118.03"/><polygon class="z" points="399.9 106.6 394.54 100.17 402.04 106.6 402.58 113.74 399.9 113.02 399.9 106.6"/><path class="ac" d="M384.25,81.76" transform="translate(-5.86 -4.8)"/><path class="ac" d="M229.07,85l-31.34.67L196.39,90l6.43,18.21.27,4,29.4-3.07s-27.58,2.28-28.11,1.74,0-3.21-.54-3.75-7-17.14-6.43-17.67a5.8,5.8,0,0,1,2.68-2.14C201.75,86.76,229.07,85,229.07,85Z" transform="translate(-5.86 -4.8)"/><polygon class="ac" points="232.43 106.46 197.63 112.75 198.56 126.41 211.41 138.19 244.61 132.84 271.65 132.84 244.61 131.23 212.48 136.05 200.7 125.34 198.56 113.56 232.43 106.46"/><polygon class="ac" points="439.21 104.23 424.81 85.03 414.36 83.58 411.45 83.25 382.87 80.1 373.21 79.03 376.96 78.92 385.53 78.68 391.68 78.5 415.21 77.83 426.01 80.23 439.21 104.23"/><polygon class="ac" points="438.01 121.03 431.21 117.77 402.58 113.02 402.04 106.6 394.54 100.17 402.58 106.6 403.11 112.49 430.96 116.77 438.01 121.03"/><path class="ac" d="M388.49,116.48l11.91,1.87,37.46,6.27-1.59,13s-1.07-7.5-1.61-7.5-34.27-10.71-34.27-10.71Z" transform="translate(-5.86 -4.8)"/><polygon class="ac" points="322.97 132.84 370.98 132.84 400.81 147.43 416.41 157.03 402.01 146.23 371.52 129.62 322.97 132.84"/><g class="t"><ellipse class="ad" cx="240.16" cy="121.24" rx="14.4" ry="3.48" transform="matrix(0.99, -0.14, 0.14, 0.99, -20.26, 29.41)"/></g><ellipse class="ae" cx="420.33" cy="99.09" rx="3.48" ry="6.16" transform="translate(280.99 505) rotate(-85.26)"/><ellipse class="ad" cx="428.34" cy="105.07" rx="1.4" ry="2.49" transform="translate(282.37 518.47) rotate(-85.26)"/><ellipse class="ad" cx="420.63" cy="107.56" rx="2.02" ry="3.57" transform="translate(272.82 513.07) rotate(-85.26)"/><path class="af" d="M296.49,94.25s72.29-2.14,80.86-1.07S402,99.07,402,99.07L380.59,96.4Z" transform="translate(-5.86 -4.8)"/><path class="ag" d="M377.4,93c-7.51-.94-64.54.61-78,1l-2.86.07v.3l3.36.08,80.67,2L402,99.21v-.28C401.89,98.88,385.87,94.1,377.4,93Zm3.19,3.22-78.68-2c16.94-.47,68.36-1.81,75.46-.92,6.8.85,18.48,4.12,22.87,5.38Z" transform="translate(-5.86 -4.8)"/><g class="ah"><path class="af" d="M319,127.45s-72.29-2.14-80.86-1.07-24.66,5.89-24.66,5.89l21.42-2.68Z" transform="translate(-5.86 -4.8)"/><path class="ai" d="M316.95,127.25c-11.89-.34-71.14-2-78.8-1-8.48,1.06-24.49,5.84-24.66,5.89l.06.29L235,129.75l82.09-2.1h2v-.29Zm-101.64,4.66c4.38-1.27,16.07-4.52,22.87-5.38,1.69-.22,5.92-.3,11.6-.3,18.1,0,51,.86,63.84,1.21l-78.7,2Z" transform="translate(-5.86 -4.8)"/></g><g class="aj"><path class="af" d="M407.9,141.91s-12.31-2.68-13.41-4.82-1.07-10.17,1.07-11.24,23,2.14,25.7,3.75,5.35,4.82,5.35,5.89-5.35,4.28-5.35,4.28,2.14-2.14,1.61-4.28a6.33,6.33,0,0,0-4.82-4.82c-2.68-.54-17.67-3.75-19.28-2.68,0,0-3.21,4.28-1.61,7s11.78,5.89,13.39,4.82,2.68-2.14,1.07-4.28-10.71-2.14-10.71-2.14h12.32s2.68,3.21,2.14,4.28-1.07,4.28-2.68,4.82S407.9,141.91,407.9,141.91Z" transform="translate(-5.86 -4.8)"/><path class="ak" d="M421.36,129.47c-1.43-.86-7.61-2.08-13.1-2.89s-11.54-1.45-12.73-.86c-1.42.71-1.74,4-1.82,5.35a15,15,0,0,0,.68,6.1c1.09,2.16,12.88,4.76,13.48,4.9a14.75,14.75,0,0,0,3.74.68,3.9,3.9,0,0,0,1.16-.16c1.25-.42,1.87-2.32,2.33-3.7a10.56,10.56,0,0,1,.43-1.2c.56-1.12-1.87-4.1-2.16-4.44H400.95v.28c.08,0,9,0,10.58,2.09a2.72,2.72,0,0,1,.74,2.08c-.13.76-.8,1.34-1.78,2-.44.3-1.79.24-3.59-.17-3.82-.85-8.58-2.92-9.59-4.6-1.49-2.47,1.34-6.46,1.57-6.78,1-.6,7.12.24,18.16,2.51l1,.2a6.2,6.2,0,0,1,4.7,4.7c.52,2-1.55,4.13-1.56,4.15l-.84.83,1-.6c.56-.34,5.44-3.29,5.44-4.42S424.06,131.09,421.36,129.47Zm.62,9.71a4.71,4.71,0,0,0,1.06-3.73,6.51,6.51,0,0,0-4.93-4.92l-1-.2c-7.25-1.49-17-3.36-18.4-2.45h0c-.13.18-3.25,4.4-1.61,7.13,1.08,1.81,5.92,3.86,9.78,4.74,1.12.25,3.1.6,3.8.12,1-.68,1.76-1.32,1.91-2.18a3.06,3.06,0,0,0-.79-2.3c-.82-1.08-3.4-1.63-5.83-1.91h7.25c.76.91,2.48,3.28,2.09,4.07a9.64,9.64,0,0,0-.46,1.24c-.43,1.33-1,3.14-2.15,3.52-1.54.52-4.69-.53-4.72-.54h0s-3.11-.68-6.28-1.61c-5.27-1.54-6.72-2.54-7-3.13a14.74,14.74,0,0,1-.66-6c.16-2.75.78-4.66,1.67-5.1a4.79,4.79,0,0,1,1.72-.19c5.51,0,21.41,2.47,23.84,3.94,2.67,1.67,5.22,4.85,5.22,5.85,0,.59-2.52,2.39-4.51,3.65Z" transform="translate(-5.86 -4.8)"/></g><path class="al" d="M449.68,108.84l-3.41,20.58-4.8-1.2s-.77,2.21-1.2,2.4c-.38,1,0,4.8,0,4.8l-1.2,4.8s-9.6,25.2-18,30l-14.4-12c-8.4-4.8-25.2-10.8-30.68-11.58h-54.5l-2.1-9-1.25-5.35-1.07-4.63v-.39L312,105.44l-.35-.31h0l-11.76-10.6-.18-.16-.18-.17-.14-.13-7.24-6.6-3.42-3.12-.1-.08,87.49-.76,21.38-.22L421,82.62l10.8,2.4Z" transform="translate(-5.86 -4.8)"/><text class="am" transform="translate(236.41 127.03)">Tutorial</text><text class="an" transform="translate(234.01 124.63)">Tutorial</text><text class="ao" transform="translate(161.85 188.4)">Ma<tspan class="ap" x="22.67" y="0">k</tspan><tspan x="31.21" y="0">e sure </tspan><tspan class="aq" x="80.61" y="0">t</tspan><tspan x="86.62" y="0">o only </tspan><tspan class="ar" x="136.71" y="0">f</tspan><tspan x="141.7" y="0">eed the animals apples! </tspan><tspan x="-16.53" y="18">A</tspan><tspan class="as" x="-5.46" y="18">n</tspan><tspan x="4.25" y="18">ything else will descrease points and health. </tspan></text><text class="at" transform="translate(352.51 250.96)">Good</text><text class="au" transform="translate(260.56 253.02)">Bad</text><polygon class="av" points="261.44 291.29 282.91 268.32 278.07 263.8 256.6 286.76 250.99 281.52 245.68 304.42 268.16 297.57 261.44 291.29"/><polygon class="aw" points="403.02 284.07 381.56 261.11 386.4 256.58 407.86 279.55 413.47 274.31 418.79 297.2 396.3 290.36 403.02 284.07"/><path class="ax" d="M184.66,366.35a48.84,48.84,0,1,1,48.84-48.84A48.89,48.89,0,0,1,184.66,366.35Z" transform="translate(-5.86 -4.8)"/><circle class="ay" cx="178.8" cy="312.72" r="42.18"/><path class="az" d="M209.13,295.93l-1,.5-.5-1a.39.39,0,0,0-.7.35l.5,1-1,.5a.39.39,0,1,0,.35.7l1-.5.5,1a.39.39,0,0,0,.7-.35l-.5-1,1-.5a.39.39,0,1,0-.35-.7Z" transform="translate(-5.86 -4.8)"/><path class="az" d="M189.05,352.5l-1.75.23-.23-1.75a.61.61,0,0,0-1.21.16l.23,1.75-1.75.23a.61.61,0,1,0,.16,1.21l1.75-.23.23,1.75a.61.61,0,0,0,1.21-.16l-.23-1.75,1.75-.23a.61.61,0,1,0-.16-1.21Z" transform="translate(-5.86 -4.8)"/><path class="az" d="M164.63,288.12l-1.75.23-.23-1.75a.61.61,0,0,0-1.21.16l.23,1.75-1.75.23a.61.61,0,1,0,.16,1.21l1.75-.23.23,1.75a.61.61,0,0,0,1.21-.16l-.23-1.75,1.75-.23a.61.61,0,1,0-.16-1.21Z" transform="translate(-5.86 -4.8)"/><path class="az" d="M218.1,335.13c-.58-2.63-2.38-4.5-5.55-5.55,2.95-.35,4.69-2.35,5.55-5.55a7,7,0,0,0,5.55,5.55C220.18,330.4,218.09,332.1,218.1,335.13Z" transform="translate(-5.86 -4.8)"/><path class="az" d="M158.16,339.57c-1-4.66-4.23-8-9.85-9.85,5.23-.63,8.33-4.17,9.85-9.85,1.25,5.43,4.67,8.57,9.85,9.85C161.85,331.18,158.15,334.19,158.16,339.57Z" transform="translate(-5.86 -4.8)"/><path class="ba" d="M157.8,293.3s13.15-2.23,15.77,5.39c3,4.08,2,5.26,2,5.26l-5.13-1.84A13.33,13.33,0,0,1,157.8,293.3Z" transform="translate(-5.86 -4.8)"/><path class="ba" d="M212.14,293.83s-13.15-2.23-15.77,5.39c-3,4.08-2,5.26-2,5.26l5.13-1.84A13.33,13.33,0,0,0,212.14,293.83Z" transform="translate(-5.86 -4.8)"/><path class="ba" d="M185.15,293.44s-13.41.39-16.83,15.12c-.66,3.29-2.1,8-1.18,13.28-1.71,2-10.25,12.62.92,19.19s28.53,7.36,36.15-1.31,1.45-15.51-1.18-17.48a33.12,33.12,0,0,0-.66-13.15C200.53,302.51,193.56,293.57,185.15,293.44Z" transform="translate(-5.86 -4.8)"/><path class="ba" d="M195.27,323.54c0,2.8-3.55,5.26-9.46,5.26s-10.71-2.27-10.71-5.06,4.14-5.72,10.06-5.72S195.27,320.75,195.27,323.54Z" transform="translate(-5.86 -4.8)"/><ellipse class="ba" cx="172.58" cy="304.02" rx="2.1" ry="4.21"/><ellipse class="ba" cx="186.12" cy="304.02" rx="2.1" ry="4.21"/><ellipse class="ba" cx="175.21" cy="317.3" rx="3.68" ry="1.84"/><ellipse class="ba" cx="186.45" cy="305.07" rx="1.38" ry="2.76"/><ellipse class="ba" cx="172.83" cy="305.07" rx="1.38" ry="2.76"/><ellipse class="ba" cx="173.1" cy="306.13" rx="0.85" ry="1.71"/><ellipse class="ba" cx="186.64" cy="306.13" rx="0.85" ry="1.71"/><path class="ba" d="M212,293.83s-13.15-2.23-15.77,5.39c-3,4.08-2,5.26-2,5.26l5.13-1.84A13.33,13.33,0,0,0,212,293.83Z" transform="translate(-5.86 -4.8)"/><path class="ba" d="M187.18,346.09c6.76,0,13.08-2,16.93-6.38,7.62-8.68,1.45-15.51-1.18-17.48a33.12,33.12,0,0,0-.66-13.15c-1.84-6.57-8.81-15.51-17.22-15.64" transform="translate(-5.86 -4.8)"/><path class="ba" d="M186.1,317.91c5.41.27,9.17,2.85,9.17,5.5s-3.27,5.06-8.77,5.25" transform="translate(-5.86 -4.8)"/><ellipse class="ba" cx="186.02" cy="304.02" rx="2.1" ry="4.21"/><ellipse class="ba" cx="186.35" cy="305.07" rx="1.38" ry="2.76"/><ellipse class="ba" cx="186.54" cy="306.13" rx="0.85" ry="1.71"/><path class="bb" d="M156.66,293.3s13.15-2.23,15.77,5.39c3,4.08,2,5.26,2,5.26l-5.13-1.84A13.33,13.33,0,0,1,156.66,293.3Z" transform="translate(-5.86 -4.8)"/><path class="bb" d="M211,293.83s-13.15-2.23-15.77,5.39c-3,4.08-2,5.26-2,5.26l5.13-1.84A13.33,13.33,0,0,0,211,293.83Z" transform="translate(-5.86 -4.8)"/><path class="bc" d="M184,293.44s-13.41.39-16.83,15.12c-.66,3.29-2.1,8-1.18,13.28-1.71,2-10.25,12.62.92,19.19s28.53,7.36,36.15-1.31,1.45-15.51-1.18-17.48a33.12,33.12,0,0,0-.66-13.15C199.38,302.51,192.42,293.57,184,293.44Z" transform="translate(-5.86 -4.8)"/><path class="bd" d="M194.12,323.54c0,2.8-3.55,5.26-9.46,5.26s-10.71-2.27-10.71-5.06S178.08,318,184,318,194.12,320.75,194.12,323.54Z" transform="translate(-5.86 -4.8)"/><ellipse class="be" cx="171.44" cy="304.02" rx="2.1" ry="4.21"/><ellipse class="be" cx="184.98" cy="304.02" rx="2.1" ry="4.21"/><ellipse class="bf" cx="174.07" cy="317.3" rx="3.68" ry="1.84"/><ellipse class="bg" cx="185.31" cy="305.07" rx="1.38" ry="2.76"/><ellipse class="bg" cx="171.69" cy="305.07" rx="1.38" ry="2.76"/><ellipse cx="171.95" cy="306.13" rx="0.85" ry="1.71"/><ellipse cx="185.49" cy="306.13" rx="0.85" ry="1.71"/><path class="bh" d="M210.9,293.83s-13.15-2.23-15.77,5.39c-3,4.08-2,5.26-2,5.26l5.13-1.84A13.33,13.33,0,0,0,210.9,293.83Z" transform="translate(-5.86 -4.8)"/><path class="bb" d="M186,346.09c6.76,0,13.08-2,16.93-6.38,7.62-8.68,1.45-15.51-1.18-17.48a33.12,33.12,0,0,0-.66-13.15c-1.84-6.57-8.81-15.51-17.22-15.64" transform="translate(-5.86 -4.8)"/><path class="bh" d="M185,317.91c5.41.27,9.17,2.85,9.17,5.5s-3.27,5.06-8.77,5.25" transform="translate(-5.86 -4.8)"/><ellipse class="be" cx="184.88" cy="304.02" rx="2.1" ry="4.21"/><ellipse class="bi" cx="185.21" cy="305.07" rx="1.38" ry="2.76"/><ellipse cx="185.39" cy="306.13" rx="0.85" ry="1.71"/><path class="bj" d="M518.55,365.61a56,56,0,1,1,56-56A56.11,56.11,0,0,1,518.55,365.61Z" transform="translate(-5.86 -4.8)"/><circle class="bk" cx="512.69" cy="304.77" r="48.4"/><path class="bl" d="M546.62,284.79l-1.17.58-.58-1.17a.45.45,0,0,0-.8.4l.58,1.17-1.17.58a.45.45,0,1,0,.4.8l1.17-.58.58,1.17a.45.45,0,0,0,.8-.4l-.58-1.17,1.17-.58a.45.45,0,1,0-.4-.8Z" transform="translate(-5.86 -4.8)"/><path class="bl" d="M523.59,349.71l-2,.27-.27-2a.7.7,0,0,0-1.38.18l.27,2-2,.27a.7.7,0,1,0,.18,1.38l2-.27.27,2a.7.7,0,0,0,1.38-.18l-.27-2,2-.27a.7.7,0,1,0-.18-1.38Z" transform="translate(-5.86 -4.8)"/><path class="bl" d="M495.57,275.83l-2,.27-.27-2a.7.7,0,0,0-1.38.18l.27,2-2,.27a.7.7,0,1,0,.18,1.38l2-.27.27,2a.7.7,0,0,0,1.38-.18l-.27-2,2-.27a.7.7,0,1,0-.18-1.38Z" transform="translate(-5.86 -4.8)"/><path class="bl" d="M556.92,329.78c-.66-3-2.73-5.17-6.37-6.37,3.38-.41,5.38-2.7,6.37-6.37a8,8,0,0,0,6.37,6.37C559.31,324.35,556.91,326.3,556.92,329.78Z" transform="translate(-5.86 -4.8)"/><path class="bl" d="M488.14,334.88c-1.17-5.35-4.85-9.17-11.3-11.3,6-.72,9.55-4.79,11.3-11.3,1.44,6.23,5.36,9.84,11.3,11.3C492.38,325.24,488.12,328.7,488.14,334.88Z" transform="translate(-5.86 -4.8)"/><path class="bm" d="M519.14,284.38l2.59-1.92s-.57,12.24,2.77,15.79c2.12,2.26-1.29,3.7-4.06,4.45" transform="translate(-5.86 -4.8)"/><path class="bm" d="M520.45,302.69a28.73,28.73,0,0,1-3,.63s.53-11.44-2.52-15.86l4.17-3.09" transform="translate(-5.86 -4.8)"/><path class="bn" d="M549.47,315c-.09,11.14-11.26,22.65-26.46,22.65-16.24,0-32.35-9-32.35-22.65,0-12.13,4.43-19.85,13.36-20.3,4-1.09,16,2.08,16,2.08.43,0,10.09-3.35,16.21-1.64C542.72,297,549.57,303.25,549.47,315Z" transform="translate(-5.86 -4.8)"/><path class="bn" d="M520.07,296.82c.43,0,10.09-3.35,16.21-1.64,6.44,1.8,13.29,8.08,13.19,19.85-.09,11.14-11.26,22.65-26.46,22.65" transform="translate(-5.86 -4.8)"/><path class="bo" d="M518.32,285.2l2.59-1.92s-.57,12.24,2.77,15.79c2.12,2.26-1.29,3.7-4.06,4.45" transform="translate(-5.86 -4.8)"/><path class="bp" d="M519.63,303.51a28.73,28.73,0,0,1-3,.63s.53-11.44-2.52-15.86l4.17-3.09" transform="translate(-5.86 -4.8)"/><path class="bq" d="M548.65,315.85c-.09,11.14-11.26,22.65-26.46,22.65-16.24,0-32.35-9-32.35-22.65,0-12.13,4.43-19.85,13.36-20.3,4-1.09,16,2.08,16,2.08.43,0,10.09-3.35,16.21-1.64C541.9,297.8,548.75,304.07,548.65,315.85Z" transform="translate(-5.86 -4.8)"/><path class="br" d="M519.25,297.64c.43,0,10.09-3.35,16.21-1.64,6.44,1.8,13.29,8.08,13.19,19.85-.09,11.14-11.26,22.65-26.46,22.65" transform="translate(-5.86 -4.8)"/><path class="bs" d="M76.1,323.21a51.54,51.54,0,1,1,51.54-51.54A51.6,51.6,0,0,1,76.1,323.21Z" transform="translate(-5.86 -4.8)"/><circle class="bt" cx="70.24" cy="266.87" r="44.52"/><path class="bu" d="M101.92,248.88l-1.07.53-.53-1.07a.41.41,0,0,0-.74.37l.53,1.07-1.07.53a.41.41,0,1,0,.36.74l1.07-.53.53,1.07a.41.41,0,0,0,.74-.37l-.53-1.07,1.07-.53a.41.41,0,1,0-.36-.74Z" transform="translate(-5.86 -4.8)"/><path class="bu" d="M80.73,308.59l-1.85.24L78.64,307a.64.64,0,0,0-1.27.17l.24,1.85-1.85.24a.64.64,0,1,0,.17,1.27l1.85-.24.24,1.85A.64.64,0,0,0,79.3,312l-.24-1.85,1.85-.24a.64.64,0,1,0-.17-1.27Z" transform="translate(-5.86 -4.8)"/><path class="bu" d="M55,240.64l-1.85.24L52.87,239a.64.64,0,0,0-1.27.17l.24,1.85L50,241.3a.64.64,0,1,0,.17,1.27l1.85-.24.24,1.85a.64.64,0,0,0,1.27-.17l-.24-1.85,1.85-.24a.64.64,0,1,0-.17-1.27Z" transform="translate(-5.86 -4.8)"/><path class="bu" d="M111.39,290.26c-.61-2.77-2.51-4.75-5.86-5.86,3.11-.37,5-2.48,5.86-5.86a7.37,7.37,0,0,0,5.86,5.86C113.58,285.27,111.38,287.06,111.39,290.26Z" transform="translate(-5.86 -4.8)"/><path class="bu" d="M48.13,294.95c-1.08-4.92-4.46-8.44-10.4-10.4,5.52-.66,8.79-4.4,10.4-10.4,1.32,5.73,4.93,9,10.4,10.4C52,286.09,48.11,289.27,48.13,294.95Z" transform="translate(-5.86 -4.8)"/><path class="bv" d="M55.29,250.06s-2,0-2,3.14,3.49,20.35,1.22,21.83-4.37,4.37-1.4,6.64.7,7,1,9.26-2.53,3.58,1,5.59,35.45-1.66,36.76-1,2.27-7.86,2-8.21a4.51,4.51,0,0,1,1.57-4c1.48-1-1.22-11.18-1.22-12.66s-.52-12.92-1.14-13.71-1.92-1.75-1.31-1.92.61-5.24.09-5.76-2.1-5.68-2.18-6.37-2.36.61-2.71.61-1.4-.87-2.18-.09-2.71,1.75-3.23,1.31-.26-.7-.79-1.31-3.93-1-4.8-.87-3.93.61-4.63,1-1.31,2.18-1.66,1.4.87-1.22-1.66-1.66-4.1-1.31-3,.44-1.4-.17-1.66.26-1.57,1.22-1.48,2.18-1.31-.17-2.18-.17-1.92.87-1.92,1.48-.87.52-1.4.87S57,250.06,55.29,250.06Z" transform="translate(-5.86 -4.8)"/><path class="bw" d="M55.57,250.62s-2,0-2,3.14,3.49,20.35,1.22,21.83-4.37,4.37-1.4,6.64.7,7,1,9.26-2.53,3.58,1,5.59,35.45-1.66,36.76-1,2.27-7.86,2-8.21a4.51,4.51,0,0,1,1.57-4c1.48-1-1.22-11.18-1.22-12.66S94,258.3,93.38,257.51s-1.92-1.75-1.31-1.92.61-5.24.09-5.76-2.1-5.68-2.18-6.37-2.36.61-2.71.61-1.4-.87-2.18-.09-2.71,1.75-3.23,1.31-.26-.7-.79-1.31-3.93-1-4.8-.87-3.93.61-4.63,1-1.31,2.18-1.66,1.4.87-1.22-1.66-1.66-4.1-1.31-3,.44-1.4-.17-1.66.26-1.57,1.22-1.48,2.18-1.31-.17-2.18-.17-1.92.87-1.92,1.48-.87.52-1.4.87S57.32,250.62,55.57,250.62Z" transform="translate(-5.86 -4.8)"/><path class="bh" d="M55.29,251.17s-2,0-2,3.14,3.49,20.35,1.22,21.83-4.37,4.37-1.4,6.64.7,7,1,9.26-2.53,3.58,1,5.59,35.45-1.66,36.76-1,2.27-7.86,2-8.21a4.51,4.51,0,0,1,1.57-4c1.48-1-1.22-11.18-1.22-12.66s-.52-12.92-1.14-13.71-1.92-1.75-1.31-1.92.61-5.24.09-5.76-2.1-5.68-2.18-6.37-2.36.61-2.71.61-1.4-.87-2.18-.09-2.71,1.75-3.23,1.31-.26-.7-.79-1.31-3.93-1-4.8-.87-3.93.61-4.63,1-1.31,2.18-1.66,1.4.87-1.22-1.66-1.66-4.1-1.31-3,.44-1.4-.17-1.66.26-1.57,1.22-1.48,2.18-1.31-.17-2.18-.17-1.92.87-1.92,1.48-.87.52-1.4.87S57,251.17,55.29,251.17Z" transform="translate(-5.86 -4.8)"/><path class="bx" d="M63.5,267.76s-2.1,1.57-.17,5.24-1.22,8.82-.87,10.83,1,5,1,5,3.84,4.45,3.41,2.18-1.31-4.63-.26-6.81,2.62-4.54,1.75-9.08S67.17,267.76,63.5,267.76Z" transform="translate(-5.86 -4.8)"/><path class="by" d="M69.62,251.43s2,6.72,1.75,8.73a27.29,27.29,0,0,1-1.48,5.06S75.2,261,74,257.9,72.32,251.61,69.62,251.43Z" transform="translate(-5.86 -4.8)"/><path class="bz" d="M83.41,255s1,6,1.83,9.08,0,2.79.52,5,2.27.52,2.36-2.62,2.18-1,2.36-3.49,1-3.75-.44-4-1.75.09-2.36-2.1-.17-2.18-1.31-2.79-1.57-1.48-1.92-.61S84.11,255.8,83.41,255Z" transform="translate(-5.86 -4.8)"/><path class="bx" d="M75.55,277.11s3,1,2.45,2.62-.7,1.75-.7,2.62-.26,3.41.52,2.45,1.48-1,1.75-2.62.87-2.27,1.14-2.1.35,2.53.61,3.14-1.22,3.14-1.22,3.41-1.22,2.62-.87,2.88a1.61,1.61,0,0,0,2.1-1.4c0-1.4,0-3.93.44-4.63s1,.17,1-2.27,1.75-2.79,1.57-3.84-1.92-4.28-2.1-5,.44-2.18-.61-3.32-.26-.79-2.45-2.53-2.36-5.68-2.62-1.92,2.18,8.73,2.18,9.08S75.55,277.11,75.55,277.11Z" transform="translate(-5.86 -4.8)"/><path class="bz" d="M62.92,270s-3,.53-2.47,3.18-3.36,6-3.36,6.54.35,6.18.35,6.18-.71,1.06.53-1.94a23.33,23.33,0,0,1,3.36-5.48c.35-.53-.35-3,1.06-5.12S62.92,270,62.92,270Z" transform="translate(-5.86 -4.8)"/><path class="ca" d="M55.12,265.49s1,1.14,2.18.7S59,267.41,59,267.94s-1.48,2.18-1.48,2.18l-1.83.09A28.45,28.45,0,0,1,55.12,265.49Z" transform="translate(-5.86 -4.8)"/><path class="bz" d="M61.23,248.12s-1.14-.44-.7,3a15.94,15.94,0,0,1-.26,6.72c-.35.87-1.31,2.53-1.31,3.58s1.48,4.72,1.57,2,.17-3.14.26-4.37A16.15,16.15,0,0,1,62,254.84C62.54,253.53,63.5,245.5,61.23,248.12Z" transform="translate(-5.86 -4.8)"/><path class="bx" d="M80.18,245.76a27.18,27.18,0,0,0,1,3.49,6.89,6.89,0,0,1,.79,3.32c0,1.57,1,1.22,1.31.35s1.48-2,.44-2.27-1.31,0-1.31-1,.44-1.92-.17-2.18-1-.17-1-.61S81.05,244.19,80.18,245.76Z" transform="translate(-5.86 -4.8)"/><path class="ab" d="M85.07,276.23a2.79,2.79,0,0,0-1,3c.61,1.75-1,4.19.61,2.62s1.22-1.22.87-3.14S85.42,276.23,85.07,276.23Z" transform="translate(-5.86 -4.8)"/><path class="ca" d="M91.18,285.49a4.93,4.93,0,0,1,.52,1.75c0,.44-.52,3.14.44,2.27a2.31,2.31,0,0,0,1-2.36c0-1.22-1.83-2.88-2-2Z" transform="translate(-5.86 -4.8)"/><path class="bz" d="M69.27,293.52c2.1-.26,3.32-.61,3.58-.35s2,1.22.61,1.22-1.92,1-3.23,1.14-4.54,1-3.75,0A11.52,11.52,0,0,1,69.27,293.52Z" transform="translate(-5.86 -4.8)"/><g class="cb"><path class="cc" d="M94.21,270.66c0-1.48-.52-12.92-1.14-13.71s-1.92-1.75-1.31-1.92.61-5.24.09-5.76-2.1-5.68-2.18-6.37-2.36.61-2.71.61-1.4-.87-2.18-.09-2.71,1.75-3.23,1.31-.26-.7-.79-1.31-3.93-1-4.8-.87c-.6.12-2.23.36-3.41.64a369.57,369.57,0,0,0,1,53.38c8.84-.58,17.6-1.38,18.27-1,1.31.7,2.27-7.86,2-8.21a4.51,4.51,0,0,1,1.57-4C96.91,282.36,94.21,272.14,94.21,270.66Z" transform="translate(-5.86 -4.8)"/><path class="cd" d="M94.48,271.21c0-1.48-.52-12.92-1.14-13.71s-1.92-1.75-1.31-1.92.61-5.24.09-5.76-2.1-5.68-2.18-6.37-2.36.61-2.71.61-1.4-.87-2.18-.09-2.71,1.75-3.23,1.31-.26-.7-.79-1.31-3.93-1-4.8-.87c-.65.13-2.52.41-3.72.72a367.14,367.14,0,0,0,1.13,53.32c8.91-.59,17.81-1.39,18.49-1,1.31.7,2.27-7.86,2-8.21a4.51,4.51,0,0,1,1.57-4C97.19,282.91,94.48,272.7,94.48,271.21Z" transform="translate(-5.86 -4.8)"/><path class="ce" d="M94.21,271.77c0-1.48-.52-12.92-1.14-13.71s-1.92-1.75-1.31-1.92.61-5.24.09-5.76-2.1-5.68-2.18-6.37-2.36.61-2.71.61-1.4-.87-2.18-.09-2.71,1.75-3.23,1.31-.26-.7-.79-1.31-3.93-1-4.8-.87c-.61.12-2.27.37-3.46.66a365.09,365.09,0,0,0,1.2,53.36c8.8-.58,17.48-1.37,18.15-1,1.31.7,2.27-7.86,2-8.21a4.51,4.51,0,0,1,1.57-4C96.91,283.47,94.21,273.25,94.21,271.77Z" transform="translate(-5.86 -4.8)"/><path class="cf" d="M73.95,257.88a43.73,43.73,0,0,0-1.77-4.61q-.12,4.9-.13,9.81C73.34,261.6,74.61,259.59,73.95,257.88Z" transform="translate(-5.86 -4.8)"/><path class="cg" d="M83.38,255s1,6,1.83,9.08,0,2.79.52,5,2.27.52,2.36-2.62,2.18-1,2.36-3.49,1-3.75-.44-4-1.75.09-2.36-2.1-.17-2.18-1.31-2.79-1.57-1.48-1.92-.61S84.08,255.79,83.38,255Z" transform="translate(-5.86 -4.8)"/><path class="ch" d="M75.52,277.1s3,1,2.45,2.62-.7,1.75-.7,2.62-.26,3.41.52,2.45,1.48-1,1.75-2.62.87-2.27,1.14-2.1.35,2.53.61,3.14-1.22,3.14-1.22,3.41-1.22,2.62-.87,2.88a1.61,1.61,0,0,0,2.1-1.4c0-1.4,0-3.93.44-4.63s1,.17,1-2.27,1.75-2.79,1.57-3.84-1.92-4.28-2.1-5,.44-2.18-.61-3.32-.26-.79-2.45-2.53-2.36-5.68-2.62-1.92,2.18,8.73,2.18,9.08S75.52,277.1,75.52,277.1Z" transform="translate(-5.86 -4.8)"/><path class="ch" d="M80.15,245.75a27.18,27.18,0,0,0,1,3.49,6.89,6.89,0,0,1,.79,3.32c0,1.57,1,1.22,1.31.35s1.48-2,.44-2.27-1.31,0-1.31-1,.44-1.92-.17-2.18-1-.17-1-.61S81,244.17,80.15,245.75Z" transform="translate(-5.86 -4.8)"/><path class="ab" d="M85,276.22a2.79,2.79,0,0,0-1,3c.61,1.75-1,4.19.61,2.62s1.22-1.22.87-3.14S85.39,276.22,85,276.22Z" transform="translate(-5.86 -4.8)"/><path class="ci" d="M91.15,285.48a4.93,4.93,0,0,1,.52,1.75c0,.44-.52,3.14.44,2.27a2.31,2.31,0,0,0,1-2.36c0-1.22-1.83-2.88-2-2Z" transform="translate(-5.86 -4.8)"/><path class="bz" d="M73.3,293.52l.08.87h0C74.42,294.39,73.82,293.9,73.3,293.52Z" transform="translate(-5.86 -4.8)"/></g></svg>